<?xml version="1.0" standalone="no"?>
<!DOCTYPE svg PUBLIC "-//W3C//DTD SVG 1.1//EN" "http://www.w3.org/Graphics/SVG/1.1/DTD/svg11.dtd" >
<svg>
<metadata>
Created by FontForge 20090622 at Tue Sep 10 07:14:04 2019
 By deploy user
Copyright (c) ShyFonts Type Foundry, 2000. All rights reserved.
</metadata>
<defs>
<font id="SFToontimeShaded-Italic" horiz-adv-x="1328" >
  <font-face 
    font-family="SF Toontime Shaded"
    font-weight="400"
    font-style="italic"
    font-stretch="normal"
    units-per-em="2048"
    panose-1="2 0 5 6 0 0 0 2 0 4"
    ascent="1638"
    descent="-410"
    x-height="1408"
    cap-height="1415"
    bbox="-22.5873 -635 2552.33 2304"
    underline-thickness="20"
    underline-position="-123"
    slope="-12"
    unicode-range="U+0020-U+2122"
  />
<missing-glyph horiz-adv-x="1024" 
 />
    <glyph glyph-name=".notdef" horiz-adv-x="1024" 
 />
    <glyph glyph-name=".null" horiz-adv-x="0" 
 />
    <glyph glyph-name="nonmarkingreturn" horiz-adv-x="1024" 
 />
    <glyph glyph-name="space" unicode=" " horiz-adv-x="570" 
 />
    <glyph glyph-name="exclam" unicode="!" horiz-adv-x="505" 
d="M79 -36q-21 12 -28 36.5t1 64.5h59l-19 24q-25 1 -16 41l2 10q2 5 2 8l3 12q1 5 2.5 8.5t2.5 5.5q9 28 27 54t41 45.5t50.5 31.5t56.5 12q67 0 82 -51l51 -65q23 -28 9 -95q-8 -36 -22.5 -71.5t-37.5 -68.5q-65 -92 -147 -92q-46 0 -66 24zM222 432q-43 19 -28 97
q8 35 27.5 89.5t51.5 132.5l56.5 135l98.5 228q12 31 35.5 81.5t59.5 118.5q37 51 77 77.5t87 26.5q63 0 77 -49l51 -65q21 -29 8 -91q-11 -50 -33.5 -111t-57.5 -134l-76 -158t-30 -68q-14 -44 -40 -111t-68 -160q-71 -128 -182 -128q-44 0 -62 22zM300 191q17 84 -46 84
q-39 0 -74.5 -32.5t-49.5 -73.5l-12 -39q-29 -89 -25 -70q-14 -63 46 -63q56 0 107 71q40 58 54 123zM718 1299q16 77 -40 77q-67 0 -119 -77q-65 -125 -89 -190q-121 -276 -157 -367q-63 -155 -76 -213q-13 -63 39 -63q84 0 145 109q74 171 101 258q7 20 108 230
q68 140 88 236z" />
    <glyph glyph-name="quotedbl" unicode="&#x22;" horiz-adv-x="947" 
d="M418 797q-42 21 -34 90q1 12 10 60t27 133l5 26q2 9 3.5 20t3.5 23l8 39t6 32q7 33 25.5 65.5t45 58t59 41.5t67.5 16q60 0 77 -56l49 -60q2 -4 3.5 -8t5.5 -9q59 150 189 150q76 0 93 -56l48 -62q12 -15 15.5 -40t-4.5 -59q-19 -90 -43 -166.5t-53 -143.5
q-33 -72 -76 -108.5t-100 -36.5q-23 0 -40.5 6.5t-27.5 20.5l-51 63l-1 2q-4 2 -7.5 5t-8.5 5q-11 -28 -30.5 -53t-44.5 -44t-53.5 -30t-57.5 -11q-38 0 -54 22zM675 1217q30 142 -40 142q-51 0 -93 -44t-53 -95q-5 -24 -12.5 -70t-12.5 -70q-35 -164 -37 -187
q-4 -60 40 -60q45 0 86 32.5t57 76.5q8 21 19 72q7 34 22.5 101.5zM1016 1287q18 89 -57 89q-94 0 -140 -116q-37 -91 -79 -289q-21 -102 49 -102q82 0 133 116q56 124 94 302z" />
    <glyph glyph-name="numbersign" unicode="#" horiz-adv-x="1606" 
d="M1132 717l19.5 90l19.5 89q-45 -7 -101.5 -13.5t-124.5 -17.5l-20 -79.5l-25 -96.5q47 5 105 12.5t127 15.5zM1519 942l-19.5 -84.5l-21.5 -94.5q28 4 52 5.5t49 1.5q64 0 78 -48l51 -65q21 -27 9 -78q-25 -121 -162 -168h1q-18 -8 -57.5 -14.5t-103.5 -14.5l-21 -100
q-6 -29 -11 -47t-8 -27q-12 -27 -30.5 -51.5t-42 -42.5t-50.5 -28.5t-55 -10.5q-18 0 -31 6t-22 16l-52 65q-20 9 -30 30.5t-6 56.5q-1 5 3.5 28.5l12.5 62.5l-249 -29q-5 -22 -10 -40t-8 -32q-5 -17 -7 -27l-3.5 -18t-4 -16t-8.5 -21h1q-57 -145 -175 -145q-45 0 -63 24
l-52 66q-49 26 -29 113l8 38q-26 -7 -47.5 -8t-38.5 -1q-40 0 -56 22l-52 65q-47 21 -30 96q13 63 52.5 108t106.5 71q18 6 58 14.5t104 19.5v2q8 27 14 55.5t13 56.5l12 55l-13 -2q-49 -9 -90 -13t-76 -4q-43 0 -64 24l-52 65q-46 23 -29 99q27 128 154 171q29 10 69 17.5
t88 14.5l112 12q59 166 191 166q66 0 81 -52l47 -63q1 2 0 2v2l4 -6q2 -1 2 -3t2 -3l139.5 18.5t116.5 13.5q59 183 188 183q71 0 83 -55l47 -60q0 2 -1 2t0 2l4 -5q3 -8 6.5 -15t5.5 -16q26 2 41 3.5t23 1.5q67 0 81 -49l49 -64q1 2 0 2t-1 2l4 -5q20 -26 9 -81
q-26 -117 -149 -153q-11 -4 -45.5 -8zM1250 1041l-84 -363q-335 -38 -404 -47l85 354zM1612 664q14 63 -42 63q-46 0 -116 -10l-115 -19q50 222 85 364q148 15 166 20q95 29 114 118q14 66 -46 66q-27 0 -186 -17q22 74 24 84q16 75 -47 75q-106 0 -148 -177
q-138 -16 -402 -53q11 34 15 53q18 85 -45 85q-111 0 -151 -162q-74 -9 -147 -16q-87 -10 -146 -30q-98 -35 -118 -130q-14 -65 42 -65q63 0 160 17l161 29l-88 -357q-159 -25 -188 -35q-103 -40 -124 -140q-13 -60 37 -60q44 0 112 15q107 22 114 24q-47 -189 -47 -191
q-17 -80 43 -80q85 0 132 114l46 181l417 50q-43 -202 -44 -226q-4 -56 37 -56q43 0 80 30t55 72q7 19 17 67l29 135q151 19 185 30q109 36 129 132z" />
    <glyph glyph-name="dollar" unicode="$" horiz-adv-x="1411" 
d="M1464 1357l-13 -29.5t-11 -27.5q109 -45 145 -116l47 -58q26 -33 33.5 -72.5t-2.5 -84.5q-21 -101 -132 -196q-47 -40 -97 -69t-104 -49h-1q-14 -5 -24 -6.5t-18 -1.5q-49 0 -67 24l-31 39l-20 -43q34 -23 58.5 -49.5t38.5 -56.5l38 -46q69 -87 45 -201q-20 -90 -73 -162
t-142 -123q-132 -76 -299 -87q-18 -40 -44 -90.5l-58 -112.5q-71 -109 -157 -109q-55 0 -76 27l-50 65q-6 2 -11 7t-9 10l-24.5 -39t-20.5 -36q-68 -101 -149 -101q-47 0 -67 26l-52 65q-48 23 -31 102q9 42 31.5 98.5t60.5 130.5l12.5 26.5l13.5 27.5t14.5 27.5t14.5 27.5
l6 11.5t6 12.5l36 70q-7 21 -2 44q16 71 78 121l97 214l-27.5 26t-23.5 27l-33 42q-116 102 -83 254q34 160 212 285q65 47 137 80.5t153 53.5l117 262q26 57 67 84t97 27q70 0 82 -49l52 -65q-1 -1 3 -5q34 64 76.5 95t91.5 31q30 0 50 -17t28 -43l48 -59q13 -16 17.5 -37
t-0.5 -43q-7 -32 -20 -71.5t-34 -87.5zM793 536l-120 -258q-65 12 -125 36l118 261q86 -25 127 -39zM1048 331q-60 -48 -202 -60l98 212q124 -60 106 -145zM616 833q-123 53 -106 133q12 53 93 97q60 33 131 48zM1057 1133l-170 -389l-127 39q142 323 153 350q39 4 68 4
q34 0 76 -4zM1559 1055q38 179 -261 247l65 149q37 87 50 150q6 27 -6.5 49.5t-40.5 22.5q-71 0 -129 -110q-71 -157 -100 -237q-61 3 -146 -3l66 141q38 86 51 145q12 57 -47 57q-81 0 -116 -79l-128 -288q-161 -34 -298 -130q-160 -113 -189 -253q-42 -194 192 -291
l-133 -294q-54 -41 -67 -99q-4 -22 6 -41l-112 -218q-71 -142 -87 -217q-15 -70 48 -70q56 0 109 78q45 67 91 169l78 173q56 -21 122 -33l-65 -122q-42 -81 -51 -123q-16 -75 56 -75q61 0 115 81q80 151 113 229q175 5 308 82q156 92 191 254q40 188 -206 292l179 417
q135 -31 171 -93q-8 -6 -120 -76q-74 -46 -86 -103q-14 -66 45 -66q12 0 30 7q100 35 185 107q99 84 117 171z" />
    <glyph glyph-name="percent" unicode="%" horiz-adv-x="1684" 
d="M862 952q8 37 -5 67q-10 8 -21.5 13.5t-24.5 10.5q-94 -59 -109 -137l-3 -12q12 -4 24 -6t26 -2q19 0 38 4.5t35 13t26.5 21t13.5 27.5zM1331 367q2 9 2.5 16.5t0.5 15.5q-11 3 -23.5 5t-26.5 2q-2 0 -5.5 -1t-8.5 -1q-5 -1 -11 -1h-12q-10 -14 -23.5 -29.5t-30.5 -32.5
q-14 -17 -24 -33.5t-14 -36.5l-3.5 -15.5t0.5 -14.5q15 -7 35 -7q47 0 88 39q23 20 37 44t19 50zM1715 1294q-11 -49 -99.5 -177.5t-254.5 -336.5q71 -4 121 -32t85 -81l15 -25l33 -43q5 -5 8.5 -10t6.5 -10q64 -99 32 -251q-40 -187 -193 -323q-152 -138 -338 -138
q-126 0 -190 82l-36 46q-16 11 -29 26.5t-24 34.5q-10 16 -17 32.5t-12 34.5l-92 -113h-2l-43 -52.5l-62 -75.5q-35 -36 -68 -53.5t-62 -17.5q-23 0 -42 9t-31 25l-47 59q-25 14 -38 42.5t-5 63.5q8 34 43 79l143 188.5l192 241.5q-130 3 -212 80l-4 3l-50 62q-5 4 -9 8
t-7 9q-46 48 -61.5 105t0.5 130q17 81 59.5 159.5t114.5 158.5q161 177 321 177q146 0 234 -129h-2q6 -8 6 -12l40 -48q4 -5 7 -10.5t7 -10.5h-2q14 -22 25 -43.5t18 -43.5l53.5 68l45.5 60h-3q5 7 13 16.5l12 14.5l29 41l38 49l21 26h-2q48 57 90 84t77 27q32 0 54 -17
t29 -44l48 -60q27 -35 16 -85zM1373 367q-14 -67 -71.5 -121.5t-123.5 -54.5q-65 0 -103 50.5t-24 115.5q11 51 49 92q49 49 62 77q11 -2 32.5 0.5t30.5 2.5q80 0 121 -39q44 -45 27 -123zM905 952q-10 -51 -60 -80t-105 -29q-68 0 -111 39q-46 43 -32 110q23 107 150 179
q75 -26 122 -79q53 -63 36 -140zM1557 413q29 137 -28 227q-61 97 -196 97q-143 0 -196 -109q-6 2 -15 2q-27 0 -73 -34q-63 -46 -116 -137q-51 -84 -67 -159q-27 -128 24 -216q57 -94 181 -94q169 0 309 126t177 297zM1611 1379q7 31 -7 54.5t-45 23.5q-46 0 -126 -92
q-8 -12 -101 -134q-141 -188 -463 -579q-308 -376 -461 -582q-29 -39 -34 -60q-6 -30 12 -53.5t49 -23.5q41 0 97 57q70 82 104 126l536 650q418 514 439 613zM1097 1027q28 128 -45 235t-200 107q-141 0 -283 -159q-130 -145 -161 -294q-27 -124 53 -203q74 -71 202 -71
q159 0 283 116q117 109 151 269z" />
    <glyph glyph-name="ampersand" unicode="&#x26;" horiz-adv-x="1565" 
d="M1742 1299q2 0 2 -2zM751 399q-166 -47 -195 -112q95 -43 315 -43q43 0 94.5 2.5t112.5 7.5q31 60 60 104.5t58 76.5h-5q-17 0 -38 1.5t-49 5.5q-26 4 -45 5.5t-30 1.5q-117 0 -278 -50zM494 775q-68 62 -92 132t-7 148q9 40 30.5 79.5t56.5 78.5q171 192 484 192
q121 0 244 -20.5t254 -61.5q68 92 146 92q35 0 58.5 -17.5t31.5 -45.5l42 -53l2 -2l6 -5q24 -33 15 -79q-11 -45 -105 -196q-46 -71 -77.5 -115.5t-53.5 -66.5q-78 -79 -143 -79q-49 0 -73 27l-49 64q-52 22 -34 109q5 21 18 49q-86 20 -171 29.5t-176 9.5q-152 0 -177 -39
q59 -35 169 -77q20 -8 39.5 -14t39.5 -13q19 -6 38 -13.5t40 -13.5l209 -74q21 -13 35.5 -28t19.5 -35l49 -59q24 -32 14 -76q-5 -24 -18.5 -48.5t-31.5 -44.5h3q32 0 55 -17.5t31 -44.5l47 -60q-1 2 -2 2t-2 2l4 -4q12 -15 17 -36t0 -46q-6 -26 -42 -85h-2l-29.5 -50
l-28.5 -49q-17 -26 -31.5 -51l-28.5 -50q-56 -90 -132 -117q-73 -26 -243 -26h-49q-267 0 -402 41q-120 36 -172 102l-36 47q-104 83 -71 237q17 80 60 150t113 133q76 67 169 114l-17.5 18t-15.5 20zM1660 1299q6 30 -11 51.5t-48 21.5q-67 0 -124 -102q-267 92 -520 92
q-293 0 -446 -172q-59 -67 -74 -135q-43 -203 239 -347q-156 -53 -265 -150q-125 -111 -155 -254q-42 -195 185 -265q131 -39 394 -39h49q162 0 229 24q61 22 107 95l119 202q32 49 36 70q7 31 -9 53t-45 22q-99 0 -219 -251q-134 -14 -240 -14q-331 0 -398 103
q-21 31 -15 56q20 97 230 161q165 51 291 51q28 0 81.5 -7t81.5 -7q46 0 87.5 42t51.5 88t-40 73l-360 126q-275 105 -256 193q18 87 226 87q263 0 512 -80q-71 -87 -81 -131q-16 -77 54 -77q48 0 109 63q39 41 126 176q90 142 98 181z" />
    <glyph glyph-name="quotesingle" unicode="'" horiz-adv-x="623" 
d="M403 797q-42 21 -35 90q1 12 10.5 60l27.5 133l5 26q2 9 3.5 20t3.5 23q3 20 7 39t6 32q7 33 25.5 65.5t45 58t59.5 41.5t68 16q60 0 77 -56l48 -60q35 -41 11 -153l-10 -43.5t-15 -61.5l-21 -99q-6 -28 -10.5 -47t-8.5 -29q-11 -29 -30.5 -54.5t-45 -45t-54.5 -31
t-59 -11.5q-37 0 -55 22zM660 1217q30 142 -40 142q-51 0 -93 -44t-53 -95q-5 -24 -13 -70t-13 -70q-35 -164 -36 -187q-5 -60 40 -60q44 0 86 32.5t58 76.5q8 21 19 72l21 100z" />
    <glyph glyph-name="parenleft" unicode="(" horiz-adv-x="744" 
d="M558 625q-17 -78 -20 -144.5t11 -123.5l2 -4l30.5 -83t66.5 -162q16 -41 9 -77q-6 -30 -24.5 -59.5t-44 -52.5t-56 -37.5t-60.5 -14.5q-35 0 -68 27q-14 12 -27 25t-24 28l-29 36q-55 45 -89 117.5t-50 169.5q-14 86 -10.5 173.5t22.5 177.5q21 100 59.5 197t96.5 197
q127 228 286 345q63 48 111 48q32 0 53 -17t32 -43l48 -61q14 -18 18.5 -43.5t-1.5 -52.5q-5 -23 -21.5 -49t-41.5 -53q-67 -69 -112 -124t-71 -95q-34 -53 -57.5 -113.5t-38.5 -131.5zM552 116q5 24 -8 56q-85 203 -97 250q-29 122 6 288q31 148 103 261q54 84 188 225
q44 46 51 81q8 34 -7 61t-47 27q-33 0 -80 -36q-148 -112 -271 -327q-110 -195 -150 -381q-36 -169 -10 -336q31 -193 134 -275q27 -20 49 -20q44 0 86.5 40t52.5 86z" />
    <glyph glyph-name="parenright" unicode=")" horiz-adv-x="739" 
d="M229 -31q-27 17 -39 49.5t-4 70.5q5 23 21.5 50.5t46.5 58.5l111 124t69 91q34 51 58 112t38 130q17 78 19 146t-12 126q-6 29 -30.5 89l-65.5 153q-11 24 -13 43.5t1 36.5q7 31 26.5 61t46 54t58 39t62.5 15q17 0 35 -6.5t36 -22.5q50 -42 83 -100l33 -41
q69 -89 90 -238h2q14 -85 11 -171t-22 -177q-22 -100 -59.5 -198.5t-94.5 -195.5q-59 -104 -131.5 -189.5t-154.5 -151.5q-62 -50 -106 -50q-22 0 -39 8.5t-28 22.5zM785 748q36 168 10 334q-29 191 -133 273q-27 21 -49 21q-45 0 -88 -40.5t-53 -86.5q-4 -22 11 -56
q81 -186 97 -249q28 -123 -8 -289q-31 -148 -102 -259q-51 -79 -187 -224q-47 -49 -54 -83t8.5 -61.5t47.5 -27.5q29 0 78 39q155 125 273 328q108 188 149 381z" />
    <glyph glyph-name="asterisk" unicode="*" horiz-adv-x="1104" 
d="M1041 1241q-5 -25 -12.5 -53l-15.5 -60q75 51 122.5 76t74.5 25q71 0 84 -53l49 -62q0 2 -1 2t0 2l4 -5q22 -28 10 -84q-8 -38 -45 -80t-102 -91l-52 -35l-53 -36q20 -20 32.5 -38.5t20.5 -35.5l3 -3l31 -38q29 -35 39 -66t4 -60q-6 -27 -23 -54.5t-40.5 -49t-52 -35.5
t-56.5 -14q-14 0 -30.5 6t-31.5 19l-2 4l-57.5 57.5l-76.5 75.5l-14 -65q-67 -316 -229 -316q-39 0 -55 22l-54 65q-34 18 -35 74q-127 -91 -171 -91q-37 0 -60 26l-50 61q-12 7 -21 18t-13 26q-9 18 -9.5 38t4.5 43t20.5 48.5t42.5 51.5q38 36 87 75t109 81l60 41
q11 6 21 13l21 14q7 5 15 10l16 10q-18 16 -39.5 32t-44.5 37l-53 66q-11 7 -19 16q-43 47 -32 97q6 28 24 57.5t43 53.5t54.5 39t58.5 15q14 0 48 -18t88 -58l16 75q51 239 200 239q36 0 58.5 -13t28.5 -40l48 -62q0 2 -1 2t0 2l5 -5q22 -31 9 -94zM1251 1114q15 72 -50 72
q-38 0 -178 -97l-181 -130q69 249 94 367q17 82 -52 82q-107 0 -148 -196q-24 -111 -34 -150q-144 109 -170 109q-41 0 -80 -40t-48 -83q-7 -33 20 -63q136 -113 215 -159l-3 -12l-200 -135q-116 -80 -189 -150q-41 -39 -48 -73q-7 -33 5 -58q12 -31 43 -31q34 0 163 96
l168 129q-54 -215 -51 -203q-20 -92 34 -92q125 0 184 278q24 114 32 142q125 -118 184 -181q24 -21 41 -21q41 0 80 38t47 78q11 50 -62 127q-14 15 -111 102l169 113q113 83 126 141z" />
    <glyph glyph-name="plus" unicode="+" horiz-adv-x="920" 
d="M844 869h10q2 0 6 0.5t8 0.5q28 2 52 2h45q106 0 123 -60l51 -64q19 -26 10 -72q-29 -132 -159 -162q-34 -8 -93.5 -12t-145.5 -4q-7 0 -17 -34q-11 -35 -20.5 -61.5t-17.5 -44.5q-32 -63 -74 -95.5t-99 -32.5q-42 0 -61 24l-52 63q-48 24 -30 106q1 3 2 9t5 15t7 23
t8 32q-20 1 -42 2.5t-45 4.5q-41 9 -60 32l-48 61q-47 27 -34 89q6 29 22 59t44 59q29 32 60 47.5t63 15.5h26q15 0 34 -2h14q4 0 7.5 -0.5t7.5 -0.5t7 -1t8 -1h17q2 0 4.5 -1t7.5 -1q2 7 2 14q0 8 2 17l3 12q1 4 0.5 6.5t0.5 7.5q1 4 0.5 7.5t0.5 7.5l2 8q3 17 6 31.5
t5 25.5q7 32 25.5 60t50.5 58q32 29 63.5 42.5t62.5 13.5q53 0 68 -50l52 -63q36 -46 6 -187zM1044 761q14 68 -88 68q-48 0 -125 -3q-96 -3 -124 -3q31 126 33 138q37 172 -30 172q-44 0 -92.5 -42.5t-58.5 -88.5q-6 -27 -13.5 -79.5t-13.5 -79.5l-4 -20q-27 0 -85.5 3
t-89.5 3q-44 0 -86 -46t-52 -92q-10 -48 40 -60q146 -13 223 -10q-52 -182 -55 -198q-15 -70 41 -70q82 0 131 101q15 31 35.5 99t61.5 68q170 0 230 14q100 24 122 126z" />
    <glyph glyph-name="comma" unicode="," horiz-adv-x="522" 
d="M113 -195q-48 26 -30 110q14 63 44.5 133.5t77.5 146.5q73 122 178 122q78 0 91 -52l52 -65q21 -30 9 -94q-5 -22 -19.5 -56.5t-40.5 -85.5l-44 -85t-33 -55q-78 -109 -164 -109q-50 0 -71 26zM430 191q17 84 -56 84q-74 0 -133 -96q-91 -147 -116 -264q-16 -77 51 -77
q63 0 124 89q29 41 75.5 134t54.5 130z" />
    <glyph glyph-name="hyphen" unicode="-" horiz-adv-x="1145" 
d="M354 584q-45 27 -28 107q28 131 168 171q30 9 79.5 13t118.5 4h348q98 0 111 -58l51 -63q21 -26 11 -70q-29 -139 -167 -173q-5 -1 -50 -3.5t-130 -6.5q-35 -2 -67.5 -2.5t-61.5 -2.5q-41 -2 -69.5 -3t-49 -2t-35.5 -1.5t-28.5 -1.5t-28.5 -2t-35 -2q-29 0 -50 7t-32 22z
M1108 773q14 63 -77 63h-348q-131 0 -185 -15q-108 -31 -129 -130q-17 -80 63 -80q-39 0 373 17q161 7 176 10q104 26 127 135z" />
    <glyph glyph-name="period" unicode="." horiz-adv-x="568" 
d="M198 -32q-61 30 -31 167q7 33 26 66t45.5 58.5t58.5 41.5t67 16q77 0 91 -54l51 -63q-2 1 -3 1t-3 2l6 -3q22 -31 9 -98q-48 -225 -201 -225q-44 0 -65 26zM410 188q18 87 -55 87q-50 0 -92 -44.5t-53 -95.5q-29 -135 44 -135q116 0 156 188z" />
    <glyph glyph-name="slash" unicode="/" horiz-adv-x="1053" 
d="M80 -352q-24 12 -31.5 38t0.5 63q12 60 296 545l86.5 146.5l87.5 148.5l43.5 73l42.5 74l88 148q38 62 89 155l120 219q15 35 43 90.5t70 131.5q71 111 163 111q37 0 60 -14t28 -43l51 -61q11 -14 14 -36t-3 -51q-2 -8 -6.5 -19t-8.5 -22q-71 -165 -170 -356t-230 -412
l-221.5 -375l-219.5 -374l-1 1l-39 -72l-61 -105q-69 -96 -161 -96q-56 0 -78 28zM1223 1471q16 77 -54 77q-63 0 -116 -80q-79 -144 -110 -219q-138 -254 -212 -380l-348 -591q-282 -483 -291 -529q-15 -70 58 -70q70 0 131 85q63 106 90 163l442 749q264 447 399 763
q7 15 11 32z" />
    <glyph glyph-name="zero" unicode="0" horiz-adv-x="1417" 
d="M1162 638q36 175 -50 313q-35 29 -77 47.5t-93 28.5q-11 -14 -24.5 -29t-31.5 -32q-137 -131 -206 -224q-78 -113 -109 -259q-24 -106 -1 -179q54 -36 142 -36q165 0 290 102q124 103 160 268zM328 53q-18 15 -34 34.5t-27 42.5q-84 148 -34 379q21 98 61.5 195t98 188.5
t130.5 174.5t158 153l3 11q39 184 266 184q145 0 250 -58.5t174 -175.5l21 -27q11 -14 22 -29.5t20 -32.5q124 -211 62 -503q-63 -300 -301 -500q-118 -100 -252 -151t-286 -51q-101 0 -175.5 30.5t-122.5 92.5zM1204 638q-39 -184 -177.5 -298.5t-323.5 -114.5
q-152 0 -212 98q-58 90 -25 245q32 154 117 277q68 95 212 230q52 48 66 79q192 -22 288.5 -170t54.5 -346zM1394 674q59 277 -58 480q-128 218 -395 218q-185 0 -215 -141q-3 -12 -1 -24q-171 -135 -290 -319.5t-160 -378.5q-46 -219 29 -352q84 -147 297 -147
q285 0 509 189.5t284 474.5z" />
    <glyph glyph-name="one" unicode="1" horiz-adv-x="720" 
d="M314 1104q-40 15 -23 96q24 116 149 172q37 16 115.5 24.5t200.5 8.5q73 0 91 -60l49 -60q32 -41 11 -140q-18 -86 -56.5 -219.5t-96.5 -316.5l-65 -210.5t-53 -188.5q-8 -33 -23 -82t-37 -111q-76 -150 -193 -150q-34 0 -52 22l-51 65q-57 28 -29 159q20 94 58 226
t95 303l68 214.5l53 176.5q-20 -2 -37 -4.5t-33 -4.5q-20 -3 -50 -3q-24 0 -37 15zM803 1231q28 131 -56 131q-230 0 -297 -29q-97 -43 -116 -133q-12 -57 12 -57q25 0 45 4q78 14 192 14h19q-39 -168 -156 -524q-113 -342 -152 -524q-26 -123 30 -123q90 0 148 116
q45 126 59 191q48 179 119 401q117 364 153 533z" />
    <glyph glyph-name="two" unicode="2" horiz-adv-x="1442" 
d="M837 266q-5 -2 -9 -4t-7 -4q49 1 127 12q58 6 101 9.5t74 3.5q166 0 187 -76l49 -64q11 -15 15 -33.5t-1 -42.5q-6 -29 -23 -56t-43 -55q-29 -29 -57 -42t-59 -13h-20q-11 0 -21 2q-10 1 -18.5 2t-9.5 1q-62 0 -203 -15q-69 -7 -120.5 -10.5t-88.5 -3.5q-214 0 -283 87
l-40 51q-87 63 -58 200q36 174 271 314l143.5 77l142.5 77l33 16t27 14q12 7 23.5 12t17.5 9v2q194 116 224 256q5 25 2 42q-39 14 -96 14q-60 0 -129.5 -13.5t-148.5 -39.5h2q-155 -53 -239 -131q2 -5 2.5 -8.5t2.5 -7.5l10 -12l32 -39q31 -40 22 -82q-6 -27 -22.5 -55
t-40 -50.5t-51.5 -37t-56 -14.5q-23 0 -48 15q-19 14 -35 29.5t-27 30.5l-25 33q-61 48 -82.5 106.5t-5.5 133.5q24 116 117 211.5t253 172.5q260 125 498 125q180 0 273 -94q26 -29 42 -61l1 -2l29 -34l5 -7q39 -51 50.5 -117t-6.5 -151q-70 -327 -475 -562l-114 -59.5z
M1268 152q19 89 -154 89q-56 0 -171 -13t-172 -13q-216 0 -205 53q3 15 192 116l228 121q384 222 449 529q35 164 -50 255q-81 83 -248 83q-227 0 -478 -119q-295 -142 -338 -347q-28 -128 92 -215q15 -10 29 -10q39 0 77 39t47 80q9 40 -36 78t-39 67q2 12 11 21
q86 89 266 150q162 55 290 55q234 0 196 -179q-34 -161 -248 -291l-389 -206q-213 -126 -245 -280q-46 -215 278 -215q69 0 206.5 14.5t205.5 14.5q12 0 34.5 -2.5t34.5 -2.5q43 0 85.5 42t51.5 86z" />
    <glyph glyph-name="three" unicode="3" horiz-adv-x="1478" 
d="M1602 1002q-40 -191 -308 -335q11 -9 21 -18.5t19 -20.5l27 -36t22 -36l27 -32q85 -109 56 -242q-50 -232 -314 -338q-185 -77 -432 -77q-261 0 -348 36q-32 12 -46 30l-49 62q-50 30 -36 94q7 33 26 64t46 55t59.5 38.5t66.5 14.5q29 0 71 -2.5t96 -9.5q106 -12 156 -12
q48 0 102 6.5t113 17.5q127 25 140 55q2 15 0.5 29.5t-7.5 28.5q-12 8 -26.5 15l-29.5 14h-2q-63 24 -137.5 36.5t-158.5 12.5q-13 0 -33 -1t-49 -4l-50.5 -3.5t-37.5 -1.5q-25 0 -40.5 6.5t-26.5 19.5l-49 63q-48 20 -33 94q26 121 156 181q15 6 52.5 16t95.5 23
q79 17 156.5 39.5t153.5 49.5q85 31 137.5 56.5t70.5 48.5q-31 9 -62.5 14t-63.5 5q-273 0 -579 -97h-5q-13 -4 -24.5 -6.5l-11.5 -2.5q-44 0 -64 24l-52 65q-46 26 -30 109q21 95 130 152l-1 -2q51 27 132.5 48t192.5 38q94 14 175 21.5t152 7.5q316 0 383 -154l38 -48
q62 -76 33 -211zM1361 367q27 128 -62 230q-74 86 -202 133q356 149 400 357q61 285 -358 285q-135 0 -323 -29q-221 -32 -312 -83q-80 -45 -94 -110q-16 -75 43 -75q7 0 35 9q307 97 586 97q82 0 153 -26q98 -34 85 -97q-16 -77 -255 -164q-154 -56 -314 -90
q-108 -24 -140 -38q-104 -46 -124 -141q-13 -60 47 -60q29 0 85.5 5t85.5 5q178 0 310 -51q181 -72 151 -213q-21 -62 -182 -93q-118 -23 -223 -23q-55 0 -161.5 11.5t-161.5 11.5q-49 0 -92.5 -40t-53.5 -89q-10 -45 42 -65q83 -34 334 -34q237 0 416 73q241 97 285 304z
" />
    <glyph glyph-name="four" unicode="4" horiz-adv-x="1271" 
d="M1313 759q-6 -33 -21 -90q48 -10 59 -49l50 -65q18 -24 9 -69q-6 -28 -21 -55t-36 -49.5t-47 -39t-54 -23.5q-10 -2 -19 -3.5l-22 -3.5l-19 -92q-8 -44 -14.5 -76.5t-11.5 -54.5q-52 -244 -201 -244q-39 0 -57 20l-52 67q-43 19 -28 88q8 35 18 83.5l23 113.5
q2 14 4.5 27l4.5 24q-100 -13 -173.5 -20t-121.5 -7q-167 0 -258 71q-11 9 -21 19.5t-19 21.5l-30 40q-60 45 -78 109.5t0 149.5q11 55 36 117t65 130l28 48l28 46l19.5 32l19.5 33q8 16 17.5 30l19.5 30q24 54 79 164q65 133 172 133q64 0 78 -51l51 -64q11 -14 14 -36.5
t-4 -53.5q-24 -111 -152 -312q-115 -181 -135 -278q20 -7 48.5 -9.5t64.5 -2.5q32 0 115.5 9.5t220.5 29.5l38 179q66 311 218 311q48 0 57 -48l51 -62q8 -9 11.5 -23.5t5.5 -34.5q0 -71 -30 -210zM1306 572q12 59 -64 59q-40 0 -83 -3l24 108l26 109q29 140 29 203
q0 46 -29 46q-109 0 -166 -268l-46 -215q-304 -46 -380 -46q-239 0 -209 140q22 104 143.5 294.5t143.5 295.5q17 77 -43 77q-73 0 -124 -102q-54 -108 -79 -162l-133 -224q-76 -131 -97 -232q-32 -149 67 -224q81 -64 238 -64q121 0 428 49l-41 -196q-25 -128 -40 -197
q-11 -52 35 -52q111 0 155 206l26 130l27 129q48 2 69 7q45 11 79 49t44 83z" />
    <glyph glyph-name="five" unicode="5" horiz-adv-x="1476" 
d="M848 1026l-12.5 -24l-14.5 -26q78 25 147.5 36.5t135.5 11.5q100 0 175.5 -26t129.5 -83q17 -17 28.5 -34.5t21.5 -37.5l34 -41q88 -113 49 -292q-55 -261 -340 -455q-268 -181 -529 -181q-119 0 -237 51q-50 23 -86.5 49t-60.5 57l-31 37q-25 20 -42 42.5t-28 48.5
q-8 18 -10 35.5t2 37.5q6 27 24 56t43 53t54.5 39.5t58.5 15.5q9 0 37 -17t76 -55l1 4q110 -81 239 -81q74 0 145.5 20.5t145.5 61.5q154 86 181 214q5 18 4.5 33.5t-5.5 31.5q-48 23 -116 23q-161 0 -377 -102q-191 -90 -219 -90q-55 0 -76 27l-51 65q-50 25 -32 111
q23 106 79 236.5t148 288.5q-2 12 -1.5 24.5t3.5 25.5q29 137 170 176q18 5 66 9t123 6h16t21 2q5 0 11.5 0.5t14.5 0.5q17 0 36.5 1t42.5 3q26 2 55.5 2.5t63.5 2.5q81 4 146 6t116 2q106 0 121 -59l51 -65q20 -25 11 -70q-29 -137 -163 -174q-23 -7 -66.5 -9.5
t-111.5 -2.5q-36 0 -140 -6zM1438 596q38 181 -63 286q-96 99 -280 99q-203 0 -471 -124l135 290q372 24 447 24q134 0 168 10q106 31 128 138q15 67 -87 67q-99 0 -260 -9q-210 -10 -261 -12q-148 -5 -179 -13q-108 -31 -130 -135q-6 -27 3 -50q-188 -322 -232 -525
q-17 -81 57 -81q22 0 201 86q225 107 394 107q109 0 171 -49q72 -58 49 -162q-32 -154 -209 -251q-152 -87 -315 -87q-146 0 -254 80q-92 68 -99 68q-40 0 -79.5 -40t-48.5 -81q-4 -22 7 -49q35 -84 160 -139q111 -47 223 -47q250 0 503 172q270 184 322 427z" />
    <glyph glyph-name="six" unicode="6" horiz-adv-x="1374" 
d="M1206 614q2 8 2 15q0 8 1 14q-47 21 -116 21q-242 0 -495 -137q-20 -55 -26 -87q-25 -109 -10 -174q37 -22 96 -22q88 0 176 33t181 102q83 63 131 121.5t60 113.5zM901 1034q-7 -6 -12.5 -13.5t-10.5 -13.5q60 11 121.5 17.5t125.5 6.5q258 0 330 -149l40 -49
q7 -9 13 -19t11 -20q23 -48 27.5 -106.5t-10.5 -127.5q-28 -131 -118 -250.5t-242 -227.5q-289 -205 -550 -205q-181 0 -265 108l-34 41q-22 17 -39 38.5t-28 48.5q-69 131 -21 353q24 112 73.5 234.5t126.5 255.5q82 146 169 250.5t180 170.5q29 21 52 31t46 10
q69 0 83 -51l50 -63q23 -30 10 -91q-8 -39 -55 -95l-38 -42.5zM1249 614q-28 -131 -212 -268q-197 -145 -388 -145q-251 0 -182 325q10 46 36 112q270 149 531 149q97 0 158 -38q75 -46 57 -135zM1431 645q27 126 -15 212q-64 131 -300 131q-271 0 -506 -109q46 80 126 177
l144 168q39 46 45 75q16 77 -48 77q-27 0 -69 -31q-171 -123 -332 -406q-149 -260 -194 -473q-44 -207 17 -328q70 -138 268 -138q247 0 525 196q287 205 339 449z" />
    <glyph glyph-name="seven" unicode="7" horiz-adv-x="1430" 
d="M420 1166q-44 26 -32 83q6 28 24 57t43.5 52t55.5 38t60 15h41t52 -1q4 0 7 -1t7 -1h15q12 0 22 -1t19 -1h28q11 0 20 -0.5t17 -0.5h219q417 0 497 -36l3 -2q41 -22 51 -55l49 -63q23 -26 14 -75q-14 -67 -244 -358l-72.5 -89l-71.5 -89l-73.5 -90l-72.5 -89h-2
q-78 -97 -134.5 -175.5t-95.5 -140.5h2q-12 -22 -34.5 -58.5l-60.5 -94.5q-76 -103 -157 -103q-54 0 -74 26l-53 67q-23 11 -30 35t1 62q3 11 8.5 25t13.5 29q65 125 151 258.5t197 279.5q57 78 131.5 171l164.5 201q-94 7 -197.5 10.5t-218.5 3.5q-131 0 -194 20
q-31 11 -45 28zM1528 1260q10 47 -34 68l-5 1q-71 33 -480 33h-204q-27 0 -121 3q-76 4 -122 4q-42 0 -81.5 -38.5t-49.5 -81.5q-7 -37 38 -53q56 -18 182 -18q364 0 617 -31q-266 -311 -405 -497q-213 -281 -343 -531q-14 -27 -18 -42q-14 -67 55 -67q59 0 120 82
q63 97 91 149q81 131 234 324l291 355q222 278 235 340z" />
    <glyph glyph-name="eight" unicode="8" horiz-adv-x="1425" 
d="M1361 597q5 -4 8 -7.5t6 -7.5zM1183 956q2 11 2 21q0 11 -2 21q-2 0 -1 2q-39 25 -85 36.5t-99 11.5q-13 0 -25.5 -1t-23.5 -1q-36 -33 -113 -66h2q-48 -22 -76 -36t-36 -19q-41 -27 -50 -60q76 -25 257 -25q39 0 78.5 7.5t78.5 24.5q83 37 93 84zM1101 364q3 11 1 23.5
t-7 25.5q-41 29 -76.5 44.5t-67.5 15.5q-67 0 -129 -10t-119 -28q-70 -22 -109 -55.5t-49 -77.5q-3 -13 -2 -22q6 -4 12.5 -7.5l14.5 -7.5v-2q45 -22 95 -31.5t104 -9.5q103 0 204 37q116 43 128 105zM294 51q-121 102 -83 284q20 94 72.5 174.5t136.5 149.5
q-51 42 -66.5 100t-0.5 130q38 177 233 318q14 46 44 80.5t78 59.5q125 64 341 64q197 0 311 -104q44 -42 68 -88l35 -43q86 -108 51 -266q-17 -84 -62 -154t-116 -128q2 -2 2 -3l1 -2l22 -26l14 -15q88 -113 57 -261q-23 -112 -95.5 -200t-195.5 -157q-173 -97 -418 -97
q-202 0 -324 80q-22 14 -40 30.5t-32 34.5zM1144 364q-19 -91 -163 -144q-112 -41 -221 -41q-118 0 -217 46q-124 60 -103 162q25 115 192 169q118 40 260 40q82 0 173 -74q96 -80 79 -158zM1225 956q-16 -77 -126 -123q-89 -36 -176 -36q-385 0 -355 138q13 63 73 104
q25 17 120 60q79 34 110 68q33 4 67 4q115 0 201 -51q108 -62 86 -164zM1327 406q38 179 -121 302q167 113 203 287q37 174 -82 278q-108 96 -287 96q-203 0 -318 -60q-81 -43 -97 -119l-1 -4q-193 -131 -228 -297q-32 -152 98 -222q-198 -135 -240 -332q-38 -178 103 -270
q114 -75 307 -75q230 0 396 92q225 125 267 324z" />
    <glyph glyph-name="nine" unicode="9" horiz-adv-x="1469" 
d="M1281 1082q-1 0 6 0t13 2q-13 0 -16 3l-4 -5h1zM385 319l-22 24.5t-21 26.5q-48 67 -60 147.5t8 177.5q31 146 118.5 275t235.5 242q283 220 575 220q57 0 107 -12.5t96 -35.5q94 -51 134 -133l31 -39q22 -28 36 -62q12 -33 6 -65q-6 -26 -20.5 -52.5t-39.5 -51.5h-1
q-26 -27 -53.5 -41.5t-56.5 -14.5l-59 75q-24 -2 -38 -2.5t-12 -0.5q-86 61 -161 61q-169 0 -334 -106q-174 -111 -207 -268q-7 -33 -7.5 -62t7.5 -55q28 -16 71 -16q53 0 110.5 20.5t121.5 58.5q25 15 78 53.5l136 103.5q63 50 109.5 74.5t80.5 24.5q37 0 60 -14t28 -43
l50 -61q24 -30 12 -87q-20 -95 -139 -362q-63 -140 -107 -226.5t-73 -121.5l-1 2q-82 -103 -173 -103q-24 0 -39.5 6.5t-25.5 19.5l-50 63q-48 22 -33 94q7 31 19.5 68t35.5 84q-117 -46 -218 -46q-187 0 -281 119zM1524 1171q5 24 -4 46q-32 82 -123 128q-85 44 -187 44
q-275 0 -544 -208q-276 -213 -334 -486q-38 -178 47 -295.5t261 -117.5q200 0 462 198l-110 -214q-70 -135 -87 -213q-12 -60 48 -60q68 0 136 84q55 66 175 336q115 259 135 353q16 77 -54 77q-48 0 -158 -87q-168 -130 -219 -160q-141 -87 -259 -87q-104 0 -149 80
q-40 75 -17 181q37 174 228 298q176 113 357 113q87 0 181.5 -66.5t89.5 -66.5q39 0 77.5 41t47.5 82z" />
    <glyph glyph-name="colon" unicode=":" horiz-adv-x="568" 
d="M272 416q-48 24 -30 106q8 34 25.5 67.5t49.5 69.5h-1q32 40 69.5 59t75.5 19q74 0 88 -54l52 -63q-1 1 -2 1t-3 2l5 -3q23 -29 9 -91q-7 -33 -25.5 -66.5t-51.5 -66.5h2q-65 -70 -140 -70q-51 0 -71 26zM188 -32q-28 15 -39.5 46.5t-3.5 67.5q16 76 87 160v-1
q32 35 67.5 54t71.5 19q74 0 88 -55l51 -63q-2 2 -3 2t-1 2l4 -4q22 -30 9 -99q-17 -77 -71 -140l-1 2q-67 -82 -147 -82q-22 0 -38.5 8.5t-27.5 22.5zM414 183q19 88 -52 88q-55 0 -111 -70q-50 -61 -63 -119q-6 -31 8 -56.5t45 -25.5q59 0 112 63q47 56 61 120zM506 614
q17 81 -54 81q-53 0 -104 -59t-63 -114q-16 -73 51 -73q54 0 106 54.5t64 110.5z" />
    <glyph glyph-name="semicolon" unicode=";" horiz-adv-x="498" 
d="M315 413q-15 8 -25 22t-18 34l-1 -1q-8 23 -9 50.5t5 56.5q7 33 26 65.5t45.5 58t59 41.5t67.5 16q27 0 47 -14.5t30 -43.5l50 -60q14 -19 20 -47q12 -55 1 -105q-6 -30 -24 -59.5t-43 -53t-54.5 -38t-59.5 -14.5q-45 0 -69 31zM78 -191q-46 25 -28 109q2 11 6 23.5
t13 29.5q29 63 50.5 104.5t36.5 64.5q87 131 184 131q75 0 88 -54l52 -63q23 -29 9 -91l-11 -20h-1q-5 -11 -13.5 -27.5t-16.5 -35.5q-31 -61 -52 -98t-32 -53l1 -1q-76 -110 -163 -110q-51 0 -71 26zM386 155q16 74 -55 74q-69 0 -139 -106q-31 -46 -85 -166
q-13 -27 -15 -39q-17 -77 50 -77q63 0 125 89q17 24 78 145q41 79 41 80zM509 572q9 44 -2 88q-12 53 -51 53q-50 0 -92.5 -43.5t-53.5 -94.5q-10 -46 4 -85q16 -46 58 -46q45 0 86 41t51 87z" />
    <glyph glyph-name="less" unicode="&#x3c;" horiz-adv-x="893" 
d="M197 531q3 -7 10 -14zM252 461q-23 22 -40 41t-29 37q-19 27 -27 53t-2 53q8 40 34.5 75.5t68.5 67.5q115 85 260.5 156t328.5 131q9 4 16 4.5t13 0.5q31 0 49 -16.5t27 -41.5l48 -59q14 -18 18 -43.5t-2 -52.5q-16 -82 -125 -147l-78 -41.5t-90 -43.5l-43 -20.5
l-37 -17.5q23 -19 46 -40.5t51 -44.5q7 -9 12.5 -18t9.5 -20l41 -51q34 -39 22 -92q-12 -60 -61 -114h-2q-30 -31 -59 -48t-62 -17q-65 0 -211 130q-57 48 -98 89t-67 74zM910 952q7 31 -4 58.5t-40 27.5q-3 0 -15 -4q-353 -114 -571 -276q-70 -53 -83 -113q-8 -36 23 -77
q47 -65 170 -170q139 -123 190 -123q46 0 90 49q39 45 49 92q8 36 -20 70q-141 132 -221 188q45 24 167 80q105 48 164 82q88 51 101 116z" />
    <glyph glyph-name="equal" unicode="=" horiz-adv-x="1300" 
d="M1392 821q-6 -30 -24 -59t-42.5 -53t-54.5 -40t-60 -20v-2q50 -14 59 -51l53 -65q20 -26 10 -74q-15 -70 -55 -114t-108 -58q-18 -5 -72 -7t-145 -2q-44 0 -108.5 -2.5t-153.5 -8.5q-88 -5 -154.5 -8t-110.5 -3q-61 0 -83 29l-51 65q-23 13 -31.5 39.5t0.5 68.5
q30 142 174 181q87 22 280 22h69t92 -2q-80 3 -128 3q-66 0 -116 5.5t-86 17.5q-36 9 -53 32l-50 62q-48 30 -34 95q8 36 29 69.5t50 59.5t63.5 41.5t69.5 15.5q29 0 64.5 -1.5t80.5 -5.5q56 -4 92 -6t51 -4q22 -2 43 -2h44h42q12 0 23.5 -0.5t23.5 -0.5q57 -2 101.5 -9
t79.5 -19q26 -10 41.5 -23.5t20.5 -34.5l52 -63q21 -27 12 -68zM1228 543q12 53 -39 65q-27 6 -87 6h-198q-131 2 -198 2q-188 0 -267 -20q-111 -29 -135 -140q-17 -79 63 -79q87 0 263.5 11t263.5 11q177 0 206 7q104 24 128 137zM1287 906q9 46 -43 63q-64 23 -169 26
q-88 2 -177 3q-28 2 -143 11q-87 6 -143 6q-53 0 -101 -44t-60 -99q-10 -51 46 -68q63 -21 191 -21q75 0 223.5 -6.5t223.5 -6.5q50 0 95.5 43.5t56.5 92.5z" />
    <glyph glyph-name="greater" unicode="&#x3e;" horiz-adv-x="978" 
d="M374 806l-2 3q-27 20 -35.5 44t-1.5 53q6 31 23.5 60.5t45.5 59.5q30 33 62.5 49t65.5 16q90 0 239 -99q66 -44 111.5 -85.5t71.5 -77.5q10 -15 18 -30l46 -58q35 -50 23 -106q-12 -55 -68 -113q-32 -31 -93 -80l-154 -118q-106 -78 -173 -115.5t-95 -37.5q-47 0 -66 25
l-52 63q-51 26 -30 122q8 37 30.5 70.5t64.5 65.5q32 20 77 53l102 75q-24 11 -43 26h-2q-36 18 -96 58q-7 5 -12.5 10l-10.5 10zM936 720q9 41 -18 80q-48 67 -177 154q-141 94 -218 94q-44 0 -90.5 -48t-55.5 -94q-8 -36 25 -59q62 -40 95 -57q112 -63 181 -123
q-166 -123 -251 -181q-64 -51 -75 -105q-19 -87 46 -87q43 0 243 145q182 133 241 192q45 47 54 89z" />
    <glyph glyph-name="question" unicode="?" horiz-adv-x="1236" 
d="M567 338q-45 -48 -84 -58q15 -7 24.5 -17t13.5 -27l48 -62v3l4 -5q22 -26 8 -85q-3 -14 -16.5 -36t-36.5 -54l-41.5 -55t-14.5 -19q-52 -53 -109 -53q-44 0 -64 26l-50 63q-50 23 -33 104q15 69 78 138h-2q31 35 60.5 55.5t60.5 26.5q-11 4 -18 12l-15 17l-44 55
q-28 15 -46 53v-2q-31 78 -17 143q38 178 288 286q29 13 116 37t236 61q103 25 172.5 51t105.5 50q-75 24 -223 24q-172 0 -330 -68h2q-48 -21 -71 -21q-20 0 -36.5 8t-27.5 21l-50 62q-26 15 -36.5 46.5t-2.5 67.5q8 38 31 69.5t65 60.5q42 32 111 56t165 41
q75 14 142 20.5t130 6.5q94 0 168 -14.5t131 -43.5q41 -22 69 -48.5t44 -60.5l39 -49q61 -79 36 -195q-22 -100 -81.5 -180t-157.5 -137h2q-60 -36 -153.5 -69.5t-221.5 -65.5q-107 -27 -183 -49t-124 -40q3 -22 -3 -44q-6 -29 -19.5 -56t-36.5 -50h-2zM477 172
q15 72 -44 72q-53 0 -110 -67q-52 -58 -64 -114q-14 -70 45 -70q38 0 75 38q6 7 53 68q40 53 45 73zM1442 1114q33 156 -109 229q-106 55 -282 55q-114 0 -263 -28q-183 -34 -256 -87q-62 -44 -73 -97q-6 -31 7 -56.5t44 -25.5q13 0 52 17q170 72 347 72q367 0 335 -150
q-2 -9 -11 -16q-76 -63 -317 -122q-292 -74 -346 -98q-223 -95 -255 -246q-10 -47 12 -102q23 -60 67 -60q41 0 82 46q35 40 44 84q7 32 -7 63q82 39 352 106q247 61 362 130q176 104 215 286z" />
    <glyph glyph-name="at" unicode="@" horiz-adv-x="1783" 
d="M1366 510q0 -2 -3.5 -9t-6.5 -15h12q176 0 220 212q23 107 9 200.5t-64 178.5q-3 5 -7 9.5t-6 9.5q-91 76 -225 76q-60 0 -120 -18t-120 -53q66 29 136 29q72 0 157 -50q32 -20 53 -42t30 -45l45 -56q32 -41 23 -87q-6 -26 -20.5 -52t-39.5 -50q-56 -57 -111 -57
q-11 0 -33 12t-51 36q-42 34 -71 34q-53 0 -107 -85q-15 -22 -26 -43t-19 -41l21 17q114 99 174 99q34 0 56 -17t30 -44l47 -60q-1 1 -4 3l4 -3q14 -17 18.5 -40t-1.5 -49zM329 -68q-32 28 -57 65q-57 84 -70.5 191.5t15.5 244.5q49 229 218 487q87 134 186.5 241.5
t212.5 193.5q131 98 254.5 146.5t247.5 48.5q284 0 445 -263l15 -21q13 -15 24.5 -32.5l23.5 -35.5q148 -245 88 -529q-47 -221 -203 -377h-1q-171 -174 -389 -174q-169 0 -233 82l-29 34q-103 -63 -188 -63q-79 0 -121 54l-42 51q-17 14 -30.5 30.5t-22.5 39.5l-1 -3
q-37 99 -13 212q17 78 47.5 152t78.5 145q-172 -219 -220 -444q-14 -64 -13.5 -116.5t16.5 -95.5q89 -77 281 -77q43 0 66.5 -14.5t31.5 -41.5l50 -63q21 -29 10 -79q-36 -174 -276 -174q-257 0 -373 147zM1827 754q58 272 -84 506q-152 247 -416 247q-227 0 -471 -183
q-216 -163 -386 -421q-164 -249 -211 -470q-55 -257 51 -407q107 -156 362 -156q201 0 230 137q15 70 -62 70q-469 0 -380 416q56 265 277 519q248 283 499 283q220 0 335 -191q108 -181 60 -406q-54 -254 -272 -254q-139 0 -120 88q2 11 11 32t12 32q6 32 -8 57t-47 25
q-41 0 -140 -84.5t-150 -84.5q-44 0 -22 102q19 89 72 176q70 109 146 109q43 0 92.5 -41t63.5 -41q37 0 76.5 41t48.5 80q12 57 -73 108q-76 44 -139 44q-166 0 -316 -191q-126 -162 -164 -341q-21 -99 5 -173q31 -88 123 -88q87 0 212 87q23 -140 238 -140q201 0 358 160
q145 147 189 353z" />
    <glyph glyph-name="A" unicode="A" horiz-adv-x="1065" 
d="M744 695l-90.5 -150l-111.5 -188h227q-8 77 -15 161t-10 177zM25 -51q-46 22 -29 104q6 28 72.5 150t196.5 340l110 183.5l113 186.5l23 40l24 40q12 18 22.5 36l22.5 38l89 153q30 49 62 91.5t64 73.5t64 48.5t63 17.5q58 0 86 -60l46 -60q16 -19 24 -56
q11 -45 16 -103.5t4 -132.5q0 -100 0.5 -156.5t0.5 -73.5h1q14 -121 29.5 -306t31.5 -430l1 -1q0 -7 -1 -14t-3 -14q-12 -55 -70 -116q-60 -61 -121 -61q-32 0 -53 27l-47 62q-35 20 -52 80h-24h-36t-51 2q-28 1 -48 1h-34h-268q-107 -182 -203 -182q-26 0 -45 6t-29 19z
M359 314l419 705q5 -417 40 -705h-459zM1054 130q2 10 1 25q-32 487 -61 727q-1 28 -1 234q-1 142 -19 229q-15 63 -61 63t-99 -58t-107 -145l-90 -154l-314 -524q-255 -428 -265 -474q-15 -73 54 -73q76 0 178 182h293q27 0 83.5 -1.5t85.5 -1.5q65 0 107 7
q14 -176 69 -176q42 0 89 47.5t57 92.5z" />
    <glyph glyph-name="B" unicode="B" horiz-adv-x="1234" 
d="M1233 531q0 1 -1 1h-1zM949 307q6 4 10.5 5.5t8.5 3.5q2 5 1.5 11t0.5 11q-8 4 -16.5 7t-16.5 8q-54 21 -108 32t-112 11q-51 0 -108.5 -6.5t-121.5 -17.5l-16.5 -68l-15.5 -63q52 -3 87 -3.5t49 -0.5q255 0 358 70zM601 826q-5 -13 -8 -25.5l-6 -25.5q71 22 140.5 47
t139.5 54q135 54 214 97t99 75q-30 9 -63.5 14t-72.5 5q-94 0 -192.5 -11.5t-201.5 -33.5l-23 -89.5zM114 0q-47 26 -30 106l69 329q35 161 75 308t87 284l-17 21q-48 22 -30 109q18 85 122 147q50 27 131.5 51t198.5 41q94 14 175 21.5t150 7.5q338 0 403 -159l36 -46
q61 -76 34 -205q-45 -207 -362 -382l15.5 -15.5t16.5 -15.5h-4q24 -25 41 -58l18 -22h-2l16 -20q75 -96 50 -217q-24 -113 -122 -208q-80 -81 -197 -133q-88 -39 -197 -58t-240 -19q-248 0 -319 43q-25 1 -40.5 7.5t-25.5 19.5zM1011 314q-3 -14 -42 -39q-117 -80 -387 -80
q-44 0 -262 10l71 285q146 29 267 29q124 0 233 -45q141 -58 120 -160zM1230 1065q-20 -96 -354 -229q-225 -90 -435 -145l113 446q230 53 431 53q92 0 161 -23q99 -34 84 -102zM1413 1101q60 281 -377 281q-133 0 -320 -29q-226 -34 -308.5 -82.5t-96.5 -113.5
q-16 -73 44 -73q13 0 26 3q-108 -292 -185 -652l-69 -329q-16 -74 57 -74q61 -42 307 -42q255 0 420 73q108 48 184 123q86 85 107 184q25 118 -58 209q-68 75 -188 112q411 193 457 410z" />
    <glyph glyph-name="C" unicode="C" horiz-adv-x="1121" 
d="M208 125q4 -10 13 -17zM449 507q-24 -110 13 -196q88 -86 224 -86q47 0 90.5 12.5t81.5 35.5q23 13 52.5 38t67.5 63q77 71 126 71q72 0 84 -51l48 -63q1 2 0 2t-1 2l4 -6q21 -27 9 -80q-4 -19 -12.5 -36t-19.5 -34q-99 -138 -258 -227q-158 -85 -312 -85
q-237 0 -372 172l-21 26l-28 29t-26 32q-133 179 -80 424q59 274 331 564q298 318 569 318q164 0 232 -137l33 -41q37 -48 56.5 -122t17.5 -176l-2 -11q-6 -26 -22 -55t-43 -55q-55 -58 -117 -58q-14 0 -24.5 6t-20.5 17l-48 62q-20 9 -33 33t-24 62q-8 35 -14.5 59.5
t-11.5 41.5l-14 3.5t-14 1.5q-129 0 -315 -210q-88 -100 -139.5 -186.5t-66.5 -159.5zM1143 335q15 68 -48 68q-29 0 -89 -57q-82 -78 -129 -107q-92 -56 -200 -56q-170 0 -269.5 120t-63.5 289q33 157 218 367q200 227 349 227q78 0 115 -75q15 -27 41 -136q17 -76 47 -76
q45 0 87 43.5t51 88.5l1 3q1 355 -243 355q-249 0 -532 -300q-262 -280 -317 -539q-48 -227 76.5 -393.5t349.5 -166.5q145 0 291.5 81t239.5 211q20 27 25 53z" />
    <glyph glyph-name="D" unicode="D" horiz-adv-x="1326" 
d="M1246 761q7 34 4 64.5t-17 56.5q-43 34 -105 62q-77 32 -170 53t-201 30l-75 -372q-20 -97 -41.5 -183.5t-43.5 -164.5l159 71t150 78q313 176 340 305zM299 1120q-42 22 -27 93q27 126 163 166q34 11 81.5 15t111.5 4h48q341 0 576 -116q81 -42 137.5 -91.5t88.5 -110.5
l25 -32q105 -137 65 -329q-63 -293 -502 -552q-145 -85 -315.5 -160t-368.5 -138q-13 -5 -25.5 -7t-21.5 -2q-34 0 -55 24l-50 65q-28 13 -36 52t6 105q12 58 34 140.5l51 186.5l54.5 194.5t33.5 128.5l55 259l2 12h-11q-46 0 -66 24zM1288 761q-34 -157 -366 -343
q-221 -123 -486 -217q72 215 142 540l83 413q247 -16 420 -91q248 -107 207 -302zM1463 804q62 290 -236 438q-227 113 -560 113h-48q-119 0 -180 -17q-105 -32 -125 -125q-14 -63 48 -63q-17 0 160 7q-32 -46 -52 -142l-56 -261q-21 -97 -87 -324q-60 -208 -84 -324
q-27 -123 33 -123q10 0 33 7q394 126 676 293q419 246 478 521z" />
    <glyph glyph-name="E" unicode="E" horiz-adv-x="1073" 
d="M458 440q-13 -59 -15.5 -105t4.5 -79q13 -7 28 -9.5t33 -2.5q73 0 234 51q88 29 152 42t112 13q103 0 116 -58l52 -65q11 -13 13 -29.5t-3 -38.5q-30 -140 -211 -190l-61.5 -12.5t-61.5 -11.5q-30 -5 -60.5 -11t-59.5 -11q-15 -4 -29 -8.5t-28 -6.5l2 -2q-5 -2 -25.5 -7
l-40.5 -10q-76 -22 -132 -22q-175 0 -253 97l-36 46q-142 112 -74 434q15 68 45.5 157t75.5 201q42 103 71.5 182t46.5 139q-12 14 -16.5 32.5t0.5 44.5q13 62 47.5 103t91.5 59q51 39 105 39q23 0 39 -10q146 20 298.5 30.5t317.5 10.5q74 0 86 -53l50 -63q20 -27 10 -72
q-22 -106 -138 -145h-1q-42 -14 -203 -22q-42 -3 -133 -11.5t-234 -24.5q-19 -58 -68 -179q59 5 124 7.5t140 2.5q98 0 110 -61l50 -62q23 -29 12 -80q-24 -114 -150 -148q-26 -7 -95.5 -13t-200.5 -16q-29 -3 -61.5 -5.5t-67.5 -5.5zM1079 244q13 63 -82 63
q-84 0 -249.5 -53t-248.5 -53q-215 0 -146 325q8 37 19 76q212 18 317.5 25.5t130.5 14.5q99 27 117 112q16 75 -77 75q-257 0 -419 -29q120 296 139 361q312 34 399 39q159 8 191 20q91 31 107 109q13 60 -50 60q-330 0 -627 -44q-11 14 -28 14q-39 0 -78 -33
q-92 -24 -114 -126q-10 -46 22 -57q-28 -109 -125 -349q-93 -224 -120 -350q-96 -454 261 -454q49 0 122 20q62 17 124 36l241 44q150 41 174 154z" />
    <glyph glyph-name="F" unicode="F" horiz-adv-x="1111" 
d="M290 1092q-46 23 -30 98q24 115 157 169q77 31 329 56q348 36 593 36q73 0 90 -55l49 -63q11 -14 14 -35.5t-3 -49.5q-27 -126 -160 -166q-20 -7 -76.5 -11t-152.5 -8q-34 -1 -140 -10.5l-286 -25.5q-6 -48 -15 -107l-20 -130q69 9 135.5 14t127.5 5q84 0 99 -56l50 -64
q23 -29 11 -93q-24 -113 -126 -149q-51 -18 -158 -25q-56 -5 -106 -8t-100 -8q-5 -22 -10 -48.5l-12 -63.5l-31 -147q-60 -284 -215 -284q-45 0 -63 24l-51 65q-50 24 -32 111l12 53.5t17 72.5l16.5 73l11.5 52q26 120 58.5 298t69.5 410q0 2 -1 3t-1 2zM1384 1333
q16 75 -54 75q-241 0 -589 -36q-245 -25 -316 -53q-104 -41 -123 -129q-14 -65 50 -65q24 0 50 3q-87 -544 -144 -814q-9 -43 -28 -125.5l-29 -125.5q-16 -77 43 -77q118 0 170 246l32 147q20 101 30 147q114 12 241 18q105 7 146 23q76 29 94 114t-64 85q-170 0 -381 -39
l63 420q393 36 464 39q186 7 219 17q106 33 126 130z" />
    <glyph glyph-name="G" unicode="G" horiz-adv-x="1331" 
d="M826 394q-89 82 -76 149q6 27 19 52t34 48q28 36 59 53t63 17q13 0 26 -5t28 -19l27 -20l1 2q5 -4 9.5 -8.5t9.5 -8.5q15 -12 29 -24.5t30 -23.5v3l69 -48t50 -30q36 -12 77.5 -32t92.5 -48q13 -12 22 -23.5t14 -24.5l48 -62q26 -32 17 -73q-12 -53 -59 -106
q-51 -60 -112 -60q-19 0 -44 11q-64 -57 -137 -102.5t-149.5 -77.5t-155 -49t-153.5 -17q-250 0 -385 174l-20 24q-30 29 -56 63q-132 178 -77 437q47 219 198 418q73 95 160.5 175.5t193.5 148.5q211 137 408 137q105 0 190 -53q38 -24 67 -53t46 -67l35 -42q24 -31 37 -68
q11 -36 5 -65t-21 -54.5t-38 -51.5q-56 -62 -117 -62q-22 0 -100 82l-2 4q-66 63 -137 63q-88 0 -178 -43.5t-183 -134.5q-178 -169 -219 -356q-13 -63 -10.5 -116t21.5 -99q40 -36 93 -55t120 -19q97 0 213 48q-17 14 -31 29t-23 29zM1370 353q7 31 -23 57q-107 59 -166 80
q-54 27 -120 77l-113 88q-20 16 -32 16q-41 0 -80 -46q-34 -40 -43 -82q-18 -86 233 -226q-181 -105 -339 -105q-178 0 -268 118.5t-52 297.5q43 198 233 381q199 191 392 191q91 0 162 -74.5t78 -74.5q41 0 83 46q38 41 47 84q5 22 -4 46q-27 79 -106.5 126.5t-173.5 47.5
q-179 0 -380.5 -128t-338.5 -310q-146 -190 -190 -398q-51 -241 73.5 -408t363.5 -167q150 0 307 68t279 186q28 -19 52 -19q41 0 79 43t47 85z" />
    <glyph glyph-name="H" unicode="H" horiz-adv-x="1186" 
d="M647 1149q-17 -84 -51 -217l-84 -316q53 -2 108.5 -6t117.5 -11q76 -11 134 -21.5t98 -26.5l63 207.5l79 267.5l6 27q2 8 4.5 16t4.5 16l6.5 31t8.5 34q20 80 47 135q64 130 172 130q64 0 76 -50l51 -65q21 -26 8 -90q-17 -80 -64 -247l-124 -422q-7 -22 -18 -61l-27 -96
q-14 -44 -29 -98l-34 -117q-9 -35 -23 -76l-31 -90q-67 -136 -170 -136q-41 0 -60 22l-50 65q-25 11 -32 37.5t2 71.5q2 5 10 38.5t24 91.5q-19 2 -38 5.5t-40 8.5q-11 2 -20.5 4t-17.5 4q-63 14 -79 15q-38 2 -91 5.5t-121 8.5q-11 2 -24 2q-12 0 -24 1h-4l-23 -107
q-55 -256 -206 -256q-38 0 -54 22l-50 65q-25 11 -33 38.5t2 75.5l40.5 175t55.5 221l66.5 257.5l34.5 135.5l38 179q69 323 237 323q58 0 70 -50l49 -63q27 -32 9 -114zM1391 1295q17 77 -39 77q-74 0 -124 -99q-24 -49 -44 -124q-14 -64 -30 -127q-102 -355 -159 -532
q-49 41 -269 66q-169 19 -304 19q-29 0 -57 -20q135 481 177 679q21 99 -32 99q-126 0 -185 -280l-39 -181q-18 -75 -100 -392q-64 -243 -96 -395q-17 -78 32 -78q115 0 162 218l34 156q15 -7 41 -11q176 -13 264 -17q19 -3 118 -24q72 -15 121 -15q60 0 97 39
q-77 -271 -81 -290q-15 -73 38 -73q75 0 124 99q41 111 55 167l109 375q155 511 187 664z" />
    <glyph glyph-name="I" unicode="I" horiz-adv-x="785" 
d="M340 1132q-28 15 -36.5 43t-0.5 66q6 31 23.5 61.5t41.5 54.5t54 39t62 15h47t64 2q38 2 67 2h49h153q76 0 117 -12q54 -19 63 -58l49 -63q21 -26 12 -67q-29 -135 -161 -172q-18 -5 -41 -7.5t-50 -2.5h-32l-98 -431.5t-86 -333.5h50q41 0 65.5 -14.5t31.5 -43.5l49 -62
q26 -30 12 -92q-15 -69 -57.5 -110.5t-113.5 -59.5q-16 -4 -50.5 -8t-86.5 -8q-149 -11 -236.5 -16.5t-112.5 -5.5q-50 0 -75 27l-51 65q-47 25 -31 103q21 98 106 148h-4q29 16 65.5 26.5t83.5 18.5q22 78 49.5 190l59.5 252l44.5 189.5l41.5 163.5q-65 7 -89 41z
M1000 1300q10 47 -39 62q-34 10 -106 10h-153q-38 0 -113.5 -1.5t-113.5 -1.5q-44 0 -81.5 -41t-47.5 -87q-19 -87 112 -87q19 0 49 1q38 2 48 2q-49 -164 -121 -479q-74 -326 -119 -480q-104 -12 -149 -34q-74 -36 -92 -121q-15 -72 55 -72q49 0 346 22q107 9 130 14
q112 27 135 135q18 83 -62 83q-99 0 -187 -7q99 309 233 939q65 -2 70 -2q51 0 79 9q105 31 127 136z" />
    <glyph glyph-name="J" unicode="J" horiz-adv-x="1270" 
d="M407 370q-2 -8 -3 -15t1 -15q10 -8 22 -15.5l26 -15.5q60 -33 117.5 -49t112.5 -16q190 0 302 126q103 112 147 318q33 158 26 532q0 8 1 15.5t2 13.5q13 58 71 116q62 63 127 63q48 0 66 -52l48 -60q12 -15 18 -41q13 -51 17 -126t-2 -178q-9 -184 -37 -312
q-34 -160 -101.5 -294.5t-173.5 -245.5q-237 -252 -548 -252q-211 0 -372 106q-54 36 -91 83l-25 29q-142 126 -102 314q33 153 184 273q63 49 133 87t152 65q14 5 26 7t24 2q65 0 77 -50l47 -61h-1t0 2l6 -5q19 -27 9 -81q-10 -46 -38 -82.5t-73 -65.5l-37 -19.5t-37 -18.5
l-32.5 -15t-31.5 -15q-53 -29 -57 -52zM1365 744q27 126 36 307q10 202 -14 294q-10 41 -37 41q-43 0 -89.5 -47t-56.5 -90q-1 -7 -1 -22q7 -375 -28 -539q-46 -217 -161 -342q-131 -145 -340 -145q-119 0 -247 69q-148 80 -125 186q10 46 83 83l132 65q76 48 91 120
q14 66 -42 66q-16 0 -36 -7q-154 -51 -268 -141q-134 -108 -163 -243q-40 -189 133 -309q152 -100 355 -100q293 0 514 237q199 212 264 517z" />
    <glyph glyph-name="K" unicode="K" horiz-adv-x="1152" 
d="M1026 840l-183.5 -109.5l-128.5 -78.5q70 -62 152 -144.5l178 -186.5q31 -35 53.5 -65t36.5 -55l13 -17q78 -100 68 -150q-6 -27 -24 -55t-43 -50.5t-54.5 -37t-57.5 -14.5q-30 0 -64 27q-21 17 -98 106l-43.5 50.5l-62.5 74.5q-72 76 -146 141t-154 120l-68 -249v-2
q-2 -5 -4 -11.5t-3 -10.5l-26.5 -94t-14.5 -44l1 -2q-54 -123 -165 -123q-43 0 -63 24l-51 67q-48 25 -30 112q16 73 40.5 171l56.5 222l63 239.5t37 149.5l56 263q66 310 236 310q55 0 67 -48l52 -63q14 -17 15.5 -48t-8.5 -76l-22 -105t-23 -100l35 22l37 22l169.5 103
t110.5 71q40 32 101.5 77l145.5 104q63 41 100 41q32 0 53 -16.5t29 -42.5l45 -59q1 2 0 2t-1 2l4 -5q14 -17 17.5 -39t-1.5 -47q-5 -23 -20 -46.5t-41 -50.5h1q-117 -125 -373 -276zM1110 119q10 47 -101 171q-284 316 -456 427q59 41 391 239q246 145 362 268q42 42 49 75
q6 29 -8 53t-43 24q-24 0 -71 -31q-166 -118 -247 -181q-75 -51 -267 -167q-172 -103 -265 -171q47 191 101 442q22 108 -31 108q-128 0 -184 -268l-57 -265q-24 -104 -99 -389q-67 -246 -98 -391q-17 -80 43 -80q80 0 121 94q4 7 45 155l87 314q228 -150 419 -377
q112 -133 130 -149q26 -20 45 -20q43 0 84 38.5t50 80.5z" />
    <glyph glyph-name="L" unicode="L" horiz-adv-x="1068" 
d="M463 420q-10 -48 -12 -90t7 -77q9 -5 21 -7t25 -2q84 0 266 51q97 29 168.5 42t120.5 13q42 0 66 -15t31 -41l50 -64q23 -28 11 -83q-12 -58 -52.5 -99.5t-106.5 -66.5l1 -1q-11 -5 -51 -13.5t-112 -22.5q-2 0 -56 -13l-156 -39q-67 -17 -122.5 -24.5t-99.5 -7.5
q-144 0 -218 92l-36 46q-26 22 -46.5 51t-34.5 67q-51 135 -9 336q16 74 49.5 174t86.5 232q53 133 86 230.5t46 160.5q7 33 24.5 64.5t42.5 56t56 40t64 15.5q66 0 80 -55l48 -61q29 -36 11 -121q-40 -185 -144 -461q-45 -117 -71 -194t-34 -113zM1112 232q16 75 -62 75
q-92 0 -277.5 -53t-277.5 -53q-106 0 -136 104q-25 84 -1 200q17 80 106 314q105 275 143 454q23 109 -43 109q-48 0 -86 -41.5t-49 -91.5q-28 -135 -133.5 -398.5t-134.5 -398.5q-40 -187 8 -314q59 -155 233 -155q86 0 214 31q210 53 214 53q135 25 152 32q111 41 130 133
z" />
    <glyph glyph-name="M" unicode="M" horiz-adv-x="1599" 
d="M836 1340q2 0 1 -2zM917 1062q17 -118 30 -221.5t23 -197.5l95 176.5l101 190.5q2 7 3 9.5t3 4.5q-2 0 1 5.5t5 9.5q8 14 15.5 29.5t16.5 30.5l15.5 31t15.5 29q43 79 92 143q44 56 85.5 82.5t82.5 26.5q54 0 76 -56l48 -60q18 -22 25 -64q0 -9 -0.5 -30t-0.5 -51
q-1 -8 -1 -17v-19q-2 -78 0 -169.5t8 -203.5l12 -186q3 -47 5.5 -93.5t5.5 -92.5l4 -78t6 -79q2 -48 -1 -89.5t-11 -76.5q-13 -59 -67 -118l-3 -1q-56 -60 -125 -60q-34 0 -53 25l-48 62q-31 14 -44 63q-10 31 -14 68t-6 81q0 37 0.5 81.5t0.5 80.5q-4 50 -7 113.5t-5 138.5
l-89 -160.5l-102 -185.5l-45 -76.5l-30 -48.5h-2l-46.5 -68t-43.5 -53q-69 -72 -133 -72q-24 0 -43 24l-49 63q-41 22 -65 123.5t-35 284.5l-7.5 113.5t-7.5 108.5l-77 -197.5l-63 -169.5q-13 -33 -25 -67l-24 -68q-2 -5 -3.5 -9.5l-2.5 -7.5q-33 -88 -77 -155
q-64 -102 -151 -102q-53 0 -73 27l-50 63q-51 25 -33 109l4 18.5t5 15.5q1 2 1.5 4t1.5 3l133.5 332l181.5 467l38.5 108.5l37.5 108.5q28 72 54.5 128.5t56.5 98.5q81 114 174 114q46 0 75 -49v1q2 -5 5 -11t6 -13l33 -42l1 -2l6 -5q4 -7 8.5 -12.5t6.5 -13.5l4 -1
q13 -27 26.5 -88t26.5 -156h2zM1573 131q14 67 10 157q-5 79 -9 156l-24 372q-11 222 -6 377q2 90 0 113q-9 63 -52 63q-59 0 -128 -89q-42 -55 -85 -135l-72 -140q-174 -336 -321 -585q-7 263 -75 713q-28 185 -52 236q-20 42 -51 42q-68 0 -133 -92q-52 -75 -102 -211
l-77 -222l-314 -797q-8 -21 -10 -33q-16 -76 54 -76q61 0 112 80q38 59 72 147l54 150l247 631q36 -225 56 -565q22 -384 89 -384q46 0 99 57q44 46 88 114q18 29 71 121l328 594q10 -403 20 -604q0 -72 -1 -145q4 -84 19 -140q12 -46 43 -46q50 0 94.5 46t55.5 95z" />
    <glyph glyph-name="N" unicode="N" horiz-adv-x="1147" 
d="M833 877q24 -60 55 -130.5l67 -155.5l46.5 201.5l56.5 241.5q2 11 4.5 19.5t4.5 16.5l6 26l8 37.5t6 25.5q10 38 22.5 69.5t26.5 58.5q71 135 181 135q63 0 75 -52l52 -63q22 -28 9 -94q-16 -75 -42.5 -186.5l-61.5 -261.5l-61.5 -261t-41.5 -185q-17 -80 -35.5 -142
t-41.5 -107q-16 -31 -33.5 -58t-40.5 -51l-2 1q-66 -75 -129 -75q-31 0 -59 34l-45 57q-16 10 -32 32q-21 27 -55 100t-85 195l-65 155.5l-82 199.5l-56 -208l-64 -237q-5 -15 -8 -29.5t-8 -30.5q-5 -15 -9 -30t-7 -29q-12 -39 -24.5 -70.5t-28.5 -57.5q-67 -120 -167 -120
q-36 0 -52 21l-52 66q-23 12 -30.5 39t2.5 72q15 72 42.5 170l65.5 224l69.5 232t41.5 154l43 205q81 377 249 377q49 0 78 -61q1 -2 0.5 -4t1.5 -3l44 -53q5 -7 8.5 -13.5l8.5 -15.5q11 -29 26.5 -65.5t32.5 -84.5l1 -2l27.5 -87.5t15.5 -54.5l4 -3h-1l3 -2l17.5 -39.5
t17.5 -42.5zM1348 1299q17 80 -40 80q-78 0 -134 -106q-27 -48 -44 -118q-6 -15 -29 -121l-145 -631l-259 616q-9 24 -52 153q-31 94 -59 151q-21 42 -47 42q-126 0 -197 -334l-43 -205q-30 -118 -112 -389q-77 -251 -107 -391q-16 -75 30 -75q72 0 126 96q27 46 49 117
l33 120l169 631q160 -413 247 -614q100 -237 131 -282q19 -29 40 -29q44 0 95 58q41 43 68 98q40 81 73 238q32 149 103.5 447.5t103.5 447.5z" />
    <glyph glyph-name="O" unicode="O" horiz-adv-x="1365" 
d="M465 370q3 -4 5.5 -8.5t7.5 -8.5zM1210 625q40 188 -35 314q-103 82 -275 82q-36 0 -133 -53q-235 -126 -291 -389q-15 -70 -10.5 -128t29.5 -110q51 -49 123 -73t163 -24q81 0 150 25.5t126 78.5q117 108 153 277zM263 99q-6 7 -12 13t-12 14q-163 175 -101 466
q23 107 66 203t106 185q138 192 323 297q104 131 373 131q146 0 251 -56t176 -168q1 -5 4 -9l6 -8l19 -24q9 -11 17.5 -22.5t16.5 -24.5q124 -206 61 -497q-32 -149 -101.5 -274.5t-175.5 -228.5q-233 -222 -529 -222q-287 0 -442 170q-5 7 -10.5 13t-10.5 13zM1253 625
q-39 -185 -169 -304.5t-312 -119.5q-210 0 -326 125q-119 131 -75 338q60 283 317 421q108 58 152 58q238 0 350.5 -140.5t62.5 -377.5zM1452 684q60 279 -57 473q-127 208 -398 208q-262 0 -340 -123q-182 -99 -311 -281q-124 -173 -165 -369q-57 -269 93 -435
q145 -160 418 -160q280 0 497 208q203 194 263 479z" />
    <glyph glyph-name="P" unicode="P" horiz-adv-x="1246" 
d="M670 809l-19.5 -88l-30.5 -132q74 15 139.5 32.5t124.5 37.5v1q268 93 289 187q8 40 -4 73q-10 6 -20.5 13.5t-22.5 13.5q-54 29 -122.5 47t-151.5 27q-58 1 -112 6h-1q-28 2 -57 4.5t-56 4.5h-15q-6 0 -11 2q9 -12 13 -28l50 -61q28 -38 7 -140zM327 1162
q-25 20 -35.5 44t-3.5 54q7 32 25 60.5t43 50.5t55.5 34.5t61.5 12.5q38 0 99.5 -3.5t146.5 -9.5q176 -14 303 -39t208 -60q72 -32 123 -74.5t79 -98.5l29 -34q-1 0 -5 4l10 -11q92 -116 53 -295q-57 -271 -435 -442q-256 -115 -555 -154q-15 -66 -27.5 -109t-21.5 -63h2
q-61 -155 -188 -155q-43 0 -62 24l-51 64q-25 14 -33 43.5t3 79.5q10 48 26 115l38 153l40.5 160.5l26.5 106.5l51 242q15 67 66 130q38 46 88 61q-53 8 -76 22l-21 13.5t-15 15.5zM1414 882q57 268 -208 384q-155 67 -500 96q-167 14 -242 14q-44 0 -83.5 -35t-49.5 -81
q-9 -40 38 -64.5t201 -36.5q113 -9 226 -16q170 -18 286 -76q163 -84 134 -220q-27 -128 -323 -227q-177 -59 -412 -98q64 278 84 372q27 125 -31 125q-59 0 -104 -51q-41 -45 -54 -106l-52 -244q-18 -79 -66 -266q-44 -171 -64 -267q-19 -88 41 -88q93 0 144 124
q14 34 53 200q313 36 575 153q355 161 407 408z" />
    <glyph glyph-name="Q" unicode="Q" horiz-adv-x="1357" 
d="M1257 123q1 2 -1 2zM1230 911q-2 3 -2 4t-2 3zM1214 691q33 158 -26 261q-97 80 -280 82l-24 -12l-4.5 -2.5t-6.5 -4.5q-183 -97 -289.5 -225.5t-141.5 -289.5q-11 -51 -9.5 -96t16.5 -83q89 -80 251 -80q26 0 54 2.5t59 10.5q-26 61 -35.5 103t-4.5 66q5 23 20.5 47.5
t36.5 44.5t46.5 33t49.5 13q46 0 115 -110l24 -31q1 -4 3 -6l4 -4q108 123 142 281zM227 79q-6 4 -10 8.5t-8 9.5q-152 161 -98 418q52 242 224 461q85 109 183.5 191t215.5 139q23 35 54.5 57t73.5 33v2q26 8 62 10.5t84 2.5q284 0 414 -196q5 -9 10.5 -16.5t9.5 -15.5
l23 -29l10 -13.5t10 -14.5q128 -189 68 -467q-64 -302 -295 -533q2 -5 5.5 -10t7.5 -10l8 -9q49 -63 71 -109.5t15 -76.5q-6 -26 -22.5 -53t-40 -48.5t-51 -35t-54.5 -13.5q-47 0 -122 94l-23 29q-13 11 -25.5 26.5l-26.5 33.5q-81 -38 -161 -57.5t-162 -19.5
q-257 0 -398 148q-6 8 -14 16t-14 17zM1256 691q-45 -210 -205 -356q-93 184 -134 184q-32 0 -63.5 -31.5t-38.5 -64.5q-10 -46 62 -194q-91 -31 -186 -31q-185 0 -284 101q-108 107 -70 286q73 340 457 548q30 17 41 24q232 0 346 -114q123 -125 75 -352zM1448 744
q57 266 -63 442q-123 183 -386 183q-87 0 -131 -12q-72 -19 -107 -80q-224 -106 -392 -321q-166 -208 -216 -441q-50 -237 90 -385q132 -140 375 -140q174 0 343 92q123 -198 176 -198q39 0 77 36.5t46 76.5q12 54 -124 211q246 227 312 536z" />
    <glyph glyph-name="R" unicode="R" horiz-adv-x="1329" 
d="M1237 823q3 13 1.5 24.5t-5.5 22.5q-33 22 -78.5 42.5t-105.5 39.5q-83 23 -183.5 42t-222.5 32l-39.5 -168.5l-68.5 -294.5q185 28 344 72q337 91 358 188zM124 -32q-42 18 -26 99l11.5 51l14.5 65l5 25q2 8 4.5 15.5t4.5 15.5l42 174q10 47 28 140l30 143
q23 109 48.5 211.5t55.5 201.5l-21 28q-50 22 -35 94q6 30 26 60.5t47.5 55t59.5 39.5t63 15q158 0 305.5 -19t290.5 -58q107 -29 186.5 -63.5t129.5 -76.5q26 -23 47.5 -47.5t36.5 -52.5l33 -41q45 -57 56.5 -126.5t-5.5 -151.5q-29 -133 -137 -237t-296 -182q3 -8 7 -16.5
t9 -17.5l21.5 -25.5t22.5 -23.5q5 -7 14.5 -17l18.5 -19q6 -8 11.5 -13t10.5 -9q13 -21 22 -38l41 -51q37 -47 26 -99q-12 -56 -64 -109q-29 -29 -57.5 -44.5t-57.5 -15.5q-24 0 -52 22q-35 29 -67.5 60t-59.5 68l-15 16q-47 49 -87 107t-72 126q-86 -19 -175.5 -34
t-186.5 -25q-13 -58 -24 -96t-19 -58q-60 -153 -167 -153q-36 0 -52 20zM1279 823q-28 -130 -397 -229q-222 -60 -485 -92q137 601 152 652q270 -28 450 -81q313 -93 280 -250zM1458 850q40 188 -98 300q-94 77 -300 133q-279 76 -587 76q-46 0 -90.5 -41t-53.5 -87
q-14 -65 74 -64q-67 -213 -122 -471l-30 -141q-18 -94 -28 -142q-13 -58 -41.5 -173t-41.5 -173q-13 -64 30 -64q73 0 123 123q19 48 50 181q247 26 452 77q89 -258 267 -398q19 -15 33 -15q41 0 83 44.5t51 86.5q7 36 -23 74q-25 29 -53 56q-81 87 -145 217
q395 145 450 401z" />
    <glyph glyph-name="S" unicode="S" horiz-adv-x="1253" 
d="M551 899q-2 -9 -3 -15.5t1 -14.5q23 -14 53 -28t68 -25l430 -128q144 -65 190 -164l36 -43q73 -93 45 -220q-43 -206 -243 -309q-158 -82 -364 -82q-60 0 -125.5 6.5t-139.5 19.5q-93 15 -153 34t-94 41q-11 7 -18.5 14t-13.5 15l-43 53q-64 46 -49 116q8 37 27 68.5
t46 54t60 35.5t69 13q35 0 158 -33q88 -23 176.5 -34.5t177.5 -11.5q33 0 63.5 3.5t57.5 8.5q61 13 62 17q0 3 0.5 4.5t-0.5 4.5q-23 13 -53 24.5t-65 22.5l-305 94.5t-129 45.5q-48 23 -82.5 51t-60.5 60l-28 36q-133 114 -94 299q53 244 343 375q109 49 226 73.5t246 24.5
q323 0 378 -139l41 -53q45 -56 26 -145q-15 -70 -81 -157q-41 -54 -81.5 -79.5t-78.5 -25.5q-39 0 -60 27l-47 60q-20 7 -31 30v-1q-11 23 -16 47t0 48q-23 4 -48 5.5t-54 1.5q-263 0 -405 -109h2q-16 -15 -17 -16zM1267 346q42 200 -184 301l-433 128q-233 73 -204 210
q5 20 33 42q156 120 432 120q180 0 247 -50q-33 -35 -42 -78q-8 -34 6 -60q14 -31 46 -31q55 0 123 87q60 79 72 139q45 208 -349 208q-243 0 -452 -94q-265 -118 -311 -336q-45 -213 178 -326q40 -21 428 -138q233 -70 210 -178q-9 -39 -103 -58q-63 -14 -131 -14
q-181 0 -363 48q-117 31 -149 31q-53 0 -95.5 -36.5t-54.5 -91.5q-10 -46 39 -80q59 -41 234 -70q151 -26 262 -26q198 0 343 77q178 92 218 276z" />
    <glyph glyph-name="T" unicode="T" horiz-adv-x="1524" 
d="M288 1075q-45 26 -32 86q7 33 26 65t46.5 57.5t60.5 41.5t67 16h6q3 0 7.5 -0.5t8.5 -0.5q5 -2 8 -2h8q97 0 242.5 14t346.5 42q397 57 599 57q106 0 118 -62l52 -63q20 -26 11 -72q-14 -64 -53.5 -106t-107.5 -63q-24 -8 -55.5 -12.5t-71.5 -5.5q-16 -2 -32 -2h-30
q-16 0 -30 -1t-28 -1q-48 -4 -107 -10t-136 -17q-71 -11 -124 -18t-87 -11h-4q-14 -64 -34 -146l-46 -182l-56 -221.5l-33 -133.5l-43 -203q-52 -244 -188 -244q-30 0 -46 21l-52 66q-35 16 -38 67q-9 78 29 249q17 84 41.5 188l56.5 230l17 67l16 61q10 42 20 78t17 65l2 9
q-51 -2 -99 -2.5t-95 -0.5q-100 0 -128 37zM1758 1340q14 68 -85 68q-196 0 -594 -56.5t-594 -56.5q-7 0 -19.5 2t-18.5 2q-50 0 -94.5 -44.5t-54.5 -93.5q-14 -64 109 -64q159 0 331 14q-3 -17 -107 -415q-63 -251 -98 -416q-34 -159 -28 -234q4 -46 33 -46q99 0 143 207
l43 203q20 90 89 356q58 226 86 359q57 7 248 34q155 20 248 27l119 4q75 3 117 17q106 34 127 133z" />
    <glyph glyph-name="U" unicode="U" horiz-adv-x="1369" 
d="M482 599q-14 -68 -12.5 -126t21.5 -104q2 -3 4.5 -4.5t6.5 -4.5q60 -50 145 -76t198 -26q165 0 256 136q36 53 64 131.5t50 182.5q19 85 27 275q3 95 10.5 168t18.5 126q7 31 25.5 58.5t49.5 57.5q64 61 127 61q42 0 63 -55l46 -58q24 -31 33.5 -101t1.5 -184
q-6 -101 -17 -187.5t-27 -160.5q-37 -177 -97 -316t-143 -244q-213 -267 -551 -267q-155 0 -269.5 41.5t-193.5 123.5l-12 14l-11 13l-27 33l-11.5 10t-10.5 12q-165 179 -99 486q26 131 121 347q50 113 93.5 195.5t81.5 135.5q72 99 147 99q38 0 58 -13.5t26 -39.5l48 -61
v3l4 -5q20 -26 9 -77q-2 -11 -6.5 -23l-8.5 -23q-5 -6 -90 -184l-21 -45.5t-25 -48.5q-77 -157 -103 -275zM1469 794q30 141 43 343q17 274 -48 274q-43 0 -92 -46t-58 -88q-20 -96 -27.5 -284.5t-28.5 -284.5q-46 -218 -122 -331q-109 -162 -300 -162q-240 0 -368 111
q-140 126 -91 358q25 118 107 285q133 272 136 280q7 16 11 34q14 65 -49 65q-48 0 -103 -75q-77 -106 -171 -322q-90 -209 -117 -337q-61 -286 92 -454q148 -157 440 -157q317 0 515 250q158 199 231 541z" />
    <glyph glyph-name="V" unicode="V" horiz-adv-x="1222" 
d="M663 983q18 -115 32.5 -232t26.5 -241l164.5 241l176.5 266l8.5 17t4 6.5l2 2t2.5 3.5q5 5 7.5 10.5t6.5 10.5l41.5 64l40.5 64q34 54 68 99.5t66 78.5t62.5 52t57.5 19q32 0 53.5 -18t30.5 -45l49 -60q13 -17 17.5 -40t-0.5 -47q-6 -27 -31 -70q-11 -20 -51.5 -81
l-111.5 -167l-144 -213.5l-199 -298.5h-1l-75.5 -122l-75.5 -123q-52 -80 -98 -139t-85 -97q-42 -38 -79.5 -58t-72.5 -20t-55 24l-49 63q-31 14 -42 61q-3 14 -6.5 55.5t-5.5 110.5q-3 45 -10 112t-19 156l-35.5 209l-34.5 211q-54 317 -35 406q6 27 22.5 56t45.5 58
q58 61 122 61q48 0 74 -59l46 -57h-1l3 -1q5 -8 10 -17t9 -21l-1 2q19 -42 36 -114t33 -178zM1475 1319q7 31 -8 56.5t-46 25.5q-38 0 -92 -63t-117 -159l-106 -167q-259 -401 -469 -695q-22 376 -80 738q-34 211 -65 285q-20 46 -47 46q-42 0 -85 -44.5t-53 -88.5
q-15 -74 36 -391l70 -418q24 -171 27 -275q5 -131 13 -159q11 -42 43 -42q52 0 120 64q78 74 176 227l153 246l343 512q134 198 161 246q22 37 26 56z" />
    <glyph glyph-name="W" unicode="W" horiz-adv-x="1710" 
d="M597 1321q1 0 0 -2v2zM1391 864q5 -71 12 -138.5t17 -133.5l78.5 202.5l86.5 220.5l29 79l29 77q37 94 82 162q38 54 76.5 82.5t82.5 28.5q75 0 89 -55l50 -63q23 -29 10 -89q-2 -11 -5 -17.5t-5 -12.5l-2 -7l-137 -337l-190 -474l-41 -113.5l-40 -113.5
q-27 -71 -56 -127t-58 -98l-2 2q-76 -115 -165 -115q-36 0 -62 33l-44 56q-14 8 -25 20.5t-19 30.5q-17 32 -32 95.5t-35 160.5q-23 121 -39.5 235t-28.5 223l-113 -198l-114 -210l-38 -74l-38 -71q-24 -44 -47 -81t-48 -66q-84 -108 -168 -108q-36 0 -56 26l-50 63
q-18 9 -30 30t-18 50q-2 14 -3.5 48t-0.5 94v-2l-2.5 102.5t-5.5 148.5q-4 135 -12 335t-22 469q-2 5 -2 8t2 14l1 4q6 30 24.5 57.5t50.5 56.5q65 58 126 58q49 0 74 -60l40 -51v-2l6 -3q6 -8 10 -18l8 -21q20 -65 24 -154q1 -38 0.5 -75.5t1.5 -74.5h2l7 -141t7 -177
l115 199.5l116 196.5l16 26t18 27l7 10l-2 -1l9.5 17l9.5 17q5 8 8.5 14.5t8.5 14.5q20 33 44 66t51 62h-2q32 40 66 59t65 19q27 0 49.5 -17.5t36.5 -52.5l44 -52q14 -18 23.5 -46t15.5 -65h2q2 -17 9 -88.5t18 -196.5zM1928 1323q17 78 -53 78q-58 0 -114 -85
q-40 -62 -77 -152l-59 -155q-145 -384 -260 -656q-52 277 -80 586q-22 249 -28 281q-18 120 -73 120q-39 0 -91 -60q-43 -48 -87 -119l-74 -127l-361 -618q-14 422 -27 632q-1 75 -4 152q-3 87 -22 145q-15 44 -44 44q-42 0 -91.5 -43.5t-58.5 -85.5q-1 -2 1 -14
q27 -536 34 -806q8 -193 9 -268q0 -88 4 -116q9 -63 50 -63q62 0 131 89q44 56 90 140l77 145q178 336 348 611q15 -331 90 -742q33 -187 64 -246q21 -43 50 -43q65 0 129 92q56 80 109 215l80 226l329 812q7 19 9 31z" />
    <glyph glyph-name="X" unicode="X" horiz-adv-x="1178" 
d="M763 1036l17 -37t20 -38q1 2 4 5l30.5 29.5t30.5 30.5l119 119q137 132 246 222q35 29 64.5 43.5t49.5 14.5q31 0 50 -16t27 -40l50 -62q13 -17 16.5 -40.5t-1.5 -49.5q-5 -20 -18 -44.5t-37 -51.5h2q-11 -13 -52 -52.5l-113 -105.5l-131 -124.5l-186 -184.5
q294 -592 274 -680q-5 -24 -20.5 -50t-40.5 -50l-1 -2q-57 -55 -111 -55q-36 0 -58 29l-46 60q-8 5 -15.5 11.5t-12.5 15.5q-12 20 -36.5 70.5t-59.5 134.5l-43 95l-78 166l-111 -122l-138 -154h2q-21 -29 -56.5 -73l-87.5 -105q-69 -71 -127 -71q-21 0 -38.5 8t-28.5 22
l-48 62q-26 14 -37 43t-3 64q24 114 519 632q-126 252 -184 394t-51 174q5 27 20.5 55.5t42.5 57.5q59 65 119 65q15 0 30.5 -8.5t28.5 -25.5v1q5 -5 9.5 -14l11.5 -22l50 -61q9 -13 77 -171l4 -3l25 -51zM1121 60q16 77 -282 681q230 232 338 331q138 128 161 155
q36 44 43 75q6 31 -5.5 55.5t-40.5 24.5q-24 0 -71 -37q-111 -89 -253 -227l-239 -239l-169 331q-65 150 -78 169q-19 29 -38 29q-41 0 -81.5 -46t-49.5 -89q-11 -51 246 -568q-508 -528 -530 -632q-7 -30 8.5 -53t44.5 -23q41 0 94 56q96 113 140 172l314 347
q163 -331 194 -410q74 -177 89.5 -199.5t35.5 -22.5q39 0 79.5 40t49.5 80z" />
    <glyph glyph-name="Y" unicode="Y" horiz-adv-x="1309" 
d="M625 1302q2 0 1 -2zM588 1015q-24 -108 1 -187q57 -48 164 -48q125 0 251 68q62 35 108 77.5t74 96.5q10 65 20 121t20 103q13 64 63 124q31 36 66.5 53t73.5 17q66 0 88 -61l46 -58h-2l2 -2q47 -57 9 -234q-8 -39 -18 -98l-24 -139q-11 -78 -21.5 -138.5t-19.5 -100.5
q-68 -323 -231 -507q-197 -225 -513 -225q-97 0 -229 27q-78 16 -131 35t-82 41q-13 9 -21 20l-42 53q-2 2 -4.5 3t-4.5 4q-26 19 -35 43.5t-3 51.5q12 61 66 118q29 32 60.5 47.5t63.5 15.5q5 0 13 -0.5t15 -4.5q128 -40 221 -58.5t151 -18.5q53 0 94.5 8.5t75.5 29
t60.5 53t49.5 80.5q5 11 11 25.5t12 32.5q-90 -46 -182.5 -68t-189.5 -22q-230 0 -338 138l-31 37q-17 16 -32 33t-27 37q-53 78 -64.5 179t15.5 227q79 374 260 374q32 0 55 -18t33 -47l40 -51l1 -2l6 -5q14 -17 18.5 -39t-0.5 -46q-4 -20 -12.5 -45l-19.5 -57
q-13 -32 -20 -55.5t-10 -37.5zM1385 695q17 80 41.5 238t41.5 238q48 227 -48 227q-55 0 -100 -51q-39 -45 -51 -101q-20 -94 -38 -227q-66 -130 -211 -208q-134 -74 -276 -74q-160 0 -227.5 101t-33.5 263q7 32 31 97t31 97q7 31 -9.5 56t-47.5 25q-138 0 -208 -332
q-50 -235 45 -378q96 -151 328 -151q291 0 537 209q-48 -227 -88 -311q-55 -114 -130 -157.5t-198 -43.5t-383 78q-12 4 -17 4q-44 0 -86 -46.5t-52 -92.5q-7 -34 26 -59q50 -40 201 -69q133 -27 223 -27q295 0 478 208q155 178 221 487z" />
    <glyph glyph-name="Z" unicode="Z" horiz-adv-x="1382" 
d="M1194 710l-213.5 -193l-280.5 -256l87.5 8t94.5 9q147 14 260 21.5t194 7.5q69 0 81 -48l52 -66q11 -13 12.5 -33.5t-3.5 -46.5q-24 -114 -154 -166q-29 -11 -101 -20t-191 -17q-309 -20 -507 -30t-287 -10q-65 0 -90 31l-50 63q-50 25 -33 103q12 56 61 117q29 36 71 79
t96 92l44.5 36.5l43.5 38.5q11 9 22 19t22 19l22 18t22 19l244 225l321 303q-148 8 -262 11.5t-192 3.5q-97 0 -151 15q-19 5 -31 12.5t-20 18.5l-50 61q-47 28 -35 89q7 33 26.5 64.5t47.5 57t61 41t67 15.5q14 0 61 -3l128 -8q20 -1 44 -2t52 -3q21 -1 43 -1q23 0 48 -2
h24q39 -2 80.5 -3.5t86.5 -3.5q44 -2 83 -2.5t74 -2.5q9 0 17.5 -1t17.5 -1q47 -1 79.5 -2t52.5 -3q14 -2 22 -2h12q107 0 119 -59l52 -63q19 -26 10 -72q-10 -47 -61 -116q-44 -60 -129 -149t-217 -213zM1373 198q14 67 -46 67q-158 0 -451 -29q-315 -31 -451 -35l680 620
q258 244 340 353q42 58 51 99q14 67 -85 67q-29 0 -360 13q-252 11 -378 16q-160 10 -187 10q-50 0 -94.5 -42.5t-55.5 -92.5q-9 -44 44 -60q46 -13 140 -13q215 0 687 -26l-713 -669l-176 -150q-101 -89 -159 -164q-42 -53 -51 -95q-15 -74 72 -74q177 0 791 39
q230 16 279 35q104 41 123 131z" />
    <glyph glyph-name="bracketleft" unicode="[" horiz-adv-x="1017" 
d="M676 341q-5 -22 -9 -42.5t-10 -40.5h7h17q22 1 40 1h32q125 0 145 -66l50 -63q11 -14 13.5 -32.5t-2.5 -41.5q-6 -30 -21.5 -59t-38 -53t-50.5 -42t-59 -27q-17 -5 -65.5 -6.5t-126.5 -1.5h-35q-20 0 -49 -2q-27 -2 -50 -2h-36q-88 0 -116 38l-50 63q-52 32 -36 113
q6 27 17.5 52.5t31.5 49.5q14 49 25 92.5t19 81.5q14 66 31.5 165.5t39.5 237.5l33 196t29 154l-22 27q-53 25 -34 116q7 31 24.5 62t42.5 56t55.5 40t63.5 15q35 0 86.5 2t123.5 6q72 5 127 7.5t90 2.5q84 0 97 -56l52 -63q21 -27 11 -80q-30 -139 -190 -179
q-54 -17 -191 -21l-10.5 -72.5l-10.5 -72.5q-8 -46 -14 -91l-12 -92q-16 -110 -32 -203.5t-33 -168.5zM854 142q16 75 -110 75q-36 0 -110 -2.5t-109 -2.5h-6q29 105 53 215q31 148 63 368l54 369q167 5 219 19q132 32 156 143q15 72 -64 72q-70 0 -213.5 -9.5t-213.5 -9.5
q-46 0 -84.5 -41t-49.5 -89q-18 -87 67 -85q-30 -140 -74 -406q-42 -275 -70 -405q-17 -82 -47 -187q-35 -41 -46 -89q-19 -91 100 -91q29 0 85 2t85 2q152 0 182 7q51 12 87 53.5t46 91.5z" />
    <glyph glyph-name="backslash" unicode="\" horiz-adv-x="809" 
d="M601 1509q-1 0 -4 3zM541 -370q-32 17 -43.5 60.5t-16.5 106.5l-2 57.5t-3 56.5q-5 53 -16 148t-29 235q-13 85 -24.5 170.5l-22.5 172.5q-5 31 -8.5 62.5t-8.5 63.5l-9.5 63t-8.5 63q-33 250 -46 386.5t-7 163.5q12 58 67 116q59 65 126 65q48 0 70 -58l46 -57
q11 -14 19 -36.5t13 -51.5q7 -61 12 -122h1q9 -74 111 -768h1q34 -229 51 -425.5t19 -362.5q-2 -11 -2 -23t-2 -20q-6 -30 -23.5 -58.5t-41.5 -50t-53 -35t-59 -13.5q-39 0 -60 28zM724 -218q4 20 3 35q-1 316 -71 782q-103 696 -111 770q-5 59 -13 121q-16 87 -52 87
q-43 0 -88 -47t-54 -91q-10 -45 55 -536l83 -592q35 -282 44 -388q3 -56 4 -114q5 -67 18.5 -107t49.5 -40q44 0 83 36.5t49 83.5z" />
    <glyph glyph-name="bracketright" unicode="]" horiz-adv-x="1014" 
d="M442 1138q-24 14 -32.5 40t-1.5 61q7 33 23.5 64t40 56t52.5 42.5t61 23.5q18 3 139 3h111q38 2 67 2h49q112 0 129 -66l49 -62q24 -31 12 -85q-12 -53 -52 -101q-7 -26 -14.5 -60.5l-17.5 -79.5q-14 -68 -32.5 -171.5l-42.5 -249.5l-36 -203.5l-29 -160.5l40 -53
q25 -29 11 -94q-6 -28 -20 -56t-39 -55q-59 -59 -120 -59q-35 0 -87 -1.5t-124 -5.5t-126 -5.5t-89 -1.5q-59 0 -82 29l-49 63q-50 23 -33 101q30 143 194 184q23 7 69 12t114 7q6 36 11 73t12 70q3 22 6.5 45t7.5 46q4 24 6.5 48.5t7.5 48.5q17 112 33 206t33 170
q4 17 7 36.5t9 39.5h-46q-42 0 -72 2.5t-47 6.5q-37 8 -52 29zM864 130q18 87 -65 85q32 147 78 423q47 289 76 424q20 97 35 151q38 43 48 89q18 86 -94 86q-38 0 -115 -2h-112q-113 0 -131 -4q-48 -8 -85 -50.5t-48 -92.5q-11 -55 42 -68q34 -9 111 -9h90q65 2 91 2
q-29 -104 -49 -201q-33 -152 -67 -374l-55 -374q-166 -5 -217 -19q-132 -32 -156 -143q-15 -70 62 -70q70 0 213 7t213 7q47 0 89 44q35 41 46 89z" />
    <glyph glyph-name="asciicircum" unicode="^" horiz-adv-x="1027" 
d="M180 299q-23 13 -29.5 37.5t1.5 62.5q5 26 61.5 135t168.5 306l183 317.5t99 149.5l-1 -3q91 107 169 107q51 0 85 -76l38 -46q20 -26 37 -72t30 -113l13 -90t20 -162q4 -30 8 -57t9 -56q4 -29 7.5 -58.5t8.5 -57.5q13 -91 17 -146t-1 -79q-12 -55 -69 -120
q-60 -70 -126 -70q-29 0 -56 33l-46 56q-77 47 -107 324q-1 23 -3 47l-4 49q-69 -120 -114 -207q-18 -37 -43 -83t-59 -103q-86 -116 -170 -116q-54 0 -74 26zM999 483q8 38 -16 213l-33 229q-23 198 -33 251q-35 193 -94 193q-58 0 -141 -103q-43 -53 -261 -439.5
t-227 -427.5q-15 -68 53 -68q62 0 124 82q77 128 108 195q81 153 236 411q16 -193 29 -384q34 -304 106 -304q44 0 91.5 53t57.5 99z" />
    <glyph glyph-name="underscore" unicode="_" horiz-adv-x="1359" 
d="M1183 169l63 -80l-45 -212h-928l-64 80h-10l47 222h939zM1133 137h-853l-29 -137h853z" />
    <glyph glyph-name="grave" unicode="`" horiz-adv-x="577" 
d="M674 1377q-3 0 -5 4l-5 7q1 0 1 -1t2 -1l-44 56q-6 4 -11 8t-10 9q-20 21 -44.5 72t-55.5 133q-63 170 -51 227q14 62 75 119q61 58 127 58q29 0 50.5 -15.5t36.5 -50.5q-2 -3 1 -3l42 -53q5 -8 10.5 -18t10.5 -22q5 -13 7.5 -23t9.5 -28l17.5 -56l20.5 -65h2
q10 -23 24.5 -60.5t31.5 -86.5q13 -40 7 -66q-12 -57 -62 -113q-56 -63 -119 -63q-20 0 -37 8.5t-32 23.5zM819 1606q4 19 -4 49q-36 98 -58 144q-39 123 -60 184q-17 43 -53 43q-46 0 -93 -43.5t-57 -91.5q-9 -43 50.5 -204t91.5 -195q22 -24 48 -24q44 0 85 46t50 92z" />
    <glyph glyph-name="a" unicode="a" horiz-adv-x="1070" 
d="M745 695l-89.5 -150l-111.5 -188h227q-8 77 -15 161t-11 177zM27 -51q-47 22 -30 104q12 57 270 490l109.5 183.5l112.5 186.5l24 40l24 40l22 36l23 38l88 153q30 49 62 91.5t64.5 73.5t64.5 48.5t63 17.5q59 0 85 -60l47 -60q16 -19 24 -56q11 -45 15.5 -103.5
t4.5 -132.5q-1 -100 -0.5 -156.5t0.5 -73.5h2q14 -121 29 -306t32 -430l1 -1l-2 -14t-3 -14q-12 -57 -70 -116q-60 -61 -120 -61q-33 0 -53 27l-48 62q-35 21 -51 80h-24h-36t-51 2q-29 1 -49 1h-33h-268q-107 -182 -203 -182q-55 0 -74 25zM361 314l419 705q5 -417 40 -705
h-459zM1055 130q2 10 2 25q-32 487 -61 727q-1 28 -1 234q-1 142 -20 229q-14 63 -60 63t-99 -58t-108 -145l-89 -154l-314 -524q-255 -428 -265 -474q-15 -73 53 -73q77 0 178 182h294q27 0 83.5 -1.5t85.5 -1.5q65 0 107 7q14 -176 68 -176q43 0 89.5 47.5t56.5 92.5z" />
    <glyph glyph-name="b" unicode="b" horiz-adv-x="1242" 
d="M1238 531q0 1 -1 1h-1zM954 307q6 4 10.5 5.5t8.5 3.5q2 5 2 11v11q-7 4 -16 7t-17 8q-54 21 -108 32t-112 11q-51 0 -108.5 -6.5t-121.5 -17.5q-9 -36 -16 -68t-15 -63q52 -3 86.5 -3.5t48.5 -0.5q255 0 358 70zM606 826q-5 -13 -8 -25.5l-6 -25.5q71 22 140.5 47
t139.5 54q135 54 214 97t100 75q-31 9 -64.5 14t-71.5 5q-94 0 -193 -11.5t-201 -33.5l-23.5 -89.5zM119 0q-47 26 -29 106l69 329q35 161 75 308t86 284l-17 21q-48 22 -30 109q18 85 122 147q50 27 131.5 51t198.5 41q95 14 175.5 21.5t150.5 7.5q337 0 402 -159l37 -46
q60 -76 33 -205q-45 -207 -362 -382l15.5 -15.5t16.5 -15.5h-3q23 -26 40 -58l18 -22h-2l16 -20q75 -95 50 -217q-24 -113 -122 -208q-40 -42 -89.5 -74.5t-107.5 -58.5q-88 -39 -197 -58t-240 -19q-246 0 -319 43q-46 1 -66 27zM1016 314q-3 -14 -42 -39q-117 -80 -387 -80
q-44 0 -261 10l70 285q146 29 267 29q125 0 233 -45q141 -58 120 -160zM1235 1065q-20 -96 -354 -229q-225 -90 -435 -145l113 446q230 53 431 53q92 0 161 -23q99 -34 84 -102zM1418 1101q60 281 -376 281q-134 0 -321 -29q-226 -34 -308.5 -82.5t-96.5 -113.5
q-16 -73 44 -73q13 0 26 3q-108 -292 -185 -652l-69 -329q-16 -74 58 -74q61 -42 306 -42q255 0 420 73q108 48 184 123q86 85 107 184q25 118 -58 209q-68 75 -188 112q411 193 457 410z" />
    <glyph glyph-name="c" unicode="c" horiz-adv-x="1130" 
d="M211 125q2 -5 5.5 -9t7.5 -8zM453 507q-12 -56 -9.5 -105t21.5 -91q86 -86 225 -86q46 0 89.5 12.5t82.5 35.5q42 25 120 101q39 36 69 53.5t56 17.5q71 0 85 -51l47 -63q1 2 0 2t-1 2l4 -6q21 -26 9 -80q-4 -19 -12.5 -36t-19.5 -34q-99 -138 -258 -227
q-78 -42 -155.5 -63.5t-155.5 -21.5q-120 0 -212 42t-160 130l-22 26l-28 29t-25 32q-134 178 -81 424q59 274 332 564q297 318 569 318q164 0 232 -137l33 -41q37 -48 56.5 -122t17.5 -176l-2 -11q-6 -26 -22.5 -55t-42.5 -55q-57 -58 -118 -58q-26 0 -44 23l-49 62
q-20 9 -33 33t-24 62l-14 59.5t-11 41.5l-14 3.5t-14 1.5q-129 0 -315 -210q-176 -200 -206 -346zM1146 335q15 68 -48 68q-29 0 -89 -57q-82 -78 -129 -107q-92 -56 -199 -56q-171 0 -270 120t-63 289q33 157 218 367q200 227 348 227q79 0 116 -75q14 -27 41 -136
q16 -76 47 -76q44 0 86 43.5t51 88.5l1 3q2 355 -242 355q-250 0 -532 -300q-262 -280 -317 -539q-48 -227 76 -393.5t349 -166.5q145 0 292 81t240 211q19 27 24 53z" />
    <glyph glyph-name="d" unicode="d" horiz-adv-x="1331" 
d="M1249 761q14 70 -12 121q-45 34 -106 62q-77 32 -169.5 53t-200.5 30l-76 -372q-41 -194 -84 -348q82 35 158.5 71t149.5 78q313 176 340 305zM303 1120q-43 22 -28 93q27 126 163 166q35 11 82 15t112 4h47q342 0 576 -116q162 -82 226 -202l25 -32q106 -135 65 -329
q-63 -293 -502 -552q-145 -85 -315.5 -160t-368.5 -138q-12 -5 -24.5 -7t-21.5 -2q-36 0 -55 24l-51 65q-58 26 -29 157q12 58 33.5 140.5l50.5 186.5l54.5 194.5t33.5 128.5l55 259l2 12h-10q-47 0 -67 24zM1292 761q-34 -157 -367 -343q-220 -123 -486 -217
q72 215 142 540l84 413q246 -16 419 -91q249 -107 208 -302zM1466 804q62 290 -236 438q-227 113 -560 113h-47q-120 0 -180 -17q-105 -32 -125 -125q-14 -63 47 -63q-17 0 161 7q-32 -46 -52 -142l-56 -261q-22 -97 -88 -324q-59 -208 -83 -324q-27 -123 32 -123q11 0 33 7
q394 126 676 293q419 246 478 521z" />
    <glyph glyph-name="e" unicode="e" horiz-adv-x="1080" 
d="M699 1290q1 2 -1 2zM461 440q-13 -59 -15.5 -105t4.5 -79q14 -7 28.5 -9.5t32.5 -2.5q74 0 235 51q87 29 151 42t112 13q103 0 116 -58l53 -65q11 -13 13 -29.5t-3 -38.5q-30 -140 -212 -190l-60.5 -12.5t-62.5 -11.5q-30 -5 -60.5 -11t-59.5 -11q-15 -4 -29 -8.5
t-28 -6.5l2 -2q-4 -2 -25 -7t-40 -10q-78 -22 -132 -22q-177 0 -253 97l-37 46q-141 112 -73 434q30 137 120 358q84 205 119 321q-13 14 -17.5 32.5t0.5 44.5q13 62 47.5 103t91.5 59q51 39 106 39q23 0 39 -10q145 20 297.5 30.5t317.5 10.5q38 0 59 -13.5t28 -39.5
l50 -63q19 -26 9 -72q-22 -106 -137 -145h-2q-42 -14 -203 -22q-42 -3 -132.5 -11.5t-233.5 -24.5q-10 -29 -27 -73l-42 -106q60 5 125 7.5t140 2.5q98 0 110 -61l50 -62q23 -29 12 -80q-24 -114 -151 -148q-13 -3 -36 -6.5t-59 -6.5l-85.5 -7l-115.5 -9q-29 -3 -61.5 -5.5
t-67.5 -5.5zM1083 244q13 63 -83 63q-83 0 -248.5 -53t-249.5 -53q-215 0 -146 325q8 37 19 76q213 18 318.5 25.5t130.5 14.5q98 27 116 112q16 75 -76 75q-258 0 -419 -29q119 296 138 361q311 34 399 39q159 8 192 20q90 31 106 109q13 60 -50 60q-329 0 -627 -44
q-10 14 -27 14q-40 0 -79 -33q-92 -24 -114 -126q-10 -46 22 -57q-28 -109 -125 -349q-92 -224 -119 -350q-96 -454 260 -454q50 0 122 20q62 17 124 36l241 44q151 41 175 154z" />
    <glyph glyph-name="f" unicode="f" horiz-adv-x="1114" 
d="M293 1092q-46 24 -30 98q30 140 227 191q22 6 86.5 14t173.5 20q348 36 592 36q75 0 90 -55l49 -63q23 -29 11 -85q-27 -126 -159 -166q-20 -7 -76.5 -11t-153.5 -8q-33 -1 -139.5 -10.5l-286.5 -25.5q-6 -48 -15 -107l-20 -130q70 9 136 14t128 5q82 0 99 -56l49 -64
q24 -30 12 -93q-12 -56 -44 -93.5t-82 -55.5q-27 -9 -65.5 -15t-93.5 -10q-55 -5 -105.5 -8t-99.5 -8q-5 -22 -10 -48.5l-12 -63.5l-31 -147q-60 -284 -216 -284q-45 0 -63 24l-51 65q-50 24 -32 111l12 53.5t17 72.5q11 43 17.5 73l11.5 52q26 120 58 298t70 410q-1 2 -2 3
t-1 2zM1387 1333q16 75 -54 75q-242 0 -589 -36q-210 -22 -251 -32q-164 -41 -187 -150q-14 -65 49 -65q24 0 51 3q-87 -544 -144 -814q-9 -43 -28.5 -125.5l-29.5 -125.5q-16 -77 44 -77q118 0 170 246l32 147q19 101 29 147q115 12 241 18q105 7 147 23q76 29 94 114
t-64 85q-171 0 -382 -39q44 280 64 420q392 36 463 39q187 7 219 17q106 33 126 130z" />
    <glyph glyph-name="g" unicode="g" horiz-adv-x="1336" 
d="M830 394q-90 82 -77 149q12 55 53 100q28 36 59.5 53t63.5 17q13 0 25.5 -5t27.5 -19l27 -20l1 2q6 -4 10 -8.5t10 -8.5l28 -24.5t30 -23.5v3l69.5 -48t49.5 -30q37 -12 78.5 -32t92.5 -48q12 -12 21.5 -23.5t14.5 -24.5l47 -62q27 -33 18 -73q-12 -53 -59 -106
q-26 -31 -55 -45.5t-58 -14.5q-19 0 -44 11q-64 -57 -136.5 -102.5t-149.5 -77.5t-155.5 -49t-153.5 -17q-251 0 -384 174l-21 24q-15 14 -28.5 29.5t-26.5 33.5q-132 179 -78 437q47 219 198 418q73 95 160.5 175.5t193.5 148.5q107 69 209 103t199 34q106 0 191 -53
q38 -24 67 -53t45 -67l35 -42q24 -30 38 -68q10 -34 4 -65q-6 -29 -21 -54.5t-38 -51.5q-56 -62 -117 -62q-10 0 -35 20t-64 62l-3 4q-32 31 -65.5 47t-71.5 16q-88 0 -177.5 -43.5t-183.5 -134.5q-178 -171 -219 -356q-25 -124 11 -215q41 -36 93.5 -55t119.5 -19
q97 0 213 48q-16 14 -30 29t-23 29zM1374 353q7 31 -24 57q-107 59 -166 80q-53 27 -119 77l-114 88q-20 16 -31 16q-41 0 -80 -46q-35 -40 -44 -82q-18 -86 234 -226q-181 -105 -340 -105q-177 0 -267.5 118.5t-52.5 297.5q43 198 233 381q200 191 393 191q90 0 161 -74.5
t78 -74.5q41 0 83 46q38 41 47 84q5 22 -3 46q-28 79 -107.5 126.5t-173.5 47.5q-179 0 -380.5 -128t-338.5 -310q-145 -190 -189 -398q-51 -241 73 -408t363 -167q150 0 307 68t279 186q29 -19 53 -19q41 0 79 43t47 85z" />
    <glyph glyph-name="h" unicode="h" horiz-adv-x="1191" 
d="M650 1149q-17 -84 -51 -217l-84 -316q53 -2 109 -6t117 -11q77 -11 135 -21.5t98 -26.5l62 207.5l80 267.5l6 27q3 16 8 32l6.5 31t8.5 34q11 40 22.5 74t25.5 61q64 130 171 130q64 0 76 -50l51 -65q21 -26 8 -90q-17 -80 -64 -247l-124 -422q-7 -22 -17.5 -61
t-27.5 -96q-14 -44 -29 -98l-34 -117q-8 -35 -22 -76l-31 -90q-68 -136 -171 -136q-41 0 -59 22l-51 65q-25 11 -32 37.5t2 71.5q2 5 10.5 38.5t24.5 91.5q-20 2 -39 5.5t-40 8.5q-11 2 -20 4t-17 4q-65 14 -79 15q-38 2 -91 5.5t-121 8.5q-12 2 -25 2q-12 0 -24 1h-3
l-23 -107q-55 -256 -207 -256q-37 0 -53 22l-51 65q-25 11 -33 38.5t2 75.5l40.5 175t55.5 221l67 257.5t34 135.5l38 179q69 323 237 323q57 0 71 -50l49 -63q26 -32 8 -114zM1395 1295q17 77 -40 77q-73 0 -123 -99q-25 -49 -44 -124l-31 -127q-102 -355 -159 -532
q-49 41 -269 66q-168 19 -303 19q-29 0 -57 -20q134 481 176 679q21 99 -32 99q-126 0 -185 -280l-39 -181q-18 -75 -100 -392q-64 -243 -96 -395q-17 -78 33 -78q114 0 161 218q26 121 35 156q15 -7 40 -11q177 -13 264 -17q20 -3 118 -24q72 -15 122 -15q59 0 96 39
q-76 -271 -80 -290q-15 -73 38 -73q75 0 123 99q41 111 55 167l109 375q156 511 188 664z" />
    <glyph glyph-name="i" unicode="i" horiz-adv-x="350" 
d="M64 -36q-50 28 -31 121q15 71 38.5 166.5l55.5 217.5l62 235t36 148l51 239q72 337 255 337q58 0 72 -52l48 -62q32 -38 8 -145q-17 -81 -47 -203.5l-72 -286.5l-71.5 -284t-46.5 -202q-67 -319 -237 -319q-50 0 -69 25zM555 1254q28 132 -33 132q-140 0 -203 -295
l-51 -241q-25 -106 -99 -382q-63 -243 -93 -383q-19 -88 49 -88q132 0 192 281q35 162 119 488t119 488z" />
    <glyph glyph-name="j" unicode="j" horiz-adv-x="1273" 
d="M407 370q-2 -8 -3 -15t1 -15q10 -8 22 -15.5l26 -15.5q60 -33 117.5 -49t112.5 -16q190 0 302 126q103 112 147 318q33 158 26 532q0 8 1 15.5t2 13.5q13 58 71 116q62 63 127 63q48 0 66 -52l48 -60q12 -15 18 -41q13 -51 17 -126t-2 -178q-9 -184 -37 -312
q-34 -160 -101.5 -294.5t-173.5 -245.5q-237 -252 -548 -252q-211 0 -372 106q-54 36 -91 83l-25 29q-142 126 -102 314q33 153 184 273q63 49 133 87t152 65q14 5 26 7t24 2q65 0 77 -50l47 -61h-1t0 2l6 -5q19 -27 9 -81q-10 -46 -38 -82.5t-73 -65.5l-37 -19.5t-37 -18.5
l-32.5 -15t-31.5 -15q-53 -29 -57 -52zM1365 744q27 126 36 307q10 202 -14 294q-10 41 -37 41q-43 0 -89.5 -47t-56.5 -90q-1 -7 -1 -22q7 -375 -28 -539q-46 -217 -161 -342q-131 -145 -340 -145q-119 0 -247 69q-148 80 -125 186q10 46 83 83l132 65q76 48 91 120
q14 66 -42 66q-16 0 -36 -7q-154 -51 -268 -141q-134 -108 -163 -243q-40 -189 133 -309q152 -100 355 -100q293 0 514 237q199 212 264 517z" />
    <glyph glyph-name="k" unicode="k" horiz-adv-x="1159" 
d="M1029 840l-183 -109.5l-128 -78.5q69 -62 151.5 -144.5l178.5 -186.5q31 -35 53 -65t36 -55l13 -17q79 -99 69 -150q-6 -27 -24 -55t-43.5 -50.5t-55 -37t-57.5 -14.5q-30 0 -64 27q-11 9 -35 35t-62 71l-43.5 50.5l-63.5 74.5q-72 76 -145.5 141t-154.5 120l-68 -249v-2
q-2 -5 -4 -11.5t-3 -10.5l-26.5 -94t-14.5 -44l1 -2q-54 -123 -164 -123q-43 0 -63 24l-52 67q-48 26 -30 112q16 73 40.5 171l57.5 222l62.5 239.5l37.5 149.5l56 263q66 310 236 310q54 0 66 -48l52 -63q14 -17 15.5 -48t-8.5 -76l-22 -105l-22 -100q16 11 34.5 22
l37.5 22l169 103t110 71q40 32 101.5 77l145.5 104q64 41 100 41q32 0 53 -16.5t29 -42.5l45 -59q1 2 0 2v2l4 -5q27 -35 16 -86q-10 -44 -62 -97h2q-119 -125 -374 -276zM1114 119q10 47 -101 171q-285 316 -457 427q59 41 391 239q246 145 363 268q41 42 48 75q6 29 -8 53
t-43 24q-23 0 -70 -31q-167 -118 -248 -181q-74 -51 -267 -167q-172 -103 -264 -171q46 191 100 442q22 108 -30 108q-128 0 -184 -268l-57 -265q-24 -104 -100 -389q-66 -246 -97 -391q-17 -80 43 -80q80 0 120 94q4 7 45 155l88 314q227 -150 418 -377q112 -133 130 -149
q27 -20 46 -20q42 0 83.5 38.5t50.5 80.5z" />
    <glyph glyph-name="l" unicode="l" horiz-adv-x="1070" 
d="M464 420q-10 -48 -11.5 -90t7.5 -77q9 -5 21 -7t25 -2q85 0 265 51q97 29 169 42t120 13q43 0 67 -15t31 -41l50 -64q23 -28 11 -83q-24 -116 -160 -166l2 -1q-12 -5 -51.5 -13.5t-111.5 -22.5q-3 0 -57 -13l-156 -39q-66 -17 -122 -24.5t-100 -7.5q-145 0 -217 92
l-36 46q-26 22 -46.5 51t-34.5 67q-51 135 -9 336q16 74 49.5 174t85.5 232q107 266 133 391q7 33 24.5 64.5t42.5 56t55.5 40t63.5 15.5q66 0 81 -55l48 -61q29 -36 11 -121q-20 -94 -56.5 -208.5t-87.5 -252.5q-45 -117 -71.5 -194t-34.5 -113zM1114 232q16 75 -63 75
q-92 0 -277 -53t-277 -53q-106 0 -137 104q-24 84 0 200q17 80 106 314q105 275 143 454q23 109 -44 109q-47 0 -85 -41.5t-49 -91.5q-28 -135 -133.5 -398.5t-134.5 -398.5q-40 -187 8 -314q59 -155 233 -155q85 0 213 31q211 53 214 53q136 25 153 32q111 41 130 133z" />
    <glyph glyph-name="m" unicode="m" horiz-adv-x="1604" 
d="M838 1340q2 0 1 -2zM919 1062q17 -118 29.5 -221.5l23.5 -197.5l94.5 176.5l100.5 190.5q2 7 3.5 9.5t3.5 4.5q-2 0 1 5.5t5 9.5l15 29.5t17 30.5l15.5 31t15.5 29q22 40 44.5 75.5t47.5 67.5q44 56 85.5 82.5t82.5 26.5q54 0 75 -56l49 -60q18 -23 24 -64q1 -9 0.5 -30
t-1.5 -51v-36q-2 -78 0 -169.5t8 -203.5q2 -48 5 -94l6 -92q3 -47 5.5 -93.5t6.5 -92.5q3 -77 9 -157q4 -95 -11 -166q-13 -60 -68 -118l-2 -1q-28 -30 -60 -45t-65 -15q-34 0 -53 25l-48 62q-31 14 -44 63q-10 31 -14 68t-7 81q1 37 1.5 81.5t-0.5 80.5l-6.5 113.5
t-5.5 138.5l-88 -160.5l-102 -185.5l-45.5 -76.5t-29.5 -48.5h-2l-46.5 -68t-44.5 -53q-69 -72 -132 -72q-24 0 -43 24l-49 63q-80 43 -100 408q-5 58 -8 113.5t-8 108.5l-77 -197.5t-62 -169.5l-25.5 -67t-23.5 -68q-2 -5 -3.5 -9.5l-2.5 -7.5q-17 -45 -36.5 -83.5
t-41.5 -71.5q-62 -102 -150 -102q-53 0 -74 27l-49 63q-51 25 -33 109l4 18.5t4 15.5l2 4t2 3l133 332l181 467l39 108.5l37 108.5q28 72 55 128.5t56 98.5q41 57 84 85.5t91 28.5q46 0 75 -49v1q2 -5 5 -11t5 -13l34 -42l1 -2l5 -5q4 -7 9 -12.5t7 -13.5l3 -1
q14 -27 27.5 -88t26.5 -156h2zM1574 131q14 67 11 157l-10 156l-23 372q-12 222 -6 377q2 90 0 113q-9 63 -52 63q-60 0 -128 -89q-43 -55 -85 -135q-38 -70 -72 -140q-174 -336 -321 -585q-7 263 -75 713q-28 185 -53 236q-20 42 -50 42q-69 0 -133 -92q-52 -75 -102 -211
l-77 -222l-314 -797q-9 -21 -11 -33q-16 -76 54 -76q62 0 113 80q38 59 72 147l54 150q92 249 247 631q35 -225 56 -565q22 -384 88 -384q46 0 99 57q44 46 88 114q18 29 71 121l329 594q9 -403 19 -604q1 -72 0 -145q4 -84 19 -140q12 -46 43 -46q49 0 93.5 46t55.5 95z
" />
    <glyph glyph-name="n" unicode="n" horiz-adv-x="1150" 
d="M835 877l54.5 -130.5l67.5 -155.5l46 201.5l57 241.5q2 11 4 19.5l4 16.5l6 26l8 37.5t7 25.5q10 38 22.5 69.5t26.5 58.5q71 135 181 135q63 0 75 -52l51 -63q22 -27 9 -94q-16 -75 -42 -187l-62 -263l-61 -259.5l-43 -186.5q-17 -79 -35 -140.5t-41 -106.5
q-16 -31 -33.5 -58t-40.5 -51l-1 1q-68 -75 -129 -75q-32 0 -60 34l-44 57q-17 10 -32 32q-21 27 -55 100t-85 195l-65.5 155.5l-81.5 199.5l-56.5 -208l-63.5 -237q-5 -15 -8.5 -29.5l-7.5 -30.5q-5 -15 -9.5 -30t-7.5 -29q-12 -39 -24.5 -70.5t-27.5 -57.5
q-68 -120 -167 -120q-37 0 -52 21l-53 66q-23 12 -30 39t3 72q15 72 42.5 170l65.5 224l69.5 232t41.5 154l43 205q81 377 249 377q48 0 77 -61q1 -3 2 -5.5t3 -5.5l41 -49q5 -7 9 -13.5t8 -15.5l27.5 -65.5t32.5 -84.5v-2l28 -87.5t16 -54.5l4 -3h-2l4 -2l17 -39.5z
M1349 1299q17 80 -39 80q-78 0 -134 -106q-27 -48 -44 -118q-6 -15 -30 -121l-144 -631l-260 616l-51 153q-32 94 -59 151q-22 42 -47 42q-126 0 -197 -334l-43 -205q-30 -118 -112 -389q-77 -251 -107 -391q-16 -75 30 -75q71 0 126 96q27 46 48 117l33 120l170 631
q160 -413 246 -614q100 -237 131 -282q20 -29 41 -29q44 0 95 58q41 43 67 98q40 81 73 237q32 150 103.5 448t103.5 448z" />
    <glyph glyph-name="o" unicode="o" horiz-adv-x="1369" 
d="M466 370q4 -4 6.5 -8.5t6.5 -8.5zM1212 625q20 95 11 173t-47 141q-102 82 -275 82q-17 0 -50 -13t-82 -40q-235 -125 -291 -389q-15 -70 -10.5 -128t29.5 -110q51 -49 122.5 -73t162.5 -24q81 0 150.5 25.5t126.5 78.5q117 108 153 277zM265 99q-6 7 -12 13t-13 14
q-162 175 -100 466q45 211 172 388q136 192 323 297q53 66 144 98.5t228 32.5q147 0 252 -56t176 -168q1 -5 3.5 -9t5.5 -8l19 -24q10 -11 18.5 -22.5t16.5 -24.5q124 -206 61 -497q-63 -297 -278 -503q-233 -222 -528 -222q-287 0 -442 170q-5 7 -10.5 13t-10.5 13z
M1254 625q-39 -185 -168.5 -304.5t-312.5 -119.5q-209 0 -325 125q-119 131 -75 338q60 283 317 421q108 58 152 58q237 0 349.5 -140.5t62.5 -377.5zM1454 684q60 279 -58 473q-126 208 -398 208q-261 0 -340 -123q-181 -99 -311 -281q-124 -173 -165 -369
q-57 -269 93 -435q146 -160 419 -160q280 0 497 208q203 194 263 479z" />
    <glyph glyph-name="p" unicode="p" horiz-adv-x="1249" 
d="M672 809q-7 -33 -20 -88l-30 -132q74 15 139 32.5t125 37.5v1q134 47 206 93t83 94q8 40 -4 73q-10 6 -20.5 13.5t-22.5 13.5q-54 29 -123 47t-151 27q-30 1 -57.5 2.5t-54.5 3.5h-2q-27 2 -56 4.5t-56 4.5h-15q-6 0 -11 2q3 -5 6.5 -12.5t5.5 -15.5l51 -61
q28 -38 7 -140zM329 1162q-25 20 -35.5 44t-3.5 54q7 32 25 60.5t43 50.5t55 34.5t62 12.5q38 0 99.5 -3.5t146.5 -9.5q176 -14 303 -39t208 -60q72 -32 123 -74.5t79 -98.5l29 -34q-3 0 -5 4l10 -11q45 -58 59 -131.5t-6 -163.5q-57 -270 -436 -442q-255 -115 -554 -154
q-16 -66 -28.5 -109t-20.5 -63h2q-61 -155 -188 -155q-44 0 -62 24l-51 64q-25 14 -33 43.5t3 79.5q10 48 26 115l38 153l40.5 160.5l26.5 106.5l51 242q8 33 24.5 66t40.5 64q38 46 89 61q-52 7 -77 22l-20.5 13.5t-14.5 15.5zM1416 882q57 268 -208 384q-155 67 -500 96
q-167 14 -242 14q-44 0 -83.5 -35t-49.5 -81q-9 -40 38 -64.5t201 -36.5q112 -9 226 -16q170 -18 286 -76q163 -84 134 -220q-27 -128 -323 -227q-177 -59 -412 -98q64 278 84 372q27 125 -31 125q-60 0 -105 -51q-40 -45 -53 -106l-52 -244q-18 -79 -67 -266
q-44 -171 -64 -267q-19 -88 41 -88q94 0 145 124q14 34 52 200q314 36 576 153q355 161 407 408z" />
    <glyph glyph-name="q" unicode="q" horiz-adv-x="1360" 
d="M1232 911q-2 3 -2 4t-2 3zM1215 691q33 160 -25 261q-99 81 -281 82q-5 -2 -11 -5.5t-12 -6.5l-4.5 -2.5t-6.5 -4.5q-183 -97 -289.5 -225.5t-141.5 -289.5q-11 -51 -9.5 -96t15.5 -83q89 -80 251 -80q27 0 55 2.5t59 10.5q-27 61 -36.5 103t-4.5 66q5 23 20.5 47.5
t37 44.5t47 33t49.5 13q46 0 115 -110l24 -31q1 -4 2.5 -6t3.5 -4q55 62 90 131.5t52 149.5zM229 79q-11 7 -19 18q-152 162 -98 418q26 123 82.5 237.5t142.5 223.5q85 109 183.5 191t214.5 139q24 35 55.5 57t73.5 33v2q26 8 62 10.5t84 2.5q283 0 414 -196q5 -9 10 -16.5
l10 -15.5l23 -29l10 -13.5t10 -14.5q128 -189 68 -467q-32 -153 -106 -285t-190 -248q2 -5 6 -10t7 -10l9 -9q49 -63 71 -109.5t15 -76.5q-6 -26 -22.5 -53t-40 -48.5t-51 -35t-55.5 -13.5q-46 0 -121 94l-23 29q-13 11 -25.5 26.5l-26.5 33.5q-82 -38 -161.5 -57.5
t-161.5 -19.5q-257 0 -398 148l-14.5 16t-14.5 17zM1258 691q-45 -210 -206 -356q-92 184 -133 184q-32 0 -63.5 -31.5t-38.5 -64.5q-10 -46 61 -194q-90 -31 -186 -31q-184 0 -283 101q-108 107 -70 286q73 342 457 548q30 17 41 24q232 0 346 -114q123 -125 75 -352z
M1450 744q57 266 -63 442q-123 183 -386 183q-87 0 -131 -12q-72 -19 -107 -80q-224 -106 -393 -321q-165 -208 -215 -441q-50 -237 90 -385q132 -140 374 -140q174 0 343 92q124 -198 177 -198q39 0 77 36.5t46 76.5q12 54 -124 211q246 227 312 536z" />
    <glyph glyph-name="r" unicode="r" horiz-adv-x="1333" 
d="M1238 823q3 13 2 24.5t-5 22.5q-33 22 -78.5 42.5t-106.5 39.5q-82 23 -183 42t-222 32l-40 -168.5l-69 -294.5q95 14 180.5 32t164.5 40q336 92 357 188zM126 -32q-43 18 -27 99q10 46 27 116l5 25q2 8 4.5 15.5t4.5 15.5l42 174q10 47 28 140l30 143q23 109 48.5 211.5
t55.5 201.5l-22 28q-49 22 -34 94q6 30 26 60.5t47 55t59 39.5t64 15q157 0 304.5 -19t291.5 -58q107 -29 186.5 -63.5t128.5 -76.5q27 -23 48.5 -47.5t35.5 -52.5l33 -41q45 -57 57 -126.5t-5 -151.5q-57 -264 -434 -419q3 -8 7.5 -16.5t8.5 -17.5q12 -13 22.5 -25.5
t22.5 -23.5q5 -7 14.5 -17l18.5 -19q6 -8 11.5 -13t9.5 -9l12.5 -20t9.5 -18l41 -51q38 -47 27 -99q-12 -56 -65 -109q-58 -60 -114 -60q-24 0 -52 22q-35 29 -67.5 60t-60.5 68l-14 16q-96 99 -160 233q-85 -19 -174.5 -34t-186.5 -25q-14 -58 -25 -96t-18 -58
q-60 -153 -167 -153q-38 0 -52 20zM1281 823q-28 -130 -397 -229q-222 -60 -485 -92q137 601 151 652q271 -28 451 -81q313 -93 280 -250zM1459 850q40 188 -97 300q-94 77 -301 133q-279 76 -586 76q-46 0 -91 -41t-54 -87q-14 -65 75 -64q-67 -213 -122 -471l-30 -141
q-18 -94 -28 -142q-13 -58 -41.5 -173t-41.5 -173q-13 -64 30 -64q73 0 123 123q18 48 50 181q247 26 452 77q88 -258 267 -398q19 -15 33 -15q40 0 82 44.5t51 86.5q7 36 -22 74q-26 29 -53 56q-82 87 -145 217q394 145 449 401z" />
    <glyph glyph-name="s" unicode="s" horiz-adv-x="1256" 
d="M553 899q-2 -9 -3 -15.5t0 -14.5q23 -14 53 -28t68 -25l431 -128q144 -65 190 -164l35 -43q74 -93 46 -220q-43 -206 -243 -309q-158 -82 -364 -82q-60 0 -125.5 6.5t-140.5 19.5q-92 15 -152 34t-95 41q-10 7 -17.5 14t-13.5 15l-44 53q-63 47 -48 116q8 37 27 68.5
t46 54t59.5 35.5t68.5 13q20 0 58.5 -8t100.5 -25q88 -23 176.5 -34.5t176.5 -11.5q34 0 64.5 3.5t56.5 8.5q61 13 62 17q0 3 0.5 4.5t0.5 4.5q-24 13 -53.5 24.5t-64.5 22.5l-305 94.5t-129 45.5q-48 23 -83 51t-60 60l-28 36q-133 114 -94 299q53 244 343 375
q109 49 226 73.5t245 24.5q324 0 378 -139l42 -53q45 -55 25 -145q-8 -35 -27.5 -74t-52.5 -83q-42 -54 -82 -79.5t-78 -25.5q-40 0 -60 27l-47 60q-11 4 -18.5 11.5t-13.5 18.5v-1q-11 23 -16 47t0 48q-41 7 -102 7q-264 0 -404 -109h1q-7 -7 -11 -10.5t-5 -5.5zM1269 346
q42 200 -184 301l-434 128q-232 73 -203 210q5 20 33 42q156 120 432 120q179 0 247 -50q-33 -35 -42 -78q-8 -34 6 -60q13 -31 46 -31q54 0 123 87q60 79 72 139q45 208 -350 208q-242 0 -451 -94q-265 -118 -311 -336q-45 -213 178 -326q39 -21 427 -138q234 -70 211 -178
q-9 -39 -104 -58q-62 -14 -131 -14q-180 0 -362 48q-117 31 -150 31q-52 0 -94.5 -36.5t-54.5 -91.5q-10 -46 39 -80q59 -41 234 -70q150 -26 261 -26q198 0 344 77q178 92 218 276z" />
    <glyph glyph-name="t" unicode="t" horiz-adv-x="1527" 
d="M289 1075q-45 26 -32 86q7 33 26.5 65t46.5 57.5t60 41.5t67 16h7q3 0 7 -0.5t9 -0.5q4 -2 8 -2h8q97 0 242.5 14t345.5 42q399 57 600 57q106 0 118 -62l52 -63q19 -25 10 -72q-29 -128 -160 -169q-24 -8 -55.5 -12.5t-71.5 -5.5q-17 -2 -33 -2h-29q-16 0 -30 -1t-28 -1
q-48 -4 -107.5 -10t-136.5 -17q-70 -11 -123 -18t-88 -11h-3l-34.5 -146t-45.5 -182l-56.5 -221.5l-32.5 -133.5l-43 -203q-52 -244 -188 -244q-30 0 -46 21l-52 66q-35 16 -38 67q-9 78 29 249q17 84 41.5 188l56.5 230l17 67l16 61q10 42 19.5 78l17.5 65l2 9
q-51 -2 -99 -2.5t-95 -0.5q-100 0 -128 37zM1760 1340q14 68 -85 68q-197 0 -594.5 -56.5t-593.5 -56.5q-7 0 -19.5 2t-19.5 2q-49 0 -93.5 -44.5t-54.5 -93.5q-14 -64 109 -64q159 0 330 14q-3 -17 -106 -415q-64 -251 -99 -416q-34 -159 -27 -234q3 -46 32 -46
q99 0 143 207l43 203q21 90 90 356q58 226 86 359q57 7 248 34q155 20 248 27l119 4q74 3 117 17q106 34 127 133z" />
    <glyph glyph-name="u" unicode="u" horiz-adv-x="1372" 
d="M484 599q-14 -68 -12.5 -126t21.5 -104q2 -3 4.5 -4.5t6.5 -4.5q60 -50 145 -76t198 -26q165 0 256 136q35 53 63.5 131.5t50.5 182.5q10 43 16 112t10 163q4 95 11.5 168t18.5 126q7 31 25.5 58.5t48.5 57.5q64 61 128 61q42 0 63 -55l46 -58q24 -31 33 -101t1 -184
q-5 -101 -16 -187.5t-27 -160.5q-37 -177 -97 -316t-143 -244q-213 -267 -551 -267q-155 0 -269.5 41.5t-193.5 123.5q-7 7 -12.5 14l-10.5 13l-28 33l-10.5 10t-10.5 12q-84 90 -108 211t9 275q26 131 121 347q50 113 93.5 195.5t81.5 135.5q72 99 147 99q72 0 84 -53
l48 -61q1 1 0 1t-1 2l4 -5q20 -27 10 -77q-2 -11 -6.5 -23l-8.5 -23q-7 -7 -90 -184l-21.5 -45.5t-24.5 -48.5q-77 -157 -103 -275zM1471 794q30 141 42 343q18 274 -47 274q-43 0 -92.5 -46t-58.5 -88q-20 -96 -27.5 -284.5t-28.5 -284.5q-46 -218 -121 -331
q-109 -162 -300 -162q-241 0 -368 111q-140 126 -91 358q25 118 107 285q133 272 136 280q7 16 11 34q14 65 -49 65q-48 0 -103 -75q-78 -106 -171 -322q-91 -209 -118 -337q-61 -286 93 -454q148 -157 440 -157q317 0 515 250q158 199 231 541z" />
    <glyph glyph-name="v" unicode="v" horiz-adv-x="1222" 
d="M663 983q18 -115 32.5 -232t26.5 -241l164.5 241l176.5 266l8.5 17t4 6.5l2 2t2.5 3.5q5 5 7.5 10.5t6.5 10.5l41.5 64l40.5 64q34 54 68 99.5t66 78.5t62.5 52t57.5 19q32 0 53.5 -18t30.5 -45l49 -60q13 -17 17.5 -40t-0.5 -47q-6 -27 -31 -70q-11 -20 -51.5 -81
l-111.5 -167l-144 -213.5l-199 -298.5h-1l-76 -122l-75 -123q-52 -80 -98 -139t-85 -97q-42 -38 -79.5 -58t-72.5 -20t-55 24l-49 63q-31 14 -42 61q-3 14 -6.5 55.5t-5.5 110.5q-3 45 -10 112t-19 156l-35.5 209l-34.5 211q-54 317 -35 406q6 27 22.5 56t45.5 58
q58 61 122 61q48 0 74 -59l46 -57h-1l3 -1q5 -8 10 -17t9 -21l-1 2q19 -42 36 -114t33 -178zM1475 1319q7 31 -8 56.5t-46 25.5q-38 0 -92 -63t-117 -159l-106 -167q-259 -401 -469 -695q-22 376 -80 738q-34 211 -65 285q-20 46 -47 46q-42 0 -85 -44.5t-53 -88.5
q-15 -74 36 -391l70 -418q24 -171 27 -275q5 -131 13 -159q11 -42 43 -42q52 0 120 64q78 74 176 227l153 246l343 512q134 198 161 246q22 37 26 56z" />
    <glyph glyph-name="w" unicode="w" horiz-adv-x="1710" 
d="M597 1321q1 0 0 -2v2zM1391 864q5 -71 12 -138.5t17 -133.5l78.5 202.5l86.5 220.5l29 79l29 77q37 94 82 162q38 54 76.5 82.5t82.5 28.5q75 0 89 -55l50 -63q23 -29 10 -89q-2 -11 -5 -17.5t-5 -12.5l-2 -7l-137 -337.5l-191 -475.5l-40.5 -113l-39.5 -112
q-27 -71 -56 -127t-58 -98l-2 2q-76 -115 -165 -115q-36 0 -62 33l-44 56q-14 8 -25 20.5t-19 30.5q-17 32 -32 95.5t-35 160.5q-23 121 -39.5 235t-28.5 223l-113 -198l-114 -210l-38 -74l-38 -71q-24 -44 -47 -81t-48 -66q-84 -108 -168 -108q-36 0 -56 26l-50 63
q-18 9 -30 30t-18 50q-2 14 -3.5 48t-0.5 94v-2l-2.5 102.5t-5.5 148.5q-4 135 -12 335t-22 469q-2 5 -2 8t2 14l1 4q6 30 24.5 57.5t50.5 56.5q65 58 126 58q49 0 74 -60l40 -51v-2l6 -3q6 -8 10 -18l8 -21q20 -65 24 -154q1 -38 0.5 -75.5t1.5 -74.5h2l7 -141t7 -177
l115.5 200.5l115.5 195.5l16 26t18 27l7 10l-2 -1l9.5 17l9.5 17q5 8 8.5 14.5t8.5 14.5q20 33 44 66t51 62h-2q32 40 66 59t65 19q27 0 49.5 -17.5t36.5 -52.5l44 -52q14 -18 23.5 -46t15.5 -65h2q2 -17 9 -88.5t18 -196.5zM1928 1323q17 78 -53 78q-58 0 -114 -85
q-40 -62 -77 -152l-59 -155q-145 -384 -260 -656q-52 277 -80 586q-22 249 -28 281q-18 120 -73 120q-39 0 -91 -60q-43 -48 -87 -119l-74 -127l-361 -618q-14 422 -27 632q-1 75 -4 152q-3 87 -22 145q-15 44 -44 44q-42 0 -91.5 -43.5t-58.5 -85.5q-1 -2 1 -14
q27 -536 34 -806q8 -193 9 -268q0 -88 4 -116q9 -63 50 -63q62 0 131 89q44 56 90 140l77 145q178 336 348 611q15 -331 90 -742q33 -187 64 -246q21 -43 50 -43q65 0 129 92q56 80 109 215l80 226l329 812q7 19 9 31z" />
    <glyph glyph-name="x" unicode="x" horiz-adv-x="1179" 
d="M763 1036l17 -37t20 -38q1 2 4 5l30.5 29.5t30.5 30.5l119 119q137 132 246 222q35 29 64.5 43.5t49.5 14.5q31 0 50 -16t27 -40l50 -62q13 -17 16.5 -40.5t-1.5 -49.5q-5 -20 -18 -44.5t-37 -51.5h2q-11 -13 -52 -52.5l-113 -105.5l-131 -124.5l-186 -184.5
q294 -592 274 -680q-5 -24 -20.5 -50t-40.5 -50l-1 -2q-57 -55 -111 -55q-36 0 -58 29l-46 60q-8 5 -15.5 11.5t-12.5 15.5q-12 20 -36.5 70.5t-59.5 134.5l-43 95l-78 166l-111 -122l-138 -154h2q-21 -29 -56.5 -73l-87.5 -105q-69 -71 -127 -71q-21 0 -38.5 8t-28.5 22
l-48 62q-26 14 -37 43t-3 64q24 114 519 632q-126 252 -184 394t-51 174q5 27 20.5 55.5t42.5 57.5q59 65 119 65q15 0 30.5 -8.5t28.5 -25.5v1q5 -5 9.5 -14l11.5 -22l50 -61q9 -13 77 -171l4 -3l25 -51zM1121 60q16 77 -282 681q230 232 338 331q138 128 161 155
q36 44 43 75q6 31 -5.5 55.5t-40.5 24.5q-24 0 -71 -37q-111 -89 -253 -227l-239 -239l-169 331q-65 150 -78 169q-19 29 -38 29q-41 0 -81.5 -46t-49.5 -89q-11 -51 246 -568q-508 -528 -530 -632q-7 -30 8.5 -53t44.5 -23q41 0 94 56q96 113 140 172l314 347
q161 -331 194 -410q74 -177 89.5 -199.5t35.5 -22.5q39 0 79.5 40t49.5 80z" />
    <glyph glyph-name="y" unicode="y" horiz-adv-x="1309" 
d="M625 1302q2 0 1 -2zM588 1015q-24 -108 1 -187q57 -48 164 -48q125 0 251 68q62 35 108 77.5t74 96.5q10 65 20 121t20 103q13 64 63 124q31 36 66.5 53t73.5 17q66 0 88 -61l46 -58h-2l2 -2q47 -57 9 -234q-8 -39 -18 -98l-24 -139q-11 -78 -21.5 -138.5t-19.5 -100.5
q-68 -323 -231 -507q-197 -225 -513 -225q-97 0 -229 27q-78 16 -131 35t-82 41q-13 9 -21 20l-42 53q-2 2 -4.5 3t-4.5 4q-26 19 -35 43.5t-3 51.5q12 61 66 118q29 32 60.5 47.5t63.5 15.5q5 0 13 -0.5t15 -4.5q128 -40 221 -58.5t151 -18.5q53 0 94.5 8.5t75.5 29
t60.5 53t49.5 80.5q5 11 11 25.5t12 32.5q-90 -46 -182.5 -68t-189.5 -22q-230 0 -338 138l-31 37q-17 16 -32 33t-27 37q-53 78 -64.5 179t15.5 227q79 374 260 374q32 0 55 -18t33 -47l40 -51l1 -2l6 -5q14 -17 18.5 -39t-0.5 -46q-4 -20 -12.5 -45l-19.5 -57
q-13 -32 -20 -55.5t-10 -37.5zM1385 695q17 80 41.5 238t41.5 238q48 227 -48 227q-55 0 -100 -51q-39 -45 -51 -101q-20 -94 -38 -227q-66 -130 -211 -208q-134 -74 -276 -74q-160 0 -227.5 101t-33.5 263q7 32 31 97t31 97q7 31 -9.5 56t-47.5 25q-138 0 -208 -332
q-50 -235 45 -378q96 -151 328 -151q291 0 537 209q-48 -227 -88 -311q-55 -114 -130 -157.5t-198 -43.5t-383 78q-12 4 -17 4q-44 0 -86 -46.5t-52 -92.5q-7 -34 26 -59q50 -40 201 -69q133 -27 223 -27q295 0 478 208q155 178 221 487z" />
    <glyph glyph-name="z" unicode="z" horiz-adv-x="1382" 
d="M1194 710l-213.5 -193l-280.5 -256l87.5 8t94.5 9q147 14 260 21.5t194 7.5q69 0 81 -48l52 -66q11 -13 12.5 -33.5t-3.5 -46.5q-25 -115 -153 -166q-28 -11 -101 -21t-192 -16q-316 -20 -514 -30t-280 -10q-65 0 -90 31l-50 63q-50 25 -33 103q12 56 61 117q29 36 71 79
t96 92l44.5 36.5l43.5 38.5q11 9 22 19t22 19l22 18t22 19l244 225l321 303q-148 8 -262 11.5t-192 3.5q-97 0 -151 15q-19 5 -31 12.5t-20 18.5l-50 61q-47 28 -35 89q7 33 26.5 64.5t47.5 57t61 41t67 15.5q14 0 61 -3l128 -8q20 -1 44 -2t52 -3q21 -1 43 -1q23 0 48 -2
h24q39 -2 80.5 -3.5t86.5 -3.5q44 -2 83 -2.5t74 -2.5q9 0 17.5 -1t17.5 -1q47 -1 79.5 -2t52.5 -3q14 -2 22 -2h12q107 0 119 -59l52 -63q19 -26 10 -72q-10 -47 -61 -116q-44 -60 -129 -149t-217 -213zM1373 198q14 67 -46 67q-158 0 -451 -29q-315 -31 -451 -35l680 620
q258 244 340 353q42 58 51 99q14 67 -85 67q-29 0 -360 13q-252 11 -378 16q-160 10 -187 10q-50 0 -94.5 -42.5t-55.5 -92.5q-9 -44 44 -60q46 -13 140 -13q215 0 687 -26l-713 -669l-176 -150q-101 -89 -159 -164q-42 -53 -51 -95q-15 -74 72 -74q164 0 791 39
q229 14 279 35q104 41 123 131z" />
    <glyph glyph-name="braceleft" unicode="{" horiz-adv-x="1055" 
d="M786 290q-2 -2 -3 -3.5t-3 -3.5q40 16 70 23.5t50 7.5q32 0 53.5 -17t30.5 -43l49 -61q27 -35 16 -87q-23 -106 -197 -186q-70 -31 -129.5 -47t-112.5 -16q-42 0 -75 13.5t-54 40.5l-43 55q-25 16 -40 44q-20 35 -23.5 74.5t7.5 87.5q7 35 23 78.5t43 99.5
q7 13 12.5 25.5l11.5 25.5q-14 -2 -28 -2h-23q-170 0 -215 57l-49 59q-50 34 -36 99q27 135 177 185q20 6 57.5 13t91.5 14q22 2 44 7t42 12v2l-13 78q-8 40 -8 74q0 35 6 66q29 135 149 230t338 157v2q9 2 15.5 2.5t13.5 0.5q63 0 72 -49l52 -63q21 -27 9 -85
q-19 -90 -91 -139q-17 -10 -47.5 -22.5t-75.5 -26.5q-33 -11 -58 -21t-39 -20q-6 -40 13 -113q11 -49 14.5 -87.5t-2.5 -69.5q-15 -70 -62 -128l9 -12q46 -57 25 -157q-7 -29 -23.5 -71.5t-43.5 -102.5zM944 191q7 33 -7.5 56.5t-45.5 23.5q-36 0 -123.5 -36.5t-133.5 -36.5
q-17 0 -13 20q12 57 63.5 166t63.5 166q23 109 -52 158q63 60 80 139q11 52 -11 142t-12 134q2 9 11 17q37 29 118.5 54t110.5 43q55 36 70 108q15 70 -38 70q-7 0 -20 -4q-393 -109 -444 -346q-11 -53 1 -125l22 -121q-51 -24 -142 -36q-101 -13 -139 -25
q-118 -38 -140 -144q-20 -92 199 -92q17 0 49 2t49 2q48 0 96 -24q-15 -50 -69 -164q-50 -104 -63 -166q-18 -82 12 -134q34 -58 115 -58q94 0 223 59q152 70 170 152z" />
    <glyph glyph-name="bar" unicode="|" horiz-adv-x="541" 
d="M37 -357q-45 24 -30 92l4 18.5t5 16.5q0 1 1.5 2l1.5 1q57 155 105 320.5t86 346.5q42 202 93 412l109 430l20.5 69l29.5 95q35 70 79 105.5t103 35.5q64 0 79 -49l51 -65q23 -29 9 -94l-22.5 -98l-53.5 -228l-49 -205.5l-64 -270.5l-27.5 -110l-28.5 -117l-20 -73.5
l-24 -87.5l-40 -145.5l-49 -174.5q-6 -30 -18.5 -71l-29.5 -95q-71 -150 -198 -150q-50 0 -72 25zM678 1464q17 81 -43 81q-82 0 -131 -106q-37 -106 -49 -159q-117 -437 -202 -840q-78 -365 -193 -672q-8 -21 -10 -33q-13 -59 50 -59q97 0 153 116q37 107 48 162l133 483
l168 703q69 292 76 324z" />
    <glyph glyph-name="braceright" unicode="}" horiz-adv-x="1053" 
d="M964 969l-13 -26t-11 -23q9 0 18.5 1t17.5 1h22q205 0 231 -86l50 -61q22 -28 13 -74q-6 -30 -23 -59t-40 -53t-52 -42t-59 -26q-21 -7 -57 -13.5t-89 -12.5q-59 -11 -96 -21q0 -5 0.5 -8.5t2.5 -8.5q2 -18 5.5 -35.5t6.5 -34.5q12 -75 -2 -138q-59 -272 -482 -382
q-11 -3 -16.5 -3.5t-8.5 -0.5q-19 0 -33 5.5t-21 17.5l-53 66q-47 21 -29 104q11 49 33.5 85.5t60.5 58.5q36 20 126 47q60 18 88 40q3 32 -14 107q-11 49 -14 88t5 73q14 64 60 124q-30 32 -38 75t3 96q7 32 23 76.5t44 102.5l1 4q-37 -16 -64 -22t-44 -6q-49 0 -70 26
l-51 65q-49 25 -30 114q18 85 127 150q180 104 314 104q59 0 97 -25.5t55 -68.5l41 -51q25 -32 31.5 -77.5t-4.5 -99.5q-7 -31 -22 -74t-40 -99zM1188 787q20 92 -199 92q-19 0 -57 -1.5t-57 -1.5q-37 0 -80 23q14 48 68 164q45 103 58 164q17 82 -13.5 138.5t-110.5 56.5
q-123 0 -288 -96q-88 -51 -102 -116q-17 -82 50 -82q32 0 120.5 37.5t134.5 37.5q18 0 15 -15q-13 -58 -64.5 -169t-63.5 -169q-23 -109 53 -159q-62 -60 -78 -136q-11 -53 10 -142.5t12 -132.5q-3 -10 -14 -19q-36 -32 -111 -54q-87 -26 -113 -41q-54 -35 -70 -110
q-15 -70 35 -70q9 0 21 4q388 100 440 345q12 54 2 126l-19 121q53 24 141 36q105 13 139 24q49 13 90 55t51 90z" />
    <glyph glyph-name="asciitilde" unicode="~" horiz-adv-x="1345" 
d="M225 512q-22 13 -34 41q-8 17 -9.5 36.5t3.5 41.5q12 54 62 108q71 80 176 128q109 51 204 51q109 0 243 -87q119 -75 158 -75q17 0 79 91q94 141 182 141q37 0 60 -14t28 -42l50 -62q-1 2 -2 2t-2 2l4 -4q23 -28 10 -87q-27 -133 -173 -268q-75 -68 -145.5 -102
t-139.5 -34q-93 0 -220 85q-57 38 -100 57.5t-76 19.5q-50 0 -116 -49q-88 -69 -131 -69q-41 0 -61 28zM1334 869q16 76 -54 76q-60 0 -136.5 -116t-124.5 -116q-51 0 -177.5 81.5t-223.5 81.5q-86 0 -182 -46.5t-159 -116.5q-41 -44 -49 -82q-7 -32 5 -56q13 -29 43 -29
q26 0 104 59t143 59q77 0 195 -81t201 -81q122 0 255.5 123t159.5 244z" />
    <glyph glyph-name="Euro" unicode="&#x20ac;" horiz-adv-x="1884" 
d="M1691 1080l1 1t2 1q-1 0 -1 2zM339 609q-49 24 -31 111q30 142 187 178q9 1 57 4.5t133 7.5q162 197 416 341q140 81 268 120.5t245 39.5q110 0 202 -46q48 -24 81 -53.5t50 -67.5l36 -48q1 2 0 2h-1l4 -3q22 -29 33 -63q9 -34 3 -64q-5 -25 -20.5 -51t-37 -47t-47 -34.5
t-50.5 -13.5l-59 75q-22 0 -38 -1t-14 -1q-45 32 -85.5 47.5t-78.5 15.5q-136 0 -311 -87l-34 -18t-31 -18h106q54 0 84 -15t38 -44l51 -65q20 -25 11 -70q-12 -53 -40 -92q42 -6 52 -43l53 -67q19 -25 7 -85q-24 -109 -141 -159q35 8 71.5 19l77.5 24q36 12 55 12
q65 0 75 -48l51 -65q21 -25 9 -82q-10 -48 -40.5 -87.5t-79.5 -70.5q-38 -25 -94 -44t-128 -35q-60 -11 -115 -17.5t-106 -6.5q-189 0 -343 72q-61 28 -109 67t-86 88l-16 17l-31 31l-134 -17.5t-70 -6.5q-49 0 -67 24l-53 67q-44 23 -28 99q22 103 117 150q20 8 46 15
t63 12q0 2 -1 3t0 4h-36q-53 0 -74 27zM1918 1154q5 20 -4 46q-24 78 -123 126q-87 43 -186 43q-220 0 -489 -154q-256 -147 -412 -346q-190 -9 -206 -12q-124 -28 -147 -137q-17 -78 55 -78q39 0 172 10q-16 -39 -24 -80q-11 -50 -11 -96q-98 -10 -139 -29
q-69 -32 -86 -112q-14 -67 46 -67q39 0 230 29q75 -137 231 -212q147 -68 329 -68q96 0 214 24q136 27 206 72q81 51 97 128q14 66 -39 66q-11 0 -40 -10q-188 -65 -343 -65q-232 0 -375 106q234 34 351 49q99 14 131 26q98 36 118 126q14 69 -31 69q-3 0 -27 -9
q-131 -46 -333 -63q-310 -24 -332 -27q-18 64 -4 133l5 22q135 8 360 12q129 2 160 12q106 32 129 138q14 67 -88 67q-196 0 -409 -11q134 123 298 207q184 92 331 92q87 0 184 -68.5t90 -68.5q36 0 69.5 36t41.5 74z" />
    <glyph glyph-name="quotesinglbase" unicode="&#x201a;" horiz-adv-x="488" 
d="M69 -311q-23 12 -32 35t-1 59q7 32 24.5 80t47.5 115q29 67 54 113.5t44 75.5q38 54 78 82.5t82 28.5q71 0 83 -53l51 -63q23 -29 11 -89q-2 -6 -6 -16.5t-12 -25.5h2q-23 -54 -62.5 -138.5l-96.5 -199.5q-55 -92 -151 -92q-47 0 -66 25zM406 159q16 77 -49 77
q-58 0 -115 -86q-38 -58 -94 -182.5t-69 -184.5q-13 -59 46 -59q69 0 116 78q107 212 150 321q12 25 15 36z" />
    <glyph glyph-name="quotedblbase" unicode="&#x201e;" horiz-adv-x="973" 
d="M142 -307q-48 22 -33 94q7 32 24.5 80.5t46.5 115.5l55.5 113t42.5 75q37 54 78.5 82.5t84.5 28.5q70 0 82 -52l47 -61q0 2 -1 2t0 1l4 -5q11 -14 14 -36.5t-4 -53.5q-1 -4 -2 -7t-3 -7l60.5 85.5t47.5 56.5q69 77 139 77q67 0 81 -50l52 -65q22 -28 10 -87
q-4 -18 -12.5 -37t-25.5 -43l-80 -117l-114 -159q-72 -101 -147 -101q-47 0 -68 25l-51 65q-27 14 -34 43l-13.5 -29.5l-14.5 -30.5q-56 -92 -151 -92q-24 0 -39.5 6.5t-26.5 19.5zM478 162q17 77 -46 77q-60 0 -117 -85q-38 -57 -95 -182.5t-69 -184.5q-13 -60 47 -60
q68 0 116 78q106 212 150 321q12 26 14 36zM863 166q16 73 -47 73q-48 0 -102 -60q-43 -46 -130 -181q-94 -143 -102 -182q-15 -70 48 -70q51 0 109 80q130 179 193 275q25 37 31 65z" />
    <glyph glyph-name="ellipsis" unicode="&#x2026;" horiz-adv-x="1331" 
d="M246 -32q-61 30 -31 167q7 33 26 66t45.5 58.5t58.5 41.5t67 16q77 0 91 -54l50 -63q-1 1 -2 1t-3 2l5 -3q15 -19 16 -46q10 19 23.5 39.5t32.5 40.5l-1 -2q67 73 139 73q75 0 89 -54l50 -63q21 -27 12 -91q9 26 25 52.5t42 55.5h-2q65 78 144 78q75 0 90 -54l51 -63
q-4 2 -4 3l4 -3q23 -30 10 -91q-13 -65 -78 -131l2 -2q-64 -70 -140 -70q-50 0 -71 26l-51 64q-23 12 -31.5 34.5t-1.5 58.5q-10 -29 -26 -54.5t-36 -51.5l-1 2q-35 -43 -71.5 -62.5t-76.5 -19.5q-22 0 -37.5 8t-26.5 22l-48 60q-17 9 -27.5 24.5t-14.5 33.5
q-56 -140 -177 -140q-42 0 -65 26zM458 188q18 87 -55 87q-50 0 -92 -44.5t-53 -95.5q-29 -135 44 -135q116 0 156 188zM807 174q19 89 -53 89q-55 0 -111 -70q-50 -62 -62 -120q-7 -30 7 -56t45 -26q60 0 113 64q48 56 61 119zM1169 160q17 81 -55 81q-53 0 -103.5 -59
t-62.5 -114q-15 -73 51 -73q55 0 106.5 54.5t63.5 110.5z" />
    <glyph glyph-name="dagger" unicode="&#x2020;" horiz-adv-x="920" 
d="M885 1232q2 -49 -33 -235q12 -2 24 -3t26 -2q50 -8 89 -19t73 -24q54 -23 62 -67l12 -15l35 -43q23 -27 15 -66q-7 -32 -25.5 -61t-48.5 -59q-31 -28 -61 -42t-64 -14q-44 0 -98 5t-121 15l-85 -358l-93 -367q-11 -42 -28 -98t-41 -125q-32 -75 -76 -113t-101 -38
q-24 0 -39.5 6.5t-25.5 19.5l-51 65q-51 22 -31 112q19 92 50.5 224l76.5 309l58 232t44 188q-16 2 -33 5.5l-35 7.5q-23 8 -39 17.5t-27 22.5l-46 58q-52 32 -37 99q14 68 74 128q33 32 65.5 48.5t70.5 16.5q15 0 37 -2.5t49 -4.5q1 12 6 30q2 7 2 14t2 15q5 35 10 64.5
t10 52.5q7 35 26 65t49 59q32 32 65.5 47.5t68.5 15.5q50 0 69 -48l53 -66q9 -11 13.5 -30t5.5 -43zM1084 843q10 44 -43 67q-57 24 -153 39q-81 14 -162 26q55 279 54 334q0 67 -43 67q-49 0 -98.5 -47t-59.5 -98q-9 -43 -18 -113q-13 -84 -18 -113q-85 14 -131 14
q-52 0 -100 -48.5t-59 -101.5q-12 -55 47 -72q129 -24 196 -31q-37 -172 -129 -529q-87 -350 -125 -531q-17 -80 46 -80q82 0 128 106q53 154 71 232q106 393 188 770q163 -29 255 -29q48 0 96 45t58 93z" />
    <glyph glyph-name="daggerdbl" unicode="&#x2021;" horiz-adv-x="949" 
d="M200 328q-4 2 -4 3zM902 1231q-3 -45 -36 -233q24 -4 50 -6q51 -9 92.5 -19.5t70.5 -21.5q50 -18 62 -57l52 -65q20 -25 11 -71q-7 -32 -25.5 -61t-49.5 -59q-30 -28 -60.5 -42t-63.5 -14q-43 0 -98 5.5t-122 16.5q-3 -14 -6.5 -28t-7.5 -28q45 -3 94.5 -8.5t103.5 -12.5
q69 -18 80 -66l46 -58q0 1 -1 1t-1 2l4 -5q22 -26 13 -66q-6 -30 -21.5 -58.5t-38 -52t-50 -40t-58.5 -22.5q-18 -3 -70 -3q-51 0 -98.5 1t-93.5 4q-13 -49 -24 -101l-16.5 -70t-15.5 -70q-23 -88 -45 -158t-45 -125q-57 -137 -172 -137q-25 0 -40.5 6.5t-25.5 19.5l-51 65
q-51 22 -31 112q7 32 37 161t83 338q-26 9 -44.5 19.5t-28.5 26.5l-45 58q-56 36 -41 104q13 64 69 121q29 32 61.5 47.5t67.5 15.5q6 0 19.5 -2t34.5 -6l15 70q-16 2 -33 5.5t-34 7.5q-23 8 -38.5 17.5t-26.5 22.5l-47 58q-52 33 -37 99q14 68 75 128q32 32 64.5 48.5
t70.5 16.5q15 0 36.5 -2.5t50.5 -4.5q0 10 5 30q2 7 2 14t2 15q5 35 10 64.5t10 52.5q7 35 26 65t50 59q31 32 65 47.5t69 15.5q59 0 74 -54l47 -60q9 -11 13.5 -30t5.5 -43zM1099 843q10 48 -42 67q-60 22 -155 39q-80 12 -161 26q51 274 54 334q2 67 -42 67q-50 0 -99 -47
t-59 -98q-9 -43 -19 -113q-13 -84 -17 -113q-89 14 -132 14q-51 0 -99 -48.5t-59 -101.5q-12 -55 47 -72q128 -24 195 -31l-52 -230q-87 19 -95 19q-48 0 -92 -46t-54 -96q-13 -61 60 -84q13 -3 126 -18q-132 -533 -147 -605q-17 -80 46 -80q86 0 128 106q46 113 88 278
l67 280q107 -8 227 -8q47 0 65 3q46 9 81.5 49t45.5 86q11 49 -44 63q-211 27 -321 29q24 101 50 222q165 -29 255 -29q48 0 96 45t58 93z" />
    <glyph glyph-name="circumflex" unicode="&#x2c6;" horiz-adv-x="986" 
d="M1029 1437l-26 31q-22 19 -44.5 49t-48.5 72l-25 37l-59 -76q-77 -96 -138.5 -150.5t-116.5 -54.5q-49 0 -73 32l-50 62q-23 14 -33.5 40.5t-3.5 58.5q6 27 48 88.5t123 156.5l112 131t90 95q38 40 73 58.5t64 18.5q57 0 188 -193q1 -3 2.5 -4.5t3.5 -4.5l1 2
q5 -9 11.5 -17.5l12.5 -16.5q8 -13 17 -26l19 -27l10 -12q136 -204 123 -266q-6 -27 -22.5 -55.5t-40 -52.5t-51.5 -39t-56 -15q-48 0 -110 78q-7 7 -12 13t-11 14zM1205 1606q10 46 -120 241.5t-173 195.5q-39 0 -101.5 -61.5t-195.5 -221.5q-154 -183 -162 -222
q-6 -29 12 -49.5t47 -20.5q42 0 95.5 50t123.5 136l112 145l104 -183q83 -135 133 -135q41 0 79 42t46 83z" />
    <glyph glyph-name="perthousand" unicode="&#x2030;" horiz-adv-x="2258" 
d="M827 952q7 36 -6 67q-10 8 -21.5 13.5t-24.5 10.5q-94 -59 -109 -137l-3 -12q12 -4 24.5 -6t26.5 -2q19 0 38 4.5t34.5 13t26.5 21t14 27.5zM2021 364q4 17 3.5 33t-6.5 31q-24 11 -48 11h-13q-8 -20 -23 -43t-35 -51q-21 -30 -35 -53t-19 -41h3q57 0 113 34q51 34 60 79
zM1295 367q2 9 2.5 16.5t0.5 15.5q-11 3 -23.5 5t-26.5 2q-2 0 -5.5 -1t-7.5 -1q-5 -1 -12 -1h-12q-10 -14 -23.5 -29.5t-30.5 -32.5l-1 -1q-16 -17 -24 -34t-12 -35l-3.5 -15.5t-0.5 -14.5q15 -7 35 -7q47 0 88 39q23 20 37 44t19 50zM1680 1294q-11 -49 -100 -177.5
t-255 -336.5q71 -4 121 -32t85 -81q4 -6 7.5 -12.5t5.5 -12.5l35 -43q5 -5 8.5 -10t6.5 -10q9 -14 16.5 -29.5t11.5 -32.5q29 37 62 74l3 17q43 204 307 204q160 0 245 -107v2q10 -14 18.5 -27.5l16.5 -27.5l34 -43q46 -57 59 -124.5t-4 -149.5q-39 -183 -211 -321
q-170 -137 -354 -137q-111 0 -168 75l-35 45q-29 20 -50 56v-2q-8 12 -14 23.5t-10 24.5q-40 -49 -88 -94q-152 -138 -338 -138q-126 0 -190 82l-36 46q-30 22 -53 61q-10 16 -17 32.5t-12 34.5l-92 -113h-2l-42.5 -52.5l-62.5 -75.5q-68 -71 -130 -71q-23 0 -41.5 9
t-31.5 25l-47 59q-25 14 -37.5 42.5t-4.5 63.5q4 16 14 36t28 43l143 188.5l192 241.5q-131 3 -211 80l-5 3l-50 62q-10 8 -16 17q-46 48 -61.5 105t0.5 130q17 81 59.5 159.5t114.5 158.5q161 177 322 177q145 0 233 -129h-2q5 -7 7 -12l39 -48q3 -4 5 -8.5t5 -8.5
q1 -2 2 -2t2 -2h-2q14 -22 25 -43.5t19 -43.5l52.5 68l45.5 60h-3q5 7 13 16.5t13 14.5l28 41l38.5 49t20.5 26h-2q48 57 90 84t77 27q32 0 54 -17t29 -44l48 -60q0 1 -4 3l4 -3q14 -17 18 -39t-1 -46zM1338 367q-14 -67 -72 -121.5t-124 -54.5q-65 0 -103 50.5t-24 115.5
q11 51 49 92q49 49 62 77q11 -2 32.5 0.5t30.5 2.5q80 0 122 -39q44 -45 27 -123zM869 952q-10 -51 -60 -80t-104 -29q-69 0 -112 39q-46 43 -32 110q23 107 151 179q74 -26 121 -79q53 -63 36 -140zM2064 364q-14 -69 -84.5 -112.5t-140.5 -43.5q-54 0 -83.5 31t-17.5 85
q10 50 64.5 123.5t61.5 107.5q25 6 47 6q77 0 123.5 -60.5t29.5 -136.5zM1522 413q29 137 -29 227q-61 97 -196 97q-143 0 -196 -109q-6 2 -15 2q-27 0 -73 -34q-63 -46 -116 -137q-51 -84 -67 -159q-27 -128 24 -216q57 -94 182 -94q169 0 309 126t177 297zM1575 1379
q7 31 -7 54.5t-45 23.5q-46 0 -125 -92l-102 -134q-140 -188 -462 -579q-309 -376 -462 -582q-29 -39 -34 -60q-6 -30 12 -53.5t49 -23.5q41 0 97 57q70 82 104 126l536 650q418 514 439 613zM1061 1027q28 128 -45 235t-199 107q-142 0 -284 -159q-130 -145 -161 -294
q-27 -124 53 -203q75 -71 203 -71q158 0 282 116q117 109 151 269zM2258 420q31 145 -48.5 247.5t-224.5 102.5q-220 0 -255 -162q-3 -14 -2 -26q-142 -152 -172 -297q-25 -116 21 -196q49 -89 162 -89q167 0 325.5 126.5t193.5 293.5z" />
    <glyph glyph-name="Scaron" unicode="&#x160;" horiz-adv-x="1442" 
d="M616 899q-2 -9 -3 -15.5t0 -14.5q23 -14 53 -28t68 -25l431 -128q144 -65 190 -164l36 -43q73 -93 45 -220q-43 -206 -243 -309q-158 -82 -364 -82q-60 0 -126 6.5t-141 19.5q-93 15 -152 34t-93 41q-11 7 -18.5 14t-13.5 15l-44 53q-63 47 -48 116q8 37 27 68.5t46 54
t60 35.5t69 13q35 0 158 -33q88 -23 176.5 -34.5t177.5 -11.5q33 0 63.5 3.5t56.5 8.5q61 13 62 17q0 3 0.5 4.5t0.5 4.5q-23 13 -53 24.5t-65 22.5l-305 94.5t-129 45.5q-48 23 -82.5 51t-60.5 60l-28 36q-133 114 -94 299q53 244 343 375q94 42 192 65.5t207 30.5l-34 43
q-3 1 -5.5 3.5l-4.5 4.5q-17 16 -43 52t-61 97q-38 61 -58.5 104t-27.5 66q-4 17 -5.5 34.5t3.5 37.5q5 24 19.5 51.5t39.5 54.5h-1q33 36 66.5 53.5t65.5 17.5q22 0 38.5 -10t33.5 -32l17.5 -27.5l20.5 -32.5l24 -29q18 -23 38 -56t40 -77q-2 -4 1 -4q51 34 102 81l75 63
v-2l56.5 49.5t28.5 22.5q61 44 102 44q64 0 76 -49l52 -65q11 -16 14 -39t-5 -57q-11 -49 -49 -95q-70 -86 -223 -200q-48 -36 -90.5 -64t-80.5 -49q187 -27 225 -128l42 -53q45 -56 26 -145q-15 -70 -81 -157q-41 -54 -81.5 -79.5t-78.5 -25.5q-40 0 -60 27l-47 60
q-20 7 -32 30v-1q-11 23 -15.5 47t0.5 48q-23 4 -48 5.5t-55 1.5q-264 0 -404 -109h2q-16 -15 -17 -16zM1332 346q42 200 -184 301l-433 128q-233 73 -204 210q5 20 33 42q156 120 432 120q179 0 247 -50q-33 -35 -42 -78q-8 -34 6 -60q14 -31 46 -31q55 0 123 87
q60 79 72 139q45 208 -350 208q-242 0 -451 -94q-265 -118 -311 -336q-45 -213 178 -326q40 -21 428 -138q233 -70 210 -178q-9 -39 -103 -58q-63 -14 -131 -14q-181 0 -363 48q-117 31 -149 31q-53 0 -95.5 -36.5t-54.5 -91.5q-10 -46 39 -80q59 -41 234 -70
q150 -26 261 -26q198 0 344 77q178 92 218 276zM1579 1888q18 81 -42 81q-27 0 -75 -35q-14 -11 -153 -128q-91 -77 -160 -116q-24 37 -71 131q-42 87 -74 130q-22 29 -44 29q-42 0 -85 -45.5t-53 -89.5q-5 -26 3 -53q12 -46 79.5 -161t99.5 -143q25 -20 49 -20q12 0 29 7
q92 37 242 146.5t215 189.5q32 39 40 77z" />
    <glyph glyph-name="guilsinglleft" unicode="&#x2039;" horiz-adv-x="819" 
d="M207 191q-43 47 -68 78.5t-33 49.5q-11 25 -13.5 44t1.5 36q8 40 34 77t72 70q27 20 88 55.5t158 87.5q216 111 256 111q34 0 56 -18t30 -45l47 -58q30 -38 19 -90q-9 -44 -42.5 -84t-91.5 -73l-51.5 -27l-63.5 -33q-12 -6 -23 -12.5t-22 -11.5q4 -5 7.5 -8t6.5 -5
q22 -23 37.5 -44.5t26.5 -41.5l30 -37q64 -85 52 -142t-60 -111q-29 -33 -59.5 -50.5t-62.5 -17.5q-22 0 -70.5 37t-123.5 115q-91 91 -133 145zM749 674q7 33 -8 58.5t-48 25.5q-29 0 -231 -106q-198 -104 -240 -137q-73 -56 -86 -116q-5 -24 10 -56q20 -43 161 -186
t172 -143q45 0 88 51q38 44 48 90q11 52 -76 149q-22 25 -127 126l229 120q93 54 108 124z" />
    <glyph glyph-name="OE" unicode="&#x152;" horiz-adv-x="2400" 
d="M434 84q-4 1 -6 8zM1341 642q40 187 -31 309q-96 80 -274 80q-35 0 -132 -53q-56 -30 -103 -71.5t-84.5 -91t-63.5 -106.5t-39 -117q-27 -121 17 -217q54 -55 125.5 -81t162.5 -26q80 0 149.5 26.5t124.5 79.5q114 103 148 268zM1635 433q-11 -55 -14.5 -99.5t1.5 -77.5
q14 -7 29 -9.5t33 -2.5q69 0 230 50q169 52 261 52q106 0 118 -58l54 -64q18 -24 9 -69q-25 -119 -159 -170q-27 -9 -63.5 -18t-87.5 -18q-54 -8 -88 -14t-49 -10l-61.5 -18l-60.5 -18q-78 -22 -134 -22q-80 0 -144 27t-105 79l-42 51q-8 6 -13.5 13.5l-11.5 15.5
q-103 -78 -217 -118.5t-242 -40.5q-284 0 -433 176l-33 39q-11 11 -20 21.5l-19 21.5q-153 181 -92 462q22 103 64.5 197.5t105.5 185.5q128 181 315 286q16 26 40 47.5t53 36.5q100 51 280 51q261 0 393 -176q23 41 72 81q41 33 77 49t73 16q20 0 39 -11q42 5 153 13
l293 21l115.5 8t48.5 3q76 0 86 -53l50 -63q20 -26 10 -75q-24 -110 -144 -146q-16 -4 -64.5 -9.5t-129.5 -12.5q-52 -4 -143 -13l-222 -23q-9 -33 -25 -77l-36 -95q60 5 125.5 7.5t137.5 2.5q91 0 103 -59l50 -62q22 -28 12 -82q-26 -117 -160 -150q-2 0 -38 -2.5
l-106 -7.5h-1q-45 -7 -111.5 -14.5l-151.5 -16.5q-4 -11 -6 -20.5t-4 -17.5zM1384 642q-38 -181 -163 -296q-132 -121 -311 -121q-202 0 -319 125q-124 130 -82 328q28 129 111.5 241t204.5 177q108 58 152 58q236 0 346.5 -138.5t60.5 -373.5zM2251 241q14 63 -85 63
q-82 0 -246 -51.5t-245 -51.5q-212 0 -145 318q8 34 23 73q193 19 292 33q143 10 147 10q97 22 116 113q16 75 -69 75q-241 0 -419 -33q102 254 133 357q286 31 395 39q160 12 188 21q91 29 108 109q13 63 -50 63q-12 0 -161 -10q-407 -28 -460 -36q-11 12 -28 12
q-53 0 -117.5 -53t-75.5 -106q-10 -46 26 -58l-13 -44q-107 292 -435 292q-169 0 -257 -47q-56 -29 -80 -76q-178 -98 -307 -275q-121 -171 -162 -364q-57 -266 85.5 -431.5t410.5 -165.5q285 0 499 208q5 -111 82 -173t193 -62q51 0 123 20l123 36q36 10 141 26
q90 15 143 34q107 41 127 135z" />
    <glyph glyph-name="Zcaron" unicode="&#x17d;" horiz-adv-x="1519" 
d="M1259 710l-213.5 -193l-280.5 -256l87.5 8t93.5 9q148 14 261 21.5t194 7.5q67 0 81 -48l52 -66q20 -26 9 -80q-25 -115 -153 -166q-28 -11 -101.5 -21t-191.5 -16q-316 -20 -514 -30t-280 -10q-65 0 -90 31l-50 63q-50 25 -33 103q12 56 61 117q29 36 71 79t96 92
l44.5 36.5l43.5 38.5q11 9 22 19t22 19l22 18t22 19l244 225l321 303q-148 8 -262 11.5t-192 3.5q-99 0 -151 15q-19 5 -31 12.5t-20 18.5l-50 61q-47 28 -35 89q7 33 26.5 64.5t47.5 57t61 41t67 15.5q14 0 61 -3l128 -8q20 -1 44 -2t52 -3q20 -1 43 -1t48 -2h24
q20 -2 39 -2t39 -2q1 2 0 2t-1 2l-34 43q-3 1 -5.5 3.5l-4.5 4.5q-17 16 -43 52t-61 97q-38 61 -58.5 104t-26.5 66q-5 17 -6 34.5t4 37.5q5 24 19 51.5t39 54.5h-1q33 36 66.5 53.5t65.5 17.5q23 0 39 -10t33 -32l17.5 -27.5l20.5 -32.5l25 -29q17 -23 37 -56t40 -77
q-2 -4 1 -4q51 34 102 81l75 63v-2l56.5 49.5t28.5 22.5q61 44 102 44q64 0 76 -49l53 -65q11 -16 14 -39t-5 -57q-5 -24 -18 -48t-31 -47q-72 -87 -224 -200q-51 -38 -94.5 -66t-81.5 -50h27q9 0 17.5 -1t17.5 -1q46 -1 79 -2t53 -3q14 -2 22 -2h12q107 0 119 -59l52 -63
q19 -26 10 -72q-10 -47 -61 -116q-44 -60 -129 -149t-217 -213zM1438 198q14 67 -46 67q-158 0 -451 -29q-315 -31 -451 -35l680 620q257 244 340 353q42 58 51 99q14 67 -85 67q-29 0 -360 13q-253 11 -378 16q-160 10 -187 10q-50 0 -94.5 -42.5t-55.5 -92.5
q-9 -44 44 -60q46 -13 140 -13q215 0 687 -26l-714 -669l-175 -150q-101 -89 -160 -164q-41 -53 -50 -95q-15 -74 72 -74q164 0 791 39q228 14 278 35q105 41 124 131zM1601 1888q18 81 -42 81q-27 0 -75 -35l-153 -128q-91 -77 -160 -116q-24 37 -71 131q-42 87 -74 130
q-21 29 -44 29q-42 0 -85 -45.5t-53 -89.5q-5 -26 3 -53q12 -46 79.5 -161t99.5 -143q25 -20 49 -20q12 0 29 7q93 37 242.5 146.5t214.5 189.5q32 39 40 77z" />
    <glyph glyph-name="quoteleft" unicode="&#x2018;" horiz-adv-x="478" 
d="M406 807q-31 14 -40 53q-10 29 -14 80t-3 123q1 128 19 210q5 25 20 49.5t35.5 43.5t46 30.5t51.5 11.5q49 0 72 -53l51 -63l6.5 -10.5t5.5 -11.5q8 -196 10.5 -295.5t1.5 -104.5q-5 -23 -19.5 -47.5t-39.5 -49.5q-50 -53 -106 -53q-29 0 -48 24zM563 956q3 12 -11 380
q-13 29 -40 29q-34 0 -64 -29t-37 -63q-16 -73 -17 -201q-2 -137 15 -193q11 -36 35 -36q35 0 73.5 38.5t45.5 74.5z" />
    <glyph glyph-name="quoteright" unicode="&#x2019;" horiz-adv-x="490" 
d="M309 819q-48 22 -33 94q7 32 25 80t48 115q29 66 53.5 113t44.5 76q37 54 77 82.5t82 28.5q35 0 56.5 -13t26.5 -40l52 -63q22 -28 10 -89q-2 -6 -6 -16.5t-12 -25.5h2q-23 -54 -62.5 -138.5l-96.5 -199.5q-56 -93 -151 -93q-25 0 -40.5 6.5t-25.5 19.5zM646 1289
q16 76 -49 76q-58 0 -115 -85q-38 -58 -94 -182.5t-69 -184.5t46 -60q69 0 116 79q107 211 150 321q13 25 15 36z" />
    <glyph glyph-name="quotedblleft" unicode="&#x201c;" horiz-adv-x="978" 
d="M699 1282q4 -5 7.5 -10.5t5.5 -11.5l9 -398q-5 -25 -22 -52t-40 -49t-50 -36.5t-52 -14.5q-27 0 -48 24l-50 63q-14 7 -24 20t-15 33q-20 60 -17 203q1 64 6 116t13 94q5 25 20 49t35.5 43t46 31t51.5 12q27 0 45 -13.5t30 -39.5zM792 787q-37 19 -42 83l-2.5 97
t-4.5 136q-2 61 -2 98q0 38 4 55q6 31 24 60.5t43.5 53t56.5 38t63 14.5q26 0 45 -12t30 -34l1 3l6 -20l45 -55q3 -7 8 -13.5t8 -15.5l2 -2q8 -23 11 -74t3 -129q-2 -152 -15 -213q-6 -28 -24.5 -56t-43.5 -50.5t-54.5 -36.5t-56.5 -14q-36 0 -54 24zM606 1326
q-13 29 -40 29q-34 0 -64 -29t-38 -63q-15 -73 -16 -201q-2 -137 15 -193q11 -36 35 -36q36 0 73 37.5t45 74.5zM971 942q12 55 14 207.5t-11.5 191t-50.5 38.5q-46 0 -85.5 -38.5t-49.5 -84.5q-6 -27 -1 -143l6 -231q7 -59 44 -59q41 0 83 38t51 81z" />
    <glyph glyph-name="quotedblright" unicode="&#x201d;" horiz-adv-x="975" 
d="M381 819q-48 21 -33 94q7 32 25 80t47 115q29 66 53.5 113t44.5 76q37 54 78 82.5t84 28.5q69 0 81 -51l52 -63h-2q0 1 -2 1l4 -1q22 -30 10 -91q-1 -7 -5 -13q34 50 60 84.5t47 56.5q71 77 139 77q71 0 83 -49l48 -64q1 2 0 2t-1 2l4 -5q22 -28 10 -87q-5 -18 -13.5 -37
t-25.5 -44l-79.5 -117l-113.5 -159q-74 -101 -148 -101q-47 0 -67 26l-52 63q-27 14 -34 43q-7 -14 -13.5 -29t-13.5 -29q-56 -93 -152 -93q-24 0 -39.5 6.5t-25.5 19.5zM718 1289q16 76 -47 76q-60 0 -117 -85q-38 -56 -94.5 -181.5t-69.5 -185.5t47 -60q68 0 116 79
q106 211 150 321q13 25 15 36zM1103 1292q15 73 -48 73q-48 0 -101 -59q-43 -46 -131 -181q-93 -144 -102 -183q-15 -70 48 -70q51 0 109 80q131 180 194 275q25 38 31 65z" />
    <glyph glyph-name="bullet" unicode="&#x2022;" horiz-adv-x="1471" 
d="M348 184q-3 3 -6 5.5t-6 6.5q-137 132 -90 350q51 239 279 437q228 201 468 201q253 0 390 -138q19 -20 35 -42t27 -47l25 -29q116 -146 68 -372q-54 -256 -309 -418q-223 -141 -482 -141q-214 0 -341 117q-9 9 -17 18t-16 20zM1433 642q50 234 -84 372
q-126 128 -365 128q-220 0 -434.5 -187t-261.5 -409q-42 -198 82 -317q114 -110 317 -110q246 0 459 135q237 150 287 388z" />
    <glyph glyph-name="endash" unicode="&#x2013;" horiz-adv-x="964" 
d="M353 582q-50 26 -32 109q15 73 59.5 116t115.5 57q41 9 89.5 13t108.5 4h35q22 0 50 -2h86q97 0 110 -58l51 -63q21 -26 11 -70q-28 -138 -164 -171q-21 -5 -44.5 -7.5t-49.5 -2.5q-22 -2 -43 -2h-40q-7 -2 -20 -2.5t-34 -2.5q-11 -2 -23 -2.5t-26 -2.5q-33 -4 -59 -5.5
t-48 -1.5q-29 0 -50 7t-32 22zM932 773q14 63 -76 63h-86q-56 2 -85 2q-114 0 -187 -15q-111 -23 -134 -132q-17 -80 63 -80q38 0 102 7q75 8 101 10q42 0 88 2q51 0 87 8q104 26 127 135z" />
    <glyph glyph-name="emdash" unicode="&#x2014;" horiz-adv-x="1329" 
d="M363 582q-50 26 -32 109q14 63 51 105.5t97 60.5q25 6 70 11.5t111 7.5q7 0 13.5 0.5t12.5 0.5h22q42 2 77 2h62h369q98 0 111 -58l51 -63q20 -25 10 -70q-28 -137 -180 -174q-2 0 -43.5 -2.5t-122.5 -6.5q-226 -9 -361.5 -13t-183.5 -4q-61 0 -83 29zM1284 773
q14 63 -77 63h-369q-68 0 -187 -3q-123 -4 -167 -17q-90 -29 -110 -125q-17 -80 63 -80q96 0 544 17q159 7 176 10q104 26 127 135z" />
    <glyph glyph-name="tilde" unicode="&#x2dc;" horiz-adv-x="1300" 
d="M504 1451q-48 25 -30 109q23 110 184 193q65 32 123 48.5t112 16.5q40 0 86.5 -14t102.5 -41q94 -48 135 -48q24 0 71 41q77 68 133 68q32 0 52.5 -16.5t29.5 -42.5l49 -62q-2 2 -3 2t-2 2l5 -4q13 -17 17 -40.5t-1 -47.5q-3 -16 -11.5 -34t-25.5 -40h2
q-56 -79 -160 -138q-104 -58 -193 -58q-35 0 -80 14t-100 40q-48 25 -84.5 36.5t-64.5 11.5q-46 0 -107 -36q-43 -26 -72 -37.5t-44 -11.5q-53 0 -72 26zM1464 1700q7 31 -7.5 56.5t-44.5 25.5q-36 0 -99 -54.5t-105 -54.5q-50 0 -152 51t-172 51q-94 0 -214 -60
q-136 -68 -154 -155q-16 -75 53 -75q20 0 94 42.5t128 42.5q64 0 165.5 -51t164.5 -51q80 0 171.5 51t141.5 125q26 34 30 56z" />
    <glyph glyph-name="trademark" unicode="&#x2122;" horiz-adv-x="1203" 
d="M1136 423q0 -1 1 -1h1zM281 439q2 0 0 -4l-46 60q-34 18 -24 63q4 22 17 42t30.5 35t39 23.5t44.5 8.5q31 0 79 5t114 14q135 21 206 21q67 0 76 -45l52 -65l3 -3q2 -5 4 -9.5t4 -9.5l12 21t12 22q26 36 52 53.5t57 17.5q43 0 57 -42l51 -65q11 -14 13 -41
q1 -20 0.5 -49.5t-0.5 -66.5l4 -2q2 -38 4.5 -75t4.5 -75q3 -48 0.5 -88.5t-9.5 -73.5q-4 -16 -17 -34t-30.5 -33t-37 -25t-36.5 -10q-25 0 -38 17l-53 66q-13 3 -21 14q-2 -4 -4.5 -7t-3.5 -7q-26 -35 -49.5 -50.5t-46.5 -15.5q-35 0 -50 18l-48 60q-7 -17 -16 -32
q-33 -65 -94 -65q-36 0 -50 17l-55 70q-32 -53 -85 -53q-22 0 -34 15l-54 69q-48 18 -23 133l32 150q-25 4 -33 20q-3 2 -3.5 3t-2.5 2l6 -5zM1034 196q13 65 8 152q-5 74 -8 151.5t-5 116.5q-4 31 -24 31q-32 0 -63 -43q-96 -169 -136 -256q-5 149 -33 277q13 39 -41 39
q-67 0 -200 -19.5t-199 -19.5q-28 0 -51 -20t-28 -47q-7 -29 44 -29q48 0 102 3q-37 -143 -65 -274q-20 -94 9 -94q46 0 64 85l11 51q7 26 30 82.5t30 86.5q8 40 -1 69q117 13 177 22q-136 -333 -149 -393q-7 -37 29 -37q31 0 52 39q30 53 60 135l46 136q2 -66 5 -133
q3 -89 17 -123q-6 -36 26 -36q26 0 58 43q90 150 130 229q2 -126 6 -190q2 -68 4 -76q4 -23 19 -23q21 0 46 22.5t30 42.5z" />
    <glyph glyph-name="scaron" unicode="&#x161;" horiz-adv-x="1442" 
d="M616 899q-2 -9 -3 -15.5t0 -14.5q23 -14 53 -28t68 -25l431 -128q144 -65 190 -164l36 -43q73 -93 45 -220q-43 -206 -243 -309q-158 -82 -364 -82q-60 0 -126 6.5t-141 19.5q-93 15 -152 34t-93 41q-11 7 -18.5 14t-13.5 15l-44 53q-63 47 -48 116q8 37 27 68.5t46 54
t60 35.5t69 13q35 0 158 -33q88 -23 176.5 -34.5t177.5 -11.5q33 0 63.5 3.5t56.5 8.5q61 13 62 17q0 3 0.5 4.5t0.5 4.5q-23 13 -53 24.5t-65 22.5l-305 94.5t-129 45.5q-48 23 -82.5 51t-60.5 60l-28 36q-133 114 -94 299q53 244 343 375q94 42 192 65.5t207 30.5l-34 43
q-3 1 -5.5 3.5l-4.5 4.5q-17 16 -43 52t-61 97q-38 61 -58.5 104t-27.5 66q-4 17 -5.5 34.5t3.5 37.5q5 24 19.5 51.5t39.5 54.5h-1q33 36 66.5 53.5t65.5 17.5q22 0 38.5 -10t33.5 -32l17.5 -27.5l20.5 -32.5l24 -29q18 -23 38 -56t40 -77q-2 -4 1 -4q51 34 102 81l75 63
v-2l56.5 49.5t28.5 22.5q61 44 102 44q64 0 76 -49l52 -65q11 -16 14 -39t-5 -57q-11 -49 -49 -95q-70 -86 -223 -200q-48 -36 -90.5 -64t-80.5 -49q187 -27 225 -128l42 -53q45 -56 26 -145q-15 -70 -81 -157q-41 -54 -81.5 -79.5t-78.5 -25.5q-40 0 -60 27l-47 60
q-20 7 -32 30v-1q-11 23 -15.5 47t0.5 48q-23 4 -48 5.5t-55 1.5q-264 0 -404 -109h2q-16 -15 -17 -16zM1332 346q42 200 -184 301l-433 128q-233 73 -204 210q5 20 33 42q156 120 432 120q179 0 247 -50q-33 -35 -42 -78q-8 -34 6 -60q14 -31 46 -31q55 0 123 87
q60 79 72 139q45 208 -350 208q-242 0 -451 -94q-265 -118 -311 -336q-45 -213 178 -326q40 -21 428 -138q233 -70 210 -178q-9 -39 -103 -58q-63 -14 -131 -14q-181 0 -363 48q-117 31 -149 31q-53 0 -95.5 -36.5t-54.5 -91.5q-10 -46 39 -80q59 -41 234 -70
q150 -26 261 -26q198 0 344 77q178 92 218 276zM1579 1888q18 81 -42 81q-27 0 -75 -35q-14 -11 -153 -128q-91 -77 -160 -116q-24 37 -71 131q-42 87 -74 130q-22 29 -44 29q-42 0 -85 -45.5t-53 -89.5q-5 -26 3 -53q12 -46 79.5 -161t99.5 -143q25 -20 49 -20q12 0 29 7
q92 37 242 146.5t215 189.5q32 39 40 77z" />
    <glyph glyph-name="guilsinglright" unicode="&#x203a;" horiz-adv-x="910" 
d="M417 543q-34 27 -51 56q-17 26 -22 51t0 51q14 65 61 120q32 33 63.5 50.5t66.5 17.5q36 0 114 -63l33 -27t32 -28q2 -1 34.5 -21.5l100.5 -60.5q46 -28 79.5 -55t54.5 -55q5 -9 10 -17t9 -16l39 -49q-2 1 -3.5 3t-3.5 3l12 -13q39 -51 28 -106q-6 -29 -25 -58t-48 -58
q-32 -31 -114 -89t-210 -141q-140 -91 -223.5 -134.5t-114.5 -43.5q-43 0 -62 24l-51 65q-48 22 -29 111q15 72 87 138q71 62 197 137l54 31.5l47 27.5q-1 2 -2 2t0 2l-2 1q-48 29 -82 56.5t-53 54.5zM969 469q8 40 -23 81q-38 51 -123 102q-133 80 -140 85q-38 33 -78 63
q-56 47 -79 47q-46 0 -88 -49t-52 -97q-8 -37 17 -73q36 -53 134 -113l156 -95q-31 -22 -196 -120q-120 -71 -188 -131q-57 -51 -69 -109q-17 -77 39 -77q48 0 315 171q253 163 315 223q50 48 60 92z" />
    <glyph glyph-name="oe" unicode="&#x153;" horiz-adv-x="2400" 
d="M434 84q-4 1 -6 8zM1341 642q40 187 -31 309q-96 80 -274 80q-35 0 -132 -53q-56 -30 -103 -71.5t-84.5 -91t-63.5 -106.5t-39 -117q-27 -121 17 -217q54 -55 125.5 -81t162.5 -26q80 0 149.5 26.5t124.5 79.5q114 103 148 268zM1635 433q-11 -55 -14.5 -99.5t1.5 -77.5
q14 -7 29 -9.5t33 -2.5q69 0 230 50q169 52 261 52q106 0 118 -58l54 -64q18 -24 9 -69q-25 -119 -159 -170q-27 -9 -63.5 -18t-87.5 -18q-54 -8 -88 -14t-49 -10l-61.5 -18l-60.5 -18q-78 -22 -134 -22q-80 0 -144 27t-105 79l-42 51q-8 6 -13.5 13.5l-11.5 15.5
q-103 -78 -217 -118.5t-242 -40.5q-284 0 -433 176l-33 39q-11 11 -20 21.5l-19 21.5q-153 181 -92 462q22 103 64.5 197.5t105.5 185.5q128 181 315 286q16 26 40 47.5t53 36.5q100 51 280 51q261 0 393 -176q23 41 72 81q41 33 77 49t73 16q20 0 39 -11q42 5 153 13
l293 21l115.5 8t48.5 3q76 0 86 -53l50 -63q20 -26 10 -75q-24 -110 -144 -146q-16 -4 -64.5 -9.5t-129.5 -12.5q-52 -4 -143 -13l-222 -23q-9 -33 -25 -77l-36 -95q60 5 125.5 7.5t137.5 2.5q91 0 103 -59l50 -62q22 -28 12 -82q-26 -117 -160 -150q-2 0 -38 -2.5
l-106 -7.5h-1q-45 -7 -111.5 -14.5l-151.5 -16.5q-4 -11 -6 -20.5t-4 -17.5zM1384 642q-38 -181 -163 -296q-132 -121 -311 -121q-202 0 -319 125q-124 130 -82 328q28 129 111.5 241t204.5 177q108 58 152 58q236 0 346.5 -138.5t60.5 -373.5zM2251 241q14 63 -85 63
q-82 0 -246 -51.5t-245 -51.5q-212 0 -145 318q8 34 23 73q193 19 292 33q143 10 147 10q97 22 116 113q16 75 -69 75q-241 0 -419 -33q102 254 133 357q286 31 395 39q160 12 188 21q91 29 108 109q13 63 -50 63q-12 0 -161 -10q-407 -28 -460 -36q-11 12 -28 12
q-53 0 -117.5 -53t-75.5 -106q-10 -46 26 -58l-13 -44q-107 292 -435 292q-169 0 -257 -47q-56 -29 -80 -76q-178 -98 -307 -275q-121 -171 -162 -364q-57 -266 85.5 -431.5t410.5 -165.5q285 0 499 208q5 -111 82 -173t193 -62q51 0 123 20l123 36q36 10 141 26
q90 15 143 34q107 41 127 135z" />
    <glyph glyph-name="zcaron" unicode="&#x17e;" horiz-adv-x="1519" 
d="M1259 710l-213.5 -193l-280.5 -256l87.5 8t93.5 9q148 14 261 21.5t194 7.5q67 0 81 -48l52 -66q20 -26 9 -80q-25 -115 -153 -166q-28 -11 -101.5 -21t-191.5 -16q-316 -20 -514 -30t-280 -10q-65 0 -90 31l-50 63q-50 25 -33 103q12 56 61 117q29 36 71 79t96 92
l44.5 36.5l43.5 38.5q11 9 22 19t22 19l22 18t22 19l244 225l321 303q-148 8 -262 11.5t-192 3.5q-99 0 -151 15q-19 5 -31 12.5t-20 18.5l-50 61q-47 28 -35 89q7 33 26.5 64.5t47.5 57t61 41t67 15.5q14 0 61 -3l128 -8q20 -1 44 -2t52 -3q20 -1 43 -1t48 -2h24
q20 -2 39 -2t39 -2q1 2 0 2t-1 2l-34 43q-3 1 -5.5 3.5l-4.5 4.5q-17 16 -43 52t-61 97q-38 61 -58.5 104t-26.5 66q-5 17 -6 34.5t4 37.5q5 24 19 51.5t39 54.5h-1q33 36 66.5 53.5t65.5 17.5q23 0 39 -10t33 -32l17.5 -27.5l20.5 -32.5l25 -29q17 -23 37 -56t40 -77
q-2 -4 1 -4q51 34 102 81l75 63v-2l56.5 49.5t28.5 22.5q61 44 102 44q64 0 76 -49l53 -65q11 -16 14 -39t-5 -57q-5 -24 -18 -48t-31 -47q-72 -87 -224 -200q-51 -38 -94.5 -66t-81.5 -50h27q9 0 17.5 -1t17.5 -1q46 -1 79 -2t53 -3q14 -2 22 -2h12q107 0 119 -59l52 -63
q19 -26 10 -72q-10 -47 -61 -116q-44 -60 -129 -149t-217 -213zM1438 198q14 67 -46 67q-158 0 -451 -29q-315 -31 -451 -35l680 620q257 244 340 353q42 58 51 99q14 67 -85 67q-29 0 -360 13q-253 11 -378 16q-160 10 -187 10q-50 0 -94.5 -42.5t-55.5 -92.5
q-9 -44 44 -60q46 -13 140 -13q215 0 687 -26l-714 -669l-175 -150q-101 -89 -160 -164q-41 -53 -50 -95q-15 -74 72 -74q164 0 791 39q228 14 278 35q105 41 124 131zM1601 1888q18 81 -42 81q-27 0 -75 -35l-153 -128q-91 -77 -160 -116q-24 37 -71 131q-42 87 -74 130
q-21 29 -44 29q-42 0 -85 -45.5t-53 -89.5q-5 -26 3 -53q12 -46 79.5 -161t99.5 -143q25 -20 49 -20q12 0 29 7q93 37 242.5 146.5t214.5 189.5q32 39 40 77z" />
    <glyph glyph-name="Ydieresis" unicode="&#x178;" horiz-adv-x="1514" 
d="M709 1434q-55 31 -30 146q3 16 14.5 46.5l30.5 78.5q62 155 188 155q35 0 56.5 -14.5t28.5 -43.5l49 -59q27 -34 12 -106q-2 -8 -11 -31t-28 -65h2q-21 -48 -35 -77t-24 -41h-1q-54 -78 -136 -78q-44 0 -65 25zM1525 1505q-8 -33 -33 -66q7 1 13 1h13q66 0 87 -61l47 -60
q46 -58 9 -234q-8 -39 -18 -98l-24 -139q-11 -78 -21.5 -138.5t-19.5 -100.5q-68 -323 -232 -507q-99 -113 -227 -169t-285 -56q-97 0 -229 27q-154 31 -213 76q-11 8 -22 20l-42 53q-2 2 -4 3t-4 4q-26 19 -35 43.5t-3 51.5q12 61 66 118q29 32 60.5 47.5t63.5 15.5
q5 0 13 -0.5t15 -4.5q128 -40 221 -58.5t150 -18.5q53 0 95 8.5t75.5 29t60.5 53t50 80.5q10 23 23 58q-90 -46 -182.5 -68t-189.5 -22q-230 0 -338 138l-32 37q-16 14 -31 32t-27 38q-53 78 -64.5 179t15.5 227q79 374 260 374q32 0 54.5 -18t31.5 -45l48 -60
q14 -17 18.5 -39t-0.5 -46q-4 -20 -12 -45l-19 -57q-13 -32 -20 -55.5t-10 -37.5q-24 -111 1 -187q57 -48 164 -48q125 0 251 68q62 35 108 77.5t74 96.5q9 65 19.5 121t20.5 103q5 27 17 53t30 53q-4 -2 -6.5 -1t-6.5 1q-40 0 -59 25l-52 63q-29 17 -38 60q-5 20 -5 42
q0 23 5 49q9 41 26.5 81.5t44.5 81.5q79 117 166 117q71 0 82 -55l50 -62q23 -28 10 -87q-8 -36 -28 -88q-11 -27 -17.5 -45t-8.5 -29zM1474 695q17 80 41 238t41 238q48 227 -47 227q-55 0 -100 -51q-40 -45 -52 -101q-20 -94 -37 -227q-66 -130 -211 -208
q-135 -74 -276 -74q-161 0 -228 101t-33 263q7 32 30.5 97t30.5 97q7 31 -9 56t-47 25q-138 0 -208 -332q-50 -235 44 -378q97 -151 329 -151q290 0 537 209q-48 -227 -88 -311q-55 -114 -130.5 -157.5t-198.5 -43.5q-122 0 -382 78q-12 4 -17 4q-44 0 -86 -46.5t-52 -92.5
q-7 -34 26 -59q50 -40 201 -69q132 -27 223 -27q295 0 477 208q156 178 222 487zM953 1722q20 96 -50 96q-89 0 -139 -122q-38 -95 -42 -116q-24 -112 44 -112q58 0 99 58q15 20 52 107q33 77 36 89zM1476 1753q16 75 -48 75q-61 0 -122 -91q-48 -75 -63 -146q-9 -41 -1 -74
q12 -42 48 -42q39 0 80.5 38t49.5 78q6 27 28 80.5t28 81.5z" />
    <glyph glyph-name="nonbreakingspace" unicode="&#xa0;" horiz-adv-x="570" 
 />
    <glyph glyph-name="exclamdown" unicode="&#xa1;" horiz-adv-x="507" 
d="M448 893q-51 25 -30 117q8 38 22.5 72.5t37.5 67.5q69 98 152 98q67 0 81 -50l49 -63q1 2 0 2t-1 1l4 -5q20 -27 9 -77h-60l33 -41q8 -9 1 -37q-4 -7 -4 -10q-1 -4 -3.5 -12.5t-4.5 -13.5q-9 -27 -26 -52t-39.5 -44t-49 -30.5t-54.5 -11.5q-45 0 -66 25zM29 -208
q-48 23 -30 111q11 51 33.5 112.5t59.5 134.5l15.5 32.5l14.5 29.5l53.5 113t21.5 49q14 45 40 112.5t68 160.5q71 131 188 131q64 0 76 -46l53 -66q10 -13 10.5 -32.5t-4.5 -46.5q-8 -33 -26.5 -87.5t-50.5 -132.5l-58.5 -135.5l-99.5 -229.5h1q-11 -30 -34.5 -79.5
t-60.5 -118.5q-69 -101 -157 -101q-41 0 -62 24zM524 672q13 64 -40 64q-84 0 -144 -110q-74 -170 -102 -257q-7 -21 -108 -231q-67 -140 -88 -235q-16 -77 40 -77q67 0 119 77q66 124 90 189q121 278 157 367q64 155 76 213zM668 1142q13 63 -47 63q-56 0 -107 -72
q-40 -58 -53 -123q-18 -83 45 -83q39 0 75 32.5t50 73.5q7 25 12 39q29 89 25 70z" />
    <glyph glyph-name="cent" unicode="&#xa2;" horiz-adv-x="1237" 
d="M547 585l99 144l142 205q-58 -35 -104.5 -73.5t-84.5 -80.5q-66 -77 -78 -135q-2 -11 -3 -21.5t-1 -19.5q7 -5 14.5 -9.5zM1540 1485q-5 -21 -34.5 -71.5t-83.5 -130.5q17 -17 28 -32t17 -32l42 -52q40 -49 29 -99q-6 -27 -23 -54t-41 -49t-52.5 -36t-56.5 -14
q-24 0 -93 51l-3 2q-13 10 -25 18l-21 14l-330 -478h22q107 0 161 -15q53 -15 64 -55l49 -63h-1t-1 2l6 -5q19 -26 9 -69q-6 -30 -21 -58t-36.5 -51t-48.5 -40t-57 -25h1q-14 -5 -35.5 -6.5t-47.5 -1.5q-218 0 -323 15l-172 -249l-2 2q-50 -75 -123 -75q-43 0 -63 29l-50 63
q-26 14 -36.5 44t-2.5 65q5 23 43 85t110 168q-10 9 -18 17.5t-15 19.5l-31 39q-135 120 -91 323q29 137 123.5 260t256.5 240q284 200 550 215l73.5 105.5l98.5 135.5q47 53 107 53q32 0 53 -16.5t29 -43.5l50 -60q13 -15 17 -38t-1 -47zM988 1150l-432 -621
q-167 72 -140 201q15 70 89 156q91 104 222.5 175.5t260.5 88.5zM1433 1154q10 46 -52 102q-45 41 -102 67q147 208 156 247q6 31 -8.5 54t-43.5 23q-38 0 -86 -56q-115 -156 -166 -236q-256 0 -547 -206q-306 -217 -359 -468q-53 -249 192 -357q-181 -257 -189 -295
q-6 -31 7.5 -54.5t42.5 -23.5q50 0 87 52l191 275q101 -20 342 -20q46 0 71 7q47 11 82.5 50.5t46.5 87.5q10 48 -43 63q-45 14 -149 14q-157 0 -204 6l450 654l80 -56q62 -46 74 -46q41 0 80 37.5t47 78.5z" />
    <glyph glyph-name="sterling" unicode="&#xa3;" horiz-adv-x="1417" 
d="M804 399q-2 -28 -4.5 -56t-8.5 -56h19h313q119 0 188 -21q54 -19 66 -59l51 -64q22 -27 13 -70q-30 -137 -169 -177q-32 -11 -76.5 -15t-101.5 -4h-113q-64 0 -145 2q-31 0 -62.5 1t-66.5 1q-33 0 -65 0.5t-61 0.5q-82 2 -147 2h-113q-64 0 -86 31l-51 63q-48 25 -32 104
q30 143 179 191q22 7 43.5 12t43.5 12q16 7 22 31q3 14 3.5 35t-3.5 48l-10 8t-8 9l-49 64q-46 17 -31 90q9 44 45 92q-26 142 -3 248q40 193 255 348q100 73 198.5 109t193.5 36q75 0 123.5 -27t68.5 -77l42 -51q25 -32 32 -78t-6 -103q-50 -236 -207 -236q-53 0 -73 26
l-51 65q-44 19 -32 92q-23 -7 -45 -16.5t-45 -21.5q-44 -26 -70 -55t-33 -63q-4 -17 -3 -42.5t8 -61.5q82 2 165.5 3t161.5 1q129 0 142 -67l52 -63q19 -25 10 -70q-7 -33 -26.5 -64t-46.5 -55.5t-60 -39.5t-66 -15h-43t-60 2q-33 1 -58 1h-41h-66zM1336 159q10 49 -46 66
q-62 19 -176 19h-313q-56 0 -168 -3q39 61 52 119q17 84 11 162h115q34 0 101 -1.5t101 -1.5q51 0 96.5 42.5t56.5 93.5q16 72 -108 72q-193 0 -396 -7q-45 176 -32 236q18 85 127 148q99 57 190 57q63 0 52 -53q-3 -12 -13.5 -37t-12.5 -37q-15 -68 51 -68q120 0 162 198
q21 99 -22 153.5t-142 54.5q-177 0 -363 -135q-196 -141 -233 -315q-23 -108 7 -251q-39 -45 -48 -89q-9 -43 19 -53q14 -7 64 -7q29 -129 15 -194q-11 -50 -58 -70q-44 -12 -89 -26q-118 -41 -142 -150q-16 -75 68 -75q130 0 386.5 -3.5t385.5 -3.5q108 0 166 17
q113 34 136 142z" />
    <glyph glyph-name="currency" unicode="&#xa4;" horiz-adv-x="1377" 
d="M949 649q5 20 2.5 39t-9.5 37l-13 11q-19 -5 -35 -12.5t-31 -18.5q-35 -25 -41 -56q-2 -5 -3 -9t-1 -9q19 -11 37 -17t40 -6q45 0 54 41zM347 179q-24 13 -32.5 40t1.5 71q8 38 51.5 87.5t121.5 107.5q-18 41 -21 83t6 84q7 32 17 62.5t24 63.5l-5 7q-67 71 -94.5 125.5
t-18.5 94.5q5 25 18.5 52t38.5 54h-1q66 72 133 72q37 0 71 -43l85 -107q140 93 214 93q72 0 150 -56q82 64 139 97t90 33q34 0 56 -17.5t30 -44.5l49 -59q13 -17 18 -40t-1 -49q-15 -72 -99 -138l-90 -62q8 -41 8 -83q0 -41 -10 -87q-11 -52 -34 -101t-56 -96
q93 -120 80 -177q-6 -30 -24.5 -59.5t-44 -53.5t-55.5 -39t-61 -15q-53 0 -163 141q-3 3 -5.5 6.5t-6.5 5.5q-15 -2 -31 -3.5t-31 -1.5q-36 0 -67.5 4t-58.5 15q-219 -157 -267 -157q-51 0 -72 27zM991 649q-18 -84 -105 -84q-68 0 -125.5 51t-43.5 118q10 49 61 85
q45 33 100 41q141 -77 113 -211zM1382 1075q8 33 -7.5 57.5t-48.5 24.5q-54 0 -224 -142q-84 69 -155 69q-75 0 -221 -109q-72 90 -106 136q-23 29 -43 29q-43 0 -86 -45t-52 -90q-15 -70 129 -211q-37 -69 -52 -142q-20 -92 31 -172q-174 -122 -188 -190q-17 -78 53 -78
q36 0 259 162q58 -24 133 -24q40 0 80 10q120 -159 157 -159q46 0 88.5 42t51.5 88q11 50 -89 171q76 95 99 203q21 99 -5 181l116 80q69 53 80 109z" />
    <glyph glyph-name="yen" unicode="&#xa5;" horiz-adv-x="1618" 
d="M1590 944l-116 -125l-146 -162q86 7 146 10.5t92 3.5q38 0 61 -14t28 -41l52 -63q-2 2 -3 2t-2 1l5 -3q21 -27 10 -80q-26 -119 -152 -157q-14 -4 -62 -9.5t-131 -9.5l40 -50q10 -13 11 -30.5t-4 -40.5q-15 -71 -59.5 -113t-119.5 -60q-26 -8 -80 -10.5t-135 -2.5h-51
q-16 -42 -53 -79v2q-30 -29 -58.5 -44.5t-62.5 -15.5q-40 0 -58 24l-53 67q-3 2 -5.5 4t-4.5 4q-23 -4 -49 -9.5l-60 -12.5q-59 -11 -107.5 -17.5t-89.5 -6.5q-53 0 -73 26l-52 65q-47 20 -30 95q17 80 79 132l-10.5 8t-8.5 9l-51 63q-48 25 -31 106q28 129 164 170
q41 13 99.5 18.5t139.5 5.5h51q-104 292 -153 450t-44 180q6 28 25.5 57t46.5 53t58 39t60 15q26 0 46.5 -14t37.5 -43q3 -8 10 -18l40 -52q3 -4 7 -8.5t6 -9.5q11 -21 31.5 -77t47.5 -147q20 -73 43 -143l46 -138l321.5 367t259.5 264q72 68 134 68q35 0 58.5 -17t30.5 -46
l48 -60q25 -28 16 -73q-7 -31 -65 -107t-171 -200zM1612 558q14 70 -56 70q-102 0 -472 -32l412 455q215 236 225 285q6 29 -11 49t-46 20q-41 0 -99 -53q-240 -224 -646 -714q-83 219 -155 459q-56 186 -74 219q-23 39 -56 39q-42 0 -85.5 -39t-52.5 -82q-7 -34 218 -669
q-39 -4 -112 -4h-12q-150 0 -224 -22q-106 -32 -127 -129q-16 -75 62 -75q93 0 441 32l-16 -77q-86 -8 -171 -17q-119 -15 -186 -49q-90 -47 -108 -132q-14 -63 52 -63q74 0 191 24q159 31 193 36q-18 -113 44 -113q48 0 89 44q40 40 51 89q42 4 85 4q157 0 204 12
q122 27 145 136q14 63 -70 63q-179 0 -334 -13l16 73q335 32 384 36q157 8 183 17q98 31 118 121z" />
    <glyph glyph-name="brokenbar" unicode="&#xa6;" horiz-adv-x="567" 
d="M117 -379q-23 11 -31 37.5t1 70.5l16.5 68.5t25.5 96.5q16 54 26 93t15 66q7 28 16 82l4 19q1 5 0.5 10t1.5 10q2 7 2 12t2 10l3 17l9 47l7 37q5 25 21.5 51t39 47t49 34t52.5 13q50 0 62 -49l45 -58q0 1 -1 1t0 2l4 -5q7 -9 11.5 -23t5.5 -32q4 -51 -3.5 -117
t-24.5 -147l-30 -140q-72 -340 -222 -340q-20 0 -33.5 6t-21.5 16zM341 737q-42 22 -35 91q3 14 6.5 32.5t6.5 38.5l11 61l13 73q5 35 10.5 66.5t11.5 61.5q6 37 12.5 69.5t11.5 61.5l19 108t10 54q14 66 56 116q27 35 60.5 51t71.5 16q68 0 85 -57l50 -61q-2 2 -3 2l-1 1
l4 -3q8 -11 12 -23.5t6 -29.5q1 -26 -15 -102l-21 -98q-8 -37 -18 -93l-23 -132q-12 -76 -22 -132.5t-18 -94.5q-7 -33 -26 -63t-45 -52.5t-57.5 -35.5t-64.5 -13q-37 0 -55 22zM371 99q34 159 28 254q-2 46 -31 46q-34 0 -68 -33t-42 -69q-9 -41 -23 -122t-23 -122
q-11 -55 -40.5 -162.5t-41.5 -161.5q-15 -72 34 -72q113 0 177 302zM537 899q16 76 40.5 227t40.5 226l21 97q16 73 15 94q-4 51 -57 51q-50 0 -91 -48q-34 -41 -45 -92q-10 -48 -75 -420q-24 -135 -37 -201q-4 -60 40 -60q50 0 93.5 37.5t54.5 88.5z" />
    <glyph glyph-name="dieresis" unicode="&#xa8;" horiz-adv-x="1162" 
d="M1072 1440q-29 18 -38 60q-5 20 -5 42q0 23 5 49q9 41 26.5 81.5t44.5 81.5q79 117 167 117q70 0 82 -55l50 -62q23 -28 10 -87q-4 -17 -11 -39t-17 -49q-23 -55 -27 -74q-11 -52 -64 -102q-57 -51 -112 -51q-40 0 -59 25zM544 1434q-56 30 -31 146q3 16 14.5 46.5
l30.5 78.5q62 155 189 155q35 0 56.5 -14.5t28.5 -43.5l48 -59q27 -34 12 -106q-3 -15 -38 -96h1q-41 -95 -58 -118h-2q-53 -78 -135 -78q-44 0 -65 25zM788 1722q20 96 -50 96q-89 0 -139 -122q-39 -95 -43 -116q-24 -112 44 -112q58 0 99 58q16 20 52 107q34 77 37 89z
M1310 1753q16 75 -47 75q-62 0 -123 -91q-48 -75 -63 -146q-9 -41 -1 -74q13 -42 49 -42q39 0 80 38t49 78q6 27 28 80.5t28 81.5z" />
    <glyph glyph-name="copyright" unicode="&#xa9;" horiz-adv-x="2121" 
d="M1082 1488l2 1.5t6 3.5h2zM894 343q-55 42 -74.5 113t-0.5 162q38 175 187 317q81 76 164 114t172 38q157 0 178 -73l51 -63q22 -27 11 -74q-5 -28 -20.5 -54t-37.5 -52q-57 -61 -117 -61q-11 0 -24.5 2t-26.5 7q-5 0 -14 1l-18.5 2t-16.5 2t-8 1h-2q-49 -8 -85.5 -44
t-49.5 -87q6 -2 13 -2h16q5 0 19 1.5t31 3.5q2 0 5 1t6 1q6 2 11 2t10 1q13 3 25.5 4.5t30.5 1.5q64 0 73 -48l53 -65q20 -25 8 -84q-42 -199 -331 -199q-68 0 -119 22.5t-83 62.5zM1869 681q4 20 5.5 44t-2.5 48q-8 64 -29 122.5t-57 109.5l-12 10.5l-11 10.5
q-162 138 -373 138q-297 0 -502 -150q-109 -78 -177.5 -189t-99.5 -255q-33 -159 20 -270q5 -8 16 -17q140 -128 388 -128q342 0 589 181q102 73 163 160t82 185zM406 15q-17 15 -28 29q-188 208 -113 558q26 121 77.5 234t129.5 222q85 117 181 203.5t211 146.5
q37 18 74.5 34t75.5 29q16 3 42 9q2 1 5 1t5 2q6 2 8 3t5 1l3 1q1 0 6 2.5t12 5.5l14.5 6l12.5 5v-2h1t3 2q5 2 11 3.5t9 3.5q118 36 240 36q356 0 586 -227q66 -68 109 -140l12 -14q180 -224 115 -527q-85 -402 -478 -652q-177 -113 -365 -169.5t-393 -56.5
q-348 0 -528 198l-12 14t-12 15zM1478 963q17 81 -145 81q-157 0 -300 -136q-138 -130 -172 -290q-26 -125 30.5 -204t181.5 -79q251 0 286 162q14 68 -39 68q-22 0 -69 -7.5t-69 -7.5q-152 0 -126 124q16 75 73 125.5t131 50.5q15 0 43.5 -8.5t44.5 -8.5q41 0 83 46
q38 41 47 84zM1911 681q-46 -215 -266 -377q-261 -191 -619 -191q-261 0 -412 138q-162 150 -108 404q65 306 297 473q219 159 529 159q224 0 393.5 -144.5t190.5 -355.5q6 -55 -5 -106zM2109 727q70 331 -166 563q-222 217 -561 217q-117 0 -223 -32q-49 -18 -71 -28
l-72 -19q-72 -23 -140 -58q-209 -107 -368 -331q-153 -211 -201 -437q-70 -331 107 -527q170 -188 504 -188q394 0 735 219q375 240 456 621z" />
    <glyph glyph-name="guillemotleft" unicode="&#xab;" horiz-adv-x="1512" 
d="M805 174q2 0 2 -3zM237 227q-22 22 -37 39.5t-23 30.5q-23 39 -16 77q8 37 31 71.5t65 69.5q33 27 106.5 74l192.5 118q253 150 298 150q63 0 75 -51l52 -64q22 -29 9 -93q-9 -42 -38 -79l86.5 50l126.5 69q216 111 256 111q33 0 55 -18t31 -45l47 -58q29 -37 18 -90
q-9 -44 -42 -84t-91 -73l-52.5 -27l-63.5 -33l-22 -12.5t-22 -11.5q4 -5 7.5 -8t6.5 -5q21 -23 36.5 -44.5t27.5 -41.5l26 -36q1 2 0 2h-1l4 -3q64 -85 52 -142q-12 -56 -59 -111q-29 -33 -59.5 -50.5t-62.5 -17.5q-22 0 -71 37t-124 115l-78.5 82t-54.5 63l-4 3
q-43 47 -68 78.5t-33 49.5q-19 49 -12 80q4 18 10.5 36t19.5 36q-24 -17 -51.5 -33.5t-59.5 -33.5l-48 -27.5t-41 -21.5q16 -15 36 -27q78 -71 103 -123l24 -31l2 -3l9 -9q49 -64 39 -113q-12 -59 -72 -116q-29 -26 -59.5 -41t-60.5 -15q-57 0 -225 147q-68 60 -112.5 103.5
t-65.5 72.5zM885 734q17 80 -40 80q-34 0 -272 -142q-224 -133 -280 -179q-76 -61 -89 -119q-4 -22 12 -50q30 -49 184 -184q161 -140 204 -140q45 0 91 44.5t56 90.5q12 56 -105 159l-163 129q32 22 167 99q104 58 163.5 106t71.5 106zM1467 674q7 33 -8 58.5t-47 25.5
q-29 0 -232 -106q-197 -104 -240 -137q-72 -56 -85 -116q-5 -24 10 -56q20 -43 161 -186t172 -143q44 0 87 51q38 44 48 90q11 52 -75 149q-22 25 -128 126l229 120q93 54 108 124z" />
    <glyph glyph-name="minus" unicode="&#xad;" horiz-adv-x="1143" 
d="M353 584q-46 27 -29 107q28 131 168 171q30 9 79.5 13t118.5 4h349q96 0 111 -58l50 -63q21 -26 11 -70q-29 -139 -167 -173q-5 -1 -49.5 -3.5t-129.5 -6.5q-36 -2 -68 -2.5t-61 -2.5q-62 -3 -96.5 -4.5l-58 -2.5t-42.5 -2t-49 -3q-61 0 -83 29zM1106 773q14 63 -76 63
h-349q-131 0 -185 -15q-108 -31 -129 -130q-17 -80 63 -80q-39 0 374 17q160 7 175 10q104 26 127 135z" />
    <glyph glyph-name="registered" unicode="&#xae;" horiz-adv-x="2099" 
d="M1244 797q18 8 32.5 16t27.5 16q-24 0 -49 -2t-54 -6l-4.5 -24t-3.5 -24q31 13 51 24zM1213 254q-13 7 -22 19t-18 27l-14 36l-18 45q-8 -3 -15 -5t-16 -4q-13 -48 -23.5 -80t-21.5 -50q-32 -60 -75 -87h35q129 0 245 26q-3 2 -5 5.5l-5 8.5zM610 563
q-17 -78 -12.5 -143.5t30.5 -122.5q3 -4 7 -7.5l9 -7.5q72 -67 179 -101l-29 37q-48 24 -30 106q5 25 13.5 61t22.5 84l21 83t14 59q7 34 16 108q1 11 3 23l4 23q-10 5 -12 12l-53 66q-12 7 -21 18t-11 28q-110 -133 -151 -326zM1850 674q9 39 3 89q-14 127 -85 227
q-5 6 -11 11.5t-13 10.5q-29 22 -56 40.5t-58 32.5l15 -27l39 -48q27 -32 34 -72.5t-4 -90.5q-19 -88 -83.5 -166t-174.5 -150q29 -67 40.5 -120t3.5 -90q-4 -20 -12.5 -37.5t-19.5 -34.5q80 39 149 92q97 76 155.5 159t77.5 174zM402 14q-17 13 -28 29q-185 203 -110 553
q25 118 76 230t128 220q84 117 180 203.5t208 141.5q72 37 143 60q5 1 9 1t9 2q7 2 16 4t19 5v1l13 4h1l4 1q11 5 23.5 9.5t29.5 11.5q4 2 8 3.5t8 3.5q58 17 116.5 25.5t124.5 8.5q177 0 319.5 -56t257.5 -168q29 -31 55 -62.5t46 -65.5l23 -27q172 -219 109 -517
q-84 -395 -472 -645q-348 -226 -749 -226q-345 0 -523 197l-6 7q-5 5 -8.5 9t-6.5 8zM1421 882q-31 -58 -164 -123q-50 -25 -198 -85q27 130 40 265q78 13 147 13q157 0 175 -70zM1609 932q24 112 -67 174q-74 51 -195 51q-91 0 -222 -25q-145 -29 -223 -67.5t-94 -115.5
q-16 -73 44 -73q27 0 79 20q-10 -27 -18 -61q-8 -38 -17.5 -112t-17.5 -112q-10 -48 -36 -143.5t-36 -143.5q-15 -70 42 -70q73 0 117 86q21 39 48 146q78 21 117 36q59 -131 84 -198q21 -39 54 -39q42 0 80 38.5t47 82.5q16 72 -55 219q234 141 269 307zM1892 674
q-43 -203 -252 -363q-261 -198 -624 -198q-258 0 -405 136q-159 149 -106 400q63 298 292 464q214 157 517 157q222 0 392 -142t191 -351q6 -53 -5 -103zM2085 720q69 326 -162 555q-218 213 -552 213q-125 0 -225 -31q-48 -18 -71 -29q-47 -13 -70 -18q-72 -24 -137 -57
q-207 -105 -365 -326q-150 -208 -197 -431q-70 -328 104 -523q167 -186 500 -186q387 0 726 219q370 240 449 614z" />
    <glyph glyph-name="glyph136" unicode="&#xaf;" horiz-adv-x="1359" 
d="M1444 1398l63 -80l-45 -212h-928l-64 80h-10l47 222h939zM1394 1365h-853l-29 -136h853z" />
    <glyph glyph-name="degree" unicode="&#xb0;" horiz-adv-x="1091" 
d="M1197 1212q2 -3 2.5 -5.5t2.5 -5.5zM914 1005q0 3 1 6.5t0 7.5q-26 8 -54 8q-17 0 -39.5 -5t-50.5 -18h-2l-87 -45q-12 -22 -20 -41t-12 -37l-4 -19q13 -5 26.5 -7t30.5 -2q70 0 135 45q62 42 76 107zM410 623q-12 9 -23 20.5t-20 25.5q-75 104 -43 253q39 182 153 266
q49 93 192 155q66 29 123 43.5t110 14.5q73 0 130.5 -24.5t100.5 -76.5q12 -14 21.5 -29t17.5 -30l30 -40q5 -2 5 -3q72 -93 42 -232q-40 -190 -221 -336h2q-175 -145 -369 -145q-142 0 -218 97zM956 1005q-18 -83 -97 -138.5t-165 -55.5q-77 0 -121 40t-28 115
q10 46 47 106l103 51q61 27 107 27q68 0 116 -37q52 -41 38 -108zM1145 1051q28 132 -46 220t-206 88q-92 0 -213 -55q-136 -60 -172 -140q-105 -72 -141 -242q-28 -132 37.5 -223t197.5 -91q174 0 340 134.5t203 308.5z" />
    <glyph glyph-name="plusminus" unicode="&#xb1;" horiz-adv-x="1033" 
d="M759 358q-11 -22 -22.5 -39.5t-25.5 -31.5h127q99 0 111 -60l52 -63q20 -26 11 -70q-30 -138 -166 -171q-10 -2 -183 -10q-8 0 -20.5 -1t-30.5 -2l-58 -4.5t-77 -4.5q-58 -4 -106 -5.5t-83 -1.5q-59 0 -80 29l-51 63q-52 25 -34 113q30 142 175 171q39 9 89 13t113 4
l-27 30q-48 24 -30 106q1 3 2 9t5 15t7 23t8 32q-20 1 -42 2.5t-45 4.5q-42 9 -60 32l-48 61q-47 27 -34 89q6 29 22 59t44 59q29 32 60.5 47.5t63.5 15.5h25q15 0 34 -2h14q4 0 7.5 -0.5t7.5 -0.5q5 0 8 -1t7 -1h17q2 0 5 -1t7 -1q2 7 2 14q0 8 2 17l3 12q1 4 0.5 6.5
t0.5 7.5q1 4 1 7q0 4 1 8l2 8q2 17 5 31.5t5 25.5q7 32 25.5 60t50.5 58q32 29 64 42.5t62 13.5q53 0 68 -50l52 -63q19 -23 20 -70t-14 -117l-1 -7h10q3 0 6.5 0.5t7.5 0.5q28 2 52 2h45q106 0 123 -60l51 -64q19 -26 10 -72q-29 -132 -159 -162q-65 -16 -239 -16
q-7 0 -17 -34q-10 -35 -20 -61.5t-18 -44.5zM907 179q14 65 -78 65h-332q-126 0 -197 -15q-111 -24 -134 -130q-17 -82 63 -82q72 0 187 7q152 10 188 12q161 7 176 10q104 26 127 133zM1107 761q14 68 -88 68q-48 0 -124 -3q-97 -3 -124 -3q30 126 32 138q37 172 -30 172
q-44 0 -92 -42.5t-58 -88.5q-6 -27 -14 -79.5t-14 -79.5l-4 -20q-27 0 -85.5 3t-88.5 3q-45 0 -87 -46t-52 -92q-10 -48 40 -60q146 -13 224 -10q-53 -182 -56 -198q-15 -70 41 -70q82 0 131 101q15 31 35.5 99t61.5 68q171 0 230 14q100 24 122 126z" />
    <glyph glyph-name="acute" unicode="&#xb4;" horiz-adv-x="526" 
d="M380 1418q-48 24 -30 106q12 55 64 116l105.5 124.5l150.5 172.5q38 40 73.5 59.5t67.5 19.5q70 0 80 -52l54 -64q11 -14 12.5 -37t-4.5 -54q-14 -60 -149 -227l-110.5 -129t-74.5 -76q-60 -49 -117 -49q-52 0 -71 25zM848 1894q16 79 -47 79q-44 0 -100 -60l-256 -297
q-45 -53 -53 -92q-16 -73 51 -73q39 0 87 39q58 48 178 196q129 159 140 208z" />
    <glyph glyph-name="paragraph" unicode="&#xb6;" horiz-adv-x="1939" 
d="M1139 326q19 -23 14 -60l28.5 108t20.5 85q9 44 20 107t22 151q13 88 24 154t21 110q6 29 24 60q-19 -2 -36.5 -3t-35.5 -4l20 -24q22 -32 9 -94q-24 -113 -59.5 -256.5t-83.5 -319.5zM925 898q9 42 21 77q-42 -16 -80.5 -32.5t-71.5 -36.5q-204 -116 -230 -244
q-5 -20 -5 -40t7 -40l24.5 -22.5t28.5 -21.5q45 -30 93.5 -51t104.5 -31l60.5 236t47.5 206zM337 314q-166 157 -115 391q26 126 104 233.5t211 204.5q390 282 909 282q248 0 557 -92q55 -16 85 -38t38 -51l48 -61q23 -29 15 -62q-12 -60 -75 -117q-58 -55 -122 -55
q-13 0 -20 1l-14 2q-106 27 -193 46.5t-158 30.5q6 -11 8 -26.5t4 -34.5q1 -21 -4.5 -61.5t-16.5 -104.5q-29 -192 -50 -319t-35 -191q-108 -508 -198 -659q-77 -126 -178 -126q-39 0 -58 22l-52 67q-46 22 -27 110q14 65 38.5 159.5t61.5 219.5q9 32 18.5 62.5t17.5 59.5
q-23 -50 -68 -88l-84 -300q-46 -154 -46 -160q-59 -135 -170 -135q-49 0 -67 24l-53 66q-46 25 -28 115q6 28 29.5 118.5l63.5 236.5q-165 30 -282 129q-20 17 -37.5 34.5t-31.5 35.5zM2085 1207q10 51 -102 85q-301 90 -546 90q-505 0 -880 -271q-244 -176 -293 -406
q-49 -229 129 -376q155 -128 394 -134q-111 -402 -125 -466q-17 -82 46 -82q82 0 125 99q1 5 46 162l90 314q63 46 77 113q11 51 -28 68q98 367 147 599q17 82 -49 82q-109 0 -148 -186q-45 -210 -123 -492q-149 19 -269 103q-146 104 -117 239q31 148 253 274
q253 145 673 145q167 0 522 -92q14 -3 26 -3q46 0 93.5 43.5t58.5 91.5zM1408 377q27 128 86 509q21 128 20 158q1 60 -37 60q-42 0 -89 -40t-56 -83q-19 -87 -44 -261t-43 -261q-27 -126 -101.5 -376t-101.5 -377q-17 -76 36 -76q75 0 136 102q88 147 194 645z" />
    <glyph glyph-name="periodcentered" unicode="&#xb7;" horiz-adv-x="532" 
d="M299 587q-48 22 -31 106q8 33 25.5 67t49.5 69h-1q32 40 69 59.5t76 19.5q74 0 88 -55l52 -63q23 -29 10 -90q-8 -34 -26.5 -67t-50.5 -66h1q-64 -70 -139 -70q-53 0 -72 25zM532 785q17 80 -54 80q-53 0 -104 -58.5t-63 -113.5q-15 -73 51 -73q55 0 106.5 54.5
t63.5 110.5z" />
    <glyph glyph-name="guillemotright" unicode="&#xbb;" horiz-adv-x="1423" 
d="M1000 497q-2 1 -3 3t-3 3zM1000 497l7 -7q29 -40 29 -82l53 36q-8 8 -16.5 15.5t-17.5 16.5q-29 26 -52.5 50t-40.5 44l-21 26q-38 37 -60.5 68t-31.5 58q-8 29 -2 61q6 27 23 56.5t45 58.5q58 61 122 61q24 0 80 -41t145 -128q83 -81 129.5 -134t57.5 -77l2 -7l32 -38
h-2l2 -2q11 -14 18 -24t11 -18q17 -46 10 -79q-12 -56 -71 -119q-53 -57 -267 -212q-230 -167 -284 -167q-47 0 -66 26l-52 63q-23 11 -32.5 38t-2.5 69l-53 -34.5l-56 -36.5q-140 -91 -224 -134.5t-115 -43.5q-42 0 -61 24l-51 65q-48 22 -29 111q15 72 87 138
q70 61 196 137l54 31.5l48 27.5q-3 3 -2 4l-2 1q-98 58 -136 111l-25 33q-34 27 -51 56q-33 50 -23 102q8 34 22.5 62.5t39.5 57.5q32 33 63.5 50.5t66.5 17.5q37 0 113 -63q17 -13 33.5 -27l31.5 -28q3 -1 35 -21.5t101 -60.5q46 -28 79.5 -55t54.5 -55q5 -9 10 -17t9 -16
l39 -49h-2zM929 469q8 40 -22 81q-38 51 -123 102l-141 85q-37 33 -77 63q-57 47 -79 47q-46 0 -88 -49t-52 -97q-8 -37 16 -73q37 -53 135 -113l156 -95q-31 -22 -196 -120q-121 -71 -188 -131q-57 -51 -69 -109q-17 -77 39 -77q48 0 315 171q253 163 315 223q49 48 59 92z
M1418 497q5 24 -8 58q-18 44 -182 202.5t-200 158.5q-43 0 -85.5 -44t-52.5 -89q-5 -24 2 -41q19 -58 125 -150q135 -118 152 -140l-215 -145q-145 -106 -160 -177q-20 -94 47 -94q39 0 258 159q208 150 259 204.5t60 97.5z" />
    <glyph glyph-name="questiondown" unicode="&#xbf;" horiz-adv-x="1237" 
d="M1267 937q-29 -33 -57.5 -53.5t-58.5 -28.5q36 -15 56 -60l44 -56q8 -9 12.5 -19.5t9.5 -23.5q25 -65 13 -123q-19 -88 -89 -157t-195 -122q-28 -14 -115.5 -38t-236.5 -61q-102 -26 -172 -50.5t-110 -50.5q38 -13 95.5 -18.5t133.5 -5.5q84 0 166 16.5t162 51.5
q26 11 44.5 16t27.5 5q31 0 51 -16t29 -41l49 -63q15 -17 18.5 -40.5t-1.5 -49.5q-15 -71 -94 -126q-83 -63 -274 -96q-75 -14 -142 -20.5t-129 -6.5q-182 0 -296 58q-56 26 -88 68l-38 48q-102 84 -69 232q41 195 226 312h-2q138 81 392 145q202 50 301 87q-1 11 0.5 21
t3.5 20q12 60 67 118q40 40 79 49q-8 3 -12.5 8l-9.5 11l-51 67q-48 22 -30 104q3 15 16.5 37.5t36.5 54.5l39 49.5t20 23.5q28 30 56 43.5t57 13.5q67 0 79 -53l49 -62q0 2 -1 2t-1 2l4 -5q22 -28 10 -82q-15 -68 -75 -135zM1181 659q10 48 -11.5 105t-66.5 57
q-41 0 -81 -46q-37 -39 -46 -84q-7 -32 7 -63q-81 -39 -351 -106q-247 -61 -362 -129q-177 -105 -215 -287q-33 -155 108 -229q106 -54 282 -54q114 0 264 27q182 34 256 87q62 44 73 97q7 31 -6.5 56.5t-43.5 25.5q-14 0 -54 -17q-169 -72 -346 -72q-367 0 -335 150
q2 9 10 16q76 63 318 123q292 73 347 97q221 96 253 246zM1238 1157q15 70 -45 70q-38 0 -75 -37q-7 -7 -54 -69q-40 -53 -44 -73q-16 -72 44 -72q53 0 110 67q52 58 64 114z" />
    <glyph glyph-name="Agrave" unicode="&#xc0;" horiz-adv-x="1065" 
d="M754 695l-90 -150l-112 -188h227q-8 77 -14.5 161t-10.5 177zM35 -51q-46 22 -29 104q6 28 72.5 150t196.5 340l110.5 183.5l112.5 186.5l23 40t25 40l21.5 36t23.5 38l88 153q50 80 101.5 139t104.5 81l-14 21q-6 4 -11.5 9l-10.5 10q-40 40 -100 204q-32 85 -44.5 142
t-6.5 85q7 31 25 61t50 59q31 28 62 43t65 15q58 0 86 -67q0 -3 1 -3l42 -53q6 -8 11.5 -18l11.5 -21q3 -13 6 -23t10 -28q7 -26 16.5 -56.5l20.5 -65.5h2l25 -60t33 -86q10 -42 6 -67q-12 -57 -61 -113q-20 -22 -39 -35t-40 -21l34 -41q16 -20 23 -56q11 -45 16 -103.5
t4 -132.5q0 -100 0.5 -156.5t0.5 -73.5h2q14 -121 29 -306t31 -430l1 -1q0 -7 -1 -14t-3 -14q-6 -28 -23.5 -56.5t-45.5 -57.5q-57 -63 -122 -63q-32 0 -53 27l-47 62q-35 20 -52 80h-23h-37q-22 0 -50 2q-27 1 -48 1h-34h-268q-107 -182 -204 -182q-26 0 -44.5 6t-28.5 19z
M369 314q388 655 420 705q5 -417 39 -705h-459zM1064 130q2 10 2 25q-32 487 -62 727q0 28 -1 234q0 142 -19 229q-14 63 -60 63t-99 -58t-108 -145l-90 -154l-314 -524q-254 -428 -264 -474q-15 -73 53 -73q77 0 178 182h293q29 0 84.5 -1.5t84.5 -1.5q65 0 107 7
q14 -176 69 -176q43 0 89.5 47.5t56.5 92.5zM1066 1626q4 19 -5 50q-35 97 -56 143q-41 123 -60 185q-18 42 -54 42q-46 0 -93 -43.5t-57 -91.5q-9 -42 50.5 -203.5t90.5 -195.5q23 -24 48 -24q45 0 85.5 46t50.5 92z" />
    <glyph glyph-name="Aacute" unicode="&#xc1;" horiz-adv-x="1072" 
d="M730 695l-90 -150l-112 -188h227q-8 77 -14.5 161t-10.5 177zM11 -51q-46 22 -29 104q12 57 270 490l109.5 183.5l112.5 186.5l23 40t25 40l21.5 36t23.5 38l88 153q48 80 101.5 139t105.5 81l-12 14q-48 22 -30 108q5 26 21.5 55.5t42.5 60.5l105.5 123.5l150.5 173.5
q74 78 141 78q70 0 82 -51l53 -65q20 -27 8 -90q-14 -61 -150 -227l-109.5 -129.5t-75.5 -75.5q-20 -17 -40 -28.5t-39 -16.5l31 -39q15 -19 24 -56q11 -45 15.5 -103.5t4.5 -132.5q-1 -100 -0.5 -156.5t0.5 -73.5h2q14 -121 29 -306t32 -430v-1q0 -7 -1 -14t-3 -14
q-12 -55 -68 -114q-59 -63 -123 -63q-32 0 -53 27l-47 62q-35 21 -51 80h-24h-37q-22 0 -50 2q-27 1 -48 1h-34h-268q-107 -182 -204 -182q-26 0 -44.5 6t-28.5 19zM345 314q388 655 420 705q5 -417 39 -705h-459zM1040 130q2 10 2 25q-32 487 -61 727q-1 28 -2 234
q0 142 -19 229q-14 63 -60 63t-99 -58t-108 -145l-89 -154l-315 -524q-254 -428 -264 -474q-15 -73 53 -73q77 0 178 182h293q29 0 84.5 -1.5t84.5 -1.5q65 0 107 7q14 -176 69 -176q43 0 89.5 47.5t56.5 92.5zM1319 1932q16 78 -47 78q-45 0 -101 -59l-254 -297
q-46 -53 -54 -92q-16 -74 50 -74q40 0 88 39q58 48 177 197q130 158 141 208z" />
    <glyph glyph-name="Acircumflex" unicode="&#xc2;" horiz-adv-x="1082" 
d="M750 695l-89.5 -150l-111.5 -188h227q-8 77 -15 161t-11 177zM1111 1468q-43 37 -94 121l-12.5 18t-11.5 19l-60 -76q-77 -96 -138 -150.5t-116 -54.5q-23 0 -42.5 8.5t-31.5 23.5l-50 62q-23 14 -33.5 40.5t-3.5 58.5q6 27 48.5 88.5t123.5 156.5q60 74 111 131t90 95
q38 40 73.5 58.5t63.5 18.5q58 0 188 -193q2 -3 3.5 -4.5t3.5 -4.5l1 2q11 -19 23 -34l17.5 -26l18.5 -27l10 -12q137 -204 124 -266q-6 -27 -22.5 -55.5t-40 -52.5t-52 -39t-56.5 -15q-23 0 -50.5 19t-59.5 59l-11.5 13t-11.5 14l23 -27zM32 -51q-47 23 -30 104
q12 57 270 490l110 183.5l112 186.5l24 40l24 40l22 36l23 38l88 153q30 49 62 91.5t64.5 73.5t64.5 48.5t63 17.5q58 0 86 -60l46 -60q16 -19 24 -56q11 -45 16 -103.5t4 -132.5q-1 -100 -0.5 -156.5t1.5 -73.5h1q14 -121 29.5 -306t31.5 -430l1 -1l-2 -14t-3 -14
q-12 -55 -68 -114l-2 -2q-58 -61 -120 -61q-32 0 -53 27l-48 62q-33 20 -51 80h-24h-36t-51 2q-27 1 -48 1h-34h-268q-107 -182 -203 -182q-26 0 -45 6t-29 19zM366 314l419 705q5 -417 40 -705h-459zM1061 130q2 10 1 25q-32 487 -61 727q-1 28 -1 234q-1 142 -19 229
q-15 63 -61 63t-99 -58t-108 -145l-89 -154l-314 -524q-255 -428 -265 -474q-15 -73 53 -73q77 0 178 182h294q29 0 84.5 -1.5t84.5 -1.5q65 0 107 7q14 -176 68 -176q43 0 90 47.5t57 92.5zM1312 1606q10 46 -120 241.5t-173 195.5q-39 0 -101.5 -61.5t-195.5 -221.5
q-153 -183 -161 -222q-6 -29 11.5 -49.5t46.5 -20.5q43 0 96 50t123 136l112 145l105 -183q83 -135 132 -135q41 0 79 42t46 83z" />
    <glyph glyph-name="Atilde" unicode="&#xc3;" horiz-adv-x="1155" 
d="M1079 1336q2 0 2 -1zM774 695l-89.5 -150l-111.5 -188h227q-8 77 -15 161t-11 177zM489 1451q-49 25 -31 109q12 57 58.5 104t126.5 89q64 32 122.5 48.5t112.5 16.5q76 0 188 -55q48 -24 82 -36t53 -12q25 0 71 41q78 68 133 68q32 0 53 -16.5t30 -42.5l48 -62
q-2 2 -3 2l-1 2l4 -4q13 -17 17.5 -40.5t-0.5 -47.5q-6 -31 -37 -74h2q-56 -79 -160 -138q-104 -58 -193 -58q-23 0 -51 5.5t-58 16.5l25 -32l4 -4q16 -19 24 -56q11 -45 15.5 -103.5t4.5 -132.5q-1 -100 -0.5 -156.5t0.5 -73.5h2q14 -121 29 -306t32 -430l1 -1l-2 -14
t-3 -14q-12 -55 -68 -114l-2 -2q-58 -61 -120 -61q-33 0 -53 27l-48 62q-35 21 -51 80h-24h-36t-51 2q-27 1 -48 1h-34h-268q-107 -182 -203 -182q-55 0 -74 25l-52 67q-47 22 -30 104q12 57 270 490l109.5 183.5l112.5 186.5l24 40l24 40l22 36l23 38l88 153q48 76 98 134
t99 81q-18 5 -33 8.5t-28 3.5q-46 0 -107 -36q-42 -26 -71 -37.5t-44 -11.5q-53 0 -72 26zM390 314l419 705q5 -417 40 -705h-459zM1084 130q2 10 2 25q-32 487 -61 727q-1 28 -1 234q-1 142 -19 229q-15 63 -61 63t-99 -58t-108 -145l-89 -154l-314 -524
q-255 -428 -265 -474q-15 -73 53 -73q77 0 178 182h294q29 0 84.5 -1.5t84.5 -1.5q65 0 107 7q14 -176 68 -176q43 0 89.5 47.5t56.5 92.5zM1448 1700q7 31 -7 56.5t-45 25.5q-36 0 -98.5 -54.5t-105.5 -54.5q-49 0 -151.5 51t-171.5 51q-94 0 -214 -60q-136 -68 -154 -155
q-16 -75 52 -75q21 0 94.5 42.5t128.5 42.5q63 0 164.5 -51t165.5 -51q80 0 171 51t142 125q25 34 29 56z" />
    <glyph glyph-name="Adieresis" unicode="&#xc4;" horiz-adv-x="1114" 
d="M762 695l-89.5 -150l-111.5 -188h227q-8 77 -15 161t-11 177zM1127 1440q-29 17 -38 60q-5 20 -5 42q0 23 5 49q9 41 26.5 81.5t44.5 81.5q79 117 166 117q71 0 82 -55l47 -60q1 2 0 2t-1 2l4 -6q23 -28 10 -87q-8 -36 -28 -88q-11 -27 -17.5 -45t-8.5 -29
q-11 -52 -65 -102q-56 -51 -111 -51q-40 0 -59 25zM44 -51q-47 22 -30 104q12 57 270 490l110 183.5l112 186.5l24 40l24 40l22 36l23 38l88 153q28 44 56.5 82.5t56.5 67.5q-38 -25 -86 -25q-44 0 -65 25l-50 64q-56 30 -31 146q3 16 14.5 46.5l30.5 78.5q62 155 188 155
q35 0 56.5 -14.5t28.5 -43.5l49 -59q27 -34 12 -106q-2 -8 -11 -31t-28 -65h2q-21 -48 -35 -77t-23 -41h-2q-4 -5 -7 -9.5t-6 -8.5q26 22 52 34t52 12q59 0 85 -60l47 -60q16 -19 24 -56q11 -45 16 -103.5t4 -132.5q-1 -100 -0.5 -156.5t0.5 -73.5h2q14 -121 29 -306
t32 -430l1 -1l-2 -14t-3 -14q-12 -55 -68 -114q-59 -63 -122 -63q-32 0 -53 27l-48 62q-33 20 -51 80h-24h-36t-51 2q-27 1 -48 1h-34h-268q-107 -182 -203 -182q-26 0 -45 6t-29 19zM378 314l419 705q5 -417 40 -705h-459zM1072 130q2 10 2 25q-32 487 -61 727
q-1 28 -1 234q-1 142 -19 229q-15 63 -61 63t-99 -58t-108 -145l-89 -154l-314 -524q-255 -428 -265 -474q-15 -73 53 -73q77 0 178 182h294q29 0 84.5 -1.5t84.5 -1.5q65 0 107 7q14 -176 68 -176q43 0 89.5 47.5t56.5 92.5zM842 1722q20 96 -50 96q-89 0 -138 -122
q-39 -95 -43 -116q-24 -112 44 -112q58 0 99 58q15 20 52 107q33 77 36 89zM1365 1753q16 75 -48 75q-61 0 -122 -91q-48 -75 -63 -146q-9 -41 -1 -74q12 -42 48 -42q40 0 81 38t49 78q6 27 28 80.5t28 81.5z" />
    <glyph glyph-name="Aring" unicode="&#xc5;" horiz-adv-x="1130" 
d="M1529 2115q2 -3 2.5 -5.5t2.5 -5.5zM1246 1908q0 2 0.5 6t0.5 8q-26 8 -54 8q-18 0 -40.5 -5.5t-49.5 -18.5h-2l-87 -44q-12 -22 -20.5 -41.5t-12.5 -37.5l-4 -18q14 -5 27.5 -7t30.5 -2q70 0 135 45q61 41 76 107zM750 695l-89.5 -150l-111.5 -188h227q-8 77 -15 161
t-11 177zM742 1526q-12 9 -23 20.5t-20 25.5q-74 104 -43 252q39 182 152 267q25 46 73 85t120 70q65 29 122.5 43.5t110.5 14.5q73 0 130.5 -24.5t100.5 -76.5q12 -14 21.5 -29t17.5 -30l35 -43q72 -93 42 -232q-20 -97 -75.5 -180t-145.5 -156h2q-85 -70 -170 -105.5
t-175 -39.5l44 -57q16 -19 24 -56q11 -45 16 -103.5t4 -132.5q-1 -100 -0.5 -156.5t1.5 -73.5h1q14 -121 29.5 -306t31.5 -430l1 -1l-2 -14t-3 -14q-12 -57 -70 -116q-58 -61 -120 -61q-32 0 -53 27l-48 62q-33 20 -51 80h-24h-36t-51 2q-27 1 -48 1h-34h-268
q-107 -182 -203 -182q-26 0 -45 6t-29 19l-52 67q-47 23 -30 104q12 57 270 490l110 183.5l112 186.5l24 40l24 40l22 36l23 38l88 153q42 66 85 118.5t86 81.5q-20 13 -38 28.5t-33 36.5zM366 314l419 705q5 -417 40 -705h-459zM1288 1908q-18 -84 -97 -139.5t-165 -55.5
q-77 0 -121 40.5t-28 115.5q10 46 46 106l104 51q61 27 107 27q68 0 116 -37q52 -41 38 -108zM1061 130q2 10 1 25q-32 487 -61 727q-1 28 -1 234q-1 142 -19 229q-15 63 -61 63t-99 -58t-108 -145l-89 -154l-314 -524q-255 -428 -265 -474q-15 -73 53 -73q77 0 178 182h294
q29 0 84.5 -1.5t84.5 -1.5q65 0 107 7q14 -176 68 -176q43 0 90 47.5t57 92.5zM1477 1954q28 132 -46 219.5t-206 87.5q-92 0 -213 -54q-136 -60 -172 -140q-105 -72 -141 -243q-28 -131 37.5 -222.5t197.5 -91.5q174 0 340 135t203 309z" />
    <glyph glyph-name="AE" unicode="&#xc6;" horiz-adv-x="1792" 
d="M752 671l-76 -127l-89 -151h188q-8 61 -13 130.5t-10 147.5zM1158 427q-26 -117 -10 -181q12 -7 27.5 -9.5t33.5 -2.5q40 0 99.5 12.5t140.5 35.5q177 51 267 51q97 0 111 -57l51 -64q8 -13 11 -30t-2 -39q-27 -127 -161 -169q-14 -5 -41 -9.5t-67 -12.5
q-57 -9 -101.5 -19t-81.5 -22q-198 -58 -258 -58q-81 0 -143.5 27.5t-103.5 78.5l-41 51q-16 14 -28.5 29.5t-23.5 35.5h-439l-46 -77l-26 -41q-81 -109 -158 -109q-49 0 -70 26l-51 65q-50 25 -32 110q6 26 149 268l178.5 312.5l253.5 435.5q11 15 19.5 29l16.5 27l21.5 35
l17.5 27q11 19 14 25v-1q0 1 1 2t2 3l62 92t61 74.5t63 50t67 18.5q62 0 85 -63l44 -56q5 -9 10 -19l10 -20q20 24 45 42t52 24q22 11 44.5 19t48.5 8q19 0 30 -5q42 5 157 14t304 20q79 5 120 8t43 3q79 0 89 -53l50 -63q20 -26 10 -75q-24 -110 -139 -146
q-12 -4 -62.5 -9.5t-139.5 -12.5q-75 -6 -166 -14.5t-203 -21.5l-25.5 -73t-41.5 -106q65 7 132.5 10.5t138.5 3.5q91 0 103 -60l52 -61q10 -14 13.5 -34.5t-2.5 -47.5q-25 -122 -154 -152q-17 -4 -52.5 -8t-92.5 -9q-85 -8 -154.5 -13l-123.5 -9zM403 350l391 655
q-2 -414 33 -655h-424zM1783 229q13 61 -76 61q-83 0 -253.5 -49.5t-253.5 -49.5q-215 0 -147 321q7 36 19 77q113 7 309 24q116 10 140 15q97 22 117 116q16 75 -70 75q-232 0 -427 -36q120 299 139 364q243 27 399 39q170 14 193 21q88 27 106 109q13 63 -53 63
q-4 0 -161 -10q-404 -26 -467 -36q-8 7 -26 7q-37 0 -73 -24q-41 -7 -75 -47t-43 -83q-10 -48 22 -58q-28 -107 -95 -268q-2 26 0 243q0 146 -15 237q-12 65 -60 65q-51 0 -100.5 -60t-105.5 -145q-11 -17 -92 -150l-432 -750q-140 -235 -144 -251q-16 -78 50 -78
q55 0 120 89q16 22 84 138h532q12 -104 86.5 -163t187.5 -59q53 0 246 56q80 24 188 43q88 15 103 21q107 34 128 133z" />
    <glyph glyph-name="Egrave" unicode="&#xc8;" horiz-adv-x="1038" 
d="M684 1290q1 2 -1 2zM446 440q-13 -59 -15.5 -105t4.5 -79q13 -7 28 -9.5t33 -2.5q73 0 234 51q88 29 152 42t112 13q103 0 116 -58l52 -65q11 -13 13 -29.5t-3 -38.5q-30 -140 -211 -190l-61.5 -12.5t-61.5 -11.5q-30 -5 -60.5 -11t-59.5 -11q-15 -4 -29 -8.5t-28 -6.5
l2 -2q-4 -2 -25 -7l-41 -10q-76 -22 -132 -22q-175 0 -253 97l-36 46q-141 111 -73 434q30 137 120 358q42 103 71.5 182t46.5 139q-12 14 -16.5 32.5t0.5 44.5q13 62 47.5 103t91.5 59q51 39 105 39q23 0 39 -10q60 8 120 14.5t121 11.5l-16 22q-4 4 -9 8t-10 9
q-39 41 -99 205q-32 85 -44.5 141.5t-6.5 85.5q7 31 25 60.5t50 58.5q31 29 62 43.5t65 14.5q28 0 50 -15.5t36 -50.5q-2 -4 1 -4l42 -53q6 -8 11.5 -18t10.5 -21l7 -23t10 -28q7 -26 16.5 -56l20.5 -65h2l25 -60.5l33 -86.5q11 -43 5 -67q-9 -41 -40 -87q31 2 63 2h65
q74 0 86 -53l50 -63q20 -27 10 -72q-22 -106 -138 -145h-1q-42 -14 -203 -22q-42 -3 -133 -11.5t-234 -24.5q-19 -58 -68 -179q59 5 124 7.5t140 2.5q98 0 110 -61l50 -62q23 -29 12 -80q-24 -114 -150 -148q-26 -7 -95.5 -13t-200.5 -16q-29 -3 -61.5 -5.5t-67.5 -5.5z
M1067 244q13 63 -82 63q-84 0 -249.5 -53t-248.5 -53q-215 0 -146 325q8 37 19 76q212 18 318 25.5t130 14.5q99 27 117 112q16 75 -77 75q-257 0 -419 -29q120 296 139 361q312 34 399 39q159 8 191 20q91 31 107 109q13 60 -50 60q-329 0 -627 -44q-11 14 -28 14
q-39 0 -78 -33q-92 -24 -114 -126q-10 -46 22 -57q-28 -109 -125 -349q-93 -224 -120 -350q-96 -454 261 -454q49 0 122 20q62 17 124 36l241 44q150 41 174 154zM1032 1603q4 18 -5 49q-35 97 -56 143q-41 123 -60 185q-18 42 -54 42q-46 0 -93.5 -43.5t-57.5 -90.5
q-9 -43 51 -204.5t91 -195.5q23 -24 48 -24q45 0 85.5 46t50.5 93z" />
    <glyph glyph-name="Eacute" unicode="&#xc9;" horiz-adv-x="1043" 
d="M667 1290q1 2 -1 2zM429 440q-13 -59 -15.5 -105t4.5 -79q13 -7 28 -9.5t33 -2.5q73 0 234 51q88 29 152 42t112 13q103 0 116 -58l52 -65q11 -13 13 -29.5t-3 -38.5q-30 -140 -211 -190l-61.5 -12.5t-61.5 -11.5q-30 -5 -60.5 -11t-59.5 -11q-15 -4 -29 -8.5t-28 -6.5
l2 -2q-5 -2 -25.5 -7l-40.5 -10q-76 -22 -132 -22q-175 0 -253 97l-36 46q-142 112 -74 434q15 68 45.5 157t75.5 201q42 103 71.5 182t46.5 139q-12 14 -16.5 32.5t0.5 44.5q13 62 47.5 103t91.5 59q51 39 105 39q23 0 39 -10l90.5 10l91.5 10l-4 7q-47 24 -29 106
q12 54 65 116l105 124.5l151 172.5q75 79 141 79q70 0 80 -52l54 -64q11 -14 12.5 -37t-4.5 -54q-14 -61 -150 -227l-72.5 -87.5t-58.5 -64.5q35 2 70 2h74q74 0 86 -53l50 -63q20 -27 10 -72q-22 -106 -138 -145h-1q-42 -14 -203 -22q-42 -3 -133 -11.5t-234 -24.5
q-19 -58 -68 -179q59 5 124 7.5t140 2.5q98 0 110 -61l50 -62q23 -29 12 -80q-24 -114 -150 -148q-26 -7 -95.5 -13t-200.5 -16q-29 -3 -61.5 -5.5t-67.5 -5.5zM1050 244q13 63 -82 63q-84 0 -249.5 -53t-248.5 -53q-215 0 -146 325q8 37 19 76q212 18 317.5 25.5
t130.5 14.5q99 27 117 112q16 75 -77 75q-257 0 -419 -29q120 296 139 361q312 34 399 39q159 8 191 20q91 31 107 109q13 60 -50 60q-330 0 -627 -44q-11 14 -28 14q-39 0 -78 -33q-92 -24 -114 -126q-10 -46 22 -57q-28 -109 -125 -349q-93 -224 -120 -350
q-96 -454 261 -454q49 0 122 20q62 17 124 36l241 44q150 41 174 154zM1239 1894q16 79 -47 79q-44 0 -101 -60l-255 -297q-45 -53 -53 -92q-16 -73 51 -73q39 0 87 39q58 48 178 196q129 159 140 208z" />
    <glyph glyph-name="Ecircumflex" unicode="&#xca;" horiz-adv-x="1053" 
d="M1079 1464q6 -8 11.5 -14l11.5 -13zM1077 1468q-23 19 -45.5 49t-48.5 72l-12.5 18t-11.5 19l-60 -76l-66.5 -78t-59.5 -61q81 8 164 12.5t169 6.5q-2 2 -2 3q0 2 -2 4zM444 440q-13 -59 -15.5 -105t4.5 -79q14 -7 28.5 -9.5t32.5 -2.5q74 0 235 51q87 29 151 42t112 13
q103 0 116 -58l53 -65q11 -13 13 -29.5t-3 -38.5q-30 -140 -212 -190l-61 -12.5t-62 -11.5q-30 -5 -60.5 -11t-59.5 -11q-15 -4 -29 -8.5t-28 -6.5l2 -2q-4 -2 -25 -7t-40 -10q-78 -22 -132 -22q-176 0 -254 97l-36 46q-141 111 -73 434q30 137 120 358q84 205 119 321
q-13 14 -17.5 32.5t0.5 44.5q13 62 47.5 103t91.5 59q21 17 44 26t45 11l-30 40q-23 14 -33.5 40.5t-3.5 58.5q6 27 48 88.5t123 156.5l112 131t90 95q38 40 73.5 58.5t63.5 18.5q58 0 188 -193l3 -4.5l3 -4.5l1 2l12 -17.5l12 -16.5l17.5 -26l18.5 -27l10 -12
q68 -102 99.5 -168t24.5 -98t-29 -65.5t-52 -57.5l4 -10.5t1 -11.5l52 -60q19 -26 9 -72q-22 -106 -137 -145h-2q-42 -14 -203 -22q-42 -3 -132.5 -11.5t-233.5 -24.5l-27.5 -73l-41.5 -106q60 5 125 7.5t140 2.5q98 0 110 -61l50 -62q23 -29 12 -80q-24 -114 -151 -148
q-13 -3 -36 -6.5t-59 -6.5l-85.5 -7l-115.5 -9q-29 -3 -61.5 -5.5t-67.5 -5.5zM1066 244q13 63 -83 63q-83 0 -248.5 -53t-249.5 -53q-215 0 -146 325q8 37 19 76q213 18 318.5 25.5t130.5 14.5q98 27 116 112q16 75 -76 75q-258 0 -419 -29q119 296 138 361q313 34 399 39
q159 8 192 20q90 31 106 109q13 60 -50 60q-329 0 -627 -44q-10 14 -27 14q-40 0 -79 -33q-92 -24 -114 -126q-10 -46 22 -57q-28 -109 -125 -349q-93 -224 -120 -350q-96 -454 261 -454q50 0 122 20q62 17 124 36l241 44q151 41 175 154zM1278 1606q10 46 -120 241.5
t-173 195.5q-39 0 -101.5 -61.5t-195.5 -221.5q-153 -183 -161 -222q-6 -29 11.5 -49.5t46.5 -20.5q43 0 96 50t123 136l112 145l105 -183q82 -135 132 -135q41 0 79 42t46 83z" />
    <glyph glyph-name="Edieresis" unicode="&#xcb;" horiz-adv-x="1079" 
d="M690 1290q1 2 0 2v-2zM452 440q-13 -59 -15 -105t4 -79q14 -7 29 -9.5t33 -2.5q73 0 234 51q88 29 152 42t112 13q103 0 116 -58l52 -65q11 -13 13 -29.5t-3 -38.5q-30 -140 -211 -190l-61.5 -12.5t-61.5 -11.5t-61 -11t-59 -11q-15 -4 -29 -8.5t-28 -6.5l1 -2
q-4 -2 -24.5 -7l-40.5 -10q-76 -22 -132 -22q-175 0 -253 97l-36 46q-142 112 -74 434q15 68 45.5 157t75.5 201q42 103 71 182t47 139q-12 14 -16.5 32.5t0.5 44.5q13 62 47.5 103t91.5 59q51 39 105 39h5l-27 33q-55 30 -30 146q3 16 14.5 46.5l30.5 78.5q61 155 188 155
q71 0 85 -58l46 -58q0 2 -1 2t0 2l4 -5q27 -34 12 -106q-2 -8 -11 -31t-28 -65h2q-21 -48 -35 -77t-24 -41h-2q-2 -6 -7 -12q72 7 145 12t149 7l-9 10q-30 17 -39 60q-9 41 1 91q9 41 26.5 81.5t43.5 81.5q79 117 167 117q71 0 82 -55l47 -60q1 2 0 2t-1 2l4 -6
q23 -28 10 -87q-8 -36 -28 -88q-11 -27 -17.5 -45t-8.5 -29q-5 -26 -22 -52t-43 -50q5 -5 7.5 -11t4.5 -13l50 -63q20 -27 10 -72q-22 -106 -138 -145h-1q-42 -14 -203 -22q-42 -3 -133 -11.5t-234 -24.5q-10 -29 -26.5 -73t-42.5 -106q60 5 125 7.5t140 2.5q98 0 110 -61
l50 -62q23 -29 12 -80q-24 -114 -150 -148q-26 -7 -96 -13t-200 -16q-29 -3 -62 -5.5t-68 -5.5zM1074 244q13 63 -82 63q-84 0 -249.5 -53t-248.5 -53q-215 0 -146 325q8 37 19 76q212 18 317.5 25.5t130.5 14.5q98 27 116 112q16 75 -76 75q-257 0 -419 -29
q120 296 139 361q312 34 399 39q159 8 191 20q91 31 107 109q13 60 -50 60q-330 0 -627 -44q-11 14 -28 14q-39 0 -78 -33q-93 -24 -115 -126q-10 -46 23 -57q-29 -109 -126 -349q-92 -224 -119 -350q-96 -454 261 -454q49 0 121 20q63 17 125 36l241 44q150 41 174 154z
M798 1722q20 96 -50 96q-89 0 -139 -122q-39 -95 -43 -116q-24 -112 45 -112q58 0 99 58q15 20 52 107q33 77 36 89zM1320 1753q16 75 -47 75q-61 0 -122 -91q-49 -75 -64 -146q-9 -41 0 -74q12 -42 48 -42q39 0 80.5 38t49.5 78q6 27 27.5 80.5t27.5 81.5z" />
    <glyph glyph-name="Igrave" unicode="&#xcc;" horiz-adv-x="729" 
d="M953 1521q-5 -27 -19 -54t-38 -54q46 -3 69 -10q54 -18 63 -58l50 -63q20 -25 11 -67q-29 -135 -160 -172q-36 -10 -91 -10h-33l-97 -431.5t-86 -333.5h49q85 0 98 -58l49 -62q24 -31 11 -92q-15 -69 -57.5 -110.5t-112.5 -59.5q-17 -4 -51 -8t-86 -8
q-149 -11 -237 -16.5t-112 -5.5q-51 0 -75 27l-51 65q-47 25 -31 103q21 98 105 148h-3q29 16 65.5 26.5t83.5 18.5q22 78 49.5 190l59.5 252l44 189.5t41 163.5q-64 7 -88 41l-48 60q-28 15 -36.5 43t-0.5 66q6 31 23.5 61.5t41.5 54.5t54 39t62 15h46q27 0 65 2q29 2 51 2
h42l-21 27q-6 4 -11 8t-10 9q-20 21 -44.5 72t-55.5 133q-62 168 -50 227q7 31 24.5 60.5t49.5 58.5q61 58 127 58q29 0 50.5 -15.5t36.5 -50.5q-2 -3 1 -3l42 -53q5 -8 10.5 -18t10.5 -22q5 -13 7.5 -23t9.5 -28l17.5 -56l20.5 -65h2q10 -23 24.5 -60.5t31.5 -86.5
q13 -40 7 -66zM984 1300q10 47 -39 62q-33 10 -105 10h-154q-37 0 -112.5 -1.5t-113.5 -1.5q-44 0 -81.5 -41t-47.5 -87q-19 -87 112 -87q19 0 49 1q37 2 48 2q-49 -164 -121 -479q-74 -326 -119 -480q-105 -12 -149 -34q-75 -36 -93 -121q-15 -72 55 -72q50 0 347 22
q107 9 130 14q112 27 135 135q18 83 -63 83q-99 0 -186 -7q99 309 233 939q64 -2 69 -2q52 0 80 9q104 31 126 136zM848 1606q4 19 -4 49q-36 98 -58 144q-39 123 -60 184q-17 43 -53 43q-46 0 -93 -43.5t-57 -91.5q-9 -43 50.5 -204t91.5 -195q22 -24 48 -24q44 0 85 46
t50 92z" />
    <glyph glyph-name="Iacute" unicode="&#xcd;" horiz-adv-x="729" 
d="M1014 1582l-83.5 -98.5t-63.5 -70.5q39 -3 64 -10q54 -18 63 -58l49 -63q21 -26 12 -67q-29 -135 -161 -172q-34 -10 -90 -10h-33q-52 -241 -97.5 -431.5t-85.5 -333.5h49q84 0 97 -58l50 -62q24 -31 11 -92q-15 -69 -57.5 -110.5t-112.5 -59.5q-17 -4 -51 -8t-87 -8
q-149 -11 -236.5 -16.5t-111.5 -5.5q-51 0 -76 27l-50 65q-47 24 -31 103q21 97 105 148h-3q29 16 65.5 26.5t83.5 18.5l49 190l60 252l44 189.5t41 163.5q-65 8 -88 41l-49 60q-53 30 -36 109q6 31 23 61.5t41.5 54.5t54.5 39t62 15h46t65 2q13 0 24.5 1t22.5 1l-4 3
q-47 24 -29 106q12 55 64 116l105.5 124.5l150.5 172.5q38 40 73.5 59.5t67.5 19.5q70 0 80 -52l54 -64q11 -14 12.5 -37t-4.5 -54q-14 -60 -149 -227zM950 1300q10 47 -39 62q-34 10 -105 10h-154q-37 0 -113 -1.5t-113 -1.5q-45 0 -82.5 -41t-47.5 -87q-19 -87 113 -87
q19 0 49 1q37 2 47 2q-48 -164 -120 -479q-74 -326 -119 -480q-105 -12 -149 -34q-75 -36 -93 -121q-15 -72 55 -72q50 0 347 22q106 9 130 14q111 27 134 135q18 83 -62 83q-99 0 -186 -7q98 309 232 939q65 -2 70 -2q52 0 80 9q104 31 126 136zM1058 1894q16 79 -47 79
q-44 0 -101 -60l-255 -297q-45 -53 -53 -92q-16 -73 51 -73q39 0 87 39q58 48 178 196q129 159 140 208z" />
    <glyph glyph-name="Icircumflex" unicode="&#xce;" horiz-adv-x="816" 
d="M924 1464q6 -8 11 -14t12 -13zM744 1550q-33 -42 -63.5 -76t-59.5 -61q28 2 50 2h38h153q36 0 64 -2.5t49 -7.5q-7 6 -13.5 14.5t-14.5 17.5l-26 31q-22 19 -44.5 49t-48.5 72l-12.5 18t-12.5 19zM338 1132q-28 15 -36 43t0 66q9 42 36.5 83t65.5 64l-38 51v1
q-23 14 -33.5 40t-3.5 58q6 27 48 88.5t123 156.5l112 131t90 95q38 40 73 58.5t64 18.5q57 0 188 -193q1 -3 2.5 -4.5t3.5 -4.5l1 2q5 -9 11.5 -17.5l12.5 -16.5q8 -13 17 -26l19 -27l10 -12q68 -102 99.5 -168t24.5 -98q-6 -27 -22.5 -55.5t-40.5 -52.5t-52 -39t-56 -15
h-11q-5 0 -11 1q6 -8 6 -17l10 -12l37 -44h-2l5 -5q21 -26 12 -67q-29 -135 -161 -172q-18 -5 -41 -7.5t-50 -2.5h-32l-98 -431.5t-85 -333.5h49q84 0 97 -58l49 -62q26 -30 12 -92q-15 -69 -57.5 -110.5t-113.5 -59.5q-16 -4 -50.5 -8t-86.5 -8q-149 -11 -236.5 -16.5
t-112.5 -5.5q-50 0 -75 27l-51 65q-47 25 -31 103q21 98 106 148h-4q29 16 66 26.5t83 18.5q22 78 50 190l60 252l44 189.5t41 163.5q-65 8 -88 41zM998 1300q10 47 -39 62q-34 10 -106 10h-153q-38 0 -113.5 -1.5t-112.5 -1.5q-45 0 -82.5 -41t-47.5 -87q-19 -87 113 -87
q18 0 48 1q38 2 48 2q-48 -164 -121 -479q-74 -326 -119 -480q-104 -12 -148 -34q-75 -36 -93 -121q-15 -72 55 -72q50 0 346 22q107 9 130 14q112 27 135 135q18 83 -62 83q-99 0 -186 -7q98 309 232 939q65 -2 70 -2q51 0 80 9q104 31 126 136zM1123 1606
q10 46 -120 241.5t-173 195.5q-39 0 -101.5 -61.5t-195.5 -221.5q-154 -183 -162 -222q-6 -29 12 -49.5t47 -20.5q42 0 95.5 50t123.5 136l112 145l104 -183q83 -135 133 -135q41 0 79 42t46 83z" />
    <glyph glyph-name="Idieresis" unicode="&#xcf;" horiz-adv-x="836" 
d="M631 1413q29 2 52 2h40h153h32t29 -2l-22 27l1 2q-30 15 -39 58q-5 20 -5 42q0 23 5 49q9 41 26.5 81.5t44.5 81.5q79 117 167 117q70 0 82 -53l50 -64q23 -28 10 -87q-4 -17 -11 -39t-17 -49q-23 -55 -27 -74q-11 -52 -64 -102q-22 -20 -43.5 -32.5t-41.5 -17.5
q0 -1 1 -3.5t2 -4.5l49 -63q20 -25 11 -67q-29 -135 -160 -172q-18 -5 -41 -7.5t-50 -2.5h-32l-98 -431.5t-86 -333.5h50q41 0 65.5 -14.5t31.5 -43.5l49 -62q26 -30 12 -92q-15 -69 -57.5 -110.5t-113.5 -59.5q-17 -4 -51 -8t-86 -8q-149 -11 -236.5 -16.5t-112.5 -5.5
q-50 0 -75 27l-51 65q-47 25 -31 103q21 98 106 148h-4q29 16 65.5 26.5t83.5 18.5q22 78 49.5 190l59.5 252l44.5 189.5l41.5 163.5q-65 7 -89 41l-48 60q-28 15 -36.5 43t-0.5 66q9 42 37.5 83t68.5 65l-34 45v1q-56 29 -31 145q3 16 14.5 46.5l30.5 78.5q62 155 189 155
q71 0 85 -58l46 -58q0 2 -1 2t0 2l3 -5q27 -34 12 -106q-3 -15 -38 -96h1q-41 -95 -58 -118h-2zM1012 1300q10 47 -39 62q-34 10 -106 10h-153q-38 0 -113.5 -1.5t-113.5 -1.5q-44 0 -81.5 -41t-47.5 -87q-19 -87 112 -87q19 0 49 1q38 2 48 2q-49 -164 -121 -479
q-74 -326 -119 -480q-104 -12 -149 -34q-74 -36 -92 -121q-15 -72 55 -72q49 0 346 22q107 9 130 14q112 27 135 135q18 83 -62 83q-99 0 -187 -7q99 309 233 939q65 -2 70 -2q51 0 79 9q105 31 127 136zM631 1722q20 96 -50 96q-89 0 -139 -122q-39 -95 -43 -116
q-24 -112 44 -112q58 0 99 58q16 20 52 107q34 77 37 89zM1153 1753q16 75 -47 75q-62 0 -123 -91q-48 -75 -63 -146q-9 -41 -1 -74q13 -42 49 -42q39 0 80 38t49 78q6 27 28 80.5t28 81.5z" />
    <glyph glyph-name="Ntilde" unicode="&#xd1;" horiz-adv-x="1145" 
d="M791 961v-1t2 -1zM829 877l55.5 -130.5l67.5 -155.5l46 201.5l57 241.5q2 11 4 19.5l4 16.5l6 26l8 37.5t7 25.5q10 38 22 69.5t26 58.5q8 17 17.5 31t20.5 27h-24q-36 0 -80.5 14t-99.5 40q-48 25 -84.5 36.5t-64.5 11.5q-22 0 -49.5 -9t-57.5 -27q-32 -19 -56.5 -30.5
t-40.5 -15.5q3 -4 5 -8.5t4 -9.5q1 -3 2 -5.5t3 -5.5l38 -46l3 -3q5 -7 9 -13.5t8 -15.5l27.5 -65.5t32.5 -84.5v-2l28 -87.5t16 -54.5l4 -3h-2l4 -2l17 -39.5zM1499 1541q-54 -75 -143 -128q28 -12 32 -43l52 -63q22 -27 9 -94q-16 -75 -42 -187l-62 -263l-61 -259.5
l-43 -186.5q-17 -79 -35 -140.5t-41 -106.5q-16 -31 -33.5 -58t-40.5 -51l-2 1q-66 -75 -128 -75q-32 0 -60 34l-44 57q-17 10 -32 32q-21 27 -55 100t-85 195l-65.5 155.5l-81.5 199.5l-56.5 -208l-63.5 -237q-5 -15 -8.5 -29.5l-7.5 -30.5q-5 -15 -9.5 -30t-7.5 -29
q-12 -39 -24.5 -70.5t-27.5 -57.5q-68 -120 -167 -120q-37 0 -52 21l-53 66q-23 12 -30 39t3 72q30 142 108 394l69.5 232t41.5 154l43 205q72 336 212 372l-38 48q-48 25 -30 109q23 110 184 193q65 32 123 48.5t112 16.5q40 0 86.5 -14t101.5 -41q48 -24 82 -36t53 -12
q25 0 72 41q77 68 132 68q32 0 53 -16.5t30 -42.5l48 -62q14 -17 18 -40.5t-1 -47.5q-6 -31 -37 -74h2zM1344 1299q17 80 -39 80q-78 0 -135 -106q-26 -48 -43 -118q-6 -15 -30 -121l-144 -631l-260 616l-51 153q-32 94 -59 151q-22 42 -47 42q-127 0 -198 -334l-43 -205
q-29 -118 -112 -389q-76 -251 -106 -391q-16 -75 30 -75q71 0 125 96q28 46 49 117l33 120l170 631q159 -413 246 -614q100 -237 131 -282q20 -29 40 -29q45 0 96 58q41 43 67 98q40 81 73 237q32 150 103.5 448t103.5 448zM1429 1700q7 31 -7 56.5t-45 25.5
q-35 0 -98 -54.5t-106 -54.5q-49 0 -151 51t-172 51q-94 0 -214 -60q-136 -68 -154 -155q-16 -75 52 -75q21 0 95 42.5t128 42.5q63 0 165 -51t165 -51q80 0 171 51t142 125q25 34 29 56z" />
    <glyph glyph-name="Ograve" unicode="&#xd2;" 
d="M907 1463q0 -4 2 -4zM453 370q3 -4 5.5 -8.5t5.5 -8.5zM1198 625q40 188 -35 314q-103 82 -275 82q-17 0 -50 -13t-82 -40q-236 -126 -292 -389q-15 -70 -10 -128t29 -110q51 -49 123 -73t163 -24q81 0 150 25.5t126 78.5q117 108 153 277zM1163 1408q-5 -5 -9 -10t-9 -9
q90 -23 157.5 -74t118.5 -131q1 -5 4 -9l6 -8l19 -24q9 -11 17.5 -22.5t16.5 -24.5q124 -206 61 -497q-32 -149 -101.5 -274.5t-175.5 -228.5q-233 -222 -529 -222q-287 0 -442 170l-4 7q-5 4 -10 9t-7 10l-25 29q-6 7 -12 13t-12 14q-83 89 -107.5 204.5t6.5 261.5
q23 107 66 203t106 185q138 192 323 297q93 119 327 129l-27 36q-10 7 -19 17q-39 42 -99 205q-32 85 -44.5 141.5t-6.5 85.5q7 31 24.5 60.5t49.5 58.5q63 58 128 58q28 0 49.5 -15.5t36.5 -50.5q-2 -3 1 -3l42 -53l11 -18t11 -22q4 -13 6.5 -23t9.5 -28l17.5 -56l20.5 -65
h2q10 -23 24.5 -60.5l32.5 -86.5q12 -41 6 -66q-12 -56 -61 -113zM1241 625q-39 -185 -169 -304.5t-312 -119.5q-210 0 -326 125q-119 131 -75 338q60 283 317 421q108 58 152 58q238 0 350.5 -140.5t62.5 -377.5zM1440 684q60 279 -57 473q-127 208 -398 208
q-262 0 -340 -123q-182 -99 -311 -281q-124 -173 -165 -369q-57 -269 93 -435q145 -160 418 -160q280 0 497 208q203 194 263 479zM1119 1606q4 19 -4 49q-35 98 -57 144l-60 184q-17 43 -53 43q-46 0 -93 -43.5t-57 -91.5q-9 -43 50 -204t92 -195q22 -24 47 -24
q45 0 85.5 46t49.5 92z" />
    <glyph glyph-name="Oacute" unicode="&#xd3;" 
d="M439 370q3 -4 5.5 -8.5t5.5 -8.5zM1184 625q40 188 -35 314q-103 82 -275 82q-17 0 -50 -13t-82 -40q-235 -125 -291 -389q-15 -70 -10.5 -128t29.5 -110q51 -49 122.5 -73t162.5 -24q81 0 150.5 25.5t125.5 78.5q117 106 153 277zM1319 1582l-102 -120.5t-72 -75.5
q84 -23 148.5 -73.5t113.5 -128.5q3 -8 10 -17l19 -24l18 -22.5t16 -24.5q62 -103 78 -226.5t-16 -270.5q-63 -297 -278 -503q-233 -222 -528 -222q-287 0 -442 170q-5 7 -11 13t-11 13l-24 29q-6 7 -12.5 13t-12.5 14q-83 89 -107.5 204.5t6.5 261.5q23 107 66 203t107 185
q136 191 322 297q88 112 296 128l-10 13q-46 26 -28 106q12 53 64 116l105.5 124.5l150.5 172.5q75 79 142 79q70 0 80 -52l53 -64q21 -27 9 -91q-14 -61 -150 -227zM1227 625q-39 -185 -168.5 -304.5t-312.5 -119.5q-210 0 -325 125q-119 131 -75 338q60 283 317 421
q107 58 152 58q237 0 349.5 -140.5t62.5 -377.5zM1427 684q60 279 -58 473q-127 208 -398 208q-261 0 -340 -123q-181 -99 -311 -281q-124 -173 -165 -369q-57 -269 93 -435q145 -160 418 -160q280 0 498 208q203 194 263 479zM1364 1894q16 79 -47 79q-45 0 -101 -60
l-255 -297q-45 -53 -53 -92q-16 -73 50 -73q39 0 88 39q58 48 177 196q130 159 141 208z" />
    <glyph glyph-name="Ocircumflex" unicode="&#xd4;" horiz-adv-x="1338" 
d="M451 370q3 -4 5.5 -8.5t7.5 -8.5zM1196 625q40 188 -35 314q-103 82 -275 82q-17 0 -50 -13t-82 -40q-235 -125 -291 -389q-15 -70 -10.5 -128t29.5 -110q51 -49 122.5 -73t162.5 -24q81 0 150.5 25.5t125.5 78.5q117 106 153 277zM1223 1437l-25 31q-43 37 -94 121
l-12.5 18t-11.5 19l-60 -76q-38 -48 -71.5 -85t-65.5 -64q26 4 53 5.5t56 1.5q146 0 251.5 -56t175.5 -168q3 -8 10 -17l19 -24l18 -22.5t16 -24.5q62 -103 78 -226.5t-16 -270.5q-63 -297 -278 -503q-233 -222 -528 -222q-287 0 -442 170l-5 7q-5 4 -9.5 9t-7.5 10l-24 29
l-13 13t-12 14q-83 89 -107.5 204.5t6.5 261.5q23 107 66 203t107 185q136 191 322 297q38 47 97 78q-7 4 -13 10t-11 12l-50 62q-23 14 -33.5 40.5t-3.5 58.5q6 27 48.5 88.5t123.5 156.5q60 74 111 131t90 95q38 40 73.5 58.5t63.5 18.5q58 0 188 -193q2 -3 3.5 -4.5
t3.5 -4.5l1 2q11 -19 23 -34l17.5 -26l18.5 -27l10 -12q137 -204 124 -266q-6 -27 -22.5 -55.5t-40 -52.5t-52 -39t-56.5 -15q-23 0 -50.5 19t-59.5 59l-11.5 13t-11.5 14zM1239 625q-39 -185 -168.5 -304.5t-312.5 -119.5q-210 0 -325 125q-119 131 -75 338q60 283 317 421
q107 58 152 58q237 0 349.5 -140.5t62.5 -377.5zM1439 684q60 279 -58 473q-127 208 -398 208q-261 0 -340 -123q-182 -99 -311 -281q-124 -173 -165 -369q-57 -269 93 -435q145 -160 418 -160q280 0 498 208q203 194 263 479zM1399 1606q10 46 -120 241.5t-173 195.5
q-39 0 -101.5 -61.5t-195.5 -221.5q-153 -183 -161 -222q-6 -29 11.5 -49.5t46.5 -20.5q43 0 96 50t123 136l112 145l105 -183q83 -135 132 -135q41 0 79 42t46 83z" />
    <glyph glyph-name="Otilde" unicode="&#xd5;" horiz-adv-x="1364" 
d="M461 370q3 -4 6 -8.5t7 -8.5zM1206 625q40 188 -35 314q-102 82 -275 82q-17 0 -50 -13t-82 -40q-235 -125 -291 -389q-15 -70 -10.5 -128t29.5 -110q51 -49 122.5 -73t162.5 -24q81 0 150.5 25.5t126.5 78.5q116 107 152 277zM1457 1403q-101 -58 -190 -58
q50 -29 90 -69t73 -92q1 -5 3.5 -9t5.5 -8l19 -24q10 -11 18.5 -22.5t16.5 -24.5q61 -103 77 -226.5t-16 -270.5q-63 -297 -278 -503q-233 -222 -528 -222q-287 0 -442 170l-5 7q-5 4 -9.5 9t-6.5 10l-25 29q-6 7 -12.5 13t-12.5 14q-83 89 -107 204.5t7 261.5
q45 211 172 388q136 191 322 297q54 66 145 98.5t228 32.5q20 0 38 -1l36 -2q-45 22 -80 32t-62 10q-46 0 -107 -36q-42 -26 -71 -37.5t-44 -11.5q-53 0 -72 26l-52 63q-49 25 -31 109q12 57 58.5 104t126.5 89q64 32 122.5 48.5t112.5 16.5q76 0 188 -55q48 -24 82 -36
t53 -12q25 0 71 41q78 68 133 68q32 0 53 -16.5t30 -42.5l48 -62q13 -17 17.5 -40.5t-0.5 -47.5q-6 -31 -37 -74h2q-56 -79 -160 -138zM1249 625q-39 -185 -168.5 -304.5t-312.5 -119.5q-210 0 -325 125q-119 131 -75 338q60 283 317 421q108 58 152 58q237 0 349.5 -140.5
t62.5 -377.5zM1449 684q60 279 -58 473q-126 208 -398 208q-261 0 -340 -123q-181 -99 -311 -281q-124 -173 -165 -369q-57 -269 93 -435q145 -160 418 -160q280 0 498 208q203 194 263 479zM1547 1700q7 31 -7 56.5t-45 25.5q-36 0 -98.5 -54.5t-105.5 -54.5
q-49 0 -151.5 51t-171.5 51q-94 0 -214 -60q-136 -68 -154 -155q-16 -75 52 -75q21 0 94.5 42.5t128.5 42.5q63 0 164.5 -51t165.5 -51q80 0 171 51t142 125q25 34 29 56z" />
    <glyph glyph-name="Odieresis" unicode="&#xd6;" horiz-adv-x="1355" 
d="M458 370q3 -4 5.5 -8.5t7.5 -8.5zM1211 1440q-30 17 -39 60q-9 41 1 91q9 41 26.5 81.5t43.5 81.5q79 117 167 117q71 0 82 -53l50 -64q23 -28 10 -87q-8 -36 -28 -88q-11 -27 -17.5 -45t-8.5 -29q-5 -26 -22 -52t-43 -50q-57 -51 -112 -51q-40 0 -59 25zM1203 625
q40 188 -35 314q-103 82 -275 82q-17 0 -50 -13t-82 -40q-236 -126 -292 -389q-15 -70 -10 -128t29 -110q51 -49 123 -73t163 -24q81 0 150 25.5t126 78.5q117 108 153 277zM933 1423q-3 -5 -6 -9.5t-7 -8.5l39 2t40 1q146 0 251.5 -56t175.5 -168q3 -8 10 -17l19 -24
q9 -11 17.5 -22.5t16.5 -24.5q124 -206 61 -497q-32 -149 -101.5 -274.5t-175.5 -228.5q-233 -222 -529 -222q-286 0 -441 170q-5 7 -11 13t-11 13l-24 29l-13 13t-12 14q-83 89 -107.5 204.5t6.5 261.5q23 107 66 203t107 185q136 191 322 297q21 26 49 47.5t64 37.5
q-3 2 -3.5 4t-2.5 4l-51 64q-55 30 -30 146q3 16 14.5 46.5l30.5 78.5q61 155 188 155q35 0 56.5 -14.5t28.5 -43.5l49 -59q27 -34 12 -106q-2 -8 -11 -31t-28 -65h2q-21 -48 -35 -77t-24 -41h-2zM1246 625q-39 -185 -168.5 -304.5t-312.5 -119.5q-210 0 -326 125
q-118 131 -74 338q60 283 317 421q107 58 152 58q237 0 349.5 -140.5t62.5 -377.5zM1445 684q60 279 -57 473q-127 208 -398 208q-261 0 -340 -123q-182 -99 -311 -281q-124 -173 -165 -369q-57 -269 93 -435q145 -160 418 -160q280 0 497 208q203 194 263 479zM926 1722
q20 96 -50 96q-89 0 -139 -122q-39 -95 -43 -116q-24 -112 45 -112q58 0 99 58q15 20 52 107q33 77 36 89zM1448 1753q16 75 -47 75q-61 0 -122 -91q-49 -75 -64 -146q-9 -41 0 -74q12 -42 48 -42q39 0 80.5 38t49.5 78q6 27 27.5 80.5t27.5 81.5z" />
    <glyph glyph-name="multiply" unicode="&#xd7;" horiz-adv-x="1172" 
d="M466 761q0 -4 5 -7zM291 287q-28 17 -39 50.5t-3 72.5q12 52 74 114q14 14 64.5 54l138.5 106l-5 9q-5 4 -7.5 8.5t-5.5 8.5l-32 33t-25 30q-68 87 -54 149q14 63 71 119q34 29 65 44.5t65 15.5q32 0 71 -34l38.5 -40t41.5 -49v2l61 -79q290 217 333 217q64 0 79 -50
l51 -64q24 -32 9 -105q-8 -35 -40 -77.5t-90 -91.5l-38.5 -29.5l-38.5 -29.5q-8 -5 -15 -11.5l-14 -12.5q10 -13 17 -25t13 -25l22 -25l7 -9q57 -72 44 -133q-5 -27 -22 -55t-45 -58q-57 -59 -116 -59q-46 0 -206 170l-13.5 -11t-15.5 -11l-91.5 -72.5l-116.5 -89.5
q-69 -49 -113 -49t-70 32zM1177 985q19 90 -44 90q-29 0 -336 -232q-15 17 -78 97q-47 62 -83 94q-25 24 -47 24q-47 0 -93 -44.5t-56 -91.5q-10 -46 55 -127l96 -107q-208 -159 -241 -191q-50 -48 -58 -87q-8 -36 8 -64.5t50 -28.5q33 0 86 40l268 208q167 -184 203 -184
q43 0 85.5 45t51.5 89q11 48 -45 115l-89 94l155 119q100 85 112 142z" />
    <glyph glyph-name="Oslash" unicode="&#xd8;" horiz-adv-x="1329" 
d="M1196 625q27 129 2 228q-51 -94 -139 -243l-212 -359q56 11 105 34t91 63q117 106 153 277zM498 331l175 299l223 391h-10q-17 0 -50 -13t-82 -40q-235 -125 -291 -389q-14 -66 -12 -122t22 -104q7 -5 13 -11t12 -11zM246 104q-92 89 -123 214t1 274q23 107 66 203
t107 185q136 191 322 297q104 131 373 131q55 0 105 -10l30 57l21 38q72 98 158 98q37 0 60 -14t28 -43l51 -61q11 -14 14 -36t-3 -51q-4 -18 -21 -57.5t-46 -101.5l15.5 -22l15.5 -22l31 -40q32 -39 54 -87t37 -105q42 -165 2 -352q-63 -297 -278 -503q-233 -222 -528 -222
q-29 0 -55.5 2t-52.5 5l-9 -16l-10.5 -18t-9.5 -18l-42.5 -76.5l-43.5 -78.5q-42 -59 -84.5 -88.5t-92.5 -29.5q-56 0 -78 28l-52 64q-24 12 -31.5 38t0.5 63q4 18 38 85t101 185q-11 10 -21 22t-18 24zM1003 1118l-495 -852q-207 128 -150 398q60 283 317 421
q107 58 152 58q94 0 176 -25zM1239 625q-39 -185 -168.5 -304.5t-312.5 -119.5q-53 0 -94 7q390 657 482 830q150 -142 93 -413zM1439 684q39 181 -2 337q-42 169 -168 259q74 155 82 191q16 77 -54 77q-60 0 -113 -72q-25 -37 -66 -126q-62 15 -135 15q-261 0 -340 -123
q-182 -99 -311 -281q-124 -173 -165 -369q-38 -177 18 -318t202 -214q-161 -280 -167 -311q-15 -70 58 -70q74 0 136 92l85 156l47 82q66 -12 132 -12q280 0 498 208q203 194 263 479z" />
    <glyph glyph-name="Ugrave" unicode="&#xd9;" 
d="M938 1442l-10.5 8t-9.5 9q-40 41 -100 205q-63 170 -51 227q14 62 75 119q61 58 127 58q29 0 50.5 -15.5t36.5 -50.5q-2 -3 0 -3l42 -53q6 -8 11.5 -18t10.5 -22q5 -13 7.5 -23t8.5 -28l18 -56l21 -65h1q11 -23 25 -60.5l32 -86.5q13 -38 6 -66q-6 -29 -20.5 -56.5
t-40.5 -56.5q-56 -63 -119 -63q-20 0 -37 8.5t-33 23.5q-2 2 -3 4t-3 5zM468 599q-14 -68 -13 -125t21 -105l6 -4.5l6 -4.5q60 -50 145 -76t199 -26q165 0 256 136q35 53 63 131.5t50 182.5q19 85 27 275q4 95 11 168t18 126q7 31 26 58.5t49 57.5q64 61 127 61q42 0 63 -55
l46 -58q24 -31 33.5 -101t1.5 -184q-6 -101 -16.5 -187.5t-26.5 -160.5q-37 -177 -97 -316t-143 -244q-107 -134 -243.5 -200.5t-307.5 -66.5q-305 0 -464 165l-12 14l-11 13l-27 33l-10.5 10t-10.5 12q-166 178 -100 486q14 67 44 152.5t77 194.5q50 113 93.5 195.5
t81.5 135.5q72 99 148 99q72 0 83 -53l49 -61q1 1 0 1t-1 2l4 -5q20 -27 10 -77q-2 -11 -7 -23t-8 -23q-6 -6 -91 -184l-21 -45.5t-24 -48.5q-79 -160 -104 -275zM1456 794q30 141 42 343q17 274 -48 274q-42 0 -91.5 -46t-58.5 -88q-20 -96 -27.5 -284.5t-28.5 -284.5
q-46 -218 -121 -331q-109 -162 -300 -162q-241 0 -368 111q-141 126 -92 358q25 118 108 285q133 272 135 280q8 16 12 34q14 65 -49 65q-48 0 -103 -75q-78 -106 -172 -322q-90 -209 -117 -337q-61 -286 93 -454q147 -157 439 -157q318 0 516 250q158 199 231 541z
M1135 1606q4 19 -5 49q-35 98 -57 144q-39 123 -60 184q-17 43 -53 43q-46 0 -93 -43.5t-57 -91.5q-9 -43 50.5 -204t91.5 -195q22 -24 48 -24q44 0 85 46t50 92z" />
    <glyph glyph-name="Uacute" unicode="&#xda;" horiz-adv-x="1329" 
d="M890 1418q-48 24 -30 106q12 53 64 116l105.5 124.5l150.5 172.5q75 79 142 79q68 0 80 -52l53 -64q21 -27 9 -91q-14 -59 -150 -227l-109.5 -129t-75.5 -76q-60 -49 -117 -49q-51 0 -70 25zM456 599q-14 -68 -13 -125t21 -105l6 -4.5l6 -4.5q60 -50 145 -76t199 -26
q165 0 256 136q35 53 63 131.5t50 182.5q19 85 27 275q4 95 11.5 168t18.5 126q7 31 25.5 58.5t48.5 57.5q64 61 127 61q42 0 63 -55l46 -58q24 -31 33.5 -101t1.5 -184q-5 -101 -16 -187.5t-27 -160.5q-37 -177 -97 -316t-143 -244q-107 -134 -243.5 -200.5t-307.5 -66.5
q-305 0 -464 165l-12 14l-11 13l-27 33l-10.5 10t-10.5 12q-166 178 -100 486q14 67 44 152.5t77 194.5q99 224 175 331q72 99 148 99q72 0 83 -53l49 -61q1 1 0 1t-1 2l4 -5q20 -27 10 -77q-2 -11 -7 -23t-8 -23q-6 -6 -91 -184q-9 -21 -20.5 -45.5t-24.5 -48.5
q-79 -160 -104 -275zM1444 794q30 141 42 343q17 274 -48 274q-42 0 -91.5 -46t-58.5 -88q-20 -96 -27.5 -284.5t-28.5 -284.5q-46 -218 -121 -331q-109 -162 -300 -162q-241 0 -368 111q-140 126 -91 358q25 118 107 285q133 272 135 280q8 16 12 34q14 65 -49 65
q-48 0 -103 -75q-78 -106 -172 -322q-90 -209 -117 -337q-61 -286 93 -454q147 -157 439 -157q318 0 516 250q158 199 231 541zM1359 1894q16 79 -47 79q-45 0 -101 -60l-255 -297q-45 -53 -53 -92q-16 -73 50 -73q39 0 88 39q57 48 177 196q130 159 141 208z" />
    <glyph glyph-name="Ucircumflex" unicode="&#xdb;" horiz-adv-x="1340" 
d="M1218 1437l-25 31q-43 37 -94 121l-12.5 18t-11.5 19l-60 -76q-77 -96 -138 -150.5t-117 -54.5q-23 0 -42 8.5t-31 23.5l-50 62q-23 14 -33.5 40.5t-3.5 58.5q6 27 48.5 88.5t123.5 156.5q60 74 111 131t90 95q38 40 73.5 58.5t63.5 18.5q58 0 188 -193q2 -3 3.5 -4.5
t3.5 -4.5l1 2q11 -19 23 -34l17.5 -26l18.5 -27l10 -12q68 -102 99.5 -168t24.5 -98q-4 -17 -12 -34.5t-19 -34.5q35 -5 54 -53l46 -58q24 -31 33.5 -101t1.5 -184q-6 -101 -16.5 -187.5t-26.5 -160.5q-37 -177 -97 -316t-143 -244q-107 -134 -243.5 -200.5t-307.5 -66.5
q-305 0 -464 165l-12 14l-11 13l-27 33l-10.5 10t-10.5 12q-166 178 -100 486q14 67 44 152.5t77 194.5q50 113 93.5 195.5t81.5 135.5q72 99 148 99q72 0 84 -51l51 -65q20 -27 10 -77q-2 -11 -7 -23t-8 -23q-6 -6 -91 -184l-21 -45.5t-24 -48.5q-79 -160 -104 -275
q-14 -68 -13 -125t21 -105l6 -4.5l6 -4.5q60 -50 145 -76t199 -26q165 0 256 136q35 53 63 131.5t50 182.5q19 85 27 275q4 95 11 168t18 126q10 45 47 87q-40 12 -86 73l-11.5 13t-11.5 14zM1456 794q30 141 42 343q17 274 -48 274q-42 0 -91.5 -46t-58.5 -88
q-20 -96 -27.5 -284.5t-28.5 -284.5q-46 -218 -121 -331q-109 -162 -300 -162q-241 0 -368 111q-141 126 -92 358q25 118 108 285q133 272 135 280q8 16 12 34q14 65 -49 65q-48 0 -103 -75q-78 -106 -172 -322q-90 -209 -117 -337q-61 -286 93 -454q147 -157 439 -157
q318 0 516 250q158 199 231 541zM1394 1606q10 46 -120 241.5t-173 195.5q-39 0 -101.5 -61.5t-195.5 -221.5q-153 -183 -161 -222q-6 -29 11.5 -49.5t46.5 -20.5q43 0 96 50t123 136l112 145l105 -183q83 -135 132 -135q41 0 79 42t46 83z" />
    <glyph glyph-name="Udieresis" unicode="&#xdc;" horiz-adv-x="1355" 
d="M663 1434q-55 30 -30 146q3 16 14.5 46.5l30.5 78.5q62 155 188 155q71 0 85 -58l46 -58q0 2 -1 2l1 2l3 -5q27 -34 12 -106q-2 -8 -11 -31t-28 -65h2q-21 -48 -35 -77t-24 -41h-1q-54 -78 -136 -78q-44 0 -65 25zM1479 1505q-6 -24 -23 -51h10q42 0 63 -55l46 -58
q24 -31 33.5 -101t1.5 -184q-6 -101 -16.5 -187.5t-26.5 -160.5q-73 -350 -241 -560q-213 -267 -551 -267q-304 0 -463 165l-12 14l-11 13l-27 33l-11.5 10t-10.5 12q-165 179 -99 486q14 67 44 152.5t77 194.5q50 113 93.5 195.5t81.5 135.5q72 99 147 99q73 0 85 -51
l51 -65q20 -26 9 -77q-2 -11 -6.5 -23l-8.5 -23q-5 -6 -90 -184l-21 -45.5t-24 -48.5q-79 -160 -104 -275q-14 -68 -13 -125t20 -105q5 -3 7 -4.5l6 -4.5q60 -50 145 -76t198 -26q165 0 256 136q36 53 64 131.5t50 182.5q19 85 27 275q4 95 11 168t18 126q5 19 14 38t23 37
q-38 0 -57 25l-52 63q-29 17 -38 60q-5 20 -5 42q0 23 5 49q9 41 26.5 81.5t44.5 81.5q77 117 166 117q71 0 82 -55l50 -62q23 -28 10 -87q-8 -36 -28 -88q-11 -27 -17.5 -45t-8.5 -29zM1463 794q30 141 42 343q17 274 -48 274q-43 0 -92 -46t-58 -88q-20 -96 -27.5 -284.5
t-28.5 -284.5q-46 -218 -121 -331q-109 -162 -301 -162q-240 0 -367 111q-141 126 -92 358q25 118 107 285q133 272 136 280q8 16 12 34q14 65 -50 65q-47 0 -103 -75q-77 -106 -171 -322q-90 -209 -117 -337q-61 -286 92 -454q148 -157 440 -157q318 0 516 250
q158 199 231 541zM907 1722q20 96 -50 96q-89 0 -139 -122q-38 -95 -42 -116q-24 -112 44 -112q58 0 99 58q15 20 52 107q33 77 36 89zM1429 1753q16 75 -47 75q-61 0 -122 -91q-49 -75 -64 -146q-9 -41 0 -74q12 -42 48 -42q39 0 80.5 38t49.5 78q6 27 27.5 80.5t27.5 81.5
z" />
    <glyph glyph-name="Yacute" unicode="&#xdd;" horiz-adv-x="1263" 
d="M823 1418q-48 24 -30 106q12 54 65 116l255 297q76 79 142 79q70 0 80 -52l54 -64q11 -14 12.5 -37t-4.5 -54q-14 -61 -150 -227l-109.5 -129t-74.5 -76q-61 -49 -117 -49q-52 0 -71 25zM559 1015q-24 -108 1 -187q57 -48 164 -48q125 0 251 68q62 35 108 77.5t74 96.5
q10 65 20 121t20 103q13 64 63 124q31 36 66.5 53t73.5 17q66 0 88 -61l46 -60q47 -57 9 -234q-8 -39 -18 -98l-24 -139q-11 -78 -21.5 -138.5t-19.5 -100.5q-68 -323 -231 -507q-197 -225 -513 -225q-97 0 -229 27q-78 16 -131 35t-82 41q-13 9 -21 20l-42 53q-2 2 -4.5 3
t-4.5 4q-26 19 -35 43.5t-3 51.5q12 61 66 118q29 32 60.5 47.5t63.5 15.5q5 0 13 -0.5t15 -4.5q128 -40 221 -58.5t151 -18.5q53 0 94.5 8.5t75.5 29t60.5 53t49.5 80.5q5 11 11 25.5t12 32.5q-90 -46 -182.5 -68t-189.5 -22q-230 0 -338 138l-31 37q-17 14 -32 32t-27 38
q-53 78 -64.5 179t15.5 227q79 374 260 374q32 0 54.5 -18t31.5 -45l49 -60q14 -17 18.5 -39t-0.5 -46q-4 -20 -12.5 -45l-19.5 -57q-13 -32 -20 -55.5t-10 -37.5zM1356 695q17 80 41.5 238t41.5 238q48 227 -48 227q-55 0 -100 -51q-39 -45 -51 -101q-20 -94 -38 -227
q-66 -130 -211 -208q-134 -74 -276 -74q-160 0 -227.5 101t-33.5 263q7 32 31 97t31 97q7 31 -9.5 56t-47.5 25q-138 0 -208 -332q-50 -235 45 -378q96 -151 328 -151q291 0 537 209q-48 -227 -88 -311q-55 -114 -130 -157.5t-198 -43.5t-383 78q-12 4 -17 4
q-44 0 -86 -46.5t-52 -92.5q-7 -34 26 -59q50 -40 201 -69q133 -27 223 -27q295 0 478 208q155 178 221 487zM1292 1894q16 79 -47 79q-44 0 -101 -60l-255 -297q-45 -53 -53 -92q-16 -73 51 -73q39 0 87 39q58 48 178 196q129 159 140 208z" />
    <glyph glyph-name="Thorn" unicode="&#xde;" horiz-adv-x="1260" 
d="M740 730q-11 -48 -24 -94.5l-26 -92.5q50 10 101.5 23t108.5 30q191 51 244 71q-61 20 -161 35t-243 28zM832 1104q501 -47 595 -227l43 -53q30 -37 39 -82.5t-2 -96.5q-39 -185 -272 -308t-660 -187q-15 -54 -27.5 -89.5t-22.5 -55.5q-62 -124 -176 -124q-50 0 -69 25
l-50 65q-25 13 -31.5 41.5t2.5 74.5h64l-17 24q-28 3 -3 126l4 16.5t5 19.5q-3 11 -2.5 25t3.5 28l5 13l3.5 9t4 8.5t6.5 12.5l1 1q0 3 0.5 4t3.5 5q8 17 17.5 52t20.5 88t33.5 141l49.5 197q-26 32 -14 82q15 71 70 123q11 42 26.5 92.5t37.5 110.5q75 150 199 150
q51 0 65 -48l51 -63q18 -23 18 -73q-2 -23 -6.5 -52t-11.5 -61zM1208 681q-10 -46 -305 -126q-212 -58 -363 -86q56 191 106 388q589 -48 562 -176zM1403 730q65 304 -704 342q3 15 16 65q9 41 15 66q12 60 16 106q3 63 -36 63q-89 0 -147 -112q-52 -142 -68 -216
q-53 -44 -66 -105q-10 -46 21 -60q-66 -244 -90.5 -360t-37.5 -142q-23 -49 -24 -53q-4 -20 2 -39q-64 -232 -58 -203q-16 -79 47 -79q86 0 135 98q19 39 55 167q851 119 924 462z" />
    <glyph glyph-name="germandbls" unicode="&#xdf;" horiz-adv-x="1439" 
d="M741 541q-49 25 -31 108q11 51 43 93t89 74q20 11 57.5 26t95.5 32q54 18 91.5 32t58.5 26v-2q26 16 43.5 34t22.5 36l-12 4t-14 5h-2q-38 10 -88.5 16t-110.5 6q-115 0 -179 -50q-109 -85 -183 -431q-13 -61 -24.5 -144t-24.5 -189q27 23 59.5 37t67.5 14q21 0 48 -2
t63 -7q37 -4 62.5 -6t41.5 -2q38 0 85.5 8.5t100.5 23.5q113 32 121 70q2 9 -1 19l-7 7q-57 35 -140.5 52.5t-196.5 17.5q-31 0 -51.5 6.5t-32.5 22.5zM1552 959q-15 -69 -54.5 -132t-105.5 -122q15 -11 27.5 -23t24.5 -25l24.5 -33t19.5 -33l31 -38q80 -103 53 -232
q-23 -109 -92 -194.5t-183 -148.5q-185 -101 -405 -101q-194 0 -263 31q-29 11 -43 29l-34 43q-13 -133 -26 -236.5t-29 -178.5q-44 -200 -178 -200q-46 0 -66 26l-52 65q-51 23 -31 114q16 76 28.5 173t22.5 219q12 167 20 266.5t13 131.5q10 76 21.5 147t25.5 138
q29 135 74 247.5t105 203.5q162 243 417 297q66 15 175 15q197 0 309 -73h-1q31 -21 54.5 -46.5t37.5 -54.5l41 -50q68 -87 39 -225zM1467 406q26 123 -59 220q-73 84 -196 122q199 129 235 296q36 168 -96 253q-107 68 -288 68q-102 0 -165 -13q-233 -52 -382 -273
q-117 -174 -172 -434q-28 -131 -47 -281q-8 -65 -33 -396q-18 -243 -51 -398q-18 -82 47 -82q97 0 132 162q35 166 62.5 492.5t62.5 492.5q77 362 201 459q75 60 206 60q127 0 212 -24q137 -39 118 -128q-13 -60 -93 -106q-49 -27 -160 -62t-142 -54q-90 -51 -107 -131
q-16 -77 66 -77q236 0 355 -75q108 -69 92 -144q-14 -66 -159 -111q-113 -34 -200 -34q-36 0 -107.5 8.5t-107.5 8.5q-49 0 -92.5 -39t-54.5 -90q-10 -47 39 -67q67 -29 250 -29q210 0 385 96q207 112 249 310z" />
    <glyph glyph-name="agrave" unicode="&#xe0;" horiz-adv-x="1065" 
d="M1059 1336q2 0 2 -1zM754 695l-90 -150l-112 -188h227q-8 77 -14.5 161t-10.5 177zM35 -51q-46 22 -29 104q6 28 72.5 150t196.5 340l110.5 183.5l112.5 186.5l23 40t25 40l21.5 36t23.5 38l88 153q50 80 101.5 139t104.5 81l-14 21q-6 4 -11.5 9l-10.5 10
q-40 40 -100 204q-32 85 -44.5 142t-6.5 85q7 31 25 61t50 59q31 28 62 43t65 15q58 0 86 -67q0 -3 1 -3l42 -53q6 -8 11.5 -18l11.5 -21q3 -13 6 -23t10 -28q7 -26 16.5 -56.5l20.5 -65.5h2l25 -60t33 -86q10 -42 6 -67q-12 -57 -61 -113q-20 -22 -39 -35t-40 -21l30 -37
l4 -4q16 -20 23 -56q11 -45 16 -103.5t4 -132.5q0 -100 0.5 -156.5t0.5 -73.5h2q14 -121 29 -306t31 -430l1 -1q0 -7 -1 -14t-3 -14q-12 -55 -70 -116q-60 -61 -121 -61q-32 0 -53 27l-47 62q-35 20 -52 80h-23h-37q-22 0 -50 2q-29 1 -49 1h-33h-268q-107 -182 -204 -182
q-26 0 -44.5 6t-28.5 19zM369 314q388 655 420 705q5 -417 39 -705h-459zM1064 130q2 10 2 25q-32 487 -62 727q0 28 -1 234q0 142 -19 229q-14 63 -60 63t-99 -58t-108 -145l-90 -154l-314 -524q-254 -428 -264 -474q-15 -73 53 -73q77 0 178 182h293q28 0 84 -1.5t85 -1.5
q65 0 107 7q14 -176 69 -176q43 0 89.5 47.5t56.5 92.5zM1066 1626q4 19 -5 50q-35 97 -56 143q-41 123 -60 185q-18 42 -54 42q-46 0 -93 -43.5t-57 -91.5q-9 -42 50.5 -203.5t90.5 -195.5q23 -24 48 -24q45 0 85.5 46t50.5 92z" />
    <glyph glyph-name="aacute" unicode="&#xe1;" horiz-adv-x="1072" 
d="M730 695l-90 -150l-112 -188h227q-8 77 -14.5 161t-10.5 177zM11 -51q-46 22 -29 104q12 57 270 490l109.5 183.5l112.5 186.5l23 40t25 40l21.5 36t23.5 38l88 153q48 80 101.5 139t105.5 81l-12 14q-48 22 -30 108q5 26 21.5 55.5t42.5 60.5l105.5 123.5l150.5 173.5
q74 78 141 78q70 0 82 -51l53 -65q20 -27 8 -90q-14 -61 -150 -227l-109.5 -129.5t-75.5 -75.5q-20 -17 -40 -28.5t-39 -16.5l31 -39q15 -19 24 -56q11 -45 15.5 -103.5t4.5 -132.5q-1 -100 -0.5 -156.5t0.5 -73.5h2q14 -121 29 -306t32 -430v-1q0 -7 -1 -14t-3 -14
q-12 -57 -70 -116q-60 -61 -121 -61q-32 0 -53 27l-47 62q-35 21 -51 80h-24h-37q-22 0 -50 2q-29 1 -49 1h-33h-268q-107 -182 -204 -182q-26 0 -44.5 6t-28.5 19zM345 314q388 655 420 705q5 -417 39 -705h-459zM1040 130q2 10 2 25q-32 487 -61 727q-1 28 -2 234
q0 142 -19 229q-14 63 -60 63t-99 -58t-108 -145l-89 -154l-315 -524q-254 -428 -264 -474q-15 -73 53 -73q77 0 178 182h293q28 0 84 -1.5t85 -1.5q65 0 107 7q14 -176 69 -176q43 0 89.5 47.5t56.5 92.5zM1319 1932q16 78 -47 78q-45 0 -101 -59l-254 -297
q-46 -53 -54 -92q-16 -74 50 -74q40 0 88 39q58 48 177 197q130 158 141 208z" />
    <glyph glyph-name="acircumflex" unicode="&#xe2;" horiz-adv-x="1082" 
d="M750 695l-89.5 -150l-111.5 -188h227q-8 77 -15 161t-11 177zM1111 1468q-43 37 -94 121l-12.5 18t-11.5 19l-60 -76q-77 -96 -138 -150.5t-116 -54.5q-23 0 -42.5 8.5t-31.5 23.5l-50 62q-23 14 -33.5 40.5t-3.5 58.5q6 27 48.5 88.5t123.5 156.5q60 74 111 131t90 95
q38 40 73.5 58.5t63.5 18.5q58 0 188 -193q2 -3 3.5 -4.5t3.5 -4.5l1 2q11 -19 23 -34l17.5 -26l18.5 -27l10 -12q137 -204 124 -266q-6 -27 -22.5 -55.5t-40 -52.5t-52 -39t-56.5 -15q-23 0 -50.5 19t-59.5 59l-11.5 13t-11.5 14l23 -27zM32 -51q-47 23 -30 104
q12 57 270 490l110 183.5l112 186.5l24 40l24 40l22 36l23 38l88 153q30 49 62 91.5t64.5 73.5t64.5 48.5t63 17.5q58 0 86 -60l46 -60q16 -19 24 -56q11 -45 16 -103.5t4 -132.5q-1 -100 -0.5 -156.5t1.5 -73.5h1q14 -121 29.5 -306t31.5 -430l1 -1l-2 -14t-3 -14
q-12 -57 -70 -116q-58 -61 -120 -61q-32 0 -53 27l-48 62q-33 20 -51 80h-24h-36t-51 2q-28 1 -48 1h-34h-268q-107 -182 -203 -182q-26 0 -45 6t-29 19zM366 314l419 705q5 -417 40 -705h-459zM1061 130q2 10 1 25q-32 487 -61 727q-1 28 -1 234q-1 142 -19 229
q-15 63 -61 63t-99 -58t-108 -145l-89 -154l-314 -524q-255 -428 -265 -474q-15 -73 53 -73q77 0 178 182h294q27 0 83.5 -1.5t85.5 -1.5q65 0 107 7q14 -176 68 -176q43 0 90 47.5t57 92.5zM1312 1606q10 46 -120 241.5t-173 195.5q-39 0 -101.5 -61.5t-195.5 -221.5
q-153 -183 -161 -222q-6 -29 11.5 -49.5t46.5 -20.5q43 0 96 50t123 136l112 145l105 -183q83 -135 132 -135q41 0 79 42t46 83z" />
    <glyph glyph-name="atilde" unicode="&#xe3;" horiz-adv-x="1155" 
d="M1079 1336q2 0 2 -1zM774 695l-89.5 -150l-111.5 -188h227q-8 77 -15 161t-11 177zM489 1451q-49 25 -31 109q12 57 58.5 104t126.5 89q64 32 122.5 48.5t112.5 16.5q76 0 188 -55q48 -24 82 -36t53 -12q25 0 71 41q78 68 133 68q32 0 53 -16.5t30 -42.5l48 -62
q13 -17 17.5 -40.5t-0.5 -47.5q-6 -31 -37 -74h2q-56 -79 -160 -138q-104 -58 -193 -58q-23 0 -51 5.5t-58 16.5l25 -32l4 -4q16 -19 24 -56q11 -45 15.5 -103.5t4.5 -132.5q-1 -100 -0.5 -156.5t0.5 -73.5h2q14 -121 29 -306t32 -430l1 -1l-2 -14t-3 -14q-12 -57 -70 -116
q-58 -61 -120 -61q-33 0 -53 27l-48 62q-35 21 -51 80h-24h-36t-51 2q-29 1 -49 1h-33h-268q-107 -182 -203 -182q-55 0 -74 25l-52 67q-47 22 -30 104q12 57 270 490l109.5 183.5l112.5 186.5l24 40l24 40l22 36l23 38l88 153q48 76 98 134t99 81q-18 5 -33 8.5t-28 3.5
q-46 0 -107 -36q-42 -26 -71 -37.5t-44 -11.5q-53 0 -72 26zM390 314l419 705q5 -417 40 -705h-459zM1084 130q2 10 2 25q-32 487 -61 727q-1 28 -1 234q-1 142 -19 229q-15 63 -61 63t-99 -58t-108 -145l-89 -154l-314 -524q-255 -428 -265 -474q-15 -73 53 -73
q77 0 178 182h294q27 0 83.5 -1.5t85.5 -1.5q65 0 107 7q14 -176 68 -176q43 0 89.5 47.5t56.5 92.5zM1448 1700q7 31 -7 56.5t-45 25.5q-36 0 -98.5 -54.5t-105.5 -54.5q-49 0 -151.5 51t-171.5 51q-94 0 -214 -60q-136 -68 -154 -155q-16 -75 52 -75q21 0 94.5 42.5
t128.5 42.5q63 0 164.5 -51t165.5 -51q80 0 171 51t142 125q25 34 29 56z" />
    <glyph glyph-name="adieresis" unicode="&#xe4;" horiz-adv-x="1114" 
d="M762 695l-89.5 -150l-111.5 -188h227q-8 77 -15 161t-11 177zM1127 1440q-29 17 -38 60q-5 20 -5 42q0 23 5 49q9 41 26.5 81.5t44.5 81.5q79 117 166 117q71 0 82 -55l50 -62q23 -28 10 -87q-8 -36 -28 -88q-11 -27 -17.5 -45t-8.5 -29q-11 -52 -65 -102
q-56 -51 -111 -51q-40 0 -59 25zM44 -51q-47 22 -30 104q12 57 270 490l110 183.5l112 186.5l24 40l24 40l22 36l23 38l88 153q28 44 56.5 82.5t56.5 67.5q-38 -25 -86 -25q-44 0 -65 25l-50 64q-56 30 -31 146q3 16 14.5 46.5l30.5 78.5q62 155 188 155q35 0 56.5 -14.5
t28.5 -43.5l49 -59q27 -34 12 -106q-2 -8 -11 -31t-28 -65h2q-21 -48 -35 -77t-23 -41h-2q-4 -5 -7 -9.5t-6 -8.5q26 22 52 34t52 12q59 0 85 -60l47 -60q16 -19 24 -56q11 -45 16 -103.5t4 -132.5q-1 -100 -0.5 -156.5t0.5 -73.5h2q14 -121 29 -306t32 -430l1 -1l-2 -14
t-3 -14q-12 -57 -70 -116q-58 -61 -120 -61q-32 0 -53 27l-48 62q-33 20 -51 80h-24h-36t-51 2q-28 1 -48 1h-34h-268q-107 -182 -203 -182q-26 0 -45 6t-29 19zM378 314l419 705q5 -417 40 -705h-459zM1072 130q2 10 2 25q-32 487 -61 727q-1 28 -1 234q-1 142 -19 229
q-15 63 -61 63t-99 -58t-108 -145l-89 -154l-314 -524q-255 -428 -265 -474q-15 -73 53 -73q77 0 178 182h294q27 0 83.5 -1.5t85.5 -1.5q65 0 107 7q14 -176 68 -176q43 0 89.5 47.5t56.5 92.5zM842 1722q20 96 -50 96q-89 0 -138 -122q-39 -95 -43 -116q-24 -112 44 -112
q58 0 99 58q15 20 52 107q33 77 36 89zM1365 1753q16 75 -48 75q-61 0 -122 -91q-48 -75 -63 -146q-9 -41 -1 -74q12 -42 48 -42q40 0 81 38t49 78q6 27 28 80.5t28 81.5z" />
    <glyph glyph-name="aring" unicode="&#xe5;" horiz-adv-x="1130" 
d="M1529 2115q2 -3 2.5 -5.5t2.5 -5.5zM1246 1908q0 2 0.5 6t0.5 8q-26 8 -54 8q-18 0 -40.5 -5.5t-49.5 -18.5h-2l-87 -44q-12 -22 -20.5 -41.5t-12.5 -37.5l-4 -18q14 -5 27.5 -7t30.5 -2q70 0 135 45q61 41 76 107zM750 695l-89.5 -150l-111.5 -188h227q-8 77 -15 161
t-11 177zM742 1526q-12 9 -23 20.5t-20 25.5q-74 104 -43 252q39 182 152 267q25 46 73 85t120 70q65 29 122.5 43.5t110.5 14.5q73 0 130.5 -24.5t100.5 -76.5q12 -14 21.5 -29t17.5 -30l19 -26l0.5 1t-0.5 1l16 -19q72 -93 42 -232q-20 -97 -75.5 -180t-145.5 -156h2
q-85 -70 -170 -105.5t-175 -39.5l44 -57q16 -19 24 -56q11 -45 16 -103.5t4 -132.5q-1 -100 -0.5 -156.5t1.5 -73.5h1q14 -121 29.5 -306t31.5 -430l1 -1l-2 -14t-3 -14q-12 -55 -68 -114l-2 -2q-58 -61 -120 -61q-32 0 -53 27l-48 62q-33 20 -51 80h-24h-36t-51 2
q-28 1 -48 1h-34h-268q-107 -182 -203 -182q-26 0 -45 6t-29 19l-52 67q-47 23 -30 104q12 57 270 490l110 183.5l112 186.5l24 40l24 40l22 36l23 38l88 153q42 66 85 118.5t86 81.5q-20 13 -38 28.5t-33 36.5zM366 314l419 705q5 -417 40 -705h-459zM1288 1908
q-18 -84 -97 -139.5t-165 -55.5q-77 0 -121 40.5t-28 115.5q10 46 46 106l104 51q61 27 107 27q68 0 116 -37q52 -41 38 -108zM1061 130q2 10 1 25q-32 487 -61 727q-1 28 -1 234q-1 142 -19 229q-15 63 -61 63t-99 -58t-108 -145l-89 -154l-314 -524q-255 -428 -265 -474
q-15 -73 53 -73q77 0 178 182h294q27 0 83.5 -1.5t85.5 -1.5q65 0 107 7q14 -176 68 -176q43 0 90 47.5t57 92.5zM1477 1954q28 132 -46 219.5t-206 87.5q-92 0 -213 -54q-136 -60 -172 -140q-105 -72 -141 -243q-28 -131 37.5 -222.5t197.5 -91.5q174 0 340 135t203 309z
" />
    <glyph glyph-name="ae" unicode="&#xe6;" horiz-adv-x="1792" 
d="M752 671l-76 -127l-89 -151h188q-8 61 -13 130.5t-10 147.5zM1158 427q-26 -117 -10 -181q12 -7 27.5 -9.5t33.5 -2.5q40 0 99.5 12.5t140.5 35.5q177 51 267 51q97 0 111 -57l51 -64q8 -13 11 -30t-2 -39q-27 -127 -161 -169q-14 -5 -41 -9.5t-67 -12.5
q-57 -9 -101.5 -19t-81.5 -22q-198 -58 -258 -58q-81 0 -143.5 27.5t-103.5 78.5l-41 51q-16 14 -28.5 29.5t-23.5 35.5h-439l-46 -77l-26 -41q-81 -109 -158 -109q-49 0 -70 26l-51 65q-50 25 -32 110q6 26 149 268l178.5 312.5l253.5 435.5q11 15 19.5 29l16.5 27l21.5 35
l17.5 27q11 19 14 25v-1q0 1 1 2t2 3l62 92t61 74.5t63 50t67 18.5q62 0 85 -63l44 -56q5 -9 10 -19l10 -20q20 24 45 42t52 24q22 11 44.5 19t48.5 8q19 0 30 -5q42 5 157 14t304 20q79 5 120 8t43 3q79 0 89 -53l50 -63q20 -26 10 -75q-24 -110 -139 -146
q-12 -4 -62.5 -9.5t-139.5 -12.5q-74 -6 -165.5 -14.5t-203.5 -21.5l-25.5 -73t-41.5 -106q65 7 132.5 10.5t138.5 3.5q91 0 103 -60l52 -61q10 -14 13.5 -34.5t-2.5 -47.5q-25 -122 -154 -152q-17 -4 -52.5 -8t-92.5 -9q-85 -8 -154.5 -13l-123.5 -9zM403 350l391 655
q-2 -414 33 -655h-424zM1783 229q13 61 -76 61q-83 0 -253.5 -49.5t-253.5 -49.5q-215 0 -147 321q7 36 19 77q113 7 309 24q116 10 140 15q97 22 117 116q16 75 -70 75q-232 0 -427 -36q120 299 139 364q245 27 399 39q170 14 193 21q88 27 106 109q13 63 -53 63
q-4 0 -161 -10q-404 -26 -467 -36q-8 7 -26 7q-37 0 -73 -24q-41 -7 -75 -47t-43 -83q-10 -48 22 -58q-28 -107 -95 -268q-2 26 0 243q0 146 -15 237q-12 65 -60 65q-51 0 -100.5 -60t-105.5 -145q-11 -17 -92 -150l-432 -750q-140 -235 -144 -251q-16 -78 50 -78
q55 0 120 89q16 22 84 138h532q12 -104 86.5 -163t187.5 -59q53 0 246 56q80 24 188 43q88 15 103 21q107 34 128 133z" />
    </font>
</defs>
</svg>
