<svg width="20" height="20" viewBox="0 0 20 20" fill="none" xmlns="http://www.w3.org/2000/svg"><g clip-path="url(#a)"><path d="M10.89 9.927L7.903 7.19 9.777 2.34l-.363-.265a5.93 5.93 0 0 0-7.68.602 5.935 5.935 0 0 0 0 8.383l7.997 7.997-1.299-6.45 2.459-2.68z" fill="#FF415B"/><path d="M18.267 2.678a5.94 5.94 0 0 0-6.743-1.161l-.21.1-2.03 5.248 3.264 2.99-2.849 3.105 1.117 5.552 7.45-7.45a5.935 5.935 0 0 0 0-8.384z" fill="#D10050"/></g><defs><clipPath id="a"><path fill="#fff" d="M0 0h20v20H0z"/></clipPath></defs></svg>