<svg width="23" height="23" viewBox="0 0 23 23" fill="none" xmlns="http://www.w3.org/2000/svg"><g clip-path="url(#a)"><path d="M12.63 11.242c-.335-.557-.364-1.33-.368-1.961-.006-.771.066-1.613.397-2.319.12-.253.286-.52.543-.65.26-.134.553-.075.803.052.4.201.804.53.934.972.136.468-.017.972-.225 1.395-.53 1.083-1.44 1.987-2.338 2.77-.14.121.065.323.202.202.875-.764 1.74-1.632 2.296-2.66.247-.458.448-.985.39-1.515-.059-.54-.393-.93-.823-1.232-.305-.218-.683-.39-1.066-.335-.316.045-.566.244-.752.494-.487.66-.601 1.59-.64 2.383-.023.495-.003.992.071 1.483.056.361.137.745.329 1.064.097.156.341.013.247-.143z" fill="#D67993"/><path d="M12.487 11.68c.605-1.21.969-2.507 1.385-3.788.059-.175-.218-.25-.276-.075-.41 1.256-.764 2.534-1.36 3.72-.078.163.17.31.25.143z" fill="#D67993"/><path d="M12.194 12.015c.072-.386.007-.79-.078-1.167a7.586 7.586 0 0 0-.514-1.463c-.396-.862-.965-1.834-1.814-2.322-.332-.189-.725-.28-1.096-.166-.452.14-.803.53-1.03.93-.586 1.025.038 2.04.848 2.709.943.78 2.156 1.36 3.346 1.645.179.043.254-.23.075-.276a8.706 8.706 0 0 1-2.748-1.226c-.738-.494-1.7-1.327-1.434-2.328.198-.755.963-1.483 1.763-1.119.796.364 1.333 1.259 1.713 2.006.24.479.44.982.576 1.503.097.377.192.803.123 1.193-.039.186.238.26.27.082z" fill="#D67993"/><path d="M12.13 11.967c-.7-.992-1.396-1.994-2.205-2.901-.124-.137-.322.065-.202.202.793.887 1.476 1.87 2.16 2.845.103.146.35.003.246-.146z" fill="#D67993"/><path d="M12.178 11.938c-.368-.03-.745.042-1.102.12-.491.107-.976.257-1.447.433-.885.331-1.85.757-2.508 1.46-.23.247-.439.562-.432.913.006.384.267.69.563.908.41.305.95.582 1.473.536.559-.049 1.053-.367 1.47-.725.575-.494 1.046-1.115 1.443-1.756.345-.556.657-1.151.842-1.782.053-.176-.224-.25-.276-.075-.319 1.086-.992 2.143-1.756 2.97-.374.406-.82.809-1.35.994-.516.182-.959.04-1.417-.224-.29-.166-.64-.41-.7-.764-.045-.283.12-.55.303-.755.585-.653 1.473-1.057 2.273-1.372a10.7 10.7 0 0 1 1.48-.465c.37-.085.76-.166 1.141-.137.185.02.182-.266 0-.28z" fill="#D67993"/><path d="M12.067 11.866c-.796.715-1.6 1.424-2.455 2.071-.143.11-.003.358.143.247.875-.66 1.698-1.382 2.514-2.113.137-.127-.065-.325-.202-.205z" fill="#D67993"/><path d="M12.46 11.742c.284.758.84 1.395 1.295 2.055.446.647.992 1.454.881 2.283-.052.41-.312.91-.708 1.08-.378.159-.748-.101-.986-.378-.345-.403-.494-.936-.601-1.444-.114-.536-.202-1.154-.13-1.703.051-.4.208-.79.312-1.178.068-.253.227-.676.078-.93-.095-.156-.342-.013-.247.144.052.084 0 .256-.02.347a6.295 6.295 0 0 1-.153.592c-.1.348-.237.706-.263 1.07-.049.631.039 1.3.185 1.912.124.507.303 1.011.654 1.411.253.29.618.527 1.018.488.455-.049.79-.442.978-.832.394-.816.056-1.694-.373-2.42-.274-.461-.596-.89-.905-1.326-.276-.39-.569-.794-.738-1.242-.065-.176-.338-.105-.276.071z" fill="#D67993"/><path d="M12.292 11.622c.55 1.2.611 2.553 1.06 3.788.062.173.338.098.276-.074-.458-1.259-.527-2.631-1.09-3.857-.077-.17-.321-.023-.246.143z" fill="#D67993"/><path d="M12.662 11.713c.687-.504 1.324-1.07 2.033-1.541.683-.452 1.61-1.011 2.403-.481.767.513.732 1.674.091 2.276-.572.536-1.483.449-2.195.335-.878-.14-1.76-.446-2.657-.436-.182 0-.185.286 0 .286.878-.006 1.743.296 2.605.43.793.123 1.73.195 2.387-.358.709-.599.849-1.74.257-2.465a1.598 1.598 0 0 0-1.246-.572c-.422.003-.832.185-1.2.383-.959.514-1.752 1.262-2.627 1.9-.143.103 0 .35.15.243z" fill="#D67993"/><path d="M12.26 12.045c1.076-.156 2.113-.52 3.2-.621.181-.017.181-.303 0-.287-1.113.104-2.173.472-3.276.631-.182.026-.107.303.075.277z" fill="#D67993"/><path opacity=".1" d="M11.502 0C17.852 0 23 5.148 23 11.502c0 6.35-5.148 11.501-11.502 11.501C5.144 23.003 0 17.853 0 11.502" fill="#65537A"/><path opacity=".1" d="M0 11.502C0 5.148 5.148 0 11.502 0L0 11.502z" fill="#65537A"/></g><defs><clipPath id="a"><path fill="#fff" d="M0 0h23v23H0z"/></clipPath></defs></svg>