<svg width="20" height="20" viewBox="0 0 20 20" fill="none" xmlns="http://www.w3.org/2000/svg"><path d="M12.488 4.285H1.25c-.69.001-1.249.56-1.25 1.25v11.238c.001.69.56 1.249 1.25 1.25h11.238a1.252 1.252 0 0 0 1.25-1.25V5.533a1.252 1.252 0 0 0-1.25-1.248z" fill="#000"/><path d="M12.8 18.334H1.562C.7 18.334 0 17.634 0 16.772V5.534c0-.863.7-1.562 1.563-1.562H12.8c.863 0 1.563.7 1.563 1.562v11.239c0 .862-.7 1.561-1.563 1.561zM1.562 4.598a.937.937 0 0 0-.937.937v11.238c0 .518.42.937.938.937H12.8c.518 0 .938-.42.938-.937V5.534a.937.937 0 0 0-.938-.937H1.562z" fill="#E04F5F"/><path d="M9.531 13.958L5.014 8.63l.953-.807 3.6 4.246 9.511-10.404.922.843-10.469 11.45z" fill="#fff"/></svg>