<svg width="15" height="13" viewBox="0 0 15 13" fill="none" xmlns="http://www.w3.org/2000/svg"><path d="M.362 4.737C1.21 5.931 3.225 6.938 4.598 7.29c.697.18 2.332.2 1.6-.91-.434-.663-1.47-1.022-2.18-1.291-1.159-.442-2.435-.607-3.656-.352z" fill="#65537A"/><path d="M.065 4.91C.7 5.779 1.63 6.4 2.576 6.876c.8.4 1.69.793 2.594.848.621.035 1.629-.11 1.546-.945-.097-1.02-1.366-1.538-2.18-1.856-1.38-.538-2.795-.807-4.271-.517-.428.09-.248.752.186.662 1.118-.22 2.263-.083 3.326.297.724.262 1.752.552 2.166 1.256.055.09.11.2.09.276.014-.035.014-.014-.007.006a.42.42 0 0 1-.11.063c-.242.096-.539.082-.794.062-.717-.056-1.442-.38-2.077-.69-.876-.421-1.8-.973-2.387-1.773-.255-.352-.855-.014-.593.345z" fill="#65537A"/><path d="M6.343 6.731c-.938-.655-2.16-1.083-3.173-1.518l3.173 1.518z" fill="#65537A"/><path d="M6.516 6.434C5.55 5.765 4.418 5.38 3.342 4.916c-.166-.069-.366-.048-.47.125-.082.145-.047.4.125.476 1.076.455 2.2.848 3.174 1.518.152.103.386.027.469-.125.103-.172.034-.365-.124-.476z" fill="#65537A"/><path d="M6.24 7.007c-1.132-.78-2.843-1.18-4.188-1.615L6.24 7.007z" fill="#65537A"/><path d="M6.412 6.71c-1.27-.862-2.835-1.186-4.27-1.649-.421-.138-.608.532-.187.663 1.387.448 2.884.752 4.105 1.58.373.248.718-.345.352-.594z" fill="#65537A"/><path d="M6.178 7.103c-.87-.345-1.89-.441-2.836-.765l2.836.765z" fill="#65537A"/><path d="M6.267 6.772c-.91-.358-1.904-.448-2.828-.765-.18-.063-.38.069-.428.241-.048.186.069.366.241.428.932.31 1.918.407 2.836.766.172.069.38-.076.428-.242.048-.2-.07-.359-.249-.428zm1.304-.621c.58-1.462-.58-4.553-1.407-5.816C4.749 1.412 5.57 7.4 7.57 6.151z" fill="#65537A"/><path d="M7.902 6.241c.366-.973.11-2.16-.165-3.125C7.447 2.095 7.04 1.06 6.46.163c-.132-.2-.366-.207-.546-.07-.372.298-.558.808-.662 1.257a6.366 6.366 0 0 0-.124 1.842c.041.627.145 1.262.345 1.856.165.476.393.972.78 1.304.441.372 1 .393 1.49.096.38-.228.034-.828-.345-.593-.159.096-.255.13-.414.124.076.007-.159-.048-.104-.028a.629.629 0 0 1-.165-.103c-.29-.255-.462-.649-.594-1.028-.324-.973-.427-2.104-.241-3.119.083-.434.207-.869.531-1.124-.18-.02-.359-.048-.545-.07.538.829.91 1.767 1.187 2.712.255.876.524 1.946.186 2.836-.159.42.51.6.662.186z" fill="#65537A"/><path d="M7.323 6.269c.028-.794-.248-1.987-.338-2.719l.338 2.719z" fill="#65537A"/><path d="M7.668 6.269c.014-.476-.062-.96-.131-1.435-.035-.235-.076-.463-.117-.697-.021-.104-.035-.214-.056-.324l-.02-.166c-.007-.062.007.048 0-.014 0-.027-.007-.055-.007-.083-.021-.186-.145-.345-.345-.345-.173 0-.366.16-.345.345.11.918.359 1.801.338 2.719-.02.448.67.448.683 0z" fill="#65537A"/><path d="M7.15 6.124c-.35-1.166-.648-2.664-.89-3.898l.89 3.898z" fill="#65537A"/><path d="M7.489 6.027c-.38-1.276-.635-2.587-.89-3.898-.083-.434-.753-.248-.663.187.255 1.303.504 2.621.89 3.898.124.42.787.241.663-.187z" fill="#65537A"/><path d="M6.978 6.041c-.49-.304-.718-1.118-.876-1.621l.876 1.621z" fill="#65537A"/><path d="M7.15 5.744c-.013-.013-.034-.02-.048-.034-.048-.035.042.041.014.014-.028-.028-.055-.049-.083-.076-.02-.028-.048-.049-.069-.076-.007-.007-.048-.055-.014-.014.042.041 0-.007-.013-.014a3.125 3.125 0 0 1-.235-.42.474.474 0 0 1-.02-.056c.013.035.02.055.006.007-.014-.034-.027-.076-.041-.11a4.237 4.237 0 0 1-.076-.221 9.419 9.419 0 0 1-.131-.414c-.055-.172-.249-.304-.428-.241-.172.055-.297.241-.241.42.207.656.414 1.435 1.028 1.829a.346.346 0 0 0 .469-.124.346.346 0 0 0-.118-.47zM7.599 8.4c.22-1.752 2.263.815 2.546 1.325.455.89.786 1.98.793 2.933-1.187-.477-3.926-2.802-3.36-4.34" fill="#65537A"/><path d="M7.93 8.49c.014-.096.028-.186.062-.276.02-.062-.007.021.014-.034.007-.014.02-.035.028-.048-.014.02-.035.04-.007.006.034-.041-.014.007-.014.007l.027-.02c-.055-.007.014.02.014 0 0 .048-.069-.042 0 .007.035.02-.048-.021.035.006.027.014.062.021.09.028.034.014-.007-.007-.014-.007.02.007.041.02.055.028.069.041.138.076.2.124.124.083.248.2.38.324.544.518.958 1.028 1.255 1.725.304.718.51 1.504.531 2.284l.435-.332c.069.028-.055-.027-.07-.027l-.13-.062a6.4 6.4 0 0 1-.814-.524 8.355 8.355 0 0 1-1.132-1.022 4.676 4.676 0 0 1-.848-1.2c-.173-.359-.242-.718-.118-1.07.145-.42-.517-.6-.662-.186-.269.78.124 1.615.573 2.236.538.752 1.22 1.386 1.973 1.925.331.234.683.448 1.062.6.207.083.442-.131.435-.332-.014-.814-.214-1.62-.517-2.373-.18-.441-.373-.835-.663-1.214a7.203 7.203 0 0 0-.897-.994c-.296-.269-.648-.558-1.055-.614-.532-.069-.828.373-.89.849-.028.186.041.373.241.428.159.041.393-.055.421-.242z" fill="#65537A"/><path d="M7.813 8.063c.862.676 1.366 1.807 2.028 2.69l-2.028-2.69z" fill="#65537A"/><path d="M7.564 8.304c.87.69 1.325 1.739 1.974 2.622.11.152.296.227.469.124.145-.09.234-.324.124-.47-.683-.924-1.166-2.034-2.084-2.759-.145-.117-.345-.145-.49 0-.11.117-.137.366.007.483z" fill="#65537A"/><path d="M7.599 7.863c.241.69.876 1.835 1.256 2.407L7.599 7.863z" fill="#65537A"/><path d="M7.268 7.952c.158.456.38.89.6 1.318.214.4.442.8.69 1.18.103.159.303.22.469.124.152-.09.228-.317.124-.47a19.161 19.161 0 0 1-.676-1.144c-.11-.214-.22-.428-.324-.649-.028-.048-.048-.103-.07-.152-.013-.027-.02-.048-.034-.076 0-.007-.034-.082-.02-.048.013.041-.014-.034-.021-.041-.007-.021-.02-.049-.028-.07-.02-.048-.034-.096-.055-.144-.062-.173-.234-.29-.428-.242a.332.332 0 0 0-.227.414zm.71-.635c1.539 1.104 5.264 1.511 6.644.283-1.814-1.952-4.746-1.752-6.554-.593" fill="#65537A"/><path d="M7.806 7.614c1.021.718 2.373.987 3.601 1.063 1.166.069 2.54-.042 3.464-.842.145-.124.124-.359 0-.49-1.808-1.897-4.816-2.008-6.975-.648-.373.234-.028.834.345.593 1.904-1.2 4.54-1.145 6.133.538v-.49c-.793.683-2.077.704-3.063.628C10.227 7.89 9.048 7.635 8.15 7c-.359-.234-.704.366-.345.614z" fill="#65537A"/><path d="M7.965 7.104c1.373-.36 3.767-.442 5.133-.463l-5.133.463z" fill="#65537A"/><path d="M8.054 7.435c1.622-.414 3.374-.421 5.037-.449.441-.007.441-.697 0-.69-1.725.028-3.54.049-5.223.476-.428.11-.248.773.186.663z" fill="#65537A"/><path d="M8.082 7.172c.745-.006 2.2.07 2.946.063l-2.946-.063z" fill="#65537A"/><path d="M8.082 7.518c.98-.007 1.966.069 2.946.062.441 0 .441-.69 0-.69-.98.007-1.966-.07-2.946-.062-.442.006-.449.696 0 .69z" fill="#65537A"/><path d="M8.22 6.759c1.904-1.304 3.077-3.07 3.422-5.354-2.442.227-4.25 3.215-3.884 5.54" fill="#65537A"/><path d="M8.392 7.062c1.911-1.331 3.215-3.242 3.588-5.56.034-.2-.09-.463-.331-.435C8.903 1.35 7.047 4.44 7.433 7.04c.028.187.262.283.428.242.2-.055.27-.242.242-.428-.318-2.125 1.283-4.87 3.546-5.105l-.331-.435c-.338 2.139-1.49 3.919-3.27 5.147-.366.255-.021.849.344.6z" fill="#65537A"/><path d="M7.633 6.938C8.29 5.462 9.551 4.42 10.4 3.068l-2.767 3.87z" fill="#65537A"/><path d="M7.937 7.11c.662-1.462 1.918-2.532 2.767-3.87.241-.38-.36-.725-.594-.345-.848 1.345-2.104 2.408-2.766 3.87-.076.173-.049.373.124.47.145.082.386.048.469-.125z" fill="#65537A"/><path d="M7.716 6.917c.78-.593 1.456-1.249 1.973-2.07l-1.973 2.07z" fill="#65537A"/><path d="M7.889 7.214c.814-.621 1.552-1.325 2.097-2.194a.347.347 0 0 0-.124-.47.346.346 0 0 0-.47.125 6.045 6.045 0 0 1-.192.29c-.035.048-.07.096-.104.138 0 0-.062.083-.028.041-.013.02-.027.035-.041.055a6.8 6.8 0 0 1-.47.532c-.158.158-.33.317-.503.469l-.269.227c-.048.035-.09.076-.138.11-.02.022-.048.035-.069.056-.055.041.014-.014-.041.034-.145.11-.235.304-.124.47.096.138.324.234.476.117z" fill="#65537A"/><path d="M7.654 7.014c.393-1.38.897-2.615 1.821-3.657l-1.82 3.657z" fill="#65537A"/><path d="M7.985 7.11c.359-1.262.856-2.504 1.732-3.504.29-.332-.193-.821-.49-.49-.959 1.09-1.518 2.421-1.911 3.808-.117.428.545.607.67.186zm-.917.621c-2.394-.282-4.002 2.291-4.278 4.347 1.96-.324 3.974-2.235 4.222-4.25" fill="#65537A"/><path d="M7.068 7.386c-2.546-.276-4.299 2.36-4.616 4.595-.034.276.152.476.428.428 2.187-.38 4.18-2.366 4.47-4.581.028-.186-.179-.345-.344-.345-.207 0-.318.159-.345.345-.131.973-.697 1.863-1.387 2.532-.704.69-1.594 1.207-2.574 1.38l.428.428c.27-1.946 1.69-4.34 3.947-4.092.186.021.345-.172.345-.345-.007-.207-.166-.324-.352-.345z" fill="#65537A"/><path d="M6.902 7.897c-.807.642-1.538 1.27-2.104 2.063l2.104-2.063z" fill="#65537A"/><path d="M6.654 7.649c-.794.634-1.56 1.297-2.16 2.132-.103.144-.027.393.124.469.18.096.36.034.47-.124.075-.11.117-.16.186-.242.076-.09.152-.186.234-.27.16-.178.332-.35.504-.51.359-.338.745-.655 1.132-.959.144-.11.124-.372 0-.49-.152-.144-.339-.124-.49-.006z" fill="#65537A"/><path d="M6.964 8c-.462.525-.745 1.084-1.228 1.525L6.964 8z" fill="#65537A"/><path d="M6.723 7.759c-.235.27-.442.552-.649.842a3.343 3.343 0 0 0-.138.193c-.014.014-.02.027-.034.041-.028.035.041-.048 0 0-.028.028-.049.062-.076.09a4.078 4.078 0 0 1-.331.359.354.354 0 0 0 0 .49.354.354 0 0 0 .49 0c.248-.235.455-.504.662-.78.096-.131.186-.262.283-.393.027-.035.048-.07.076-.097.02-.027.013-.02 0 .007.013-.02.027-.034.04-.055.056-.07.111-.138.173-.207.118-.138.145-.359 0-.49-.138-.117-.372-.145-.496 0z" fill="#65537A"/><path d="M6.943 7.683c-.758.338-1.648.828-2.2 1.497l2.2-1.497z" fill="#65537A"/><path d="M6.764 7.38c-.828.372-1.676.841-2.27 1.552-.117.138-.145.352 0 .49.131.117.366.145.49 0a3.55 3.55 0 0 1 .455-.456 2.4 2.4 0 0 0 .118-.096c-.014.014.034-.02.034-.028.02-.02.048-.034.076-.055a4.08 4.08 0 0 1 .283-.193 8.846 8.846 0 0 1 1.159-.614c.166-.076.22-.325.124-.47-.103-.172-.29-.206-.469-.13z" fill="#65537A"/><path d="M8.047 7.462c.242.152.47.228.656.138-.214-.2-.476-.434-.635-.6.248-.18.545-.331.814-.435-.276-.103-.697.035-.993.187.027-.256.062-.635.09-.89-.152.241-.511.234-.539.49-.338-.214-.414-.477-.814-.594-.028.255 0 .538.18.787a4.255 4.255 0 0 0-.973-.07c.227.284.676.428.876.753-.393.09-.897.248-1.11.586.448.145.855-.069 1.365-.02.042.365.483.096.621.524.338-.324-.096-.062.02-.462.242.151.567.282.787.358a1.58 1.58 0 0 0-.42-.738" fill="#65537A"/><path d="M7.875 7.766c.269.165.607.297.917.172.228-.09.36-.386.152-.58-.214-.2-.434-.392-.634-.6-.021.18-.049.36-.07.546.228-.16.47-.297.732-.4.31-.125.338-.553 0-.663-.421-.138-.89.035-1.263.22.173.097.345.201.518.298.027-.297.055-.594.09-.89.013-.152-.118-.297-.256-.332a.354.354 0 0 0-.386.16.45.45 0 0 1-.097.061c-.055.035-.117.062-.172.097-.145.096-.276.234-.304.414.166-.07.338-.138.504-.207-.138-.09-.242-.214-.359-.325a1.346 1.346 0 0 0-.538-.303c-.228-.083-.421.11-.435.324-.027.338.035.683.228.966.131-.166.262-.338.386-.504a4.203 4.203 0 0 0-1.062-.09c-.304.021-.442.36-.242.594.131.152.297.262.463.373.13.09.276.179.358.31.07-.165.138-.338.207-.504-.496.11-1.014.297-1.317.739-.125.193.006.448.207.503.49.145.965-.048 1.455-.007a9.159 9.159 0 0 1-.33-.255c.034.22.2.38.406.449.062.02.131.027.193.055.007 0 .021.007.028.007-.035-.014-.035-.014 0 .007 0-.007-.041-.083-.007.006.09.242.38.345.58.152.158-.158.317-.365.179-.6a.34.34 0 0 0-.173-.152c-.062-.027.042.042.056.07.02.123.034.151.034.089-.007.041 0 .034.007-.014-.166.07-.338.138-.504.207.27.166.573.297.87.393.255.083.483-.179.427-.427a1.947 1.947 0 0 0-.503-.89c-.318-.31-.807.172-.49.49.166.158.276.358.331.586l.428-.428a3.257 3.257 0 0 1-.704-.324c-.186-.117-.455-.007-.503.207-.042.159-.049.331.04.476a.476.476 0 0 0 .16.152c.103.062-.007.007-.049-.076-.013-.055-.034-.117-.048-.173-.007-.069.028-.138.055-.158-.027.02-.055.062-.083.082.194.049.387.104.58.152-.09-.234-.228-.407-.47-.49-.061-.02-.13-.034-.192-.055-.062-.02.034.035-.014-.007.083.076.083.131.062.028-.028-.159-.193-.242-.331-.255-.421-.035-.863.158-1.277.034.07.166.138.338.207.504.18-.27.608-.359.904-.428.207-.048.324-.324.207-.504a1.839 1.839 0 0 0-.497-.483c-.151-.11-.31-.2-.441-.345-.083.194-.166.394-.242.587.297-.02.587.007.877.055.269.048.572-.235.386-.504-.131-.193-.152-.386-.131-.614l-.455.345c.137.042.22.118.324.214.13.124.255.242.407.345.172.11.469.007.503-.207.014-.083 0-.007-.013 0-.035.007.048-.02 0 0 .055-.027.103-.055.158-.09.145-.082.263-.179.36-.317-.215-.055-.429-.11-.643-.172-.027.296-.055.593-.09.89-.027.283.311.4.518.296.214-.103.497-.227.732-.151v-.663a4.21 4.21 0 0 0-.897.47c-.18.13-.235.372-.07.544.208.207.422.4.635.6.049-.193.104-.386.152-.579-.138.055-.255-.027-.386-.103-.38-.228-.725.365-.345.6z" fill="#65537A"/><path d="M7.22 7.27c.441 0 .441-.69 0-.69-.449 0-.449.69 0 .69z" fill="#65537A"/><path d="M7.357 7.856c.442 0 .442-.69 0-.69-.448 0-.448.69 0 .69z" fill="#65537A"/><path d="M7.626 7.393c.442 0 .442-.69 0-.69-.441 0-.441.69 0 .69zm-.676.387c.442 0 .442-.69 0-.69-.448 0-.448.69 0 .69z" fill="#65537A"/><path d="M6.902 7.186c.442 0 .442-.69 0-.69-.448 0-.448.69 0 .69z" fill="#65537A"/><path d="M7.102 6.903c.442 0 .442-.69 0-.69-.448 0-.448.69 0 .69z" fill="#65537A"/><path d="M7.544 6.91c.441 0 .441-.69 0-.69-.442 0-.442.69 0 .69zm-.028.76c.442 0 .442-.69 0-.69-.441 0-.441.69 0 .69z" fill="#65537A"/><path d="M7.84 8.062c.442 0 .442-.69 0-.69-.448 0-.448.69 0 .69z" fill="#65537A"/><path d="M7.82 7.573c.441 0 .441-.69 0-.69-.442 0-.442.69 0 .69z" fill="#65537A"/><path d="M7.31 7.573c.44 0 .44-.69 0-.69-.442 0-.442.69 0 .69z" fill="#65537A"/><path d="M7.364 8.235c.442 0 .442-.69 0-.69-.441 0-.448.69 0 .69z" fill="#65537A"/></svg>