<svg width="233" height="53" viewBox="0 0 233 53" fill="none" xmlns="http://www.w3.org/2000/svg"><path d="M6.142 17.795c.07-.06.3.13.51.43l.22.23.15.15c.14-.22.33-.5.41-.61h.08l.33-.01c.36.12.57.23.46.24-.11.02-.48.29-.49.56-.01.26.05 1.03.17.8.11-.23.45-.62.52-.41l.1.14c.21.31.93.28 1.12-.04l.04-.07c0-.1-.06-.35-.14-.56-.08-.21-.2-.86-.09-.97.11-.1.51-.39.47-.22-.04.17.02.57.23.51.2-.06.84-.44.83-.68l.04-.25c.01-.09.12-.23.2-.24l.09-.01c.11.09.64.48 1.17.87l.48-.11.25-.06c.15.15.09.31-.15.36-.23.05.03.65.47.49l.14-.28.15-.29c-.09-.52-.01-.84.18-.72.2.12.9.57 1.15.71l.12-.05c.07-.03.15-.06.21-.09l.04-.02c.03-.04.25.11.48.32.23.22-.28 1.5-.26 1.56l.02.01.19.05c.21.04.55-.15.75-.44l.02-.26.02-.29c.1-.26.3-.57.43-.69.14-.12-.52-.62-.61-.62-.09 0-.35-.18-.16-.37.19-.19.68-.75.68-.85v-.09c0-.04-.01-.11.01-.13.16-.13.31-.33.49-.37.24-.04.49.01.66-.25.18-.29.32-.17.56-.01l.18.12c.31-.04.29-.38-.06-.75l-.03-.54-.02-.35c-.25.15-.48.1-.52-.12l-.04-.2v-.01c-.07 0-.19-.2-.28-.45l-.09-.23c-.03-.09.14-.39.25-.48l.15-.13c.19-.19.35-.22.37-.06.02.16.3.49.59.26.28-.23.93-1.17 1.16-1.3l.03.21c.07.44.15.52.54.29.3-.18.65-.29.99-.35.2-.04.47-.12.55.31.03.2.38.36.6.49.07.04.3-.02.32-.09.2-.57.73-.66 1.15-.91l.39-.24c-.04-.47-.15-.73-.25-.58-.1.15-.44.14-.54-.35l-.14-.42c-.07-.21-.26-.47-.44-.52l-.15-.04c-.24.22-.36.43-.26.47.1.05.3.21.2.26-.1.04-.27.24-.06.28l.1.08.07.06c.01.15-.06.27-.15.26l-.08.02-.34.1c-.37.13-.78.39-.92.58l-.26-.18a.787.787 0 0 0-.42-.12l-.55.03c.06-.34.16-.67.23-.75l-.01-.06a.676.676 0 0 0-.13-.33c-.04-.04-.18-.04-.24 0l-.17.13c-.19.2-.57-.17-.85-.82l-.58.14-.44.14c-.52.35-1.13.37-1.37.05l-.25-.15-.26-.15c-.41-.05-.45-.42-.07-.83l.6.3.18.09c.33-.26.67-.56.74-.69.06-.11.72.29 1.07.58l.57-.51.1-.08c.14-.14.1-.27-.09-.29-.19-.03-.81-.16-.67-.22.14-.05.42-.36.34-.57-.08-.21-.16-.83.07-.72l.15.1.24.17c.19.27.34.54.33.61l-.01.06-.02.09c-.02.1.1.15.27.11l.08-.1c.06-.08 0-.26.03-.38l.07-.33c.24.08.37.3.29.5-.08.2-.31.75-.31.78 0 .03.13.1.3.11.17.01.53-.12.46-.29l.02-.12.03-.19c.42.01.86-.28.98-.63l-.5-.24c-.07-.04-.29.06-.3.12-.02.12.05.37.1.37l.24.01c.07.19.21.45.32.57.11.12-.28-.32-.54-.47-.26-.16-.68-.44-.72-.52-.04-.08.1-.35.37-.46.27-.11 1-.45 1-.48 0-.03-.21-.13-.46-.15l-.19-.08c-.21-.09-.4-.26-.58-.41l-.04-.03c.02-.12.12-.22.22-.22l.08.02.29.08c.32.03.87-.21 1.23-.52l.49.2.39.16c.5-.07.78 0 .63.15-.15.15-.26.51.08.48.34-.02.72-.89.75-.92.03-.03.38-.16.68-.2l.27.06c.26.05.51.18.77.28l.04.01c.09.01.16.17.16.34-.01.17.12.76.31.64.18-.11.64-.31.67-.23.03.08.25.3.31.07.05-.23-.02-.79-.02-1.07s.2-.77.33-.64c.12.14.64.27.84-.05l.16-.03c.59-.12 1.23-.04 1.77-.26.46-.19.71-.19 1.01.2l.19.24c.17-.21.38-.47.46-.59l.09-.02.63-.1c.73-.1 1.34-.05 1.36.1.02.15.28.53.52.55.25.02.67-.72.89-.91l.17-.18c.26-.26.31.12.42.22.28.26.46.4.58-.13.07-.29.26-.21.47-.09.29.17.65.56.81-.17.02-.08.43-.13.64-.09.59.12.71.14 1.11-.01.22-.09.41-.25.69-.01.12.1.5-.13.76-.21l.44-.13c.11.37.29.6.39.51.1-.09.44-.22.45-.01.02.21.11.49.18.2.07-.29.54-.86.64-.71.1.15.63.37.89.09l.25-.08c.45-.14.94-.17 1.41-.23.68-.09 1.4.28 2.06-.15.03-.02.16.07.16.1-.07.59.52.4.75.64.12.12.57-.12.88-.2l.04-.01c.05.01 0 .18-.11.4-.11.21-.11.83.24.89.35.06 1.26-.17 1.35-.17h.16c.09 0 .46.28.82.62l.31-.44.25-.37c-.37-.25-.68-.62-.7-.82-.02-.2.26-.6.67-.33l.43-.43c.06-.06.35.12.52.2l.21.09c.14-.15.29-.31.35-.36.06-.05.34-.12.51-.06.16.06.77-.19.93-.33.16-.14 1.02.19 1.49.11l.26-.2c.09-.07.3-.13.32-.11l.3.54c.56.01 1.17.05 1.35.08l.15-.05c1.08-.39 2.11-.63 2.87-.39l.46.15c.38-.17.93-.22 1.24-.13l.27-.05.25-.04c.25-.22.75-.43 1.1-.45l.34.24c.26.19.77.23 1.06.09.46-.24.78-.19 1.23.01.3.13.76-.16 1.13-.13l.76.07c.47-.12.96-.22 1.08-.23.12-.01.51.03.43.11-.07.06-.1.29.04.38l.06-.04.21-.13c.2-.19.41-.29.45-.23l.04.06c.16.24-.45.37-.11.57l.22.13c.07-.26.15-.52.18-.57h.02l.23.02c.26.04.56-.03.67-.15.11-.12.42-.03.44.44l.6-.41c.17-.12.53-.18.66-.07.22.17.32.18.46-.03.18-.26.3-.21.56-.03l.33.23c.05-.36.33-.5.61-.31.28.19 1.43.45 1.92.17l.55.04c.32.02.65-.09.98-.08.32.01.64.15.95.14l.31-.01c.32-.1.9-.21 1.29-.24l.23.11.32.15c.27-.09.66-.08.86.02.2.1.98-.04 1.23 0l.26-.09c.16-.06.41.18.64.24.05.01.15-.15.22-.23l.06-.07c.06-.09.36-.17.66-.19.3-.02 1.06.62 1.27.71.21.09.94.09 1.05 0 .1-.09.43-.29.45-.21.01.09.11.31.19.34l.02-.02c.27-.29.55-.44.97-.44h.4c.44-.22.87-.38.96-.35v.02c.01.44.15.57.52.28l.05-.04c.07-.01.42.03.79.08.36.05 1.47-.22 1.65-.09.18.14.74.45.81.38.08-.07.43-.23.52-.09.09.14.8.28 1.37-.01.57-.29 2.33.06 2.4-.02.08-.08.35-.27.41-.24l.05.03c.19.11.21.5.65.21.26-.17.82.14 1.23.26.1.03.2.24.26.22.3-.09.38-.74.9-.33l.22.17c.35-.01 1.22-.1 1.92-.2h.64c.51 0 1.03-.04 1.57.18l.34.14c.56-.3.88-.37.71-.16-.18.22.43.56.37.69v.12l.01.14c.07.15.2.24.27.2.07-.04.25-.48.34-.84l.17-.25c.16-.24.37-.61.8-.21.14.13.56-.08.85-.12l.27-.04c.31.05.7.09.86.09.17 0 .78.06 1.17-.08l.36.29.44.36c.22-.41.5-.53.6-.27l.11.01.58.07c-.05-.46-.08-.76-.06-.68.02.08.39.36.75.32l.27.13.33.16c.28-.12.58-.23.65-.23l.03-.04.08-.11c.06-.14.38-.35.7-.47l.14.46.03.09c.17.04.49.1.73.13.23.03.79.3.83.19.04-.11.33-.06.56.3l.44-.2c.21-.09.4-.26.63-.34l.12-.04c.16.06.42.09.59.08.17-.01.63.31.72.46.09.15.56.28.84-.06l.46.07c.11.02.25-.4.4-.42.21-.03.43.17.66.2l.58.09c.57-.33 1.09-.41 1.16-.17.07.24.48.84.75.8.28-.04.9-.58.99-.57l.06-.04.36-.22c.28.23.79.39 1.14.34l.32-.04c.16-.02.33-.01.49.03l.56.14c.26-.23.5-.28.53-.1l.02.14.02.12c.03.18.42.12.87-.12l.35-.25c.1-.07-.46-.27-.02-.39.29-.08.26.36.31.37.36.11.64.78 1.14.21.05-.06.41.26.62.25l.73-.03c.8-.07 1.72-.12 2.05-.12l.22.15c.39.26.49.14.56-.27l.01-.04c.22 0 .72.09 1.11.19l.35.02c.46.03.96.05 1.25.17l.14.05c.16.04.24-.03.19-.17l-.02-.13c0-.02.15-.12.19-.1.14.06.29.15.4.26.22.23.39.46.71.11.09-.09.32-.02.46-.08.24-.09.45-.29.66.07l.12.21c.21.2.5.29.65.2l.09-.08c.46-.42.96-.52 1.56-.31.37.13.73.46 1.19.08.18-.15.62-.1.85.03.22.12.4.32.65.25l.26-.08c.23-.13.4-.35.37-.48-.03-.13.06-.46.26-.45l.09.1.18.2c.14.28.46.55.69.61.24.06 1.04-.2 1.26-.29.23-.09.87.39.98.54.11.15.65-.06.8.08l.26-.26.18-.18c.32.21.73.37.91.37.18 0 .53-.31.64-.1.11.2.76.1 1.03.03s1.14.36 1.41.38c.28.02.86-.29 1.01-.39l.01.02c.27.35.56-.02.8.04l.29.07c.3.24.55.14.57-.23l.47.18c.28.1.59.11.86.18.58.16 1.11.31 1.56-.26l.06-.08 1.08-.07.4.33.32.26c.14-.43.31-.68.38-.56s.37.54.54.7l.2-.27.68-.25c.27.17.54.33.8.51.36.25.66.36 1.03-.06l.23-.26c.41.06.88.17 1.04.24.16.07.49-.37.61-.39l.02.04.08.14c.06.19.31.23.56.08l.24-.04c.18-.03.42.16.59.11.25-.08.43-.45.72-.05.14.2.37-.35.55.04.02.04.39-.01.4-.05.11-.65.31-.33.64-.16l.38.18c.51-.03 1.19.07 1.51.23l.33-.29c.02-.02.18.09.18.13 0 .12-.03.27-.1.34l-.07.07c-.16.01-.24.11-.17.22.06.1.67.18 1.13-.19.46-.37 1.47-1.54 1.49-1.37.02.17.46.54.95.54l.42.01c.44.01.88-.3 1.29.14l.04.05c.11-.02.75-.08 1.43-.13l.61-.11c.27-.05.53-.22.79-.21.22 0 .44.26.64.24l.26-.02c.31-.19.82-.32 1.13-.31.31.02 1.12.42 1.38.1l.46.08.26.05c.3-.12.72-.27.93-.32l.08.08c.42.42.96.16 1.4.32l.42.16c.44-.1 1.11-.08 1.49.05l.39.01c.17 0 .34.16.52-.03l1.33-.26c.06.02.12.03.18.05.01 0 .73-.09.74-.09l.22.04c.26-.03.62.01.79.08.17.07.81-.19.97-.27.16-.08.82.2 1.09.3l.28-.2c.18-.13.51-.05.66-.2l.14-.14c.08-.29.15-.38.14-.2l.05.14c.04.12.16.27.27.3.17.06.33-.41.58-.02l.07.11c.28-.02.54-.16.56-.31.03-.15.23-.28.41-.04.18.23.75.72.9.59.15-.13.48.42.55.66l.23-.11c.11-.05.12-.36.18-.55l.01-.04c.02-.04.44-.18.95-.31l.46-.08.49-.08c.54-.1 1.23-.22 1.52-.27.3-.05 1.11.37 1.26.32l.15-.03.23-.04c.33-.03.46.07.29.24l-.03.1-.03.11c.03.14.21.26.4.27l.09-.08c.37-.35.36-.37.53.03.08.18.24.46.18.53-.16.2-.23.31 0 .48l.26.2c.29.24.27.53-.05.66s-1.11 1.16-.94 1.96l1.01.01h.06c.05.22-.01.69-.13 1.04-.13.35-.95.98-1.03 1-.08.03-.19.2-.15.36.04.16-.19.67-.6.76l-.35-.22-.08-.05c-.2.14-.4.39-.45.54-.05.16.17.76.68.92l.22-.71c0-.01.31.03.31.06.03.48.33.5.68.47l.47-.03c.21.39.36.74.34.77l-.03.03c-.18.2-.38.44.03.55l.11.03c.2-.25.4-.38.45-.29l-.02.09c-.07.23-.16.46-.27.67l-.13.24c.11.2.42.56.68.8l-.54.06c-.29.03-.61.05-.56-.43v-.03c-.05-.05-.16.04-.25.2-.08.16-.07.82.22 1.07l.48-.23c.31-.15.9-.43 1.19.25l.04.08c.36.1.55.23.42.29-.13.06-.61.66-.91 1.1l-.89-.18-.11-.02c-.13.04-.1.09.08.12.17.03.21.53.29.53.08 0 .33.15.32.36-.01.21.12.8.29.86.17.07.68.02.74-.25l.15-.22c.09-.13.43-.27.5-.21l.46.4c.48-.21.95-.39 1.03-.39.09 0 .47.53.54 1.16l-.39.5c-.02.03.1.18.13.28.07.23.08.44-.24.43l-.45.01c-.2.35-.44.79-.54 1l.18.23c.06.08.09.49-.29.19-.15-.12-.53-.14-.65-.02-.36.32-.49.03-.72-.15l-.14-.11c-.2-.06-.39-.01-.41.1-.02.11.35.54.91.55l.49.04.1.01c.1.15.11.33.03.4-.09.07-.48.1-.83.11l-.02.33-.03.62c-.39-.13-.67-.34-.62-.45.05-.11-.05-.47-.4-.38l-.16.16c-.11.12-.12.42-.08.61l.08.33c.33.03.92.12 1.32.19l-.2.36-.27.5c.25.37.47.74.5.82.03.08.1.06.09-.27-.01-.32.5-1.39.62-1.7l.38.08c.07.02.14.1.21.1.99-.02 1.19.04 1.83.31.14.06.16.34.47.17l.54-.3c.12.51-.46.79-1.3.61h-.38c-.14 0-.32-.03-.42-.13-.37-.34-.54.04-.7.23-.14.17-.11.47.19.42l.7-.12c-.1.48.18.61.61.28l.42-.06.44-.06c.53.19.95.55.94.81-.01.26.31 1.25.92 1.64l.68-.35c.07-.03.18.01.26.03l.4.1c.42.09 1.11.2 1.52.24l.36.09.06.01c.08-.07.39-.13.68-.13l.15.22.18.26c.18.3.33.65.34.77.01.12-.07.48-.11.57-.04.09.21.32.61.2s1.49-.29 1.45-.4c-.04-.11-.23-.45-.33-.55-.1-.1-.37.3-.47.5l-.24-.04-.2-.04c-.22-.04-.47-.37-.56-.72l.17-.31c.06-.11.2-.21.32-.26l.25-.1c.33-.09.62-.04.65.11.03.15.27.55.48.44.2-.11.87-.32 1.05-.26.19.06.7.21.6.57-.09.36-.53 1.27-.66 1.32-.13.05-.46.24-.43.29.04.05.03.26-.11.35-.14.09-.45.41-.36.51.09.1.23.51.11.7-.11.18-.67-.11-.74-.07-.06.04-.19.28-.04.38.15.1.49.27.52.24l.21.18.25.21c.53-.1 1.04-.36 1.12-.58l.26.28c.13.14.33.28.5.28h.16c.21-.18.36-.16.32.03-.04.19-.22.82-.34 1.02-.12.2-.69-.08-.74-.18-.05-.1-.36-.26-.59-.15l-.24.06c-.28.07-.71.2-.27.66.02.02-.12.26-.22.35-.15.13-.34.21-.5.34l-.27.23c.2.41.58.98.83 1.26.26.29.06 1.74-.11 2.25l-.12.47c-.07.28-.02.51.36.49l.12-.01c.14.12.21.28.16.34-.05.07-.5.27-.87.4l-.32.15-.34.16c-.07-.26-.1-.58-.07-.71l-.18-.17c-.42-.39-.67.07-.88.18l-.22.12c-.13.41-.28.88-.34 1.03-.06.15-.63.17-1.12.26l.1-.72v-.02c-.09-.03-.35-.08-.57-.11-.22-.03-.86.05-.94.19-.08.14-.44.53-.5.38-.06-.14-.41-.24-.7-.09-.29.16-1.13.1-1.19 0-.06-.1-.4-.29-.54-.06l-.16.11-.09.07c-.18-.04-.29-.21-.24-.38l.04-.15.02-.06c.03-.1-.14-.18-.37-.18l-.2.02h-.03c.02-.01.05.1.05.25s-.25.44-.58.38l-.32.07c-.26.06-.35-.27-.23-.65l.03-.11c-.04-.21-.24-.22-.46-.04l-.06.17-.16.46c.41.39.85.78.98.87.13.09.69 0 .87-.09.17-.09.96.14.87.31-.09.17-.17.51.04.34.21-.17.81-.48.84-.33.04.15.23.63.3.74.07.11.15.48-.15.29l-.14.01c-.18.01-.46.27-.52.21-.44-.43-1.04-.12-1.49-.41-.03-.02-.06-.09-.09-.09-.29.07-.65.07-.86.25-.45.39-.42-.21-.63-.28l-.29-.1c-.33-.18-.62-.19-.65-.04-.03.15-.26.42-.46.29l-.16.01-.48.04c-.52-.06-1.18-.03-1.47.06-.29.09-1.29.15-1.48-.09-.19-.24-.8-.78-.87-.62-.07.17-.48.78-.71.87-.23.08-1.04-.11-1.17-.04-.13.08-.64.07-.88-.17l-.25-.22c-.03-.03-.28.12-.33.23l-.04.08c.09.19.03.34-.15.33-.17-.01-.77-.08-.62-.14.15-.06.32-.27.01-.31l-.2-.06-.13-.04c-.12-.11-.37-.32-.56-.48-.19-.15-.86-.03-.76.31.1.34-.15 1.19-.33 1.13-.18-.06-.67-.39-.73-.62-.06-.23.53.14.59.15.06 0 .22-.14.12-.33s-.54-.41-.78-.06l-.26.09-.16.05c-.29-.28-.91-.18-1.38.22l-.7-.53-.33-.25c-.63.09-1.2.32-1.27.51-.07.19-.04.73.05.81.09.08.1.52-.32.74l-.25-.11-.31-.13c-.23-.45-.18-.78.12-.75.3.04.04-.9-.14-.96-.17-.05-.72.19-.8.23-.08.04-.51.02-.9.03-.4 0-1.42.09-1.42.22s.08.48.19.53l.05-.03.29-.13c.33-.02.65-.05.72-.07.07-.02.36-.13.49-.11.13.03.35.33.24.49-.11.16-.72.64-1.03.63h-.61c-.09-.23-.3-.47-.47-.54l-.11.05c-.21.08-.56.21-.7.17-.08-.02-.21.03-.24-.02l-.07-.08a.735.735 0 0 1 .03-.42h.05l.31-.02c.18-.24.02-.71-.36-1.04l-.29.15c-.31.16-.45.07-.62-.15-.31-.38-.59-.52-.62-.31-.03.21-.46.71-.91.68l-.41-.05-.19-.02c-.21.06-1.38.18-2.6.27l-1.1-.24-.23-.05c-.28.13-.69.23-.9.21l-.19.02c-.21.02-.44-.15-.66-.21-.04-.01-.14.05-.16.1-.03.08-.04.22 0 .25l.28.22c.33.23.83.26 1.11.06l.36.02.14.01c.16-.03.28.02.27.1-.01.08-.11.43-.17.6l-.02.16-.07.45c.3-.05.5-.02.44.08-.06.09-.36.14-.51-.11-.15-.25-.94.11-1.12.04-.18-.07-.77-.1-.78.12-.01.22-.14.72-.27.63v-.04c.03-.32.03-.63-.27-.8l-.11-.07c-.17.02-.3.25-.3.51l-.33-.05c-.38-.06-.7.09-1.05.2-.09.03-.32-.31-.45-.51l-.26-.39c-.14.22-.31.47-.38.56-.07.09-.3.27-.35.16-.05-.11-.23-.35-.31-.32-.08.03-.32.23-.42.33-.1.09-.82.27-.71.13.11-.13.25-.4.08-.32-.17.08-.78-.05-.99-.43l-.45.39c-.08.07-.31-.03-.46-.07-.4-.1-.39-.1-.44.34-.01.13-.11.36-.15.35l-.38-.05c-.3.23-.6.4-.68.37-.07-.03-.49-.28-.76-.46s-1.22-.26-1.47.23l-.63-.04-.43-.02c-.5.23-.91.29-.91.13 0-.15-.32-.62-.73-.72l-.17.48-.05.15c.28.16.3.32.04.35l-.15.05-.37.12c-.26-.27-.64-.47-.83-.46-.2.02-.81.21-.89.42-.07.21-.16.84-.01.87.15.03.55.22.52.36-.03.13-.3.45-.53.42l-.21-.06-.5-.15c-.03-.49-.21-.69-.4-.44-.19.25-.92.83-1.24.79-.32-.04-.56-.85-.72-.67-.16.18-.68.32-.7.15-.02-.18-.01-.72.06-.75l.1.03.11.04c.1.12.31.06.46-.14.16-.2-.12-.79-.36-.68l-.2-.03c-.43-.07-.24.39-.44.48-.21.1-.41.07-.4-.25v-.13c.01-.17-.53 0-1.2.37l-.65.22-.46.16c-.48.02-.63 0-.33-.05.31-.04.08-.85-.63-.91l-.64-.01h-.21c.04.43-.18.66-.48.53l-.17.09c-.39.21-.35-.23-.54-.29-.15-.04-.36-.18-.44-.13-.34.27-.63 0-.93-.04-.08-.01-.17-.01-.25-.01h-.26c-.06.23-.21.38-.33.34-.12-.04-.5.15-.5.44 0 .29.62.81.57.98-.05.17-.21.61-.25.6-.04-.01-.14-.2-.14-.41l-.05-.18c-.02-.09-.15-.2-.23-.21h-.08c-.09.1-.19.33-.22.51s-.44.37-.5.23c-.06-.14-.14-.51-.04-.5.1.01.26-.26.34-.56.09-.3.21-1.18.11-1.28h-.09c-.27 0-.22.13-.09.29.02.02-.04.16-.1.22-.1.1-.29.17-.31.27l-.05.34c0 .39-.23.78-.51.88l-.26.05c-.06.01-.21-.13-.22-.21-.01-.1.07-.25.15-.29.1-.05.27.04.36-.01l.11-.06c.07-.15-.05-.54-.27-.88-.22-.33-1.53-.13-2.19.14l-.5-.08-.04-.01c.35-.22.49-.52.32-.66-.17-.14-1.01-.85-1.15-.9l-.07.05-.08.05c-.02.15.18.6.45 1l.48.14.59.17c.05-.14-.41-.13-1.02.03-.6.15-1.84.51-1.79.57.05.06-.13.39-.54.57l-.06-.67c-.02-.19-.13-.39-.25-.54l-.06-.08c-.15-.02-.28.05-.28.15l.01.09.05.46c-.36.14-.64-.34-.61-1.07l.58-.47.26-.21c.25.1.52.14.6.08.08-.05 0-.32-.4-.44l-.34-.09c-.19-.05-.43-.17-.57-.1-.12.06-.13.36-.18.55l-.08.33c-.24-.08-.39-.39-.35-.69.04-.3-.12-1.15.07-1.29.19-.14.83.24.95.28l.11.02c.25.05.38-.05.37-.34-.01-.16.42-.23.1-.47l-.12-.09c-.14-.08-.72-.07-1.28 0l-.51.07-.31.04c.06.26-.14.89-.44 1.41l.01.3c0 .11.04.29.11.32l.28.13c.32.1.64.35.71.57l.03.2.02.14c-.03.17-.12.44-.18.61-.07.17-.6.32-.78.09-.18-.23-.65-.74-.62-.57.03.18-.46.57-.71.47-.24-.1-.84-.53-.91-.42-.07.11-.41.34-.61.28l-.07.04-.21.13c-.22-.03-.45-.13-.51-.24-.06-.1-.35-.26-.56-.15-.21.11-.78.38-.94.43-.15.05-.73-.43-1.03-.69l-.37.36-.04.04c-.24-.14-.61-.08-.82.15-.21.22-.41 1.04-.43.96-.02-.09-.28-.25-.49-.08-.21.17-.77.57-.78.5l-.05-.09-.18-.3c.15-.31.14-.48 0-.39-.14.1-.6-.45-.87-.63s-1.13-.44-1.1-.32c.03.12-.04.49-.24.47l-.14.09c-.14.09-.18.36-.32.45-.19.12-.4.08-.4-.25v-.13c.01-.17-.21-.21-.48-.1-.27.11-.97-.24-1-.1-.03.14-.21.45-.35.38-.13-.06-.41.33-.44.46-.03.13-.23.34-.39.31-.17-.04-.7-.08-.63.01.07.09.11.32.01.4l-.08-.01-.49-.04c-.25-.51-.46-.99-.47-1.05-.01-.07-.15-.21-.27-.07-.12.14-.27.65-.17.91s.16.93-.12.88c-.28-.05-1.05-.47-1.13-.83-.08-.36-.66-1.13-.69-1.1-.03.04-.23.14-.37.13h-.12l-.4.01c.14-.21.21-.45.14-.53-.06-.08-.31-.23-.34-.06-.03.16-.22.46-.36.35-.14-.12-.54-.23-.59-.02-.05.21.27.76.35.85.08.1-.22.35-.38.34l-.11-.09-.89-.69c-.57.78-1.17 1.35-1.32 1.28-.15-.07.1-.72.08-.85-.02-.14.14-.56.42-.59.28-.04.2-.71-.18-.52-.38.19-1.29-.36-1.42.04-.12.4-.91 1.28-.93 1.41l-.05.11-.06.13c-.1.12-.22.16-.27.1-.04-.07-.34-.36-.53-.53l-.16-.18-.12-.14c-.11-.2-.34-.2-.52 0-.17.2-.71.66-.8.55-.1-.11-.21-.38-.07-.4l.09-.06.09-.06c.07-.11.02-.31-.09-.45h-.11l-.4-.01c-.33.5-.49.94-.34.98.15.04.37.31.2.51-.17.2.22.86.12 1.02-.1.15-.5.58-.64.64l-.08-.04-.07-.04c-.02-.15.02-.55.09-.89l-.31-.09-.27-.08c0-.19.13-.38.29-.42l.15-.04.08-.02c.13-.03.02-.18-.24-.32v-.34c.17-.31-.02-.65-.42-.75l-.21.13c-.28.18-.55.29-.78.14l-.21-.14a.72.72 0 0 0-.82-.38l.37.41.05.06c-.14.25-.51.57-.81.72l-.21-.27c-.31-.39-.57-.43-1.02-.19-.24.13-.6.05-.9-.24l-.23-.23c-.48-.1-.93.06-1 .36-.07.3.46.83.29.84-.17 0-.59-.23-.52-.52.07-.29-.12-1.09-.34-.92-.22.17-.77.43-.82.25l-.09-.12c-.05-.06-.22-.03-.33 0-.05.02-.1.18-.08.21l.23.28c.27.3.57.62.68.72.1.1-.52.61-1.06.95l-.51.05c-.46.05-.97-.18-1.37-.57l-.36-.36c-.37.29-.75.67-.85.86l-.11-.1-.18-.17c-.24.01-.49-.05-.55-.13l.01-.06c.03-.11.09-.27.17-.29.59-.1 1.18-.18 1.77-.26h.03c.08-.1-.03-.32-.24-.49-.21-.17-.86-.55-.89-.38-.04.17-.23.46-.35.28-.12-.18-.37-.67-.29-.69.08-.03.27-.37.26-.71l-.38-.14-.32-.11c-.33.07-.65.24-.73.39l.04.08.12.29c.18.3.07.5-.25.44l-.28-.08c-.13-.04-.3-.11-.36-.22-.11-.21-.14-.46-.23-.69-.03-.07-.11-.12-.18-.16-.03-.02-.09-.02-.12-.01l-.24.12c-.26.14-.41.45-.34.68.08.24.02 1.07.01 1.41-.01.34-.02 1.02-.71.94l-.56-.23-.3-.12c-.11.19-.39.43-.63.55l-.19-.05c-.16-.04-.24-.32-.46-.05l-.05.06c-.2-.07-.31-.3-.23-.5h.08c.29-.02.4-.21.28-.4l-.08-.13c-.31-.05-.58.06-.59.22-.01.17-.15.67-.23.78l-.09.01-.19.02c.03-.16.04-.41.02-.55l-.06-.11c-.15-.25-.26-.04-.35.07l-.25.29c-.41-.09-.51-.27-.23-.4l.2-.14c.08-.06.14-.23.12-.33-.02-.08-.17-.17-.26-.18-.15-.01-.31.07-.46.09-.23.03-.57.17-.66.06-.36-.41-.56-.13-.81.1-.15.14-.65-.06-.73-.29l-.01-.03c.1-.08-.1-.28-.45-.44-.35-.16-1.21.28-.98.35l.05.12.08.17c-.02.22-.22.37-.45.33-.23-.04-1.12-.04-1.67.32l-.57.01-.45.03c-.29-.79-.61-1.18-.72-.88-.1.3-.42.91-.49.69l-.12-.1c-.06-.05-.3.04-.42.13l-.2.15c-.21.22-.5.3-.66.18-.16-.12-.53-.5-.46-.57.07-.07.37-.22.44-.1s.39.33.46.07l-.05-.04-.26-.25c-.32-.24-.64-.35-.71-.25-.07.11-.3.53-.38.68-.08.15-.13.42-.2.51-.07.1-.15.37-.35.22-.2-.16.09-.76.07-.84-.02-.08-.14-.25-.23-.21-.09.04-.28.31-.4.48l-.21-.09c-.09-.04-.23-.19-.25-.17-.26.22-.44.52-.88.21l-.14-.1c-.4.14-1 .3-1.35.35l-.33-.03-.6-.06c-.23-.45-.39-.51-.35-.13.03.38-.28 1.32-.61 1.29-.33-.03-.83-1.02-.83-1.36l-.4.15-.14.05c-.1.27-.25.37-.33.23-.08-.14-.42-.46-.55-.36-.13.1-.09.6-.02.67.07.07.07.46-.18.71l-.46-.13-.42-.12c-.39-.24-.74-.46-.77-.51-.03-.04-.09-.34-.1-.54l-.09-.1c-.12-.14-.37-.33-.49-.28-.23.09-.19.33-.01.52.17.19.18.4-.08.49-.07.03-.23-.14-.32-.25l-.14-.18c-.14-.24-.42-.33-.61-.2s-.65.83-.73.83c-.08 0-.46-.05-.47-.15l.02-.06c.05-.15.2-.35.15-.44-.13-.24-.34-.18-.5.01-.17.19-.44.36-.48.57-.11.59-.3.02-.43.07l-.42.17c-.18.44-.39.68-.46.53-.07-.15-.1-.74.13-.89l.2-.13c.07-.04.2-.08.2-.11-.02-.15-.09-.3-.12-.46-.04-.2-.07-.41-.06-.62.01-.12.18-.29.14-.36l-.19-.34c-.4.08-.69.22-.63.31.05.09.04.97-.08 1.72l-.75.06-.7.06c-.66.46-1.28.65-1.37.43-.1-.22-.51-.66-.68-.38l-.08.24c-.14.42.27.31.43.46.09.09.2.18.25.29.04.1.04.28-.02.34-.06.07-.27.11-.32.06l-.27-.26c-.21.2-.47.36-.59.34l-.11-.05c-.16-.08-.46 0-.39-.34.02-.09.14-.2.23-.22l.15-.03c.28.02.27-.38-.02-.9l-.24-.39c-.02-.03-.16-.01-.23.02-.03.01-.03.12-.03.18.01.04.08.06.08.1v.15c-.01.16-.14.31-.28.31l-.08-.06-.22-.17c-.25-.24-.49-.34-.53-.23-.04.11-.48.23-.88.03l-.38-.14c-.07-.02-.21.16-.32.25l-.07.06c-.07.07-.38.16-.68.2l-.22-.14c-.36-.24-.61.26-.98.1-.29-.12-.69-.11-.98 0-.21.08-.27.08-.47-.02-.23-.12-.67-.14-.81.01-.33.35-.38-.17-.6-.12-.31.07-.29.24-.2.46.05.12.32.24.01.32-.08.02-.27-.14-.31-.25l-.12-.34c-.12-.52-.26-.78-.31-.57-.04.2-.24.57-.34.47-.1-.11-.6-.38-.83-.31-.23.07-.85.24-1.23-.38l1.05-.24.18-.04c.23-.01.33-.19.22-.41-.11-.22-.78-.19-.8-.33-.02-.14-.32-.41-.62-.23-.3.18-1.13.54-1.2.41-.07-.13-.39-.51-.49-.4-.1.11-.29.66-.36.98l.42-.08.45-.08c.02.32.23.44.47.26.23-.18.86-.64.88-.63.02.01-.25.39-.75.79l.03.68c0 .1-.3.24-.48.32l-.2.08c-.25.05-.52.02-.59-.06-.07-.08-.48-.23-.74-.13-.25.1-.92.39-.88.47.03.09-.03.32-.18.35l-.05-.06c-.2-.24-.34-.53-.55-.76l-.19-.21c-.27-.17-.69-.05-.94.27l-.46-.12-.46-.12c.06-.38.07-.52.01-.31-.06.21-.64.7-.76.84-.13.15-.5.41-.38.02l.01-.26v-.16c-.13-.17-.49-.37-.8-.44-.31-.07-.77.68-.9.59l-.11.02c-.15.02-.27.17-.42.21l-.32.08c.06.25-.29.36-.77.24l-.41-.05-.51-.06c-.32-.31-.71-.41-.86-.23-.15.18-.48.39-.5.01l-.52.14c-.23.07-.62-.25-.66.32-.01.07-.34.18-.51.16-.22-.03-.42-.21-.65-.26l-.24-.05c-.36.01-.54.12-.38.25.16.13.35.34.07.17-.28-.18-1.06.28-1.19.19-.12-.09-.37-.5-.4-.64l-.24.13c-.41.22-.86.22-1.27-.06l-.05-.03c-.07 0-.24.24-.37.55l-.33-.14c-.21-.09-.36-.34-.57-.46-.1-.06-.31-.02-.42.05-.11.07-.13.35-.22.37l-.41.09c-.47.05-.99.14-1.16.2-.17.06-.71-.25-.72-.36-.02-.11-.15-.52-.23-.46-.08.06-.27.39-.37.59-.09.2-.66.53-.54.6l.08.04.07.04c.09.04-.02.17-.25.28l-.16.15c-.11.1-.22.39-.19.42l.33.27c-.06.38-.09.81-.07.95.02.14-.08.47-.29.4-.21-.08-.62-.36-.41-.46.2-.1-.04-.73-.19-.73s-.59.07-.5.19l.01.08c.01.15.03.38-.04.43-.15.1-.38 0-.42.33-.03.31-.26.28-.45.13-.35-.28-.69-.57-1.02-.87l-.19-.17c-.17.1-.29.36-.27.58l.28-.01h.04c.13.19-.01.27-.32.18-.31-.09-1.07-.4-.93-.5.14-.09.31-.45.14-.62l-.08-.15c-.07-.13-.16-.36-.1-.44.17-.23.37-.12.5.08l.3.5c.54.21 1.14.29 1.34.17l-.01-.07-.06-.43c-.12-.46-.27-.84-.33-.86-.06-.01-.13-.19-.01-.2.12-.01.51.1.5.29-.01.19.13.73.32.75l.08-.05c.21-.13.38-.31.59-.45l.04-.03c.1.05.16.15.13.22l-.02.06-.14.49c.41.04.72-.21.7-.55l.09-.26.08-.22c.32-.29.28-.38-.1-.21l-.2-.05-.25-.06c-.25-.25-.48-.34-.51-.22-.03.13-.11.47-.13.48-.02.01-.08-.06-.1-.17-.02-.11-.35-.58-.66-.66-.31-.08-1.08.41-1.15.18l-.12-.12c-.05-.05-.3.06-.42.15l-.44.35c-.57.27-1.04.63-1.05.8-.01.17-.28.72-.56.73l-.15-.12c-.15-.13-.13-.38.18-.44l.11-.02c.09-.16.21-.48.27-.72h.05c.34-.01.51-.17.29-.45-.08-.11-.49-.09-.65.03l-.31.23c-.38.03-.53-.17-.32-.45l.09-.28.03-.11c-.21-.21-.44.12-.51.73l-.61.23-.14.05c-.09.24-.24.21-.32-.05l-.09-.01c-.37-.03-.6-.5-1.01-.32-.11.05-.25.5-.37 0-.04-.17-.18-.41-.12-.5.1-.15.33-.2.5-.3l.64.38c.18.06.4.22.53.16l.2-.08c.15-.23.29-.57.3-.75.01-.18-.12-.6-.3-.3l-.14.17c-.05.06-.25.1-.25.09-.22-.54-.59.2-.9-.13-.31-.32-.65.15-1 .16l-.37.01c-.43.02-.53.37-.22.77l.44.2c.18.09.31.32.12.53-.16.17-.33.49-.6.26-.44-.37-1.17-.09-1.47-.77l-.04-.09c-.45.02-.7.12-.54.2.16.09.4.3.34.38l-.06.01-.41.05c-.44.09-1.3.29-1.9.45l-.17-.84-.01-.03c-.2.01-.26-.07-.15-.17l.12-.06.23-.11c.32-.12.42-.34.23-.47-.19-.14-1.08.02-1.44.04l-.33-.03-.25-.02c-.16-.4-.41-.84-.56-.98-.14-.14-.23-.58.08-.56.32.02.58.92.66 1.02h.09c.08 0 .22-.11.24-.19l.08-.34c.07-.42-.11-.76-.39-.74-.28.01-.84-.55-.93-.41-.09.13-.4.51-.49.37l-.13-.03c-.11-.02-.36.17-.35.18l.11.29c-.07.31-.05.7.04.87l.2-.08.09-.03c.12-.12.22-.06.21.12-.01.18-.17.55-.36.41-.18-.14-.89-.31-1.08-.12-.19.19.06.87-.02.89-.09.01-.34.01-.37-.04-.03-.05-.17-.14-.23-.1-.06.05-.4.14-.64.11-.23-.04-.78.25-.65.34.13.1.22.72-.13 1.14l-.63-.14c-.16-.04-.37.11-.55.17-.46.14-.54.09-.68-.47-.01-.04.02-.11 0-.13-.4-.29-.06-1.12-.57-1.16-.4-.03-.83.38-1.23.62-.23.14-.17.17.13.38.28.17.51.43.71.69.1.13.17.49.12.52l-.3.2c-.09-.25-.5-.62-.92-.82l-.4-.12c-.07-.03-.21.15-.3.26l-.13.16c-.13.19-.31.26-.39.16l.01-.02c.44-.59.32-1.08-.2-1.53-.11-.1-.15-.29-.25-.41-.09-.11-.25-.27-.32-.24-.25.1-.22.3-.07.5l.04.06c-.02.12-.13.22-.23.24l-.05-.04c-.13-.11-.3-.23-.34-.38l-.12-.43c-.1-.56-.46-1.07-.8-1.17l-.36.2c-.13.07-.3.11-.46.11h-.54c-.32.23-.73.43-.91.45l-.08-.08c-.28-.28-.35.06-.44.17-.07.08-.07.36 0 .42l.27.23c.34.2.45.4.26.44-.19.04-.33.61-.49.64l-.14-.03c-.15-.03-.29-.2-.42-.19-.52.03-.47-.47-.35-.59.28-.26-.07-.59.17-.78l.22-.18c.26-.19.24-.5-.05-.7l-.19-.15c-.1-.08-.17-.22-.27-.25-.31-.1-.65.59-.93-.01l-.2-.42c-.4 0-.57-.27-.39-.6l.52.36.54.37c.61-.48 1.27-.73 1.47-.55l.12.16c.13.18.19.12.37.04.18-.09.44.01.67.03.09.01.22.07.26.03.72-.81 1.29-.07 1.9.2.11.05.17.24.27.25l.19.02c.22-.05.37-.18.35-.28-.03-.1.02-.54.17-.69.16-.15.64-.49.73-.44.09.05.35.17.37.15.02-.02-.1-.29-.33-.53-.22-.25-.82-1.05-.65-1.04.17.01.53.08.51.15-.02.07.05.28.22.26l.14-.04.11-.03c.17-.1.34.03.38.27l.01.19c.02.75.7.79 1.12 1.05.23.14.7.18.63-.43-.04-.33.19-.32.41-.3l.35.02c-.03-.27-.09-.55-.13-.63-.04-.08-.11-.42-.13-.55-.02-.13-.14-.37-.01-.37s.53.41.52.88l.02.46c0 .07.15.19.24.2.08 0 .23-.11.24-.19l.04-.25c0-.27.16-.53.36-.59.2-.06.85-.04.96.19.11.23.65.81.91.69.26-.13 1-.28 1.08-.07l.14.1.17.12c.08.18.22.38.31.45l.03-.02c.36-.26.76-.23 1.16-.25l.09-.01c.11-.29.23-.35.28-.13l.09.12c.04.06.22.05.33.03l.92-.15c.23-.21.27-.41.1-.44-.17-.03-.64-.33-.81-.26-.17.07-.4-.49-.47-.46-.07.03-.31-.15-.3-.25 0-.1.29-.51.63-.58l.35.2.22.12c.21.16.63.15.93-.04l.08.46c.04.21-.01.37.28.46l.25.07c.26.28.61.4.77.26l.15-.13.11-.1c.07-.2.04-.34-.07-.3-.11.04-.3 0-.12-.2s.37-.87.46-.84c.09.03.29.41.4.73.11.32 1.34.35 1.23.23-.11-.11-.44-.41-.54-.44-.1-.03-.36-.21-.16-.23.21-.02.75-.17.77-.29.02-.12.29-.38.52-.14l-.02.02-.66.82c.65.44 1.26.67 1.35.52.09-.16.27-.58.22-.63l-.07-.03-.18-.07c-.21-.06-.32-.2-.26-.32s.35-.25.5-.03c.15.22.82.31.72.13-.1-.18-.19-.44.04-.15.23.29.98.44.77.44l-.17.05c-.09.02-.19.16-.2.25 0 .09.14.27.17.26l.29-.09c.3-.15.78-.39 1.06-.51.28-.13 1.01-.03 1.1-.1.1-.07.26-.26.01-.47l-.02.02-.53.55c-.44-.46-.58-.92-.31-1.03l.25-.01c.27-.01.56.07.82.17l.29.11c.31.19.76.22.98.06.23-.16.92-.46.93-.26h.02c.23.01.49-.08.69 0l.16.06c.19.17.36.18.38.02.02-.16.15-.62.23-.61l.04.04c.35.38.72.74 1.03 1.16.24.32.51.43.86.37l.13-.02c.13-.1.15-.32.04-.49l-.09.01-.52.04c-.33-.44-.52-.93-.43-1.09.09-.15.47-.59.5-.41.02.18.38.64.76.8l.34.08c.42.1.75-.14 1.06-.42l.1-.09c.14-.05.38-.19.53-.32.15-.13.14.52-.01.64l-.18.04-.11.02c-.11.06-.23.27-.27.47-.04.2.17.82.3.8.13-.02.57-.2.71-.38.14-.17.1-.9.12-1.03l.07-.09c.03-.04.16-.04.23-.02.05.02.13.12.12.15-.07.23-.17.46-.23.69-.01.05.06.17.12.2l.24.12c.37.15.6.13.52-.05l-.05-.07c-.14-.22-.16-.42.13-.47.08-.01.24.16.28.28l.05.14c-.03.18.27.17.67-.02l.26-.24.1-.09c-.05-.28-.18-.5-.29-.49-.11.01-.49-.13-.48-.35.01-.22.14-.78.28-.72l.04.09.24.59c.53-.03.91-.11.84-.18l-.03-.07c-.13-.31.16-.24.23-.21l.4.19c.51.28.63.65.27.84l-.23.15c-.04.03-.05.17-.03.24.02.07.11.18.14.17.22-.06.46-.12.65-.25.11-.06.16-.24.22-.37l.13-.29c.14-.35.39-.62.55-.6.16.02.6.09.6.11 0 .02-.12.11-.26.13-.14.03-.45.41-.29.78l.15.29.05.1c.11.09.28.07.38-.03l.1-.09.08-.07c.09-.07.25.09.36.35h.1c.22.01.47-.09.64-.23l.12-.11c.03-.24.1-.58.14-.76.05-.18.84-.88.82-.82-.02.06-.31.64-.28.87.03.23.62.79 1.1.74l.42.39.22.2c-.04-.29-.03-.88.01-1.31l.47.13c.46.12-.12.27-.04.39.06.08.28.16.31.12l.12-.14c.12-.23.35-.3.52-.16l.17.07.55.22c.6-.16 1.74-.41 2.55-.55l.06.1.14.22c.2-.01.47.06.6.17l.02-.02c.23-.23.58.04.73-.14l.15-.17c.08-.3.26-.69.41-.87l.17-.06.1-.03c.16.15.37.39.48.54.1.15.54.57.6.68.06.11.62.08 1.1-.31l.61.47c.47.36.29-.7.78-.47.01 0 .12-.19.14-.3.01-.06-.08-.21-.11-.2l-.66.12c-.19-.54-.35-1.01-.36-1.04-.01-.03.1-.14.24-.16l.11-.05.09-.04c.21-.18.32-.17.25.01-.07.18-.03.65.24.7.27.05 1.22-.1 1.66-.11.44-.02 1.46-.01 1.39.13-.08.13-.58.32-.91.28l-.16.14-.34.29c-.27-.19-.42-.1-.35.21l.16.19c.16.19.57.44.65.37.44-.36.9-.04 1.33-.15.12-.03.2-.19.3-.28.17-.14.43-.23.5-.41l.1-.26c-.01-.33.33-.58.75-.57l.33.02h.03c.05.15-.07.27-.25.26-.19-.01-.64.09-.64.23s.36.7.83.81c.47.1 1.92.09 2.15.43l.21-.56c.11-.3-.18-.51-.49-.62a.848.848 0 0 1-.37-.31l-.07-.08c-.01-.15.11-.3.27-.35l.14.02.11.02c.11.01.31-.04.44-.11s.47-.05.35.1c-.11.15-.3.71-.14.86l.13.1.16.12c.19.11.4-.02.48-.29l-.04-.22c-.03-.14-.21-.24 0-.38l.09-.06c.11-.09.21-.04.23.11.02.15.37.53.74.46l.31-.06.2-.04c.21-.02.54-.06.74-.08.2-.03.7.05.77.29.07.24.44.87.56.83.12-.04.47-.24.54-.36.07-.13-.05-.66-.32-.86-.27-.2.01-1 .17-.87.16.14.54.47.58.39l.04-.07.04-.08c.04-.09.08-.04.08.11 0 .16-.06.62-.06.7 0 .08.12.3.26.3l.1-.05c.11-.06.19-.17.28-.26.3-.28.51-.31.55.2 0 .02.15.05.23.05l.37-.01c.24-.3.4-.41.36-.23-.04.18-.03.7.14.58s.58-.33.61-.24l.05.06c.28.39.78.68.91.5.32-.45-.22-.37-.34-.56l-.13-.18c-.03-.28-.04-.76-.01-1.05l.19-.18c.06-.06.26-.07.32-.01.07.06.11.24.08.34l-.05.19a.4.4 0 0 0 .16.52l.14.13c.21.19.34.05.53-.04l.19-.09c.27.05.6.28.75.51.14.23.02.99-.26 1.04l-.26-.38c-.36-.53-.44-.52-1.04.01-.11.1-.3.1-.43.18l-.31.22c.03.36.41.53.84.38l.39-.14 1.1.51.14-.02c.15-.03.7-.33 1.22-.68l.57.04.6.04c.21-.11.32-.3.23-.41l-.1-.08a.298.298 0 0 0-.22-.06l-.92.12c-.29-.42-.6-.82-.68-.88-.08-.07-.13-.42.15-.56.29-.14 1.02.52 1.18.58.16.06.53-.39.78-.58l.2.05.68.16c.55-.17.93-.49.83-.73-.1-.24-.09-.86.28-.74l.25-.44.08-.14c.1-.17-.51-.01-1.35.34l-.43-1.09c-.01-.02-.26 0-.32.08l-.18.2c-.18.27-.34.37-.36.22l-.03-.12-.13-.54c-.38-.22-.62-.27-.53-.09.09.17-.75.72-1.4.73l-.61-.07-.6-.07c-.65-.13-1.59-.18-2.09-.11l-.17.26c-.31.5-.75.45-1.15.64l-.44.21c-.08-.26.2-.53.63-.61l.35-.17.3-.15c.35-.33.41-.63.12-.67l-.18.06-.48.17c-.51.23-1.13.46-1.38.51-.25.05-1.34-.52-1.56-.59l-.02.33-.01.16c0 .2-.24.29-.52.19-.28-.1-.73.72-.76 1l-.02.26c-.02.2.03.51-.29.43l-.48-.12c.28-.14.51-.43.52-.64.01-.21-.25-.73-.6-.53l-.07-.06c-.45-.42-1.08-.08-1.5-.39l-.35-.26c.01.23-.12.54-.29.68l-.18-.33c-.07-.12 0-.39-.24-.16a.5.5 0 0 0-.16.36l.01.14c.1.18-.07.38-.37.45-.3.06-.8-.53-.95-.65-.14-.12-.61-.18-.8.18l-.76-.18c-.16-.04-.34.01-.5-.03-.1-.02-.24-.11-.25-.2-.04-.24-.01-.43-.33-.17-.16.13-.48.09-.71.05-.18-.03-.36-.26-.52-.24-.12.02-.23.44-.31.42l-.69-.1c-.41.52-1.2.62-1.76.23l-.81.09c-.65.07-.75.04-1.23-.46-.07-.08-.22-.08-.33-.12 0 0-.92.86-.92.87-.25.26-.47.68-.88.16-.07-.09-.39-.12-.47-.04l-.48.49c-.15-.41-.44-.64-.65-.51-.21.13-.6.22-.59.01.02-.21-.57.13-.62.16-.05.03-.47-.07-.89-.17l.02.58.01.42c-.25.02-.49.13-.52.26-.03.13-.22.41-.34.33-.12-.08-.46-.33-.51-.39-.04-.06-.04-.25.1-.27.14-.02.24-.25-.08-.45s-1.12.2-.96.44c.16.23.6.8.41.95l-.13.1c-.44.33-.93.23-1.41.2-.06 0-.16-.19-.15-.28.01-.08.13-.18.23-.22.05-.02.17.02.21.08l.37.47c.2-.32.24-.73.08-.92-.16-.19-1.13-.48-1.3-.86l.05-.6.01-.09c.04-.1-.01-.17-.11-.16-.1.01-.32.35-.44.66-.12.31-.53.87-.63.49l-.48.04c-.46.04-.95.33-1.42-.02l-.3-.23c-.33.12-.89.31-1.24.43l-.26-.35c-.05-.06-.2-.1-.25-.07l-.4.29c-.5.19-1.12.31-1.38.27l-.24-.04c-.09-.02-.2-.09-.26-.06-.42.23-1.13.39-1.48.29l-.07-.02c-.11-.15-.29-.13-.42.03-.12.16-.6.51-.59.15.01-.35-.31-1.02-.75-.8l-.25.31-.26.33c-.14-.2-.33-.44-.43-.54h-.09c-.08 0-.23.14-.22.21l.05.8c-.59-.06-.99-.21-.88-.33.1-.13.31-.56.23-.71h-.04l-.73.01c-.15.59-.36.94-.45.78-.1-.16-.49-.5-.68-.47-.19.03-.49.62-.64.67l-.03-.05-.09-.12c-.05-.18-.16-.28-.26-.22l-.09.02c-.16.03-.33.06-.48.04l-.43-.06c-.52-.09-.97-.08-1 .04-.03.12-.17.3-.23.06s-.75-.26-.77-.13c-.02.13-.18.5-.29.55l-.03-.03-.59-.56c-.73.18-1.42.4-1.54.47l-.17-.15c-.26-.24-.45-.12-.46.25 0 .09.03.21-.02.26-.07.08-.18.14-.29.16l-.06.01c-.07-.07-.25-.34-.39-.6-.14-.26-.89-.74-1-.66-.12.09-.43.45-.67.56-.24.12-.52.79-.61.75v-.03c.03-.27-.06-.47-.32-.37-.11.04-.13.35-.2.53l-.03.08c-.05.08-.06-.08-.01-.37.05-.29-.15-1.1.15-1.34l.26-.24.1-.09c.12-.18-.13-.33-.55-.33l-.2.16c-.34.27-.53.28-.83-.03-.08-.09-.46-.03-.55.09-.09.12-.06.42.02.59l.08.18c.17.12.21.37.08.56-.12.18-.68.54-1 .46l.37-.39.36-.37c-.37-.21-.7-.18-.73.06-.03.24-.12.65-.13.4-.01-.25-.67.02-.81-.16-.13-.18-.63-.56-.77-.39-.14.17-.46.45-.39.2.08-.25-.66-.11-.66.1-.01.21-.41.87-.88.83l-.4.03c-.27.02-.52.18-.79.22-.4.07-.16-.47-.39-.51l-.36-.06c-.42.1-.66.21-.53.24.13.04.36.42.22.76l-.32-.2c-.32-.2-.43.43-.73.08-.13-.16-.45-.13-.66-.23-.25-.12-.45-.34-.7-.44l-.17-.07c-.31.04-.48.22-.36.4.12.18.33.65.27.71-.06.06-.37.21-.44.09-.05-.12-.31-.38-.35-.27-.04.11-.33.12-.57-.19l-.45-.01h-.28c-.27.06-.66.18-.87.27l-.03-.05c-.26-.38-.4-.06-.55.09-.22.23-.39.27-.62.02l-.07-.08c-.19.03-.33.14-.31.24.02.1-.16.57-.47.71l-.11-.48-.08-.34c-.2.04-.65.06-.99.05h-.31c-.27 0-.5-.46-.82-.07l-.05.07c-.29-.16-.46-.35-.39-.4.07-.06.55-.34.85-.52l.23-.23c.11-.11-.29-.38.06-.55.21-.1.4-.28.62-.34l.44-.12c.16-.4.39-.77.5-.82.11-.05.43-.04.46-.24.04-.2-.98-1.46-.83-1.41.15.05.63-.01.71-.25.08-.24.52-.66.73-.23l-.02.29-.02.23c-.32.28-.21.65.25.82l.21.28.21.28c.32.23.59.22.6-.01.01-.23.2-.77.42-.64l.04-.04.23-.21c.05.19-.07.67-.25 1.07l-.2.34-.4.77c.11.52.34.71.51.4.17-.3.56-1.37.86-1.71l.1-.44c.05-.25.2-.06.22.13l.04.43c.28-.1.64-.31.79-.48.15-.17 1.15-.03 1.72-.16l.53.28c.13.07.44.13.46-.22.02-.23.43-.46 0-.7l-.09-.05c-.17-.26-.16-.42.03-.35s.57.23.8.21c.23-.01.78.5 1.28.36l.47-.03c.01 0 .03-.23.01-.34-.01-.05-.13-.08-.2-.09l-.15-.02c-.18 0-.32-.08-.29-.19h.01l.28-.03c.33-.03.6.23.6.57l.12.16.21.19c.31-.16 1-.39 1.53-.51l-.49-.7c-.02-.02.05-.15.09-.16.07-.02.19-.03.24.01l.67.56c.12-.44.26-.84.31-.89.05-.05.18.03.18.28l.07.02.54.19c.13.53.27 1 .31 1.05.04.05.18.04.27-.04.09-.08.36-.22.42-.14.05.09.38.17.6-.04l.24-.08.79-.25c.17-.76.32-1.41.35-1.44.03-.03.23-.05.4.05.17.09-.1 1.09.06 1.15.16.06.91-.02 1.33-.3l.39-.28c.04-.03.04-.17.02-.24-.01-.05-.09-.13-.14-.13l-.58-.02c0-.31.24-.5.53-.42.29.08.9.61.8.71-.1.11.03.57.45.86.42.29 1.68-.32 1.61-.46l-.05-.15-.08-.23c.2-.26.67-.58 1.05-.71s1.45.15 1.54-.1c.09-.25.42-.92.49-.78.06.14.41.23.63-.1l.18-.2c.07-.07.32-.08.32-.08.25.95 1.01.41 1.53.56.1.03.24-.04.33-.1.04-.03.05-.17.03-.24l-.01-.05c-.07-.05-.41-.11-.75-.14l-.31-.02c-.22-.01-.42-.24-.64-.26l-.31-.03c-.13-.24-.36-.59-.51-.78-.15-.19-.9.15-1.05.16-.15.01-.48-.19-.39-.47.09-.28.11-1.08-.02-1.11l-.04.04c-.24.24-.46.7-.7.72l-.46.03c-.26.3-.65.69-.86.87l-.46-.53-.16-.19c-.18-.2-.47-.4-.63-.44l-.13.04-.59.18c-.19-.32-.37-.61-.4-.65-.03-.04-.28.09-.45.39l-.23.15c-.22.14-.57-.05-.77.27-.03.04-.18.04-.24.01-.24-.14-.46-.31-.69-.47-.17-.11-.33.29-.55-.03l-.13-.19c-.33-.07-1.07-.26-1.65-.42l-.42-.47-.19-.21c-.46.03-.82.23-.8.45.02.22-.47.85-1.11.83l-.56.07c-.47.06-.18-.52-.51-.56-.27-.03-.54-.1-.8-.19l-.05-.02c-.02-.28-.18-.23-.36.12l-.16.21c-.05.07-.25.11-.32.06-.08-.05-.15-.28-.11-.32l.31-.35c-.05-.5-.18-.78-.29-.63-.11.15-.41.5-.44.48-.03-.02-.06-.19 0-.34.06-.15.01-.63-.28-.64-.29-.01-.99.12-.96.3.02.18-.51.78-.62.91-.11.13-.44.41-.48.32-.03-.09-.27-.12-.43.15-.16.27-1.16.19-1.29.06-.14-.13-.45-.26-.5.11l-.42-.21c-.31-.15-.37-.37-.17-.76.15-.29-.09-.16-.3-.12l-.33.07c.09-.28.34-.51.55-.51l.08-.1.13-.16c.06-.25.02-.59-.1-.74l-.03.02-.97.53c-.32-.79-.61-1.43-.63-1.43-.02 0-.29.22-.42.51-.13.28-.44.7-.4.28l-.5-.03-.14-.01c-.15.11-.34.05-.4-.14-.07-.19-.46-.35-.68.17l-.18.4c-.02.04-.16.04-.23.02l-.06-.02c-.05-.07-.1-.29-.11-.48-.01-.19.07-.77.38-.88.31-.12.1-1.14.17-1.26.07-.11.23-.45.19-.5h-.03l-.33.03c-.32-.19-.67-.49-.81-.68l-.16.15-.08.08c.05.32-.01.62-.13.68-.13.06-.52.01-.43-.32l.04-.25c.03-.17.05-.36.01-.52-.05-.24-.09-.52-.24-.67l-.15-.15c-.3-.05-.55-.14-.56-.2-.01-.06.14-.84.33-1.58l.97-.03.38-.01c.36-.23.5-.45.31-.47-.19-.03-.5-.26-.18-.45l.22-.18.17-.14c.19.03.5.19.67.36l.18-.23c.04-.05-.16-.25-.18-.4-.02-.16 0-.33.25-.16l.09.06c.33-.12.25-.39-.17-.6l-.3-.1-.1-.03c-.14.08-.23.07-.19-.03.04-.1.04-.43-.08-.48-.12-.05-.44-.26-.4-.36.04-.1-.03-.38-.25-.42-.22-.04-.16.89-.27.96-.11.07-.51.19-.64.14-.13-.05-.4-.4-.37-.53l.06-.1c.03-.04.17-.05.23-.02l.11.06c.17.18.3.02.27-.34-.02-.36.38-1.16.61-.97.23.18.66-.49.58-.52-.08-.03-.26-.2-.23-.29h.03c.41.05.57-.33.78-.56l.1-.11c-.06-.31-.04-.6.05-.64.09-.04.51-.08.67.05.16.13-.07.74.06.88.13.15.51.51.54.49.03-.02.09-.16.04-.26-.04-.1-.1-.55-.13-.77-.02-.22-.01-.99.51-1.3l.57.45.22.17c.18-.34.38-.76.45-.82zm177.16 23.43c-.13.07-.49.04-.79-.06l-.26-.11c-.2-.08-.42-.24-.61-.21-.17.02-.02.55-.43.45h-.01c-.04.13-.06.35-.04.49.01.14-.63.05-.63-.12-.01-.18-.17-.59-.35-.47l-.14.05-.15.05c-.16.01-.48.17-.7.35-.22.18-.97.07-1-.24l.24-.27.19-.21c-.19-.33-.5-.45-.69-.27-.19.18-.61.77-.44.84.17.07.05.55-.2.63l-.2.12c-.08.05-.11.22-.12.33 0 .05.09.15.15.16l.31.07c.34.09.71.13.81.08l.06-.08c.11-.16.16-.45.3-.5.12-.05.33.22.5.22h.31c.35-.07.8.06 1 .28l.33-.32.36-.34c.21.35.44.55.5.43.06-.11.41-.17.43-.13.01.04.14.11.25.08.11-.03.41.06.42.02.02-.04.23-.29.43-.48.21-.19.64-.94.63-1.16l-.09-.04c-.21-.1-.38 0-.39.3l.02.06zm-88.87-.41c.06.17-.24.17-.66 0l-.21.38-.15.26c-.12.36.33.53 1.01.38l.16.02.14.02c.16-.04.25-.13.21-.2-.04-.08.14-.53.5-.84l-.59-.59-.09-.09c-.08-.1-.28-.38-.43-.61l-.27-.01-.23-.01c-.24-.01-.35.13-.24.3.11.15.79.82.85.99zm47.32 1.03c.24-.11.41-.07.38.1l.06.05.4.32c.75-.3 1.28-.68 1.19-.85-.1-.17-.78.09-.95.11-.17.02-.64-.07-.79-.16-.15-.09-.54-.18-.63-.04-.09.14-.41.41-.51.3-.1-.11-.49-.27-.65-.14-.16.13-.51.59-.52.62-.01.03.11.13.28.09.17-.04.57-.02.53.1-.04.13.03.46.24.52l.19.01h.05c.07-.16.49-.92.73-1.03zm-40.34-.89c-.03-.08.09-.14.27-.14.18.01.63.09.67.18l.01.04c.06.21-.18.56.23.6l.33.04c-.04-.26.13-.63.37-.82l.19.05.22.06c.22-.01.2-.12-.04-.24l-.12-.29c-.04-.09-.37-.09-.56-.07l-.4.04c-.25-.2-.36-.48-.24-.62s.32-.52.25-.63c-.07-.11-.39-.3-.53-.13-.13.17-.06 1.14-.2 1.28-.14.14-.58.43-.65.34-.07-.1-.33-.24-.43-.11l-.07-.01c-.42-.07-.65.09-.78.51l-.04.12c-1.25-.14-2.2-.16-2.1-.05.1.11.63.44 1 .54l.29-.28.16-.15c.19-.17.36-.41.4-.52.03-.11-.03-.27-.23-.08s-.98.33-1.11.25c-.13-.08-.44-.59-.33-.93l.05-.34.01-.15c-.15-.18-.57-.24-.94-.14l-.35.05c-.06.01-.14.22-.12.32.01.08.17.2.25.19l.14-.02c.14-.1.31-.05.38.11s.01.55-.33.4l-.18.08-.46.19c-.18-.32-.42-.67-.51-.76l-.09.01-.08.01c-.08.12-.19.52-.24.88l.31.29.26.25c.2.35.45.35.53.01l.47.16.33.11c1.2-.16 2.18-.11 2.18.11l.09.07c.16.13.36.14.43-.18.02-.11.21-.26.3-.25.26.03.51.16.77.22l.13.03a.29.29 0 0 0 .19-.38l-.05-.15-.03-.1zm-80.7 6.72c.12-.13.57-.06.99.16l.4.15c.08.03.28-.11.33-.22.07-.15.04-.19.27-.17l.58.05c.64.09 1.3.16 1.48.16l.15-.05.44-.15c.56-.22.82-.43.59-.47l-.09-.09-.14-.14c-.1-.14.04-.1.31.09.28.19 1.23.16 1.23-.04l.01-.17c.02-.21-.04-.5.07-.61l.38-.39c-.31-.13-.76.14-1 .59l-.77-.31-.33-.13c-.06.33-.23.58-.38.56-.15-.02-.66.21-.8.24s-.73-.28-.99-.42c-.26-.13-1.04.39-1.27.61l-.2.21c-.31.32-.29.33-.51 0-.14-.21-.29-.42-.48-.59l-.1-.09c-.17-.02-.33.03-.35.12-.02.09-.21.3-.39.28-.18-.03-.1.61-.05.77.05.15.5.18.62.05zm71.83-8.34c.12.82-.05 1.34-.38 1.16l-.25.06-.23.06c-.19.34-.47.33-.63-.03l-.29.32c-.3.33-.63.38-1 .33a.545.545 0 0 0-.56.35c-.04.11-.16.18-.22.28l-.13.2c-.13.23-.26.86-.28 1.4l.22.09.16.07c.22-.07.46-.31.54-.52l-.31-.04c-.31-.04-.31-.3-.16-.45l.26-.25c.34-.21.75-.45.91-.53.16-.08.65.25.75.4.09.16-.2.65-.3.65-.1 0-.43.18-.42.42 0 .24.31.68.68.41.37-.26.56-1.84.72-2.33l.26.21c.38.31.49.05.64-.14l.12-.15c-.48-.98-.73-1.67-.57-1.54.17.13.56.6.65.72.08.12.55.06.51-.48l-.36-.36-.33-.31zm-5.52 2.63c.26-.84.16-1.67-.21-1.86l-.33-.02c-.38-.02-.77.16-1.16.19-.27.02-.55-.08-.83-.13l-.09-.01c-.09-.01-.3 0-.45.02-.16.02-.46.38-.38.56.09.18-.16.67-.17.69-.01.02-.33-.02-.71-.09l-.33-.09c-.08-.02-.18-.17-.18-.26s.11-.23.19-.25l.18-.05c.24 0 .15-.32-.19-.7l-.34.32c-.21.17-.26.57-.35.88-.11.42.31.28.46.43.23.24.42.76.87.25l.01-.01c.08.06.3.18.48.27.18.09.42-.33.43-.49.01-.16.21-.65.44-.45.22.2.81.43.99.22l.17-.02c.19-.02.36.46.6.18.3-.35-.15-.49-.28-.72l-.03-.06c-.05-.13.19-.06.54.15.35.22 1.33.98 1.42.57l.07-.32.43-1.15c-.09-.06-.24-.19-.27-.17l-.18.15c-.17.19-.21.49-.07.65l-.14.25-.13.23c-.08.32-.27.54-.42.48l-.08-.08c-.18-.18-.39-.25-.51-.02-.11.22.01.38.29.41l.26.05zm84.02.3c.16-.01.21-.2.11-.42l-.13-.16c-.13-.15.32-.35-.01-.56-.18-.12-.3-.27-.53-.09l-.06.05c-.11 0-1.12-.14-2.23-.29l-1.08.31-.43.12c-.36-.34-.79-.47-.95-.31-.16.17-.6.5-.67.42-.07-.08-.43-.19-.56.04-.12.23-.23.92.18.73l.25-.01.18-.01c.22.03.62.12.88.2l.26.09.18.06c.47-.18.96-.43 1.08-.56l.07.02.68.19c.01-.55.32-.57.68-.05l.35.43.38.47c.49.45.96.72 1.05.6.08-.09.16-1.25.32-1.27zm-55.22 2.31c.29.07.52.06.5-.03l-.02-.01-.33-.19c-.39-.11-.77-.25-.84-.3l-.01-.06-.02-.08c.03-.09.26-.25.52-.36.26-.1.48-.86.63-.84l.14.02.09.01c.1.01.17-.09.15-.23l-.05-.1c-.02-.05-.14-.04-.22-.05-.19-.03-.45.06-.43-.29.01-.25.02-.38.33-.55l.4-.21c.42-.47.77-.73.79-.56.02.16.19.5.33.4l.13-.05c.18-.06.38-.09.58-.12l.08-.01c.09.03.25.25.37.5l.34-.21.17-.1c.27.07.6.14.75.17.14.03.57-.26.72-.36l.2.19.12.11c.26-.02.48-.19.49-.39.01-.2-.2-.79-.47-.82-.27-.03-.94.22-.89.28.05.07-.42.28-1.2.24l-.66.02c-.46.01-.82-.1-1.05-.52l-.19-.35c-.24.13-.66.5-.92.82l-.33-.07-.74-.15c-.56.47-.95 1.05-.86 1.29l.3-.24c.15-.12.34-.19.52-.27l.16-.07c.14.22.2.74.15 1.16l.11.39c.04.15-.16.51-.18.51-.68-.19-.48.49-.7.75l-.16.19c.1.1.91.47 1.2.54zm68.22-2.35c0 .11.35.27.79.34l.32-.12c.4-.15.65.51 1.07.08l.15-.15c.34.09.73.24.86.33.13.09.35.03.18-.36-.17-.39-.7-1.4-.54-1.57.16-.17-.38-.69-.84-.39l.04.64v.04c-.36.1-.58.1-.49 0 .09-.1.21-.33.14-.4-.06-.07-.22-.01-.17.32.05.33-.2 1.11-.39 1-.19-.11-.52-1.1-.65-1.09-.12.01-.47.08-.42.14.05.06.25.31.38.49.13.17-.43.59-.43.7zm-8.72-.48c.2.03.09-.47-.25-1.1l-.72.67c-.05.04-.31-.08-.4-.19l-.31-.35c-.4.1-.93.22-1.18.28l-.12-.1c-.19-.17-.28-.2-.46 0l-.13.14c-.27.15-.3.3-.07.33.23.04.64.41.85.68.21.27 1.11 1.05 1.56 1.07l.41-.01c.07 0 .18-.17.18-.26s-.11-.23-.19-.25l-.26-.06c-.34-.03-.49-.15-.34-.28.14-.11 1.22-.6 1.43-.57zm-161.22 7.06c.02.13-.02.02-.07-.25s.62-.75.78-.72c.17.04.46-.3.34-.44l-.11-.13-.09-.1c-.12-.14-.25-.05-.29.18l-.07.04c-.13.07-.32.11-.46.08l-.24-.06c-.31-.15-.49-.12-.4.08.09.2-.57.51-.67.22-.1-.3-.9.05-.91.37-.01.33.15 1.25.38 1.17.23-.08.87-.48 1.01-.67.12-.19.79.1.8.23zm56.91-3.21c-.05.45.25.85.67.87l.33-.03.06-.01c.05-.22-.03-.41-.18-.44l-.05-.08-.07-.11c-.01-.17.11-.33.27-.34l.13.05c.1.04.23.17.25.28l.04.28c.21.06.41.02.44-.09.04-.11 0-.57-.06-.79l-.12-.14c-.08-.09-.28-.12-.41-.1l-.5.07c.07-.27.13-.55.13-.62 0-.06-.15-.26-.32-.28l-.1.07c-.33.24-.52.26-.55-.24 0-.05-.25-.11-.39-.11h-.03c-.04.17.51 1.31.46 1.76zm48.66-1.98c-.01.23.19.43.45.43l.16.02.13.02c.15.06.08-.18-.17-.54l-.22-.33-.02-.04c.03-.12.14-.17.25-.12.11.05.4.04.46-.11s.19-.74.15-1.01l-.17-.14-.09-.07c-.17.04-.51.27-.74.51l-.28-.05-.38-.07c-.25.24-.5.65-.56.91-.06.25.46.49.45.25-.02-.24.59.11.58.34zm38.35-1.02c-.01.32.2.38.46.14.27-.24.96-1.05 1.15-1.32l-.31-.21c-.27-.18-.5-.18-.78.04l-.15.12c-.26-.02-.57-.04-.67-.03l-.02-.05c-.08-.14-.09-.32-.18-.44-.05-.06-.25-.07-.32-.02l-.08.06c-.01.15.01.41.04.59.04.18-.23.63-.25.68-.02.05.05-.04.18-.28.14-.25.94.4.93.72zm58.57-2.74c.19-.07.29.13.23.44-.07.3-.11 1.12.08.98.19-.14.8-.08 1.06-.35.26-.27-.13-1.41-.38-1.44-.25-.02-.86-.25-1.05-.1-.19.15-.62.55-.61.58.01.02.48-.05.67-.11zm-196.93-22.5c-.27-.01-.55.29-.62.67l-.48.32c-.06.04-.12.2-.11.21.35.29-.26.39-.11.6.14.19.32.34.48.51l.23.25c.26.3.65.24.86-.13l.18-.36.02-.04c-.07-.12-.25-.18-.39-.13-.15.05-.55-.48-.43-1.34l.77-.31.17-.07c.22-.01.39-.03.39-.06-.02-.03-.69-.11-.96-.12zm38.65 20.89c-.08.09-.23.03-.32-.13s-.5-.31-.73 0l.18.47c.09.24-.24.38.03.7l.31.36c-.48.16-.68.31-.45.33.23.02.69.18.7-.15.01-.32.06-1.18.09-1.18s.12.11.15.25.21.52.35.5l.11-.04.15-.05c.21-.1.05-.36-.37-.58l.11-.27c.03-.07.17-.13.17-.18-.01-.14-.05-.38-.12-.41-.26-.09-.37.08-.35.35l-.01.03zm48.62 5.05c.11.32.42.43.7.25l.23-.16c.23-.15.34-.67.16-.71-.37-.1-.64-.59-1.09-.31-.13.08-.18.24-.36.04l-.34-.38c-.2.33-.17.83.07 1.11l.29.07.34.09zm-65.91-6.66c.16.56.43.92.6.81.17-.11-.21-1.02-.44-1.41l.06-.45c.01-.04-.19-.16-.28-.15-.08.01-.17.15-.2.24-.04.12 0 .26-.03.39l-.01.04c-.1.03-.2-.06-.21-.19-.02-.14-.26-.51-.5-.49l-.2.03h-.03c-.02.05.08.21.22.36.14.14-.16.75-.15.9l.14-.01 1.03-.07zm97.72 5.58c.15.32.37.46.48.32.11-.15-.34-.65-.44-.71-.1-.06-.62.01-.84-.07l-.21-.02c-.2-.02-.44.15-.6.08l-.58-.26c-.15.5.36 1.02 1.15 1.16l.5-.24.54-.26zm84.29-7.47c.32.21.46.49.32.63l.02.03.28.52c.5-.25.92-.74.92-1.09l-.34-.05c-.44-.07-.55-.48-.84-.7l-.09-.07c-.13-.07-.34-.02-.46.11-.13.13-.37.71-.25.99l.36-.3.08-.07zm-53.18 9.8c-.29.21-.43.57-.33.8.11.24.57.78.72.5.15-.28.6-.93.72-.91l.08.08c.17.17.37.29.5.06.06-.1-.07-.41-.2-.52-.14-.12-.44-.23-.54-.15-.24.18-.46 0-.65.05l-.3.09zm-14.23-2.57c.05-.21-.22-.44-.6-.5-.38-.07-1.44.14-1.59.07-.15-.07-.01.53.03.68.04.15.35.37.58.11l.23-.18.21-.16c.27-.11.55-.04.62.14.07.19.47.06.52-.16zm-46.2-1.04c.2.1.46.07.58-.05.11-.13.33-.52.22-.58-.11-.06-.63-.02-.87.26l-.46-.27c-.25-.15-.65-.05-.98-.05h-.07c-.1.06-.17.25-.16.42 0 .17 1.54.17 1.74.27zm-81.01-31.22c-.24-.07-.26-.39-.04-.72l.12-.3c.04-.1-.11-.29-.19-.43-.13-.23-.23-.02-.36 0l-.32.06c-.12.25-.14.58-.04.73.1.15-.2.65-.06.97l.17.25c.07.1.33.19.4.14.18-.14.49-.28.37-.6l-.05-.1zm188.98 15.49c-.09-.1-.28.32-.42.94l.74-.04c.18-.01.35-.22.52-.21l.19.01c.25.17.45.13.44-.07-.01-.21-.1-.85-.18-1.07-.08-.22-.75-.03-.78.15-.03.17-.41.39-.51.29zm11.14 9.62c.17-.31.06-.55-.25-.53-.31.02-1.07-.27-1.06-.03 0 .24.22.84.32.84.1-.01.44.12.66.16l.12-.16.21-.28zm-183.9 11.89c.09.1.27.08.4-.03l.49-.07c.06-.01.14-.05.16-.1.03-.07.04-.22 0-.25l-.31-.2c-.37-.2-.5-.6-.3-.87l-.3-.24-.12-.09c-.17-.04-.33 0-.36.09-.03.1.08.62.18 1.05l-.52.21-.15.06c-.14.37-.14.56 0 .42.14-.13.74-.08.83.02zm54.69-3.92c-.07-.14-.38.07-.7.46l-.45-.17c-.18-.07-.34-.19-.52-.25-.1-.03-.32 0-.32.03-.02.14-.02.31.03.44.04.11.15.26.25.28l.41.05c.32.28.7.56.85.61.15.05.3-.44.22-.62l-.23-.01h-.03c-.03-.11.05-.21.19-.23.13-.01.37-.46.3-.59zm115.95-2.71a.561.561 0 0 0-.71-.34l-.07-.07-.37-.4c-.14.34-.1.65.08.69.18.04.62.22.51.33-.11.1-.29.43-.17.49.12.06.63.22.97.14l.31.16.06.03c.11-.11.04-.31-.18-.45l-.22-.11c-.06-.03-.1-.13-.12-.2l-.09-.27zM24.422 7.245c.31.17.61.04.66-.29l-.08-.15c-.14-.26-.35-.57-.59-.65-.43-.15-.58.39-.87.6-.04.03 0 .18-.03.24l-.11.2c-.03.23.13.43.37.45l.01-.35c0-.05.29-.14.43-.1l.21.05zm136.69 33.84c-.11-.11-.33-.22-.51-.25l-.07.06c-.09.09-.19.32-.14.39l.07.11c.18.05.18.16 0 .24l-.07.13c-.06.1-.02.34.06.43l.13.13c.19.07.55.19.81.26l.22-.08c.07-.03.19-.07.19-.12.01-.12.01-.28-.06-.34l-.11-.1c-.17-.06-.26-.17-.21-.26.07-.1-.2-.5-.31-.6zm-70.45-.54c.48-.09.87-.26.85-.38-.01-.12-.09-.31-.15-.16l-.09.09-.08.07c-.13.02-.48-.01-.78-.07-.3-.06-1.08-.04-1.11.17-.03.21-.49-.08-.55-.05-.07.03-.18.25-.09.4l.11.04.15.06c.18-.02.64-.07 1.01-.09l.33-.03.4-.05zm-64.11-33.72c-.18.13-.28.04-.22-.2l.04-.11.03-.09c.04-.1-.05-.21-.22-.24l-.03.05c-.13.23-.18.52-.53.54-.04 0-.09.38-.08.58 0 .04.28.12.4.07l.13-.05c.13 0 .46.01.73.02.27.02-.06-.7-.25-.57zm81.23 32.85c.27.08.43.05.34-.06-.08-.11-.35-.55-.6-.77l-.15.07c-.23.11-.35.24-.57-.01l-.03-.04c-.32.22-.48.49-.35.62s1.09.12 1.36.19zm-72.09-7.43c-.45-.4-.86-.32-.9.17l.36.11.16.05c.29-.3.67-.34.84-.07.17.26.79-.11.66-.33-.13-.21-.68-.77-.89-.8l-.01.03-.22.84zm-6.54 14.02c-.31-.06-.51.03-.44.19l.08.14.11.2c.12.22.33.18.46-.08l.13-.03.52-.14c.58-.09.9-.29.7-.44-.2-.16-1.25.22-1.56.16zm78.01-5.63c.01-.22-.47-.21-1.06.02l-.45.26c-.15.09.13.31 1.12.59l.1.03c.14-.04.27-.28.28-.53l.01-.21v-.16zm-73.93 7.65c.1-.09.21-.14.26-.1v.03c.02.28.07.51.42.44.11-.02.32-.06.32-.09v-.24c-.05-.25-.19-.59-.32-.73-.13-.15-.64-.24-.85.13-.21.37.07.65.17.56zm-26.4-24.78c.1-.13.14-.25.08-.28l-.02.01c-.23.16-.44.43-.69.47-.23.04-.5-.18-.75-.25-.1-.03-.32.04-.32.07l-.01.15c.05.16.3.3.57.31.26.01.96.3 1.19.02l-.03-.38-.02-.12zm29.49 12.85c-.22-.01-.36.25-.3.56l.38.47c.08.11.19.24.31.26l.17.03c.15-.15.21-.42.14-.6v-.16l.01-.17c.1-.2-.48-.39-.71-.39zm110.19 5.44c-.21-.01-.13.41.18.93l.33.27c.19.15.77.13.88-.03.27-.43-.3-.33-.45-.52l-.11-.14c-.2-.08-.33-.19-.29-.24.04-.05-.33-.26-.54-.27zm-129.73-9.18c-.09.2-.14.37-.12.39.02.02.18-.04.29-.17.11-.12.48-.66.55-.92.07-.26.03-1.13-.02-1.33l-.12-.09-.17-.13c-.14.18-.33.48-.43.67l.03.15.05.26c.01.29.03.98-.06 1.17zm152.14 6.49c.19-.1.23-.37.1-.59l.35-.25.22-.16c-.08-.19-.35-.38-.59-.4l-.22.02c-.31.02-.54.36-.45.7l.04.14c-.01.14-.02.31-.03.39-.01.08.1.28.26.27l.13-.05.19-.07zm-103.28 5.87c.08-.2.21-.2.3-.01.08.19.61.31.38.08l-.11-.2c-.06-.11.49-.36-.08-.43-.21-.03-.45-.26-.62-.2l-.28.1c-.05.35-.18.76-.29.91l-.04.15c-.03.09.05.28.12.31l.08.04c.14-.06.46-.56.54-.75zm93.92-1.35c-.28.01-.19.08.19.14.39.06 1.47.16 1.5.08.03-.08.14-.37.09-.45-.04-.08-.25-.27-.41-.2-.15.06-1.09.41-1.37.43zm-150.31 4.75c.21-.02.21-.18.02-.35-.19-.18-.99.35-1.23.4l-.22-.08c-.07-.02-.2.08-.27.16-.04.04-.02.22.02.23.36.15.71.31 1.09.39.08.02.35-.37.32-.4-.17-.22-.23-.34.12-.35h.15zm33.22-11.27c-.02-.14-.06-.26-.1-.27-.03-.01-.18.06-.26.18-.08.12-.17.62-.2.85-.03.23-.27.91-.3 1.05-.03.14.02.27.18 0l.13-.06c.76-.36.46-1.05.54-1.62l.01-.13zm-8.69 2.08c-.28.13-.3.22-.05.21.25-.01.78.53.89.5.12-.03.36-.36.44-.56.08-.2.24-.82.19-.92h-.05c-.11 0-.27.01-.32.09l-.07.08c0 .15-.11.51-.26.79l-.57-.14-.2-.05zm40.03 4.6c-.02-.24-.38-.38-.82-.3l-.34.09c-.19.05-.22.48-.03.49.38.03.34.23.38.5l.03.22c.16.22.36.23.45.02l-.07-.09c-.13-.16-.18-.24.01-.38.13-.1.28-.22.33-.37l.06-.18zm-46.89-34.35c0-.12-.5-.35-1.13-.52l-.54-.12c-.08-.02-.25.08-.28.16-.03.1.02.3.09.33.28.13.58.26.88.31l.33.05c.36.14.65-.09.65-.21zm-22.04 13.99c-.43-.76-.77-1.25-.77-1.08.01.16.04.88.14 1.32l.05.4c.01.07.19.15.28.14.08-.01.19-.14.2-.23l.1-.55zm218.9 9.71c-.3-.05-.36.12-.13.39.23.27.9.84 1.02.74.12-.11.07-.7.01-.62-.05.08-.59-.46-.9-.51zm-112.37 8.19c.19.17.55.18.79.03s.19-1-.24-1.04l-.36.05-.31.04c-.35.17-.08.76.12.92zm32.72 2.05c-.06-.07-.13.03-.16.21s-.85.33-1.28.52l-.38-.37c-.02-.01-.15.06-.19.12-.04.07-.03.17-.01.25.01.04 1.22.32 1.26.3l.34-.24c.38-.28.48-.73.42-.79zm-106.81 5.23c-.01.33.17.49.41.34l.06-.12c.33-.6.48-.77.78-.96l.08-.05c.03-.21-.12-.26-.34-.11l-.21.01-.24.01c-.28-.11-.53.55-.54.88zm-10.39-37.66c.53.02.34-.35-.42-.83l-.71.03h-.05c-.05.18-.02.35.06.39l.08.01.09.01c.1-.02.25.16.33.4l.29-.01h.33zm-.16 27.3c-.17.53.01.89.42.79l.29-.09c.19-.06.35-.22.54-.23.33-.02.29-.25.28-.45 0-.12-.05-.31-.11-.33-.24-.08-.38.01-.4.31-.01.07-.27.19-.38.16l-.64-.16zm169.22 1.89c.59.38 1.11.47 1.15.2l-.34-.17c-.22-.11-.5-.3-.56-.52-.12-.4-.39-.21-.6-.24-.04-.01-.18.35-.16.37l.51.36zm-151.91-2.77c.26-.06.29-.19.06-.3l-.14-.07-.39-.19c-.18.32-.45.85-.59 1.17l-.08.31-.03.1c.12.15.28.23.35.18.08-.05.56-1.15.82-1.2zm-25.84 10.75c.15.17.33.23.41.12h.06c.55-.02.49-.71.89-.9l.05-.02c-.03-.22-.19-.39-.36-.36l-.12.06c-.3.19-.31.83-.88.62-.01-.01-.16.23-.13.3l.08.18zm92.52-5.42c-.16-.12-.22.14-.12.58l-.62-.05h-.04c-.06.22 0 .46.13.54l.09-.03.4-.15c.45-.21.32-.77.16-.89zm-63.68 3.24c-.33.04-.37.05-.1.04.27-.02.87.42.92.36.05-.06-.07-.42-.24-.73l-.17-.27c-.06-.09-.22-.21-.25-.19-.1.09-.26.23-.24.33l.08.46zm-44.69-18.74c.14.32.38.41.54.2.16-.21.34-.78.05-.79l-.16-.1-.17-.11c-.16.03-.41.2-.56.37l.17.25.13.18zm129.42 16.13c.13 0-.02-.35-.34-.79l-.37-.2c-.16-.09-.53.23-.8.38l-.03.02c.02.12.22.18.44.11l.2-.02.19-.02c.24.02.4.11.35.19-.03.1.23.33.36.33zm-27.13-2.87c-.18-.01-.28.29-.21.66l.17.17.15.15c.3.01.55-.15.55-.34.01-.19-.48-.64-.66-.64zm30.03.88c-.19-.17-.3-.37-.25-.44.05-.07.1-.28.02-.34l-.05.02c-.51.15-.53.33-.17.79l.09.12c.04.18.22.55.38.84l.27-.19c.31-.21.05-.44-.12-.62l-.17-.18zM23.022 9.685c-.17-.53-.45-.84-.63-.7-.18.15-.66.5-.79.59-.13.09.31.47.5.22l.19-.02.73-.09zm192.5 12.2c-.06-.26-.32-.36-.58-.22l-.1.15c-.07.09.09.36.02.44-.12.14-.34.17-.5.28l-.07.04c-.05.1.08.21.28.27.19.04 1.01-.7.95-.96zm-184.38 10.27c.12.27.32.31.46.09.13-.22.28-.79.03-.78l-.18-.05-.19-.06c-.36-.21-.24.53-.12.8zm135.15 7.83c.27-.16.37-.45.22-.63l-.1-.06c-.46-.28-.79.15-1.18.27-.03.01-.06.18-.03.23.23.34.58.18.88.19h.21zm-110.61-2.87c-.14-.27-.41-.39-.61-.26s-.5.56-.03.54l.3.09.24.07c.22.23.36.2.31-.07l-.1-.17-.11-.2zm-24.05 11.37c.45-.11.75-.5.67-.86l-.1-.29-.01-.04c-.17.01-.32.09-.34.17l.03.02c.2.16.12.3-.05.37-.21.09-.46.1-.67.19-.08.03-.15.21-.14.3.01.08.16.22.23.2l.38-.06zm106.71-4.77c-.42.14-.78.38-.79.52-.01.15.05.54.11.57.05.03.23.02.26-.07l.01-.08c.01-.09-.02-.26 0-.27.3-.09.61-.14.9-.26l.11-.04c.08-.17.01-.37-.14-.46l-.12.02-.34.07zm-116.3-3.4c-.15-.4-.34-.41-.43-.03h-.03c-.5-.07-.39.48-.61.67-.1.08-.04.61.06.65.37.16.33-.18.39-.44.04-.19.2-.35.33-.51l.29-.34zm8.64-35.52c-.01.23.21.3.49.14.27-.16.36-.89.17-.89-.2-.01-.66.51-.66.75zm170.8 6.5c.19-.09.12-.32-.14-.5s-.67.05-.62.2c.06.16.58.39.76.3zm-158.12-8.1c-.56.22-.67.57-.24.77l.49-.32c.09-.06.26-.02.33-.09.08-.07.13-.24.1-.33-.03-.08-.2-.18-.28-.15l-.4.12zm-4.4 44.89c-.1.02-.04.3.15.61l.33-.32c.07-.07.36-.42.68-.18l.07.06c.26-.16.28-.38.06-.49-.22-.11-1.19.3-1.29.32zm3.18-14.88c.17.17.45-.03.62-.46l.03-.34.01-.09c-.32-.13-.83.72-.66.89zm-1.44-1.39c.21.31.25.6.08.65l-.1.09c-.07.07-.13.25-.09.34.03.08.25.17.3.14l.25-.21c.25-.27.47-.66.5-.87l-.08-.11c-.08-.1-.3-.13-.45-.1l-.41.07zm-2.21.4c-.06.36 0 .3.13-.13l.41.1.3.07c0-.26-.03-.57-.09-.69-.04-.12-.69.29-.75.65zm188.98 4.53c.17.13.51.14.74.02l-.24-.31-.17-.22c-.14-.28-.29-.52-.33-.53-.04-.01-.29.02-.37.14-.08.1.19.77.37.9zm-194.33.37c-.29.15-.34.3-.12.32.22.03-.12.56-.1.63.03.07.22.2.36.11l.06-.12c.08-.17-.09-.48.24-.5.3-.01.37-.2.27-.41-.05-.1-.3-.16-.44-.12l-.27.09zm170.77-27.04c-.08-.02-.1-.15-.05-.27.05-.13-.06-.17-.37.28l-.47.08c-.03.01-.07.18-.04.23.06.09.18.2.25.19.3-.06.6-.16.9-.26l.03-.01c.01-.08-.17-.21-.25-.24zm-93.36 34.39c-.27.14-.36.35-.2.46.16.11.54.36.49.3-.05-.06-.05-.25.12-.32.16-.06-.14-.59-.41-.44zm-80.44 3.55c-.06-.26-.27-.36-.46-.22-.2.14-.36 1.03-.26 1.28.09.26.78-.8.72-1.06zm132.19-6.13c.07.25.36.25.64 0l.25.34c.01.01.15-.03.17-.07.03-.07.05-.22.01-.25l-.38-.31c-.54-.41-.76.04-.69.29zm-58.05-3.74c-.19-.06-.31.08-.26.31l.05.01c.37.04.45.25.4.59l-.02.16c.05.24.21.18.36-.12.16-.3-.34-.89-.53-.95zm65.83 1c-.06.1.06.21.28.23l.11-.03c.23-.06.45-.14.66-.24.2-.1.21-.38.02-.52l-.41-.31c-.26.3-.6.77-.66.87zm14.07-1.2c-.21.08-.27.29-.13.46.14.18.58.44.66.2.07-.23-.32-.74-.53-.66zm-166.24-5.54c-.01.23.18.35.43.25l.17-.07.13-.05c.14-.07.2-.24.13-.38l-.1-.08-.22-.19c-.28-.2-.53.29-.54.52z" fill="#E8AE9A"/></svg>