<svg width="405" height="92" viewBox="0 0 405 92" fill="none" xmlns="http://www.w3.org/2000/svg"><path d="M10.704 30.974c.122-.104.523.227.89.749l.383.4.261.261c.244-.383.575-.87.715-1.062h.14l.574-.017c.628.209.994.4.802.418-.192.035-.836.505-.854.974-.017.453.087 1.793.296 1.393.192-.4.785-1.08.907-.714l.174.244c.366.54 1.62.487 1.952-.07l.07-.121c0-.175-.105-.61-.244-.975-.14-.366-.349-1.497-.157-1.689.192-.174.889-.678.82-.383-.07.296.034.993.4.888.349-.104 1.464-.766 1.447-1.183l.07-.436c.017-.156.208-.4.348-.417l.157-.018c.191.157 1.115.836 2.039 1.515l.837-.192.435-.104c.262.26.157.54-.261.626-.401.087.052 1.132.819.853l.244-.487.262-.505c-.157-.905-.018-1.462.313-1.253.349.209 1.569.992 2.005 1.236l.209-.087c.122-.053.261-.105.366-.157l.07-.035c.052-.07.435.192.836.557.4.383-.488 2.611-.453 2.715l.035.018.33.087c.367.07.96-.261 1.308-.766l.035-.453.035-.504c.174-.453.523-.992.75-1.201.243-.21-.907-1.08-1.064-1.08-.157 0-.61-.313-.279-.643.331-.331 1.185-1.306 1.185-1.48v-.157c0-.07-.017-.191.018-.226.279-.226.54-.574.854-.644.418-.07.854.017 1.15-.435.314-.505.558-.296.976-.018l.314.21c.54-.07.505-.662-.105-1.306l-.052-.94-.035-.61c-.435.262-.836.175-.906-.208l-.07-.348v-.018c-.122 0-.331-.348-.488-.783l-.157-.4c-.052-.157.244-.68.436-.836l.262-.226c.33-.33.61-.383.644-.105.035.279.523.853 1.029.453.488-.4 1.62-2.037 2.022-2.263l.052.366c.122.766.261.905.941.505.523-.314 1.133-.505 1.725-.61.349-.07.82-.209.96.54.051.348.661.627 1.045.853.122.07.523-.035.557-.157.35-.992 1.273-1.149 2.005-1.584l.68-.418c-.07-.818-.262-1.27-.436-1.01-.174.262-.767.244-.941-.608l-.244-.732c-.122-.365-.453-.818-.767-.905l-.262-.07c-.418.384-.627.75-.453.819.175.087.523.365.349.452-.175.07-.47.418-.105.488l.175.14.122.104c.017.26-.105.47-.262.452l-.14.035-.592.174c-.645.226-1.36.679-1.603 1.01l-.454-.314a1.373 1.373 0 0 0-.732-.209l-.958.053c.104-.592.279-1.167.4-1.306l-.017-.104a1.175 1.175 0 0 0-.226-.575c-.07-.07-.314-.07-.419 0l-.296.226c-.331.349-.993-.295-1.481-1.427l-1.011.244-.767.244c-.907.609-1.97.644-2.388.087l-.436-.261-.453-.262c-.714-.087-.784-.73-.122-1.444l1.046.522.314.157c.575-.453 1.167-.975 1.29-1.201.104-.192 1.254.504 1.864 1.01l.994-.889.174-.139c.244-.244.174-.47-.157-.505-.331-.052-1.412-.278-1.168-.383.244-.087.732-.626.593-.992-.14-.365-.279-1.445.122-1.253l.261.174.419.296c.33.47.592.94.575 1.062l-.017.104-.035.157c-.035.174.174.26.47.191l.14-.174c.104-.139 0-.452.052-.661l.122-.575c.418.14.645.523.505.87-.139.349-.54 1.306-.54 1.358 0 .053.227.174.523.192.296.017.924-.209.802-.505l.035-.209.052-.33c.732.017 1.499-.488 1.708-1.097l-.872-.418c-.122-.07-.505.104-.522.209-.035.209.087.644.174.644l.418.017c.122.331.366.784.558.993.192.209-.488-.557-.941-.819-.453-.278-1.185-.765-1.255-.905-.07-.139.174-.609.645-.8.47-.192 1.743-.784 1.743-.836 0-.052-.366-.226-.802-.26l-.331-.14c-.366-.157-.697-.453-1.011-.714l-.07-.052c.035-.209.21-.383.384-.383l.139.035.505.14c.558.051 1.517-.366 2.144-.906l.854.348.68.279c.872-.122 1.36 0 1.098.26-.261.262-.453.888.14.836.592-.035 1.254-1.549 1.307-1.601.052-.052.662-.279 1.185-.348l.47.104c.454.087.89.313 1.343.487l.07.018c.156.017.278.296.278.592-.017.296.21 1.323.54 1.114.314-.192 1.116-.54 1.168-.4.052.139.436.522.54.121.088-.4-.034-1.375-.034-1.862 0-.488.348-1.34.575-1.114.209.243 1.115.47 1.464-.087l.279-.053c1.028-.208 2.144-.07 3.085-.452.801-.33 1.237-.33 1.76.348l.331.418c.296-.366.662-.818.802-1.027l.157-.035 1.098-.174c1.272-.174 2.335-.087 2.37.174.035.261.488.923.907.957.435.035 1.167-1.253 1.55-1.584l.297-.313c.453-.453.54.209.732.383.488.453.802.696 1.01-.226.123-.505.454-.366.82-.157.506.296 1.133.975 1.412-.296.035-.14.75-.226 1.115-.157 1.029.21 1.238.244 1.935-.017.383-.157.715-.435 1.203-.017.209.174.871-.227 1.324-.366l.767-.226c.192.644.506 1.044.68.888.174-.157.767-.383.784-.018.035.366.192.853.314.348.122-.504.941-1.497 1.115-1.236.175.262 1.098.644 1.552.157l.435-.14c.785-.243 1.639-.295 2.458-.4 1.185-.156 2.44.488 3.59-.26.053-.035.28.121.28.173-.123 1.027.906.697 1.306 1.114.21.21.994-.208 1.534-.348l.07-.017c.087.017 0 .313-.192.696-.192.366-.192 1.445.418 1.55.61.104 2.197-.297 2.353-.297h.28c.156 0 .801.488 1.428 1.08l.54-.766.436-.644c-.644-.435-1.185-1.08-1.22-1.428-.034-.348.454-1.044 1.168-.574l.75-.748c.104-.105.61.208.906.348l.366.156c.244-.26.505-.54.61-.626.105-.087.593-.21.889-.105.279.105 1.342-.33 1.62-.574.28-.244 1.779.33 2.598.191l.453-.348c.157-.122.523-.226.558-.191l.523.94c.976.017 2.039.087 2.352.139l.262-.087c1.882-.679 3.677-1.097 5.002-.679l.802.261c.662-.296 1.621-.383 2.161-.226l.471-.087.435-.07c.436-.383 1.308-.748 1.918-.783l.592.418c.453.33 1.342.4 1.848.156.801-.417 1.359-.33 2.143.018.523.226 1.325-.279 1.97-.227l1.325.122c.819-.209 1.673-.383 1.882-.4.209-.017.889.052.749.191-.122.105-.174.505.07.662l.105-.07.366-.226c.348-.33.714-.505.784-.4l.07.104c.279.418-.785.644-.192.992l.384.226c.122-.452.261-.905.313-.992h.035l.401.035c.453.07.976-.052 1.168-.26.191-.21.732-.053.767.765l1.045-.714c.297-.209.924-.313 1.151-.122.383.296.557.314.801-.052.314-.452.523-.365.976-.052l.576.4c.087-.626.575-.87 1.063-.54.488.331 2.492.784 3.346.297l.959.07c.558.034 1.133-.157 1.708-.14.558.017 1.115.261 1.656.244l.54-.018c.558-.174 1.569-.365 2.248-.417l.401.191.558.261c.471-.157 1.15-.14 1.499.035.348.174 1.708-.07 2.144 0l.453-.157c.279-.104.714.314 1.115.418.087.017.262-.261.384-.4l.104-.122c.105-.157.628-.296 1.151-.33.523-.036 1.847 1.078 2.213 1.235.366.157 1.639.157 1.83 0 .175-.157.75-.505.785-.366.017.157.191.54.331.592l.035-.035c.47-.504.958-.765 1.69-.765h.697c.767-.383 1.517-.662 1.674-.61v.035c.017.766.261.992.906.488l.087-.07c.122-.018.732.052 1.377.14.627.086 2.562-.384 2.876-.158.314.244 1.29.784 1.412.662.139-.122.749-.4.906-.157.157.244 1.394.488 2.388-.017.993-.505 4.061.104 4.183-.035.139-.14.61-.47.714-.418l.087.053c.332.191.366.87 1.133.365.454-.296 1.43.244 2.144.453.174.052.349.417.453.383.523-.157.663-1.289 1.569-.575l.383.296c.61-.017 2.127-.174 3.347-.348h1.115c.889 0 1.795-.07 2.737.313l.592.244c.976-.522 1.534-.644 1.238-.279-.314.383.749.975.645 1.201v.21l.017.243c.122.261.349.418.471.348s.435-.835.592-1.462l.297-.435c.278-.418.644-1.062 1.394-.366.244.227.976-.139 1.481-.209l.471-.07c.54.088 1.22.158 1.499.158.296 0 1.359.104 2.039-.14l.628.505.766.627c.384-.714.872-.923 1.046-.47l.192.017 1.011.122c-.087-.8-.14-1.323-.105-1.184.035.14.68.627 1.307.557l.471.227.575.278c.488-.209 1.011-.4 1.133-.4l.052-.07.14-.191c.104-.244.662-.61 1.22-.818l.244.8.052.157c.296.07.854.174 1.272.226.401.052 1.377.522 1.447.33.07-.19.575-.104.976.523l.767-.348c.366-.157.697-.453 1.098-.592l.209-.07c.279.105.732.157 1.029.14.296-.018 1.098.54 1.254.8.157.262.976.488 1.464-.104l.802.122c.192.035.436-.696.697-.731.366-.052.75.296 1.151.348l1.011.157c.993-.575 1.899-.714 2.021-.296.122.417.837 1.462 1.308 1.392.488-.07 1.568-1.01 1.725-.992l.105-.07.627-.383c.488.4 1.377.68 1.987.592l.558-.07a2.36 2.36 0 0 1 .854.053l.976.244c.453-.4.871-.488.924-.175l.035.244.034.21c.053.312.732.208 1.517-.21l.61-.435c.174-.122-.802-.47-.035-.679.505-.14.453.627.54.644.628.192 1.116 1.358 1.987.366.087-.105.715.452 1.081.435l1.272-.052c1.394-.122 2.998-.21 3.573-.21l.384.262c.679.452.854.244.976-.47l.017-.07c.383 0 1.255.157 1.935.331l.61.035c.801.052 1.673.087 2.178.296l.244.087c.279.07.419-.052.331-.296l-.034-.226c0-.035.261-.21.331-.174.244.104.505.26.697.452.383.4.68.8 1.237.192.157-.157.558-.035.802-.14.418-.156.784-.504 1.15.122l.21.366c.366.348.871.504 1.133.348l.156-.14c.802-.73 1.674-.905 2.719-.539.645.226 1.273.8 2.074.14.314-.262 1.081-.175 1.482.051.383.21.697.557 1.133.436l.453-.14c.401-.226.697-.609.645-.835-.052-.226.104-.8.453-.783l.157.174.314.348c.244.487.801.957 1.202 1.062.419.104 1.813-.349 2.196-.505.401-.157 1.517.679 1.708.94.192.26 1.133-.105 1.395.139l.453-.453.314-.313c.557.366 1.272.644 1.586.644.313 0 .923-.54 1.115-.174.192.348 1.325.174 1.795.052.471-.122 1.987.627 2.458.662.488.035 1.499-.505 1.76-.68l.018.036c.47.609.976-.035 1.394.07l.505.121c.523.418.959.244.994-.4l.819.313c.488.174 1.028.192 1.499.313 1.011.279 1.935.54 2.719-.452l.105-.14c.244-.017 1.098-.069 1.882-.121l.697.574.558.453c.244-.749.54-1.184.662-.975.122.209.645.94.941 1.218l.349-.47 1.185-.435c.471.296.941.575 1.394.888.628.435 1.151.627 1.796-.104l.4-.453c.715.104 1.534.296 1.813.418.279.122.854-.644 1.063-.68l.035.07.14.244c.104.33.54.4.976.14l.418-.07c.314-.052.732.278 1.028.191.436-.139.75-.783 1.255-.087.244.348.645-.609.959.07.035.07.68-.018.697-.087.192-1.132.54-.575 1.115-.279l.663.314c.889-.053 2.074.122 2.632.4l.575-.505c.035-.035.313.157.313.227 0 .208-.052.47-.174.591l-.122.122c-.279.018-.418.192-.296.383.104.174 1.168.313 1.969-.33.802-.645 2.562-2.681 2.597-2.385.035.296.802.94 1.656.94l.732.017c.767.018 1.534-.522 2.248.244l.07.087c.192-.035 1.307-.14 2.493-.226l1.063-.192c.47-.087.924-.383 1.377-.365.383 0 .767.452 1.115.417l.453-.035c.541-.33 1.43-.557 1.97-.54.54.036 1.952.732 2.405.175l.802.14.453.086c.523-.209 1.255-.47 1.621-.557l.139.14c.732.73 1.674.278 2.44.556l.732.279c.767-.174 1.935-.14 2.597.087l.68.017c.296 0 .593.279.906-.052l2.319-.452c.104.034.209.052.313.087.018 0 1.273-.157 1.29-.157l.383.07c.454-.053 1.081.017 1.377.139.297.122 1.412-.33 1.691-.47.279-.14 1.429.348 1.9.522l.488-.348c.314-.226.889-.087 1.15-.348l.244-.244c.14-.505.262-.661.244-.348l.087.244c.07.209.279.47.471.522.296.104.575-.714 1.011-.035l.122.192c.488-.035.941-.279.976-.54.052-.261.401-.487.714-.07.314.4 1.308 1.254 1.569 1.027.262-.226.837.731.959 1.15l.401-.192c.191-.087.209-.627.313-.958l.018-.07c.035-.069.767-.313 1.656-.539l.801-.14.854-.138c.941-.174 2.144-.383 2.65-.47.522-.087 1.934.644 2.196.557l.261-.053.401-.07c.575-.051.802.123.505.419l-.052.174-.052.191c.052.244.366.453.697.47l.157-.14c.645-.608.627-.643.924.053.139.313.418.8.313.923-.279.348-.401.54 0 .835l.453.348c.506.418.471.923-.087 1.149-.557.226-1.934 2.02-1.638 3.412l1.76.017h.105c.087.383-.018 1.201-.227 1.81-.226.61-1.655 1.706-1.795 1.74-.139.053-.331.349-.261.627.069.279-.331 1.167-1.046 1.323l-.61-.383-.14-.087c-.348.244-.697.68-.784.94-.087.279.296 1.323 1.185 1.602l.384-1.236c0-.017.54.052.54.104.052.836.575.87 1.185.818l.819-.052c.366.68.628 1.288.593 1.34l-.052.053c-.314.348-.663.766.052.957l.192.052c.348-.435.697-.661.784-.505l-.035.157c-.122.4-.279.8-.47 1.166l-.227.418c.192.348.732.975 1.185 1.393l-.941.104c-.505.052-1.063.087-.976-.748v-.053c-.087-.087-.279.07-.436.349-.139.278-.122 1.427.384 1.862l.836-.4c.541-.262 1.569-.749 2.074.435l.07.139c.628.174.959.4.732.505-.226.104-1.063 1.149-1.586 1.915l-1.551-.314-.192-.035c-.226.07-.174.157.14.21.296.052.366.922.505.922s.575.26.558.626c-.018.366.209 1.393.505 1.497.297.122 1.185.035 1.29-.435l.261-.383c.157-.226.75-.47.872-.365l.802.696c.836-.366 1.655-.679 1.795-.679.157 0 .819.923.941 2.02l-.68.87c-.035.052.175.313.227.487.122.4.139.766-.418.748l-.785.018a34.63 34.63 0 0 0-.941 1.74l.314.4c.104.14.157.854-.506.331-.261-.208-.923-.243-1.133-.034-.627.557-.854.052-1.254-.261l-.244-.192c-.349-.104-.68-.017-.715.174-.035.192.61.94 1.586.958l.854.07.174.017c.175.26.192.574.053.696-.157.122-.837.174-1.447.191l-.035.575-.052 1.079c-.68-.226-1.168-.592-1.081-.783.087-.192-.087-.819-.697-.662l-.279.279c-.192.209-.209.73-.139 1.061l.139.575c.575.052 1.604.209 2.301.33l-.349.627-.47.87c.435.645.819 1.289.871 1.428.052.14.174.104.157-.47-.017-.557.871-2.42 1.081-2.96l.662.14c.122.035.244.174.366.174 1.725-.035 2.074.07 3.19.54.243.104.278.592.819.296l.941-.523c.209.888-.802 1.376-2.266 1.062h-.662c-.244 0-.558-.052-.732-.226-.645-.592-.941.07-1.22.4-.244.296-.192.818.331.731l1.22-.209c-.174.836.314 1.062 1.063.488l.732-.105.767-.104c.924.33 1.656.957 1.638 1.41-.017.453.541 2.176 1.604 2.855l1.185-.61c.122-.052.314.018.453.052l.697.175a28.81 28.81 0 0 0 2.65.417l.627.157.105.017c.139-.121.679-.226 1.185-.226l.261.383.314.453c.314.522.575 1.131.593 1.34.017.209-.122.835-.192.992-.07.157.366.557 1.063.348.697-.209 2.597-.505 2.527-.696-.069-.192-.401-.783-.575-.957-.174-.175-.645.522-.819.87l-.418-.07-.349-.07c-.383-.069-.819-.643-.976-1.253l.296-.54c.105-.19.349-.365.558-.452l.436-.174c.575-.157 1.08-.07 1.133.192.052.26.47.957.836.765.349-.19 1.517-.556 1.83-.452.331.104 1.22.366 1.046.992-.157.627-.924 2.21-1.15 2.298-.227.087-.802.417-.75.505.07.087.053.452-.191.609-.244.156-.785.713-.628.888.157.174.401.887.192 1.218-.192.313-1.168-.192-1.29-.122-.105.07-.331.487-.07.661.262.175.854.47.907.418l.366.314.435.365c.924-.174 1.813-.627 1.953-1.01l.453.488c.226.244.575.487.871.487h.279c.366-.313.627-.278.558.053-.07.33-.384 1.427-.593 1.775-.209.348-1.202-.14-1.29-.313-.087-.174-.627-.453-1.028-.261l-.418.104c-.488.122-1.238.348-.471 1.149.035.035-.209.452-.383.609-.262.226-.593.366-.872.592l-.47.4c.348.714 1.011 1.706 1.446 2.193.453.505.105 3.03-.191 3.917l-.21.818c-.122.487-.034.888.628.853l.209-.018c.244.21.366.488.279.592-.087.122-.872.47-1.516.697l-.558.26-.593.28c-.122-.453-.174-1.01-.122-1.237l-.314-.296c-.732-.678-1.167.122-1.533.314l-.384.209c-.226.713-.488 1.531-.592 1.792-.105.261-1.098.296-1.952.453l.174-1.253v-.035c-.157-.052-.61-.14-.994-.192-.383-.052-1.499.087-1.638.331-.139.244-.767.923-.871.662-.105-.244-.715-.418-1.22-.157-.506.278-1.97.174-2.075 0-.104-.174-.697-.505-.941-.105l-.279.192-.156.122c-.314-.07-.506-.366-.419-.662l.07-.26.035-.105c.052-.174-.244-.314-.645-.314l-.349.035h-.052c.035-.017.087.174.087.435s-.435.766-1.011.662l-.557.122c-.454.104-.61-.47-.401-1.132l.052-.191c-.07-.366-.418-.383-.802-.07l-.104.296-.279.8c.714.68 1.481 1.359 1.708 1.515.226.157 1.203 0 1.516-.156.297-.157 1.673.243 1.517.54-.157.295-.297.887.069.59.366-.295 1.412-.835 1.464-.573.07.26.401 1.096.523 1.288.122.191.262.835-.261.504l-.244.018c-.314.017-.802.47-.907.365-.766-.748-1.812-.209-2.596-.713-.053-.035-.105-.157-.157-.157-.506.122-1.133.122-1.499.435-.785.679-.732-.365-1.098-.487l-.506-.174c-.575-.314-1.08-.331-1.133-.07-.052.261-.453.731-.801.505l-.279.017-.837.07c-.906-.105-2.057-.052-2.562.104-.505.157-2.248.261-2.58-.156-.331-.418-1.394-1.358-1.516-1.08-.122.296-.836 1.358-1.237 1.515-.401.14-1.813-.192-2.04-.07-.226.14-1.115.122-1.533-.296l-.436-.383c-.052-.052-.488.21-.575.4l-.07.14c.157.33.052.592-.261.574-.297-.017-1.342-.139-1.081-.243.261-.105.558-.47.017-.54l-.348-.104-.227-.07c-.209-.192-.645-.557-.976-.835-.331-.262-1.499-.053-1.324.54.174.59-.262 2.07-.576 1.966-.313-.104-1.167-.679-1.272-1.08-.104-.4.924.245 1.028.262.105 0 .384-.244.21-.575-.175-.33-.942-.713-1.36-.104l-.453.157-.279.087c-.505-.488-1.586-.314-2.405.383l-1.22-.923-.575-.435c-1.098.157-2.092.557-2.214.888-.122.33-.07 1.27.087 1.41.157.139.175.905-.557 1.288l-.436-.192-.541-.226c-.4-.783-.313-1.358.21-1.306.523.07.069-1.566-.244-1.67-.297-.088-1.255.33-1.395.4-.139.07-.889.035-1.568.052-.698 0-2.475.157-2.475.383s.139.835.331.922l.087-.052.505-.226c.576-.035 1.133-.087 1.255-.122.122-.035.628-.226.854-.191.227.052.61.574.419.853-.192.278-1.255 1.114-1.796 1.096h-1.063c-.157-.4-.523-.818-.819-.94l-.192.087c-.366.14-.976.366-1.22.296-.139-.035-.366.052-.418-.035l-.122-.139c-.052-.226-.035-.557.052-.73h.087l.541-.036c.314-.418.035-1.236-.628-1.81l-.505.261c-.54.279-.784.122-1.081-.261-.54-.661-1.028-.905-1.08-.54-.053.366-.802 1.236-1.586 1.184l-.715-.087-.331-.035c-.366.105-2.405.313-4.532.47l-1.917-.418-.401-.087c-.488.227-1.202.4-1.568.366l-.332.035c-.366.034-.767-.261-1.15-.366-.07-.017-.244.087-.279.174-.052.14-.07.383 0 .435l.488.383c.575.4 1.447.453 1.935.105l.627.035.244.017c.279-.052.488.035.471.174-.018.14-.192.749-.296 1.044l-.035.279-.122.783c.523-.087.871-.035.767.14-.105.156-.628.243-.889-.192-.262-.435-1.639.192-1.952.07-.314-.122-1.342-.174-1.36.208-.017.383-.244 1.254-.47 1.097v-.07c.052-.556.052-1.096-.471-1.392l-.192-.122c-.296.035-.523.435-.523.888l-.575-.087c-.662-.105-1.22.157-1.83.348-.157.052-.558-.54-.784-.888l-.453-.679c-.244.383-.541.819-.663.975-.122.157-.523.47-.61.279-.087-.192-.401-.61-.54-.557-.139.052-.558.4-.732.574-.174.157-1.429.47-1.237.226.191-.226.435-.696.139-.557-.296.14-1.36-.087-1.726-.748l-.784.679c-.139.121-.54-.052-.802-.122-.697-.174-.679-.174-.766.592-.018.226-.192.626-.262.609l-.662-.087c-.523.4-1.046.696-1.185.644-.122-.052-.854-.487-1.325-.8-.471-.314-2.126-.453-2.562.4l-1.098-.07-.75-.035c-.871.4-1.586.505-1.586.226 0-.26-.557-1.079-1.272-1.253l-.296.836-.087.26c.488.28.522.558.069.61l-.261.087-.645.209c-.453-.47-1.116-.818-1.447-.8-.348.034-1.411.365-1.551.73-.122.366-.279 1.462-.017 1.515.261.052.958.382.906.626-.052.226-.523.783-.924.731l-.366-.104-.871-.261c-.053-.853-.366-1.201-.697-.766-.332.435-1.604 1.445-2.162 1.375-.557-.07-.976-1.48-1.255-1.166-.278.313-1.185.557-1.22.26-.034-.313-.017-1.252.105-1.305l.174.053.192.07c.174.208.54.104.802-.245.279-.348-.209-1.375-.628-1.183l-.348-.052c-.75-.122-.419.678-.767.835-.366.174-.715.122-.697-.435v-.226c.017-.296-.924 0-2.092.644l-1.133.383-.801.278c-.837.035-1.099 0-.576-.087.541-.07.14-1.48-1.098-1.584l-1.115-.017h-.366c.07.748-.314 1.149-.837.922l-.296.157c-.68.365-.61-.4-.941-.505-.262-.07-.628-.313-.767-.226-.593.47-1.098 0-1.621-.07-.14-.017-.296-.017-.436-.017h-.453c-.105.4-.366.661-.575.592-.209-.07-.872.26-.872.766 0 .504 1.081 1.41.994 1.705-.087.296-.366 1.062-.436 1.045-.07-.018-.244-.348-.244-.714l-.087-.313c-.035-.157-.261-.348-.401-.366h-.139c-.157.174-.331.575-.384.888-.052.313-.767.644-.871.4-.105-.243-.244-.887-.07-.87.174.017.453-.453.593-.975.157-.522.366-2.054.191-2.228h-.156c-.471 0-.384.227-.157.505.034.035-.07.279-.175.383-.174.174-.505.296-.54.47l-.087.592c0 .679-.401 1.358-.889 1.531l-.453.088c-.105.017-.366-.227-.384-.366-.017-.174.122-.435.262-.505.174-.087.47.07.627-.017l.192-.105c.122-.26-.087-.94-.471-1.531-.383-.575-2.666-.227-3.817.243l-.871-.139-.07-.017c.61-.383.854-.906.558-1.15-.296-.243-1.76-1.479-2.004-1.566l-.122.087-.14.087c-.035.261.314 1.045.784 1.741l.837.244 1.028.296c.088-.244-.714-.227-1.777.052-1.046.26-3.207.888-3.12.992.087.104-.227.679-.941.992l-.105-1.166c-.035-.33-.227-.679-.436-.94l-.104-.14c-.262-.034-.488.088-.488.262l.017.156.087.801c-.627.244-1.115-.592-1.063-1.862l1.011-.818.453-.366c.436.174.907.244 1.046.14.139-.088 0-.558-.697-.767l-.593-.156c-.331-.087-.749-.296-.993-.174-.209.104-.227.626-.314.957l-.139.574c-.419-.139-.68-.678-.61-1.2.069-.523-.21-2.002.122-2.246.331-.244 1.446.418 1.655.487l.192.035c.436.087.662-.087.645-.592-.018-.278.732-.4.174-.818l-.209-.156c-.244-.14-1.255-.122-2.231 0l-.889.122-.54.07c.104.452-.244 1.548-.767 2.453l.017.523c0 .191.07.504.192.557l.488.226c.558.174 1.116.61 1.238.992l.052.348.035.244c-.052.296-.209.766-.314 1.062-.122.296-1.046.557-1.359.156-.314-.4-1.133-1.288-1.081-.992.052.313-.802.992-1.237.818-.419-.174-1.465-.922-1.587-.73-.122.19-.714.591-1.063.487l-.122.07-.366.225c-.383-.052-.784-.226-.889-.417-.104-.174-.61-.453-.976-.261-.366.191-1.359.661-1.638.748-.261.087-1.272-.748-1.795-1.201l-.645.627-.07.07c-.418-.244-1.063-.14-1.429.26-.366.383-.715 1.81-.75 1.671-.034-.156-.488-.435-.854-.139s-1.342.992-1.359.87l-.087-.156-.314-.522c.262-.54.244-.836 0-.68-.244.175-1.046-.782-1.516-1.096-.471-.313-1.97-.766-1.917-.557.052.209-.07.853-.419.818l-.244.157c-.244.156-.313.626-.557.783-.332.209-.698.14-.698-.435v-.226c.018-.296-.366-.366-.836-.174-.471.191-1.691-.418-1.743-.174-.052.243-.366.783-.61.661-.227-.104-.715.575-.767.8-.052.227-.401.593-.68.54-.296-.07-1.22-.139-1.098.018.122.156.192.557.018.696l-.14-.017-.854-.07c-.436-.888-.802-1.723-.819-1.828-.018-.121-.262-.365-.471-.121-.209.243-.47 1.13-.296 1.583.174.453.279 1.62-.209 1.532-.488-.087-1.83-.818-1.97-1.445-.139-.626-1.15-1.966-1.202-1.914-.053.07-.401.243-.645.226h-.209l-.697.017c.244-.365.366-.783.244-.922-.105-.14-.541-.4-.593-.105-.052.279-.383.801-.628.61-.244-.21-.941-.4-1.028-.035-.087.365.471 1.323.61 1.48.14.173-.383.609-.662.591l-.192-.156-1.551-1.201c-.994 1.357-2.039 2.35-2.301 2.228-.261-.122.175-1.254.14-1.48-.035-.244.244-.975.732-1.027.488-.07.348-1.236-.314-.905-.662.33-2.248-.627-2.475.07-.209.696-1.586 2.228-1.621 2.454l-.087.191-.105.227c-.174.209-.383.278-.47.174-.07-.122-.593-.627-.924-.923l-.279-.313-.209-.244c-.192-.348-.593-.348-.906 0-.297.348-1.238 1.149-1.395.957-.174-.191-.366-.661-.122-.696l.157-.104.157-.105c.122-.191.035-.54-.157-.783h-.191l-.698-.017c-.575.87-.854 1.636-.592 1.706.261.07.645.54.348.887-.296.348.384 1.497.21 1.776-.175.26-.872 1.01-1.116 1.114l-.139-.07-.122-.07c-.035-.26.034-.957.156-1.549l-.54-.156-.47-.14c0-.33.226-.661.505-.73l.261-.07.14-.035c.226-.052.035-.314-.418-.557v-.592c.296-.54-.035-1.131-.732-1.306l-.366.227c-.488.313-.959.505-1.36.243l-.366-.243c-.244-.522-.889-.818-1.429-.662l.645.714.087.105c-.244.435-.889.992-1.412 1.253l-.366-.47c-.54-.68-.993-.749-1.778-.331-.418.226-1.045.087-1.568-.418l-.401-.4c-.837-.174-1.621.104-1.743.627-.122.522.802 1.444.505 1.462-.296 0-1.028-.4-.906-.905s-.209-1.898-.593-1.602c-.383.296-1.342.749-1.429.435l-.157-.209c-.087-.104-.383-.052-.575 0-.087.035-.174.314-.139.366l.401.487c.47.523.993 1.08 1.185 1.254.174.174-.906 1.061-1.848 1.653l-.889.087c-.801.087-1.69-.313-2.387-.992l-.628-.627c-.645.505-1.307 1.167-1.481 1.497l-.192-.174-.314-.296c-.418.018-.854-.087-.958-.226l.017-.104c.052-.192.157-.47.296-.505a94.523 94.523 0 0 1 3.085-.453h.053c.139-.174-.053-.557-.419-.852-.366-.296-1.499-.958-1.551-.662-.07.296-.401.8-.61.487-.209-.313-.645-1.166-.505-1.2.139-.053.47-.645.453-1.236l-.663-.244-.557-.192c-.575.122-1.133.418-1.273.68l.07.138.209.505c.314.522.122.87-.435.766l-.488-.14c-.227-.069-.523-.19-.628-.382-.192-.366-.244-.8-.401-1.201-.052-.122-.192-.209-.314-.279-.052-.034-.156-.034-.209-.017l-.418.209c-.453.244-.715.783-.593 1.184.14.417.035 1.862.018 2.454-.018.592-.035 1.775-1.238 1.636l-.976-.4-.523-.21c-.191.332-.679.75-1.098.958l-.331-.087c-.279-.07-.418-.557-.801-.087l-.088.105a.67.67 0 0 1-.4-.87h.139c.505-.036.697-.366.488-.697l-.139-.226c-.541-.087-1.011.104-1.029.383-.017.296-.261 1.166-.401 1.357l-.157.018-.331.035c.053-.279.07-.714.035-.958l-.104-.191c-.262-.436-.454-.07-.61.121l-.436.505c-.715-.156-.889-.47-.401-.696l.349-.244c.139-.104.244-.4.209-.574-.035-.14-.297-.296-.453-.313-.262-.018-.541.121-.802.156-.401.052-.994.296-1.151.105-.627-.714-.976-.227-1.411.174-.262.243-1.133-.105-1.273-.505l-.017-.052c.174-.14-.174-.488-.784-.766-.61-.279-2.109.487-1.708.61l.087.208.139.296c-.035.383-.383.644-.784.574-.401-.07-1.952-.07-2.911.557l-.993.018-.785.052c-.505-1.375-1.063-2.054-1.255-1.532-.174.522-.732 1.584-.854 1.201l-.209-.174c-.104-.087-.523.07-.732.226l-.348.261c-.366.383-.872.523-1.151.314-.279-.209-.923-.87-.801-.992s.644-.383.766-.174c.122.209.68.574.802.121l-.087-.07-.453-.434c-.558-.418-1.116-.61-1.238-.436-.122.192-.522.923-.662 1.184-.139.261-.226.731-.348.888-.122.174-.262.644-.61.383-.349-.279.156-1.323.122-1.462-.035-.14-.244-.436-.401-.366-.157.07-.488.54-.698.836l-.366-.157c-.156-.07-.4-.33-.435-.296-.453.383-.767.905-1.534.366l-.244-.174c-.697.243-1.743.522-2.353.609l-.575-.052-1.046-.105c-.401-.783-.68-.888-.61-.226.052.661-.488 2.298-1.063 2.245-.575-.052-1.447-1.775-1.447-2.367l-.697.261-.244.087c-.174.47-.436.644-.575.4-.14-.243-.732-.8-.959-.626-.226.174-.157 1.044-.035 1.166.122.122.122.8-.313 1.236l-.802-.226-.732-.21c-.68-.417-1.29-.8-1.342-.887-.052-.07-.157-.592-.174-.94l-.157-.174c-.209-.244-.645-.574-.854-.487-.401.156-.331.574-.018.905.297.33.314.696-.139.853-.122.052-.401-.244-.558-.435l-.244-.314c-.244-.418-.732-.574-1.063-.348-.331.226-1.133 1.445-1.272 1.445-.14 0-.802-.087-.82-.261l.035-.105c.087-.26.349-.609.262-.766-.227-.417-.593-.313-.872.018-.296.33-.767.626-.836.992-.192 1.027-.523.035-.75.122l-.732.296c-.314.766-.68 1.183-.802.922-.122-.26-.174-1.288.227-1.549l.349-.226c.122-.07.348-.14.348-.192-.035-.26-.157-.522-.209-.8a4.456 4.456 0 0 1-.105-1.08c.018-.208.314-.504.244-.626l-.331-.592c-.697.14-1.202.383-1.098.54.087.156.07 1.688-.139 2.994l-1.307.104-1.22.104c-1.151.801-2.231 1.132-2.388.749-.175-.383-.889-1.149-1.185-.662l-.14.418c-.244.731.471.54.75.8.156.157.348.314.435.506.07.174.07.487-.035.591-.104.122-.47.192-.557.105l-.471-.453c-.366.348-.819.627-1.028.592l-.192-.087c-.279-.14-.802 0-.68-.592.035-.156.244-.348.401-.383l.262-.052c.488.035.47-.661-.035-1.566l-.419-.68c-.034-.051-.278-.017-.4.036-.053.017-.053.208-.053.313.018.07.14.104.14.174v.261c-.018.278-.244.54-.488.54l-.14-.105-.383-.296c-.436-.417-.854-.592-.924-.4-.07.191-.836.4-1.534.052l-.662-.244c-.122-.034-.366.279-.558.436l-.122.104c-.122.122-.662.278-1.185.348l-.383-.243c-.628-.418-1.064.452-1.708.174-.506-.21-1.203-.192-1.708 0-.366.139-.471.139-.82-.035-.401-.21-1.167-.244-1.411.017-.576.61-.663-.296-1.046-.209-.54.122-.506.418-.349.8.087.21.558.419.018.558-.14.035-.471-.244-.541-.435l-.209-.592c-.209-.905-.453-1.358-.54-.992-.07.348-.418.992-.593.818-.174-.192-1.045-.662-1.446-.54s-1.482.418-2.144-.661l1.83-.418.314-.07c.401-.017.575-.33.383-.713-.192-.383-1.359-.33-1.394-.575-.035-.243-.558-.713-1.081-.4-.523.313-1.969.94-2.091.714-.122-.227-.68-.888-.854-.697-.175.192-.506 1.15-.628 1.706l.732-.139.785-.14c.034.558.4.767.819.453.401-.313 1.499-1.114 1.533-1.096.035.017-.435.679-1.307 1.375l.053 1.183c0 .175-.523.418-.837.557l-.349.14c-.435.087-.906.035-1.028-.105-.122-.139-.836-.4-1.29-.226-.435.174-1.603.679-1.534.818.053.157-.052.557-.313.61l-.087-.105c-.349-.418-.593-.923-.959-1.323l-.331-.366c-.47-.295-1.203-.087-1.638.47l-.802-.208-.802-.21c.105-.66.122-.904.018-.539-.105.366-1.116 1.219-1.325 1.462-.227.261-.872.714-.662.035l.017-.453v-.278c-.227-.296-.854-.644-1.394-.766-.54-.122-1.342 1.184-1.569 1.027l-.192.035c-.261.035-.47.296-.732.365l-.557.14c.104.435-.506.626-1.343.417l-.714-.087-.889-.104c-.558-.54-1.237-.714-1.499-.4-.261.313-.837.678-.871.017l-.907.244c-.4.122-1.08-.435-1.15.557-.017.122-.593.313-.889.278-.383-.052-.732-.365-1.133-.452l-.418-.087c-.628.017-.941.209-.662.435.278.226.61.592.122.296-.489-.314-1.848.487-2.075.33-.209-.156-.644-.87-.697-1.114l-.418.227c-.715.383-1.499.383-2.213-.105l-.088-.052c-.122 0-.418.418-.644.957l-.576-.243c-.366-.157-.627-.592-.993-.801-.175-.104-.54-.035-.732.087-.192.122-.227.61-.384.644l-.714.157c-.82.087-1.726.243-2.022.348-.296.104-1.238-.435-1.255-.627-.035-.191-.261-.905-.4-.8-.14.104-.471.678-.646 1.026-.157.349-1.15.923-.94 1.045l.139.07.122.07c.156.069-.035.295-.436.486l-.279.262c-.192.174-.383.678-.331.73l.575.47c-.105.662-.157 1.41-.122 1.654s-.14.818-.505.697c-.366-.14-1.081-.627-.715-.801.349-.174-.07-1.27-.331-1.27-.262 0-1.029.121-.872.33l.018.14c.017.26.052.66-.07.748-.261.174-.662 0-.732.574-.052.54-.453.487-.784.226a37.067 37.067 0 0 1-1.778-1.514l-.331-.296c-.297.174-.506.627-.47 1.01l.487-.018h.07c.226.33-.018.47-.558.314-.54-.157-1.865-.697-1.62-.87.243-.157.54-.784.243-1.08l-.14-.261c-.121-.226-.278-.627-.173-.766.296-.4.644-.209.871.14l.523.87c.941.365 1.987.504 2.335.296l-.017-.122-.105-.749c-.209-.8-.47-1.462-.575-1.497-.104-.017-.226-.33-.017-.348.209-.017.889.174.871.505-.017.33.227 1.27.558 1.305l.14-.087c.365-.226.662-.54 1.028-.783l.07-.052c.174.087.278.26.226.383l-.035.104-.244.853c.715.07 1.255-.365 1.22-.957l.157-.453.14-.383c.557-.504.488-.661-.175-.365l-.348-.087-.436-.105c-.436-.435-.837-.592-.889-.383-.052.227-.192.818-.227.836-.034.017-.139-.105-.174-.296-.035-.192-.61-1.01-1.15-1.149-.54-.14-1.883.714-2.005.313l-.209-.209c-.087-.087-.523.105-.732.262l-.767.609c-.993.47-1.812 1.096-1.83 1.392-.017.296-.488 1.254-.976 1.271l-.261-.209c-.262-.226-.227-.661.314-.766l.191-.035c.157-.278.366-.835.47-1.253h.088c.593-.017.889-.296.505-.783-.139-.192-.854-.157-1.132.052l-.54.4c-.663.053-.924-.295-.558-.783l.156-.487.053-.192c-.366-.365-.767.21-.89 1.271l-1.062.4-.244.087c-.157.418-.419.366-.558-.087l-.157-.017c-.645-.052-1.046-.87-1.76-.557-.192.087-.436.87-.645 0-.07-.296-.314-.714-.21-.87.175-.261.576-.349.872-.523l1.116.662c.313.104.697.383.923.278l.349-.139c.261-.4.505-.992.523-1.305.017-.314-.21-1.045-.523-.522l-.244.295c-.087.105-.436.174-.436.157-.383-.94-1.028.348-1.569-.226-.54-.557-1.132.26-1.742.278l-.645.018c-.75.035-.924.644-.384 1.34l.767.348c.314.157.54.557.21.923-.28.296-.576.852-1.047.452-.766-.644-2.039-.156-2.562-1.34l-.07-.157c-.784.035-1.22.21-.94.348.278.157.697.522.592.662l-.105.017-.714.087c-.767.157-2.266.505-3.312.783l-.296-1.462-.017-.052c-.349.018-.453-.122-.262-.296l.21-.104.4-.192c.558-.209.732-.591.401-.818-.331-.243-1.882.035-2.51.07l-.575-.052-.436-.035c-.279-.696-.714-1.462-.976-1.706-.244-.244-.4-1.01.14-.975.558.035 1.01 1.602 1.15 1.776h.157c.14 0 .383-.192.418-.331l.14-.592c.122-.73-.192-1.323-.68-1.288-.488.017-1.464-.957-1.62-.714-.158.227-.698.888-.855.644l-.227-.052c-.191-.035-.627.296-.61.314l.192.504c-.122.54-.087 1.219.07 1.515l.348-.14.157-.052c.21-.209.384-.104.366.21-.017.312-.296.956-.627.713-.314-.244-1.551-.54-1.883-.21-.33.332.105 1.515-.034 1.55-.157.017-.593.017-.645-.07-.052-.087-.296-.243-.401-.174-.105.087-.697.244-1.116.192-.4-.07-1.359.435-1.133.592.227.174.384 1.253-.226 1.984l-1.098-.244c-.279-.07-.645.192-.959.296-.801.244-.94.157-1.185-.818-.017-.07.035-.191 0-.226-.697-.505-.104-1.95-.993-2.02-.697-.052-1.447.662-2.144 1.08-.401.244-.296.296.226.661.489.296.89.749 1.238 1.201.174.227.296.853.21.906l-.524.348c-.157-.436-.871-1.08-1.603-1.428l-.698-.209c-.122-.052-.366.261-.522.453l-.227.278c-.226.331-.54.453-.68.279l.018-.035c.767-1.027.557-1.88-.349-2.663-.192-.174-.261-.505-.436-.714-.156-.191-.435-.47-.557-.417-.436.174-.384.522-.122.87l.07.104a.546.546 0 0 1-.401.418l-.088-.07c-.226-.191-.522-.4-.592-.661l-.21-.748c-.174-.975-.801-1.863-1.394-2.037l-.627.348a1.758 1.758 0 0 1-.802.192h-.941c-.558.4-1.272.748-1.586.783l-.14-.14c-.488-.487-.61.105-.766.297-.122.139-.122.626 0 .73l.47.401c.593.348.784.696.453.766-.33.07-.575 1.062-.854 1.114l-.244-.052c-.261-.053-.505-.348-.732-.331-.906.052-.819-.818-.61-1.027.488-.453-.122-1.027.297-1.358l.383-.313c.453-.33.418-.87-.087-1.218l-.331-.262c-.175-.139-.297-.382-.47-.435-.541-.174-1.134 1.027-1.622-.017l-.348-.731c-.698 0-.994-.47-.68-1.045l.906.627.941.644c1.064-.835 2.214-1.27 2.562-.957l.21.278c.226.314.33.21.644.07.314-.157.767.017 1.168.052.157.017.384.122.453.052 1.255-1.41 2.249-.122 3.312.348.192.087.296.418.47.436l.332.034c.383-.087.645-.313.61-.487-.053-.174.035-.94.296-1.201.279-.261 1.116-.853 1.272-.766.157.087.61.296.645.261.035-.035-.174-.505-.575-.922-.383-.435-1.43-1.828-1.133-1.81.296.017.924.139.889.26-.035.122.087.488.383.453l.245-.07.191-.052c.296-.174.593.052.662.47l.018.33c.035 1.306 1.22 1.376 1.952 1.829.4.243 1.22.313 1.098-.749-.07-.574.331-.557.715-.522l.61.035c-.053-.47-.157-.958-.227-1.097-.07-.14-.192-.731-.227-.957-.034-.227-.244-.644-.017-.644.227 0 .924.713.906 1.531l.035.801c0 .122.262.33.419.348.139 0 .4-.191.418-.33l.07-.436c0-.47.279-.922.627-1.027.349-.104 1.482-.07 1.673.331.192.4 1.133 1.41 1.586 1.201.454-.226 1.743-.487 1.883-.122l.244.174.296.21c.14.313.383.66.54.783l.053-.035c.627-.453 1.324-.4 2.021-.435l.157-.018c.192-.505.401-.609.488-.226l.157.209c.07.104.384.087.575.052l1.604-.261c.4-.366.47-.714.174-.766-.296-.052-1.115-.574-1.412-.453-.296.122-.697-.852-.819-.8-.122.052-.54-.261-.523-.435 0-.174.506-.888 1.098-1.01l.61.348.384.21c.366.278 1.098.26 1.62-.07l.14.8c.07.366-.017.644.488.8l.436.123c.453.487 1.063.696 1.342.452l.261-.226.192-.174c.122-.348.07-.592-.122-.522-.192.07-.523 0-.21-.348.315-.349.646-1.515.803-1.463.157.053.505.714.697 1.271.192.557 2.335.61 2.144.4-.192-.191-.767-.713-.941-.765-.175-.053-.628-.366-.28-.4.367-.036 1.308-.297 1.343-.506.035-.208.505-.661.906-.243l-.035.035-1.15 1.427c1.133.766 2.196 1.166 2.353.905.157-.278.47-1.01.383-1.097l-.122-.052-.314-.122c-.366-.104-.557-.348-.453-.557.105-.209.61-.435.872-.052.261.383 1.429.54 1.255.226-.175-.313-.331-.766.07-.26.4.504 1.707.765 1.341.765l-.296.087c-.157.035-.331.279-.349.435 0 .157.245.47.297.453l.505-.157c.523-.26 1.36-.679 1.848-.887.488-.227 1.76-.053 1.917-.175.174-.121.453-.452.017-.818l-.034.035-.924.958c-.767-.801-1.011-1.602-.54-1.793l.435-.018c.47-.017.976.122 1.43.296l.505.192c.54.33 1.325.383 1.708.104.4-.278 1.603-.8 1.62-.452h.036c.4.017.854-.14 1.202 0l.28.104c.33.296.627.313.662.035.034-.279.261-1.08.4-1.062l.07.07c.61.661 1.255 1.288 1.795 2.019.419.557.89.748 1.5.644l.226-.035c.226-.174.261-.557.07-.853l-.157.017-.907.07c-.575-.766-.906-1.619-.75-1.897.158-.261.82-1.027.872-.714.035.314.663 1.114 1.325 1.393l.593.139c.732.174 1.307-.244 1.847-.731l.174-.157a3.5 3.5 0 0 0 .924-.557c.262-.226.244.905-.017 1.114l-.314.07-.192.035c-.191.104-.4.47-.47.818-.07.348.296 1.427.523 1.392.226-.035.993-.348 1.237-.661.244-.296.174-1.567.21-1.793l.121-.157c.052-.07.279-.07.401-.034.087.034.227.208.21.26-.123.4-.297.801-.402 1.202-.017.087.105.296.21.348l.418.209c.645.26 1.045.226.906-.087l-.087-.122c-.244-.383-.279-.731.227-.818.139-.018.418.278.487.487l.088.244c-.053.313.47.296 1.167-.035l.454-.418.174-.157c-.087-.487-.314-.87-.506-.852-.191.017-.854-.227-.836-.61.017-.383.244-1.357.488-1.253l.07.157.418 1.027c.924-.052 1.586-.192 1.464-.314l-.052-.121c-.227-.54.279-.418.4-.366l.698.33c.889.488 1.098 1.132.47 1.463l-.4.261c-.07.052-.088.296-.053.418.035.122.192.313.244.296.384-.105.802-.21 1.133-.436.192-.104.279-.417.383-.644l.227-.504c.244-.61.68-1.08.959-1.045.278.035 1.045.157 1.045.192s-.209.191-.453.226c-.244.052-.784.714-.505 1.358l.261.504.087.175c.192.156.488.121.663-.053l.174-.156.14-.122c.156-.122.435.156.627.61h.174c.384.016.82-.158 1.116-.401l.209-.192c.052-.418.174-1.01.244-1.323.087-.313 1.464-1.531 1.429-1.427-.035.105-.54 1.114-.488 1.514.052.4 1.08 1.376 1.917 1.288l.732.68.384.347c-.07-.504-.053-1.531.017-2.28l.82.227c.801.208-.21.47-.07.678.104.14.488.279.54.21l.209-.244c.21-.4.61-.523.906-.279l.297.122.958.383a61.835 61.835 0 0 1 4.445-.957l.104.174.244.383c.349-.018.82.104 1.046.295l.035-.034c.4-.4 1.01.07 1.272-.244l.262-.296c.14-.522.453-1.201.714-1.514l.297-.105.174-.052c.279.261.645.679.837.94.174.261.94.992 1.045 1.184.105.191 1.08.139 1.917-.54l1.064.818c.819.627.505-1.218 1.36-.818.017 0 .208-.33.243-.522.018-.105-.14-.366-.192-.348l-1.15.209c-.331-.94-.61-1.759-.627-1.81-.018-.053.174-.244.418-.28l.192-.086.157-.07c.366-.313.557-.296.435.017-.122.314-.052 1.132.419 1.219.47.087 2.126-.174 2.893-.192.767-.034 2.544-.017 2.422.227-.139.226-1.01.557-1.586.487l-.278.244-.593.505c-.471-.331-.732-.174-.61.365l.279.33c.279.332.993.767 1.133.645.767-.627 1.568-.07 2.318-.261.209-.052.348-.33.523-.488.296-.243.749-.4.871-.713l.174-.453c-.017-.574.576-1.01 1.308-.992l.575.035h.052c.087.261-.122.47-.436.452-.331-.017-1.115.157-1.115.4 0 .245.627 1.22 1.446 1.41.82.175 3.347.157 3.748.75l.366-.976c.191-.522-.314-.887-.854-1.079-.244-.087-.488-.313-.645-.54l-.122-.139c-.018-.26.192-.522.47-.609l.244.035.192.035c.192.017.54-.07.767-.192.227-.121.819-.087.61.174-.192.261-.523 1.236-.244 1.497l.227.174.278.21c.332.19.698-.036.837-.505l-.07-.383c-.052-.244-.366-.418 0-.662l.157-.104c.192-.157.366-.07.401.191.035.261.645.923 1.29.8l.54-.104.349-.07c.366-.034.941-.104 1.29-.139.348-.052 1.22.088 1.342.505.122.418.766 1.515.976 1.445.209-.07.819-.418.941-.627.122-.226-.087-1.148-.558-1.497-.471-.348.018-1.74.296-1.514.279.244.942.818 1.011.679l.07-.122.07-.14c.069-.156.139-.069.139.192 0 .279-.104 1.08-.104 1.219s.209.522.453.522l.174-.087c.192-.105.331-.296.488-.453.523-.487.889-.54.959.349 0 .034.261.087.401.087l.644-.018c.419-.522.698-.714.628-.4-.07.313-.052 1.218.244 1.01.296-.21 1.011-.575 1.063-.418l.087.104c.488.679 1.36 1.184 1.586.87.558-.783-.383-.644-.592-.974l-.227-.314c-.052-.487-.07-1.323-.017-1.827l.331-.314c.104-.104.453-.122.558-.017.122.104.191.418.139.592l-.087.33a.696.696 0 0 0 .279.906l.244.226c.366.33.592.087.923-.07l.332-.156c.47.087 1.045.487 1.307.887.244.4.035 1.724-.453 1.81l-.454-.66c-.627-.923-.766-.906-1.812.017-.192.173-.523.173-.75.313l-.54.383c.052.626.715.922 1.464.661l.68-.244 1.917.888.244-.035c.262-.052 1.22-.574 2.126-1.183l.994.07 1.046.069c.366-.192.557-.522.401-.714l-.175-.139a.518.518 0 0 0-.383-.104l-1.604.209c-.505-.731-1.045-1.428-1.185-1.532-.139-.122-.226-.731.262-.975.505-.244 1.777.905 2.056 1.01.279.104.924-.68 1.36-1.01l.348.087 1.185.279c.959-.296 1.621-.853 1.447-1.271-.174-.418-.157-1.497.488-1.288l.436-.766.139-.244c.175-.296-.889-.017-2.353.592l-.749-1.897c-.018-.035-.453 0-.558.14l-.314.347c-.313.47-.592.644-.627.383l-.052-.209-.227-.94c-.662-.383-1.081-.47-.924-.156.157.296-1.307 1.253-2.44 1.27l-1.063-.122-1.046-.121c-1.133-.227-2.771-.314-3.642-.192l-.297.453c-.54.87-1.307.783-2.004 1.114l-.767.365c-.139-.452.349-.922 1.098-1.062l.61-.295.523-.262c.61-.574.715-1.096.209-1.166l-.314.105-.836.296c-.889.4-1.97.8-2.405.887-.436.087-2.336-.905-2.719-1.027l-.035.575-.018.278c0 .348-.418.505-.906.331-.488-.174-1.272 1.253-1.325 1.74l-.034.453c-.035.348.052.888-.506.749l-.837-.21c.489-.243.889-.748.907-1.113.017-.366-.436-1.27-1.046-.923l-.122-.104c-.784-.731-1.882-.14-2.614-.68l-.61-.452c.017.4-.21.94-.506 1.184l-.314-.574c-.122-.21 0-.68-.418-.279-.157.14-.296.418-.279.627l.018.243c.174.314-.122.662-.645.784-.523.104-1.394-.923-1.656-1.132-.244-.209-1.063-.313-1.394.314l-1.325-.314c-.279-.07-.592.018-.871-.052-.175-.035-.419-.191-.436-.348-.07-.418-.018-.748-.575-.296-.279.226-.837.157-1.238.087-.313-.052-.627-.453-.906-.418-.209.035-.401.766-.54.731l-1.203-.174c-.715.905-2.091 1.08-3.067.4l-1.412.157c-1.133.122-1.308.07-2.144-.8-.122-.14-.383-.14-.575-.21 0 0-1.604 1.498-1.604 1.515-.435.453-.819 1.184-1.533.279-.122-.157-.68-.21-.82-.07l-.836.853c-.262-.714-.767-1.114-1.133-.888-.366.226-1.046.383-1.029.018.035-.366-.993.226-1.08.278-.087.052-.82-.122-1.551-.296l.035 1.01.017.73c-.436.036-.854.227-.906.453-.053.227-.384.714-.593.575-.21-.14-.802-.575-.889-.68-.07-.104-.07-.434.174-.47.245-.034.419-.434-.139-.782-.558-.349-1.952.348-1.673.766.279.4 1.046 1.392.714 1.653l-.226.174c-.767.575-1.621.4-2.458.348-.104 0-.279-.33-.261-.487.017-.14.226-.313.4-.383.088-.035.297.035.367.14l.645.817c.348-.557.418-1.27.14-1.601-.28-.33-1.97-.835-2.267-1.497l.087-1.044.018-.157c.07-.174-.018-.296-.192-.278-.174.017-.558.609-.767 1.148-.209.54-.923 1.515-1.098.853l-.836.07c-.802.07-1.656.574-2.475-.035l-.523-.4c-.575.209-1.551.54-2.161.748l-.454-.61c-.087-.103-.348-.173-.435-.12l-.697.504c-.872.33-1.953.54-2.406.47l-.418-.07c-.157-.035-.349-.156-.453-.104-.732.4-1.97.679-2.58.505l-.122-.035c-.191-.261-.505-.227-.732.052-.209.278-1.046.888-1.028.261.017-.61-.54-1.775-1.307-1.392l-.436.54-.453.574c-.244-.349-.575-.766-.75-.94h-.157c-.139 0-.4.243-.383.365l.087 1.393c-1.028-.105-1.725-.366-1.534-.575.175-.226.54-.975.401-1.236h-.07l-1.272.018c-.261 1.027-.627 1.636-.784 1.358-.174-.279-.854-.87-1.185-.819-.331.053-.854 1.08-1.116 1.167l-.052-.087-.157-.21c-.087-.313-.279-.487-.453-.382l-.157.035c-.279.052-.575.104-.836.07l-.75-.105c-.906-.157-1.69-.14-1.743.07-.052.208-.296.522-.4.104-.105-.418-1.308-.453-1.343-.226-.035.226-.314.87-.505.957l-.053-.052-1.028-.975c-1.272.313-2.475.696-2.684.818l-.296-.261c-.453-.418-.785-.209-.802.435 0 .157.052.366-.035.453a.91.91 0 0 1-.505.278l-.105.018c-.122-.122-.436-.592-.68-1.045-.244-.452-1.55-1.288-1.743-1.149-.209.157-.749.784-1.167.975-.419.209-.907 1.375-1.063 1.306v-.053c.052-.47-.105-.818-.558-.644-.192.07-.227.61-.349.923l-.052.14c-.087.138-.105-.14-.018-.645.088-.505-.261-1.915.262-2.332l.453-.418.174-.157c.21-.313-.226-.574-.958-.574l-.349.278c-.593.47-.924.488-1.447-.052-.139-.156-.801-.052-.958.157-.157.209-.105.73.035 1.027l.14.313c.296.209.365.644.139.975-.21.313-1.186.94-1.743.8l.645-.678.627-.644c-.645-.366-1.22-.314-1.272.104-.053.418-.21 1.132-.227.696-.017-.435-1.168.035-1.412-.278-.226-.314-1.098-.975-1.342-.679-.244.296-.801.783-.68.348.14-.435-1.15-.191-1.15.174-.017.366-.714 1.514-1.534 1.445l-.697.052c-.47.035-.906.313-1.377.383-.697.122-.279-.818-.68-.888l-.627-.104c-.732.174-1.15.365-.924.418.227.07.628.73.384 1.322l-.558-.348c-.558-.348-.75.749-1.272.14-.227-.279-.784-.227-1.15-.4-.436-.21-.785-.593-1.22-.767l-.297-.121c-.54.07-.837.383-.627.696.209.313.575 1.131.47 1.236-.104.104-.645.365-.767.156-.087-.209-.54-.661-.61-.47-.07.192-.575.21-.993-.33l-.784-.018h-.488c-.471.105-1.15.314-1.517.47l-.052-.087c-.453-.661-.697-.104-.959.157-.383.4-.68.47-1.08.035l-.122-.14c-.331.053-.575.244-.54.418.034.174-.28.992-.82 1.236l-.192-.836-.139-.591c-.349.07-1.133.104-1.725.087h-.54c-.471 0-.872-.801-1.43-.122l-.087.122c-.506-.279-.802-.61-.68-.697.122-.104.959-.591 1.482-.905l.4-.4c.192-.191-.505-.661.105-.957.366-.174.697-.488 1.08-.592l.768-.21c.278-.695.68-1.34.871-1.426.192-.087.75-.07.802-.418.07-.348-1.708-2.541-1.447-2.454.262.087 1.098-.018 1.238-.436.14-.417.906-1.148 1.272-.4l-.035.505-.035.4c-.557.488-.366 1.132.436 1.428l.366.487.366.487c.558.4 1.028.383 1.046-.017.017-.4.348-1.34.732-1.114l.07-.07.4-.365c.088.33-.122 1.166-.435 1.862l-.349.592-.697 1.34c.192.905.592 1.236.889.697.296-.523.976-2.385 1.499-2.977l.174-.766c.087-.435.349-.104.384.227l.07.748c.487-.174 1.115-.54 1.376-.836.261-.295 2.005-.052 2.998-.278l.924.487c.226.122.767.227.801-.383.035-.4.75-.8 0-1.218l-.156-.087c-.297-.453-.28-.731.052-.61.331.123.993.401 1.394.366.401-.017 1.36.87 2.231.627l.82-.052c.017 0 .052-.4.017-.592-.018-.087-.227-.14-.349-.157l-.261-.035c-.314 0-.558-.139-.506-.33h.018l.488-.053c.575-.052 1.046.4 1.046.993l.209.278.366.33c.54-.278 1.743-.678 2.666-.887l-.854-1.218c-.035-.035.087-.261.157-.279.122-.035.331-.052.418.018l1.168.974c.21-.766.453-1.462.54-1.549.088-.087.314.052.314.487l.122.035.941.331c.227.923.471 1.74.54 1.828.07.087.314.07.471-.07.157-.14.628-.383.732-.244.087.157.663.296 1.046-.07l.418-.139 1.377-.435c.297-1.323.558-2.454.61-2.506.053-.052.401-.087.698.087.296.157-.175 1.897.104 2.002.279.104 1.586-.035 2.318-.523l.68-.487c.07-.052.07-.296.035-.418-.018-.087-.157-.226-.244-.226l-1.011-.035c0-.54.418-.87.924-.73.505.138 1.568 1.06 1.394 1.235-.174.191.052.992.784 1.497.732.505 2.928-.557 2.806-.8l-.087-.262-.14-.4c.35-.453 1.169-1.01 1.83-1.236.663-.226 2.528.261 2.685-.174.157-.435.732-1.602.854-1.358.105.244.715.4 1.098-.174l.314-.348c.122-.122.558-.14.558-.14.435 1.654 1.76.714 2.666.976.174.052.418-.07.575-.175.07-.052.088-.296.053-.417l-.018-.087c-.122-.087-.714-.192-1.307-.244l-.54-.035c-.384-.017-.732-.418-1.116-.452l-.54-.053a11.421 11.421 0 0 0-.889-1.357c-.261-.331-1.569.26-1.83.278-.261.018-.837-.33-.68-.818.157-.487.192-1.88-.035-1.932l-.07.07c-.418.417-.801 1.218-1.22 1.253l-.801.052a17.71 17.71 0 0 1-1.5 1.514l-.8-.922-.28-.33c-.313-.349-.819-.697-1.098-.767l-.226.07-1.029.313a29.01 29.01 0 0 0-.697-1.131c-.052-.07-.488.157-.784.679l-.401.26c-.383.244-.993-.086-1.342.47-.052.07-.314.07-.418.018-.419-.244-.802-.54-1.203-.818-.296-.191-.575.505-.959-.052l-.226-.33a65.039 65.039 0 0 1-2.876-.732l-.732-.818-.331-.366c-.802.053-1.43.4-1.395.784.035.383-.819 1.48-1.934 1.444l-.976.122c-.82.105-.314-.905-.89-.974a6.5 6.5 0 0 1-1.393-.331l-.088-.035c-.034-.487-.313-.4-.627.209l-.279.365c-.087.122-.436.192-.558.105-.139-.087-.261-.488-.191-.557l.54-.61c-.087-.87-.314-1.357-.506-1.096-.191.261-.714.87-.766.835-.053-.034-.105-.33 0-.591.104-.261.017-1.097-.488-1.114-.506-.018-1.726.209-1.674.522.035.313-.889 1.358-1.08 1.584-.192.226-.767.714-.837.557-.052-.157-.47-.209-.75.26-.278.47-2.021.332-2.248.105-.244-.226-.784-.452-.871.192l-.732-.366c-.54-.26-.645-.644-.296-1.323.261-.504-.157-.278-.523-.208l-.575.121c.156-.487.592-.887.958-.887l.14-.174.226-.279c.105-.435.035-1.027-.174-1.288l-.052.035-1.691.922c-.558-1.375-1.063-2.489-1.098-2.489-.035 0-.506.383-.732.888-.227.487-.767 1.218-.697.487l-.872-.052-.244-.017c-.261.191-.592.087-.697-.244-.122-.33-.802-.61-1.185.296l-.314.696c-.035.07-.279.07-.4.035l-.105-.035c-.087-.122-.175-.505-.192-.835-.017-.331.122-1.34.662-1.532.54-.209.175-1.984.297-2.193.122-.192.4-.784.33-.87h-.052l-.575.052c-.557-.331-1.167-.853-1.411-1.184l-.28.261-.139.14c.087.556-.017 1.079-.226 1.183-.227.105-.907.018-.75-.557l.07-.435c.052-.296.087-.627.017-.905-.087-.418-.157-.905-.418-1.166l-.261-.262c-.523-.087-.959-.243-.976-.348-.018-.104.244-1.462.575-2.75l1.69-.052.663-.018c.627-.4.871-.783.54-.818-.331-.052-.872-.452-.314-.783l.384-.313.296-.244c.331.052.871.33 1.168.627l.313-.4c.07-.088-.278-.436-.313-.697-.035-.278 0-.574.435-.278l.157.104c.576-.209.436-.679-.296-1.044l-.523-.174-.174-.053c-.244.14-.401.122-.331-.052s.07-.748-.14-.835c-.209-.087-.767-.453-.697-.627.07-.174-.052-.661-.436-.731-.383-.07-.278 1.55-.47 1.671-.192.122-.89.33-1.116.244-.226-.087-.697-.697-.645-.923l.105-.174c.052-.07.296-.087.4-.035l.193.105c.296.313.522.035.47-.592-.035-.627.663-2.02 1.063-1.688.401.313 1.15-.853 1.011-.906-.14-.052-.453-.348-.4-.504h.052c.714.087.993-.575 1.36-.975l.173-.192c-.104-.54-.07-1.044.088-1.114.156-.07.889-.139 1.167.087.28.227-.122 1.288.105 1.532.227.261.889.888.941.853.052-.035.157-.278.07-.453-.07-.174-.174-.957-.227-1.34-.035-.383-.017-1.723.89-2.263l.993.784.383.296c.314-.592.662-1.323.784-1.428zm308.777 40.783c-.227.122-.854.07-1.377-.104l-.453-.192c-.349-.139-.732-.417-1.063-.365-.297.035-.035.957-.75.783h-.017c-.07.226-.105.61-.07.853.017.244-1.098.087-1.098-.209-.017-.313-.296-1.027-.61-.818l-.244.087-.262.087c-.278.017-.836.296-1.22.61-.383.313-1.69.121-1.742-.419l.418-.47.331-.365c-.331-.574-.871-.783-1.203-.47-.331.313-1.063 1.34-.767 1.462.297.122.088.957-.348 1.097l-.349.209c-.139.087-.191.383-.209.574 0 .087.157.261.262.279l.54.121c.592.157 1.237.227 1.412.14l.104-.14c.192-.278.279-.783.523-.87.209-.087.575.383.872.383h.54c.61-.122 1.394.105 1.743.487l.575-.557.627-.591c.366.609.767.957.872.748.104-.191.714-.296.749-.226.018.07.244.191.436.139.192-.052.715.105.732.035.035-.07.401-.505.75-.836.366-.33 1.115-1.636 1.098-2.019l-.157-.07c-.366-.173-.663 0-.68.523l.035.104zm-154.894-.713c.105.296-.418.296-1.15 0l-.366.661-.262.453c-.209.626.576.922 1.761.661l.279.035.244.035c.278-.07.435-.227.366-.349-.07-.139.244-.922.871-1.462l-1.028-1.027-.157-.156c-.14-.174-.488-.662-.75-1.062l-.47-.017-.401-.018c-.418-.017-.61.226-.418.522.191.261 1.377 1.428 1.481 1.724zm82.475 1.792c.419-.191.715-.121.663.174l.104.087.697.558c1.308-.523 2.231-1.184 2.074-1.48-.174-.296-1.359.157-1.655.191-.297.035-1.116-.121-1.377-.278-.262-.157-.941-.313-1.098-.07-.157.244-.715.714-.889.522-.174-.191-.854-.47-1.133-.243-.279.226-.889 1.027-.906 1.079-.018.052.191.226.488.157.296-.07.993-.035.923.174-.069.226.053.8.419.905l.331.017h.087c.122-.278.854-1.601 1.272-1.793zm-70.309-1.549c-.053-.139.157-.243.47-.243.314.017 1.098.156 1.168.313l.018.07c.104.365-.314.974.4 1.044l.576.07c-.07-.453.226-1.097.644-1.428l.332.087.383.105c.384-.018.349-.21-.07-.418l-.209-.505c-.07-.157-.645-.157-.976-.122l-.697.07c-.436-.348-.627-.836-.418-1.08.209-.243.557-.904.435-1.096-.122-.191-.679-.522-.923-.226-.227.296-.105 1.984-.349 2.228-.244.243-1.011.748-1.133.592-.122-.174-.575-.418-.749-.192l-.122-.017c-.732-.122-1.133.156-1.36.888l-.069.208c-2.179-.243-3.835-.278-3.661-.087.175.192 1.098.766 1.743.94l.506-.487.279-.261c.331-.296.627-.714.697-.905.052-.192-.052-.47-.401-.14-.349.331-1.708.575-1.935.436-.226-.14-.767-1.027-.575-1.62l.087-.591.018-.261c-.262-.313-.994-.418-1.639-.244l-.61.087c-.104.018-.244.383-.209.557.018.14.296.348.436.331l.244-.035c.244-.174.54-.087.662.192.122.278.018.957-.575.696l-.314.14-.801.33c-.314-.557-.732-1.166-.889-1.323l-.157.017-.14.018c-.139.209-.331.905-.418 1.532l.54.504.454.436c.348.609.784.609.923.017l.819.278.576.192c2.091-.279 3.799-.192 3.799.191l.157.122c.279.226.628.244.75-.313.034-.192.366-.453.522-.435.454.052.889.278 1.342.383l.227.052a.505.505 0 0 0 .331-.662l-.087-.26-.052-.175zM36.099 82.984c.209-.226.993-.104 1.725.279l.697.26c.14.053.489-.19.576-.382.122-.261.07-.33.47-.296l1.011.087c1.116.157 2.266.279 2.58.279l.261-.087.767-.262c.976-.382 1.43-.748 1.028-.818l-.157-.156-.244-.244c-.174-.244.07-.174.54.157.489.33 2.145.278 2.145-.07l.017-.296c.035-.365-.07-.87.122-1.062l.662-.678c-.54-.227-1.324.243-1.743 1.027l-1.342-.54-.575-.226c-.105.574-.4 1.01-.662.974-.262-.035-1.15.366-1.394.418-.244.052-1.273-.487-1.726-.731-.453-.226-1.813.679-2.213 1.062l-.35.365c-.54.557-.505.575-.888 0-.244-.365-.505-.73-.837-1.027l-.174-.156c-.296-.035-.575.052-.61.209-.035.156-.366.522-.68.487-.313-.052-.174 1.062-.087 1.34.087.261.872.314 1.08.087zm125.194-14.517c.209 1.428-.087 2.333-.662 2.02l-.436.104-.401.104c-.331.592-.819.575-1.098-.052l-.505.557c-.523.575-1.098.662-1.743.575-.419-.053-.837.226-.976.609-.07.191-.279.313-.384.487l-.226.348c-.227.4-.454 1.497-.488 2.437l.383.157.279.122c.383-.122.802-.54.941-.905l-.54-.07c-.541-.07-.541-.522-.279-.783l.453-.436c.593-.365 1.307-.783 1.586-.922.279-.14 1.133.435 1.307.696.157.279-.348 1.132-.523 1.132-.174 0-.749.313-.732.73 0 .419.541 1.184 1.186.714.645-.452.976-3.202 1.255-4.055l.453.365c.662.54.854.087 1.115-.243l.209-.261c-.836-1.706-1.272-2.907-.993-2.681.296.226.976 1.044 1.133 1.253.139.209.958.105.889-.835l-.628-.627-.575-.54zm-9.621 4.578c.453-1.462.279-2.907-.366-3.237l-.575-.035c-.662-.035-1.342.278-2.022.33-.47.035-.958-.139-1.447-.226l-.156-.017c-.157-.017-.523 0-.785.035-.279.035-.801.661-.662.975.157.313-.279 1.166-.296 1.2-.018.035-.575-.034-1.238-.156l-.575-.157c-.139-.035-.314-.296-.314-.452 0-.157.192-.4.331-.436l.314-.087c.419 0 .262-.556-.331-1.218l-.593.557c-.366.296-.453.992-.61 1.532-.191.73.541.487.802.748.401.418.732 1.323 1.517.435l.017-.017c.139.104.523.313.837.47.313.157.732-.574.749-.853.017-.278.366-1.131.767-.783.383.348 1.412.748 1.725.383l.297-.035c.331-.035.627.8 1.045.313.523-.609-.261-.853-.488-1.253l-.052-.105c-.087-.226.331-.104.941.262.61.383 2.318 1.705 2.475.992l.122-.557.75-2.002c-.157-.104-.419-.33-.471-.296l-.314.261c-.296.331-.366.853-.122 1.132l-.244.435-.226.4c-.14.557-.471.94-.732.836l-.14-.14c-.313-.313-.679-.435-.889-.034-.191.382.018.661.506.713l.453.087zm146.441.522c.278-.017.366-.348.191-.73l-.226-.28c-.227-.26.557-.608-.018-.974-.313-.209-.523-.47-.923-.156l-.105.086c-.192 0-1.952-.243-3.887-.504l-1.882.54-.75.208c-.627-.592-1.376-.818-1.655-.54-.279.296-1.046.87-1.168.732-.122-.14-.75-.331-.976.07-.209.4-.401 1.6.314 1.27l.435-.017.314-.018c.383.052 1.081.209 1.534.348l.453.157.314.104c.819-.313 1.673-.748 1.882-.974l.122.034 1.185.331c.018-.957.558-.992 1.185-.087l.61.749.663.818c.854.783 1.673 1.253 1.83 1.044.139-.157.279-2.176.558-2.21zm-96.245 4.021c.506.122.907.105.872-.052l-.035-.017-.575-.331c-.68-.192-1.342-.435-1.464-.522l-.018-.105-.035-.139c.053-.157.454-.435.907-.626.453-.175.836-1.498 1.098-1.463l.244.035.157.018c.174.017.296-.157.261-.4l-.087-.175c-.035-.087-.244-.07-.384-.087-.331-.052-.784.105-.749-.505.017-.435.035-.661.575-.957l.697-.365c.732-.819 1.342-1.271 1.377-.975.035.278.331.87.575.696l.227-.087c.314-.105.662-.157 1.011-.209l.139-.017c.157.052.436.435.645.87l.593-.366.296-.174a26.94 26.94 0 0 0 1.307.296c.244.053.994-.452 1.255-.626l.349.33.209.192c.453-.035.837-.33.854-.679.017-.348-.349-1.375-.819-1.427-.471-.053-1.639.383-1.551.487.087.122-.732.487-2.092.418l-1.15.035c-.802.017-1.429-.174-1.83-.906l-.331-.609c-.419.227-1.151.87-1.604 1.428l-.575-.122-1.29-.261c-.976.818-1.656 1.827-1.499 2.245l.523-.418c.262-.209.593-.33.906-.47l.279-.121c.244.382.349 1.288.262 2.019l.191.678c.07.262-.278.888-.313.888-1.185-.33-.837.853-1.22 1.306l-.279.33c.174.174 1.586.819 2.091.94zm118.903-4.09c0 .191.61.47 1.377.592l.557-.21c.697-.26 1.133.889 1.865.14l.262-.261c.592.157 1.272.418 1.499.574.226.157.61.053.313-.626-.296-.68-1.22-2.437-.941-2.733.279-.296-.662-1.201-1.464-.679l.07 1.114v.07c-.628.174-1.011.174-.854 0 .157-.174.366-.575.244-.697-.105-.121-.384-.017-.297.558.088.574-.348 1.932-.679 1.74-.331-.191-.907-1.915-1.133-1.897-.209.017-.819.14-.732.243.087.105.435.54.662.853.227.296-.749 1.027-.749 1.219zm-15.199-.836c.349.053.157-.818-.435-1.914l-1.255 1.166c-.087.07-.541-.14-.697-.33l-.541-.61c-.697.174-1.621.383-2.056.487l-.21-.174c-.331-.296-.488-.348-.801 0l-.227.244c-.471.261-.523.522-.122.574.401.07 1.116.714 1.482 1.184.366.47 1.934 1.828 2.719 1.862l.714-.017c.122 0 .314-.296.314-.453 0-.156-.192-.4-.331-.435l-.453-.104c-.593-.052-.855-.261-.593-.487.244-.192 2.126-1.045 2.492-.993zM24.578 84.952c.035.225-.035.034-.122-.436s1.08-1.305 1.36-1.253c.296.07.801-.522.592-.766l-.192-.226-.157-.174c-.209-.244-.435-.087-.505.313l-.122.07c-.226.121-.558.191-.802.139l-.418-.105c-.54-.26-.854-.209-.697.14.157.348-.994.887-1.168.383-.174-.523-1.569.087-1.586.643-.017.575.262 2.176.662 2.037.401-.14 1.517-.835 1.76-1.166.21-.33 1.378.174 1.395.4zm99.19-5.588c-.087.783.436 1.48 1.168 1.514l.575-.052.104-.017c.088-.383-.052-.714-.313-.766l-.087-.14-.123-.191c-.017-.296.192-.575.471-.592l.227.087c.174.07.401.296.435.488l.07.487c.366.104.715.035.767-.157.07-.191 0-.992-.105-1.375l-.209-.244c-.139-.156-.488-.209-.714-.174l-.872.122c.122-.47.227-.957.227-1.079 0-.104-.262-.453-.558-.487l-.174.121c-.575.418-.907.453-.959-.417 0-.087-.436-.192-.68-.192h-.052c-.07.296.889 2.28.802 3.064zm84.811-3.447c-.018.4.331.749.784.749l.279.035.226.034c.262.105.14-.313-.296-.94l-.383-.574-.035-.07c.052-.208.244-.295.435-.208.192.087.698.07.802-.192.105-.261.331-1.288.262-1.758l-.297-.244-.157-.121c-.296.07-.888.47-1.289.887l-.488-.087-.663-.122c-.435.418-.871 1.132-.976 1.584-.104.436.802.853.785.436-.035-.418 1.028.191 1.011.591zm66.841-1.775c-.018.557.348.661.801.244.471-.418 1.674-1.828 2.005-2.298l-.54-.366c-.471-.313-.872-.313-1.36.07l-.261.209c-.454-.035-.994-.07-1.168-.052l-.035-.087c-.139-.244-.157-.557-.314-.766-.087-.105-.435-.122-.557-.035l-.14.104c-.017.261.018.714.07 1.027.07.314-.401 1.097-.436 1.184-.035.087.087-.07.314-.487.244-.435 1.638.696 1.621 1.253zm102.083-4.77c.331-.121.505.227.401.766-.122.523-.192 1.95.139 1.706.331-.243 1.394-.139 1.848-.609.453-.47-.227-2.454-.663-2.507-.435-.034-1.499-.435-1.83-.173-.331.26-1.08.957-1.063 1.009.017.035.837-.087 1.168-.191zM34.269 30.209c-.47-.017-.959.505-1.08 1.167l-.837.557c-.105.07-.21.348-.192.365.61.505-.453.679-.192 1.045.244.33.558.591.837.887l.4.435c.454.523 1.133.418 1.5-.226l.313-.627.035-.07c-.122-.208-.436-.312-.68-.225-.261.087-.958-.836-.75-2.333l1.343-.54.296-.121c.384-.018.68-.052.68-.105-.035-.052-1.203-.191-1.673-.209zm67.364 36.362c-.14.157-.401.052-.558-.226-.157-.279-.871-.54-1.272 0l.313.818c.157.418-.418.661.053 1.218l.54.627c-.837.278-1.185.54-.784.574.401.035 1.202.314 1.22-.26.017-.558.104-2.055.157-2.055.052 0 .209.192.261.436.052.243.366.905.61.87l.192-.07.261-.087c.366-.174.087-.626-.645-1.01l.192-.47c.052-.121.296-.226.296-.313-.017-.243-.087-.661-.209-.713-.453-.157-.645.139-.61.609l-.017.052zm84.741 8.79c.191.557.732.749 1.22.436l.401-.279c.4-.261.592-1.166.278-1.236-.644-.174-1.115-1.027-1.899-.54-.227.14-.314.418-.628.07l-.592-.661c-.349.574-.297 1.444.122 1.932l.505.122.593.156zM71.498 63.768c.278.975.749 1.601 1.045 1.41.297-.192-.366-1.776-.767-2.455l.105-.783c.017-.07-.331-.278-.488-.261-.14.017-.296.261-.349.418-.07.209 0 .452-.052.679l-.017.07c-.175.051-.349-.105-.366-.331-.035-.244-.453-.888-.872-.853l-.348.052h-.053c-.034.087.14.365.384.626.244.244-.28 1.306-.262 1.567l.244-.017 1.796-.122zm170.318 9.712c.262.557.645.801.837.557.191-.26-.593-1.131-.767-1.235-.174-.105-1.081.017-1.464-.122l-.366-.035c-.349-.035-.767.261-1.046.14l-1.011-.453c-.261.87.628 1.775 2.004 2.019l.872-.418.941-.453zm146.911-13.002c.558.365.802.853.558 1.096l.035.053.488.905c.871-.435 1.603-1.288 1.603-1.897l-.592-.087c-.767-.122-.959-.836-1.464-1.219l-.157-.122c-.227-.122-.593-.035-.802.192-.226.226-.645 1.236-.436 1.723l.628-.522.139-.122zm-92.688 17.058c-.506.366-.75.992-.576 1.393.192.417.994 1.357 1.255.87.262-.487 1.046-1.619 1.255-1.584l.14.14c.296.295.645.504.871.104.105-.174-.122-.714-.349-.906-.244-.208-.766-.4-.941-.26-.418.313-.801 0-1.133.086l-.522.157zm-24.802-4.473c.087-.366-.384-.766-1.046-.87-.662-.123-2.51.243-2.771.121-.262-.122-.018.923.052 1.184.07.26.61.644 1.011.191l.401-.313.366-.279c.47-.191.958-.07 1.08.244.122.33.82.105.907-.278zm-80.523-1.81c.348.174.801.121 1.011-.088.191-.226.575-.905.383-1.01-.192-.104-1.098-.034-1.516.453l-.802-.47c-.436-.26-1.133-.087-1.708-.087h-.122c-.175.105-.297.436-.279.731 0 .296 2.684.296 3.033.47zM49.519 16.91c-.418-.122-.453-.679-.07-1.253l.21-.522c.07-.175-.192-.505-.331-.749-.227-.4-.401-.035-.628 0l-.558.105c-.209.435-.244 1.01-.07 1.27.175.261-.348 1.132-.104 1.689l.296.435c.122.174.576.33.698.243.313-.243.854-.487.644-1.044l-.087-.174zm329.378 26.962c-.157-.174-.488.557-.732 1.636l1.29-.07c.314-.017.61-.382.906-.365l.331.018c.436.296.785.226.767-.122-.017-.366-.174-1.48-.313-1.863-.14-.383-1.308-.052-1.36.262-.052.295-.715.678-.889.504zm19.416 16.745c.297-.54.105-.957-.435-.922-.541.035-1.865-.47-1.848-.053 0 .418.384 1.463.558 1.463.174-.018.767.208 1.15.278l.209-.278.366-.488zM77.789 81.313c.157.174.471.14.698-.052l.854-.122c.104-.017.244-.087.279-.174.052-.122.07-.383 0-.435l-.54-.348c-.646-.348-.872-1.044-.524-1.514l-.522-.418-.21-.157c-.296-.07-.575 0-.627.157-.052.174.14 1.079.314 1.827l-.907.366-.261.104c-.244.644-.244.975 0 .731.244-.226 1.29-.139 1.447.035zm95.321-6.823c-.122-.244-.662.122-1.22.8l-.784-.295c-.314-.122-.593-.33-.907-.435-.174-.053-.557 0-.557.052-.035.244-.035.54.052.766.07.191.261.452.436.487l.714.087c.558.487 1.22.975 1.482 1.062.261.087.523-.766.383-1.08l-.401-.017h-.052c-.052-.191.087-.365.331-.4.227-.017.645-.8.523-1.027zm202.092-4.717a.978.978 0 0 0-1.237-.592l-.122-.122-.645-.696c-.244.592-.175 1.131.139 1.201.314.07 1.081.383.889.574-.192.174-.505.749-.296.853.209.105 1.098.383 1.69.244l.541.278.104.053c.192-.192.07-.54-.313-.784l-.384-.191c-.104-.052-.174-.226-.209-.348l-.157-.47zM42.565 12.61c.54.296 1.063.07 1.15-.505l-.14-.261c-.243-.453-.61-.992-1.027-1.132-.75-.26-1.011.68-1.517 1.045-.07.052 0 .313-.052.418l-.192.348c-.052.4.227.748.645.783l.018-.61c0-.086.505-.243.749-.173l.366.087zm238.24 58.902c-.191-.19-.575-.382-.889-.435l-.122.105c-.156.156-.331.557-.244.679l.122.191c.314.087.314.279 0 .418l-.122.226c-.104.174-.034.592.105.749l.227.226c.331.122.958.33 1.411.453l.384-.14c.122-.052.331-.122.331-.209.017-.209.017-.487-.105-.591l-.191-.175c-.297-.104-.453-.295-.366-.452.122-.174-.349-.87-.541-1.045zm-122.789-.94c.837-.156 1.517-.452 1.482-.66-.018-.21-.157-.54-.262-.28l-.156.157-.14.122c-.226.035-.837-.017-1.359-.122-.523-.104-1.883-.07-1.935.296-.052.366-.854-.139-.959-.087-.122.052-.313.435-.157.696l.192.07.262.105a34.774 34.774 0 0 1 1.76-.157l.575-.052.697-.087zM46.278 11.88c-.314.226-.489.07-.384-.349l.07-.191.052-.157c.07-.174-.087-.365-.383-.417l-.053.087c-.226.4-.313.905-.923.94-.07 0-.157.661-.14 1.01 0 .069.488.208.697.121l.227-.087c.226 0 .802.017 1.272.035.47.035-.104-1.219-.435-.992zm141.577 57.18c.471.138.75.086.593-.105-.14-.192-.61-.957-1.046-1.34l-.261.121c-.401.192-.61.418-.994-.017l-.052-.07c-.558.383-.837.853-.61 1.08.226.226 1.9.208 2.37.33zM62.208 56.125c-.785-.696-1.5-.557-1.569.296l.628.192.278.087c.506-.522 1.168-.592 1.465-.122.296.453 1.376-.191 1.15-.575-.227-.365-1.185-1.34-1.551-1.392l-.018.052-.383 1.462zM50.809 80.53c-.54-.104-.889.052-.767.33l.14.244.191.349c.21.382.576.313.802-.14l.227-.052.906-.244c1.01-.156 1.569-.504 1.22-.766-.349-.278-2.179.383-2.719.279zm135.966-9.8c.017-.383-.82-.365-1.848.035l-.784.453c-.262.156.226.54 1.952 1.027l.174.052c.244-.07.471-.488.488-.923l.018-.365v-.279zM57.92 84.046c.174-.157.366-.244.453-.174v.052c.035.488.122.888.732.766.192-.035.558-.104.558-.157v-.417c-.087-.436-.331-1.027-.558-1.271-.226-.261-1.115-.418-1.481.226-.366.644.122 1.132.296.975zM11.907 40.913c.174-.226.244-.435.14-.487l-.035.017c-.401.279-.767.749-1.203.818-.4.07-.872-.313-1.307-.435-.175-.052-.558.07-.558.122l-.017.261c.087.279.522.522.993.54.453.017 1.673.522 2.074.035l-.052-.662-.035-.209zM63.306 63.28c-.384-.017-.628.435-.523.975l.662.818c.14.192.331.418.54.453l.297.052c.261-.261.366-.731.244-1.044v-.279l.017-.296c.175-.348-.836-.679-1.237-.679zm192.053 9.47c-.366-.018-.227.713.313 1.618l.576.47c.331.261 1.342.226 1.533-.052.471-.749-.523-.575-.784-.905l-.192-.244c-.348-.14-.575-.33-.505-.418.07-.087-.575-.452-.941-.47zM29.249 56.77c-.157.348-.244.644-.21.68.036.034.315-.07.506-.297.192-.209.837-1.148.959-1.601.122-.453.052-1.967-.035-2.315l-.209-.157-.296-.226a9.426 9.426 0 0 0-.75 1.166l.053.261.087.453c.017.505.052 1.706-.105 2.036zm265.169 11.297c.331-.174.4-.644.174-1.027l.61-.435.383-.279c-.139-.33-.61-.661-1.028-.696l-.383.035c-.541.035-.942.627-.785 1.218l.07.244c-.017.244-.035.54-.052.679-.018.14.174.487.453.47l.226-.087.332-.122zm-180.01 10.218c.14-.349.366-.349.523-.018.14.33 1.063.54.663.14l-.192-.349c-.105-.191.854-.626-.14-.748-.366-.052-.784-.453-1.08-.348l-.488.174c-.087.609-.314 1.323-.506 1.584l-.069.26c-.053.157.087.488.209.54l.139.07c.244-.104.802-.975.941-1.305zm163.696-2.35c-.488.017-.331.139.331.243.68.105 2.562.279 2.614.14.053-.14.244-.644.157-.784-.069-.139-.435-.47-.714-.348-.262.105-1.9.714-2.388.749zm-261.98 8.268c.367-.035.367-.314.036-.61-.331-.313-1.726.61-2.144.697l-.383-.14c-.122-.034-.35.14-.471.279-.07.07-.035.383.035.4.627.261 1.237.54 1.9.68.139.034.61-.645.557-.697-.296-.383-.4-.592.21-.61h.26zm57.9-19.617c-.034-.244-.104-.453-.174-.47-.052-.018-.313.104-.453.313-.14.209-.296 1.08-.348 1.48-.053.4-.47 1.584-.523 1.827-.052.244.035.47.314 0l.226-.104c1.325-.627.802-1.828.941-2.82l.018-.226zm-15.145 3.62c-.488.227-.523.383-.087.366.435-.017 1.36.922 1.55.87.21-.052.628-.626.768-.975.14-.348.418-1.427.33-1.6h-.086c-.192 0-.47.016-.558.156l-.122.139c0 .261-.192.888-.453 1.375l-.994-.244-.348-.087zm69.769 8.007c-.035-.417-.662-.661-1.429-.522l-.593.157c-.331.087-.383.835-.052.853.662.052.593.4.662.87l.053.383c.278.383.627.4.784.035l-.122-.157c-.227-.278-.314-.418.017-.661.227-.175.488-.383.575-.645l.105-.313zm-81.726-59.79c0-.21-.871-.61-1.97-.905l-.94-.21c-.14-.034-.436.14-.488.28-.053.173.035.521.157.574.488.226 1.01.452 1.533.54l.575.086c.628.244 1.133-.157 1.133-.365zM8.508 40.774c-.75-1.323-1.342-2.176-1.342-1.88.018.279.07 1.532.244 2.298l.087.696c.018.122.332.261.488.244.14-.018.332-.244.349-.4l.174-.958zm381.526 16.901c-.522-.086-.627.21-.226.68.401.47 1.568 1.462 1.778 1.287.209-.191.122-1.218.017-1.079-.087.14-1.028-.8-1.569-.888zM194.182 71.931c.331.296.959.314 1.377.053.418-.262.331-1.741-.418-1.81l-.628.086-.54.07c-.61.296-.14 1.323.209 1.601zm57.029 3.569c-.105-.122-.227.052-.279.365-.053.313-1.482.575-2.231.905l-.663-.644c-.034-.017-.261.105-.331.21-.069.12-.052.295-.017.434.017.07 2.126.557 2.196.522l.592-.417c.663-.488.837-1.271.733-1.375zM65.049 84.603c-.018.575.296.853.714.592l.105-.209c.575-1.044.837-1.34 1.36-1.671l.139-.087c.052-.366-.21-.453-.593-.191l-.366.017-.418.017c-.488-.191-.924.958-.941 1.532zm-18.11-65.552c.925.035.593-.61-.731-1.445l-1.238.052h-.087c-.087.314-.035.61.105.68l.14.017.156.017c.174-.035.436.279.575.696l.506-.017h.575zm-.278 47.52c-.296.922.017 1.548.732 1.374l.505-.156c.331-.105.61-.383.942-.4.575-.036.505-.436.488-.784 0-.209-.088-.54-.192-.575-.418-.139-.663.018-.697.54-.018.122-.47.33-.663.279l-1.115-.279zm294.938 3.289c1.028.661 1.934.818 2.004.348l-.593-.296c-.383-.191-.871-.522-.976-.905-.209-.696-.679-.366-1.045-.418-.07-.017-.314.61-.279.644l.889.627zM76.831 65.038c.453-.104.505-.33.105-.522l-.245-.122-.68-.33c-.313.557-.784 1.48-1.028 2.036l-.139.54-.052.174c.209.26.488.4.61.313.14-.087.976-2.002 1.429-2.089zM31.794 83.75c.261.296.575.4.714.209h.105c.959-.035.854-1.236 1.551-1.567l.087-.034c-.052-.383-.33-.68-.627-.627l-.21.105c-.522.33-.54 1.444-1.533 1.079-.018-.018-.279.4-.227.522l.14.313zm161.255-9.434c-.279-.209-.383.244-.209 1.01l-1.081-.087h-.069c-.105.382 0 .8.226.94l.157-.053.697-.26c.785-.366.558-1.341.279-1.55zm-110.99 5.64c-.575.07-.644.087-.174.07.471-.036 1.517.73 1.604.626.087-.105-.122-.731-.418-1.27l-.297-.47c-.104-.158-.383-.366-.435-.332-.175.157-.454.4-.419.575l.14.8zM4.17 47.336c.243.557.662.714.94.348.28-.365.593-1.357.088-1.375l-.28-.174-.295-.191c-.28.052-.715.348-.976.644l.296.435.226.313zm225.569 28.076c.226 0-.035-.609-.593-1.375l-.645-.348c-.279-.156-.924.4-1.394.662l-.052.035c.034.208.383.313.766.191l.349-.035.331-.035c.419.035.697.192.61.331-.052.174.401.575.628.575zm-47.286-4.995c-.314-.017-.488.505-.366 1.149l.296.296.262.26c.523.018.958-.26.958-.591.018-.33-.836-1.114-1.15-1.114zm52.34 1.532c-.331-.296-.523-.644-.436-.766.088-.122.175-.488.035-.592l-.087.035c-.889.26-.924.574-.296 1.375l.157.209c.069.313.383.957.662 1.462l.471-.33c.54-.366.087-.767-.21-1.08l-.296-.313zM40.125 16.858c-.296-.923-.784-1.462-1.098-1.219-.314.261-1.15.87-1.377 1.027-.227.157.54.818.871.383l.332-.035 1.272-.156zm335.513 21.235c-.105-.452-.558-.626-1.011-.383l-.174.262c-.122.156.157.626.035.765-.21.244-.593.296-.872.488l-.122.07c-.087.174.14.365.488.47.331.07 1.76-1.219 1.656-1.672zM54.278 55.97c.209.47.557.54.801.156.227-.383.488-1.375.053-1.357l-.314-.087-.331-.105c-.628-.365-.419.923-.21 1.393zm235.556 13.629c.47-.279.645-.783.383-1.097l-.174-.104c-.802-.488-1.377.26-2.057.47-.052.017-.104.313-.052.4.401.592 1.011.313 1.534.33h.366zM97.049 64.603c-.244-.47-.715-.679-1.063-.452-.349.226-.872.974-.053.94l.523.156.419.122c.383.4.627.348.54-.122l-.174-.296-.192-.348zM55.13 84.394c.785-.191 1.308-.87 1.168-1.497l-.174-.505-.017-.07c-.297.018-.558.157-.593.297l.052.035c.349.278.21.522-.087.644-.366.156-.802.174-1.168.33-.14.052-.261.366-.244.522.018.14.28.383.401.349l.663-.105zm185.988-8.303c-.732.244-1.36.662-1.377.906-.017.26.087.94.192.992.087.052.401.034.453-.122l.017-.14c.018-.156-.034-.452 0-.47.523-.156 1.064-.243 1.569-.452l.192-.07a.631.631 0 0 0-.244-.8l-.209.034-.593.122zM38.417 70.173c-.262-.696-.593-.713-.75-.052h-.052c-.871-.122-.68.836-1.063 1.166-.174.14-.07 1.062.105 1.132.644.278.575-.314.68-.766.069-.33.348-.61.574-.888l.506-.592zM53.476 8.346c-.018.4.366.522.854.244.47-.279.627-1.55.296-1.55-.348-.017-1.15.888-1.15 1.306zM351.167 19.66c.331-.157.209-.557-.244-.87-.453-.313-1.168.087-1.08.348.104.278 1.011.679 1.324.522zM75.576 5.561c-.976.383-1.168.992-.418 1.34l.854-.557c.157-.104.453-.034.575-.156.14-.122.227-.418.174-.575-.052-.139-.348-.313-.488-.26l-.697.208zm-7.669 78.137c-.174.035-.07.522.262 1.062l.575-.557c.122-.122.627-.731 1.185-.314l.122.105c.453-.279.488-.662.105-.853-.384-.192-2.075.522-2.249.557zm5.543-25.9c.296.295.784-.053 1.08-.801l.053-.592.017-.157c-.558-.226-1.447 1.254-1.15 1.55zm-2.51-2.42c.366.54.436 1.044.14 1.131l-.175.157c-.122.122-.227.435-.157.592.052.139.436.296.523.243l.436-.365c.436-.47.819-1.149.871-1.514l-.14-.192c-.139-.174-.522-.226-.784-.174l-.714.122zm-3.852.696c-.105.627 0 .522.227-.226l.714.174.523.122c0-.453-.052-.992-.157-1.201-.07-.21-1.202.505-1.307 1.131zm329.378 7.885c.296.227.889.244 1.29.035l-.419-.54-.296-.383c-.244-.487-.505-.905-.575-.922-.07-.017-.506.035-.645.244-.139.174.331 1.34.645 1.566zm-338.703.644c-.505.261-.592.522-.209.557.384.052-.209.975-.174 1.097.052.122.383.348.627.191l.105-.209c.14-.296-.157-.835.418-.87.523-.017.645-.348.47-.713-.086-.175-.522-.279-.766-.21l-.47.157zm297.64-47.066c-.14-.035-.175-.261-.088-.47.088-.227-.104-.296-.644.487l-.82.14c-.052.017-.122.313-.069.4.104.156.313.348.435.33.523-.104 1.046-.278 1.569-.452l.052-.018c.018-.139-.296-.365-.435-.417zm-162.72 59.86c-.47.243-.627.61-.348.8.278.192.941.627.854.523-.088-.105-.088-.435.209-.557.279-.105-.244-1.027-.715-.766zm-140.2 6.18c-.105-.453-.471-.627-.802-.384-.35.244-.628 1.793-.454 2.228.157.453 1.36-1.392 1.255-1.845zm230.396-10.671c.122.435.628.435 1.116 0l.436.592c.017.017.261-.052.296-.122.052-.122.087-.383.017-.435l-.662-.54c-.941-.713-1.325.07-1.203.505zm-101.176-6.51c-.331-.104-.541.14-.453.54l.087.017c.645.07.784.435.697 1.027l-.035.279c.087.417.366.313.627-.21.279-.522-.592-1.549-.923-1.653zm114.736 1.74c-.104.175.105.366.488.401l.192-.052a6.464 6.464 0 0 0 1.15-.418c.349-.174.366-.661.035-.905l-.714-.54a17.502 17.502 0 0 0-1.151 1.515zm24.523-2.088c-.366.14-.47.505-.226.8.244.314 1.011.767 1.15.349.122-.4-.558-1.288-.924-1.149zM31.219 56.405c-.018.4.313.61.75.435l.295-.122.227-.087a.495.495 0 0 0 .227-.661l-.175-.14-.383-.33c-.488-.348-.924.505-.941.905z" fill="#E3B9BF" fill-opacity=".5"/></svg>