<svg width="823" height="121" viewBox="0 0 823 121" fill="none" xmlns="http://www.w3.org/2000/svg"><path d="M658.943 96.333c1.454 1.194 2.336 2.18 1.973 2.18-.415 0-1.713-.259-1.765-.622-.052-.364-.727-1.35-1.35-1.35-.571 0-2.284.259-1.713.623.623.311 2.025 1.35 1.973 1.661l-.208.26c-.571.727-1.142 1.454-1.817 2.181-.467.519-.83.831-1.868.26l-1.35-.779c.104.986-.311 1.714-.934 1.61-.623-.104-1.765.571-2.284 1.194l-.623-.104-1.298-.259c-1.35 1.713-1.609 3.479-.467 3.842l-.312-.259-1.557-1.143c-1.973-1.194-3.426-1.558-3.218-.831.207.727 1.297 2.805 1.972 2.961.675.155 1.194-1.974 1.246-2.545.104-.571 1.454-.675 1.713-.208.26.468 1.921 1.454 3.011.935 1.09-.519 4.516 0 4.568.312.052.311.519 1.298.934 1.35.416.052 1.506.415 1.402.727h-.104l-1.246.052c-1.609 0-2.44-.364-1.869-.779v-.208c0-.364-.259-.779-.519-1.091-.052-.051-.986.156-1.038.312l-.727 2.129c-.519 2.337-1.661 4.57-2.595 5.038-.934.467-2.959-.572-2.076-1.247.934-.675 1.297-3.323.519-3.064-.831.26-2.077 1.039-2.7 1.974l-1.142-1.247c-1.142-1.246-1.868.416-2.907.468l-.882.052c-1.142.934-2.077 1.298-2.077.727 0-.572.416-2.181.935-2.389.519-.208 2.284-1.298 2.232-1.818l.104-.519.415-1.766c-1.713-.935-4.153-.623-5.45.675l-.987 1.143c-.155.156.104.623.312.935l.986 1.402c-.311 1.921-1.09 3.116-1.765 2.7-.675-.415-.934-1.506.571-1.61l-1.246-1.558-.415-.519c-.26-.831-.934-1.506-1.402-1.506-.519 0-1.972.208-1.92.415.052.208-.467.624-1.246.364-.727-.26-3.945.519-5.451.571-1.505.052-4.568-2.181-4.723-2.181-.156 0 0 .623.83 1.402l-1.453.831c-.727.416-.883 1.454-1.61 1.87l-.778.415c-1.298.156-1.817-.467-1.142-1.454.675-.935-1.869-2.752-1.921-2.389l-.104.312-.155.363c-.26.416-.883.52-1.454.312l-.052-.26c-.156-.935-.986-.675-1.609-.675-.363 0-.882.208-.986.416-.104.259.155.882.311.882.986.104 1.921.416 1.142 1.195-.571.519-2.076 1.09-2.44-.571 0-.104-.623-.312-.726-.208-.831.727-1.402.415-2.129-.104-.207-.156-1.194 0-1.401.208l-.675.779c-.623.986-.467 1.973.311 2.181.779.26 2.544-.727 2.492-.104-.052.623-.104 2.129-.259 1.87-.156-.26-.831-.831-.935-.26-.052.571-.467 1.973-.727 1.973l-.155-.104c-1.246-.727-2.388-1.558-3.634-2.233-.882-.467-2.024-.519-1.817-1.869.052-.312-1.557-1.039-2.491-1.247l-2.181-.623c-2.024.987-3.737 1.091-3.841.312-.104-.779.779-2.856-.779-3.376l-.986-.623-.882-.571c-.831-.831-1.506-.623-1.506.467 0 1.091 3.478 2.701 3.063 2.908-.415.208-1.609.935-1.973 1.195-.415.26-1.972-1.246-2.076-.831-.104.415-.934 1.091-1.817.675l-.623 1.039-.311.519c-.519.312-.883-.26-.779-1.298l-1.973 1.09-.467.26c-.986-.208-1.92.312-2.024 1.09l-.208.883c0 .104-.519.208-.727.156l-.207-.052c-.104-.259-.052-1.038.155-1.765.208-.728-.934-1.351-.726-.156l-1.869-1.299c-.208-.155-.519-.207-.727-.207-.623.052-1.609-.312-1.609.623v.363c.363.416.571.883.363.987l-.207.156-.364.26c-.415.259-.519.727-.259 1.038l.311.104c.623.208 1.298.26 1.921.467l.519.156c.727.26.363.727-.727.987-1.09.312-4.152.883-3.997.571.156-.311-.519-1.35-1.661-1.765l-.934-.624-.883-.571c-.674.364-1.505.519-1.816.364l-.052-.208c-.156-.416-.571-1.091-.779-.416-.519 1.714-1.246 1.195-2.18.416l-.623-.468c-.415-.363-1.609-.571-2.699-.415l-.572-.208-.622-.207c-.52-.572-1.246-.831-1.713-.572-.416.208-1.921.26-2.233.883l.208.416c.312.623 1.09 1.038 1.609 1.558l.364.415c.259.571.674 1.454.934 2.025.26.572.779 2.13.415 1.974-.363-.104-1.609-.156-1.505.311.052.468-.104 1.87-.571 1.87-.467 0-1.973-.156-1.973-.416l.104-.103c.26-.26.623-.468.883-.779l.934-1.039c-1.142-.104-2.18-.727-2.336-1.298l-.156-.416-.052-.259c-.103-.26.052-.52.364-.52l.259-.052c.571-.104.779 1.195 1.454.26.156-.208-.26-.831-.623-1.091-.467-.363-1.142-.519-1.713-.727-1.402-.571-2.492-.311-2.751.727-.156.624-.26 1.61.155 1.974l.675.571c1.506.364 2.388.883 1.973 1.246-.416.364-1.713 1.143-2.077.883-.363-.259-1.557-.623-1.557.052s-.104 2.389-.208 2.389c-.103 0-.467-.623-.622-1.402l-.468-.519c-.675-.727-.363-1.039.052-1.766.571-.935 1.713-1.922 1.142-3.116l-.259-.519c-.623-.468-.935-1.247-.675-1.714.259-.467.104-2.649-1.505-3.168l-.208 2.025c-.052.26-.519.572-.883.727-.311.156-.882.364-1.09.26-.934-.363.156-.623.156-.935.052-.363-.052-.986-.363-1.142l-.571-.26c-.779-.104-2.336-.311-3.426-.467l-.26 1.35-.156.779c-.882.727-2.336 1.194-3.218 1.091l.83-1.247.987-1.506c-.987-.986-2.648-1.662-3.634-1.454l.883 1.039c.259.311.415.935.207 1.142-.675.727-1.505 1.454-2.44 1.974-.519.311-1.713.519-1.92.311-1.609-1.506-3.063-.104-4.516.052l-1.506.208c.571.831.727 1.662.312 1.869-.416.156-1.558.052-1.61-.675-.051-.727-2.335-.986-2.335-.519-.052.467-.935 1.506-2.388.935l-.623-1.143-.727-1.298c-.779.675-1.661.883-2.076.467-.364-.467-1.246-1.817-1.09-1.973.155-.156 1.09-.519 1.297-.156.208.364 1.298 1.195 1.661.312l.052-.26c.104-1.038-.467-1.714-1.765-1.973l-1.142-.26c-1.246-.363-1.609-1.506-.726-2.545.83-1.038-.312-3.167-.364-1.921l-1.817-1.558c-.363-.312-2.128-.467-1.972.987 0 .052-.935.207-1.402.156-.104 0-.259-.624-.207-.883l.103-.312c.52-.467-.415-.26-2.076.364l-.675.986c-.207.26-.104.727 0 1.039.208.727 1.869.104 1.869 1.454 0 .779 1.194.156 1.973-.208l.519-.259c1.142.052 1.868.675 1.713 1.454-.208.727-2.025 1.869-2.44 1.506-.415-.416-2.803-.935-3.686-1.922l-1.038-.675c-.467-.311-1.661-.208-2.232.104-.831.416-.934 2.077-.415 2.597.623.519 1.246.986 2.024.207.312-.311.415-.882.727-.986 1.038-.208.779.623 1.09 1.038l.727.883c1.246-.311 2.44-.519 2.647-.519.208 0 .779.415.727.883l.104.415.623 2.389c-2.233 1.039-4.62 1.818-5.243 1.662-.675-.104-.987-1.766-1.506-1.974l-.207.104-2.544 1.454c-3.011-.467-5.554-1.038-5.658-1.246-.104-.208-1.194-.727-1.973-.26-.778.468-2.647 1.454-2.024 2.389.571.935-2.855 2.701-4.153 2.493l-1.35.208-2.128.207c-1.35-1.142-2.076-3.271-1.609-4.777l-1.402-.312c-.571-.156-1.765-.519-2.076.571l-.156.52c-.104.779-1.142.727-2.284-.052s-5.762-1.143-6.852-1.195l-.156.779c-.259 1.039 1.09.571 1.765.675l.26.052c.311.156.259.416-.052.52-.312.103-1.09.934-.675 1.454.415.519.623 1.869-.571 1.713l-.779-.259c-.363-.104-.83-.624-.778-.935l.156-1.662c-1.402.312-2.648.831-2.7 1.195-.052.363-.623 1.298-.986.83-.363-.467-.571-1.661.26-1.713.882-.052 2.543-1.402 1.868-2.285l-1.246.675c-.207.104-.674.104-.882 0l-1.973-1.247c-.052 1.247-.363 1.61-.674.831-.312-.831-3.375-.727-3.375-.103 0 .623-.103 2.233-.207 2.233s-.519-.468-.727-1.143l.052-.571.104-.987c-.883-.467-1.558-1.038-1.454-1.194.104-.208.104-.779-.311-.779s-1.661.259-1.713.571c-.052.312-.935 1.246-1.661 1.35-.779.052-3.426.468-3.53-.623l1.142-.675c.675-.364 1.453-.623 2.024-1.039l.208-.104c-.104-.415-.623-1.661-1.142-2.648l-1.142-.519c-1.038-.468-2.284-.779-3.167-1.403-.882-.623-1.557-1.506-2.18-2.336l-.155-.208c.103-.416.467-.571.778-.416l.26-.052 1.297-.155c1.558-.26 2.855-1.091 2.855-1.818 0-.727.416-2.804.883-2.96.467-.104 1.557.208 1.35.987l1.038-.156 2.44-.364c-.104 1.402.363 1.974.934 1.247.623-.727-.467-2.96-.883-2.96-.415 0-1.972-.364-2.595-.78-.623-.415-3.011-1.246-3.789-.83-.779.415-1.973 2.337-3.011 2.44l.104-1.246v-.311c-.468-.364-.416-.987.052-1.403.467-.363 2.284-1.402 1.713-1.921l-.52-.104c-1.349-.208-1.401-.208-.778-.779l.934-.83c-.052-1.195-1.453-2.13-3.166-2.13l-1.402.416-.571.155c-.727.623-.623 1.143.208 1.143l.778-.208.208-.052c.311.052.779.883.986 1.766.208.883.208 3.323-.571 3.48-.726.155-2.907-.78-4.723.155l-2.025-1.09c-.259-.156-1.246.155-1.35.415l-.155.311c.311.52 0 1.195-.675 1.558-.675.364-4.153-.882-4.257-1.61-.104-.727 2.855-1.246 2.648-.363l-.104.83c0 .053.467.26.675.26.259 0 .674-.103.726-.207.104-.675.104-1.35.208-2.077.052-.52-.26-1.195.882-1.299h.312c.311-.467.104-1.038-.415-1.194l-.468-.156-.363-.104c-.571-.104-.779-1.298-.415-2.648l1.92-.26h.156c.052-.467-.207-.883-.571-.883l-.207.156-1.765.987c-.935-1.143-1.558-1.818-1.454-1.506.156.363-.623 1.35-2.024 1.558-1.402.156-2.025 3.375-1.61 3.427.468.052 1.454.571 1.246 1.039-.207.467-1.868 3.375-.259 4.206 1.609.831 5.398 3.376 4.724 3.635-.675.312-2.959.676-3.011-.103l-.104-.52c-.104-.415-.208-1.09-.519-1.142-.831-.26-1.09.208-1.298.883-.259.83-.675 0-1.09-.104-1.194-.312-1.609 0-1.453.934.051.208-.104.572.051.676l.883.571c.83.779 1.246 2.233.986 3.271l-.156.935c0 .156.571.468.883.468.882 0 .519-.26.415-.779l-.156-.572c.468-.83 1.402-1.454 2.129-1.454.675 0 2.699-.207 2.543-.415-.155-.208-.259-.831.052-1.039l.104.052.934.468c1.091.623 2.44.727 3.011.311l.416-.415.155-.156c-.052-.312-.415-.519-.726-.467l-.26-.052-.519-.104c-1.038-.312-1.038-.727.052-.831l.519-.104.727-.156c.778-.259 2.284 0 3.27.571l.311 1.039c.416 1.35 1.142 2.649 1.662 3.999l.467 1.194c.934-.519 1.92-.779 2.128-.571.208.208.571.883.052.987-.519.104-1.921.623-1.609.986.259.364 1.194 1.091 1.349.779.156-.259.831-.883.987-.675.207.208.467 1.402-.208 1.714l-.571.467c-.519.468-.727 1.247-1.298 1.61-.207.156-1.142-.571-1.713-.519l-1.038.104c-1.142.311-1.557 0-.986-.727s-.156-2.908-1.817-2.597l-.363 1.558c-.052.26-.935.416-1.454.571l-.26.052c-.363-.052-.622.104-.622.26 0 .208-.727.363-1.558-.052l-.259-.935c-.104-.467-1.454-.675-1.558-1.142-.311-1.143-1.401-.779-2.024-.675l-1.142.207c-1.298.52-2.18 1.143-2.025 1.402.156.26-.311 1.403-1.764 1.61l-1.143-.882-.571-.468c-.519.468-.622 1.195-.207 1.61l.675.052h.415c.519.156.571.415.156.571-.416.208-2.129.571-2.336.26l-.312-.364c-.467-.519-1.194-.882-1.713-.207l-.259.311c.363.727.467 1.35.207 1.402l-.311.104-.363.156c-.364.208-1.194-.156-1.817-.779s-3.426-1.973-4.828-1.662l-1.142.26-.415.104c-.727-.675-1.609-.727-1.921-.104-.311.623-2.024 1.194-3.218.156l-.364-1.506-.259-1.091c-1.246-1.142-2.492-1.714-2.751-1.298-.312.415-1.454 1.246-2.025.987-.571-.26-1.713-.156-1.505.727.259.934 3.53 1.817 3.997 2.544.519.675-.26 2.493-.519 1.87-.26-.623-1.61-2.285-2.44-2.337-.779-.052-3.478.208-4.309-.208l1.246-.831.415-.259c-.207-1.091-1.142-1.766-2.128-1.506-.986.259-2.44 2.077-2.595 2.233a9.087 9.087 0 0 0-.987 1.35c-.207.467-1.038 1.506-1.816.883-.779-.624-.104-2.909-1.091-2.441-.986.467-3.218 1.921-3.789 1.662-.571-.26-2.18-.416-2.544 0-.363.467-.83 2.181-.986 2.648-.156.468-1.765.468-2.336-.571-.571-.987-4.204-1.87-4.724-.987l-.519.727c-.207.312-.83.727-1.09.675-1.09-.259-.052-.571.052-.882.312-1.455.779-2.961-1.09-4.051-.104-.052 0-.468.104-.727.052-.208.415-.468.311-.571-.467-.52-.986-1.403-1.505-1.403-2.388 0 .415-1.038-.519-1.506l-.727-.363c-.83-.156-.882-.883-.104-1.61l.623.052c1.454.156 2.907.675 4.309 1.142.623.208 1.09.676 1.713.779l1.453.26v-1.973s.779.207 1.817.259l.675.364.882.467c.883.883 1.973.675 2.492-.415l.675-.208c.934-.312 1.557-.467 1.298-1.298l-.416-1.662c1.194-1.558 1.454-2.856.675-2.96l-.311.208c-1.194.882-2.129.103-3.115-.208-.363-.104-.311-.935-.675-1.09-.311-.156-.778.934-1.557.155-.156-.208-1.246-.156-1.402 0l-.986 1.402c-.986 1.61-.208 2.857 1.765 2.805l.779-1.818c.259-.623 1.505-.779 1.505-.312v1.818c1.609-.104 2.699.104 2.492.519-.208.416-1.765 1.766-2.803 1.766-1.039 0-4.413.052-5.139-.26-.727-.311-2.648-1.817-2.181-2.285l.416-.311c.882-.675.571-1.299-.26-1.662-1.298-.571-1.921-1.195-1.973-2.493v-.883c-.83-1.038-1.297-2.077-1.038-2.388l.364-.052 1.453-.156c-.104-.883 0-2.181.26-2.908v-.675c0-.26.311-.675.571-.78.311-.051.882.105 1.09.312.675.675 1.401 1.402 1.713 2.233l.311.727c.26.883.467 1.143.519.572.052-.572.727-1.87 1.35-1.403l.675.208.779.208c.882.104 1.349.467.986.779-.364.311-1.869.415-2.077.779-.207.363-.259 1.713.416 1.87l.415.31c.831.624 1.35.52 2.128-.051l.883-.623c1.246-.572 2.232-.675 2.232-.156 0 .467 1.246 1.766 2.751 1.61 1.505-.156 4.828 1.558 4.88 1.09l.259-.207.312-.26c.519-.156 1.194.052 1.453.415l-.104.26c-.259.623-.571 1.246-1.142 1.714l-.882.727c.986 1.714 1.142 2.804.363 2.441-.778-.364-1.817-2.493-2.803-1.195l-.727-.675c-.311-.311-.363-.935-.675-1.038-.986-.208-.934.415-1.142.986l-.311.831c-.727.831-1.194 1.558-1.038 1.61.104.052.675 0 .934-.312.26-.259 1.609-.363 2.544.312l.778-.052 2.7-.208c.467 1.714 1.09 2.96 1.401 2.753.312-.208-.104-2.908.104-3.584.156-.623 1.817-1.765 1.609-1.298-.207.468-.207 1.87.416 2.129.622.26 1.713-1.973 2.076-2.44.363-.468 1.557-1.403 1.921-1.04h.207c.208 0 .675-.363.623-.466l-.259-.572c-.156-.83 0-1.298.311-1.09l.363.156c.571.26 1.454.83 1.714.675 1.038-.572.103-1.039-.208-1.662l-.364-.675c.052-.935-.207-1.766-.622-1.766-.416-.052-.364-.935.934-1.973l-2.959-.26c-.519-.052-.83-.935-1.401-1.298-.364-.208-1.246-.052-.52-.675.26-.26.831-.468 1.194-.416l.883.052c1.142.208 1.869.156 1.609-.156-.208-.311-.779-2.18-.882-1.973l.311.675c.156.416 1.298.52 1.817.883l1.453 1.09c.571 1.662 1.039 3.116 1.09 3.324.052.208.727-.26 1.194-1.921l.416-1.247c.155-.52.623-.934.83-1.454l.104-.26c-.208-.363-.882-.57-1.402-.415l-.363.26-.259.156c0 .311-.623 0-1.35-.728-.727-.727-4.361-.986-5.191-1.402l-.831-1.038-.882-1.09c1.505-1.351 2.232-2.182 1.505-1.922-.675.311-2.232 1.194-2.336 1.09l-.104-.052c-.726-.415-1.142-1.61-2.387-.986-.831.415-.312 2.337.986 2.544 2.128.312.363.987.519 1.402l.311.727c.675.727.364 1.195-.726 1.091-1.09-.104-3.478 1.039-3.011 1.506.415.467 1.402 3.791 1.817 3.895.415.052 1.453.467 1.142.675l-.26.052a5.422 5.422 0 0 1-1.297 0l-1.194-.156c-1.298-.26-2.648-.156-3.011.26-.364.415-1.973 1.246-2.388.52l-.26-.416-.311-.468c-.415-.571-1.194-1.09-1.713-1.142-.571-.052-1.869-.78-1.454-1.558l1.454.156c1.298.155 1.609-.831 2.44-1.195l.363-.156c.571.104 1.09.52 1.09.935l-.207.26c-.416.467-1.039.83-1.402 1.298-.156.208.104.727.311.883l.26.156c.467-.104 1.505-.831 2.284-1.558.779-.727.571-3.48.571-3.74 0-.259.311-1.038.779-1.038.415 0 1.401-.52 1.142-1.038l.155-.26c.26-.416.779-.831-.207-.78-.779 0-1.661.26-2.18.728l-.468.415c-.155.78-1.349.364-2.647-.986l-2.284.363c-.156-.52-.571-1.09-.986-1.298-.416-.208-.156-1.662.83-2.337l1.142.987c.467.415.831.883 1.298 1.298l.311.26c.416.26 1.039.155 1.35-.208v-.364c.052-1.298.623-1.402 1.817-.675l1.298.78c.207-1.04-1.402-2.39-3.53-3.013-2.128-.623-8.461-.675-7.942-.52.519.209 1.453.884.519.884-.987 0-2.959.882-2.752 1.921l1.194.208c.779.156 1.765-.26 1.713.935-.051 1.09-.622 1.713-1.92 1.87l-.675.051c-1.038-.052-1.609-.363-1.246-.727.363-.363.727-1.246.156-1.298-.571-.052-2.544 1.142-3.219.883-.622-.26-2.335-.572-2.387-.052-.052.519-1.558-.26-1.298-.935l.208-.571.155-1.454c1.142.623 2.077.779 2.129.415.051-.364-.831-1.402-1.973-1.454-1.142-.052-2.751 3.324-2.959 3.012-.156-.312-1.038-.675-1.661-.364-.623.364 0 1.974-.571 2.337-.571.364-.831 1.818-1.142 1.662-.312-.104-.986-1.142-.779-1.921l-1.038.104c-.934.103-1.713.311-2.803 0l-1.713-.416c.208-.987-.052-1.506-.571-1.142-.519.363-2.025 1.35-2.025.727 0-.623-1.453-2.026-3.166-1.87l1.35 1.766.311.363c-.83 1.143-1.869 1.454-2.388.675l-.415-.57c-.727-1.04-1.142-2.493-2.232-3.013-.779-.415-.986-.779-1.402-1.298-1.038-1.194-4.101-1.454-5.191-.364-.83.883-1.505 1.61-3.011 1.714l-.571.052c-.571.675-1.401.779-1.868.26l-.416-.416c-.311-.311-.622-.727-.986-.779-.571-.052-1.609-.311-1.557.624 0 .26.623.519.986.727l.208.155c.415.208-.364.468-1.661.572l-1.039.155c-.363.052-.726.883-1.038.052-.104-.208.467-.83.779-.883 1.09-.155 1.142-.727.675-1.194-.364-.364-.831-1.454-1.817-.364-.052.052-.312.156-.363.104l-.364-.207c-.415-.26-.519-.78-.259-1.143h.259c.831-.104 1.713-.052 2.596-.052.726 0 1.765.26 2.076-.052.727-.675 2.544-.155 2.388-1.506-.104-.83-.831-.727-1.557-.363-.312.156-.779.26-1.039.467-1.297.935-2.907.727-4.412.675l-1.35-.052c-1.297.416-2.491.675-2.647.572-.156-.104-.882-.156-.934.363-.052.52-.468 1.195-.831.883-.363-.26-1.35-1.143-1.35-1.143s-.051-.57-.882-.57l-.26.207c-.882.675-1.816.727-2.647.208-.882-.572-1.402-.52-2.128.104l-1.402 1.246c-1.194-.935-3.114-2.649-4.256-3.843l-.364 2.545c0 .103-1.453.052-2.232 0h-.259c-.623.675-1.246.882-1.402.415-.156-.467-1.038-1.506-1.765-1.506-.727 0-2.647-.312-2.751.363-.104.676-3.167 1.04-3.997.624-.831-.468-2.648-2.337-2.752-2.078-.103.26-.986.935-1.557.624l-.571-.104c-.986-.156-2.284-.831-2.44.83v.104c-.778.104-1.453-.26-1.505-.727l.208-.311.415-.571c.675-.52.208-1.403-.986-1.974l-.467.623c-1.039 1.35-2.752.831-3.998.987l-1.401.208c-.208.727-.623 1.09-.935.779l-.363-.156c-.727-.312 0-1.558-1.35-1.402l-1.661.156c.26.986.208 1.038-.103 0l-1.454.519-.882.312c-.987.57-2.284.519-2.907-.052l-.727-.572-1.038-.779c-.779 1.247-1.765 1.766-2.18 1.091l-.416-.416c-.882-.882-1.557-1.246-3.114-.363-1.246.675-3.323-.415-4.828.623-.104.052-.415-.104-.571-.156-2.024-.934-2.024-.934-2.959-.415-1.921 1.039-2.699 1.142-4.412.052-.986-.675-1.765-.883-3.011-.416-.934.364-2.544.675-3.115.312l-2.128-1.454c-1.349 1.402-2.803 2.181-3.218 1.714-.416-.416-1.713-1.403-1.921-1.143-.208.26-2.18.831-4.049.78l-1.609.259-.571.104c-.519.363-1.09-.364-1.298-1.662l-2.024 1.142-1.506.831c-1.246-.934-2.855-1.61-3.581-1.454l-.468.312c-.778.467-1.349 1.298-2.439.311-.208-.207-.779-.311-1.142-.207-1.039.155-2.129.727-3.115.623-.831-.104-1.505-.987-2.336-1.299-.519-.155-1.298.208-1.921.364-1.401.312-2.803.727-4.256.987-.571.104-1.558.363-1.765-.468-.312-1.402-.935-.986-1.973-.415-.778.467-4.516.52-6.229.208l-.934-.156c-1.142-.052-2.077.363-2.077.935 0 .57-.467 2.18-.986 1.921-.519-.26-1.35-1.09-.727-1.298.623-.26-1.09-1.454-1.765-.78l-1.713-.415c-1.609-.415-3.841-.727-5.71.416-.571.363-2.18.26-2.751-.104l-1.142-.779c-.727.571-1.921.83-2.647.52l-1.091.259-2.335.52c-2.856-.52-5.14-.26-5.14.57l-.103.676c-.052.26-.468.57-.727.623-.312 0-.831-.208-.934-.416-.26-.519-.156-1.142-.468-1.61-.415-.519-.934-1.09-2.076-.519-.779.364-1.869.571-2.751.416l-.935-.156c.052-.883-.363-1.922-.882-2.389l.882-.467s-.155-.364-.311-.468l-.571-.571c-.675-.52-1.142-.416-1.09.26.052.675-1.142 2.44-.935 2.96.208.519 0 2.025-.519 1.61l-.363-.104c-.519-.104-1.298.104-1.661-.104-.467-.26-.571-1.143-.986-1.195-.571-.103-1.246.572-1.817.52l-1.817-.104c-1.402 1.194-3.011 1.506-3.582.623l-.467-.467c-.675-.727-1.506-1.247-2.388-.208l-.623.727c-.83-.26-1.609-.26-1.713 0-.104.208-.571.727-.727.415-.155-.311-1.765-1.142-3.01-1.038-1.246.104-4.828.26-4.88.675-.052.363-.571 1.298-.934 1.194v-.052c.052-.727-.26-1.246-1.142-.986l-.987.26c-.986.519-2.595.155-3.581-.831l-.987-.883-.104-.104c-.363.104-.622.363-.519.675l.052.26.104.363c-.208.52-1.038.156-1.817-.83l-.778-.832c-.156-.208-.831-.311-1.09-.156-.26.104-.468.624-.364.883l.208.468c.571.675-.104 1.246-1.558 1.246l-1.09.156c-.934.104-1.713.727-2.803.052-.623-.364-1.609-.052-2.18.623-.779.883-1.869 1.142-2.907.415-1.142-.779-3.582 0-3.634-2.18v-.936c-.623-1.194-2.491-2.492-4.152-2.856l-.571 2.078c-.052.155-1.662-.26-2.388-.52-.935-.363-1.817-.363-2.648.364-.311.26-.415.986-1.557.52-1.298-.52-1.869-.105-1.61.83.157.52.676.935.831 1.454.312 1.039-.57 2.233-1.816 2.233-2.388 0-4.569.52-6.645 1.402l-.207.052c-.416-.26-.624-.571-.52-.675.156-.156-.467-.935-2.024-1.09l-.364.363c-1.297 1.298-2.803-.104-4.256.52-1.194.57-3.322.519-4.62 0-2.128-.78-4.049-.053-5.762.259-1.402.26-2.44.883-3.686-.104-.103-.052-1.09.312-1.142.571-.311 1.09-.882.935-1.765.468-.207-.104-.778-.104-.882 0-.727.986-1.61.986-2.596.311-.207-.156-1.142.624-1.92.416l-1.713-.416c-1.765.26-2.336.26-1.246 0l-.208-1.246-.26-1.039c-.882.156-.986 0-.259-.311.727-.312 2.907-1.454 2.959-2.13l.156-.519c.363-1.194-.104-1.817-1.454-1.61-.83.104-1.868.727-2.388.52l-4.204-1.87c-3.893 1.714-6.8 3.48-6.489 3.947l.26.208c.986.83 1.868 1.194 2.128-.468l.052-.156c.882-.155 1.297.208.882.78-.363.57-1.817 2.388-.778 3.583l.986 1.038.156.156c.57-.104.934-.363.83-.52-.104-.155.052-.882.727-.882.623 0 1.713 1.09 1.038 2.44l-2.647-.31c-.935-.105-2.232-.209-2.803.207l-1.35.987c-.312-.883-.312-1.714 0-1.818.311-.104 1.038-1.143.779-1.973l-.572-.52-.31-.26c-1.143.104-2.025-.155-1.974-.519l-.363-.519c-.415-.52 2.025-.987.104-1.298-1.402-.208-.727.934-.934 1.506l-.052.208c-.208.207-.83.051-1.454-.312-.623-.364.104-2.13-.882-2.337l-.26.208-.675.571c-.519.83-1.35 1.35-1.765 1.194-.467-.207-1.609-.779-1.453-.934.156-.156.156-.676-.312-.935l-.207.104-.83.415c-.727.52-1.766.468-2.233-.156-.467-.623-2.647-1.661-2.543-2.129l.311-.207.571-.416c1.038-.415 1.453-1.298.986-1.921l-1.505.519c-1.765.623-3.893 2.077-6.125.52-.104-.053-.468.051-.571.207l-1.35 1.766c-1.505-.831-2.648-1.922-2.492-2.39.104-.467-.934-1.401-2.647-1.194l-1.35.416-.155.052c.051.519-.571 1.973-1.454 3.271l-1.817.156-.779.052c-1.09.26-1.868 0-1.764-.52.103-.519-.208-1.973-.935-1.973l-.83-.051c-1.402-.104-.623 1.142-1.35 1.402l-.675.207c-.83.156-.623-1.35.415-3.427l2.336-.987c.571-.26 1.558-.208 1.713-.52.208-.415 0-1.142-.363-1.557-.467-.571-.52-.935 0-1.506l.26-.26c0-.52-.364-.883-.727-.83-.364.051-1.506-.78-1.61-1.922l2.908-.364 1.505-.207c.26-.78.467-.623.52.26 0 .882-.883 3.53-.053 4.102l.571-.104 1.817-.364c1.505-.155 2.388-1.038 2.024-1.973-.415-.935 2.855-1.454 2.492-1.817-.415-.364-.882-1.403-.052-1.403s2.96-.57 2.388-1.298l.052-.415.052-.416c.519-.467 1.246-.571 1.557-.363.312.26 1.61.675 2.232.363.623-.26 2.544-.415 2.855.208.312.623.675 2.285 1.61 2.077.934-.156 5.398.312 5.606-.83l-.52-.572c-1.037-1.142-.051-.883.676-1.09.207-.052.415-.624.363-.883-.104-.312-.52-.52-.779-.78l-1.297-1.401c.986-1.04 1.92-1.558 2.024-1.143.104.415 1.038 1.454 1.817 1.09l.519-.363c.727-.52.52-1.039-.156-1.454l-1.453-.623c-1.765-.208-3.219-.104-3.322.26-.052.363-.312 1.298-.416 1.298-.103 0-.363-.26-.415-.623-.052-.312-.986-1.454-1.869-1.454-.882 0-2.44-.468-1.246-.987 1.194-.52 3.79-2.753 3.374-3.168-.415-.416-1.868-1.143-2.335-.779l-.26-.052c-2.336-.312-3.166 1.194-3.426 2.337-.311 1.558-1.453 2.389-2.544 3.375l-.674.624c-.623.727-1.246 1.194-1.35.934-.104-.207-.83-.467-1.505-.207-.623.26-2.752.675-2.804.052-.103-.623-.726-2.078-1.245-2.078-.52 0-2.18.26-2.232.572-.104.415-.572 1.298-.883 1.246v-.052l.156-1.662c-1.454.208-2.7.156-2.7-.104s-.623-1.246-1.401-1.246c-.779 0-2.907.156-3.01.364l-.053.155c-.156.52.415 1.247-.727 1.35-1.09.104-.986-.57-.986-1.142v-.312c-.26-.675-.675-.727-.986-.103C2.595 54.58.986 55.67 0 55.099l.52-.883c.466-.83 1.453-1.61 2.439-2.129.882-.467 2.024-.467 3.01-.779l.156-.052c-.155-.779.364-1.35 1.09-1.35h1.246c.571 0 1.298-.312 1.61-.727.311-.364 1.038-.883.882-.26-.104.623 2.024.935 2.232.883v-.052c0-1.09.208-2.285-.208-3.272-.415-1.038-.726-1.765.104-2.18l.416-.208c.726.104 1.194.57 1.09 1.038-.052.52.104 1.87.623 2.026l.155-.104c1.454-.831 1.35-.831 1.765-3.012.104-.468.986-.883 1.661-1.143 1.039-.415 2.336-.623 3.323-1.09 1.297-.727 1.142-1.195-.312-2.493-.156-.156-.26-.52-.104-.675 1.038-1.09 2.232-.987 3.011.208l.727 1.038c-.883 2.181-1.35 4.31-1.038 4.778l.311-1.35c.052-.156.311-.26.52-.312 1.193-.363 1.193-.363.778-.779l-.623-.727c-.779-.883-1.454-1.194-1.506-.623-.051.52-.519 1.921-.986 1.973-.467.052-1.557.468-1.557.831 0 .364 4.256-.415 6.385-1.194l.57.26.676.26c.83.518 1.297-.52.986-2.338l1.142-1.194c.883-.935 2.076-1.09 3.218-.312l.364.26c.207.467 0 1.09-.52 1.35h-.466l-2.077.052c.52 1.039 2.388 1.246 4.153.416l.156-.104 1.557-.727c-.156-1.35-.208-2.337-.052-2.233.156.103.83.155 1.142-.156l-.052-.156-.779-1.298c-.934-1.454-.83-2.7.312-2.753l1.038-.104 1.454-.155c.311-1.09.83-2.233 1.142-2.649.363-.363 1.713-1.142 2.336-.883.622.312 1.972 1.402 1.557 1.662l-.104.312c-.052.26.156.675.363.934.104.104.727.156.779.104.883-1.35 2.284.831 3.478-.415 1.038-1.09 1.973-2.545 4.36-2.44.935.051.675-1.143.416-1.715l-.364-.882c-2.284-.727-3.53-1.35-2.75-1.455l.259-.26c1.868-1.869 1.868-1.817 4.1-2.752.727-.311 1.246-.882 1.921 0 .104.104.623.104.83 0 .883-.415.26-2.44 2.13-1.661 1.66.727 1.868-.52 2.75-.78.675-.207 1.61-.259 2.284-.051l.987.26c1.038.57 2.232.778 2.647.467.415-.312 2.128-.883 2.647-.468.52.416 1.713 2.026.883 2.13-.83.103-2.492 1.142-1.713 2.025.778.883 3.685 2.389 4.828 1.454l-1.039-1.298c-.415-.52-.675-1.61-.311-1.922l1.194-.986c-.675-.935-.26-1.403.934-1.091 1.194.364 4.205.467 4.101-.415-.156-.831.467-1.35 1.401-.987v.311c.052 1.195.987.935 1.766.935 1.193 0 .674.78.934 1.247l.311.519c.623.467.883 1.246.571 1.714-.311.467-.363 2.129.883 2.025l.83-.26c.26-.052.52-.779.364-.934l-1.35-1.558c1.505-.935 2.336-1.922 1.869-2.182-.467-.26-.52-1.038 1.194-.986l1.09-.52 1.038-.467c.727-1.246 1.557-1.766 1.869-1.194l.882-.52c.364-.207.987-.26 1.454-.207.623.103 1.246.415 1.92.467.26.052.675-.26.935-.467l.156-.156c0-.416.986-.883 2.18-.987 1.194-.104 4.412.831 4.464.416.104-.416.882-1.04 1.609-.364.675.675 3.374.416 3.219-.052-.156-.467-.208-1.662.207-1.714l.104.104c.986.831 2.336 1.454 1.921 2.908 0 .052.675.364 1.038.364.259-.052.675-.623.623-.675l-1.713-1.766c1.713-.935 3.166-.675 3.27.571l1.921-1.246c.311-.208.882-.467 1.09-.364l1.557.831c1.142-.83 2.803-1.558 3.634-1.661l.623.415c.675.467 1.661.935 1.713 1.506l.259 1.714c1.454-.416 2.336-1.247 1.921-1.818l-.208-.52c-.415-1.09.156-1.453 1.765-1.401.987.052 2.752-.52 2.855-.364.935 1.662 2.44-.883 3.53.468l.571.727c1.558.467 2.959.57 3.063.155.104-.415.727-1.558.882-1.038.156.52 1.194 1.09 2.077.415.882-.675 4.101-.467 3.166-.311l-.311.207-.26.156c-.052.416.104.78.416.831l.259-.052c.675-.104 1.35-.363 1.973-.311 2.18.207 3.737-.156 4.568-2.078.311-.727 1.349-1.246 2.388-.26.051.053.571-.207.882-.31l1.661-.676c.104 1.039 1.35.83 2.699-.467l1.973 1.661c.26.208 1.298-.104 1.973-.207.934-.156 2.18-.675 2.751-.364 1.298.675 1.817.208 2.647-.467.727-.623 1.506-.623 1.661.467l.052.208c.208.208 1.506.26 2.907.156l1.298-.104c1.35-.104 2.751-.208 4.049-.52.467-.103.623-1.142 1.038-1.194.519-.052 1.142.467 1.817.623l.208.052c.363-.26.519-.571.415-.675-.104-.104-.208-.623.259-.623.52 0 1.765.156 1.558.311-.208.156-.208.831.623.883.778.052 2.855-.467 2.336-1.194v-.52c0-.467.467-1.038.882-1.454.208-.207.831-.363 1.09-.26.26.105.415.52.467.832 0 .156-.363.363-.415.571l-.208.415c-.051.468.364.78.883.78l.467-.104c.986-.156 2.232.363 2.803-.831 0 0 .623.103.883.207.726.364 1.297.416 1.557-.363.104-.364-.156-.935.831-.52.674.312 1.764.156 2.284.572 1.349.986 1.09.052 1.297-.52.052-.207.779-.363 1.09-.26.26.053.571.572.52.78l-.26.83c-.104.987.26 1.195.831.52l.622-.571c.416-.468.935.986 1.402 0l.156-.364c-.467-.623-.26-1.246.415-1.298.727-.052 2.232 1.61 2.751 2.13.519.466-.052 1.713 0 1.245.052-.467.935-1.558 1.817-1.454l.779-.052c.778-.052 1.713-.155 2.284-.519.882-.571 1.194-.883 1.349.364.104.623 1.091.57 1.662 0l.259-.26c.208-.312.467-.312.519.052l.208.26c.052.051.571-.104.882-.156.416-.052.831-.312 1.142-.208l.364.052c.311.312.778-.052 1.038-.83.259-.78 5.035-1.3 4.879-.312l1.713-.572.468-.156c.674-.415 1.297-.311 1.349.26.052.571 1.246 2.13 2.492 2.13 1.194 0 4.464.31 4.516.674.052.364 1.09.78 2.232.312l.467-1.558.052-.208c.104-.26 1.039.623 2.077 1.974l1.713-1.818c.104-.104.571-.104.83-.052l1.765.364c2.129.467 3.893.207 3.893-.572l.052-.778c0-.312.104-.935.208-.935l1.454-.156c0-.987-.623-2.597-1.454-3.687l-1.713.208h-.623c-.623-.727-.363-1.403.675-1.455l.415.364 1.454 1.194c1.972-.052 3.633-.207 3.737-.467.104-.208 1.142-.83 2.025-.883.882-.052 1.661 1.195.623 1.09-1.039-.155-2.181 2.13-1.869 2.493.311.364-.104 1.558-1.713 1.87l-1.35.467c-.778.26-1.298.831-.156 1.454l.208.104c0 .416.623.727 1.402.727.778 0 3.062-.26 2.543-.57-.519-.313-1.401-1.195-1.038-1.403.363-.208 1.402-.156 1.609.467.208.623 2.077 1.922 3.738 1.402 1.609-.519 5.139-2.18 4.827-1.713-.311.467-.052 2.18 1.298 2.544l.363-1.765c.208-1.09 1.921-1.558 2.44-2.597.052-.104.519-.156.831-.104l1.349.156c1.506.208 3.011 1.35 3.375 2.545l2.284-.883c1.557-.571 2.128.26 1.713 1.973l-.104.416c.052.675 1.453.571 3.114-.26l1.661.571c.312.104 1.246-.311 1.246-.467.052-1.506 1.869-1.039 2.181-.831 1.557 1.143 2.024 0 2.18-.727l.155-.987c.831-.623 1.143-.623.623 0-.467.623 1.454 2.181 2.284 1.818.831-.364 3.894.623 4.776.83.883.208 3.53-1.298 3.997-2.388l.052-.935c0-.467-.882-.986-1.298-1.506-.259-.311-.207-.208.935-.623l.882-.312c.883-.675 1.194-1.402.675-1.61-.519-.207-.415-2.077-.26-1.817.104.26 1.246.467 2.336-.052l1.091-.208 1.453-.207c-.208.882-.467 1.921-.623 2.285l-.311.155-1.506.831c.675 1.039.519 2.649-.415 3.584l.104.103 1.869 1.558c-1.506.052-1.973.468-1.039.883.935.416 4.153.571 4.88-.623l1.35.727c1.453.779 2.439.935 3.685-.052.156-.104.831.104 1.09.26l1.817 1.09c.519-.986.519-2.18 0-2.544-.467-.416-1.921-1.09-2.232-.78l-.623.26-.363.156c-.623-.156-1.039-.675-.883-1.194h.052c1.661.156 1.246-1.299 2.077-1.766l.051-.052c-.103-.363-.519-.52-.83-.415-.312.155-1.454.311-1.765.104-.312-.208-1.298-.676-1.402-.416-.155.26-.986 1.195-.986.571 0-.623.623-2.18 1.35-2.648.726-.468 3.27.675 3.997.415.727-.26 3.633.468 4.827 2.233l2.129.935c.986.416 1.246.935-.26 1.662l-1.35.675c-1.193 1.558-1.245 2.856-.103 2.856l.519-.363c.934-.623 1.972-.572 2.803-.364 1.142.312 1.972 1.039 3.27 0 .416-.363 1.973.416 2.803.208l.987-.26c.882-.779 1.609-1.142 1.609-.779 0 .312 1.972.935 4.412.52l2.284.155c.052 0 .26-.363.208-.57 0-.209-.156-.52-.312-.572l-.674-.104c-1.194-.104-1.194-.727.103-1.454l.468.156 1.609.571c1.557-.415 3.062-.883 3.27-1.039.208-.155.104-.882-1.038-.934l-1.09-.208c-.26-.052-.623-.467-.623-.675 0-.208.467-.675.623-.675l1.557.26c.883-.935 1.505-1.247 1.35-.676-.104.52 2.18 1.402 2.907 1.766l-1.038.987c-1.039.986-1.454 2.492-2.025 3.79l-.104.208c.26.364 1.038.52 1.713.416v-.156c.156-1.506.779-.312 1.35-.312l.986.052c1.09-.363 2.284-.675 2.596-.675.311 0 2.076.052 3.166.156l.519.312.935.519c.674 1.039 1.349 1.506 1.557.935.208-.52 1.972-.416 2.024-.312.052.104.26.312.364.208.104-.104.986-.468 1.713-.623.727-.104 2.751-.26 2.907 0 .156.26.415-.572.156-2.493l-.52-1.662-.103-.311c-.883-.104-1.61-.052-1.662.207-.051.26-.311.883-.467.883-.155 0-.882-1.298-1.297-2.856l-.104-1.454-.052-.675c.727-1.247 1.661-.831 2.128.883l.727.26 1.401.518c.208.987.779 1.247 1.246.572l.623-.468.26-.207c.623.052 1.609.57 2.128 1.194l.779.364.726.363c.727.675.364 1.298-.882 1.298l-.156.312c-.623 1.142-2.647-.26-3.063 1.35l-.207.883c.259.779.727 1.662 1.038 1.921l.156-.052c.519-.155.986-.675 1.401-.623 1.039.104 2.129.727 3.115.572 1.142-.156 2.076-1.039 3.218-1.299l1.039-.26c1.193.104 2.076-.155 1.972-.519-.156-.363-1.401-1.35-1.609-2.129h2.907c.986.78 1.921 1.818 1.972 2.337l-.207.156c-1.35.883-.156 1.298.415 1.714l.208.155c.519-.155.882-.415.778-.57-.103-.157.519-.624 1.713-.313 1.194.312 4.517.572 4.724.208.208-.363.104-1.506-.83-1.506l-.675.104-.623.104c-.883.312-.675-.675.363-2.13l1.454.884 1.453.883c.779-.676 1.298-.624 1.142 0-.155.675 2.025 2.596 2.492 2.284l.363-.311.052-.052c-.052-.156.519.104 1.194.52.675.467 2.855.934 3.011.519.156-.416 1.09-1.662 1.817-2.026.726-.363 2.803-.675 3.114.208.312.935 3.634 1.194 3.842.571.207-.623 1.505-2.025 2.336-1.713.882.311 1.92 1.973 3.841 1.765l-.571-.623-.883-.987c.675-.363 1.61.052 2.025.883v.78c.052.986.727 1.817 1.505 1.817 1.194 0 3.063.986 3.686-.572.467-1.09 1.557-.882 1.972-.675l1.246.623c.623-.675 2.284-1.505 3.738-1.817l-.623-1.454.259-.156.727.52c.727-.312 1.09-1.091.831-1.766l-.312-.624-.052-.103c-.155-.104-1.142-.156-2.18-.208-1.09 0-3.53 1.817-3.685 1.506-.208-.312-.52-1.714 0-1.973.467-.312 1.713-1.247 1.557-1.403-.208-.155-.312-.675 0-.934l.156.052 1.868.519c2.284.311 3.842.363 3.374.052v-.623c.364-.364 1.194-.78 1.921-.831.675-.104 2.232-1.299 2.284-.987.052.364 0 1.766-.052 2.597l1.506.103c.519.052 1.038.78 1.505 1.195.415.363.363.311-.727.83l-.83.26c-.935.831-1.869 1.091-2.025.624-.155-.52-.882-1.714-1.297-1.662-.416.052-1.662.623-1.039 1.246.623.571 1.661 2.233.831 2.181l-.519.104c-.312.052-.623.364-.779.623-.104.156.052.52.208.572l1.142.57c1.298.572 2.803-.051 3.426-1.453l1.765 1.713.155.156c.623-.104 1.091.156 1.091.52 0 .363 1.09 1.038 2.439.519 1.194-.987 2.752-.26 4.049-.467l1.194-.208c1.298-.26 2.959-.623 3.79-.78l.778.624.468.364c1.09-.26 1.764-.52 1.453-.572-.26-.104-1.194-.675-.415-.727.83-.052 2.595.104 2.388.468-.208.311.363.727 1.816.103l1.142 1.091c.104.104.675.052.883-.104.467-.26.779-.727 1.246-.935l2.284-.934c-.519-1.195-.208-1.818.778-1.454l.468.415c.519.467.674 1.298 1.297 1.61l.468.26c.986-.156 1.868-.208 1.92-.052.052.155.675.623 1.09.467.416-.156 1.246-1.194.675-1.87-.571-.623.363-2.752-.259-3.271-.623-.52-1.817-2.39-1.142-2.96l.415.104.882.207c.831.52 2.025.727 2.596.416.623-.312 2.647-.312 2.388 0l-.208.104c-2.076 1.142-2.076 1.142-.156 2.544l.26.208c.675.104 1.194-.364 1.194-1.039 0-.675.415-1.87.882-1.454.467.416 2.18.935 2.544.208.363-.727 2.907.104 3.478 0l.207-.727.208-.727c.779.311 1.505 1.142 1.713 1.87.208.726 1.454 3.22 1.142 2.232l-2.699.364c-1.558-1.194-2.907-1.818-2.959-1.454-.052.363-1.038 1.038-1.921.571l-1.142.78-1.401.934c-1.506-.883-3.063-1.195-3.478-.883-.416.312-.935 1.298-.364 1.714l.519.415c.468.416.831.883 1.298 1.299l.156.103c.363-.052.727-.363.779-.623l-.156-.156c-.571-.727-.415-1.713.571-1.298 1.401.623 1.817.104 2.647-.467.312-.208 1.194-.26 1.402-.104l.986.987c1.402-.156 1.765-.156.779 0-.987.155-1.765 1.61.052 2.077 1.816.467 6.852 1.246 7.111.675l.416-.415c.519-.572 1.194-.987 1.816-1.507l.104-.103c0-.208-.207-.468-.363-.624-.208-.155-.935-.363-1.298-.103-.363.207-2.024-.831-1.713-1.247.312-.363 1.817-1.35 1.817-2.18 0-.78 2.024-1.559 1.661-1.091-.415.415-.519 3.167-.415 3.271h.675c.726 0 .986.52.674 1.195v.57c0 .416.727.52.312 1.3-.467.882 1.194.467 1.713.415.571-.104 1.09-.675 1.557-1.143l.364-.312c.155-.311.622-.363 1.038-.051.415.311 2.18.57 3.322.155l1.09.935c.467.416 1.505.468 2.284.52 1.038.051 2.077-.831 3.219 0 .207.155.83.051 1.193-.052 1.869-.676 2.648-.831 3.53-.416.519.26.623.312 1.298.104 1.765-.675 3.582-1.87 5.658-.364l.208.156c.882-.363 1.609-.415 1.713-.052.052.364 1.35.26 2.647-1.402l2.232-.156c.156 0 .416-.623.312-.883-.104-.207-.623-.311-.986-.415-.623-.156-.779 1.09-1.61.312l-.519-.468c.208-.467.156-1.038-.155-1.298l-.156.052c-.883.26-1.661.675-2.544.987-.623.207-1.349.415-1.972.363l-2.596-.26c-.727 1.143-1.765.624-2.232-1.142l1.713-1.246c.883-.624 1.557-1.454 2.751-.312.312.312 2.596-.571 3.271-1.039.207-.155.467-.207.726-.207 1.298-.104.416 1.765 2.233 1.454l2.076-.364c-.208 1.35.104 2.233.675 1.974.571-.26 2.388-.831 2.595-.416l.156.26c.415.883.571 2.181 1.402 2.596 1.401.78 3.166 1.091 4.827 1.454l1.402.312c.052-.935.675-1.558 1.298-1.402.622.156 1.661-.675 2.024-.52.363.156 1.609.156 2.18.935.571.78 2.44 2.597 2.803 2.337.364-.26 1.713-.83 2.129-.727.415.104 2.336-.571 3.27-1.662l-1.35-1.35-.155-.155c.674-.676 1.661-.883 2.18-.416.519.467 1.505 1.818 1.142 2.077-.416.208-.987.78-.208.675.779-.104 2.648-.57 2.544-.986-.156-.416.986-1.506 2.855-1.506l-.571 1.921c-.052.104.726.52.83.467 1.765-1.038 2.803.312 4.101.728l1.09.363c.364-2.13-.207-3.168-1.297-2.233l3.477.467c1.246.156 1.35.52 1.298 1.299v.311c.26.572.623.623.727.104.104-.52.623-1.61.831-1.298.207.311 1.038.727 1.661.467.623-.26 2.387-.363 2.595.26.26.623 2.232.52 2.128-.104-.155-.623-.778-2.337-.415-2.597.364-.26.623-1.402-.259-1.87-.883-.466-3.686-1.35-3.738-.57-.052.779-.675 2.752-1.35 3.168-.674.415-1.868-1.091-1.505-1.35.363-.26.26-1.143-.779-.884-1.038.312-3.166 1.974-3.737 3.22l-.519-.104-1.454-.363c.156-.987.416-2.181.571-2.597.156-.415-.83-1.662.208-1.662s3.945-.623 4.049-.986c.052-.312.519-1.299.779-1.299l.103.104c1.194 1.09 2.959.52 4.361 1.039l.208.052c.622-.675 1.505-.78 1.92-.312.467.468 2.077 1.402 2.388.831.311-.571 1.609-1.921 2.076-1.61.468.26 2.025.831 2.336.572l.364-.208c.778-.468 1.505-1.09 2.388-1.247.778-.103 1.713.416 2.595.52l2.025.26c1.816-.883 3.529-1.091 3.789-.416l.415.104 1.35.311c1.505.208 2.959.26 3.166.052l.208-.052c1.454-.26 2.959.624 2.388 1.299l-1.038 1.142c.83 1.35 1.349 2.077 1.09 1.61h-.364c-2.128.052-.83-1.402-1.453-1.921-.208-.208-.727-.208-1.142-.208-.052 0-.208.312-.26.467-.103.987-.207 1.09-.674.831l-.623-.415c-.52.207-1.558 1.09-2.388 1.973l-.675.831c-.675.831.26 1.194.779 1.662.674.571 1.297.26 1.765-.26l.467-.52c.467-.674.934-.882 1.038-.466.104.415.934 1.246 1.661.986s3.011-2.077 3.945-2.025l1.09.363 1.402.468c-.623.779-.779 1.558-.312 1.662l.364-.052c.571-.052 2.128.415.83-.935l-.259-.26c.778-1.038 1.505-1.558 1.609-1.09.104.467.882 1.713 1.505 1.765l.416-.155c.882-.364 1.609-.728 2.232.207.052.104.207.26.311.26.987-.104 2.284-.623 2.907-.312l1.09.572c1.194-.156 1.765-.52 1.246-.78-.519-.259-1.505-1.142-.986-1.35l.311.104.987.312c1.142.52 1.972.208 1.92-.727l1.661.311c1.869.364 3.323-.26 4.361-1.506l.207-.26c-.103-.519-.83-.83-1.557-.726v.155l-.156 1.714c-1.505-.415-1.972-1.142-1.038-1.558l.208-.415.259-.623c-.103-1.09.364-1.454.987-.78l.519.105c2.024.467 2.024 1.713 1.713 2.856-.156.571-1.454.934.415 1.142l.675.052c.727.727 1.921 1.143 2.595.883.727-.26 2.284-1.87 1.973-2.545-.312-.623-2.596-.207-2.699-.519-.104-.312.259-1.558 1.09-1.662l.311.208c1.609.987 2.751.571 3.738-.623.623-.78.882-1.974 2.595-1.506.104 0 .208-.104.312-.156l.674-.415c.52.363 1.039.415 1.143.207.103-.26.726-.415 1.142.208l.519.156c.986.26 1.038-.416 1.142-1.039.052-.156.778-.415 1.09-.311 1.038.311 0 .57-.104.882l-.208.624c-.104.675-.778.882-1.453.519-.675-.364-1.661 1.61-1.921 1.194-.259-.415-1.505-.882-2.388-.363-.83.467-2.647 1.921-1.92 2.025l.467.052 2.647.208c-.311 1.298-.467 2.492-.311 2.648.155.156.934.52 1.401.312.519-.156 2.077.052 2.388-.26.312-.311.831-1.35.312-1.454-.519-.104-1.817-.571-1.039-.779h.364c1.298 0 1.972-.26 1.09-1.402l-.156-.156c.052-.311.519-.52 1.09-.467l.104.208c.779 1.402 2.025 2.856-.363 4.102l-.26.104c0 .415.416.935.987 1.039l.415-.104 1.505-.416c.467-1.298 1.869-1.817 3.115-1.142v1.246c0 .052.623.208.778.104l2.492-1.35c2.855.623 5.087 1.35 4.983 1.506-.103.208-.051.675.416.623.415 0 1.505-.26 1.401-.52-.104-.259.26-1.246 1.142-1.298.831-.052 3.167-.207 3.219-.26.052-.051.104-.259-.052-.31l-.052-.105c-.26-.779.311-1.558 1.142-1.506.363.052.675.312 1.038.468 1.142.467 2.025.207 2.959-.52l1.246-1.038c-.987-.571-1.35-1.35-.779-1.714.571-.363 2.128.467 1.817.727-.311.26-.623.883-.467 1.194.155.312.986.831 1.557.727l.156-.155c.727-.78 1.401-1.61 2.18-2.39l.104-.103c.882.364 1.401-.104 1.194-.987-.208-.883-.364-3.323.052-3.323.467 0 1.92.363 1.609.883-.26.519-.104 1.973.207 2.285.364.363.571 1.61.416 1.973-.156.363-.364 1.766.311 1.714.675-.052 2.596.155 2.7.519.051.415.934 1.454 1.661.883l.103-.468c.156-.779.675-1.038 1.402-.779l.363.156c.156.623.675.935 1.091.78.415-.157 1.349-.78 1.038-.884-.312-.104 0-.623 1.401-.83l-1.713-1.247c-.104-.052.208-.727.467-.779.312-.104.883.052 1.091.26.415.415.622.935.934 1.402.415.571.675 1.402 1.246 1.61.571.26 1.505-.156 2.284-.208.311 0 .778 0 .882.104.727 1.194 1.609.623 2.648.26 1.297-.468.778-.935.207-1.506l.312.26c-.104-.105-.052-.78.156-1.61.207-.78 2.335-2.286 2.855-2.13.571.156-.156 1.402.051 1.61.26.208 1.246.623 1.765.52.519-.104 1.713.363 1.558 1.194l.311.208c.934.519 2.077.83 3.219 1.142l.259.052c.415-.208.571-.83.363-1.402h-1.661c.208-.78.831-1.454 1.402-1.454s2.284-.312 2.388-.675c.104-.364.415-1.402.467-1.402.052 0 .311.311.363.675.052.363.987 1.298 1.765.934l.623-.311.519-.26c.831 0 1.09.312.571.727-.519.416-1.609 2.13-1.038 2.649l.519.311.26.156c.467-.052.778-.364.675-.623l-.156-.26c-.364-.571-.467-1.038.571-1.246l1.453-.26c1.713-.415 2.492-1.194 1.661-1.765-.83-.572-2.595-2.545-1.972-2.909.623-.363 2.855-1.35 3.063-.986.207.363.571 1.558.363 1.661-.208.104-.571 1.195.259 1.974l.416.779.311.675c-.052.987.364.727.883-.571l.882-.364.727-.311c1.401.519 2.18 1.194 1.609 1.506-.519.26-.623.882.883.727l1.297-.104.623-.052c.623-.26 2.388-.675 3.945-.935l1.09-.779.104-.052c.156-.156.831.156 1.558.623.674.468 3.01.104 2.699-.363l-.104-.468-.104-.57c.052-.728-.675-1.559-1.557-1.818-.883-.26-1.454-2.39-.986-2.39.467 0 .986.364.311.78l1.142.52c.467.207.935.415 1.454.57l.467.156c.571.156.675.52.259.831l-.052.312-.155.519c.052.727.623 1.194 1.246.987.622-.156 2.076-.52 2.128-.416.052.104-.208.52-.623.78-.467.259-1.09 1.297-.363 1.817l1.297-.935.416-.26c.934.156 1.92-.363 2.18-1.194.259-.831 1.194-3.116 1.453-2.908.26.207.675 1.35.364 2.077l-.571.467c-1.142.987-.208 1.506.571 1.922.882.52 1.972.52 2.595-.26.415-.52.467-1.246.727-1.87.208-.519.83-.519 1.765-.051.311.155.727.311 1.142.311l.986.052c.934-.363 2.44-.208 3.322.364l.519-.416c1.662-1.298 3.063 0 4.517.156l.882.104c.675-.208 2.025-1.039 2.907-1.818l1.35.727.311.156c.519.104 1.038-.156 1.142-.52.104-.363.623-1.557.883-1.142.259.416 2.128.831 3.426-.207l1.505.519c1.246.415 2.855-.52 4.049.571.052.052.571-.052.571-.104 0-1.61 1.661-1.35 2.284-.934 1.609 1.142 2.232.155 2.959-.676l.208-.26c.155-.674.363-.778.467-.31.104.467.882 1.298 1.505 1.09.623-.26 1.817-1.506 2.284-1.143.467.364 2.129.727 2.492-.104l.467-.103c.779-.208 2.076-.312 2.492 0l1.817 1.558c.986-1.299 2.024-2.026 2.335-1.662.312.363 1.35 1.194 1.765 1.038.364-.155 1.246-.727.935-.882-.312-.104-.883-.624-.467-.78.415-.155 1.765-.155 2.128.416l.571.156c1.038.26.779-.675 1.09-1.09l.26-.416c.467-.468 1.505.156 2.336 1.35l1.193-.623 1.246-.675c0 .623.467 1.662.987 2.233.519.571 2.232-1.299 2.751-1.506l.104.104c.571.57 1.972.83 1.142 1.921l-.156.208c-.467.52.208.623 1.609.26l.831-.312c1.142-.416 1.453-1.039.623-1.974l-.26-.311c.104-.416.727-.364 1.298.156.623.467 3.841 1.194 6.073.623l1.661-.364.26-.052c.363.208 1.35.831 2.18 1.35l1.09-.051c.208 0 .623.467.571.675 0 .208-.415.623-.675.623-1.505.104-2.958 0-4.464.675l-1.349.623c-1.039-1.142-2.388-1.87-2.959-1.662-.571.26-2.284 1.506-2.596 2.078l.052.052 1.661.727c-.727.934.104 1.61 1.817 1.454 1.713-.156 6.696.104 7.216.935l-1.402.103-1.765-.311c-1.921.156-4.309.415-5.347.623l-.519.467-.571.52c-.156.883-.259 1.713-.156 1.87.052.155.416.415.623.31.156-.103 1.09-.207 1.35.312.311.52-1.557 1.662-1.661 1.974-.104.311.052 1.454-.727 1.35l-.467-.156-.467-.156c-.519-.26-1.09-.207-1.298.156-.208.364-.363 1.714.208 2.233.519.572 2.284 1.818 2.595 1.454.26-.363 1.713-.623 2.44.26l1.921-.208.934-.104c.727.883.104 1.974-1.35 2.39-1.453.467-3.841 3.219-3.218 3.219.675 0 2.336.415 2.336.935 0 .519-.467 1.817-1.09 1.921-.623.104-2.44.52-2.751.78-.312.259-.52 1.194.051 1.713.571.467 2.596 1.714 2.959 1.454.364-.312 1.506-.26 1.609.675l1.558-.208c.052 0 .415.623.311.883-.104.208-.675.416-.986.416l-.727-.052c-.986-.26-1.609-.104-1.401.363.207.468.519 2.026.571 2.545 0 .52.363 1.973.726 1.973.416 0 1.454-.52 1.194-1.194l-.207-.675-.208-.623c-.208-.78.052-1.454.519-1.61.519-.104 2.128-.312 2.284-.104l-.052.156-.207.519c-.364.52-.675 1.973-.727 3.22l1.453.467 1.35.467c1.505.624 2.388 1.818 1.921 2.545-.467.779-1.973 2.493-2.025 1.766-.052-.727-.675-2.337-1.35-2.13-.674.208-2.284.78-2.076.364.208-.415.104-1.662-.571-2.077-.675-.416-2.647.779-2.024 1.454l.519.623.986 1.194c-1.194.156-1.869.52-1.505.883.363.364 2.959 1.143 2.595 1.454-.363.312.364 1.714.26 2.078-.104.363-.727.727-.831.103-.104-.623-2.232-.051-2.699-.155-.467-.104-1.765-.416-1.765.104 0 .519.311 1.765.675 1.506h.259c.467 0 1.039.051 1.454.207l.363.104c.415.467.156.78-.623.78l-.467.155-.415.104c-.312.363-.156.986.311 1.402l.727-.364.259-.155c.364-.052.675.26.727.727l-.207.156c-.727.467-1.61.778-2.336 1.298-.675.467-1.091.26-1.817-.052l-1.298-.468c-.727.987-1.557 1.974-1.765 2.181-.259.208-1.298.883-1.765 1.091-.467.208-1.349-1.298-1.609-1.87l-.831.26c-.726.208-.674 1.662.052 2.078l.519.311c.675.26 1.921.831 2.752 1.298.83.416 2.491 3.895 2.907 4.363.415.467 1.297 1.194.519.986-.779-.207-2.907.364-3.219.052-.311-.311-.207-1.558.052-2.492l-1.557-.364-.467-.104c-.416-.675-1.039-.987-1.402-.675l-.363.312c-.831.675-1.609 1.142-1.973-.312l-.208-.883c-.83.208-1.92-.208-2.387-.883-.467-.675-.571-3.531-.312-3.635.26-.052 1.298-.363 1.246-.415-.052-.052-.727-.208-1.298-.208-.571 0-2.128.26-2.18.623-.052.364-.623 1.246-1.246 1.298-.623.052-2.284.468-2.336.883l.156.156.779.883c.104 1.142.467 2.077.726 2.13.312.051 1.454.103 1.921 0 .467-.105.883 1.817.883 2.96 0 1.142-.364 4.154-.779 4.206-.467.052-1.609.415-1.609.675 0 .311-1.35 1.298-2.959 1.662l-.571-.935c-.467-.727-.883-.831-1.505-.52-.935.416-2.077.831-2.648 1.507-1.35 1.713-3.945.778-5.554 1.869-.052.052-.623-.156-.675-.26-.052-.311 0-.883.156-.883l2.699-.363c-.571-2.648-.623-5.453-.104-6.18l-.467.416-.934.83c.623.624.571 1.455-.052 1.87l-.519.415c-.156.104-.104.624 0 .676l.986.26c1.142.259 2.284.103 2.543-.364.26-.416.675-1.714.312-1.87-.364-.156-1.038-.83-.727-1.298.312-.468-2.647.987-3.374 1.662-.675.727-2.336 1.558-2.492 2.129-.155.571.727 2.233.312 2.493-.415.311-1.713.57-2.025-.052-.311-.624-2.751.83-3.53 1.142l-.778.156-.467.104c-.468.727-1.039 1.09-1.246.779-.26-.312-1.038-.987-1.298-.831-.26.156-.882.467-1.038.363v-.103c0-1.662-.883-3.48 1.246-4.778l.259-.156c-.104-.571-.467-.987-.778-.987-.312 0-1.61 1.09-2.596 2.13l.26.26c1.297 1.453-.987 1.35-1.091 2.077-.051.311.052.727.312.934.415.416.779.78-.208.831l-2.232.156c-.259.83-.571 1.61-.675 1.662-.103.052-.83.052-1.297-.26-.468-.311-1.869-1.246-2.388-1.039-.519.208-1.973.26-1.765-.467.156-.727-.052-2.233-.779-1.817-.778.415-2.699-.831-2.959-.728l-.052.156c-.051.208-.103.52.052.675.779.675 1.661 1.299 2.388 2.026l.156.155c-.156.416-.779.78-1.35.78l-.415-.208c-.26-.104-.104-.727-.363-.883-.468-.364-1.142-.571-1.713-.831-.052 0-.52.467-.52.779-.103.675-.207 1.454 1.194 1.35h.156c.364.727-.415 1.402-1.713 1.402l-.986-.052c-.883-.052-1.038.26-1.402.883l-.467.831a35.341 35.341 0 0 1-3.27-1.817l-.675.103c-1.142.208-2.284.623-3.322 1.039l-1.506.623c-1.765.26-5.45.935-8.201 1.558l-.831-.467c-2.284-1.402-3.582-.312-4.931.986l-.208.156c-.208.156-1.246-.156-2.232-.727l-1.142.623c-1.35.78-.727-.311-.935-.623l-.051-.104c-.26-.052-.572.052-.623.208-.052.156-.779.623-1.298.467l-.519-.207c-1.869-.727-1.973-.727-4.361.363l-.207.104c-.208.052-1.039.156-1.765.208-.779.052-2.907-.104-3.063-.364-.156-.26-.779-.675-1.09-.311-.312.363-1.713 1.298-2.544 1.298l-.726.052-.468.052c-.726-.831-1.609-1.039-1.92-.416-.312.624 2.284 1.039 2.803.883.519-.207 1.142 1.039.311 1.766l-1.194-.104c-.467-.052-.882-.52-1.401-.675l-1.713-.468c.467-1.142.207-1.713-.623-1.246-.831.416-2.647 1.818-2.388 2.285l.312.052.882.156c.415.623-.156 1.194-1.298 1.298-1.142.104-3.374-1.402-2.959-1.765l-.103-.26c-.156-.52-.675-.935-1.142-1.35-.156-.104-.52-.104-.779-.104-.986.156-.312 1.973-1.765 1.35-.934-.416-2.492-.883-2.596-.623l-.622 1.766c.571.934.155 1.713-.987 1.661l-.675-.311c-.934-.416-1.453-1.09-.259-1.922l.571-.415c.623-.935-.831-1.195-3.27-.52l.259 2.182c.052.467-1.09.519-1.609-.052-.26-.312-.415-.78-.779-.987l-.467-.208c-.623 0-1.09-.156-.986-.363.104-.208-.519-1.247-1.557-1.922l-1.194 1.039c-.26.208-1.039.26-1.039.363-.051 1.35-.622 1.247-1.868.675-1.039-.467-2.284-.986-2.7.78-.155.727-1.349.882-2.439 1.038l-2.025.312c-.415 1.298-1.246 2.389-1.765 2.389-.519 0-1.972-.208-1.972-.52h.051l2.285-.104c-.571-1.298-1.558-2.077-2.233-1.765l-.467.103-.467.104c-.571-.052-.727-.311-.311-.623l-.052-.156c-.779-1.557-3.426-2.388-5.658-1.61l-.52.156c-.467.831-1.245 1.61-1.816 1.766l-.156-.104c-.312-.311-.364-.83-.675-1.142-.727-.78-1.609-1.454-2.699-.312-.571-.363-1.039.208-1.039 1.195 0 .986-.726 3.842-1.038 3.842-.259 0-1.194-.882-1.557-2.077l-.779-.623c-.623-.467-1.868-.312-2.595.52-.104.103-1.09-.053-1.09-.156-.312-1.87-2.648-1.506-3.115-1.091l-1.246 1.039c-1.505-.104-2.699.052-2.699.363 0 .312 1.142 1.506 2.492 1.766l1.142-.935.207-.156c.623.156 1.402.572 1.713.935.312.364 1.921.364 2.336.987l.519.104c1.35.311.623-1.04 1.35-1.299.104-.052.363.312.623.416l.519.156c.675.103 1.557.311 1.921.467.363.156 1.609-.312 1.557-.987l.312-.415c.57-.78 2.855-.312 3.166.623.052.104-.519.26-.675.467l-.934 1.195c-1.557.83-4.257.83-6.022 0l-2.076.156c-2.855.26-2.855.155-4.516-.78a4.702 4.702 0 0 0-1.402-.57l-.467-.312c-.779.104-.934.57-.363.986.571.468 1.09 1.558-.26 1.35-1.35-.259-4.049-3.22-4.828-2.752-.778.468-3.478 1.558-4.049 1.299-.571-.26-2.024-.52-1.868-.104.155.415-1.298 2.025-2.7 2.544l-1.09-.207c-1.297-.26-2.595-.26-3.322-1.61-.467-.883-1.869-1.506-2.959-2.026-.311-.155-1.142.572-1.713.52l-1.661-.104c-1.453-1.039-3.011-1.298-3.53-.571l-.415.675-1.142 1.921c1.453.623 1.765 1.766.675 2.597l2.232.467c.259.052.571.104.727.26.155.156.207.52.103.623-.103.156-.623.26-.726.156-1.35-.883-2.388-.468-3.271.467l-.986.935c-.986-.727-2.128-.727-2.492 0-.363.727 1.506 1.35.052 1.662l-.986-.572c-.883-.519-1.765-1.142-2.751-1.35l-.727-.104c-1.038.468-1.765.26-1.609-.519.156-.779.311-2.752-.052-2.7-.363.052-1.713-.416-2.284-1.09l-.986.778c-.571.467-2.233.883-3.115.779l-1.194-.156c-.415.883-1.609 1.195-2.647.78l-.779-.52-1.09-.675c1.246-.623 1.194-1.87-.104-2.856l-1.661-.104c-1.661-.104-3.218.156-3.841 1.713-.052.052-.571.052-.883 0-.519-.052-1.298-.26-1.401-.155l-1.142 1.506c-2.596-1.09-4.88-2.233-5.139-2.545l-.104.312c-.312.882-.675.155-1.038-.052-1.039-.52-1.558.207-2.025.675-.208.26-.208.934.052 1.142.415.364 1.453.883 1.661.78 1.298-.884 3.374-.572 4.412-1.974l.623-.831c1.298-.675 1.869-1.818 1.35-2.545l-.986 1.039c-.831.883-1.35-1.039-2.44-.208l-.467.416c-.312.986-.416 2.337-.208 2.96.208.675.415 1.713.779 1.87.363.207 2.543.519 3.997.363l1.194-.623c1.246-.624 2.491-1.35 4.101-1.299h.207c.364-.883 1.661-.623 2.907.623l-1.817 1.507c-.467.363-.571.83-1.401.882-.623.052-1.298.364-1.765.727-.831.727-1.402.727-2.492.104-1.142-.623-2.44-.104-2.18.52l.363.83c-.623.416-1.038 1.299-.986 1.922h.104c.83.052 1.505.156 1.246.935-.104.415-.623.882-1.039 1.038l-1.193.364c-1.558.311-2.907.259-2.907-.156 0-.415-1.506-2.285-1.142-1.714.363.572 3.062-.519 2.387-1.246-.674-.727-2.699-2.493-3.01-2.337-.26.208-.26 2.96-.571 3.48-.26.519-1.817 2.232-1.35 3.531l1.973-.727c.259-.104 1.038.104 1.142.311.415.675.415 1.61 1.038 2.078l.467.363c1.038.104 2.544.779 3.374 1.558l.883.571.311.208c.623 0 1.09-.415 1.038-.831l-.104-.363c-.051-.208-.363-.364-.467-.572-.207-.363.104-.675.727-.623h.208c.363.312.726.312.726-.052 0-.363-.415-1.506-1.09-1.558-.623-.052-1.713-.571-.986-.986.727-.416 3.634.103 4.516.052.883-.104 1.506-2.233 1.921-1.662.415.57 1.453 1.662 1.661 1.61l.104-.156c.415-.571.726-1.558 1.246-1.61 2.907-.52 1.038-1.298.259-2.025l-.207-.208c-.416-.468.051-.416 1.142.104 1.038.519 2.595 2.7 3.218 2.44.623-.26.259-1.973 1.142-2.648l.831-.571.103-.052c.416.26 1.402 1.09 2.129 1.921l.155.935c.623-.052 1.09-.467 1.09-.935 0-.467 1.662-1.713 3.686-1.194l1.609.415c.467.104 1.246.312 1.454.104 1.142-.987 1.297.26 1.868.52l.156.051c-.104.468-.519.831-.882.78-.364-.052-1.558.155-1.713.57-.156.416.311 1.766 1.453 1.662l.156-.363c.311-.623.467-1.09 1.35-.883.623.104 1.297.727 1.764.623.623-.104.987-.83 1.558-1.142 1.038-.572 1.557.207 2.076.675.519.519.571 1.142-.467 1.246-1.038.104-1.194.571-.831 1.143.104.156.987.207 1.402.052 1.921-.675 1.869-.675 1.402-2.649-.052-.156-.208-.415-.104-.467 1.453-1.143.415-1.454-.831-1.714l-.363-.104c-.363-.363-.467-.987-.26-1.298.208-.364 2.181-.935 3.842-.52l1.609-.363.207-.052c.208-.156 2.181-.571 4.361-.935l1.142 1.974c.052.104.675.104.83 0l1.246-1.247c1.869.26 3.426.883 3.426 1.403 0 .519.519 1.557 1.142 1.298.623-.26 2.077-1.247 1.973-1.662-.104-.415 1.246-1.039 1.713-.935.467.104.052 1.87.26 2.493.207.623 1.713 1.921 1.764 1.402.052-.52.935-2.025 1.869-1.87l.727.156 1.09.26c.883-.52 1.869-.883 2.18-.883h.312c.467.052 1.246.26 1.401.104l.467-.467c.26-.675.26-1.247-.051-1.299l-.156-.155-.312-.26c-.311-.364.052-.883.727-1.142l.571.051 1.713.156c-.259 1.143-.623 2.285-.83 2.493l-.312.156-1.09.57c.467.832 1.661.468 2.699-.83l1.454-.208 2.336-.311c.363-1.454.727-2.39.882-1.974v.364c-.052.987.727 1.61 1.713 1.61.571 0 1.194-.78 1.765-1.247l.208-.207c.156-.52.467-.52.675.052v.311c0 .623.052 1.298 1.038 1.09.571-.155 1.765-.467 1.194-1.298-.831-1.142.311-.727.778-.779.208 0 .416.312.623.468.208.156.623.415.571.467l-.623 1.974zm-237.902 6.906c-.675-2.181-1.35-3.323-1.402-2.492-.104.831-2.699.104-2.855.311l-.052.208c-.052.208.104.571.208.623.934.104 2.024 0 2.855.312.675.26.363 1.61 1.869 1.35.311-.052.674.519 1.09.623l1.194.364c.259-.883.207-1.87-.104-2.181l-.26-.312-.986-1.142c1.09 4.466 1.973 7.166 1.921 6.127l-.26-.467-.208-.363c-.622-.208-.986-.831-.882-1.299l-.467-.311c-.156-.104-.519-.156-.727-.104-.26.104-.623.363-.571.467.415.987-.519 1.87-.415 2.805 0 .103 0 .259.052.363l.052.104c.207.052.622-2.804-.052-4.986zm36.648-5.452c3.166-.78 6.281-1.299 7.008-1.143l.571.208.571.26c.571.363 1.298 1.298 1.661 2.025.363.727 3.582-.415 3.945-.104.363.312 1.973.52 2.44-.311.467-.831 2.647-1.195 1.557-.572-1.038.623 0 2.493.415 1.558l1.558.156c.726.052 2.024-.52 2.336-1.039l.311-.623c-.363-.935.052-1.662.986-1.662l.26-.311c.571-.675.727-1.558.986-2.337v-.052c-.415-.104-.726-.312-.726-.468 0-.103.519-.311 1.142-.155.622.156 2.128.883 1.764 1.194-.363.312-1.038 1.558-.674 2.077.363.52 2.491 1.195 3.737.312l.104-.883.26-2.44c-1.662-.987-3.115-1.87-3.219-1.974-.104-.104.104-.727 1.506-.364l.83.208c1.298.312 1.609.052 1.713-1.402 0-.208.312-.467.571-.52.208-.051.675.053.727.157l.156.882c.155 1.09.622 1.818 1.09 1.662.467-.156 1.246.052.83.883l.26.52.311.57c.987.364.623 1.35-.727 2.182v1.714c-.155.26-.674.26-1.193 0-.468-.26-2.388-.364-2.492.674l.311.156.935.468c1.246.26 2.855 0 3.581-.624l.779-.519c.26-.208.779-.26 1.142-.26 2.025 0 2.336 0 2.128-.986l-.363-1.662c1.194-1.246 3.011-2.181 4.153-2.077 1.09.104 3.634.415 3.114 1.038l-.571.156c-1.401.364-2.906.468-4.36.78l-.415.103c-.312.364-.571 1.921-.571 3.48l-1.921.623c-.882.311-.519.415-.208.831l.364.571c.156.675.104.363-.104-.623l1.869 1.038c.311.156.986.364 1.09.26l.986-.883c.935-.987 2.128-1.61 2.648-1.402.519.208 2.18-.415 2.751-1.818l2.284.572c.052 0 .623-.78.519-1.091l-.208-.623c-.519-.675-1.401-.78-2.024-.208l-.571.312-.416.26c-.726.103-.934-.468-.467-1.299.468-.83 3.426-1.921 4.101-1.298.675.623 1.506 3.012.935 4.31l-.364 1.039-.052.207c.364.312.987.364 1.402.104l.311-.26.156-.155c.104-.26.623-.156 1.142.26.571.363.104 1.869.727 1.869s2.128-.779 1.972-1.766l.416-.415c1.505-1.558.674-2.13-1.194-2.649-1.09-.26.052-.623.052-.882 0-.572-.623-1.506-.416-1.61l.727-.416c.415-.623.934-1.506 1.09-1.87l.26-.051c2.336-.416 1.038-1.09.311-1.818-.467-.52-1.349-.207-1.869-1.038l-1.038-1.714c-1.765.571-2.024 1.246-.571 1.506l.519 1.038.156.364c-.052.467-.415.779-.779.727-.363-.052-1.713.208-1.713.83 0 .624-.519 2.234-1.194 2.078-.622-.208-2.232-.83-2.232-1.194s-.934-.987-2.128-.727l-.208-.208c-.986-1.09-1.349.571-2.024.208-.312-.156-.831-.416-.779-.572l.312-2.233c-2.077-.103-3.582-.519-3.374-.882.259-.364 1.09-.727 1.297-.052l.364.104.726.26a45.1 45.1 0 0 0 1.142-1.87c.26-.468.104-1.974-1.297-2.078l-.623.416c-1.298.83-1.194.26-1.35-.52 0-.103-1.142-.311-1.35-.103l-.311.311c-.208.52-.208 1.299 0 1.766v.415c0 .26-.26.727-.519.78-.312.103-.779-.105-1.142-.26l-1.557-.675c.778-.883.623-1.403-.416-1.247-1.038.208-2.647-1.402-3.633-.779l-.364-.208c-1.142-.57-1.713.364-2.491.52-1.194.208-2.492.363-3.115-.208-1.194-1.038-2.18-.104-2.699.208-.935.52-1.817 1.506-2.025 2.389l-.155.675c.778.935 1.297 1.246 1.193.727-.103-.52 1.35-.571 1.246.052-.104.623.883 1.35-.571 1.402l-.675.467-1.142.831c-1.09-.311-2.18-.571-2.491-.52l-.052-.051c-.104-.208-.208-.571-.104-.623l.519-.312c.623-.26.519-.571-.208-.675-.726-.104-2.647-.52-3.01-.052l.104.364c.311 1.038.83 2.025 1.245 3.064.675 1.661.623 1.921-1.038 2.804-.675.363-1.453.623-2.024 1.09-.883.727-2.855 1.714-3.53 1.247l-1.35-.935c-.675.779-.986 1.039-.675.571.312-.467.208-1.765-.882-1.921-1.09-.156-3.582-1.454-3.167-2.025.416-.572 1.35-2.182.935-2.182-.416 0-1.869.883-2.388 1.922-.519 1.038.675 3.635-.935 3.635l-3.27-1.35c-.259-.104-.778.104-1.09.26-.156.051-.208.467-.104.623l1.298 1.506zm-3.322-9.4c-.26.831-.987 1.714-1.713 1.922l-.467.311c-.675.468-1.142 1.143-1.869 1.506l-.727.364c-.934.156-.934.57 0 .934l.934.104.883.104c.986-.311 3.27-.727 5.035-.935l1.557.987 1.402.883c.727-1.039 1.35-2.13 1.298-2.493 0-.363-1.246-1.402-2.7-.883l-.571.624-1.09 1.246c-1.245-.52-2.336-1.454-2.439-2.025l-.104-.572v-.103c-1.194-1.455-1.35-2.285-.416-1.87l.052.364c.156 1.454 1.662 1.713 2.44 1.194 1.194-.779 1.869-.727 2.855.052.052.052.831-.364 1.09-.623.052-.052-.363-.727-.571-.727l-1.557.052c-1.973.052-3.115-.208-2.595-.624.674-.467-.52-.623-.727.208zm98.265 1.922c0 .26-.519.207-1.142-.104-.623-.312-2.336-2.441-2.284-3.895l-.052-1.402c0-.156-.727-.52-.882-.416-1.039.468-1.402 1.818-3.063 1.454-.052 0-.208.156-.311.26-.052.104-.104.26-.052.312l1.557 1.09c-.831 1.402-1.194 2.389-.883 2.181l.208-.052c2.44-.623 2.44-.57 2.596 1.662 0 .312.519.623.882.831.415.26.883.623 1.298.623.571 0 1.453-.623 1.713-.467l2.128 1.35c-.519-1.194.052-2.597 1.194-3.116l.052-.571.26-1.87c1.764-1.402 2.906-2.7 2.543-2.856-.363-.156-1.453.208-1.713 1.195h-.259l-1.765-.052c-.156 1.038-1.194 2.18-2.284 2.544l.207 1.143.052.156zM522.836 104.9c.623-.052 1.298.883 1.505 1.974l-.726.675-1.143 1.038c.104.208.468.572.727.727.26.156 1.246.156 1.713-.259.467-.416 1.609-1.039 1.506-.52l.207.156c.831.572 3.478.572 4.257.052.156-.104.104-.467 0-.675-.052-.156-.364-.311-.519-.26l-.623.156c-.675.208-.779-.467-.312-1.506l.208-.831.052-.155c-.727-.312-1.194-.831-1.038-1.143h.052l2.128.26c.156-1.506 1.298-2.026 2.544-1.143l1.557.156 1.246.156c1.349 1.038 2.491 1.61 2.543 1.142.104-.415 1.246-1.454 2.44-1.506l.986.104c1.298.104 2.336-.311 2.648-1.246l.207-.675c-.83-.52-1.453-1.195-1.401-1.558h.052c.934.052 1.401-.312 1.142-1.039-.104-.26-.935-.363-1.402-.415l-1.142-.052c-1.194 0-2.44-.416-2.751-1.039l1.453-.363c.364-.104.727-.416.883-.727.207-.364.311-.831.415-1.247.104-.415-.052-1.09.26-1.298.934-.623-.052-.883-.156-1.298-.104-.312.623-.727.727-1.09.052-.157-.831-.624-1.142-.572-.468.104-.831.623-1.298.883-1.246.727-1.246.779-2.699-.468-.831-.727-1.662-.623-2.596-.156l-.208.104c-.467.104-.83-.155-.83-.519s-.623-.935-1.454-.571l-.467-.104-.83-.26c.363-.623.519-1.454.259-1.921-.259-.468-.363-2.025.208-2.493.571-.415 2.595-1.61 2.803-1.298.208.311 1.09.156 1.246-1.35l-2.44.311-.83.104c-.883-.052-1.506.52-1.402 1.246.104.727-2.025.52-1.869.208.208-.312.208-1.194-.415-1.09-.675.103-1.661-.312-1.246-1.091.415-.727-2.18-1.87-2.751-1.558-.519.312.83 2.493 1.505 3.48l-2.024.207c-.26 0-.416.727-.571 1.09-.26.624-.571 1.247-.675 1.87-.052.468.156 1.195.571 1.402l.727.416c.934.156 1.401 1.142 1.09 2.077-.312.987-1.506 3.48-1.869 3.064-.363-.415-1.661-.623-2.44.208l-.986.363-3.27 1.195c-.052 1.506-.052 3.168.052 3.687l-.208.415-.727 1.454c1.35.364 3.167.779 4.049.883l.779-.052c.363 0 .675-.467 1.038-.467.311 0 .727.208.934.467.104.104.052.52-.103.623-.312.156-.831.104-1.091.312-.259.208-.519.571-.467.831.052.208.519.467.831.519h.571zm29.692-9.607c.156.156.519.208.779.156.259-.052 1.09.363 1.298 1.038l1.142-.052h.363c.467.364.519.935.104 1.299l-.415.052c-.675.103-1.454.103-2.077-.104l-.415-.156c-.26-.52-.883-.623-1.35-.208l-.311-.986-.364-1.143c-1.038.416-2.491.883-3.218 1.039-.727.156-2.284 1.558-2.232 2.077.052.52 2.128.571 2.647.883.519.311 2.077-.312 2.388 0l-.052.052c-1.09 1.038-.467 2.7-2.128 3.531l-.26.156c0 .571.468.987.987.987l.467-.052c.208-.052.415-.312.623-.312l1.92.052c1.039-1.298 1.869-2.597 1.869-2.96 0-.364.883-.987 1.921-.571l.156-.156c.778-.727 1.713-.675 2.699-.675h.415c.467-.312.571-.831.26-1.195l-.416-.155c-1.193-.416-1.09-.883-.207-1.403l.623-.363c.83-.312 1.297-.78 1.038-.987-.26-.208-1.35-.311-1.921.26-.519.571-2.595-.156-2.336-.468.312-.311.675-1.454-.623-1.246-1.245.208-3.581 1.454-3.374 1.61zM449.799 83.35c-1.713.675-5.399.571-8.15-.156l-2.544-.156-.571-.052c-.934 1.039-.882 2.026.156 2.181l.415-.155c2.388-.883 4.672-1.039 7.112 0 .415.155 1.246-.416 1.869-.416.674 0 1.453.416 2.076.312l.363-.052c.26-.675 1.091-.26 1.869.935l1.765-1.143c.312-.208.934-.364 1.09-.26.831.52 1.35 1.091 2.492.208.363-.26 1.609.416 2.492.416 1.142 0 2.491 1.142 3.426-.364 0-.052.623.052.882.208.727.363 1.35.467 1.557-.364.052-.208-.519-.675-.934-.779-.779-.207-1.869-.57-2.44-.311-1.297.571-2.855 1.09-3.841.26-1.713-1.455-3.063.155-4.516 0-.208 0-.415-.468-.623-.468-.935.104-1.35-1.039-2.388-.52l-1.557.676zm33.43 30.639c-.519.156-.312-.519.415-1.558l.571-.675c.208-.259.779-.571.882-.519 1.661 1.09 2.336-.208 3.167-.883l.208-.208c0-.415-.156-.675-.416-.623-.207.052-1.349-.415-1.972-1.246l-1.506.052-1.609.104c-1.557-.779-3.114-1.454-3.478-1.506l-.104.103c-.207.26-.467.831-.415.883 1.298.623 1.298 2.129 2.803 2.649l.364.104c.259.779-.26.934-1.194.415-.935-.571-2.804.623-1.817 1.87l1.142.934c.83.727-.467.883-.208 1.247.467.571 3.167 1.246 3.79.935l1.142-.624c-.104-1.09-1.246-1.661-1.765-1.454zM38.465 54.787c.156-.986-.519-1.453-1.557-1.038l1.142.987c1.557 1.402 1.765 1.61 1.038 2.856-.363.675-.986 1.298-1.35 2.025-.103.208.156.623.416.883.103.104.675.104.83 0 .883-.779 2.336-1.194 1.454-2.856-.727-1.35.83-2.285 2.543-1.61 1.142.467 1.402-.208 2.129-.416 2.18-.727 3.737-3.115 6.8-1.61.57.312 2.336-.882 2.284-1.35-.156-.934-1.09-.467-1.661-.623-.623-.156-1.194-.52-1.817-.675l-.208-.052c-.311.26-.57.935-.623 1.402h-.674c-.675 0-1.402-.415-2.025-.26l-.779.156c-.674-.155-2.75 0-4.568.416l-1.401.727-1.973 1.038zm-18.064-4.362c-.364-.415-1.558-.104-2.596.727l-.83.104c-1.402.26-1.09 1.09-.883 1.558.415.883 1.142 1.714 1.869 2.493.519.52 3.114.311 3.166-.312l.208-1.61c1.35.208 2.595-.26 2.803-1.038.26-.78-1.869-2.13-1.973-1.714-.103.364-1.401.208-1.764-.208zM557.356 90.31c-.779.623-.831 1.142-.156 1.09l.312-.208.623-.363c.674.104 1.557.26 2.076.311.467.052 2.284-1.194 3.218-2.129l1.817 1.195 1.038.675c1.039-.26 1.298-1.662.571-3.168l.675-.779c1.09-1.246-.259-1.558-.727-1.714l-.882-.26c-1.09.312-1.609.728-1.142.987.467.26.363 1.714-2.024 2.285l-1.921.416-.208.052c-.311-.364-2.491.986-3.27 1.61zM67.586 76.183c-.155 1.506-1.401 2.96-2.802 3.324l-1.298-.416-.623-.207c-.52 1.558-.26 2.596.675 2.285l.57-.312c.883-.467 1.143 1.039 2.492.26.987-.623 2.284-.468 2.336-2.026v-.623c0-.727.156-1.506.415-1.765h.26c1.454-.156.986-1.143.83-1.558-.415-1.039-1.141-.52-1.868-.104-.156.104-.779-.416-1.246-.416-.363-.052-1.453-.156-.83.52l1.09 1.038zm510.119-64.706c1.142-2.13 1.557-3.012.882-2.026-.675.987-4.464 1.299-4.205 1.506.208.208.416.78-.052.883l-.363.052-.467.104c-.831.104-.883 1.039-.156 2.025.727.987 4.516 1.091 4.049.935-.467-.156-.675-.779.26-1.038v-.26l.052-2.181zm48.431 94.775c.364-.104.727-.676.727-1.299 0-.623-1.609-2.337-3.53-2.544l.156-1.922c0-.208-.571-.623-.727-.571l-2.595.519c.207-1.506-.312-2.18-1.09-1.506l-.727.571-1.298 1.039c1.09.727 2.025.727 2.077-.104l1.297.156.779.052a25.908 25.908 0 0 1 1.557 2.752l1.661.052c1.039 0 1.039.727.52 1.195-.468.415-2.025.155-1.402 1.194.208.364 1.453.312 2.284.416h.311zM418.497 89.114c.623-.727-.311-1.766-2.128-2.337l-.675 2.233c-.052.208-1.402.468-1.869.26-.623-.26-.934-1.039-1.505-1.506l-.312-.26c-.519-.156-1.194.104-1.505.623l.156.312c.259.623.986 1.09 1.297 1.662l.156.311c-.156.26.364.26 1.142.052.883-.155 4.568-.623 5.243-1.35zM127.75 71.665c1.246.052 1.609-.467.779-1.194l-.623-.26c-1.557-.623-2.907-2.233-5.035-.675-.26.208-1.35-.467-2.129-.571-.259-.052-.778.26-.83.467-.052.26.311.883.363.831l2.336-.363c1.246 1.402 2.855 2.337 3.634 1.973l.726-.104.779-.104zm411.23 9.088c1.142.104 2.128.104 2.18.052.052-.104-.363-.727-.986-1.09l-.623-.104-1.298-.26c-1.453-.26-3.426-.675-4.36-.987l-.883.572-1.09.727c.104 1.09 1.869 2.18 3.893 2.492l1.298-1.558c.052-.103.571.052.883.104l.986.052zM65.822 49.44c-1.194-.052-1.817.311-1.402.779.415.467 1.142 2.025-.156 2.285l-.986.207c-.467.104-.727-1.454-1.298-.104-.052.156.52.624.883.831l1.298.78c1.557-.157 2.855-4.727 1.66-4.778zm8.461 29.756c.83.208 1.35-.467 1.246-1.454l.311-.675.364-.727c.882-.675.778-.987-.156-.623-.934.363-3.53.675-3.426.883l.156.155 1.505 1.558c-1.557.052-.83.675 0 .883zm73.608-11.165c-.571-.364-1.038-.156-1.038.52 0 .675.83 2.492 1.817 2.648.986.156 3.841.208 4.049-.104.207-.363.311-1.35-.26-1.454-.571-.104-2.024-1.246-2.18-.987-.156.312-1.817-.208-2.388-.623zm117.264-49.023c-.519-.468-1.92-.416-3.114.156l-.779.57c-.778.572-.311 1.559.727 1.974.467.208.882.623 1.35.675l.934.104c.675-.571 1.402-3.012.882-3.48zM413.41 97.994c-1.609.52-2.076 1.247-1.09 1.662l.778-.052.935-.052c1.09-.467.778-1.765-.779-2.908l3.063-.415c.156 0 .363-1.506.052-1.766-.935-.571-1.35-.104-1.506.831-.103.415-1.557.779-1.557 1.09l.104 1.61zm192.17-8.153c.883-.311 1.35-1.402.986-2.337l-1.401.831c-.675.416-2.388.416-3.063 0-1.505-.986-1.972.052-2.699.623l-.156.156c.156.416.467.727.675.623.208-.103.882.416.934 1.299l.467.26c1.558.83 1.091-.78 1.713-1.091.416-.208 1.091 0 1.61-.156l.934-.208zm-138.599 18.955c-.467.364-.831.675-.779.779.052.104.831.208 1.558 0 .726-.208 2.491-2.233 2.335-4.102l-3.581.779c-.26.051-.675-.104-.831.051-.259.208-.571.727-.467.779.311.26.779.52 1.246.572h.363c.467-.26.779-.052.675.415l-.26.312-.259.415zm341.826-58.682c.104.26.935-.416 1.817-1.558l-.26-1.09-.311-1.351c.882-1.143.467-1.246-.883-.26-1.349.987-2.803 4.882-2.336 4.518.52-.415 1.869-.519 1.973-.26zM257.992 68.705c-.208.312.208 1.506.934 2.649l.883.155c1.09.156 2.336-.83 3.582-1.09l.986-.208c0-.52-.415-.83-.831-.623l-.415.052c-.363.052-.831 0-1.142-.156l-1.09-.571c-1.194-.831-2.699-.52-2.907-.208zm192.741 37.287c.26-1.35.208-2.493-.052-2.545-.259-.052-1.505.364-2.492.779l-.83-.883c-.156-.207-.415-.467-.623-.467h-.467c-.519.104-.935.623-.831 1.091l.208.051c2.128.52 3.218 1.61 3.27 3.376 0 .104.519.26.675.26.312-.104.831-.312.883-.52l.259-1.142zm-17.442-20.98c.883 0 1.298-.364.987-.831l-.26-.312c-.83-1.09-3.582-2.13-4.724-1.506-1.557.831.727 1.454.416 2.285l-.052.104c.207.156 2.751.26 3.633.26zm341.775-20.773c.207.26.778.467 1.297.415v-.103c.26-.935 1.142-1.299 2.077-1.714l1.038-.468c.727-.882.779-1.35.156-1.09s-3.634.467-5.035 1.194l.363 1.455.104.311zM522.524 91.866c.468.26 1.142-.467 1.558-1.661l-1.142-.572-1.765-.882c-1.35.934-2.18 2.492-1.869 3.427l.363.675c.156.312.779.78.987.727 1.609-.467-.208-.675-.156-1.038l.052-.52c0-.779 1.557-.467 1.972-.156zm-104.183 14.022c.623-.208.364-.779-.674-1.298l-.364-.935c-.415-1.091-1.661-1.973-2.647-2.908l-.156-.156c-.675.156-1.09.675-.934 1.091l.311.259.26.208c.571.052.726.26.363.363-.363.156-.986.676-.779 1.039.208.312 1.09.831 1.558.416.519-.312 2.388 2.129 3.062 1.921zm2.959-20.305c1.038.208 1.402-.208.831-.935l-.052-.467-.052-.572c.259-.623-.415-1.142-1.557-1.142l-.935.52-.675.363c-.467.883 1.402 2.025 2.44 2.233zm-14.95 14.593c-.571 1.973-.882 3.687-.778 3.739.103.103.83 0 1.349-.364l.104-.415c.311-1.143.675-1.714 2.128-.675l.623.467c.831-.831 1.402-1.558 1.246-1.61h-.104c-1.246-.052-2.959.26-1.453-1.506.104-.104.104-.415 0-.467-.208-.104-.571-.208-.779-.104l-2.336.935zm276.16-20.773c-.259.83.52 1.558 1.817 1.662l.156-.208c.571-.83 1.246-1.714 1.298-2.597l.104-.934c-1.35-.364-3.115 1.298-3.375 2.077zm-222.174 22.279c.571 1.506 1.402 2.388 1.817 1.869l.416-.26c.467-.311 1.245-.415 1.557-.83.415-.468.363-1.195-.727-1.143-1.194.052-1.869-.104-1.765-1.246.052-.26-.519-.831-.83-.831-1.142-.104-.935.727-.831 1.194l.363 1.247zm63.642-86.518c.83.571 2.076.467 2.699-.26l-.156-.467c-.311-1.039-.986-1.973-1.713-2.908-.155-.208-.934-.26-1.401-.208-.156 0-.208.571-.26.883-.155.986 1.61 1.558 1.402 1.87l-.571 1.09zM60.89 34.898c-.156-.26-.882.26-1.66 1.194l1.972.52.882.26c1.038 1.194 2.284 1.35 2.7.415.467-.935-1.039-3.168-1.454-2.753-.467.364-2.336.623-2.44.364zm351.118 59.41c1.506-.416.987-.728-1.142-.728h-2.18c-.779 0-1.505.468-1.557.987l.207.156 1.091.727c1.142-.572 2.128-.78 2.18-.468v.208c.052.52-.208 1.298.882 1.143.312-.052.831-.624.779-.883l-.26-1.143zm10.278 1.09c-.207-1.09-.934-1.87-1.661-1.766l-.259.208c-.623.52-1.765 1.506-1.609 1.662 1.401 1.61-1.506.467-1.194 1.298.052.208-.104.571.052.675.259.208.83.468 1.038.364 1.142-.572 2.388-1.09 3.166-1.922l.467-.52zM119.964 46.686c-.26.208-.831.26-1.194.104-.364-.156-1.921 1.246-.571 1.662l2.751-1.143c.104-.051.363.156.571.156l.311.052c.312 0 .364-.467 0-.986l-.311-.468-.052-.156c-.26-.052-1.194.52-1.505.78zm470.407 58.735c2.543-.052 4.62-.52 4.62-.987h-.104c-1.661-.416-3.634-.312-4.776-1.662-.052-.052-.779.104-1.09.312-.156.104-.156.519-.052.675l1.402 1.662zM387.403 39.468c-.415-.52-2.18-.831-3.893-.675l.415 1.35c.26.883 1.973 1.35 3.374 1.298h.519c.727 0 0-1.454-.415-1.973zm130.501 66.887c1.039 0 1.142-1.661.312-3.635l-1.921.052c-.311 0-.675.26-.882.519-.104.104-.052.52.104.624.571.311 1.142.519 1.764.779 1.298.467-.467 1.142.104 1.454l.519.207zM100.809 47.777c-2.232.986-3.582 1.973-3.01 2.18.57.209 2.854-.103 4.204-1.038l1.349-.727c.156-.052.208-.52.052-.623-.259-.208-.778-.52-.934-.415l-1.661.623zM806.938 8.932c0-.571.364-1.142.831-1.246h.26c.934.052 2.076-.104 1.453-1.039-.779-1.194-1.609.156-2.388.364a3.023 3.023 0 0 0-1.35.675c-.259.208-.571.779-.467.83l1.142.832c-.519.934-.778 1.765-.571 1.765.26 0 1.09-1.61 1.09-2.18zm-218.8 14.177c.052.78.623.883 1.246.26s1.609-2.389 1.038-2.752c-.519-.416-2.284 1.713-2.284 2.492zm217.347 9.296c-.415-1.558-.935-2.7-1.142-2.545-.208.156-.831 1.87-.883 3.376l1.765.83c.208.105.519.26.571.209.364-.208.883-.675.883-.675l-1.194-1.195zM77.501 50.893c0-.468-.726-.52-1.609-.156-.882.415-2.388-1.402-2.647-1.35-.26.052-1.246 1.038-1.61 2.129l1.817-.208 1.558-.208c.26.987 1.038 1.247 1.765.572l.623-.623.103-.156zm268.582 19.785c-.779-.415-1.246-.051-.986.78l.519.207c.986.416 2.024 1.247 3.322.623l.259-.103c0-.416-2.336-1.091-3.114-1.507zm219.371 25.55c-.986-2.596-.986-2.596-4.153-2.388 1.038 1.194 1.246 3.272 4.153 2.389zm-156.612 9.608c-.675-.312-1.661-.312-2.284-.052l-.208.312c-.104.156.104.727.415.831 1.142.519 2.284 1.038 3.478 1.402l.312.104c.519-.312.727-.935.415-1.351l-.363-.103c-.727-.156-1.765.259-1.765-.883v-.26zm153.549-4.258c-.986-.831-1.713-.987-1.609-.312.104.675 2.544.416 3.426.156l.415-.467c.26-.364.104-1.247-.259-1.558-.467-.364-1.142-.312-1.402.519l-.571 1.662zm87.468-85.375c-.623 0-1.142.415-1.246.882l-.259.208c-.415.364-.779.623-.104 1.039.363.207.571.779 1.246.207.675-.519 1.609-.83 2.336-1.298l.207-.156c.052-.467-1.557-.882-2.18-.882zm-159.467 87.919c-1.869-.415-3.478-.311-3.634.156l.208.312.208.363c.519.312 2.024.935 3.374 1.35l1.09-.882c.26-.208.311-.883.26-.883l-1.506-.416zm-43.656-15.423c.415.519 1.142 0 1.661-1.143l.312-.934.051-.26c-.311-.416-.986-.52-1.557-.312-.519.26-.882 2.13-.467 2.649zm25.332 1.662c-.208-.208-.986.415-1.713 1.35-.727.934-.311 3.739-.156 2.908.156-.78 2.077-4.05 1.869-4.258zM40.594 72.287c.051 1.766.519 2.493 1.038 1.714.519-.779 1.142-3.064.155-3.168l-.207.26-.986 1.194zM589.54 86.622c-.779 0-1.298.207-1.194.415l.104.104c.727.727 1.453 2.025 2.18 2.025h1.765c.052-1.35-2.128-2.544-2.855-2.544zm196.582-26.693c-.726-.52-2.387-.78-3.685-.572l.311 1.299c.26 1.038 1.454.363 2.129.571.259.104.415.416.623.467l.467.052c.519-.052.882-.519.778-.986l-.259-.312-.364-.52zM43.604 47.777c0-.364-.727-.78-1.609-.883l-.311.26c-.571.363-1.142 1.038-1.194 1.61l-.052.623c.57.934 1.246 1.35 1.505.83.26-.467 1.661-2.025 1.661-2.44zM449.228 19.37c-.675.468-.623.831.155.831.727 0 2.855-.467 2.336-1.09l-.467-.208c-.519-.208-1.505.26-1.661-.623-.052-.416 0-1.039-.831-.468-.311.208-.622.883-.519.935l.987.623z" fill="#FCDCDC" fill-opacity=".5"/></svg>