<svg width="1304" height="512" viewBox="0 0 1304 512" fill="none" xmlns="http://www.w3.org/2000/svg"><path d="M990.973 12.742c2.282 3.21 7.701 5.92 11.397 6.866 1.87.483 6.27.538 4.3-2.45-1.17-1.781-3.97-2.746-5.88-3.488-3.099-1.17-6.514-1.615-9.817-.928z" fill="#65537A"/><path d="M990.175 13.224c1.707 2.339 4.212 4.009 6.755 5.29 2.152 1.076 4.55 2.134 6.98 2.282 1.67.093 4.38-.297 4.15-2.543-.27-2.746-3.69-4.138-5.88-4.992-3.71-1.447-7.514-2.17-11.486-1.391-1.169.24-.668 2.022.501 1.781 3.007-.594 6.069-.241 8.945.798 1.95.705 4.71 1.485 5.83 3.378.15.24.29.538.24.742.04-.093.04-.037-.02.019-.06.055-.2.13-.3.167-.65.26-1.44.222-2.13.167-1.93-.149-3.88-1.021-5.587-1.856-2.357-1.15-4.844-2.635-6.421-4.77-.668-.964-2.283-.037-1.577.928z" fill="#65537A"/><path d="M1007.06 18.124c-2.52-1.763-5.81-2.914-8.535-4.083z" fill="#65537A"/><path d="M1007.54 17.307c-2.59-1.8-5.64-2.84-8.532-4.083-.464-.204-1.002-.13-1.262.334-.223.39-.13 1.077.334 1.262 2.9 1.225 5.92 2.283 8.54 4.083.4.278 1.04.074 1.26-.334.26-.445.07-.965-.34-1.262z" fill="#65537A"/><path d="M1006.78 18.847c-3.04-2.097-7.642-3.154-11.261-4.342z" fill="#65537A"/><path d="M1007.27 18.05c-3.42-2.32-7.631-3.174-11.491-4.436-1.132-.371-1.633 1.429-.501 1.782 3.73 1.206 7.762 2.022 11.042 4.25 1 .667 1.93-.928.95-1.597z" fill="#65537A"/><path d="M1006.64 19.107c-2.34-.928-5.07-1.188-7.632-2.06z" fill="#65537A"/><path d="M1006.88 18.216c-2.47-.946-5.13-1.206-7.631-2.06-.482-.166-1.02.186-1.15.65-.149.501.167.984.649 1.15 2.502.836 5.162 1.096 7.632 2.06.46.186 1.02-.204 1.15-.649.13-.538-.19-.965-.65-1.15zm3.49-1.67c1.55-3.934-1.56-12.248-3.79-15.644-3.8 2.895-1.58 19.003 3.79 15.644z" fill="#65537A"/><path d="M1011.27 16.787c.99-2.616.3-5.808-.44-8.406-.78-2.747-1.88-5.53-3.43-7.943-.36-.538-.99-.557-1.47-.186-1.02.798-1.52 2.172-1.8 3.397-.37 1.614-.45 3.303-.33 4.954.11 1.69.39 3.396.92 4.992.45 1.262 1.04 2.617 2.1 3.49 1.19 1.002 2.69 1.057 4.01.26 1.02-.613.09-2.228-.93-1.597-.43.26-.69.353-1.11.334.2.019-.43-.13-.28-.074-.24-.111-.33-.186-.45-.278-.78-.668-1.24-1.726-1.57-2.747-.88-2.617-1.17-5.66-.65-8.388.22-1.17.55-2.338 1.43-3.025-.49-.056-.97-.13-1.47-.185 1.45 2.226 2.45 4.75 3.19 7.293.69 2.356 1.41 5.233.5 7.627-.44 1.113 1.36 1.596 1.78.482z" fill="#65537A"/><path d="M1009.7 16.862c.07-2.134-.67-5.345-.91-7.312z" fill="#65537A"/><path d="M1010.63 16.862c.03-1.28-.17-2.58-.36-3.86-.09-.631-.2-1.244-.31-1.875-.06-.297-.1-.594-.15-.89l-.06-.446c-.02-.167.02.13 0-.037 0-.074-.02-.148-.02-.223-.05-.5-.39-.928-.92-.928-.47 0-.99.427-.93.928.3 2.468.96 4.844.91 7.312-.06 1.225 1.8 1.225 1.84.019z" fill="#65537A"/><path d="M1009.25 16.472c-.94-3.136-1.74-7.163-2.39-10.485z" fill="#65537A"/><path d="M1010.14 16.212c-1.02-3.433-1.7-6.959-2.39-10.485-.22-1.17-2.02-.668-1.78.501.68 3.508 1.35 7.052 2.39 10.485.34 1.15 2.12.65 1.78-.5z" fill="#65537A"/><path d="M1008.77 16.25c-1.3-.817-1.91-3.007-2.34-4.362z" fill="#65537A"/><path d="M1009.23 15.451c-.03-.037-.09-.055-.13-.093-.13-.092.11.112.04.038-.07-.075-.15-.13-.22-.205-.06-.074-.13-.13-.19-.204-.02-.018-.13-.148-.03-.037.11.112 0-.018-.04-.037a7.952 7.952 0 0 1-.63-1.132c-.02-.037-.04-.093-.06-.148.04.092.06.148.02.018-.04-.111-.07-.204-.13-.315-.07-.204-.15-.39-.2-.594a24.01 24.01 0 0 1-.36-1.114c-.14-.464-.65-.798-1.15-.65-.46.15-.8.65-.65 1.151.56 1.763 1.12 3.86 2.77 4.918.41.26 1.04.093 1.26-.334.28-.445.15-.983-.3-1.262zm1.21 7.145c.59-4.714 6.09 2.19 6.85 3.563 1.22 2.394 2.11 5.326 2.13 7.887-3.19-1.28-10.54-7.534-9.04-11.673" fill="#65537A"/><path d="M1011.33 22.837c.04-.26.07-.5.17-.742.05-.167-.02.056.03-.093.02-.037.06-.093.08-.13-.04.056-.09.112-.02.019.09-.111-.04.018-.04.018l.08-.055c-.15-.019.03.055.03 0 0 .13-.18-.112 0 .018.1.056-.13-.055.1.019a.92.92 0 0 0 .26.074c.09.037-.02-.018-.04-.018.06.018.11.055.15.074.18.111.37.204.54.334.33.222.66.538 1.02.872 1.46 1.392 2.58 2.765 3.37 4.64.82 1.93 1.38 4.045 1.43 6.142l1.17-.89c.19.074-.15-.075-.18-.075-.11-.056-.24-.111-.36-.167a7.012 7.012 0 0 1-.64-.371c-.54-.316-1.04-.668-1.55-1.04a22.878 22.878 0 0 1-3.04-2.746c-.91-.965-1.72-2.041-2.28-3.229-.47-.965-.65-1.93-.32-2.876.39-1.132-1.39-1.615-1.78-.502-.72 2.098.34 4.343 1.54 6.013 1.45 2.023 3.29 3.73 5.31 5.178.89.63 1.84 1.206 2.86 1.614.55.223 1.19-.352 1.17-.89-.04-2.19-.58-4.361-1.4-6.384-.48-1.188-1-2.246-1.78-3.266-.72-.947-1.52-1.875-2.41-2.673-.8-.723-1.74-1.503-2.84-1.651-1.43-.186-2.23 1.002-2.39 2.282-.08.501.11 1.002.65 1.15.41.112 1.05-.148 1.11-.649z" fill="#65537A"/><path d="M1011.01 21.687c2.32 1.818 3.68 4.862 5.46 7.237z" fill="#65537A"/><path d="M1010.37 22.336c2.33 1.856 3.56 4.677 5.3 7.052.3.408.8.612 1.26.334.39-.241.64-.872.34-1.262-1.84-2.486-3.14-5.474-5.61-7.423-.39-.315-.92-.39-1.31 0-.32.316-.39.984.02 1.3z" fill="#65537A"/><path d="M1010.44 21.148c.65 1.856 2.36 4.937 3.38 6.477z" fill="#65537A"/><path d="M1009.55 21.39c.43 1.224 1.02 2.394 1.61 3.544.58 1.077 1.19 2.153 1.86 3.174.28.426.82.593 1.26.334.41-.242.61-.854.34-1.262a48.621 48.621 0 0 1-1.82-3.08c-.3-.576-.6-1.151-.88-1.745a3.63 3.63 0 0 1-.18-.409c-.04-.074-.06-.13-.09-.204 0-.018-.1-.222-.06-.13.04.112-.04-.092-.06-.13-.01-.055-.05-.13-.07-.185-.06-.13-.09-.26-.15-.39-.17-.464-.63-.78-1.15-.65-.43.112-.78.65-.61 1.133zm1.93-1.708c4.14 2.97 14.16 4.065 17.87.761-4.88-5.252-12.77-4.713-17.63-1.596" fill="#65537A"/><path d="M1011 20.48c2.74 1.93 6.38 2.654 9.68 2.858 3.14.186 6.83-.111 9.32-2.264.39-.334.33-.965 0-1.317-4.86-5.104-12.95-5.4-18.76-1.745-1 .631-.08 2.246.93 1.596 5.12-3.229 12.21-3.08 16.49 1.448v-1.318c-2.13 1.837-5.58 1.893-8.24 1.689-2.91-.204-6.08-.89-8.5-2.598-.96-.631-1.89.983-.92 1.651z" fill="#65537A"/><path d="M1011.42 19.107c3.7-.965 10.14-1.188 13.81-1.243z" fill="#65537A"/><path d="M1011.66 19.998c4.37-1.114 9.08-1.132 13.55-1.206 1.19-.019 1.19-1.875 0-1.856-4.64.074-9.52.13-14.05 1.28-1.15.297-.65 2.079.5 1.782z" fill="#65537A"/><path d="M1011.74 19.293c2-.019 5.92.185 7.92.167z" fill="#65537A"/><path d="M1011.74 20.22c2.63-.018 5.29.186 7.92.168 1.19 0 1.19-1.856 0-1.856-2.63.018-5.29-.186-7.92-.167-1.19.018-1.19 1.874 0 1.856z" fill="#65537A"/><path d="M1012.11 18.198c5.12-3.526 8.28-8.258 9.22-14.401-6.57.612-11.43 8.648-10.45 14.902" fill="#65537A"/><path d="M1012.57 18.996c5.14-3.582 8.65-8.722 9.65-14.958.1-.538-.24-1.243-.89-1.169-7.38.761-12.37 9.075-11.34 16.071.08.501.71.761 1.15.65.54-.149.73-.65.65-1.151-.85-5.716 3.46-13.102 9.54-13.733-.29-.39-.59-.78-.89-1.169-.91 5.753-4.01 10.541-8.79 13.844-.99.687-.06 2.301.92 1.615z" fill="#65537A"/><path d="M1010.55 18.662c1.76-3.972 5.16-6.774 7.44-10.411z" fill="#65537A"/><path d="M1011.35 19.126c1.78-3.935 5.16-6.811 7.44-10.411.65-1.02-.96-1.949-1.6-.928-2.28 3.619-5.66 6.477-7.44 10.41-.2.465-.13 1.003.34 1.263.39.241 1.05.13 1.26-.334z" fill="#65537A"/><path d="M1010.76 18.606c2.09-1.596 3.91-3.359 5.3-5.567z" fill="#65537A"/><path d="M1011.22 19.404c2.19-1.67 4.17-3.563 5.64-5.901.26-.409.09-1.04-.33-1.262-.47-.242-.99-.112-1.27.334-.16.26-.33.52-.52.78-.09.13-.18.259-.27.37 0 0-.17.223-.08.112-.03.055-.07.093-.11.148-.39.501-.82.965-1.26 1.43-.43.445-.89.871-1.36 1.28l-.72.612c-.13.093-.24.204-.37.297-.06.056-.13.093-.19.148-.14.112.04-.037-.11.093-.39.297-.63.817-.33 1.262.26.353.87.613 1.28.297z" fill="#65537A"/><path d="M1010.59 18.866c1.06-3.712 2.41-7.034 4.9-9.836z" fill="#65537A"/><path d="M1011.48 19.126c.96-3.396 2.3-6.737 4.66-9.428.78-.89-.52-2.208-1.32-1.317-2.58 2.932-4.08 6.514-5.14 10.244-.32 1.15 1.48 1.633 1.8.5zm-2.45 1.67c-6.44-.76-10.764 6.161-11.507 11.691 5.267-.872 10.687-6.012 11.357-11.431" fill="#65537A"/><path d="M1009.03 19.868c-6.85-.742-11.562 6.347-12.416 12.36-.093.723.39 1.28 1.15 1.15 5.886-1.02 11.246-6.365 12.026-12.322.07-.501-.48-.928-.93-.928-.55 0-.85.427-.93.928-.35 2.616-1.87 5.01-3.73 6.81-1.89 1.856-4.283 3.248-6.918 3.712l1.151 1.15c.723-5.233 4.547-11.672 10.617-11.004.5.055.93-.464.93-.928-.02-.538-.45-.872-.95-.928z" fill="#65537A"/><path d="M1008.57 21.241c-2.18 1.726-4.14 3.415-5.66 5.549z" fill="#65537A"/><path d="M1007.92 20.573c-2.14 1.707-4.2 3.49-5.81 5.735-.28.39-.08 1.057.33 1.262.48.26.97.092 1.26-.335.21-.296.32-.426.5-.65.21-.24.41-.5.64-.723.42-.482.89-.946 1.35-1.373.96-.91 2-1.763 3.04-2.58.39-.297.34-1.002 0-1.317-.42-.39-.91-.334-1.31-.019z" fill="#65537A"/><path d="M1008.75 21.538c-1.24 1.41-2 2.914-3.3 4.102z" fill="#65537A"/><path d="M1008.08 20.87c-.63.724-1.19 1.485-1.74 2.264-.13.167-.26.353-.37.52-.04.037-.06.074-.1.111-.07.093.12-.13 0 0-.07.074-.13.167-.2.241-.28.334-.58.668-.89.965-.35.334-.35.984 0 1.318.39.353.93.353 1.32 0 .67-.631 1.22-1.355 1.78-2.097.26-.353.5-.705.76-1.058.07-.093.13-.185.2-.26.06-.074.04-.055 0 .019.04-.056.08-.093.11-.149.15-.185.3-.37.47-.556.31-.371.39-.965 0-1.318-.37-.315-.98-.39-1.34 0z" fill="#65537A"/><path d="M1008.68 20.666c-2.03.91-4.42 2.227-5.9 4.027z" fill="#65537A"/><path d="M1008.21 19.868c-2.22 1.002-4.51 2.264-6.1 4.176-.32.37-.39.946 0 1.317.35.316.98.39 1.31 0 .38-.445.78-.854 1.23-1.225.09-.074.28-.222.32-.26-.04.038.09-.055.09-.074.05-.055.13-.093.2-.148.24-.186.5-.353.76-.52.99-.63 2.04-1.169 3.12-1.651.45-.205.59-.873.33-1.262-.29-.483-.79-.576-1.26-.353z" fill="#65537A"/><path d="M1011.65 20.09c.65.409 1.26.613 1.76.372-.58-.538-1.28-1.17-1.71-1.615.67-.482 1.47-.89 2.19-1.169-.74-.278-1.87.093-2.67.501.07-.686.17-1.707.24-2.394-.41.65-1.37.631-1.45 1.318-.91-.575-1.11-1.28-2.19-1.596-.07.687 0 1.447.49 2.115-.82-.148-1.84-.24-2.62-.185.61.76 1.82 1.15 2.36 2.023-1.06.241-2.42.668-2.99 1.577 1.2.39 2.3-.185 3.67-.055.11.983 1.3.26 1.67 1.41.91-.872-.26-.167.06-1.244.65.409 1.52.761 2.11.965-.14-.63-.55-1.447-1.13-1.985" fill="#65537A"/><path d="M1011.18 20.889c.73.445 1.64.798 2.47.464.61-.242.97-1.04.41-1.56-.58-.537-1.17-1.057-1.71-1.614-.05.483-.13.965-.18 1.466a9.644 9.644 0 0 1 1.96-1.076c.84-.334.91-1.485 0-1.782-1.13-.37-2.39.093-3.39.594.46.26.92.538 1.39.798.07-.798.15-1.596.24-2.394.04-.408-.32-.798-.69-.89-.42-.112-.81.092-1.04.426a.967.967 0 0 1-.26.167c-.14.093-.31.167-.46.26-.39.26-.74.631-.82 1.114.45-.186.91-.371 1.36-.557-.37-.241-.65-.575-.97-.872a3.59 3.59 0 0 0-1.44-.817c-.62-.204-1.14.316-1.17.891-.08.91.09 1.837.61 2.598.35-.445.7-.91 1.04-1.355-.95-.167-1.91-.278-2.86-.222a.936.936 0 0 0-.65 1.577c.35.408.8.705 1.24 1.002.36.241.75.483.97.835.18-.445.37-.91.56-1.355-1.36.316-2.75.817-3.55 2.005-.33.52.02 1.206.56 1.355 1.32.39 2.6-.13 3.91-.02-.29-.222-.59-.444-.89-.686.1.594.54 1.021 1.1 1.207.17.055.35.074.52.148.02 0 .05.019.07.019-.09-.038-.09-.038 0 .018 0-.018-.11-.223-.02.019.24.65 1.02.928 1.56.408.43-.427.86-.984.48-1.615a.912.912 0 0 0-.46-.408c-.17-.074.11.111.15.186.05.334.09.408.09.241-.02.111 0 .093.02-.037-.44.185-.91.371-1.35.557.72.445 1.54.798 2.33 1.057.69.223 1.3-.482 1.15-1.15a5.195 5.195 0 0 0-1.35-2.394c-.85-.835-2.17.464-1.32 1.317.45.427.74.965.89 1.578l1.15-1.15a8.833 8.833 0 0 1-1.89-.873c-.5-.315-1.22-.018-1.35.557-.12.427-.13.89.11 1.28.11.167.26.316.42.409.28.167-.01.018-.13-.205-.03-.148-.09-.315-.13-.463-.01-.186.08-.372.15-.427-.07.055-.15.167-.22.222.52.13 1.04.279 1.56.409-.24-.631-.61-1.095-1.26-1.318-.17-.056-.36-.093-.52-.148-.17-.056.09.092-.04-.019.22.204.22.353.17.074-.08-.427-.52-.65-.89-.686-1.14-.093-2.32.426-3.44.092.19.446.37.91.56 1.355.48-.724 1.63-.965 2.43-1.15.56-.13.87-.873.56-1.355-.35-.538-.82-.928-1.34-1.3-.41-.296-.83-.537-1.19-.927-.22.52-.44 1.058-.65 1.577.8-.055 1.58.019 2.36.149.73.13 1.54-.631 1.04-1.355-.35-.52-.41-1.04-.35-1.652l-1.17.891c.37.111.59.316.87.575.35.334.69.65 1.1.928.46.297 1.26.019 1.35-.556.04-.223 0-.019-.04 0-.09.018.13-.056 0 0 .15-.075.28-.149.43-.242.39-.222.71-.482.97-.853-.58-.149-1.15-.316-1.73-.464-.07.798-.15 1.596-.24 2.394-.08.76.83 1.076 1.39.798.58-.279 1.34-.613 1.97-.409v-1.78c-.86.334-1.67.742-2.42 1.262-.48.352-.63 1.002-.18 1.466.56.557 1.13 1.076 1.71 1.614.13-.52.27-1.039.4-1.559-.37.149-.68-.074-1.03-.278-1.08-.612-2.01.984-.99 1.615z" fill="#65537A"/><path d="M1009.42 19.552c1.19 0 1.19-1.855 0-1.855s-1.19 1.855 0 1.855z" fill="#65537A"/><path d="M1009.79 21.13c1.19 0 1.19-1.856 0-1.856s-1.21 1.856 0 1.856z" fill="#65537A"/><path d="M1010.51 19.887c1.19 0 1.19-1.856 0-1.856-1.18 0-1.18 1.856 0 1.856zm-1.81 1.039c1.18 0 1.18-1.856 0-1.856-1.19 0-1.19 1.856 0 1.856z" fill="#65537A"/><path d="M1008.57 19.33c1.18 0 1.18-1.856 0-1.856-1.19 0-1.19 1.856 0 1.856z" fill="#65537A"/><path d="M1009.1 18.569c1.19 0 1.19-1.856 0-1.856-1.2 0-1.2 1.856 0 1.856z" fill="#65537A"/><path d="M1010.29 18.588c1.19 0 1.19-1.856 0-1.856s-1.19 1.856 0 1.856zm-.07 2.041c1.18 0 1.18-1.856 0-1.856-1.19 0-1.19 1.856 0 1.856z" fill="#65537A"/><path d="M1011.09 21.687c1.19 0 1.19-1.856 0-1.856s-1.21 1.856 0 1.856z" fill="#65537A"/><path d="M1011.03 20.37c1.19 0 1.19-1.857 0-1.857-1.18 0-1.18 1.856 0 1.856z" fill="#65537A"/><path d="M1009.66 20.37c1.19 0 1.19-1.857 0-1.857s-1.19 1.856 0 1.856z" fill="#65537A"/><path d="M1009.81 22.15c1.19 0 1.19-1.855 0-1.855s-1.19 1.856 0 1.856z" fill="#65537A"/><path opacity=".1" d="M1286.87 407.107c9.27-57.738-30.02-112.057-87.76-121.325-57.74-9.269-112.06 30.024-121.33 87.762-9.27 57.738 30.03 112.057 87.76 121.325 57.74 9.269 112.06-30.024 121.33-87.762z" fill="#65537A"/><path d="M62.456 374.625c-3.52-5.845-3.828-13.981-3.862-20.613-.069-8.102.684-16.956 4.17-24.374 1.265-2.666 3.008-5.469 5.709-6.836 2.735-1.402 5.811-.787 8.444.546 4.204 2.12 8.443 5.573 9.81 10.222 1.436 4.922-.17 10.221-2.358 14.665-5.572 11.383-15.144 20.886-24.579 29.125-1.47 1.265.684 3.384 2.12 2.119 9.195-8.033 18.288-17.16 24.134-27.963 2.598-4.82 4.717-10.357 4.102-15.93-.615-5.674-4.136-9.776-8.649-12.955-3.213-2.291-7.178-4.103-11.212-3.521-3.316.478-5.948 2.563-7.897 5.196-5.127 6.939-6.324 16.716-6.734 25.057-.24 5.196-.034 10.426.752 15.588.581 3.794 1.436 7.828 3.453 11.178.99 1.641 3.589.137 2.597-1.504z" fill="#D67993"/><path d="M60.952 379.24c6.359-12.717 10.187-26.356 14.563-39.825.615-1.846-2.29-2.632-2.906-.786-4.307 13.195-8.033 26.63-14.289 39.107-.82 1.709 1.778 3.247 2.632 1.504z" fill="#D67993"/><path d="M57.876 382.761c.752-4.068.068-8.307-.82-12.272-1.231-5.299-3.111-10.426-5.402-15.383-4.17-9.059-10.153-19.28-19.075-24.408-3.486-1.983-7.623-2.94-11.52-1.743-4.751 1.47-8.443 5.572-10.836 9.776-6.153 10.769.41 21.434 8.922 28.476 9.913 8.204 22.664 14.289 35.176 17.297 1.88.445 2.666-2.427.786-2.905-10.187-2.462-20.203-7.076-28.886-12.888-7.76-5.196-17.878-13.947-15.075-24.476 2.085-7.931 10.118-15.588 18.528-11.759 8.375 3.828 14.015 13.229 18.015 21.092 2.53 5.025 4.615 10.323 6.05 15.793 1.026 3.965 2.018 8.443 1.3 12.545-.41 1.949 2.46 2.735 2.837.855z" fill="#D67993"/><path d="M57.158 382.248c-7.35-10.426-14.665-20.955-23.177-30.492-1.299-1.436-3.385.683-2.12 2.119 8.341 9.333 15.52 19.656 22.699 29.912 1.128 1.538 3.726.034 2.598-1.539z" fill="#D67993"/><path d="M57.705 381.941c-3.863-.308-7.828.444-11.588 1.264-5.162 1.129-10.256 2.701-15.213 4.547-9.298 3.487-19.45 7.965-26.356 15.349-2.427 2.598-4.615 5.914-4.546 9.606.068 4.033 2.803 7.247 5.914 9.537 4.307 3.213 9.981 6.119 15.485 5.641 5.88-.513 11.076-3.863 15.451-7.624 6.051-5.196 11.008-11.725 15.178-18.459 3.624-5.846 6.906-12.101 8.854-18.733.547-1.846-2.359-2.632-2.906-.787-3.35 11.418-10.426 22.528-18.46 31.211-3.93 4.273-8.614 8.512-14.186 10.46-5.435 1.915-10.084.411-14.904-2.358-3.043-1.744-6.735-4.308-7.35-8.034-.478-2.974 1.265-5.777 3.18-7.931 6.153-6.871 15.485-11.11 23.894-14.425 5.06-1.983 10.256-3.658 15.554-4.889 3.897-.889 8-1.743 11.999-1.435 1.914.205 1.914-2.804 0-2.94z" fill="#D67993"/><path d="M56.543 381.189c-8.376 7.52-16.819 14.972-25.81 21.775-1.504 1.162-.034 3.76 1.505 2.598 9.195-6.939 17.844-14.528 26.424-22.22 1.436-1.299-.684-3.418-2.12-2.153z" fill="#D67993"/><path d="M60.679 379.889c2.974 7.965 8.82 14.666 13.605 21.605 4.684 6.803 10.427 15.28 9.264 23.997-.547 4.308-3.282 9.572-7.452 11.35-3.965 1.675-7.862-1.06-10.358-3.966-3.623-4.239-5.196-9.845-6.324-15.178-1.196-5.64-2.12-12.135-1.367-17.912.547-4.205 2.188-8.307 3.282-12.375.717-2.666 2.392-7.11.82-9.777-.992-1.641-3.59-.136-2.598 1.504.547.889 0 2.701-.205 3.658-.41 2.085-.992 4.171-1.607 6.222-1.06 3.657-2.495 7.418-2.769 11.246-.513 6.632.41 13.674 1.949 20.101 1.299 5.333 3.179 10.631 6.87 14.836 2.667 3.042 6.496 5.538 10.7 5.128 4.786-.513 8.307-4.65 10.29-8.752 4.136-8.58.581-17.81-3.931-25.433-2.872-4.854-6.256-9.366-9.504-13.947-2.905-4.102-5.982-8.341-7.76-13.059-.683-1.846-3.589-1.059-2.905.752z" fill="#D67993"/><path d="M58.901 378.625c5.778 12.614 6.427 26.834 11.145 39.824.65 1.812 3.555 1.026 2.905-.786-4.82-13.229-5.538-27.655-11.451-40.542-.82-1.778-3.385-.24-2.599 1.504z" fill="#D67993"/><path d="M62.764 379.582c7.213-5.299 13.913-11.247 21.365-16.204 7.18-4.751 16.922-10.631 25.263-5.059 8.067 5.401 7.691 17.605.957 23.929-6.017 5.641-15.588 4.718-23.075 3.521-9.23-1.47-18.493-4.683-27.928-4.581-1.914 0-1.949 3.009 0 3.009 9.23-.069 18.323 3.111 27.382 4.512 8.34 1.299 18.186 2.051 25.091-3.76 7.452-6.29 8.922-18.289 2.701-25.912-3.18-3.897-8.102-6.051-13.093-6.016-4.444.034-8.751 1.948-12.614 4.033-10.085 5.401-18.426 13.264-27.621 19.964-1.47 1.094.034 3.692 1.572 2.564z" fill="#D67993"/><path d="M58.526 383.069c11.315-1.641 22.22-5.47 33.637-6.529 1.914-.171 1.914-3.18 0-3.009-11.691 1.094-22.835 4.957-34.424 6.632-1.914.274-1.094 3.179.787 2.906z" fill="#D67993"/></svg>