<svg width="578" height="120" viewBox="0 0 578 120" fill="none" xmlns="http://www.w3.org/2000/svg"><path d="M577.327 53.368c.524-1.387.814-4.96-.029-4.587l-1.279 5.708 1.308-1.12zm-4.04-12.855c-1.221 2.668-2.529 7.576-2.297 13.284 1.221-5.602 1.25-3.148 2.791-9.763.872-.533 1.221 2.294.872 4.481.436-1.44 1.017 1.76 1.861-1.813-.466-5.015-1.919-5.762-3.605-2.188-.175-1.387.203-2.88.378-4zm-82.181 1.92l.465.853c-.116-.427-.262-.693-.465-.853zm-50.204-21.551c.407 0 .64-.533.698-1.067-.407.267-.756.534-.698 1.067zm-8.372-9.336c.175.267.349.374.494.534-.145-.587-.348-.96-.494-.534zm58.576 30.888l-1.192-2.241c-.232 1.974.582 1.654 1.192 2.24zm71.192 11.95c.262-.32.436-.907.64-1.654-.204.267-.407.534-.611.694-.029.373-.029.64-.029.96zM512.85 39.231l.378-.053c.087-.694.175-1.547.233-2.508l-.611 2.561zm16.279-5.067c-.407-.107 0 5.014.088 7.308 0-2.187.174-3.254.465-3.787a31.259 31.259 0 0 0-.553-3.521zm28.547-.105l.465-.8c-.116.213-.32.48-.465.8zm-56.484 4.052c0-.747-.028-1.44-.086-1.867-.029.64.029 1.28.086 1.867zM26.161 108.103c-.087-.321-.145-.534-.202-.854.029.587.087.96.202.854zm-24.098-6.455l.174-.48c-.232-.907-.436-1.76-.697-2.614l.523 3.094zM415.931 1.46a.285.285 0 0 0 .087.108c.466-.534.204-.48-.087-.107zM269.128 45.527c1.512 4.695-2.703 5.762-.378 11.043-.174-2.027 2.297-7.949.378-11.043zm292.734 8.216c-.203.053-.436.16-.639.107.29.16.494.107.639-.107z" fill="#C4D4DA"/><path d="M268.75 56.569l.232.533c-.087-.213-.145-.373-.232-.533zM375.873 8.078c.145.853.378 1.493.581 2.133-.029-.533-.174-1.12-.581-2.133zm29.68 2.987l-.727-.693c.291.48.524.64.727.693zm-43.634 9.442c-.407-.214-.639-.907-1.075 0 .087.213.145.373.232.533.117-.747.32-1.174.843-.533zm-14.825 6.563c.145.32.261.586.407.906l.436-.48-.843-.427zM66.57 76.469c-.553-1.227-.99-2.615-1.396-4.055.814 3.36-1.018 5.762 1.395 4.055zm495.641-24.966c-.058 1.334-.145 1.974-.349 2.24.145-.053.291-.213.436-.32.029-.746 0-1.493-.087-1.92zm-196.077 8.96l-2.325.16a3.228 3.228 0 0 0 2.325-.16zm-198.402-3.467l-.552.48c.204.16.378.054.552-.48zm189.536 7.309c-.639-1.6-1.221-2.4-1.744-2.88-.029.426-.116.8-.087 1.44l1.831 1.44z" fill="#C4D4DA"/><path d="M53.052 92.953c2.064-1.28-.291-6.882-.582-10.883 2.093-3.52 2.064 3.948 3.547 6.669 1.192-2.668 1.25-9.283 2.47-9.763.291 1.014.582 1.227.553 2.72.698-6.134 4.767-3.36 5.581-10.829.233.48.407 1.014.524 1.44-.872-3.04-1.483-6.348-1.832-8.695.93-.64 1.076-5.121 2.18-1.067-.61.213-.377 1.92-.406 3.414l.697-2.4c1.919 5.601-1.017 2.88-.232 7.362 1.599-3.041 3.052-9.39 4.825-8.536 1.25 5.815-3.14 3.948-.32 8.162l-2.674-1.013c3.314 8.428-1.483.106 1.773 9.282 3.256.107 2.82-5.015 6.076-4.748.174-3.68-.988-4.801-.814-8.482 3.46-8.162 5.581 13.497 7.558 3.894.233-4.428-.465-12.27 2.355-9.176l.145 7.202c3.023-.533.407-10.562 4.1-7.255-.233 2.934-2.036 3.254-1.483 3.894 2.674 4.588.93-4.48 2.47-5.174l1.047 5.975c2.994-2.348 6.017-7.789 9.419-10.19-.03 1.92-.436 4.055.581 5.602 4.128-4.481 9.535-2.08 13.954.747l1.279-5.655c.378 0 .843 2.294.494 3.414 1.773 1.707-.116-3.414.552-5.708.93-.587 1.425 2.827.93 4.588 2.646-5.282 7.995-11.15 11.309-5.708l-.553 1.653c2.471 1.92 2.471-11.416 4.855-6.455l-.407.96c2.674 1.068 5.465.32 8.081.32 2.617.16 5.117 1.121 7.035 5.282.465-3.84 1.744-2.934 2.995-2.4 1.22.586 2.412.906 2.761-4.482 2.82 5.762 1.89 7.576 5.872 11.79 1.076.64 2.035-6.455 3.489-7.255l-.32 5.655 2.267-5.495.582 7.042 1.395-1.174c-.494-.427-.93-2.774-.727-4.374 2.239-2.134 4.71 5.174 4.506 8.055 1.715-1.12 3.46-2.347 5.204-3.36-.32 2.24-1.192 2.72-1.948 4 3.081-4.961-.058 6.028 2.762 1.547-.204-1.387.465-3.254.639-4.374.872 3.787 3.518 4.588 5.669 3.894l-.785 3.681c3.488 2.24 7.762.854 11.831 2.507-1.25-2.347-.174-8.855 1.105-9.015l-.203 6.028c1.191-3.308-.989-2.667 1.104-6.508 1.454 1.28.262 7.041-.843 8.642l2.093-1.334c-.087 1.814-.639 2.56-1.017 4.748 1.192-3.308 2.529 7.149 4.36 1.28l-.058 1.76c4.099 1.655 6.221.428 9.622 1.495.669-5.015 1.861-3.361 3.343-7.042 2.297 2.614 4.622 7.682 7.704 8.375 2.413-1.707 1.104-4.054 2.384-6.722-.349 4.695 2.732 5.389.784 8.11 3.75.586 4.826.8 9.855-1.388-.32-2.08-.814-3.04-.378-4.534.93-.48 1.744 2.56 1.396 4.748l-.262.426c2.965-2.667 5.64 1.707 8.401 5.495 2.704 3.841 5.407 7.309 7.907 2.828l-.261.426 4.767-4.16c2.035 1.173-1.424 3.307-.029 6.454 5.262-7.148 7.733 2.294 11.977-2.774 1.453 7.042 4.36 6.989 7.354 5.922 1.512-.48 3.024-1.12 4.448-1.12 1.425-.107 2.762.48 3.925 2.56l-.378-3.254c.988-3.36 1.424 1.707 2.296 2.347-.232-2.507-1.337-2.774-.727-4.64 9.099-5.176 19.448.586 29.099-.161 3.46-.534-.087-17.285 5-11.363l-.436 6.402c5.756-9.923 13.547-5.762 18.983-14.778-.174 1.548.058 3.308-.552 3.575 1.947 3.627 4.942-2.134 4.447-5.655 1.018-.053.669 3.04 1.541 4.534 1.686 1.868 2.529-7.041 3.837-3.147.204.64-.174 1.547-.378 2.027.553-2.454 4.07-1.387 2.559-5.921 2.645 1.28 4.127-4.268 6.366-2.188.465-6.134 4.273.907 3.634-7.095.901 8.162 4.854 4.695 5.843.374-.175 2.667 1.569 2.027 1.395 5.654 1.628-.746 2.936-2.88 2.18-6.935 4.099 8.483 5.262-10.029 8.256 1.867 4.39-5.974 8.692-10.136 12.994-12.856.291 8.269-4.796 1.814-4.011 10.403 3.779-4.162 5.901-11.897 10.116-10.243 1.105 1.014-.494 3.68-.785 5.121 4.012-4 7.849.107 11.541-4.268-.029.747-.436 1.6-.814 2.188.727-.267 1.657 1.28 1.628-2.508l-.727 1.014c-1.134-5.548 3.111-11.256 3.372-14.084-1.54 10.67 3.692 3.041 1.279 16.485.494-.64 1.163-2.348 1.134-4.908.698.8.872 2.293.058 5.068 2.675-1.76 1.919-5.815 4.303-5.389-.088 1.814-.611 2.455-.96 4.535 1.367-3.36 2.791-6.668 4.739-4.801-.175 1.067-.029 2.56-.64 2.4 3.488.16 6.628-8.162 10.262-3.68-1.774 7.521 1.104 2.934.726 9.815l2.239-1.44-.523-3.52c1.802.64 3.866-3.789 5.232-1.014l-1.628 2.347 3.547-.16-1.686-3.201c2.209-2.88.639-8.589 2.907-5.922-.582.48 1.831.747 2.383 5.015 1.134-1.814 2.326-3.734 3.489-1.547.116 2.294-1.105 7.308-1.047 8.855 1.512-5.28 4.448.054 6.279-5.44-.552 1.226-.959 4.747-.93 5.547l1.279-4.268c.669 1.814.727 2.561.262 5.282 2.471 1.867.203-8.856 2.791-3.948-.291.267-.262 1.014-.843 1.494 2.819 3.147 6.25-.48 8.837 2.88.029 7.096-2.675.64-2.384 6.722 4.244.427 9.448-4.694 13.256-1.653l-.669-1.014c1.57-9.336 2.471 5.761 5 1.974-.581.533-1.191 5.121-.959 4.054 2.645 2.454 5.959-.48 10.436-2.454l-.727 2.347c1.483 2.668 4.303 2.348 6.076 3.788.669-2.4 1.686-1.76 1.25-5.495 2.413 7.576 5.291 6.029 7.936 4.002 2.704-2.081 5.116-4.482 7.733 1.28-.611.053-1.425 2.24-.93 2.24 1.453-.853 2.877-1.653 4.302-2.614-.494-4.214-.669-2.507-1.628-5.708.465-2.56 1.57-4.694 2.587-4.801-1.744 3.04.262 6.775 1.221 9.069-.203-1.28.029-2.72-.116-4.054 2.587 7.148-.058-8.536 3.139-4.055l-.029 2.24c1.047-1.333 1.832-4.534 3.053-4.214.872 4.748-.989 2.561-.756 6.615 1.686-.746 2.529-10.029 4.448-5.708-.582 1.6-1.57 1.92-2.181 3.414 2.151 5.282 2.21 3.681 3.547 4.215l-.146-.107 3.111 1.654-.872-1.28c.785-13.337 3.982-3.788 5.814-13.017-1.803 8.802.058 4.641.465 10.19.872 1.226 2.151 2.56 2.006 4.214.814-4.908 2.529 2.667 3.633-4.481.291 1.707 1.367-.32 1.599 4.16 1.483-1.973-.726-2.934-.843-5.174 1.919-6.935 6.715 5.068 9.477-4.268 2.791-4.268 2.936-10.456 5.785-14.03 1.163 2.667-.436 6.615-.436 6.615 1.744 2.347 2.878 1.547 4.302-.587-.261 1.6.117 2.88.611 4.855 1.134-.587.639-6.615 2.238-4.055-.232 1.974-.523 5.228-1.017 7.255 1.279-1.813 2.587-5.014 4.04-6.668.32 3.094-.901 4.748-1.366 6.775 1.541-1.547 3.954-2.507 4.709-7.415l-.959-1.867c.611-.16.146 4.267-.32 5.121-1.424 3.734-1.86-1.92-1.947-3.734.349-.427.697-.694 1.046-1.067-.407-5.335-1.54-4.908-2.761-3.254-1.221 1.6-2.442 4.587-3.489 4.427l.698-7.788c-.698 2.187-1.395 4.374-2.035 6.562-.523-1.921-1.046-6.135 0-7.416-1.773-3.627-1.279 2.934-2.849-1.067-.174-.64-.145-1.013 0-1.333l-1.424 2.56c.203-1.654-.582-5.334.436-4.374-3.169-3.841-4.128 6.775-5.611 1.28l.204-.533c-3.634 3.734.087 5.654-2.122 13.016l-3.227-13.016.174 5.654c-.407-.053-1.221-.213-1.308-2.454-1.075 4.268.494 2.294.029 6.189-2.413-4.375-4.884 4.214-6.279-4.375-.203 4.428 2.151 2.561.494 6.189-1.628-9.23-2.122 2.507-4.302-1.174-.029-5.068 1.86-3.094-.32-6.775-.087 8.589-3.488-.534-4.709 1.494.639 6.561-2.791 3.84-4.942 6.721-.058-2.24-4.767-2.24-7.035-4.32v-1.121c0 6.828-2.325 6.028-3.924 7.522-.088-4.054.145-5.655.93-7.575l-1.483.213c-.261 2.187-.697 3.414-1.686 4.268l.262-5.068c-1.919.373-3.954 6.188-6.57 2.72-.232 4.695 2.093 13.124-.901 16.218-.087-2.56-.116-6.882.639-7.949-.232.32-.901 2.134-1.395.96l1.192-4.214c-1.192-1.92-.698 3.574-1.657 3.094.087-3.627-.669-2.667-.465-5.494.262-.32.814 1.547 1.221.16-1.076-.747-2.326-2.988-2.675-5.762.029 2.08-.145 4.855-.959 5.281-2.064-.053-.552-4.427-1.628-6.508-.61 2.454-1.773-.32-2.064 5.068-.61-.107-.581-2.667-.727-4.161-1.162 2.187-4.941-.32-4.157 5.655l.262.426c-.058.107-.116.107-.203.214-3.954 4.534-7.093-4.908-10.756-3.788l.174-1.76c-2.296 1.334-4.738-.374-6.657 2.88-.61-.213-1.105-3.787-.61-5.814-1.745.747-2.151 2.667-4.128-1.174 1.947-2.454-.233-2.934 1.918-1.654-1.889-2.347-2.005-5.334-4.825-1.387 1.308-4.214-.872-6.348-2.035-5.388l1.075 3.841c-1.191.214-2.122-.587-3.052-1.387l1.25-5.761c-3.401-9.016-9.215 9.229-11.076-4.215-1.627 3.735 2.006 3.895.407 8.376-1.889-1.6-3.023-10.99-3.633-11.257-2.413-4.32-3.547 7.79-6.192 4.535.145 2.294-.116 8.109-2.442 9.39-1.919-1.441-1.57-9.817-.116-11.097.494 0 .668.747.581 1.44.727-.587 1.686-1.173 1.134-3.787l-.523 2.027c-.785-2.507-3.634-3.254-2.617-6.509-1.744 1.547-.988 3.308.029 4.802-2.325-3.948-4.099-1.387-6.628-4.268.349 1.334.524 3.948.088 3.788-3.779-3.735-2.093 3.574-4.826 3.84-1.279-3.68 1.134-7.735-1.802-5.6-1.512-2.615.029-5.816.843-7.416-2.791 3.574-4.564-3.788-6.018-4.801l1.454-1.494c-.872.907-1.541.747-2.21.587l.553 4.48c-.756-.906-1.425-1.066-1.308-2.827-.96 2.721.261 7.309-1.541 10.937-.93-2.348-3.256 1.867-3.401-3.895 3.226 2.4-.146-5.868 2.732-6.401-.581.586-1.25.48-2.006-.374a1.962 1.962 0 0 1 .407-1.494c-3.052-5.494-1.715 6.295-5.029 5.869.494-3.201-.639-6.242-1.192-5.602 1.367.16.524 5.495-.755 7.896-2.064-2.668-2.326 1.813-3.431 1.44l1.25 1.227c-.465 3.254-1.482 2.774-2.936 3.788-.116-2.561 1.338-1.76.814-2.881-1.599 5.708-3.692-5.922-5.959-1.974-1.105-2.134-.204-6.135-1.192-7.522-2.5 4.535-2.965-4.161-5.61-.373.959 4.267 1.046 3.2-.669 7.682l4.331-3.575-2.616 6.669c1.308-.107 2.704-3.041 3.518-2.4-1.25 3.733-1.134 2.613-.407 6.187-2.006-6.348-3.373 4.215-5.611.054l-.465-10.83c-3.459-4.107-5.32 6.562-9.506 4.908l1.425 1.494c-.204 4.428-2.413 1.28-3.576 3.36-.174-3.627-1.105-4.694-1.861-6.774.291 2.614-2.994.586-2.674 7.895l-2.238-4c-3.431-.748-2.588 11.309-5.698 11.309.465-4.215-1.192-6.189.523-9.763-1.017.374-2.006.107-1.744 2.56-.872-1.973-2.238 5.922-3.576 2.881-.232 1.708.088 5.495-1.075 5.655-.204-.64-.204-1.76-.204-1.76.204 1.76-1.453 3.147.029 6.615-4.476-9.71-8.401 4.535-12.325-3.628-2.006 2.188-4.419 4.535-6.308 5.762-.029-1.12-.233-1.76.174-1.547-3.139-1.974-.203 10.883-3.779 8.695-2.355-4.908 1.163-3.84-.116-5.548-2.064-11.363-3.431 3.361-6.425-2.4l.407-.907c-2.122-3.148-3.168 6.188-5.814 6.561 0 0-.029-1.066-.232-1.76-.902 6.722-3.925 10.19-6.163 12.91.174-4.855.785-2.88-.291-7.309-1.017 1.12 1.308 7.256-.727 9.55-1.046-2.188-2.907-3.628-3.721-8.536l2.006-1.174c-1.86-5.868-2.616 1.334-3.837.694l-.203-2.828c-2.995 2.134-2.21 9.336-5.669 10.03l.581 1.974c-1.104 7.682-1.976-3.415-3.285 2.507l-1.279-6.935c-1.017 2.187-3.604 8.322-5.726 10.296.814-5.708 3.11-9.07 4.36-12.804-1.192.427-3.983 1.708-4.302 5.495.436-.853.872-2.774 1.453-1.814-.959 6.029-2.732 9.443-5.174 9.923-.553-14.084-6.57-2.027-8.808-12.803-1.948 2.827-4.041 2.614-6.192 1.653-2.151-1.067-4.361-2.614-6.745-2.187 1.657 11.043-1.424.214-1.22 11.47-1.163.64-1.628.427-1.716-.32l-3.343-6.882c-.726-3.307 1.134-2.4 1.105-4.961-2.413-1.014-.901-4.855-2.384-8.002.204 4.054-1.046 5.601-2.383 3.894l1.773 5.441c-3.721 5.442-2.558-9.709-6.308-4.48l1.279-3.148c-1.89 1.654-6.483-1.28-8.925 7.095-.232-1.387-.407-4.535.436-5.121-4.128-2.348-10.465 6.775-13.343.213l.611-2.56c-.901.48-1.919 4.587-2.675 1.493.175-1.12.611-2.56.233-2.88-.523.693-2.646 3.894-3.576 1.973l1.25-2.72c-3.866-5.015-7.354 4.96-11.192 5.44.931-7.895-2.18-11.789-3.721-13.763l.204-1.12c-4.913-2.987-9.361 3.094-14.448 4.374-1.918-9.762-9.564-7.468-13.895-13.977.581 1.708-.756 6.135-1.686 6.669-.96-2.027-3.663 4.428-2.762-2.774l.407.267c-.145-7.416-2.704-6.295-4.535-7.096l-1.163 9.496c-1.744-7.735-5.116-7.255-8.11-6.615-3.053.747-5.756 1.867-6.744-4.694-1.338 2.133-2.82 1.92-4.099 4.16l.319-5.174c-3.255-1.76-4.941-2.774-9.098-1.974l.959-3.68c-2.355-.481-3.314 14.83-5.407 14.99l-.494-7.789c-2.006 0-4.012-1.867-6.047-2.667-2.035-.747-4.07-.64-6.017 2.987.058-1.12.145-3.414.785-3.734-1.977-.267-7.588-4.961-6.599 5.708-.233-6.935-4.186-.213-6.163 3.094l.145-5.121c-1.599 6.775-1.57 8.429-3.982 10.723-.611-.534-.727-4.002.145-2.828-2.122-2.294-1.279 5.121-3.808 2.88l.698-3.413c-2.064 0-1.803 1.707-2.675 5.708-1.134 2.294-3.895-.587-4.535-5.015-.087 2.88-.901 6.935-2.18 5.922a7.158 7.158 0 0 1 .233-3.468c-3.663-2.507-4.506 7.255-7.268 2.934-.203-1.653-.436-2.454-.669-2.88 2.704-.64 4.884-.96 4.71-.534-.378-4.695-2.646-4.855-1.425-11.79-1.511 4.001-3.808 12.43-6.133 11.043-.117-.48-.262-.853-.407-1.547l.174-.587c-.523-.266-.93.267-1.279 1.227-.756-.533-1.25-.96-1.89-.8-.64-3.734-2.732-1.174-3.837-1.014.64 5.015-.843 4.695.93 8.43-.203-.32.146-.694.814-1.121.146-.213.32-.373.407-.694 0 .16-.029.32-.029.48.698-.373 1.6-.853 2.646-1.28-.582 2.881-1.221 5.335-2.704 2.934-.203 3.468-.407 6.989-.581 8.696-2.239-6.562-5.495-9.122-6.425-13.283-2.936 4.214-7.529 5.12-8.197 15.577-.727 1.654-1.425-2.187-1.977-3.468.378-1.227 1.046-1.387 1.134-2.88-1.483 3.307-5.291 3.627-4.71 10.349-2.732-1.814.35-6.668-2.616-4.001l.116-2.24c-3.924-3.468-5.785 2.133-7.703 7.308-1.948 5.121-3.867 10.243-8.46 5.761.61.534.93.747 1.221 1.76-8.837-1.013-14.418 15.898-23.75 12.537-2.529-.213-1.802 4.001-2.325 8.056l-1.657-4.695-.727 7.629c-1.948 6.722-8.401-8.055-10.175 3.414l1.367 2.934c-1.541.587-3.78 5.815-4.593 1.76.029.748.494 3.895-.524 2.615l-.755-2.56c-.727 2.453-1.396 5.014-2.093 7.521-3.082.587-2.442-10.67-6.367-7.575C.173 85.75-.524 94.66.493 95.887c.61-.427 1.89.213 2.675 2.774l-.872 2.507c1.947 7.789 3.284 16.378 7.79 18.832l.785-6.615 1.715 3.041-1.744 1.867c1.977 2.507 1.744-1.12 1.86-3.948.727 1.814 1.396 2.881 2.006 3.254l.03-9.229c1.075 2.774.697 6.829 2.529 7.149.029-4.268-2.762-5.868-1.774-9.549 1.977 2.56 2.413 5.708 2.82 1.653.698 1.814.785 3.308.552 4.588.407-3.307 2.53-3.467 2.006-8.055 2.18 3.414 3.285-4.321 5.058 3.094-.116-2.081.407-7.309 1.338-8.482.407 10.296 3.808-2.508 5.64 7.362-.611-9.07 3.924-7.469 5.26-13.657 0 .747.059 2.24-.26 1.974 1.482-.374 2.441 1.76 3.633 2.667-1.337-6.775.436-9.922.669-14.884 3.052 5.175.697 8.59 2.587 14.404-1.28-5.388 1.686-7.469.145-11.576 2.122 3.094 1.512 1.173 3.343 6.294-1.54-8.535.872-2.24.872-8.162 2.704 2.881 2.093 7.576 3.576 3.575 1.482 1.974.32 6.188.32 6.188zm46.831-39.797v.107c-.436.266-.785.48-1.017.64.232-.107.523-.32 1.017-.747zm4.274-1.334c-.553-.053-1.192.107-1.89.32-.291-1.76-.32-3.627.145-3.627-.145 1.227.96 1.974 1.745 3.307zM91.366 19.654c.64-.96.988-.053 1.192.96a5.91 5.91 0 0 0-1.192 1.067c0 .16 0 .427-.03.64 0-1.013-.028-1.974.03-2.667z" fill="#C4D4DA"/><path d="M90.784 26.75c-.087.16-.116.373-.261.48.203.373.378.746.552 1.013l.087-1.654a.586.586 0 0 0-.378.16zm400.874 16.642l-.087-.16c.058.213.116.427.145.8-.029-.267-.029-.427-.058-.64zM162.907 58.49l.087-1.28-.436 1.067.349.214zm353.199 3.895c.058.427.203.907.407 1.28-.029-.373-.204-.8-.407-1.28zm11.105-1.601l1.715 1.334c-.785-.8-1.308-1.12-1.715-1.334zm8.458-.319c0-.907-.029-1.6-.086-2.24l-.029-.054.115 2.294zM405.815 45.633c-.116 0-.204.107-.291.214-.668 1.013-.203.64.291-.214zm37.645-3.841c-.494.8-.988 1.547-1.453 1.974.639.587 1.134.854 1.453-1.974zm-77.066 18.671v-.107c-.086.054-.173.054-.259.107h.259zm73.898-17.443c.552 1.227 1.134 1.227 1.715.693-.494-.48-1.076-1.227-1.715-.693zm128.314 11.898l.32.267c0-.32.029-.64.058-.8l-.378.533zm.407-.588l.407-.587c-.203 0-.349 0-.407.587zm1.25-1.762l-.843 1.227c.262 0 .582.213.843-1.227zm-11.221.322l-.029 1.866c.058-.373.058-.96.029-1.867zm-2.994 1.172c.785.213 2.035 3.627 2.936 2.24l.029-1.494c-.29 2.881-2.442-4.107-2.965-.746zm-15.407-18.618l2.878.48c-.698-1.814-1.599-4.215-.407-5.122-4.099-4.587 1.192 4.108-2.471 4.642zm-8.663.322c1.338-1.44-.319-2.827-.378-3.948-.726 2.08-.901 2.614.378 3.948zm-58.489-2.243l.669-4.534c-1.192.213-.233 1.76-.669 4.534zm-14.273 19.204l.727 3.308 1.018-4.001-1.745.693zm-2.907-35.42l.553-.48-2.064.907 1.511-.427zM349.1 21.413l1.104 5.441c.611-1.334-.087-7.735-1.104-5.441zm-42.239 25.342c-.785-2.667-2.151-4.054-2.587-1.013.988.053 2.18 1.92 2.587 1.013zM178.023 15.438l1.105-1.653-1.89 1.12.785.533z" fill="#C4D4DA"/></svg>