<svg width="1202" height="488" viewBox="0 0 1202 488" fill="none" xmlns="http://www.w3.org/2000/svg"><g clip-path="url(#a)" fill="#D67993"><path d="M84.74 114.454c-7.171-2.894-13.929-6.755-20.102-11.407-6.074-4.573-11.592-9.872-16.552-15.635-5.048-5.862-9.527-12.208-13.53-18.812-4.015-6.62-7.55-13.513-10.7-20.582-3.095-6.95-5.83-14.059-8.253-21.274-.296-.867-.583-1.74-.865-2.605-.24-.726-1.372-.379-1.14.352 2.369 7.261 5.025 14.433 8.056 21.447 3.092 7.166 6.55 14.18 10.487 20.92 3.924 6.74 8.317 13.211 13.274 19.227 4.894 5.937 10.33 11.442 16.348 16.241 6.032 4.803 12.624 8.888 19.672 12.016.917.409 1.84.791 2.762 1.173.71.293 1.253-.769.543-1.061z"/><path d="M19.561 28.707c-.658 3.287-1.068 6.628-.85 9.983l1.096-.348c-1.946-2.696-4.775-4.492-7.308-6.585-.588-.49-1.388.392-.795.89 2.435 2.014 5.226 3.751 7.093 6.344.333.463 1.135.269 1.096-.348-.202-3.257.192-6.493.829-9.683.149-.75-1.012-1.002-1.16-.253z"/><path d="M24.326 38.589c-.387 3.838-.683 7.689-.686 11.553.33-.153.663-.32.993-.472-4.323-2.975-8.42-6.263-12.73-9.236-.622-.432-1.422.45-.794.89 4.323 2.977 8.42 6.264 12.73 9.237.408.285.994.087.992-.471.01-3.761.29-7.507.665-11.254.076-.75-1.09-1.011-1.17-.247z"/><path d="M29.84 48.192c-.056 4.707-.233 9.408-.19 14.122l.718-.604c-5.04-1.576-9.02-5.366-13.821-7.477-.7-.311-1.242.75-.543 1.062 4.9 2.153 8.95 5.96 14.106 7.568.386.12.728-.254.718-.604-.039-4.705.133-9.415.19-14.121.02-.763-1.17-.711-1.178.054z"/><path d="M35.689 58.78c.733 4.973 1.246 10.158.625 15.168l.847-.401c-4.982-1.78-9.419-4.766-14.14-7.083-.687-.331-1.235.722-.542 1.061 4.726 2.325 9.166 5.297 14.14 7.083.322.114.798.022.847-.401.632-5.124.156-10.38-.595-15.472-.103-.754-1.3-.71-1.182.046z"/><path d="M42.042 69.081c.2 5.03.628 10.138 2.023 14.995.23-.254.458-.509.693-.754-4.743-1.482-9.247-3.665-14.118-4.755-.752-.171-1 .998-.253 1.16 4.871 1.09 9.366 3.279 14.118 4.755.447.141.81-.366.692-.753-1.372-4.764-1.774-9.759-1.972-14.694-.034-.775-1.217-.728-1.183.046zm6.428 11.583c.268 2.693 1.177 5.294 2.267 7.767 1.118 2.538 2.433 4.974 3.829 7.37l.631-.905c-4.608-1.605-9.634-1.086-14.242-2.69-.72-.252-.967.917-.253 1.16 4.608 1.605 9.635 1.086 14.242 2.69.524.187.863-.506.632-.904-1.345-2.297-2.623-4.638-3.69-7.078-1.042-2.362-1.956-4.877-2.21-7.459-.088-.764-1.279-.712-1.206.05zm36.477 33.205c-4.944-1.46-9.089-4.788-12.54-8.514-3.777-4.087-6.861-8.797-9.61-13.616-2.56-4.465-4.821-9.098-7.035-13.749-3.098-6.508-5.534-13.262-7.49-20.194-1.125-3.973-2.102-7.992-3.029-12.008-.47-2.063-.939-4.127-1.386-6.193-.444-2.08-.875-4.156-1.681-6.134-.276.236-.566.47-.842.707 2.428.948 4.585 2.475 6.567 4.137 2.194 1.824 4.22 3.85 6.179 5.92 4.043 4.261 8.147 8.542 11.622 13.287 4.098 5.604 7.566 11.708 10.222 18.12 1.19 2.871 2.214 5.816 3.214 8.762.993 2.916 1.908 5.858 2.662 8.844 1.667 6.63 2.598 13.615 1.35 20.406.326-.102.653-.205.974-.316-2.753-3.01-4.155-7.006-5.51-10.782-1.427-3.98-3.016-7.88-4.689-11.762-2.596-6.022-5.342-11.983-8.49-17.735a1232.635 1232.635 0 0 0-7.232-13.039c-2.794-4.98-5.627-9.947-8.544-14.86-2.208-3.715-4.413-7.481-6.949-10.986-.2-.276-.406-.56-.615-.83-.462-.606-1.471.042-1.002.644 2.459 3.198 4.517 6.737 6.594 10.193 2.915 4.855 5.724 9.765 8.508 14.692 2.547 4.521 5.063 9.05 7.553 13.594.856 1.555 1.72 3.103 2.544 4.665 2.032 3.83 3.769 7.849 5.518 11.812 1.732 3.938 3.468 7.898 4.93 11.951 1.374 3.788 2.604 7.74 4.849 11.124a17.399 17.399 0 0 0 1.726 2.207c.305.327.906.096.974-.316 1.126-6.131.54-12.41-.777-18.458-1.334-6.13-3.382-12.113-5.609-17.968-2.473-6.517-5.792-12.74-9.735-18.491-3.516-5.123-7.719-9.614-11.927-14.15-2.238-2.412-4.522-4.784-7.015-6.927-2.212-1.907-4.641-3.71-7.383-4.778-.427-.166-1.046.184-.842.707.746 1.827 1.173 3.75 1.579 5.677.395 1.838.805 3.678 1.217 5.505.834 3.648 1.703 7.297 2.668 10.908 1.958 7.288 4.354 14.46 7.554 21.295 4.576 9.754 9.39 19.711 16.506 27.905 3.809 4.376 8.46 8.27 14.11 9.943.793.18 1.046-.981.312-1.199z"/><path d="M84.375 114.367c-1.179-13.587.056-27.394 3.15-40.659.852-3.65 1.857-7.266 3.025-10.833-.326.103-.652.206-.973.317 3.084 3.248 5.248 7.302 6.712 11.507a44.641 44.641 0 0 1 2.497 13.918c.08 4.085-.32 8.441-1.814 12.277-1.16 2.967-2.576 5.908-4.388 8.546-1.695 2.467-4.72 6.085-8.038 4.139l.314.655c1.287-6.638 3.26-13.134 4.837-19.709 1.635-6.837 3-13.87 2.817-20.93-.097-3.742-.676-7.494-1.978-11.02-.262-.722-1.397-.362-1.14.353 2.334 6.356 2.249 13.292 1.356 19.915-.946 6.965-2.791 13.772-4.56 20.565-.915 3.499-1.824 7.006-2.504 10.556a.606.606 0 0 0 .314.655c3.111 1.828 6.183-.347 8.202-2.736 2.296-2.735 3.97-6.032 5.35-9.307 3.474-8.209 3.007-17.987.469-26.4-1.533-5.088-3.981-9.992-7.651-13.875-.335-.355-.853-.07-.974.316-4.247 12.984-6.486 26.71-6.626 40.372-.04 3.805.092 7.618.429 11.419.056.772 1.247.72 1.174-.041z"/><path d="M93.498 68.779c-.918 1.421-1.458 2.968-2.059 4.53l.927-.167c-1.41-1.364-2.489-3.024-3.9-4.388-.556-.534-1.343.351-.794.89 1.41 1.364 2.489 3.025 3.9 4.389.256.251.792.18.926-.167.6-1.563 1.135-3.118 2.053-4.54.174-.265 0-.665-.261-.794-.297-.166-.619-.02-.792.247zm2.979 5.158c-1.916 1.124-3.67 2.5-5.016 4.291-.193.255-.213.612.04.841.225.201.649.214.842-.04 1.286-1.718 2.928-3.01 4.769-4.085.672-.397.03-1.398-.635-1.007zm1.223 3.957c-1.186.69-2.452 1.253-3.632 1.951-1.112.656-2.09 1.485-2.845 2.529-.188.263-.213.612.041.84.224.202.648.215.841-.04.733-1.006 1.628-1.759 2.704-2.378 1.16-.674 2.373-1.227 3.533-1.9.664-.392.013-1.388-.643-1.002zm.885 4.47c-2.71 1.573-5.663 2.674-8.378 4.24-.67.382-.012 1.386.643 1 2.71-1.573 5.663-2.674 8.378-4.239.656-.385.013-1.386-.643-1.001z"/><path d="M98.501 87.1c-2.773 1.603-5.813 2.83-8.75 4.122l.58.127c-1.764-1.767-3.604-3.521-5.163-5.468-.472-.587-1.479.047-1 .644 1.626 2.033 3.533 3.874 5.369 5.714.13.13.404.204.58.127 1.258-.558 2.507-1.111 3.754-1.686 1.775-.808 3.59-1.592 5.279-2.57.65-.394.007-1.395-.649-1.01z"/><path d="M91.028 86.79c-1.375-2.327-3.193-4.344-4.56-6.675-.39-.664-1.386-.013-1 .643 1.374 2.326 3.192 4.343 4.559 6.674.385.656 1.386.013 1.001-.643zm1.134-4.342c-1.568-2.7-2.92-5.564-5.001-7.936-.215-.242-.644-.169-.841.041-.238.26-.16.602.04.841 2 2.281 3.284 5.094 4.795 7.689.397.672 1.398.03 1.007-.635zm.28-4.672c-1.261-2.15-2.75-4.283-4.543-6.02-.557-.533-1.343.352-.795.891 1.722 1.663 3.135 3.715 4.342 5.78.377.662 1.373.01.996-.651zm-2.9 17.359a546.573 546.573 0 0 1-4.208-4.202c-.141-.147-.297-.297-.439-.443-.04-.045-.087-.099-.136-.138-.1-.102.014.003.046.053.029.1.066.195.095.296-.24.2-.479.402-.718.603-.085-.04-.176-.089-.261-.13.255.194.62.208.841-.04.201-.224.205-.643-.04-.841-.1-.08-.16-.1-.281-.141-.373-.117-.737.26-.718.603.014.336.38.612.593.832.38.386.766.767 1.145 1.154.887.88 1.77 1.775 2.657 2.656.207.211.422.417.63.629.54.545 1.334-.346.794-.89zm-1.032 3.944c-1.29-1.287-2.58-2.574-3.876-3.87-.186-.178-.368-.37-.554-.547-.54-.545-1.334.346-.794.89 1.29 1.287 2.58 2.574 3.875 3.87.186.178.368.37.554.547.534.537 1.334-.346.794-.89zm-1.299 2.901c-.506-.4-1.004-.805-1.499-1.224a24.167 24.167 0 0 1-1.128-.998c-.156-.15-.306-.291-.445-.452-.005-.008-.095-.093-.087-.098 0 0 .1.137.006.008-.033-.05-.079-.104-.111-.154-.165-.275-.56-.354-.83-.181a.608.608 0 0 0-.18.829c.334.558.915 1.017 1.393 1.447.552.489 1.115.959 1.695 1.419l.37.297c.254.193.615.199.84-.041.227-.24.231-.659-.024-.852z"/><path d="M98.5 91.095c-3.092 1.497-6.3 2.738-9.533 3.922-.722.263-.362 1.398.353 1.14 3.332-1.212 6.625-2.507 9.82-4.047.69-.349.039-1.345-.64-1.015zm.007 4.582c-3.214 1.862-6.774 2.758-10.428 3.25-.753.104-.715 1.292.052 1.191 3.87-.524 7.615-1.467 11.019-3.44.67-.382.018-1.378-.643-1zm-1.245 4.151a14.585 14.585 0 0 1-4.887 1.403c-1.662.188-3.338.242-4.987.505-.743.121-.705 1.309.051 1.191 1.739-.272 3.501-.323 5.241-.537 1.843-.221 3.558-.752 5.225-1.561.688-.335.037-1.33-.643-1.001zm-1.427 3.828c-2.96 1.389-6.355.932-9.456 1.747-.744.192-.383 1.327.352 1.14 1.597-.419 3.24-.488 4.877-.659 1.69-.182 3.32-.493 4.861-1.221.291-.139.335-.571.18-.829-.188-.294-.527-.303-.814-.178zm-2.638 5.295c-2.616-.15-5.24-.165-7.847-.32-.322-.02-.577.323-.568.614.01.35.293.549.614.568 2.616.15 5.24.165 7.848.321.321.019.576-.323.568-.615-.011-.35-.293-.549-.615-.568z"/></g><path d="M1052.71 474.458c5.94-1.676 12.1-1.97 18.18-2.814 3-.413 5.92-1.046 8.82-1.929a122.28 122.28 0 0 0 8.33-2.884c5.48-2.12 10.81-4.591 16.06-7.243 4.85-2.456 9.73-4.911 14.43-7.649 5.16-3.012 10.03-6.578 13.88-11.183.41-.486-.29-1.203-.69-.706-6.91 8.247-16.87 12.906-26.24 17.73-5.26 2.702-10.6 5.263-16.09 7.463-5.42 2.171-11.02 4.199-16.8 5.147-6.71 1.098-13.55 1.255-20.13 3.105-.61.175-.36 1.137.25.963z" fill="#D67993"/><path d="M1132.31 440.835c5.85-3.636 11.03-8.279 15.7-13.297a113.586 113.586 0 0 0 13.26-17.389 98.17 98.17 0 0 0 5.11-9.224c1.02-2.09 2.08-4.231 2.7-6.475 1.01-3.651 1.47-7.517 1.65-11.295.09-1.84.11-3.7-.11-5.522-.14-1.251-.33-2.673-1.07-3.73-2.01-2.868-5.11 1.554-6.12 3.094-3.63 5.447-7.02 11.087-9.94 16.94-3.08 6.192-5.72 12.608-8.37 18.994-2.28 5.48-4.41 11.04-6.81 16.469-1.37 3.107-2.9 6.173-5.02 8.844-.5.625-1.03 1.231-1.56 1.816-.43.466.26 1.182.69.706a177.042 177.042 0 0 0 14.15-17.561c4.33-6.111 8.3-12.465 12-18.961 2.11-3.731 4.15-7.502 6.11-11.314.3-.568-.56-1.076-.85-.508-3.44 6.668-7.08 13.235-11.04 19.619-3.93 6.325-8.16 12.456-12.77 18.294a170.07 170.07 0 0 1-8.29 9.725c.23.232.47.474.69.706 2.16-2.36 3.91-4.984 5.33-7.841 2.1-4.221 3.78-8.666 5.56-13.03 2.73-6.675 5.46-13.351 8.42-19.924a144.787 144.787 0 0 1 8.42-15.953c.94-1.522 1.89-3.033 2.86-4.534.74-1.154 1.46-2.337 2.31-3.419.47-.606 1-1.221 1.62-1.676.39-.286.76-.463 1.15-.429-.1-.011.11.031.16.041 0 0 .09.041.17.102.04.03.25.242.3.323.31.433.46.934.6 1.445.39 1.524.46 3.145.48 4.715.02 3.83-.39 7.717-1.17 11.47-.98 4.751-3.35 9.139-5.71 13.338a112.109 112.109 0 0 1-12.17 17.549c-4.47 5.3-9.45 10.264-15.04 14.383a60.049 60.049 0 0 1-3.89 2.645c-.54.345-.05 1.209.49.864zm-19.78 14.34c7.43-7.183 12.18-16.77 15.29-26.511 2.57-8.057 4.16-16.513 4.49-24.97.13-3.529.21-7.399-.98-10.78-.44-1.244-1.11-2.5-2.3-3.151-1.47-.814-3.03-.628-4.14.672-1.11 1.31-1.64 3.025-2.19 4.62-.76 2.213-1.25 4.469-1.67 6.765-1 5.401-1.53 10.877-2.02 16.342-.99 10.992-1.69 22.316-5.65 32.72-.48 1.256-1 2.481-1.58 3.686-.2.398.22.992.67.686 1.81-1.244 3.08-3.132 4.09-5.063 1.22-2.349 2.13-4.871 2.92-7.393.78-2.473 1.44-4.967 2.11-7.471.78-2.883 1.77-5.694 2.64-8.547 1.24-4.088 2.22-8.29 2.32-12.569.01-.64-.98-.649-.99-.009-.09 3.809-.89 7.542-1.95 11.193-.84 2.932-1.91 5.792-2.72 8.735-1.32 4.868-2.48 9.858-4.63 14.448-1 2.141-2.27 4.45-4.27 5.821.23.233.44.455.67.687 4.64-9.628 5.87-20.438 6.84-30.949.5-5.396.91-10.792 1.61-16.166.35-2.617.76-5.233 1.29-7.818.26-1.208.48-2.466.88-3.633.24-.717.5-1.435.75-2.153.47-1.336 1.1-3.3 2.48-3.967 1.24-.589 2.63.394 3.26 1.43.8 1.287 1.11 2.86 1.33 4.342.26 1.812.32 3.653.31 5.483-.05 7.89-1.38 15.808-3.49 23.389-2.69 9.676-6.89 19.308-13.6 26.897-.78.883-1.59 1.725-2.43 2.538-.5.425.2 1.141.66.696zm-18.52 8.87c8.52-2.322 12.51-10.716 14.49-18.628 1.04-4.13 1.64-8.355 2.15-12.581.47-3.745 1.03-7.47 1.43-11.227.48-4.586.75-9.293.04-13.87-.31-1.963-.82-3.958-1.8-5.707-.46-.804-1.02-1.499-1.64-2.165-.66-.686-1.39-1.383-2.3-1.731-3.37-1.271-3.99 4.484-4.26 6.511-.28 2.138-.53 4.266-.86 6.403-.48 3.175-.86 6.362-1.2 9.549-1.41 13.048-2.11 26.332-6 38.947a69.117 69.117 0 0 1-1.51 4.406c-.19.488.48.804.82.488 4.71-4.317 7.64-10.121 9.49-16.154 1.94-6.293 2.81-12.855 3.5-19.379.37-3.467.67-6.944 1.09-10.4.07-.63-.92-.639-.99-.01-.73 6.194-1.17 12.42-2.12 18.592-.99 6.301-2.45 12.688-5.42 18.381-1.61 3.085-3.67 5.907-6.23 8.263.28.163.55.325.83.488 4.46-11.82 5.64-24.519 6.87-36.999.3-3.177.62-6.354.99-9.521.36-3.097.87-6.162 1.31-9.238.23-1.698.34-3.397.62-5.095.23-1.278.45-3.186 1.49-4.116 1.17-1.03 2.74.825 3.46 1.591 1.24 1.332 1.95 3.028 2.41 4.763 1.15 4.25 1 8.819.67 13.166-.28 3.778-.89 7.512-1.34 11.268-.48 3.956-.95 7.922-1.73 11.825-1.5 7.547-4.27 16.432-11.68 20.124-.91.452-1.86.793-2.83 1.064-.62.204-.37 1.167.25.992zm-24.11 7.87c3.6-.797 6.85-2.647 9.46-5.264 2.59-2.586 4.53-5.768 6.05-9.075 1.55-3.376 2.71-6.915 3.69-10.496.33-1.197.7-2.404.9-3.632.19-1.149.28-2.298.34-3.457.12-2.589.07-5.21-.31-7.763-.15-1.002-.35-2.024-.75-2.957-.27-.613-.67-1.307-1.35-1.513-.74-.227-1.43.227-1.93.733-.94.971-1.57 2.275-2.13 3.49-1.86 4.033-3.02 8.333-3.99 12.654-1.93 8.423-3.48 17.209-9.32 23.946-.77.883-1.6 1.715-2.46 2.507-.36.337 0 .971.47.835 3.64-1.057 6.44-3.781 8.62-6.782 2.41-3.328 4.16-7.092 5.7-10.888.76-1.893 1.46-3.807 2.16-5.72.22-.598-.74-.867-.96-.269-1.26 3.469-2.55 6.927-4.16 10.242-1.68 3.445-3.7 6.887-6.55 9.501-1.46 1.336-3.15 2.411-5.06 2.964.16.281.32.552.48.834 3.17-2.911 5.67-6.448 7.4-10.393 1.65-3.725 2.65-7.686 3.55-11.648.93-4.111 1.76-8.244 3.06-12.252.65-2.024 1.4-4.038 2.36-5.929.47-.916 1.01-2.031 1.85-2.673.1-.079.26-.168.31-.187.14-.059.18-.049.24-.038.07.011.11.021.19.082.05.03.15.111.24.222.43.524.66 1.416.82 2.128.54 2.335.62 4.795.58 7.185-.03 2.06-.1 4.179-.62 6.175-.89 3.412-1.87 6.813-3.16 10.101-2.53 6.447-6.58 13.041-13.36 15.619-.85.322-1.72.574-2.62.776-.63.124-.38 1.076.26.942z" fill="#D67993"/><path d="M1068.19 471.849c8.88 4.202 17.97 8.065 27.44 10.762 4.67 1.323 9.43 2.356 14.24 2.941 1.62.194 3.23.369 4.85.554 1.48.164 2.96.267 4.45.261 2.59-.027 5.94-.296 7.69-2.47.88-1.092 1.31-2.638 1.02-4.021-.26-1.312-1.18-2.371-2.23-3.16-2.61-2.004-6.1-2.786-9.28-3.335-4.92-.856-9.93-.921-14.91-.977-2.49-.033-4.99-.056-7.48-.188-2.56-.134-5.08-.447-7.62-.83-4.78-.714-9.64-1.279-14.48-.893-1.2.099-2.4.248-3.59.467-.47.086-.47.856-.01.96 12.99 2.659 25.83 6.497 39.06 7.808 3.38.341 6.79.482 10.19.323.64-.024.65-1.024.01-.989-12.7.563-25.28-2.742-37.56-5.575-3.8-.874-7.6-1.739-11.43-2.524 0 .32 0 .64-.01.96 4.68-.868 9.48-.614 14.18-.041 2.33.282 4.66.723 7 .984 2.35.272 4.72.394 7.09.455 4.78.134 9.58.028 14.35.412 3.84.305 7.88.822 11.44 2.385 2.3 1.011 5.1 2.897 4.17 5.798-.89 2.752-4.03 3.293-6.58 3.43-2.72.145-5.37-.289-8.07-.534-4.65-.422-9.25-1.295-13.77-2.466-9.17-2.374-17.99-5.925-26.57-9.874-1.04-.479-2.08-.959-3.11-1.448-.54-.295-1.06.56-.48.825zm24.58-7.315c4.01 2.867 9.26 3.705 14.05 4.129 5.11.457 10.28.334 15.41.051 6.01-.335 12.04-.77 17.98-1.825 2.94-.524 5.86-1.197 8.68-2.171 2.38-.818 4.57-1.948 6.68-3.319 2.3-1.509 4.48-3.229 6.45-5.161 1.78-1.754 3.48-3.739 4.55-6.009.5-1.055.8-2.183.94-3.331.1-.769.1-1.599-.22-2.322-.52-1.185-1.77-1.457-2.95-1.307-1.58.205-3.1.931-4.5 1.648-1.55.796-3.03 1.733-4.52 2.649a100.205 100.205 0 0 1-17.64 8.589c-12.1 4.499-24.99 6.751-37.89 6.983-1.6.026-3.2.021-4.79-.004-.54-.015-.71.884-.14.969 6.34.998 12.8 1.127 19.2.846 6.71-.299 13.41-1.057 20.03-2.187 3.53-.597 7.03-1.315 10.51-2.163.62-.155.37-1.107-.25-.963-6.2 1.513-12.5 2.616-18.85 3.368-6.61.789-13.27 1.208-19.92 1.027-3.49-.092-6.99-.354-10.44-.895-.05.319-.1.649-.14.968 12.51.245 25.08-1.34 37.06-5.01a105.308 105.308 0 0 0 17.34-7.052 111.45 111.45 0 0 0 7.45-4.262c1.42-.877 2.86-1.724 4.35-2.44 1.21-.569 2.72-1.295 4.1-1.133 1.32.152 1.37 1.523 1.25 2.592-.28 2.387-1.49 4.446-2.98 6.283-1.68 2.085-3.67 3.906-5.78 5.537-1.98 1.532-4.12 2.923-6.37 4.022-2.43 1.188-5.12 1.913-7.75 2.529-5.82 1.357-11.81 1.922-17.76 2.318-5 .334-10 .578-15 .412-4.98-.165-10.26-.614-14.86-2.676-.96-.429-1.87-.947-2.73-1.555-.57-.355-1.06.5-.55.865zm22.13-10.658c11.51-2.814 23.06-5.739 33.97-10.449 10.13-4.368 20.14-10.396 27.16-19.062 2.96-3.643 5.93-8.256 4.78-13.147-.44-1.814-1.6-3.415-3.61-3.403-1.94.012-3.79 1.175-5.29 2.301-1.94 1.453-3.58 3.258-5.29 4.962-2 2.002-4 4.014-6.02 6.005-4.13 4.093-8.34 8.114-12.74 11.914-8.7 7.531-18.37 14.403-29.36 18.132-1.32.448-2.65.846-4 1.194.08.32.17.641.25.962 7.36-2.813 14.67-5.816 21.78-9.221 6.98-3.336 13.78-7.054 20.29-11.245 3.75-2.416 7.4-5.002 10.95-7.72.5-.385-.19-1.092-.7-.706-6.17 4.733-12.7 9.004-19.48 12.822-6.7 3.769-13.62 7.086-20.68 10.111-4.1 1.762-8.26 3.415-12.42 5.006-.59.225-.38 1.127.25.963 10.85-2.831 20.55-8.842 29.25-15.793 8.76-6.99 16.6-15.009 24.51-22.907 1.63-1.625 3.21-3.28 5.18-4.492 1.27-.789 3.28-1.87 4.76-.967.84.508 1.21 1.521 1.41 2.433.25 1.103.31 2.193.12 3.311-.41 2.347-1.59 4.516-2.92 6.464-2.79 4.105-6.43 7.601-10.34 10.626-4.63 3.588-9.72 6.571-15.01 9.083-10.48 4.974-21.74 8.061-32.97 10.848-1.36.338-2.74.675-4.1 1.013-.6.154-.35 1.117.27.962z" fill="#D67993"/><g opacity=".1" fill="#65537A"><path opacity=".1" d="M1072.92 472.773c8.01-2.287 16.32-2.011 24.09-3.9 10.5-2.894 20-7.197 29.66-12.189 9.34-4.915 18.84-9.218 25.72-17.485m0 0c14.88-9.234 29.35-28.263 35.97-44.383 2.67-6.585 4.76-33.137-4.72-17.964-8.14 12.536-10.73 18.333-16.53 32.11-8.15 19.397-9.25 24.287-14.72 30.237 13.28-14.449 23.23-30.389 32.18-47.737l-32.18 47.737z"/><path opacity=".1" d="M1132.51 453.607c11.47-11.035 17.24-29.263 19.11-44.546.42-3.727 1.89-17.934-2.6-20.125-3.79-2.035-4.99 3.854-6.01 6.415-4.77 18.297-2.18 41.072-10.5 58.256 5.38-3.62 7.86-16.418 9.67-22.472 1.89-5.733 4.03-11.863 4.14-18.153m-32.11 49.378c13.93-3.722 15.35-23.52 16.82-35.087.97-6.832 3.38-22.58-2.26-28.122-5.4-5.93-5.69 3.698-6.25 8.123-3.13 18.232-2.54 38.188-9.16 55.629 11.87-10.802 12.2-30.99 13.92-45.585m-37.19 52.912c12.21-2.649 16.79-16.297 19.49-26.843 1.42-4.957.84-24.923-4.98-12.296-6.21 13.714-3.96 28.325-15.83 39.127 8.63-2.441 13.36-15.459 16.12-23.054"/><path opacity=".1" d="M1088.77 470.218c13.79 6.526 29.13 12.667 44.27 13.916 3.41.491 12.25 1.622 14.22-2.48 2.43-4.878-3.76-7.325-6.95-8.194-10.93-2.93-22.28-.824-33.29-2.745-5.82-.894-12.26-1.623-18.25-.497 17.6 3.601 34.12 8.812 49.11 8.12l-49.11-8.12zm24.58-7.316c6.8 4.933 20.55 4.539 29.02 4.126 8.78-.499 20.13-1.285 28.53-4.659 5.37-2.301 13.72-8.624 15.92-14.434 2.93-9.614-6.26-4.068-10.56-1.377-18.3 11.383-39.75 16.296-60.95 15.862 14.74 2.335 34.86.06 49.48-3.507m-29.68-6.722c19.59-4.781 40.36-10.151 56.05-24.198 3.76-3.545 11.1-11.278 9.57-17.503-1.2-6.291-7.2-2.526-10.65.953-15.38 15.29-33.11 34.448-55.13 40.157 19.3-7.354 36.43-15.487 52.81-28.058"/></g><defs><clipPath id="a"><path fill="#fff" transform="rotate(-32.708 55.759 16.362)" d="M0 0h60.56v117.06H0z"/></clipPath></defs></svg>