<svg width="23" height="23" viewBox="0 0 23 23" fill="none" xmlns="http://www.w3.org/2000/svg">
<g clip-path="url(#clip0)">
<path d="M12.63 11.2415C12.2951 10.6855 12.2658 9.91156 12.2625 9.28071C12.256 8.51003 12.3276 7.66781 12.6593 6.96217C12.7796 6.70853 12.9454 6.44188 13.2023 6.31181C13.4625 6.17849 13.7551 6.23702 14.0055 6.36384C14.4055 6.56545 14.8087 6.89388 14.9388 7.33613C15.0754 7.80439 14.9225 8.30842 14.7144 8.73115C14.1844 9.814 13.2739 10.718 12.3764 11.5017C12.2365 11.622 12.4414 11.8236 12.578 11.7033C13.4527 10.9391 14.3177 10.0709 14.8737 9.04333C15.1209 8.58482 15.3225 8.05803 15.264 7.52799C15.2054 6.98819 14.8705 6.59797 14.4413 6.29555C14.1356 6.07768 13.7584 5.90534 13.3747 5.96062C13.0592 6.00614 12.8088 6.2045 12.6235 6.45489C12.1357 7.11501 12.0219 8.04502 11.9829 8.83846C11.9601 9.33274 11.9796 9.83026 12.0544 10.3213C12.1097 10.6822 12.191 11.0659 12.3829 11.3846C12.4804 11.5407 12.7243 11.3976 12.63 11.2415Z" fill="#D67993"/>
<path d="M12.4869 11.6805C13.0918 10.4709 13.456 9.17339 13.8722 7.89218C13.9307 7.71659 13.6543 7.64179 13.5958 7.81739C13.1861 9.07259 12.8316 10.3505 12.2365 11.5375C12.1585 11.7 12.4056 11.8464 12.4869 11.6805Z" fill="#D67993"/>
<path d="M12.1943 12.0155C12.2658 11.6286 12.2008 11.2253 12.1162 10.8481C11.9992 10.3441 11.8203 9.85633 11.6024 9.38481C11.2057 8.52309 10.6367 7.5508 9.78794 7.06303C9.45625 6.87442 9.06279 6.78337 8.69208 6.89719C8.24008 7.03701 7.88889 7.42723 7.66126 7.8272C7.07594 8.85152 7.70028 9.86608 8.50998 10.536C9.453 11.3164 10.6659 11.8952 11.8561 12.1814C12.0349 12.2236 12.1097 11.9505 11.9309 11.905C10.9618 11.6708 10.0091 11.2318 9.1831 10.679C8.44494 10.1848 7.48241 9.3523 7.74906 8.35074C7.94742 7.59632 8.71159 6.86792 9.51154 7.23212C10.3082 7.59632 10.8448 8.49057 11.2252 9.23848C11.4659 9.7165 11.6642 10.2205 11.8008 10.7408C11.8984 11.118 11.9927 11.544 11.9244 11.9342C11.8853 12.1196 12.1618 12.1944 12.1943 12.0155Z" fill="#D67993"/>
<path d="M12.1292 11.9666C11.4301 10.9748 10.7342 9.97325 9.92452 9.066C9.80095 8.92942 9.60259 9.13103 9.72291 9.26761C10.5163 10.1554 11.1992 11.1374 11.8821 12.1129C11.9862 12.2593 12.2333 12.1162 12.1292 11.9666Z" fill="#D67993"/>
<path d="M12.178 11.9377C11.8105 11.9084 11.4333 11.98 11.0756 12.058C10.5846 12.1653 10.1001 12.3149 9.62859 12.4905C8.7441 12.8222 7.77831 13.2482 7.12145 13.9506C6.89057 14.1977 6.68246 14.5131 6.68896 14.8643C6.69546 15.248 6.95561 15.5537 7.25152 15.7716C7.66125 16.0773 8.20105 16.3537 8.72459 16.3081C9.2839 16.2594 9.77817 15.9407 10.1944 15.583C10.77 15.0887 11.2415 14.4676 11.6382 13.827C11.9829 13.2709 12.2951 12.6759 12.4804 12.045C12.5325 11.8694 12.256 11.7946 12.204 11.9702C11.8853 13.0563 11.2122 14.1132 10.448 14.9391C10.0741 15.3456 9.62859 15.7488 9.09855 15.9342C8.58151 16.1163 8.13927 15.9732 7.68076 15.7098C7.39135 15.544 7.04016 15.3001 6.98162 14.9456C6.9361 14.6627 7.10194 14.3961 7.28404 14.1912C7.86936 13.5376 8.75711 13.1344 9.55705 12.8189C10.0383 12.6303 10.5326 12.471 11.0366 12.3539C11.4073 12.2694 11.7975 12.1881 12.178 12.2174C12.3634 12.2369 12.3601 11.9507 12.178 11.9377Z" fill="#D67993"/>
<path d="M12.0674 11.8659C11.2707 12.5813 10.4675 13.2902 9.61232 13.9373C9.46924 14.0479 9.60907 14.295 9.7554 14.1844C10.6301 13.5243 11.4528 12.8024 12.269 12.0708C12.4056 11.944 12.204 11.7456 12.0674 11.8659Z" fill="#D67993"/>
<path d="M12.4609 11.742C12.7438 12.4997 13.2999 13.1371 13.7551 13.7972C14.2006 14.4443 14.7469 15.2507 14.6364 16.0799C14.5843 16.4897 14.3242 16.9904 13.9275 17.1595C13.5502 17.3189 13.1795 17.0587 12.9422 16.7823C12.5975 16.3791 12.4479 15.8458 12.3406 15.3385C12.2268 14.802 12.139 14.1841 12.2105 13.6346C12.2625 13.2346 12.4186 12.8444 12.5227 12.4574C12.591 12.2038 12.7503 11.7811 12.6007 11.5274C12.5064 11.3713 12.2593 11.5144 12.3536 11.6705C12.4056 11.755 12.3536 11.9274 12.3341 12.0184C12.2951 12.2168 12.2398 12.4152 12.1812 12.6103C12.0804 12.9582 11.9439 13.3159 11.9178 13.6801C11.8691 14.311 11.9569 14.9808 12.1032 15.5922C12.2268 16.0994 12.4056 16.6035 12.7568 17.0034C13.0104 17.2929 13.3747 17.5302 13.7746 17.4912C14.2299 17.4424 14.5648 17.049 14.7534 16.6588C15.1469 15.8426 14.8087 14.9646 14.3795 14.2394C14.1063 13.7777 13.7844 13.3484 13.4755 12.9127C13.1991 12.5225 12.9064 12.1192 12.7373 11.6705C12.6723 11.4949 12.3991 11.5664 12.4609 11.742Z" fill="#D67993"/>
<path d="M12.2918 11.622C12.8414 12.822 12.9031 14.1747 13.3519 15.4104C13.4137 15.5827 13.6901 15.5079 13.6283 15.3356C13.1698 14.0771 13.1015 12.7049 12.5389 11.479C12.4609 11.3099 12.217 11.4562 12.2918 11.622Z" fill="#D67993"/>
<path d="M12.6625 11.7132C13.3486 11.2092 13.986 10.6434 14.6949 10.1719C15.3778 9.71986 16.3045 9.16055 17.098 9.69059C17.8654 10.2044 17.8296 11.3653 17.189 11.9669C16.6167 12.5034 15.7062 12.4156 14.9941 12.3018C14.1161 12.162 13.2348 11.8563 12.3373 11.866C12.1552 11.866 12.152 12.1522 12.3373 12.1522C13.2153 12.1457 14.0803 12.4481 14.942 12.5814C15.7355 12.705 16.672 12.7766 17.3289 12.2237C18.0377 11.6254 18.1776 10.484 17.5857 9.75888C17.2833 9.38817 16.8151 9.18331 16.3403 9.18656C15.9176 9.18981 15.5078 9.37191 15.1404 9.57027C14.1811 10.0841 13.3877 10.832 12.5129 11.4693C12.3699 11.5734 12.5129 11.8205 12.6625 11.7132Z" fill="#D67993"/>
<path d="M12.2593 12.0446C13.3357 11.8886 14.373 11.5244 15.4591 11.4235C15.6412 11.4073 15.6412 11.1211 15.4591 11.1374C14.347 11.2414 13.2869 11.6089 12.1845 11.7682C12.0024 11.7942 12.0772 12.0707 12.2593 12.0446Z" fill="#D67993"/>
<path opacity="0.1" d="M11.5016 0C17.8524 0 23 5.1476 23 11.5016C23 17.8524 17.8524 23.0032 11.4984 23.0032C5.14435 23.0032 0 17.8524 0 11.5016" fill="#65537A"/>
<path opacity="0.1" d="M0 11.5016C0 5.1476 5.1476 0 11.5016 0L0 11.5016Z" fill="#65537A"/>
</g>
<defs>
<clipPath id="clip0">
<rect width="23" height="23" fill="white"/>
</clipPath>
</defs>
</svg>
