<svg width="380" height="699" viewBox="0 0 380 699" fill="none" xmlns="http://www.w3.org/2000/svg">
<path d="M289.167 436.767C287.759 435.922 286.295 435.021 284.775 434.121L271.488 436.485C273.008 437.893 274.528 439.132 275.992 440.201L289.167 436.767Z" fill="#BCCED5"/>
<path d="M283.987 433.614C281.904 432.319 279.764 431.024 277.568 429.673L265.013 429.56C266.983 431.981 268.954 434.121 270.868 435.922L283.987 433.614Z" fill="#BCCED5"/>
<path d="M293.896 439.637C292.658 438.849 291.306 438.061 289.899 437.216L276.668 440.651C278.188 441.664 279.596 442.565 281.003 443.297L293.896 439.637Z" fill="#BCCED5"/>
<path d="M266.702 423.028C262.93 420.72 259.27 418.468 256.061 416.441C257.468 418.806 258.82 421.058 260.227 423.085L266.702 423.028Z" fill="#BCCED5"/>
<path d="M261.973 416.159C259.608 416.103 257.806 416.159 256.793 416.215C258.932 417.51 261.184 418.918 263.549 420.382L261.973 416.159Z" fill="#BCCED5"/>
<path d="M276.555 429.052C273.628 427.25 270.644 425.392 267.716 423.646L260.622 423.703C261.917 425.617 263.212 427.362 264.507 428.995L276.555 429.052Z" fill="#BCCED5"/>
<path d="M287.703 435.133C289.223 436.091 290.687 436.935 292.094 437.78L287.365 421.17C285.845 420.495 284.212 419.875 282.635 419.369L287.703 435.133Z" fill="#BCCED5"/>
<path d="M291.813 423.592C290.63 422.86 289.392 422.128 288.097 421.565L292.826 438.287C293.952 438.963 295.022 439.639 296.035 440.258L291.813 423.592Z" fill="#BCCED5"/>
<path d="M299.414 442.959L288.266 445.83C295.867 447.463 300.99 444.986 301.722 444.367C301.047 443.972 300.258 443.522 299.414 442.959Z" fill="#BCCED5"/>
<path d="M280.834 430.967C282.917 432.206 284.944 433.445 286.859 434.683L281.848 419.2C280.609 418.806 279.314 418.468 278.075 418.187L280.834 430.967Z" fill="#BCCED5"/>
<path d="M296.824 440.706C298.851 441.945 300.54 442.959 301.835 443.747C302.623 434.457 298.569 428.207 292.545 424.097L296.824 440.706Z" fill="#BCCED5"/>
<path d="M298.682 442.509C297.499 441.777 296.092 440.932 294.628 440.031L281.847 443.578C283.649 444.423 285.338 445.042 286.971 445.493L298.682 442.509Z" fill="#BCCED5"/>
<path d="M264.45 420.887C267.378 422.689 270.475 424.603 273.515 426.461L270.137 416.721C267.378 416.383 264.788 416.214 262.592 416.158L264.45 420.887Z" fill="#BCCED5"/>
<path d="M274.359 426.968C276.274 428.151 278.244 429.333 280.102 430.516L277.4 418.016C275.147 417.51 272.952 417.115 270.812 416.834L274.359 426.968Z" fill="#BCCED5"/>
<path d="M330.605 448.645C330.549 450.277 330.436 451.966 330.38 453.768L338.882 464.297C339.389 462.27 339.726 460.355 339.952 458.554L330.605 448.645Z" fill="#BCCED5"/>
<path d="M330.324 454.67C330.212 457.091 330.099 459.625 329.986 462.215L335.898 473.25C337.08 470.322 337.981 467.564 338.657 465.03L330.324 454.67Z" fill="#BCCED5"/>
<path d="M330.887 443.072C330.831 444.536 330.774 446.112 330.662 447.745L340.008 457.71C340.177 455.909 340.233 454.22 340.177 452.643L330.887 443.072Z" fill="#BCCED5"/>
<path d="M329.367 474.938C329.141 479.385 328.916 483.664 328.747 487.437C330.155 485.072 331.45 482.764 332.576 480.624L329.367 474.938Z" fill="#BCCED5"/>
<path d="M325.651 482.372C326.721 484.455 327.621 486.032 328.184 486.876C328.297 484.399 328.466 481.696 328.579 478.938L325.651 482.372Z" fill="#BCCED5"/>
<path d="M329.929 463.396C329.761 466.831 329.592 470.378 329.423 473.756L332.857 479.949C333.871 477.866 334.828 475.896 335.616 473.981L329.929 463.396Z" fill="#BCCED5"/>
<path d="M329.93 450.672C329.986 448.871 330.099 447.182 330.155 445.549L317.881 457.654C317.994 459.343 318.275 461.032 318.557 462.721L329.93 450.672Z" fill="#BCCED5"/>
<path d="M317.825 452.644C317.712 454.052 317.712 455.459 317.825 456.867L330.211 444.649C330.268 443.354 330.324 442.059 330.38 440.933L317.825 452.644Z" fill="#BCCED5"/>
<path d="M331.168 436.653L339.051 445.042C336.799 437.61 332.182 434.288 331.281 433.95C331.225 434.738 331.225 435.639 331.168 436.653Z" fill="#BCCED5"/>
<path d="M329.536 458.724C329.649 456.303 329.761 453.938 329.874 451.63L318.726 463.453C319.007 464.748 319.289 465.987 319.627 467.282L329.536 458.724Z" fill="#BCCED5"/>
<path d="M330.38 440.029C330.493 437.665 330.549 435.694 330.662 434.118C322.104 437.946 318.669 444.477 317.881 451.684L330.38 440.029Z" fill="#BCCED5"/>
<path d="M331.112 437.497C331.056 438.904 330.999 440.481 330.887 442.226L340.177 451.685C340.064 449.714 339.783 447.913 339.388 446.28L331.112 437.497Z" fill="#BCCED5"/>
<path d="M328.635 477.922C328.804 474.487 328.973 470.884 329.142 467.281L322.217 474.882C323.23 477.472 324.356 479.836 325.313 481.751L328.635 477.922Z" fill="#BCCED5"/>
<path d="M329.198 466.268C329.31 464.016 329.423 461.764 329.536 459.512L319.852 467.901C320.471 470.097 321.259 472.236 321.991 474.207L329.198 466.268Z" fill="#BCCED5"/>
<path d="M238.776 463.395C243.675 461.03 249.53 463.057 251.895 467.899C254.26 472.797 252.233 478.653 247.391 481.018L238.776 463.395Z" fill="#BCCED5"/>
<path d="M398.563 419.311L398.732 421.451C359.714 424.322 321.259 437.553 295.81 448.138C268.222 459.624 249.699 470.603 249.473 470.715L248.347 468.857C248.516 468.745 267.209 457.709 294.91 446.167C320.471 435.526 359.207 422.182 398.563 419.311Z" fill="#BCCED5"/>
<path d="M144.525 506.918C128.873 515.082 117.388 522.401 111.138 526.624C111.532 527.581 112.095 528.482 112.658 529.327C119.809 527.75 133.434 524.428 150.831 518.404C174.422 510.24 209.836 495.376 245.532 470.772C245.194 470.772 244.8 470.828 244.463 470.828C201.898 479.78 166.709 495.376 144.525 506.918Z" fill="#BCCED5"/>
<path d="M122.511 502.247C120.034 503.879 117.782 505.681 115.811 507.764C111.307 512.437 108.604 519.419 110.688 525.556C116.994 521.277 128.479 514.014 143.962 505.906C165.357 494.758 198.914 479.895 239.395 470.774C237.931 470.717 236.693 470.717 235.961 470.717C231.513 470.999 226.896 470.942 222.505 471.731C214.172 473.195 205.726 474.771 197.45 476.516C179.94 480.232 162.655 485.074 145.877 491.437C138.332 494.364 129.662 497.517 122.511 502.247Z" fill="#BCCED5"/>
<path d="M247.728 470.378L247.785 470.491C211.413 495.884 175.154 511.142 151.169 519.418C134.166 525.273 120.71 528.652 113.39 530.228C114.854 531.917 116.656 533.325 118.683 534.282C129.211 539.405 145.708 532.649 155.674 528.539C190.018 514.351 220.478 493.519 248.911 469.815C248.629 470.097 248.235 470.266 247.728 470.378Z" fill="#BCCED5"/>
<path d="M239.959 468.239C229.768 465.086 214.172 459.794 197.113 452.193C183.262 446.056 166.934 437.667 151.676 427.138C146.497 427.476 141.429 428.94 137.15 431.811C135.349 432.994 133.66 434.514 132.759 436.484C167.441 452.08 218.958 463.791 239.959 468.239Z" fill="#BCCED5"/>
<path d="M243.956 470.884C244.97 470.828 245.927 470.828 246.94 470.771C234.385 468.294 172.396 455.457 132.308 437.497C131.182 441.156 132.984 445.154 135.292 448.25C138.332 452.36 142.105 455.626 146.384 458.272C190.075 464.128 229.318 469.082 243.956 470.884Z" fill="#BCCED5"/>
<path d="M148.805 459.68C156.349 463.79 165.133 466.154 173.634 467.618C185.176 469.533 196.831 470.659 208.542 470.94C217.832 471.109 227.234 471.222 236.581 471.053C218.902 468.857 185.571 464.634 148.805 459.68Z" fill="#BCCED5"/>
<path d="M197.563 451.179C218.958 460.694 238.044 466.606 246.94 469.196C242.999 466.606 239.339 463.678 235.229 461.37C230.106 458.442 224.869 455.683 219.521 453.319C208.767 448.026 198.013 442.734 187.203 437.441C179.264 433.557 171.269 429.615 162.599 427.926C159.615 427.307 156.518 427.025 153.478 427.082C168.285 437.16 184.05 445.211 197.563 451.179Z" fill="#BCCED5"/>
<path d="M244.013 476.516C240.24 486.481 234.779 502.077 230.275 520.206C226.559 534.958 223.124 552.918 221.998 571.442C218.508 575.327 214.285 578.423 209.387 580C207.303 580.675 205.108 581.069 202.968 580.619C212.089 543.572 234.554 495.771 244.013 476.516Z" fill="#BCCED5"/>
<path d="M244.406 471.73C245.026 470.941 245.701 470.209 246.321 469.478C240.522 480.907 212.483 537.66 201.898 580.281C198.351 578.93 196.324 575.045 195.254 571.329C193.903 566.431 193.622 561.42 194.185 556.409C216.48 518.348 236.806 484.398 244.406 471.73Z" fill="#BCCED5"/>
<path d="M194.579 553.594C195.987 545.093 199.534 536.76 203.587 529.103C209.161 518.799 215.467 508.946 222.505 499.6C228.079 492.168 233.822 484.736 239.677 477.417C230.556 492.731 213.328 521.558 194.579 553.594Z" fill="#BCCED5"/>
<path d="M231.288 520.431C236.975 497.741 244.069 479.048 247.559 470.434C247.165 475.107 247.222 479.78 246.546 484.453C245.701 490.253 244.632 496.108 243.224 501.795C240.747 513.506 238.27 525.273 235.848 536.984C234.047 545.598 232.189 554.381 228.191 562.207C226.84 564.91 225.151 567.556 223.18 569.921C224.363 552.129 227.741 534.732 231.288 520.431Z" fill="#BCCED5"/>
<path d="M152.802 608.656C153.759 608.599 154.998 608.994 156.068 609.388C156.743 609.613 157.7 609.951 157.926 609.894C159.164 609.106 165.752 612.203 167.891 614.624C168.173 614.962 169.074 615.975 168.679 623.97C168.398 629.15 167.61 636.131 166.709 641.424C166.99 640.861 167.272 640.298 167.61 639.735C171.157 633.035 176.393 624.758 179.602 623.238C182.868 621.718 185.064 622.056 186.358 622.281C186.696 622.337 187.147 622.394 187.203 622.337L187.654 622L187.879 622.45C188.554 623.745 189.624 625.096 190.074 624.984C190.863 624.815 191.989 625.321 193.227 625.941C193.903 626.278 194.973 626.785 195.254 626.673C195.423 626.616 195.817 626.447 196.155 626.278C197.169 625.828 198.351 625.265 199.027 625.715C199.252 625.828 199.477 626.11 199.533 626.673C199.59 627.517 199.927 628.305 200.322 629.094C200.603 629.713 200.885 630.389 201.053 631.064C201.222 631.965 200.547 632.584 199.984 633.035C199.252 633.71 198.97 633.992 199.364 634.555C199.702 635.062 200.265 635.512 200.828 635.906C201.898 636.694 203.249 637.652 202.236 639.397C201.11 641.424 200.716 643 201.222 643.789C201.729 644.633 200.828 645.703 199.927 646.716C199.646 646.998 199.308 647.448 199.195 647.673C199.477 648.124 199.646 648.856 199.533 649.475C199.421 649.982 199.139 650.376 198.745 650.657C197.844 651.221 196.662 652.797 196.718 653.473V653.81L196.38 653.923C196.324 653.923 193.453 654.824 189.343 655.668C194.691 656.175 195.705 656.963 196.043 657.47C196.662 658.484 197.169 659.61 197.619 660.679C198.351 662.368 199.083 663.945 199.871 664.283C201.222 664.789 200.885 666.535 200.659 667.773C200.547 668.28 200.434 668.9 200.547 669.125C200.603 669.294 200.772 669.631 200.941 670.026C201.898 672.109 202.63 674.079 202.123 675.093C201.785 675.712 202.292 679.09 202.968 682.018L203.08 682.637L202.461 682.581C201.448 682.525 198.576 682.581 198.351 683.876C198.069 685.115 196.775 685.847 195.48 686.579C194.579 687.085 193.678 687.536 193.509 688.099C193.171 688.943 192.214 689.675 190.975 690.126C189.455 690.689 187.879 690.632 186.696 690.013C185.683 689.45 184.895 690.013 183.881 690.858C183.149 691.477 182.248 692.209 181.404 691.477C180.447 690.689 178.195 690.745 177.406 690.858H177.237L177.069 690.745C176.562 690.351 175.098 689.225 174.253 689.168C173.916 689.112 173.184 689.337 172.621 689.506C171.664 689.788 170.819 690.069 170.256 689.731C170.031 689.619 169.918 689.394 169.862 689.112C169.862 689 169.806 688.831 169.749 688.605C169.411 686.804 168.454 681.342 166.99 679.147C166.765 678.752 166.484 678.133 166.146 677.176C166.09 679.766 165.864 682.131 165.527 684.214C164.682 689.112 163.106 692.434 160.797 694.123C155.505 697.952 152.746 697.67 150.55 697.445C149.255 697.276 148.354 697.22 147.172 697.952L146.778 698.177L146.553 697.783C146.158 697.163 144.863 695.474 143.681 695.587C143.005 695.643 142.048 695.925 141.204 696.206C139.684 696.657 138.895 696.882 138.445 696.6C138.276 696.488 138.164 696.319 138.164 696.15C138.051 695.418 135.179 689.957 133.603 689.9C132.083 689.844 131.576 687.761 131.126 686.072C130.957 685.396 130.675 684.383 130.506 684.27C129.155 683.707 128.029 676.444 128.817 673.404C128.93 673.01 129.268 671.715 135.799 667.717C132.252 668.731 128.254 669.631 126.227 669.068C122.737 668.168 121.273 666.478 120.428 665.465C120.203 665.184 119.921 664.846 119.809 664.846L119.246 664.789L119.358 664.283C119.696 662.875 119.696 661.13 119.302 660.905C118.627 660.567 118.063 659.384 117.444 658.146C117.106 657.47 116.6 656.4 116.374 656.288C116.206 656.175 115.811 656.119 115.417 656.006C114.348 655.725 113.109 655.387 112.827 654.599C112.771 654.373 112.715 653.979 113.053 653.585C113.559 652.91 113.784 652.065 114.01 651.221C114.179 650.545 114.404 649.869 114.742 649.25C115.192 648.462 116.093 648.405 116.825 648.405C117.838 648.349 118.232 648.293 118.289 647.617C118.401 646.998 118.232 646.322 118.007 645.647C117.669 644.352 117.275 642.775 119.19 642.043C121.329 641.255 122.68 640.242 122.793 639.341C122.906 638.384 124.313 638.158 125.664 637.933C126.058 637.877 126.621 637.764 126.847 637.652C126.903 637.145 127.241 636.469 127.748 636.075C128.142 635.737 128.592 635.625 129.099 635.681C130.169 635.794 132.083 635.4 132.477 634.836L132.702 634.555L133.04 634.724C133.04 634.724 133.997 635.118 135.461 635.794C133.772 633.598 132.927 631.515 132.815 629.6C132.59 623.069 134.391 620.93 135.799 619.241C136.643 618.227 137.263 617.552 137.263 616.144V615.694H137.713C138.501 615.694 140.585 615.581 141.148 614.511C141.485 613.948 141.767 612.991 142.048 612.147C142.499 610.683 142.78 609.894 143.287 609.669C143.456 609.613 143.681 609.613 143.85 609.669C144.526 609.951 150.663 610.683 151.62 609.388C151.789 608.881 152.239 608.712 152.802 608.656ZM157.982 610.795C157.475 610.852 156.687 610.57 155.786 610.232C154.491 609.782 152.746 609.163 152.295 609.838C151 611.584 144.92 610.795 143.625 610.457C143.4 610.739 143.118 611.696 142.949 612.315C142.668 613.216 142.386 614.23 141.992 614.849C141.26 616.2 139.121 616.426 138.164 616.482C137.995 617.946 137.263 618.79 136.531 619.691C135.179 621.268 133.547 623.238 133.772 629.431C133.828 631.627 135.123 634.048 137.544 636.694L139.233 638.496L137.037 637.37C135.123 636.413 133.603 635.737 133.04 635.512C132.139 636.3 130.169 636.638 129.043 636.469C128.817 636.413 128.592 636.526 128.367 636.638C128.029 636.92 127.804 637.483 127.804 637.764C127.748 638.384 127.016 638.496 125.89 638.721C125.383 638.834 123.806 639.059 123.75 639.341C123.581 640.636 122.117 641.818 119.584 642.775C118.514 643.169 118.57 643.789 118.964 645.252C119.133 645.984 119.358 646.829 119.246 647.617C119.021 649.081 117.726 649.137 116.881 649.137C116.206 649.137 115.755 649.194 115.53 649.531C115.248 650.038 115.079 650.658 114.911 651.333C114.629 652.234 114.404 653.191 113.784 654.036C113.728 654.092 113.672 654.205 113.672 654.205C113.785 654.542 115.023 654.88 115.642 655.049C116.093 655.162 116.487 655.274 116.769 655.387C117.275 655.668 117.669 656.457 118.289 657.695C118.683 658.596 119.302 659.835 119.696 660.004C120.822 660.567 120.541 662.875 120.316 664.001C120.541 664.17 120.822 664.452 121.048 664.789C121.836 665.69 123.131 667.267 126.396 668.111C128.254 668.618 132.646 667.773 138.501 665.803C139.008 665.634 139.515 665.859 139.74 666.366C138.614 666.985 137.488 667.661 136.531 668.224C130.45 671.884 129.718 673.179 129.606 673.516C128.761 676.782 130.112 682.919 130.788 683.369C131.351 683.594 131.576 684.552 131.914 685.79C132.252 687.085 132.702 688.887 133.547 688.943C135.742 689.056 138.501 694.517 138.895 695.812C139.233 695.812 140.19 695.531 140.81 695.362C141.767 695.08 142.724 694.799 143.456 694.742C145.032 694.63 146.384 696.263 146.947 696.995C148.242 696.319 149.368 696.431 150.55 696.544C152.633 696.769 155.167 697.051 160.178 693.391C162.261 691.871 163.725 688.718 164.513 684.101C164.964 681.286 165.189 677.908 165.132 674.023L165.076 670.138L166.033 673.91C166.315 675.093 166.596 676.106 166.878 676.895C167.216 677.964 167.497 678.471 167.61 678.696C169.017 680.836 169.918 685.34 170.481 688.493C170.538 688.718 170.537 688.831 170.594 688.943C170.763 689.056 171.72 688.774 172.227 688.605C173.015 688.38 173.69 688.155 174.253 688.211C175.323 688.324 176.843 689.506 177.35 689.9C178.082 689.844 180.559 689.675 181.854 690.745C182.079 690.97 182.361 690.801 183.149 690.126C184.05 689.337 185.345 688.268 186.978 689.168C187.879 689.675 189.23 689.675 190.525 689.225C191.538 688.887 192.327 688.268 192.552 687.705C192.89 686.86 193.903 686.297 194.973 685.734C196.099 685.115 197.225 684.495 197.394 683.651C197.788 681.793 200.603 681.624 201.898 681.624C201.504 679.879 200.659 675.712 201.279 674.642C201.673 673.967 200.547 671.433 200.096 670.42C199.927 670.026 199.759 669.688 199.702 669.463C199.533 669.012 199.646 668.393 199.815 667.661C200.04 666.422 200.209 665.465 199.59 665.184C198.464 664.733 197.732 663.044 196.831 661.13C196.38 660.06 195.874 658.99 195.311 658.033C195.254 657.921 194.522 657.132 189.061 656.626C188.16 656.513 187.09 656.457 186.021 656.4L182.136 656.175L185.964 655.5C190.863 654.655 194.804 653.529 195.93 653.191C196.155 652.009 197.45 650.489 198.407 649.926C198.632 649.813 198.745 649.588 198.801 649.363C198.914 648.912 198.689 648.349 198.52 648.18C198.126 647.673 198.632 647.11 199.421 646.21C199.759 645.815 200.772 644.633 200.659 644.352C199.984 643.226 200.322 641.424 201.673 639.003C202.236 638.046 201.785 637.595 200.547 636.694C199.927 636.244 199.252 635.737 198.858 635.062C198.069 633.767 199.027 632.922 199.646 632.359C200.153 631.909 200.49 631.571 200.434 631.233C200.322 630.67 200.04 630.107 199.759 629.431C199.364 628.587 198.97 627.686 198.914 626.673C198.914 626.56 198.858 626.504 198.858 626.447C198.576 626.278 197.394 626.785 196.831 627.067C196.38 627.292 196.043 627.461 195.761 627.517C195.198 627.63 194.41 627.292 193.115 626.729C192.214 626.335 190.975 625.715 190.525 625.828C189.286 626.11 188.048 624.195 187.485 623.182C187.203 623.238 186.865 623.182 186.415 623.069C185.232 622.844 183.206 622.506 180.222 623.97C177.406 625.321 172.339 633.035 168.623 640.073C167.722 641.762 166.878 643.451 166.259 644.915L165.02 647.673L164.738 649.081C163.837 653.135 166.484 655.162 166.821 655.387C167.103 655.5 167.441 655.612 167.722 655.668L169.918 656.344L167.159 656.626C164.457 656.907 164.063 657.189 164.006 657.245C164.006 657.245 163.781 657.526 163.781 658.934C163.781 659.047 163.781 659.103 163.781 659.215V660.398L162.993 659.553C161.642 658.089 160.009 657.526 158.207 657.921C157.757 657.977 157.081 658.202 156.237 658.54L154.604 659.159L155.73 657.808C157.7 655.499 157.138 653.079 157.025 652.741C156.631 652.065 156.18 651.333 155.617 650.657C155.448 650.489 155.336 650.263 155.167 650.094L153.647 648.349L155.674 649.419C157.025 650.151 157.982 650.601 158.207 650.714C158.32 650.714 158.601 650.77 158.995 650.77C159.164 650.77 159.39 650.77 159.615 650.77C160.853 650.714 162.655 650.32 163.837 648.799L164.682 647.73L165.358 644.746C165.47 644.352 165.527 643.901 165.639 643.451C166.709 638.046 167.666 629.882 167.948 623.97C168.342 616.876 167.61 615.525 167.441 615.299C165.189 612.766 159.39 610.514 158.601 610.795C158.264 610.739 158.151 610.795 157.982 610.795ZM165.639 655.837C164.851 655.105 163.218 653.304 163.387 650.263C162.148 651.221 160.628 651.558 159.502 651.615C159.221 651.615 158.995 651.615 158.77 651.615C158.151 651.615 157.757 651.558 157.757 651.558L157.644 651.502C157.644 651.502 157.306 651.333 156.8 651.108C157.081 651.502 157.306 651.896 157.532 652.29L157.588 652.347C157.644 652.459 158.32 654.711 156.912 657.132C157.194 657.02 157.475 656.963 157.701 656.907C159.84 656.513 161.473 657.245 162.599 658.146C162.655 657.132 162.88 656.794 163.049 656.569C163.274 656.4 163.781 656.119 165.639 655.837Z" fill="#BCCED5"/>
<path d="M156.068 658.147C156.124 658.259 155.11 658.766 153.478 659.554C151.845 660.342 149.649 661.469 147.172 662.651C144.751 663.89 142.499 665.016 140.922 665.804C139.289 666.592 138.332 667.099 138.276 666.986C138.22 666.93 139.177 666.254 140.697 665.353C142.273 664.453 144.413 663.214 146.89 661.975C149.368 660.737 151.62 659.723 153.309 659.048C154.998 658.428 156.068 658.09 156.068 658.147Z" fill="#BCCED5"/>
<path d="M162.824 658.653C162.993 658.596 164.288 661.299 164.964 664.959C165.639 668.618 165.47 671.602 165.302 671.602C165.076 671.602 165.02 668.618 164.288 665.071C163.669 661.524 162.655 658.765 162.824 658.653Z" fill="#BCCED5"/>
<path d="M153.928 697.164C153.816 697.108 154.829 695.137 156.124 691.759C156.293 691.365 156.462 690.914 156.631 690.408C156.8 689.957 156.968 689.451 157.137 688.944C157.475 687.93 157.813 686.861 158.151 685.735C158.77 683.426 159.446 680.893 159.952 678.19C160.459 675.488 160.853 672.898 161.135 670.533C161.416 668.168 161.585 666.029 161.698 664.227C161.754 663.326 161.81 662.538 161.867 661.806C161.923 661.074 161.923 660.455 161.979 659.948C162.036 658.935 162.092 658.372 162.148 658.372C162.205 658.372 162.205 658.935 162.261 659.948C162.261 660.455 162.261 661.074 162.261 661.806C162.261 662.538 162.261 663.326 162.205 664.227C162.148 666.029 162.036 668.168 161.81 670.589C161.585 672.954 161.191 675.6 160.684 678.303C160.178 681.005 159.502 683.595 158.826 685.847C158.432 686.973 158.151 688.099 157.757 689.056C157.588 689.563 157.419 690.07 157.194 690.52C157.025 690.971 156.8 691.421 156.631 691.815C156.293 692.66 155.955 693.392 155.617 694.067C155.336 694.743 155.054 695.25 154.773 695.7C154.266 696.714 153.984 697.22 153.928 697.164Z" fill="#BCCED5"/>
<path d="M144.92 696.151C144.863 696.151 145.201 695.588 145.764 694.743C146.046 694.293 146.383 693.73 146.778 693.11C147.172 692.491 147.622 691.759 148.072 690.915C148.298 690.52 148.579 690.07 148.804 689.62C149.03 689.169 149.311 688.662 149.536 688.212C150.099 687.255 150.606 686.185 151.169 685.059C152.239 682.807 153.365 680.273 154.378 677.571C155.392 674.868 156.236 672.222 156.968 669.857C157.644 667.436 158.263 665.241 158.657 663.439C158.883 662.538 159.052 661.694 159.22 660.962C159.389 660.23 159.558 659.61 159.671 659.047C159.896 658.034 160.065 657.415 160.121 657.471C160.178 657.471 160.121 658.09 159.952 659.104C159.896 659.61 159.783 660.286 159.671 661.018C159.558 661.75 159.389 662.594 159.164 663.552C158.77 665.409 158.263 667.605 157.588 670.083C156.912 672.504 156.067 675.15 155.054 677.852C154.041 680.555 152.915 683.088 151.788 685.397C151.225 686.523 150.662 687.593 150.099 688.55C149.818 689.057 149.593 689.507 149.311 689.957C149.03 690.408 148.804 690.802 148.523 691.252C148.016 692.097 147.566 692.773 147.115 693.392C146.721 694.011 146.327 694.574 145.989 694.968C145.314 695.7 144.92 696.207 144.92 696.151Z" fill="#BCCED5"/>
<path d="M136.418 692.829C136.362 692.829 136.587 692.266 136.981 691.253C137.375 690.239 137.995 688.832 138.783 687.086C140.416 683.595 142.837 678.81 145.877 673.799C148.974 668.788 152.07 664.453 154.491 661.468C155.674 659.948 156.8 658.822 157.644 658.147C158.489 657.471 159.052 657.189 159.052 657.246C159.108 657.302 158.601 657.64 157.813 658.372C157.025 659.104 156.011 660.23 154.829 661.806C152.521 664.903 149.48 669.238 146.44 674.193C143.343 679.204 140.866 683.877 139.177 687.311C138.332 689.057 137.657 690.408 137.206 691.421C136.756 692.322 136.474 692.829 136.418 692.829Z" fill="#BCCED5"/>
<path d="M130.788 685.17C130.732 685.17 130.788 684.607 131.126 683.706C131.464 682.806 132.196 681.567 133.153 680.216C135.123 677.4 137.995 673.685 141.654 669.969C145.314 666.253 148.917 663.212 151.676 661.242C153.028 660.228 154.21 659.496 154.998 658.99C155.786 658.483 156.237 658.201 156.293 658.258C156.293 658.314 155.899 658.652 155.167 659.215C154.435 659.778 153.309 660.622 151.958 661.636C149.312 663.719 145.708 666.759 142.105 670.475C138.501 674.135 135.517 677.795 133.491 680.497C132.477 681.848 131.689 682.974 131.295 683.819C131.013 684.72 130.844 685.227 130.788 685.17Z" fill="#BCCED5"/>
<path d="M134.447 634.892C134.504 634.836 135.742 635.399 137.657 636.525C139.571 637.651 142.161 639.284 144.92 641.254C147.678 643.225 150.043 645.139 151.732 646.547C153.421 648.011 154.378 648.968 154.322 649.024C154.266 649.08 153.196 648.292 151.451 646.941C149.705 645.59 147.284 643.732 144.525 641.817C141.767 639.847 139.233 638.158 137.431 636.975C135.517 635.737 134.391 635.005 134.447 634.892Z" fill="#BCCED5"/>
<path d="M166.258 656.681C166.258 656.625 167.61 656.287 169.862 656.062C172.114 655.836 175.211 655.78 178.645 655.836C180.334 655.836 181.967 655.837 183.431 655.78C184.895 655.724 186.246 655.611 187.316 655.499C189.511 655.273 190.863 654.936 190.919 655.048C190.919 655.105 189.624 655.611 187.372 655.949C186.246 656.118 184.895 656.287 183.431 656.343C181.967 656.4 180.334 656.456 178.589 656.456C175.154 656.456 172.058 656.4 169.862 656.512C167.61 656.625 166.258 656.794 166.258 656.681Z" fill="#BCCED5"/>
<path d="M163.556 660.567C163.612 660.511 164.569 661.975 165.977 664.339C167.384 666.704 169.242 670.082 171.044 673.911C171.945 675.825 172.677 677.683 173.352 679.428C173.972 681.174 174.478 682.75 174.816 684.101C174.985 684.777 175.154 685.396 175.267 685.903C175.379 686.466 175.492 686.917 175.548 687.311C175.661 688.099 175.717 688.493 175.661 688.493C175.548 688.493 175.21 686.86 174.366 684.214C173.972 682.919 173.409 681.343 172.789 679.654C172.114 677.964 171.325 676.106 170.481 674.192C168.679 670.364 166.878 667.042 165.639 664.564C164.231 662.143 163.499 660.623 163.556 660.567Z" fill="#BCCED5"/>
<path d="M163.556 657.077C163.612 657.02 164.063 657.414 164.795 658.146C165.583 658.878 166.653 659.948 168.004 661.299C169.355 662.651 170.875 664.34 172.508 666.198C174.141 668.112 175.886 670.251 177.688 672.503C179.433 674.812 181.066 677.064 182.417 679.147C183.825 681.23 185.007 683.145 185.965 684.777C186.922 686.41 187.654 687.761 188.16 688.662C188.667 689.619 188.892 690.126 188.836 690.182C188.78 690.182 188.442 689.732 187.879 688.831C187.316 687.93 186.528 686.635 185.514 685.059C184.501 683.483 183.262 681.568 181.854 679.541C180.447 677.514 178.814 675.262 177.069 672.954C175.323 670.646 173.578 668.562 172.001 666.648C170.369 664.734 168.905 663.045 167.61 661.637C166.315 660.23 165.301 659.103 164.57 658.315C163.95 657.527 163.556 657.077 163.556 657.077Z" fill="#BCCED5"/>
<path d="M164.231 656.175C164.231 656.119 164.851 656.344 165.864 656.795C166.146 656.907 166.427 657.02 166.709 657.133C166.99 657.302 167.328 657.47 167.722 657.639C168.454 657.977 169.242 658.371 170.087 658.878C170.537 659.103 170.988 659.385 171.438 659.666C171.889 659.948 172.395 660.229 172.902 660.567C173.915 661.186 174.929 661.918 176.055 662.65C178.194 664.17 180.503 665.916 182.868 667.83C187.597 671.659 191.707 675.318 194.747 677.852C196.268 679.147 197.506 680.16 198.351 680.836C199.195 681.568 199.702 681.962 199.646 681.962C199.589 682.018 199.083 681.681 198.182 681.005C197.281 680.386 195.986 679.372 194.41 678.19C191.257 675.712 187.09 672.165 182.417 668.337C180.052 666.423 177.8 664.677 175.661 663.157C174.591 662.425 173.578 661.693 172.564 661.074C172.057 660.736 171.607 660.454 171.157 660.173C170.706 659.891 170.256 659.61 169.805 659.385C168.961 658.878 168.173 658.428 167.497 658.033C167.159 657.865 166.821 657.639 166.54 657.527C166.258 657.358 165.977 657.245 165.695 657.133C164.738 656.513 164.175 656.175 164.231 656.175Z" fill="#BCCED5"/>
<path d="M170.763 656.23C170.763 656.174 171.27 656.287 172.17 656.568C172.621 656.681 173.128 656.85 173.747 657.075C174.366 657.3 175.042 657.525 175.83 657.807C177.35 658.37 179.152 659.046 181.122 659.946C183.093 660.847 185.233 661.861 187.428 663.043C189.624 664.225 191.651 665.464 193.453 666.646C195.254 667.829 196.831 668.955 198.126 669.968C198.801 670.475 199.364 670.925 199.871 671.319C200.378 671.714 200.828 672.108 201.166 672.389C201.842 673.009 202.236 673.346 202.18 673.403C202.123 673.459 200.547 672.277 197.901 670.362C196.606 669.405 194.973 668.335 193.171 667.209C191.37 666.083 189.343 664.845 187.147 663.662C184.951 662.48 182.868 661.467 180.897 660.566C178.927 659.665 177.181 658.933 175.661 658.314C172.621 656.962 170.707 656.287 170.763 656.23Z" fill="#BCCED5"/>
<path d="M181.46 655.95C181.46 655.893 182.53 656.119 184.219 656.682C185.908 657.245 188.16 658.146 190.581 659.328C193.002 660.51 195.086 661.805 196.549 662.762C198.013 663.776 198.858 664.451 198.802 664.508C198.689 664.677 195.086 662.256 190.3 659.891C185.514 657.526 181.404 656.119 181.46 655.95Z" fill="#BCCED5"/>
<path d="M120.147 662.987C120.147 662.874 122.23 663.156 125.552 663.325C125.946 663.325 126.397 663.381 126.847 663.381C127.297 663.381 127.748 663.381 128.255 663.381C129.212 663.381 130.281 663.381 131.351 663.325C133.547 663.212 135.968 662.987 138.445 662.593C140.923 662.199 143.287 661.636 145.427 661.073C146.497 660.791 147.51 660.51 148.411 660.172C148.861 660.003 149.312 659.89 149.762 659.722C150.213 659.553 150.607 659.44 151.001 659.271C154.097 658.089 155.955 657.188 156.012 657.244C156.012 657.301 155.618 657.582 154.773 657.976C154.379 658.201 153.872 658.483 153.253 658.764C152.634 659.046 151.958 659.384 151.17 659.665C150.776 659.834 150.381 660.003 149.931 660.172C149.481 660.341 149.03 660.51 148.58 660.679C147.679 661.016 146.666 661.354 145.596 661.636C143.456 662.255 141.092 662.818 138.558 663.212C136.024 663.606 133.603 663.775 131.351 663.888C130.225 663.888 129.212 663.944 128.198 663.888C127.692 663.888 127.241 663.888 126.791 663.832C126.34 663.775 125.89 663.775 125.496 663.719C124.651 663.663 123.919 663.55 123.244 663.494C122.568 663.437 122.005 663.325 121.555 663.212C120.654 663.1 120.147 662.987 120.147 662.987Z" fill="#BCCED5"/>
<path d="M113.785 655.049C113.785 654.993 114.404 655.105 115.474 655.274C116.037 655.387 116.656 655.499 117.444 655.612C118.233 655.724 119.077 655.893 120.034 656.006C120.992 656.175 122.061 656.287 123.187 656.456C124.313 656.625 125.552 656.682 126.847 656.851C129.437 657.076 132.252 657.188 135.236 657.245C138.22 657.245 141.035 657.132 143.625 656.907C144.92 656.794 146.159 656.682 147.285 656.569C148.411 656.456 149.481 656.288 150.438 656.175C151.395 656.062 152.296 655.893 153.028 655.781C153.816 655.668 154.435 655.556 154.998 655.443C156.068 655.274 156.687 655.161 156.687 655.218C156.687 655.274 156.124 655.443 155.055 655.724C154.548 655.837 153.872 656.006 153.084 656.175C152.296 656.344 151.451 656.513 150.494 656.682C149.537 656.851 148.467 657.019 147.341 657.188C146.215 657.357 144.976 657.47 143.681 657.582C141.092 657.808 138.22 657.977 135.236 657.977C132.252 657.977 129.381 657.808 126.791 657.526C125.496 657.414 124.257 657.245 123.131 657.076C122.005 656.907 120.935 656.738 119.978 656.569C119.021 656.4 118.12 656.231 117.388 656.062C116.6 655.893 115.981 655.724 115.418 655.612C114.348 655.274 113.785 655.049 113.785 655.049Z" fill="#BCCED5"/>
<path d="M118.627 648.124C118.627 648.067 119.19 648.18 120.147 648.349C120.597 648.461 121.217 648.574 121.892 648.687C122.568 648.799 123.356 648.968 124.201 649.137C125.89 649.475 127.917 649.813 130.169 650.207C132.421 650.545 134.898 650.882 137.544 651.164C140.191 651.445 142.668 651.558 144.976 651.671C147.285 651.783 149.312 651.783 151.057 651.783C151.902 651.783 152.69 651.783 153.422 651.783C154.097 651.783 154.717 651.783 155.167 651.783C156.124 651.783 156.687 651.783 156.687 651.839C156.687 651.896 156.181 651.952 155.167 652.065C154.66 652.121 154.097 652.177 153.422 652.177C152.746 652.234 151.958 652.29 151.057 652.29C149.312 652.346 147.228 652.346 144.976 652.29C142.668 652.234 140.134 652.065 137.488 651.839C134.842 651.558 132.365 651.22 130.056 650.826C127.804 650.432 125.777 650.038 124.088 649.644C123.244 649.475 122.455 649.25 121.836 649.081C121.16 648.912 120.597 648.743 120.147 648.63C119.133 648.349 118.627 648.18 118.627 648.124Z" fill="#BCCED5"/>
<path d="M122.061 641.425C122.117 641.368 122.455 641.65 123.131 642.1C123.806 642.494 124.764 643.114 126.058 643.677C127.353 644.24 128.93 644.803 130.788 645.197C132.59 645.647 134.673 645.929 136.812 646.21C138.952 646.492 141.035 646.661 142.893 646.83C144.751 646.999 146.44 647.224 147.904 647.336C150.719 647.674 152.464 647.899 152.464 648.012C152.464 648.125 150.719 648.012 147.848 647.843C146.44 647.731 144.751 647.618 142.837 647.449C140.979 647.28 138.896 647.111 136.7 646.886C134.504 646.604 132.477 646.267 130.619 645.816C128.761 645.366 127.128 644.746 125.833 644.127C124.538 643.508 123.581 642.832 122.962 642.325C122.343 641.762 122.005 641.425 122.061 641.425Z" fill="#BCCED5"/>
<path d="M143.456 609.726C143.512 609.726 143.906 610.176 144.582 611.133C145.257 612.09 146.158 613.442 147.172 615.187C148.241 616.932 149.424 619.072 150.662 621.436C151.901 623.801 153.252 626.447 154.604 629.319C157.25 634.949 159.164 640.298 160.234 644.239C160.515 645.196 160.741 646.097 160.91 646.885C161.078 647.674 161.247 648.349 161.36 648.912C161.585 650.038 161.641 650.658 161.585 650.658C161.529 650.658 161.36 650.038 161.078 648.968C160.91 648.405 160.741 647.73 160.515 646.942C160.29 646.153 160.065 645.309 159.727 644.295C158.545 640.41 156.574 635.174 153.928 629.544C152.633 626.729 151.282 624.083 150.043 621.662C148.804 619.241 147.678 617.101 146.721 615.356C145.708 613.554 144.92 612.147 144.3 611.189C143.737 610.289 143.456 609.782 143.456 609.726Z" fill="#BCCED5"/>
<path d="M151.901 608.824C151.957 608.824 152.295 609.274 152.914 610.119C153.083 610.344 153.252 610.569 153.421 610.851C153.59 611.132 153.815 611.414 153.984 611.751C154.378 612.371 154.885 613.103 155.335 613.947C155.561 614.341 155.842 614.792 156.067 615.242C156.349 615.693 156.574 616.199 156.856 616.706C157.419 617.72 157.869 618.789 158.432 619.972C159.446 622.28 160.459 624.926 161.304 627.741C162.148 630.557 162.767 633.315 163.162 635.793C163.33 637.031 163.556 638.27 163.612 639.396C163.668 639.959 163.725 640.522 163.781 641.029C163.837 641.536 163.837 642.042 163.893 642.549C163.95 643.506 163.95 644.407 163.95 645.139C163.95 645.533 163.95 645.871 163.95 646.209C163.95 646.546 163.95 646.828 163.893 647.109C163.837 648.179 163.781 648.799 163.725 648.799C163.668 648.799 163.612 648.179 163.612 647.109C163.612 646.828 163.612 646.546 163.612 646.209C163.612 645.871 163.556 645.533 163.556 645.139C163.499 644.407 163.499 643.506 163.387 642.549C163.33 642.099 163.274 641.592 163.274 641.029C163.218 640.522 163.162 639.959 163.105 639.396C162.993 638.27 162.767 637.088 162.598 635.849C162.148 633.372 161.529 630.669 160.684 627.854C159.84 625.039 158.883 622.449 157.869 620.141C157.362 619.015 156.856 617.888 156.349 616.875C156.124 616.368 155.842 615.862 155.617 615.411C155.392 614.961 155.11 614.51 154.885 614.116C154.435 613.272 153.984 612.54 153.59 611.864C153.421 611.526 153.196 611.245 153.083 610.963C152.914 610.682 152.746 610.457 152.633 610.231C152.183 609.387 151.901 608.88 151.901 608.824Z" fill="#BCCED5"/>
<path d="M157.926 609.781C157.982 609.725 158.263 610.063 158.826 610.626C158.939 610.794 159.108 610.963 159.277 611.132C159.446 611.301 159.615 611.526 159.784 611.752C160.121 612.202 160.516 612.709 160.91 613.272C161.135 613.553 161.304 613.891 161.529 614.173C161.754 614.51 161.923 614.848 162.148 615.186C162.599 615.918 162.993 616.706 163.443 617.551C164.288 619.24 165.076 621.154 165.695 623.237C166.315 625.321 166.709 627.347 166.934 629.205C167.047 630.163 167.159 631.007 167.159 631.852C167.159 632.246 167.216 632.696 167.216 633.09C167.216 633.484 167.216 633.822 167.216 634.216C167.216 634.948 167.159 635.568 167.103 636.131C167.103 636.412 167.047 636.694 167.047 636.919C166.99 637.144 166.99 637.369 166.934 637.594C166.821 638.383 166.709 638.833 166.653 638.777C166.54 638.777 166.709 637.031 166.709 634.216C166.709 633.879 166.709 633.484 166.653 633.09C166.653 632.696 166.596 632.302 166.596 631.908C166.54 631.063 166.427 630.219 166.315 629.318C166.033 627.516 165.639 625.489 165.02 623.463C164.4 621.436 163.612 619.521 162.824 617.832C162.43 616.988 162.036 616.2 161.642 615.524C161.416 615.186 161.248 614.792 161.079 614.51C160.853 614.173 160.685 613.891 160.516 613.553C158.995 611.245 157.813 609.894 157.926 609.781Z" fill="#BCCED5"/>
<path d="M137.375 616.257C137.432 616.257 137.713 616.708 138.164 617.609C138.614 618.509 139.346 619.804 140.191 621.381C141.88 624.59 144.301 628.925 147.228 633.599C150.156 638.272 152.971 642.325 155.111 645.253C156.18 646.717 157.025 647.899 157.644 648.688C158.264 649.532 158.545 649.983 158.489 649.983C158.433 650.039 158.095 649.588 157.419 648.857C156.744 648.068 155.843 646.942 154.717 645.535C152.521 642.663 149.593 638.609 146.665 633.936C143.738 629.263 141.373 624.872 139.797 621.606C139.008 619.973 138.389 618.678 137.995 617.721C137.544 616.82 137.319 616.314 137.375 616.257Z" fill="#BCCED5"/>
<path d="M134.729 621.043C134.841 620.986 135.461 622.338 136.531 624.533C137.6 626.673 139.12 629.657 140.978 632.81C142.836 636.019 144.582 638.778 145.933 640.805C147.284 642.832 148.073 644.07 148.016 644.127C147.96 644.183 146.946 643.057 145.539 641.086C144.131 639.116 142.217 636.357 140.415 633.148C138.557 629.939 137.094 626.954 136.136 624.702C135.123 622.45 134.616 621.043 134.729 621.043Z" fill="#BCCED5"/>
<path d="M164.964 654.26C164.964 654.204 165.583 654.091 166.653 653.754C167.722 653.416 169.243 652.853 171.044 651.896C172.846 650.939 174.817 649.644 177.012 648.067C179.208 646.491 181.517 644.745 183.881 642.718C188.611 638.777 192.496 634.667 195.029 631.57C195.705 630.782 196.268 630.05 196.718 629.431C197.225 628.812 197.619 628.249 197.957 627.798C198.633 626.897 199.027 626.391 199.083 626.391C199.139 626.391 198.802 626.954 198.182 627.911C197.901 628.417 197.45 628.981 197 629.6C196.549 630.276 195.986 631.007 195.367 631.796C192.89 635.005 189.061 639.171 184.275 643.169C181.911 645.196 179.546 646.941 177.35 648.461C175.154 649.981 173.071 651.333 171.27 652.233C169.412 653.134 167.835 653.641 166.765 653.923C165.583 654.26 164.964 654.26 164.964 654.26Z" fill="#BCCED5"/>
<path d="M165.752 655.444C165.695 655.332 167.835 654.769 171.213 653.586C171.607 653.417 172.058 653.248 172.508 653.136C172.958 652.967 173.409 652.742 173.916 652.573C174.873 652.179 175.886 651.728 176.956 651.278C179.095 650.321 181.404 649.138 183.712 647.787C186.021 646.436 188.216 644.972 190.074 643.621C191.032 642.945 191.932 642.269 192.721 641.594C193.115 641.256 193.509 640.974 193.903 640.637C194.297 640.299 194.635 640.017 194.973 639.736C197.675 637.427 199.195 635.851 199.308 635.907C199.364 635.964 198.97 636.358 198.295 637.09C197.957 637.484 197.563 637.934 197.056 638.385C196.549 638.891 195.986 639.454 195.311 640.074C194.973 640.355 194.635 640.693 194.297 641.031C193.959 641.369 193.565 641.65 193.115 641.988C192.327 642.664 191.426 643.339 190.469 644.071C188.554 645.479 186.415 646.943 184.05 648.35C181.685 649.701 179.321 650.884 177.181 651.841C176.111 652.291 175.042 652.742 174.085 653.08C173.578 653.248 173.127 653.474 172.677 653.586C172.227 653.755 171.776 653.868 171.326 654.037C170.481 654.318 169.693 654.543 169.017 654.712C168.342 654.938 167.722 655.05 167.272 655.163C166.315 655.388 165.752 655.501 165.752 655.444Z" fill="#BCCED5"/>
<path d="M167.553 656.401C167.553 656.288 169.468 656.232 172.564 655.894C173.353 655.782 174.197 655.725 175.098 655.557C175.999 655.444 176.956 655.219 177.969 655.05C179.996 654.656 182.136 654.093 184.388 653.417C186.64 652.685 188.723 651.897 190.581 651.052C191.538 650.602 192.383 650.264 193.227 649.814C194.072 649.42 194.804 649.025 195.479 648.631C198.182 647.167 199.815 646.098 199.871 646.154C199.871 646.21 199.533 646.492 198.801 646.999C198.463 647.28 198.013 647.562 197.506 647.899C197 648.237 196.38 648.631 195.705 649.025C195.029 649.42 194.297 649.87 193.453 650.264C192.664 650.715 191.763 651.109 190.806 651.559C188.948 652.404 186.809 653.248 184.557 653.98C182.305 654.712 180.053 655.219 178.026 655.613C177.012 655.782 176.055 655.951 175.154 656.063C174.253 656.176 173.409 656.288 172.621 656.345C171.832 656.401 171.157 656.457 170.537 656.457C169.918 656.514 169.411 656.457 168.961 656.457C168.004 656.514 167.553 656.457 167.553 656.401Z" fill="#BCCED5"/>
<path d="M164.456 654.036C164.4 654.036 164.569 653.473 165.02 652.572C165.47 651.671 166.202 650.432 167.272 648.969C168.341 647.505 169.693 645.872 171.213 644.07C172.733 642.269 174.422 640.298 176.28 638.271C179.996 634.274 183.656 630.895 186.471 628.7C187.878 627.63 189.061 626.785 189.905 626.222C190.75 625.659 191.257 625.434 191.257 625.434C191.257 625.49 190.862 625.828 190.074 626.448C189.286 627.067 188.16 627.911 186.752 629.094C183.994 631.346 180.446 634.724 176.73 638.721C174.873 640.692 173.183 642.663 171.607 644.464C170.087 646.266 168.679 647.843 167.553 649.25C166.427 650.658 165.639 651.84 165.132 652.685C164.794 653.585 164.513 654.036 164.456 654.036Z" fill="#BCCED5"/>
<path d="M166.09 644.072C166.033 644.072 166.259 643.677 166.709 643.002C167.159 642.326 167.779 641.425 168.623 640.243C170.312 637.991 172.79 634.951 175.774 631.854C177.294 630.277 178.758 628.87 180.165 627.631C181.573 626.393 182.868 625.323 184.05 624.535C185.232 623.746 186.246 623.183 186.978 622.845C187.71 622.508 188.16 622.395 188.16 622.451C188.217 622.564 186.584 623.24 184.332 624.929C182.08 626.618 179.264 629.264 176.28 632.361C173.296 635.457 170.819 638.385 169.017 640.581C167.216 642.72 166.146 644.128 166.09 644.072Z" fill="#BCCED5"/>
<path d="M44.9826 4.36101C46.9532 3.34756 49.8809 3.17865 52.4145 3.06605C53.991 3.00975 56.2994 2.84084 56.7498 2.50302C58.6078 -0.1995 75.0481 0.588736 81.4666 3.68538C82.3675 4.1358 85.07 5.43076 91.0381 22.3778C94.923 33.3568 99.2582 48.5022 101.961 60.2695C102.073 58.8619 102.186 57.398 102.355 55.9905C103.931 39.0997 107.76 17.3106 113.165 11.3988C118.626 5.43076 123.468 4.3047 126.34 3.62907C127.128 3.46017 128.029 3.23496 128.198 3.06605L128.817 2.0526L129.718 2.84084C132.195 4.92403 135.63 6.83832 136.474 6.21899C137.882 5.14924 140.809 5.31815 143.85 5.43076C145.595 5.48706 148.185 5.65597 148.748 5.26185C149.086 4.98034 149.705 4.36101 150.325 3.68538C152.07 1.82739 153.984 -0.255803 155.842 0.0257099C156.405 0.0820124 157.137 0.419828 157.7 1.54588C158.489 3.23496 159.952 4.64252 161.416 5.93748C162.542 7.00723 163.781 8.13328 164.625 9.42824C165.752 11.1736 164.851 12.9753 164.119 14.4955C163.162 16.5224 162.88 17.3669 164.119 18.2677C165.245 19.1123 166.821 19.4501 168.341 19.8442C171.213 20.5198 174.816 21.4207 174.253 25.9249C173.578 31.0484 174.197 34.7081 175.886 35.8904C177.688 37.1854 176.674 40.1694 175.717 43.0972C175.436 43.9417 175.042 45.1804 174.985 45.7434C175.942 46.419 176.956 47.7703 177.237 49.1778C177.462 50.3039 177.237 51.3736 176.618 52.3308C175.267 54.2451 174.084 58.5241 174.816 59.9879L175.154 60.7199L174.535 61.2266C174.478 61.2829 169.186 65.6182 161.416 70.9669C172.958 67.4762 175.717 68.1518 176.843 68.9964C178.983 70.5728 180.953 72.4871 182.868 74.2888C185.852 77.1602 188.667 79.8627 190.581 79.8064C193.79 79.7501 194.578 83.5787 195.141 86.3375C195.367 87.4636 195.648 88.8149 195.986 89.209C196.268 89.5468 196.831 90.0535 197.506 90.7291C201.222 94.2762 204.544 97.6544 204.263 100.244C204.094 101.821 208.035 108.464 211.92 113.926L212.708 115.052L211.413 115.502C209.33 116.178 203.418 118.88 203.925 121.696C204.431 124.567 202.292 127.213 200.265 129.747C198.857 131.492 197.394 133.294 197.394 134.589C197.394 136.559 196.099 138.98 193.847 141.064C191.144 143.541 187.822 144.836 184.894 144.554C182.305 144.273 181.178 146.075 179.771 148.777C178.814 150.635 177.575 153 175.098 152.212C172.452 151.367 167.835 153.45 166.315 154.295L165.921 154.52L165.526 154.407C164.175 154.013 160.178 153 158.376 153.507C157.588 153.732 156.349 154.745 155.223 155.646C153.478 157.11 151.901 158.349 150.494 158.123C149.931 158.067 149.48 157.729 149.142 157.222C148.973 156.997 148.804 156.716 148.523 156.265C146.327 152.831 139.571 142.302 134.673 138.924C133.828 138.361 132.702 137.235 131.238 135.546C133.321 141.007 134.898 146.075 135.967 150.691C138.445 161.501 138.051 169.778 134.673 175.239C127.015 187.795 121.047 189.484 116.205 190.891C113.39 191.68 111.363 192.299 109.618 194.889L109.055 195.733L108.21 195.114C106.803 194.101 102.693 191.792 100.328 193.031C99.033 193.707 97.2876 195.114 95.7112 196.353C93.0086 198.549 91.4885 199.731 90.3061 199.506C89.912 199.449 89.5179 199.168 89.2927 198.83C88.4481 197.423 77.7507 188.527 74.4851 189.709C71.2759 190.891 68.4044 187.007 66.0397 183.91C65.0826 182.671 63.675 180.757 63.1683 180.644C59.9027 180.644 51.3448 166.569 50.3313 159.475C50.2187 158.517 49.7683 155.59 60.0154 141.739C53.5969 146.863 45.996 152.155 41.3229 152.775C33.2716 153.844 28.88 151.649 26.2338 150.297C25.5582 149.959 24.6573 149.509 24.4321 149.565L23.3061 149.959L23.0808 148.777C22.5178 145.568 21.1103 141.908 20.0405 141.852C18.2952 141.739 16.1556 139.769 13.8472 137.685C12.5523 136.503 10.638 134.758 10.0187 134.701C9.56823 134.645 8.7237 134.758 7.82286 134.87C5.34554 135.208 2.47412 135.546 1.23547 134.195C0.841349 133.801 0.503523 133.012 0.785036 131.83C1.23546 130.028 1.01025 128.001 0.785036 126.087C0.616128 124.511 0.390913 122.878 0.559821 121.358C0.785031 119.331 2.69936 118.486 4.16322 117.811C6.19012 116.91 6.92205 116.403 6.58424 114.939C6.24642 113.588 5.28927 112.293 4.33213 110.998C2.58675 108.633 0.390942 105.649 3.71279 102.553C7.48507 99.0056 9.39933 95.8527 8.8363 93.8258C8.27328 91.6863 10.9758 89.9972 13.5657 88.4207C14.354 87.9703 15.4237 87.2384 15.8179 86.8443C15.5363 85.7182 15.5926 84.0291 16.2682 82.7905C16.8313 81.777 17.6758 81.1014 18.7456 80.8199C21.054 80.2006 24.6574 77.6669 25.0515 76.1468L25.2204 75.3585H26.0086C26.0649 75.3585 28.317 75.3585 31.9767 75.5838C26.6279 72.4308 23.0246 68.8837 21.2229 64.9426C15.0859 51.5989 17.0002 45.6308 18.5767 40.9014C19.4775 38.1425 20.0968 36.1157 18.9708 33.1879L18.5767 32.2308L19.5338 31.8367C21.1103 31.2173 25.333 29.0778 25.6708 26.4879C25.8397 25.024 25.6708 22.7719 25.4456 20.8014C25.1078 17.3106 24.9952 15.4526 25.8397 14.5518C26.1212 14.214 26.5716 14.1014 26.9657 14.1014C28.5985 14.1577 41.9985 10.3291 42.8431 6.89462C43.1809 5.65597 43.9691 4.86773 44.9826 4.36101ZM57.5943 4.36101C56.5246 4.92403 54.7792 4.98034 52.5271 5.09294C49.4868 5.26185 45.3204 5.43076 44.87 7.28874C43.6876 12.0745 30.3439 15.6778 27.3599 16.0156C27.1909 16.8039 27.4161 18.9997 27.5288 20.4635C27.6977 22.6593 27.9229 24.9114 27.6977 26.6005C27.3036 30.0913 23.0809 32.3997 21.1666 33.2442C22.1237 36.3972 21.3355 38.8182 20.4909 41.3518C19.0834 45.7997 17.2817 51.3173 23.0808 63.9291C25.1077 68.377 29.8372 72.3745 37.1565 75.809L42.1675 78.1737L36.6498 77.7795C31.8078 77.4417 28.2044 77.3291 26.7405 77.3291C25.5582 79.6938 21.6733 82.1148 19.2523 82.7342C18.6893 82.9031 18.2951 83.1846 18.0699 83.6913C17.5632 84.6485 17.6195 85.8871 17.8447 86.4501C18.2952 87.8014 16.8313 88.7022 14.6355 90.0535C13.622 90.6728 10.638 92.5308 10.8069 93.2065C11.5389 96.0216 9.56825 99.7375 5.06404 103.96C3.20606 105.649 3.8254 106.888 5.90859 109.703C6.92204 111.054 8.04808 112.631 8.4985 114.376C9.28674 117.642 6.69684 118.824 4.95146 119.612C3.48759 120.288 2.64305 120.738 2.53044 121.527C2.36154 122.822 2.53045 124.229 2.75566 125.749C3.03717 127.889 3.26237 130.085 2.69935 132.28C2.64304 132.506 2.64304 132.675 2.69935 132.731C3.20607 133.294 6.07749 132.956 7.48505 132.787C8.5548 132.675 9.45565 132.506 10.1313 132.562C11.4262 132.675 12.8901 133.97 15.1985 136.053C16.8313 137.573 19.0834 139.6 20.0968 139.656C22.9119 139.825 24.3195 144.892 24.8826 147.426C25.5582 147.538 26.2338 147.933 27.1346 148.327C29.5556 149.565 33.6094 151.649 40.9851 150.635C45.2078 150.072 53.6532 144.554 64.1817 135.49C65.0826 134.758 66.3775 134.758 67.2221 135.546C65.4204 137.854 63.675 140.106 62.1548 142.19C52.696 154.97 52.2456 158.349 52.3582 159.08C53.428 166.569 61.4792 178.111 63.2246 178.505C64.6322 178.505 65.9271 180.194 67.6725 182.559C69.4742 184.98 72.0078 188.301 73.7532 187.682C78.37 185.993 88.8423 195.058 90.7565 197.31C91.4885 196.972 93.1776 195.621 94.3599 194.664C96.049 193.256 97.7943 191.849 99.3145 191.06C102.411 189.484 106.69 191.68 108.492 192.749C110.575 190.216 112.996 189.54 115.586 188.752C120.034 187.457 125.608 185.824 132.871 174.001C135.911 168.99 136.305 161.22 133.941 150.973C132.477 144.667 130.056 137.46 126.621 129.522L123.187 121.527L128.367 128.508C129.999 130.704 131.463 132.506 132.702 133.97C134.391 135.94 135.292 136.728 135.799 137.066C140.472 140.275 146.271 148.833 150.212 154.97C150.494 155.364 150.662 155.646 150.775 155.871C151.282 155.928 152.915 154.576 153.872 153.788C155.279 152.662 156.574 151.592 157.757 151.254C160.121 150.635 164.288 151.705 165.639 152.099C167.103 151.367 172.17 148.89 175.661 150.072C176.336 150.297 176.787 149.678 177.857 147.651C179.095 145.23 180.841 141.964 185.007 142.359C187.315 142.584 190.074 141.514 192.326 139.431C194.128 137.798 195.254 135.884 195.198 134.533C195.198 132.506 196.774 130.479 198.52 128.396C200.321 126.2 202.123 123.891 201.785 121.977C200.997 117.867 206.684 114.996 209.33 113.926C207.078 110.66 201.729 102.722 202.067 99.9065C202.292 98.1048 197.844 93.8821 195.93 92.0804C195.198 91.4048 194.635 90.8417 194.297 90.4476C193.621 89.6594 193.283 88.2518 192.946 86.6191C192.383 83.8602 191.82 81.7207 190.412 81.7207C187.653 81.777 184.725 78.9056 181.235 75.6401C179.377 73.8384 177.406 71.9804 175.379 70.5165C175.098 70.2913 173.015 69.3905 161.191 72.9938C159.22 73.6132 157.025 74.3451 154.66 75.1333L146.44 77.9485L153.759 73.2754C163.162 67.3073 170.425 61.5644 172.452 59.9879C171.889 57.398 173.24 53.119 174.704 51.0358C175.042 50.5854 175.154 50.0787 174.985 49.5157C174.76 48.5022 173.915 47.5451 173.352 47.2636C172.114 46.5316 172.677 44.8989 173.521 42.4215C173.859 41.2955 174.985 37.9173 174.422 37.5232C172.057 35.8341 171.157 31.7241 171.945 25.5871C172.283 23.1098 170.988 22.5467 167.61 21.7585C165.977 21.3644 164.119 20.914 162.655 19.8442C159.952 17.8736 161.191 15.2837 162.036 13.5383C162.711 12.1308 163.105 11.1736 162.655 10.498C161.923 9.42824 160.91 8.41479 159.783 7.40135C158.207 5.93748 156.631 4.41731 155.617 2.39042C155.505 2.16521 155.392 2.0526 155.336 1.9963C154.547 1.88369 152.577 4.02319 151.676 5.03664C150.944 5.82487 150.325 6.5005 149.818 6.89462C148.805 7.68286 146.778 7.57025 143.625 7.45765C141.429 7.34504 138.389 7.23244 137.544 7.85177C135.236 9.54084 130.957 6.55681 128.93 4.98034C128.367 5.31815 127.578 5.48706 126.621 5.71227C123.975 6.3316 119.527 7.34504 114.516 12.8627C109.787 18.0425 105.958 38.3678 104.269 56.272C103.875 60.6073 103.594 64.7737 103.481 68.3207L103.256 75.1333L103.819 78.3426C105.452 87.5762 112.602 89.4342 113.503 89.6594C114.235 89.6594 114.967 89.5468 115.642 89.4905L120.822 88.9838L115.304 91.9115C109.956 94.7829 109.336 95.7964 109.336 95.909C109.336 95.9653 109.111 96.7535 110.294 99.625C110.35 99.7939 110.462 100.019 110.519 100.188L111.588 102.609L109.167 101.539C105.057 99.7376 101.229 99.9628 97.7381 102.215C96.8935 102.778 95.7112 103.735 94.191 105.143L91.3196 107.789L92.5019 104.073C94.5851 97.5981 91.3195 93.0375 90.8691 92.4182C89.4616 91.3485 87.8851 90.2787 86.1961 89.3216C85.7456 89.0401 85.2389 88.8148 84.7322 88.5333L80.1154 86.1686L85.2952 86.6191C88.7297 86.9006 91.0943 87.0695 91.7137 87.0695C91.9952 87.0132 92.6145 86.8443 93.459 86.5064C93.8532 86.3375 94.3036 86.1686 94.754 85.9434C97.2876 84.7048 100.609 82.3401 101.792 78.23L102.636 75.2459L101.398 68.4333C101.229 67.5325 101.06 66.519 100.835 65.5056C98.4137 53.4005 93.4028 35.6089 88.9549 23.1098C83.6624 8.07698 81.0725 5.88118 80.3969 5.54336C73.6405 2.22151 59.5086 2.50302 58.2137 3.68538C58.1574 3.96689 57.9322 4.1921 57.5943 4.36101ZM112.152 91.2922C109.899 90.5039 104.888 88.1392 102.636 81.6644C100.835 84.7611 98.0196 86.6754 95.7112 87.8014C95.2044 88.0266 94.6977 88.2518 94.2473 88.4207C93.0087 88.9275 92.1078 89.0964 92.1078 89.0964H91.8263C91.8263 89.0964 91.038 89.0401 89.6868 88.9838C90.5876 89.6031 91.4885 90.2224 92.2767 90.8417L92.4456 91.0107C92.6145 91.2359 95.9927 95.2897 95.2045 101.539C95.7675 101.089 96.2742 100.695 96.6683 100.469C100.722 97.8233 104.72 97.9359 107.816 98.8367C107.084 96.6972 107.197 95.7401 107.366 95.2333C107.704 94.5014 108.492 93.488 112.152 91.2922Z" fill="#BCCED5"/>
<path d="M94.3037 104.298C94.4726 104.467 92.8399 106.381 90.1936 109.421C87.4911 112.462 83.8315 116.684 79.7777 121.301C75.7802 125.974 72.1205 130.197 69.4743 133.237C66.8281 136.278 65.139 138.136 64.9701 138.023C64.8012 137.91 66.2087 135.771 68.6298 132.562C71.0508 129.296 74.5415 124.961 78.5953 120.288C82.6491 115.615 86.4777 111.561 89.3491 108.689C92.2768 105.818 94.1911 104.129 94.3037 104.298Z" fill="#BCCED5"/>
<path d="M108.774 99.57C109.055 99.2884 114.066 103.849 118.627 110.83C123.187 117.812 125.383 124.23 124.989 124.343C124.595 124.512 121.836 118.488 117.332 111.675C112.884 104.806 108.492 99.8515 108.774 99.57Z" fill="#BCCED5"/>
<path d="M123.356 187.064C123.074 187.064 123.468 182.053 123.243 173.945C123.187 172.932 123.187 171.862 123.13 170.792C123.074 169.666 123.018 168.54 122.905 167.358C122.793 164.993 122.511 162.459 122.23 159.813C121.61 154.521 120.709 148.722 119.527 142.641C118.288 136.617 116.824 130.93 115.361 125.75C113.897 120.627 112.433 116.01 111.138 112.181C110.519 110.267 109.899 108.522 109.336 107.001C108.83 105.481 108.379 104.186 107.985 103.116C107.253 100.977 106.859 99.7946 106.972 99.7383C107.084 99.682 107.647 100.808 108.548 102.891C108.998 103.905 109.561 105.2 110.181 106.72C110.8 108.24 111.476 109.929 112.208 111.843C113.672 115.616 115.248 120.232 116.768 125.356C118.288 130.536 119.809 136.222 121.047 142.303C122.286 148.384 123.13 154.239 123.693 159.588C123.919 162.291 124.144 164.824 124.2 167.189C124.256 168.371 124.313 169.554 124.313 170.68C124.313 171.806 124.313 172.875 124.313 173.889C124.369 175.916 124.2 177.774 124.144 179.35C124.088 180.983 123.975 182.334 123.862 183.46C123.637 185.881 123.412 187.12 123.356 187.064Z" fill="#BCCED5"/>
<path d="M103.706 192.751C103.594 192.751 103.763 191.399 104.213 189.091C104.438 187.909 104.663 186.501 104.945 184.812C105.17 183.123 105.564 181.265 105.789 179.125C105.902 178.056 106.071 176.986 106.24 175.804C106.352 174.621 106.465 173.439 106.578 172.2C106.859 169.723 107.028 167.02 107.197 164.261C107.478 158.631 107.591 152.438 107.422 145.963C107.197 139.488 106.747 133.295 106.184 127.721C105.564 122.147 104.889 117.08 104.213 112.914C103.931 110.83 103.537 108.916 103.256 107.227C102.974 105.538 102.749 104.13 102.524 102.948C102.13 100.583 101.905 99.2883 102.017 99.2883C102.13 99.2883 102.524 100.527 103.087 102.835C103.368 104.018 103.763 105.425 104.1 107.058C104.438 108.747 104.889 110.605 105.283 112.688C106.127 116.911 106.915 121.922 107.591 127.552C108.267 133.182 108.773 139.376 108.999 145.907C109.168 152.438 108.999 158.688 108.661 164.318C108.436 167.133 108.21 169.835 107.873 172.313C107.704 173.551 107.591 174.79 107.422 175.916C107.253 177.042 107.084 178.168 106.915 179.238C106.634 181.377 106.184 183.235 105.846 184.925C105.508 186.614 105.17 188.021 104.889 189.204C104.157 191.512 103.819 192.751 103.706 192.751Z" fill="#BCCED5"/>
<path d="M83.2117 193.144C83.0991 193.144 83.0429 191.793 82.9866 189.372C82.9303 186.951 82.9866 183.46 83.1555 179.125C83.4933 170.454 84.4504 158.518 86.5336 145.512C88.6168 132.45 91.4319 120.795 93.7967 112.519C94.979 108.352 96.3302 105.087 97.5126 102.947C98.695 100.808 99.5395 99.7942 99.6521 99.7942C99.7647 99.8505 99.0328 100.977 98.0757 103.172C97.0622 105.368 95.9361 108.634 94.8664 112.8C92.7269 121.133 90.137 132.787 88.0538 145.737C85.9706 158.743 84.8445 170.567 84.2252 179.181C83.9437 183.46 83.7185 186.951 83.6059 189.372C83.4369 191.793 83.3243 193.144 83.2117 193.144Z" fill="#BCCED5"/>
<path d="M65.026 182.052C64.9134 182.052 64.5755 180.926 64.5192 178.73C64.4629 176.591 64.9134 173.438 65.7579 169.722C67.3907 162.234 70.2621 152.043 74.6537 141.176C78.989 130.31 84 120.964 87.9974 114.433C89.968 111.167 91.7134 108.577 92.952 106.832C94.1907 105.087 94.9227 104.186 95.0353 104.242C95.1479 104.298 94.5848 105.368 93.4588 107.17C92.389 109.028 90.8126 111.674 88.9546 114.996C85.2386 121.639 80.4529 130.986 76.1176 141.739C71.7823 152.493 68.7983 162.571 66.884 169.947C65.8705 173.607 65.3075 176.591 65.1949 178.73C65.026 180.87 65.1949 182.052 65.026 182.052Z" fill="#BCCED5"/>
<path d="M29.443 74.5698C29.4993 74.3446 32.5396 74.5698 37.4943 75.2454C42.3926 75.9211 49.2052 77.1034 56.5808 78.7925C63.9565 80.4816 70.6002 82.4522 75.2733 83.9723C80.0027 85.5488 82.8178 86.6749 82.7615 86.9001C82.7052 87.1253 79.7212 86.337 74.9355 85.0421C70.1498 83.7471 63.5623 82.0017 56.1867 80.3127C48.8111 78.6236 42.1111 77.2723 37.269 76.3152C32.427 75.4143 29.443 74.795 29.443 74.5698Z" fill="#BCCED5"/>
<path d="M114.122 92.5319C114.009 92.363 116.543 90.505 121.047 88.1403C125.495 85.7192 131.913 82.9604 139.007 80.089C142.555 78.6251 145.933 77.2176 148.917 75.8663C151.901 74.4587 154.603 73.1638 156.799 71.9814C161.191 69.5604 163.724 67.815 163.893 67.9839C164.006 68.0965 161.641 70.236 157.362 72.8823C155.223 74.2335 152.576 75.6411 149.536 77.1613C146.496 78.6251 143.174 80.089 139.627 81.5529C132.533 84.4243 126.058 87.0142 121.554 89.1537C116.993 91.2369 114.291 92.7571 114.122 92.5319Z" fill="#BCCED5"/>
<path d="M111.926 102.89C112.039 102.722 115.192 104.917 120.147 108.69C125.101 112.462 131.857 117.754 138.839 124.173C142.33 127.382 145.539 130.591 148.298 133.632C151.057 136.672 153.478 139.543 155.336 142.021C156.293 143.259 157.081 144.442 157.813 145.399C158.545 146.412 159.108 147.313 159.558 148.045C160.459 149.509 160.91 150.353 160.853 150.41C160.628 150.522 158.432 147.426 154.491 142.64C152.52 140.275 150.099 137.517 147.284 134.532C144.469 131.605 141.26 128.452 137.826 125.243C130.9 118.88 124.257 113.419 119.471 109.478C114.685 105.593 111.757 103.059 111.926 102.89Z" fill="#BCCED5"/>
<path d="M108.942 95.5721C108.998 95.4594 110.237 95.9099 112.489 96.6981C114.741 97.4863 117.95 98.7813 121.835 100.47C125.776 102.159 130.337 104.299 135.404 106.776C140.415 109.31 145.933 112.238 151.563 115.503C157.193 118.769 162.429 122.091 167.103 125.187C171.776 128.34 175.942 131.268 179.32 133.858C182.755 136.391 185.457 138.531 187.259 140.107C189.061 141.628 190.074 142.528 190.018 142.585C189.961 142.641 188.835 141.965 186.921 140.558C185.007 139.15 182.192 137.18 178.701 134.759C175.21 132.338 171.044 129.466 166.314 126.426C161.585 123.386 156.349 120.12 150.775 116.854C145.145 113.589 139.74 110.661 134.785 108.071C129.774 105.481 125.27 103.286 121.441 101.484C117.613 99.6821 114.46 98.2183 112.32 97.2611C110.068 96.304 108.886 95.6847 108.942 95.5721Z" fill="#BCCED5"/>
<path d="M109.449 93.1493C109.449 93.0367 110.856 92.9804 113.334 93.0367C113.953 93.0367 114.629 93.0367 115.417 93.0367C116.205 93.0367 116.993 93.1493 117.894 93.2056C119.696 93.3182 121.723 93.4309 123.918 93.7687C125.045 93.8813 126.227 94.0502 127.409 94.2191C128.648 94.388 129.887 94.6132 131.182 94.8384C133.771 95.2325 136.53 95.8519 139.458 96.4149C145.257 97.7098 151.563 99.3426 158.094 101.313C171.156 105.254 182.867 109.308 191.369 111.954C195.648 113.306 199.082 114.375 201.503 115.051C203.924 115.783 205.219 116.233 205.163 116.346C205.163 116.459 203.756 116.177 201.335 115.67C198.914 115.164 195.366 114.206 191.087 113.024C182.473 110.659 170.706 106.775 157.7 102.833C151.169 100.863 144.919 99.1737 139.177 97.8224C136.305 97.2031 133.603 96.5275 131.013 96.0771C129.718 95.8519 128.479 95.5704 127.297 95.4014C126.114 95.2325 124.932 95.0636 123.862 94.8947C121.666 94.5006 119.639 94.3317 117.894 94.1065C116.993 93.9939 116.205 93.9376 115.473 93.825C114.741 93.7687 114.009 93.7124 113.39 93.6561C110.8 93.4308 109.449 93.2619 109.449 93.1493Z" fill="#BCCED5"/>
<path d="M123.074 87.6902C123.074 87.5776 124.2 87.4087 126.227 87.1835C127.241 87.0709 128.479 86.902 129.943 86.8457C131.407 86.7331 133.04 86.6205 134.841 86.5079C138.501 86.339 142.836 86.2827 147.678 86.339C152.52 86.4516 157.813 86.7894 163.387 87.3524C168.961 87.9718 174.197 88.76 178.926 89.6608C183.656 90.5617 187.935 91.5188 191.482 92.476C193.227 92.9264 194.804 93.3768 196.211 93.8272C197.619 94.2213 198.801 94.6155 199.758 94.9533C201.673 95.6289 202.742 96.023 202.742 96.1356C202.686 96.3608 198.351 95.1785 191.2 93.5457C187.653 92.7575 183.431 91.8566 178.701 91.0684C173.972 90.2802 168.736 89.4919 163.218 88.9289C157.7 88.3659 152.408 88.0281 147.622 87.8029C142.836 87.6339 138.501 87.5776 134.841 87.6339C127.578 87.6339 123.074 87.9155 123.074 87.6902Z" fill="#BCCED5"/>
<path d="M145.089 77.8927C145.089 77.7238 147.51 77.2734 151.451 76.9918C155.392 76.7103 160.853 76.5977 166.878 77.0481C172.902 77.4423 178.307 78.2868 182.192 79.1313C186.077 79.9196 188.385 80.6515 188.329 80.8767C188.216 81.3271 178.701 79.4129 166.765 78.6246C154.829 77.7238 145.145 78.3431 145.089 77.8927Z" fill="#BCCED5"/>
<path d="M23.9252 145.062C23.8689 144.78 28.3731 143.711 35.4109 141.177C36.3118 140.839 37.2126 140.501 38.1697 140.163C39.1269 139.826 40.0841 139.375 41.0975 138.981C43.1244 138.193 45.2639 137.179 47.516 136.222C51.9639 134.139 56.8059 131.605 61.6479 128.678C66.49 125.694 70.8815 122.541 74.8227 119.557C76.737 118.037 78.595 116.573 80.2278 115.109C81.0723 114.377 81.8605 113.701 82.6488 113.026C83.3807 112.35 84.1127 111.674 84.7883 111.055C90.2496 105.931 93.2899 102.441 93.4589 102.61C93.5152 102.666 92.8396 103.623 91.5446 105.256C90.869 106.1 90.0807 107.058 89.0673 108.184C88.0538 109.253 86.9278 110.548 85.5765 111.9C84.9009 112.575 84.2253 113.251 83.4933 113.983C82.7614 114.715 81.9732 115.39 81.1286 116.122C79.4959 117.642 77.6941 119.163 75.7799 120.739C71.895 123.836 67.4471 127.045 62.5488 130.085C57.6504 133.069 52.7521 135.547 48.1916 137.63C45.8832 138.587 43.7437 139.544 41.6605 140.276C40.5908 140.67 39.6336 141.064 38.6765 141.402C37.7193 141.74 36.7622 142.021 35.8614 142.303C34.0597 142.922 32.4269 143.316 30.963 143.711C29.5555 144.105 28.2605 144.386 27.2471 144.611C25.0513 144.949 23.9252 145.174 23.9252 145.062Z" fill="#BCCED5"/>
<path d="M3.82507 134.081C3.82507 133.968 5.12005 133.63 7.54106 133.124C8.72342 132.898 10.1873 132.56 11.8763 132.166C13.5654 131.772 15.536 131.378 17.6192 130.815C19.7587 130.308 22.0671 129.689 24.5444 128.957C27.0217 128.282 29.668 127.437 32.4268 126.592C37.9444 124.791 43.9125 122.708 50.1058 120.174C56.2991 117.64 62.0419 114.938 67.2218 112.348C69.8117 110.997 72.2327 109.758 74.4848 108.519C76.7369 107.281 78.8201 106.098 80.7344 104.972C82.6487 103.902 84.3378 102.833 85.8016 101.932C87.3218 101.031 88.5604 100.243 89.5739 99.5672C91.6571 98.2722 92.8394 97.5966 92.8957 97.6529C92.952 97.7655 91.8823 98.6101 89.9117 100.074C88.8982 100.806 87.7159 101.707 86.252 102.664C84.7882 103.621 83.1554 104.803 81.2974 105.929C79.4394 107.112 77.3562 108.407 75.1041 109.645C72.852 110.997 70.431 112.292 67.8411 113.643C62.6613 116.345 56.8621 119.104 50.6688 121.638C44.4192 124.171 38.3949 126.255 32.8209 128C30.0058 128.788 27.3596 129.633 24.8823 130.196C22.3486 130.871 20.0402 131.378 17.8444 131.829C15.7049 132.335 13.7344 132.673 11.989 133.011C10.2436 133.349 8.77972 133.574 7.54106 133.743C5.17636 134.024 3.82507 134.193 3.82507 134.081Z" fill="#BCCED5"/>
<path d="M8.04773 115.614C8.04773 115.501 9.23011 115.22 11.3696 114.825C12.4394 114.657 13.7343 114.375 15.2545 114.094C16.7746 113.812 18.52 113.474 20.378 113.08C24.2066 112.348 28.7108 111.335 33.7217 110.152C38.7327 108.914 44.1377 107.45 49.8242 105.761C55.5108 104.015 60.8596 102.214 65.6453 100.468C70.4873 98.723 74.7663 97.0339 78.3697 95.5137C80.1713 94.7818 81.8041 94.1062 83.2116 93.4868C84.6192 92.9238 85.8579 92.3608 86.8713 91.9103C88.8982 91.0658 90.0243 90.6154 90.0806 90.728C90.1369 90.8406 89.0671 91.4036 87.1529 92.4734C86.1957 92.9801 85.0133 93.5994 83.6058 94.2751C82.1982 94.9507 80.6217 95.7389 78.8201 96.5272C75.273 98.1599 70.994 99.9616 66.152 101.763C61.31 103.565 55.9612 105.479 50.2747 107.168C44.5881 108.857 39.0705 110.321 34.0595 111.447C28.9923 112.573 24.4318 113.474 20.6032 114.094C18.6889 114.431 16.9436 114.657 15.4234 114.882C13.9032 115.107 12.5519 115.276 11.4822 115.332C9.23009 115.614 8.04773 115.726 8.04773 115.614Z" fill="#BCCED5"/>
<path d="M9.28687 98.7232C9.34317 98.6106 10.3003 98.7795 12.0457 99.1736C13.7911 99.4551 16.3247 99.8492 19.5339 99.9618C22.6869 100.074 26.4592 99.7929 30.6255 99.1173C34.7919 98.4417 39.2962 97.3719 43.9693 96.0207C48.6424 94.7257 53.0903 93.3181 57.144 92.0795C61.1978 90.8408 64.8575 89.7711 67.9541 88.9265C74.0911 87.1812 77.976 86.1677 78.0323 86.3929C78.0886 86.6181 74.3727 87.9694 68.292 89.9963C65.2516 91.0097 61.6483 92.1921 57.5945 93.487C53.5407 94.782 49.1491 96.1896 44.4197 97.5408C39.6902 98.8921 35.1298 99.9618 30.9071 100.525C26.6844 101.144 22.7995 101.313 19.5339 101.088C16.2684 100.863 13.7348 100.3 11.9894 99.7929C10.1877 99.2299 9.28687 98.8358 9.28687 98.7232Z" fill="#BCCED5"/>
<path d="M26.6277 14.6073C26.684 14.4947 27.9227 15.1703 30.1185 16.5779C32.3143 17.9292 35.3546 20.0123 39.0143 22.7712C42.674 25.53 46.953 28.9082 51.6261 32.793C56.2992 36.6779 61.3664 41.0132 66.49 45.7426C76.8496 55.2015 85.4076 64.604 91.0379 71.867C92.4455 73.6687 93.6841 75.3578 94.7538 76.8216C95.7673 78.3418 96.7244 79.5805 97.4001 80.6502C98.7513 82.7897 99.4833 84.0284 99.427 84.0847C99.3144 84.141 98.4698 83.0149 96.9496 80.988C96.1614 79.9746 95.2042 78.7359 94.0782 77.3284C92.9521 75.9208 91.6572 74.288 90.1933 72.5426C84.3942 65.5048 75.7799 56.2712 65.4765 46.8687C60.353 42.1393 55.342 37.804 50.7252 33.8628C46.1084 29.9216 41.942 26.4308 38.395 23.6157C34.8479 20.7443 31.8639 18.5485 29.7807 17.0283C27.6975 15.5081 26.5714 14.6636 26.6277 14.6073Z" fill="#BCCED5"/>
<path d="M43.406 5.48845C43.4623 5.37584 44.6447 6.05147 46.6716 7.34643C47.1783 7.68425 47.7414 8.02206 48.3607 8.41618C48.98 8.8103 49.5993 9.26072 50.3313 9.76744C51.7388 10.7809 53.3716 11.8506 55.0607 13.2019C55.9052 13.8775 56.8061 14.5532 57.7632 15.2851C58.7203 16.017 59.6212 16.8053 60.5783 17.6498C62.5489 19.2263 64.5195 21.1406 66.659 23.0548C70.7691 26.996 75.1607 31.6128 79.3271 36.6801C83.4935 41.8036 87.0968 46.9834 90.1372 51.8255C91.601 54.3028 93.0086 56.6112 94.191 58.8633C94.8103 59.9893 95.3733 61.0591 95.9363 62.1288C96.4431 63.1986 96.9498 64.212 97.4002 65.1692C98.3574 67.0835 99.0893 68.9414 99.7649 70.5179C100.103 71.3061 100.441 72.0381 100.666 72.7137C100.891 73.3893 101.172 74.0087 101.341 74.628C102.186 76.8801 102.58 78.1751 102.467 78.2314C102.355 78.2877 101.792 77.049 100.778 74.8532C100.553 74.2902 100.272 73.6709 99.9901 73.0515C99.6523 72.3759 99.3145 71.7003 98.9767 70.912C98.2447 69.3919 97.4565 67.5902 96.3868 65.7322C95.88 64.7751 95.3733 63.7616 94.8103 62.7482C94.2473 61.7347 93.6279 60.665 93.0086 59.5389C91.77 57.3431 90.3624 55.0347 88.8422 52.6137C85.7456 47.828 82.1422 42.7607 78.0321 37.6935C73.8657 32.6263 69.5867 28.0658 65.5893 24.1246C63.5061 22.154 61.5918 20.296 59.6775 18.6632C58.7203 17.8187 57.8195 17.0305 56.9187 16.2422C56.0178 15.5103 55.117 14.7784 54.3287 14.1027C52.696 12.6952 51.1195 11.5691 49.7683 10.5557C49.0926 10.049 48.4733 9.54223 47.9103 9.09181C47.2909 8.64139 46.7842 8.30357 46.2775 7.90946C44.3632 6.44559 43.3497 5.60105 43.406 5.48845Z" fill="#BCCED5"/>
<path d="M56.6931 2.33362C56.7494 2.22102 57.6502 2.61514 59.283 3.40337C59.6771 3.57228 60.1276 3.79749 60.6343 4.0227C61.0847 4.24791 61.6477 4.58572 62.1544 4.86724C63.2242 5.48657 64.5192 6.1622 65.8704 7.06304C66.5461 7.51346 67.2217 7.96388 67.9536 8.4143C68.6855 8.92102 69.4175 9.48405 70.1494 9.99077C71.6696 11.0605 73.1897 12.4118 74.8225 13.763C77.9755 16.5782 81.2973 19.8437 84.394 23.616C87.4906 27.3883 90.0242 31.2731 92.1637 34.9891C93.1772 36.8471 94.1343 38.5925 94.9225 40.3379C95.3166 41.1824 95.7108 42.0269 96.0486 42.8152C96.3864 43.6034 96.6679 44.3916 97.0057 45.1236C97.6251 46.5874 98.0192 47.995 98.4133 49.1774C98.5822 49.7967 98.8074 50.3597 98.9763 50.8664C99.0889 51.3732 99.2015 51.8799 99.3141 52.3303C99.7645 54.0757 99.9335 55.0328 99.8209 55.0328C99.5394 55.0891 98.4696 51.3169 95.9923 45.5177C95.6545 44.7858 95.3167 44.0538 94.9788 43.2656C94.641 42.4773 94.1906 41.6891 93.7965 40.8446C93.0083 39.1555 91.9948 37.4664 90.9814 35.6647C88.8419 32.1177 86.2519 28.2891 83.2679 24.5731C80.2276 20.8572 77.0183 17.5916 73.9217 14.7765C72.3452 13.4252 70.8813 12.074 69.4175 10.9479C68.6855 10.3849 68.0099 9.82186 67.278 9.31514C66.6024 8.80842 65.9267 8.358 65.2511 7.85127C60.0713 4.41682 56.5805 2.61513 56.6931 2.33362Z" fill="#BCCED5"/>
<path d="M19.5335 33.4134C19.5898 33.3571 20.6033 34.0891 22.3487 35.5529C24.094 37.0168 26.6276 39.1 29.7243 41.6899C35.9739 46.8134 44.7571 53.7949 54.7789 60.9454C64.8008 68.0958 74.2033 74.1765 81.1285 78.3992C84.563 80.4824 87.3781 82.2277 89.2924 83.4101C91.2067 84.5924 92.2765 85.3244 92.2202 85.3807C92.1638 85.4933 91.0378 84.9303 89.0109 83.9168C86.984 82.9034 84.1126 81.3269 80.5655 79.3C73.5277 75.3025 63.9562 69.3345 53.8781 62.1277C43.7999 54.921 35.073 47.8269 28.9924 42.4218C25.952 39.7193 23.531 37.5235 21.8982 35.947C20.3218 34.3706 19.4772 33.4697 19.5335 33.4134Z" fill="#BCCED5"/>
<path d="M18.1261 45.5184C18.295 45.3495 20.7723 47.6016 24.8824 51.1487C28.9362 54.6957 34.679 59.5377 41.2101 64.605C47.7412 69.6159 53.8782 73.9512 58.3261 76.9915C62.8303 80.0319 65.5891 81.8899 65.4765 82.0588C65.3639 82.2277 62.3799 80.7075 57.7068 77.8924C53.0336 75.0773 46.7841 70.9109 40.253 65.8436C33.6656 60.7764 28.0353 55.7655 24.1504 51.9932C20.2093 48.1646 17.9571 45.6873 18.1261 45.5184Z" fill="#BCCED5"/>
<path d="M109.337 88.5339C109.28 88.4213 110.463 87.6331 112.377 86.0566C114.347 84.4239 116.994 81.9465 119.865 78.4558C122.737 74.965 125.777 70.5171 128.93 65.3936C132.083 60.2701 135.405 54.5835 138.614 48.4465C145.032 36.1726 149.537 24.4053 152.239 15.7347C152.915 13.5952 153.478 11.5683 153.984 9.87926C154.435 8.13388 154.829 6.61371 155.167 5.43136C155.786 2.95405 156.18 1.60278 156.293 1.60278C156.405 1.60278 156.237 3.01035 155.786 5.54396C155.561 6.78262 155.223 8.30279 154.829 10.1045C154.379 11.8499 153.928 13.8767 153.309 16.0725C150.888 24.912 146.496 36.7919 140.021 49.1785C136.812 55.3717 133.434 61.1146 130.168 66.1818C126.959 71.3054 123.75 75.7533 120.71 79.1877C117.669 82.6222 114.854 85.0995 112.771 86.5634C110.631 88.0272 109.337 88.6465 109.337 88.5339Z" fill="#BCCED5"/>
<path d="M112.039 90.3359C111.87 90.1107 115.811 87.1267 121.723 81.7779C122.455 81.1023 123.243 80.3704 124.031 79.6384C124.819 78.9065 125.608 78.062 126.452 77.2737C128.141 75.6409 129.887 73.8393 131.688 71.925C135.292 68.0401 139.064 63.6485 142.724 58.8628C146.383 54.0208 149.593 49.1787 152.408 44.7308C153.759 42.4787 155.054 40.3392 156.18 38.256C156.743 37.2426 157.306 36.2292 157.813 35.272C158.32 34.3149 158.77 33.3577 159.22 32.5132C162.824 25.4191 164.682 20.8023 164.907 20.9149C165.02 20.9712 164.625 22.1535 163.893 24.2367C163.499 25.3065 163.049 26.6014 162.43 28.0653C161.81 29.5291 161.135 31.2182 160.234 33.0199C159.783 33.9207 159.333 34.8779 158.883 35.8913C158.432 36.8485 157.869 37.8619 157.306 38.9317C156.236 41.0149 154.941 43.2107 153.646 45.5191C150.944 50.0796 147.678 54.9779 143.962 59.8762C140.246 64.7746 136.361 69.1661 132.702 72.9947C130.844 74.909 129.098 76.7107 127.297 78.2872C126.452 79.0754 125.608 79.8636 124.763 80.5956C123.919 81.3275 123.13 82.0031 122.398 82.6788C120.878 84.03 119.471 85.0998 118.176 86.1132C116.937 87.1267 115.811 87.9149 114.91 88.5342C113.109 89.7729 112.095 90.4485 112.039 90.3359Z" fill="#BCCED5"/>
<path d="M116.6 90.8421C116.487 90.6169 120.428 88.8715 126.565 85.4934C128.085 84.6489 129.774 83.6917 131.463 82.622C133.209 81.6085 135.067 80.3699 136.981 79.1312C140.753 76.5413 144.863 73.5573 148.917 70.1791C152.971 66.7446 156.631 63.2539 159.84 59.9883C161.416 58.2993 162.937 56.7228 164.232 55.1463C165.583 53.6261 166.821 52.1623 167.891 50.811C172.283 45.406 174.647 41.8026 174.873 41.9715C174.985 42.0278 174.422 42.985 173.409 44.674C172.902 45.5186 172.283 46.532 171.495 47.6581C170.706 48.7841 169.862 50.1354 168.736 51.4866C167.666 52.8942 166.54 54.4144 165.189 55.9909C163.894 57.6236 162.43 59.2001 160.853 60.9455C157.7 64.3236 153.984 67.8707 149.931 71.3615C145.821 74.7959 141.654 77.7799 137.769 80.3136C135.799 81.5522 133.941 82.7346 132.139 83.748C130.337 84.7615 128.648 85.6623 127.072 86.4505C125.552 87.2951 124.088 87.9144 122.793 88.4774C121.554 89.0405 120.428 89.4909 119.527 89.885C117.669 90.6169 116.6 90.9547 116.6 90.8421Z" fill="#BCCED5"/>
<path d="M108.154 88.5326C108.041 88.5326 107.985 87.294 108.154 85.0419C108.323 82.7898 108.773 79.5242 109.73 75.6394C110.688 71.6982 112.151 67.1377 113.728 62.1267C115.361 57.0595 117.219 51.5419 119.302 45.799C123.525 34.3133 128.31 24.2351 132.308 17.2536C134.278 13.7628 136.08 11.004 137.375 9.20234C138.67 7.34435 139.458 6.38721 139.515 6.44351C139.627 6.49981 139.008 7.56956 137.882 9.54015C136.756 11.4544 135.179 14.2696 133.265 17.8166C129.549 24.8544 124.988 34.9326 120.766 46.4183C118.626 52.1612 116.768 57.6225 115.079 62.6898C113.39 67.7007 111.87 72.2049 110.8 76.0335C109.73 79.8621 109.111 83.015 108.773 85.2108C108.435 87.294 108.323 88.5326 108.154 88.5326Z" fill="#BCCED5"/>
<path d="M102.974 66.4636C102.862 66.4636 102.974 65.4501 103.312 63.7048C103.65 61.9594 104.156 59.4821 104.945 56.3854C106.465 50.2485 108.999 41.8031 112.546 32.7947C114.291 28.2904 116.205 24.0678 118.007 20.2955C119.809 16.5232 121.61 13.1451 123.356 10.4988C125.101 7.85262 126.734 5.82572 127.972 4.53077C129.211 3.23581 129.999 2.61648 130.056 2.72908C130.225 2.89799 127.466 5.65682 124.256 11.0619C121.047 16.4669 117.5 24.4619 113.953 33.3577C110.406 42.3098 107.76 50.5863 105.958 56.6669C104.156 62.7476 103.199 66.5199 102.974 66.4636Z" fill="#BCCED5"/>
<path d="M402.672 421.28L404.418 419.647C340.796 352.366 284.887 327.762 249.192 319.035C210.399 309.52 186.977 315.882 186.02 316.163L186.696 318.472C186.921 318.415 210.568 311.997 248.854 321.399C284.155 330.07 339.557 354.505 402.672 421.28Z" fill="#BCCED5"/>
<path d="M175.323 315.487C171.776 316.332 168.116 317.74 164.907 319.541C162.373 320.949 154.435 327.198 158.319 330.802C159.333 331.759 160.966 331.646 162.317 331.421C170.875 330.014 178.532 325.509 185.964 321.061C187.203 320.33 188.498 319.71 189.793 318.978C190.919 318.359 192.777 317.571 193.509 316.445C194.466 314.868 191.031 314.418 190.187 314.305C187.709 313.911 185.345 313.967 182.867 314.193C180.221 314.474 177.744 314.924 175.323 315.487Z" fill="#BCCED5"/>
<path d="M212.201 309.745C209.217 307.606 206.402 304.847 204.15 301.976C202.404 299.724 197.506 290.828 202.404 289.026C203.755 288.576 205.163 289.251 206.345 289.983C211.187 293.024 215.016 297.19 218.676 301.582C221.772 305.241 224.925 308.845 227.684 312.729C228.303 313.63 230.33 315.77 228.866 316.783C228.022 317.403 226.277 316.783 225.376 316.558C222.955 315.939 220.759 315.038 218.563 313.799C216.367 312.617 214.284 311.209 212.201 309.745Z" fill="#BCCED5"/>
<path d="M284.831 325.849C282.861 322.752 281.228 319.205 280.158 315.658C279.314 312.899 277.963 302.878 283.199 302.99C284.606 303.047 285.676 304.173 286.521 305.299C289.955 309.915 291.982 315.152 293.84 320.557C295.416 325.061 297.049 329.565 298.232 334.182C298.513 335.252 299.583 337.954 297.837 338.405C296.824 338.63 295.416 337.447 294.684 336.941C292.658 335.477 290.968 333.844 289.336 331.93C287.703 330.015 286.239 327.989 284.831 325.849Z" fill="#BCCED5"/>
<path d="M343.443 361.037C341.979 357.659 340.909 353.886 340.459 350.227C340.064 347.355 340.346 337.277 345.526 338.234C346.933 338.516 347.778 339.811 348.454 341.049C351.1 346.117 352.282 351.691 353.239 357.264C354.027 361.994 354.928 366.667 355.322 371.453C355.435 372.523 356.054 375.394 354.253 375.563C353.239 375.675 352.057 374.268 351.381 373.592C349.58 371.847 348.228 369.933 346.933 367.793C345.582 365.597 344.456 363.345 343.443 361.037Z" fill="#BCCED5"/>
<path d="M226.22 338.29C225.263 339.81 224.475 341.781 225.432 343.301C226.164 344.427 227.684 344.821 229.035 344.596C230.33 344.371 231.512 343.583 232.638 342.851C237.368 339.529 241.647 335.588 245.701 331.477C247.728 329.394 249.98 327.536 251.894 325.397C252.964 324.214 254.934 322.356 254.597 320.724C249.248 320.33 243.843 323.314 239.62 326.298C234.665 329.788 229.598 332.998 226.22 338.29Z" fill="#BCCED5"/>
<path d="M291.193 361.32C289.842 362.446 288.434 364.135 288.941 365.88C289.279 367.175 290.63 368.02 291.982 368.189C293.333 368.358 294.628 367.964 295.923 367.569C301.44 365.824 306.733 363.403 311.8 360.644C314.334 359.293 317.036 358.167 319.57 356.759C320.921 355.971 323.398 354.789 323.567 353.1C318.556 351.129 312.532 352.311 307.634 353.888C301.834 355.746 295.979 357.322 291.193 361.32Z" fill="#BCCED5"/>
<path d="M336.461 396.395C335.109 397.578 333.814 399.267 334.321 401.012C334.715 402.307 336.066 403.095 337.418 403.208C338.769 403.321 340.064 402.927 341.359 402.476C346.82 400.562 352 398.028 357.011 395.157C359.545 393.693 362.191 392.567 364.668 391.047C366.019 390.202 368.44 389.02 368.609 387.331C363.542 385.473 357.574 386.88 352.676 388.569C346.933 390.54 341.134 392.229 336.461 396.395Z" fill="#BCCED5"/>
<path d="M285.394 333.281L285.676 332.099C285.507 332.042 269.01 327.932 247.672 341.107L248.291 342.121C269.179 329.284 285.225 333.225 285.394 333.281Z" fill="#BCCED5"/>
<path d="M244.688 344.768C245.926 346.063 248.01 346.119 249.305 344.881C250.6 343.642 250.656 341.615 249.417 340.264C248.179 338.969 246.095 338.913 244.8 340.151C243.562 341.446 243.449 343.473 244.688 344.768Z" fill="#BCCED5"/>
<path d="M344.962 368.357L345.244 367.175C345.075 367.119 328.578 363.008 307.24 376.183L307.859 377.197C328.747 364.303 344.793 368.301 344.962 368.357Z" fill="#BCCED5"/>
<path d="M304.312 379.844C305.55 381.139 307.577 381.195 308.929 379.957C310.224 378.718 310.28 376.635 309.041 375.34C307.803 374.045 305.719 373.989 304.424 375.227C303.129 376.466 303.073 378.549 304.312 379.844Z" fill="#BCCED5"/>
<path d="M380.377 398.422L380.659 397.24C380.49 397.183 363.993 393.073 342.711 406.248L343.33 407.262C364.162 394.425 380.264 398.422 380.377 398.422Z" fill="#BCCED5"/>
<path d="M339.726 409.964C340.965 411.259 342.992 411.316 344.343 410.077C345.638 408.838 345.694 406.811 344.456 405.46C343.217 404.165 341.19 404.109 339.839 405.348C338.544 406.586 338.488 408.613 339.726 409.964Z" fill="#BCCED5"/>
<path d="M216.536 291.728C217.775 293.023 219.802 293.08 221.153 291.841C222.448 290.602 222.504 288.576 221.266 287.224C220.027 285.929 217.944 285.873 216.649 287.112C215.354 288.35 215.298 290.434 216.536 291.728Z" fill="#BCCED5"/>
<path d="M246.996 319.992L247.333 318.866C247.164 318.81 232.132 313.968 220.083 289.983L219.013 290.546C231.343 314.981 246.376 319.823 246.996 319.992Z" fill="#BCCED5"/>
<path d="M298.175 312.504C298.738 314.024 300.371 314.868 301.947 314.305C303.467 313.742 304.312 312.11 303.749 310.533C303.186 309.013 301.553 308.168 299.977 308.731C298.457 309.238 297.668 310.927 298.175 312.504Z" fill="#BCCED5"/>
<path d="M312.926 347.128L313.658 346.284C313.545 346.171 302.904 336.6 301.834 312.333L300.765 312.39C301.834 337.163 312.476 346.734 312.926 347.128Z" fill="#BCCED5"/>
<path d="M357.631 350.79C357.969 352.367 359.489 353.436 361.122 353.098C362.698 352.761 363.768 351.24 363.43 349.608C363.092 348.031 361.572 346.961 359.939 347.299C358.363 347.637 357.293 349.214 357.631 350.79Z" fill="#BCCED5"/>
<path d="M368.44 386.372C368.328 386.26 359.094 375.337 361.234 351.127L360.164 351.014C357.968 375.731 367.258 386.654 367.652 387.104L368.44 386.372Z" fill="#BCCED5"/>
<path d="M436.792 45.5176L438.65 46.9814C381.672 119.95 328.297 149.677 293.615 161.782C255.892 174.901 232.02 170.791 231.006 170.622L231.457 168.257C231.682 168.313 255.836 172.48 293.052 159.474C327.396 147.425 380.265 117.923 436.792 45.5176Z" fill="#BCCED5"/>
<path d="M220.421 172.199C216.762 171.692 213.046 170.622 209.667 169.102C207.021 167.92 198.52 162.458 202.01 158.517C202.967 157.447 204.544 157.391 205.952 157.504C214.566 158.123 222.617 161.895 230.443 165.611C231.738 166.231 233.089 166.737 234.441 167.3C235.623 167.807 237.537 168.426 238.326 169.44C239.452 170.904 236.073 171.692 235.229 171.917C232.808 172.536 230.443 172.705 227.966 172.705C225.432 172.762 222.899 172.536 220.421 172.199Z" fill="#BCCED5"/>
<path d="M257.694 174.451C254.935 176.872 252.401 179.856 250.431 182.953C248.911 185.374 244.857 194.664 249.924 195.959C251.275 196.297 252.683 195.508 253.753 194.608C258.313 191.117 261.691 186.613 264.957 181.94C267.659 177.998 270.474 174.113 272.839 170.003C273.402 169.046 275.204 166.738 273.627 165.837C272.726 165.33 271.037 166.062 270.193 166.4C267.828 167.245 265.745 168.371 263.662 169.778C261.579 171.242 259.608 172.819 257.694 174.451Z" fill="#BCCED5"/>
<path d="M328.522 151.59C326.833 154.856 325.538 158.516 324.806 162.175C324.243 164.99 323.849 175.125 329.029 174.506C330.436 174.337 331.393 173.098 332.125 171.859C335.109 166.961 336.63 161.5 337.981 155.982C339.107 151.365 340.289 146.692 341.021 141.963C341.19 140.893 342.035 138.078 340.233 137.796C339.219 137.627 337.924 138.979 337.249 139.542C335.335 141.174 333.814 142.976 332.407 145.059C330.943 147.142 329.648 149.338 328.522 151.59Z" fill="#BCCED5"/>
<path d="M268.954 144.721C267.828 143.314 266.871 141.4 267.715 139.767C268.334 138.584 269.798 138.021 271.15 138.134C272.501 138.247 273.739 138.866 274.866 139.542C279.876 142.413 284.55 145.904 288.941 149.62C291.137 151.478 293.558 153.11 295.697 155.081C296.88 156.151 299.019 157.784 298.85 159.473C293.558 160.373 287.928 157.896 283.424 155.306C278.187 152.435 272.782 149.676 268.954 144.721Z" fill="#BCCED5"/>
<path d="M331.506 115.671C330.042 114.657 328.522 113.137 328.803 111.336C329.029 110.041 330.267 109.083 331.619 108.746C332.914 108.464 334.321 108.689 335.616 108.971C341.246 110.153 346.764 112.124 352.056 114.376C354.703 115.502 357.518 116.346 360.164 117.529C361.572 118.204 364.161 119.105 364.499 120.738C359.714 123.159 353.577 122.54 348.566 121.47C342.598 120.231 336.629 119.218 331.506 115.671Z" fill="#BCCED5"/>
<path d="M373.226 76.4854C371.762 75.4156 370.298 73.8391 370.693 72.0938C370.974 70.7988 372.213 69.8417 373.564 69.6165C374.859 69.3349 376.267 69.6165 377.561 69.9543C383.192 71.3055 388.597 73.3887 393.833 75.8097C396.479 76.9921 399.238 77.8929 401.828 79.1879C403.235 79.8635 405.769 80.877 406.107 82.566C401.265 84.8745 395.184 84.0862 390.117 82.8476C384.205 81.3274 378.293 80.2013 373.226 76.4854Z" fill="#BCCED5"/>
<path d="M328.297 144.16L328.691 145.286C328.522 145.342 312.476 150.972 290.011 139.937L290.518 138.867C312.532 149.678 328.185 144.216 328.297 144.16Z" fill="#BCCED5"/>
<path d="M286.746 136.56C287.872 135.152 289.898 134.871 291.306 135.997C292.714 137.123 292.995 139.15 291.869 140.557C290.743 141.965 288.716 142.246 287.309 141.12C285.901 139.994 285.676 137.967 286.746 136.56Z" fill="#BCCED5"/>
<path d="M384.374 103.621L384.768 104.747C384.599 104.804 368.553 110.434 346.089 99.3986L346.595 98.3289C368.61 109.139 384.205 103.678 384.374 103.621Z" fill="#BCCED5"/>
<path d="M342.766 96.021C343.892 94.6135 345.919 94.332 347.327 95.458C348.734 96.5841 349.016 98.611 347.89 100.019C346.764 101.426 344.737 101.708 343.329 100.582C341.922 99.4555 341.697 97.4286 342.766 96.021Z" fill="#BCCED5"/>
<path d="M416.805 70.2902L417.199 71.4163C417.03 71.4726 400.984 77.1029 378.519 66.0675L379.026 64.9978C400.984 75.8079 416.636 70.3465 416.805 70.2902Z" fill="#BCCED5"/>
<path d="M375.197 62.6902C376.323 61.2827 378.35 61.0011 379.757 62.1272C381.165 63.2532 381.446 65.2801 380.32 66.6877C379.194 68.0953 377.167 68.3768 375.76 67.2507C374.352 66.181 374.127 64.0978 375.197 62.6902Z" fill="#BCCED5"/>
<path d="M263.718 192.016C264.844 190.609 266.871 190.327 268.278 191.453C269.686 192.579 269.968 194.606 268.841 196.014C267.715 197.421 265.688 197.703 264.281 196.577C262.873 195.451 262.592 193.424 263.718 192.016Z" fill="#BCCED5"/>
<path d="M291.419 160.993L291.869 162.119C291.7 162.176 277.23 168.425 267.49 193.48L266.364 193.029C276.273 167.468 290.799 161.218 291.419 160.993Z" fill="#BCCED5"/>
<path d="M343.048 163.639C343.442 162.062 345.019 161.105 346.595 161.499C348.172 161.893 349.129 163.47 348.735 165.046C348.34 166.623 346.764 167.58 345.188 167.186C343.611 166.848 342.654 165.215 343.048 163.639Z" fill="#BCCED5"/>
<path d="M354.477 127.775L355.265 128.507C355.153 128.619 345.469 139.148 346.651 163.471L345.581 163.527C344.343 138.698 354.027 128.225 354.477 127.775Z" fill="#BCCED5"/>
<path d="M322.442 254.119C319.064 253.275 315.573 252.374 311.97 251.473L286.633 264.648C290.631 266.562 294.459 268.082 298.063 269.265L322.442 254.119Z" fill="#BCCED5"/>
<path d="M310.055 251.025C305.045 249.786 299.865 248.491 294.629 247.14L269.236 254.797C274.81 258.457 280.103 261.497 285.113 263.918L310.055 251.025Z" fill="#BCCED5"/>
<path d="M333.815 256.992C330.774 256.26 327.565 255.416 324.187 254.571L299.639 269.829C303.299 270.955 306.789 271.8 310.111 272.363L333.815 256.992Z" fill="#BCCED5"/>
<path d="M268.504 240.551C259.383 238.243 250.656 235.991 242.83 233.964C247.165 237.905 251.332 241.508 255.385 244.717L268.504 240.551Z" fill="#BCCED5"/>
<path d="M254.653 229.686C249.868 231.037 246.264 232.276 244.237 233.008C249.361 234.303 254.822 235.71 260.509 237.174L254.653 229.686Z" fill="#BCCED5"/>
<path d="M292.151 246.519C285.057 244.717 277.907 242.916 270.869 241.114L256.624 245.675C260.453 248.715 264.225 251.417 267.829 253.838L292.151 246.519Z" fill="#BCCED5"/>
<path d="M318.5 251.812C322.16 252.713 325.707 253.614 329.029 254.458L309.042 223.942C305.494 223.492 301.891 223.323 298.288 223.267L318.5 251.812Z" fill="#BCCED5"/>
<path d="M319.514 225.912C316.699 225.124 313.771 224.505 310.787 224.111L330.943 254.852C333.646 255.527 336.236 256.147 338.6 256.766L319.514 225.912Z" fill="#BCCED5"/>
<path d="M347.046 260.256L326.326 273.037C342.654 271.517 351.437 263.297 352.563 261.608C350.987 261.214 349.129 260.763 347.046 260.256Z" fill="#BCCED5"/>
<path d="M302.06 247.702C307.015 248.941 311.913 250.179 316.586 251.362L296.711 223.267C293.952 223.267 291.194 223.379 288.435 223.604L302.06 247.702Z" fill="#BCCED5"/>
<path d="M340.402 257.272C345.244 258.455 349.354 259.524 352.507 260.256C348.228 241.001 336.123 231.035 321.428 226.475L340.402 257.272Z" fill="#BCCED5"/>
<path d="M345.301 259.807C342.429 259.075 339.164 258.287 335.56 257.386L312.026 272.644C316.192 273.207 320.021 273.376 323.568 273.264L345.301 259.807Z" fill="#BCCED5"/>
<path d="M262.648 237.737C269.742 239.539 277.118 241.397 284.494 243.311L271.6 225.801C265.801 226.871 260.452 228.166 256.061 229.348L262.648 237.737Z" fill="#BCCED5"/>
<path d="M286.464 243.76C291.137 244.942 295.754 246.124 300.315 247.25L287.027 223.66C282.185 224.054 277.456 224.729 273.008 225.461L286.464 243.76Z" fill="#BCCED5"/>
<path d="M288.378 607.138C294.234 606.856 299.188 611.36 299.47 617.216C299.751 623.071 295.247 628.026 289.392 628.307C283.536 628.589 278.582 624.085 278.3 618.229C278.019 612.374 282.523 607.363 288.378 607.138Z" fill="#BCCED5"/>
<path d="M92.9523 349.835C97.175 349.61 100.778 352.875 100.947 357.154C101.172 361.377 97.907 364.98 93.628 365.149C89.4053 365.374 85.8019 362.109 85.633 357.83C85.4641 353.607 88.7296 350.004 92.9523 349.835Z" fill="#BCCED5"/>
<path d="M57.2003 560.631C61.4229 560.406 65.0263 563.671 65.1952 567.95C65.4204 572.173 62.1548 575.776 57.8759 575.945C53.6532 576.171 50.0498 572.905 49.8809 568.626C49.712 564.403 52.9776 560.8 57.2003 560.631Z" fill="#BCCED5"/>
</svg>
