<svg version="1" xmlns="http://www.w3.org/2000/svg" width="512" height="512" viewBox="0 0 5120 5120"><path d="M2240 5105c-389-48-766-188-1091-404-504-335-871-825-1043-1395-41-132-81-333-96-468-13-125-13-431 0-556C118 1268 835 402 1814 106c132-41 333-81 468-96 125-13 431-13 556 0 592 63 1141 332 1563 766 289 299 494 645 613 1038 74 243 106 468 106 746 0 209-10 324-46 505-181 920-867 1676-1768 1949-132 41-333 81-468 96-131 14-469 11-598-5z" fill="#d75a4a"/><path d="M1584 3568c-28-13-44-49-44-96 0-35 20-56 437-474l438-438-438-438c-417-418-437-439-437-474 0-74 34-108 108-108 35 0 56 20 474 437l438 438 438-438c418-417 439-437 474-437 74 0 108 34 108 108 0 35-20 56-437 474l-438 438 438 438c417 418 437 439 437 474 0 74-34 108-108 108-35 0-56-20-474-437l-438-438-438 438c-433 432-438 437-477 436-22 0-50-5-61-11z" fill="#e6998f"/><path d="M1577 3556c-31-28-42-65-32-103 4-19 151-173 438-461l432-432-427-428c-234-235-431-437-437-449-38-75 32-159 116-138 19 4 173 151 461 438l432 432 428-427c235-234 437-431 449-437 75-38 159 32 138 116-4 19-151 173-438 461l-432 432 427 428c234 235 431 437 437 449 38 75-32 159-116 138-19-4-173-151-461-438l-432-432-428 427c-235 234-437 431-449 437-36 18-78 13-106-13z" fill="#fffefe"/></svg>