<svg version="1" xmlns="http://www.w3.org/2000/svg" width="512" height="512" viewBox="0 0 5120 5120"><g fill="#fff"><path d="M2395 5070c-583-43-1143-300-1559-715-891-889-991-2278-237-3280 124-163 311-352 471-475 354-271 775-442 1230-502 123-16 457-15 585 1 566 72 1073 320 1473 721 314 315 543 718 652 1150 131 517 89 1085-115 1570-306 728-932 1269-1688 1461-238 61-559 88-812 69zm550-325c591-101 1123-448 1461-952 90-133 203-365 252-514 411-1259-349-2581-1638-2849-166-34-281-43-494-37-213 5-305 18-492 67-609 161-1151 615-1417 1189-542 1171 22 2541 1233 2994 328 123 746 161 1095 102z"/><path d="M2060 3460v-880h-380v-610h178c97 0 182-4 188-8 8-5 13-101 17-312 5-321 10-358 59-472 42-97 148-212 255-275 128-75 224-87 771-99l332-7v633h-233c-222 0-235 1-277 23-33 16-51 34-67 67-22 42-23 57-23 247v203h613l-6 38c-3 20-20 155-39 300l-33 262h-545v1770h-810v-880z"/></g></svg>