<svg version="1" xmlns="http://www.w3.org/2000/svg" width="512" height="512" viewBox="0 0 5120 5120"><g fill="#fff"><path d="M59 4203c-63-39-59 86-59-1643C0 827-5 955 60 916c26-15 230-16 2500-16s2474 1 2500 16c65 39 60-89 60 1644s5 1605-60 1644c-26 15-229 16-2502 16-2268-1-2475-2-2499-17zm1759-343c239-26 474-122 662-269l69-54-66-71-65-71 71-3c39-2 104-2 143 0l72 3-66 71-67 70 43 36c116 97 308 198 461 243 102 30 268 55 365 55 268 0 574-104 790-267 63-48 194-178 245-243 293-379 354-886 160-1331-65-150-154-276-281-401-123-120-222-188-379-260-151-70-370-118-535-118-96 0-262 25-365 55-126 36-312 131-424 215l-93 72-37-31c-170-144-412-256-635-293-116-20-344-14-463 11-526 111-916 505-1030 1042-24 116-24 362 0 478 58 270 164 475 345 663 288 298 676 441 1080 398zm2833-593c-8-8-11-5-11 9 0 27 14 41 18 19 2-9-1-22-7-28z"/><path d="M2285 3197c-19-35-35-69-35-75 0-9 82-12 310-12 193 0 310 4 310 10 0 5-16 39-36 75l-36 65h-477l-36-63zM1171 2892c-68-37-92-141-52-227 36-78 99-113 218-122 67-5 73-8 73-28 0-43-65-55-177-31-35 7-63 10-63 8 0-3 5-33 11-67l11-62 50-11c81-19 192-15 238 8 45 23 80 81 80 132 0 18-12 117-27 221l-26 187h-70c-65 0-69-1-64-20 5-20 5-20-29 0-49 31-130 36-173 12zm177-134c20-22 42-68 42-89 0-18-86-10-114 12s-35 66-14 87c19 19 63 14 86-10z"/><path d="M1588 2901c-26-4-50-10-54-13-3-4-3-35 1-68l7-62 32 6c108 23 176 14 176-22 0-22-18-39-83-76-117-67-115-241 3-303 36-19 58-23 139-23 53 0 101 4 107 8 8 5 9 22 3 57-4 28-8 56-8 62-1 9-23 12-76 11-117-2-129 33-32 90 74 43 97 79 97 155 0 119-60 176-194 182-39 2-92 0-118-4zM1963 2890c-62-37-62-87-2-425 11-60 22-129 26-152l6-43h150l-6 40-5 40h70l-7 53c-10 83-13 87-50 87-40 0-38-4-61 144-16 106-16 110 2 123 11 8 31 12 46 9 26-5 26-4 21 32-12 84-18 97-49 103-58 13-109 9-141-11z"/><path d="M2321 2895c-78-24-126-85-141-180-18-111 22-245 96-318 82-81 217-84 294-7 57 57 69 122 44 253l-6 27h-290l7 28c18 76 119 98 239 52 16-6 30-9 32-8 4 5-22 137-29 144-24 25-178 30-246 9zm159-369c0-32-25-56-56-56-26 0-84 48-84 69 0 7 27 11 70 11 67 0 70-1 70-24zM3090 2898c-19-7-55-33-80-58-75-74-97-192-65-343 18-88 57-158 117-212 81-73 180-92 299-59l57 16-5 37c-20 131-14 125-93 96-120-44-218 44-228 206-7 123 33 179 128 179 22 0 57-7 77-15s37-14 39-12c1 1-2 37-8 79-8 54-16 79-27 83-32 13-176 14-211 3zM3440 2892c-97-48-93-234 5-301 44-29 123-51 187-51 41 0 48-3 48-20 0-37-43-54-120-46-38 3-81 11-96 16l-26 10 7-56c4-32 9-63 12-70 7-18 91-34 179-34 119 0 175 41 189 136 3 21-7 125-23 229l-27 190-68 3c-60 3-67 1-67-16 0-18-2-18-47 4-55 28-105 30-153 6zm161-122c19-11 40-46 53-87 7-21 4-23-33-23-54 0-88 17-100 50-18 52 29 87 80 60zM4187 2896c-50-18-71-38-98-94-25-53-30-168-11-237 13-45 4-60-28-50s-55 72-79 215c-12 69-24 135-26 148-5 20-11 22-81 22h-76l4-27c2-16 22-139 44-275l39-248h142l-5 27-5 28 37-33c24-21 47-32 66-32 17 0 30 2 30 5 0 2-8 26-19 52-10 26-22 64-26 83-6 33-5 32 27-20 39-64 99-109 156-117 51-7 79 0 124 31l35 24 13-89 13-89h73c66 0 74 2 74 19 0 11-22 158-50 328-27 169-50 314-50 321 0 8-22 12-75 12-59 0-75-3-75-15 0-11-8-11-42 5-50 23-79 24-131 6zm144-146c58-31 87-196 42-241-26-26-67-28-94-3-29 26-38 45-49 105-21 108 29 177 101 139zM470 2884c0-14 92-566 106-636l6-28h205l7 92c3 50 6 134 7 187l1 96 62-185 63-185 116-3c64-1 117 0 117 3s-25 154-55 335-55 331-55 334c0 4-34 6-75 6-67 0-75-2-75-19 0-11 14-104 30-207 17-102 29-188 28-189-2-2-37 91-78 206l-75 209H700l-1-77c-1-43-4-141-8-218l-6-140-33 200c-19 110-36 208-38 218-7 25-144 26-144 1zM2617 2878c12-71 83-518 83-523 0-3 32-5 70-5 63 0 70 2 70 20s2 18 36-5c20-14 48-25 62-25 27 0 28-3-6 110-12 39-25 64-32 62-26-6-59 29-74 77-8 27-25 108-37 180l-23 131h-76c-75 0-77-1-73-22zM4572 2888c-7-7-12-21-12-33s5-26 12-33 21-12 33-12 26 5 33 12 12 21 12 33-5 26-12 33-21 12-33 12-26-5-33-12zM2190 2145c0-3 16-37 35-75l35-70h615l22 58c12 31 25 65 29 75 6 16-16 17-365 17-204 0-371-2-371-5zM2340 1865c0-3 21-37 46-75l47-70h266l44 63c24 34 47 68 51 75 6 9-42 12-223 12-127 0-231-2-231-5z"/></g></svg>