<svg version="1" xmlns="http://www.w3.org/2000/svg" width="256" height="256" viewBox="0 0 2560 2560"><g fill="#fff"><path d="M0 1975v-55h2560v110H0v-55zM210 1374c0-215-4-351-11-380-7-28-28-63-56-94l-45-50h332l2 255 3 255 153-255 153-255h111c101 0 110 1 103 18-3 9-110 203-237 430l-231 412H210v-336zM760 1658c11-29 82-222 159-428l139-375 111-3c61-1 111 1 111 5 1 4-70 198-157 431l-158 422H740l20-52zM1271 1694c-29-8-70-24-92-37l-38-23 40-72 39-71 45 24c109 58 225 57 282 0 33-33 34-35 19-63-8-16-48-55-88-88-40-32-86-72-101-88-91-95-88-214 7-331 74-89 212-130 349-102 82 17 164 53 180 79 8 12 2 29-28 72-21 31-42 56-46 56-5 0-30-14-56-30-116-74-207-58-228 41-10 43 16 77 115 151 102 76 130 118 130 199 0 147-92 255-248 288-72 15-215 13-281-5zM1830 1613c28-54 131-248 228-430l177-333h113c107 0 112 1 112 21 0 24 48 732 54 797l4 42h-228v-170h-237l-38 85-38 85h-199l52-97zm459-375v-143l-69 135c-38 74-69 138-69 143-1 4 31 7 69 7h70l-1-142zM0 585v-55h2560v110H0v-55z"/></g></svg>