<!DOCTYPE svg PUBLIC "-//W3C//DTD SVG 20010904//EN" "http://www.w3.org/TR/2001/REC-SVG-20010904/DTD/svg10.dtd">
<svg version="1.0" xmlns="http://www.w3.org/2000/svg" width="722px" height="807px" viewBox="0 0 7220 8070" preserveAspectRatio="xMidYMid meet">
<g id="layer101" fill="#1c215d" stroke="none">
 <path d="M1460 8049 c-1530 -7 -1380 -4 -1380 -27 0 -11 11 -34 25 -53 14 -19 37 -50 50 -69 105 -153 129 -186 135 -190 4 -3 14 -19 23 -37 9 -17 23 -37 30 -45 7 -7 40 -51 72 -98 32 -47 61 -87 64 -90 3 -3 12 -17 19 -31 8 -14 29 -43 48 -64 19 -21 34 -42 34 -46 0 -5 21 -37 47 -73 97 -132 108 -149 125 -179 9 -17 24 -37 32 -45 12 -12 12 -20 -4 -61 -9 -25 -25 -68 -35 -96 -9 -27 -30 -86 -45 -130 -48 -135 -77 -256 -99 -406 -30 -202 -51 -291 -67 -279 -23 20 -21 63 12 343 33 274 42 458 25 485 -4 8 -19 12 -32 10 -26 -3 -24 1 -84 -193 -20 -66 -39 -127 -42 -135 -29 -94 -98 -699 -91 -801 3 -45 11 -66 47 -117 38 -53 136 -142 157 -142 4 0 21 -11 38 -24 51 -38 89 -54 167 -71 242 -50 461 24 676 229 24 22 45 38 47 35 2 -2 11 -42 20 -89 8 -47 25 -125 37 -175 12 -49 22 -101 23 -115 0 -14 4 -27 8 -31 4 -3 10 -27 13 -55 4 -27 24 -146 45 -264 51 -282 189 -1250 220 -1540 25 -238 68 -368 144 -438 58 -53 152 -114 211 -136 110 -41 224 -74 290 -85 39 -6 120 -20 180 -30 61 -11 140 -22 178 -26 37 -4 67 -10 67 -14 0 -4 -16 -22 -35 -40 -20 -18 -33 -36 -30 -40 2 -5 -2 -14 -10 -21 -8 -7 -15 -18 -15 -25 0 -6 -13 -30 -30 -53 -43 -60 -157 -291 -164 -334 -4 -21 -13 -44 -22 -52 -8 -8 -14 -19 -13 -23 1 -4 0 -10 -1 -13 -1 -3 -3 -14 -5 -25 -2 -11 -11 -56 -20 -100 -20 -96 -23 -365 -5 -465 7 -36 12 -76 12 -90 0 -14 5 -31 10 -37 6 -7 8 -20 4 -28 -3 -8 -2 -15 3 -15 8 0 25 -74 22 -97 -1 -6 3 -14 8 -18 6 -3 8 -12 4 -20 -3 -8 0 -15 6 -15 6 0 11 -11 11 -25 0 -25 23 -89 64 -180 13 -27 27 -61 31 -75 4 -14 20 -48 37 -77 16 -29 42 -77 57 -108 16 -31 40 -69 55 -85 14 -16 26 -34 26 -39 0 -11 208 -221 219 -221 5 0 24 -13 44 -29 42 -33 248 -136 292 -146 17 -4 66 -20 110 -35 162 -56 214 -62 457 -58 205 5 230 7 303 30 150 48 200 69 295 125 120 71 268 216 319 313 53 100 78 151 94 195 8 22 29 78 47 125 17 47 36 108 40 135 4 28 18 97 30 155 31 153 49 296 56 463 5 106 11 147 19 147 26 0 71 61 97 132 30 81 68 230 68 268 0 14 14 67 31 118 28 81 34 92 52 86 11 -3 92 -6 181 -7 188 0 220 8 303 79 93 80 111 114 163 314 12 47 30 119 41 160 16 60 24 157 39 479 27 563 52 740 125 895 94 200 125 269 125 277 0 4 16 41 36 81 19 40 47 102 60 138 31 81 95 172 203 289 26 29 118 158 141 199 8 15 24 41 36 57 32 46 123 232 145 298 45 133 59 239 59 441 0 203 -6 243 -52 338 -27 54 -110 130 -165 150 -59 20 -294 17 -363 -6 -83 -28 -239 -106 -274 -138 -17 -15 -35 -28 -41 -28 -10 0 -202 -183 -266 -255 -20 -22 -44 -55 -53 -72 -9 -18 -20 -33 -25 -33 -7 0 -122 -173 -152 -231 -46 -88 -71 -130 -104 -179 -21 -30 -56 -89 -78 -130 -22 -41 -49 -86 -59 -99 -10 -13 -18 -32 -18 -42 0 -10 -4 -20 -9 -23 -12 -8 -81 -133 -81 -149 0 -7 -8 -21 -16 -32 -14 -18 -15 7 -9 255 3 151 8 301 11 333 l5 57 -1429 0 -1429 0 -7 -187 c-9 -283 -8 -553 4 -797 6 -120 10 -220 8 -222 -2 -2 -21 70 -42 159 -20 89 -51 218 -68 287 -17 69 -41 173 -53 232 -13 59 -35 145 -49 190 -14 46 -31 115 -39 153 -8 39 -22 96 -32 128 l-16 57 -311 0 -311 0 34 31 c19 16 74 58 124 92 103 72 130 106 145 185 6 31 26 106 46 166 73 223 54 276 -83 230 -26 -9 -63 -30 -81 -47 -32 -31 -122 -186 -137 -237 -10 -35 -43 -68 -90 -92 -48 -25 -129 -78 -171 -112 l-31 -25 -6 151 c-4 83 -7 224 -7 312 l0 161 2225 -3 2225 -2 17 35 17 35 115 0 116 0 27 43 c15 23 57 83 93 132 36 50 76 106 90 125 14 19 49 69 80 110 30 41 75 104 100 140 71 101 94 133 115 160 25 32 118 162 149 209 13 20 39 54 58 75 18 22 33 44 33 49 0 4 7 15 15 24 9 8 34 43 57 77 23 33 56 79 75 100 18 22 33 44 33 49 0 4 18 30 40 56 22 26 40 50 40 54 0 8 -3782 6 -5600 -4z m-385 -1754 l-6 -250 -31 -45 -30 -45 6 215 c5 164 11 240 28 319 32 158 41 106 33 -194z m2325 -3693 c0 -33 -9 -47 -62 -105 -35 -37 -72 -69 -83 -71 -11 -2 -28 -7 -37 -11 -10 -4 -18 -4 -18 0 0 12 31 199 35 213 3 8 29 12 85 12 l80 0 0 -38z m1743 -346 c-10 -54 -19 -50 -29 13 -7 42 -6 43 14 30 16 -10 19 -20 15 -43z"/>
 </g>
<g id="layer102" fill="#5765a9" stroke="none">
 <path d="M1465 8049 c-1535 -7 -1385 -4 -1385 -27 0 -11 11 -34 25 -53 14 -19 36 -48 48 -66 88 -126 132 -189 139 -198 5 -5 19 -26 32 -45 113 -164 140 -203 152 -215 8 -7 14 -17 14 -22 0 -4 20 -33 45 -63 25 -30 45 -60 45 -66 0 -6 6 -17 14 -23 8 -7 39 -49 70 -94 31 -45 65 -94 76 -109 60 -83 59 -78 40 -128 -9 -25 -25 -67 -35 -95 -9 -27 -30 -86 -45 -130 -48 -135 -77 -256 -99 -406 -30 -202 -51 -291 -67 -279 -23 20 -21 63 12 343 32 264 42 445 28 481 -7 19 -49 21 -60 4 -4 -7 -15 -39 -25 -72 -9 -34 -31 -106 -48 -161 -41 -127 -74 -329 -101 -610 -28 -287 -26 -314 29 -393 38 -53 136 -142 157 -142 4 0 21 -11 38 -24 51 -38 89 -54 167 -71 216 -45 406 7 604 165 33 26 71 60 84 74 14 14 28 26 32 26 4 0 11 -21 14 -47 4 -27 22 -113 41 -191 19 -79 31 -148 28 -154 -4 -6 -2 -13 5 -17 6 -4 13 -29 16 -57 4 -27 24 -146 45 -264 51 -282 189 -1250 220 -1540 23 -219 65 -356 128 -424 77 -81 276 -184 417 -214 162 -36 450 -81 517 -82 21 0 34 11 62 53 74 110 256 323 347 405 l47 42 -15 -62 c-42 -181 -99 -446 -96 -454 2 -5 41 -8 88 -6 l85 3 0 -45 c0 -25 -4 -46 -9 -46 -5 0 -33 -28 -62 -63 -30 -34 -61 -63 -69 -63 -49 -2 -68 -16 -73 -52 -2 -21 0 -42 5 -49 6 -7 5 -20 -4 -35 -28 -51 -5 -502 28 -515 7 -2 46 4 86 15 293 80 665 101 1072 59 116 -12 118 -12 126 8 19 50 41 232 47 380 l6 160 196 -1 c151 -1 209 -5 253 -18 62 -18 150 -82 142 -104 -2 -8 -6 -39 -9 -70 -9 -93 -37 -232 -45 -227 -4 3 -34 51 -66 107 -33 57 -80 125 -105 151 -40 42 -51 48 -80 45 l-34 -3 1 -85 c0 -76 5 -96 41 -183 45 -107 107 -198 156 -227 79 -48 207 -48 255 1 41 42 122 285 122 369 0 14 14 67 31 118 28 83 33 92 51 86 11 -3 93 -6 182 -7 188 0 220 8 303 79 94 80 112 116 163 319 13 50 32 122 42 160 15 55 23 159 38 475 28 565 52 739 125 894 95 202 125 269 125 277 0 5 17 44 39 88 21 43 46 101 56 129 23 71 96 175 204 291 27 30 118 159 142 202 9 16 22 35 28 43 23 28 131 247 151 307 46 135 60 240 60 443 0 203 -6 243 -52 338 -27 54 -110 130 -165 150 -59 20 -294 17 -363 -6 -82 -28 -230 -102 -270 -136 -19 -16 -39 -30 -45 -30 -22 0 -315 -298 -315 -320 0 -5 -12 -22 -26 -37 -44 -47 -116 -161 -198 -313 -13 -25 -41 -70 -61 -100 -21 -30 -56 -89 -78 -130 -22 -41 -49 -86 -59 -99 -10 -13 -18 -31 -18 -39 0 -9 -6 -23 -14 -31 -12 -15 -56 -97 -87 -165 -14 -29 -14 -29 -17 -5 -1 13 1 159 6 324 4 165 6 303 4 308 -2 4 -643 7 -1426 7 l-1423 0 -7 -187 c-9 -283 -8 -553 4 -797 6 -120 10 -220 8 -222 -2 -2 -21 70 -42 159 -21 89 -55 234 -76 322 -21 88 -44 187 -50 220 -7 33 -25 103 -41 155 -15 52 -34 127 -42 165 -8 39 -22 96 -32 128 l-16 57 -311 0 -311 0 34 31 c19 16 74 58 124 92 103 72 130 106 145 185 6 31 26 106 46 166 74 224 55 275 -85 229 -33 -10 -63 -29 -84 -52 -34 -38 -119 -186 -132 -231 -10 -35 -43 -68 -90 -92 -48 -25 -129 -78 -171 -112 l-31 -25 -6 142 c-4 78 -7 219 -7 312 l0 170 2223 -3 2224 -2 19 35 19 35 115 0 115 0 27 43 c15 23 57 83 93 132 36 50 76 106 90 125 14 19 49 69 80 110 48 67 75 104 170 240 14 19 29 40 34 46 12 14 132 180 150 208 8 11 34 46 58 78 24 31 43 59 43 63 0 3 7 13 15 22 9 8 34 43 57 77 23 33 56 79 75 100 18 22 33 44 33 50 0 5 11 21 24 35 13 15 31 38 41 54 l17 27 -2163 -2 c-1190 -1 -2735 -5 -3434 -9z m-390 -1754 l-6 -250 -31 -45 -30 -45 6 215 c5 164 11 240 28 319 32 158 41 106 33 -194z m3395 -3166 c0 -15 -23 -59 -31 -59 -5 0 -39 82 -39 97 0 1 16 -5 35 -14 19 -9 35 -20 35 -24z m400 -364 c35 -51 30 -57 -18 -17 -23 19 -31 33 -26 45 3 9 8 17 10 17 1 0 17 -20 34 -45z"/>
 </g>
<g id="layer103" fill="#e94a47" stroke="none">
 <path d="M1465 8049 c-1535 -7 -1385 -4 -1385 -27 0 -11 11 -34 25 -53 14 -19 36 -48 48 -66 88 -126 132 -189 139 -198 5 -5 19 -26 32 -45 118 -172 143 -206 158 -219 9 -8 15 -17 13 -21 -2 -4 16 -31 41 -61 24 -29 44 -59 44 -65 0 -6 6 -17 14 -23 8 -7 39 -49 70 -94 31 -45 65 -94 76 -109 60 -83 59 -78 40 -128 -9 -25 -25 -67 -35 -95 -9 -27 -30 -86 -45 -130 -48 -135 -77 -256 -99 -406 -30 -202 -51 -291 -67 -279 -23 20 -21 63 12 343 32 264 42 445 28 481 -7 19 -49 21 -60 4 -4 -7 -15 -39 -25 -72 -9 -34 -31 -106 -48 -161 -41 -127 -74 -329 -101 -610 -28 -287 -26 -314 29 -393 38 -53 136 -142 157 -142 4 0 21 -11 38 -24 51 -38 89 -54 167 -71 244 -50 463 24 680 233 l47 44 7 -53 c3 -30 22 -119 41 -197 19 -79 31 -148 28 -154 -4 -6 -2 -13 5 -17 6 -4 13 -29 16 -57 4 -27 24 -146 45 -264 51 -286 188 -1246 220 -1540 23 -219 65 -356 128 -424 77 -81 278 -184 417 -214 141 -31 342 -64 463 -77 46 -5 67 -3 79 6 14 12 0 15 -98 20 l-114 5 120 2 120 3 45 62 c82 112 348 413 357 403 2 -2 -3 -32 -12 -66 -22 -87 -85 -372 -85 -387 0 -10 27 -13 112 -13 l112 0 41 38 40 37 -40 -42 -39 -43 -118 0 -118 0 0 -27 0 -28 85 3 85 3 0 -45 c0 -25 -4 -46 -9 -46 -5 0 -33 -28 -62 -63 -30 -34 -61 -63 -69 -63 -49 -2 -68 -16 -73 -52 -2 -21 0 -42 5 -49 6 -7 5 -20 -4 -35 -28 -51 -5 -502 28 -515 7 -2 46 4 86 15 293 80 665 101 1072 59 116 -12 118 -12 126 8 19 50 41 232 47 380 l6 160 196 -1 c151 -1 209 -5 253 -18 62 -18 150 -82 142 -104 -2 -8 -6 -39 -9 -70 -9 -93 -37 -232 -45 -227 -4 3 -34 51 -66 107 -33 57 -80 125 -105 151 -40 42 -51 48 -80 45 l-34 -3 1 -85 c0 -76 5 -96 41 -183 45 -107 107 -198 156 -227 79 -48 207 -48 255 1 41 42 122 285 122 369 0 14 14 67 31 118 l31 93 31 -7 c18 -4 97 -7 177 -7 190 -1 225 10 318 101 71 69 107 131 118 201 l7 41 -584 3 -584 2 586 3 587 2 15 58 c8 31 25 93 36 137 18 67 25 146 41 485 21 431 37 595 71 737 12 48 22 94 22 101 0 6 3 12 7 12 3 0 19 28 35 63 15 34 47 104 71 155 24 52 44 98 44 103 0 5 17 44 39 88 21 43 46 101 56 129 23 71 94 172 204 291 35 39 63 81 54 81 -4 0 -3 4 3 8 17 10 94 115 94 126 0 5 7 17 15 26 24 27 133 244 155 311 46 135 60 240 60 443 0 203 -6 243 -52 338 -27 54 -110 130 -165 150 -59 20 -294 17 -363 -6 -82 -28 -230 -102 -270 -136 -19 -16 -39 -30 -45 -30 -21 0 -315 -298 -315 -320 0 -5 -14 -24 -31 -42 -29 -32 -61 -81 -56 -89 1 -2 0 -3 -2 -2 -9 6 -56 -70 -135 -217 -13 -25 -41 -70 -61 -100 -21 -30 -56 -89 -78 -130 -22 -41 -49 -86 -59 -99 -10 -13 -18 -31 -18 -39 0 -9 -6 -23 -14 -31 -12 -15 -56 -97 -87 -165 -14 -29 -14 -29 -17 -5 -1 13 1 159 6 324 4 165 6 303 4 308 -2 4 -644 7 -1428 7 l-1424 0 -1 -112 c0 -62 -2 -122 -4 -133 -6 -27 -6 -573 -1 -610 3 -16 7 -104 10 -195 6 -186 3 -184 -50 50 -14 63 -43 187 -64 275 -21 88 -48 204 -60 258 -17 75 -25 97 -38 97 -14 0 -14 2 -3 9 11 7 11 16 -2 57 -9 27 -23 81 -31 119 -7 39 -21 96 -31 128 l-16 57 -311 0 -311 0 34 31 c19 16 74 58 124 92 103 72 130 106 145 185 6 31 26 106 46 166 74 224 55 275 -85 229 -33 -10 -63 -29 -84 -52 -34 -38 -119 -186 -132 -231 -10 -35 -43 -68 -90 -92 -48 -25 -129 -78 -171 -112 l-31 -25 -6 142 c-4 78 -7 219 -7 312 l0 170 2223 -3 2224 -2 19 35 19 35 116 0 116 0 19 37 c10 21 26 44 35 53 9 8 38 47 64 85 27 39 57 81 67 95 79 103 108 144 108 151 0 4 11 20 25 35 14 15 42 52 62 83 20 31 49 71 65 89 15 18 28 39 28 47 0 8 6 18 14 22 8 4 36 40 62 79 27 38 59 83 72 100 71 92 122 164 115 164 -4 0 3 9 15 20 12 11 40 48 63 83 24 34 57 80 76 101 18 22 33 44 33 50 0 5 11 21 24 35 13 15 31 38 41 54 l17 27 -2163 -2 c-1190 -1 -2735 -5 -3434 -9z m-390 -1754 l-6 -250 -31 -45 -30 -45 6 215 c5 164 11 240 28 319 32 158 41 106 33 -194z m3401 -3155 c2 0 -4 -16 -13 -35 -9 -19 -20 -35 -23 -35 -7 0 -40 78 -40 93 0 4 16 0 36 -8 20 -8 38 -15 40 -15z m394 -375 c35 -51 30 -57 -18 -17 -23 19 -31 33 -26 45 3 9 8 17 10 17 1 0 17 -20 34 -45z"/>
 </g>
<g id="layer104" fill="#996b99" stroke="none">
 <path d="M1465 8049 c-1535 -7 -1385 -4 -1385 -27 0 -11 11 -34 25 -53 14 -19 36 -48 48 -66 88 -126 132 -189 139 -198 5 -5 19 -26 32 -45 118 -172 143 -206 158 -219 9 -8 15 -17 13 -21 -2 -4 16 -31 41 -61 24 -29 44 -59 44 -65 0 -6 6 -17 14 -23 8 -7 39 -49 70 -94 31 -45 65 -94 76 -109 60 -83 59 -78 40 -128 -9 -25 -25 -67 -35 -95 -9 -27 -30 -86 -45 -130 -48 -135 -77 -256 -99 -406 -30 -202 -51 -291 -67 -279 -22 19 -22 61 7 298 31 256 46 473 35 515 -5 20 -13 27 -31 27 -29 0 -34 -7 -56 -84 -9 -34 -31 -106 -48 -161 -41 -127 -74 -329 -101 -610 -28 -287 -26 -314 29 -393 38 -53 136 -142 157 -142 4 0 21 -11 38 -24 51 -38 89 -54 167 -71 142 -29 304 -11 416 46 106 54 132 72 222 150 l89 78 11 -77 c7 -42 18 -99 25 -127 l13 -50 389 -3 c214 -1 395 2 403 7 11 7 11 16 -2 57 -9 27 -23 81 -31 119 -7 39 -21 96 -31 128 l-16 57 -311 0 -311 0 34 31 c19 16 74 58 124 92 103 72 130 106 144 185 6 31 27 106 47 166 74 223 55 275 -85 229 -33 -10 -63 -29 -84 -52 -34 -38 -119 -186 -132 -231 -10 -35 -43 -68 -90 -92 -22 -11 -61 -36 -86 -54 -26 -19 -50 -34 -55 -34 -4 0 -20 -11 -34 -25 l-27 -26 -6 143 c-4 79 -7 220 -7 313 l0 170 2223 -3 2224 -2 19 35 19 35 116 0 116 0 19 37 c10 21 26 44 35 53 9 8 38 47 64 85 27 39 57 81 67 95 79 103 108 144 108 151 0 4 11 20 25 35 14 15 42 52 62 83 20 31 49 71 65 89 15 18 28 39 28 47 0 8 6 18 14 22 8 4 36 40 62 79 27 38 59 83 72 100 71 92 122 164 115 164 -4 0 3 9 15 20 12 11 40 48 63 83 24 34 57 80 76 101 18 22 33 44 33 50 0 5 11 21 24 35 13 15 31 38 41 54 l17 27 -2163 -2 c-1190 -1 -2735 -5 -3434 -9z m-390 -1754 l-6 -250 -30 -45 -29 -45 1 115 c0 175 15 367 35 448 29 118 37 59 29 -223z"/>
 <path d="M6052 6215 c-95 -101 -142 -155 -142 -165 0 -5 -14 -24 -30 -42 -17 -18 -39 -47 -50 -65 l-19 -32 655 -1 654 0 -2 177 -3 178 -503 5 -502 5 -58 -60z"/>
 <path d="M6065 5789 c-72 -8 -169 -35 -311 -85 l-81 -29 -50 -80 c-28 -44 -65 -107 -84 -140 -18 -33 -41 -71 -51 -84 -10 -13 -18 -31 -18 -39 0 -9 -6 -23 -14 -31 -7 -9 -28 -45 -46 -81 -18 -36 -39 -77 -47 -92 -8 -15 -21 -50 -29 -78 l-15 -50 -1409 0 -1410 0 6 -122 c2 -68 7 -151 10 -185 l6 -63 1309 0 c720 0 1309 -1 1309 -2 0 -2 -38 -91 -84 -198 l-84 -195 -1632 -3 -1632 -2 6 -33 c3 -18 10 -75 16 -127 5 -52 12 -119 16 -147 l7 -53 1532 -2 1533 -3 -77 -175 c-42 -96 -83 -185 -89 -197 l-13 -23 -1413 0 -1413 0 4 -52 c5 -68 31 -245 41 -283 l8 -30 699 -5 699 -5 38 40 39 40 -7 -37 -6 -38 547 0 c517 0 547 1 540 18 -22 52 -21 55 20 38 21 -9 39 -16 41 -16 2 0 -4 -16 -13 -35 -9 -19 -21 -35 -25 -35 -5 0 -7 -4 -4 -8 2 -4 -13 -59 -34 -121 -22 -63 -42 -145 -46 -183 -4 -37 -8 -68 -10 -68 -2 0 -14 9 -26 20 -56 49 -63 55 -71 52 -4 -1 -10 5 -13 13 -4 8 -12 15 -20 15 -8 0 -14 5 -14 10 0 6 -7 10 -15 10 -8 0 -15 4 -15 10 0 5 -3 10 -7 9 -19 -3 -52 14 -46 24 4 6 0 8 -10 4 -10 -3 -17 -2 -17 4 0 6 -5 7 -10 4 -5 -3 -10 -1 -10 5 0 7 -6 10 -14 7 -7 -3 -25 1 -39 8 -14 7 -28 11 -31 8 -3 -3 -11 -2 -18 4 -19 14 -198 6 -214 -9 -3 -4 -12 -4 -20 -1 -8 3 -14 0 -14 -7 0 -6 -4 -8 -10 -5 -5 3 -10 2 -10 -4 0 -6 -7 -7 -17 -4 -10 4 -14 2 -10 -4 4 -6 0 -14 -9 -17 -10 -4 -13 -2 -9 7 4 6 0 4 -8 -5 -8 -10 -17 -15 -20 -11 -4 3 -7 1 -7 -5 0 -7 -5 -12 -11 -12 -6 0 -20 -10 -31 -22 -11 -13 -16 -16 -12 -8 4 8 -17 -11 -45 -42 l-53 -58 -119 0 -119 0 0 -27 0 -28 85 3 85 3 0 -46 c0 -30 -5 -47 -14 -51 -8 -3 -36 -32 -64 -64 -27 -33 -51 -58 -53 -57 -3 1 -2 -1 1 -4 3 -3 46 -11 97 -17 110 -13 223 -50 273 -91 34 -27 40 -29 106 -23 63 5 72 8 105 42 75 77 221 120 406 120 107 0 127 -4 233 -36 43 -13 100 -18 255 -19 232 -2 288 -14 359 -73 33 -27 44 -42 40 -57 -2 -11 -7 -42 -10 -70 -9 -91 -36 -225 -44 -220 -4 3 -34 51 -66 107 -33 57 -80 125 -105 151 -40 42 -51 48 -80 45 l-34 -3 1 -85 c0 -76 5 -96 41 -183 45 -107 107 -198 156 -227 79 -48 207 -48 255 1 41 42 122 285 122 369 0 14 14 67 31 118 l31 93 31 -7 c18 -4 97 -7 177 -7 190 -1 225 10 318 101 71 69 107 131 118 201 l7 41 -579 0 c-640 0 -587 -5 -668 63 l-29 24 98 161 98 162 579 0 c454 0 580 3 583 13 2 6 8 91 12 187 l8 175 -463 -3 c-440 -2 -462 -2 -453 15 12 24 140 191 226 296 l70 86 323 1 c177 0 322 3 322 8 1 30 24 163 41 239 12 51 22 96 23 100 0 5 -79 10 -176 13 l-178 5 113 102 c61 57 157 146 212 198 l100 95 60 0 61 0 28 62 c16 33 31 79 34 102 5 38 37 95 49 88 3 -2 13 7 22 20 9 13 32 44 51 67 19 24 35 46 36 50 0 3 9 34 19 69 18 61 19 62 54 62 32 0 41 6 75 52 21 28 41 59 44 67 3 9 11 23 19 32 7 9 36 60 63 113 l49 96 -167 0 -167 0 -44 51 c-80 93 -233 189 -346 217 -63 16 -154 20 -230 11z"/>
 <path d="M2510 5683 c0 -49 -3 -132 -7 -185 l-6 -98 1431 0 1431 0 3 178 c2 97 2 180 0 185 -2 4 -644 7 -1428 7 l-1424 0 0 -87z"/>
 <path d="M7066 5676 c-9 -32 -19 -65 -21 -74 -2 -9 -8 -30 -14 -45 -6 -16 -7 -26 -2 -23 11 7 64 173 59 187 -2 6 -12 -14 -22 -45z"/>
 <path d="M1608 4885 c13 -66 27 -149 30 -185 l7 -65 423 -3 c310 -2 422 1 422 9 0 6 -12 64 -26 128 -14 64 -31 141 -38 171 l-12 55 -415 5 -415 5 24 -120z"/>
 <path d="M2670 2692 c8 -6 62 -16 119 -22 92 -11 105 -11 119 4 15 15 8 16 -85 16 -55 0 -116 3 -134 6 -24 4 -30 3 -19 -4z"/>
 <path d="M4135 2370 c-217 -35 -308 -126 -191 -195 85 -50 138 -60 311 -60 131 0 171 4 220 20 33 10 63 18 68 17 4 -1 7 36 7 83 0 84 0 86 -27 96 -102 39 -276 56 -388 39z"/>
 <path d="M3206 2311 c-22 -25 -35 -88 -35 -185 l-1 -69 128 6 c138 5 211 23 279 65 74 47 74 87 0 134 -61 38 -139 58 -252 65 -93 5 -101 4 -119 -16z"/>
 <path d="M3745 2210 c-23 -4 -31 -12 -36 -38 -14 -68 -106 -134 -234 -167 -33 -9 -113 -19 -177 -22 -70 -4 -118 -10 -118 -16 0 -53 25 -190 36 -194 7 -2 46 4 86 15 293 80 665 101 1072 59 137 -15 125 -23 145 103 7 41 14 87 17 102 l5 26 -40 -14 c-74 -25 -183 -37 -296 -31 -173 10 -291 50 -353 122 -18 20 -32 40 -32 44 0 12 -39 18 -75 11z"/>
 </g>
<g id="layer105" fill="#3885f1" stroke="none">
 <path d="M1465 8049 c-1536 -7 -1385 -4 -1385 -28 0 -10 14 -35 30 -56 17 -21 30 -41 30 -44 0 -4 8 -16 18 -27 10 -10 42 -55 72 -99 29 -44 59 -84 67 -88 7 -4 13 -14 13 -22 0 -8 13 -29 28 -47 15 -18 52 -69 82 -113 29 -44 59 -84 67 -88 7 -5 11 -12 9 -16 -3 -4 15 -32 40 -62 24 -29 44 -59 44 -65 0 -6 6 -17 14 -23 8 -7 39 -49 70 -94 31 -45 64 -93 74 -107 61 -84 60 -81 41 -125 -10 -22 -18 -46 -18 -54 -1 -7 -21 -68 -45 -135 -62 -169 -91 -280 -115 -447 -26 -175 -50 -289 -61 -289 -4 0 -13 14 -19 30 -8 23 -3 88 20 278 32 265 46 473 35 516 -5 19 -13 26 -31 26 -29 0 -34 -7 -56 -84 -9 -34 -31 -106 -48 -161 -18 -55 -43 -165 -56 -245 -30 -179 -68 -577 -63 -646 4 -50 33 -103 90 -164 27 -30 104 -90 114 -90 4 0 21 -11 38 -24 51 -38 89 -54 167 -71 93 -19 175 -19 276 0 71 14 180 56 193 75 3 4 21 15 40 24 20 9 76 52 125 96 l90 79 9 -52 c4 -29 16 -86 25 -127 l18 -75 389 -3 c214 -1 395 2 401 6 10 6 9 23 -6 77 -10 39 -26 103 -35 143 -10 40 -22 89 -27 108 l-10 34 -311 0 -311 0 29 27 c29 28 55 47 158 116 73 49 103 96 121 188 8 41 28 113 44 161 54 153 54 211 1 223 -48 11 -134 -21 -173 -64 -36 -40 -121 -190 -132 -232 -8 -33 -44 -67 -110 -104 -27 -15 -63 -39 -78 -52 -16 -12 -34 -23 -40 -23 -6 0 -23 -11 -37 -25 l-27 -26 -6 143 c-4 79 -7 220 -7 313 l0 170 2223 -3 2224 -2 19 35 19 35 116 0 116 0 19 37 c10 20 29 47 41 60 12 13 42 54 68 91 50 72 70 100 128 175 20 27 37 55 37 62 0 7 4 15 9 17 10 4 81 95 81 105 0 3 20 31 45 61 25 30 45 60 45 66 0 6 9 19 19 28 17 14 43 50 148 201 12 18 39 54 60 81 21 26 38 51 38 55 0 4 8 15 18 25 10 10 36 46 59 80 23 33 56 79 75 100 18 22 33 44 33 50 0 5 11 21 24 35 13 15 31 38 41 54 l17 27 -2163 -2 c-1190 -1 -2735 -5 -3434 -9z m-389 -1711 l-7 -293 -30 -45 -31 -45 7 225 c5 194 9 241 32 338 15 61 29 112 31 112 3 0 2 -132 -2 -292z"/>
 <path d="M6044 6202 c-38 -41 -84 -89 -101 -107 -18 -19 -33 -39 -33 -44 0 -5 -14 -25 -31 -43 -36 -39 -61 -83 -52 -92 4 -3 296 -6 650 -6 l643 0 -2 178 -3 177 -501 5 -502 5 -68 -73z"/>
 <path d="M6065 5789 c-71 -8 -166 -34 -312 -85 -73 -26 -84 -33 -104 -69 -12 -22 -32 -53 -44 -70 -12 -16 -39 -61 -60 -100 -21 -38 -46 -81 -57 -94 -10 -13 -18 -31 -18 -39 0 -9 -6 -23 -14 -31 -25 -30 -102 -190 -130 -271 l-16 -45 -1404 3 -1404 2 4 -122 c3 -68 7 -147 10 -175 l5 -53 1310 0 c720 0 1309 -3 1309 -7 0 -5 -38 -96 -84 -203 l-84 -195 -1632 -3 -1632 -2 5 -29 c3 -15 8 -50 11 -77 3 -27 10 -95 17 -151 l12 -103 1533 -2 1532 -3 -80 -180 c-44 -99 -84 -191 -90 -205 l-10 -25 -1412 3 -1412 2 8 -85 c4 -47 15 -126 24 -175 l16 -90 706 0 706 0 34 33 34 32 -7 -32 -7 -33 547 0 c536 0 546 0 535 19 -19 36 -12 42 27 26 20 -9 38 -17 40 -19 2 -2 -12 -37 -31 -77 -46 -102 -84 -225 -92 -303 -4 -37 -8 -66 -11 -66 -2 0 -31 22 -66 49 -162 126 -310 179 -455 161 -90 -11 -211 -72 -294 -149 l-66 -61 -116 0 -116 0 0 -27 0 -28 85 3 85 3 0 -46 c0 -30 -5 -47 -14 -51 -8 -3 -38 -33 -66 -67 l-53 -62 92 -11 c118 -15 223 -49 276 -90 41 -31 45 -32 111 -26 63 5 72 8 105 42 75 77 221 120 406 120 59 0 124 -5 143 -10 19 -5 60 -16 90 -25 40 -11 112 -16 270 -18 211 -2 216 -3 270 -29 30 -15 70 -40 88 -57 31 -30 32 -33 22 -75 -5 -25 -7 -51 -4 -60 5 -13 -31 -205 -41 -214 -4 -4 -29 35 -101 156 -83 142 -164 198 -188 130 -15 -44 17 -179 68 -284 79 -163 147 -214 287 -214 61 0 69 3 95 29 44 45 124 286 124 374 0 15 14 68 31 118 l32 90 31 -7 c17 -4 99 -7 181 -7 174 0 208 9 286 75 83 70 149 180 149 248 0 20 -10 20 -575 20 -627 0 -593 -3 -671 57 l-32 24 105 172 105 172 578 -3 577 -2 6 121 c4 67 7 146 7 175 l0 54 -465 2 -465 3 87 117 c49 64 120 155 158 202 l70 85 321 1 321 0 17 103 c14 86 30 164 47 237 3 13 -22 16 -173 20 l-178 5 113 102 c61 57 159 148 217 203 l105 100 55 -2 55 -3 28 58 c16 31 31 76 34 100 6 40 35 92 46 81 2 -3 14 10 26 29 12 19 37 52 56 72 19 21 34 41 33 44 -1 3 7 34 17 69 18 61 19 62 54 62 32 0 41 6 74 52 22 28 43 63 49 77 5 14 13 28 18 31 4 3 30 48 58 101 l50 96 -166 2 -167 2 -48 55 c-83 93 -229 183 -342 212 -63 16 -154 20 -230 11z"/>
 <path d="M2510 5683 c0 -49 -3 -132 -7 -185 l-6 -98 1431 0 1431 0 3 178 c2 97 2 180 0 185 -2 4 -644 7 -1428 7 l-1424 0 0 -87z"/>
 <path d="M7066 5674 c-9 -30 -19 -63 -21 -72 -2 -9 -8 -29 -14 -44 -16 -42 -4 -34 14 8 18 44 48 155 42 160 -2 2 -11 -21 -21 -52z"/>
 <path d="M1590 4983 c0 -5 11 -66 25 -138 14 -71 25 -146 25 -167 l0 -38 425 0 c234 0 425 3 425 7 0 3 -11 54 -24 112 -14 58 -30 134 -37 169 l-12 62 -413 0 c-228 0 -414 -3 -414 -7z"/>
 <path d="M2681 2686 c2 -2 51 -10 107 -16 93 -11 106 -11 120 4 15 15 7 16 -108 16 -68 0 -121 -2 -119 -4z"/>
 <path d="M4135 2370 c-217 -35 -308 -126 -191 -195 85 -50 138 -60 311 -60 126 0 172 4 217 18 32 10 60 22 62 26 3 4 8 42 12 84 l7 76 -29 11 c-103 40 -276 57 -389 40z"/>
 <path d="M3205 2310 c-17 -19 -21 -39 -23 -137 l-4 -116 124 6 c134 6 208 23 275 65 74 47 74 87 0 134 -61 38 -139 58 -252 65 -95 5 -101 4 -120 -17z"/>
 <path d="M3745 2210 c-23 -4 -31 -12 -36 -38 -14 -68 -106 -134 -234 -167 -33 -9 -112 -18 -176 -22 l-115 -6 13 -101 c8 -55 16 -102 17 -103 2 -2 22 3 45 12 63 22 281 62 410 76 132 14 573 7 720 -11 51 -6 97 -8 102 -3 9 9 43 212 37 218 -2 2 -31 -3 -63 -13 -44 -12 -100 -16 -210 -16 -161 0 -234 13 -325 59 -44 22 -110 85 -110 104 0 12 -39 18 -75 11z"/>
 </g>
<g id="layer106" fill="#ffbeb6" stroke="none">
 <path d="M2052 7792 c-822 -1 -1492 -5 -1490 -10 2 -4 95 -144 206 -311 198 -295 211 -320 170 -321 -17 0 -81 -67 -100 -104 -11 -23 -28 -51 -37 -62 -10 -12 -23 -41 -30 -65 -8 -24 -33 -98 -57 -164 -61 -171 -89 -282 -113 -446 -26 -175 -50 -289 -61 -289 -4 0 -13 14 -19 30 -8 23 -3 88 20 278 32 265 46 473 35 516 -5 19 -13 26 -31 26 -29 0 -34 -7 -56 -84 -9 -34 -31 -106 -48 -161 -18 -55 -43 -165 -56 -245 -30 -179 -68 -577 -63 -646 4 -50 33 -103 90 -164 27 -30 104 -90 114 -90 4 0 21 -11 38 -24 51 -38 89 -54 167 -71 93 -19 175 -19 276 0 78 15 172 53 200 81 8 8 19 14 25 14 19 0 109 73 212 174 55 52 115 103 134 112 18 9 43 26 55 37 21 22 43 38 151 110 73 49 103 96 121 188 8 41 28 113 44 161 54 153 54 211 1 223 -48 11 -134 -21 -173 -64 -36 -40 -121 -190 -132 -232 -8 -33 -44 -67 -110 -104 -27 -15 -63 -39 -78 -52 -16 -12 -34 -23 -40 -23 -6 0 -23 -11 -37 -25 l-27 -26 -6 143 c-4 79 -7 220 -7 313 l0 170 2224 -3 2223 -2 24 47 c13 26 190 297 392 601 203 305 367 556 365 558 -6 5 -2751 9 -4516 6z m-976 -1434 l-6 -312 -31 -46 -31 -45 7 227 c5 192 10 243 31 328 13 56 24 114 24 131 0 16 3 29 7 29 3 0 3 -140 -1 -312z"/>
 <path d="M6065 5789 c-71 -8 -166 -34 -312 -85 -73 -26 -84 -33 -104 -69 -12 -22 -32 -53 -44 -70 -12 -16 -39 -61 -60 -100 -21 -38 -46 -81 -57 -94 -10 -13 -18 -31 -18 -39 0 -9 -6 -23 -14 -31 -7 -9 -28 -45 -46 -81 -18 -36 -39 -77 -47 -92 -8 -15 -20 -47 -27 -70 -8 -24 -52 -124 -99 -223 -47 -99 -123 -270 -170 -380 -47 -110 -151 -355 -232 -545 -81 -190 -200 -455 -265 -590 -151 -315 -153 -320 -183 -417 -34 -107 -42 -192 -27 -282 7 -40 10 -74 8 -77 -3 -2 -40 17 -82 42 -43 26 -112 58 -154 72 -72 24 -89 26 -277 26 -242 0 -229 4 -449 -129 -22 -13 -62 -50 -89 -82 l-50 -58 92 -11 c118 -15 223 -49 276 -90 41 -31 45 -32 111 -26 63 5 72 8 105 42 75 77 221 120 406 120 59 0 124 -5 143 -10 19 -5 60 -16 90 -25 40 -11 112 -16 270 -18 211 -2 216 -3 270 -29 30 -15 70 -40 88 -57 31 -30 32 -33 22 -75 -5 -25 -7 -51 -4 -60 5 -13 -31 -205 -41 -214 -4 -4 -29 35 -101 156 -83 142 -164 198 -188 130 -15 -44 17 -179 68 -284 79 -163 147 -214 287 -214 61 0 69 3 95 29 44 45 124 286 124 374 0 16 13 65 28 110 34 99 34 173 -1 205 -20 19 -215 111 -312 148 -110 43 -173 75 -252 132 l-31 22 102 168 c386 628 639 942 1116 1387 260 242 344 325 453 446 53 59 98 105 100 102 3 -2 14 11 26 30 12 19 36 51 54 71 19 20 34 42 35 49 0 6 11 44 23 82 15 51 22 98 23 175 1 98 -1 109 -30 170 -55 115 -176 226 -316 289 -110 50 -208 65 -333 50z"/>
 <path d="M7066 5674 c-9 -30 -19 -63 -21 -72 -2 -9 -8 -29 -14 -44 -16 -42 -4 -34 14 8 18 44 48 155 42 160 -2 2 -11 -21 -21 -52z"/>
 <path d="M4135 2370 c-217 -35 -308 -126 -191 -195 85 -50 138 -60 311 -60 126 0 172 4 217 18 32 10 60 22 62 26 3 4 8 42 12 84 l7 76 -29 11 c-103 40 -276 57 -389 40z"/>
 <path d="M3205 2310 c-17 -19 -21 -39 -23 -137 l-4 -116 124 6 c134 6 208 23 275 65 74 47 74 87 0 134 -61 38 -139 58 -252 65 -95 5 -101 4 -120 -17z"/>
 <path d="M3745 2210 c-23 -4 -31 -12 -36 -38 -14 -68 -106 -134 -234 -167 -33 -9 -112 -18 -176 -22 l-115 -6 13 -101 c8 -55 16 -102 17 -103 2 -2 22 3 45 12 63 22 281 62 410 76 132 14 573 7 720 -11 51 -6 97 -8 102 -3 9 9 43 212 37 218 -2 2 -31 -3 -63 -13 -44 -12 -100 -16 -210 -16 -161 0 -234 13 -325 59 -44 22 -110 85 -110 104 0 12 -39 18 -75 11z"/>
 </g>
<g id="layer107" fill="#e2e2e3" stroke="none">
 <path d="M2052 7792 c-822 -1 -1492 -5 -1490 -10 2 -4 94 -143 206 -310 l203 -303 47 6 c74 9 105 -4 118 -50 l10 -39 18 45 c33 84 96 147 135 134 36 -11 40 -52 34 -355 -6 -271 -5 -291 12 -310 18 -20 30 -20 2226 -20 l2208 0 20 29 c11 15 18 31 14 35 -3 3 -1 6 5 6 7 0 12 5 12 10 0 6 167 261 371 566 204 306 369 558 367 560 -6 5 -2751 9 -4516 6z"/>
 </g>

</svg>