<!DOCTYPE svg PUBLIC "-//W3C//DTD SVG 20010904//EN" "http://www.w3.org/TR/2001/REC-SVG-20010904/DTD/svg10.dtd">
<svg version="1.0" xmlns="http://www.w3.org/2000/svg" width="674px" height="813px" viewBox="0 0 6740 8130" preserveAspectRatio="xMidYMid meet">
<g id="layer101" fill="#212b6a" stroke="none">
 <path d="M1113 8113 c-587 -2 -853 -6 -853 -14 0 -5 19 -37 42 -71 24 -33 50 -71 58 -83 30 -45 84 -120 89 -125 3 -3 11 -12 16 -21 13 -21 103 -152 175 -254 61 -86 73 -103 112 -162 14 -22 32 -46 40 -54 7 -8 18 -22 23 -31 19 -31 110 -163 140 -204 17 -23 48 -66 70 -97 l40 -57 112 0 c89 0 114 -3 120 -15 8 -13 218 -15 1828 -13 l1820 3 13 28 c13 27 14 27 106 27 l93 0 29 43 c15 23 38 53 50 67 12 14 46 61 75 105 30 44 57 82 60 85 3 3 27 34 52 70 26 36 53 74 61 85 8 11 64 90 125 175 60 85 117 164 126 175 20 25 129 178 195 273 l50 72 -2007 -2 c-1105 -2 -2392 -4 -2860 -5z"/>
 <path d="M280 6801 c-139 -43 -190 -131 -190 -333 0 -148 41 -392 96 -568 26 -85 62 -220 70 -265 11 -60 80 -224 157 -375 198 -385 363 -711 624 -1230 275 -545 334 -661 361 -710 5 -8 13 -24 19 -35 10 -20 50 -94 126 -235 23 -41 52 -95 65 -120 13 -25 39 -72 57 -105 19 -33 43 -78 55 -100 11 -22 34 -62 50 -90 16 -27 34 -60 40 -73 40 -92 172 -217 268 -255 23 -9 65 -17 92 -17 27 0 52 -5 55 -10 4 -6 1 -53 -6 -104 -27 -204 39 -587 130 -762 55 -104 133 -223 182 -275 16 -17 29 -34 29 -38 0 -15 198 -181 217 -181 3 0 23 -7 43 -16 36 -16 37 -18 24 -43 -58 -112 -32 -389 47 -489 10 -14 19 -29 19 -35 0 -24 152 -167 178 -167 6 0 28 -10 49 -23 33 -19 55 -22 168 -25 l131 -4 77 37 c137 64 245 191 286 340 17 62 13 182 -9 245 -10 30 -17 56 -15 58 5 5 114 -50 126 -64 6 -8 17 -14 23 -14 7 0 35 -22 63 -50 54 -52 77 -61 87 -33 13 33 -111 135 -243 199 l-64 31 47 6 c98 14 246 111 246 163 0 19 -5 24 -25 24 -14 0 -25 -4 -25 -10 0 -5 -16 -24 -34 -41 -79 -71 -227 -111 -282 -75 -14 10 -23 20 -20 24 4 3 32 9 64 13 146 17 232 96 319 289 58 129 69 182 39 188 -20 4 -36 -13 -36 -40 0 -29 -100 -231 -137 -276 -34 -41 -85 -80 -127 -96 -12 -4 -1 13 25 41 90 96 206 307 244 443 7 25 20 65 28 90 61 171 70 220 70 375 0 104 -6 171 -17 220 -27 113 -36 153 -36 163 0 6 13 7 32 2 54 -14 178 -49 264 -76 109 -33 217 -34 259 -1 47 35 195 190 195 204 0 7 6 16 13 20 15 9 72 90 87 125 6 13 26 48 45 78 19 30 43 71 53 90 54 99 75 138 89 165 9 17 20 37 24 45 5 8 78 152 162 320 147 293 162 322 189 373 6 12 27 51 46 87 18 36 47 89 64 118 l30 53 24 -22 c13 -12 25 -21 27 -18 2 2 14 33 27 69 23 66 76 180 108 235 10 17 31 53 47 80 16 28 32 52 35 55 4 3 27 37 53 75 65 99 149 218 164 233 7 7 13 19 13 27 0 7 4 15 8 17 8 3 73 99 98 145 7 12 19 35 28 50 27 50 116 243 116 253 0 5 11 33 24 62 13 29 32 71 41 93 67 153 124 350 144 496 16 119 14 324 -3 374 -19 54 -100 154 -152 188 -47 31 -78 31 -135 3 -18 -9 -37 -16 -43 -16 -16 0 -194 -118 -294 -195 -7 -5 -21 -17 -30 -25 -9 -9 -62 -54 -117 -102 -110 -95 -152 -137 -207 -213 -21 -27 -41 -55 -46 -60 -11 -13 -114 -162 -127 -183 -6 -9 -35 -55 -66 -102 -54 -83 -109 -188 -109 -209 0 -6 -4 -11 -9 -11 -5 0 -12 -18 -16 -40 -4 -22 -13 -47 -22 -55 -8 -8 -12 -15 -9 -15 10 0 -27 -84 -51 -116 -13 -17 -23 -34 -23 -38 0 -6 -50 -86 -60 -96 -3 -3 -18 -30 -34 -60 -25 -48 -91 -173 -139 -265 -25 -46 -122 -249 -122 -255 -1 -3 -8 -21 -17 -40 -9 -19 -30 -66 -47 -105 -37 -84 -39 -71 -7 39 29 98 55 200 72 281 6 33 22 101 34 150 40 162 68 278 93 395 49 224 76 346 101 465 14 66 36 172 50 236 15 64 26 131 26 148 l0 31 -1790 0 c-1425 0 -1790 -3 -1790 -12 1 -15 9 -49 40 -163 12 -44 23 -87 24 -95 1 -8 5 -22 8 -30 4 -8 9 -31 12 -50 3 -19 15 -64 25 -100 16 -53 36 -129 58 -215 1 -5 5 -21 8 -35 6 -24 -62 73 -106 150 -11 19 -27 47 -37 62 -9 14 -32 50 -50 80 -48 80 -55 90 -79 125 -13 17 -23 34 -23 36 0 3 -19 33 -42 67 -24 34 -50 72 -58 85 -55 84 -114 166 -131 181 -10 9 -19 21 -19 26 0 7 -45 70 -124 173 -98 128 -142 183 -157 200 -11 11 -40 44 -67 74 -155 176 -287 275 -407 306 -64 16 -87 17 -125 6z m2478 -3908 c-10 -2 -26 -2 -35 0 -10 3 -2 5 17 5 19 0 27 -2 18 -5z m922 -3 c0 -12 -8 -12 -35 0 -18 8 -17 9 8 9 15 1 27 -3 27 -9z m-317 -47 c-27 -18 -31 -38 -5 -28 13 5 14 3 5 -6 -6 -6 -16 -8 -22 -5 -18 12 -12 32 12 44 32 15 36 13 10 -5z m-1099 -205 c-16 -18 -32 -37 -36 -42 -5 -6 -8 -6 -8 0 0 11 58 74 68 74 3 0 -7 -15 -24 -32z m27 -21 c-6 -8 -9 -17 -6 -20 3 -4 2 -5 -2 -2 -3 3 -13 -1 -21 -8 -11 -9 -11 -4 2 16 10 15 23 27 28 27 7 0 6 -5 -1 -13z m-50 -104 c-6 -27 -8 -59 -6 -69 14 -70 15 -88 4 -77 -13 13 -17 134 -6 177 13 46 18 24 8 -31z m1818 -18 c0 -5 -8 6 -19 25 -11 19 -19 40 -19 45 0 6 8 -6 19 -25 11 -19 19 -39 19 -45z m35 -95 c5 -20 3 -19 -8 5 -7 17 -16 41 -20 55 -5 20 -3 19 8 -5 7 -16 16 -41 20 -55z"/>
 </g>
<g id="layer102" fill="#e94b48" stroke="none">
 <path d="M1113 8113 c-587 -2 -853 -6 -853 -14 0 -5 19 -37 42 -71 24 -33 50 -71 58 -83 30 -45 84 -120 89 -125 3 -3 11 -12 16 -21 13 -21 103 -152 175 -254 61 -86 73 -103 112 -162 14 -22 32 -46 40 -54 7 -8 18 -22 23 -31 19 -31 110 -163 140 -204 17 -23 48 -66 70 -97 l40 -57 112 0 c89 0 114 -3 120 -15 8 -13 218 -15 1828 -13 l1820 3 13 28 c13 27 14 27 107 27 l93 0 36 53 c20 28 50 70 67 92 16 22 46 65 66 95 21 30 40 57 44 60 3 3 27 34 52 70 26 36 53 74 61 85 8 11 64 90 125 175 60 85 117 164 126 175 20 25 129 178 195 273 l50 72 -2007 -2 c-1105 -2 -2392 -4 -2860 -5z"/>
 <path d="M280 6801 c-139 -43 -190 -131 -190 -333 0 -148 41 -392 96 -568 26 -85 62 -220 70 -265 11 -60 80 -224 157 -375 196 -382 362 -710 622 -1225 166 -330 313 -620 326 -645 30 -54 46 -84 57 -107 5 -10 26 -49 47 -88 99 -183 121 -224 146 -270 15 -27 36 -66 46 -85 11 -19 33 -61 51 -92 43 -76 81 -147 100 -183 23 -45 86 -126 123 -161 87 -79 161 -114 239 -114 27 0 52 -5 55 -10 4 -6 1 -53 -6 -104 -27 -204 39 -587 130 -762 55 -104 133 -223 182 -275 16 -17 29 -34 29 -38 0 -15 198 -181 217 -181 3 0 23 -7 43 -16 36 -16 37 -18 24 -43 -58 -112 -32 -389 47 -489 10 -14 19 -30 19 -36 0 -23 154 -166 178 -166 6 0 28 -10 49 -23 33 -19 55 -22 168 -25 l131 -4 77 37 c137 64 245 191 286 340 17 62 13 182 -9 245 -10 30 -17 56 -15 58 5 5 114 -50 126 -64 6 -8 17 -14 23 -14 7 0 35 -22 63 -50 54 -52 77 -61 87 -33 13 33 -111 135 -243 199 l-64 31 47 6 c98 14 246 111 246 163 0 19 -5 24 -25 24 -14 0 -25 -4 -25 -10 0 -5 -16 -24 -34 -41 -79 -71 -227 -111 -282 -75 -14 10 -23 20 -20 24 4 3 32 9 64 13 146 17 232 96 319 289 58 129 69 182 39 188 -20 4 -36 -13 -36 -40 0 -29 -100 -231 -137 -276 -34 -41 -85 -80 -127 -96 -12 -4 -1 13 25 41 90 96 206 307 244 443 7 25 20 65 28 90 61 171 70 220 70 375 0 104 -6 171 -17 220 -27 113 -36 153 -36 163 0 6 13 7 32 2 46 -12 170 -48 253 -73 39 -12 107 -22 155 -24 76 -4 88 -2 115 19 48 36 195 191 195 205 0 7 6 16 13 20 15 9 72 90 87 125 6 13 26 48 45 78 19 30 43 71 53 90 54 99 75 138 89 165 9 17 22 41 30 55 7 14 80 158 161 320 143 284 158 313 184 363 6 12 27 51 46 87 18 36 47 89 64 118 l30 53 24 -22 c13 -12 25 -21 27 -18 2 2 14 33 27 69 23 66 76 180 108 235 10 17 31 53 47 80 16 28 32 52 35 55 4 3 27 37 53 75 65 99 149 218 164 233 7 7 13 19 13 27 0 7 4 15 8 17 8 3 73 99 98 145 7 12 19 35 28 50 27 50 116 243 116 253 0 5 11 33 24 62 100 220 163 421 185 593 16 115 14 321 -3 370 -19 55 -100 154 -153 189 -39 25 -48 27 -81 18 -67 -19 -119 -41 -158 -66 -75 -49 -205 -139 -227 -157 -12 -10 -26 -22 -32 -27 -5 -4 -57 -49 -115 -99 -113 -98 -143 -128 -208 -213 -23 -30 -46 -60 -51 -66 -5 -6 -20 -28 -34 -50 -15 -21 -40 -57 -56 -79 -17 -22 -34 -47 -38 -55 -4 -8 -26 -43 -50 -78 -48 -70 -123 -210 -123 -229 0 -7 -4 -13 -9 -13 -5 0 -12 -18 -16 -40 -4 -22 -13 -47 -22 -55 -8 -8 -12 -15 -9 -15 10 0 -27 -84 -51 -116 -13 -17 -23 -34 -23 -37 0 -4 -19 -37 -43 -74 -24 -38 -50 -81 -59 -98 -22 -43 -118 -226 -133 -255 -22 -41 -120 -245 -120 -250 -1 -3 -8 -21 -17 -40 -9 -19 -30 -66 -47 -105 -37 -84 -39 -71 -7 39 30 105 56 206 72 281 6 33 22 101 34 150 40 162 68 278 93 395 49 224 76 346 101 465 14 66 36 172 50 236 15 64 26 131 26 148 l0 31 -1791 0 -1791 0 6 -32 c10 -44 11 -50 36 -143 12 -44 23 -88 24 -97 1 -10 5 -21 9 -24 4 -4 7 -17 7 -28 0 -12 11 -59 24 -106 20 -69 43 -157 63 -235 1 -5 5 -21 8 -35 6 -24 -62 73 -106 150 -11 19 -27 47 -37 62 -9 14 -32 50 -50 80 -48 80 -55 90 -79 125 -13 17 -23 34 -23 37 0 3 -21 37 -47 74 -27 38 -52 75 -58 84 -40 62 -115 166 -129 177 -9 7 -16 17 -16 22 0 8 -44 70 -124 174 -98 128 -142 183 -157 200 -11 11 -40 44 -67 74 -155 176 -287 275 -407 306 -64 16 -87 17 -125 6z m2528 -3886 c77 -18 142 -50 142 -70 0 -20 -3 -20 -95 16 -71 28 -88 31 -161 27 -65 -3 -90 -10 -127 -32 -26 -15 -47 -31 -47 -36 0 -6 -9 -10 -20 -10 -11 0 -20 5 -20 11 0 20 76 79 115 90 22 5 45 12 50 14 24 8 105 4 163 -10z m872 -24 c0 -13 -38 -21 -100 -21 -59 0 -166 -29 -206 -55 -26 -17 -44 -13 -44 9 0 12 90 58 135 69 37 9 215 7 215 -2z m76 -37 c29 -20 48 -50 39 -64 -4 -6 -19 0 -38 16 -17 14 -42 31 -56 36 -25 10 -25 11 -6 18 29 12 33 12 61 -6z m-1492 -216 c-16 -18 -32 -37 -36 -42 -5 -6 -8 -6 -8 0 0 11 58 74 68 74 3 0 -7 -15 -24 -32z m27 -21 c-6 -8 -9 -17 -6 -20 3 -4 2 -5 -2 -2 -3 3 -13 -1 -21 -8 -11 -9 -11 -4 2 16 10 15 23 27 28 27 7 0 6 -5 -1 -13z m-50 -104 c-6 -27 -8 -59 -6 -69 14 -70 15 -88 4 -77 -13 13 -17 134 -6 177 13 46 18 24 8 -31z m1818 -18 c0 -5 -8 6 -19 25 -11 19 -19 40 -19 45 0 6 8 -6 19 -25 11 -19 19 -39 19 -45z m35 -95 c5 -20 3 -19 -8 5 -7 17 -16 41 -20 55 -5 20 -3 19 8 -5 7 -16 16 -41 20 -55z"/>
 </g>
<g id="layer103" fill="#3684f0" stroke="none">
 <path d="M677 7873 c10 -16 150 -225 311 -466 161 -241 298 -451 304 -467 l10 -30 1821 2 1822 3 13 30 c19 43 1 15 325 499 163 245 297 447 297 450 0 4 -1107 6 -2460 6 l-2460 0 17 -27z"/>
 <path d="M280 6801 c-139 -43 -190 -131 -190 -333 0 -148 41 -392 96 -568 26 -85 62 -220 70 -265 11 -60 80 -224 157 -375 196 -382 362 -710 622 -1225 166 -330 313 -620 326 -645 30 -54 46 -84 57 -107 5 -10 26 -49 47 -88 99 -183 121 -224 146 -270 15 -27 36 -66 46 -85 11 -19 33 -61 51 -92 43 -76 81 -147 100 -183 56 -109 172 -220 270 -258 43 -17 127 -23 136 -9 2 4 -2 32 -10 62 -38 147 11 287 111 320 43 14 80 10 80 -10 0 -10 -14 -17 -43 -21 -41 -5 -76 -34 -65 -53 4 -5 1 -6 -4 -3 -6 4 -15 1 -21 -6 -12 -14 -33 -122 -27 -140 2 -6 6 -35 9 -64 11 -111 107 -237 222 -290 124 -57 252 -36 361 60 33 29 145 140 249 247 296 305 372 372 496 440 l53 30 -50 0 c-55 0 -162 -29 -201 -55 -13 -9 -29 -13 -34 -10 -23 14 -6 34 53 61 57 27 72 29 189 31 70 1 144 6 165 12 52 15 73 14 73 -4 0 -8 -14 -17 -35 -21 -43 -8 -52 -20 -26 -34 24 -13 44 -47 36 -60 -4 -6 -22 3 -43 19 -56 44 -73 46 -139 12 -121 -61 -208 -136 -463 -393 -140 -143 -257 -263 -258 -269 -2 -5 32 7 75 27 242 112 328 150 423 186 58 22 157 61 220 85 63 25 149 58 190 73 41 16 103 40 138 54 l63 25 20 -32 c10 -18 34 -69 51 -115 26 -68 36 -84 57 -89 14 -3 59 -16 100 -29 40 -13 81 -24 90 -24 9 0 50 -11 91 -25 102 -34 213 -35 255 -2 47 35 195 190 195 204 0 7 6 16 13 20 15 9 72 90 87 125 6 13 26 48 45 78 19 30 43 71 53 90 54 99 75 138 89 165 9 17 22 41 30 55 7 14 80 158 161 320 143 284 158 313 184 363 6 12 27 51 46 87 18 36 47 89 64 118 l30 53 24 -22 c13 -12 25 -21 27 -18 2 2 14 33 27 69 23 66 76 180 108 235 10 17 31 53 47 80 16 28 32 52 35 55 4 3 27 37 53 75 65 99 149 218 164 233 7 7 13 19 13 27 0 7 4 15 8 17 8 3 73 99 98 145 7 12 19 35 28 50 27 50 116 243 116 253 0 5 11 33 24 62 100 220 163 421 185 593 16 115 14 321 -3 370 -19 55 -100 154 -153 189 -39 25 -48 27 -81 18 -67 -19 -119 -41 -158 -66 -75 -49 -205 -139 -227 -157 -12 -10 -26 -22 -32 -27 -5 -4 -57 -49 -115 -99 -113 -98 -143 -128 -208 -213 -23 -30 -46 -60 -51 -66 -5 -6 -20 -28 -34 -50 -15 -21 -40 -57 -56 -79 -17 -22 -34 -47 -38 -55 -4 -8 -26 -43 -50 -78 -48 -70 -123 -210 -123 -229 0 -7 -4 -13 -9 -13 -5 0 -12 -18 -16 -40 -4 -22 -13 -47 -22 -55 -8 -8 -12 -15 -9 -15 10 0 -27 -84 -51 -116 -13 -17 -23 -34 -23 -37 0 -4 -19 -37 -43 -74 -24 -38 -50 -81 -59 -98 -22 -43 -118 -226 -133 -255 -22 -41 -120 -245 -120 -250 -1 -3 -8 -21 -17 -40 -9 -19 -30 -66 -47 -105 -37 -84 -39 -71 -7 39 30 105 56 206 72 281 6 33 22 101 34 150 40 162 68 278 93 395 49 224 76 346 101 465 14 66 36 172 50 236 15 64 26 131 26 148 l0 31 -1791 0 -1791 0 6 -32 c10 -44 11 -50 36 -143 12 -44 23 -88 24 -97 1 -10 5 -21 9 -24 4 -4 7 -17 7 -28 0 -12 11 -59 24 -106 20 -69 43 -157 63 -235 1 -5 5 -21 8 -35 6 -24 -62 73 -106 150 -11 19 -27 47 -37 62 -9 14 -32 50 -50 80 -48 80 -55 90 -79 125 -13 17 -23 34 -23 37 0 3 -21 37 -47 74 -27 38 -52 75 -58 84 -40 62 -115 166 -129 177 -9 7 -16 17 -16 22 0 8 -44 70 -124 174 -98 128 -142 183 -157 200 -11 11 -40 44 -67 74 -155 176 -287 275 -407 306 -64 16 -87 17 -125 6z m2528 -3886 c77 -18 142 -50 142 -70 0 -20 -3 -20 -95 16 -71 28 -88 31 -161 27 -65 -3 -90 -10 -127 -32 -26 -15 -47 -31 -47 -36 0 -6 -9 -10 -20 -10 -11 0 -20 5 -20 11 0 20 76 79 115 90 22 5 45 12 50 14 24 8 105 4 163 -10z m1247 -15 c19 -8 19 -9 -2 -9 -12 -1 -25 4 -28 9 -7 12 2 12 30 0z"/>
 <path d="M2230 2236 c0 -69 101 -163 198 -185 23 -5 42 -7 42 -6 0 2 -24 17 -54 34 -58 33 -134 109 -160 159 -21 41 -26 40 -26 -2z"/>
 </g>
<g id="layer104" fill="#febdb6" stroke="none">
 <path d="M677 7873 c10 -16 150 -225 311 -465 161 -241 295 -446 299 -455 4 -10 12 -24 19 -31 10 -9 384 -12 1826 -10 l1813 3 13 30 c19 43 1 15 325 499 163 245 297 447 297 450 0 4 -1107 6 -2460 6 l-2460 0 17 -27z"/>
 <path d="M4452 5874 c4 -21 22 -23 26 -1 2 10 -3 17 -13 17 -10 0 -15 -6 -13 -16z"/>
 <path d="M3602 5774 c4 -21 22 -23 26 -1 2 10 -3 17 -13 17 -10 0 -15 -6 -13 -16z"/>
 <path d="M4112 5628 c6 -18 28 -21 28 -4 0 9 -7 16 -16 16 -9 0 -14 -5 -12 -12z"/>
 <path d="M4430 5485 c0 -10 7 -15 18 -13 21 4 19 22 -2 26 -10 2 -16 -3 -16 -13z"/>
 <path d="M4522 5456 c1 -10 8 -17 13 -17 15 1 12 24 -3 29 -9 3 -13 -2 -10 -12z"/>
 <path d="M3822 5416 c1 -10 8 -17 13 -17 15 1 12 24 -3 29 -9 3 -13 -2 -10 -12z"/>
 <path d="M4210 5266 c0 -9 7 -16 16 -16 17 0 14 22 -4 28 -7 2 -12 -3 -12 -12z"/>
 <path d="M3220 5235 c0 -8 7 -15 15 -15 8 0 15 7 15 15 0 8 -7 15 -15 15 -8 0 -15 -7 -15 -15z"/>
 <path d="M3520 5235 c0 -8 7 -15 15 -15 8 0 15 7 15 15 0 8 -7 15 -15 15 -8 0 -15 -7 -15 -15z"/>
 <path d="M3475 5120 c-7 -12 2 -30 16 -30 12 0 12 27 0 35 -5 3 -12 1 -16 -5z"/>
 <path d="M2652 5046 c1 -10 8 -17 13 -17 15 1 12 24 -3 29 -9 3 -13 -2 -10 -12z"/>
 <path d="M3077 5024 c-9 -10 2 -24 19 -24 8 0 14 7 14 15 0 15 -21 21 -33 9z"/>
 <path d="M3346 4833 c-12 -12 -6 -33 9 -33 8 0 15 6 15 14 0 17 -14 28 -24 19z"/>
 <path d="M1699 4752 c-127 -83 -220 -180 -291 -301 l-26 -44 144 -154 c163 -175 271 -313 334 -429 60 -111 215 -343 296 -444 105 -131 261 -287 292 -293 49 -10 120 13 175 55 125 98 311 309 357 406 l21 43 -25 77 c-13 43 -27 94 -31 115 -8 44 -57 88 -149 136 -64 34 -110 40 -120 15 -9 -23 6 -44 72 -102 83 -72 106 -111 98 -168 -5 -39 -14 -53 -68 -102 -34 -31 -74 -76 -89 -100 l-27 -42 -27 32 c-63 75 -187 151 -267 162 -26 4 -56 15 -68 24 -12 10 -37 65 -59 127 -37 106 -162 438 -196 520 -9 22 -56 119 -104 215 -49 96 -99 203 -112 238 -16 41 -29 62 -40 62 -9 0 -50 -22 -90 -48z"/>
 <path d="M3427 4773 c-12 -11 -8 -23 8 -23 8 0 15 7 15 15 0 16 -12 20 -23 8z"/>
 <path d="M2915 4700 c-4 -6 -3 -16 3 -22 6 -6 12 -6 17 2 4 6 3 16 -3 22 -6 6 -12 6 -17 -2z"/>
 <path d="M2847 4683 c-12 -11 -8 -23 8 -23 8 0 15 7 15 15 0 16 -12 20 -23 8z"/>
 <path d="M3170 4475 c0 -9 5 -15 11 -13 6 2 11 8 11 13 0 5 -5 11 -11 13 -6 2 -11 -4 -11 -13z"/>
 <path d="M3170 4334 c0 -9 5 -14 12 -12 18 6 21 28 4 28 -9 0 -16 -7 -16 -16z"/>
 <path d="M2795 4281 c-8 -15 3 -31 21 -31 9 0 14 7 12 17 -4 20 -24 28 -33 14z"/>
 <path d="M2962 4228 c6 -18 28 -21 28 -4 0 9 -7 16 -16 16 -9 0 -14 -5 -12 -12z"/>
 <path d="M4957 4163 c-13 -22 -97 -316 -177 -623 -89 -335 -158 -567 -186 -622 -18 -34 -48 -36 -206 -12 -99 15 -114 15 -197 0 -49 -9 -105 -16 -124 -16 -33 0 -37 3 -66 66 -17 36 -31 72 -31 79 0 7 27 45 61 85 70 83 75 113 21 118 -115 11 -282 -111 -268 -195 2 -18 3 -33 1 -33 -2 0 -26 22 -52 48 -95 95 -259 189 -346 199 -48 5 -56 10 -110 69 -52 57 -63 64 -96 64 -42 0 -67 -15 -136 -81 -45 -43 -66 -54 -210 -105 -180 -63 -201 -73 -266 -120 -74 -54 -173 -197 -228 -331 l-28 -70 41 1 c30 1 41 -3 41 -14 0 -9 -11 -16 -25 -18 -75 -8 -75 -9 -104 -157 -25 -123 -23 -152 11 -220 83 -164 267 -249 425 -196 81 27 125 64 374 321 296 305 372 372 496 440 l53 30 -50 0 c-55 0 -162 -29 -201 -55 -13 -9 -29 -13 -34 -10 -23 14 -6 34 53 61 57 27 72 29 189 31 70 1 144 6 165 12 52 15 73 14 73 -4 0 -8 -14 -17 -35 -21 -43 -8 -52 -20 -26 -34 24 -13 44 -47 36 -60 -4 -6 -22 3 -43 19 -56 44 -73 46 -139 12 -121 -61 -208 -136 -463 -393 -140 -143 -257 -263 -258 -269 -2 -5 32 7 75 27 187 86 365 164 463 202 58 22 177 68 265 102 88 34 191 74 228 88 55 21 67 30 63 44 -20 63 -20 62 0 54 195 -79 465 -146 584 -146 60 1 80 14 152 96 198 228 423 570 630 959 100 187 228 440 228 448 0 9 -93 55 -167 83 -35 13 -105 31 -156 39 -96 16 -293 20 -300 8z m-2149 -1248 c77 -18 142 -50 142 -70 0 -20 -3 -20 -95 16 -71 28 -88 31 -161 27 -65 -3 -90 -10 -127 -32 -26 -15 -47 -31 -47 -36 0 -6 -9 -10 -20 -10 -11 0 -20 5 -20 11 0 20 76 79 115 90 22 5 45 12 50 14 24 8 105 4 163 -10z"/>
 <path d="M2230 2236 c0 -69 101 -163 198 -185 23 -5 42 -7 42 -6 0 2 -24 17 -54 34 -58 33 -134 109 -160 159 -21 41 -26 40 -26 -2z"/>
 </g>
<g id="layer105" fill="#e2e2e3" stroke="none">
 <path d="M677 7873 c10 -16 150 -225 311 -465 161 -241 295 -446 299 -455 4 -10 12 -24 19 -30 10 -10 388 -13 1822 -13 1436 0 1812 3 1819 13 6 6 15 26 20 43 6 17 143 228 304 469 162 242 298 445 302 452 7 11 -445 13 -2453 13 l-2460 0 17 -27z"/>
 <path d="M4452 5874 c4 -21 22 -23 26 -1 2 10 -3 17 -13 17 -10 0 -15 -6 -13 -16z"/>
 <path d="M3602 5774 c4 -21 22 -23 26 -1 2 10 -3 17 -13 17 -10 0 -15 -6 -13 -16z"/>
 <path d="M4112 5628 c6 -18 28 -21 28 -4 0 9 -7 16 -16 16 -9 0 -14 -5 -12 -12z"/>
 <path d="M4430 5485 c0 -10 7 -15 18 -13 21 4 19 22 -2 26 -10 2 -16 -3 -16 -13z"/>
 <path d="M4522 5456 c1 -10 8 -17 13 -17 15 1 12 24 -3 29 -9 3 -13 -2 -10 -12z"/>
 <path d="M3822 5416 c1 -10 8 -17 13 -17 15 1 12 24 -3 29 -9 3 -13 -2 -10 -12z"/>
 <path d="M4210 5266 c0 -9 7 -16 16 -16 17 0 14 22 -4 28 -7 2 -12 -3 -12 -12z"/>
 <path d="M3220 5235 c0 -8 7 -15 15 -15 8 0 15 7 15 15 0 8 -7 15 -15 15 -8 0 -15 -7 -15 -15z"/>
 <path d="M3520 5235 c0 -8 7 -15 15 -15 8 0 15 7 15 15 0 8 -7 15 -15 15 -8 0 -15 -7 -15 -15z"/>
 <path d="M3475 5120 c-7 -12 2 -30 16 -30 12 0 12 27 0 35 -5 3 -12 1 -16 -5z"/>
 <path d="M2652 5046 c1 -10 8 -17 13 -17 15 1 12 24 -3 29 -9 3 -13 -2 -10 -12z"/>
 <path d="M3077 5024 c-9 -10 2 -24 19 -24 8 0 14 7 14 15 0 15 -21 21 -33 9z"/>
 <path d="M3346 4833 c-12 -12 -6 -33 9 -33 8 0 15 6 15 14 0 17 -14 28 -24 19z"/>
 <path d="M3427 4773 c-12 -11 -8 -23 8 -23 8 0 15 7 15 15 0 16 -12 20 -23 8z"/>
 <path d="M2915 4700 c-4 -6 -3 -16 3 -22 6 -6 12 -6 17 2 4 6 3 16 -3 22 -6 6 -12 6 -17 -2z"/>
 <path d="M2847 4683 c-12 -11 -8 -23 8 -23 8 0 15 7 15 15 0 16 -12 20 -23 8z"/>
 <path d="M3170 4475 c0 -9 5 -15 11 -13 6 2 11 8 11 13 0 5 -5 11 -11 13 -6 2 -11 -4 -11 -13z"/>
 <path d="M3170 4334 c0 -9 5 -14 12 -12 18 6 21 28 4 28 -9 0 -16 -7 -16 -16z"/>
 <path d="M2795 4281 c-8 -15 3 -31 21 -31 9 0 14 7 12 17 -4 20 -24 28 -33 14z"/>
 <path d="M2962 4228 c6 -18 28 -21 28 -4 0 9 -7 16 -16 16 -9 0 -14 -5 -12 -12z"/>
 </g>

</svg>