<!DOCTYPE svg PUBLIC "-//W3C//DTD SVG 20010904//EN" "http://www.w3.org/TR/2001/REC-SVG-20010904/DTD/svg10.dtd">
<svg version="1.0" xmlns="http://www.w3.org/2000/svg" width="989px" height="811px" viewBox="0 0 9890 8110" preserveAspectRatio="xMidYMid meet">
<g id="layer101" fill="#1f2462" stroke="none">
 <path d="M3920 7911 l0 -139 72 -4 c42 -2 73 -9 75 -15 3 -7 21 -17 40 -24 34 -11 38 -10 58 15 18 23 28 26 78 26 l57 0 -18 -37 c-9 -21 -24 -43 -33 -50 -9 -7 -19 -26 -22 -42 -5 -23 -11 -29 -22 -24 -11 4 -16 1 -14 -8 4 -25 -13 -69 -26 -69 -7 0 -15 -5 -17 -11 -2 -7 -12 -7 -33 1 -35 13 -40 9 -90 -93 -33 -67 -36 -97 -10 -97 8 0 17 -5 20 -11 9 -13 -13 -68 -37 -93 -10 -11 -18 -25 -18 -32 0 -7 -6 -19 -13 -26 -7 -7 -21 -32 -31 -55 -11 -24 -22 -43 -26 -43 -3 0 -14 -22 -24 -50 -10 -27 -21 -50 -25 -50 -5 0 -16 -19 -27 -42 -25 -57 -36 -67 -65 -61 -22 4 -27 -1 -39 -36 -7 -23 -16 -41 -20 -41 -4 0 -15 -21 -25 -46 -15 -39 -15 -50 -4 -70 11 -21 10 -28 -8 -52 -11 -15 -34 -57 -53 -94 -18 -38 -37 -68 -41 -68 -5 0 -9 -11 -9 -25 0 -14 -4 -25 -8 -25 -5 0 -15 -18 -22 -40 -7 -22 -19 -40 -27 -40 -7 0 -13 -8 -13 -19 0 -20 -28 -93 -39 -101 -4 -3 -13 -20 -20 -37 -8 -18 -19 -33 -26 -33 -7 0 -20 -21 -30 -47 -10 -27 -24 -54 -31 -61 -7 -7 -16 -29 -19 -50 -7 -42 -34 -102 -47 -102 -4 0 -8 -10 -8 -21 0 -12 -11 -32 -26 -45 -31 -29 -38 -30 -24 -4 6 11 8 25 5 30 -7 12 -163 90 -180 90 -6 0 -18 -18 -25 -40 -7 -22 -19 -40 -25 -40 -7 0 -15 -12 -18 -27 -3 -16 -9 -40 -13 -56 -6 -24 -3 -29 31 -43 21 -8 44 -22 51 -29 12 -11 11 -15 -6 -20 -11 -3 -20 -11 -20 -16 0 -5 -18 -17 -40 -26 -22 -10 -40 -21 -40 -25 0 -4 -15 -15 -32 -24 -18 -9 -37 -23 -41 -30 -4 -8 -14 -14 -22 -14 -8 0 -20 -8 -27 -17 -14 -19 -52 -43 -67 -43 -5 0 -7 9 -4 20 3 11 9 20 13 20 8 0 40 78 40 97 0 6 -16 17 -35 23 -19 6 -35 16 -35 21 0 5 -5 9 -10 9 -6 0 -30 9 -52 20 -49 24 -65 15 -87 -47 -7 -21 -20 -45 -28 -54 -8 -9 -15 -29 -16 -45 -2 -25 4 -30 58 -53 33 -14 67 -32 76 -40 15 -12 15 -15 0 -30 -9 -9 -33 -25 -54 -34 -20 -10 -37 -22 -37 -26 0 -5 -14 -14 -31 -22 -18 -7 -43 -23 -57 -36 -14 -13 -30 -23 -35 -23 -6 0 -17 -7 -26 -15 -21 -20 -112 -80 -133 -88 -10 -3 -18 -11 -18 -17 0 -5 -15 -17 -32 -25 -32 -15 -87 -51 -118 -77 -8 -7 -26 -20 -40 -28 -99 -59 -114 -75 -86 -96 9 -6 16 -15 16 -20 0 -5 16 -29 35 -53 19 -24 35 -47 35 -52 0 -4 6 -14 13 -21 11 -12 97 -135 122 -176 6 -10 28 -43 50 -76 22 -32 45 -66 50 -75 17 -26 81 -122 125 -185 22 -32 40 -62 40 -66 0 -4 7 -10 15 -14 19 -7 19 -34 2 -55 -17 -20 -38 -91 -31 -103 3 -4 22 -8 42 -8 82 0 134 -31 163 -98 8 -17 17 -32 21 -32 4 0 15 -14 24 -32 9 -18 23 -38 30 -46 43 -43 38 -91 -17 -165 -31 -41 -89 -77 -123 -77 -8 0 -18 -4 -21 -10 -4 -6 -74 -10 -178 -10 -164 0 -356 -19 -381 -38 -6 -5 -41 -17 -78 -26 -38 -10 -68 -22 -68 -26 0 -4 -21 -13 -46 -20 -25 -7 -51 -18 -57 -24 -7 -6 -30 -20 -52 -31 -22 -11 -42 -23 -45 -26 -3 -3 -20 -14 -37 -23 -18 -9 -33 -21 -33 -26 0 -5 -8 -11 -18 -14 -9 -3 -33 -20 -52 -37 -19 -17 -51 -45 -70 -62 -84 -75 -117 -146 -67 -148 12 0 0 -7 -28 -16 -27 -8 -52 -18 -55 -22 -3 -4 -35 -15 -73 -25 -37 -10 -67 -21 -67 -25 0 -4 -17 -15 -38 -24 -36 -16 -154 -125 -174 -161 -5 -9 -8 -33 -6 -54 3 -34 6 -37 38 -40 52 -6 320 19 320 29 0 5 13 9 30 9 42 0 234 31 240 39 3 4 55 15 115 25 61 10 112 21 115 25 3 5 50 16 105 26 55 10 102 21 105 24 3 4 32 13 65 20 33 8 67 15 75 18 20 5 -31 -23 -135 -75 -46 -23 -89 -42 -94 -42 -5 0 -16 -6 -23 -14 -8 -7 -41 -21 -73 -31 -33 -9 -64 -20 -70 -25 -5 -4 -57 -16 -115 -25 -58 -9 -114 -21 -125 -25 -11 -5 -51 -14 -90 -20 -38 -7 -83 -18 -100 -25 -16 -7 -48 -19 -70 -26 -92 -28 -125 -82 -58 -95 48 -9 369 4 391 15 9 5 76 17 147 26 72 9 132 21 133 26 2 5 15 9 29 9 31 0 166 32 173 40 3 4 38 15 78 25 39 9 72 21 72 26 0 5 7 9 15 9 19 0 109 30 115 39 3 4 25 13 49 21 24 8 49 19 55 25 15 15 76 39 82 32 3 -3 -2 -19 -10 -36 -9 -16 -16 -35 -16 -42 0 -10 -14 -39 -67 -141 -8 -16 -19 -28 -24 -28 -5 0 -9 -5 -9 -11 0 -6 -21 -40 -47 -76 -96 -131 -115 -169 -111 -221 3 -36 4 -37 44 -36 37 0 47 7 136 97 53 53 99 97 103 97 4 0 25 18 46 40 22 22 42 40 47 40 11 0 105 100 127 135 11 17 22 32 26 35 3 3 14 26 24 53 10 26 21 47 25 47 4 0 13 28 19 63 7 34 17 73 22 86 6 13 17 60 25 105 17 89 54 209 83 271 11 22 24 52 30 68 14 35 26 34 41 -3 7 -16 16 -30 21 -30 5 0 17 -16 26 -35 9 -19 20 -35 25 -35 4 0 16 -18 25 -40 10 -22 21 -40 25 -40 4 0 15 -15 24 -32 9 -18 23 -37 30 -41 8 -4 14 -12 14 -18 0 -11 62 -106 85 -130 8 -9 15 -19 15 -23 0 -8 69 -109 80 -116 4 -3 15 -20 24 -37 9 -18 20 -33 24 -33 4 0 15 -18 25 -40 9 -22 21 -40 26 -40 5 0 14 -14 21 -30 7 -17 18 -34 24 -38 7 -4 20 -24 30 -44 9 -21 20 -38 25 -38 4 0 15 -16 24 -35 9 -19 20 -35 24 -35 5 0 14 -15 22 -32 7 -18 19 -37 25 -43 6 -5 30 -39 53 -75 23 -36 49 -72 58 -81 8 -9 15 -19 15 -23 0 -9 65 -106 85 -127 8 -9 15 -19 15 -23 0 -9 65 -106 85 -127 8 -9 15 -20 15 -25 0 -5 13 -25 30 -44 16 -19 29 -40 30 -47 0 -7 6 -16 14 -20 7 -4 21 -23 30 -40 9 -18 21 -33 26 -33 6 0 10 -7 10 -15 0 -19 34 -20 52 -1 8 7 28 21 46 30 18 9 32 20 32 24 0 4 18 16 40 26 22 11 40 22 40 26 0 3 16 14 35 23 19 9 35 21 35 26 0 5 8 11 18 15 24 8 56 29 65 44 4 6 14 12 21 12 7 0 21 8 32 18 10 10 35 27 54 38 19 10 40 25 46 33 15 20 39 9 41 -20 3 -35 27 -142 34 -154 4 -5 15 -55 24 -110 10 -55 22 -103 27 -106 5 -3 10 -27 11 -53 1 -25 5 -46 8 -46 4 0 10 -25 14 -55 3 -30 11 -55 17 -55 5 0 7 -7 4 -16 -4 -9 -2 -22 3 -28 4 -6 14 -42 21 -81 7 -38 16 -72 20 -75 3 -3 15 -43 25 -90 9 -47 20 -87 24 -90 3 -3 14 -36 24 -75 10 -38 21 -72 26 -75 4 -3 11 -18 15 -35 8 -32 47 -123 71 -165 8 -14 24 -43 36 -65 12 -22 25 -42 28 -45 4 -3 15 -18 24 -33 53 -82 245 -269 317 -307 14 -7 30 -19 35 -25 6 -7 26 -18 45 -26 19 -7 40 -18 46 -24 6 -6 31 -17 55 -25 24 -8 46 -18 49 -22 3 -4 35 -15 70 -25 93 -26 387 -26 480 0 35 10 67 21 70 25 3 4 24 16 48 26 23 11 42 23 42 28 0 4 5 8 12 8 6 0 33 18 59 40 26 22 51 40 56 40 4 0 14 9 21 20 7 11 17 20 22 20 17 0 280 247 280 264 0 5 10 19 23 31 12 12 30 32 40 45 l19 22 24 -41 c14 -22 28 -63 31 -91 3 -27 12 -55 19 -61 21 -18 44 -3 44 29 0 41 -21 142 -30 142 -4 0 -15 20 -24 44 -16 42 -16 47 0 78 9 18 20 35 24 38 4 3 15 26 25 52 10 27 21 48 26 48 4 0 11 15 14 32 4 18 16 51 26 73 28 61 59 180 75 285 8 52 19 115 24 140 5 25 12 78 16 118 l6 72 259 0 259 0 0 -25 c0 -14 5 -25 10 -25 6 0 10 -9 10 -20 0 -28 21 -70 36 -70 7 0 17 -7 22 -16 13 -23 84 -36 135 -25 29 7 54 22 80 50 35 38 37 44 37 104 0 52 -4 69 -25 97 -14 19 -37 41 -50 48 -31 16 -31 21 0 76 14 25 25 50 25 55 0 8 -125 11 -400 11 l-399 0 -5 33 c-3 17 -7 62 -10 99 l-5 68 465 0 c457 0 466 0 471 20 3 11 9 20 13 20 4 0 15 21 25 48 10 26 21 49 25 52 14 10 51 101 45 110 -4 6 -206 10 -539 10 l-533 0 -16 88 c-10 48 -17 90 -17 95 0 4 276 7 613 7 l614 0 13 40 c7 22 17 40 21 40 4 0 15 23 25 50 10 28 21 50 25 50 7 0 29 55 29 71 0 5 -310 9 -689 9 l-690 0 -6 55 c-7 51 1 88 12 57 5 -13 54 -42 73 -42 6 0 10 25 10 60 l0 60 703 2 702 3 47 95 c26 52 51 100 56 106 5 6 13 20 16 32 l7 22 -770 0 -771 0 0 25 c0 20 5 25 25 25 14 0 25 4 25 8 0 5 43 16 95 26 52 10 95 21 95 25 0 3 36 15 80 25 44 11 80 22 80 26 0 3 20 11 45 18 33 9 185 12 540 12 521 0 524 0 475 43 -11 9 -29 17 -40 17 -11 0 -20 4 -20 9 0 5 -22 17 -50 27 -28 10 -50 21 -50 25 0 4 -22 15 -50 25 -27 10 -50 21 -50 25 0 4 -15 12 -34 19 -19 6 -44 20 -57 30 -12 11 -28 20 -36 20 -7 0 -13 5 -13 10 0 6 7 10 15 10 8 0 15 4 15 9 0 5 10 13 23 16 21 7 37 16 139 83 73 46 198 144 198 153 0 5 11 14 25 19 14 5 25 15 25 21 0 7 20 31 45 55 25 23 45 46 45 51 1 4 14 24 30 43 17 19 30 40 30 47 0 6 6 16 14 20 7 4 23 28 36 53 12 25 30 61 40 80 11 19 19 43 20 53 0 9 4 17 10 17 5 0 17 26 26 58 9 31 20 59 24 62 3 3 9 13 13 23 6 16 27 17 257 17 l250 0 0 265 c0 253 1 265 19 265 24 0 28 12 42 123 6 51 15 101 20 112 4 11 16 94 25 185 9 91 20 167 23 170 4 3 15 55 25 115 10 61 22 112 27 113 5 2 9 9 9 15 0 23 35 127 42 127 4 0 8 92 8 205 0 113 -4 205 -8 205 -4 0 -16 41 -26 90 -10 50 -22 90 -27 90 -4 0 -13 19 -20 43 -6 23 -19 51 -28 62 -9 11 -22 32 -29 47 -13 31 -37 63 -74 97 l-28 25 0 573 0 573 -2850 0 -2850 0 0 -139z m-1872 -4632 c-2 -7 -26 -19 -53 -27 -28 -9 -52 -19 -55 -22 -3 -3 -36 -15 -75 -25 -38 -10 -72 -21 -75 -25 -3 -3 -36 -15 -75 -25 -38 -10 -72 -22 -75 -26 -3 -4 -23 -10 -45 -13 -22 -3 -32 -3 -22 0 9 3 17 9 17 14 0 5 25 16 55 25 30 8 55 19 55 23 0 5 29 16 65 27 36 10 65 21 65 25 0 9 119 40 150 40 11 0 20 5 20 10 0 6 12 10 26 10 15 0 24 -5 22 -11z m-552 -194 c-33 -17 -46 -19 -46 -6 0 5 10 12 23 14 45 9 51 7 23 -8z m3496 -1099 c2 -73 7 -125 14 -131 7 -6 18 -120 28 -305 10 -162 21 -304 26 -315 5 -11 11 -63 13 -115 3 -52 3 -85 0 -72 -2 12 -8 22 -12 22 -5 0 -16 39 -26 87 -9 49 -20 93 -25 98 -4 6 -15 53 -25 105 -10 52 -21 97 -25 100 -4 3 -15 48 -25 100 -10 52 -21 100 -25 105 -4 6 -16 55 -25 110 -10 55 -21 102 -25 105 -3 3 -12 43 -20 89 l-13 84 34 28 c19 16 38 29 43 29 4 0 22 12 39 26 l31 26 8 -28 c4 -15 9 -82 10 -148z"/>
 <path d="M3613 7745 c-7 -8 -20 -33 -30 -57 -9 -24 -23 -49 -30 -56 -23 -24 -15 -52 17 -63 17 -6 30 -14 30 -18 0 -4 23 -15 50 -25 28 -10 50 -22 50 -27 0 -24 30 -5 45 29 9 20 23 50 32 66 8 15 17 45 20 66 l5 37 -61 23 c-34 12 -61 26 -61 31 0 14 -54 10 -67 -6z"/>
 <path d="M3255 7499 c-19 -17 -35 -37 -35 -45 0 -8 -4 -14 -9 -14 -5 0 -15 -16 -21 -35 -14 -42 -6 -53 60 -79 25 -10 48 -22 51 -28 3 -5 21 -10 39 -11 28 -2 33 2 48 38 8 22 19 42 23 45 7 5 39 78 39 90 0 11 -118 70 -140 70 -11 0 -35 -14 -55 -31z"/>
 <path d="M3712 7308 c-6 -7 -18 -33 -28 -58 -10 -25 -24 -51 -31 -58 -7 -7 -13 -24 -13 -37 0 -20 11 -29 53 -50 30 -14 59 -25 64 -25 6 0 16 -7 23 -15 21 -25 40 -17 57 23 8 20 19 39 23 42 4 3 15 27 25 54 18 48 18 49 -1 63 -24 18 -137 73 -151 73 -6 0 -15 -6 -21 -12z"/>
 <path d="M2968 7200 c-16 -16 -28 -32 -28 -37 0 -4 -11 -21 -25 -37 -31 -36 -32 -52 -3 -60 29 -7 31 -5 72 79 44 89 37 111 -16 55z"/>
 <path d="M3277 7073 c-6 -16 -15 -30 -18 -33 -4 -3 -15 -29 -25 -59 -20 -64 -15 -77 43 -100 22 -9 47 -21 54 -28 8 -6 25 -14 39 -18 23 -5 28 1 68 77 23 46 42 90 42 99 0 10 -16 21 -40 29 -22 7 -40 16 -40 20 0 8 -79 40 -98 40 -7 0 -18 -12 -25 -27z"/>
 <path d="M2920 6816 c0 -9 -4 -16 -9 -16 -4 0 -16 -21 -26 -47 -10 -27 -25 -54 -32 -61 -23 -23 -15 -52 17 -63 17 -6 30 -15 30 -20 0 -5 6 -9 13 -9 6 0 34 -11 60 -24 l49 -24 20 41 c11 23 28 58 38 77 34 64 26 84 -50 114 -25 10 -47 22 -50 26 -3 5 -18 12 -33 15 -21 6 -27 4 -27 -9z"/>
 <path d="M3364 6577 c-28 -29 -44 -61 -44 -86 0 -12 -4 -21 -9 -21 -11 0 -21 -38 -14 -56 3 -8 10 -14 17 -14 6 0 42 -16 80 -36 69 -35 96 -38 96 -10 0 8 6 21 13 28 7 7 21 33 31 58 10 25 22 48 27 51 20 12 -4 35 -69 65 -99 46 -104 47 -128 21z"/>
 <path d="M2614 6542 c-5 -4 -16 -34 -23 -67 -6 -33 -17 -70 -23 -82 -6 -12 -8 -29 -5 -37 9 -23 38 -20 44 4 3 11 9 20 13 20 4 0 15 21 25 48 10 26 21 49 25 52 4 3 10 15 14 26 5 16 2 23 -11 27 -10 2 -25 7 -33 11 -8 3 -20 2 -26 -2z"/>
 <path d="M2943 6360 c-3 -11 -9 -20 -14 -20 -5 0 -9 -11 -9 -25 0 -14 -4 -25 -9 -25 -7 0 -41 -80 -41 -96 0 -1 16 -8 35 -14 19 -6 35 -15 35 -19 0 -4 24 -16 54 -26 64 -22 76 -16 96 45 7 22 17 40 21 40 8 0 33 69 27 75 -12 12 -163 85 -175 85 -8 0 -17 -9 -20 -20z"/>
 <path d="M2552 6089 c-24 -50 -41 -97 -39 -103 5 -12 161 -96 178 -96 5 0 9 6 9 14 0 8 6 21 13 28 7 7 22 34 32 61 10 26 22 47 26 47 5 0 9 10 9 23 0 18 -16 29 -85 62 -47 22 -85 43 -85 48 0 24 -20 -5 -58 -84z"/>
 <path d="M144 3047 c-7 -20 14 -170 25 -177 5 -3 14 -25 21 -50 6 -25 17 -52 24 -60 6 -8 20 -30 30 -49 25 -44 38 -60 111 -135 59 -59 145 -126 164 -126 5 0 16 -6 23 -13 27 -28 192 -76 261 -77 37 0 38 1 35 32 l-3 32 -64 2 c-35 1 -66 6 -70 11 -3 5 -26 15 -51 22 -46 13 -113 49 -163 85 -27 20 -126 117 -157 154 -25 29 -76 124 -90 167 -7 22 -16 45 -21 50 -4 6 -12 40 -16 75 -7 57 -11 65 -31 68 -13 2 -24 -3 -28 -11z"/>
 <path d="M1240 1892 c0 -5 -25 -17 -55 -27 -30 -11 -55 -23 -55 -27 0 -4 -5 -8 -12 -8 -17 0 -88 -33 -88 -41 0 -4 -21 -12 -47 -19 -27 -6 -61 -22 -78 -35 l-30 -24 19 -48 c10 -26 19 -52 20 -58 1 -5 9 -21 18 -35 9 -14 19 -35 23 -47 3 -13 10 -23 15 -23 4 0 11 -12 15 -27 3 -16 20 -57 37 -92 30 -62 31 -63 64 -58 19 3 41 12 48 20 8 8 35 20 60 27 25 7 46 16 46 20 0 5 23 16 50 26 28 10 50 22 50 26 0 4 5 8 12 8 25 0 97 33 102 46 6 15 -24 104 -35 104 -4 0 -15 25 -24 55 -10 30 -21 55 -26 55 -4 0 -11 10 -15 23 -4 12 -20 50 -35 85 -16 34 -29 67 -29 72 0 6 -11 10 -25 10 -14 0 -25 -4 -25 -8z"/>
 <path d="M155 1707 c-97 -40 -95 -38 -95 -84 0 -24 4 -43 10 -43 5 0 15 -18 21 -40 8 -25 18 -40 28 -40 23 0 114 33 128 47 7 6 18 13 24 15 9 3 4 22 -14 60 -15 31 -27 60 -27 63 0 10 -27 35 -37 34 -4 0 -21 -6 -38 -12z"/>
 <path d="M1902 1508 c-7 -7 -12 -16 -12 -21 0 -11 -21 -35 -110 -127 -86 -90 -205 -179 -268 -201 -17 -6 -32 -15 -32 -19 0 -5 -15 -12 -32 -15 -18 -4 -51 -16 -73 -27 -22 -10 -87 -26 -145 -35 -58 -8 -114 -20 -126 -25 -27 -12 -132 -5 -254 17 -140 26 -155 25 -155 -5 0 -23 6 -26 77 -40 42 -9 80 -19 84 -23 11 -10 311 -9 332 2 9 5 61 17 115 27 53 9 97 20 97 24 0 3 25 14 55 24 30 9 55 20 55 25 0 4 23 15 50 25 28 10 50 21 50 25 0 5 18 16 39 26 22 10 42 24 45 31 3 8 11 14 18 14 8 0 25 12 40 28 14 15 42 40 62 56 20 16 36 34 36 39 0 5 12 21 28 36 66 67 93 115 77 140 -8 15 -38 14 -53 -1z"/>
 <path d="M7562 1413 c-38 -7 -20 -26 69 -70 46 -23 89 -46 94 -51 20 -16 75 -34 88 -29 18 7 67 100 67 127 0 19 -6 20 -134 20 -74 0 -140 2 -148 4 -7 2 -23 1 -36 -1z"/>
 <path d="M2540 1335 c-48 -26 -180 -85 -190 -85 -5 0 -10 -4 -10 -10 0 -5 -8 -10 -17 -10 -10 0 -31 -7 -48 -16 -16 -9 -42 -23 -57 -31 -16 -8 -28 -22 -28 -31 0 -23 23 -82 32 -82 4 0 8 -8 8 -17 1 -10 9 -34 20 -53 34 -63 50 -102 50 -120 0 -10 7 -20 15 -24 8 -3 15 -11 15 -19 0 -21 24 -66 38 -72 12 -5 173 61 182 75 3 5 29 16 58 25 28 10 52 20 52 24 0 4 23 15 50 25 32 12 50 24 50 35 0 21 -33 115 -42 119 -4 2 -14 25 -23 53 -9 27 -20 49 -24 49 -4 0 -15 25 -25 55 -9 30 -20 55 -25 55 -4 0 -13 16 -20 35 -13 38 -22 41 -61 20z"/>
 </g>
<g id="layer102" fill="#5a515c" stroke="none">
 <path d="M3920 7910 l0 -140 128 -1 c70 0 155 0 190 1 l62 1 -17 -38 c-10 -21 -23 -41 -30 -46 -6 -4 -17 -23 -23 -42 -6 -19 -17 -34 -23 -32 -6 1 -12 -2 -12 -8 -2 -21 -18 -60 -28 -66 -5 -4 -11 -18 -12 -31 -4 -32 -86 -178 -100 -178 -7 0 -18 -18 -25 -40 -7 -22 -16 -40 -20 -40 -4 0 -15 -18 -25 -40 -10 -22 -21 -40 -24 -40 -3 0 -14 -20 -24 -45 -11 -25 -22 -45 -26 -45 -4 0 -15 -22 -25 -50 -10 -27 -21 -50 -25 -50 -5 0 -16 -19 -27 -42 -10 -24 -23 -46 -27 -49 -5 -4 -11 -19 -12 -33 -3 -28 -68 -154 -88 -171 -14 -12 -37 -53 -98 -175 -24 -47 -46 -87 -50 -90 -3 -3 -12 -22 -20 -42 -7 -21 -17 -38 -22 -38 -4 0 -5 -4 -2 -10 3 -5 2 -10 -2 -10 -5 0 -17 -22 -27 -50 -10 -27 -21 -50 -26 -50 -4 0 -15 -26 -25 -57 -22 -70 -83 -193 -96 -193 -5 0 -9 -6 -9 -13 0 -7 -11 -29 -25 -49 -14 -20 -25 -42 -25 -49 0 -18 -50 -60 -62 -53 -7 4 -8 2 -4 -4 4 -7 2 -12 -4 -12 -6 0 -24 -21 -41 -47 -24 -40 -34 -47 -55 -45 -29 4 -84 -16 -84 -30 0 -5 -8 -12 -17 -15 -27 -10 -135 -83 -182 -123 -24 -20 -59 -40 -70 -40 -6 0 -23 -11 -38 -25 -47 -43 -57 -50 -96 -68 -20 -10 -37 -22 -37 -26 0 -5 -14 -14 -31 -22 -18 -7 -43 -23 -57 -36 -14 -13 -30 -23 -35 -23 -6 0 -17 -7 -26 -15 -21 -20 -112 -80 -133 -88 -10 -3 -18 -11 -18 -17 0 -5 -15 -17 -32 -25 -32 -15 -87 -51 -118 -77 -8 -7 -26 -20 -40 -28 -98 -58 -113 -75 -88 -95 7 -6 18 -18 23 -27 6 -9 51 -76 100 -148 50 -73 95 -139 100 -149 6 -9 28 -42 50 -75 22 -32 45 -66 50 -75 22 -34 86 -129 125 -183 22 -32 40 -62 40 -67 0 -5 7 -11 15 -15 19 -7 19 -34 2 -55 -17 -20 -38 -91 -31 -103 3 -4 22 -8 42 -8 82 0 134 -31 163 -98 8 -17 16 -32 20 -32 3 0 24 -29 48 -64 39 -59 42 -68 33 -99 -13 -45 -70 -121 -102 -135 -97 -41 -102 -42 -269 -42 -158 0 -350 -20 -375 -38 -6 -5 -41 -17 -78 -26 -38 -10 -68 -22 -68 -26 0 -4 -21 -13 -46 -20 -25 -7 -51 -18 -57 -24 -7 -6 -30 -20 -52 -31 -22 -11 -42 -23 -45 -26 -3 -3 -20 -14 -37 -23 -18 -9 -33 -21 -33 -26 0 -5 -8 -11 -18 -14 -9 -3 -33 -20 -52 -37 -19 -17 -51 -45 -70 -62 -84 -75 -117 -146 -67 -148 13 0 1 -7 -28 -17 -27 -9 -52 -19 -55 -22 -3 -3 -35 -14 -73 -24 -37 -10 -67 -21 -67 -25 0 -4 -17 -15 -38 -24 -36 -16 -154 -125 -174 -161 -5 -9 -8 -33 -6 -54 3 -34 6 -37 38 -40 52 -6 320 19 320 29 0 5 13 9 30 9 42 0 234 31 240 39 3 4 55 15 115 25 61 10 112 21 115 25 3 5 50 16 105 26 55 10 102 21 105 24 3 4 32 13 65 20 33 8 67 15 75 18 19 5 -40 -28 -100 -57 -24 -11 -51 -27 -60 -34 -8 -7 -34 -18 -57 -25 -24 -6 -43 -16 -43 -20 0 -5 -21 -14 -47 -21 -27 -6 -61 -18 -78 -25 -16 -8 -77 -23 -135 -34 -195 -37 -302 -60 -314 -69 -6 -5 -31 -14 -55 -21 -96 -27 -133 -84 -64 -97 52 -10 377 4 381 16 2 6 17 10 34 10 44 0 252 32 258 39 3 4 49 15 103 26 53 10 97 21 97 25 0 3 34 14 75 24 41 10 75 21 75 24 0 4 29 16 65 26 36 10 65 21 65 25 0 4 20 13 46 20 25 7 50 19 57 25 16 16 76 40 83 33 3 -3 -2 -19 -10 -36 -9 -16 -16 -35 -16 -42 0 -13 -79 -171 -89 -179 -14 -11 -81 -108 -81 -118 0 -5 -7 -12 -15 -15 -8 -4 -21 -21 -30 -39 -9 -18 -22 -44 -30 -58 -8 -14 -15 -42 -15 -62 0 -32 4 -39 24 -44 40 -10 59 2 164 104 126 122 182 172 190 172 11 0 106 101 127 135 11 17 22 32 25 35 4 3 14 25 24 50 10 25 21 47 26 50 4 3 15 37 24 75 9 39 25 111 36 160 27 120 69 253 92 290 10 17 18 37 18 46 0 9 8 27 18 39 l17 22 13 -36 c7 -20 18 -36 23 -36 5 0 17 -16 26 -35 9 -19 20 -35 25 -35 4 0 16 -18 25 -40 10 -22 21 -40 25 -40 4 0 15 -15 24 -32 9 -18 23 -37 30 -41 8 -4 14 -12 14 -18 0 -9 58 -100 82 -129 14 -16 22 -28 53 -80 11 -18 28 -41 37 -51 9 -10 24 -32 33 -48 8 -17 19 -31 23 -31 4 0 15 -18 25 -40 9 -22 21 -40 26 -40 5 0 14 -14 21 -30 7 -17 18 -34 24 -38 7 -4 20 -24 30 -44 9 -21 21 -38 25 -38 5 0 14 -14 21 -30 7 -17 18 -34 24 -38 6 -4 20 -23 30 -42 11 -19 22 -37 25 -40 4 -3 25 -34 48 -70 23 -36 49 -72 58 -81 8 -9 15 -19 15 -23 0 -9 65 -106 85 -127 8 -9 15 -19 15 -23 0 -7 61 -101 82 -125 26 -31 78 -111 78 -120 0 -6 6 -14 14 -18 7 -4 21 -23 30 -40 9 -18 21 -33 26 -33 6 0 10 -7 10 -15 0 -19 34 -20 52 -1 8 7 28 21 46 30 18 9 32 20 32 24 0 4 18 16 40 26 22 11 40 22 40 25 0 4 16 15 35 25 19 11 35 22 35 26 0 4 8 10 18 14 24 8 56 29 65 44 4 6 14 12 21 12 7 0 21 8 32 18 43 37 117 83 129 79 19 -8 12 81 -19 233 -112 549 -199 1158 -246 1715 -10 127 -19 239 -19 250 0 19 0 19 11 1 11 -20 12 -28 22 -201 8 -135 15 -185 26 -185 4 0 11 10 14 23 3 12 12 30 20 40 13 17 18 16 89 -18 84 -41 82 -33 33 -124 l-18 -34 -70 6 -70 6 5 -37 c2 -20 14 -125 26 -232 12 -107 24 -204 27 -215 3 -11 16 -96 29 -190 30 -209 66 -428 99 -600 14 -71 35 -186 48 -255 27 -141 35 -150 93 -106 18 14 37 26 42 26 4 0 27 18 51 39 l42 39 -6 59 c-3 32 -10 92 -15 133 -5 41 -16 138 -24 215 -17 156 -24 207 -60 480 -80 612 -96 699 -135 769 -29 51 -31 57 -12 47 11 -6 24 -16 28 -22 13 -22 215 -148 330 -206 238 -121 417 -194 716 -294 101 -34 187 -66 191 -73 5 -6 6 -93 3 -194 l-5 -183 53 -35 c37 -24 61 -34 79 -30 24 4 25 2 31 -47 14 -136 22 -474 12 -484 -3 -4 -6 -36 -6 -73 0 -61 -2 -67 -27 -82 -101 -60 -290 -264 -328 -354 -13 -32 -13 -79 0 -184 3 -19 5 -46 5 -59 0 -13 9 -60 19 -105 11 -44 22 -97 26 -116 14 -78 58 -218 121 -385 76 -201 132 -304 255 -465 90 -119 249 -261 249 -224 0 3 -33 56 -74 118 -111 168 -127 195 -168 276 -21 41 -42 82 -47 90 -5 8 -26 56 -46 105 -20 50 -40 99 -45 110 -46 100 -130 371 -166 530 -30 139 -55 277 -50 283 11 10 17 -5 30 -84 21 -121 56 -286 66 -303 4 -9 13 -43 20 -76 7 -33 17 -71 22 -85 6 -14 30 -81 54 -148 24 -68 47 -129 52 -135 5 -7 13 -23 17 -37 13 -44 165 -344 185 -365 11 -12 20 -25 20 -30 0 -11 105 -176 133 -209 24 -27 25 -28 55 -12 17 9 34 21 38 27 3 6 19 16 34 23 31 13 250 204 250 218 0 4 12 14 26 20 17 8 24 18 21 29 -3 11 9 34 29 58 19 21 34 44 34 49 0 15 -86 88 -139 118 -25 14 -77 32 -116 41 -98 22 -105 25 -70 33 17 3 35 3 40 -1 6 -3 28 -10 49 -13 54 -10 131 -52 198 -109 l57 -48 13 23 c8 13 19 32 26 43 7 11 22 40 33 65 12 25 30 61 39 80 47 97 119 419 106 481 -3 15 -1 31 4 34 6 3 10 57 10 120 0 63 -4 117 -10 120 -5 3 -7 18 -4 33 13 64 -67 305 -126 379 -14 18 -20 41 -20 77 0 28 -5 94 -10 146 -12 110 -22 550 -14 597 l6 32 54 -29 c29 -15 66 -42 81 -58 28 -30 63 -52 82 -52 7 0 11 24 11 60 l0 60 703 2 702 3 47 95 c26 52 51 100 56 106 5 6 13 20 16 32 l7 22 -770 0 -771 0 0 25 c0 20 5 25 25 25 14 0 25 4 25 8 0 4 43 16 95 27 52 10 95 21 95 25 0 4 36 15 80 25 44 10 80 21 80 25 0 3 20 11 45 18 33 9 185 12 540 12 521 0 524 0 475 43 -11 9 -29 17 -40 17 -11 0 -20 4 -20 9 0 5 -22 17 -50 27 -28 10 -50 21 -50 25 0 3 -21 14 -47 24 -27 10 -50 21 -53 24 -3 4 -35 22 -72 40 -66 33 -84 51 -53 51 8 0 15 4 15 9 0 5 10 13 22 17 35 11 154 87 248 158 64 49 230 210 230 224 1 4 14 23 30 42 17 19 30 40 30 47 0 6 6 16 13 20 16 9 47 69 47 90 0 7 4 13 9 13 5 0 17 21 27 48 10 26 24 52 30 59 7 7 17 35 24 63 7 27 16 50 21 50 5 0 9 9 9 20 0 19 7 20 255 20 l255 0 0 265 c0 253 1 265 19 265 24 0 28 12 42 123 6 51 15 101 20 112 4 11 16 97 25 190 10 94 20 172 24 175 3 3 15 53 25 113 10 59 21 107 25 107 4 0 13 27 20 61 7 33 19 67 27 74 10 10 13 59 13 214 0 111 -4 201 -8 201 -4 0 -16 41 -26 90 -10 50 -22 90 -27 90 -4 0 -13 19 -20 43 -6 23 -19 51 -28 62 -9 11 -22 32 -29 47 -13 31 -37 63 -74 97 l-28 25 0 573 0 573 -2850 0 -2850 0 0 -140z m-847 -2517 c-40 -88 -41 -89 -49 -80 -8 8 65 157 76 157 5 0 -7 -35 -27 -77z m-263 -178 c39 -19 70 -40 70 -45 0 -6 -13 -35 -29 -65 -16 -30 -31 -60 -33 -66 -5 -14 -97 20 -137 50 l-23 18 36 71 c20 40 39 72 41 72 3 0 37 -16 75 -35z m1273 -233 c37 -19 67 -38 67 -43 0 -5 -16 -41 -35 -79 l-35 -70 -73 36 c-39 20 -73 38 -75 39 -5 5 71 156 77 152 4 -1 36 -17 74 -35z m97 -447 l69 -35 -21 -47 c-17 -39 -35 -72 -54 -101 -1 -2 -36 13 -77 34 l-75 37 36 74 c20 40 40 73 44 73 5 0 40 -16 78 -35z m-423 -221 l72 -35 -36 -72 c-20 -40 -38 -74 -40 -76 -4 -5 -110 44 -136 63 -16 13 -15 18 19 85 20 39 39 71 42 71 4 0 39 -16 79 -36z m522 -260 c2 -1 -13 -37 -34 -78 l-37 -74 -41 19 c-23 11 -59 27 -79 35 l-37 17 40 78 39 79 73 -36 c39 -20 74 -38 76 -40z m-2231 -776 c-3 -7 -27 -19 -54 -27 -27 -9 -51 -18 -54 -21 -3 -4 -36 -15 -75 -25 -38 -10 -72 -21 -75 -25 -3 -3 -36 -15 -75 -25 -38 -10 -72 -21 -75 -25 -3 -4 -36 -15 -75 -25 -38 -10 -74 -22 -79 -27 -14 -11 -36 -10 -36 2 0 6 5 10 12 10 22 0 128 34 128 42 0 3 25 14 55 23 30 8 55 19 55 23 0 5 29 16 65 27 36 10 65 21 65 25 0 9 119 40 150 40 11 0 20 5 20 10 0 6 12 10 26 10 16 0 24 -5 22 -12z"/>
 <path d="M7196 2762 c-4 -7 20 -217 29 -239 3 -10 137 -13 623 -13 l619 0 13 40 c7 22 17 40 21 40 4 0 15 23 25 50 10 28 21 50 25 50 7 0 29 55 29 71 0 11 -1377 12 -1384 1z"/>
 <path d="M7263 2305 c-5 -15 1 -112 13 -202 l6 -43 475 0 c466 0 475 0 480 20 3 11 9 20 13 20 4 0 15 21 25 48 10 26 21 49 25 52 14 10 40 74 40 97 l0 23 -535 0 c-474 0 -536 -2 -542 -15z"/>
 <path d="M1240 1892 c0 -5 -25 -17 -55 -27 -30 -11 -55 -23 -55 -27 0 -4 -6 -8 -13 -8 -16 0 -80 -30 -87 -41 -3 -4 -25 -12 -49 -19 -50 -13 -101 -47 -101 -67 0 -16 80 -196 90 -203 4 -3 11 -16 15 -30 4 -14 21 -54 38 -89 29 -62 30 -63 63 -58 19 3 41 12 49 20 7 8 34 21 59 28 26 7 46 16 46 20 0 4 23 15 50 25 28 10 50 21 50 25 0 4 24 15 54 23 30 9 56 23 60 31 6 17 -21 93 -39 112 -7 6 -18 32 -25 57 -7 25 -16 46 -21 46 -4 0 -11 10 -15 23 -4 12 -20 50 -35 85 -16 34 -29 67 -29 72 0 6 -11 10 -25 10 -14 0 -25 -4 -25 -8z"/>
 <path d="M7302 1733 l3 -128 268 -3 267 -2 0 -25 c0 -14 5 -25 10 -25 6 0 10 -9 10 -20 0 -28 21 -70 36 -70 7 0 17 -7 22 -16 13 -23 84 -36 135 -25 29 7 54 22 80 50 35 38 37 44 37 104 0 52 -4 69 -25 97 -14 19 -37 41 -50 48 -31 16 -31 21 0 76 14 25 25 50 25 55 0 8 -129 11 -410 11 l-411 0 3 -127z"/>
 <path d="M5748 1682 c-62 -132 -61 -129 -49 -175 6 -23 15 -78 21 -122 6 -44 17 -102 25 -130 7 -27 19 -77 25 -110 16 -81 65 -240 96 -312 36 -81 170 -279 210 -310 19 -14 34 -31 34 -37 0 -23 174 -152 242 -181 63 -26 65 -17 7 42 -111 115 -192 222 -287 381 -18 29 -32 58 -32 64 0 5 -6 24 -14 41 -68 148 -163 453 -190 610 -8 48 -18 92 -21 97 -3 5 -8 37 -10 72 -7 85 -15 128 -23 128 -4 0 -19 -26 -34 -58z"/>
 <path d="M155 1706 c-101 -42 -95 -37 -95 -83 0 -24 4 -43 9 -43 5 0 15 -16 21 -36 7 -19 18 -38 26 -41 16 -6 113 26 131 44 7 6 18 13 25 15 10 4 10 9 2 19 -6 8 -19 36 -29 64 -19 50 -36 76 -52 74 -4 0 -21 -6 -38 -13z"/>
 <path d="M7562 1413 c-38 -7 -20 -26 69 -70 46 -23 89 -46 95 -51 21 -19 84 -36 93 -27 19 21 61 107 61 125 0 19 -7 20 -134 20 -74 0 -140 2 -148 4 -7 2 -23 1 -36 -1z"/>
 <path d="M2550 1335 c-7 -8 -20 -15 -30 -15 -10 0 -48 -16 -86 -35 -37 -19 -74 -35 -81 -35 -7 0 -13 -4 -13 -9 0 -5 -15 -13 -32 -16 -18 -4 -47 -18 -65 -31 -17 -13 -36 -24 -42 -24 -18 0 -12 -30 19 -97 17 -34 30 -70 30 -78 0 -7 6 -18 13 -22 7 -4 19 -28 27 -52 8 -24 20 -49 27 -57 7 -7 13 -19 13 -26 0 -22 24 -67 38 -73 7 -2 41 8 75 24 34 16 70 31 80 34 9 4 17 11 17 17 0 5 7 10 16 10 9 0 49 15 88 34 39 19 81 37 94 41 13 4 22 14 22 25 0 23 -28 99 -45 120 -6 8 -17 34 -24 58 -6 23 -15 42 -19 42 -4 0 -16 25 -27 55 -10 30 -21 55 -25 55 -3 0 -12 16 -19 35 -13 37 -31 44 -51 20z"/>
 </g>
<g id="layer103" fill="#505c97" stroke="none">
 <path d="M3920 7910 l0 -140 128 -1 c70 0 155 0 190 1 l62 1 -17 -38 c-10 -21 -23 -41 -30 -46 -6 -4 -17 -23 -23 -42 -6 -19 -17 -34 -23 -32 -6 1 -12 -2 -12 -8 -2 -21 -18 -60 -28 -66 -5 -4 -11 -18 -12 -31 -4 -32 -86 -178 -100 -178 -7 0 -18 -18 -25 -40 -7 -22 -16 -40 -20 -40 -4 0 -15 -18 -25 -40 -10 -22 -21 -40 -24 -40 -3 0 -14 -20 -24 -45 -11 -25 -22 -45 -26 -45 -4 0 -15 -22 -25 -50 -10 -27 -21 -50 -25 -50 -5 0 -16 -19 -27 -42 -10 -24 -23 -46 -27 -49 -5 -4 -11 -19 -12 -33 -3 -28 -68 -154 -88 -171 -14 -12 -37 -53 -98 -175 -24 -47 -46 -87 -49 -90 -4 -3 -15 -26 -25 -52 -10 -27 -21 -48 -24 -48 -4 0 -15 -22 -25 -50 -10 -27 -21 -50 -26 -50 -4 0 -15 -26 -25 -57 -19 -60 -80 -189 -93 -195 -4 -2 -21 -31 -39 -65 -28 -57 -75 -113 -93 -113 -4 0 -20 -25 -36 -55 -31 -59 -34 -61 -66 -44 -21 11 -78 -5 -78 -23 0 -5 -8 -12 -17 -15 -28 -10 -141 -88 -181 -123 -10 -9 -33 -24 -52 -33 -37 -19 -101 -63 -110 -76 -3 -4 -22 -15 -42 -24 -21 -10 -38 -22 -38 -26 0 -5 -14 -14 -31 -22 -18 -7 -43 -23 -57 -36 -14 -13 -30 -23 -35 -23 -6 0 -17 -7 -26 -15 -21 -20 -112 -80 -133 -88 -10 -3 -18 -11 -18 -17 0 -5 -15 -17 -32 -25 -32 -15 -87 -51 -118 -77 -8 -7 -26 -20 -40 -28 -98 -58 -113 -75 -88 -95 7 -6 18 -18 23 -27 6 -9 51 -76 100 -148 50 -73 95 -139 100 -149 9 -14 43 -64 105 -156 8 -12 28 -43 43 -69 16 -25 32 -46 37 -46 4 0 13 -13 20 -30 7 -16 16 -30 21 -30 4 0 16 -17 25 -37 10 -21 24 -42 31 -46 17 -10 17 -36 0 -56 -17 -20 -38 -91 -31 -103 3 -4 22 -8 42 -8 80 0 130 -29 162 -95 8 -16 23 -36 33 -43 9 -7 17 -17 17 -22 0 -5 14 -29 31 -53 27 -39 30 -48 21 -79 -20 -72 -108 -158 -162 -158 -6 0 -10 -4 -10 -9 0 -5 -80 -10 -184 -11 -173 -1 -373 -20 -385 -38 -3 -4 -37 -15 -76 -25 -38 -10 -72 -21 -75 -26 -3 -4 -29 -16 -57 -25 -29 -10 -53 -21 -53 -24 0 -4 -20 -16 -45 -27 -25 -11 -45 -22 -45 -25 0 -4 -16 -14 -35 -23 -19 -9 -35 -21 -35 -26 0 -5 -8 -12 -18 -15 -9 -3 -33 -20 -52 -37 -19 -17 -51 -45 -70 -62 -84 -75 -117 -146 -67 -148 13 0 1 -7 -28 -17 -27 -9 -52 -19 -55 -22 -3 -3 -35 -14 -73 -24 -37 -10 -67 -21 -67 -25 0 -4 -17 -15 -38 -24 -36 -16 -154 -125 -174 -161 -5 -9 -8 -33 -6 -54 3 -34 6 -37 38 -40 52 -6 320 19 320 29 0 5 13 9 30 9 42 0 234 31 240 39 3 4 55 15 115 25 61 10 112 21 115 25 3 5 50 16 105 26 55 10 102 21 105 24 3 4 32 13 65 20 33 8 67 15 75 18 18 5 -29 -22 -97 -56 -26 -13 -55 -29 -63 -36 -8 -6 -34 -17 -57 -24 -24 -6 -43 -16 -43 -20 0 -5 -21 -14 -47 -21 -27 -6 -61 -18 -78 -25 -16 -8 -77 -23 -135 -34 -195 -37 -302 -60 -314 -69 -6 -5 -31 -14 -55 -21 -84 -24 -131 -81 -78 -95 53 -14 401 0 391 15 -3 5 11 9 31 9 51 0 259 31 265 40 3 3 48 15 100 25 52 9 97 21 100 25 3 4 38 15 78 25 39 9 72 20 72 24 0 3 29 15 65 25 36 10 65 21 65 25 0 4 20 13 46 20 25 7 50 19 57 25 16 16 76 40 83 33 3 -3 -2 -19 -10 -36 -9 -16 -16 -35 -16 -42 0 -13 -79 -171 -89 -179 -14 -11 -81 -108 -81 -118 0 -5 -7 -12 -15 -15 -8 -4 -21 -21 -30 -39 -9 -18 -22 -44 -30 -58 -8 -14 -15 -41 -15 -61 0 -37 12 -49 49 -49 22 0 101 60 101 77 0 7 4 13 10 13 5 0 36 26 69 58 85 82 142 132 149 132 11 0 106 101 127 135 11 17 22 32 25 35 4 3 14 25 24 50 10 25 21 47 26 50 4 3 15 37 24 75 9 39 25 111 36 160 27 120 69 253 92 290 10 17 18 37 18 46 0 9 8 27 18 39 l17 22 13 -36 c7 -20 18 -36 23 -36 5 0 17 -16 26 -35 9 -19 20 -35 25 -35 4 0 16 -18 25 -40 10 -22 21 -40 25 -40 4 0 15 -15 24 -32 9 -18 23 -37 30 -41 8 -4 14 -12 14 -18 0 -11 62 -106 85 -130 8 -9 15 -20 15 -26 0 -5 9 -18 19 -27 11 -10 27 -33 36 -52 9 -19 20 -34 24 -34 5 0 14 -14 21 -30 7 -17 18 -34 24 -38 7 -4 20 -24 30 -45 9 -20 21 -37 25 -37 5 0 14 -14 21 -30 7 -17 18 -34 24 -38 7 -4 20 -24 30 -44 9 -21 20 -38 25 -38 4 0 15 -16 24 -35 9 -19 21 -35 26 -35 5 0 11 -8 15 -17 5 -18 26 -53 36 -63 3 -3 24 -34 47 -70 23 -36 49 -72 58 -81 8 -9 15 -19 15 -23 0 -9 65 -106 85 -127 8 -9 15 -19 15 -23 0 -11 86 -136 120 -174 9 -10 24 -34 33 -55 10 -20 21 -37 26 -37 4 0 15 -16 24 -35 9 -19 21 -35 27 -35 5 0 10 -7 10 -15 0 -19 34 -20 52 -1 8 7 28 21 46 30 18 9 32 20 32 24 0 4 18 16 40 26 22 11 40 23 40 27 0 4 16 16 35 25 19 9 35 20 35 24 0 4 8 10 18 14 24 8 56 29 65 44 4 6 14 12 21 12 7 0 21 8 32 18 32 27 114 82 124 82 14 0 12 44 -5 130 -83 412 -165 900 -200 1200 -8 69 -21 181 -30 250 -8 69 -17 166 -20 215 -3 50 -10 115 -15 145 -5 30 -12 109 -15 175 l-7 120 20 -30 c15 -24 21 -64 31 -185 14 -176 21 -199 45 -152 9 18 19 32 21 32 8 0 149 -70 157 -78 4 -4 -8 -34 -25 -67 -32 -59 -33 -60 -79 -63 -26 -2 -56 2 -68 8 -15 8 -20 8 -20 -2 0 -18 29 -274 35 -306 2 -15 13 -97 25 -182 65 -497 187 -1160 213 -1160 5 0 25 11 43 25 18 14 36 25 41 25 4 1 24 14 43 30 29 26 34 36 33 72 -1 49 -30 356 -38 406 -7 41 -11 69 -35 272 -11 91 -22 179 -25 195 -3 17 -14 98 -25 180 -63 481 -68 505 -135 620 l-29 50 54 -46 c206 -173 584 -357 1072 -520 101 -34 187 -66 191 -73 5 -6 6 -90 4 -186 l-5 -176 50 -42 c40 -34 57 -42 79 -38 30 4 33 -1 44 -84 10 -69 16 -466 8 -524 -8 -58 -9 -60 -73 -109 -93 -72 -191 -176 -255 -270 -58 -88 -60 -96 -39 -222 3 -16 6 -43 8 -60 2 -16 4 -34 6 -40 1 -5 2 -13 2 -16 -1 -4 8 -51 19 -105 16 -85 26 -119 57 -214 2 -8 6 -25 8 -37 1 -12 9 -37 18 -55 8 -18 40 -97 70 -175 75 -192 121 -275 225 -411 31 -41 61 -82 66 -91 16 -27 119 -131 130 -131 6 0 16 -9 23 -20 13 -21 42 -28 42 -10 0 6 -4 10 -10 10 -5 0 -10 6 -10 13 0 8 -9 22 -20 32 -11 10 -20 23 -20 28 0 5 -15 28 -33 51 -81 100 -267 460 -308 596 -12 41 -31 95 -41 120 -11 25 -21 57 -23 72 -2 15 -10 40 -18 55 -15 30 -31 83 -29 95 1 4 -7 35 -17 70 -11 35 -22 83 -26 108 -4 25 -12 50 -17 57 -5 7 -7 16 -4 22 3 5 -1 38 -9 73 -19 81 -19 108 0 108 15 0 19 -13 15 -62 -1 -14 4 -29 10 -33 5 -3 8 -10 5 -15 -3 -4 5 -48 16 -97 12 -48 22 -96 21 -105 0 -10 3 -20 8 -23 5 -3 12 -27 16 -53 4 -26 12 -58 19 -72 7 -14 10 -30 8 -36 -2 -6 6 -32 17 -58 11 -26 20 -55 20 -64 0 -9 12 -39 25 -67 14 -27 25 -56 25 -64 0 -15 33 -92 51 -121 5 -8 14 -26 19 -40 25 -62 133 -267 199 -374 39 -65 71 -121 71 -125 0 -5 11 -20 25 -35 14 -15 25 -31 25 -36 0 -24 25 -17 69 19 27 23 55 41 63 41 8 0 32 17 55 37 113 105 197 179 209 186 9 5 12 16 9 27 -4 14 6 33 37 66 l43 47 -50 43 c-27 24 -53 44 -58 44 -5 0 -21 9 -36 20 -36 25 -105 48 -160 52 -25 2 -46 8 -48 15 -4 12 57 24 72 13 6 -4 24 -10 40 -13 29 -5 120 -45 159 -70 11 -7 34 -27 52 -44 17 -18 34 -33 37 -33 9 0 77 125 110 203 97 231 137 566 102 850 -10 72 -65 222 -105 283 l-40 62 -9 188 c-12 268 -14 634 -3 634 21 0 109 -55 137 -85 30 -33 64 -55 84 -55 7 0 11 24 11 60 l0 60 703 2 702 3 47 95 c26 52 51 100 56 106 5 6 13 20 16 32 l7 22 -770 0 -771 0 0 25 c0 20 5 25 25 25 14 0 25 4 25 8 0 4 43 16 95 27 52 10 95 21 95 25 0 4 36 15 80 25 44 10 80 21 80 25 0 3 20 11 45 18 33 9 185 12 540 12 521 0 524 0 475 43 -11 9 -29 17 -40 17 -11 0 -20 4 -20 9 0 5 -22 17 -50 27 -28 10 -50 21 -50 25 0 3 -21 14 -47 24 -27 10 -50 21 -53 24 -3 4 -35 22 -72 40 -66 33 -84 51 -53 51 8 0 15 4 15 9 0 5 10 13 23 17 12 4 41 20 64 35 23 16 44 29 47 29 8 0 124 82 170 120 39 32 196 190 196 197 1 5 14 24 30 43 17 19 30 40 30 47 0 6 6 16 13 20 16 9 47 69 47 90 0 7 4 13 9 13 4 0 16 21 26 47 10 27 24 53 31 60 6 7 17 35 24 63 7 27 16 50 21 50 5 0 9 9 9 20 0 19 7 20 255 20 l255 0 0 265 c0 253 1 265 19 265 24 0 28 12 42 123 6 51 15 101 20 112 4 11 16 97 25 190 10 94 20 172 24 175 3 3 15 53 25 113 10 59 21 107 25 107 4 0 13 27 20 61 7 33 19 67 27 74 10 10 13 59 13 214 0 111 -4 201 -8 201 -4 0 -16 41 -26 90 -10 50 -22 90 -27 90 -4 0 -13 19 -19 43 -6 23 -17 47 -25 52 -7 6 -20 27 -28 47 -16 38 -33 60 -79 106 l-28 26 0 573 0 573 -2850 0 -2850 0 0 -140z m-824 -2469 c-8 -15 -26 -54 -41 -86 -19 -44 -28 -56 -37 -47 -8 8 -3 28 22 79 41 82 50 94 61 87 5 -3 2 -18 -5 -33z m-281 -218 c41 -21 75 -41 75 -45 0 -16 -74 -158 -82 -158 -8 0 -148 68 -157 76 -7 6 72 164 81 164 4 0 41 -17 83 -37z m1263 -230 c41 -21 76 -43 79 -49 3 -9 -58 -146 -72 -162 -3 -4 -145 66 -162 80 -9 7 -9 16 -1 34 6 13 15 24 20 24 4 0 8 7 8 15 0 19 38 95 47 95 3 0 40 -17 81 -37z m105 -449 c39 -20 74 -38 76 -40 5 -4 -70 -153 -80 -160 -4 -2 -44 14 -89 36 l-80 40 40 80 c22 44 45 80 50 80 6 0 43 -16 83 -36z m-438 -214 c39 -18 75 -37 81 -42 8 -6 0 -32 -28 -89 -45 -90 -39 -89 -138 -38 -91 47 -88 37 -40 127 24 45 46 80 49 78 3 -1 38 -17 76 -36z m475 -235 c39 -19 70 -39 70 -43 -1 -15 -76 -154 -83 -155 -18 0 -149 67 -154 78 -7 19 65 155 82 155 9 0 47 -16 85 -35z m-374 -211 c41 -20 74 -40 74 -45 0 -9 -16 -4 -102 35 -32 14 -58 30 -58 36 0 15 4 13 86 -26z m-1796 -604 c0 -13 -28 -27 -73 -35 -20 -4 -37 -10 -37 -14 0 -4 -34 -15 -75 -26 -41 -10 -75 -21 -75 -25 0 -3 -34 -14 -75 -25 -41 -10 -75 -21 -75 -25 0 -3 -33 -14 -72 -24 -40 -11 -77 -23 -82 -27 -13 -12 -36 -11 -36 1 0 6 5 10 12 10 22 0 128 34 128 42 0 3 25 14 55 23 30 8 55 19 55 23 0 5 29 16 65 27 36 10 65 21 65 25 0 9 119 40 150 40 11 0 20 5 20 10 0 6 11 10 25 10 14 0 25 -4 25 -10z"/>
 <path d="M7196 2762 c-2 -4 3 -62 12 -127 l17 -120 621 -3 621 -2 13 40 c7 22 17 40 21 40 4 0 15 23 25 50 10 28 21 50 25 50 7 0 29 55 29 71 0 11 -1377 12 -1384 1z"/>
 <path d="M7263 2305 c-5 -15 1 -112 13 -202 l6 -43 475 0 c466 0 475 0 480 20 3 11 9 20 13 20 4 0 15 21 25 48 10 26 21 49 25 52 14 10 40 74 40 97 l0 23 -535 0 c-474 0 -536 -2 -542 -15z"/>
 <path d="M1240 1892 c0 -5 -25 -17 -55 -27 -30 -11 -55 -23 -55 -27 0 -4 -5 -8 -12 -8 -17 0 -88 -33 -88 -41 0 -4 -21 -12 -47 -19 -27 -6 -61 -22 -77 -35 -29 -23 -29 -24 -16 -66 8 -23 20 -48 28 -56 8 -7 15 -19 16 -26 5 -29 28 -87 35 -87 4 0 13 -17 20 -37 8 -21 25 -62 38 -92 25 -51 27 -53 59 -48 19 3 41 12 49 20 7 8 34 21 59 28 26 7 46 16 46 20 0 4 23 15 50 25 28 10 50 21 50 25 0 4 24 15 54 23 30 9 56 22 59 29 6 16 -20 96 -37 113 -7 7 -19 33 -26 58 -7 25 -16 46 -20 46 -4 0 -15 21 -25 48 -10 26 -21 49 -25 52 -3 3 -12 24 -20 48 -10 33 -18 42 -37 42 -12 0 -23 -4 -23 -8z"/>
 <path d="M7302 1733 l3 -128 268 -3 267 -2 0 -25 c0 -14 5 -25 10 -25 6 0 10 -9 10 -20 0 -28 21 -70 36 -70 7 0 17 -7 22 -16 13 -23 84 -36 135 -25 29 7 54 22 80 50 35 38 37 44 37 104 0 52 -4 69 -25 97 -14 19 -37 41 -50 48 -31 16 -31 21 0 76 14 25 25 50 25 55 0 8 -129 11 -410 11 l-411 0 3 -127z"/>
 <path d="M155 1706 c-101 -42 -95 -37 -95 -83 0 -24 4 -43 9 -43 5 0 15 -16 21 -36 7 -19 18 -38 26 -41 16 -6 113 26 131 44 7 6 18 14 25 16 9 4 9 8 3 14 -5 4 -18 32 -29 62 -18 54 -37 82 -53 80 -4 0 -21 -6 -38 -13z"/>
 <path d="M5737 1643 l-37 -78 11 -95 c6 -52 15 -100 20 -106 5 -6 7 -19 3 -27 -3 -9 -2 -22 2 -29 5 -7 9 -17 9 -23 1 -5 5 -23 9 -40 4 -16 19 -75 32 -130 32 -131 71 -248 102 -310 21 -42 102 -167 163 -249 24 -34 125 -136 133 -136 4 0 15 -9 24 -19 20 -24 171 -105 179 -97 4 3 -23 35 -58 70 -154 155 -242 288 -327 496 -60 147 -119 321 -114 342 1 3 -7 32 -18 64 -11 31 -20 67 -20 80 0 13 -4 25 -10 29 -5 3 -7 12 -3 20 3 9 0 21 -6 29 -6 7 -8 16 -5 19 4 3 3 14 -1 24 -4 10 -9 27 -10 38 -3 18 -24 197 -25 203 0 1 -4 2 -8 2 -5 0 -25 -35 -45 -77z"/>
 <path d="M7562 1412 c-39 -6 -20 -25 69 -69 46 -23 89 -46 94 -50 17 -13 65 -33 81 -33 8 0 20 12 27 28 6 15 14 29 17 32 13 13 30 52 30 69 0 19 -9 20 -147 23 -82 2 -158 2 -171 0z"/>
 <path d="M2550 1335 c-7 -8 -20 -15 -30 -15 -10 0 -48 -16 -86 -35 -37 -19 -74 -35 -81 -35 -7 0 -13 -4 -13 -9 0 -4 -21 -16 -47 -26 -27 -10 -55 -24 -64 -31 -8 -8 -21 -14 -27 -14 -19 0 -14 -29 18 -97 17 -34 30 -70 30 -78 0 -7 6 -18 13 -22 7 -4 19 -28 27 -52 8 -24 19 -49 25 -55 6 -6 17 -30 24 -53 8 -23 20 -44 27 -47 15 -6 79 18 88 33 3 5 21 12 41 15 19 4 38 12 42 19 5 7 28 19 52 27 24 8 49 20 57 27 7 7 19 13 28 13 8 0 17 4 20 9 3 4 19 11 36 14 20 4 30 13 30 24 0 25 -32 113 -41 113 -4 0 -15 25 -24 55 -8 30 -19 55 -24 55 -4 0 -16 25 -26 55 -11 30 -22 55 -25 55 -3 0 -12 16 -19 35 -13 37 -31 44 -51 20z"/>
 </g>
<g id="layer104" fill="#e84b48" stroke="none">
 <path d="M3920 7910 l0 -140 128 -1 c70 0 155 0 190 1 l62 1 -17 -38 c-10 -21 -23 -42 -29 -48 -6 -5 -17 -25 -24 -42 -7 -18 -16 -30 -21 -27 -5 3 -9 2 -8 -3 3 -13 -33 -93 -42 -93 -5 0 -6 -6 -3 -14 7 -19 -75 -168 -96 -173 -10 -3 -23 -22 -30 -44 -7 -21 -17 -39 -21 -39 -4 0 -11 -13 -17 -28 -5 -16 -16 -35 -24 -43 -7 -8 -20 -30 -27 -49 -8 -19 -19 -39 -26 -45 -6 -5 -20 -31 -30 -57 -10 -27 -21 -48 -25 -48 -5 0 -16 -20 -27 -45 -10 -25 -21 -45 -25 -45 -5 0 -8 -12 -8 -26 0 -32 -78 -184 -95 -184 -6 0 -18 -18 -25 -40 -7 -22 -17 -40 -21 -40 -4 0 -27 -39 -50 -87 -24 -49 -46 -90 -49 -93 -4 -3 -15 -26 -25 -52 -10 -27 -21 -48 -24 -48 -4 0 -15 -22 -25 -50 -10 -27 -21 -50 -25 -50 -9 0 -31 -60 -31 -83 0 -26 -73 -167 -86 -167 -7 0 -15 -13 -19 -30 -4 -16 -10 -30 -15 -30 -4 0 -13 -15 -21 -32 -12 -31 -64 -88 -80 -88 -3 0 -19 -25 -35 -55 -31 -59 -34 -61 -66 -44 -21 11 -78 -5 -78 -23 0 -5 -8 -12 -17 -15 -28 -10 -141 -88 -181 -123 -10 -9 -34 -24 -55 -33 -20 -10 -37 -22 -37 -26 0 -5 -14 -14 -30 -21 -17 -7 -34 -18 -38 -24 -4 -7 -24 -20 -44 -30 -21 -9 -38 -21 -38 -25 0 -5 -14 -14 -31 -22 -18 -7 -43 -23 -57 -36 -14 -13 -30 -23 -35 -23 -6 0 -17 -7 -26 -15 -21 -20 -112 -80 -133 -88 -10 -3 -18 -11 -18 -17 0 -5 -15 -17 -32 -25 -32 -15 -87 -51 -118 -77 -8 -7 -26 -20 -40 -28 -98 -58 -113 -75 -88 -95 7 -6 18 -18 23 -27 6 -9 28 -42 50 -73 22 -31 45 -65 50 -74 6 -9 28 -43 50 -75 22 -32 45 -65 50 -75 9 -14 43 -64 105 -156 8 -12 28 -43 43 -69 16 -25 32 -46 37 -46 4 0 13 -13 20 -30 7 -16 16 -30 21 -30 4 0 16 -17 25 -37 10 -21 24 -42 31 -46 17 -10 17 -36 0 -56 -17 -20 -38 -91 -31 -103 3 -4 22 -8 42 -8 80 0 130 -29 162 -95 8 -16 23 -36 33 -43 9 -7 17 -19 17 -27 0 -8 6 -18 13 -22 6 -4 20 -23 30 -40 23 -41 13 -83 -34 -146 -30 -39 -89 -77 -119 -77 -6 0 -10 -4 -10 -9 0 -5 -80 -10 -184 -11 -173 -1 -373 -20 -385 -38 -3 -4 -37 -15 -76 -25 -38 -10 -72 -21 -75 -26 -3 -4 -29 -16 -57 -25 -29 -10 -53 -21 -53 -24 0 -4 -20 -16 -45 -27 -25 -11 -45 -22 -45 -25 0 -4 -16 -14 -35 -23 -19 -9 -35 -21 -35 -26 0 -5 -8 -12 -18 -15 -9 -3 -33 -20 -52 -37 -19 -17 -51 -45 -70 -62 -84 -75 -117 -146 -67 -148 13 0 1 -7 -28 -17 -27 -9 -52 -19 -55 -22 -3 -3 -35 -14 -73 -24 -37 -10 -67 -21 -67 -25 0 -4 -17 -15 -38 -24 -36 -16 -154 -125 -174 -161 -5 -9 -8 -33 -6 -54 3 -34 6 -37 38 -40 52 -6 320 19 320 29 0 5 13 9 30 9 42 0 234 31 240 39 3 4 55 15 115 25 61 10 112 21 115 25 3 5 50 16 105 26 55 10 102 21 105 24 3 4 32 13 65 20 33 8 67 15 75 18 18 5 -37 -26 -102 -59 -27 -12 -48 -26 -48 -30 0 -3 -25 -14 -55 -23 -30 -8 -55 -19 -55 -24 0 -5 -21 -14 -47 -21 -27 -6 -61 -18 -78 -25 -16 -8 -77 -23 -135 -34 -195 -37 -302 -60 -314 -69 -6 -5 -31 -14 -55 -21 -84 -24 -131 -81 -78 -95 53 -14 401 0 391 15 -3 5 11 9 31 9 52 0 259 31 265 40 3 4 48 15 100 25 52 10 97 21 100 25 3 4 38 15 78 25 39 9 72 20 72 24 0 3 29 15 65 25 36 10 65 21 65 25 0 4 20 13 46 20 25 7 50 19 57 25 16 16 76 40 83 33 3 -3 -2 -19 -10 -36 -9 -16 -16 -35 -16 -41 0 -14 -78 -172 -88 -180 -14 -10 -82 -108 -82 -118 0 -5 -7 -12 -15 -15 -8 -4 -21 -21 -30 -39 -9 -18 -22 -44 -30 -58 -8 -14 -15 -42 -15 -62 0 -32 3 -37 30 -43 16 -4 35 -3 42 1 35 21 78 60 78 72 0 6 4 12 10 12 5 0 36 26 69 58 85 82 142 132 149 132 11 0 106 101 127 135 11 17 22 32 25 35 4 3 14 25 24 50 10 25 21 47 26 50 4 3 15 37 24 75 69 304 94 395 125 445 11 19 21 42 21 51 0 9 8 27 18 39 l17 22 13 -36 c7 -20 18 -36 23 -36 5 0 17 -16 26 -35 9 -19 20 -35 25 -35 4 0 16 -18 25 -40 10 -22 21 -40 25 -40 4 0 15 -15 24 -32 9 -18 23 -37 30 -41 8 -4 14 -12 14 -18 0 -11 62 -106 85 -130 8 -9 15 -21 15 -27 0 -6 8 -17 18 -24 10 -7 26 -30 35 -50 10 -21 22 -38 26 -38 5 0 14 -14 21 -30 7 -17 18 -34 24 -38 7 -4 20 -24 30 -45 9 -20 21 -37 25 -37 5 0 14 -14 21 -30 7 -17 18 -34 24 -38 7 -4 20 -24 30 -44 9 -21 20 -38 25 -38 4 0 15 -16 24 -35 9 -19 21 -35 26 -35 5 0 11 -8 15 -17 8 -25 29 -57 44 -66 6 -4 12 -12 12 -18 0 -11 62 -106 85 -130 8 -9 15 -19 15 -23 0 -9 65 -106 85 -127 8 -9 15 -19 15 -23 0 -11 86 -136 120 -174 9 -10 24 -34 33 -55 10 -20 21 -37 26 -37 4 0 15 -16 24 -35 9 -19 21 -35 27 -35 5 0 10 -7 10 -15 0 -19 34 -20 52 -1 8 7 28 21 46 30 18 9 32 20 32 24 0 4 18 16 40 26 22 11 40 23 40 27 0 4 16 16 35 25 19 9 35 20 35 24 0 4 8 10 18 14 24 8 56 29 65 44 4 6 14 12 21 12 7 0 21 8 32 18 32 27 114 82 124 82 14 0 12 44 -5 130 -83 412 -165 900 -200 1200 -8 69 -21 181 -30 250 -8 69 -17 166 -20 215 -3 50 -10 115 -15 145 -11 67 -23 321 -13 300 3 -8 17 -32 30 -54 14 -21 20 -35 14 -32 -14 9 -14 -1 0 -161 13 -150 20 -170 43 -125 9 18 19 32 21 32 8 0 149 -70 157 -78 4 -4 -8 -34 -25 -67 -32 -59 -33 -60 -79 -63 -26 -2 -56 2 -68 8 -15 8 -20 8 -20 -2 0 -18 29 -274 35 -306 2 -15 13 -97 25 -182 65 -497 187 -1160 213 -1160 5 0 25 11 43 25 18 14 36 25 41 25 4 1 24 14 43 30 29 26 34 36 33 72 -1 49 -30 356 -38 406 -7 41 -11 69 -35 272 -11 91 -22 179 -25 195 -3 17 -14 98 -25 180 -64 487 -66 499 -140 630 l-34 60 40 -38 c67 -65 239 -176 397 -255 288 -146 449 -209 886 -348 12 -4 13 -37 9 -193 l-6 -188 32 -25 c42 -34 70 -48 100 -50 26 -2 30 -12 41 -88 10 -69 16 -466 8 -524 -8 -58 -9 -60 -73 -109 -94 -73 -192 -177 -254 -270 l-54 -82 8 -75 c5 -41 11 -88 14 -105 3 -16 13 -72 21 -124 9 -51 22 -114 29 -140 8 -25 29 -95 46 -156 18 -60 57 -172 86 -247 72 -183 115 -263 222 -408 58 -79 224 -250 241 -250 12 0 11 1 -97 165 -77 117 -234 424 -277 540 -28 76 -83 238 -109 323 -37 118 -96 403 -96 465 0 19 30 24 31 5 0 -7 2 -22 4 -33 3 -11 13 -69 24 -130 62 -335 196 -700 373 -1013 78 -138 187 -302 201 -302 5 0 29 16 53 35 23 19 49 35 56 35 8 0 32 17 55 37 113 105 197 179 209 186 9 5 12 16 9 26 -4 12 7 33 30 61 19 23 35 46 35 51 0 16 -114 100 -169 125 -48 22 -73 28 -146 38 -11 2 -22 11 -23 21 -3 15 2 16 40 12 104 -12 201 -55 277 -123 l50 -45 37 66 c104 188 153 365 175 633 22 269 -18 497 -111 638 l-40 61 -10 204 c-5 112 -10 297 -10 412 0 191 1 207 18 207 22 0 88 -45 134 -92 21 -21 42 -38 47 -38 5 0 16 -3 25 -6 14 -5 16 3 16 55 l0 61 703 2 702 3 47 95 c26 52 51 100 56 106 5 6 13 20 16 32 l7 22 -770 0 -771 0 0 25 c0 20 5 25 25 25 14 0 25 4 25 8 0 4 43 16 95 27 52 10 95 22 95 26 0 4 35 15 78 24 42 10 79 20 82 24 19 26 106 31 584 31 437 0 496 2 496 15 0 9 -17 23 -37 33 -21 9 -43 22 -49 27 -6 6 -30 17 -53 25 -22 7 -41 17 -41 21 0 4 -22 15 -50 25 -27 10 -50 21 -50 25 0 4 -22 15 -50 25 -27 10 -50 21 -50 25 0 4 -9 9 -20 12 -23 6 -27 27 -5 27 8 0 15 4 15 9 0 5 14 14 30 20 17 5 30 15 30 22 0 7 3 9 6 6 4 -4 19 2 33 12 14 10 34 21 44 24 9 4 17 11 17 17 0 5 6 10 13 10 11 0 74 43 131 90 33 27 196 192 196 199 1 3 14 22 30 41 17 19 30 40 30 47 0 6 6 16 13 20 16 9 47 69 47 90 0 7 4 13 9 13 4 0 16 21 26 47 10 27 24 53 31 60 6 7 17 35 24 63 7 27 16 50 21 50 5 0 9 9 9 20 0 19 7 20 255 20 l255 0 0 265 c0 253 1 265 19 265 24 0 28 12 42 123 6 51 14 101 19 112 5 11 17 97 26 190 10 94 20 172 24 175 3 3 15 53 25 113 10 59 21 107 25 107 4 0 13 27 20 61 7 33 19 67 27 74 10 10 13 59 13 214 0 111 -4 201 -8 201 -4 0 -16 41 -26 90 -10 50 -22 90 -27 90 -4 0 -13 19 -19 43 -6 23 -17 47 -25 52 -7 6 -20 27 -28 47 -16 38 -33 60 -79 106 l-28 26 0 573 0 573 -2850 0 -2850 0 0 -140z m-845 -2523 c-19 -41 -35 -81 -35 -88 0 -9 -5 -8 -17 3 -15 16 -14 22 17 85 42 84 51 96 62 85 5 -5 -7 -42 -27 -85z m-260 -164 c41 -21 75 -41 75 -45 0 -16 -74 -158 -82 -158 -8 0 -148 68 -157 76 -7 6 72 164 81 164 4 0 41 -17 83 -37z m1263 -230 c41 -21 76 -43 79 -49 3 -9 -58 -146 -72 -162 -3 -4 -145 66 -162 80 -9 7 -8 17 2 41 19 45 66 127 72 127 4 0 40 -17 81 -37z m105 -449 c39 -20 74 -38 76 -40 5 -4 -70 -153 -80 -160 -4 -2 -44 14 -89 36 l-80 40 40 80 c22 44 45 80 50 80 6 0 43 -16 83 -36z m-438 -214 c39 -18 75 -37 81 -42 8 -6 0 -32 -28 -89 -45 -90 -39 -89 -138 -38 -91 47 -88 37 -40 127 24 45 46 80 49 78 3 -1 38 -17 76 -36z m475 -235 c39 -19 70 -39 70 -43 -1 -15 -76 -154 -83 -155 -18 0 -149 67 -154 78 -7 19 65 155 82 155 9 0 47 -16 85 -35z m-374 -211 c41 -20 74 -40 74 -45 0 -9 -16 -4 -102 35 -32 14 -58 30 -58 36 0 15 4 13 86 -26z m-1796 -604 c0 -13 -28 -27 -73 -35 -20 -4 -37 -10 -37 -14 0 -4 -34 -15 -75 -26 -41 -10 -75 -21 -75 -25 0 -3 -34 -14 -75 -25 -41 -10 -75 -21 -75 -25 0 -4 -34 -15 -75 -25 -41 -11 -75 -23 -75 -27 0 -4 -9 -8 -20 -8 -11 0 -20 5 -20 10 0 6 5 10 12 10 22 0 128 34 128 42 0 3 25 14 55 23 30 8 55 19 55 23 0 5 29 16 65 27 36 10 65 21 65 25 0 9 119 40 150 40 11 0 20 5 20 10 0 6 11 10 25 10 14 0 25 -4 25 -10z"/>
 <path d="M7200 2743 c0 -39 27 -210 35 -223 4 -7 209 -10 619 -10 l613 0 13 40 c7 22 17 40 21 40 4 0 15 23 25 50 10 28 21 50 25 50 7 0 29 55 29 71 0 5 -310 9 -690 9 l-690 0 0 -27z"/>
 <path d="M7265 2310 c-4 -6 -4 -29 0 -50 4 -22 8 -50 10 -63 1 -12 6 -48 10 -79 l7 -58 470 0 c461 0 470 0 475 20 3 11 9 20 13 20 4 0 15 21 25 48 10 26 21 49 25 52 14 10 40 74 40 97 l0 23 -534 0 c-359 0 -537 -3 -541 -10z"/>
 <path d="M1240 1892 c0 -5 -25 -17 -55 -27 -30 -11 -55 -23 -55 -27 0 -4 -5 -8 -12 -8 -17 0 -88 -33 -88 -41 0 -4 -21 -12 -47 -19 -27 -6 -61 -22 -77 -35 -29 -23 -29 -24 -16 -66 8 -23 20 -48 28 -56 8 -7 15 -19 16 -26 5 -29 28 -87 35 -87 4 0 13 -17 20 -37 8 -21 25 -62 38 -92 25 -51 27 -53 59 -48 19 3 41 12 49 20 7 8 34 21 59 28 26 7 46 16 46 20 0 4 23 15 50 25 28 10 50 21 50 25 0 4 25 15 55 24 49 14 55 19 55 42 0 32 -21 93 -31 93 -5 0 -16 25 -25 55 -10 30 -21 55 -24 55 -4 0 -15 21 -25 48 -10 26 -21 49 -25 52 -3 3 -12 24 -20 48 -10 33 -18 42 -37 42 -12 0 -23 -4 -23 -8z"/>
 <path d="M7308 1853 c-2 -5 -2 -62 1 -128 l6 -120 263 -3 262 -2 0 -25 c0 -14 4 -25 8 -25 4 0 13 -20 20 -45 7 -27 18 -45 26 -45 8 0 19 -7 24 -16 13 -23 84 -36 135 -25 29 7 54 22 80 50 35 38 37 44 37 104 0 52 -4 69 -25 97 -14 19 -37 41 -50 48 -26 13 -33 36 -15 47 6 3 10 13 10 21 0 9 7 22 15 30 8 9 15 22 15 30 0 12 -61 14 -404 14 -223 0 -406 -3 -408 -7z"/>
 <path d="M155 1706 c-101 -42 -95 -37 -95 -83 0 -24 4 -43 9 -43 5 0 15 -16 21 -36 7 -19 18 -38 26 -41 16 -6 113 26 131 44 7 6 18 14 25 16 9 4 9 8 3 14 -5 4 -18 32 -29 62 -18 54 -37 82 -53 80 -4 0 -21 -6 -38 -13z"/>
 <path d="M5736 1641 l-37 -79 15 -93 c44 -277 115 -546 174 -664 70 -139 210 -314 322 -400 66 -50 170 -111 170 -98 0 5 -18 27 -41 48 -87 85 -190 224 -257 345 -80 146 -183 426 -227 615 -40 169 -43 186 -56 298 -6 59 -15 107 -19 107 -4 0 -23 -35 -44 -79z"/>
 <path d="M7562 1412 c-30 -4 -23 -23 14 -41 16 -8 36 -18 44 -23 8 -5 35 -18 60 -30 25 -11 47 -24 50 -27 8 -10 59 -31 76 -31 8 0 19 12 25 27 6 15 13 30 17 33 14 10 32 50 32 69 0 19 -9 20 -147 23 -82 2 -158 2 -171 0z"/>
 <path d="M2551 1336 c-7 -8 -27 -17 -47 -20 -21 -5 -32 -11 -28 -18 4 -7 3 -8 -5 -4 -6 4 -18 0 -27 -8 -8 -9 -24 -16 -35 -16 -11 0 -22 -6 -25 -14 -3 -8 -12 -12 -21 -9 -8 3 -18 2 -22 -4 -3 -5 -39 -25 -79 -44 -70 -33 -72 -35 -66 -63 3 -16 17 -49 30 -74 13 -25 24 -53 24 -63 0 -10 6 -22 13 -26 7 -4 19 -27 27 -50 7 -24 17 -43 21 -43 4 0 16 -25 25 -55 10 -30 23 -56 30 -59 15 -6 79 18 88 33 3 5 21 12 41 15 19 4 38 12 42 19 5 7 28 19 52 27 24 8 49 20 57 27 7 7 19 13 28 13 8 0 17 4 20 9 3 4 19 11 36 14 21 5 30 12 30 27 0 23 -30 102 -42 111 -4 3 -14 27 -22 54 -8 26 -19 51 -23 54 -12 9 -43 79 -43 96 0 8 -4 15 -8 15 -4 0 -14 16 -21 35 -13 37 -31 44 -50 21z"/>
 </g>
<g id="layer105" fill="#3080eb" stroke="none">
 <path d="M3920 7910 l0 -140 128 -1 c70 0 155 0 190 1 l62 1 -17 -38 c-10 -21 -23 -42 -29 -48 -6 -5 -17 -25 -24 -42 -7 -18 -16 -30 -21 -27 -5 3 -9 2 -8 -3 3 -13 -33 -93 -42 -93 -5 0 -6 -6 -3 -14 7 -19 -75 -168 -96 -173 -10 -3 -23 -22 -30 -44 -7 -21 -17 -39 -21 -39 -4 0 -11 -13 -17 -28 -5 -16 -16 -35 -24 -43 -7 -8 -20 -30 -27 -49 -8 -19 -19 -39 -26 -45 -6 -5 -20 -31 -30 -57 -10 -27 -21 -48 -25 -48 -5 0 -16 -20 -27 -45 -10 -25 -21 -45 -25 -45 -5 0 -8 -12 -8 -26 0 -32 -78 -184 -95 -184 -6 0 -18 -18 -25 -40 -7 -22 -17 -40 -21 -40 -4 0 -27 -39 -50 -87 -24 -49 -46 -90 -49 -93 -4 -3 -15 -26 -25 -52 -10 -27 -21 -48 -24 -48 -4 0 -15 -22 -25 -50 -10 -27 -21 -50 -25 -50 -9 0 -31 -60 -31 -83 0 -26 -73 -167 -86 -167 -7 0 -15 -13 -19 -30 -4 -16 -10 -30 -15 -30 -4 0 -13 -15 -21 -32 -12 -31 -64 -88 -80 -88 -3 0 -19 -25 -35 -55 -31 -59 -34 -61 -66 -44 -21 11 -78 -5 -78 -23 0 -5 -8 -12 -17 -15 -28 -10 -141 -88 -181 -123 -10 -9 -34 -24 -55 -33 -20 -10 -37 -22 -37 -26 0 -5 -14 -14 -30 -21 -17 -7 -34 -18 -38 -24 -4 -7 -24 -20 -44 -30 -21 -9 -38 -21 -38 -25 0 -5 -14 -14 -31 -22 -18 -7 -43 -23 -57 -36 -14 -13 -30 -23 -35 -23 -6 0 -17 -7 -26 -15 -21 -20 -112 -80 -133 -88 -10 -3 -18 -11 -18 -17 0 -5 -15 -17 -32 -25 -32 -15 -87 -51 -118 -77 -8 -7 -26 -20 -40 -28 -98 -58 -113 -75 -88 -95 7 -6 18 -18 23 -27 6 -9 28 -42 50 -73 22 -31 45 -65 50 -74 6 -9 28 -43 50 -75 22 -32 45 -65 50 -75 9 -14 43 -64 105 -156 8 -12 28 -43 43 -69 16 -25 32 -46 37 -46 4 0 13 -13 20 -30 7 -16 16 -30 21 -30 4 0 16 -17 25 -37 10 -21 24 -42 31 -46 17 -10 17 -36 0 -56 -17 -20 -38 -91 -31 -103 3 -4 22 -8 42 -8 20 0 52 -4 70 -9 34 -10 82 -48 82 -66 0 -6 13 -26 30 -45 16 -19 29 -40 30 -47 0 -7 6 -16 13 -20 6 -4 20 -23 30 -40 23 -41 13 -83 -34 -146 -30 -39 -89 -77 -119 -77 -6 0 -10 -4 -10 -9 0 -5 -80 -10 -184 -11 -174 -1 -373 -20 -385 -38 -3 -4 -37 -16 -76 -26 -38 -10 -72 -21 -75 -25 -3 -4 -27 -15 -55 -26 -27 -10 -52 -21 -55 -24 -3 -3 -23 -15 -45 -26 -22 -11 -42 -23 -45 -26 -3 -3 -16 -12 -30 -19 -14 -7 -32 -19 -40 -26 -8 -8 -51 -43 -94 -79 -93 -77 -136 -129 -136 -161 0 -18 6 -24 23 -25 13 0 1 -7 -28 -17 -27 -9 -52 -19 -55 -22 -3 -3 -35 -14 -73 -24 -37 -10 -67 -21 -67 -25 0 -4 -17 -15 -38 -24 -21 -9 -71 -50 -111 -92 -69 -71 -72 -76 -69 -117 3 -41 5 -43 38 -46 52 -6 320 19 320 29 0 5 13 9 30 9 42 0 234 31 240 39 3 4 55 15 115 25 61 10 112 21 115 25 3 5 50 16 105 26 55 10 102 21 105 24 3 4 32 13 65 20 33 8 67 15 75 18 18 5 -37 -26 -102 -59 -27 -12 -48 -26 -48 -30 0 -3 -25 -14 -55 -23 -30 -8 -55 -19 -55 -24 0 -5 -21 -14 -47 -21 -27 -7 -61 -19 -78 -26 -16 -7 -77 -22 -135 -33 -195 -37 -302 -60 -314 -69 -6 -5 -31 -14 -55 -21 -84 -24 -131 -81 -78 -95 53 -14 401 0 391 15 -3 5 11 9 31 9 52 0 259 31 265 40 3 4 48 15 100 25 52 10 97 21 100 25 3 4 38 15 78 25 39 9 72 20 72 24 0 3 29 15 65 25 36 10 65 21 65 25 0 4 20 13 46 20 25 7 50 19 57 25 16 16 76 40 83 33 3 -3 -2 -19 -10 -36 -9 -16 -16 -36 -16 -44 0 -16 -76 -168 -88 -177 -14 -10 -82 -108 -82 -118 0 -5 -7 -12 -15 -15 -8 -4 -21 -21 -30 -39 -9 -18 -22 -44 -30 -58 -8 -14 -15 -42 -15 -62 0 -32 3 -37 30 -43 16 -4 35 -3 42 1 35 21 78 60 78 72 0 6 4 12 10 12 5 0 36 26 69 58 85 82 142 132 149 132 11 0 106 101 127 135 11 17 22 32 26 35 3 3 14 26 24 53 10 26 21 47 25 47 4 0 13 28 20 63 6 34 18 82 25 107 8 25 19 72 25 105 16 86 47 182 75 238 14 26 25 53 25 61 0 8 8 24 18 36 l17 22 13 -36 c7 -20 18 -36 23 -36 5 0 17 -16 26 -35 9 -19 20 -35 25 -35 4 0 16 -18 25 -40 10 -22 21 -40 25 -40 4 0 15 -15 24 -32 9 -18 23 -37 30 -41 8 -4 14 -12 14 -18 0 -11 62 -106 85 -130 8 -9 15 -21 15 -27 0 -6 8 -17 18 -24 10 -7 26 -30 35 -50 10 -21 22 -38 26 -38 5 0 14 -14 21 -30 7 -17 18 -34 24 -38 7 -4 20 -24 30 -45 9 -20 21 -37 25 -37 5 0 14 -14 21 -30 7 -17 18 -34 24 -38 7 -4 20 -24 30 -44 9 -21 20 -38 25 -38 4 0 15 -16 24 -35 9 -19 21 -35 26 -35 5 0 11 -8 15 -17 8 -25 29 -57 44 -66 6 -4 12 -12 12 -18 0 -11 62 -106 85 -130 8 -9 15 -19 15 -23 0 -9 65 -106 85 -127 8 -9 15 -19 15 -23 0 -11 86 -136 120 -174 9 -10 24 -34 33 -55 10 -20 21 -37 26 -37 4 0 15 -16 24 -35 9 -19 21 -35 27 -35 5 0 10 -7 10 -15 0 -19 34 -20 52 -1 8 7 28 21 46 30 18 9 32 20 32 24 0 4 18 16 40 26 22 11 40 23 40 27 0 4 16 16 35 25 19 9 35 20 35 24 0 4 8 10 18 14 24 8 56 29 65 44 4 6 14 12 21 12 7 0 21 8 32 18 11 9 45 34 77 56 64 43 64 44 42 156 -83 412 -165 900 -200 1200 -8 69 -21 181 -30 250 -8 69 -17 166 -20 215 -3 50 -10 115 -15 145 -11 67 -23 321 -13 300 3 -8 17 -32 30 -54 14 -21 20 -35 14 -32 -14 9 -14 -1 0 -161 13 -150 20 -170 43 -125 9 18 19 32 21 32 8 0 149 -70 157 -78 4 -4 -8 -34 -25 -67 -32 -59 -33 -60 -79 -63 -26 -2 -56 2 -68 8 -15 8 -20 8 -20 -2 0 -18 29 -274 35 -306 2 -15 13 -97 25 -182 64 -483 187 -1160 211 -1160 5 0 43 23 83 51 76 52 88 70 80 124 -2 17 -10 102 -19 190 -8 88 -17 175 -20 193 -7 41 -11 69 -35 272 -11 91 -22 179 -25 195 -3 17 -14 98 -25 180 -64 487 -66 499 -140 630 l-34 60 40 -38 c67 -65 239 -176 397 -255 288 -146 449 -209 886 -348 12 -4 13 -37 9 -193 l-6 -188 32 -25 c42 -34 70 -48 100 -50 26 -2 30 -12 41 -88 10 -69 16 -466 8 -524 -8 -58 -9 -60 -73 -109 -94 -73 -192 -177 -254 -270 l-54 -82 8 -75 c5 -41 11 -88 14 -105 3 -16 13 -72 21 -124 9 -51 22 -114 29 -140 8 -25 29 -97 48 -160 l33 -114 70 -54 c38 -30 71 -50 73 -45 2 6 -4 27 -13 49 -16 36 -64 177 -99 291 -37 118 -96 403 -96 465 0 19 30 24 31 5 0 -7 2 -22 4 -33 3 -11 13 -69 24 -130 37 -202 101 -418 188 -630 32 -78 44 -88 203 -173 161 -84 388 -165 504 -178 l51 -5 38 47 c20 26 37 51 37 55 0 16 -114 100 -169 125 -48 22 -73 28 -146 38 -11 2 -22 11 -23 21 -3 15 2 16 40 12 104 -12 201 -55 277 -123 l50 -45 37 66 c104 188 153 365 175 633 22 269 -18 497 -111 638 l-40 61 -10 204 c-5 112 -10 297 -10 412 0 191 1 207 18 207 22 0 88 -45 134 -92 21 -21 42 -38 47 -38 5 0 16 -3 25 -6 14 -5 16 3 16 55 l0 61 703 2 702 3 47 95 c26 52 51 100 56 106 5 6 13 20 16 32 l7 22 -770 0 -771 0 0 25 c0 20 5 25 25 25 14 0 25 4 25 8 0 4 43 16 95 27 52 10 95 22 95 26 0 4 35 15 78 24 42 10 79 20 82 24 19 26 106 31 584 31 437 0 496 2 496 15 0 9 -17 23 -37 33 -21 9 -43 22 -49 27 -6 6 -30 17 -53 25 -22 7 -41 17 -41 21 0 4 -22 15 -50 25 -27 10 -50 21 -50 25 0 4 -22 15 -50 25 -27 10 -50 21 -50 25 0 4 -9 9 -20 12 -23 6 -27 27 -5 27 8 0 15 4 15 9 0 5 14 14 30 20 17 5 30 15 30 22 0 7 3 9 6 6 4 -4 19 2 33 12 14 10 34 21 44 24 9 4 17 11 17 17 0 5 6 10 13 10 11 0 74 43 131 90 33 27 196 192 196 199 1 3 14 22 30 41 17 19 30 40 30 47 0 6 6 16 13 20 16 9 47 69 47 90 0 7 4 13 9 13 4 0 16 21 26 47 10 27 24 53 31 60 6 7 17 35 24 63 7 27 16 50 21 50 5 0 9 9 9 20 0 19 7 20 255 20 l255 0 0 265 c0 253 1 265 19 265 24 0 28 12 42 123 6 51 14 101 19 112 5 11 17 97 26 190 10 94 20 172 24 175 3 3 15 53 25 113 10 59 21 107 25 107 4 0 13 27 20 61 7 33 19 67 27 74 10 10 13 59 13 214 0 111 -4 201 -8 201 -5 0 -14 30 -21 68 -7 37 -21 85 -31 107 -10 22 -24 55 -30 73 -7 17 -16 32 -20 32 -5 0 -14 15 -20 34 -11 34 -35 67 -85 116 l-25 26 0 572 0 572 -2850 0 -2850 0 0 -140z m-845 -2523 c-19 -41 -35 -81 -35 -88 0 -9 -5 -8 -17 3 -15 16 -14 22 17 85 42 84 51 96 62 85 5 -5 -7 -42 -27 -85z m-260 -164 c41 -21 75 -41 75 -45 0 -16 -74 -158 -82 -158 -8 0 -148 68 -157 76 -7 6 72 164 81 164 4 0 41 -17 83 -37z m1263 -230 c41 -21 76 -43 79 -49 3 -9 -58 -146 -72 -162 -3 -4 -145 66 -162 80 -9 7 -8 17 2 41 19 45 66 127 72 127 4 0 40 -17 81 -37z m105 -449 c39 -20 74 -38 76 -40 5 -4 -70 -153 -80 -160 -4 -2 -44 14 -89 36 l-80 40 40 80 c22 44 45 80 50 80 6 0 43 -16 83 -36z m-438 -214 c39 -18 75 -37 81 -42 8 -6 0 -32 -28 -89 -45 -90 -39 -89 -138 -38 -91 47 -88 37 -40 127 24 45 46 80 49 78 3 -1 38 -17 76 -36z m475 -235 c39 -19 70 -39 70 -43 -1 -15 -76 -154 -83 -155 -18 0 -149 67 -154 78 -7 19 65 155 82 155 9 0 47 -16 85 -35z m-374 -211 c41 -20 74 -40 74 -45 0 -9 -16 -4 -102 35 -32 14 -58 30 -58 36 0 15 4 13 86 -26z m-1792 -603 c7 -10 -30 -28 -78 -36 -20 -4 -36 -10 -36 -14 0 -4 -34 -16 -75 -26 -41 -11 -75 -22 -75 -25 0 -3 -34 -14 -75 -25 -41 -10 -75 -21 -75 -25 0 -4 -34 -15 -75 -25 -41 -11 -75 -23 -75 -27 0 -4 -9 -8 -20 -8 -11 0 -20 5 -20 10 0 6 5 10 12 10 22 0 128 34 128 42 0 3 25 14 55 23 30 8 55 19 55 23 0 5 29 16 65 27 36 10 65 21 65 25 0 9 119 40 150 40 11 0 20 5 20 10 0 12 47 13 54 1z"/>
 <path d="M7200 2743 c0 -39 27 -210 35 -223 4 -7 209 -10 619 -10 l613 0 13 40 c7 22 17 40 21 40 4 0 15 23 25 50 10 28 21 50 25 50 7 0 29 55 29 71 0 5 -310 9 -690 9 l-690 0 0 -27z"/>
 <path d="M7265 2310 c-4 -6 -4 -29 0 -50 4 -22 8 -50 10 -63 1 -12 6 -48 10 -79 l7 -58 470 0 c461 0 470 0 475 20 3 11 9 20 13 20 4 0 15 21 25 48 10 26 21 49 25 52 14 10 40 74 40 97 l0 23 -534 0 c-359 0 -537 -3 -541 -10z"/>
 <path d="M7308 1853 c-2 -5 -2 -62 1 -128 l6 -120 263 -3 262 -2 0 -25 c0 -14 4 -25 8 -25 4 0 13 -20 20 -45 7 -27 18 -45 26 -45 8 0 19 -7 24 -16 13 -23 84 -36 135 -25 30 7 52 21 80 52 34 39 37 46 37 103 0 51 -5 68 -25 96 -14 19 -37 41 -50 48 -26 13 -33 36 -15 47 6 3 10 13 10 21 0 9 7 22 15 30 8 9 15 22 15 30 0 12 -61 14 -404 14 -223 0 -406 -3 -408 -7z"/>
 <path d="M155 1706 c-101 -42 -95 -37 -95 -83 0 -24 4 -43 9 -43 5 0 15 -16 21 -36 7 -19 18 -38 26 -41 16 -6 113 26 131 44 7 6 18 14 25 16 9 4 9 8 3 14 -5 4 -18 32 -29 62 -18 54 -37 82 -53 80 -4 0 -21 -6 -38 -13z"/>
 <path d="M5736 1641 l-37 -79 16 -93 c38 -234 29 -213 113 -285 41 -36 76 -63 78 -61 3 3 -4 31 -15 63 -17 50 -29 96 -56 214 -18 81 -25 120 -36 213 -6 59 -15 107 -19 107 -4 0 -23 -35 -44 -79z"/>
 <path d="M7562 1412 c-30 -4 -23 -23 14 -41 16 -8 36 -18 44 -23 8 -5 35 -18 60 -30 25 -11 47 -24 50 -27 8 -10 59 -31 76 -31 8 0 19 12 25 27 6 15 13 30 17 33 14 10 32 50 32 69 0 19 -9 20 -147 23 -82 2 -158 2 -171 0z"/>
 <path d="M2551 1336 c-7 -8 -27 -17 -47 -20 -21 -5 -32 -11 -28 -18 4 -7 3 -8 -5 -4 -6 4 -18 0 -27 -8 -8 -9 -24 -16 -35 -16 -11 0 -22 -6 -25 -14 -3 -8 -12 -12 -21 -9 -8 3 -18 2 -22 -4 -3 -5 -39 -25 -79 -44 -70 -33 -72 -35 -66 -63 3 -16 17 -49 30 -74 13 -25 24 -53 24 -63 0 -10 6 -22 13 -26 7 -4 19 -27 27 -50 7 -24 17 -43 21 -43 4 0 16 -25 25 -55 10 -30 23 -56 30 -59 15 -6 79 18 88 33 3 5 21 12 41 15 19 4 38 12 42 19 5 7 28 19 52 27 24 8 49 20 57 27 7 7 19 13 28 13 8 0 17 4 20 9 3 4 19 11 36 14 21 5 30 12 30 27 0 23 -30 102 -42 111 -4 3 -14 27 -22 54 -8 26 -19 51 -23 54 -12 9 -43 79 -43 96 0 8 -4 15 -8 15 -4 0 -14 16 -21 35 -13 37 -31 44 -50 21z"/>
 <path d="M6050 563 c0 -11 124 -131 175 -170 49 -37 155 -97 155 -88 0 3 -37 47 -82 97 -70 76 -95 95 -158 125 -41 19 -78 37 -82 40 -5 2 -8 0 -8 -4z"/>
 <path d="M6310 440 c12 -23 159 -160 171 -160 10 0 -7 30 -62 105 -28 39 -45 53 -77 61 -38 10 -40 9 -32 -6z"/>
 <path d="M6456 398 c35 -55 68 -98 76 -98 17 0 90 62 81 70 -4 4 -35 12 -68 19 -33 7 -68 15 -79 18 -13 4 -16 2 -10 -9z"/>
 </g>
<g id="layer106" fill="#d9e021" stroke="none">
 <path d="M3920 7910 l0 -140 440 0 440 0 0 -1602 0 -1603 42 -2 c24 -2 1108 -4 2411 -5 l2367 -3 0 263 c0 250 1 262 19 262 24 0 28 12 42 123 6 51 14 101 19 112 5 11 17 97 26 190 10 94 20 172 24 175 3 3 15 53 25 113 10 59 21 107 25 107 4 0 13 27 20 61 7 33 19 67 27 74 10 10 13 59 13 214 0 111 -4 201 -8 201 -5 0 -14 30 -21 68 -7 37 -21 85 -31 107 -10 22 -24 55 -30 73 -7 17 -16 32 -20 32 -5 0 -14 15 -20 34 -11 34 -35 67 -85 116 l-25 26 0 572 0 572 -2850 0 -2850 0 0 -140z"/>
 <path d="M3244 5815 c-3 -8 -14 -17 -24 -20 -10 -3 -31 -30 -46 -60 -31 -59 -34 -61 -66 -44 -21 11 -78 -5 -78 -23 0 -5 -8 -12 -17 -15 -28 -10 -141 -88 -181 -123 -10 -9 -34 -24 -55 -33 -20 -10 -37 -22 -37 -26 0 -5 -14 -14 -30 -21 -17 -7 -34 -18 -38 -24 -4 -7 -24 -20 -44 -30 -21 -9 -38 -21 -38 -25 0 -5 -14 -14 -31 -22 -18 -7 -43 -23 -57 -36 -14 -13 -30 -23 -35 -23 -6 0 -17 -7 -26 -15 -24 -23 -119 -85 -130 -85 -6 0 -15 -9 -21 -20 -6 -11 -15 -20 -21 -20 -9 0 -99 -58 -129 -82 -8 -7 -26 -20 -40 -28 -98 -58 -113 -75 -88 -95 7 -6 18 -18 23 -27 6 -9 28 -42 50 -73 22 -31 45 -65 50 -74 6 -9 28 -43 50 -75 22 -32 45 -65 50 -75 9 -14 43 -64 105 -156 8 -12 28 -43 43 -69 16 -25 32 -46 37 -46 4 0 13 -13 20 -30 7 -16 16 -30 21 -30 4 0 16 -17 26 -37 24 -51 48 -74 62 -60 6 6 11 15 11 20 0 12 69 174 295 697 18 41 64 145 103 230 53 115 68 158 60 167 -8 10 -1 33 29 91 22 42 45 76 51 74 12 -2 172 319 172 345 0 18 -19 17 -26 -2z m-429 -592 c41 -21 75 -41 75 -45 0 -16 -74 -158 -82 -158 -8 0 -148 68 -157 76 -7 6 72 164 81 164 4 0 41 -17 83 -37z"/>
 <path d="M4082 5210 c-45 -87 -82 -164 -82 -169 0 -5 34 -27 76 -48 42 -21 78 -43 81 -49 3 -9 -58 -146 -72 -162 -2 -2 -41 16 -88 40 l-84 44 -123 -249 c-67 -137 -120 -249 -118 -251 1 -1 35 -17 73 -36 39 -18 75 -37 81 -42 8 -6 0 -32 -28 -89 -45 -91 -38 -90 -151 -31 -37 19 -69 33 -70 31 -2 -2 -28 -44 -57 -94 -64 -109 -211 -347 -220 -358 -4 -4 -42 15 -85 44 -135 89 -255 147 -417 199 -111 37 -158 46 -158 31 0 -6 9 -19 20 -28 11 -10 20 -22 20 -28 0 -6 13 -26 30 -45 16 -19 29 -40 30 -47 0 -7 6 -16 13 -20 6 -4 20 -23 30 -40 23 -41 13 -83 -34 -146 -30 -39 -89 -77 -119 -77 -6 0 -10 -4 -10 -10 0 -6 -68 -10 -182 -10 -174 0 -374 -20 -387 -38 -3 -4 -37 -16 -76 -26 -38 -10 -72 -21 -75 -25 -3 -4 -27 -15 -55 -26 -27 -10 -52 -21 -55 -24 -3 -3 -23 -15 -45 -26 -22 -11 -42 -23 -45 -26 -3 -3 -16 -12 -30 -19 -14 -7 -32 -19 -40 -26 -8 -8 -51 -43 -94 -79 -93 -77 -136 -129 -136 -161 0 -18 6 -24 23 -25 13 0 2 -7 -28 -17 -27 -9 -51 -20 -53 -24 -2 -4 -10 -8 -17 -8 -18 0 -119 -33 -125 -41 -3 -3 -21 -14 -41 -23 -20 -10 -69 -51 -109 -91 -68 -71 -71 -76 -68 -117 3 -41 5 -43 38 -46 52 -6 320 19 320 29 0 5 13 9 30 9 42 0 234 31 240 39 3 4 55 15 115 25 61 10 112 21 115 25 3 5 50 16 105 26 55 10 102 21 105 24 3 4 32 13 65 20 33 8 67 15 75 18 18 5 -37 -26 -102 -59 -27 -12 -48 -26 -48 -30 0 -3 -25 -14 -55 -23 -30 -8 -55 -19 -55 -24 0 -5 -21 -14 -47 -21 -27 -7 -61 -19 -78 -26 -16 -7 -77 -22 -135 -33 -195 -37 -302 -60 -314 -69 -6 -5 -31 -14 -55 -21 -96 -27 -133 -84 -64 -97 52 -10 367 4 371 16 2 6 19 10 39 10 50 0 257 31 263 40 3 4 48 15 100 25 52 10 97 21 100 25 3 4 38 15 78 25 39 9 72 20 72 24 0 3 29 15 65 25 36 10 65 21 65 25 0 4 20 13 46 20 25 7 50 19 57 25 16 16 76 40 83 33 3 -3 -2 -19 -10 -36 -9 -16 -16 -36 -16 -44 0 -16 -76 -168 -88 -177 -14 -10 -82 -108 -82 -118 0 -5 -6 -12 -13 -15 -21 -8 -77 -125 -77 -161 0 -30 4 -35 30 -41 16 -4 35 -3 42 1 35 21 78 60 78 72 0 6 4 12 10 12 5 0 36 26 69 58 85 82 142 132 149 132 11 0 106 101 127 135 11 17 22 32 26 35 3 3 14 26 24 53 10 26 21 47 25 47 4 0 13 28 20 63 6 34 18 82 25 107 8 25 19 72 25 105 16 86 47 182 75 238 14 26 25 53 25 61 0 8 8 24 18 36 l17 22 13 -36 c7 -20 18 -36 23 -36 5 0 17 -16 26 -35 9 -19 20 -35 25 -35 4 0 16 -18 25 -40 10 -22 21 -40 25 -40 4 0 15 -15 24 -32 9 -18 23 -37 30 -41 8 -4 14 -12 14 -18 0 -11 62 -106 85 -130 8 -9 15 -21 15 -27 0 -6 8 -17 18 -24 10 -7 26 -30 35 -50 10 -21 22 -38 26 -38 5 0 14 -14 21 -30 7 -17 18 -34 24 -38 7 -4 20 -24 30 -44 9 -21 21 -38 25 -38 5 0 14 -14 21 -30 7 -17 18 -34 24 -38 7 -4 20 -24 30 -44 9 -21 20 -38 25 -38 4 0 15 -16 24 -35 9 -19 21 -35 26 -35 5 0 11 -8 15 -17 8 -25 29 -57 44 -66 6 -4 12 -12 12 -18 0 -11 62 -106 85 -130 8 -9 15 -19 15 -23 0 -9 65 -106 85 -127 8 -9 15 -19 15 -23 0 -11 86 -136 120 -174 9 -10 24 -34 33 -55 10 -20 21 -37 26 -37 4 0 15 -16 24 -35 9 -19 21 -35 27 -35 5 0 10 -7 10 -15 0 -19 34 -20 52 -1 8 7 28 21 46 30 18 9 32 20 32 24 0 4 18 16 40 26 22 11 40 23 40 27 0 4 16 16 35 25 19 9 35 19 35 23 0 3 17 15 38 26 20 11 41 25 45 32 4 7 14 13 21 13 7 0 21 8 32 17 11 10 45 35 77 57 64 43 64 44 42 156 -83 412 -165 900 -200 1200 -8 69 -21 181 -30 250 -8 69 -17 166 -20 215 -3 50 -10 115 -15 145 -5 30 -12 111 -16 180 -6 120 -8 129 -51 225 -75 166 -127 327 -172 525 -25 108 -71 406 -71 457 0 18 -3 33 -8 33 -4 0 -44 -72 -90 -160z m101 -666 c39 -20 74 -38 76 -40 5 -4 -70 -153 -80 -160 -4 -2 -44 14 -89 36 l-80 40 40 80 c22 44 45 80 50 80 6 0 43 -16 83 -36z m37 -449 c39 -19 70 -39 70 -43 -1 -15 -76 -154 -83 -155 -18 0 -149 67 -154 78 -7 19 65 155 82 155 9 0 47 -16 85 -35z m-374 -211 c41 -20 74 -40 74 -45 0 -9 -16 -4 -102 35 -32 14 -58 30 -58 36 0 15 4 13 86 -26z m-1792 -603 c7 -10 -30 -28 -78 -36 -20 -4 -36 -10 -36 -14 0 -4 -34 -16 -75 -26 -41 -11 -75 -22 -75 -25 0 -3 -34 -14 -75 -25 -41 -10 -75 -21 -75 -25 0 -4 -34 -15 -75 -25 -41 -11 -75 -23 -75 -27 0 -4 -9 -8 -20 -8 -11 0 -20 5 -20 10 0 6 5 10 12 10 22 0 128 34 128 42 0 3 25 14 55 23 30 8 55 19 55 23 0 5 29 16 65 27 36 10 65 21 65 25 0 9 119 40 150 40 11 0 20 5 20 10 0 12 47 13 54 1z"/>
 <path d="M4510 4151 c0 -55 23 -278 30 -290 6 -11 12 -7 24 17 9 18 19 32 21 32 8 0 149 -70 157 -78 4 -4 -8 -34 -25 -67 -32 -59 -33 -60 -79 -63 -26 -2 -56 2 -68 8 -15 8 -20 8 -20 -2 0 -18 29 -274 35 -306 2 -15 13 -97 25 -182 64 -483 187 -1160 211 -1160 5 0 43 23 83 51 76 52 88 70 80 124 -2 17 -10 102 -19 190 -8 88 -17 175 -20 193 -7 41 -11 69 -35 272 -11 91 -22 179 -25 195 -3 17 -14 98 -25 180 -44 338 -70 497 -88 532 -36 76 -77 139 -118 186 -24 26 -63 79 -88 117 -26 39 -49 70 -51 70 -3 0 -5 -9 -5 -19z"/>
 <path d="M6745 4122 c-6 -4 -51 -54 -100 -112 -49 -58 -112 -130 -140 -161 -27 -30 -81 -91 -120 -134 -38 -43 -135 -150 -215 -238 l-145 -159 -7 -192 -6 -191 26 -23 c38 -32 77 -52 106 -54 26 -2 31 -12 41 -88 10 -69 16 -466 8 -524 -8 -58 -9 -60 -73 -109 -94 -73 -192 -177 -254 -270 l-54 -82 8 -75 c5 -41 11 -88 14 -105 3 -16 13 -72 21 -124 9 -51 22 -114 29 -140 8 -25 29 -97 48 -160 l33 -114 70 -54 c38 -30 71 -50 73 -45 2 6 -4 27 -13 49 -16 36 -64 177 -99 291 -37 118 -96 403 -96 465 0 19 30 24 31 5 0 -7 2 -22 4 -33 3 -11 13 -69 24 -130 37 -202 101 -418 188 -630 32 -78 44 -88 203 -173 161 -84 388 -165 504 -178 l51 -5 38 47 c20 26 37 51 37 55 0 16 -114 100 -169 125 -48 22 -73 28 -146 38 -11 2 -22 11 -23 21 -3 15 2 16 40 12 104 -12 201 -55 277 -123 l50 -45 37 66 c104 188 153 365 175 633 22 269 -18 497 -111 638 l-40 61 -10 204 c-5 112 -10 297 -10 412 0 191 1 207 18 207 22 0 88 -45 134 -92 21 -21 42 -38 47 -38 5 0 16 -3 25 -6 14 -5 16 3 16 55 l0 61 703 2 702 3 62 120 c33 66 62 123 62 128 1 4 -345 7 -769 7 -766 0 -770 0 -770 20 0 19 -120 226 -161 279 -11 13 -19 27 -19 32 0 8 -325 557 -339 571 -3 4 -11 4 -16 0z"/>
 <path d="M8230 3624 c-97 -51 -240 -115 -377 -169 -40 -15 -73 -32 -73 -37 0 -4 221 -8 490 -8 431 0 490 2 490 15 0 9 -17 23 -37 33 -21 9 -43 22 -49 27 -6 6 -30 17 -53 25 -22 7 -41 17 -41 21 0 4 -22 15 -50 25 -27 10 -50 21 -50 25 0 3 -21 14 -47 24 -27 10 -50 21 -53 24 -8 10 -60 31 -73 30 -7 -1 -41 -17 -77 -35z"/>
 <path d="M7200 2743 c0 -39 27 -210 35 -223 4 -7 209 -10 619 -10 l613 0 13 40 c7 22 17 40 21 40 4 0 15 23 25 50 10 28 21 50 25 50 7 0 29 55 29 71 0 5 -310 9 -690 9 l-690 0 0 -27z"/>
 <path d="M7265 2310 c-4 -6 -4 -29 0 -50 4 -22 8 -50 10 -63 1 -12 6 -48 10 -79 l7 -58 470 0 c461 0 470 0 475 20 3 11 9 20 13 20 4 0 15 21 25 48 10 26 21 49 25 52 14 10 40 74 40 97 l0 23 -534 0 c-359 0 -537 -3 -541 -10z"/>
 <path d="M7308 1853 c-2 -5 -2 -62 1 -128 l6 -120 263 -3 262 -2 0 -25 c0 -14 4 -25 9 -25 5 0 11 -14 15 -32 8 -41 60 -89 108 -100 62 -14 117 5 161 53 34 39 37 46 37 103 0 51 -5 68 -25 96 -14 19 -37 41 -50 48 -14 7 -25 17 -25 22 0 17 20 62 35 76 8 9 15 22 15 30 0 12 -61 14 -404 14 -223 0 -406 -3 -408 -7z"/>
 <path d="M155 1706 c-96 -40 -95 -39 -95 -70 0 -38 47 -136 65 -136 18 0 98 31 105 40 3 4 15 10 28 14 22 7 31 26 12 26 -5 0 -10 8 -10 18 0 27 -50 122 -63 121 -7 0 -25 -6 -42 -13z"/>
 <path d="M5736 1641 l-37 -79 16 -93 c38 -234 29 -213 113 -285 41 -36 76 -63 78 -61 3 3 -4 31 -15 63 -17 50 -29 96 -56 214 -18 81 -25 120 -36 213 -6 59 -15 107 -19 107 -4 0 -23 -35 -44 -79z"/>
 <path d="M7552 1401 c-16 -10 0 -25 38 -36 14 -4 32 -13 40 -20 24 -19 160 -85 176 -85 8 0 19 12 25 27 6 15 13 30 17 33 14 10 32 50 32 70 0 19 -6 20 -157 20 -87 0 -164 -4 -171 -9z"/>
 <path d="M6050 563 c0 -11 124 -131 175 -170 49 -37 155 -97 155 -88 0 3 -37 47 -82 97 -70 76 -95 95 -158 125 -41 19 -78 37 -82 40 -5 2 -8 0 -8 -4z"/>
 <path d="M6310 440 c12 -23 159 -160 171 -160 10 0 -7 30 -62 105 -28 39 -45 53 -77 61 -38 10 -40 9 -32 -6z"/>
 <path d="M6456 398 c35 -55 68 -98 76 -98 17 0 90 62 81 70 -4 4 -35 12 -68 19 -33 7 -68 15 -79 18 -13 4 -16 2 -10 -9z"/>
 </g>
<g id="layer107" fill="#fab3ac" stroke="none">
 <path d="M3920 7910 l0 -140 440 0 440 0 0 -1602 0 -1603 42 -2 c24 -2 1108 -4 2411 -5 l2367 -3 0 263 c0 250 1 262 19 262 24 0 28 12 42 123 6 51 14 101 19 112 5 11 17 97 26 190 10 94 20 172 24 175 3 3 15 53 25 113 10 59 21 107 25 107 4 0 13 27 20 61 7 33 19 67 27 74 10 10 13 59 13 214 0 111 -4 201 -8 201 -5 0 -14 30 -21 68 -7 37 -21 85 -31 107 -10 22 -24 55 -30 73 -7 17 -16 32 -19 32 -4 0 -15 19 -25 41 -20 44 -34 63 -78 107 l-28 26 0 573 0 573 -2850 0 -2850 0 0 -140z"/>
 <path d="M6745 4122 c-6 -4 -51 -54 -100 -112 -49 -58 -112 -130 -140 -161 -27 -30 -81 -91 -120 -134 -38 -43 -135 -150 -215 -238 l-145 -159 -7 -192 -6 -191 26 -23 c38 -32 77 -52 106 -54 26 -2 31 -12 41 -88 10 -69 16 -466 8 -524 -8 -58 -9 -60 -73 -109 -94 -73 -192 -177 -254 -270 l-54 -82 8 -75 c5 -41 11 -88 14 -105 3 -16 13 -72 21 -124 9 -51 22 -114 29 -140 8 -25 29 -97 48 -160 l33 -114 70 -54 c38 -30 71 -50 73 -45 2 6 -4 27 -13 49 -16 36 -64 177 -99 291 -37 118 -96 403 -96 465 0 19 30 24 31 5 0 -7 2 -22 4 -33 3 -11 13 -69 24 -130 37 -202 101 -418 188 -630 32 -78 44 -88 203 -173 161 -84 388 -165 504 -178 l51 -5 38 47 c20 26 37 51 37 55 0 16 -114 100 -169 125 -48 22 -73 28 -146 38 -11 2 -22 11 -23 21 -3 15 2 16 40 12 104 -12 201 -55 277 -123 l50 -45 37 66 c104 188 153 365 175 633 22 269 -18 497 -111 638 l-40 61 -10 204 c-5 112 -10 297 -10 412 0 191 1 207 18 207 22 0 88 -45 134 -92 21 -21 42 -38 47 -38 5 0 16 -3 25 -6 14 -5 16 3 16 55 l0 61 703 2 702 3 62 120 c33 66 62 123 62 128 1 4 -345 7 -769 7 -766 0 -770 0 -770 20 0 19 -120 226 -161 279 -11 13 -19 27 -19 32 0 8 -325 557 -339 571 -3 4 -11 4 -16 0z"/>
 <path d="M2866 3952 c-36 -125 -49 -168 -55 -172 -4 -3 -13 -20 -19 -39 -25 -72 -110 -151 -162 -151 -6 0 -10 -4 -10 -10 0 -6 -68 -10 -182 -10 -184 0 -380 -20 -386 -40 -2 -6 -11 -10 -19 -10 -20 0 -126 -32 -133 -40 -3 -3 -27 -14 -55 -25 -27 -10 -52 -21 -55 -24 -3 -3 -23 -15 -45 -26 -22 -11 -42 -23 -45 -26 -3 -3 -16 -12 -30 -19 -14 -7 -34 -21 -45 -31 -11 -10 -53 -45 -93 -78 -87 -72 -132 -125 -132 -157 0 -18 6 -24 23 -25 13 0 1 -7 -28 -17 -27 -9 -52 -19 -55 -23 -3 -3 -21 -10 -40 -14 -79 -17 -163 -68 -243 -146 -76 -75 -78 -78 -75 -121 3 -40 5 -43 33 -47 45 -5 325 21 325 31 0 4 13 8 30 8 42 0 234 31 240 39 3 4 55 15 115 25 61 10 112 22 115 26 3 4 50 15 105 25 55 10 102 21 105 25 3 3 32 12 65 19 33 8 67 15 75 18 18 5 -37 -26 -102 -59 -27 -12 -48 -26 -48 -30 0 -3 -25 -14 -55 -23 -30 -10 -55 -21 -55 -25 0 -4 -28 -15 -62 -25 -35 -9 -67 -20 -73 -24 -11 -8 -94 -26 -165 -36 -25 -3 -54 -10 -65 -15 -11 -4 -54 -13 -95 -20 -41 -7 -88 -18 -105 -25 -16 -7 -48 -19 -70 -26 -92 -28 -125 -82 -58 -95 52 -10 367 4 371 16 2 6 19 10 39 10 50 0 257 31 263 40 3 4 48 15 100 25 52 10 97 21 100 25 3 4 38 15 78 25 39 9 72 20 72 24 0 3 29 15 65 25 36 10 65 21 65 25 0 4 20 13 46 20 25 7 50 19 57 25 16 16 76 40 83 33 3 -3 -2 -19 -10 -36 -9 -16 -16 -36 -16 -44 0 -16 -76 -168 -88 -177 -14 -10 -82 -108 -82 -118 0 -5 -6 -12 -13 -15 -21 -8 -77 -125 -77 -161 0 -30 4 -35 30 -41 33 -7 76 13 87 41 3 8 11 14 19 14 8 0 14 5 14 11 0 11 24 39 34 39 3 0 27 21 55 48 76 73 132 122 139 122 11 0 131 130 137 150 3 11 10 20 14 20 4 0 15 23 25 50 10 28 21 50 26 50 4 0 13 28 20 63 6 34 18 82 25 107 8 25 19 72 25 105 21 110 51 195 116 328 8 16 14 37 14 47 0 10 22 65 49 122 64 135 101 224 101 242 0 24 -139 104 -302 174 -43 19 -48 19 -52 4z m-812 -671 c7 -10 -30 -28 -78 -36 -20 -4 -36 -10 -36 -14 0 -4 -34 -16 -75 -26 -41 -11 -75 -22 -75 -25 0 -3 -34 -14 -75 -25 -41 -10 -75 -21 -75 -25 0 -4 -34 -15 -75 -25 -41 -11 -75 -23 -75 -27 0 -4 -9 -8 -20 -8 -11 0 -20 5 -20 10 0 6 5 10 12 10 22 0 128 34 128 42 0 3 25 14 55 23 30 8 55 19 55 23 0 5 29 16 65 27 36 10 65 22 65 26 0 4 35 15 78 25 42 10 81 21 87 26 12 11 52 10 59 -1z"/>
 <path d="M8230 3624 c-97 -51 -240 -115 -377 -169 -40 -15 -73 -32 -73 -37 0 -4 221 -8 490 -8 431 0 490 2 490 15 0 9 -17 23 -37 33 -21 9 -43 22 -49 27 -6 6 -30 17 -53 25 -22 7 -41 17 -41 21 0 4 -22 15 -50 25 -27 10 -50 21 -50 25 0 3 -21 14 -47 24 -27 10 -50 21 -53 24 -8 10 -60 31 -73 30 -7 -1 -41 -17 -77 -35z"/>
 <path d="M7200 2743 c0 -39 27 -210 35 -223 4 -7 209 -10 619 -10 l613 0 13 40 c7 22 17 40 21 40 4 0 15 23 25 50 10 28 21 50 25 50 7 0 29 55 29 71 0 5 -310 9 -690 9 l-690 0 0 -27z"/>
 <path d="M7265 2310 c-4 -6 -4 -29 0 -50 4 -22 8 -50 10 -63 1 -12 6 -48 10 -79 l7 -58 470 0 c461 0 470 0 475 20 3 11 9 20 13 20 4 0 15 21 25 48 10 26 21 49 25 52 14 10 40 74 40 97 l0 23 -534 0 c-359 0 -537 -3 -541 -10z"/>
 <path d="M7308 1853 c-2 -5 -2 -62 1 -128 l6 -120 270 -3 270 -2 25 45 c29 53 84 85 147 85 38 0 42 3 48 29 3 16 15 39 26 52 43 50 49 49 -385 49 -223 0 -406 -3 -408 -7z"/>
 <path d="M155 1706 c-96 -40 -95 -39 -95 -70 0 -38 47 -136 65 -136 18 0 98 31 105 40 3 4 15 10 28 14 22 7 31 26 12 26 -5 0 -10 8 -10 18 0 27 -50 122 -63 121 -7 0 -25 -6 -42 -13z"/>
 <path d="M5736 1641 l-37 -79 16 -93 c38 -234 29 -213 113 -285 41 -36 76 -63 78 -61 3 3 -4 31 -15 63 -17 50 -29 96 -56 214 -18 81 -25 120 -36 213 -6 59 -15 107 -19 107 -4 0 -23 -35 -44 -79z"/>
 <path d="M7552 1401 c-16 -10 0 -25 38 -36 14 -4 32 -13 40 -20 24 -19 160 -85 176 -85 8 0 19 12 25 27 6 15 13 30 17 33 14 10 32 50 32 70 0 19 -6 20 -157 20 -87 0 -164 -4 -171 -9z"/>
 <path d="M6050 563 c0 -11 124 -131 175 -170 49 -37 155 -97 155 -88 0 3 -37 47 -82 97 -70 76 -95 95 -158 125 -41 19 -78 37 -82 40 -5 2 -8 0 -8 -4z"/>
 <path d="M6310 440 c12 -23 159 -160 171 -160 10 0 -7 30 -62 105 -28 39 -45 53 -77 61 -38 10 -40 9 -32 -6z"/>
 <path d="M6456 398 c35 -55 68 -98 76 -98 17 0 90 62 81 70 -4 4 -35 12 -68 19 -33 7 -68 15 -79 18 -13 4 -16 2 -10 -9z"/>
 </g>
<g id="layer108" fill="#a1c3fc" stroke="none">
 <path d="M3920 7910 l0 -140 440 0 440 0 0 -1602 0 -1603 42 -2 c24 -2 1108 -4 2411 -5 l2367 -3 0 259 c0 258 0 259 -30 363 -68 235 -85 467 -43 586 l20 58 -119 95 c-219 175 -418 392 -600 659 -143 208 -166 261 -131 303 l18 22 42 -39 c83 -78 381 -358 501 -473 134 -127 183 -156 247 -144 83 16 60 44 -229 274 -431 342 -511 412 -522 458 -9 34 6 46 63 51 127 13 439 -125 684 -300 45 -32 84 -56 86 -53 9 8 -16 69 -45 110 -15 21 -71 77 -124 123 -114 97 -127 129 -53 124 42 -3 112 -36 167 -78 31 -23 59 -43 62 -43 3 0 6 257 6 570 l0 570 -2850 0 -2850 0 0 -140z"/>
 <path d="M6745 4122 c-6 -4 -51 -54 -100 -112 -49 -58 -112 -130 -140 -161 -27 -30 -81 -91 -120 -134 -38 -43 -135 -150 -215 -238 l-145 -159 -7 -192 -6 -191 26 -23 c90 -76 120 -74 292 20 116 64 151 60 253 -29 89 -78 130 -77 234 5 89 71 112 82 177 82 75 0 128 -25 196 -91 27 -27 54 -49 59 -49 5 0 16 -3 25 -6 14 -5 16 3 16 55 l0 61 703 2 702 3 62 120 c33 66 62 123 62 128 1 4 -345 7 -768 7 l-768 0 -6 28 c-6 26 -119 221 -158 271 -10 13 -19 27 -19 32 0 8 -325 557 -339 571 -3 4 -11 4 -16 0z"/>
 <path d="M8230 3624 c-97 -51 -240 -115 -377 -169 -40 -15 -73 -32 -73 -37 0 -4 221 -8 490 -8 431 0 490 2 490 15 0 9 -17 23 -37 33 -21 9 -43 22 -49 27 -6 6 -30 17 -53 25 -22 7 -41 17 -41 21 0 4 -22 15 -50 25 -27 10 -50 21 -50 25 0 3 -21 14 -47 24 -27 10 -50 21 -53 24 -8 10 -60 31 -73 30 -7 -1 -41 -17 -77 -35z"/>
 <path d="M7200 2743 c0 -39 27 -210 35 -223 4 -7 209 -10 619 -10 l613 0 13 40 c7 22 17 40 21 40 4 0 15 23 25 50 10 28 21 50 25 50 7 0 29 55 29 71 0 5 -310 9 -690 9 l-690 0 0 -27z"/>
 <path d="M7265 2310 c-4 -6 -4 -29 0 -50 4 -22 8 -50 10 -63 1 -12 6 -48 10 -79 l7 -58 470 0 c461 0 470 0 475 20 3 11 9 20 13 20 4 0 15 21 25 48 10 26 21 49 25 52 14 10 40 74 40 97 l0 23 -534 0 c-359 0 -537 -3 -541 -10z"/>
 <path d="M6352 1844 c-29 -7 -73 -25 -96 -39 -40 -24 -126 -102 -126 -115 0 -3 42 -6 93 -6 260 -1 462 -119 750 -439 35 -38 36 -39 37 -15 0 44 -20 163 -42 250 -22 91 -67 186 -118 249 -78 100 -336 159 -498 115z"/>
 <path d="M7308 1853 c-2 -5 -2 -62 1 -128 l6 -120 271 -3 272 -2 10 27 c22 61 88 103 161 103 35 0 40 3 46 29 3 16 15 39 26 52 43 50 49 49 -385 49 -223 0 -406 -3 -408 -7z"/>
 <path d="M155 1706 c-96 -40 -95 -39 -95 -70 0 -38 47 -136 65 -136 18 0 98 31 105 40 3 4 15 10 28 14 22 7 31 26 12 26 -5 0 -10 8 -10 18 0 10 -5 23 -12 30 -7 7 -9 12 -4 12 4 0 -3 18 -15 40 -25 43 -29 45 -74 26z"/>
 <path d="M7552 1401 c-16 -10 0 -25 38 -36 14 -4 32 -13 40 -20 27 -23 173 -86 186 -81 8 3 14 12 14 20 0 8 6 21 13 28 21 23 37 57 37 78 0 19 -6 20 -157 20 -87 0 -164 -4 -171 -9z"/>
 </g>
<g id="layer109" fill="#e5e5e5" stroke="none">
 <path d="M3920 7909 l0 -141 440 7 440 8 0 -1607 0 -1606 2155 0 c1430 0 2155 -3 2155 -10 0 -6 87 -10 241 -10 195 0 243 3 255 14 11 12 14 61 14 262 0 245 0 248 -30 351 -68 235 -85 467 -43 586 l20 58 -119 95 c-219 175 -418 392 -600 659 -143 208 -166 261 -131 303 l18 22 42 -39 c83 -78 381 -358 501 -473 134 -127 183 -156 247 -144 83 16 60 44 -229 274 -431 342 -511 412 -522 458 -9 34 6 46 63 51 127 13 439 -125 684 -300 45 -32 84 -56 86 -53 9 8 -16 69 -45 110 -15 21 -71 77 -124 123 -114 97 -127 129 -53 124 42 -3 112 -36 167 -78 31 -23 59 -43 62 -43 3 0 6 257 6 570 l0 570 -2850 0 -2850 0 0 -141z"/>
 <path d="M6738 4111 c-5 -14 -229 -269 -484 -551 l-231 -256 -5 -185 -6 -186 32 -25 c90 -72 114 -70 286 24 116 64 151 60 253 -29 89 -78 130 -77 234 5 89 71 112 82 177 82 75 0 128 -25 196 -91 27 -27 54 -49 59 -49 5 0 17 -3 27 -7 16 -6 17 1 8 108 -4 63 -8 157 -9 210 0 85 -3 100 -26 135 -14 21 -43 70 -65 107 -21 38 -46 79 -54 92 -8 13 -28 45 -44 72 -273 458 -331 553 -337 553 -4 0 -9 -4 -11 -9z"/>
 <path d="M6352 1844 c-29 -7 -73 -25 -96 -39 -40 -24 -126 -102 -126 -115 0 -3 42 -6 93 -6 260 -1 462 -119 750 -439 35 -38 36 -39 37 -15 0 44 -20 163 -42 250 -22 91 -67 186 -118 249 -78 100 -336 159 -498 115z"/>
 </g>

</svg>