<!DOCTYPE svg PUBLIC "-//W3C//DTD SVG 20010904//EN" "http://www.w3.org/TR/2001/REC-SVG-20010904/DTD/svg10.dtd">
<svg version="1.0" xmlns="http://www.w3.org/2000/svg" width="637px" height="810px" viewBox="0 0 6370 8100" preserveAspectRatio="xMidYMid meet">
<g id="layer101" fill="#1f2463" stroke="none">
 <path d="M3965 8041 c-38 -15 -99 -41 -135 -58 -36 -16 -94 -40 -129 -53 -69 -25 -86 -26 -500 -22 -223 2 -189 8 -451 -74 -156 -49 -234 -57 -387 -39 -175 20 -198 26 -198 50 0 19 -11 20 -400 25 -220 3 -596 4 -837 2 l-436 -3 -34 -33 c-56 -55 -94 -188 -113 -396 -2 -25 -7 -67 -11 -95 -4 -27 -8 -61 -9 -75 -2 -14 -4 -26 -5 -27 -1 -2 -4 -15 -5 -30 -1 -16 -5 -44 -8 -63 -4 -19 -9 -60 -12 -90 -3 -30 -15 -116 -26 -190 -20 -139 -42 -292 -79 -555 -12 -82 -30 -206 -40 -275 -11 -69 -21 -143 -24 -165 -2 -22 -7 -56 -10 -75 -3 -19 -10 -64 -16 -100 -14 -83 -18 -125 -26 -232 -7 -88 -7 -88 17 -88 24 0 187 -24 404 -60 l110 -18 -81 -1 c-75 -1 -83 -3 -98 -26 -9 -13 -16 -29 -16 -36 0 -6 -10 -25 -22 -42 -13 -18 -24 -40 -24 -49 -1 -17 23 -18 372 -18 l372 0 34 -52 c18 -29 34 -56 36 -60 2 -5 -197 -8 -441 -8 l-445 0 -33 -66 c-18 -36 -37 -68 -41 -70 -4 -3 -8 -14 -8 -25 0 -19 12 -19 544 -19 l543 0 42 -60 41 -60 -585 2 c-385 2 -585 0 -585 -7 1 -5 71 -45 158 -88 l157 -77 299 -3 299 -2 -44 -29 c-24 -17 -57 -41 -72 -55 -25 -23 -38 -26 -123 -29 -52 -2 -94 -8 -94 -13 0 -5 25 -21 55 -36 l55 -28 -38 -56 c-55 -81 -142 -262 -142 -296 0 -10 -4 -23 -9 -28 -6 -6 -17 -35 -25 -65 -8 -30 -23 -77 -32 -105 -24 -71 -27 -79 -28 -85 -1 -3 -6 -23 -13 -45 -31 -106 -53 -215 -53 -260 0 -45 3 -52 33 -72 42 -29 99 -30 167 -3 92 36 158 20 212 -53 49 -64 98 -137 98 -145 0 -4 20 -28 45 -52 l46 -45 77 0 c70 0 84 3 152 39 91 48 169 55 217 20 37 -28 92 -130 117 -219 16 -57 56 -136 85 -168 36 -40 73 -57 121 -57 39 0 58 7 185 65 78 35 100 38 143 16 20 -11 51 -32 67 -46 17 -15 50 -39 75 -53 40 -24 55 -27 136 -26 81 0 96 4 135 27 69 42 94 68 120 127 34 73 49 111 49 119 0 45 121 56 212 20 38 -16 76 -22 134 -23 70 -1 85 2 117 24 20 14 40 33 43 43 3 9 9 17 14 17 4 0 15 15 24 33 43 84 94 147 140 171 l37 20 83 -29 c78 -27 85 -28 132 -15 39 11 64 29 126 89 118 117 131 125 211 125 l69 1 24 -45 c14 -25 33 -58 43 -75 48 -79 73 -123 87 -157 9 -21 20 -38 25 -38 5 0 9 -7 9 -16 0 -9 8 -28 18 -42 10 -15 51 -92 91 -172 41 -80 75 -147 77 -149 3 -3 10 1 16 7 14 14 28 16 28 3 0 -6 15 -31 33 -56 17 -26 37 -54 42 -64 32 -53 60 -97 64 -101 4 -3 33 -45 66 -95 32 -49 63 -91 67 -93 4 -2 8 -8 8 -13 0 -6 13 -27 28 -47 16 -20 73 -97 127 -170 53 -72 101 -132 106 -132 5 0 9 -7 9 -15 0 -8 4 -15 8 -15 4 0 25 -24 47 -52 21 -29 44 -58 49 -63 14 -13 31 -43 70 -120 28 -55 30 -68 30 -155 -1 -95 -2 -100 -53 -210 -6 -14 -20 -40 -31 -57 -44 -72 -61 -101 -104 -178 -60 -107 -70 -136 -54 -147 18 -11 67 1 100 24 32 22 98 100 98 115 0 6 27 38 60 72 50 50 66 61 93 61 40 0 53 -19 97 -150 18 -52 38 -106 45 -120 7 -14 34 -68 60 -120 58 -118 78 -152 127 -214 41 -52 87 -82 112 -73 17 7 7 58 -24 117 -87 167 -220 455 -220 475 0 27 17 24 43 -8 53 -65 65 -84 117 -182 58 -111 114 -201 139 -226 9 -9 30 -33 46 -54 69 -86 152 -127 174 -87 8 15 8 29 1 48 -9 23 -8 29 5 37 13 7 15 17 10 44 -3 20 -10 43 -14 52 -44 90 -117 234 -136 266 -13 22 -27 47 -31 55 -4 8 -25 41 -46 73 -23 36 -38 70 -38 89 0 30 1 31 43 25 23 -2 77 -21 121 -42 43 -20 96 -40 117 -42 37 -5 39 -4 39 20 0 27 -56 79 -145 135 -49 30 -175 141 -272 239 -40 40 -77 73 -82 73 -5 0 -11 4 -13 9 -1 5 -35 33 -74 62 -63 47 -132 122 -171 184 -22 35 -99 197 -147 310 -26 61 -51 119 -56 130 -5 11 -20 48 -34 83 -86 207 -92 222 -125 297 -13 28 -29 64 -36 80 -23 55 -67 150 -81 176 -7 14 -11 29 -8 32 5 5 -2 28 -51 162 -15 39 -32 88 -40 110 -7 22 -23 65 -35 95 -12 30 -31 80 -42 110 -11 30 -24 59 -29 65 -5 5 -9 16 -9 25 -1 8 -9 33 -20 55 -11 22 -19 43 -20 48 0 4 -9 26 -19 50 -11 23 -31 71 -44 107 -23 58 -51 126 -77 185 -9 20 -60 141 -87 205 -22 53 -38 90 -67 151 -14 31 -26 59 -26 63 0 4 -15 39 -33 79 -69 149 -71 155 -57 173 12 13 9 19 -17 39 -17 14 -42 50 -57 82 -15 32 -35 76 -45 98 -10 22 -29 60 -41 84 l-22 45 39 -29 c21 -16 40 -33 41 -37 2 -4 13 -8 25 -8 15 0 35 17 61 52 l38 52 -33 28 c-19 16 -41 35 -50 43 -26 24 -42 17 -83 -38 l-40 -52 -35 75 c-47 102 -60 140 -54 156 3 7 -9 28 -26 45 -17 17 -34 43 -37 57 -7 26 -15 44 -65 142 l-23 44 51 -37 c28 -20 53 -37 56 -37 8 0 87 108 87 120 0 5 -6 10 -14 10 -8 0 -16 4 -18 8 -7 17 -78 63 -87 57 -6 -3 -25 -26 -42 -51 -18 -24 -36 -41 -40 -37 -10 12 -91 195 -95 218 -2 11 -13 52 -23 90 -27 95 -27 169 -1 202 25 33 25 48 -1 66 -35 25 -57 187 -25 187 16 0 86 83 86 102 0 14 -92 88 -110 88 -6 0 -10 27 -10 65 0 57 2 65 19 65 18 0 101 88 101 107 0 5 -22 26 -50 46 l-50 37 0 82 0 81 25 -23 c15 -14 29 -20 33 -14 43 51 82 104 82 112 0 15 -64 50 -104 57 -39 8 -38 4 -51 196 l-7 86 54 -4 c37 -3 59 0 73 10 18 14 18 17 5 42 -8 15 -21 30 -30 33 -8 3 -17 9 -20 13 -3 5 -20 14 -37 21 -29 12 -23 13 65 10 101 -4 570 22 610 34 26 7 28 30 6 62 -15 22 -15 22 29 22 99 0 144 42 91 86 -57 46 -124 59 -304 57 -91 -1 -196 -7 -235 -12 -106 -16 -295 -13 -325 4 -14 8 -19 14 -12 15 35 1 434 186 490 227 57 43 44 53 -65 52 -83 0 -109 -5 -168 -28z m94 -4483 c6 -13 20 -36 31 -53 11 -16 27 -43 36 -60 9 -16 23 -38 31 -47 14 -16 13 -17 -18 -7 -79 23 -145 -10 -261 -129 -45 -46 -81 -73 -108 -82 -38 -13 -47 -12 -120 14 -79 27 -106 27 -154 2 -47 -25 -95 -84 -142 -176 -7 -14 -31 -43 -54 -65 -40 -40 -42 -40 -113 -39 -45 1 -94 9 -131 23 -33 11 -82 21 -110 21 l-51 1 24 19 c21 18 36 20 142 17 l118 -2 41 40 c23 22 66 76 95 120 71 105 74 109 115 134 31 18 50 21 166 21 130 0 131 0 172 30 23 16 70 64 104 106 63 77 130 133 159 134 9 0 21 -10 28 -22z m1865 -2593 c40 -82 66 -145 61 -145 -3 0 -32 46 -60 95 -7 11 -35 58 -63 104 -29 46 -52 89 -52 95 1 23 82 -83 114 -149z"/>
 <path d="M5500 7667 c0 -13 -3 -27 -7 -31 -5 -4 -8 -11 -9 -14 0 -9 -41 -91 -57 -116 -20 -33 -120 -127 -152 -143 -16 -9 -32 -19 -35 -22 -9 -12 -174 -72 -200 -73 -14 -1 -30 -5 -35 -9 -6 -4 -89 -6 -185 -4 -212 4 -212 4 -225 13 -20 14 -69 8 -73 -9 -8 -43 393 -68 523 -33 33 9 74 20 92 24 152 37 316 182 381 337 28 67 29 103 2 103 -14 0 -20 -7 -20 -23z"/>
 <path d="M4274 6918 c-4 -6 -2 -13 3 -17 28 -19 89 -67 94 -75 9 -12 29 2 29 20 0 8 -7 14 -15 14 -8 0 -15 4 -15 9 0 15 -89 61 -96 49z"/>
 <path d="M4033 6877 c-50 -67 -50 -69 13 -118 l56 -43 19 24 c10 14 26 32 34 41 8 9 15 21 15 27 0 7 5 12 10 12 22 0 7 20 -43 59 -30 22 -58 41 -63 41 -5 0 -23 -20 -41 -43z"/>
 <path d="M4314 6644 l-39 -56 45 -39 c57 -49 78 -49 110 -1 14 20 32 42 40 49 17 13 18 10 -52 66 -25 20 -51 37 -56 37 -5 0 -27 -25 -48 -56z"/>
 <path d="M4562 6688 c6 -18 28 -21 28 -4 0 9 -7 16 -16 16 -9 0 -14 -5 -12 -12z"/>
 <path d="M3994 6560 c-16 -22 -32 -40 -36 -40 -5 0 -8 -8 -8 -18 0 -17 89 -92 109 -92 4 0 28 25 51 55 38 49 40 56 27 70 -9 8 -20 15 -26 15 -5 0 -14 6 -18 14 -8 14 -45 36 -60 36 -5 0 -22 -18 -39 -40z"/>
 <path d="M4602 6424 c-24 -31 -40 -60 -35 -63 46 -40 102 -81 109 -80 13 0 84 96 84 112 0 11 -97 87 -111 87 -2 0 -24 -25 -47 -56z"/>
 <path d="M4293 6353 c-15 -21 -31 -40 -34 -43 -4 -3 -9 -14 -13 -26 -5 -17 3 -28 40 -58 26 -20 53 -36 59 -36 11 0 95 101 95 115 0 3 -7 5 -15 5 -8 0 -15 4 -15 10 0 5 -20 23 -44 40 l-45 30 -28 -37z"/>
 <path d="M3999 6235 c-18 -25 -36 -45 -41 -45 -22 0 -1 -29 48 -68 54 -43 84 -49 84 -17 0 8 4 15 9 15 5 0 19 15 31 34 18 30 19 38 8 56 -7 11 -21 23 -30 26 -10 3 -18 9 -18 13 0 7 -43 31 -55 31 -2 0 -18 -20 -36 -45z"/>
 <path d="M4869 6178 l-25 -32 43 -33 c53 -41 67 -42 60 -5 -8 38 -36 102 -45 102 -4 0 -19 -14 -33 -32z"/>
 <path d="M4578 6128 c-12 -18 -31 -41 -41 -51 -18 -18 -18 -20 9 -48 15 -16 31 -29 36 -29 4 0 18 -10 30 -22 l21 -21 44 49 c23 27 43 56 43 66 0 15 -90 88 -109 88 -5 0 -20 -15 -33 -32z"/>
 <path d="M4307 6042 c-10 -10 -17 -22 -17 -25 0 -4 -9 -16 -20 -27 -11 -11 -20 -28 -20 -38 0 -16 89 -92 107 -92 11 1 83 101 83 116 0 9 -101 84 -113 84 -2 0 -11 -8 -20 -18z"/>
 <path d="M3980 5951 c0 -4 -16 -29 -35 -54 l-35 -46 51 -41 c28 -22 56 -40 63 -40 11 0 86 90 86 103 0 10 -34 47 -43 47 -4 0 -17 9 -29 20 -22 20 -58 27 -58 11z"/>
 <path d="M4852 5886 c-23 -30 -42 -56 -42 -59 0 -2 27 -23 59 -46 l60 -42 40 54 c39 51 50 77 33 77 -4 0 -19 10 -33 23 -22 19 -64 47 -71 47 -2 0 -22 -24 -46 -54z"/>
 <path d="M4600 5825 c0 -8 -4 -15 -9 -15 -4 0 -21 -19 -36 -42 l-28 -42 44 -37 c64 -55 73 -55 119 3 22 28 40 54 40 58 0 10 -106 90 -120 90 -5 0 -10 -7 -10 -15z"/>
 <path d="M4246 5696 c-20 -24 -36 -52 -36 -61 0 -16 47 -64 64 -65 5 0 14 -8 21 -17 12 -16 15 -16 37 7 32 33 68 85 68 99 0 10 -97 81 -111 81 -4 0 -23 -20 -43 -44z"/>
 <path d="M4857 5561 c-20 -26 -37 -52 -37 -57 1 -12 101 -84 117 -84 7 0 13 7 13 15 0 7 6 18 13 22 6 4 23 23 35 41 l24 34 -21 19 c-11 10 -24 19 -28 19 -5 0 -16 9 -26 20 -27 31 -50 24 -90 -29z"/>
 <path d="M4560 5505 c0 -8 -4 -15 -9 -15 -4 0 -21 -19 -37 -41 l-28 -41 24 -20 c85 -67 95 -71 114 -49 9 10 16 20 16 24 0 3 11 18 25 33 14 15 25 32 25 39 0 6 -11 18 -25 25 -14 7 -25 17 -25 22 0 4 -7 8 -15 8 -9 0 -18 7 -21 15 -4 8 -15 15 -25 15 -10 0 -19 -7 -19 -15z"/>
 <path d="M4273 5401 c-13 -11 -23 -23 -23 -29 0 -5 -9 -17 -20 -27 -11 -10 -20 -24 -20 -31 0 -14 92 -94 108 -94 6 0 21 15 33 33 12 17 31 40 41 50 10 10 18 21 18 26 0 7 -106 92 -113 91 -1 -1 -12 -9 -24 -19z"/>
 <path d="M4843 5283 c-4 -10 -13 -24 -21 -32 -7 -8 -20 -24 -29 -37 -13 -21 -13 -25 4 -42 21 -22 88 -72 95 -72 6 0 88 106 88 114 0 11 -102 86 -116 86 -8 0 -18 -8 -21 -17z"/>
 <path d="M4560 5181 c-8 -10 -21 -27 -27 -39 -7 -12 -18 -31 -25 -41 -13 -21 1 -38 71 -83 l34 -21 19 24 c11 13 25 31 32 39 28 35 29 80 2 80 -6 0 -19 8 -28 18 -44 46 -55 49 -78 23z"/>
 <path d="M4832 4935 c-18 -25 -35 -52 -38 -60 -6 -16 12 -45 27 -45 13 0 72 128 64 140 -10 17 -18 11 -53 -35z"/>
 <path d="M4517 4859 c-10 -11 -23 -31 -29 -45 -6 -13 -15 -24 -20 -24 -4 0 -8 -8 -8 -17 0 -14 96 -93 112 -93 3 0 22 25 42 55 39 55 41 80 10 92 -9 3 -27 17 -40 29 -29 29 -44 30 -67 3z"/>
 <path d="M4488 4471 c-40 -52 -44 -61 -28 -61 23 0 102 79 96 96 -10 25 -30 14 -68 -35z"/>
 <path d="M5638 2392 c-16 -9 -28 -22 -28 -29 0 -7 -4 -13 -8 -13 -5 0 -9 -20 -11 -45 -1 -25 2 -45 8 -45 5 0 12 -8 16 -18 11 -37 88 -54 139 -31 36 17 61 85 46 124 -20 52 -49 75 -94 75 -23 0 -53 -8 -68 -18z"/>
 <path d="M5700 1962 c0 -47 137 -121 244 -132 120 -14 204 -2 287 39 55 27 75 42 77 59 4 28 -13 28 -52 -1 -33 -25 -96 -51 -96 -39 0 4 -4 1 -9 -7 -19 -29 -281 -22 -281 8 0 4 -9 7 -19 8 -22 2 -102 51 -114 70 -12 19 -37 16 -37 -5z"/>
 <path d="M4725 1722 c-8 -9 -147 -52 -171 -54 -14 -2 -29 -7 -34 -13 -8 -10 2 -74 18 -115 3 -8 6 -17 7 -20 14 -55 50 -140 59 -140 7 0 26 4 42 9 16 5 70 22 119 37 50 15 93 30 98 34 7 6 4 17 -48 183 -27 84 -29 87 -57 85 -16 -1 -31 -4 -33 -6z"/>
 <path d="M4731 893 c-19 -37 -50 -171 -54 -233 -5 -75 10 -210 25 -235 3 -5 9 -26 13 -45 7 -30 21 -61 84 -177 7 -14 20 -33 30 -43 9 -9 31 -34 49 -54 33 -35 72 -48 72 -23 0 6 -12 23 -27 37 -75 71 -146 193 -182 314 -31 103 -30 269 4 372 14 42 25 83 25 90 0 20 -28 17 -39 -3z"/>
 <path d="M5135 733 c-11 -2 -38 -11 -60 -20 -22 -8 -71 -23 -110 -33 -59 -14 -69 -20 -67 -36 2 -10 5 -23 5 -29 1 -5 4 -12 7 -15 3 -3 11 -25 18 -50 7 -25 19 -70 28 -100 8 -30 19 -59 24 -64 5 -5 31 0 62 11 29 11 88 31 131 44 42 12 77 27 77 33 -1 12 -32 123 -48 171 -6 17 -14 43 -19 59 -9 31 -16 36 -48 29z"/>
 <path d="M4388 368 c-22 -7 -27 -15 -23 -31 3 -12 7 -32 8 -45 5 -36 22 -47 52 -34 14 7 36 12 49 12 13 0 26 7 30 15 3 8 1 15 -4 15 -5 0 -13 18 -16 40 -6 37 -9 40 -38 39 -17 0 -43 -5 -58 -11z"/>
 </g>
<g id="layer102" fill="#42477d" stroke="none">
 <path d="M3965 8041 c-38 -15 -99 -41 -135 -58 -36 -16 -94 -40 -129 -53 -69 -25 -86 -26 -500 -22 -223 2 -189 8 -451 -74 -156 -49 -234 -57 -387 -39 -175 20 -198 26 -198 50 0 19 -11 20 -400 25 -220 3 -596 4 -837 2 l-436 -3 -34 -33 c-56 -55 -94 -188 -113 -396 -2 -25 -8 -67 -12 -95 -4 -27 -6 -62 -6 -77 1 -16 -2 -28 -6 -28 -5 0 -8 -12 -8 -27 0 -16 -3 -44 -6 -63 -4 -19 -9 -60 -12 -90 -3 -30 -15 -116 -26 -190 -20 -139 -42 -292 -79 -555 -12 -82 -30 -206 -40 -275 -11 -69 -21 -143 -24 -165 -4 -40 -6 -52 -26 -175 -12 -73 -16 -107 -26 -232 -6 -88 -6 -88 17 -88 24 0 187 -24 404 -60 l110 -18 -81 -1 c-75 -1 -83 -3 -98 -26 -9 -13 -16 -29 -16 -36 0 -6 -10 -25 -22 -42 -13 -18 -24 -40 -24 -49 -1 -17 23 -18 372 -18 l372 0 34 -52 c18 -29 34 -56 36 -60 2 -5 -197 -8 -441 -8 l-445 0 -33 -66 c-18 -36 -37 -68 -41 -70 -4 -3 -8 -14 -8 -25 0 -19 12 -19 544 -19 l543 0 42 -60 41 -60 -585 2 c-385 2 -585 0 -585 -7 1 -5 71 -45 158 -88 l157 -77 299 -3 299 -2 -44 -30 c-24 -16 -57 -41 -72 -55 -34 -29 -24 -27 -132 -29 -48 0 -85 -5 -85 -11 0 -5 25 -22 55 -37 l55 -28 -38 -56 c-55 -81 -142 -262 -142 -296 0 -10 -4 -23 -9 -28 -6 -6 -17 -35 -25 -65 -8 -30 -23 -77 -32 -105 -24 -71 -27 -79 -28 -85 -1 -3 -6 -23 -13 -45 -31 -106 -53 -215 -53 -260 0 -45 3 -52 33 -72 42 -29 99 -30 167 -3 99 39 158 20 227 -73 60 -81 83 -115 83 -125 0 -4 20 -28 45 -52 l46 -45 77 0 c70 0 83 3 152 40 91 48 169 55 217 19 37 -28 92 -130 117 -219 16 -57 56 -136 85 -168 36 -40 73 -57 121 -57 39 0 58 7 185 65 78 35 100 38 143 16 20 -11 51 -32 67 -46 17 -15 50 -39 75 -53 40 -24 55 -27 136 -26 81 0 96 4 135 27 69 42 94 68 120 127 34 73 49 111 49 119 0 45 121 56 212 20 38 -16 76 -22 134 -23 70 -1 85 2 117 24 20 14 40 33 43 43 3 9 9 17 14 17 4 0 15 15 24 33 43 84 94 147 140 171 l37 20 83 -29 c78 -27 85 -28 132 -15 39 11 64 29 126 89 118 117 131 125 211 125 l69 1 24 -45 c14 -25 33 -58 43 -75 48 -79 73 -123 87 -157 9 -21 20 -38 25 -38 5 0 9 -7 9 -16 0 -9 8 -28 18 -42 10 -15 51 -92 91 -172 41 -80 75 -147 77 -149 3 -3 10 1 16 7 14 14 28 16 28 3 0 -6 15 -31 33 -57 17 -25 37 -53 42 -62 54 -86 191 -288 197 -290 4 -2 8 -8 8 -13 0 -6 13 -27 28 -47 16 -20 73 -97 127 -170 54 -72 102 -132 107 -132 4 0 8 -7 8 -15 0 -8 4 -15 8 -15 4 0 25 -24 47 -52 21 -29 44 -58 49 -63 14 -13 31 -43 70 -120 28 -55 30 -68 30 -155 -1 -95 -2 -100 -53 -210 -6 -14 -20 -40 -31 -57 -44 -72 -61 -101 -104 -178 -60 -107 -70 -136 -54 -147 18 -11 67 1 100 24 32 22 98 100 98 115 0 6 27 38 60 72 50 50 66 61 93 61 40 0 53 -19 97 -150 18 -52 38 -106 45 -120 7 -14 34 -68 60 -120 58 -118 78 -152 127 -214 41 -52 87 -82 112 -73 17 7 7 58 -24 117 -87 167 -220 455 -220 475 0 27 17 24 43 -8 53 -65 65 -84 117 -182 58 -111 114 -201 139 -226 9 -9 30 -33 46 -54 69 -86 152 -127 174 -87 8 15 8 29 1 48 -9 23 -8 29 5 37 13 7 15 17 10 44 -3 20 -10 43 -14 52 -44 90 -117 234 -136 266 -13 22 -27 47 -31 55 -4 8 -25 41 -46 73 -23 36 -38 70 -38 89 0 30 1 31 43 25 23 -2 77 -21 121 -42 43 -20 96 -40 117 -42 37 -5 39 -4 39 20 0 27 -56 79 -145 135 -49 30 -175 141 -272 239 -40 40 -77 73 -82 73 -5 0 -11 4 -13 9 -1 5 -35 33 -74 62 -63 47 -132 122 -171 184 -22 35 -99 197 -147 310 -26 61 -51 119 -56 130 -5 11 -20 48 -34 83 -86 207 -92 222 -125 297 -13 28 -29 64 -36 80 -23 55 -67 150 -81 176 -7 14 -11 29 -8 32 5 5 -2 28 -51 162 -15 39 -32 88 -40 110 -7 22 -23 65 -35 95 -12 30 -31 80 -42 110 -11 30 -24 59 -29 65 -5 5 -9 16 -9 25 -1 8 -9 33 -20 55 -11 22 -19 43 -20 48 0 4 -9 26 -19 50 -11 23 -31 71 -44 107 -23 57 -46 113 -77 185 -5 11 -30 70 -55 130 -59 139 -67 157 -99 226 -14 31 -26 59 -26 63 0 7 -52 121 -110 243 -22 45 -40 87 -40 94 0 6 -8 28 -18 48 -29 58 -59 123 -153 331 -16 36 -38 83 -48 105 -11 22 -29 63 -41 90 -12 28 -31 68 -41 90 -61 132 -89 195 -89 200 0 3 -19 47 -43 98 -53 112 -73 214 -87 432 -6 88 -15 194 -21 235 -8 52 -9 134 -3 265 11 234 11 523 1 671 l-7 111 52 -4 c37 -3 59 0 73 10 18 14 18 17 5 42 -8 15 -24 32 -35 37 -11 5 -34 17 -51 26 -30 17 -29 18 65 14 101 -4 570 22 609 34 26 7 28 30 6 62 -15 22 -15 22 29 22 99 0 144 42 91 86 -57 46 -124 59 -304 57 -91 -1 -196 -7 -235 -12 -106 -16 -295 -13 -325 4 -14 8 -19 14 -12 15 35 1 434 186 490 227 57 43 44 53 -65 52 -83 0 -109 -5 -168 -28z m-1407 -823 l129 -128 -8 -52 c-4 -29 -19 -129 -34 -223 -14 -93 -30 -201 -35 -240 -5 -38 -16 -110 -24 -160 -8 -49 -24 -155 -36 -235 -12 -80 -30 -199 -40 -265 -10 -66 -29 -187 -41 -270 -11 -82 -26 -175 -32 -205 l-10 -55 -13 75 c-7 41 -22 140 -34 220 -12 80 -30 199 -40 265 -10 66 -28 185 -40 265 -12 80 -28 186 -35 235 -8 50 -19 122 -24 160 -5 39 -22 147 -36 240 -14 94 -29 187 -32 208 -6 39 -5 40 123 168 70 70 129 127 130 126 2 -1 61 -59 132 -129z m846 -854 c-33 -36 -64 -102 -74 -163 -6 -38 -8 -40 -9 -14 -1 45 33 131 70 176 17 21 33 36 36 34 2 -3 -8 -18 -23 -33z m-55 -327 c19 -48 62 -97 120 -136 30 -20 68 -53 85 -74 29 -37 31 -44 32 -130 l2 -92 -7 85 c-7 104 -26 140 -101 192 -103 70 -162 160 -159 242 1 25 3 22 9 -14 5 -25 13 -58 19 -73z m228 -464 c-52 -237 -55 -276 -32 -344 21 -59 35 -72 145 -137 113 -66 186 -132 226 -204 25 -45 29 -64 29 -128 0 -72 -2 -78 -39 -130 -50 -69 -66 -109 -66 -162 0 -116 114 -235 284 -298 16 -6 26 -13 23 -17 -8 -8 -107 42 -179 89 -87 58 -138 144 -138 232 0 47 24 99 85 191 32 47 28 156 -7 216 -43 72 -122 145 -227 206 -53 32 -104 66 -113 78 -24 28 -48 102 -48 146 0 53 48 289 58 289 3 0 2 -12 -1 -27z m-1017 -458 l125 -125 -130 -130 -130 -130 -128 128 -128 128 127 127 c69 70 129 127 133 127 3 0 62 -56 131 -125z m1499 -1557 c6 -13 20 -36 31 -53 11 -16 27 -43 36 -60 9 -16 23 -38 31 -47 14 -16 13 -17 -18 -7 -79 23 -145 -10 -261 -129 -45 -46 -81 -73 -108 -82 -38 -13 -47 -12 -120 14 -79 27 -106 27 -154 2 -47 -25 -95 -84 -142 -176 -7 -14 -31 -43 -54 -65 -40 -40 -42 -40 -113 -39 -45 1 -94 9 -131 23 -33 11 -82 21 -110 21 l-51 1 24 19 c21 18 36 20 142 17 l118 -2 41 40 c23 22 65 76 94 120 59 89 99 133 134 146 13 5 81 9 151 9 126 0 129 0 169 30 23 16 70 64 104 106 63 77 130 133 159 134 9 0 21 -10 28 -22z m1865 -2593 c40 -82 66 -145 61 -145 -3 0 -32 46 -60 95 -7 11 -35 58 -63 104 -29 46 -52 89 -52 95 1 23 82 -83 114 -149z"/>
 <path d="M5638 2392 c-16 -9 -28 -22 -28 -29 0 -7 -4 -13 -8 -13 -5 0 -9 -20 -11 -45 -1 -25 2 -45 8 -45 5 0 12 -8 16 -18 11 -37 88 -54 139 -31 36 17 61 85 46 124 -20 52 -49 75 -94 75 -23 0 -53 -8 -68 -18z"/>
 <path d="M4725 1718 c-95 -33 -144 -48 -172 -53 -18 -4 -35 -10 -37 -14 -3 -4 2 -32 10 -62 9 -30 16 -60 16 -66 1 -7 5 -13 10 -13 4 0 8 -8 8 -18 0 -10 7 -40 16 -66 15 -44 19 -47 43 -41 14 3 42 10 61 14 19 4 51 15 70 23 19 8 52 18 72 22 21 4 40 11 43 15 2 5 -2 28 -9 52 -8 24 -27 83 -42 132 -29 93 -31 94 -89 75z"/>
 <path d="M5135 733 c-11 -2 -38 -11 -60 -20 -22 -8 -71 -23 -110 -33 -59 -14 -69 -20 -67 -36 2 -10 5 -23 5 -29 1 -5 4 -12 7 -15 5 -5 11 -25 46 -150 9 -30 19 -59 24 -64 5 -5 31 0 62 11 29 11 88 31 131 44 42 12 77 27 77 33 -1 12 -32 123 -48 171 -6 17 -14 43 -19 59 -9 31 -16 36 -48 29z"/>
 <path d="M4388 368 c-22 -7 -27 -15 -23 -31 3 -12 7 -32 8 -45 5 -36 22 -47 52 -34 14 7 36 12 49 12 13 0 26 7 30 15 3 8 1 15 -4 15 -5 0 -13 18 -16 40 -6 37 -9 40 -38 39 -17 0 -43 -5 -58 -11z"/>
 </g>
<g id="layer103" fill="#626592" stroke="none">
 <path d="M3965 8041 c-38 -15 -99 -41 -135 -58 -36 -16 -94 -40 -129 -53 -69 -25 -86 -26 -500 -22 -223 2 -189 8 -451 -74 -156 -49 -234 -57 -387 -39 -175 20 -198 26 -198 50 0 19 -11 20 -400 25 -220 3 -596 4 -837 2 l-436 -3 -34 -33 c-56 -55 -94 -188 -113 -396 -2 -25 -8 -67 -12 -95 -4 -27 -6 -62 -6 -77 1 -16 -2 -28 -6 -28 -5 0 -8 -12 -8 -27 0 -16 -3 -44 -6 -63 -4 -19 -9 -60 -12 -90 -3 -30 -15 -116 -26 -190 -20 -139 -42 -292 -79 -555 -12 -82 -30 -206 -40 -275 -11 -69 -21 -143 -24 -165 -4 -40 -6 -52 -26 -175 -12 -73 -16 -107 -26 -232 -6 -88 -6 -88 17 -88 24 0 187 -24 404 -60 l110 -18 -81 -1 c-75 -1 -83 -3 -98 -26 -9 -13 -16 -29 -16 -36 0 -6 -10 -25 -22 -42 -13 -18 -24 -40 -24 -49 -1 -17 23 -18 372 -18 l372 0 34 -52 c18 -29 34 -56 36 -60 2 -5 -197 -8 -441 -8 l-445 0 -33 -66 c-18 -36 -37 -68 -41 -70 -4 -3 -8 -14 -8 -25 0 -19 12 -19 544 -19 l543 0 42 -60 41 -60 -585 2 c-385 2 -585 0 -585 -7 1 -5 71 -45 158 -88 l157 -77 299 -3 299 -2 -44 -30 c-24 -16 -57 -41 -72 -55 -34 -29 -24 -27 -132 -29 -48 0 -85 -5 -85 -11 0 -5 25 -22 55 -37 l55 -28 -38 -56 c-55 -81 -142 -262 -142 -296 0 -10 -4 -23 -9 -28 -6 -6 -17 -35 -25 -65 -8 -30 -23 -77 -32 -105 -24 -71 -27 -79 -28 -85 -1 -3 -6 -23 -13 -45 -31 -106 -53 -215 -53 -260 0 -45 3 -52 33 -72 42 -29 99 -30 167 -3 99 39 158 20 227 -73 60 -81 83 -115 83 -125 0 -4 20 -28 45 -52 l46 -45 77 0 c70 0 83 3 152 40 91 48 169 55 217 19 37 -28 92 -130 117 -219 16 -57 56 -136 85 -168 36 -40 73 -57 121 -57 39 0 58 7 185 65 78 35 100 38 143 16 20 -11 47 -28 59 -40 11 -11 45 -35 74 -53 51 -31 59 -33 145 -32 81 0 96 4 135 27 69 42 94 68 120 127 34 73 49 111 49 119 0 45 121 56 212 20 39 -16 75 -22 134 -22 71 -1 87 2 118 24 20 13 39 32 42 42 3 9 9 17 14 17 4 0 15 15 24 33 43 84 94 147 140 171 l37 20 83 -29 c78 -27 85 -28 132 -15 39 11 64 29 126 89 118 117 131 125 211 125 l69 1 24 -45 c14 -25 33 -58 43 -75 48 -79 73 -123 87 -157 9 -21 20 -38 25 -38 5 0 9 -7 9 -16 0 -9 8 -28 18 -42 10 -15 51 -92 91 -172 41 -80 75 -147 77 -149 3 -3 10 1 16 7 14 14 28 16 28 3 0 -6 15 -31 33 -57 17 -25 37 -53 42 -62 54 -86 191 -288 197 -290 4 -2 8 -8 8 -13 0 -6 13 -27 28 -47 16 -20 73 -97 127 -170 54 -72 102 -132 107 -132 4 0 8 -7 8 -15 0 -8 4 -15 8 -15 4 0 25 -24 47 -52 21 -29 44 -58 49 -63 14 -13 31 -43 70 -120 28 -55 30 -68 30 -155 -1 -95 -2 -100 -53 -210 -6 -14 -20 -40 -31 -57 -44 -72 -61 -101 -104 -178 -60 -107 -70 -136 -54 -147 18 -11 67 1 100 24 32 22 98 100 98 115 0 6 27 38 60 72 50 50 66 61 93 61 40 0 53 -19 97 -150 18 -52 38 -106 45 -120 7 -14 34 -68 60 -120 58 -118 78 -152 127 -214 41 -52 87 -82 112 -73 17 7 7 58 -24 117 -87 167 -220 455 -220 475 0 27 17 24 43 -8 53 -65 65 -84 117 -182 58 -111 114 -201 139 -226 9 -9 30 -33 46 -54 69 -86 152 -127 174 -87 8 15 8 29 1 48 -9 23 -8 29 5 37 13 7 15 17 10 44 -3 20 -10 43 -14 52 -44 90 -117 234 -136 266 -13 22 -27 47 -31 55 -4 8 -25 41 -46 73 -23 36 -38 70 -38 89 0 30 1 31 43 25 23 -2 77 -21 121 -42 43 -20 96 -40 117 -42 37 -5 39 -4 39 20 0 27 -56 79 -145 135 -49 30 -175 141 -272 239 -40 40 -77 73 -82 73 -5 0 -11 4 -13 9 -1 5 -35 33 -74 62 -63 47 -132 122 -171 184 -22 35 -99 197 -147 310 -26 61 -51 119 -56 130 -5 11 -20 48 -34 83 -86 207 -92 222 -125 297 -13 28 -29 64 -36 80 -23 55 -67 150 -81 176 -7 14 -11 29 -8 32 5 5 -2 28 -51 162 -15 39 -32 88 -40 110 -7 22 -23 65 -35 95 -12 30 -31 80 -42 110 -11 30 -24 59 -29 65 -5 5 -9 16 -9 25 -1 8 -9 33 -20 55 -11 22 -19 43 -20 48 0 4 -9 26 -19 50 -11 23 -31 71 -44 107 -23 57 -46 113 -77 185 -5 11 -30 70 -55 130 -59 139 -67 157 -99 226 -14 31 -26 59 -26 63 0 4 -15 39 -33 79 -19 40 -42 91 -52 115 -10 23 -21 42 -25 42 -4 0 -17 30 -29 67 -12 37 -28 78 -35 92 -16 33 -46 97 -86 186 -18 39 -45 97 -60 130 -15 33 -31 70 -34 81 -4 12 -15 32 -26 44 -11 13 -20 31 -20 41 0 9 -6 30 -14 46 -40 82 -126 272 -126 278 0 3 -19 47 -43 98 -58 122 -84 265 -93 502 -1 50 -8 119 -15 154 -9 47 -10 118 -3 265 10 242 11 542 1 687 l-7 106 52 -4 c37 -3 59 0 73 10 18 14 18 17 5 42 -8 15 -24 32 -35 37 -11 5 -34 17 -51 26 -30 17 -29 18 65 14 101 -4 570 22 609 34 26 7 28 30 6 62 -15 22 -15 22 29 22 99 0 144 42 91 86 -57 46 -124 59 -304 57 -91 -1 -196 -7 -235 -12 -106 -16 -295 -13 -325 4 -14 8 -19 14 -12 15 35 1 434 186 490 227 57 43 44 53 -65 52 -83 0 -109 -5 -168 -28z m-1402 -819 l128 -129 -41 -269 c-22 -148 -50 -330 -61 -404 -11 -74 -26 -175 -34 -225 -20 -123 -91 -601 -106 -705 -18 -133 -24 -133 -43 -4 -9 66 -32 220 -51 344 -19 124 -52 347 -75 495 -22 149 -58 380 -79 515 l-38 245 131 133 c72 72 133 132 136 132 3 0 63 -58 133 -128z m834 -874 c-67 -82 -85 -199 -47 -300 24 -64 55 -99 136 -156 84 -59 108 -103 107 -201 -1 -42 -8 -104 -17 -137 -21 -83 -46 -213 -46 -244 0 -86 47 -150 153 -209 128 -71 230 -173 257 -257 20 -60 9 -155 -24 -204 -50 -75 -76 -132 -76 -165 0 -106 82 -207 225 -275 49 -24 84 -45 77 -48 -18 -6 -167 76 -216 119 -58 51 -97 130 -98 198 0 54 13 86 73 180 29 47 34 63 34 115 0 40 -7 75 -20 101 -31 65 -140 166 -239 221 -63 36 -98 63 -120 93 -30 42 -31 46 -30 145 0 69 7 126 21 181 28 103 37 183 28 241 -8 54 -50 106 -126 155 -102 65 -154 193 -128 317 14 68 29 100 71 147 43 50 48 35 5 -17z m-837 -1493 l-130 -130 -132 132 -133 133 130 130 130 130 132 -132 133 -133 -130 -130z m1499 -1297 c6 -13 20 -36 31 -53 11 -16 27 -43 36 -60 9 -16 23 -38 31 -47 14 -16 13 -17 -18 -7 -79 23 -145 -10 -261 -129 -45 -46 -81 -73 -108 -82 -38 -13 -47 -12 -120 14 -79 27 -106 27 -154 2 -47 -25 -95 -84 -142 -176 -7 -14 -31 -43 -54 -65 -40 -40 -42 -40 -113 -39 -45 1 -94 9 -131 23 -33 11 -82 21 -110 21 l-51 1 24 19 c21 18 36 20 142 17 l118 -2 41 40 c23 22 65 76 94 120 59 89 99 133 134 146 13 5 81 9 151 9 126 0 129 0 169 30 23 16 70 64 104 106 63 77 130 133 159 134 9 0 21 -10 28 -22z m1865 -2593 c40 -82 66 -145 61 -145 -3 0 -32 46 -60 95 -7 11 -35 58 -63 104 -29 46 -52 89 -52 95 1 23 82 -83 114 -149z"/>
 <path d="M5638 2392 c-16 -9 -28 -22 -28 -29 0 -7 -4 -13 -8 -13 -5 0 -9 -20 -11 -45 -1 -25 2 -45 8 -45 5 0 12 -8 16 -18 11 -37 88 -54 139 -31 36 17 61 85 46 124 -20 52 -49 75 -94 75 -23 0 -53 -8 -68 -18z"/>
 <path d="M4715 1714 c-27 -7 -66 -20 -85 -28 -19 -8 -52 -17 -72 -21 -21 -3 -40 -9 -42 -14 -6 -9 8 -68 28 -121 8 -19 21 -61 31 -94 16 -55 18 -58 43 -52 15 4 43 10 62 15 19 4 45 13 57 19 12 7 44 17 72 23 28 6 53 15 56 19 3 5 -1 26 -10 46 -8 20 -15 45 -15 56 0 11 -6 34 -14 51 -8 18 -20 51 -26 75 -12 46 -12 46 -85 26z"/>
 <path d="M5135 733 c-11 -2 -38 -11 -60 -20 -22 -8 -71 -23 -110 -33 -59 -14 -69 -20 -67 -36 2 -10 5 -23 5 -29 1 -5 4 -12 7 -15 5 -5 11 -25 46 -150 9 -30 19 -59 24 -64 5 -5 31 0 62 11 29 11 88 31 131 44 42 12 77 27 77 33 -1 12 -32 123 -48 171 -6 17 -14 43 -19 59 -9 31 -16 36 -48 29z"/>
 <path d="M4388 368 c-22 -7 -27 -15 -23 -31 3 -12 7 -32 8 -45 5 -36 22 -47 52 -34 14 7 36 12 49 12 13 0 26 7 30 15 3 8 1 15 -4 15 -5 0 -13 18 -16 40 -6 37 -9 40 -38 39 -17 0 -43 -5 -58 -11z"/>
 </g>
<g id="layer104" fill="#e94b48" stroke="none">
 <path d="M3965 8041 c-38 -15 -99 -41 -135 -58 -36 -16 -94 -40 -129 -53 -69 -25 -86 -26 -500 -22 -223 2 -189 8 -451 -74 -156 -49 -234 -57 -387 -39 -175 20 -198 26 -198 50 0 19 -11 20 -400 25 -220 3 -596 4 -837 2 l-436 -3 -34 -33 c-56 -55 -94 -188 -113 -396 -2 -25 -8 -67 -12 -95 -4 -27 -6 -62 -6 -77 1 -16 -2 -28 -6 -28 -5 0 -8 -12 -8 -27 0 -16 -3 -44 -6 -63 -4 -19 -9 -60 -12 -90 -3 -30 -15 -116 -26 -190 -20 -139 -42 -292 -79 -555 -12 -82 -30 -206 -40 -275 -11 -69 -21 -143 -24 -165 -4 -40 -6 -52 -26 -175 -12 -73 -16 -107 -26 -232 -6 -88 -6 -88 17 -88 24 0 187 -24 404 -60 l110 -18 -81 -1 c-75 -1 -83 -3 -98 -26 -9 -13 -16 -29 -16 -36 0 -6 -10 -25 -22 -42 -13 -18 -24 -40 -24 -49 -1 -17 23 -18 372 -18 l372 0 34 -52 c18 -29 34 -56 36 -60 2 -5 -197 -8 -441 -8 l-445 0 -33 -66 c-18 -36 -37 -68 -41 -70 -4 -3 -8 -14 -8 -25 0 -19 12 -19 544 -19 l543 0 42 -60 41 -60 -585 2 c-385 2 -585 0 -585 -7 1 -5 71 -45 158 -88 l157 -77 299 -3 299 -2 -44 -30 c-24 -16 -57 -41 -72 -55 -34 -29 -24 -27 -132 -29 -48 0 -85 -5 -85 -11 0 -5 25 -22 55 -37 l55 -28 -38 -56 c-55 -81 -142 -262 -142 -296 0 -10 -4 -23 -9 -28 -6 -6 -17 -35 -25 -65 -8 -30 -23 -77 -32 -105 -24 -71 -27 -79 -28 -85 -1 -3 -6 -23 -13 -45 -31 -106 -53 -215 -53 -260 0 -45 3 -52 33 -72 42 -29 99 -30 167 -3 99 39 158 20 227 -73 60 -81 83 -115 83 -125 0 -4 20 -28 45 -52 l46 -45 77 0 c70 0 83 3 152 40 91 48 169 55 217 19 37 -28 92 -130 117 -219 16 -57 56 -136 85 -168 36 -40 73 -57 121 -57 39 0 58 7 185 65 78 35 100 38 143 16 20 -11 47 -28 59 -40 11 -11 45 -35 74 -53 51 -31 59 -33 145 -32 81 0 96 4 135 27 69 42 94 68 120 127 34 73 49 111 49 119 0 45 121 56 212 20 39 -16 75 -22 134 -22 71 -1 87 2 118 24 20 13 39 32 42 42 3 9 9 17 14 17 4 0 15 15 24 33 43 84 94 147 140 171 l37 20 83 -29 c78 -27 85 -28 132 -15 39 11 64 29 126 89 118 117 131 125 211 125 l69 1 24 -45 c14 -25 33 -58 43 -75 48 -79 73 -123 87 -157 9 -21 20 -38 25 -38 5 0 9 -7 9 -16 0 -9 8 -28 18 -42 10 -15 51 -92 91 -172 41 -80 75 -147 77 -149 3 -3 10 1 16 7 14 14 28 16 28 3 0 -6 15 -31 33 -57 17 -25 37 -53 42 -62 54 -86 191 -288 197 -290 4 -2 8 -8 8 -13 0 -6 13 -27 28 -47 16 -20 73 -97 127 -170 54 -72 102 -132 107 -132 4 0 8 -7 8 -15 0 -8 4 -15 8 -15 4 0 25 -24 47 -52 21 -29 44 -58 49 -63 14 -13 31 -43 70 -120 28 -55 30 -68 30 -155 -1 -95 -2 -100 -53 -210 -6 -14 -20 -40 -31 -57 -44 -72 -61 -101 -104 -178 -60 -107 -70 -136 -54 -147 18 -11 67 1 100 24 32 22 98 100 98 115 0 6 27 38 60 72 50 50 66 61 93 61 40 0 53 -19 97 -150 18 -52 38 -106 45 -120 7 -14 34 -68 60 -120 58 -118 78 -152 127 -214 41 -52 87 -82 112 -73 17 7 7 58 -24 117 -87 167 -220 455 -220 475 0 27 17 24 43 -8 53 -65 65 -84 117 -182 58 -111 114 -201 139 -226 9 -9 30 -33 46 -54 69 -86 152 -127 174 -87 8 15 8 29 1 48 -9 23 -8 29 5 37 13 7 15 17 10 44 -3 20 -10 43 -14 52 -44 90 -117 234 -136 266 -13 22 -27 47 -31 55 -4 8 -25 41 -46 73 -23 36 -38 70 -38 89 0 30 1 31 43 25 23 -2 77 -21 121 -42 43 -20 96 -40 117 -42 37 -5 39 -4 39 20 0 27 -56 79 -145 135 -49 30 -175 141 -272 239 -40 40 -77 73 -82 73 -5 0 -11 4 -13 9 -1 5 -35 33 -74 62 -63 47 -132 122 -171 184 -22 35 -99 197 -147 310 -26 61 -51 119 -56 130 -5 11 -20 48 -34 83 -86 207 -92 222 -125 297 -13 28 -29 64 -36 80 -23 55 -67 150 -81 176 -7 14 -11 29 -8 32 5 5 -2 28 -51 162 -15 39 -32 88 -40 110 -7 22 -23 65 -35 95 -12 30 -31 80 -42 110 -11 30 -24 59 -29 65 -5 5 -9 16 -9 25 -1 8 -9 33 -20 55 -11 22 -19 43 -20 48 0 4 -9 26 -19 50 -11 23 -31 71 -44 107 -23 57 -46 113 -77 185 -5 11 -30 70 -55 130 -59 139 -67 157 -99 226 -14 31 -26 59 -26 63 0 4 -15 39 -33 79 -19 40 -42 91 -52 115 -10 23 -21 42 -25 42 -9 0 -40 73 -40 94 0 10 -8 35 -18 55 -22 44 -50 103 -92 196 -18 39 -45 98 -61 131 -16 34 -29 66 -29 71 0 5 -11 24 -25 43 -14 19 -25 42 -25 51 0 10 -6 30 -14 46 -7 15 -24 51 -36 78 -13 28 -29 61 -36 75 -7 14 -33 75 -59 135 -26 61 -55 126 -65 145 -31 62 -59 242 -65 433 -2 60 -9 131 -16 159 -9 38 -10 106 -4 262 10 256 11 565 1 702 l-7 101 53 -4 c37 -3 59 0 73 10 18 14 18 17 5 42 -8 15 -24 32 -35 37 -11 5 -34 17 -51 26 -30 17 -29 18 65 14 101 -4 570 22 609 34 26 7 28 30 6 62 -15 22 -15 22 29 22 99 0 144 42 91 86 -57 46 -124 59 -304 57 -91 -1 -196 -7 -235 -12 -106 -16 -295 -13 -325 4 -14 8 -19 14 -12 15 35 1 434 186 490 227 57 43 44 53 -65 52 -83 0 -109 -5 -168 -28z m-1401 -820 l129 -129 -7 -44 c-4 -23 -18 -115 -31 -203 -13 -88 -35 -236 -49 -330 -15 -93 -35 -228 -46 -300 -11 -71 -37 -247 -59 -390 -21 -143 -45 -298 -51 -345 -19 -127 -25 -133 -39 -39 -30 205 -63 422 -76 509 -8 52 -26 170 -40 263 -32 213 -71 472 -91 607 -9 58 -22 143 -30 190 l-14 85 127 127 c70 71 132 128 138 128 6 0 68 -58 139 -129z m859 -843 c-94 -104 -116 -238 -59 -355 24 -50 36 -62 136 -136 25 -18 55 -52 68 -74 40 -74 39 -136 -9 -348 -28 -123 -31 -164 -15 -219 18 -63 51 -93 176 -166 89 -52 178 -139 211 -206 17 -36 23 -66 23 -114 0 -59 -3 -70 -40 -125 -86 -129 -91 -178 -31 -279 39 -66 69 -91 172 -146 44 -23 84 -46 90 -51 20 -19 -23 -8 -90 24 -80 38 -177 123 -204 176 -44 88 -32 183 35 270 62 80 67 156 18 248 -40 77 -115 145 -229 207 -82 46 -116 76 -138 124 -17 40 -19 60 -14 146 3 56 15 133 26 171 58 204 35 280 -114 385 -60 43 -89 84 -111 158 -29 102 -3 224 64 295 38 39 70 53 35 15z m-862 -1259 l132 -131 -129 -129 c-71 -71 -132 -129 -135 -129 -4 0 -65 58 -136 129 l-130 130 131 130 c72 72 132 131 133 131 1 0 62 -59 134 -131z m1498 -1561 c6 -13 20 -36 31 -53 11 -16 27 -43 36 -60 9 -16 23 -38 31 -47 14 -16 13 -17 -18 -7 -79 23 -145 -10 -261 -129 -45 -46 -81 -73 -108 -82 -38 -13 -47 -12 -120 14 -79 27 -106 27 -154 2 -47 -25 -95 -84 -142 -176 -7 -14 -31 -43 -54 -65 -40 -40 -42 -40 -113 -39 -45 1 -94 9 -131 23 -33 11 -82 21 -110 21 l-51 1 24 19 c21 18 36 20 142 17 l118 -2 41 40 c23 22 65 76 94 120 59 89 99 133 134 146 13 5 81 9 151 9 126 0 129 0 169 30 23 16 70 64 104 106 63 77 130 133 159 134 9 0 21 -10 28 -22z m1865 -2593 c40 -82 66 -145 61 -145 -3 0 -32 46 -60 95 -7 11 -35 58 -63 104 -29 46 -52 89 -52 95 1 23 82 -83 114 -149z"/>
 <path d="M5638 2392 c-16 -9 -28 -22 -28 -29 0 -7 -4 -13 -8 -13 -5 0 -9 -20 -11 -45 -1 -25 2 -45 8 -45 5 0 12 -8 16 -18 11 -37 88 -54 139 -31 36 17 61 85 46 124 -20 52 -49 75 -94 75 -23 0 -53 -8 -68 -18z"/>
 <path d="M4705 1711 c-33 -10 -70 -23 -82 -29 -12 -7 -31 -12 -42 -12 -11 0 -31 -4 -44 -9 -24 -9 -25 -12 -16 -53 5 -24 15 -59 23 -78 7 -19 21 -61 31 -94 19 -65 11 -63 115 -31 30 9 80 23 110 32 30 8 59 18 63 23 5 4 1 24 -7 45 -9 21 -16 46 -16 57 0 11 -6 34 -14 51 -8 18 -20 51 -26 75 -12 47 -11 47 -95 23z"/>
 <path d="M5135 733 c-11 -2 -38 -11 -60 -20 -22 -8 -71 -23 -110 -33 -59 -14 -69 -20 -67 -36 2 -10 5 -23 5 -29 1 -5 4 -12 7 -15 5 -5 11 -25 46 -150 9 -30 19 -59 24 -64 5 -5 31 0 62 11 29 11 88 31 131 44 42 12 77 27 77 33 -1 12 -32 123 -48 171 -6 17 -14 43 -19 59 -9 31 -16 36 -48 29z"/>
 <path d="M4388 368 c-22 -7 -27 -15 -23 -31 3 -12 7 -32 8 -45 5 -36 22 -47 52 -34 14 7 36 12 49 12 13 0 26 7 30 15 3 8 1 15 -4 15 -5 0 -13 18 -16 40 -6 37 -9 40 -38 39 -17 0 -43 -5 -58 -11z"/>
 </g>
<g id="layer105" fill="#7f82a4" stroke="none">
 <path d="M3965 8041 c-38 -15 -99 -41 -135 -58 -36 -16 -94 -40 -129 -53 -69 -25 -86 -26 -500 -22 -223 2 -189 8 -451 -74 -156 -49 -234 -57 -387 -39 -175 20 -198 26 -198 50 0 19 -11 20 -400 25 -220 3 -596 4 -837 2 l-436 -3 -34 -33 c-56 -55 -94 -188 -113 -396 -2 -25 -8 -67 -12 -95 -4 -27 -6 -62 -6 -77 1 -16 -2 -28 -6 -28 -5 0 -8 -12 -8 -27 0 -16 -2 -41 -5 -58 -3 -16 -8 -57 -12 -90 -4 -33 -16 -121 -27 -195 -20 -139 -42 -292 -79 -555 -12 -82 -30 -206 -40 -275 -11 -69 -21 -143 -24 -165 -4 -40 -6 -52 -26 -175 -12 -73 -16 -107 -26 -232 -6 -88 -6 -88 17 -88 24 0 187 -24 404 -60 l110 -18 -81 -1 c-75 -1 -83 -3 -98 -26 -9 -13 -16 -29 -16 -36 0 -6 -10 -25 -22 -42 -13 -18 -24 -40 -24 -49 -1 -17 23 -18 372 -18 l372 0 34 -52 c18 -29 34 -56 36 -60 2 -5 -197 -8 -441 -8 l-445 0 -33 -66 c-18 -36 -37 -68 -41 -70 -4 -3 -8 -14 -8 -25 0 -19 12 -19 544 -19 l543 0 42 -60 41 -60 -585 2 c-385 2 -585 0 -585 -7 1 -5 71 -45 158 -87 l157 -78 800 4 c474 3 813 8 831 14 l31 10 7 -52 c8 -66 8 -183 0 -334 l-7 -120 -62 -40 c-59 -37 -62 -42 -68 -87 -4 -26 -20 -71 -37 -100 -16 -29 -30 -62 -30 -74 0 -12 16 -43 35 -68 48 -63 47 -95 -5 -129 -22 -15 -40 -33 -40 -41 0 -14 58 -73 72 -73 18 0 48 -42 48 -65 0 -14 -9 -43 -20 -65 -11 -22 -20 -41 -20 -43 0 -2 19 -1 43 4 75 15 298 11 383 -6 87 -18 213 -64 277 -101 23 -13 45 -24 49 -24 4 0 16 30 28 66 28 92 28 260 -1 370 -23 91 -91 225 -148 293 l-39 46 3 300 c3 243 6 299 17 296 7 -2 78 -6 158 -8 195 -7 284 15 422 104 15 9 29 15 30 13 2 -3 36 -43 74 -90 254 -306 626 -822 693 -960 11 -25 41 -76 66 -115 24 -38 50 -81 58 -95 7 -14 23 -42 35 -62 12 -21 30 -53 41 -70 10 -18 30 -53 45 -78 14 -25 33 -62 42 -82 9 -21 20 -38 25 -38 5 0 9 -7 9 -16 0 -9 8 -28 18 -42 10 -15 51 -92 91 -172 41 -80 75 -147 77 -149 3 -3 10 1 16 7 14 14 28 16 28 3 0 -6 15 -31 33 -57 17 -25 37 -53 42 -62 54 -86 191 -288 197 -290 4 -2 8 -8 8 -13 0 -6 13 -27 28 -47 16 -20 68 -91 117 -156 48 -65 96 -127 105 -136 10 -10 41 -49 70 -86 29 -38 55 -71 59 -74 8 -7 28 -42 65 -115 28 -55 30 -68 30 -155 -1 -95 -2 -100 -53 -210 -6 -14 -20 -40 -31 -57 -44 -72 -61 -101 -104 -178 -60 -107 -70 -136 -54 -147 18 -11 67 0 99 23 30 21 99 103 99 117 0 6 27 38 60 71 49 50 66 61 93 61 40 0 52 -19 97 -150 18 -52 38 -106 45 -120 7 -14 34 -68 60 -120 58 -118 78 -152 127 -214 41 -52 87 -82 112 -73 17 7 7 58 -24 117 -87 167 -220 455 -220 475 0 27 17 24 43 -8 53 -64 65 -84 112 -172 63 -121 108 -195 117 -195 5 0 8 -6 8 -13 0 -7 8 -20 18 -28 9 -9 31 -33 47 -54 69 -85 152 -127 174 -87 8 15 8 29 1 48 -9 23 -8 29 5 37 13 7 15 17 10 44 -3 20 -10 43 -14 52 -44 90 -117 234 -136 266 -13 22 -27 47 -31 55 -4 8 -25 41 -46 73 -22 34 -38 71 -38 88 0 26 3 29 31 29 16 0 77 -20 133 -45 121 -53 156 -57 156 -20 0 25 -58 78 -145 133 -49 30 -175 141 -272 239 -40 40 -77 73 -82 73 -5 0 -11 4 -13 9 -1 5 -35 33 -74 62 -63 47 -132 122 -171 184 -22 35 -99 197 -147 310 -26 61 -51 119 -56 130 -5 11 -21 49 -35 85 -53 129 -107 256 -127 300 -11 25 -26 59 -33 75 -23 55 -67 150 -81 176 -7 14 -11 29 -8 32 5 5 -2 28 -51 162 -15 39 -32 88 -40 110 -7 22 -23 65 -35 95 -12 30 -31 80 -42 110 -11 30 -24 59 -29 65 -5 5 -9 16 -9 25 -1 8 -9 33 -20 55 -11 22 -19 43 -20 48 0 4 -9 26 -19 50 -11 23 -31 71 -44 107 -23 57 -46 113 -77 185 -5 11 -30 70 -55 130 -59 139 -67 157 -99 226 -14 31 -26 59 -26 63 0 4 -15 39 -33 79 -19 40 -42 91 -52 115 -10 23 -21 42 -25 42 -9 0 -40 73 -40 94 0 10 -8 35 -18 55 -22 44 -50 103 -92 196 -18 39 -45 98 -61 131 -16 34 -29 66 -29 71 0 5 -11 24 -25 43 -14 19 -25 42 -25 51 0 10 -6 30 -14 46 -7 15 -24 51 -36 78 -13 28 -29 61 -36 75 -7 14 -33 75 -59 135 -26 61 -55 126 -65 145 -31 60 -58 241 -65 433 -2 60 -9 131 -16 159 -9 38 -10 106 -4 262 10 256 11 565 1 702 l-7 101 53 -4 c37 -3 59 0 73 10 18 14 18 17 5 42 -8 15 -24 32 -35 37 -11 5 -34 17 -51 26 -30 17 -29 18 65 14 101 -4 570 22 609 34 26 7 28 30 6 62 -15 22 -15 22 29 22 99 0 144 42 91 86 -57 46 -124 59 -304 57 -91 -1 -196 -7 -235 -12 -106 -16 -295 -13 -325 4 -14 8 -19 14 -12 15 34 1 451 195 498 232 48 38 33 48 -73 47 -83 0 -109 -5 -168 -28z m-1401 -820 l129 -129 -7 -44 c-4 -23 -18 -115 -31 -203 -13 -88 -35 -236 -49 -330 -15 -93 -35 -228 -46 -300 -11 -71 -37 -247 -59 -390 -21 -143 -45 -298 -51 -345 -19 -127 -25 -133 -39 -39 -30 205 -63 422 -76 509 -8 52 -26 170 -40 263 -32 213 -71 472 -91 607 -9 58 -22 143 -30 190 l-14 85 127 127 c70 71 132 128 138 128 6 0 68 -58 139 -129z m859 -843 c-94 -104 -116 -238 -59 -355 24 -50 36 -62 136 -136 25 -18 55 -52 68 -74 40 -74 39 -136 -9 -348 -28 -123 -31 -164 -15 -219 18 -63 51 -93 176 -166 89 -52 178 -139 211 -206 17 -36 23 -66 23 -114 0 -59 -3 -70 -40 -125 -86 -129 -91 -178 -31 -279 39 -66 69 -91 172 -146 44 -23 84 -46 90 -51 20 -19 -23 -8 -90 24 -80 38 -177 123 -204 176 -44 88 -32 183 35 270 62 80 67 156 18 248 -40 77 -115 145 -229 207 -82 46 -116 76 -138 124 -17 40 -19 60 -14 146 3 56 15 133 26 171 58 204 35 280 -114 385 -60 43 -89 84 -111 158 -29 102 -3 224 64 295 38 39 70 53 35 15z m-862 -1259 l132 -131 -129 -129 c-71 -71 -132 -129 -135 -129 -4 0 -65 58 -136 129 l-130 130 131 130 c72 72 132 131 133 131 1 0 62 -59 134 -131z m3363 -4154 c40 -82 66 -145 61 -145 -3 0 -32 46 -60 95 -7 11 -35 58 -63 104 -29 46 -52 89 -52 95 1 23 82 -83 114 -149z"/>
 <path d="M878 4422 c-49 -1 -88 -7 -88 -11 0 -9 27 -23 205 -105 l100 -47 273 3 274 3 39 73 39 72 -368 0 c-202 0 -372 3 -377 8 -6 4 -49 6 -97 4z"/>
 <path d="M1390 4112 c0 -8 130 -76 134 -70 54 74 51 78 -49 78 -47 0 -85 -4 -85 -8z"/>
 <path d="M1993 3893 c-46 -70 -60 -101 -89 -200 -32 -109 -43 -291 -24 -400 6 -40 13 -73 13 -73 1 0 31 11 66 24 59 21 68 28 94 75 37 64 31 87 -28 125 -78 49 -87 92 -25 131 50 32 51 53 5 109 -44 54 -45 89 -4 161 17 30 29 63 27 75 -2 17 -9 12 -35 -27z"/>
 <path d="M5638 2392 c-16 -9 -28 -22 -28 -29 0 -7 -4 -13 -9 -13 -4 0 -8 -20 -8 -45 0 -25 3 -45 8 -45 4 0 10 -8 13 -17 12 -36 90 -54 138 -32 27 12 51 60 50 100 -2 80 -94 125 -164 81z"/>
 <path d="M4705 1711 c-33 -10 -70 -23 -82 -29 -12 -7 -31 -12 -42 -12 -11 0 -31 -4 -44 -9 -24 -9 -25 -12 -16 -53 5 -24 15 -59 23 -78 7 -19 21 -61 31 -94 19 -65 11 -63 115 -31 30 9 80 23 110 32 30 8 59 18 63 23 5 4 1 24 -7 45 -9 21 -16 46 -16 56 0 10 -7 33 -15 51 -8 18 -19 52 -25 76 -12 47 -11 47 -95 23z"/>
 <path d="M4388 369 c-24 -9 -26 -14 -21 -42 12 -65 22 -80 46 -72 12 4 36 9 54 12 28 4 57 33 33 33 -5 0 -13 18 -16 40 -6 37 -9 40 -38 39 -17 0 -43 -5 -58 -10z"/>
 </g>
<g id="layer106" fill="#3f8af8" stroke="none">
 <path d="M3965 8041 c-38 -15 -99 -41 -135 -58 -36 -16 -94 -40 -129 -53 -69 -25 -86 -26 -500 -22 -223 2 -189 8 -451 -74 -156 -49 -234 -57 -387 -39 -175 20 -198 26 -198 50 0 19 -11 20 -400 25 -220 3 -596 4 -837 2 l-436 -3 -34 -33 c-56 -55 -94 -188 -113 -396 -2 -25 -8 -67 -12 -95 -4 -27 -6 -62 -6 -77 1 -16 -2 -28 -6 -28 -5 0 -8 -12 -8 -27 0 -16 -2 -41 -5 -58 -3 -16 -8 -57 -12 -90 -4 -33 -16 -121 -27 -195 -20 -139 -42 -292 -79 -555 -12 -82 -30 -206 -40 -275 -11 -69 -21 -143 -24 -165 -4 -40 -6 -52 -26 -175 -12 -73 -16 -107 -26 -232 -6 -88 -6 -88 17 -88 24 0 187 -24 404 -60 l110 -18 -81 -1 c-75 -1 -83 -3 -98 -26 -9 -13 -16 -29 -16 -36 0 -6 -10 -25 -22 -42 -13 -18 -24 -40 -24 -49 -1 -17 23 -18 372 -18 l372 0 34 -52 c18 -29 34 -56 36 -60 2 -5 -197 -8 -441 -8 l-445 0 -33 -66 c-18 -36 -37 -68 -41 -70 -4 -3 -8 -14 -8 -25 0 -19 12 -19 544 -19 l543 0 42 -60 41 -60 -585 2 c-385 2 -585 0 -584 -7 0 -5 71 -45 157 -87 l157 -78 800 4 c474 3 813 8 831 14 l31 10 7 -52 c8 -66 8 -183 0 -334 l-7 -120 -62 -40 c-59 -37 -62 -42 -68 -87 -4 -26 -20 -71 -37 -100 -16 -29 -30 -62 -30 -74 0 -12 16 -43 35 -68 48 -63 47 -95 -5 -129 -22 -15 -40 -33 -40 -41 0 -14 58 -73 72 -73 18 0 48 -42 48 -65 0 -14 -9 -43 -20 -65 -11 -22 -20 -41 -20 -43 0 -2 19 -1 43 4 75 15 298 11 383 -6 87 -18 213 -64 277 -101 23 -13 45 -24 49 -24 4 0 16 30 28 66 28 92 28 260 -1 370 -23 91 -91 225 -148 293 l-39 46 3 300 c3 243 6 299 17 296 7 -2 78 -6 158 -8 195 -7 284 15 422 104 15 9 29 15 30 13 2 -3 36 -43 74 -90 254 -306 626 -822 693 -960 11 -25 41 -76 66 -115 24 -38 50 -81 58 -95 7 -14 23 -42 35 -62 12 -21 30 -53 41 -70 10 -18 30 -53 45 -78 14 -25 33 -62 42 -82 9 -21 20 -38 25 -38 5 0 9 -7 9 -16 0 -9 8 -28 18 -42 10 -15 51 -92 91 -172 41 -80 75 -147 77 -149 3 -3 10 1 16 7 14 14 28 16 28 3 0 -6 15 -31 33 -57 17 -25 37 -53 42 -62 54 -86 191 -288 197 -290 4 -2 8 -8 8 -13 0 -6 13 -27 28 -47 16 -20 68 -91 117 -156 48 -65 96 -127 105 -136 10 -10 41 -49 70 -86 29 -38 55 -71 59 -74 8 -7 28 -42 65 -115 28 -55 30 -68 30 -155 -1 -95 -2 -100 -53 -210 -6 -14 -20 -40 -31 -57 -44 -72 -61 -101 -104 -178 -60 -107 -70 -136 -54 -147 18 -11 67 0 99 23 30 21 99 103 99 117 0 6 27 38 60 71 49 50 66 61 93 61 40 0 52 -19 97 -150 18 -52 38 -106 45 -120 7 -14 34 -68 60 -120 58 -118 78 -152 127 -214 41 -52 87 -82 112 -73 17 7 6 58 -24 117 -75 142 -220 455 -220 475 0 27 17 24 43 -8 53 -64 65 -84 112 -172 63 -121 108 -195 117 -195 5 0 8 -6 8 -13 0 -7 8 -20 18 -28 9 -9 31 -33 47 -54 69 -85 152 -127 174 -87 8 15 8 29 1 48 -9 23 -8 29 5 37 13 7 15 17 10 44 -3 20 -10 43 -14 52 -44 90 -117 234 -136 266 -13 22 -27 47 -31 55 -4 8 -25 41 -46 73 -22 34 -38 71 -38 88 0 26 3 29 31 29 16 0 77 -20 133 -45 121 -53 156 -57 156 -20 0 25 -58 78 -145 133 -49 30 -175 141 -272 239 -40 40 -77 73 -82 73 -5 0 -11 3 -13 8 -1 4 -35 32 -75 63 -63 48 -132 124 -170 184 -22 35 -99 197 -147 310 -26 61 -51 119 -56 130 -5 11 -21 49 -35 85 -53 129 -107 256 -127 300 -11 25 -26 59 -33 75 -23 55 -67 150 -81 176 -7 14 -11 29 -8 32 5 5 -2 28 -51 162 -15 39 -32 88 -40 110 -7 22 -23 65 -35 95 -12 30 -29 73 -37 95 -8 22 -21 54 -28 70 -7 17 -25 62 -40 100 -15 39 -33 84 -40 100 -7 17 -25 59 -38 95 -23 57 -46 112 -77 185 -5 11 -30 70 -55 130 -59 139 -67 157 -99 226 -14 31 -26 59 -26 63 0 4 -15 39 -33 79 -19 40 -42 91 -52 115 -10 23 -21 42 -25 42 -10 0 -40 68 -40 91 0 12 -8 38 -18 58 -22 44 -50 103 -92 196 -18 39 -45 98 -61 131 -16 34 -29 66 -29 71 0 5 -11 24 -25 43 -14 19 -25 42 -25 51 0 10 -6 30 -14 46 -7 15 -24 51 -36 78 -13 28 -27 59 -33 70 -6 11 -36 80 -68 154 -32 73 -66 142 -75 152 -9 10 -13 22 -10 27 3 6 -1 42 -9 82 -8 39 -15 91 -15 116 0 24 -4 44 -9 44 -5 0 -9 60 -9 133 0 88 -4 141 -12 157 -14 26 -15 213 -3 385 9 126 9 458 -1 591 l-7 101 53 -4 c37 -3 59 0 73 10 18 14 18 17 5 42 -8 15 -24 32 -35 37 -11 5 -34 17 -51 26 -30 17 -29 18 65 14 101 -4 570 22 609 34 26 7 28 30 6 62 -15 22 -15 22 29 22 99 0 144 42 91 86 -57 46 -124 59 -304 57 -91 -1 -196 -7 -235 -12 -106 -16 -295 -13 -325 4 -14 8 -19 14 -12 15 34 1 451 195 498 232 48 38 33 48 -73 47 -83 0 -109 -5 -168 -28z m-1409 -811 c71 -72 130 -139 132 -150 2 -10 -15 -139 -38 -287 -22 -147 -56 -374 -76 -503 -19 -129 -50 -336 -69 -460 -19 -124 -41 -277 -50 -340 -23 -160 -29 -169 -44 -69 -6 46 -30 203 -52 349 -22 146 -51 339 -65 430 -13 91 -31 208 -39 260 -8 52 -26 172 -40 265 -14 94 -33 214 -41 269 l-16 99 133 133 c74 74 134 134 135 134 0 0 59 -59 130 -130z m856 -872 c-123 -129 -96 -349 57 -447 137 -88 155 -162 101 -406 -36 -161 -38 -239 -10 -295 20 -40 62 -71 175 -135 69 -39 156 -125 190 -186 19 -35 29 -71 32 -113 5 -66 -4 -89 -77 -204 -27 -42 -34 -63 -33 -101 1 -105 81 -198 232 -272 54 -27 80 -44 73 -51 -15 -15 -182 74 -235 125 -74 72 -108 161 -93 240 4 19 25 63 48 98 23 35 47 84 55 109 35 117 -78 274 -267 370 -56 29 -93 62 -126 114 -25 40 -23 174 4 281 60 237 49 316 -57 387 -71 47 -110 88 -139 143 -23 44 -26 62 -26 145 0 79 3 102 22 137 33 62 83 116 95 104 8 -8 1 -21 -21 -43z m-847 -1238 l130 -130 -135 -135 -135 -135 -132 132 -133 133 132 132 c73 73 135 133 138 133 3 0 64 -59 135 -130z m3359 -4155 c40 -82 66 -145 61 -145 -3 0 -32 46 -60 95 -7 11 -35 58 -63 104 -29 46 -52 89 -52 95 1 23 82 -83 114 -149z"/>
 <path d="M878 4422 c-49 -1 -88 -7 -88 -11 0 -9 27 -23 205 -105 l100 -47 273 3 274 3 39 73 39 72 -368 0 c-202 0 -372 3 -377 8 -6 4 -49 6 -97 4z"/>
 <path d="M1390 4112 c0 -8 130 -76 134 -70 54 74 51 78 -49 78 -47 0 -85 -4 -85 -8z"/>
 <path d="M1993 3893 c-46 -70 -60 -101 -89 -200 -32 -109 -43 -291 -24 -400 6 -40 13 -73 13 -73 1 0 31 11 66 24 59 21 68 28 94 75 37 64 31 87 -28 125 -78 49 -87 92 -25 131 50 32 51 53 5 109 -44 54 -45 89 -4 161 17 30 29 63 27 75 -2 17 -9 12 -35 -27z"/>
 <path d="M5638 2392 c-16 -9 -28 -22 -28 -29 0 -7 -4 -13 -9 -13 -4 0 -8 -20 -8 -45 0 -25 3 -45 8 -45 4 0 10 -8 13 -17 12 -36 90 -54 138 -32 27 12 51 60 50 100 -2 80 -94 125 -164 81z"/>
 <path d="M4705 1711 c-33 -10 -70 -23 -82 -29 -12 -7 -31 -12 -42 -12 -11 0 -31 -4 -44 -9 -24 -9 -25 -12 -16 -53 5 -24 15 -59 23 -78 7 -19 21 -61 31 -94 19 -65 11 -63 115 -31 30 9 80 23 110 32 30 8 59 18 63 23 5 4 1 24 -7 45 -9 21 -16 46 -16 56 0 10 -7 33 -15 51 -8 18 -19 52 -25 76 -12 47 -11 47 -95 23z"/>
 <path d="M4388 369 c-24 -9 -26 -14 -21 -42 12 -65 22 -80 46 -72 12 4 36 9 54 12 28 4 57 33 33 33 -5 0 -13 18 -16 40 -6 37 -9 40 -38 39 -17 0 -43 -5 -58 -10z"/>
 </g>
<g id="layer107" fill="#decc35" stroke="none">
 <path d="M3965 8041 c-38 -15 -99 -41 -135 -58 -36 -16 -94 -40 -129 -53 -69 -25 -86 -26 -500 -22 -223 2 -189 8 -451 -74 -156 -49 -234 -57 -387 -39 -175 20 -198 26 -198 50 0 19 -11 20 -400 25 -220 3 -596 4 -837 2 l-436 -3 -34 -33 c-55 -53 -97 -198 -113 -388 -5 -66 15 -447 29 -549 23 -155 71 -281 240 -624 153 -309 186 -378 186 -388 0 -3 -12 -7 -26 -9 -21 -2 -33 -17 -65 -77 -21 -41 -39 -76 -39 -77 0 -2 43 -5 96 -6 l96 -3 19 -55 c10 -30 19 -60 19 -67 0 -10 -35 -13 -153 -13 l-153 0 -37 -75 -37 -75 223 0 222 0 32 -68 32 -67 -128 -3 c-71 -1 -166 1 -212 5 -46 4 -121 7 -167 5 l-83 -3 -19 -43 c-11 -23 -28 -53 -38 -67 -11 -13 -19 -32 -19 -41 0 -17 25 -18 373 -18 l372 0 34 -52 c18 -29 34 -56 36 -60 2 -5 -196 -8 -441 -8 l-444 0 -42 -80 c-22 -44 -41 -84 -41 -90 0 -7 184 -10 544 -10 l543 0 42 -60 41 -60 -585 2 c-385 2 -585 0 -584 -7 0 -5 71 -45 157 -87 l157 -78 800 4 c474 3 813 8 831 14 l31 10 7 -52 c8 -66 8 -183 0 -334 l-7 -120 -62 -40 c-59 -37 -62 -42 -68 -87 -4 -26 -20 -71 -37 -100 -16 -29 -30 -62 -30 -74 0 -12 16 -43 35 -68 48 -63 47 -95 -5 -129 -22 -15 -40 -33 -40 -41 0 -14 58 -73 72 -73 18 0 48 -42 48 -65 0 -14 -9 -43 -20 -65 -11 -22 -20 -41 -20 -43 0 -2 19 -1 43 4 75 15 298 11 383 -6 87 -18 213 -64 277 -101 23 -13 45 -24 49 -24 4 0 16 30 28 66 28 92 28 260 -1 370 -23 91 -91 225 -148 293 l-39 46 3 300 c3 243 6 299 17 296 7 -2 78 -6 158 -8 195 -7 284 15 422 104 15 9 29 15 30 13 2 -3 36 -43 74 -90 254 -306 626 -822 693 -960 11 -25 41 -76 66 -115 24 -38 50 -81 58 -95 7 -14 23 -42 35 -62 12 -21 30 -53 41 -70 10 -18 30 -53 45 -78 14 -25 33 -62 42 -82 9 -21 20 -38 25 -38 5 0 9 -7 9 -16 0 -9 8 -28 18 -42 10 -15 51 -92 91 -172 41 -80 75 -147 77 -149 3 -3 10 1 16 7 14 14 28 16 28 3 0 -6 15 -31 33 -57 17 -25 37 -53 42 -62 54 -86 191 -288 197 -290 4 -2 8 -8 8 -13 0 -6 13 -27 28 -47 16 -20 68 -91 117 -156 48 -65 96 -127 105 -136 10 -10 41 -49 70 -86 29 -38 55 -71 59 -74 8 -7 28 -42 65 -115 28 -55 30 -68 30 -155 -1 -95 -2 -100 -53 -210 -6 -14 -20 -40 -31 -57 -44 -72 -61 -101 -104 -178 -60 -107 -70 -136 -54 -147 18 -11 67 0 99 23 30 21 99 103 99 117 0 6 27 38 60 71 49 50 66 61 93 61 40 0 52 -19 97 -150 18 -52 38 -106 45 -120 7 -14 34 -68 60 -120 58 -118 78 -152 127 -214 41 -52 87 -82 112 -73 17 7 6 58 -24 117 -75 142 -220 455 -220 475 0 27 17 24 43 -8 53 -64 65 -84 112 -172 63 -121 108 -195 117 -195 5 0 8 -6 8 -13 0 -7 8 -20 18 -28 9 -9 31 -33 47 -54 69 -85 152 -127 174 -87 8 15 8 29 1 48 -9 23 -8 29 5 37 13 7 15 17 10 44 -3 20 -10 43 -14 52 -44 90 -117 234 -136 266 -13 22 -27 47 -31 55 -4 8 -25 41 -46 73 -22 34 -38 71 -38 88 0 26 3 29 31 29 16 0 77 -20 133 -45 121 -53 156 -57 156 -20 0 25 -58 78 -145 133 -49 30 -175 141 -272 239 -40 40 -77 73 -82 73 -5 0 -11 3 -13 8 -1 4 -35 32 -75 63 -63 48 -132 124 -170 184 -22 35 -99 197 -147 310 -26 61 -51 119 -56 130 -5 11 -21 49 -35 85 -53 129 -107 256 -127 300 -11 25 -26 59 -33 75 -23 55 -67 150 -81 176 -7 14 -11 29 -8 32 5 5 -2 29 -51 162 -15 39 -30 81 -35 95 -4 14 -20 57 -35 95 -15 39 -34 88 -42 110 -8 22 -21 54 -28 70 -7 17 -25 62 -40 100 -15 39 -33 84 -40 100 -7 17 -25 59 -38 95 -23 57 -46 112 -77 185 -5 11 -30 70 -55 130 -59 139 -67 157 -99 226 -14 31 -26 59 -26 63 0 4 -15 39 -33 79 -19 40 -42 91 -52 115 -10 23 -21 42 -25 42 -10 0 -40 68 -40 91 0 12 -8 38 -18 58 -22 44 -50 103 -92 196 -18 39 -45 98 -61 131 -16 34 -29 66 -29 71 0 5 -11 24 -25 43 -14 19 -25 42 -25 51 0 10 -6 30 -14 46 -7 15 -24 51 -36 78 -13 28 -27 59 -33 70 -6 11 -36 80 -68 154 -32 73 -66 142 -75 152 -9 10 -13 22 -10 27 3 6 -1 42 -9 82 -8 39 -15 91 -15 116 0 24 -4 44 -9 44 -5 0 -9 60 -9 133 0 88 -4 141 -12 157 -14 26 -15 203 -3 385 9 136 9 456 -1 591 l-7 101 53 -4 c37 -3 59 0 73 10 18 14 18 17 5 42 -8 15 -24 32 -35 37 -11 5 -34 17 -51 26 -30 17 -29 18 65 14 101 -4 570 22 609 34 26 7 28 30 6 62 -15 22 -15 22 29 22 99 0 144 42 91 86 -57 46 -124 59 -304 57 -91 -1 -196 -7 -235 -12 -106 -16 -295 -13 -325 4 -14 8 -19 14 -12 15 34 1 451 195 498 232 48 38 33 48 -73 47 -83 0 -109 -5 -168 -28z m-1409 -811 c71 -72 130 -139 132 -150 2 -10 -15 -139 -38 -287 -22 -147 -56 -374 -76 -503 -19 -129 -50 -336 -69 -460 -19 -124 -41 -277 -50 -340 -23 -160 -29 -169 -44 -69 -6 46 -30 203 -52 349 -22 146 -51 339 -65 430 -13 91 -31 208 -39 260 -8 52 -26 172 -40 265 -14 94 -33 214 -41 269 l-16 99 133 133 c74 74 134 134 135 134 0 0 59 -59 130 -130z m856 -872 c-123 -129 -96 -349 57 -447 137 -88 155 -162 101 -406 -36 -161 -38 -239 -10 -295 20 -40 62 -71 175 -135 69 -39 156 -125 190 -186 19 -35 29 -71 32 -113 5 -66 -4 -89 -77 -204 -27 -42 -34 -63 -33 -101 1 -105 81 -198 232 -272 54 -27 80 -44 73 -51 -15 -15 -182 74 -235 125 -74 72 -108 161 -93 240 4 19 25 63 48 98 23 35 47 84 55 109 35 117 -78 274 -267 370 -56 29 -93 62 -126 114 -25 40 -23 174 4 281 60 237 49 316 -57 387 -71 47 -110 88 -139 143 -23 44 -26 62 -26 145 0 79 3 102 22 137 33 62 83 116 95 104 8 -8 1 -21 -21 -43z m-847 -1238 l130 -130 -135 -135 -135 -135 -132 132 -133 133 132 132 c73 73 135 133 138 133 3 0 64 -59 135 -130z m3359 -4155 c40 -82 66 -145 61 -145 -3 0 -32 46 -60 95 -7 11 -35 58 -63 104 -29 46 -52 89 -52 95 1 23 82 -83 114 -149z"/>
 <path d="M878 4422 c-49 -1 -88 -7 -88 -11 0 -9 27 -23 205 -105 l100 -47 273 3 274 3 39 73 39 72 -368 0 c-202 0 -372 3 -377 8 -6 4 -49 6 -97 4z"/>
 <path d="M1390 4112 c0 -8 130 -76 134 -70 54 74 51 78 -49 78 -47 0 -85 -4 -85 -8z"/>
 <path d="M1993 3893 c-46 -70 -60 -101 -89 -200 -32 -109 -43 -291 -24 -400 6 -40 13 -73 13 -73 1 0 31 11 66 24 59 21 68 28 94 75 37 64 31 87 -28 125 -78 49 -87 92 -25 131 50 32 51 53 5 109 -44 54 -45 89 -4 161 17 30 29 63 27 75 -2 17 -9 12 -35 -27z"/>
 <path d="M5638 2392 c-16 -9 -28 -22 -28 -29 0 -7 -4 -13 -9 -13 -4 0 -8 -20 -8 -45 0 -25 3 -45 8 -45 4 0 10 -8 13 -17 12 -36 90 -54 138 -32 27 12 51 60 50 100 -2 80 -94 125 -164 81z"/>
 <path d="M4388 369 c-24 -9 -26 -14 -21 -42 12 -65 22 -80 46 -72 12 4 36 9 54 12 28 4 57 33 33 33 -5 0 -13 18 -16 40 -6 37 -9 40 -38 39 -17 0 -43 -5 -58 -10z"/>
 </g>
<g id="layer108" fill="#a1c3fc" stroke="none">
 <path d="M3965 8041 c-38 -15 -99 -41 -135 -58 -36 -16 -94 -40 -129 -53 -69 -25 -86 -26 -500 -22 -223 2 -189 8 -451 -74 -156 -49 -234 -57 -387 -39 -175 20 -198 26 -198 50 0 19 -11 20 -400 25 -220 3 -596 4 -837 2 l-436 -3 -34 -33 c-55 -53 -97 -198 -113 -388 -5 -66 15 -447 29 -549 23 -155 71 -281 240 -624 153 -309 186 -378 186 -388 0 -3 -12 -7 -26 -9 -21 -2 -33 -17 -65 -77 -21 -41 -39 -76 -39 -77 0 -2 43 -5 96 -6 l96 -3 19 -55 c10 -30 19 -60 19 -67 0 -10 -35 -13 -153 -13 l-153 0 -37 -75 -37 -75 223 0 222 0 32 -68 32 -67 -128 -3 c-71 -1 -166 1 -212 5 -46 4 -121 7 -167 5 l-83 -3 -19 -43 c-11 -23 -28 -53 -38 -67 -11 -13 -19 -32 -19 -41 0 -17 25 -18 373 -18 l372 0 34 -52 c18 -29 34 -56 36 -60 2 -5 -196 -8 -441 -8 l-444 0 -42 -80 c-22 -44 -41 -84 -41 -90 0 -7 184 -10 544 -10 l543 0 42 -60 41 -60 -585 2 c-385 2 -585 0 -584 -7 0 -5 71 -45 157 -87 l157 -78 800 4 c474 3 813 8 831 14 l31 10 7 -52 c8 -66 8 -183 0 -334 l-7 -120 -62 -40 c-59 -37 -62 -42 -68 -87 -4 -26 -20 -71 -37 -100 -16 -29 -30 -62 -30 -74 0 -12 16 -43 35 -68 48 -63 47 -95 -5 -129 -22 -15 -40 -33 -40 -41 0 -14 58 -73 72 -73 18 0 48 -42 48 -65 0 -14 -9 -43 -20 -65 -11 -22 -20 -41 -20 -43 0 -2 19 -1 43 4 75 15 298 11 383 -6 87 -18 213 -64 277 -101 23 -13 45 -24 49 -24 4 0 16 30 28 66 28 92 28 260 -1 370 -23 91 -91 225 -148 293 l-39 46 3 300 c3 243 6 299 17 296 7 -2 78 -6 158 -8 195 -7 284 15 422 104 15 9 29 15 30 13 2 -3 36 -43 74 -90 254 -306 626 -822 693 -960 11 -25 41 -76 66 -115 24 -38 50 -81 58 -95 7 -14 23 -42 35 -62 12 -21 30 -53 41 -70 10 -18 30 -53 45 -78 14 -25 33 -62 42 -82 9 -21 20 -38 25 -38 5 0 9 -7 9 -16 0 -9 8 -28 18 -42 10 -15 51 -92 91 -172 41 -80 75 -147 77 -149 3 -3 10 1 16 7 14 14 28 16 28 3 0 -6 15 -31 33 -57 17 -25 37 -53 42 -62 54 -86 191 -288 197 -290 4 -2 8 -8 8 -13 0 -6 13 -27 28 -47 16 -20 68 -91 117 -156 48 -65 96 -127 105 -136 10 -10 41 -49 70 -86 29 -38 55 -71 59 -74 8 -7 28 -42 65 -115 28 -55 30 -68 30 -155 -1 -95 -2 -100 -53 -210 -6 -14 -20 -40 -31 -57 -44 -72 -61 -101 -104 -178 -60 -107 -70 -136 -54 -147 18 -11 67 0 99 23 30 21 99 103 99 117 0 6 27 38 60 71 49 50 66 61 93 61 40 0 52 -19 97 -150 18 -52 38 -106 45 -120 7 -14 34 -68 60 -120 58 -118 78 -152 127 -214 41 -52 87 -82 112 -73 17 7 6 58 -24 117 -75 142 -220 455 -220 475 0 27 17 24 43 -8 53 -64 65 -84 112 -172 63 -121 108 -195 117 -195 5 0 8 -6 8 -13 0 -7 8 -20 18 -28 9 -9 31 -33 47 -54 69 -85 152 -127 174 -87 8 15 8 29 1 48 -9 23 -8 29 5 37 13 7 15 17 10 44 -3 20 -10 43 -14 52 -44 90 -117 234 -136 266 -13 22 -27 47 -31 55 -4 8 -25 41 -46 73 -22 34 -38 71 -38 88 0 26 3 29 31 29 16 0 77 -20 133 -45 121 -53 156 -57 156 -20 0 25 -58 78 -145 133 -49 30 -175 141 -272 239 -40 40 -77 73 -82 73 -5 0 -11 3 -13 8 -1 4 -35 32 -75 63 -63 48 -132 124 -170 184 -22 35 -99 197 -147 310 -26 61 -51 119 -56 130 -5 11 -21 49 -35 85 -53 129 -107 256 -127 300 -11 25 -26 59 -33 75 -23 55 -67 150 -81 176 -7 14 -11 29 -8 32 5 5 -2 29 -51 162 -15 39 -30 81 -35 95 -4 14 -20 57 -35 95 -15 39 -34 88 -42 110 -8 22 -21 54 -28 70 -7 17 -25 62 -40 100 -15 39 -33 84 -40 100 -7 17 -25 59 -38 95 -23 57 -46 112 -77 185 -5 11 -30 70 -55 130 -59 139 -67 157 -99 226 -14 31 -26 59 -26 63 0 4 -15 39 -33 79 -19 40 -42 91 -52 115 -10 23 -21 42 -25 42 -10 0 -40 68 -40 91 0 12 -8 38 -18 58 -22 44 -50 103 -92 196 -18 39 -45 98 -61 131 -16 34 -29 66 -29 71 0 5 -11 24 -25 43 -14 19 -25 42 -25 51 0 10 -6 30 -14 46 -7 15 -24 51 -36 78 -13 28 -27 59 -33 70 -6 11 -36 80 -68 154 -32 73 -66 142 -75 152 -9 10 -13 22 -10 27 3 6 -1 42 -9 82 -8 39 -15 91 -15 116 0 24 -4 44 -9 44 -5 0 -9 60 -9 133 0 88 -4 141 -12 157 -14 26 -15 203 -3 385 9 136 9 456 -1 591 l-7 101 53 -4 c37 -3 59 0 73 10 18 14 18 17 5 42 -8 15 -24 32 -35 37 -11 5 -34 17 -51 26 -30 17 -29 18 65 14 101 -4 570 22 609 34 26 7 28 30 6 62 -15 22 -15 22 29 22 99 0 144 42 91 86 -57 46 -124 59 -304 57 -91 -1 -196 -7 -235 -12 -106 -16 -295 -13 -325 4 -14 8 -19 14 -12 15 34 1 451 195 498 232 48 38 33 48 -73 47 -83 0 -109 -5 -168 -28z m-1409 -811 c71 -72 130 -139 132 -150 2 -10 -15 -139 -38 -287 -22 -147 -56 -374 -76 -503 -19 -129 -50 -336 -69 -460 -19 -124 -41 -277 -50 -340 -23 -160 -29 -169 -44 -69 -6 46 -30 203 -52 349 -22 146 -51 339 -65 430 -13 91 -31 208 -39 260 -8 52 -26 172 -40 265 -14 94 -33 214 -41 269 l-16 99 133 133 c74 74 134 134 135 134 0 0 59 -59 130 -130z m856 -872 c-123 -129 -96 -349 57 -447 137 -88 155 -162 101 -406 -36 -161 -38 -239 -10 -295 20 -40 62 -71 175 -135 69 -39 156 -125 190 -186 19 -35 29 -71 32 -113 5 -66 -4 -89 -77 -204 -27 -42 -34 -63 -33 -101 1 -105 81 -198 232 -272 54 -27 80 -44 73 -51 -15 -15 -182 74 -235 125 -74 72 -108 161 -93 240 4 19 25 63 48 98 23 35 47 84 55 109 35 117 -78 274 -267 370 -56 29 -93 62 -126 114 -25 40 -23 174 4 281 60 237 49 316 -57 387 -71 47 -110 88 -139 143 -23 44 -26 62 -26 145 0 79 3 102 22 137 33 62 83 116 95 104 8 -8 1 -21 -21 -43z m-847 -1238 l130 -130 -135 -135 -135 -135 -132 132 -133 133 132 132 c73 73 135 133 138 133 3 0 64 -59 135 -130z m3295 -4046 c0 -6 7 -17 15 -24 19 -16 122 -230 110 -230 -3 0 -32 46 -60 95 -7 11 -35 58 -63 104 -29 46 -52 88 -52 93 0 13 49 -25 50 -38z"/>
 <path d="M878 4422 c-49 -1 -88 -7 -88 -11 0 -9 27 -23 205 -105 l100 -47 273 3 274 3 39 73 39 72 -368 0 c-202 0 -372 3 -377 8 -6 4 -49 6 -97 4z"/>
 <path d="M1390 4112 c0 -8 130 -76 134 -70 54 74 51 78 -49 78 -47 0 -85 -4 -85 -8z"/>
 <path d="M1993 3893 c-46 -70 -60 -101 -89 -200 -32 -109 -43 -291 -24 -400 6 -40 13 -73 13 -73 1 0 31 11 66 24 59 21 68 28 94 75 37 64 31 87 -28 125 -78 49 -87 92 -25 131 50 32 51 53 5 109 -44 54 -45 89 -4 161 17 30 29 63 27 75 -2 17 -9 12 -35 -27z"/>
 <path d="M4388 369 c-24 -9 -26 -14 -21 -42 12 -65 22 -80 46 -72 12 4 36 9 54 12 28 4 57 33 33 33 -5 0 -13 18 -16 40 -6 37 -9 40 -38 39 -17 0 -43 -5 -58 -10z"/>
 </g>
<g id="layer109" fill="#fdbab3" stroke="none">
 <path d="M3965 8041 c-38 -15 -99 -41 -135 -58 -36 -16 -94 -40 -129 -53 -69 -25 -86 -26 -500 -22 -223 2 -189 8 -451 -74 -156 -49 -234 -57 -387 -39 -175 20 -198 26 -198 50 0 14 -7 20 -25 22 -40 2 -785 5 -1236 4 l-411 -1 -35 -34 c-55 -53 -98 -203 -112 -388 -5 -55 13 -417 24 -503 16 -120 41 -224 70 -292 6 -13 14 -33 19 -45 40 -101 152 -333 270 -555 11 -21 53 -113 74 -163 8 -19 31 -84 52 -145 63 -187 96 -277 131 -352 19 -39 34 -73 34 -76 0 -3 21 -41 46 -86 25 -44 47 -89 49 -100 4 -22 44 -87 72 -116 29 -31 113 -163 113 -177 0 -21 63 -104 115 -152 49 -45 140 -85 270 -121 87 -24 360 -32 441 -13 l62 15 6 -51 c8 -66 8 -183 0 -334 l-7 -120 -62 -40 c-59 -37 -62 -42 -68 -87 -4 -26 -20 -71 -37 -100 -16 -29 -30 -62 -30 -74 0 -12 16 -43 35 -68 48 -63 47 -95 -5 -129 -22 -15 -40 -33 -40 -41 0 -14 58 -73 72 -73 18 0 48 -42 48 -65 0 -14 -9 -43 -20 -65 -11 -22 -20 -41 -20 -43 0 -2 19 -1 43 4 75 15 298 11 383 -6 87 -18 213 -64 277 -101 23 -13 45 -24 49 -24 4 0 16 30 28 66 28 92 28 260 -1 370 -23 91 -91 225 -148 293 l-39 46 3 300 c3 243 6 299 17 296 7 -2 78 -6 158 -8 195 -7 284 15 422 104 15 9 29 15 30 13 2 -3 36 -43 74 -90 254 -306 626 -822 693 -960 11 -25 41 -76 66 -115 59 -94 67 -106 91 -151 21 -40 42 -77 88 -154 14 -25 33 -62 42 -82 9 -21 20 -38 25 -38 5 0 9 -7 9 -16 0 -9 8 -28 18 -42 10 -15 51 -92 91 -172 41 -80 75 -147 77 -149 3 -3 10 1 16 7 14 14 28 16 28 3 0 -6 15 -31 33 -57 17 -25 37 -53 42 -62 54 -86 191 -288 197 -290 4 -2 8 -8 8 -13 0 -6 13 -27 28 -47 16 -20 68 -91 117 -156 48 -65 96 -127 105 -136 10 -10 41 -49 70 -86 29 -38 55 -71 59 -74 8 -7 28 -42 65 -115 28 -55 30 -68 30 -155 -1 -95 -2 -100 -53 -210 -6 -14 -20 -40 -31 -57 -44 -72 -61 -101 -104 -178 -60 -107 -70 -136 -54 -147 18 -11 67 0 99 23 30 21 99 103 99 117 0 6 27 38 60 71 49 50 66 61 93 61 40 0 52 -19 97 -150 18 -52 38 -106 45 -120 7 -14 34 -68 60 -120 58 -118 78 -152 127 -214 41 -52 87 -82 112 -73 17 7 6 58 -24 117 -75 142 -220 455 -220 475 0 27 17 24 43 -8 53 -64 65 -84 112 -172 63 -121 108 -195 117 -195 5 0 8 -6 8 -13 0 -7 8 -20 18 -28 9 -9 31 -33 47 -54 69 -85 152 -127 174 -87 8 15 8 29 1 48 -9 23 -8 29 5 37 13 7 15 17 10 44 -3 20 -10 43 -14 52 -44 90 -117 234 -136 266 -13 22 -27 47 -31 55 -4 8 -25 41 -46 73 -22 34 -38 71 -38 88 0 26 3 29 31 29 16 0 77 -20 133 -45 121 -53 156 -57 156 -20 0 25 -58 78 -145 133 -49 30 -175 141 -272 239 -40 40 -77 73 -82 73 -5 0 -11 3 -13 8 -1 4 -35 32 -75 63 -63 48 -132 124 -170 184 -22 35 -99 197 -147 310 -26 61 -51 119 -56 130 -5 11 -21 49 -35 85 -53 129 -107 256 -127 300 -11 25 -26 59 -33 75 -21 50 -67 149 -77 169 -6 11 -11 31 -13 45 -1 14 -19 71 -39 126 -21 55 -41 111 -46 125 -4 14 -20 57 -35 95 -15 39 -34 88 -42 110 -8 22 -21 54 -28 70 -7 17 -25 62 -40 100 -15 39 -33 84 -40 100 -7 17 -25 59 -38 95 -23 57 -46 112 -77 185 -5 11 -30 70 -55 130 -59 139 -67 157 -99 226 -14 31 -26 59 -26 63 0 3 -15 39 -34 79 -18 39 -41 91 -51 115 -10 23 -21 42 -25 42 -10 0 -40 68 -40 91 0 12 -8 38 -18 58 -22 44 -50 103 -92 196 -18 39 -45 98 -61 131 -16 34 -29 66 -29 71 0 5 -11 24 -25 43 -14 19 -25 41 -25 49 0 8 -9 35 -21 60 -11 25 -28 62 -36 81 -9 19 -20 44 -26 55 -6 11 -36 80 -68 154 -32 73 -66 142 -75 152 -9 10 -13 22 -10 27 3 6 -1 42 -9 82 -8 39 -15 91 -15 116 0 24 -4 44 -9 44 -5 0 -9 60 -9 134 0 87 -4 142 -12 157 -14 26 -16 195 -3 379 9 141 9 459 -1 596 l-7 101 53 -4 c37 -3 59 0 73 10 18 14 18 17 5 42 -8 15 -24 32 -35 37 -11 5 -34 17 -51 26 -30 17 -29 18 65 14 101 -4 570 22 609 34 26 7 28 30 6 62 -15 22 -15 22 29 22 99 0 144 42 91 86 -57 46 -124 59 -304 57 -91 -1 -196 -7 -235 -12 -106 -16 -295 -13 -325 4 -14 8 -19 14 -12 15 34 1 451 195 498 232 48 38 33 48 -73 47 -83 0 -109 -5 -168 -28z m-1409 -811 c71 -72 130 -139 132 -150 2 -10 -15 -139 -38 -287 -22 -147 -56 -374 -76 -503 -19 -129 -50 -336 -69 -460 -19 -124 -41 -277 -50 -340 -23 -160 -29 -169 -44 -69 -6 46 -30 203 -52 349 -22 146 -51 339 -65 430 -13 91 -31 208 -39 260 -8 52 -26 172 -40 265 -14 94 -33 214 -41 269 l-16 99 133 133 c74 74 134 134 135 134 0 0 59 -59 130 -130z m856 -872 c-123 -129 -96 -349 57 -447 137 -88 155 -162 101 -406 -36 -161 -38 -239 -10 -295 20 -40 62 -71 175 -135 69 -39 156 -125 190 -186 19 -35 29 -71 32 -113 5 -66 -4 -89 -77 -204 -27 -42 -34 -63 -33 -101 1 -105 81 -198 232 -272 54 -27 80 -44 73 -51 -15 -15 -182 74 -235 125 -74 72 -108 161 -93 240 4 19 25 63 48 98 23 35 47 84 55 109 35 117 -78 274 -267 370 -56 29 -93 62 -126 114 -25 40 -23 174 4 281 60 237 49 316 -57 387 -71 47 -110 88 -139 143 -23 44 -26 62 -26 145 0 79 3 102 22 137 33 62 83 116 95 104 8 -8 1 -21 -21 -43z m-847 -1238 l130 -130 -135 -135 -135 -135 -132 132 -133 133 132 132 c73 73 135 133 138 133 3 0 64 -59 135 -130z m3295 -4046 c0 -6 7 -18 16 -25 19 -16 121 -229 109 -229 -3 0 -32 46 -60 95 -7 11 -35 58 -63 104 -29 46 -52 88 -52 93 0 13 49 -25 50 -38z"/>
 <path d="M1993 3893 c-46 -70 -60 -101 -89 -200 -32 -109 -43 -291 -24 -400 6 -40 13 -73 13 -73 1 0 31 11 66 24 59 21 68 28 94 75 37 64 31 87 -28 125 -78 49 -87 92 -25 131 50 32 51 53 5 109 -44 54 -45 89 -4 161 17 30 29 63 27 75 -2 17 -9 12 -35 -27z"/>
 </g>
<g id="layer110" fill="#e2e3e3" stroke="none">
 <path d="M914 7872 l-421 -2 -35 -34 c-43 -42 -75 -128 -94 -254 -22 -141 -22 -149 -13 -362 13 -293 37 -448 89 -567 6 -13 14 -33 19 -45 40 -101 152 -333 270 -555 11 -21 53 -113 74 -163 8 -19 31 -84 52 -145 63 -187 96 -277 131 -352 19 -39 34 -73 34 -76 0 -3 21 -41 46 -86 25 -44 47 -89 49 -100 4 -22 44 -87 72 -116 28 -30 109 -157 118 -185 11 -35 51 -86 109 -141 35 -34 72 -55 130 -77 145 -55 196 -64 376 -64 199 -1 257 10 285 54 27 41 126 105 177 113 l41 7 -132 132 -131 131 135 135 135 135 132 -133 133 -132 -135 -135 -135 -135 35 0 c79 -1 152 -58 185 -144 20 -52 23 -53 185 -62 100 -6 127 -4 205 16 87 22 149 48 210 89 22 15 32 17 43 9 17 -14 265 -323 349 -433 173 -229 390 -552 410 -608 7 -20 28 -58 46 -85 18 -26 38 -58 45 -72 7 -14 21 -38 32 -55 11 -16 28 -46 38 -65 19 -36 40 -72 86 -150 14 -25 33 -62 42 -82 9 -21 20 -38 25 -38 5 0 9 -8 9 -18 0 -10 4 -22 10 -28 11 -11 70 -121 130 -241 23 -46 46 -83 52 -83 6 0 18 7 27 16 21 21 402 264 414 264 11 0 9 7 -38 135 -20 55 -40 111 -45 125 -4 14 -20 57 -35 95 -15 39 -34 88 -42 110 -8 22 -21 54 -28 70 -7 17 -25 62 -40 100 -15 39 -33 84 -40 100 -7 17 -28 67 -45 113 -18 45 -37 85 -41 88 -5 3 -9 12 -9 20 0 8 -9 36 -21 62 -35 80 -46 105 -74 172 -35 85 -47 111 -84 192 -17 37 -31 70 -31 73 0 3 -13 34 -29 68 -15 34 -36 81 -46 105 -10 23 -21 42 -25 42 -10 0 -40 68 -40 91 0 11 -8 37 -19 57 -19 38 -37 76 -91 197 -18 39 -45 98 -61 131 -16 34 -29 66 -29 71 0 5 -11 24 -25 43 -14 19 -25 41 -25 49 0 14 -27 80 -56 133 -8 14 -14 31 -14 38 0 7 -8 24 -18 38 -10 15 -27 50 -36 77 -10 28 -26 64 -36 80 -9 17 -20 42 -23 56 -4 14 -18 42 -32 63 -14 21 -23 41 -20 45 2 5 -2 39 -10 77 -8 38 -15 90 -15 117 0 26 -4 47 -9 47 -5 0 -9 60 -9 134 0 87 -4 142 -12 157 -14 26 -16 197 -3 379 9 133 6 570 -5 648 l-7 54 -130 43 c-199 66 -278 83 -410 89 -66 3 -156 14 -200 25 -232 55 -567 61 -867 15 l-38 -6 6 34 c21 118 36 176 53 211 11 22 18 44 15 48 -2 5 -179 9 -392 9 -213 1 -398 2 -412 3 -14 1 -214 1 -446 -1z m1642 -642 c71 -72 130 -139 132 -150 2 -10 -15 -139 -38 -287 -22 -147 -56 -374 -76 -503 -19 -129 -50 -336 -69 -460 -19 -124 -41 -277 -50 -340 -23 -160 -29 -169 -44 -69 -6 46 -30 203 -52 349 -22 146 -51 339 -65 430 -13 91 -31 208 -39 260 -8 52 -26 172 -40 265 -14 94 -33 214 -41 269 l-16 99 133 133 c74 74 134 134 135 134 0 0 59 -59 130 -130z m856 -872 c-123 -129 -96 -349 57 -447 137 -88 155 -162 101 -406 -36 -161 -38 -239 -10 -295 20 -40 62 -71 175 -135 69 -39 156 -125 190 -186 19 -35 29 -71 32 -113 5 -66 -4 -89 -77 -204 -27 -42 -34 -63 -33 -101 1 -105 81 -198 232 -272 54 -27 80 -44 73 -51 -15 -15 -182 74 -235 125 -74 72 -108 161 -93 240 4 19 25 63 48 98 23 35 47 84 55 109 35 117 -78 274 -267 370 -56 29 -93 62 -126 114 -25 40 -23 174 4 281 60 237 49 316 -57 387 -71 47 -110 88 -139 143 -23 44 -26 62 -26 145 0 79 3 102 22 137 33 62 83 116 95 104 8 -8 1 -21 -21 -43z"/>
 <path d="M3636 7565 c17 -8 44 -16 60 -20 25 -4 23 -2 -11 15 -22 11 -49 19 -60 19 -15 0 -12 -4 11 -14z"/>
 <path d="M2220 3874 c-64 -33 -131 -96 -158 -151 -29 -57 -19 -63 49 -29 53 26 74 30 168 34 132 5 192 -10 286 -73 73 -49 75 -45 30 45 -58 114 -156 189 -258 197 -53 4 -70 1 -117 -23z"/>
 </g>

</svg>