<!DOCTYPE svg PUBLIC "-//W3C//DTD SVG 20010904//EN" "http://www.w3.org/TR/2001/REC-SVG-20010904/DTD/svg10.dtd">
<svg version="1.0" xmlns="http://www.w3.org/2000/svg" width="922px" height="817px" viewBox="0 0 9220 8170" preserveAspectRatio="xMidYMid meet">
<g id="layer101" fill="#1d2260" stroke="none">
 <path d="M40 8114 c0 -52 27 -102 85 -159 85 -82 121 -109 190 -144 17 -8 36 -21 43 -27 7 -7 39 -23 72 -35 33 -12 60 -25 60 -29 0 -4 44 -20 98 -36 53 -15 99 -31 102 -35 3 -3 30 -12 60 -18 65 -15 143 -41 150 -52 3 -4 30 -20 60 -36 222 -119 290 -164 290 -192 0 -12 52 -134 60 -141 3 -3 30 -54 60 -115 30 -60 71 -137 92 -171 21 -34 38 -66 38 -73 0 -6 8 -19 18 -29 9 -10 31 -44 47 -75 17 -31 33 -57 36 -57 4 0 15 -17 24 -37 19 -39 95 -157 119 -183 7 -8 21 -29 29 -47 9 -17 22 -37 29 -45 22 -24 58 -77 58 -86 0 -5 9 -17 20 -27 11 -10 31 -38 45 -61 14 -24 30 -44 35 -44 6 0 10 -4 10 -10 0 -10 47 -82 59 -90 4 -3 20 -23 35 -45 46 -69 86 -123 174 -232 23 -29 42 -57 42 -62 0 -6 8 -16 18 -23 11 -7 31 -32 46 -56 15 -24 33 -45 41 -49 8 -3 15 -10 15 -15 0 -10 104 -147 140 -183 11 -12 20 -26 20 -32 0 -6 10 -20 23 -30 12 -10 32 -34 44 -53 12 -19 30 -43 40 -52 10 -9 41 -47 68 -83 28 -37 62 -81 77 -97 14 -17 34 -46 44 -64 10 -19 24 -34 31 -34 7 0 13 -6 13 -13 0 -8 9 -22 20 -32 11 -10 20 -22 20 -28 0 -5 12 -22 28 -37 15 -15 43 -49 62 -75 19 -25 47 -60 62 -77 15 -16 33 -43 40 -59 7 -16 21 -32 30 -35 10 -3 18 -10 18 -16 0 -5 11 -24 25 -42 14 -17 34 -41 43 -54 9 -12 23 -29 30 -37 6 -7 12 -18 12 -24 0 -6 9 -15 19 -21 11 -5 23 -20 27 -32 3 -12 17 -33 30 -47 13 -14 24 -31 24 -38 0 -7 4 -13 9 -13 5 0 19 -16 31 -35 12 -20 27 -41 34 -48 6 -6 22 -29 35 -49 12 -21 26 -38 30 -38 4 0 12 -10 18 -22 13 -29 103 -149 123 -165 8 -7 31 -20 50 -30 19 -10 36 -21 38 -25 9 -19 96 -30 217 -27 106 3 140 0 183 -15 28 -9 52 -22 52 -27 0 -5 5 -9 12 -9 14 0 135 -48 163 -65 11 -7 49 -23 85 -35 36 -13 67 -27 71 -32 3 -4 39 -20 80 -34 40 -14 76 -30 79 -34 3 -5 38 -21 78 -36 l73 -27 82 22 c45 13 96 29 112 37 17 7 68 25 115 39 80 23 99 25 322 25 160 0 239 4 244 11 6 10 22 9 117 -7 22 -3 49 -2 60 4 12 6 51 13 87 16 36 3 88 14 115 24 54 21 160 82 186 107 9 8 20 15 25 15 5 0 25 14 44 31 19 18 55 50 80 73 25 22 70 61 100 86 78 66 140 118 185 156 l40 35 7 -48 c9 -59 27 -363 23 -377 -2 -6 -6 -72 -9 -146 -18 -490 -28 -635 -44 -660 -9 -14 -17 -27 -17 -30 -3 -20 -31 -80 -37 -80 -4 0 -8 -4 -8 -10 0 -9 -17 -27 -119 -124 -42 -40 -51 -54 -51 -84 0 -19 9 -49 19 -66 22 -37 37 -96 23 -96 -5 0 -25 -11 -45 -24 -19 -13 -46 -27 -58 -31 -13 -4 -32 -14 -41 -22 -23 -21 -34 -11 -47 43 -9 36 -26 60 -71 104 -72 71 -118 85 -277 85 -84 0 -113 3 -113 13 0 6 -4 12 -9 12 -5 0 -11 9 -14 20 -9 33 -60 27 -90 -11 -24 -31 -26 -32 -120 -34 -52 -1 -101 -7 -108 -13 -87 -71 -115 -97 -123 -111 -5 -9 -13 -18 -17 -21 -10 -7 -13 -87 -4 -122 6 -22 0 -37 -27 -75 -19 -26 -43 -68 -53 -93 -11 -25 -28 -54 -37 -64 -10 -11 -18 -28 -18 -39 0 -25 -33 -121 -42 -125 -5 -2 -8 -28 -8 -57 0 -38 -4 -54 -15 -59 -20 -7 -19 -46 1 -46 14 0 15 -7 9 -46 -6 -40 -4 -46 13 -51 11 -2 29 -25 41 -53 12 -26 28 -51 36 -54 8 -3 15 -12 15 -20 0 -17 80 -85 135 -115 170 -92 256 -135 290 -147 21 -8 42 -18 45 -23 3 -4 42 -20 88 -35 l82 -28 0 -69 0 -69 38 0 37 0 -3 -149 c-2 -82 1 -195 7 -252 13 -120 39 -249 51 -249 5 0 11 -14 15 -31 8 -37 43 -99 56 -99 5 0 9 -6 9 -14 0 -7 24 -36 54 -63 67 -60 133 -83 239 -83 89 0 107 5 107 32 0 17 -4 18 -37 11 -74 -16 -149 -7 -200 22 -59 35 -125 95 -143 132 -8 15 -22 39 -32 53 -18 27 -58 161 -58 196 0 12 -4 24 -8 26 -5 1 -12 31 -15 66 -6 56 -5 62 8 48 8 -8 15 -19 15 -25 0 -13 39 -90 56 -111 23 -29 140 -145 171 -170 18 -14 54 -34 82 -45 28 -11 51 -23 51 -27 0 -10 125 -46 186 -55 27 -3 52 -10 55 -16 4 -5 62 -10 130 -11 117 -1 127 1 179 26 64 32 80 44 103 78 17 24 24 110 10 110 -5 0 -27 -5 -51 -10 -47 -11 -135 5 -168 31 -54 42 -122 126 -143 177 -14 31 -28 59 -32 62 -3 3 -16 37 -28 76 -24 77 -34 93 -101 165 -31 33 -76 63 -145 98 -55 28 -105 55 -111 60 -18 15 -106 51 -125 51 -16 0 -19 8 -19 47 0 40 5 51 38 84 20 21 69 72 107 114 39 42 80 88 93 102 13 14 34 42 48 63 15 23 31 37 39 34 20 -8 40 33 24 52 -8 10 -10 36 -5 84 5 63 4 69 -14 75 -11 3 -20 12 -20 18 0 7 -18 31 -41 54 l-40 42 29 15 c17 9 32 19 34 24 2 7 133 72 144 72 2 0 4 -9 4 -20 0 -15 7 -20 25 -20 23 0 72 24 85 41 3 4 29 19 58 34 28 14 52 30 52 36 0 5 19 9 43 9 94 1 317 43 317 61 0 5 6 9 14 9 18 0 102 37 118 53 7 7 38 25 68 41 30 17 64 38 74 48 11 10 24 18 29 18 4 0 37 20 71 45 35 25 68 45 74 45 5 0 16 7 23 16 8 9 30 27 50 39 20 13 42 29 50 37 8 7 32 26 54 43 22 16 45 34 51 40 6 5 35 30 64 55 60 50 285 275 342 342 80 92 120 144 129 166 4 12 13 22 18 22 5 0 19 17 32 37 12 21 27 43 33 48 17 15 66 93 66 105 0 5 4 10 10 10 5 0 22 24 36 52 15 29 32 57 39 63 6 5 20 30 30 55 10 25 25 52 32 61 7 8 25 44 39 80 14 35 32 71 39 79 22 26 71 183 59 187 -9 3 -9 14 -1 41 6 20 15 39 19 42 4 3 20 55 35 115 15 61 31 112 34 115 8 7 34 141 50 255 7 50 16 92 20 95 10 8 29 249 29 380 0 73 4 120 10 120 25 0 -13 508 -39 530 -4 3 -16 50 -29 104 -12 55 -30 116 -40 135 -10 20 -22 49 -26 66 -4 16 -25 67 -47 113 -21 46 -39 86 -39 89 0 2 -25 55 -55 116 -80 164 -157 296 -206 357 -16 19 -41 50 -56 69 -47 57 -116 125 -155 151 -21 14 -38 28 -38 32 0 3 -26 19 -57 35 -112 55 -126 53 390 53 l474 0 7 77 c8 98 8 268 0 366 l-7 77 -213 0 -214 0 0 255 0 255 -1085 0 -1085 0 2 -262 3 -263 213 -3 212 -2 0 -250 0 -250 83 -1 c45 -1 74 -3 65 -6 -10 -2 -18 -9 -18 -14 0 -5 -8 -9 -17 -9 -25 -1 -186 -48 -192 -58 -3 -4 -31 -16 -61 -26 -30 -11 -69 -26 -87 -35 -17 -9 -71 -36 -120 -60 -48 -24 -90 -47 -93 -51 -3 -4 -14 -10 -26 -14 -11 -3 -29 -14 -40 -24 -11 -10 -40 -31 -65 -45 -25 -15 -54 -36 -64 -47 -10 -11 -23 -20 -29 -20 -6 0 -29 -16 -51 -35 -81 -72 -94 -81 -149 -107 -31 -15 -56 -32 -56 -37 0 -5 -12 -14 -27 -20 -36 -13 -80 -40 -110 -68 -14 -12 -38 -25 -53 -28 -16 -4 -32 -15 -35 -26 -4 -10 -12 -19 -18 -19 -13 0 -151 -97 -183 -129 -12 -12 -25 -21 -30 -21 -5 0 -23 -12 -40 -27 -17 -16 -50 -41 -74 -58 -24 -16 -52 -38 -62 -47 -9 -9 -31 -24 -47 -33 -17 -8 -31 -19 -31 -24 0 -4 -22 -22 -50 -39 -27 -17 -50 -36 -50 -42 0 -5 -6 -10 -12 -10 -7 0 -40 -20 -73 -45 -33 -25 -62 -45 -66 -45 -3 0 -17 -10 -31 -22 -36 -33 -176 -128 -188 -128 -5 0 -18 -8 -29 -19 -10 -10 -43 -31 -72 -47 -30 -16 -59 -33 -65 -39 -6 -5 -35 -21 -65 -35 -30 -14 -56 -28 -59 -32 -3 -4 -25 -10 -48 -14 -35 -5 -48 -2 -81 19 -21 14 -45 40 -52 56 -8 17 -17 31 -21 31 -3 0 -18 50 -33 112 -14 62 -30 117 -35 124 -6 6 -21 33 -35 59 -14 26 -37 60 -50 74 -13 14 -43 50 -68 78 -24 29 -61 68 -83 87 -143 125 -213 177 -269 200 -50 21 -102 71 -121 116 -8 19 -18 37 -22 40 -5 3 -18 41 -31 85 -12 44 -29 94 -36 110 -8 17 -25 59 -40 94 -14 36 -29 67 -33 70 -4 4 -20 31 -36 61 -17 30 -40 63 -53 73 -13 10 -23 23 -23 29 0 6 -29 39 -65 74 -36 35 -65 67 -65 72 0 4 -53 58 -117 121 -181 173 -218 208 -230 212 -10 4 5 124 20 159 13 29 38 267 44 418 l6 152 -1486 0 -1487 0 0 -36z m7762 -2674 c13 -16 47 -55 75 -87 29 -32 53 -63 53 -70 0 -6 8 -18 18 -25 10 -7 28 -30 41 -50 12 -21 29 -41 36 -46 8 -4 16 -23 18 -43 2 -20 7 -41 11 -47 7 -11 16 -82 21 -162 2 -25 6 -53 10 -63 8 -19 2 -333 -6 -341 -6 -6 -132 37 -140 47 -3 4 -10 7 -15 6 -16 -5 -94 13 -100 22 -3 5 -14 9 -24 9 -10 0 -20 5 -22 12 -6 17 -28 0 -28 -23 0 -10 -4 -19 -9 -19 -5 0 -18 -39 -30 -87 -12 -49 -31 -108 -43 -133 -42 -92 -47 -106 -53 -137 -4 -18 -10 -33 -14 -33 -4 0 -13 -16 -20 -36 -7 -19 -14 -34 -16 -32 -2 2 -9 71 -16 153 -6 83 -15 152 -18 155 -4 3 -13 48 -20 100 -16 117 -41 242 -51 255 -4 6 -20 61 -35 123 -16 61 -31 112 -35 112 -5 0 -11 11 -14 25 -4 14 -16 35 -28 47 l-21 21 24 19 c13 10 33 27 44 37 11 9 36 28 55 42 19 13 39 29 45 36 10 12 35 31 132 98 48 33 68 54 121 122 22 29 26 28 54 -7z m-2112 -2890 c-8 -5 -23 -10 -32 -10 -9 0 -23 -8 -30 -18 -7 -11 -24 -25 -37 -32 -13 -7 -43 -30 -67 -52 l-44 -41 0 27 c0 34 76 111 122 125 46 13 108 14 88 1z"/>
 </g>
<g id="layer102" fill="#583a60" stroke="none">
 <path d="M40 8114 c0 -52 27 -102 85 -160 53 -52 175 -144 192 -144 6 0 20 -9 33 -20 13 -11 49 -30 82 -41 32 -12 58 -25 58 -29 0 -4 44 -20 98 -36 53 -15 99 -31 102 -35 3 -3 30 -12 60 -18 63 -14 143 -41 150 -51 3 -3 30 -20 60 -37 30 -16 97 -53 148 -82 l92 -52 862 1 c474 0 863 2 865 4 2 2 9 35 14 72 6 38 15 78 20 89 15 33 39 261 46 423 l6 152 -1486 0 -1487 0 0 -36z"/>
 <path d="M6552 7798 l3 -263 213 -3 212 -2 0 -250 0 -250 1084 0 1083 0 7 77 c8 98 8 268 0 366 l-7 77 -213 0 -214 0 0 255 0 255 -1085 0 -1085 0 2 -262z m1804 126 c35 -17 68 -60 79 -106 11 -45 -26 -113 -76 -138 -121 -62 -249 73 -179 188 40 65 109 87 176 56z"/>
 <path d="M6870 5339 c-52 -5 -124 -13 -160 -18 -251 -37 -425 -64 -485 -78 -38 -8 -113 -23 -165 -34 -98 -19 -357 -82 -515 -124 -49 -13 -109 -29 -131 -35 -51 -13 -90 -50 -97 -93 -4 -31 5 -140 18 -211 l7 -34 -49 -8 c-68 -11 -237 -11 -381 0 -111 8 -124 7 -142 -9 -11 -10 -20 -27 -20 -38 0 -11 -6 -28 -13 -36 -8 -9 -31 -65 -51 -126 -65 -191 -72 -202 -135 -236 -130 -70 -136 -74 -158 -119 -12 -25 -22 -53 -23 -63 0 -16 -102 -72 -170 -92 -14 -4 -52 -20 -85 -35 -33 -15 -73 -32 -89 -39 -16 -6 -27 -13 -25 -16 11 -10 139 -74 172 -84 20 -7 37 -17 37 -22 0 -5 5 -9 12 -9 14 0 135 -48 163 -65 11 -7 49 -23 85 -35 36 -13 67 -27 70 -30 5 -7 99 -44 138 -55 12 -3 22 -10 22 -14 0 -5 34 -21 76 -36 l76 -28 81 23 c45 12 96 28 112 36 17 7 68 25 114 39 80 24 97 25 322 25 148 0 240 4 244 10 3 6 24 10 45 10 21 0 42 -4 45 -10 8 -12 82 -13 89 -1 3 4 38 11 78 14 40 3 96 15 123 25 54 21 160 82 186 107 9 8 20 15 25 15 5 0 25 14 44 31 19 18 55 50 80 73 25 22 70 61 100 86 78 66 140 118 185 156 l40 35 7 -48 c9 -59 27 -363 23 -377 -2 -6 -6 -72 -9 -146 -18 -490 -28 -635 -44 -660 -9 -14 -17 -27 -17 -30 -3 -20 -31 -80 -37 -80 -4 0 -8 -4 -8 -10 0 -10 -117 -130 -126 -130 -3 0 -14 -10 -25 -22 -24 -30 -24 -82 0 -122 22 -37 37 -96 23 -96 -5 0 -25 -11 -45 -24 -19 -13 -46 -27 -58 -31 -13 -4 -32 -14 -41 -22 -23 -21 -34 -11 -47 43 -9 36 -26 60 -71 104 -72 71 -118 85 -278 85 l-112 0 -16 33 c-22 46 -58 44 -105 -8 l-36 -40 23 -32 c57 -77 6 -188 -111 -244 -59 -28 -150 -33 -181 -9 -10 8 -26 14 -34 14 -18 0 -78 -85 -105 -149 -11 -25 -28 -54 -37 -64 -10 -11 -18 -28 -18 -39 0 -25 -33 -121 -42 -125 -5 -2 -8 -28 -8 -57 0 -38 -4 -54 -15 -59 -20 -7 -19 -46 1 -46 14 0 15 -7 9 -46 -6 -40 -4 -46 13 -51 11 -2 29 -25 41 -53 12 -26 28 -51 36 -54 8 -3 15 -12 15 -20 0 -17 80 -85 135 -115 210 -112 255 -135 290 -147 21 -8 42 -18 45 -23 3 -4 42 -20 88 -35 l82 -28 0 -69 0 -69 38 0 37 0 -3 -149 c-2 -82 1 -195 7 -252 13 -120 39 -249 51 -249 5 0 11 -14 15 -31 8 -37 43 -99 56 -99 5 0 9 -6 9 -14 0 -7 24 -36 54 -63 67 -60 133 -83 239 -83 89 0 107 5 107 32 0 17 -4 18 -37 11 -74 -16 -149 -7 -200 22 -59 35 -125 95 -143 132 -8 15 -22 39 -32 53 -18 27 -58 161 -58 196 0 12 -4 24 -8 26 -5 2 -12 31 -15 66 -6 56 -5 62 8 48 8 -8 15 -19 15 -25 0 -13 39 -90 56 -111 23 -29 140 -145 171 -170 18 -14 54 -34 82 -45 28 -11 51 -23 51 -27 0 -10 125 -46 186 -55 27 -3 52 -10 55 -16 4 -5 62 -10 130 -11 117 -1 127 1 179 26 64 32 80 44 103 78 17 24 24 110 10 110 -5 0 -27 -5 -51 -10 -47 -11 -135 5 -168 31 -57 45 -122 124 -143 176 -14 32 -28 60 -32 63 -3 3 -16 37 -28 76 -24 80 -35 97 -106 169 -35 35 -81 66 -150 100 -55 27 -105 55 -112 61 -6 6 -39 20 -72 30 l-61 19 0 44 c0 38 6 50 38 82 20 21 69 72 107 114 39 42 80 88 93 102 13 14 34 42 48 63 15 23 31 37 39 34 20 -8 40 33 24 52 -8 10 -10 36 -5 84 5 63 4 69 -14 75 -11 3 -20 12 -20 18 0 7 -18 31 -41 54 l-40 42 29 15 c17 9 32 19 34 24 2 7 132 72 143 72 1 0 5 -9 8 -20 6 -25 38 -26 75 -3 15 10 29 20 32 24 3 4 29 19 58 35 28 15 52 32 52 36 0 4 19 8 43 8 94 1 317 43 317 61 0 5 7 9 15 9 16 0 116 47 125 59 3 3 30 19 60 36 30 16 64 37 74 47 11 10 24 18 29 18 4 0 37 20 71 45 35 25 68 45 74 45 5 0 16 7 23 16 8 9 30 27 50 39 20 13 42 29 50 37 8 7 32 26 54 43 22 16 45 34 51 40 6 5 35 30 64 55 58 49 282 273 342 342 77 89 120 144 129 166 4 12 13 22 18 22 5 0 19 17 32 38 12 20 27 42 33 47 17 15 66 93 66 105 0 5 4 10 10 10 5 0 22 24 36 52 15 29 32 57 39 63 6 5 20 30 30 55 10 25 25 52 32 61 7 8 25 44 39 80 14 35 32 71 39 79 22 26 71 183 59 187 -9 3 -9 14 -1 41 6 20 15 39 19 42 4 3 20 55 35 115 15 61 31 112 34 115 8 7 34 141 50 255 7 50 16 92 20 95 12 8 31 298 27 414 l-3 109 -85 29 c-274 92 -587 74 -853 -49 -75 -35 -77 -37 -74 -68 2 -18 7 -37 11 -43 7 -11 16 -82 21 -162 2 -25 6 -53 10 -63 8 -19 2 -333 -6 -341 -6 -6 -132 37 -140 47 -3 4 -10 7 -15 6 -16 -5 -94 13 -100 22 -3 5 -14 9 -24 9 -10 0 -20 5 -22 12 -6 17 -28 0 -28 -23 0 -10 -4 -19 -9 -19 -5 0 -18 -39 -30 -87 -12 -49 -31 -108 -43 -133 -42 -92 -47 -106 -53 -137 -4 -18 -10 -33 -14 -33 -4 0 -13 -16 -20 -36 -7 -19 -14 -34 -16 -32 -2 2 -9 71 -16 153 -6 83 -15 152 -18 155 -4 3 -13 48 -20 100 -16 117 -38 228 -51 255 -5 11 -20 63 -34 116 -15 53 -33 110 -41 125 -8 16 -15 32 -15 37 0 11 -43 51 -58 53 -7 2 -42 -18 -77 -42 l-64 -45 -11 43 c-39 146 -131 300 -177 297 -10 -1 -61 -6 -113 -10z m-220 -639 c13 -9 10 -14 -15 -35 -16 -14 -36 -25 -43 -25 -7 0 -36 -23 -64 -50 -59 -59 -51 -61 -162 41 l-70 64 55 6 c93 10 283 9 299 -1z m-1780 -926 c0 -2 -13 2 -30 11 -16 9 -30 18 -30 21 0 2 14 -2 30 -11 17 -9 30 -18 30 -21z"/>
 <path d="M5696 2555 c-11 -8 -28 -15 -37 -15 -10 0 -24 -8 -31 -18 -7 -10 -29 -28 -48 -39 -19 -12 -48 -35 -64 -52 -22 -23 -32 -28 -38 -19 -5 8 -8 -2 -8 -24 0 -45 19 -58 82 -58 127 0 270 160 200 223 -22 21 -31 21 -56 2z"/>
 </g>
<g id="layer103" fill="#d83433" stroke="none">
 <path d="M40 8114 c0 -52 27 -102 85 -160 53 -52 175 -144 192 -144 6 0 20 -9 33 -20 13 -11 49 -30 82 -41 32 -12 58 -25 58 -29 0 -4 44 -20 98 -36 53 -15 99 -31 102 -35 3 -3 30 -12 60 -18 63 -14 143 -41 150 -51 3 -3 30 -20 60 -37 30 -16 100 -55 155 -86 65 -36 104 -52 111 -46 7 5 351 9 857 9 694 0 846 3 850 14 3 7 8 39 12 72 4 32 11 64 15 69 13 17 41 271 47 428 l6 147 -1487 0 -1486 0 0 -36z"/>
 <path d="M6552 7798 l3 -263 213 -3 212 -2 0 -248 0 -247 1084 -3 1083 -2 7 76 c8 99 8 269 0 367 l-7 77 -213 0 -214 0 0 255 0 255 -1085 0 -1085 0 2 -262z m1804 126 c67 -32 96 -110 66 -178 -16 -36 -30 -50 -65 -67 -57 -28 -105 -20 -155 26 -35 31 -37 37 -37 94 0 53 4 63 30 91 49 53 100 63 161 34z"/>
 <path d="M6900 5338 c-377 -36 -791 -113 -1290 -240 -286 -73 -290 -75 -290 -192 0 -39 6 -99 14 -134 7 -35 10 -64 7 -66 -19 -11 -258 -15 -380 -7 -110 8 -150 7 -169 -2 -25 -12 -67 -107 -128 -290 -33 -99 -68 -139 -160 -183 -76 -36 -100 -62 -123 -135 -12 -37 -47 -59 -167 -103 -91 -34 -196 -82 -196 -91 -1 -6 17 -17 38 -24 21 -8 42 -20 47 -27 4 -7 30 -20 57 -29 28 -9 50 -21 50 -26 0 -5 5 -9 12 -9 14 0 135 -48 163 -65 11 -7 49 -23 85 -35 36 -13 67 -27 70 -30 5 -7 99 -44 138 -55 12 -3 22 -10 22 -14 0 -5 34 -21 76 -36 l76 -28 81 23 c45 12 96 28 112 36 17 7 68 25 114 39 80 24 97 25 322 25 148 0 240 4 244 10 3 6 24 10 45 10 21 0 42 -4 45 -10 8 -12 82 -13 89 -1 3 4 38 11 78 14 40 3 96 15 123 25 54 21 160 82 186 107 9 8 20 15 25 15 5 0 25 14 44 31 19 18 55 50 80 73 25 22 70 61 100 86 78 66 140 118 185 156 l40 35 7 -48 c9 -59 27 -363 23 -377 -2 -6 -6 -72 -9 -146 -18 -490 -28 -635 -44 -660 -9 -14 -17 -27 -17 -30 -3 -20 -31 -80 -37 -80 -4 0 -8 -4 -8 -10 0 -10 -117 -130 -126 -130 -3 0 -14 -10 -25 -22 -24 -30 -24 -82 0 -122 22 -37 37 -96 23 -96 -5 0 -25 -11 -45 -24 -19 -13 -46 -27 -58 -31 -13 -4 -32 -14 -41 -22 -23 -21 -34 -11 -47 43 -9 36 -26 60 -71 104 -72 71 -118 85 -278 85 l-112 0 -16 33 c-22 46 -58 44 -104 -7 l-36 -39 28 -31 c59 -66 23 -169 -83 -241 -43 -29 -61 -35 -120 -38 -57 -4 -75 -1 -105 17 -20 12 -37 21 -38 19 -1 -2 -18 -25 -37 -53 -19 -27 -44 -70 -54 -95 -11 -25 -28 -54 -37 -64 -10 -11 -18 -28 -18 -39 0 -25 -33 -121 -42 -125 -5 -2 -8 -28 -8 -57 0 -38 -4 -54 -15 -59 -20 -7 -19 -46 1 -46 14 0 15 -7 9 -46 -6 -40 -4 -46 13 -51 11 -2 29 -25 41 -53 12 -26 28 -51 36 -54 8 -3 15 -12 15 -20 0 -17 80 -85 135 -115 210 -112 255 -135 290 -147 21 -8 42 -18 45 -23 3 -4 42 -20 88 -35 l82 -28 0 -69 0 -69 38 0 37 0 -3 -149 c-2 -82 1 -195 7 -252 13 -120 39 -249 51 -249 5 0 11 -14 15 -31 8 -37 43 -99 56 -99 5 0 9 -6 9 -14 0 -7 24 -36 54 -63 67 -60 133 -83 239 -83 89 0 107 5 107 32 0 17 -4 18 -37 11 -74 -16 -149 -7 -200 22 -59 35 -125 95 -143 132 -8 15 -22 39 -32 53 -18 27 -58 161 -58 196 0 12 -4 24 -8 26 -5 2 -12 31 -15 66 -6 56 -5 62 8 48 8 -8 15 -19 15 -25 0 -13 39 -90 56 -111 23 -29 140 -145 171 -170 18 -14 54 -34 82 -45 28 -11 51 -23 51 -27 0 -10 125 -46 186 -55 27 -3 52 -10 55 -16 4 -5 62 -10 130 -11 117 -1 127 1 179 26 64 32 80 44 103 78 17 24 24 110 10 110 -5 0 -27 -5 -51 -10 -47 -11 -135 5 -168 31 -57 45 -122 124 -143 176 -14 32 -28 60 -32 63 -3 3 -16 37 -28 76 -24 80 -35 97 -106 169 -35 35 -81 66 -150 100 -55 27 -105 55 -112 61 -6 6 -39 20 -72 30 l-61 19 0 44 c0 38 6 50 38 82 20 21 69 72 107 114 39 42 80 88 93 102 13 14 34 42 48 63 15 23 31 37 39 34 20 -8 40 33 24 52 -8 10 -10 36 -5 84 5 63 4 69 -14 75 -11 3 -20 12 -20 18 0 7 -18 31 -41 54 l-40 42 29 15 c17 9 32 19 34 24 2 7 132 72 143 72 1 0 5 -9 8 -20 6 -25 38 -26 75 -3 15 10 29 20 32 24 3 4 29 19 58 35 28 15 52 32 52 36 0 4 19 8 43 8 94 1 317 43 317 61 0 5 7 9 15 9 16 0 116 47 125 59 3 3 30 19 60 36 30 16 64 37 74 47 11 10 24 18 29 18 4 0 37 20 71 45 35 25 68 45 74 45 5 0 16 7 23 16 8 9 30 27 50 39 20 13 42 29 50 37 8 7 32 26 54 43 22 16 45 34 51 40 6 5 35 30 64 55 58 49 282 273 342 342 77 89 120 144 129 166 4 12 13 22 18 22 5 0 19 17 32 38 12 20 27 42 33 47 17 15 66 93 66 105 0 5 4 10 10 10 5 0 22 24 36 52 15 29 32 57 39 63 6 5 20 30 30 55 10 25 25 52 32 61 7 8 25 44 39 80 14 35 32 71 39 79 22 26 71 183 59 187 -9 3 -9 14 -1 41 6 20 15 39 19 42 4 3 20 55 35 115 15 61 31 112 34 115 8 7 34 141 50 255 7 50 16 92 20 95 12 8 31 298 27 414 l-3 109 -85 29 c-274 92 -587 74 -853 -49 -75 -35 -77 -37 -74 -68 2 -18 7 -37 11 -43 7 -11 16 -82 21 -162 2 -25 6 -53 10 -63 8 -19 2 -333 -6 -341 -6 -6 -132 37 -140 47 -3 4 -10 7 -15 6 -16 -5 -94 13 -100 22 -3 5 -14 9 -24 9 -10 0 -20 5 -22 12 -6 17 -28 0 -28 -23 0 -10 -4 -19 -9 -19 -5 0 -18 -39 -30 -87 -12 -49 -31 -108 -43 -133 -42 -92 -47 -106 -53 -137 -4 -18 -10 -33 -14 -33 -4 0 -13 -16 -20 -36 -7 -19 -14 -34 -16 -32 -2 2 -9 71 -16 153 -6 83 -15 152 -18 155 -4 3 -13 48 -20 100 -16 117 -38 228 -51 255 -5 11 -20 63 -34 116 -15 53 -33 110 -41 125 -8 16 -15 32 -15 37 0 17 -46 51 -65 48 -11 -1 -43 -20 -72 -42 -29 -21 -54 -39 -57 -39 -2 0 -10 17 -16 38 -29 89 -103 251 -123 269 -31 28 -42 30 -137 21z m-246 -638 c13 -13 -10 -38 -55 -61 -21 -10 -57 -37 -80 -59 -36 -34 -44 -38 -63 -28 -32 17 -167 141 -160 147 8 8 214 17 289 13 33 -2 64 -8 69 -12z m-544 -262 c54 -40 153 -113 219 -162 67 -48 120 -91 117 -93 -5 -5 -41 19 -186 127 -52 39 -120 88 -150 110 -71 50 -117 89 -107 90 5 0 53 -33 107 -72z m-185 -253 c85 -53 195 -126 195 -130 0 -9 -34 11 -258 155 -117 74 -212 138 -212 142 0 4 57 -29 128 -74 70 -44 136 -86 147 -93z m-631 -42 c127 -80 184 -121 153 -110 -21 8 -287 177 -287 183 0 10 21 -1 134 -73z m-415 -149 c95 -53 315 -177 320 -181 2 -2 2 -5 0 -7 -2 -3 -42 17 -89 43 -267 149 -310 174 -310 177 0 9 17 2 79 -32z m-140 -145 c216 -111 266 -139 249 -139 -9 0 -481 241 -492 251 -25 23 24 0 243 -112z"/>
 <path d="M5696 2555 c-11 -8 -28 -15 -37 -15 -10 0 -24 -8 -31 -18 -7 -10 -29 -28 -48 -39 -19 -12 -48 -35 -64 -52 -16 -17 -33 -28 -38 -25 -19 12 -6 -36 14 -50 43 -31 132 -15 194 35 69 53 94 128 56 162 -22 20 -22 20 -46 2z"/>
 </g>
<g id="layer104" fill="#3d72ca" stroke="none">
 <path d="M40 8114 c0 -53 27 -102 88 -162 57 -55 173 -142 189 -142 6 0 20 -9 33 -20 13 -11 49 -30 82 -41 32 -12 58 -25 58 -29 0 -4 44 -20 98 -36 53 -15 99 -31 102 -35 3 -3 30 -12 60 -18 63 -14 143 -41 150 -51 3 -3 30 -20 60 -37 30 -16 100 -55 155 -86 65 -36 104 -52 111 -46 7 5 351 9 857 9 795 0 846 1 851 18 3 9 8 40 11 67 4 28 10 59 15 70 15 34 41 263 47 423 l6 152 -1486 0 -1487 0 0 -36z"/>
 <path d="M6552 7798 l3 -263 220 3 c121 1 608 5 1083 7 l862 5 0 255 0 255 -1085 0 -1085 0 2 -262z m1804 126 c67 -32 96 -110 66 -178 -16 -36 -30 -50 -65 -67 -57 -28 -105 -20 -155 26 -35 31 -37 37 -37 94 0 53 4 63 30 91 49 53 100 63 161 34z"/>
 <path d="M8148 7443 c-795 -3 -1008 -6 -1009 -16 -1 -6 -3 -74 -4 -149 l-2 -138 1014 -2 1013 -3 0 158 c0 86 -1 156 -2 155 -2 -2 -456 -4 -1010 -5z"/>
 <path d="M6900 5338 c-377 -36 -791 -113 -1290 -240 -286 -73 -290 -75 -290 -192 0 -39 6 -99 14 -134 7 -35 10 -64 7 -66 -19 -11 -258 -15 -380 -7 -110 8 -150 7 -169 -2 -25 -12 -67 -107 -128 -290 -33 -99 -68 -139 -160 -183 -76 -36 -100 -62 -123 -135 -12 -37 -47 -59 -167 -103 -91 -34 -196 -82 -196 -91 -1 -6 17 -17 38 -24 21 -8 42 -20 47 -27 4 -7 30 -20 57 -29 28 -9 50 -21 50 -26 0 -5 5 -9 12 -9 14 0 135 -48 163 -65 11 -7 49 -23 85 -35 36 -13 67 -27 70 -30 5 -7 99 -44 138 -55 12 -3 22 -10 22 -14 0 -5 34 -21 76 -36 l76 -28 81 23 c45 12 96 28 112 36 17 7 68 25 114 39 80 24 97 25 322 25 148 0 240 4 244 10 3 6 24 10 45 10 21 0 42 -4 45 -10 8 -12 82 -13 89 -1 3 4 38 11 78 14 40 3 96 15 123 25 54 21 160 82 186 107 9 8 20 15 25 15 5 0 25 14 44 31 19 18 55 50 80 73 25 22 70 61 100 86 78 66 140 118 185 156 l40 35 7 -48 c9 -59 27 -363 23 -377 -2 -6 -6 -72 -9 -146 -18 -490 -28 -635 -44 -660 -9 -14 -17 -27 -17 -30 -3 -20 -31 -80 -37 -80 -4 0 -8 -4 -8 -10 0 -10 -117 -130 -126 -130 -3 0 -14 -10 -25 -22 -24 -30 -24 -82 0 -122 22 -37 37 -96 23 -96 -5 0 -25 -11 -45 -24 -19 -13 -46 -27 -58 -31 -13 -4 -32 -14 -41 -22 -23 -21 -34 -11 -47 43 -9 36 -26 60 -71 104 -72 71 -118 85 -278 85 l-112 0 -16 33 c-22 46 -58 44 -104 -7 l-36 -39 28 -31 c59 -66 23 -169 -83 -241 -43 -29 -61 -35 -120 -38 -57 -4 -75 -1 -105 17 -20 12 -37 21 -38 19 -1 -2 -18 -25 -37 -53 -19 -27 -44 -70 -54 -95 -11 -25 -28 -54 -37 -64 -10 -11 -18 -28 -18 -39 0 -25 -33 -121 -42 -125 -5 -2 -8 -28 -8 -57 0 -29 -3 -55 -7 -58 -5 -2 -2 -2 5 0 173 43 397 68 492 56 41 -6 156 -11 255 -13 99 -1 198 -3 220 -5 156 -13 196 -18 239 -26 51 -9 120 -11 99 -2 -7 2 -13 10 -13 16 0 7 -18 31 -41 54 l-40 42 29 15 c17 9 32 19 34 24 2 7 132 72 143 72 1 0 5 -9 8 -20 6 -25 38 -26 75 -3 15 10 29 20 32 24 3 4 29 19 58 35 28 15 52 32 52 36 0 4 19 8 43 8 94 1 317 43 317 61 0 5 7 9 15 9 16 0 116 47 125 59 3 3 30 19 60 36 30 16 64 37 74 47 11 10 24 18 29 18 4 0 37 20 71 45 35 25 68 45 74 45 5 0 16 7 23 16 8 9 30 27 50 39 20 13 42 29 50 37 8 7 32 26 54 43 22 16 45 34 51 40 6 5 35 30 64 55 58 49 282 273 342 342 77 89 120 144 129 166 4 12 13 22 18 22 5 0 19 17 32 38 12 20 27 42 33 47 17 15 66 93 66 105 0 5 4 10 10 10 5 0 22 24 36 52 15 29 32 57 39 63 6 5 20 30 30 55 10 25 25 52 32 61 7 8 25 44 39 80 14 35 32 71 39 79 22 26 71 183 59 187 -9 3 -9 14 -1 41 6 20 15 39 19 42 4 3 20 55 35 115 15 61 31 112 34 115 8 7 34 141 50 255 7 50 16 92 20 95 12 8 31 298 27 414 l-3 109 -85 29 c-274 92 -587 74 -853 -49 -75 -35 -77 -37 -74 -68 2 -18 7 -37 11 -43 7 -11 16 -82 21 -162 2 -25 6 -53 10 -63 8 -19 2 -333 -6 -341 -6 -6 -132 37 -140 47 -3 4 -10 7 -15 6 -16 -5 -94 13 -100 22 -3 5 -14 9 -24 9 -10 0 -20 5 -22 12 -6 17 -28 0 -28 -23 0 -10 -4 -19 -9 -19 -5 0 -18 -39 -30 -87 -12 -49 -31 -108 -43 -133 -42 -92 -47 -106 -53 -137 -4 -18 -10 -33 -14 -33 -4 0 -13 -16 -20 -36 -7 -19 -14 -34 -16 -32 -2 2 -9 71 -16 153 -6 83 -15 152 -18 155 -4 3 -13 48 -20 100 -16 117 -38 228 -51 255 -5 11 -20 63 -34 116 -15 53 -33 110 -41 125 -8 16 -15 32 -15 37 0 17 -46 51 -65 48 -11 -1 -43 -20 -72 -42 -29 -21 -54 -39 -57 -39 -2 0 -10 17 -16 38 -29 89 -103 251 -123 269 -31 28 -42 30 -137 21z m-246 -638 c13 -13 -10 -38 -55 -61 -21 -10 -57 -37 -80 -59 -36 -34 -44 -38 -63 -28 -32 17 -167 141 -160 147 8 8 214 17 289 13 33 -2 64 -8 69 -12z m-544 -262 c54 -40 153 -113 219 -162 67 -48 120 -91 117 -93 -5 -5 -41 19 -186 127 -52 39 -120 88 -150 110 -71 50 -117 89 -107 90 5 0 53 -33 107 -72z m-185 -253 c85 -53 195 -126 195 -130 0 -9 -34 11 -258 155 -117 74 -212 138 -212 142 0 4 57 -29 128 -74 70 -44 136 -86 147 -93z m-631 -42 c127 -80 184 -121 153 -110 -21 8 -287 177 -287 183 0 10 21 -1 134 -73z m-415 -149 c95 -53 315 -177 320 -181 2 -2 2 -5 0 -7 -2 -3 -42 17 -89 43 -267 149 -310 174 -310 177 0 9 17 2 79 -32z m-140 -145 c216 -111 266 -139 249 -139 -9 0 -481 241 -492 251 -25 23 24 0 243 -112z"/>
 <path d="M5696 2555 c-11 -8 -28 -15 -37 -15 -10 0 -24 -8 -31 -18 -7 -10 -29 -28 -48 -39 -19 -12 -48 -35 -64 -52 -16 -17 -33 -28 -38 -25 -19 12 -6 -36 14 -50 43 -31 132 -15 194 35 69 53 94 128 56 162 -22 20 -22 20 -46 2z"/>
 <path d="M5492 1859 c-162 -15 -262 -45 -262 -78 0 -29 25 -33 78 -12 40 16 193 57 327 89 l40 10 -50 0 c-27 -1 -87 -4 -133 -9z"/>
 <path d="M6110 1851 c0 -6 30 -19 68 -30 37 -11 83 -24 102 -30 19 -5 77 -25 129 -45 148 -55 139 -55 143 8 1 30 0 52 -3 50 -4 -2 -29 1 -55 6 -27 6 -62 13 -79 15 -16 3 -35 7 -42 9 -6 3 -53 7 -105 11 -51 3 -108 8 -125 11 -19 3 -33 1 -33 -5z"/>
 <path d="M5750 1838 c-209 -29 -490 -107 -490 -135 0 -23 41 -101 56 -107 8 -3 14 -12 14 -20 0 -17 80 -85 135 -115 210 -112 255 -135 290 -147 21 -8 42 -18 45 -23 3 -4 37 -18 75 -31 39 -13 76 -25 83 -28 8 -3 12 8 12 35 0 21 5 44 12 51 19 19 197 16 219 -3 19 -18 16 -20 154 130 39 42 80 88 93 102 13 14 34 42 48 63 16 24 31 37 40 33 8 -3 14 -1 14 4 0 10 -16 16 -183 78 -98 36 -202 68 -299 91 -10 2 -28 6 -40 9 -111 27 -165 29 -278 13z"/>
 <path d="M5222 1731 c2 -14 9 -26 16 -29 17 -5 15 10 -3 34 -15 18 -15 18 -13 -5z"/>
 <path d="M6207 1193 c-4 -3 -7 -26 -7 -50 l0 -43 -74 0 -73 0 -7 -37 c-9 -59 -7 -288 4 -388 13 -110 39 -235 50 -235 5 0 11 -14 15 -31 8 -37 43 -99 56 -99 5 0 9 -6 9 -14 0 -7 24 -36 54 -63 67 -60 133 -83 239 -83 89 0 107 5 107 32 0 17 -4 18 -37 11 -74 -16 -149 -7 -200 22 -59 35 -125 95 -143 132 -8 15 -22 39 -32 53 -18 27 -58 161 -58 196 0 12 -4 24 -8 26 -5 2 -12 31 -15 66 -6 56 -5 62 8 48 8 -8 15 -19 15 -25 0 -13 39 -90 56 -111 23 -29 140 -145 171 -170 18 -14 54 -34 82 -45 28 -11 51 -23 51 -27 0 -10 125 -46 186 -55 27 -3 52 -10 55 -16 4 -5 62 -10 130 -11 117 -1 127 1 179 26 64 32 80 44 103 78 17 24 24 110 10 110 -5 0 -27 -5 -51 -10 -47 -11 -135 5 -168 31 -57 45 -122 124 -143 176 -14 32 -28 60 -32 63 -3 3 -16 37 -28 76 -24 77 -34 93 -101 165 -31 33 -76 63 -145 98 -55 28 -105 55 -112 61 -15 13 -109 50 -127 50 -7 0 -16 -3 -19 -7z"/>
 </g>
<g id="layer105" fill="#7b82ac" stroke="none">
 <path d="M40 8114 c0 -53 27 -102 88 -162 57 -55 173 -142 189 -142 6 0 20 -9 33 -20 13 -11 49 -30 82 -41 32 -12 58 -25 58 -29 0 -4 44 -20 98 -36 53 -15 99 -31 102 -35 3 -3 30 -12 60 -18 63 -14 143 -41 150 -51 3 -3 30 -20 60 -37 30 -16 100 -55 155 -86 65 -36 104 -52 111 -46 7 5 351 9 857 9 795 0 846 1 851 18 3 9 8 40 11 67 4 28 10 59 15 70 15 34 41 263 47 423 l6 152 -1486 0 -1487 0 0 -36z"/>
 <path d="M6552 7798 l3 -263 220 3 c121 1 608 5 1083 7 l862 5 0 255 0 255 -1085 0 -1085 0 2 -262z m1825 122 c87 -52 82 -202 -7 -247 -36 -18 -117 -16 -151 4 -33 20 -69 86 -69 127 0 39 36 103 68 120 39 22 120 20 159 -4z"/>
 <path d="M8148 7443 c-795 -3 -1008 -6 -1009 -16 -1 -6 -3 -74 -4 -149 l-2 -138 1014 -2 1013 -3 0 158 c0 86 -1 156 -2 155 -2 -2 -456 -4 -1010 -5z"/>
 <path d="M6830 5329 c-364 -41 -746 -113 -1145 -214 -277 -70 -337 -91 -354 -123 -15 -28 -13 -134 3 -212 8 -36 12 -68 10 -71 -8 -13 -246 -19 -383 -10 -110 8 -151 7 -169 -2 -25 -12 -67 -107 -128 -290 -33 -99 -68 -139 -160 -183 -76 -36 -100 -62 -123 -135 -12 -37 -47 -59 -167 -103 -91 -34 -196 -82 -196 -91 -1 -6 17 -17 38 -25 21 -8 46 -22 56 -32 10 -10 23 -18 30 -18 6 0 43 -15 82 -34 39 -18 82 -37 96 -41 14 -4 39 -15 55 -25 17 -9 59 -27 95 -40 36 -13 67 -27 70 -30 5 -7 99 -44 138 -55 12 -3 22 -10 22 -14 0 -5 34 -21 76 -36 l76 -28 81 23 c45 12 96 28 112 36 17 7 66 25 110 38 76 25 91 26 322 26 150 0 244 4 248 10 3 6 24 10 45 10 21 0 42 -4 45 -10 8 -12 82 -13 89 -1 3 4 38 11 78 14 40 3 96 15 123 25 54 21 160 82 186 107 9 8 20 15 25 15 5 0 25 14 44 31 19 18 55 50 80 73 25 22 68 60 95 82 28 23 91 76 140 119 l90 76 7 -48 c10 -66 28 -370 23 -386 -2 -6 -6 -73 -9 -147 -20 -510 -28 -625 -44 -650 -9 -14 -17 -27 -17 -30 -3 -18 -30 -80 -36 -80 -3 0 -6 -11 -6 -24 0 -13 -20 -69 -44 -123 -40 -93 -48 -134 -37 -198 2 -14 -3 -20 -17 -20 -11 0 -24 -3 -30 -8 -32 -24 -86 -56 -106 -62 -13 -4 -32 -14 -41 -22 -23 -21 -33 -11 -48 44 -10 36 -28 62 -71 104 -71 70 -117 84 -277 84 l-112 0 -16 33 c-22 46 -58 44 -104 -7 l-36 -39 28 -31 c59 -66 23 -169 -83 -241 -43 -29 -61 -35 -120 -38 -57 -4 -75 -1 -105 17 -20 12 -37 21 -38 19 -1 -2 -18 -25 -38 -53 -19 -27 -43 -71 -54 -97 -10 -27 -22 -48 -25 -48 -4 0 -19 -37 -33 -82 -15 -46 -31 -91 -36 -100 -6 -10 -10 -38 -10 -62 0 -24 -3 -46 -7 -49 -5 -2 -1 -2 7 1 8 3 41 9 73 15 31 5 57 13 57 17 0 3 14 4 31 2 20 -3 29 -1 26 5 -4 6 4 8 18 5 14 -2 33 2 42 9 12 10 15 11 9 1 -6 -10 -1 -11 21 -5 35 10 229 10 266 0 21 -6 27 -5 22 4 -6 8 -2 8 12 1 22 -12 384 -21 376 -9 -2 4 3 7 11 7 8 0 18 -5 21 -11 4 -6 26 -9 49 -8 22 1 48 -1 56 -4 8 -3 22 -5 30 -5 8 0 42 -4 74 -11 59 -11 133 -14 109 -4 -7 2 -13 10 -13 16 0 7 -18 31 -41 54 l-40 42 30 16 c17 8 31 20 31 24 0 5 15 14 34 21 18 6 59 26 91 45 32 19 60 35 62 35 3 0 2 -16 -1 -35 -5 -22 -3 -35 4 -35 11 0 60 29 70 41 3 3 28 19 55 34 28 16 52 32 55 36 3 3 43 10 90 13 129 11 270 41 270 57 0 5 7 9 15 9 16 0 116 47 125 59 3 3 30 19 60 36 30 16 64 37 74 47 11 10 24 18 29 18 4 0 37 20 71 45 35 25 68 45 74 45 5 0 16 7 23 16 8 9 28 26 45 38 38 26 145 106 160 120 6 6 35 31 64 56 61 51 286 277 342 342 93 109 120 145 129 166 4 12 13 22 18 22 5 0 19 17 32 38 12 20 27 42 33 47 17 15 66 93 66 105 0 5 4 10 8 10 5 0 22 24 37 53 16 28 32 54 36 57 7 5 52 89 90 170 82 175 97 210 110 249 10 33 10 46 2 48 -9 3 -9 12 -2 30 5 13 7 29 4 33 -3 5 1 12 8 17 20 12 32 53 15 53 -9 1 -8 4 4 13 18 14 42 92 33 107 -3 6 -1 10 4 10 6 0 11 11 11 25 0 14 4 25 8 25 9 0 35 124 53 255 6 44 15 89 20 100 13 31 29 235 29 376 l0 127 -50 21 c-105 45 -232 66 -410 65 -146 0 -177 -3 -270 -26 -58 -15 -145 -45 -195 -67 -94 -42 -107 -59 -84 -103 10 -18 19 -87 24 -171 1 -26 5 -51 9 -54 8 -8 8 -233 0 -300 -6 -43 -10 -53 -25 -53 -11 0 -19 4 -19 9 0 5 -22 15 -50 22 -27 7 -50 17 -50 21 0 5 -6 8 -12 6 -17 -3 -86 11 -109 23 -11 5 -28 13 -38 18 -22 11 -31 5 -31 -21 0 -10 -4 -18 -9 -18 -5 0 -18 -39 -30 -87 -12 -49 -31 -108 -43 -133 -42 -92 -47 -106 -53 -137 -4 -18 -10 -33 -14 -33 -4 0 -13 -16 -20 -36 -7 -19 -14 -34 -16 -32 -2 2 -8 66 -14 143 -7 77 -16 149 -20 160 -5 11 -14 61 -21 110 -15 112 -37 224 -50 250 -5 11 -20 63 -34 116 -15 53 -33 110 -41 125 -8 16 -15 33 -15 37 0 13 -43 46 -61 47 -8 0 -40 -18 -69 -40 -30 -22 -58 -39 -63 -37 -5 1 -25 47 -46 102 -46 122 -74 178 -103 205 -24 22 -64 24 -198 9z m-169 -630 c11 -19 4 -26 -51 -54 -27 -14 -68 -43 -90 -64 -28 -26 -47 -38 -58 -33 -28 10 -173 145 -165 153 21 21 351 19 364 -2z m-551 -261 c54 -40 153 -113 219 -162 67 -48 120 -91 117 -93 -5 -5 -41 19 -186 127 -52 39 -120 88 -150 110 -71 50 -117 89 -107 90 5 0 53 -33 107 -72z m-185 -253 c85 -53 195 -126 195 -130 0 -9 -34 11 -258 155 -117 74 -212 138 -212 142 0 4 57 -29 128 -74 70 -44 136 -86 147 -93z m-631 -42 c127 -80 184 -121 153 -110 -21 8 -287 177 -287 183 0 10 21 -1 134 -73z m-415 -149 c95 -53 315 -177 320 -181 2 -2 2 -5 0 -7 -2 -3 -42 17 -89 43 -267 149 -310 174 -310 177 0 9 17 2 79 -32z m-140 -145 c216 -111 266 -139 249 -139 -9 0 -481 241 -492 251 -25 23 24 0 243 -112z"/>
 <path d="M6527 2684 c-11 -14 -16 -28 -13 -31 3 -4 7 -4 9 -2 1 2 13 16 26 32 17 18 20 27 10 27 -8 0 -22 -12 -32 -26z"/>
 <path d="M5672 2545 c-24 -12 -47 -26 -50 -31 -4 -6 -23 -20 -42 -31 -19 -12 -48 -35 -64 -52 -16 -17 -32 -28 -36 -26 -16 10 -2 -39 15 -51 78 -57 265 54 265 157 0 22 -28 62 -41 58 -2 -1 -24 -12 -47 -24z"/>
 <path d="M5520 1863 c-30 -2 -62 -6 -70 -10 -8 -3 -28 -5 -44 -4 -16 2 -26 -1 -22 -7 3 -5 -5 -7 -19 -4 -14 2 -36 -3 -51 -13 -15 -9 -23 -12 -20 -6 4 6 -7 5 -26 -3 -36 -16 -46 -37 -26 -54 10 -8 36 -3 101 19 49 16 95 29 103 29 8 0 12 4 9 10 -3 5 0 7 9 4 8 -3 41 2 73 11 32 10 73 19 92 21 18 2 36 6 39 9 5 5 -43 4 -148 -2z"/>
 <path d="M6110 1851 c0 -13 68 -34 86 -27 10 4 13 2 8 -6 -5 -7 0 -9 14 -6 12 4 20 2 17 -3 -3 -4 17 -11 45 -15 27 -4 50 -11 50 -16 0 -6 7 -7 16 -4 8 3 13 2 10 -3 -7 -11 41 -24 57 -15 7 4 9 3 4 -1 -7 -8 51 -35 106 -49 24 -6 25 -4 29 48 1 30 0 52 -3 50 -4 -2 -29 1 -55 7 -69 14 -73 15 -129 23 -27 4 -61 9 -73 12 -15 3 -21 1 -17 -6 3 -5 2 -10 -4 -10 -5 0 -13 5 -17 11 -4 8 -25 9 -60 5 -34 -4 -54 -2 -54 4 0 5 -7 10 -15 10 -8 0 -15 -4 -15 -9z"/>
 <path d="M5826 1843 c-4 -4 -23 -6 -42 -5 -20 2 -43 -3 -52 -10 -12 -10 -14 -10 -8 0 9 16 3 15 -40 -3 -19 -8 -32 -11 -30 -6 3 4 -18 2 -47 -6 -29 -8 -65 -16 -82 -18 -58 -8 -85 -17 -80 -24 2 -5 -7 -6 -22 -3 -19 4 -24 2 -18 -8 5 -9 4 -11 -4 -6 -16 10 -141 -36 -141 -52 0 -22 41 -100 56 -106 8 -3 14 -12 14 -20 0 -20 86 -89 145 -118 28 -12 52 -26 55 -29 19 -22 315 -162 388 -183 l52 -15 0 38 c0 58 19 68 122 67 66 -2 91 -6 105 -19 18 -16 21 -15 51 16 105 105 217 231 249 279 15 23 30 35 39 31 8 -3 14 -1 14 4 0 12 -61 34 -73 26 -6 -3 -7 -1 -3 5 7 11 -8 16 -42 15 -7 -1 -11 2 -7 5 9 9 -125 53 -138 45 -5 -3 -7 -2 -4 4 7 11 -68 37 -81 29 -5 -3 -21 2 -37 10 -15 8 -30 12 -33 9 -3 -3 -11 0 -18 6 -8 6 -28 12 -46 14 -18 1 -46 8 -63 14 -16 7 -42 11 -57 9 -15 -3 -25 -1 -22 4 6 10 -90 11 -100 1z"/>
 <path d="M5222 1731 c2 -14 9 -26 16 -29 17 -5 15 10 -3 34 -15 18 -15 18 -13 -5z"/>
 <path d="M6204 1186 c-3 -9 -4 -33 -3 -53 l4 -38 -76 3 -76 3 -6 -38 c-10 -59 -8 -288 3 -388 13 -110 39 -235 50 -235 5 0 11 -14 15 -31 8 -37 43 -99 56 -99 5 0 9 -6 9 -13 0 -22 86 -96 137 -119 32 -14 76 -23 130 -26 101 -6 133 1 133 29 0 18 -4 20 -32 12 -67 -17 -153 -8 -204 22 -68 40 -119 90 -158 154 -33 54 -76 182 -76 227 0 12 -4 24 -8 26 -5 2 -12 31 -15 66 -6 56 -5 62 8 48 8 -8 15 -19 15 -25 0 -15 41 -93 61 -116 94 -106 183 -182 245 -208 27 -12 51 -24 54 -28 8 -12 178 -59 210 -59 16 0 30 -5 32 -11 3 -8 46 -12 128 -13 117 -1 129 1 181 26 79 38 119 86 119 143 0 25 -3 45 -7 45 -5 0 -27 -5 -51 -10 -47 -11 -135 5 -167 31 -92 73 -156 172 -206 318 -43 128 -104 191 -262 271 -60 30 -124 63 -143 73 -54 27 -93 33 -100 13z"/>
 </g>
<g id="layer106" fill="#428cf9" stroke="none">
 <path d="M40 8114 c0 -53 27 -102 88 -162 57 -55 173 -142 189 -142 6 0 20 -9 33 -20 13 -11 49 -30 82 -41 32 -12 58 -25 58 -29 0 -4 44 -20 98 -36 53 -15 99 -31 102 -35 3 -3 30 -12 60 -18 63 -14 143 -41 150 -51 5 -6 47 -30 175 -100 28 -15 70 -39 95 -53 29 -17 48 -23 56 -16 7 5 338 9 857 9 l845 0 11 51 c6 27 11 59 11 70 0 10 4 27 10 37 15 27 40 253 47 420 l6 152 -1486 0 -1487 0 0 -36z"/>
 <path d="M6552 7798 c3 -228 5 -262 18 -259 8 2 495 6 1083 9 l1067 5 0 253 0 254 -1085 0 -1085 0 2 -262z m1825 122 c87 -52 82 -202 -7 -247 -36 -18 -117 -16 -151 4 -33 20 -69 86 -69 127 0 39 36 103 68 120 39 22 120 20 159 -4z"/>
 <path d="M8148 7443 c-795 -3 -1008 -6 -1009 -16 -1 -6 -3 -74 -4 -149 l-2 -138 1014 -2 1013 -3 0 158 c0 86 -1 156 -2 155 -2 -2 -456 -4 -1010 -5z"/>
 <path d="M6805 5319 c-351 -37 -599 -82 -1085 -201 -303 -74 -357 -92 -381 -131 -17 -27 -19 -43 -14 -102 3 -38 12 -95 20 -125 8 -30 15 -55 15 -56 1 -8 -300 -12 -404 -4 -106 7 -146 6 -164 -3 -25 -12 -67 -107 -128 -290 -33 -99 -68 -139 -160 -183 -79 -37 -110 -73 -121 -139 -5 -29 -13 -40 -37 -50 -37 -17 -143 -61 -250 -106 l-79 -32 37 -19 c20 -10 46 -28 56 -38 11 -11 25 -20 32 -20 6 0 44 -16 85 -35 41 -19 79 -35 85 -35 6 0 30 -11 52 -23 23 -13 70 -34 106 -47 36 -13 67 -26 70 -30 7 -9 110 -50 126 -50 7 0 20 -7 28 -16 9 -8 48 -27 88 -40 l73 -26 80 22 c44 12 94 28 110 36 17 7 66 25 110 38 76 25 91 26 322 26 150 0 244 4 248 10 3 6 26 10 51 10 24 0 44 -4 44 -10 0 -12 77 -13 84 -1 3 4 38 11 78 14 84 7 157 32 219 74 24 17 54 33 66 37 11 4 24 13 27 21 3 8 11 15 18 15 8 0 29 14 48 31 19 18 55 50 80 73 25 22 68 60 95 82 28 23 91 76 140 119 l90 76 7 -48 c10 -66 28 -370 23 -386 -2 -6 -6 -75 -9 -152 -19 -496 -28 -620 -44 -645 -9 -14 -17 -29 -19 -35 -6 -25 -64 -178 -98 -260 -35 -84 -37 -93 -26 -133 6 -24 9 -48 6 -53 -8 -12 -35 -12 -35 1 0 8 -4 7 -12 0 -28 -23 -87 -58 -109 -65 -13 -4 -32 -14 -41 -22 -23 -21 -33 -11 -48 44 -10 36 -28 62 -71 104 -70 69 -116 83 -274 84 -112 0 -130 5 -137 41 -2 13 -13 20 -34 22 -26 3 -37 -3 -62 -36 l-31 -39 24 -33 c53 -72 18 -170 -86 -240 -43 -29 -61 -35 -120 -38 -57 -4 -75 -1 -105 17 -35 21 -37 21 -50 4 -7 -10 -14 -21 -14 -25 0 -4 -10 -18 -22 -31 -13 -14 -32 -48 -43 -76 -11 -28 -22 -51 -26 -51 -4 0 -19 -37 -33 -82 -15 -46 -31 -91 -36 -100 -6 -10 -10 -38 -10 -62 0 -24 -3 -46 -7 -49 -5 -2 -1 -2 7 1 170 51 192 55 385 55 385 2 663 -10 785 -32 111 -20 160 -25 133 -14 -7 2 -13 10 -13 16 0 7 -18 31 -41 54 l-40 42 30 16 c17 8 31 19 31 23 0 4 29 20 65 36 36 15 75 39 88 52 32 34 40 30 33 -16 -4 -25 -2 -40 4 -40 11 0 60 29 70 41 3 3 28 19 55 34 28 16 52 32 55 36 3 3 43 10 90 13 129 11 270 41 270 57 0 5 7 9 15 9 16 0 116 47 125 59 3 3 30 19 60 36 30 16 64 37 74 47 11 10 24 18 29 18 4 0 37 20 71 45 35 25 68 45 74 45 6 0 17 8 24 18 7 10 27 27 44 37 34 22 142 102 160 120 6 6 35 31 64 56 52 43 280 269 332 329 60 69 138 168 138 174 0 4 14 21 30 38 17 16 30 36 30 43 0 8 8 20 18 27 19 14 72 92 72 106 0 5 8 16 19 26 10 9 26 34 36 56 10 22 21 40 25 40 4 0 20 28 35 63 15 34 31 64 34 67 3 3 11 16 18 30 111 237 135 301 116 307 -9 3 -9 12 -2 30 5 13 7 29 4 33 -3 5 1 12 8 17 20 12 32 53 15 53 -9 1 -8 4 4 13 18 14 42 92 33 107 -3 6 -1 10 4 10 6 0 11 11 11 25 0 14 4 25 8 25 9 0 35 127 53 255 6 44 14 89 19 100 14 30 30 234 30 376 l0 127 -50 21 c-105 45 -232 66 -410 65 -146 0 -177 -3 -270 -26 -58 -15 -145 -45 -195 -67 -94 -42 -100 -50 -83 -100 5 -13 11 -45 13 -70 3 -25 9 -71 14 -101 11 -70 14 -272 5 -350 -5 -50 -10 -60 -25 -60 -11 0 -19 4 -19 9 0 5 -22 15 -50 22 -27 7 -50 16 -50 19 0 4 -16 7 -35 8 -32 1 -77 16 -126 42 -20 10 -29 3 -29 -22 0 -10 -4 -18 -9 -18 -5 0 -18 -39 -30 -87 -12 -49 -30 -106 -41 -128 -22 -49 -43 -98 -45 -105 -1 -3 -5 -20 -9 -37 -4 -18 -11 -33 -15 -33 -4 0 -13 -16 -20 -36 -7 -19 -14 -34 -16 -32 -2 2 -8 66 -15 143 -6 77 -15 149 -20 160 -5 11 -14 58 -20 105 -14 108 -40 243 -49 250 -3 3 -19 54 -34 115 -15 60 -32 112 -36 115 -5 3 -12 19 -15 35 -4 17 -18 38 -32 49 -30 21 -38 18 -118 -39 -27 -20 -52 -32 -56 -28 -4 4 -22 49 -40 98 -43 119 -84 200 -112 219 -12 9 -25 15 -28 15 -3 -1 -86 -10 -185 -20z m-147 -611 c7 -7 12 -17 12 -22 0 -13 -64 -56 -83 -56 -8 0 -35 -20 -61 -44 -37 -34 -52 -42 -71 -37 -23 6 -175 139 -175 153 0 18 360 24 378 6z m-603 -223 c28 -19 93 -66 145 -105 52 -39 130 -95 173 -125 42 -31 77 -62 77 -71 0 -9 -5 -14 -10 -12 -9 3 -121 84 -363 263 -74 55 -102 85 -80 85 4 0 31 -16 58 -35z m-329 -164 c32 -21 91 -59 129 -83 39 -24 102 -64 140 -88 107 -67 137 -92 127 -102 -6 -6 -48 16 -108 54 -55 35 -158 102 -231 149 -73 46 -132 90 -133 97 0 19 13 15 76 -27z m-440 -166 c54 -35 116 -74 137 -85 20 -11 37 -27 37 -35 0 -8 -3 -15 -6 -15 -13 0 -294 183 -294 191 0 20 31 6 126 -56z m-400 -157 c42 -24 106 -60 143 -80 36 -21 92 -51 124 -68 55 -29 73 -50 42 -50 -15 0 -145 71 -216 117 -19 12 -38 23 -41 23 -15 0 -157 88 -151 93 11 11 19 9 99 -35z m-159 -135 c246 -126 282 -147 271 -158 -8 -9 -510 246 -516 263 -2 6 0 12 5 12 5 0 113 -53 240 -117z"/>
 <path d="M6530 2685 c-13 -14 -20 -28 -17 -32 4 -3 8 -4 10 -2 1 2 13 16 26 32 31 34 13 36 -19 2z"/>
 <path d="M5671 2545 c-24 -12 -48 -29 -53 -39 -5 -9 -15 -16 -22 -16 -8 0 -36 -20 -64 -45 -27 -24 -51 -42 -54 -40 -3 3 -4 -5 -3 -16 5 -66 127 -65 211 2 69 53 94 128 56 162 -10 10 -20 16 -23 16 -2 -1 -24 -12 -48 -24z"/>
 <path d="M5550 1863 c-128 -16 -320 -62 -320 -77 0 -19 22 -37 34 -27 17 12 171 61 256 80 69 16 88 31 30 24z"/>
 <path d="M5693 1820 c-126 -19 -162 -28 -318 -74 -118 -35 -122 -40 -95 -100 12 -25 26 -46 31 -46 5 0 12 -8 16 -17 9 -25 44 -63 59 -63 6 0 14 -7 18 -15 3 -8 31 -27 63 -42 32 -16 60 -31 63 -34 3 -4 28 -18 55 -31 28 -14 68 -35 90 -46 87 -45 193 -91 243 -106 l52 -15 0 48 c0 57 1 58 110 55 126 -2 130 -3 130 -20 0 -11 8 -9 35 12 19 14 35 31 35 37 0 6 30 41 68 78 92 92 172 189 172 210 0 21 -357 138 -515 169 -126 24 -153 24 -312 0z"/>
 <path d="M6295 1796 c72 -24 156 -56 188 -70 32 -14 59 -26 61 -26 2 0 6 24 8 54 1 30 -1 52 -5 49 -8 -5 -157 14 -187 23 -8 3 -55 7 -105 9 l-90 4 130 -43z"/>
 <path d="M5222 1731 c2 -14 9 -26 16 -29 17 -5 15 10 -3 34 -15 18 -15 18 -13 -5z"/>
 <path d="M6210 1146 l0 -56 -79 0 -78 0 -7 -31 c-9 -48 -7 -272 4 -379 12 -115 39 -240 51 -240 5 0 9 -5 9 -11 0 -20 50 -119 60 -119 5 0 10 -6 10 -13 0 -22 86 -96 137 -119 32 -14 76 -23 130 -26 101 -6 133 1 133 29 0 18 -4 20 -32 12 -67 -17 -153 -8 -204 22 -68 40 -119 90 -158 154 -33 54 -76 182 -76 227 0 12 -4 24 -9 26 -4 2 -11 32 -15 67 -7 58 -6 62 8 48 9 -9 16 -20 16 -26 0 -15 41 -93 61 -116 94 -106 183 -182 245 -208 27 -12 51 -24 54 -28 8 -12 178 -59 210 -59 16 0 30 -5 32 -11 5 -16 266 -18 276 -3 4 6 24 17 44 23 20 7 53 30 72 52 30 33 36 47 36 84 0 25 -3 45 -7 45 -5 0 -27 -5 -51 -10 -47 -11 -135 5 -167 31 -92 73 -157 174 -206 319 -12 36 -30 74 -40 86 -11 11 -19 25 -19 30 0 25 -104 104 -203 154 -60 30 -124 63 -143 73 -20 10 -48 20 -65 24 l-29 6 0 -57z"/>
 </g>
<g id="layer107" fill="#faa934" stroke="none">
 <path d="M40 8114 c0 -53 27 -102 88 -162 57 -55 173 -142 189 -142 6 0 20 -9 33 -20 13 -11 49 -30 82 -41 32 -12 58 -25 58 -29 0 -4 44 -20 98 -36 53 -15 99 -31 102 -35 3 -4 32 -12 65 -19 62 -13 136 -39 145 -51 3 -3 32 -21 65 -38 33 -18 87 -48 120 -67 120 -68 132 -73 142 -63 5 5 336 9 855 9 l846 0 11 51 c6 27 11 59 11 70 0 10 4 27 10 37 15 27 40 253 47 420 l6 152 -1486 0 -1487 0 0 -36z"/>
 <path d="M7182 7793 l3 -128 380 0 380 0 0 125 0 125 -383 3 -383 2 3 -127z"/>
 <path d="M8148 7443 c-795 -3 -1008 -6 -1009 -16 -1 -6 -3 -74 -4 -149 l-2 -138 1014 -2 1013 -3 0 158 c0 86 -1 156 -2 155 -2 -2 -456 -4 -1010 -5z"/>
 <path d="M6805 5319 c-351 -37 -599 -82 -1085 -201 -303 -74 -357 -92 -381 -131 -17 -27 -19 -43 -14 -102 3 -38 12 -95 20 -125 8 -30 15 -55 15 -56 1 -8 -300 -12 -404 -4 -106 7 -146 6 -164 -3 -25 -12 -67 -107 -128 -290 -33 -99 -68 -139 -160 -183 -79 -37 -110 -73 -121 -139 -5 -29 -13 -40 -37 -50 -37 -17 -143 -61 -250 -106 l-79 -32 39 -20 c21 -11 42 -25 47 -33 4 -7 31 -20 60 -30 28 -9 54 -20 57 -23 3 -4 25 -15 50 -25 25 -10 72 -30 105 -46 33 -15 83 -36 110 -46 28 -10 52 -21 55 -25 3 -3 39 -19 80 -33 41 -15 77 -31 80 -37 3 -5 40 -21 80 -35 l75 -26 80 22 c44 12 94 28 110 36 17 7 66 25 110 39 76 24 91 25 322 25 155 0 243 4 243 10 0 6 23 10 50 10 28 0 50 -4 50 -10 0 -12 77 -13 84 -1 3 4 38 11 78 14 84 7 157 32 219 74 24 17 54 33 66 37 11 4 24 13 27 21 3 8 10 15 17 15 16 0 69 46 62 54 -4 3 -1 6 6 6 6 0 30 17 53 38 48 43 73 65 123 107 77 64 109 91 135 116 15 14 39 33 53 42 l25 16 7 -57 c14 -129 23 -292 19 -362 -2 -41 -6 -127 -9 -190 -2 -63 -10 -218 -16 -343 -9 -201 -9 -233 5 -262 19 -39 88 -299 110 -410 38 -196 40 -293 7 -377 -10 -25 -8 -28 12 -28 87 0 314 41 327 59 3 4 35 20 73 36 37 15 67 31 67 34 0 4 25 20 57 35 31 16 64 37 75 48 10 10 23 18 29 18 6 0 28 13 48 29 20 16 55 39 79 51 23 12 46 28 50 35 4 7 21 20 39 29 17 9 38 24 45 33 7 10 24 24 38 31 14 7 44 30 66 50 23 20 60 53 84 72 50 42 284 272 285 281 0 3 16 22 35 42 19 20 40 42 45 50 6 7 29 36 53 64 23 28 42 56 42 62 0 6 8 15 18 20 10 5 29 30 42 55 13 25 27 46 31 46 5 0 20 21 35 48 15 26 38 60 51 75 13 16 23 34 23 41 0 7 9 22 21 34 11 13 32 48 46 80 15 31 29 59 33 62 7 6 32 58 56 120 10 25 21 47 24 50 7 5 60 148 60 161 0 5 -13 6 -29 3 -57 -12 -141 33 -266 141 -141 121 -295 225 -422 285 -46 22 -83 44 -83 50 0 5 -6 10 -13 10 -7 0 -30 9 -52 20 -22 11 -47 20 -57 20 -10 0 -18 4 -18 8 0 4 -15 8 -34 9 -30 1 -79 18 -130 45 -12 6 -16 6 -11 -1 3 -6 1 -11 -4 -11 -6 0 -11 -6 -11 -14 0 -8 -4 -16 -8 -18 -5 -1 -21 -50 -37 -108 -16 -58 -31 -107 -35 -110 -4 -3 -20 -42 -35 -87 -15 -46 -31 -83 -34 -83 -4 0 -13 -16 -20 -36 -7 -19 -14 -34 -16 -32 -2 2 -9 68 -16 148 -6 80 -15 147 -19 150 -3 3 -12 48 -18 100 -14 105 -42 252 -51 260 -3 3 -19 54 -34 115 -15 60 -32 112 -36 115 -5 3 -12 19 -15 35 -4 17 -18 38 -32 49 -30 21 -38 18 -118 -39 -27 -20 -52 -32 -56 -28 -4 4 -22 49 -40 98 -43 119 -84 200 -112 219 -12 9 -25 15 -28 15 -3 -1 -86 -10 -185 -20z m-147 -611 c7 -7 12 -17 12 -22 0 -13 -64 -56 -83 -56 -8 0 -35 -20 -61 -44 -37 -34 -52 -42 -71 -37 -23 6 -175 139 -175 153 0 18 360 24 378 6z m-603 -223 c28 -19 93 -66 145 -105 52 -39 130 -95 173 -125 42 -31 77 -62 77 -71 0 -9 -5 -14 -10 -12 -9 3 -121 84 -363 263 -74 55 -102 85 -80 85 4 0 31 -16 58 -35z m-329 -164 c32 -21 91 -59 129 -83 39 -24 102 -64 140 -88 107 -67 137 -92 127 -102 -6 -6 -48 16 -108 54 -55 35 -158 102 -231 149 -73 46 -132 90 -133 97 0 19 13 15 76 -27z m-440 -166 c54 -35 116 -74 137 -85 20 -11 37 -27 37 -35 0 -8 -3 -15 -6 -15 -13 0 -294 183 -294 191 0 20 31 6 126 -56z m-400 -157 c42 -24 106 -60 143 -80 36 -21 92 -51 124 -68 55 -29 73 -50 42 -50 -15 0 -145 71 -216 117 -19 12 -38 23 -41 23 -15 0 -157 88 -151 93 11 11 19 9 99 -35z m-159 -135 c246 -126 282 -147 271 -158 -8 -9 -510 246 -516 263 -2 6 0 12 5 12 5 0 113 -53 240 -117z"/>
 <path d="M5782 2652 l-31 -39 24 -33 c53 -72 18 -170 -86 -240 -43 -29 -61 -35 -120 -38 -57 -4 -75 -1 -105 17 -35 21 -37 21 -50 4 -7 -10 -14 -21 -14 -25 0 -4 -10 -18 -22 -31 -13 -14 -32 -48 -43 -76 -11 -28 -23 -51 -26 -51 -10 0 -48 -120 -39 -125 4 -2 31 -8 62 -13 75 -12 193 2 350 39 117 28 150 32 273 32 122 1 153 -3 245 -28 58 -15 130 -40 161 -56 l57 -28 41 20 c23 11 41 23 41 27 0 4 29 20 64 35 35 16 74 39 87 53 12 13 28 24 36 24 17 0 17 -1 -12 142 -37 184 -53 232 -70 218 -8 -7 -20 -10 -27 -7 -14 4 -62 -16 -88 -38 -8 -7 -26 -16 -40 -20 -14 -4 -33 -14 -43 -23 -21 -19 -28 -12 -52 52 -21 58 -64 108 -119 141 -51 30 -167 49 -261 43 -74 -5 -90 1 -97 38 -2 13 -13 20 -34 22 -26 3 -37 -3 -62 -36z"/>
 <path d="M5668 2543 c-27 -13 -48 -28 -48 -33 0 -5 -16 -16 -35 -25 -19 -10 -53 -37 -76 -63 l-42 -45 22 -19 c79 -63 271 45 271 153 0 22 -28 62 -41 58 -2 -1 -25 -12 -51 -26z"/>
 <path d="M5222 1731 c2 -14 9 -26 16 -29 17 -5 15 10 -3 34 -15 18 -15 18 -13 -5z"/>
 </g>
<g id="layer108" fill="#98bdf9" stroke="none">
 <path d="M7182 7793 l3 -128 380 0 380 0 0 125 0 125 -383 3 -383 2 3 -127z"/>
 <path d="M8148 7443 c-795 -3 -1008 -6 -1009 -16 -1 -6 -3 -74 -4 -149 l-2 -138 1014 -2 1013 -3 0 158 c0 86 -1 156 -2 155 -2 -2 -456 -4 -1010 -5z"/>
 <path d="M6805 5319 c-351 -37 -599 -82 -1085 -201 -303 -74 -357 -92 -381 -131 -17 -27 -19 -43 -14 -102 3 -38 12 -95 20 -125 8 -30 15 -55 15 -56 1 -8 -300 -12 -404 -4 -106 7 -146 6 -164 -3 -25 -12 -67 -107 -128 -290 -33 -99 -68 -139 -160 -183 -79 -37 -110 -73 -121 -139 -5 -29 -13 -40 -37 -50 -37 -17 -143 -61 -250 -106 l-79 -32 39 -20 c21 -11 42 -25 47 -33 4 -7 31 -20 60 -30 28 -9 54 -20 57 -23 3 -4 25 -15 50 -25 25 -10 72 -30 105 -46 33 -15 83 -36 110 -46 28 -10 52 -21 55 -25 3 -3 39 -19 80 -33 41 -15 77 -31 80 -37 3 -5 40 -21 80 -35 l75 -26 80 22 c44 12 94 28 110 36 17 7 66 25 110 39 76 24 91 25 322 25 155 0 243 4 243 10 0 6 23 10 50 10 28 0 50 -4 50 -10 0 -12 77 -13 84 -1 3 4 38 11 78 14 84 7 157 32 219 74 24 17 54 33 66 37 11 4 24 13 27 21 3 8 10 15 17 15 16 0 69 46 62 54 -4 3 -1 6 6 6 6 0 30 17 53 38 48 43 73 65 123 107 77 64 109 91 135 116 15 14 39 33 53 42 l25 16 7 -57 c14 -129 23 -292 19 -362 -2 -41 -6 -127 -9 -190 -2 -63 -10 -218 -16 -343 -9 -201 -9 -233 5 -262 19 -39 88 -299 110 -410 38 -196 40 -293 7 -377 -10 -25 -8 -28 12 -28 87 0 314 41 327 59 3 4 35 20 73 36 37 15 67 31 67 34 0 4 25 20 57 35 31 16 64 37 75 48 10 10 23 18 29 18 6 0 28 13 48 29 20 16 55 39 79 51 23 12 46 28 50 35 4 7 21 20 39 29 17 9 38 24 45 33 7 10 24 24 38 31 14 7 44 30 66 50 23 20 60 53 84 72 50 42 284 272 285 281 0 3 16 22 35 42 19 20 40 42 45 50 6 7 29 36 53 64 23 28 42 56 42 62 0 6 8 15 18 20 10 5 29 30 42 55 13 25 27 46 31 46 5 0 20 21 35 48 15 26 38 60 51 75 13 16 23 34 23 41 0 7 9 22 21 34 11 13 32 48 46 80 15 31 29 59 33 62 7 6 32 58 56 120 10 25 21 47 24 50 7 5 60 148 60 161 0 5 -13 6 -29 3 -57 -12 -141 33 -266 141 -141 121 -295 225 -422 285 -46 22 -83 44 -83 50 0 5 -6 10 -13 10 -7 0 -30 9 -52 20 -22 11 -47 20 -57 20 -10 0 -18 4 -18 8 0 4 -15 8 -34 9 -30 1 -79 18 -130 45 -12 6 -16 6 -11 -1 3 -6 1 -11 -4 -11 -6 0 -11 -6 -11 -14 0 -8 -4 -16 -8 -18 -5 -1 -21 -50 -37 -108 -16 -58 -31 -107 -35 -110 -4 -3 -20 -42 -35 -87 -15 -46 -31 -83 -34 -83 -4 0 -13 -16 -20 -36 -7 -19 -14 -34 -16 -32 -2 2 -9 68 -16 148 -6 80 -15 147 -19 150 -3 3 -12 48 -18 100 -14 105 -42 252 -51 260 -3 3 -19 54 -34 115 -15 60 -32 112 -36 115 -5 3 -12 19 -15 35 -4 17 -18 38 -32 49 -30 21 -38 18 -118 -39 -27 -20 -52 -32 -56 -28 -4 4 -22 49 -40 98 -43 119 -84 200 -112 219 -12 9 -25 15 -28 15 -3 -1 -86 -10 -185 -20z m-147 -611 c7 -7 12 -17 12 -22 0 -13 -64 -56 -83 -56 -8 0 -35 -20 -61 -44 -37 -34 -52 -42 -71 -37 -23 6 -175 139 -175 153 0 18 360 24 378 6z m-603 -223 c28 -19 93 -66 145 -105 52 -39 130 -95 173 -125 42 -31 77 -62 77 -71 0 -9 -5 -14 -10 -12 -9 3 -121 84 -363 263 -74 55 -102 85 -80 85 4 0 31 -16 58 -35z m-329 -164 c32 -21 91 -59 129 -83 39 -24 102 -64 140 -88 107 -67 137 -92 127 -102 -6 -6 -48 16 -108 54 -55 35 -158 102 -231 149 -73 46 -132 90 -133 97 0 19 13 15 76 -27z m-440 -166 c54 -35 116 -74 137 -85 20 -11 37 -27 37 -35 0 -8 -3 -15 -6 -15 -13 0 -294 183 -294 191 0 20 31 6 126 -56z m-400 -157 c42 -24 106 -60 143 -80 36 -21 92 -51 124 -68 55 -29 73 -50 42 -50 -15 0 -145 71 -216 117 -19 12 -38 23 -41 23 -15 0 -157 88 -151 93 11 11 19 9 99 -35z m-159 -135 c246 -126 282 -147 271 -158 -8 -9 -510 246 -516 263 -2 6 0 12 5 12 5 0 113 -53 240 -117z"/>
 <path d="M5782 2652 l-31 -39 24 -33 c53 -72 18 -170 -86 -240 -43 -29 -61 -35 -120 -38 -57 -4 -75 -1 -105 17 -35 21 -37 21 -50 4 -7 -10 -14 -21 -14 -25 0 -4 -10 -18 -22 -31 -13 -14 -32 -48 -43 -76 -11 -28 -23 -51 -26 -51 -10 0 -48 -120 -39 -125 4 -2 31 -8 62 -13 75 -12 193 2 350 39 117 28 150 32 273 32 122 1 153 -3 245 -28 58 -15 130 -40 161 -56 l57 -28 41 20 c23 11 41 23 41 27 0 4 29 20 64 35 35 16 74 39 87 53 12 13 28 24 36 24 17 0 17 -1 -12 142 -37 184 -53 232 -70 218 -8 -7 -20 -10 -27 -7 -15 5 -61 -16 -97 -44 -13 -11 -31 -19 -39 -19 -9 0 -24 -8 -34 -17 -22 -20 -29 -14 -53 51 -21 58 -64 108 -119 141 -51 30 -167 49 -261 43 -74 -5 -90 1 -97 38 -2 13 -13 20 -34 22 -26 3 -37 -3 -62 -36z"/>
 <path d="M5668 2543 c-27 -13 -48 -28 -48 -33 0 -5 -16 -16 -35 -25 -19 -10 -53 -37 -76 -63 l-42 -45 22 -19 c79 -63 271 45 271 153 0 22 -28 62 -41 58 -2 -1 -25 -12 -51 -26z"/>
 </g>
<g id="layer109" fill="#fbb6af" stroke="none">
 <path d="M7190 7790 l0 -120 373 2 372 3 0 115 0 115 -372 3 -373 2 0 -120z"/>
 <path d="M8148 7443 c-795 -3 -1008 -6 -1009 -16 -1 -6 -3 -74 -4 -149 l-2 -138 1014 -2 1013 -3 0 158 c0 86 -1 156 -2 155 -2 -2 -456 -4 -1010 -5z"/>
 <path d="M4791 4698 c-24 -13 -67 -112 -127 -291 -33 -99 -68 -139 -160 -183 -79 -37 -110 -73 -121 -139 -5 -29 -13 -40 -37 -50 -37 -17 -143 -61 -250 -106 l-79 -32 39 -20 c21 -11 42 -25 47 -33 4 -7 24 -18 45 -24 37 -12 75 -29 212 -92 41 -20 99 -44 128 -54 28 -10 52 -21 52 -24 0 -4 38 -20 85 -35 46 -16 82 -32 79 -36 -2 -4 32 -19 77 -34 l82 -26 73 23 c41 12 74 26 74 29 0 4 10 5 22 1 14 -3 19 -2 14 6 -4 8 0 12 12 12 11 0 55 11 98 25 75 24 90 25 321 25 155 0 243 4 243 10 0 6 23 10 50 10 28 0 50 -4 50 -10 0 -12 77 -13 84 -1 3 4 38 11 78 14 84 7 157 32 219 74 24 17 54 33 66 37 11 4 24 13 27 21 3 8 12 15 19 15 8 0 20 7 27 15 15 18 -8 92 -46 148 -14 21 -23 41 -20 46 3 5 34 19 68 31 250 91 408 158 408 173 0 6 -62 73 -137 149 l-138 138 60 55 c33 29 57 57 53 60 -8 8 -73 -39 -91 -66 -21 -29 -57 -12 -142 67 -51 48 -88 74 -103 74 -13 0 -89 -12 -170 -26 -162 -28 -332 -80 -509 -155 -64 -27 -118 -48 -119 -46 -12 14 -69 142 -80 178 l-14 47 -208 -1 c-114 -1 -236 2 -272 6 -46 5 -72 3 -89 -5z m1264 -213 c28 -19 93 -66 145 -105 52 -39 130 -95 173 -125 42 -31 77 -62 77 -71 0 -9 -5 -14 -10 -12 -9 3 -121 84 -363 263 -74 55 -102 85 -80 85 4 0 31 -16 58 -35z m-329 -164 c32 -21 91 -59 129 -83 39 -24 102 -64 140 -88 107 -67 137 -92 127 -102 -6 -6 -48 16 -108 54 -55 35 -158 102 -231 149 -73 46 -132 90 -133 97 0 19 13 15 76 -27z m-440 -166 c54 -35 116 -74 137 -85 20 -11 37 -27 37 -35 0 -8 -3 -15 -6 -15 -13 0 -294 183 -294 191 0 20 31 6 126 -56z m-400 -157 c42 -24 106 -60 143 -80 36 -21 92 -51 124 -68 55 -29 73 -50 42 -50 -15 0 -145 71 -216 117 -19 12 -38 23 -41 23 -15 0 -157 88 -151 93 11 11 19 9 99 -35z m-159 -135 c246 -126 282 -147 271 -158 -8 -9 -510 246 -516 263 -2 6 0 12 5 12 5 0 113 -53 240 -117z"/>
 <path d="M5810 2678 c-8 -7 -25 -25 -38 -39 l-22 -25 25 -34 c53 -72 18 -170 -86 -240 -43 -29 -61 -35 -120 -38 -57 -4 -75 -1 -105 17 -35 21 -37 21 -50 4 -7 -10 -14 -21 -14 -25 0 -4 -10 -18 -22 -31 -13 -14 -32 -48 -43 -76 -11 -28 -23 -51 -27 -51 -6 0 -38 -92 -38 -111 0 -19 88 -31 175 -25 84 6 117 12 270 54 45 12 106 16 240 16 198 1 264 -12 402 -74 58 -27 71 -29 100 -19 18 6 36 16 40 23 5 7 37 26 73 44 36 17 78 43 94 57 l29 27 -17 96 c-9 54 -27 131 -40 172 -20 66 -25 75 -47 75 -27 0 -76 -21 -97 -41 -7 -8 -25 -17 -40 -20 -15 -4 -35 -14 -45 -22 -21 -19 -28 -12 -52 52 -21 58 -64 108 -119 141 -51 30 -167 49 -261 43 -74 -5 -90 1 -97 38 -4 23 -46 30 -68 12z"/>
 <path d="M5668 2543 c-27 -13 -48 -28 -48 -33 0 -5 -16 -16 -35 -25 -19 -10 -53 -37 -76 -63 l-42 -45 22 -19 c79 -63 271 45 271 153 0 22 -28 62 -41 58 -2 -1 -25 -12 -51 -26z"/>
 </g>
<g id="layer110" fill="#e2e2e3" stroke="none">
 <path d="M7190 7790 l0 -120 373 2 372 3 0 115 0 115 -372 3 -373 2 0 -120z"/>
 <path d="M8148 7443 l-1008 -3 0 -150 0 -150 1010 -2 1010 -3 0 158 c0 86 -1 156 -2 155 -2 -2 -456 -4 -1010 -5z"/>
 <path d="M6071 4673 c-152 -27 -327 -81 -499 -154 -65 -27 -118 -45 -120 -39 -5 15 -72 -41 -185 -154 l-99 -98 39 -22 c21 -12 76 -47 123 -77 129 -84 132 -85 175 -93 22 -4 78 -23 125 -41 123 -48 153 -55 270 -62 81 -4 117 -2 155 10 73 23 203 71 255 94 25 11 56 24 70 28 113 34 370 144 370 158 0 6 -61 72 -135 147 -74 75 -135 144 -135 154 0 9 -4 15 -9 12 -8 -5 -58 36 -156 127 -48 44 -55 45 -244 10z m-16 -188 c28 -19 93 -66 145 -105 52 -39 130 -95 173 -125 42 -31 77 -62 77 -71 0 -9 -5 -14 -10 -12 -9 3 -121 84 -363 263 -74 55 -102 85 -80 85 4 0 31 -16 58 -35z m-329 -164 c32 -21 91 -59 129 -83 39 -24 102 -64 140 -88 107 -67 137 -92 127 -102 -6 -6 -48 16 -108 54 -55 35 -158 102 -231 149 -73 46 -132 90 -133 97 0 19 13 15 76 -27z"/>
 <path d="M4950 4273 c-8 -3 -78 -30 -155 -60 -77 -30 -192 -75 -255 -100 -63 -24 -140 -55 -170 -68 -64 -28 -163 -70 -274 -116 l-79 -32 38 -20 c21 -10 47 -28 58 -38 12 -10 26 -19 31 -20 27 -2 49 -9 69 -22 12 -7 56 -26 97 -42 41 -16 77 -31 80 -34 8 -10 52 -29 108 -46 28 -9 50 -20 47 -25 -3 -4 7 -11 23 -15 57 -13 141 -48 137 -55 -3 -5 9 -13 25 -19 17 -5 30 -8 30 -6 0 2 21 -5 47 -16 l46 -20 76 23 c42 12 77 25 79 29 2 4 13 4 25 1 12 -3 18 -1 14 4 -4 4 21 16 55 26 82 24 91 26 105 27 6 1 18 7 25 14 16 15 93 49 163 71 28 8 108 35 180 60 121 42 128 45 102 55 -119 45 -217 117 -217 159 0 23 -7 29 -182 140 l-127 81 -30 -24 c-30 -26 -160 -89 -248 -120 -29 -11 -53 -22 -53 -26 0 -3 30 -23 68 -43 37 -20 99 -54 137 -76 39 -22 96 -53 128 -70 55 -29 73 -50 42 -50 -14 0 -136 66 -215 116 -19 12 -40 23 -45 25 -6 2 -45 23 -87 47 -65 36 -80 41 -103 32 -42 -16 -53 -12 -65 25 -18 55 2 75 115 120 96 38 175 86 175 105 0 6 -1 10 -2 9 -2 0 -10 -3 -18 -6z m-223 -410 c246 -126 282 -147 271 -158 -8 -9 -510 246 -516 263 -2 6 0 12 5 12 5 0 113 -53 240 -117z"/>
 <path d="M5838 3643 c12 -2 32 -2 45 0 12 2 2 4 -23 4 -25 0 -35 -2 -22 -4z"/>
 </g>

</svg>