<!DOCTYPE svg PUBLIC "-//W3C//DTD SVG 20010904//EN" "http://www.w3.org/TR/2001/REC-SVG-20010904/DTD/svg10.dtd">
<svg version="1.0" xmlns="http://www.w3.org/2000/svg" width="872px" height="812px" viewBox="0 0 8720 8120" preserveAspectRatio="xMidYMid meet">
<g id="layer101" fill="#2d2f6f" stroke="none">
 <path d="M665 8066 c-5 -2 -43 -14 -82 -26 -40 -12 -73 -25 -73 -30 0 -5 -15 -16 -32 -25 -32 -14 -88 -58 -88 -67 0 -2 -22 -28 -50 -58 -27 -30 -50 -50 -50 -45 0 5 -9 -8 -20 -30 -11 -22 -27 -43 -35 -48 -8 -4 -15 -12 -15 -17 0 -5 -15 -30 -32 -57 -18 -26 -33 -53 -34 -60 -1 -7 -10 -20 -19 -29 -9 -9 -27 -42 -41 -72 -22 -50 -24 -67 -24 -207 0 -84 5 -199 10 -256 14 -133 48 -339 59 -353 4 -6 18 -49 30 -96 33 -124 73 -254 81 -260 7 -5 16 -30 25 -67 10 -40 75 -214 96 -255 12 -24 21 -43 20 -43 -3 0 4 -18 50 -140 17 -44 35 -84 39 -90 4 -5 20 -41 34 -80 15 -38 48 -117 73 -174 25 -57 46 -109 47 -115 1 -6 12 -33 24 -60 12 -27 22 -52 22 -57 0 -5 15 -38 33 -74 l32 -65 49 0 c27 0 46 -3 43 -7 -4 -3 -3 -11 2 -17 5 -6 11 -24 14 -41 3 -16 8 -37 11 -45 3 -8 8 -26 10 -40 12 -60 48 -188 61 -217 8 -17 15 -36 15 -42 0 -28 55 -115 96 -154 25 -23 57 -60 71 -82 14 -22 32 -44 39 -48 8 -4 14 -14 14 -22 0 -7 6 -20 14 -27 13 -14 100 -186 101 -200 0 -3 3 -10 8 -14 4 -4 7 -14 7 -23 0 -9 7 -28 14 -43 8 -15 11 -30 6 -33 -5 -3 -7 -11 -4 -19 3 -7 0 -33 -6 -57 -6 -24 -12 -50 -12 -56 -1 -7 -4 -13 -7 -13 -3 0 -7 -16 -8 -36 -1 -19 -6 -41 -11 -47 -5 -7 -16 -39 -26 -72 -9 -33 -23 -83 -31 -111 -8 -28 -15 -58 -15 -67 0 -10 -5 -17 -11 -17 -5 0 -8 -4 -4 -9 3 -6 -4 -43 -15 -85 -18 -68 -18 -77 -4 -111 14 -33 18 -36 51 -33 32 3 40 8 60 48 13 25 39 114 58 199 19 85 39 157 43 160 11 7 52 128 53 155 0 12 16 -24 35 -79 42 -123 74 -238 69 -244 -3 -2 -1 -9 4 -15 9 -10 42 -123 46 -156 1 -8 11 -35 22 -60 12 -25 28 -71 38 -102 34 -117 87 -158 125 -96 38 63 20 184 -51 343 -5 11 -15 47 -23 80 -8 33 -26 98 -40 144 -14 47 -24 86 -22 89 3 2 16 -18 30 -46 14 -27 22 -52 19 -56 -4 -3 -2 -6 4 -6 6 0 14 -11 17 -25 4 -14 11 -25 16 -25 6 0 10 -7 10 -16 0 -21 78 -161 107 -192 7 -7 30 -40 52 -75 22 -34 52 -71 66 -81 14 -10 25 -23 25 -29 0 -11 54 -64 118 -114 26 -21 52 -33 71 -33 27 0 31 4 37 35 7 38 -11 119 -31 138 -6 7 -33 45 -59 85 -26 39 -51 72 -56 72 -4 0 -29 37 -55 83 -26 45 -51 84 -54 87 -16 13 -68 88 -79 115 l-12 30 20 -25 c19 -24 89 -102 147 -166 81 -88 172 -139 323 -180 36 -9 70 -20 75 -24 17 -13 213 -51 338 -66 41 -4 57 -10 53 -19 -20 -53 -28 -98 -22 -129 6 -32 10 -36 38 -36 21 0 42 9 60 27 l28 27 0 -327 0 -326 -22 -12 c-13 -7 -31 -21 -40 -32 -10 -11 -18 -17 -18 -13 0 12 -90 -97 -90 -109 0 -5 -11 -20 -23 -32 -13 -12 -36 -61 -53 -110 -16 -48 -31 -90 -34 -93 -3 -3 -5 -16 -6 -30 -1 -39 -8 -74 -16 -80 -4 -3 -10 -71 -15 -150 -8 -140 3 -319 20 -336 4 -4 7 -16 7 -26 0 -23 5 -23 38 0 37 26 52 34 52 29 0 -9 -80 -57 -94 -57 -8 0 -21 -9 -29 -20 -8 -11 -17 -17 -20 -13 -4 3 -7 -1 -7 -10 0 -9 -9 -22 -20 -30 -11 -8 -17 -17 -13 -20 3 -4 1 -7 -6 -7 -7 0 -9 -5 -6 -10 4 -6 2 -17 -4 -24 -16 -19 -3 -46 21 -46 12 0 24 12 33 32 24 59 85 107 72 58 -3 -11 -1 -20 4 -20 5 0 9 -8 9 -18 0 -17 51 -177 69 -217 5 -11 20 -51 32 -90 24 -77 74 -186 89 -195 5 -3 22 -29 37 -57 47 -86 203 -254 284 -308 20 -13 54 -40 75 -59 22 -20 42 -36 46 -36 4 0 29 -20 54 -45 26 -24 63 -53 83 -64 90 -47 106 -57 112 -64 13 -17 209 -76 307 -92 84 -14 142 -16 300 -12 109 3 220 11 247 17 167 37 221 53 315 97 143 66 205 98 208 105 2 4 34 24 70 43 37 19 81 48 99 63 18 15 55 43 84 62 28 19 61 44 72 55 12 11 40 35 62 53 89 71 147 126 366 344 126 125 247 240 269 254 22 15 40 30 40 34 0 9 121 55 180 68 132 30 303 23 470 -19 80 -20 284 -116 400 -187 25 -16 72 -39 105 -51 33 -13 76 -31 95 -40 40 -18 196 -23 208 -6 4 6 27 20 52 33 49 25 119 66 135 79 32 26 160 69 264 88 107 19 281 19 379 -1 96 -19 237 -67 257 -88 25 -25 56 -30 74 -11 15 15 14 18 -11 39 -25 22 -175 86 -202 86 -7 0 -16 4 -21 9 -17 17 -187 41 -285 41 -132 0 -217 -15 -340 -56 -102 -35 -202 -81 -208 -96 -2 -5 -10 -8 -18 -8 -8 0 -14 -4 -14 -10 0 -14 -89 -52 -136 -58 -79 -9 -150 15 -324 110 -36 19 -81 44 -100 54 -19 11 -37 22 -40 25 -6 8 -108 59 -115 59 -10 -1 -150 41 -167 50 -77 42 -465 42 -523 1 -5 -4 -32 -16 -60 -25 -97 -35 -142 -71 -345 -275 -113 -114 -239 -237 -280 -275 -41 -37 -94 -85 -116 -106 -23 -21 -59 -49 -80 -63 -22 -13 -50 -35 -65 -48 -14 -14 -49 -40 -78 -58 -29 -19 -58 -39 -64 -46 -19 -18 -134 -85 -146 -85 -6 0 -19 -8 -29 -18 -17 -17 -154 -79 -224 -102 -21 -6 -38 -16 -38 -22 0 -6 -6 -8 -14 -5 -7 3 -17 2 -22 -3 -16 -15 -196 -48 -319 -60 -130 -11 -354 2 -366 22 -4 6 -12 8 -18 4 -11 -7 -130 21 -147 35 -6 5 -14 6 -17 2 -4 -3 -7 -1 -7 5 0 7 -8 12 -17 12 -16 1 -76 29 -63 30 3 0 48 -9 100 -20 52 -11 118 -20 147 -20 28 0 54 -4 57 -9 8 -12 154 -12 162 0 3 5 23 9 45 9 79 0 291 41 374 72 69 26 295 140 295 148 0 6 5 10 11 10 33 0 344 275 375 332 5 9 25 34 44 55 20 21 57 66 83 100 27 34 68 83 93 109 24 27 44 52 44 56 0 4 21 29 48 56 26 27 58 62 72 78 75 85 258 227 344 268 182 86 227 98 354 99 83 0 252 -28 252 -42 0 -4 17 -13 38 -20 57 -20 196 -83 202 -91 3 -5 48 -30 100 -57 52 -27 106 -56 120 -65 14 -9 61 -31 105 -48 44 -17 93 -37 108 -45 16 -8 33 -13 38 -9 5 3 9 1 9 -4 0 -12 122 -32 193 -32 67 0 164 18 197 36 14 7 50 24 82 38 31 13 94 49 140 79 46 30 103 64 126 76 23 12 42 25 42 30 0 13 110 64 185 87 33 10 63 23 67 28 4 6 53 10 110 10 95 0 107 -2 163 -31 34 -17 67 -38 74 -47 33 -40 38 -20 38 142 1 124 6 191 28 322 36 214 33 378 -9 508 -15 45 -31 82 -36 82 -5 0 -12 10 -16 23 -14 47 -82 134 -172 221 -102 100 -192 203 -219 253 -10 17 -29 45 -42 62 -13 17 -41 67 -62 112 -20 45 -41 85 -46 88 -13 9 -72 157 -91 229 -10 35 -20 60 -24 57 -4 -4 -4 2 -1 14 3 12 0 35 -7 52 -10 23 -14 122 -15 383 -1 243 -5 368 -14 406 -23 100 -54 185 -83 222 -15 20 -28 41 -28 45 0 13 -60 73 -106 106 -38 28 -43 29 -135 25 -53 -2 -103 -9 -110 -14 -8 -6 -40 -21 -72 -33 -71 -26 -156 -68 -175 -87 -8 -8 -28 -22 -45 -31 -18 -9 -68 -40 -113 -69 -45 -29 -113 -65 -150 -80 -38 -15 -74 -31 -80 -36 -12 -9 -136 -38 -165 -38 -11 0 -21 19 -34 65 -9 36 -21 68 -26 71 -5 3 -9 14 -9 25 0 11 -7 22 -16 26 -11 4 -43 -22 -108 -89 l-91 -94 -120 4 -119 5 194 187 194 187 -14 57 c-7 31 -16 56 -20 56 -10 0 -32 89 -25 101 4 5 1 9 -4 9 -6 0 -11 7 -11 15 0 22 -18 18 -52 -10 -16 -14 -27 -25 -24 -25 2 0 -20 -24 -51 -52 -31 -29 -79 -77 -107 -107 -28 -30 -59 -62 -69 -70 -27 -24 -220 -210 -351 -339 -95 -94 -127 -118 -189 -147 -41 -19 -85 -44 -98 -55 -13 -11 -44 -33 -69 -49 -25 -16 -86 -69 -136 -118 l-92 -88 16 45 c8 25 18 47 22 50 3 3 14 27 24 53 20 54 98 133 1057 1067 50 49 56 59 52 87 -3 18 -9 31 -13 28 -4 -3 -13 17 -19 43 -25 99 -43 152 -51 152 -5 0 -69 -61 -142 -135 -74 -74 -136 -135 -139 -135 -3 0 -55 -49 -115 -110 -60 -60 -115 -110 -121 -110 -7 0 -13 -5 -13 -11 0 -6 -59 -70 -130 -142 -72 -71 -127 -119 -121 -106 5 13 19 51 31 84 12 33 30 76 40 95 9 19 30 72 44 117 22 66 34 87 62 108 50 38 544 529 544 540 1 31 -67 245 -77 245 -7 0 -44 -31 -82 -70 -39 -38 -76 -70 -82 -70 -7 0 -10 -3 -7 -6 3 -3 -28 -38 -70 -79 -43 -40 -78 -73 -79 -72 -1 1 15 69 35 151 35 142 39 150 80 191 48 49 54 70 17 63 -14 -3 -25 -1 -25 5 0 6 11 74 25 151 29 163 55 392 55 477 0 33 4 59 10 59 12 0 14 316 1 324 -4 3 -11 49 -14 103 -8 138 -55 432 -78 488 -7 17 -13 33 -13 36 -3 18 -95 118 -113 123 -13 4 -23 11 -23 16 0 28 -242 54 -335 35 -16 -4 -77 -16 -135 -27 -58 -12 -108 -25 -111 -31 -4 -5 -22 -9 -42 -10 -20 0 -34 -5 -31 -9 3 -4 -2 -8 -10 -8 -19 0 -85 -30 -108 -49 -10 -8 -18 -11 -18 -8 0 7 -74 -58 -120 -104 -29 -30 -130 -172 -130 -184 0 -5 -12 -24 -27 -44 -15 -20 -28 -40 -29 -46 0 -5 -2 -15 -2 -22 -1 -6 -8 -18 -14 -25 -7 -7 -26 -39 -41 -70 -16 -32 -33 -60 -38 -64 -5 -3 -7 -10 -4 -15 4 -5 1 -9 -4 -9 -6 0 -10 -3 -9 -7 3 -13 -13 -53 -22 -53 -4 0 -13 -13 -19 -30 l-10 -30 -1585 0 -1584 0 -6 28 c-3 15 -8 52 -11 82 -10 79 -44 252 -55 275 -5 11 -21 70 -35 130 -31 133 -64 235 -83 254 -7 7 -10 21 -7 29 3 9 3 13 -1 10 -3 -4 -18 15 -31 43 -29 57 -73 106 -134 146 -41 27 -48 28 -173 30 -72 1 -135 1 -141 -1z m684 -2831 c12 -44 26 -82 30 -85 5 -3 11 -18 14 -35 3 -16 15 -61 26 -100 12 -38 25 -87 30 -107 8 -35 7 -37 -10 -27 -11 5 -19 14 -19 19 0 6 -5 10 -11 10 -6 0 -36 18 -68 40 -31 22 -61 40 -67 40 -20 0 -63 52 -73 87 -19 65 -16 73 28 73 21 0 43 6 49 13 6 6 13 50 17 97 8 103 15 127 25 85 4 -16 17 -66 29 -110z m3788 -1349 c-18 -41 -33 -71 -35 -66 -3 9 54 140 62 140 2 0 -10 -33 -27 -74z m-38 -112 c-15 -18 -22 -13 -13 10 3 9 10 13 16 10 5 -3 4 -12 -3 -20z m-136 -355 c-35 -95 -70 -169 -78 -169 -3 0 2 17 11 38 8 20 24 57 34 82 64 158 87 192 33 49z m-118 -246 c-14 -27 -35 -59 -46 -73 -19 -23 -19 -21 2 15 42 75 61 105 65 105 3 0 -6 -21 -21 -47z m-1172 -54 c31 -26 114 -76 167 -102 14 -6 30 -17 37 -23 6 -6 58 -30 115 -54 57 -23 114 -48 128 -55 36 -18 118 -34 213 -41 92 -7 198 12 245 44 15 10 51 33 79 50 l53 31 -28 -42 c-15 -23 -32 -46 -38 -52 -6 -5 -31 -37 -56 -70 -64 -85 -243 -257 -296 -284 -13 -7 -31 -19 -40 -27 -38 -34 -92 -67 -196 -118 l-110 -55 -35 30 c-104 88 -238 169 -278 169 -7 0 -13 5 -13 11 0 5 -4 8 -9 5 -5 -4 -21 -2 -35 4 l-26 10 0 330 0 331 46 -33 c25 -18 60 -45 77 -59z m-938 -1655 c-33 -19 -69 -45 -79 -57 -11 -13 -17 -16 -14 -7 5 17 123 100 141 100 7 0 -15 -16 -48 -36z"/>
 </g>
<g id="layer102" fill="#e94a47" stroke="none">
 <path d="M665 8066 c-5 -2 -43 -14 -82 -26 -40 -12 -73 -25 -73 -30 0 -5 -15 -16 -32 -25 -32 -14 -88 -58 -88 -67 0 -2 -22 -28 -50 -58 -27 -30 -50 -50 -50 -45 0 5 -9 -8 -20 -30 -11 -22 -27 -43 -35 -48 -8 -4 -15 -12 -15 -17 0 -5 -15 -30 -32 -57 -18 -26 -33 -53 -34 -60 -1 -7 -10 -20 -19 -29 -9 -9 -27 -42 -41 -72 -22 -50 -24 -67 -24 -207 0 -84 5 -199 10 -256 14 -133 48 -339 59 -353 4 -6 18 -49 30 -96 33 -124 73 -254 81 -260 7 -5 16 -30 25 -67 10 -40 75 -214 96 -255 12 -24 21 -43 20 -43 -5 0 79 -216 89 -230 4 -5 20 -41 34 -80 15 -38 48 -117 73 -174 25 -57 46 -109 48 -115 1 -6 12 -33 23 -59 12 -27 22 -53 22 -58 0 -5 15 -38 33 -74 l32 -65 49 0 c27 0 46 -3 43 -7 -4 -3 -3 -11 2 -17 5 -6 12 -24 15 -41 12 -65 68 -272 81 -302 8 -17 15 -36 15 -42 0 -28 55 -115 96 -154 25 -23 57 -60 71 -82 14 -22 32 -44 39 -48 8 -4 14 -14 14 -22 0 -7 6 -20 14 -27 13 -14 100 -186 101 -200 0 -3 3 -10 8 -14 4 -4 7 -14 7 -23 0 -9 7 -28 14 -43 8 -15 11 -30 6 -33 -5 -3 -7 -11 -4 -19 3 -7 0 -33 -6 -57 -6 -24 -12 -50 -12 -56 -1 -7 -4 -13 -7 -13 -3 0 -7 -16 -8 -36 -1 -19 -6 -41 -11 -47 -5 -7 -16 -39 -26 -72 -9 -33 -23 -83 -31 -111 -8 -28 -15 -58 -15 -67 0 -10 -5 -17 -11 -17 -5 0 -8 -4 -4 -9 3 -6 -4 -43 -15 -85 -18 -68 -18 -77 -4 -111 14 -33 18 -36 51 -33 32 3 40 8 60 48 13 25 39 114 58 199 19 85 39 157 43 160 11 7 52 128 53 155 0 12 16 -24 35 -79 42 -121 75 -238 69 -244 -3 -2 -1 -9 4 -15 5 -6 21 -56 36 -111 15 -55 31 -104 35 -110 4 -5 18 -43 30 -82 40 -134 90 -176 130 -111 38 63 20 184 -51 343 -5 11 -15 47 -23 80 -8 33 -26 98 -40 144 -14 47 -24 86 -22 89 3 2 16 -18 30 -46 14 -27 22 -52 19 -56 -4 -3 -2 -6 4 -6 6 0 14 -11 17 -25 4 -14 11 -25 16 -25 6 0 10 -7 10 -16 0 -21 78 -161 107 -192 7 -7 30 -40 52 -75 22 -34 52 -71 66 -81 14 -10 25 -23 25 -29 0 -11 54 -64 118 -114 26 -21 52 -33 71 -33 27 0 31 4 37 35 7 38 -11 119 -31 138 -6 7 -33 45 -59 85 -26 39 -51 72 -56 72 -4 0 -29 37 -55 83 -26 45 -51 84 -54 87 -16 13 -68 88 -79 115 l-12 30 20 -25 c19 -23 83 -96 147 -166 75 -83 163 -133 303 -173 41 -12 84 -26 95 -31 31 -14 137 -36 273 -56 87 -12 121 -21 118 -30 -20 -52 -28 -97 -22 -128 6 -32 10 -36 38 -36 21 0 42 9 60 27 l28 27 0 -327 0 -326 -22 -12 c-13 -7 -31 -21 -40 -32 -10 -11 -18 -17 -18 -13 0 12 -90 -97 -90 -109 0 -5 -11 -20 -23 -32 -13 -12 -36 -61 -53 -110 -16 -48 -31 -90 -34 -93 -3 -3 -5 -16 -6 -30 -1 -43 -9 -75 -19 -82 -16 -11 -13 -464 3 -479 6 -7 12 -21 12 -31 0 -10 2 -18 4 -18 2 0 30 16 62 35 81 49 177 77 250 73 33 -2 58 -7 57 -13 -1 -5 -34 -13 -72 -17 -38 -4 -91 -16 -117 -26 -57 -21 -163 -87 -165 -102 -5 -36 -3 -70 4 -70 4 0 7 -8 7 -18 0 -17 51 -177 69 -217 5 -11 20 -51 32 -90 24 -75 74 -185 88 -194 5 -4 24 -31 42 -63 61 -102 215 -266 292 -310 20 -12 37 -25 37 -28 0 -4 19 -20 42 -36 24 -16 58 -44 77 -63 35 -34 170 -121 189 -121 6 0 12 -4 14 -10 4 -13 126 -56 233 -83 79 -19 118 -21 320 -22 243 0 312 9 490 62 68 21 321 138 330 154 3 4 38 25 78 47 39 23 84 51 99 64 15 13 50 39 79 58 28 19 61 44 72 55 12 11 40 35 62 53 89 71 147 126 366 344 126 125 247 240 269 254 22 15 40 30 40 34 0 9 121 55 180 68 132 30 303 23 470 -19 80 -20 284 -116 400 -187 25 -16 72 -39 105 -51 33 -13 76 -31 95 -40 40 -18 196 -23 208 -6 4 6 27 20 52 33 49 25 119 66 135 79 32 26 160 69 264 88 107 19 281 19 379 -1 96 -19 237 -67 257 -88 25 -25 56 -30 74 -11 15 15 14 18 -11 39 -25 22 -175 86 -202 86 -7 0 -16 4 -21 9 -17 17 -187 41 -285 41 -132 0 -217 -15 -340 -56 -102 -35 -202 -81 -208 -96 -2 -5 -10 -8 -18 -8 -8 0 -14 -4 -14 -10 0 -14 -89 -52 -136 -58 -79 -9 -173 24 -339 118 -38 22 -81 46 -95 52 -14 7 -27 15 -30 19 -6 7 -107 59 -115 59 -8 -1 -148 41 -170 50 -94 42 -462 42 -520 1 -5 -4 -39 -18 -74 -31 -90 -33 -130 -66 -346 -284 -104 -106 -224 -223 -265 -260 -41 -37 -94 -85 -116 -106 -23 -21 -59 -49 -80 -63 -22 -13 -50 -35 -65 -48 -14 -14 -49 -40 -78 -58 -29 -19 -58 -39 -64 -46 -19 -18 -134 -85 -146 -85 -6 0 -19 -8 -29 -18 -17 -17 -154 -79 -224 -102 -21 -6 -38 -16 -38 -22 0 -6 -6 -8 -14 -5 -7 3 -17 2 -22 -3 -15 -14 -193 -48 -316 -60 -126 -12 -357 2 -369 22 -4 6 -12 8 -18 4 -11 -7 -130 21 -147 35 -6 5 -14 6 -17 2 -4 -3 -7 -1 -7 5 0 7 -8 12 -17 12 -16 1 -76 29 -63 30 3 0 48 -9 100 -20 52 -11 118 -20 147 -20 28 0 54 -4 57 -9 8 -12 154 -12 162 0 3 5 24 9 47 9 63 0 212 26 309 54 85 25 313 128 353 160 11 9 47 34 80 56 59 39 293 259 311 292 5 9 25 34 44 55 20 21 57 66 83 100 27 34 68 83 93 109 24 27 44 52 44 56 0 4 19 27 42 51 24 24 59 61 78 83 89 98 249 223 345 268 178 85 226 98 353 99 83 0 252 -28 252 -42 0 -4 17 -13 38 -20 54 -19 196 -83 202 -91 3 -4 48 -29 100 -56 52 -28 106 -57 120 -66 21 -15 73 -37 215 -91 17 -7 33 -11 38 -9 4 1 7 -2 7 -7 0 -11 124 -31 193 -31 67 0 164 18 197 36 14 7 50 24 82 38 31 13 94 48 140 78 45 30 102 65 126 78 23 13 42 27 42 31 0 10 114 64 181 85 30 9 60 22 68 28 7 6 58 10 115 10 93 0 106 -2 161 -31 34 -17 67 -38 74 -47 33 -40 38 -20 38 142 1 124 6 191 28 322 36 214 33 378 -9 508 -15 45 -31 82 -36 82 -5 0 -12 10 -16 23 -13 42 -81 132 -158 207 -104 101 -214 227 -232 266 -8 17 -24 41 -36 53 -11 12 -40 64 -65 114 -25 51 -48 94 -52 97 -10 7 -69 154 -89 220 -8 30 -19 56 -23 58 -4 2 -5 12 -2 23 3 10 0 33 -7 50 -10 23 -14 122 -15 383 -1 289 -4 364 -18 423 -21 92 -63 196 -88 219 -10 9 -19 22 -19 29 0 14 -56 72 -106 108 -38 28 -43 29 -135 25 -53 -2 -103 -9 -110 -14 -8 -6 -40 -21 -72 -33 -71 -26 -156 -68 -175 -87 -8 -8 -28 -22 -45 -31 -18 -9 -68 -40 -113 -69 -45 -29 -113 -65 -150 -80 -38 -15 -74 -31 -80 -36 -12 -9 -136 -38 -165 -38 -11 0 -21 19 -34 65 -9 36 -21 68 -26 71 -5 3 -9 14 -9 25 0 11 -7 22 -16 26 -11 4 -43 -22 -108 -89 l-91 -94 -120 4 -119 5 194 187 194 187 -14 57 c-7 31 -16 56 -20 56 -10 0 -32 89 -25 101 4 5 1 9 -4 9 -6 0 -11 7 -11 15 0 22 -18 18 -52 -10 -16 -14 -27 -25 -24 -25 2 0 -20 -24 -51 -52 -31 -29 -79 -77 -107 -107 -28 -30 -59 -62 -69 -70 -27 -24 -220 -210 -351 -339 -96 -95 -127 -118 -191 -148 -42 -19 -84 -43 -93 -52 -10 -9 -42 -33 -72 -53 -30 -20 -95 -76 -144 -124 -49 -49 -86 -80 -82 -69 5 10 13 33 19 49 5 17 13 32 17 35 3 3 12 25 20 50 12 37 54 83 275 300 227 224 611 601 786 770 50 49 56 59 52 87 -3 18 -9 31 -13 28 -4 -3 -13 17 -19 43 -25 99 -43 152 -51 152 -5 0 -69 -61 -142 -135 -74 -74 -136 -135 -139 -135 -3 0 -55 -49 -115 -110 -60 -60 -115 -110 -121 -110 -7 0 -13 -5 -13 -11 0 -6 -58 -70 -129 -140 l-129 -129 25 67 c14 38 28 77 31 88 3 11 11 29 19 41 7 11 26 60 43 108 28 83 33 90 107 159 127 117 503 493 503 503 1 30 -67 244 -77 244 -7 0 -44 -31 -82 -70 -39 -38 -76 -70 -82 -70 -7 0 -10 -3 -7 -6 3 -3 -28 -38 -70 -79 -43 -40 -78 -73 -79 -72 -1 1 15 69 35 151 35 142 39 150 80 191 48 49 54 70 17 63 -14 -3 -25 -1 -25 4 0 5 11 74 25 154 29 171 55 392 55 475 0 33 4 59 10 59 12 0 14 316 1 324 -4 3 -11 49 -14 103 -8 138 -55 432 -78 488 -7 17 -13 33 -13 36 -3 18 -95 118 -113 123 -13 4 -23 11 -23 16 0 28 -242 54 -335 35 -16 -4 -77 -16 -135 -27 -58 -12 -108 -25 -111 -31 -4 -5 -22 -9 -42 -10 -20 0 -34 -5 -31 -9 3 -4 -2 -8 -10 -8 -19 0 -85 -30 -108 -49 -10 -8 -18 -11 -18 -8 0 7 -74 -58 -120 -104 -29 -30 -130 -172 -130 -184 0 -5 -12 -24 -27 -44 -15 -20 -28 -40 -29 -46 0 -5 -2 -15 -2 -22 -1 -6 -8 -18 -14 -25 -7 -7 -26 -39 -41 -70 -16 -32 -33 -60 -38 -64 -5 -3 -7 -10 -4 -15 4 -5 1 -9 -4 -9 -6 0 -10 -3 -9 -7 3 -13 -13 -53 -22 -53 -4 0 -13 -13 -19 -30 l-10 -30 -1585 0 -1584 0 -6 28 c-3 15 -8 52 -11 82 -10 79 -44 252 -55 275 -5 11 -21 70 -35 130 -31 133 -64 235 -83 254 -7 7 -10 21 -7 29 3 9 3 13 -1 10 -3 -4 -18 15 -31 43 -29 57 -73 106 -134 146 -41 27 -48 28 -173 30 -72 1 -135 1 -141 -1z m684 -2831 c12 -44 26 -82 30 -85 5 -3 11 -18 14 -35 3 -16 15 -61 26 -100 12 -38 25 -87 30 -107 8 -35 7 -37 -10 -27 -11 5 -19 14 -19 19 0 6 -5 10 -11 10 -6 0 -36 18 -68 40 -31 22 -61 40 -67 40 -20 0 -63 52 -73 87 -19 65 -16 73 28 73 21 0 43 6 49 13 6 6 13 50 17 97 8 103 15 127 25 85 4 -16 17 -66 29 -110z m3788 -1349 c-18 -41 -33 -71 -35 -66 -3 9 54 140 62 140 2 0 -10 -33 -27 -74z m-38 -112 c-15 -18 -22 -13 -13 10 3 9 10 13 16 10 5 -3 4 -12 -3 -20z m-136 -355 c-35 -95 -70 -169 -78 -169 -3 0 2 17 11 38 8 20 24 57 34 82 64 158 87 192 33 49z m-118 -246 c-14 -27 -35 -59 -46 -73 -19 -23 -19 -21 2 15 42 75 61 105 65 105 3 0 -6 -21 -21 -47z m-1215 -20 c14 -9 36 -27 50 -39 24 -21 105 -70 160 -97 14 -6 30 -17 37 -23 6 -6 58 -30 115 -54 57 -23 114 -48 128 -55 36 -18 118 -34 213 -41 92 -7 198 12 245 44 15 10 51 33 79 50 l53 31 -28 -42 c-15 -23 -32 -46 -38 -52 -6 -5 -31 -37 -56 -70 -64 -85 -273 -285 -297 -285 -5 0 -17 -7 -25 -16 -31 -31 -123 -88 -220 -135 l-99 -49 -36 31 c-104 88 -238 169 -278 169 -7 0 -13 5 -13 11 0 5 -4 8 -9 5 -5 -4 -21 -2 -35 4 l-26 10 0 331 0 331 28 -22 c15 -11 38 -28 52 -37z"/>
 </g>
<g id="layer103" fill="#3382ed" stroke="none">
 <path d="M665 8066 c-5 -2 -43 -14 -82 -26 -40 -12 -73 -25 -73 -30 0 -5 -15 -16 -32 -25 -32 -14 -88 -58 -88 -67 0 -2 -22 -28 -50 -58 -27 -30 -50 -50 -50 -45 0 5 -9 -8 -20 -30 -11 -22 -27 -43 -35 -48 -8 -4 -15 -12 -15 -17 0 -5 -15 -30 -32 -57 -18 -26 -33 -53 -34 -60 -1 -7 -10 -20 -19 -29 -9 -9 -27 -42 -41 -72 -22 -50 -24 -67 -24 -207 0 -84 5 -199 10 -256 14 -133 48 -339 59 -353 4 -6 18 -49 30 -96 32 -122 73 -254 81 -260 9 -7 30 -70 23 -70 -3 0 -1 -6 4 -12 6 -7 23 -51 38 -98 15 -47 38 -106 52 -132 13 -27 23 -49 22 -50 -2 -7 82 -219 91 -233 4 -5 20 -41 34 -80 15 -38 48 -117 73 -174 25 -57 46 -109 48 -115 1 -6 12 -33 23 -59 12 -27 22 -53 22 -58 0 -5 15 -38 33 -74 l32 -65 49 0 c27 0 46 -3 43 -7 -4 -3 -3 -11 2 -17 5 -6 12 -24 15 -41 12 -65 68 -272 81 -302 8 -17 15 -36 15 -42 0 -28 55 -115 96 -154 25 -23 57 -60 71 -82 14 -22 32 -44 39 -48 8 -4 14 -14 14 -22 0 -7 6 -20 13 -27 17 -17 108 -198 100 -198 -4 0 -2 -5 5 -12 7 -7 12 -19 12 -28 0 -8 7 -27 14 -42 8 -15 11 -30 6 -33 -5 -3 -7 -11 -4 -19 3 -7 0 -33 -6 -57 -6 -24 -12 -50 -12 -56 -1 -7 -4 -13 -7 -13 -3 0 -7 -16 -8 -36 -1 -19 -6 -41 -11 -47 -5 -7 -16 -39 -26 -72 -9 -33 -23 -83 -31 -111 -8 -28 -15 -58 -15 -67 0 -10 -3 -17 -7 -17 -5 0 -9 -10 -9 -22 -1 -13 -7 -51 -14 -85 -9 -42 -10 -72 -4 -95 9 -30 13 -33 49 -33 36 0 40 3 62 45 13 25 38 113 57 195 19 83 44 168 55 190 12 23 27 64 33 93 l13 53 33 -98 c42 -124 72 -236 67 -242 -3 -2 -1 -9 4 -15 5 -6 21 -56 36 -111 15 -55 31 -104 35 -110 4 -5 18 -43 30 -82 40 -134 90 -176 130 -111 38 63 20 184 -51 343 -5 11 -15 47 -23 80 -8 33 -26 98 -40 144 -14 47 -24 86 -22 89 3 2 16 -18 30 -46 14 -27 22 -52 19 -56 -4 -3 -2 -6 4 -6 6 0 14 -11 17 -25 4 -14 11 -25 16 -25 6 0 10 -7 10 -16 0 -21 78 -161 107 -192 7 -7 30 -40 52 -75 22 -34 52 -71 66 -81 14 -10 25 -23 25 -29 0 -11 54 -64 118 -114 26 -21 52 -33 71 -33 27 0 31 4 37 35 7 38 -11 119 -31 138 -6 7 -33 45 -59 85 -26 39 -51 72 -56 72 -4 0 -29 37 -55 83 -26 45 -51 84 -54 87 -16 13 -68 88 -79 115 l-12 30 20 -25 c19 -23 83 -96 147 -166 75 -83 163 -133 303 -173 41 -12 84 -26 95 -31 31 -14 137 -36 273 -56 87 -12 121 -21 118 -30 -20 -52 -28 -97 -22 -128 6 -32 10 -36 38 -36 21 0 42 9 60 27 l28 27 0 -326 0 -327 -32 -22 c-18 -13 -36 -28 -40 -34 -4 -5 -8 -6 -8 -2 0 12 -89 -96 -90 -108 0 -5 -10 -20 -23 -31 -12 -12 -35 -61 -52 -110 -16 -49 -32 -91 -35 -94 -3 -3 -5 -16 -6 -30 -1 -43 -9 -75 -19 -82 -16 -11 -13 -464 3 -479 6 -7 12 -21 12 -31 0 -10 2 -18 4 -18 2 0 30 16 62 35 81 49 177 77 250 73 33 -2 58 -7 57 -13 -1 -5 -34 -13 -72 -17 -38 -4 -91 -16 -117 -26 -57 -21 -163 -87 -165 -102 -5 -36 -3 -70 4 -70 4 0 7 -8 7 -17 0 -30 45 -153 55 -153 6 0 16 -15 23 -34 23 -62 150 -242 211 -299 69 -63 163 -119 260 -155 68 -24 243 -64 250 -56 5 5 11 2 -74 44 -38 19 -103 60 -145 91 -75 57 -372 323 -378 340 -2 5 4 9 13 9 8 0 91 -68 183 -152 92 -83 208 -178 257 -210 89 -58 233 -122 262 -116 8 2 -32 36 -89 75 -214 150 -501 397 -534 459 l-19 36 45 39 c102 88 524 320 775 426 115 48 261 103 274 103 8 0 36 -88 66 -208 31 -125 66 -360 72 -490 3 -72 9 -132 13 -132 12 0 71 140 92 220 28 103 30 347 4 469 -54 255 -148 463 -284 631 -26 32 -55 70 -66 85 -10 15 -31 35 -47 44 -16 10 -26 21 -21 26 4 5 2 6 -3 2 -6 -3 -30 9 -53 28 -23 18 -72 45 -109 61 -38 16 -70 31 -73 34 -3 3 -16 6 -30 8 -13 1 -28 6 -32 10 -5 5 -7 155 -6 335 l3 326 45 -34 c25 -19 63 -48 85 -65 38 -29 99 -66 155 -93 14 -6 30 -17 37 -23 6 -6 58 -30 115 -54 57 -23 114 -48 128 -55 36 -18 118 -34 213 -41 92 -7 198 13 245 45 15 10 48 30 74 45 26 15 60 45 76 69 76 109 149 244 201 366 l57 134 103 30 102 31 441 430 c242 237 452 438 466 447 15 10 110 98 211 197 l185 179 -14 57 c-7 31 -16 56 -20 56 -10 0 -32 89 -25 101 4 5 1 9 -4 9 -6 0 -11 7 -11 15 0 22 -18 18 -52 -10 -16 -14 -27 -25 -24 -25 2 0 -20 -24 -51 -52 -31 -29 -79 -77 -107 -107 -28 -30 -59 -62 -69 -70 -27 -24 -220 -210 -350 -338 -62 -61 -117 -120 -123 -130 -8 -18 -564 -571 -564 -562 0 15 54 150 74 183 13 23 31 64 42 91 10 28 21 52 24 55 3 3 12 25 20 50 13 38 53 83 279 305 335 329 732 719 792 776 40 38 46 48 42 76 -3 18 -9 31 -13 28 -4 -3 -13 17 -19 43 -25 99 -43 152 -51 152 -5 0 -69 -61 -142 -135 -74 -74 -136 -135 -139 -135 -3 0 -55 -49 -115 -110 -60 -60 -115 -110 -121 -110 -7 0 -13 -5 -13 -11 0 -6 -58 -70 -129 -140 l-129 -129 25 67 c14 38 28 77 31 88 3 11 11 29 19 41 7 11 26 60 43 108 28 83 33 90 107 159 127 117 503 493 503 503 1 30 -67 244 -77 244 -7 0 -44 -31 -82 -70 -39 -38 -76 -70 -82 -70 -7 0 -10 -3 -7 -6 3 -3 -28 -38 -70 -79 -43 -40 -78 -73 -79 -72 -1 1 15 69 35 151 35 142 39 150 80 191 48 49 54 70 17 63 -14 -3 -25 -1 -25 4 0 5 11 74 25 154 29 171 55 392 55 475 0 33 4 59 10 59 12 0 14 316 1 324 -4 3 -11 49 -14 103 -8 138 -55 432 -78 488 -7 17 -13 33 -13 36 -3 18 -95 118 -113 123 -13 4 -23 11 -23 16 0 28 -242 54 -335 35 -16 -4 -77 -16 -135 -27 -58 -12 -108 -25 -111 -31 -4 -5 -22 -9 -42 -10 -20 0 -34 -5 -31 -9 3 -4 -2 -8 -10 -8 -19 0 -85 -30 -108 -49 -10 -8 -18 -11 -18 -8 0 7 -74 -58 -120 -104 -29 -30 -130 -172 -130 -184 0 -5 -12 -24 -27 -44 -15 -20 -28 -40 -29 -46 0 -5 -2 -15 -2 -22 -1 -6 -8 -18 -14 -25 -7 -7 -26 -39 -41 -70 -16 -32 -33 -60 -38 -64 -5 -3 -7 -10 -4 -15 4 -5 1 -9 -4 -9 -6 0 -10 -3 -9 -7 3 -13 -13 -53 -22 -53 -4 0 -13 -13 -19 -30 l-10 -30 -1585 0 -1584 0 -6 28 c-3 15 -8 52 -11 82 -10 79 -44 252 -55 275 -5 11 -21 70 -35 130 -31 133 -64 235 -83 254 -7 7 -10 21 -7 29 3 9 3 13 -1 10 -3 -4 -18 15 -31 43 -29 57 -73 106 -134 146 -41 27 -48 28 -173 30 -72 1 -135 1 -141 -1z m680 -2811 c15 -55 30 -102 34 -105 5 -3 11 -18 14 -35 3 -16 15 -61 26 -100 12 -38 25 -87 30 -107 8 -35 7 -37 -10 -27 -11 5 -19 14 -19 19 0 6 -5 10 -11 10 -5 0 -37 18 -69 40 -32 22 -63 40 -67 40 -19 0 -63 53 -72 87 -19 65 -16 73 28 73 21 0 43 6 49 13 6 6 13 50 17 97 6 85 14 124 21 105 2 -5 15 -55 29 -110z"/>
 <path d="M6440 4528 c-47 -50 -249 -255 -450 -454 -201 -199 -363 -365 -360 -367 3 -3 68 14 145 38 77 24 173 54 213 66 l73 21 274 270 c260 256 275 272 275 307 0 39 -14 98 -35 146 -7 17 -15 38 -19 48 -3 9 -11 17 -18 17 -7 0 -51 -41 -98 -92z"/>
 <path d="M6585 4070 c-49 -49 -87 -92 -84 -94 4 -4 150 38 206 59 9 3 9 17 -3 57 -9 29 -19 56 -23 60 -4 4 -47 -33 -96 -82z"/>
 </g>
<g id="layer104" fill="#a1c3fc" stroke="none">
 <path d="M416 7945 c-16 -14 -27 -27 -25 -29 2 -2 19 9 37 25 39 35 29 39 -12 4z"/>
 <path d="M5215 7840 c-27 -7 -27 -8 -5 -8 14 0 36 4 50 8 20 6 21 8 5 8 -11 0 -33 -4 -50 -8z"/>
 <path d="M4681 7386 c-7 -8 -8 -17 -3 -20 6 -3 13 1 16 10 9 23 2 28 -13 10z"/>
 <path d="M5912 6054 c-22 -15 -32 -74 -13 -74 11 0 71 67 71 80 0 15 -33 12 -58 -6z"/>
 <path d="M6052 5890 c-40 -39 -78 -70 -84 -70 -6 0 -9 -2 -6 -5 3 -3 -36 -47 -86 -98 l-91 -93 -78 -232 c-44 -129 -77 -236 -74 -239 6 -5 66 51 365 344 l216 212 -34 125 c-19 69 -39 126 -45 126 -5 0 -43 -32 -83 -70z"/>
 <path d="M6128 5385 c-74 -74 -139 -135 -146 -135 -7 0 -12 -4 -12 -9 0 -16 -202 -211 -219 -211 -6 0 -11 -5 -11 -12 0 -6 -54 -64 -119 -130 -66 -65 -131 -133 -144 -150 -21 -27 -73 -152 -209 -501 -15 -39 -3 -45 24 -12 13 15 36 39 53 53 16 15 121 118 234 230 113 111 206 202 207 202 1 0 80 77 175 170 96 94 218 214 272 266 53 53 97 100 97 105 0 5 7 9 15 9 19 0 19 10 1 35 -7 11 -17 36 -21 55 -4 19 -13 53 -20 75 -7 22 -16 52 -19 68 -4 15 -10 27 -15 27 -5 0 -70 -61 -143 -135z"/>
 <path d="M4094 5313 c-52 -111 -118 -215 -171 -268 -63 -63 -119 -95 -240 -134 -147 -47 -152 -50 -293 -155 -63 -47 -134 -96 -158 -107 -66 -32 -163 -23 -420 40 -118 29 -220 50 -227 47 -11 -4 -12 -13 -5 -37 34 -117 171 -201 390 -238 61 -10 116 -23 122 -29 14 -14 68 -238 68 -284 0 -47 -42 -97 -102 -122 -24 -10 -76 -34 -116 -53 l-73 -34 -50 45 c-90 81 -211 125 -254 93 -19 -14 -18 -16 17 -88 52 -104 89 -144 169 -185 38 -19 94 -57 125 -85 30 -27 59 -49 64 -47 4 2 24 22 43 46 53 63 190 172 218 172 9 0 -7 -73 -27 -125 -17 -45 -207 -335 -264 -405 -20 -25 -42 -55 -49 -67 -6 -13 -18 -23 -26 -23 -21 0 -49 -99 -41 -144 6 -32 10 -36 38 -36 21 0 42 9 60 27 l28 27 0 -326 0 -327 -32 -22 c-18 -13 -36 -28 -40 -34 -4 -5 -8 -6 -8 -2 0 12 -89 -96 -90 -108 0 -5 -10 -20 -23 -31 -12 -12 -35 -61 -52 -110 -16 -49 -32 -91 -35 -94 -3 -3 -5 -16 -6 -30 -1 -43 -9 -75 -19 -82 -16 -11 -13 -464 3 -479 6 -7 12 -21 12 -31 0 -10 2 -18 4 -18 2 0 30 16 62 35 81 49 177 77 250 73 32 -2 59 -7 59 -13 0 -5 -32 -13 -71 -17 -40 -4 -94 -16 -120 -26 -57 -21 -163 -87 -165 -102 -5 -36 -3 -70 4 -70 4 0 7 -8 7 -17 0 -30 45 -153 55 -153 6 0 16 -15 23 -34 23 -62 150 -242 211 -299 69 -63 163 -119 260 -155 68 -24 243 -64 250 -56 5 5 11 2 -74 44 -38 19 -103 60 -145 91 -75 57 -372 323 -378 340 -2 5 4 9 13 9 8 0 91 -68 183 -152 92 -83 208 -178 257 -210 89 -58 233 -122 262 -116 8 2 -32 36 -89 75 -214 150 -501 397 -534 459 l-19 36 45 39 c102 88 524 320 775 426 115 48 261 103 274 103 8 0 36 -88 66 -208 31 -125 66 -360 72 -489 3 -73 9 -133 13 -133 12 0 71 140 92 220 28 103 30 347 4 469 -54 255 -148 463 -284 631 -26 32 -55 70 -66 85 -10 15 -31 35 -47 44 -16 10 -26 21 -21 26 4 5 2 6 -3 2 -6 -3 -30 9 -53 28 -23 18 -72 46 -109 61 -38 16 -70 32 -71 36 -2 5 -7 6 -12 3 -5 -3 -20 -1 -34 5 l-26 10 0 339 0 340 -57 50 c-32 27 -68 58 -81 68 l-22 18 25 90 c57 197 137 461 145 474 5 9 12 -5 20 -40 7 -30 23 -81 37 -114 13 -33 39 -121 57 -195 47 -188 65 -233 98 -244 19 -7 31 -6 43 4 28 23 14 107 -59 355 -79 268 -102 371 -88 388 5 7 17 37 27 67 48 150 193 376 340 530 72 76 218 256 303 372 12 16 9 26 -19 76 -51 90 -170 282 -175 282 -3 0 -25 -44 -50 -97z m-709 -1525 c-12 -46 -36 -126 -53 -178 -17 -52 -36 -116 -42 -141 l-12 -46 -56 5 c-31 2 -59 6 -61 8 -2 1 6 16 17 32 12 15 53 93 92 173 73 146 120 229 131 229 3 0 -4 -37 -16 -82z"/>
 <path d="M955 5139 c-132 -12 -132 -11 -112 -59 4 -8 9 -26 11 -40 14 -69 69 -269 81 -297 8 -17 15 -36 15 -42 0 -28 55 -115 96 -154 25 -23 57 -60 71 -82 14 -22 32 -44 39 -48 8 -4 14 -14 14 -22 0 -7 6 -20 13 -27 17 -17 108 -198 100 -198 -4 0 -2 -5 5 -12 7 -7 12 -19 12 -28 0 -8 7 -27 14 -42 8 -15 11 -30 6 -33 -5 -3 -7 -11 -4 -19 3 -7 0 -33 -6 -57 -6 -24 -12 -50 -12 -56 -1 -7 -4 -13 -7 -13 -3 0 -7 -16 -8 -36 -1 -19 -6 -41 -11 -47 -5 -7 -16 -39 -26 -72 -9 -33 -23 -83 -31 -111 -8 -28 -15 -58 -15 -67 0 -10 -3 -17 -7 -17 -5 0 -9 -10 -9 -22 -1 -13 -7 -51 -14 -85 -9 -42 -10 -72 -4 -95 9 -30 13 -33 49 -33 36 0 40 3 62 45 13 25 38 113 57 195 19 83 44 168 55 190 12 23 27 64 33 93 l13 53 33 -98 c42 -124 72 -236 67 -242 -3 -2 -1 -9 4 -15 5 -6 21 -56 36 -111 15 -55 31 -104 35 -110 4 -5 18 -43 30 -82 40 -134 90 -176 130 -111 38 63 20 184 -51 343 -5 11 -15 47 -23 80 -8 33 -26 98 -40 144 -14 47 -24 86 -22 89 3 2 16 -18 30 -46 14 -27 22 -52 19 -56 -4 -3 -2 -6 4 -6 6 0 14 -11 17 -25 4 -14 11 -25 16 -25 6 0 10 -7 10 -16 0 -21 78 -161 107 -192 7 -7 30 -40 52 -75 22 -34 52 -71 66 -81 14 -10 25 -23 25 -29 0 -11 54 -64 118 -114 26 -21 52 -33 71 -33 27 0 31 4 37 35 7 38 -11 119 -31 138 -6 7 -33 45 -59 85 -26 39 -51 72 -56 72 -4 0 -29 37 -55 83 -26 45 -51 84 -54 87 -36 27 -151 239 -151 278 l0 23 42 -23 c24 -13 83 -62 132 -110 49 -49 91 -88 93 -88 1 0 28 23 59 51 30 27 85 64 121 81 47 23 77 46 106 82 45 57 87 140 87 173 0 69 -167 18 -271 -84 l-37 -35 -73 35 c-41 19 -93 43 -117 53 -58 24 -102 75 -102 118 0 40 45 248 60 276 12 22 15 23 147 45 201 33 340 120 373 234 7 24 6 33 -5 37 -7 3 -109 -18 -227 -47 -181 -45 -227 -53 -309 -54 l-96 0 -144 97 c-79 53 -163 115 -187 137 -24 23 -45 41 -48 41 -3 0 -32 18 -64 40 -32 22 -63 40 -67 40 -32 0 -83 87 -83 143 0 15 -9 17 -67 16 -38 -1 -113 -6 -168 -10z"/>
 <path d="M6367 5045 c-15 -14 -26 -25 -23 -25 3 0 -20 -24 -51 -52 -31 -29 -79 -77 -107 -107 -28 -30 -59 -62 -69 -70 -11 -9 -69 -65 -131 -126 -62 -60 -133 -129 -159 -153 -26 -23 -47 -47 -47 -52 0 -6 -4 -10 -8 -10 -11 0 -122 -110 -122 -121 0 -4 -127 -134 -282 -288 l-283 -280 -46 -125 c-26 -69 -42 -126 -37 -126 5 0 50 12 99 27 l91 27 440 431 c242 236 448 435 458 440 10 6 105 94 211 198 l193 187 -14 53 c-7 28 -16 54 -20 57 -15 11 -37 99 -26 104 7 3 6 5 -1 5 -7 1 -13 8 -13 16 0 22 -21 18 -53 -10z"/>
 <path d="M6509 4604 c-7 -9 -18 -26 -24 -38 -6 -11 -23 -27 -37 -34 -15 -7 -44 -34 -64 -60 -20 -26 -199 -207 -398 -403 -198 -197 -359 -359 -356 -362 3 -3 68 14 145 38 77 24 173 54 213 66 l73 21 274 270 c260 256 275 272 275 307 0 39 -14 98 -35 146 -7 17 -15 38 -19 48 -7 21 -29 22 -47 1z"/>
 <path d="M6585 4070 c-49 -49 -87 -92 -84 -94 4 -4 150 38 206 59 9 3 9 17 -3 57 -9 29 -19 56 -23 60 -4 4 -47 -33 -96 -82z"/>
 </g>
<g id="layer105" fill="#fdbbb3" stroke="none">
 <path d="M416 7945 c-16 -14 -27 -27 -24 -30 2 -3 17 9 33 25 35 37 30 39 -9 5z"/>
 <path d="M5215 7840 c-27 -7 -27 -8 -5 -8 14 0 36 4 50 8 20 6 21 8 5 8 -11 0 -33 -4 -50 -8z"/>
 <path d="M4681 7386 c-7 -8 -8 -17 -3 -20 6 -3 13 1 16 10 9 23 2 28 -13 10z"/>
 <path d="M4094 5313 c-52 -111 -118 -215 -171 -268 -63 -63 -119 -95 -240 -134 -147 -47 -152 -50 -293 -155 -63 -47 -134 -96 -158 -107 -66 -32 -163 -23 -420 40 -118 29 -220 50 -227 47 -11 -4 -12 -13 -5 -37 34 -117 171 -201 390 -238 61 -10 116 -23 122 -29 14 -14 68 -238 68 -284 0 -47 -42 -97 -102 -122 -24 -10 -76 -34 -116 -53 l-73 -34 -50 45 c-90 81 -211 125 -254 93 -19 -14 -18 -16 17 -88 52 -104 89 -144 169 -185 38 -19 94 -57 125 -85 30 -27 59 -49 64 -47 4 2 24 22 43 46 53 63 190 172 218 172 9 0 -7 -73 -27 -125 -17 -45 -207 -335 -264 -405 -20 -25 -42 -55 -49 -67 -6 -13 -18 -23 -26 -23 -21 0 -49 -99 -41 -144 6 -32 10 -36 38 -36 21 0 42 9 60 27 l28 27 0 -326 0 -327 -32 -22 c-18 -13 -36 -28 -40 -34 -4 -5 -8 -6 -8 -2 0 12 -89 -96 -90 -108 0 -5 -10 -20 -23 -31 -12 -12 -35 -61 -52 -110 -16 -49 -32 -91 -35 -94 -3 -3 -5 -16 -6 -30 -1 -43 -9 -75 -19 -82 -16 -11 -13 -464 3 -479 6 -7 12 -21 12 -31 0 -10 2 -18 4 -18 2 0 30 16 62 35 81 49 177 77 250 73 32 -2 59 -7 59 -13 0 -5 -32 -13 -71 -17 -40 -4 -94 -16 -120 -26 -57 -21 -163 -87 -165 -102 -5 -36 -3 -70 4 -70 4 0 7 -8 7 -17 0 -30 45 -153 55 -153 6 0 16 -15 23 -34 23 -62 150 -242 211 -299 69 -63 163 -119 260 -155 68 -24 243 -64 250 -56 5 5 11 2 -74 44 -38 19 -103 60 -145 91 -75 57 -372 323 -378 340 -2 5 4 9 13 9 8 0 91 -68 183 -152 92 -83 208 -178 257 -210 89 -58 233 -122 262 -116 8 2 -32 36 -89 75 -214 150 -501 397 -534 459 l-19 36 45 39 c102 88 524 320 775 426 115 48 261 103 274 103 8 0 36 -88 66 -208 31 -125 66 -360 72 -489 3 -73 9 -133 13 -133 12 0 71 140 92 220 28 103 30 347 4 469 -54 255 -148 463 -284 631 -26 32 -55 70 -66 85 -10 15 -31 35 -47 44 -16 10 -26 21 -21 26 4 5 2 6 -3 2 -6 -3 -30 9 -53 28 -23 18 -72 46 -109 61 -38 16 -70 32 -71 36 -2 5 -7 6 -12 3 -5 -3 -20 -1 -34 5 l-26 10 0 339 0 340 -57 50 c-32 27 -68 58 -81 68 l-22 18 25 90 c57 197 137 461 145 474 5 9 12 -5 20 -40 7 -30 23 -81 37 -114 13 -33 39 -121 57 -195 47 -188 65 -233 98 -244 19 -7 31 -6 43 4 28 23 14 107 -59 355 -79 268 -102 371 -88 388 5 7 17 37 27 67 48 150 193 376 340 530 72 76 218 256 303 372 12 16 9 26 -19 76 -51 90 -170 282 -175 282 -3 0 -25 -44 -50 -97z m-709 -1525 c-12 -46 -36 -126 -53 -178 -17 -52 -36 -116 -42 -141 l-12 -46 -56 5 c-31 2 -59 6 -61 8 -2 1 6 16 17 32 12 15 53 93 92 173 73 146 120 229 131 229 3 0 -4 -37 -16 -82z"/>
 <path d="M1035 5144 c-11 -2 -59 -6 -107 -9 -72 -6 -87 -10 -91 -25 -3 -10 -1 -22 3 -27 5 -4 11 -21 14 -38 11 -63 68 -271 81 -302 8 -17 15 -36 15 -42 0 -28 55 -115 96 -154 25 -23 57 -60 71 -82 14 -22 32 -44 39 -48 8 -4 14 -14 14 -22 0 -7 6 -20 13 -27 17 -17 108 -198 100 -198 -4 0 -2 -5 5 -12 7 -7 12 -19 12 -28 0 -8 7 -27 14 -42 8 -15 11 -30 6 -33 -5 -3 -7 -11 -4 -19 3 -7 0 -33 -6 -57 -6 -24 -12 -50 -12 -56 -1 -7 -4 -13 -7 -13 -3 0 -7 -16 -8 -36 -1 -19 -6 -41 -11 -47 -5 -7 -16 -39 -26 -72 -9 -33 -23 -83 -31 -111 -8 -28 -15 -58 -15 -67 0 -10 -3 -17 -7 -17 -5 0 -9 -10 -9 -22 -1 -13 -7 -51 -14 -85 -9 -42 -10 -72 -4 -95 9 -30 13 -33 49 -33 36 0 40 3 62 45 13 25 38 113 57 195 19 83 44 168 55 190 12 23 27 64 33 93 l13 53 33 -98 c42 -124 72 -236 67 -242 -3 -2 -1 -9 4 -15 5 -6 21 -56 36 -111 15 -55 31 -104 35 -110 4 -5 18 -43 30 -82 40 -134 90 -176 130 -111 38 63 20 184 -51 343 -5 11 -15 47 -23 80 -8 33 -26 98 -40 144 -14 47 -24 86 -22 89 3 2 16 -18 30 -46 14 -27 22 -52 19 -56 -4 -3 -2 -6 4 -6 6 0 14 -11 17 -25 4 -14 11 -25 16 -25 6 0 10 -7 10 -16 0 -21 78 -161 107 -192 7 -7 30 -40 52 -75 22 -34 52 -71 66 -81 14 -10 25 -23 25 -29 0 -11 54 -64 118 -114 26 -21 52 -33 71 -33 27 0 31 4 37 35 7 38 -11 119 -31 138 -6 7 -33 45 -59 85 -26 39 -51 72 -56 72 -4 0 -29 37 -55 83 -26 45 -51 84 -54 87 -36 27 -151 239 -151 278 l0 23 42 -23 c24 -13 83 -62 132 -110 49 -49 91 -88 93 -88 1 0 28 23 59 51 30 27 85 64 121 81 47 23 77 46 106 82 45 57 87 140 87 173 0 69 -167 18 -271 -84 l-37 -35 -73 35 c-41 19 -93 43 -117 53 -58 24 -102 75 -102 118 0 40 45 248 60 276 12 22 15 23 147 45 201 33 340 120 373 234 7 24 6 33 -5 37 -7 3 -109 -18 -227 -47 -181 -45 -227 -53 -309 -54 l-96 0 -144 97 c-79 53 -163 115 -187 137 -24 23 -45 41 -48 41 -3 0 -32 18 -64 40 -32 22 -63 40 -67 40 -32 0 -83 87 -83 143 0 15 -9 17 -67 16 -38 -1 -77 -3 -88 -5z"/>
 </g>

</svg>