<!DOCTYPE svg PUBLIC "-//W3C//DTD SVG 20010904//EN" "http://www.w3.org/TR/2001/REC-SVG-20010904/DTD/svg10.dtd">
<svg version="1.0" xmlns="http://www.w3.org/2000/svg" width="512px" height="512px" viewBox="0 0 5120 5120" preserveAspectRatio="xMidYMid meet">
<g id="layer101" fill="#000000" stroke="none">
 <path d="M2405 5097 c-348 -130 -408 -603 -102 -808 105 -70 155 -79 422 -79 254 0 303 8 397 63 62 36 145 128 174 192 14 30 29 55 32 55 14 0 139 -39 187 -58 185 -74 339 -223 431 -415 36 -76 77 -224 89 -318 l7 -57 -110 -3 c-124 -5 -152 -17 -184 -80 -17 -31 -18 -90 -18 -789 0 -712 1 -757 18 -789 30 -57 70 -71 194 -71 l108 0 0 -102 c0 -392 -84 -698 -265 -968 -229 -342 -583 -554 -1003 -599 -571 -61 -1046 106 -1356 478 -243 293 -355 636 -356 1089 l0 102 108 0 c124 0 164 14 194 71 17 32 18 77 18 789 0 699 -1 758 -18 789 -9 19 -30 44 -45 55 -26 20 -44 21 -255 24 -251 4 -348 -6 -453 -42 -104 -36 -174 -82 -264 -171 -93 -93 -154 -197 -185 -321 -17 -67 -20 -111 -20 -328 0 -266 7 -323 52 -429 81 -192 251 -345 448 -405 36 -11 86 -22 111 -26 l46 -7 6 -227 c4 -191 9 -246 31 -347 127 -603 514 -1066 1056 -1268 52 -19 149 -48 215 -64 119 -28 123 -28 445 -28 299 0 333 2 423 22 333 76 619 233 839 460 337 351 498 787 498 1349 l0 103 38 7 c277 47 495 227 579 478 26 79 27 89 31 346 4 306 -4 365 -66 495 -69 143 -185 260 -329 330 -74 36 -175 65 -228 65 l-31 0 -17 123 c-47 344 -190 608 -429 787 -131 99 -311 179 -475 210 l-61 12 -36 73 c-58 118 -144 194 -265 235 -55 18 -84 20 -313 19 -237 0 -257 -1 -313 -22z m528 -248 c47 -13 106 -63 123 -106 29 -68 9 -169 -42 -214 -52 -45 -74 -49 -289 -49 -185 0 -210 2 -244 20 -156 79 -139 287 28 346 45 16 369 19 424 3z m-1813 -2044 l0 -595 -164 0 c-135 0 -175 3 -228 20 -132 41 -249 158 -289 291 -19 62 -20 88 -17 306 l3 238 32 68 c38 80 116 166 188 207 79 45 150 58 323 59 l152 1 0 -595z m3221 585 c184 -34 332 -189 359 -376 13 -89 12 -329 0 -419 -26 -175 -144 -314 -311 -366 -49 -15 -92 -19 -225 -19 l-164 0 0 595 0 595 144 0 c79 0 168 -5 197 -10z"/>
 </g>

</svg>