<!DOCTYPE svg PUBLIC "-//W3C//DTD SVG 20010904//EN" "http://www.w3.org/TR/2001/REC-SVG-20010904/DTD/svg10.dtd">
<svg version="1.0" xmlns="http://www.w3.org/2000/svg" width="512px" height="512px" viewBox="0 0 5120 5120" preserveAspectRatio="xMidYMid meet">
<g id="layer101" fill="#000000" stroke="none">
 <path d="M656 4840 c-15 -5 -37 -17 -48 -27 -50 -45 -48 9 -48 -1230 0 -1103 1 -1160 18 -1192 21 -40 73 -71 117 -71 40 0 94 28 119 63 21 28 21 34 24 1108 l2 1079 525 0 525 0 0 -611 c0 -686 0 -687 72 -839 33 -69 57 -101 127 -171 70 -70 102 -94 171 -127 197 -94 403 -94 600 0 69 33 101 57 171 127 70 70 94 102 127 171 71 148 72 161 72 845 l0 605 525 0 525 0 2 -1079 c3 -1074 3 -1080 24 -1108 25 -35 79 -63 119 -63 44 0 96 31 117 71 17 32 18 89 18 1194 0 1132 -1 1161 -20 1192 -44 72 7 68 -785 68 -791 0 -743 4 -782 -68 -17 -29 -18 -87 -23 -747 l-5 -715 -29 -60 c-38 -77 -114 -153 -191 -191 -55 -26 -69 -29 -165 -29 -96 0 -110 3 -165 29 -77 38 -153 114 -191 191 l-29 60 -5 715 c-5 660 -6 718 -23 747 -39 72 7 68 -767 70 -382 1 -708 -2 -724 -7z"/>
 <path d="M99 2321 c-72 -23 -99 -61 -99 -141 0 -43 5 -55 33 -84 51 -53 2456 -1808 2494 -1819 23 -7 44 -7 67 0 38 12 2442 1765 2493 1819 28 29 33 41 33 84 0 63 -21 105 -63 126 -42 23 -108 22 -143 -1 -16 -10 -551 -401 -1189 -868 -1136 -832 -1160 -849 -1185 -835 -14 8 -538 390 -1165 849 -627 460 -1151 842 -1165 851 -33 21 -79 28 -111 19z"/>
 </g>

</svg>