<!DOCTYPE svg PUBLIC "-//W3C//DTD SVG 20010904//EN" "http://www.w3.org/TR/2001/REC-SVG-20010904/DTD/svg10.dtd">
<svg version="1.0" xmlns="http://www.w3.org/2000/svg" width="512px" height="369px" viewBox="0 0 5120 3690" preserveAspectRatio="xMidYMid meet">
<g id="layer101" fill="#1c67a4" stroke="none">
 <path d="M3232 3623 c-92 -45 -125 -156 -76 -258 10 -22 273 -290 672 -685 l656 -650 -2180 -2 c-2053 -3 -2181 -4 -2211 -20 -54 -30 -86 -82 -91 -148 -2 -32 1 -74 7 -93 15 -45 68 -93 118 -106 26 -8 722 -11 2198 -11 l2160 0 -667 -668 c-714 -715 -698 -697 -684 -784 14 -89 73 -148 156 -156 113 -11 44 -72 962 846 461 460 845 851 853 868 19 41 19 127 0 168 -20 42 -1672 1692 -1708 1706 -42 15 -127 12 -165 -7z"/>
 </g>

</svg>