<!DOCTYPE svg PUBLIC "-//W3C//DTD SVG 20010904//EN" "http://www.w3.org/TR/2001/REC-SVG-20010904/DTD/svg10.dtd">
<svg version="1.0" xmlns="http://www.w3.org/2000/svg" width="512px" height="512px" viewBox="0 0 5120 5120" preserveAspectRatio="xMidYMid meet">
<g id="layer101" fill="#000000" stroke="none">
 <path d="M3690 5104 c-533 -83 -1231 -427 -1835 -903 -546 -430 -1062 -1030 -1401 -1626 -171 -302 -318 -656 -389 -933 -41 -163 -57 -287 -57 -442 0 -224 35 -355 135 -508 66 -102 524 -562 612 -614 94 -56 170 -78 274 -78 110 0 192 24 282 81 87 56 771 739 827 827 114 177 114 377 0 554 -24 38 -124 147 -253 275 l-213 213 45 87 c251 489 909 1141 1385 1374 l68 33 227 -225 c199 -197 237 -230 300 -262 92 -45 167 -61 263 -55 89 6 169 33 242 81 29 20 225 208 434 419 371 373 382 385 423 468 83 170 70 351 -36 512 -52 78 -524 553 -598 603 -81 53 -194 100 -287 119 -95 20 -326 20 -448 0z m349 -255 c128 -20 228 -69 316 -156 22 -21 129 -129 237 -240 151 -153 204 -213 223 -254 32 -69 33 -143 4 -202 -25 -51 -724 -756 -784 -792 -58 -35 -112 -41 -177 -20 -48 16 -77 41 -303 266 -160 158 -264 254 -288 264 -20 8 -61 15 -91 15 -49 0 -71 -8 -193 -71 -273 -141 -546 -344 -817 -609 -327 -320 -564 -627 -707 -917 -66 -134 -82 -208 -60 -276 9 -26 80 -104 261 -284 267 -266 289 -296 290 -386 0 -93 -25 -124 -394 -495 -187 -189 -365 -359 -394 -379 -43 -30 -64 -38 -113 -41 -112 -8 -123 0 -414 292 -223 223 -266 270 -293 326 -50 102 -63 168 -63 315 0 146 17 257 63 420 237 845 952 1821 1793 2449 685 512 1495 842 1904 775z"/>
 </g>

</svg>