<svg width="111" height="50" viewBox="0 0 111 50" fill="none" xmlns="http://www.w3.org/2000/svg">
<g clip-path="url(#clip0)">
<path d="M18.3334 32.1822L20.8731 17.8965H24.8413L22.381 32.1822H18.3334Z" fill="#3C58BF"/>
<path d="M18.3334 32.1822L21.5873 17.8965H24.8413L22.381 32.1822H18.3334Z" fill="#293688"/>
<path d="M36.746 18.0558C35.9524 17.7384 34.6825 17.4209 33.0952 17.4209C29.127 17.4209 26.2698 19.405 26.2698 22.2622C26.2698 24.405 28.2539 25.5161 29.8412 26.2304C31.4285 26.9447 31.9047 27.4209 31.9047 28.0558C31.9047 29.0082 30.6349 29.4844 29.5238 29.4844C27.9365 29.4844 27.0635 29.2463 25.7143 28.6907L25.1587 28.4526L24.6031 31.7066C25.5555 32.1034 27.3016 32.5003 29.127 32.5003C33.3333 32.5003 36.1111 30.5161 36.1111 27.5003C36.1111 25.8336 35.0793 24.5638 32.6984 23.532C31.2698 22.8177 30.3968 22.4209 30.3968 21.7066C30.3968 21.0717 31.1111 20.4368 32.6984 20.4368C34.0476 20.4368 35 20.6749 35.7143 20.9923L36.1111 21.1511L36.746 18.0558Z" fill="#3C58BF"/>
<path d="M36.746 18.0558C35.9524 17.7384 34.6825 17.4209 33.0952 17.4209C29.127 17.4209 26.9841 19.405 26.9841 22.2622C26.9841 24.405 28.2539 25.5161 29.8412 26.2304C31.4285 26.9447 31.9047 27.4209 31.9047 28.0558C31.9047 29.0082 30.6349 29.4844 29.5238 29.4844C27.9365 29.4844 27.0635 29.2463 25.7143 28.6907L25.1587 28.4526L24.6031 31.7066C25.5555 32.1034 27.3016 32.5003 29.127 32.5003C33.3333 32.5003 36.1111 30.5161 36.1111 27.5003C36.1111 25.8336 35.0793 24.5638 32.6984 23.532C31.2698 22.8177 30.3968 22.4209 30.3968 21.7066C30.3968 21.0717 31.1111 20.4368 32.6984 20.4368C34.0476 20.4368 35 20.6749 35.7143 20.9923L36.1111 21.1511L36.746 18.0558Z" fill="#293688"/>
<path d="M43.5714 17.8965C42.619 17.8965 41.9047 17.9759 41.5079 18.9282L35.5555 32.1822H39.8413L40.6349 29.8012H45.7143L46.1905 32.1822H50L46.6666 17.8965H43.5714ZM41.746 27.4203C41.9841 26.706 43.3333 23.2139 43.3333 23.2139C43.3333 23.2139 43.6508 22.3409 43.8889 21.7854L44.127 23.1346C44.127 23.1346 44.9206 26.706 45.0793 27.4997H41.746V27.4203Z" fill="#3C58BF"/>
<path d="M44.5238 17.8965C43.5714 17.8965 42.8571 17.9759 42.4603 18.9282L35.5555 32.1822H39.8413L40.6349 29.8012H45.7143L46.1905 32.1822H50L46.6666 17.8965H44.5238ZM41.746 27.4203C42.0635 26.6266 43.3333 23.2139 43.3333 23.2139C43.3333 23.2139 43.6508 22.3409 43.8889 21.7854L44.127 23.1346C44.127 23.1346 44.9206 26.706 45.0793 27.4997H41.746V27.4203Z" fill="#293688"/>
<path d="M11.0317 27.8967L10.6349 25.8332C9.92062 23.4523 7.61903 20.8332 5.07935 19.5634L8.65077 32.2618H12.9365L19.3651 17.9761H15.0793L11.0317 27.8967Z" fill="#3C58BF"/>
<path d="M11.0317 27.8967L10.6349 25.8332C9.92062 23.4523 7.61903 20.8332 5.07935 19.5634L8.65077 32.2618H12.9365L19.3651 17.9761H15.873L11.0317 27.8967Z" fill="#293688"/>
<path d="M0 17.8965L0.714286 18.0552C5.79365 19.2457 9.28571 22.2616 10.6349 25.833L9.20635 19.087C8.96825 18.1346 8.25397 17.8965 7.38095 17.8965H0Z" fill="#FFBC00"/>
<path d="M0 17.8965C5.07937 19.087 9.28571 22.1822 10.6349 25.7536L9.28571 20.1187C9.04762 19.1663 8.25397 18.6108 7.38095 18.6108L0 17.8965Z" fill="#F7981D"/>
<path d="M0 17.8965C5.07937 19.087 9.28571 22.1822 10.6349 25.7536L9.68254 22.6584C9.44444 21.706 9.12698 20.7536 8.01587 20.3568L0 17.8965Z" fill="#ED7C00"/>
<path d="M15 27.4204L12.3015 24.722L11.0317 27.7379L10.7142 25.7537C9.99996 23.3728 7.69837 20.7537 5.15869 19.4839L8.73012 32.1823H13.0158L15 27.4204Z" fill="#051244"/>
<path d="M22.381 32.1825L18.9683 28.6904L18.3334 32.1825H22.381Z" fill="#051244"/>
<path d="M31.5079 27.2617C31.8254 27.5792 31.9841 27.8173 31.9047 28.1347C31.9047 29.0871 30.6349 29.5633 29.5238 29.5633C27.9365 29.5633 27.0635 29.3252 25.7143 28.7697L25.1587 28.5316L24.6031 31.7855C25.5555 32.1824 27.3016 32.5792 29.127 32.5792C31.6666 32.5792 33.7301 31.8649 34.9206 30.5951L31.5079 27.2617Z" fill="#051244"/>
<path d="M36.1111 32.182H39.8412L40.6349 29.801H45.7143L46.1904 32.182H50L48.6508 26.3883L43.8889 21.7852L44.127 23.055C44.127 23.055 44.9206 26.6264 45.0793 27.4201H41.746C42.0635 26.6264 43.3333 23.2137 43.3333 23.2137C43.3333 23.2137 43.6508 22.3407 43.8889 21.7852" fill="#051244"/>
</g>
<g clip-path="url(#clip1)">
<path d="M111 25.5001C111 32.5985 105.267 38.4001 98.1001 38.4001C91.0017 38.4001 85.2001 32.5985 85.2001 25.5001C85.2001 18.4017 90.9334 12.6001 98.0318 12.6001C105.267 12.6001 111 18.4017 111 25.5001Z" fill="#FFB600"/>
<path d="M98.1001 12.6001C105.198 12.6001 111 18.4017 111 25.5001C111 32.5985 105.267 38.4001 98.1001 38.4001C91.0017 38.4001 85.2001 32.5985 85.2001 25.5001" fill="#F7981D"/>
<path d="M98.1 12.6001C105.198 12.6001 111 18.4017 111 25.5001C111 32.5985 105.267 38.4001 98.1 38.4001" fill="#FF8500"/>
<path d="M80.7635 12.6001C73.7333 12.6684 68 18.4017 68 25.5001C68 32.5985 73.7333 38.4001 80.9 38.4001C84.2444 38.4001 87.2476 37.1033 89.5683 35.0557C90.046 34.6461 90.4556 34.1683 90.8651 33.6906H88.2032C87.8619 33.281 87.5206 32.8033 87.2476 32.3937H91.8206C92.0937 31.9842 92.3667 31.5064 92.5714 31.0287H86.4968C86.2921 30.6191 86.0873 30.1414 85.9508 29.6636H93.0492C93.4587 28.3668 93.7317 27.0017 93.7317 25.5683C93.7317 24.6128 93.5952 23.7255 93.4587 22.8382H85.5413C85.6095 22.3604 85.746 21.9509 85.8825 21.4731H92.981C92.8444 20.9953 92.6397 20.5176 92.4349 20.108H86.4286C86.6333 19.6303 86.9063 19.2207 87.1794 18.743H91.7524C91.4794 18.2652 91.1381 17.7874 90.7286 17.3779H88.2032C88.6127 16.9001 89.0222 16.4906 89.5 16.081C87.2476 13.9652 84.1762 12.7366 80.8317 12.7366C80.8317 12.6001 80.8317 12.6001 80.7635 12.6001Z" fill="#FF5050"/>
<path d="M68 25.4998C68 32.5982 73.7333 38.3998 80.9 38.3998C84.2444 38.3998 87.2476 37.103 89.5683 35.0554C90.046 34.6458 90.4556 34.1681 90.8651 33.6903H88.2032C87.8619 33.2808 87.5206 32.803 87.2476 32.3935H91.8206C92.0937 31.9839 92.3667 31.5062 92.5714 31.0284H86.4968C86.2921 30.6189 86.0873 30.1411 85.9508 29.6633H93.0492C93.4587 28.3665 93.7317 27.0014 93.7317 25.5681C93.7317 24.6125 93.5952 23.7252 93.4587 22.8379H85.5413C85.6095 22.3601 85.746 21.9506 85.8825 21.4728H92.981C92.8444 20.9951 92.6397 20.5173 92.4349 20.1078H86.4286C86.6333 19.63 86.9063 19.2205 87.1794 18.7427H91.7524C91.4794 18.2649 91.1381 17.7871 90.7286 17.3776H88.2032C88.6127 16.8998 89.0222 16.4903 89.5 16.0808C87.2476 13.9649 84.1762 12.7363 80.8317 12.7363H80.7635" fill="#E52836"/>
<path d="M80.9001 38.3998C84.2445 38.3998 87.2477 37.103 89.5683 35.0554C90.0461 34.6458 90.4556 34.1681 90.8651 33.6903H88.2032C87.862 33.2808 87.5207 32.803 87.2477 32.3935H91.8207C92.0937 31.9839 92.3667 31.5062 92.5715 31.0284H86.4969C86.2921 30.6189 86.0874 30.1411 85.9509 29.6633H93.0493C93.4588 28.3665 93.7318 27.0014 93.7318 25.5681C93.7318 24.6125 93.5953 23.7252 93.4588 22.8379H85.5413C85.6096 22.3601 85.7461 21.9506 85.8826 21.4728H92.981C92.8445 20.9951 92.6397 20.5173 92.435 20.1078H86.4286C86.6334 19.63 86.9064 19.2205 87.1794 18.7427H91.7524C91.4794 18.2649 91.1382 17.7871 90.7286 17.3776H88.2032C88.6128 16.8998 89.0223 16.4903 89.5001 16.0808C87.2477 13.9649 84.1762 12.7363 80.8318 12.7363H80.7635" fill="#CB2026"/>
<path d="M85.4729 28.7764L85.6777 27.616C85.6094 27.616 85.4729 27.6843 85.3364 27.6843C84.8586 27.6843 84.7904 27.4113 84.8586 27.2748L85.2681 24.8859H86.0189L86.2237 23.5891H85.5412L85.6777 22.77H84.3126C84.3126 22.77 83.4935 27.2748 83.4935 27.8208C83.4935 28.6399 83.9713 28.9811 84.5856 28.9811C84.9951 28.9811 85.3364 28.8446 85.4729 28.7764Z" fill="white"/>
<path d="M85.9508 26.5923C85.9508 28.5034 87.2476 28.9812 88.3397 28.9812C89.3635 28.9812 89.773 28.7764 89.773 28.7764L90.046 27.4796C90.046 27.4796 89.2953 27.8208 88.6127 27.8208C87.1111 27.8208 87.3841 26.7288 87.3841 26.7288H90.1826C90.1826 26.7288 90.3873 25.8415 90.3873 25.5002C90.3873 24.6129 89.9095 23.5208 88.4079 23.5208C86.9746 23.3843 85.9508 24.8859 85.9508 26.5923ZM88.3397 24.6129C89.0905 24.6129 88.954 25.5002 88.954 25.5685H87.4524C87.4524 25.5002 87.5889 24.6129 88.3397 24.6129Z" fill="white"/>
<path d="M97.0079 28.7764L97.2809 27.2748C97.2809 27.2748 96.5984 27.6161 96.1206 27.6161C95.165 27.6161 94.7555 26.8653 94.7555 26.0462C94.7555 24.4081 95.5745 23.5208 96.5301 23.5208C97.2126 23.5208 97.7587 23.9304 97.7587 23.9304L97.9634 22.497C97.9634 22.497 97.1444 22.1558 96.3936 22.1558C94.8237 22.1558 93.2539 23.5208 93.2539 26.1145C93.2539 27.8208 94.073 28.9811 95.711 28.9811C96.2571 28.9811 97.0079 28.7764 97.0079 28.7764Z" fill="white"/>
<path d="M77.965 23.3838C77.0094 23.3838 76.3269 23.6568 76.3269 23.6568L76.1221 24.8171C76.1221 24.8171 76.7364 24.5441 77.6237 24.5441C78.1015 24.5441 78.511 24.6124 78.511 25.0219C78.511 25.2949 78.4428 25.3632 78.4428 25.3632C78.4428 25.3632 78.0332 25.3632 77.8285 25.3632C76.6682 25.3632 75.3713 25.8409 75.3713 27.4108C75.3713 28.6393 76.1904 28.9124 76.6682 28.9124C77.6237 28.9124 78.0332 28.2981 78.1015 28.2981L78.0332 28.8441H79.2618L79.8078 25.0901C79.8078 23.452 78.4428 23.3838 77.965 23.3838ZM78.238 26.4552C78.238 26.66 78.1015 27.752 77.2824 27.752C76.8729 27.752 76.7364 27.4108 76.7364 27.206C76.7364 26.8647 76.9412 26.387 77.965 26.387C78.1697 26.4552 78.238 26.4552 78.238 26.4552Z" fill="white"/>
<path d="M81.1048 28.9127C81.446 28.9127 83.1524 28.981 83.1524 27.1381C83.1524 25.4318 81.5143 25.7731 81.5143 25.0905C81.5143 24.7493 81.7873 24.6127 82.2651 24.6127C82.4698 24.6127 83.2206 24.681 83.2206 24.681L83.4254 23.4524C83.4254 23.4524 82.9476 23.3159 82.1286 23.3159C81.1048 23.3159 80.0809 23.7254 80.0809 25.0905C80.0809 26.6604 81.7873 26.5239 81.7873 27.1381C81.7873 27.5477 81.3095 27.6159 80.9682 27.6159C80.354 27.6159 79.7397 27.4112 79.7397 27.4112L79.5349 28.6397C79.6032 28.7762 79.9444 28.9127 81.1048 28.9127Z" fill="white"/>
<path d="M108.338 22.2925L108.065 24.1353C108.065 24.1353 107.519 23.4528 106.768 23.4528C105.54 23.4528 104.448 24.9544 104.448 26.729C104.448 27.8211 104.994 28.9814 106.154 28.9814C106.973 28.9814 107.451 28.4353 107.451 28.4353L107.382 28.9131H108.748L109.771 22.3607L108.338 22.2925ZM107.724 25.9099C107.724 26.6607 107.382 27.6163 106.632 27.6163C106.154 27.6163 105.881 27.2068 105.881 26.5242C105.881 25.4322 106.359 24.7496 106.973 24.7496C107.451 24.7496 107.724 25.0909 107.724 25.9099Z" fill="white"/>
<path d="M70.5253 28.8449L71.3444 23.9306L71.4809 28.8449H72.4365L74.2111 23.9306L73.4603 28.8449H74.8936L75.9857 22.2925H73.7333L72.3682 26.3195L72.2999 22.2925H70.3206L69.2285 28.8449H70.5253Z" fill="white"/>
<path d="M91.6841 28.8448C92.0936 26.5924 92.1619 24.7496 93.1174 25.0908C93.2539 24.2035 93.4587 23.8623 93.5952 23.521C93.5952 23.521 93.5269 23.521 93.3222 23.521C92.7079 23.521 92.2301 24.34 92.2301 24.34L92.3666 23.5893H91.0698L90.1825 28.9131H91.6841V28.8448Z" fill="white"/>
<path d="M100.148 23.3838C99.192 23.3838 98.5095 23.6568 98.5095 23.6568L98.3047 24.8171C98.3047 24.8171 98.919 24.5441 99.8063 24.5441C100.284 24.5441 100.694 24.6124 100.694 25.0219C100.694 25.2949 100.625 25.3632 100.625 25.3632C100.625 25.3632 100.216 25.3632 100.011 25.3632C98.8508 25.3632 97.554 25.8409 97.554 27.4108C97.554 28.6393 98.373 28.9124 98.8508 28.9124C99.8063 28.9124 100.216 28.2981 100.284 28.2981L100.216 28.8441H101.444L101.99 25.0901C102.059 23.452 100.625 23.3838 100.148 23.3838ZM100.489 26.4552C100.489 26.66 100.352 27.752 99.5333 27.752C99.1238 27.752 98.9873 27.4108 98.9873 27.206C98.9873 26.8647 99.192 26.387 100.216 26.387C100.421 26.4552 100.421 26.4552 100.489 26.4552Z" fill="white"/>
<path d="M103.151 28.8448C103.56 26.5924 103.629 24.7496 104.584 25.0908C104.721 24.2035 104.925 23.8623 105.062 23.521C105.062 23.521 104.994 23.521 104.789 23.521C104.175 23.521 103.697 24.34 103.697 24.34L103.833 23.5893H102.536L101.649 28.9131H103.151V28.8448Z" fill="white"/>
<path d="M83.3571 27.8208C83.3571 28.6399 83.8348 28.9811 84.4491 28.9811C84.9269 28.9811 85.3364 28.8446 85.4729 28.7764L85.6777 27.616C85.6094 27.616 85.4729 27.6843 85.3364 27.6843C84.8586 27.6843 84.7904 27.4113 84.8586 27.2748L85.2682 24.8859H86.019L86.2237 23.5891H85.5412L85.6777 22.77" fill="#FCDCDC"/>
<path d="M86.6333 26.5923C86.6333 28.5034 87.2476 28.9812 88.3397 28.9812C89.3635 28.9812 89.773 28.7764 89.773 28.7764L90.046 27.4796C90.046 27.4796 89.2952 27.8208 88.6127 27.8208C87.1111 27.8208 87.3841 26.7288 87.3841 26.7288H90.1825C90.1825 26.7288 90.3873 25.8415 90.3873 25.5002C90.3873 24.6129 89.9095 23.5208 88.4079 23.5208C86.9746 23.3843 86.6333 24.8859 86.6333 26.5923ZM88.3397 24.6129C89.0904 24.6129 89.227 25.5002 89.227 25.5685H87.4523C87.4523 25.5002 87.5889 24.6129 88.3397 24.6129Z" fill="#FCDCDC"/>
<path d="M97.0078 28.7764L97.2808 27.2748C97.2808 27.2748 96.5983 27.6161 96.1205 27.6161C95.165 27.6161 94.7554 26.8653 94.7554 26.0462C94.7554 24.4081 95.5745 23.5208 96.5301 23.5208C97.2126 23.5208 97.7586 23.9304 97.7586 23.9304L97.9634 22.497C97.9634 22.497 97.1443 22.1558 96.3935 22.1558C94.8237 22.1558 93.9364 23.5208 93.9364 26.1145C93.9364 27.8208 94.0729 28.9811 95.711 28.9811C96.257 28.9811 97.0078 28.7764 97.0078 28.7764Z" fill="#FCDCDC"/>
<path d="M76.1221 24.8861C76.1221 24.8861 76.7364 24.6131 77.6237 24.6131C78.1015 24.6131 78.511 24.6813 78.511 25.0908C78.511 25.3638 78.4428 25.4321 78.4428 25.4321C78.4428 25.4321 78.0332 25.4321 77.8285 25.4321C76.6682 25.4321 75.3713 25.9099 75.3713 27.4797C75.3713 28.7083 76.1904 28.9813 76.6682 28.9813C77.6237 28.9813 78.0332 28.367 78.1015 28.367L78.0332 28.9131H79.2618L79.8078 25.1591C79.8078 23.5892 78.4428 23.521 77.8967 23.521L76.1221 24.8861ZM78.9205 26.4559C78.9205 26.6607 78.1015 27.7527 77.2824 27.7527C76.8729 27.7527 76.7364 27.4115 76.7364 27.2067C76.7364 26.8654 76.9412 26.3877 77.965 26.3877C78.1697 26.4559 78.9205 26.4559 78.9205 26.4559Z" fill="#FCDCDC"/>
<path d="M79.6031 28.7762C79.6031 28.7762 80.0127 28.9127 81.173 28.9127C81.5143 28.9127 83.2206 28.981 83.2206 27.1381C83.2206 25.4318 81.5825 25.7731 81.5825 25.0905C81.5825 24.7493 81.8555 24.6127 82.3333 24.6127C82.5381 24.6127 83.2889 24.681 83.2889 24.681L83.4936 23.4524C83.4936 23.4524 83.0158 23.3159 82.1968 23.3159C81.173 23.3159 80.8317 23.7254 80.8317 25.0905C80.8317 26.6604 81.8555 26.5239 81.8555 27.1381C81.8555 27.5477 81.3778 27.6159 81.0365 27.6159" fill="#FCDCDC"/>
<path d="M108.065 24.135C108.065 24.135 107.519 23.4524 106.768 23.4524C105.54 23.4524 105.13 24.954 105.13 26.7286C105.13 27.8207 104.994 28.981 106.154 28.981C106.973 28.981 107.451 28.4349 107.451 28.4349L107.382 28.9127H108.748L109.771 22.3604L108.065 24.135ZM107.997 25.9096C107.997 26.6603 107.382 27.6159 106.632 27.6159C106.154 27.6159 105.881 27.2064 105.881 26.5238C105.881 25.4318 106.359 24.7492 106.973 24.7492C107.451 24.7492 107.997 25.0905 107.997 25.9096Z" fill="#FCDCDC"/>
<path d="M70.5253 28.8449L71.3444 23.9306L71.4809 28.8449H72.4365L74.2111 23.9306L73.4603 28.8449H74.8936L75.9857 22.2925H74.2793L72.3682 26.3195L72.2999 22.2925H71.5492L69.2285 28.8449H70.5253Z" fill="#FCDCDC"/>
<path d="M90.2507 28.8448H91.6841C92.0936 26.5924 92.1618 24.7496 93.1174 25.0908C93.2539 24.2035 93.4587 23.8623 93.5952 23.521C93.5952 23.521 93.5269 23.521 93.3222 23.521C92.7079 23.521 92.2301 24.34 92.2301 24.34L92.3666 23.5893" fill="#FCDCDC"/>
<path d="M98.3047 24.8861C98.3047 24.8861 98.919 24.6131 99.8063 24.6131C100.284 24.6131 100.694 24.6813 100.694 25.0908C100.694 25.3638 100.625 25.4321 100.625 25.4321C100.625 25.4321 100.216 25.4321 100.011 25.4321C98.8508 25.4321 97.554 25.9099 97.554 27.4797C97.554 28.7083 98.373 28.9813 98.8508 28.9813C99.8063 28.9813 100.216 28.367 100.284 28.367L100.216 28.9131H101.444L101.99 25.1591C101.99 23.5892 100.625 23.521 100.079 23.521L98.3047 24.8861ZM101.103 26.4559C101.103 26.6607 100.284 27.7527 99.4651 27.7527C99.0555 27.7527 98.919 27.4115 98.919 27.2067C98.919 26.8654 99.1238 26.3877 100.148 26.3877C100.421 26.4559 101.103 26.4559 101.103 26.4559Z" fill="#FCDCDC"/>
<path d="M101.717 28.8448H103.151C103.56 26.5924 103.629 24.7496 104.584 25.0908C104.721 24.2035 104.925 23.8623 105.062 23.521C105.062 23.521 104.994 23.521 104.789 23.521C104.175 23.521 103.697 24.34 103.697 24.34L103.833 23.5893" fill="#FCDCDC"/>
</g>
<defs>
<clipPath id="clip0">
<rect width="50" height="50" fill="white"/>
</clipPath>
<clipPath id="clip1">
<rect width="43" height="43" fill="white" transform="translate(68 4)"/>
</clipPath>
</defs>
</svg>
