<svg enable-background="new 0 0 32 32" height="512" viewBox="0 0 32 32" width="512" xmlns="http://www.w3.org/2000/svg"><path d="m26 32h-20c-3.314 0-6-2.686-6-6v-20c0-3.314 2.686-6 6-6h20c3.314 0 6 2.686 6 6v20c0 3.314-2.686 6-6 6z" fill="#e3f8fa"/><g fill="#8ce1eb"><path d="m12.167 15.333h-1.667c-.276 0-.5.224-.5.5v1.667c0 .276.224.5.5.5h1.667c.276 0 .5-.224.5-.5v-1.667c0-.276-.224-.5-.5-.5z"/><path d="m12.167 19.333h-1.667c-.276 0-.5.224-.5.5v1.667c0 .276.224.5.5.5h1.667c.276 0 .5-.224.5-.5v-1.667c0-.276-.224-.5-.5-.5z"/><path d="m16.833 15.333h-1.667c-.276 0-.5.224-.5.5v1.667c0 .276.224.5.5.5h1.667c.276 0 .5-.224.5-.5v-1.667c0-.276-.224-.5-.5-.5z"/></g><path d="m16.833 19.333h-1.667c-.276 0-.5.224-.5.5v1.667c0 .276.224.5.5.5h1.667c.276 0 .5-.224.5-.5v-1.667c0-.276-.224-.5-.5-.5z" fill="#26c6da"/><path d="m21.5 15.333h-1.667c-.276 0-.5.224-.5.5v1.667c0 .276.224.5.5.5h1.667c.276 0 .5-.224.5-.5v-1.667c0-.276-.224-.5-.5-.5z" fill="#8ce1eb"/><path d="m22 10h-12c-1.103 0-2 .897-2 2v2.027 7.973c0 1.103.897 2 2 2h12c1.103 0 2-.897 2-2v-7.973-2.027c0-1.103-.897-2-2-2zm.667 12c0 .368-.299.667-.667.667h-12c-.368 0-.667-.299-.667-.667v-7.307h13.333v7.307z" fill="#26c6da"/><g fill="#8ce1eb"><path d="m12 8h-.667c-.368 0-.667.298-.667.667v2.667c0 .368.298.667.667.667h.667c.368 0 .667-.298.667-.667v-2.667c0-.369-.299-.667-.667-.667z"/><path d="m20.667 8h-.667c-.368 0-.667.298-.667.667v2.667c0 .368.299.666.667.666h.667c.368 0 .667-.298.667-.667v-2.666c-.001-.369-.299-.667-.667-.667z"/></g></svg>