<svg version="1.0" xmlns="http://www.w3.org/2000/svg" width="512" height="512" viewBox="0 0 5120 5120"><g fill="#3a2c60"><path d="M3705 4793c-74-17-95-32-215-152-69-69-161-168-204-218l-79-93H2066c-733 0-1154-4-1177-10-60-17-102-51-129-106-18-37-34-54-57-63-46-17-81-48-104-93-11-22-40-58-64-81-29-28-45-54-50-79-6-31-11-37-41-42-68-13-124-85-124-161 0-91 64-156 160-163l58-4-25-37c-13-20-27-48-30-63-4-22-14-30-42-38-51-14-78-35-101-80-41-80-18-165 59-217 28-19 48-23 108-23h73l-44-42c-30-29-46-55-51-80-6-31-11-37-41-43-45-8-100-57-115-102-15-46-6-118 18-151 40-53 69-67 153-70l78-4-43-42c-30-28-45-53-50-78-6-31-12-38-30-38-28 0-82-36-109-73-31-42-30-140 3-186s91-70 171-71h65l-29-20c-35-23-76-86-76-117 0-18-6-23-27-23-100 0-167-148-110-243 37-61 70-77 160-77 74 0 100-11 57-25-27-8-68-64-76-101-5-25-14-33-55-47-72-26-104-72-104-153 0-70 17-102 75-141 27-19 47-23 107-23h73l-44-42c-30-29-46-55-51-80-6-31-11-37-41-42a165 165 0 01-58-292c32-25 48-29 116-33l78-3v-70c0-121 64-204 175-228 34-7 436-10 1275-8l1225 3 41 22c47 25 101 83 110 117 3 15 20 30 44 41 21 9 52 31 69 49 66 68 61-64 61 1773l1 1668 181 210c99 116 189 228 199 250 23 50 25 142 3 193-19 46-68 98-114 122-37 19-112 31-145 23z"/><path d="M3912 4304c-19-13-22-24-22-80v-64h-58c-36 0-66-6-80-16l-22-15V2246c0-1450 3-1885 12-1894s122-12 449-12c496 0 449-10 449 96v64h74c58 0 75 3 80 16 3 9 6 863 6 1899 0 1853 0 1884-19 1895-13 6-167 10-433 10-358 0-417-2-436-16z"/></g><g fill="#0089ef"><path d="M3687 4789c-63-15-91-35-158-110-52-59-59-71-39-65 107 32 186 14 257-59 63-65 84-132 64-210-16-62-27-77-221-304l-165-192-5-1677c-3-922-4-1678-3-1680 3-8 81 39 105 65 62 65 58-58 58 1770l1 1668 181 210c99 116 189 228 199 250 23 50 25 142 3 193a248 248 0 01-277 141z"/><path d="M3513 4534a633 633 0 01-136-141c-9-14 223-218 233-206 123 142 142 181 119 251a155 155 0 01-216 96zM876 4315c-22-8-51-22-65-33-27-20-71-88-71-109 0-10 239-13 1164-13h1164l59 68c32 37 65 75 72 85 13 16-43 17-1135 17-960-1-1155-3-1188-15zM3214 4206c-53-62-96-116-96-120 2-9 222-196 230-196s206 230 201 234l-109 92c-58 50-110 93-117 97-7 5-48-36-109-107zM3912 4304c-19-13-22-24-22-85v-69h365c350 0 365-1 375-19 7-13 10-600 10-1825V500h74c58 0 75 3 80 16 3 9 6 863 6 1899 0 1853 0 1884-19 1895-13 6-167 10-433 10-358 0-417-2-436-16zM718 4062c-39-23-58-70-58-141v-61h48c75-1 122-16 158-51 62-60 69-148 18-209-38-45-61-54-144-60l-75-5-3-72-3-73h66c80 0 124-17 159-62 60-79 35-190-54-235-32-17-62-23-108-23h-63l3-82 3-83 75-5c83-6 106-15 144-60 51-61 44-149-16-207-37-35-91-53-160-53h-48v-157l74-5c92-6 136-31 167-94 37-77 15-150-61-201-27-19-47-23-106-23h-74v-170h68c79 0 126-20 159-70 49-72 34-165-35-218-30-23-47-28-114-31l-78-3v-168h74c59 0 79-4 106-22 77-53 99-131 58-207-33-62-90-91-175-91h-63V960h48c69 0 123-18 160-53 60-58 67-146 16-207-38-45-61-54-144-60l-75-5-3-60c-3-70 18-113 70-145 32-20 53-20 1268-20 1207 0 1236 1 1267 20 18 10 40 31 50 47 17 26 18 91 21 1268v1620l-3 379-375-437a7514 7514 0 00-390-437c-21 0-40 20-40 41 0 10 171 217 380 461s380 446 380 450c0 10-223 199-231 196-5-2-317-363-694-803l-686-800 30-25 118-102 89-76 119 139c84 98 125 139 140 139 23 0 45-17 45-35 0-7-61-83-136-171l-136-159-199-81-199-81-71-82c-52-60-76-81-94-81s-26 7-31 25c-5 21 4 37 52 93l71 83c7 8 34 108 61 222 34 143 55 214 69 230l683 797 688 803 26 27H1874c-1045-1-1131-2-1156-18zm1762-1295c0-28-155-207-179-207-21 0-41 19-41 38 0 16 132 175 163 197 26 18 57 3 57-28zm289-1171c8-9 10-126 9-412l-3-399-699-3c-508-1-703 1-712 9-19 16-21 788-2 807s1391 17 1407-2z"/><path d="M1430 1195V860h1270v670H1430v-335zM3820 2245V420h740v300h-240c-218 0-240 2-248 18-10 19-5 43 12 54 6 4 116 8 244 8h233l-3 107-3 108-125 5c-123 5-125 5-128 29-6 42 20 51 145 51h113v210h-119c-128 0-146 7-139 52 3 22 7 23 128 28l125 5 3 108 3 107h-119c-125 0-142 6-142 46 0 30 16 34 146 34h115l-3 108-3 107-125 5c-121 5-125 6-128 28-7 45 11 52 140 52h119l-3 108-3 107-125 5c-123 5-125 5-128 29-6 42 20 51 145 51h113v210h-234c-229 0-235 1-250 22-11 15-12 26-5 39 9 17 29 19 247 21l237 3 3 108 3 107h-119c-125 0-142 6-142 46 0 30 16 34 146 34h115l-3 108-3 107-125 5c-121 5-125 6-128 28-7 45 11 52 139 52h119v210h-104c-129 0-159 9-154 48l3 27 125 5 125 5 3 108 3 107h-119c-129 0-147 7-140 52 3 22 7 23 128 28l125 5 3 148 3 147h-741V2245zM539 3983c-31-26-59-77-59-108 0-11 12-15 50-15h50v75c0 41-2 75-4 75-3 0-19-12-37-27zM465 3773c-29-7-52-31-59-59s16-79 39-88c9-3 92-6 185-6h169l20 26c28 35 26 67-3 101l-24 28-154 2c-84 1-162-1-173-4zM528 3513c-23-27-48-79-48-103 0-17 6-20 50-20h50v70c0 61-2 70-18 70-11 0-26-8-34-17zM438 3296c-26-19-39-62-28-90 19-50 42-56 213-56h159l30 30c25 26 29 36 24 63-12 62-29 67-215 67-120-1-171-4-183-14zM536 3030c-36-32-62-90-52-115 4-10 20-15 51-15h45v80c0 44-2 80-5 80-2 0-20-14-39-30zM439 2810c-27-16-41-62-30-94 19-48 64-58 234-54l149 3 24 28c29 34 31 66 3 101l-20 26H627c-95 0-179-5-188-10zM539 2543c-31-26-59-77-59-108 0-11 12-15 50-15h50v75c0 41-2 75-4 75-3 0-19-12-37-27zM450 2327c-53-27-58-111-10-137 10-6 93-10 183-10 184 0 201 5 213 67 5 27 1 37-24 63l-30 30H628c-103 0-161-4-178-13zM1616 2205c-16-70-26-128-23-131 5-5 247 89 246 96 0 6-176 154-187 158-5 1-21-54-36-123zM543 2062c-29-23-63-82-63-109 0-21 5-23 50-23h50v75c0 41-3 75-7 75-5 0-18-8-30-18zM434 1827a67 67 0 01-27-57c0-24 7-40 27-57 26-22 33-23 189-23 170 1 182 3 206 48 16 30 7 65-21 92-20 18-35 20-184 20-156 0-164-1-190-23zM538 1570c-29-22-58-78-58-109 0-19 6-21 50-21h50v75c0 41-4 75-9 75-4 0-20-9-33-20zM437 1348c-27-22-39-66-25-96 22-45 50-52 216-52h154l30 30c25 26 29 36 24 63-12 62-29 67-215 67-118 0-172-4-184-12zM539 1083c-31-26-59-77-59-108 0-11 12-15 50-15h50v75c0 41-2 75-4 75-3 0-19-12-37-27zM452 866c-41-19-58-59-41-98 6-16 20-33 30-38 10-6 94-10 188-10h170l20 26c28 35 26 67-3 101l-24 28-154 3c-117 2-161-1-186-12z"/></g><g fill="#f9759e"><path d="M3687 4789c-63-15-91-35-158-110-52-59-59-71-39-65 107 32 186 14 257-59 63-65 84-132 64-210-16-62-27-77-221-304l-165-192-5-1677c-3-922-4-1678-3-1680 3-8 81 39 105 65 62 65 58-58 58 1770l1 1668 181 210c99 116 189 228 199 250 23 50 25 142 3 193a248 248 0 01-277 141z"/><path d="M3513 4534a633 633 0 01-136-141c-9-14 223-218 233-206 123 142 142 181 119 251a155 155 0 01-216 96zM876 4315c-22-8-51-22-65-33-27-20-71-88-71-109 0-10 239-13 1164-13h1164l59 68c32 37 65 75 72 85 13 16-43 17-1135 17-960-1-1155-3-1188-15zM3214 4206c-53-62-96-116-96-120 2-9 222-196 230-196s206 230 201 234l-109 92c-58 50-110 93-117 97-7 5-48-36-109-107zM3912 4304c-19-13-22-24-22-85v-69h365c350 0 365-1 375-19 7-13 10-600 10-1825V500h74c58 0 75 3 80 16 3 9 6 863 6 1899 0 1853 0 1884-19 1895-13 6-167 10-433 10-358 0-417-2-436-16zM718 4062c-39-23-58-70-58-141v-61h48c75-1 122-16 158-51 62-60 69-148 18-209-38-45-61-54-144-60l-75-5-3-72-3-73h66c80 0 124-17 159-62 60-79 35-190-54-235-32-17-62-23-108-23h-63l3-82 3-83 75-5c83-6 106-15 144-60 51-61 44-149-16-207-37-35-91-53-160-53h-48v-157l74-5c92-6 136-31 167-94 37-77 15-150-61-201-27-19-47-23-106-23h-74v-170h68c79 0 126-20 159-70 49-72 34-165-35-218-30-23-47-28-114-31l-78-3v-168h74c59 0 79-4 106-22 77-53 99-131 58-207-33-62-90-91-175-91h-63V960h48c69 0 123-18 160-53 60-58 67-146 16-207-38-45-61-54-144-60l-75-5-3-60c-3-70 18-113 70-145 32-20 53-20 1268-20 1207 0 1236 1 1267 20 18 10 40 31 50 47 17 26 18 91 21 1268v1620l-3 379-375-437a7514 7514 0 00-390-437c-21 0-40 20-40 41 0 10 171 217 380 461s380 446 380 450c0 10-223 199-231 196-5-2-317-363-694-803l-686-800 30-25 118-102 89-76 119 139c84 98 125 139 140 139 23 0 45-17 45-35 0-7-61-83-136-171l-136-159-199-81-199-81-71-82c-52-60-76-81-94-81s-26 7-31 25c-5 21 4 37 52 93l71 83c7 8 34 108 61 222 34 143 55 214 69 230l683 797 688 803 26 27H1874c-1045-1-1131-2-1156-18zm1762-1295c0-28-155-207-179-207-21 0-41 19-41 38 0 16 132 175 163 197 26 18 57 3 57-28zm289-1171c8-9 10-126 9-412l-3-399-699-3c-508-1-703 1-712 9-19 16-21 788-2 807s1391 17 1407-2z"/><path d="M1430 1195V860h1270v670H1430v-335zM3820 2245V420h740v300h-240c-218 0-240 2-248 18-10 19-5 43 12 54 6 4 116 8 244 8h233l-3 107-3 108-125 5c-123 5-125 5-128 29-6 42 20 51 145 51h113v210h-119c-128 0-146 7-139 52 3 22 7 23 128 28l125 5 3 108 3 107h-119c-125 0-142 6-142 46 0 30 16 34 146 34h115l-3 108-3 107-125 5c-121 5-125 6-128 28-7 45 11 52 140 52h119l-3 108-3 107-125 5c-123 5-125 5-128 29-6 42 20 51 145 51h113v210h-234c-229 0-235 1-250 22-11 15-12 26-5 39 9 17 29 19 247 21l237 3 3 108 3 107h-119c-125 0-142 6-142 46 0 30 16 34 146 34h115l-3 108-3 107-125 5c-121 5-125 6-128 28-7 45 11 52 139 52h119v210h-104c-129 0-159 9-154 48l3 27 125 5 125 5 3 108 3 107h-119c-129 0-147 7-140 52 3 22 7 23 128 28l125 5 3 148 3 147h-741V2245zM539 3983c-31-26-59-77-59-108 0-11 12-15 50-15h50v75c0 41-2 75-4 75-3 0-19-12-37-27zM528 3513c-23-27-48-79-48-103 0-17 6-20 50-20h50v70c0 61-2 70-18 70-11 0-26-8-34-17zM536 3030c-36-32-62-90-52-115 4-10 20-15 51-15h45v80c0 44-2 80-5 80-2 0-20-14-39-30zM539 2543c-31-26-59-77-59-108 0-11 12-15 50-15h50v75c0 41-2 75-4 75-3 0-19-12-37-27zM1616 2205c-16-70-26-128-23-131 5-5 247 89 246 96 0 6-176 154-187 158-5 1-21-54-36-123zM543 2062c-29-23-63-82-63-109 0-21 5-23 50-23h50v75c0 41-3 75-7 75-5 0-18-8-30-18zM538 1570c-29-22-58-78-58-109 0-19 6-21 50-21h50v75c0 41-4 75-9 75-4 0-20-9-33-20zM539 1083c-31-26-59-77-59-108 0-11 12-15 50-15h50v75c0 41-2 75-4 75-3 0-19-12-37-27z"/></g><g fill="#6dc9f7"><path d="M3687 4789c-63-15-91-35-158-110-52-59-59-71-39-65 107 32 186 14 257-59 63-65 84-132 64-210-16-62-27-77-221-304l-165-192-5-1677c-3-922-4-1678-3-1680 3-8 81 39 105 65 62 65 58-58 58 1770l1 1668 181 210c99 116 189 228 199 250 23 50 25 142 3 193a248 248 0 01-277 141zM876 4315c-22-8-51-22-65-33-27-20-71-88-71-109 0-10 239-13 1164-13h1164l59 68c32 37 65 75 72 85 13 16-43 17-1135 17-960-1-1155-3-1188-15z"/><path d="M3214 4206c-53-62-96-116-96-120 2-9 222-196 230-196s206 230 201 234l-109 92c-58 50-110 93-117 97-7 5-48-36-109-107zM3912 4304c-19-13-22-24-22-85v-69h365c350 0 365-1 375-19 7-13 10-600 10-1825V500h74c58 0 75 3 80 16 3 9 6 863 6 1899 0 1853 0 1884-19 1895-13 6-167 10-433 10-358 0-417-2-436-16zM718 4062c-39-23-58-70-58-141v-61h48c75-1 122-16 158-51 62-60 69-148 18-209-38-45-61-54-144-60l-75-5-3-72-3-73h66c80 0 124-17 159-62 60-79 35-190-54-235-32-17-62-23-108-23h-63l3-82 3-83 75-5c83-6 106-15 144-60 51-61 44-149-16-207-37-35-91-53-160-53h-48v-157l74-5c92-6 136-31 167-94 37-77 15-150-61-201-27-19-47-23-106-23h-74v-170h68c79 0 126-20 159-70 49-72 34-165-35-218-30-23-47-28-114-31l-78-3v-168h74c59 0 79-4 106-22 77-53 99-131 58-207-33-62-90-91-175-91h-63V960h48c69 0 123-18 160-53 60-58 67-146 16-207-38-45-61-54-144-60l-75-5-3-60c-3-70 18-113 70-145 32-20 53-20 1268-20 1207 0 1236 1 1267 20 18 10 40 31 50 47 17 26 18 91 21 1268v1620l-3 379-375-438c-322-376-378-437-398-433-31 6-86-58-86-101-1-45-148-216-181-209-18 3-32-6-59-39-20-24-32-46-26-49 5-3 10-12 10-19s-61-84-136-172l-136-159-199-81-199-81-71-82c-52-60-76-81-94-81s-26 7-31 25c-5 21 4 37 52 93l71 83c7 8 34 108 61 222 34 143 55 214 69 230l683 797 688 803 26 27H1874c-1045-1-1131-2-1156-18zm2051-2466c8-9 10-126 9-412l-3-399-699-3c-508-1-703 1-712 9-19 16-21 788-2 807s1391 17 1407-2z"/><path d="M1430 1195V860h1270v670H1430v-335zM3820 2245V420h740v300h-240c-218 0-240 2-248 18-10 19-5 43 12 54 6 4 116 8 244 8h233l-3 107-3 108-125 5c-123 5-125 5-128 29-6 42 20 51 145 51h113v210h-119c-128 0-146 7-139 52 3 22 7 23 128 28l125 5 3 108 3 107h-119c-125 0-142 6-142 46 0 30 16 34 146 34h115l-3 108-3 107-125 5c-121 5-125 6-128 28-7 45 11 52 140 52h119l-3 108-3 107-125 5c-123 5-125 5-128 29-6 42 20 51 145 51h113v210h-234c-229 0-235 1-250 22-11 15-12 26-5 39 9 17 29 19 247 21l237 3 3 108 3 107h-119c-125 0-142 6-142 46 0 30 16 34 146 34h115l-3 108-3 107-125 5c-121 5-125 6-128 28-7 45 11 52 139 52h119v210h-104c-129 0-159 9-154 48l3 27 125 5 125 5 3 108 3 107h-119c-129 0-147 7-140 52 3 22 7 23 128 28l125 5 3 148 3 147h-741V2245zM539 3983c-31-26-59-77-59-108 0-11 12-15 50-15h50v75c0 41-2 75-4 75-3 0-19-12-37-27zM528 3513c-23-27-48-79-48-103 0-17 6-20 50-20h50v70c0 61-2 70-18 70-11 0-26-8-34-17zM536 3030c-36-32-62-90-52-115 4-10 20-15 51-15h45v80c0 44-2 80-5 80-2 0-20-14-39-30zM539 2543c-31-26-59-77-59-108 0-11 12-15 50-15h50v75c0 41-2 75-4 75-3 0-19-12-37-27zM1616 2205c-16-70-26-128-23-131 5-5 247 89 246 96 0 6-176 154-187 158-5 1-21-54-36-123zM543 2062c-29-23-63-82-63-109 0-21 5-23 50-23h50v75c0 41-3 75-7 75-5 0-18-8-30-18zM538 1570c-29-22-58-78-58-109 0-19 6-21 50-21h50v75c0 41-4 75-9 75-4 0-20-9-33-20zM539 1083c-31-26-59-77-59-108 0-11 12-15 50-15h50v75c0 41-2 75-4 75-3 0-19-12-37-27z"/></g><g fill="#efe4eb"><path d="M3687 4789c-63-15-91-35-158-110-52-59-59-71-39-65 107 32 186 14 257-59 63-65 84-132 64-210-16-62-27-77-221-304l-165-192-5-1677c-3-922-4-1678-3-1680 3-8 81 39 105 65 62 65 58-58 58 1770l1 1668 181 210c99 116 189 228 199 250 23 50 25 142 3 193a248 248 0 01-277 141zM876 4315c-22-8-51-22-65-33-27-20-71-88-71-109 0-10 239-13 1164-13h1164l59 68c32 37 65 75 72 85 13 16-43 17-1135 17-960-1-1155-3-1188-15z"/><path d="M3912 4304c-19-13-22-24-22-85v-69h365c350 0 365-1 375-19 7-13 10-600 10-1825V500h74c58 0 75 3 80 16 3 9 6 863 6 1899 0 1853 0 1884-19 1895-13 6-167 10-433 10-358 0-417-2-436-16z"/><path d="M3820 2245V420h740v300h-240c-218 0-240 2-248 18-10 19-5 43 12 54 6 4 116 8 244 8h233l-3 107-3 108-125 5c-123 5-125 5-128 29-6 42 20 51 145 51h113v210h-119c-128 0-146 7-139 52 3 22 7 23 128 28l125 5 3 108 3 107h-119c-125 0-142 6-142 46 0 30 16 34 146 34h115l-3 108-3 107-125 5c-121 5-125 6-128 28-7 45 11 52 140 52h119l-3 108-3 107-125 5c-123 5-125 5-128 29-6 42 20 51 145 51h113v210h-234c-229 0-235 1-250 22-11 15-12 26-5 39 9 17 29 19 247 21l237 3 3 108 3 107h-119c-125 0-142 6-142 46 0 30 16 34 146 34h115l-3 108-3 107-125 5c-121 5-125 6-128 28-7 45 11 52 139 52h119v210h-104c-129 0-159 9-154 48l3 27 125 5 125 5 3 108 3 107h-119c-129 0-147 7-140 52 3 22 7 23 128 28l125 5 3 148 3 147h-741V2245zM539 3983c-31-26-59-77-59-108 0-11 12-15 50-15h50v75c0 41-2 75-4 75-3 0-19-12-37-27zM528 3513c-23-27-48-79-48-103 0-17 6-20 50-20h50v70c0 61-2 70-18 70-11 0-26-8-34-17zM536 3030c-36-32-62-90-52-115 4-10 20-15 51-15h45v80c0 44-2 80-5 80-2 0-20-14-39-30zM539 2543c-31-26-59-77-59-108 0-11 12-15 50-15h50v75c0 41-2 75-4 75-3 0-19-12-37-27zM1616 2205c-16-70-26-128-23-131 5-5 247 89 246 96 0 6-176 154-187 158-5 1-21-54-36-123zM543 2062c-29-23-63-82-63-109 0-21 5-23 50-23h50v75c0 41-3 75-7 75-5 0-18-8-30-18zM538 1570c-29-22-58-78-58-109 0-19 6-21 50-21h50v75c0 41-4 75-9 75-4 0-20-9-33-20zM1430 1195V860h1270v670H1430v-335zM539 1083c-31-26-59-77-59-108 0-11 12-15 50-15h50v75c0 41-2 75-4 75-3 0-19-12-37-27zM660 534c0-30 37-82 72-104 32-20 53-20 1266-20 1345 0 1264-3 1311 56 12 15 21 37 21 50v23l-46-24-47-25H2003c-1320 0-1271-2-1325 47-17 15-18 15-18-3z"/></g></svg>