<svg version="1" xmlns="http://www.w3.org/2000/svg" width="512" height="512" viewBox="0 0 5120 5120"><path d="M2305 5113c-398-49-723-154-1023-329C576 4371 112 3670 14 2870c-21-171-15-550 11-710C172 1244 808 471 1676 152 1992 36 2256-6 2627 3c246 5 348 18 552 68 752 185 1404 729 1721 1437 151 337 220 667 220 1052 0 329-45 594-151 881-331 902-1137 1543-2092 1664-108 14-485 19-572 8zm630-252c812-139 1478-675 1790-1439 56-137 108-325 137-492 32-181 32-559 0-740-86-500-304-922-657-1275-445-445-1021-685-1645-685-623 0-1200 240-1645 685-352 352-571 776-657 1275-32 181-32 559 0 740 113 651 467 1202 1007 1565 279 187 596 313 920 365 174 28 180 28 415 25 160-2 245-8 335-24z"/><path d="M1503 3774c-42-21-67-74-58-122 5-30 26-56 103-132 197-194 449-325 734-382 160-31 396-31 556 0 286 57 537 187 734 382 77 75 98 102 103 132 14 77-54 147-132 135-25-5-57-28-123-91-244-232-532-348-860-348-329 0-616 116-860 349-100 94-136 109-197 77zm40-1345c-70-27-142-94-178-166-26-51-29-68-29-148 0-78 3-98 27-147 57-116 174-188 307-188 136 0 242 66 302 188 29 59 33 76 33 147s-4 88-33 147c-61 124-166 188-305 187-47 0-90-7-124-20zm171-221c51-23 74-96 47-147-13-24-61-51-91-51-37 0-81 30-96 67-37 86 54 171 140 131zm1610 221c-75-28-137-88-176-167-29-59-33-76-33-147s4-88 33-147c60-122 166-188 302-188 90 0 164 28 229 86 184 165 125 477-106 564-71 26-179 26-249-1zm182-228c66-40 63-140-5-175-38-20-64-20-101-1-92 48-54 193 50 195 14 0 39-9 56-19z"/></svg>