<svg width="20" height="20" viewBox="0 0 20 20" fill="none" xmlns="http://www.w3.org/2000/svg">
<g clip-path="url(#clip0)">
<path d="M10.8909 9.9273L7.9024 7.18876L9.77714 2.34084L9.41352 2.07565C8.28391 1.25183 6.89016 0.854844 5.48891 0.957568C4.07258 1.06143 2.73889 1.67234 1.73353 2.6777C-0.577822 4.98908 -0.577822 8.74998 1.73353 11.0613L9.73057 19.0584L8.43247 12.6072L10.8909 9.9273Z" fill="#FF415B"/>
<path d="M18.2665 2.6777C16.4948 0.90611 13.7853 0.439613 11.5242 1.51691L11.3137 1.61721L9.28435 6.86515L12.5476 9.85544L9.69923 12.9604L10.8162 18.5116L18.2666 11.0613C20.5779 8.75002 20.5779 4.98912 18.2665 2.6777Z" fill="#D10050"/>
</g>
<defs>
<clipPath id="clip0">
<rect width="20" height="20" fill="white"/>
</clipPath>
</defs>
</svg>
