<svg width="20" height="20" viewBox="0 0 20 20" fill="none" xmlns="http://www.w3.org/2000/svg">
<path d="M12.4878 4.28516H1.25C0.560313 4.28641 0.00125 4.84547 0 5.53516V16.773C0.00125 17.4627 0.560313 18.0217 1.25 18.023H12.4878C13.1775 18.0217 13.7366 17.4627 13.7378 16.773V5.53391C13.7356 4.84453 13.1772 4.28641 12.4878 4.28516Z" fill="black"/>
<path d="M12.8003 18.3345H1.5625C0.699688 18.3345 0 17.6348 0 16.772V5.53418C0 4.67137 0.699688 3.97168 1.5625 3.97168H12.8003C13.6631 3.97168 14.3628 4.67137 14.3628 5.53418V16.7729C14.3622 17.6354 13.6628 18.3345 12.8003 18.3345ZM1.5625 4.59793C1.04469 4.59793 0.625 5.01762 0.625 5.53543V16.7729C0.625 17.2907 1.04469 17.7104 1.5625 17.7104H12.8003C13.3181 17.7104 13.7378 17.2907 13.7378 16.7729V5.53418C13.7378 5.01637 13.3181 4.59668 12.8003 4.59668L1.5625 4.59793Z" fill="#E04F5F"/>
<path d="M9.53126 13.9579L5.01407 8.63035L5.96657 7.82285L9.56657 12.0688L19.0781 1.66504L20 2.50785L9.53126 13.9579Z" fill="white"/>
</svg>
