<svg width="736" height="147" viewBox="0 0 736 147" fill="none" xmlns="http://www.w3.org/2000/svg"><path d="M19.38 49.18c.172-.226.944.299 1.544 1.123l.686.675.429.45a49.303 49.303 0 0 1 1.372-1.724h.257l1.03-.075c1.114.3 1.8.6 1.457.674-.343.075-1.543.825-1.543 1.574 0 .75.171 2.848.514 2.249.343-.675 1.458-1.724 1.63-1.2l.342.375c.687.825 2.916.75 3.516-.075l.086-.15c0-.3-.171-.974-.429-1.574-.171-.6-.6-2.398-.257-2.698.343-.3 1.63-1.049 1.458-.6-.086.525.171 1.575.772 1.425.686-.15 2.658-1.2 2.658-1.874l.086-.675c0-.224.343-.674.6-.674h.257c.343.225 2.059 1.349 3.688 2.398l1.63-.3.77-.15c.516.375.258.825-.428.975-.772.15.086 1.799 1.458 1.349l.429-.75.514-.824c-.257-1.424 0-2.323.6-2.023.6.3 2.83 1.573 3.602 1.948l.343-.15c.258-.075.515-.15.686-.225l.086-.075c.172-.075.858.3 1.544.9.771.6-.858 4.122-.858 4.347h.086l.6.15c.686.15 1.715-.45 2.401-1.2l.086-.749.086-.824c.343-.75.943-1.574 1.372-1.949.429-.3-1.63-1.724-1.972-1.724-.258.075-1.115-.45-.515-.974.6-.525 2.144-2.099 2.144-2.324v-.224c0-.15-.086-.3 0-.375.514-.375 1.029-.9 1.63-1.05.77-.15 1.543 0 2.057-.674.6-.824 1.03-.45 1.715-.075l.6.3c.944-.075.944-.974-.17-2.024l-.087-1.499-.085-.9c-.772.376-1.544.226-1.63-.374l-.171-.525c-.172 0-.6-.524-.858-1.274l-.257-.674c-.086-.225.429-1.05.772-1.274l.514-.375c.6-.525 1.115-.6 1.2-.15.087.45.944 1.35 1.887.75.858-.6 2.916-3.223 3.688-3.598l.086.6c.257 1.199.514 1.424 1.715.824.943-.525 2.058-.824 3.087-.974.6-.075 1.458-.3 1.715.824.086.525 1.2.974 1.886 1.35.258.15.944-.076 1.03-.226.6-1.649 2.315-1.873 3.601-2.548l1.2-.674c-.085-1.274-.428-2.024-.771-1.574-.343.374-1.372.374-1.715-.975l-.429-1.199c-.257-.6-.857-1.274-1.372-1.424l-.514-.075c-.772.6-1.115 1.124-.772 1.274.343.15.943.6.6.675-.343.15-.858.674-.172.75l.344.224.257.15c0 .45-.172.75-.515.75l-.343.15-1.029.224c-1.2.375-2.487 1.125-2.915 1.65l-.858-.525c-.343-.225-.858-.3-1.286-.3l-1.715.075c.171-.9.514-1.874.771-2.099v-.15c0-.3-.171-.674-.428-.9-.086-.149-.6-.149-.772 0l-.515.376c-.6.524-1.886-.45-2.744-2.249l-1.8.375-1.459.3c-1.629.974-3.601 1.049-4.287.15l-.858-.45-.857-.375c-1.287-.15-1.372-1.199-.172-2.323l1.887.824.514.225c1.03-.674 2.144-1.574 2.316-1.874.257-.3 2.315.825 3.43 1.574l1.8-1.424.344-.225c.428-.374.343-.75-.258-.824-.6 0-2.572-.375-2.143-.525.428-.15 1.372-1.049 1.114-1.574-.257-.524-.514-2.323.172-2.023l.429.3.857.45c.6.749 1.03 1.498 1.03 1.648v.15l-.086.3c-.086.3.343.45.857.3l.257-.3c.172-.225 0-.675.086-1.05l.257-.899c.772.225 1.2.825.944 1.424-.343.525-1.03 2.024-1.03 2.174 0 .075.43.3.944.3s1.715-.3 1.458-.825l.085-.3.086-.524c1.372 0 2.744-.75 3.087-1.724l-1.629-.75c-.257-.075-.943.15-.943.3-.086.375.171 1.05.257 1.05l.772.074c.257.525.686 1.274 1.029 1.574.343.3-.858-.9-1.715-1.274-.858-.45-2.144-1.274-2.23-1.499-.171-.225.257-.974 1.115-1.274.858-.3 3.173-1.2 3.173-1.35 0-.074-.686-.374-1.458-.374l-.6-.225c-.686-.224-1.2-.674-1.801-1.124l-.172-.075c.086-.3.344-.6.687-.6l.257.075.943.225c1.03.075 2.744-.6 3.859-1.424l1.544.525 1.286.45c1.543-.15 2.487 0 1.972.374-.428.375-.857 1.424.258 1.35 1.114-.075 2.23-2.474 2.4-2.549.086-.075 1.115-.45 2.145-.6l.857.15c.858.15 1.63.525 2.401.75l.086.075c.257.075.514.45.514.974 0 .45.43 2.099.944 1.8.6-.3 2.058-.825 2.144-.6.085.224.771.824.943.224.171-.674-.086-2.173-.086-2.923s.6-2.098 1.03-1.723c.428.374 2.057.749 2.657-.15l.515-.075c1.887-.3 3.859-.15 5.574-.75 1.458-.524 2.23-.524 3.173.525l.6.674c.515-.6 1.201-1.274 1.458-1.649l.343-.15 1.972-.3c2.316-.299 4.202-.15 4.288.3.086.45.858 1.5 1.63 1.5.771.075 2.143-2.024 2.829-2.549l.515-.524c.857-.75 1.029.3 1.372.6.858.749 1.458 1.123 1.887-.375.257-.825.857-.6 1.457-.225.944.45 2.059 1.574 2.573-.45.086-.225 1.372-.375 2.058-.225 1.887.375 2.23.375 3.516 0 .686-.225 1.286-.674 2.23 0 .428.3 1.543-.375 2.401-.6l1.372-.374c.343 1.05.943 1.649 1.2 1.424.343-.225 1.373-.6 1.458-.075.086.6.343 1.349.601.525.171-.825 1.715-2.399 2.058-1.95.343.45 1.972 1.05 2.83.226l.771-.225c1.458-.375 3.002-.45 4.46-.675 2.143-.225 4.373.75 6.517-.374.086-.075.514.224.514.3-.171 1.648 1.63 1.124 2.402 1.723.343.3 1.8-.375 2.744-.524h.085c.172 0 0 .524-.343 1.124-.343.6-.343 2.323.772 2.473 1.115.15 4.031-.45 4.288-.45h.514c.258 0 1.458.75 2.573 1.724l.943-1.199.772-.974c-1.2-.675-2.144-1.724-2.229-2.249-.086-.524.857-1.649 2.143-.9l1.372-1.198c.172-.15 1.115.374 1.63.6l.686.224c.429-.375.943-.9 1.115-.974.171-.15 1.114-.375 1.629-.15.514.15 2.401-.525 2.916-.9.514-.374 3.258.525 4.716.3l.858-.524c.257-.15.943-.375 1.029-.3l.943 1.499c1.801 0 3.687.15 4.288.225l.428-.15c3.431-1.124 6.689-1.724 9.09-1.124l1.458.374c1.201-.45 2.916-.6 3.945-.374l.857-.15.772-.15c.772-.6 2.401-1.2 3.516-1.274l1.115.674c.858.525 2.487.6 3.344.225 1.458-.675 2.487-.525 3.859 0 .944.375 2.401-.45 3.602-.375l2.401.15c1.458-.3 3.002-.6 3.43-.6.429 0 1.63.076 1.372.3-.257.225-.343.825.086 1.125l.172-.075.686-.375c.686-.525 1.286-.825 1.458-.6l.171.15c.515.675-1.458 1.05-.343 1.574l.686.375c.257-.75.515-1.424.6-1.574h.086l.772.075c.772.075 1.801-.075 2.144-.45.343-.3 1.286-.075 1.372 1.2l1.886-1.125c.515-.3 1.63-.524 2.059-.225.686.45 1.029.525 1.457-.075.601-.75.944-.6 1.715-.075l1.029.6c.172-.974 1.03-1.35 1.887-.824.858.524 4.545 1.274 6.089.45l1.715.074c1.029.075 2.058-.225 3.087-.225 1.029 0 2.058.375 3.001.375h.944c1.029-.3 2.829-.6 4.116-.674l.686.3 1.029.374c.857-.225 2.058-.225 2.744.075.6.3 3.087-.075 3.859 0l.857-.225c.515-.15 1.287.525 1.973.675.171.075.429-.375.686-.6l.171-.225c.172-.225 1.115-.45 2.058-.524.944-.075 3.345 1.723 4.031 1.948.686.225 3.001.225 3.344 0 .343-.225 1.372-.824 1.458-.6.086.226.343.825.6.9l.086-.075c.858-.824 1.715-1.199 3.087-1.199h1.287c1.372-.6 2.744-1.05 3.001-.974v.075c0 1.199.515 1.574 1.629.75l.172-.076c.257 0 1.372.075 2.487.225 1.115.15 4.631-.6 5.231-.225.6.375 2.315 1.274 2.572 1.05.258-.225 1.372-.675 1.63-.225.257.374 2.487.75 4.373-.075 1.801-.825 7.375.15 7.632-.075.258-.225 1.115-.75 1.287-.675l.171.075c.6.3.686 1.424 2.058.6.858-.45 2.573.374 3.945.75.343.074.6.674.857.599.944-.225 1.201-2.024 2.83-.9l.686.45c1.115 0 3.859-.3 6.089-.525h2.058c1.629 0 3.259-.15 4.974.525l1.115.375c1.8-.825 2.83-1.05 2.229-.45-.514.6 1.372 1.574 1.115 1.949V4.959c.257.45.6.675.858.525.257-.075.771-1.35 1.029-2.323l.514-.675c.515-.675 1.115-1.649 2.487-.6.429.375 1.801-.224 2.658-.374l.858-.075c.943.15 2.23.225 2.744.225.515 0 2.487.15 3.688-.225l1.114.824 1.372.975c.686-1.125 1.544-1.5 1.887-.75h.343l1.801.225c-.172-1.274-.257-2.099-.172-1.874.086.225 1.201.974 2.401.9l.858.374 1.029.45c.858-.375 1.801-.6 2.058-.675l.086-.15.257-.3c.172-.374 1.201-.974 2.23-1.348l.429 1.274.085.225c.515.15 1.544.3 2.316.374.772.075 2.487.825 2.658.525.086-.3 1.029-.15 1.801.824l1.372-.524c.686-.225 1.286-.75 1.972-.9l.343-.15c.515.15 1.372.225 1.887.225.514 0 1.972.825 2.23 1.275.257.45 1.8.749 2.658-.15l1.458.224c.343.075.772-1.124 1.286-1.124.686-.075 1.372.45 2.058.6l1.887.225c1.801-.9 3.43-1.125 3.687-.45.257.675 1.544 2.323 2.401 2.173.858-.074 2.83-1.573 3.173-1.573l.172-.075 1.115-.6c.857.675 2.486 1.05 3.601.9l1.029-.15c.515-.075 1.029 0 1.544.074l1.801.375c.857-.674 1.629-.75 1.715-.3l.086.375.085.3c.086.45 1.372.3 2.744-.375l1.115-.674c.343-.225-1.458-.75-.085-1.125.943-.224.857.975 1.029 1.05 1.114.3 2.058 2.173 3.601.6.172-.15 1.287.749 1.973.674l2.315-.075c2.573-.15 5.488-.3 6.432-.3l.686.375c1.2.75 1.543.375 1.715-.75v-.075c.686 0 2.229.225 3.516.525l1.114.075c1.458.075 3.088.15 3.945.45l.429.15c.514.15.772-.075.6-.45l-.086-.375c0-.075.429-.375.601-.3.428.15.943.375 1.286.75.686.674 1.201 1.274 2.23.3.257-.225 1.029-.075 1.457-.225.772-.225 1.458-.825 2.059.225l.343.6c.686.524 1.543.824 2.058.524l.257-.225c1.458-1.124 3.001-1.424 4.888-.9 1.115.375 2.315 1.275 3.773.225.6-.374 1.972-.3 2.658.075.686.3 1.287.9 2.059.675l.857-.225c.772-.375 1.286-.974 1.201-1.349-.086-.375.171-1.274.857-1.274l.257.3.601.524c.428.75 1.458 1.5 2.229 1.65.772.15 3.259-.6 4.031-.825.686-.225 2.744 1.05 3.087 1.499.343.375 2.058-.15 2.573.225l.771-.75.515-.525c1.029.6 2.315 1.05 2.916.975.6 0 1.715-.825 2.058-.3.343.525 2.401.3 3.258.075.858-.225 3.602.974 4.46 1.05.857.074 2.744-.825 3.172-1.05v.075c.858.974 1.801-.075 2.573.075l.943.225c.944.674 1.715.374 1.801-.6l1.458.45c.858.3 1.887.3 2.744.524 1.801.45 3.516.825 4.974-.749l.171-.225c.429 0 1.973-.075 3.431-.225l1.286.9 1.029.75c.429-1.2.943-1.875 1.201-1.575.171.3 1.2 1.5 1.715 1.949l.6-.75 2.144-.674c.857.45 1.715.9 2.487 1.424 1.114.674 2.058.974 3.258-.15l.686-.675c1.287.15 2.83.45 3.259.675.514.15 1.544-1.05 1.887-1.05l.085.15.343.75c.172.525 1.029.675 1.801.225l.772-.15c.6-.075 1.286.45 1.887.3.771-.225 1.372-1.274 2.315-.15.429.525 1.201-.974 1.715.15.086.15 1.201 0 1.286-.15.343-1.799.944-.9 2.058-.45l1.201.525c1.629-.075 3.773.225 4.802.674l1.029-.824c.086-.075.601.225.601.375 0 .3-.086.75-.343.974l-.258.225c-.514.075-.772.3-.514.6.171.3 2.144.45 3.601-.525 1.458-1.05 4.631-4.272 4.717-3.823.086.45 1.458 1.5 3.001 1.5h1.287c1.372 0 2.744-.825 4.116.374l.171.15c.343-.075 2.401-.225 4.545-.375l1.887-.3c.857-.15 1.629-.599 2.487-.599.686 0 1.372.75 2.058.675l.857-.075c1.03-.525 2.573-.9 3.602-.825.943.075 3.516 1.2 4.374.3l1.457.225.858.15c.943-.3 2.315-.75 2.916-.9l.257.225c1.372 1.124 3.001.45 4.459.9l1.286.45c1.372-.3 3.516-.226 4.717.15h1.286c.515 0 1.115.449 1.63-.076l4.201-.75c.172.076.343.076.601.15l2.315-.224.686.15c.858-.075 1.972 0 2.487.224.515.225 2.573-.524 3.087-.749.515-.225 2.573.525 3.43.824l.858-.524c.6-.375 1.629-.15 2.058-.525l.429-.375c.257-.824.429-1.049.429-.524l-.172.15c.172.374.515.75.858.824.514.15 1.029-1.124 1.8-.075l.258.3c.857-.075 1.715-.45 1.8-.825.086-.45.772-.749 1.287-.15.6.675 2.401 2.024 2.83 1.65.429-.375 1.543 1.124 1.715 1.798l.772-.3c.343-.15.343-.974.6-1.499V6.16c.086-.15 1.372-.525 3.001-.825l1.458-.225 1.544-.225c1.715-.3 3.859-.6 4.802-.75.943-.149 3.516 1.05 3.945.9l.428-.075.686-.15c1.029-.075 1.458.225.944.675l-.086.3-.086.3c.086.374.686.75 1.287.75l.257-.226c1.2-.974 1.115-.974 1.629.075.257.525.772 1.274.6 1.5-.514.524-.686.824 0 1.348l.772.525c.943.674.858 1.499-.171 1.799-1.029.374-3.516 3.222-3.002 5.396h3.345c.171.6 0 1.874-.429 2.848-.429.974-3.001 2.698-3.259 2.773-.257.075-.6.6-.514.974.085.45-.601 1.874-1.887 2.099l-.943-.45-.257-.15c-.601.375-1.287 1.05-1.458 1.5-.172.449.514 2.098 2.144 2.548l.686-1.95c0-.074.943.076.943.15.086 1.35 1.029 1.35 2.144 1.275l1.458-.075c.686 1.05 1.114 2.024 1.029 2.174l-.086.075c-.6.524-1.201 1.199.086 1.498l.343.075c.6-.674 1.286-1.049 1.458-.824l-.086.225c-.172.674-.515 1.274-.858 1.873l-.429.675c.343.525 1.287 1.574 2.144 2.248l-1.715.15c-.943.075-1.972.15-1.801-1.199v-.075c-.171-.15-.514.15-.771.525-.258.45-.258 2.248.686 2.923l1.543-.675c.944-.45 2.83-1.199 3.773.675l.086.225c1.115.3 1.715.6 1.286.824-.428.15-1.886 1.799-2.829 3.073l-2.83-.525c-.429.075-.343.225.257.375.514.075.686 1.5.943 1.424.258 0 1.029.45 1.029.975 0 .6.343 2.173.944 2.398.514.15 2.143.075 2.315-.675l.429-.6c.257-.374 1.372-.749 1.543-.599l1.458 1.124c1.544-.6 3.001-1.049 3.259-1.049.257 0 1.543 1.424 1.715 3.223l-1.286 1.424c-.086.075.343.45.428.75.258.599.258 1.199-.771 1.199l-1.373-.075c-.6.974-1.372 2.173-1.715 2.773l.601.674c.171.225.257 1.35-.944.525-.514-.3-1.629-.375-2.058-.075-1.115.9-1.543.075-2.229-.45l-.429-.3c-.686-.15-1.201 0-1.286.3-.086.3 1.114 1.5 2.915 1.5l1.544.15h.343c.343.449.343.899.086 1.123-.258.15-1.544.3-2.659.3l-.086.825-.171 1.724c-1.201-.375-2.144-.9-1.972-1.275.171-.3-.172-1.274-1.287-1.049l-.514.45c-.343.3-.343 1.124-.258 1.724l.258.899c1.029.075 2.915.3 4.202.525l-.601.974-.857 1.349c.772 1.05 1.458 2.024 1.629 2.248.086.225.343.15.257-.749 0-.9 1.63-3.822 1.973-4.722l1.2.225c.258.075.429.3.686.3 3.173-.075 3.774.075 5.746.9.429.15.514.974 1.458.449l1.715-.825c.429 1.424-1.458 2.174-4.116 1.65h-1.201c-.429 0-1.029-.076-1.286-.375-1.201-.975-1.715.15-2.23.674-.429.45-.343 1.35.6 1.2l2.316-.225c-.343 1.349.6 1.723 1.886.749l1.287-.15 1.372-.15c1.629.525 3.001 1.5 3.001 2.249 0 .75.944 3.447 2.916 4.497l2.144-.975c.171-.075.6 0 .857.075l1.287.3c1.372.225 3.515.525 4.802.674l1.115.225.171.075c.257-.224 1.201-.374 2.144-.374l.514.6.601.749c.6.824 1.029 1.798 1.115 2.098 0 .3-.258 1.35-.343 1.574-.172.225.686.9 1.886.525 1.286-.3 4.717-.825 4.545-1.125-.171-.3-.686-1.274-1.029-1.498-.343-.3-1.2.824-1.458 1.349l-.772-.15-.6-.075c-.686-.15-1.458-1.05-1.801-2.024l.515-.824c.171-.3.6-.6 1.029-.675l.772-.3c1.029-.224 1.972-.15 2.058.3.086.45.857 1.5 1.543 1.2.601-.3 2.745-.9 3.345-.75.6.15 2.229.6 1.886 1.574-.257.974-1.629 3.522-2.058 3.672-.428.15-1.458.675-1.372.825.086.15.086.75-.343.974-.429.225-1.458 1.124-1.115 1.424.258.3.686 1.424.343 1.949-.343.524-2.143-.3-2.315-.225-.171.075-.6.75-.086 1.05.515.299 1.544.749 1.63.674l.686.45.771.599c1.715-.3 3.259-.974 3.516-1.574l.772.75c.429.374 1.029.75 1.63.75h.514c.686-.45 1.115-.45 1.029.074-.086.525-.686 2.249-1.029 2.848-.343.6-2.23-.225-2.315-.525-.172-.3-1.115-.75-1.887-.374l-.857.225c-.858.15-2.23.524-.858 1.798.086.075-.343.75-.686.975-.429.374-1.115.6-1.544.899l-.857.6c.6 1.124 1.801 2.698 2.658 3.522.858.825.172 4.797-.343 6.221l-.429 1.274c-.257.75-.085 1.424 1.115 1.349h.343c.429.375.686.75.515.974-.172.15-1.63.75-2.744 1.125l-1.029.374-1.115.45c-.257-.749-.343-1.574-.257-1.949l-.601-.449c-1.372-1.05-2.144.15-2.744.524l-.686.3c-.429 1.124-.857 2.399-1.029 2.848-.171.45-1.972.45-3.516.75l.343-1.949v-.075c-.257-.075-1.115-.225-1.801-.3-.686-.075-2.744.15-3.001.525-.257.375-1.372 1.424-1.629 1.049-.172-.374-1.287-.674-2.23-.225-.943.45-3.602.3-3.773 0-.172-.299-1.287-.824-1.715-.149l-.515.299-.257.15c-.6-.15-.943-.599-.772-1.049l.172-.375.085-.15c.086-.3-.428-.524-1.2-.524l-.601.075h-.085c.086 0 .171.299.171.674 0 .375-.772 1.199-1.801 1.049l-1.029.225c-.857.15-1.114-.749-.771-1.799l.085-.299c-.085-.6-.772-.6-1.458-.075l-.171.449-.515 1.275c1.287 1.049 2.659 2.173 3.088 2.398.428.225 2.229 0 2.744-.225.514-.225 3.001.375 2.744.825-.257.449-.515 1.424.171.899.686-.45 2.573-1.349 2.659-.899.086.449.772 1.723.943 2.023.172.3.429 1.349-.514.825h-.429c-.601 0-1.458.749-1.63.599-1.372-1.199-3.258-.375-4.716-1.124-.086-.075-.172-.225-.257-.225-.944.225-2.058.225-2.744.675-1.458 1.049-1.287-.6-1.973-.75l-.943-.3c-1.029-.449-1.972-.524-2.058-.15-.086.45-.772 1.125-1.458.825l-.515.075-1.543.075c-1.629-.15-3.773-.075-4.631.15-.943.225-4.116.449-4.716-.225-.601-.675-2.487-2.174-2.744-1.724-.172.45-1.544 2.174-2.23 2.398-.772.225-3.259-.299-3.688-.075-.428.225-2.058.225-2.829-.449l-.772-.6c-.086-.075-.858.3-1.029.6l-.172.225c.257.524.086.899-.429.899-.514 0-2.401-.225-1.972-.375.429-.15 1.029-.749 0-.824l-.6-.15-.429-.15c-.343-.3-1.201-.899-1.801-1.349-.6-.45-2.744-.075-2.401.824.343.9-.514 3.298-1.029 3.148-.6-.15-2.144-1.049-2.315-1.724-.172-.674 1.715.375 1.886.375.172 0 .686-.375.343-.899-.343-.525-1.715-1.125-2.487-.15l-.857.225-.515.15c-.943-.75-2.915-.525-4.373.599l-2.23-1.499-1.029-.674c-1.972.224-3.773.899-4.03 1.424-.257.524-.172 2.023.171 2.248.258.225.343 1.424-1.029 2.024l-.772-.3-.943-.375c-.772-1.199-.6-2.173.343-2.098.943.075.086-2.474-.429-2.624-.514-.149-2.315.525-2.572.6-.257.075-1.63.075-2.83.075-1.286 0-4.459.225-4.459.6 0 .374.257 1.349.6 1.499l.171-.075.944-.375c1.029-.075 2.058-.15 2.315-.225.257-.075 1.115-.375 1.544-.3.428.075 1.114.9.771 1.349-.343.45-2.315 1.799-3.258 1.724h-1.887c-.257-.599-.943-1.274-1.458-1.499l-.343.3c-.686.225-1.715.6-2.229.45-.257-.075-.686.075-.772-.075l-.257-.225c-.086-.375-.086-.9.085-1.199h.172l.943-.075c.601-.675.086-1.949-1.115-2.923l-.943.374c-.943.45-1.372.15-1.972-.374-1.029-1.05-1.887-1.424-1.973-.825-.085.6-1.457 1.949-2.915 1.874l-1.287-.15-.6-.075c-.686.15-4.373.525-8.232.75l-3.516-.675-.772-.15c-.857.375-2.144.6-2.83.6l-.6.075c-.686.075-1.372-.375-2.058-.6-.172 0-.429.15-.515.3-.085.225-.085.6 0 .674l.858.6c1.029.6 2.658.675 3.516.15l1.115.075h.428c.515-.075.858.075.858.3 0 .225-.343 1.199-.515 1.649l-.085.449-.172 1.199c.943-.149 1.629-.075 1.372.225-.171.225-1.115.375-1.629-.3-.515-.674-3.002.3-3.516.15-.6-.15-2.401-.299-2.487.3 0 .6-.429 2.024-.858 1.724v-.075c.086-.899.086-1.724-.857-2.248l-.343-.15c-.515.075-.943.674-.943 1.424l-1.029-.15c-1.201-.15-2.23.225-3.345.524-.257.075-1.029-.899-1.372-1.424l-.772-1.049c-.429.6-.943 1.274-1.2 1.574-.172.225-.944.75-1.115.45-.172-.3-.686-.975-.943-.9-.258.075-1.029.675-1.287.9-.343.3-2.572.749-2.229.375.343-.375.772-1.125.257-.9-.515.225-2.487-.15-3.087-1.199l-1.458 1.124c-.257.225-.943-.075-1.458-.225-1.286-.299-1.2-.299-1.372.9 0 .374-.343.974-.429.974h-1.114c-.944.675-1.887 1.124-2.144 1.049-.258-.075-1.544-.749-2.401-1.274-.858-.524-3.859-.749-4.631.675l-1.973-.075-1.372-.075c-1.629.599-2.915.824-2.829.375 0-.45-1.03-1.724-2.316-1.949l-.514 1.349-.172.45c.858.449.943.899.086.974l-.515.15-1.2.3c-.858-.75-2.058-1.274-2.659-1.274-.6.075-2.572.599-2.829 1.199-.258.599-.515 2.323 0 2.398.514.075 1.715.6 1.629.974-.086.375-.943 1.275-1.715 1.125l-.686-.15-1.544-.45c-.086-1.349-.686-1.874-1.286-1.199-.6.674-2.916 2.323-3.945 2.173-1.029-.149-1.715-2.323-2.229-1.873-.515.449-2.144.899-2.23.374-.086-.449 0-1.948.171-2.098l.343.075.344.075c.343.3.943.15 1.457-.375.515-.525-.428-2.173-1.115-1.874l-.6-.075c-1.372-.224-.772 1.125-1.372 1.349-.686.3-1.286.225-1.286-.674v-.375c0-.45-1.715 0-3.773 1.049l-2.058.6-1.458.45c-1.544.075-1.973 0-1.029-.15.943-.15.257-2.324-1.973-2.548h-2.658c.086 1.199-.6 1.873-1.544 1.424l-.514.224c-1.201.6-1.115-.599-1.715-.824-.515-.15-1.115-.525-1.372-.375-1.115.75-1.973 0-2.916-.15h-1.629c-.172.6-.686 1.05-1.029.9-.343-.15-1.544.374-1.63 1.199 0 .824 1.973 2.248 1.801 2.698-.171.45-.686 1.649-.772 1.649-.085 0-.428-.525-.428-1.124l-.172-.525c-.086-.225-.429-.525-.772-.599h-.257c-.257.299-.6.899-.686 1.424-.086.524-1.372 1.049-1.544.599-.171-.375-.428-1.424-.171-1.349.343 0 .772-.749 1.115-1.574.257-.824.686-3.298.343-3.522h-.258c-.857 0-.686.374-.257.824.086.075-.171.45-.343.6-.343.299-.943.449-.943.749l-.172.974c0 1.05-.686 2.174-1.629 2.399l-.857.15c-.172 0-.686-.375-.686-.6 0-.3.257-.675.514-.824.343-.15.858.149 1.115 0l.343-.15c.257-.375-.172-1.499-.858-2.399-.686-.899-4.802-.374-6.946.375l-1.801-.375h-.085c1.114-.599 1.543-1.424 1.029-1.798-.515-.375-3.173-2.324-3.602-2.474l-.257.15-.258.15c-.085.45.601 1.649 1.373 2.773l1.543.375 1.887.45c.171-.375-1.287-.375-3.173.075-1.887.449-5.831 1.424-5.66 1.573.172.15-.429 1.125-1.715 1.574l-.172-1.873c-.085-.525-.428-1.05-.771-1.499l-.172-.225c-.429-.075-.857.15-.857.375v.224l.171 1.275c-1.115.374-2.058-.975-1.972-2.923l1.886-1.275.858-.599c.772.3 1.629.375 1.886.225.258-.15 0-.9-1.286-1.199l-1.115-.225c-.6-.15-1.372-.45-1.8-.3-.344.15-.429.974-.515 1.499l-.257.899a1.627 1.627 0 0 1-1.115-1.873c.171-.825-.429-3.223.171-3.598.601-.375 2.573.675 3.002.749l.343.075c.772.15 1.2-.149 1.2-.974 0-.45 1.287-.599.343-1.274l-.428-.225c-.429-.225-2.316-.225-4.031 0l-1.629.15-.943.15c.171.749-.429 2.473-1.373 3.897v.825c0 .299.172.824.344.899l.857.375c1.029.3 2.058.974 2.23 1.574l.085.524.086.375c-.086.45-.343 1.199-.6 1.649-.257.45-1.887.899-2.487.225-.6-.675-2.058-2.024-1.972-1.574.085.525-1.458 1.574-2.23 1.274-.772-.3-2.658-1.499-2.916-1.199-.257.3-1.286.899-1.886.749l-.257.15-.686.375c-.687-.075-1.458-.375-1.63-.675-.171-.299-1.115-.749-1.801-.449-.686.3-2.487 1.049-3.001 1.199-.515.15-2.315-1.199-3.259-1.874l-1.2.975-.172.149c-.772-.374-1.886-.224-2.572.375-.686.6-1.287 2.848-1.372 2.623.085-.075-.687-.524-1.373-.075-.686.45-2.401 1.574-2.486 1.35l-.172-.225-.6-.825c.429-.824.429-1.349 0-1.049-.429.3-1.887-1.274-2.744-1.724-.858-.524-3.602-1.199-3.516-.899.085.3-.172 1.349-.772 1.274l-.429.225c-.429.225-.6.974-1.029 1.274-.6.3-1.286.225-1.286-.675v-.374c0-.45-.686-.6-1.544-.3-.857.3-3.087-.675-3.173-.3-.085.375-.686 1.274-1.115 1.049-.428-.15-1.286.9-1.372 1.274-.085.375-.686.975-1.286.825-.514-.075-2.229-.225-1.972 0 .257.225.343.899 0 1.124h-.257l-1.544-.15c-.772-1.424-1.458-2.698-1.458-2.923 0-.15-.514-.599-.857-.225-.343.375-.858 1.799-.515 2.474.343.749.515 2.548-.429 2.473-.857-.15-3.344-1.274-3.601-2.323-.258-.975-2.059-3.148-2.144-2.998-.086.075-.772.374-1.201.374h-1.715c.429-.599.686-1.274.429-1.499-.172-.225-.943-.599-1.029-.15-.086.45-.686 1.275-1.115.975-.429-.3-1.715-.675-1.887-.075-.171.599.858 2.098 1.115 2.398.257.3-.686.975-1.2.9l-.343-.225-2.83-1.874c-1.801 2.174-3.688 3.747-4.202 3.523-.515-.225.343-1.949.257-2.399-.086-.374.429-1.574 1.372-1.649.858-.075.6-1.948-.6-1.424-1.201.525-4.116-.974-4.459.075-.343 1.125-2.916 3.523-2.916 3.898l-.172.299-.171.375c-.343.3-.686.45-.858.3-.171-.15-1.029-.974-1.715-1.424l-.514-.525-.343-.374c-.343-.525-1.115-.525-1.63 0-.514.524-2.229 1.798-2.572 1.499-.343-.3-.686-1.05-.257-1.125l.257-.15.257-.149c.172-.3.086-.9-.257-1.275h-1.63c-1.029 1.349-1.543 2.624-1.114 2.699.428.149 1.2.824.6 1.424-.515.524.686 2.398.343 2.773-.343.449-1.544 1.574-1.972 1.798l-.258-.149-.257-.15c-.086-.45.086-1.499.257-2.474l-.943-.225-.857-.224c0-.525.428-1.05.943-1.2l.514-.075.258-.074c.428-.075.085-.525-.772-.9v-.899c.514-.825-.086-1.799-1.372-2.099l-.686.375c-.858.525-1.715.824-2.487.375l-.686-.375c-.429-.824-1.63-1.274-2.573-1.049l1.201 1.124.171.15c-.429.674-1.629 1.574-2.572 2.023l-.686-.749c-.944-1.124-1.801-1.199-3.259-.525-.772.375-1.887.15-2.83-.674l-.686-.6c-1.544-.3-2.916.15-3.173.975-.257.824 1.458 2.323.943 2.323-.514 0-1.886-.6-1.629-1.424.257-.825-.429-2.998-1.115-2.548-.686.449-2.401 1.199-2.572.674l-.258-.3c-.171-.15-.686-.075-1.029 0-.171.075-.343.525-.257.6l.686.749c.858.825 1.801 1.724 2.144 1.949.343.3-1.629 1.649-3.344 2.623l-1.63.15c-1.458.15-3.087-.524-4.288-1.574l-1.114-.974c-1.201.824-2.401 1.874-2.659 2.398l-.343-.299-.6-.45c-.772 0-1.544-.15-1.715-.375l.086-.15c.085-.3.257-.749.514-.824 1.887-.3 3.773-.525 5.574-.75h.086c.257-.3-.086-.899-.772-1.349-.686-.45-2.744-1.499-2.83-1.049-.085.45-.686 1.274-1.114.749-.344-.524-1.201-1.873-.944-1.948.257-.075.858-1.05.858-1.949l-1.201-.375-1.029-.299c-1.029.224-2.058.674-2.315 1.049l.085.225.429.824c.601.825.172 1.424-.771 1.199l-.858-.225c-.429-.075-.943-.299-1.115-.599-.343-.6-.429-1.274-.686-1.874-.086-.225-.343-.3-.6-.45-.086-.075-.257-.075-.429 0l-.772.375c-.857.375-1.286 1.274-1.029 1.874.257.674.086 2.923 0 3.897-.086.975-.086 2.848-2.229 2.623l-1.801-.599-.601-.075c-.343.525-1.2 1.199-1.972 1.499l-.6-.15c-.515-.15-.772-.899-1.458-.15l-.171.15c-.601-.225-.944-.824-.772-1.349h.257c.943-.075 1.286-.6.858-1.124l-.258-.375c-.943-.15-1.801.15-1.886.599-.086.45-.515 1.874-.772 2.174h-.257l-.601.075c.086-.45.172-1.124.086-1.499l-.171-.3c-.515-.674-.858-.075-1.115.15l-.772.825c-1.286-.225-1.629-.75-.772-1.125l.601-.374c.257-.15.428-.6.342-.9-.085-.225-.514-.45-.857-.524-.515 0-.943.149-1.458.224-.686.075-1.801.45-2.144.15-1.115-1.124-1.801-.374-2.572.3-.429.375-2.058-.15-2.316-.824v-.075c.343-.225-.343-.75-1.458-1.199-1.114-.45-3.858.749-3.087.974l.172.3.257.449c-.086.6-.686 1.05-1.458.9-.686-.15-3.516-.075-5.316.899l-1.716.075-1.372.075c-.943-2.174-1.972-3.298-2.229-2.473-.343.824-1.372 2.548-1.544 1.873l-.429-.299c-.171-.15-.943.149-1.286.374l-.6.45c-.686.6-1.63.824-2.144.525-.515-.375-1.629-1.349-1.458-1.574.172-.15 1.201-.6 1.372-.3.257.3 1.201.899 1.458.15l-.171-.15-.858-.675c-1.029-.674-1.972-.974-2.23-.674-.257.3-.943 1.424-1.2 1.874-.257.374-.429 1.124-.6 1.424-.258.299-.515 1.049-1.115.599-.686-.449.257-2.098.257-2.323-.086-.225-.429-.675-.686-.6-.257.075-.858.825-1.286 1.349l-.686-.225c-.258-.075-.686-.524-.772-.449-.858.599-1.372 1.424-2.744.599l-.429-.299c-1.286.374-3.173.824-4.288.974h-1.029l-1.886-.15c-.687-1.274-1.201-1.424-1.115-.375.085 1.05-.858 3.673-1.887 3.598-1.029-.075-2.658-2.848-2.658-3.748l-1.287.45-.428.15c-.343.749-.772 1.049-1.029.674-.258-.374-1.372-1.274-1.715-.974-.429.3-.258 1.649-.086 1.874.257.15.257 1.274-.601 1.949l-1.457-.375-1.287-.3c-1.2-.675-2.315-1.274-2.401-1.424-.086-.15-.257-.974-.343-1.499l-.257-.3c-.429-.375-1.201-.899-1.544-.749-.686.225-.6.899-.085 1.424.514.524.6 1.124-.258 1.349-.257.075-.771-.375-1.029-.675l-.428-.524c-.429-.675-1.287-.9-1.887-.525-.6.375-2.058 2.248-2.315 2.323-.258 0-1.458-.15-1.544-.449l.086-.15c.171-.45.6-.975.514-1.199-.429-.675-1.029-.525-1.629 0-.515.524-1.372.974-1.544 1.574-.343 1.648-.943.075-1.372.224l-1.372.45c-.6 1.199-1.2 1.874-1.458 1.499-.257-.45-.343-2.024.429-2.473l.6-.375c.172-.15.601-.225.601-.3-.086-.449-.258-.824-.343-1.274-.086-.6-.258-1.124-.172-1.724 0-.374.6-.824.429-.974l-.6-.974c-1.287.224-2.144.599-1.973.824.172.225.172 2.698-.257 4.722l-2.401.15-2.23.15c-2.058 1.274-4.03 1.798-4.373 1.199-.343-.6-1.629-1.799-2.144-1.049l-.257.674c-.429 1.124.857.899 1.372 1.274.257.225.686.525.772.825.085.299.085.749-.086.974-.172.225-.858.3-1.029.15l-.858-.75c-.686.6-1.458.975-1.886.975l-.343-.15c-.515-.225-1.458 0-1.201-.975.086-.224.429-.524.686-.599l.515-.075c.857.075.857-1.049-.086-2.473l-.772-1.125c-.086-.075-.514 0-.686.075-.086 0-.086.3-.086.525 0 .075.258.15.258.3v.449c0 .45-.429.825-.858.9l-.257-.15-.686-.45c-.772-.674-1.544-.974-1.63-.599-.171.299-1.543.599-2.829.075l-1.201-.375c-.257-.075-.686.45-1.029.674l-.172.15c-.257.225-1.2.45-2.143.525l-.686-.375c-1.115-.674-1.887.675-3.088.3-.943-.3-2.144-.3-3.087 0-.686.225-.857.225-1.458-.075-.686-.3-2.143-.375-2.572 0-1.029.974-1.201-.45-1.887-.3-.943.15-.943.675-.686 1.274.172.3 1.029.675 0 .9-.257.075-.857-.375-.943-.675l-.429-.974c-.429-1.424-.857-2.174-.943-1.574-.172.6-.772 1.574-1.029 1.274-.343-.3-1.887-1.049-2.659-.824-.686.15-2.658.674-3.859-1.05l3.345-.674.6-.15c.772 0 1.029-.525.686-1.124-.343-.6-2.487-.525-2.573-.9-.085-.374-1.029-1.124-1.972-.674-.943.524-3.602 1.499-3.773 1.124-.257-.375-1.286-1.424-1.544-1.124-.343.3-.943 1.799-1.114 2.698l1.372-.225 1.457-.225c.086.9.772 1.199 1.458.75.772-.525 2.744-1.724 2.83-1.724.086 0-.772 1.124-2.401 2.173l.086 1.874c0 .3-.943.675-1.544.9l-.6.224c-.772.15-1.629.075-1.887-.15-.257-.224-1.543-.599-2.315-.374-.772.3-2.916 1.049-2.83 1.274.086.225-.086.899-.6.974l-.172-.15c-.6-.674-1.114-1.499-1.715-2.098l-.6-.6c-.858-.45-2.23-.15-3.001.75l-1.458-.3-1.458-.3c.171-1.049.171-1.424 0-.824-.172.599-1.972 1.948-2.401 2.323-.429.375-1.544 1.124-1.201.075v-1.199c-.429-.45-1.543-1.049-2.487-1.199-.943-.15-2.401 1.873-2.83 1.648l-.343.075c-.428.075-.857.45-1.286.6l-1.029.225c.172.674-.943.974-2.401.674l-1.286-.15-1.63-.149c-1.029-.825-2.229-1.125-2.744-.6-.514.525-1.543 1.049-1.629 0l-1.544.45c-.686.225-1.972-.675-2.058.899 0 .225-1.115.525-1.629.45-.686-.075-1.372-.6-2.058-.75l-.772-.15c-1.115 0-1.715.3-1.201.675.515.375 1.115.974.258.45-.858-.525-3.345.749-3.774.524-.428-.225-1.2-1.349-1.286-1.799l-.772.375c-1.286.6-2.744.6-4.03-.15l-.172-.075c-.257 0-.771.675-1.2 1.499l-1.029-.374c-.686-.225-1.115-.975-1.801-1.275-.343-.149-.943-.074-1.286.15-.343.225-.429.975-.686.975l-1.287.225c-1.458.149-3.087.374-3.687.524-.515.15-2.23-.674-2.316-.974-.085-.3-.428-1.424-.686-1.274-.257.15-.857 1.049-1.2 1.649-.257.524-2.144 1.499-1.715 1.648l.257.15.257.075c.258.15-.085.45-.771.75l-.515.375c-.343.299-.686 1.049-.6 1.124l1.029.749c-.172 1.05-.258 2.249-.258 2.623.086.375-.257 1.275-.943 1.125-.686-.225-1.972-.975-1.286-1.274.6-.3-.086-2.024-.6-2.024-.515 0-1.887.225-1.544.525v.224c0 .375.086 1.05-.086 1.2-.514.299-1.2 0-1.286.899-.086.824-.772.75-1.372.375a49.077 49.077 0 0 1-3.259-2.399l-.6-.449c-.515.3-.943.974-.858 1.574h1.03c.428.524 0 .749-1.03.524-.943-.225-3.344-1.124-2.915-1.349.428-.225 1.029-1.274.428-1.724l-.257-.374c-.257-.375-.514-.975-.343-1.2.515-.674 1.2-.299 1.544.225l.943 1.349c1.715.6 3.602.825 4.202.45v-.225l-.171-1.199c-.43-1.274-.858-2.323-1.03-2.398-.171-.075-.428-.525 0-.525.343 0 1.63.3 1.63.824 0 .525.429 2.024 1.029 2.099l.257-.15c.686-.375 1.201-.899 1.887-1.274l.086-.075c.343.15.514.45.428.6l-.171-.075-.429 1.349c1.286.075 2.315-.6 2.23-1.499l.257-.75.257-.599c1.029-.825.858-1.05-.343-.6l-.6-.15-.772-.15c-.772-.674-1.544-.974-1.629-.599-.086.375-.343 1.274-.429 1.349-.086 0-.257-.15-.343-.45-.086-.3-1.115-1.574-2.058-1.799-1.03-.224-3.43 1.125-3.688.45l-.428-.3c-.172-.15-.944.15-1.287.375l-1.372.974c-1.8.75-3.258 1.724-3.344 2.249 0 .45-.858 2.023-1.801 2.023l-.514-.374c-.515-.375-.43-1.05.6-1.199l.343-.075c.257-.45.686-1.35.857-2.024h.172c1.115 0 1.63-.45.943-1.274-.257-.3-1.544-.225-2.058.075l-.943.674c-1.2.075-1.63-.449-1.03-1.274l.258-.749.086-.3c-.686-.6-1.372.3-1.63 2.024l-1.886.674-.429.15c-.257.674-.772.6-1.03-.15h-.342c-1.2-.075-1.887-1.349-3.173-.899-.343.15-.772 1.349-1.2 0-.086-.45-.6-1.125-.344-1.349.343-.375 1.03-.525 1.544-.825l2.058 1.049c.6.15 1.286.6 1.63.45l.6-.225c.514-.599.943-1.574.943-2.098 0-.525-.343-1.649-.943-.825l-.43.45c-.17.15-.77.3-.77.225-.687-1.499-1.887.524-2.83-.375-.944-.899-2.059.45-3.174.45h-1.2c-1.372.075-1.63 1.049-.686 2.173l1.372.6c.6.225 1.029.899.343 1.499-.515.45-1.03 1.349-1.887.674-1.372-1.049-3.687-.224-4.63-2.098l-.086-.225c-1.458.075-2.23.3-1.715.525.514.224 1.286.824 1.115 1.049h-.172l-1.286.15c-1.372.225-4.116.824-6.003 1.274l-.515-2.323v-.075c-.6 0-.857-.225-.428-.45l.343-.15.771-.3c1.03-.375 1.287-.899.686-1.274-.6-.375-3.43.075-4.545.075l-1.029-.075-.857-.225c-.515-1.124-1.287-2.323-1.801-2.698-.429-.375-.772-1.649.257-1.574 1.03.075 1.801 2.548 2.058 2.848h.258c.257 0 .686-.3.771-.524l.258-.9c.171-1.199-.343-2.098-1.2-2.023-.858 0-2.66-1.499-2.916-1.125-.258.375-1.287 1.424-1.544 1.05l-.429-.15c-.343-.075-1.115.449-1.115.524l.343.825c-.257.824-.171 1.948.086 2.398l.686-.225.257-.075c.343-.299.686-.15.686.3 0 .525-.514 1.499-1.114 1.124-.6-.374-2.83-.824-3.43-.299-.6.524.17 2.398-.086 2.473-.258.075-1.03 0-1.2-.15-.087-.15-.515-.375-.687-.3-.171.15-1.286.375-2.058.3-.772-.075-2.487.675-2.058.974.429.3.686 2.024-.429 3.148l-1.886-.375c-.515-.075-1.201.3-1.716.45-1.457.375-1.715.225-2.143-1.274 0-.15.085-.3 0-.375-1.287-.824-.172-3.073-1.801-3.223-1.287-.075-2.659 1.05-3.86 1.724-.685.375-.514.45.43 1.05.857.524 1.543 1.199 2.143 1.948.343.375.515 1.349.43 1.424l-.944.525c-.257-.675-1.544-1.724-2.916-2.249l-1.286-.299c-.257-.075-.686.449-.943.749l-.43.45c-.428.524-.942.749-1.2.449l.086-.074c1.372-1.649 1.03-2.998-.6-4.273-.343-.299-.429-.824-.772-1.124-.257-.3-.772-.749-1.03-.674-.77.3-.685.824-.256 1.424l.171.15c-.086.299-.429.599-.772.674l-.171-.15c-.429-.3-.943-.599-1.03-1.049l-.342-1.199c-.257-1.499-1.372-2.848-2.487-3.148l-1.115.6c-.429.224-.943.299-1.458.299h-1.715c-1.029.6-2.315 1.2-2.915 1.2l-.258-.225c-.857-.75-1.114.15-1.372.449-.257.225-.257.975 0 1.2l.858.599c1.029.6 1.458 1.124.857 1.199-.6.075-1.029 1.724-1.543 1.799l-.686-.225c-.429-.075-.944-.524-1.372-.524-1.63.075-1.458-1.275-1.115-1.649.857-.75-.257-1.649.514-2.174l.686-.524c.772-.525.772-1.349-.171-1.949l-.6-.375c-.343-.225-.515-.599-.858-.674-.943-.3-2.058 1.648-2.916 0l-.514-1.125c-1.286 0-1.8-.749-1.2-1.648l1.629.974 1.715 1.049c1.886-1.349 4.03-2.023 4.63-1.499l.344.375c.428.45.6.375 1.2.075.6-.225 1.372 0 2.144.075.257 0 .686.225.857.075 2.316-2.249 4.117-.225 6.003.524.343.15.515.675.858.675l.6.075c.686-.15 1.2-.525 1.115-.75-.086-.299.086-1.499.514-1.873.515-.375 2.058-1.349 2.316-1.199.257.149 1.115.449 1.115.449.085-.075-.343-.824-1.03-1.499-.686-.674-2.572-2.923-2.058-2.848.515 0 1.63.225 1.63.45-.086.225.171.749.686.749l.429-.075.343-.075c.514-.299 1.114.075 1.2.75v.525c.086 2.098 2.23 2.173 3.516 2.923.686.374 2.23.524 1.972-1.2-.085-.899.6-.899 1.287-.824l1.115.075c-.086-.75-.258-1.499-.43-1.724a19.555 19.555 0 0 1-.428-1.499c-.086-.375-.429-1.049 0-1.049s1.715 1.124 1.63 2.473l.085 1.274c0 .225.515.525.772.525s.686-.3.772-.525l.085-.674c0-.75.515-1.499 1.115-1.649.6-.15 2.659-.15 3.002.525.343.674 2.058 2.248 2.915 1.873.858-.375 3.173-.749 3.43-.225l.43.3.514.3c.257.525.686 1.049 1.029 1.274l.086-.075c1.114-.674 2.4-.599 3.687-.674h.257c.343-.825.772-.975.858-.375l.257.3c.172.15.686.15 1.03.075l2.915-.375c.686-.6.857-1.124.343-1.199-.515-.075-2.058-.9-2.573-.675-.514.225-1.286-1.349-1.458-1.274-.171.075-.943-.375-.943-.675 0-.299.943-1.424 1.972-1.573l1.115.524.686.3c.686.45 1.973.375 2.916-.075l.257 1.274c.086.6-.086 1.049.858 1.274l.771.225c.858.75 1.887 1.124 2.402.75l.428-.375.343-.3c.258-.599.086-.899-.257-.824-.343.075-.943 0-.343-.525.6-.525 1.2-2.398 1.458-2.323.257.075.943 1.124 1.286 2.023.343.9 4.202.975 3.945.675-.343-.3-1.372-1.124-1.715-1.199-.343-.075-1.115-.6-.515-.675.686-.075 2.401-.45 2.401-.824.086-.375.944-1.05 1.63-.375l-.086.075-2.144 2.323c2.058 1.199 4.03 1.874 4.288 1.424.257-.449.857-1.574.686-1.724l-.257-.075-.6-.149c-.687-.15-1.03-.525-.858-.9.171-.3 1.115-.674 1.543-.075.515.6 2.573.825 2.23.375.171-.899-.171-1.574.6-.824.686.824 3.087 1.199 2.401 1.199l-.514.15c-.257.075-.6.449-.6.674 0 .225.428.75.514.675l.943-.225c.944-.45 2.487-1.049 3.345-1.424.857-.375 3.173-.075 3.516-.3.343-.15.857-.749 0-1.274l-.086.075-1.715 1.499c-1.372-1.199-1.8-2.548-.943-2.848h.771c.858 0 1.801.15 2.573.449l.943.3c1.03.525 2.401.6 3.087.15.686-.45 2.916-1.274 2.916-.674h.086c.772 0 1.543-.225 2.144 0l.514.15c.6.449 1.115.449 1.2.074.087-.449.515-1.723.773-1.723l.085.075c1.115 1.049 2.316 2.023 3.259 3.222.772.9 1.629 1.2 2.744 1.05l.429-.075c.429-.3.429-.9.086-1.349h-.258l-1.629.15c-1.029-1.2-1.629-2.549-1.372-2.998.257-.45 1.544-1.649 1.544-1.125.085.525 1.2 1.799 2.401 2.174l1.115.225c1.372.3 2.401-.375 3.344-1.199l.343-.225a7.82 7.82 0 0 0 1.715-.9c.515-.374.429 1.424 0 1.799l-.6.075-.343.075c-.343.15-.772.749-.858 1.274-.086.525.515 2.249.944 2.249.428-.075 1.8-.6 2.229-1.05.429-.449.343-2.473.429-2.848l.171-.3c.086-.149.515-.149.772-.074.172.074.429.299.429.449-.257.675-.515 1.274-.772 1.874-.086.15.172.45.429.525l.772.299c1.2.375 1.886.375 1.629-.15l-.171-.224c-.429-.6-.515-1.125.428-1.275.258-.074.772.45.858.75l.171.375c-.085.524.858.449 2.144-.075l.858-.675.343-.225c-.172-.749-.6-1.424-.943-1.349-.344 0-1.544-.374-1.544-.974s.429-2.174.857-2.024l.086.225.772 1.649c1.629-.075 2.83-.3 2.658-.525l-.085-.224c-.429-.825.514-.675.686-.6l1.286.525c1.629.749 1.972 1.798.858 2.323l-.772.375c-.172.075-.172.449-.086.674.086.225.343.525.429.45.686-.15 1.458-.375 2.058-.675.343-.149.514-.674.686-1.049l.429-.824c.428-.975 1.2-1.724 1.715-1.649.514.075 1.886.225 1.886.3 0 .075-.343.299-.771.374-.429.075-1.458 1.125-.944 2.174l.429.824.172.3c.343.225.857.225 1.2-.075l.257-.225.258-.224c.257-.225.771.224 1.114.974h.343a3.53 3.53 0 0 0 2.059-.675l.428-.299c.086-.675.343-1.649.429-2.099.172-.45 2.658-2.473 2.573-2.248-.086.149-.944 1.723-.858 2.398.086.674 1.973 2.173 3.516 2.023l1.286 1.125.686.599c-.085-.824-.085-2.398 0-3.597l1.458.375c1.458.374-.343.749-.085 1.049.171.225.857.449.943.375l.343-.075c.343-.675 1.115-.825 1.629-.45l.515.225 1.715.599c1.886-.449 5.488-1.124 8.061-1.499l.171.3.429.6c.6 0 1.458.15 1.887.449l.085-.075c.686-.674 1.801.075 2.316-.374l.514-.45c.257-.824.858-1.949 1.287-2.398l.514-.15.343-.075c.515.375 1.201 1.049 1.544 1.499.343.45 1.715 1.574 1.886 1.874.172.299 1.973.224 3.516-.825l1.973 1.274c1.457.975.943-1.948 2.486-1.274 0 0 .343-.525.429-.824 0-.15-.257-.6-.343-.525l-2.058.3c-.6-1.499-1.115-2.773-1.115-2.923 0-.075.343-.375.772-.45l.343-.15.257-.075c.686-.449 1.029-.449.772 0-.257.525-.086 1.799.772 1.949.857.15 3.859-.3 5.231-.3 1.372-.075 4.631 0 4.373.375-.257.375-1.8.899-2.83.749l-.514.375-1.029.825c-.858-.525-1.372-.3-1.115.599l.515.525c.514.524 1.8 1.199 2.058 1.049 1.372-.974 2.83-.075 4.202-.45.343-.075.6-.524.943-.749.514-.375 1.372-.675 1.544-1.124l.343-.675c0-.899 1.029-1.649 2.401-1.574l1.029.075h.086c.171.45-.258.75-.772.75-.601 0-1.973.224-2.058.674 0 .375 1.114 1.949 2.658 2.249 1.458.299 6.089.224 6.775 1.199l.686-1.499c.343-.825-.601-1.424-1.544-1.724-.429-.15-.858-.525-1.201-.824l-.171-.225c0-.375.343-.825.858-.975l.428.075.343.075c.343 0 .944-.075 1.372-.299.429-.15 1.458-.15 1.115.299-.343.45-.943 1.949-.429 2.399l.429.299.515.3c.6.3 1.286-.075 1.543-.824l-.085-.6c-.086-.375-.687-.674 0-1.049l.257-.15c.343-.225.686-.15.772.3.085.45 1.2 1.499 2.315 1.274l.943-.15.601-.075c.686-.075 1.715-.15 2.315-.225.6-.075 2.23.15 2.401.825.257.674 1.372 2.398 1.715 2.323.343-.075 1.458-.674 1.715-.974.172-.375-.171-1.799-1.029-2.399-.857-.524 0-2.773.515-2.398.514.375 1.715 1.349 1.886 1.049l.086-.224.172-.225c.171-.225.257-.15.257.299 0 .45-.172 1.724-.172 1.949 0 .225.429.825.772.825l.343-.15c.343-.15.6-.45.858-.75.943-.749 1.629-.824 1.715.6 0 .075.514.15.771.15h1.201c.772-.825 1.286-1.125 1.115-.6-.086.525-.086 1.949.429 1.574.514-.3 1.8-.899 1.886-.675l.172.15c.943 1.05 2.487 1.874 2.915 1.349 1.029-1.199-.686-1.049-1.114-1.573l-.429-.525c-.086-.75-.086-2.099 0-2.923l.6-.525c.172-.15.772-.225 1.029 0 .257.15.343.675.257.975l-.171.524c-.257.525-.086 1.199.514 1.424l.429.375c.686.525 1.029.15 1.715-.075l.601-.225c.857.15 1.886.75 2.401 1.424.428.6.085 2.698-.858 2.848l-.857-1.049c-1.115-1.424-1.372-1.424-3.345.075-.343.3-.943.3-1.372.525l-1.029.599c.086.974 1.286 1.499 2.658 1.049l1.201-.374 3.516 1.424.429-.075c.514-.075 2.229-.9 3.859-1.874l1.8.075 1.887.075c.686-.3 1.029-.824.686-1.124l-.343-.225c-.171-.15-.514-.225-.686-.15l-2.916.3c-.943-1.124-1.886-2.249-2.143-2.474-.258-.224-.429-1.124.514-1.573.943-.375 3.259 1.424 3.687 1.573.515.15 1.63-1.049 2.487-1.573l.601.149 2.144.45c1.715-.45 2.915-1.349 2.658-2.023-.343-.675-.257-2.399.857-2.024l.772-1.199.257-.375c.344-.45-1.629-.075-4.287.899l-1.372-2.998c0-.075-.772 0-1.029.225l-.601.525c-.6.749-1.114 1.049-1.114.599l-.086-.299-.429-1.499c-1.201-.6-1.972-.75-1.629-.225.257.45-2.401 2.023-4.374 2.023l-1.972-.224-1.887-.225c-2.058-.375-5.059-.525-6.603-.3l-.514.749c-1.029 1.35-2.401 1.275-3.602 1.724l-1.372.6c-.257-.675.6-1.499 1.972-1.724l1.115-.45.943-.374c1.115-.9 1.287-1.724.343-1.874l-.6.15-1.543.45c-1.63.599-3.602 1.274-4.374 1.424-.772.149-4.202-1.424-4.974-1.649l-.085.899v.45c0 .599-.772.824-1.63.524-.857-.299-2.315 2.024-2.401 2.773l-.086.75c-.085.525.086 1.424-.943 1.199l-1.543-.375c.857-.374 1.629-1.199 1.629-1.798 0-.6-.772-2.024-1.887-1.424l-.171-.15c-1.458-1.199-3.43-.225-4.717-1.05l-1.115-.674c0 .674-.428 1.499-.943 1.874l-.514-.9c-.172-.375 0-1.049-.772-.449-.257.224-.515.674-.515.974v.375c.343.524-.171 1.049-1.2 1.199-.944.15-2.573-1.499-3.002-1.799-.428-.3-1.972-.45-2.572.525l-2.401-.525c-.515-.075-1.115 0-1.544-.075-.343-.075-.772-.3-.772-.525-.086-.674 0-1.199-1.029-.449-.514.374-1.543.225-2.229.15-.601-.075-1.115-.75-1.63-.675-.343.075-.686 1.199-.943 1.199l-2.144-.3c-1.286 1.425-3.773 1.724-5.574.675l-2.573.225c-2.058.225-2.401.15-3.859-1.274-.257-.225-.686-.225-1.029-.3l-2.915 2.398c-.772.75-1.458 1.874-2.744.45-.258-.225-1.201-.3-1.458-.075l-1.544 1.349c-.429-1.124-1.372-1.799-2.058-1.424-.686.375-1.886.6-1.886 0 .085-.599-1.801.375-1.973.45-.171.075-1.458-.15-2.83-.45l.086 1.574v1.124c-.772.075-1.544.375-1.629.75-.086.374-.686 1.124-1.115.899-.429-.225-1.458-.899-1.629-1.049-.172-.15-.172-.675.343-.75.428-.075.771-.674-.258-1.274-1.029-.524-3.516.6-3.001 1.199.514.675 1.887 2.249 1.286 2.624l-.429.299c-1.372.9-2.915.675-4.459.6-.171 0-.514-.525-.429-.749 0-.225.429-.525.687-.6.171-.075.514.075.686.225l1.457.599c.601-.899.772-2.023.258-2.548-.515-.525-3.602-1.349-4.117-2.398l.172-1.649v-.225c.086-.3 0-.45-.343-.45s-1.029.975-1.372 1.799c-.343.825-1.715 2.398-1.972 1.349l-1.544.075c-1.458.075-3.001.9-4.459-.075l-.944-.599c-1.029.299-2.829.824-3.944 1.199l-.858-.975c-.171-.149-.686-.299-.772-.224l-1.286.824c-1.544.525-3.516.824-4.373.75l-.772-.15c-.257-.075-.6-.225-.858-.15-1.372.599-3.601 1.049-4.716.824l-.257-.075a.827.827 0 0 0-1.287.075c-.429.45-1.886 1.424-1.886.45s-1.029-2.848-2.402-2.249l-.771.825-.858.899c-.429-.524-1.029-1.199-1.372-1.499h-.257c-.257 0-.686.375-.686.6l.171 2.173c-1.886-.15-3.087-.599-2.83-.899.343-.375.944-1.574.772-1.949H99.732c-.514 1.649-1.114 2.623-1.457 2.174-.344-.45-1.544-1.424-2.144-1.274-.6.075-1.544 1.723-2.058 1.873l-.086-.15-.257-.299c-.172-.525-.515-.75-.858-.6l-.257.075c-.515.075-1.03.15-1.544.075l-1.372-.15c-1.63-.225-3.087-.225-3.173.15-.086.3-.514.824-.772.15-.171-.675-2.4-.75-2.487-.375-.085.375-.6 1.424-.943 1.499h.172l-1.887-1.574c-2.315.525-4.545 1.124-4.888 1.274l-.514-.449c-.858-.675-1.372-.375-1.458.674 0 .225.086.6-.086.675-.257.225-.6.374-.943.449h-.172c-.257-.224-.772-.899-1.2-1.648-.43-.75-2.83-2.024-3.173-1.799-.343.225-1.372 1.199-2.144 1.574-.772.299-1.63 2.173-1.973 2.098v-.075c.086-.749-.171-1.274-1.029-1.049-.343.15-.428.974-.6 1.424l-.086.225c-.171.225-.171-.225 0-1.049.172-.825-.428-2.998.515-3.673l.858-.674.342-.225c.344-.525-.428-.9-1.715-.9l-.6.6c-1.029.749-1.715.749-2.658-.075-.258-.225-1.458-.075-1.715.225-.258.3-.172 1.199.086 1.649l.257.524c.514.375.686 1.05.257 1.499-.429.525-2.144 1.499-3.173 1.274l1.2-1.049 1.115-1.049c-1.2-.6-2.23-.525-2.315.15-.086.674-.343 1.799-.429 1.124 0-.675-2.144.075-2.572-.45-.343-.524-1.973-1.574-2.401-1.124-.43.45-1.458 1.274-1.201.525.257-.675-2.058-.3-2.058.3 0 .599-1.286 2.398-2.744 2.323l-1.372.075c-.858.075-1.63.45-2.487.599-1.287.15-.515-1.274-1.2-1.424l-1.116-.149c-1.286.299-2.058.599-1.715.674.43.075 1.115 1.124.686 2.099l-1.029-.525c-1.029-.525-1.372 1.199-2.315.225-.429-.45-1.458-.375-2.058-.675-.772-.299-1.458-.974-2.23-1.199l-.514-.225c-1.03.075-1.544.6-1.115 1.125.343.524 1.029 1.798.858 1.948-.172.15-1.201.6-1.373.225-.257-.3-1.029-1.049-1.2-.749-.172.299-1.03.299-1.801-.525h-2.315c-.858.15-2.058.525-2.744.749l-.086-.149c-.858-1.05-1.287-.15-1.715.224-.686.6-1.2.75-1.973.075l-.257-.225c-.6.075-1.029.375-.943.675.085.3-.515 1.574-1.458 1.949l-.343-1.349-.257-.9c-.6.075-2.058.15-3.173.15h-.944c-.857 0-1.543-1.274-2.572-.15l-.257.225c-.944-.45-1.458-.974-1.201-1.124.257-.15 1.715-.9 2.744-1.424l.686-.675c.343-.3-.943-1.049.172-1.499.686-.3 1.286-.749 1.972-.974l1.372-.3c.515-1.124 1.2-2.098 1.544-2.248.343-.15 1.372-.075 1.457-.675.086-.524-3.087-4.047-2.658-3.897.429.15 1.973 0 2.23-.675.257-.674 1.63-1.798 2.315-.674l-.086.824v.6c-1.029.749-.686 1.799.772 2.248l.686.75.686.749c1.03.6 1.887.6 1.887 0 0-.674.686-2.098 1.286-1.799l.086-.075.686-.599c.171.525-.172 1.874-.772 2.923l-.514 1.124-1.287 2.174c.343 1.424 1.03 1.948 1.63 1.124.514-.825 1.8-3.823 2.744-4.722l.343-1.199c.171-.675.6-.15.686.375l.085 1.199c.858-.3 1.973-.825 2.487-1.349.43-.45 3.602-.075 5.489-.45l1.629.75c.429.224 1.372.374 1.458-.6.086-.675 1.372-1.274 0-1.949l-.257-.15c-.515-.749-.515-1.124.085-.974.6.15 1.801.6 2.573.6.772-.075 2.487 1.424 4.03.974l1.458-.075s.086-.6 0-.899c0-.15-.428-.225-.686-.225l-.514-.075c-.6 0-1.03-.225-.944-.525l.858-.075c1.029-.075 1.886.675 1.886 1.574l.43.375.685.525c.944-.45 3.173-1.05 4.803-1.424l-1.373-2.024c-.085-.075.172-.45.258-.45.257-.075.6-.075.771 0l2.144 1.574c.343-1.199.858-2.323.944-2.473.171-.15.6.075.6.749l.172.075 1.715.525c.428 1.499.857 2.773.943 2.923.171.15.6.15.857-.075.258-.225 1.115-.6 1.287-.375.171.225 1.2.45 1.886-.075l.772-.225 2.487-.674c.515-2.099 1.029-3.897 1.115-3.972.085-.075.772-.15 1.286.15.515.224-.343 2.997.172 3.147.514.15 2.83-.075 4.202-.824l1.2-.75c.172-.074.172-.449.086-.674 0-.15-.257-.375-.429-.375l-1.8-.075c0-.824.771-1.349 1.629-1.124.943.225 2.83 1.649 2.486 1.949-.343.299.086 1.574 1.372 2.398 1.373.824 5.317-.899 5.06-1.274l-.171-.375-.258-.599c.6-.75 2.144-1.574 3.345-1.949 1.2-.375 4.63.45 4.888-.3.257-.674 1.372-2.548 1.543-2.173.172.374 1.287.674 1.973-.3l.6-.525c.171-.225 1.029-.225 1.029-.225.772 2.624 3.173 1.125 4.802 1.574.343.075.772-.075 1.03-.3.17-.075.17-.449.085-.674v-.15c-.257-.15-1.286-.3-2.401-.375l-.943-.075c-.686-.075-1.373-.674-2.058-.674l-1.03-.075c-.428-.675-1.114-1.649-1.629-2.174-.514-.524-2.83.375-3.344.45-.172-.075-1.2-.675-.944-1.424.258-.824.343-2.998-.085-3.073l-.086.075c-.772.675-1.458 1.949-2.23 2.024l-1.458.075c-.771.824-2.058 1.948-2.744 2.398l-1.457-1.499-.515-.45c-.6-.6-1.458-1.124-1.972-1.199l-.43.075-1.886.525c-.6-.9-1.2-1.724-1.286-1.8-.086-.074-.858.226-1.458 1.05l-.686.45c-.686.375-1.8-.15-2.487.75-.086.15-.514.15-.772 0-.771-.375-1.457-.9-2.144-1.275-.514-.3-1.029.825-1.715-.075l-.428-.524c-1.03-.225-3.43-.75-5.231-1.125l-1.372-1.274-.6-.6c-1.459.076-2.573.6-2.573 1.275.085.6-1.458 2.323-3.516 2.323l-1.801.225c-1.458.15-.6-1.424-1.63-1.574-.857-.075-1.715-.3-2.486-.524l-.172-.075c-.085-.75-.6-.6-1.115.3l-.514.599c-.172.225-.772.3-1.03.15-.256-.15-.428-.75-.342-.9l1.029-.974c-.172-1.349-.6-2.173-.943-1.724-.343.375-1.287 1.35-1.373 1.35-.085-.075-.171-.525 0-.975.172-.45 0-1.724-.857-1.724-.943 0-3.087.3-3.001.825.085.524-1.63 2.173-1.973 2.548-.343.375-1.372 1.124-1.543.9-.086-.225-.858-.3-1.372.449-.515.75-3.688.525-4.117.15-.428-.375-1.372-.75-1.543.3l-1.372-.6c-.944-.45-1.2-.974-.515-2.098.515-.825-.257-.45-.943-.3l-1.03.15c.344-.75 1.116-1.424 1.716-1.424l.257-.3.429-.45c.171-.674.086-1.649-.343-2.023v-.15l-3.087 1.499c-1.03-2.174-1.887-3.973-1.973-3.973-.085 0-.943.6-1.372 1.424-.428.75-1.372 1.949-1.286.75l-1.63-.075h-.428c-.515.3-1.03.15-1.286-.375-.258-.525-1.458-.974-2.144.45l-.6 1.124c-.086.075-.515.15-.687.075l-.171-.075c-.172-.225-.343-.824-.343-1.349s.171-2.099 1.2-2.473c.944-.3.344-3.148.515-3.448.172-.3.772-1.274.6-1.349h-.085l-1.03.075c-.943-.525-2.058-1.35-2.486-1.874l-.515.375-.086.3c.172.9 0 1.724-.428 1.873-.43.15-1.63 0-1.372-.899l.171-.674c.086-.45.172-.975 0-1.425-.171-.674-.257-1.424-.772-1.873l-.514-.45c-.944-.15-1.715-.375-1.715-.6 0-.15.428-2.323 1.029-4.347l3.087-.074 1.2-.075c1.115-.6 1.544-1.2.944-1.274-.6-.075-1.544-.75-.515-1.275l.6-.45.515-.374c.6.075 1.544.525 2.144.974l.6-.6c.172-.15-.514-.749-.514-1.124-.086-.45 0-.899.771-.45l.258.15c1.029-.374.771-1.124-.515-1.648l-.943-.3-.257-.075c-.515.225-.772.225-.6-.075.085-.3.085-1.2-.258-1.349-.429-.15-1.372-.75-1.286-.974.085-.3-.172-1.05-.858-1.124-.686-.075-.514 2.473-.857 2.623-.343.15-1.544.524-1.973.374-.429-.15-1.286-1.124-1.2-1.424l.171-.3c.086-.15.515-.15.772-.074l.343.15c.515.45.943.075.858-.975-.086-.9 1.2-3.148 1.886-2.623.772.525 2.058-1.35 1.887-1.424-.258-.075-.858-.525-.686-.824h.085c1.287.15 1.801-.9 2.487-1.574l.258-.225c-.172-.9-.086-1.724.171-1.799.257-.15 1.63-.225 2.144.15.429.375-.257 2.023.171 2.398.43.375 1.63 1.424 1.716 1.35.085-.076.257-.45.171-.75-.171-.225-.429-1.5-.429-2.099-.085-.6 0-2.773 1.63-3.597l1.8 1.274.687.45c.514-.9 1.114-2.024 1.372-2.174zm560.233 64.755c-.429.225-1.543.15-2.487-.15l-.857-.3c-.6-.225-1.286-.675-1.887-.6-.514.075-.085 1.499-1.372 1.275a7.23 7.23 0 0 0-.171 1.349c0 .374-1.973.15-1.973-.375s-.514-1.649-1.114-1.274l-.429.15-.429.15c-.515.074-1.544.449-2.23.974-.686.525-3.087.225-3.173-.675l.772-.749.601-.6c-.601-.899-1.544-1.274-2.144-.749-.601.524-1.973 2.098-1.372 2.323.514.225.171 1.499-.601 1.724l-.6.3c-.257.15-.343.599-.343.899 0 .15.257.375.515.45l.943.225c1.029.225 2.229.374 2.573.225l.171-.225c.343-.45.515-1.199.943-1.424.343-.15 1.029.599 1.544.599h1.029c1.115-.225 2.573.15 3.173.75l1.029-.9 1.115-.974c.686.974 1.372 1.499 1.543 1.199.172-.3 1.287-.449 1.372-.375 0 .075.429.3.772.225.343-.075 1.286.15 1.372.075.086-.075.686-.824 1.372-1.349.686-.524 2.058-2.623 1.973-3.223l-.258-.075c-.686-.299-1.2 0-1.2.825l-.172.3zm-281.016-1.125c.171.45-.772.45-2.059 0l-.686 1.05-.428.749c-.429.975 1.029 1.499 3.173 1.05l.514.074.429.075c.514-.075.772-.374.686-.524-.172-.225.429-1.424 1.543-2.324l-1.886-1.649-.257-.224c-.258-.3-.858-1.05-1.372-1.724h-1.63c-.772 0-1.115.375-.772.824.343.3 2.573 2.099 2.745 2.623zm149.641 2.849c.772-.3 1.286-.225 1.2.299l.172.15 1.286.9c2.401-.825 4.031-1.874 3.773-2.324-.343-.45-2.487.225-3.001.3-.515.075-2.058-.225-2.487-.45-.429-.225-1.715-.524-1.972-.075-.258.375-1.287 1.125-1.63.825-.343-.3-1.543-.75-2.058-.375-.514.375-1.629 1.649-1.629 1.724 0 .075.343.375.858.225.514-.075 1.8-.075 1.715.299-.172.375.085 1.275.771 1.425h.772c.172-.525 1.458-2.624 2.23-2.923zm-127.603-2.474c-.085-.225.258-.375.858-.375.514 0 1.972.225 2.144.525v.075c.171.6-.601 1.574.686 1.649l1.029.075c-.086-.75.429-1.724 1.2-2.249l.601.15.686.15c.686 0 .6-.3-.086-.674l-.343-.825c-.086-.225-1.201-.225-1.801-.225l-1.286.075c-.772-.524-1.115-1.349-.772-1.723.343-.375 1.029-1.425.772-1.724-.257-.3-1.287-.825-1.63-.375-.428.45-.171 3.148-.6 3.523-.429.374-1.801 1.199-2.058.899-.257-.3-1.029-.675-1.372-.3l-.257-.075c-1.287-.225-2.058.225-2.487 1.424l-.086.3c-3.945-.375-6.946-.45-6.603-.15.343.3 1.972 1.199 3.173 1.499l.943-.749.515-.45c.6-.45 1.115-1.124 1.286-1.424.086-.3-.086-.75-.772-.225s-3.087.899-3.516.675c-.428-.225-1.372-1.649-1.029-2.549l.086-.899.086-.375c-.429-.524-1.801-.674-3.002-.375l-1.114.15c-.172 0-.429.6-.429.9.086.225.514.524.772.524l.428-.075c.429-.299 1.029-.149 1.201.3.172.45 0 1.499-1.029 1.124l-.6.225-1.458.525c-.6-.899-1.286-1.874-1.629-2.099h-.515c-.257.3-.6 1.424-.772 2.474l.943.824.858.675c.686.974 1.372.974 1.715 0l1.458.449 1.029.3c3.773-.45 6.946-.3 6.86.3l.258.225c.514.375 1.114.375 1.372-.525.085-.3.686-.749.943-.674.857.075 1.629.449 2.487.599l.429.075c.514-.15.771-.599.6-1.049l-.172-.375v-.15zM65.431 131.772c.428-.374 1.8-.149 3.087.45l1.286.45c.257.075.858-.3 1.03-.6.256-.449.085-.524.857-.449l1.886.149c2.058.225 4.117.45 4.717.45l.428-.15 1.373-.449c1.715-.6 2.572-1.2 1.886-1.275l-.257-.224-.429-.375c-.343-.375.086-.3 1.03.225.857.524 3.858.449 3.858-.075v-.45c.086-.6-.086-1.349.257-1.724l1.201-1.049c-.943-.375-2.401.375-3.173 1.649l-2.487-.825-1.029-.374c-.171.899-.772 1.574-1.2 1.499-.515-.075-2.058.599-2.573.674-.429.075-2.315-.749-3.173-1.124-.858-.375-3.344 1.124-4.03 1.724l-.686.599c-1.03.9-.944.9-1.63 0-.429-.599-.943-1.124-1.543-1.649l-.343-.224c-.515-.075-1.03.075-1.115.374-.086.225-.686.825-1.2.75-.601-.075-.344 1.724-.172 2.098.343.225 1.8.225 2.144-.075zm227.163-23.084c.428 2.249-.172 3.673-1.201 3.223l-.772.15-.686.15c-.6.974-1.457.899-1.972-.075l-.943.899c-.944.9-1.973 1.05-3.173.9-.772-.075-1.544.374-1.801.974-.086.3-.515.525-.686.75l-.429.524c-.429.675-.857 2.399-.857 3.897l.686.225.514.15c.686-.225 1.458-.824 1.715-1.424l-1.029-.075c-1.029-.075-1.029-.824-.514-1.199l.857-.674c1.115-.6 2.401-1.275 2.83-1.499.515-.225 2.058.674 2.315 1.124.258.449-.6 1.799-.943 1.799-.343 0-1.372.524-1.372 1.199 0 .674.943 1.873 2.144 1.124 1.201-.75 1.801-5.097 2.315-6.446l.772.6c1.201.824 1.544.15 2.058-.375l.429-.375c-1.544-2.698-2.315-4.646-1.801-4.272.515.375 1.801 1.649 2.058 2.024.258.375 1.715.15 1.63-1.349l-1.115-.974-1.029-.975zm-17.408 7.27c.771-2.323.514-4.647-.686-5.171l-1.029-.075c-1.201-.075-2.402.45-3.688.525-.857.074-1.715-.225-2.658-.375l-.258-.075c-.257 0-.943 0-1.457.075-.515.075-1.458 1.049-1.201 1.574.257.524-.514 1.873-.514 1.873 0 .075-1.03-.075-2.23-.224l-1.029-.225c-.257-.075-.6-.45-.6-.675 0-.225.343-.599.6-.674l.6-.075c.772 0 .515-.9-.6-1.949l-1.115.824c-.686.45-.857 1.574-1.115 2.474-.343 1.124 1.029.749 1.458 1.199.772.675 1.372 2.099 2.744.675.257.149.944.524 1.544.749.6.225 1.372-.899 1.372-1.349 0-.45.686-1.799 1.372-1.199.686.599 2.573 1.199 3.173.599l.514-.075c.601-.075 1.115 1.275 1.887.525.943-.974-.515-1.349-.858-2.024l-.085-.149c-.172-.375.6-.15 1.715.449 1.115.6 4.202 2.698 4.459 1.574l.257-.899 1.372-3.148c-.257-.15-.771-.525-.857-.45l-.601.375c-.514.525-.686 1.349-.257 1.799l-.429.674-.428.675c-.258.899-.858 1.499-1.372 1.349l-.258-.225c-.514-.525-1.2-.675-1.629-.075-.343.6 0 1.049.943 1.124h.944zm265.752.825c.515 0 .686-.6.343-1.199l-.429-.45c-.428-.45 1.029-.974 0-1.574-.6-.3-.943-.75-1.629-.225l-.171.15c-.343 0-3.516-.375-7.032-.824l-3.43.824-1.373.375c-1.114-.9-2.486-1.349-3.001-.825-.514.45-1.887 1.349-2.144 1.125-.257-.225-1.372-.525-1.715.149-.429.6-.772 2.549.6 2.024h1.287c.686.075 1.972.3 2.83.6l.771.224.601.15c1.457-.524 3.001-1.199 3.43-1.574l.257.075 2.144.525c.086-1.499 1.029-1.574 2.144-.15l1.115 1.199 1.2 1.274c1.544 1.275 3.087 2.024 3.345 1.649.085-.225.257-3.447.857-3.522zm-174.681 6.37c.943.225 1.629.15 1.543-.075h-.085l-1.03-.524c-1.2-.3-2.401-.675-2.658-.825v-.15l-.086-.224c.086-.225.858-.675 1.63-.975.857-.3 1.543-2.398 1.972-2.323l.429.075h.257c.343 0 .515-.225.515-.675l-.172-.3c-.086-.149-.429-.149-.686-.149-.6-.075-1.372.149-1.372-.825.086-.674.086-1.049 1.029-1.499l1.286-.599c1.287-1.275 2.401-2.024 2.487-1.574.086.449.6 1.424 1.029 1.124l.429-.15c.6-.15 1.201-.225 1.801-.3h.257c.257.075.772.675 1.201 1.349l1.114-.599.515-.3c.858.15 1.887.375 2.401.45.429.075 1.801-.75 2.315-.975l.601.525.343.3c.857-.075 1.543-.525 1.543-1.05 0-.524-.6-2.173-1.457-2.248-.858-.075-3.002.6-2.83.749.171.15-1.287.75-3.774.675l-2.058.075c-1.457.075-2.572-.3-3.344-1.424l-.6-.974c-.772.374-2.058 1.349-2.916 2.248l-1.029-.15-2.315-.375c-1.801 1.275-3.002 2.923-2.745 3.598l.944-.675c.514-.374 1.115-.524 1.629-.749l.515-.225c.428.6.6 2.024.428 3.223l.343 1.049c.172.375-.514 1.424-.6 1.424-2.144-.524-1.543 1.349-2.229 2.099l-.515.524c.429.225 3.001 1.274 3.945 1.424zm215.757-6.445c0 .3 1.115.749 2.487.899l1.029-.375c1.287-.449 2.058 1.424 3.345.225l.514-.449c1.115.224 2.316.674 2.744.899.429.225 1.115.075.601-.974-.515-1.05-2.23-3.898-1.715-4.347.514-.45-1.201-1.874-2.659-1.05l.086 1.799v.15c-1.115.3-1.801.3-1.544 0 .258-.3.686-.899.429-1.124-.171-.225-.686-.075-.514.899.171.9-.601 3.073-1.201 2.773-.6-.3-1.629-2.998-2.058-2.998-.343 0-1.458.225-1.372.375.171.15.772.824 1.201 1.349.343.45-1.373 1.649-1.373 1.949zm-27.612-1.349c.6.075.257-1.274-.772-3.073l-2.316 1.874c-.171.149-.943-.225-1.286-.525l-1.029-.974a78.176 78.176 0 0 1-3.773.749l-.343-.3c-.6-.449-.858-.524-1.458 0l-.429.375c-.857.375-.943.824-.257.899.772.075 1.972 1.125 2.658 1.874.686.75 3.516 2.923 4.974 2.998h1.286c.172 0 .601-.45.601-.749 0-.225-.343-.6-.601-.675l-.771-.15c-1.029-.075-1.544-.45-1.029-.749.514-.3 3.944-1.649 4.545-1.574zM44.507 134.92c.085.3 0 0-.172-.749-.172-.75 1.972-2.099 2.487-1.949.514.075 1.458-.824 1.115-1.199l-.343-.375-.258-.3c-.428-.374-.771-.149-.943.525l-.257.075c-.515.225-1.03.375-1.544.225l-.771-.15c-.944-.375-1.544-.3-1.201.225.257.524-1.8 1.424-2.144.599-.343-.824-2.83.15-2.916 1.05 0 .899.43 3.447 1.201 3.222.686-.224 2.744-1.349 3.173-1.873.429-.525 2.573.3 2.573.674zm179.998-8.919c-.172 1.275.772 2.324 2.144 2.399l1.029-.075h.171c.172-.6-.086-1.124-.6-1.199l-.172-.225-.257-.3c-.086-.45.343-.899.858-.974l.429.15c.343.149.771.449.771.749l.086.75c.686.149 1.286.075 1.372-.225.086-.3 0-1.574-.171-2.174l-.429-.375c-.257-.224-.858-.299-1.286-.299l-1.544.225c.257-.75.429-1.499.429-1.724 0-.15-.429-.675-1.029-.75l-.343.225c-1.029.675-1.63.75-1.715-.674 0-.15-.772-.3-1.201-.3h-.086c0 .374 1.715 3.522 1.544 4.796zm153.929-5.471c0 .675.6 1.199 1.458 1.199l.514.075.429.075c.514.15.257-.524-.515-1.499l-.686-.899-.085-.075c.085-.3.428-.45.771-.3.343.15 1.287.15 1.458-.3.172-.449.6-2.023.429-2.773l-.515-.374-.257-.225c-.514.15-1.629.749-2.315 1.424l-.858-.15-1.2-.15c-.772.674-1.544 1.799-1.801 2.548-.172.675 1.458 1.349 1.458.675-.172-.825 1.715.15 1.715.749zm121.256-2.848c0 .9.601 1.049 1.458.375.858-.675 3.087-2.923 3.602-3.673l-1.029-.599c-.858-.45-1.544-.525-2.487.075l-.515.3c-.857-.075-1.8-.075-2.143-.075l-.086-.15c-.257-.375-.257-.9-.6-1.199-.172-.15-.772-.225-1.03-.075l-.257.149c-.086.375 0 1.125.172 1.649.085.525-.686 1.724-.772 1.874-.086.15.171-.075.6-.749.6-.525 3.173 1.274 3.087 2.098zm185.23-7.57c.6-.15.943.375.686 1.199-.172.825-.343 3.073.257 2.699.6-.375 2.487-.225 3.344-.975.858-.749-.428-3.897-1.2-3.972-.772-.075-2.744-.675-3.345-.3-.6.45-1.972 1.499-1.886 1.574.085.15 1.543 0 2.144-.225zM62.086 47.905c-.857 0-1.715.824-1.972 1.874l-1.544.899c-.171.075-.343.525-.343.6 1.115.824-.857 1.049-.343 1.648.429.525 1.03.9 1.544 1.424l.686.675c.857.825 2.058.675 2.744-.375l.6-.974v-.15c-.171-.3-.771-.45-1.2-.375-.515.15-1.715-1.274-1.372-3.672l2.4-.825.515-.224c.686 0 1.287-.075 1.2-.15.087-.075-2.057-.3-2.915-.375zm122.286 57.785c-.257.225-.686.075-1.029-.374-.258-.45-1.63-.825-2.316 0l.601 1.274c.257.674-.772 1.049.085 1.948l.944.975c-1.544.449-2.144.824-1.458.899.686.075 2.144.525 2.23-.375 0-.899.171-3.297.257-3.297s.429.299.429.674c.085.375.686 1.424 1.114 1.349l.343-.075.429-.15c.686-.299.172-.974-1.2-1.574l.343-.749c.085-.225.514-.375.514-.525 0-.374-.171-1.049-.429-1.124-.857-.225-1.2.225-1.114.974l.257.15zm153.757 13.941c.343.899 1.372 1.199 2.23.674l.686-.374c.686-.45 1.115-1.874.514-1.949-1.2-.3-2.058-1.649-3.43-.899-.428.224-.6.674-1.115.149l-1.114-1.049c-.601.9-.515 2.324.171 3.073l.943.225 1.115.15zm-208.468-18.363c.514 1.574 1.372 2.549 1.886 2.249.515-.3-.686-2.773-1.372-3.897l.172-1.275c0-.15-.601-.45-.858-.374-.257 0-.514.374-.6.674-.086.3 0 .75-.086 1.05v.074c-.343.075-.6-.15-.686-.524-.086-.375-.858-1.424-1.629-1.35l-.601.076h-.085c-.086.15.257.6.686.974.428.375-.515 2.099-.515 2.473h.429l3.259-.15zm309.058 15.44c.515.899 1.201 1.274 1.544.899.343-.375-1.029-1.799-1.372-1.948-.343-.15-1.973 0-2.659-.225l-.686-.075c-.6-.075-1.372.449-1.886.225l-1.801-.675c-.515 1.349 1.114 2.848 3.601 3.223l1.544-.675 1.715-.749zm266.61-20.686c1.029.6 1.458 1.349 1.029 1.724l.086.075.857 1.424c1.63-.675 2.916-2.024 2.916-2.998l-1.115-.15c-1.372-.15-1.715-1.35-2.658-1.949l-.257-.225a1.53 1.53 0 0 0-1.458.3c-.429.375-1.201 1.949-.772 2.773l1.115-.824.257-.15zm-168.164 27.056c-.943.6-1.372 1.574-1.029 2.249.343.674 1.801 2.173 2.315 1.424.429-.75 1.887-2.548 2.23-2.473l.257.224c.515.45 1.201.825 1.544.15.171-.299-.258-1.124-.601-1.424-.428-.299-1.372-.599-1.715-.449-.771.524-1.457 0-2.058.15l-.943.149zm-45.021-7.045c.171-.599-.686-1.199-1.887-1.424-1.2-.15-4.545.375-5.059.225-.515-.225-.086 1.499.086 1.874.171.375 1.114 1.049 1.8.3l.772-.45.686-.45c.858-.3 1.715-.15 1.973.375.171.45 1.457.15 1.629-.45zm-146.125-2.923c.6.3 1.458.225 1.801-.15.343-.374 1.029-1.424.686-1.574-.343-.149-1.973-.075-2.745.75l-1.457-.75c-.772-.449-2.059-.149-3.088-.149h-.257c-.343.149-.514.674-.514 1.199.085.374 4.888.449 5.574.674zM89.785 26.844c-.772-.225-.772-1.124-.172-2.023l.43-.825c.085-.3-.344-.824-.601-1.199-.429-.674-.686-.075-1.115 0l-1.029.15c-.429.675-.429 1.574-.172 2.024.343.45-.6 1.798-.171 2.698l.514.674c.258.3 1.03.525 1.287.375.6-.375 1.543-.75 1.2-1.649l-.171-.225zM687.492 69.64c-.257-.3-.857.9-1.286 2.623l2.315-.075c.601 0 1.115-.6 1.63-.6h.6c.772.45 1.458.375 1.372-.224 0-.6-.343-2.324-.6-2.923-.258-.6-2.402-.075-2.487.45 0 .45-1.287 1.049-1.544.749zm35.245 26.607c.515-.9.172-1.5-.772-1.424-1.029.075-3.344-.75-3.344-.075 0 .674.686 2.323 1.029 2.323.343 0 1.372.3 2.058.45l.343-.45.686-.824zm-581.671 32.827c.257.3.857.225 1.286-.075l1.544-.224c.171 0 .429-.15.514-.3.086-.225.086-.6 0-.675l-1.029-.524c-1.115-.6-1.543-1.649-.943-2.399l-.943-.674-.343-.225c-.515-.15-1.029 0-1.115.225-.086.299.257 1.723.6 2.923l-1.629.599-.429.15c-.429 1.049-.429 1.574 0 1.199.343-.374 2.23-.225 2.487 0zm172.966-10.792c-.257-.375-1.2.225-2.229 1.274l-1.458-.45c-.6-.225-1.115-.524-1.629-.674-.343-.075-1.03 0-1.03.075-.085.374-.085.824.086 1.199.172.3.515.749.772.749l1.286.15c1.029.825 2.23 1.574 2.659 1.724.428.15.943-1.199.686-1.724h-.772c0-.375.257-.674.686-.674.429-.075 1.201-1.275.943-1.649zm366.771-7.495c-.343-.825-1.372-1.199-2.229-.9l-.172-.224-1.2-1.125c-.429.975-.343 1.799.257 1.874.6.075 1.972.6 1.629.899-.343.3-.943 1.2-.514 1.35.343.149 1.972.599 3.087.374l1.029.45.171.075c.343-.3.086-.824-.6-1.274l-.686-.3c-.171-.075-.343-.375-.429-.525l-.343-.674zM77.179 19.949c1.029.45 1.972.15 2.058-.824l-.257-.375c-.429-.675-1.03-1.574-1.801-1.799-1.372-.375-1.887 1.124-2.83 1.649-.171.075 0 .525-.086.674l-.343.6c-.085.6.43 1.2 1.2 1.2v-.975c0-.15.944-.375 1.373-.3l.686.15zm432.287 93.611c-.343-.3-1.029-.6-1.629-.675l-.257.15c-.258.225-.601.9-.429 1.05l.257.299c.6.15.6.45 0 .675l-.257.375c-.172.299-.086.899.171 1.199l.429.375c.601.224 1.715.524 2.573.749l.686-.225c.257-.075.6-.225.6-.3 0-.299 0-.749-.171-.974l-.343-.3c-.515-.15-.858-.449-.686-.749.257-.3-.601-1.349-.944-1.649zm-222.789-1.499c1.543-.225 2.744-.75 2.658-1.049 0-.3-.257-.825-.429-.45l-.257.225-.257.225c-.429.075-1.544 0-2.487-.225-.943-.15-3.43-.15-3.516.45-.086.599-1.544-.225-1.715-.15-.172.075-.6.674-.257 1.124l.343.15.428.15c.601-.075 2.059-.15 3.173-.225l1.029-.075 1.287-.15zM83.953 18.825c-.6.375-.857.075-.686-.6l.086-.225.086-.224c.172-.3-.171-.6-.686-.675l-.086.075c-.428.675-.6 1.424-1.715 1.499-.171 0-.257 1.05-.257 1.574 0 .075.857.3 1.286.225l.429-.15c.429 0 1.458 0 2.315.075.858.075-.257-1.949-.771-1.574zm256.835 90.838c.857.224 1.372.15 1.114-.15-.257-.3-1.114-1.499-1.886-2.099l-.429.225c-.772.3-1.115.675-1.801-.075l-.085-.075c-1.03.6-1.544 1.349-1.115 1.724.343.225 3.344.225 4.202.45zM112.767 89.127c-1.458-1.124-2.744-.9-2.83.45l1.115.3.514.15c.944-.825 2.144-.9 2.659-.226.514.75 2.487-.3 2.058-.9-.429-.599-2.144-2.098-2.83-2.248v.075l-.686 2.399zM92.1 127.875c-.943-.15-1.63.075-1.372.525l.257.375.343.524c.43.6 1.115.525 1.458-.225l.429-.075 1.63-.374c1.8-.225 2.83-.825 2.229-1.2-.6-.449-3.945.6-4.974.45zm246.715-15.589c0-.6-1.458-.6-3.344.075l-1.458.749c-.429.225.429.9 3.516 1.649l.343.075c.429-.15.858-.749.858-1.424v-.6l.085-.524zm-233.766 21.135c.343-.225.686-.374.858-.299v.075c.085.749.171 1.424 1.286 1.199.343-.075 1.029-.15 1.029-.225v-.675c-.172-.674-.6-1.649-1.029-2.023-.429-.45-2.058-.675-2.658.374-.686 1.05.171 1.799.514 1.574zM21.524 64.918c.343-.375.43-.674.258-.75l-.086.076c-.686.45-1.372 1.124-2.144 1.274-.772.075-1.543-.525-2.401-.675-.343-.075-1.03.075-1.03.225v.375c.172.45.944.824 1.802.824.857 0 3.087.825 3.773.075l-.172-1.049v-.375zm93.301 35.526c-.686 0-1.115.674-.943 1.574l1.2 1.274c.258.3.601.675.944.749l.514.075c.429-.374.686-1.124.429-1.648v-.9c.429-.599-1.458-1.124-2.144-1.124zm348.506 15.065c-.687 0-.429 1.124.6 2.548l1.029.749c.6.45 2.487.375 2.744-.075.858-1.199-.943-.899-1.458-1.424l-.343-.374c-.686-.225-1.029-.525-.943-.675.171-.15-1.029-.749-1.629-.749zM52.996 90.101c-.257.525-.428 1.05-.343 1.05.086.074.6-.15.944-.45.343-.375 1.543-1.8 1.715-2.549.257-.75.085-3.148-.086-3.672l-.343-.225-.515-.375a25.985 25.985 0 0 0-1.372 1.874l.086.375.172.75c0 .824 0 2.697-.258 3.222zm481.168 17.988c.6-.3.771-.975.343-1.649l1.114-.675.686-.449c-.257-.525-1.114-1.05-1.886-1.125l-.686.075c-.943.075-1.715.975-1.458 1.949l.086.375c0 .374-.086.824-.086 1.049 0 .225.343.749.857.749l.429-.149.601-.15zm-326.639 16.189c.258-.525.687-.525.944 0 .257.524 1.972.824 1.2.224l-.343-.524c-.171-.3 1.544-.975-.257-1.199-.686-.075-1.458-.675-1.972-.525l-.858.3c-.171.974-.6 2.098-.943 2.473l-.172.45c-.085.225.172.749.343.899h.343c.429-.225 1.458-1.574 1.715-2.098zm297.053-3.748c-.857.075-.6.225.601.375 1.2.15 4.63.45 4.716.225.086-.225.429-1.05.257-1.274-.171-.225-.771-.75-1.286-.6-.429.3-3.43 1.274-4.288 1.274zM29.157 133.646c.686-.075.686-.524.085-.974-.6-.525-3.173.974-3.859 1.124l-.686-.225c-.257-.075-.6.225-.857.45-.086.15-.086.6.085.674 1.115.375 2.23.825 3.43 1.05.258.075 1.116-1.05 1.03-1.124-.515-.6-.686-.975.428-.975h.344zm105.134-31.104c-.085-.374-.171-.749-.343-.749-.085 0-.6.15-.857.45-.258.299-.515 1.724-.601 2.323-.085.6-.857 2.548-.943 2.923-.086.375.086.75.515 0l.428-.15c2.402-.974 1.458-2.923 1.716-4.497l.085-.3zm-27.527 5.772c-.857.374-.943.599-.171.599.771 0 2.487 1.499 2.83 1.424.343-.075 1.114-.974 1.372-1.574.257-.524.771-2.248.6-2.548h-.172c-.343 0-.857 0-1.029.225l-.171.225c0 .449-.343 1.424-.858 2.173l-1.801-.375-.6-.149zm126.574 12.666c-.086-.675-1.201-1.049-2.573-.825l-1.029.225c-.6.15-.686 1.349-.086 1.349 1.201.075 1.115.6 1.201 1.424l.085.6c.515.6 1.115.6 1.458.075l-.257-.225c-.429-.45-.6-.674 0-1.049.429-.3.943-.6 1.029-1.049l.172-.525zM85.068 26.02c0-.3-1.629-.974-3.601-1.424l-1.715-.3c-.258-.075-.772.225-.858.45-.086.225.086.824.343.9.858.374 1.8.749 2.744.824l1.03.15c1.114.374 2.057-.225 2.057-.6zM15.35 64.693c-1.372-2.098-2.401-3.447-2.401-2.997 0 .45.086 2.473.429 3.672l.171 1.124c0 .15.6.45.858.375.257 0 .6-.375.686-.675l.257-1.499zM707.644 91.6c-.943-.15-1.114.375-.428 1.05.771.749 2.83 2.323 3.173 2.023.343-.3.171-1.949.085-1.724-.085.225-1.801-1.2-2.83-1.349zm-355.365 22.634c.6.45 1.715.525 2.487.075.771-.374.6-2.773-.772-2.848l-1.115.15-.943.15c-1.115.375-.258 1.949.343 2.473zm103.505 5.622c-.171-.15-.429.075-.514.599-.086.525-2.659.9-4.031 1.424l-1.2-1.049c-.086-.075-.515.15-.601.375-.085.15-.085.449 0 .674 0 .15 3.859.9 3.945.825l1.115-.675c1.115-.749 1.458-2.023 1.286-2.173zm-337.786 14.465c0 .899.515 1.349 1.286.974l.172-.375c1.029-1.649 1.543-2.173 2.487-2.623l.257-.15c.086-.599-.429-.674-1.115-.3H119.627c-.857-.224-1.629 1.574-1.629 2.474zM85.068 30.217c1.715.075 1.115-.974-1.286-2.323l-2.23.15h-.171c-.172.45-.086.974.171 1.049h.515c.343 0 .858.524 1.115 1.199h.943l.943-.075zm-.428 75.473c-.515 1.499.085 2.474 1.286 2.174l.943-.225c.6-.15 1.115-.6 1.715-.6 1.03-.075.944-.674.858-1.274 0-.3-.172-.824-.343-.899-.772-.225-1.2 0-1.287.824 0 .225-.857.525-1.2.45l-1.972-.45zm535.192 5.247c1.887 1.049 3.516 1.274 3.688.524l-1.115-.449c-.686-.3-1.544-.825-1.801-1.424-.429-1.125-1.286-.6-1.887-.675-.085 0-.6.974-.514 1.049l1.629.975zm-480.481-7.645c.857-.15.943-.525.171-.824l-.428-.15-1.201-.525c-.6.899-1.372 2.323-1.887 3.223l-.257.824-.086.3c.429.45.858.6 1.115.525.257-.225 1.715-3.298 2.573-3.373zm-81.724 29.68c.429.449 1.029.599 1.286.299h.172c1.715-.074 1.543-1.948 2.83-2.473l.171-.075c-.086-.599-.6-1.049-1.115-.974l-.343.225c-.943.524-.943 2.248-2.744 1.724 0 0-.514.674-.428.824l.171.45zm292.594-14.99c-.515-.3-.686.375-.429 1.574l-1.972-.15h-.086c-.172.6 0 1.274.429 1.499l.257-.075 1.286-.375c1.458-.599 1.029-2.173.515-2.473zm-201.437 8.994c-1.029.075-1.201.15-.343.075.857-.075 2.744 1.124 2.915.974.172-.15-.257-1.124-.771-2.024l-.515-.749c-.171-.225-.686-.6-.772-.525-.343.225-.857.675-.771.9l.257 1.349zM7.461 75.111c.428.9 1.2 1.124 1.715.525.514-.6 1.115-2.174.171-2.174l-.514-.224-.515-.3c-.514.075-1.286.6-1.715 1.05l.515.674.343.45zm409.391 44.595c.428 0-.086-.975-1.115-2.174l-1.201-.524c-.514-.225-1.715.599-2.487 1.049l-.085.075c.085.375.686.524 1.372.3l.686-.075.6-.075c.772.075 1.286.3 1.115.524-.172.3.686.9 1.115.9zm-85.84-7.945c-.601 0-.858.825-.686 1.874l.514.45.515.449c.943 0 1.715-.374 1.715-.899.086-.6-1.458-1.799-2.058-1.874zm94.93 2.473c-.601-.449-.944-.974-.772-1.199.171-.225.343-.749.086-.974l-.172.075c-1.629.45-1.715.899-.514 2.173l.257.3c.171.525.686 1.499 1.2 2.324l.858-.525c.943-.6.171-1.199-.343-1.724l-.6-.45zM72.72 26.769c-.515-1.499-1.458-2.323-1.973-1.948-.6.374-2.058 1.424-2.487 1.649-.428.224.944 1.274 1.544.6l.6-.076 2.316-.225zm608.855 33.727c-.171-.75-1.029-.974-1.801-.6l-.343.376c-.171.224.258.974.086 1.199-.429.374-1.115.45-1.629.75l-.258.149c-.171.3.258.6.858.75.686.15 3.259-1.95 3.087-2.624zM98.446 88.826c.343.75 1.03.825 1.458.226.429-.6.857-2.174.086-2.174l-.6-.15-.601-.15c-1.115-.524-.772 1.5-.343 2.249zm427.399 21.661c.858-.45 1.201-1.199.686-1.724l-.343-.15c-1.457-.749-2.486.45-3.773.75-.086 0-.171.524-.086.674.687.9 1.887.525 2.745.525l.771-.075zm-349.791-7.945c-.429-.749-1.287-1.049-1.887-.749-.6.375-1.544 1.574-.086 1.499l.944.225.771.225c.686.599 1.115.524.944-.15l-.343-.45-.343-.6zM99.99 134.021c1.372-.3 2.401-1.349 2.143-2.398l-.343-.825-.085-.15c-.515 0-1.029.225-1.115.45l.086.075c.6.45.343.824-.172 1.049-.686.225-1.458.3-2.144.525-.257.075-.514.599-.428.824 0 .225.514.6.771.6l1.287-.15zm337.528-13.191c-1.372.375-2.486 1.049-2.486 1.424s.171 1.499.343 1.574c.171.075.771.075.857-.225v-.225c0-.225-.086-.749 0-.749.943-.225 1.973-.375 2.83-.75l.343-.15c.257-.449 0-1.049-.429-1.274l-.343.075-1.115.3zm-367.885-9.444c-.43-1.124-1.03-1.124-1.373-.075h-.085c-1.63-.224-1.2 1.35-1.973 1.874-.343.225-.085 1.724.172 1.799 1.2.45 1.029-.525 1.2-1.199.172-.525.6-.975 1.03-1.424l1.029-.975zm27.355-98.182c0 .674.686.824 1.544.374.857-.45 1.115-2.473.514-2.473-.6 0-2.058 1.5-2.058 2.099zM637.154 31.19c.601-.224.429-.899-.428-1.424-.858-.524-2.144.15-1.973.525.172.525 1.801 1.124 2.401.9zM137.035 8.781c-1.8.6-2.143 1.575-.771 2.1l1.543-.9c.257-.15.772-.075 1.029-.225.258-.225.429-.674.343-.9-.085-.224-.686-.524-.857-.449l-1.287.375zm-13.892 124.116c-.343.075-.086.824.515 1.724l1.029-.9c.257-.225 1.115-1.124 2.144-.524l.257.149c.772-.449.857-1.049.171-1.349-.686-.299-3.773.825-4.116.9zm10.033-41.147c.515.45 1.373-.075 1.973-1.274l.086-.9v-.224c-.944-.375-2.573 1.948-2.059 2.398zm-4.544-3.823c.686.825.771 1.65.257 1.8l-.257.224c-.258.225-.429.675-.258.9.086.224.772.45.944.374l.771-.6c.772-.749 1.458-1.798 1.544-2.398l-.257-.3c-.258-.3-.944-.374-1.458-.3l-1.286.3zm-6.947 1.125c-.171.974 0 .824.429-.375l1.287.3.943.225c0-.75-.086-1.574-.257-1.949-.172-.375-2.23.75-2.402 1.799zm597.622 12.516c.515.375 1.629.375 2.315.075l-.771-.824-.515-.6c-.429-.75-.943-1.424-1.029-1.499-.086 0-.943.075-1.201.375-.171.225.687 2.098 1.201 2.473zm-614.601.974c-.943.45-1.115.825-.429.9.686.075-.428 1.574-.343 1.724.086.225.686.524 1.115.299l.172-.299c.257-.45-.258-1.349.771-1.349.944-.075 1.201-.525.858-1.125-.172-.299-.943-.449-1.372-.299l-.772.149zm540.166-74.723c-.257-.075-.343-.375-.171-.75.171-.375-.172-.45-1.201.75l-1.458.225c-.085 0-.257.524-.085.6.171.224.6.599.771.524.944-.15 1.887-.45 2.83-.675h.086c0-.225-.514-.6-.772-.674zm-295.337 95.035c-.858.374-1.115.974-.601 1.274.515.299 1.715.974 1.544.824-.172-.15-.172-.674.343-.899.6-.15-.429-1.574-1.286-1.199zm-254.348 9.818c-.171-.75-.857-.974-1.457-.6-.6.375-1.115 2.848-.858 3.523.343.749 2.487-2.174 2.315-2.923zm418.053-16.939c.171.675 1.114.675 2.058 0l.771.975c0 .075.429-.075.515-.225.086-.225.171-.6 0-.675l-1.201-.899c-1.629-1.049-2.401.15-2.143.824zm-183.6-10.342c-.601-.15-.944.224-.772.899h.171c1.201.075 1.458.674 1.287 1.649l-.086.449c.171.675.686.525 1.115-.374.514-.825-1.115-2.399-1.715-2.623zm208.211 2.773c-.172.299.171.599.858.674l.343-.075c.686-.15 1.457-.375 2.058-.674.686-.3.686-1.05.085-1.424l-1.286-.825c-.772.75-1.887 2.024-2.058 2.324zm44.506-3.298c-.686.225-.857.824-.428 1.274.428.45 1.801 1.199 2.058.525.257-.6-.944-2.024-1.63-1.799zM56.597 89.501c0 .6.601.975 1.373.675l.514-.225.43-.15c.428-.15.6-.674.428-1.05L59 88.528l-.686-.45c-.943-.524-1.715.825-1.715 1.424z" fill="#E7AE9A" fill-opacity=".5"/></svg>