<svg xmlns="http://www.w3.org/2000/svg" width="75" viewBox="0 0 6190 5120"><path d="M0 2560V0h6190v5120H0V2560zm3967 1728c-2-13-4-3-4 22s2 35 4 23c2-13 2-33 0-45zm-929-556c70-86 129-207 149-309 15-77 15-87-2-155-27-112-71-195-157-299-22-26-38-56-38-70 0-21-9-29-57-49-72-30-185-142-245-241-122-206-114-436 23-636 18-27 117-131 220-233 102-102 209-214 237-250 129-168 208-372 232-600 15-148 14-162-12-158-18 2-25 14-35 53-13 51-39 134-52 170-17 47-74 155-81 155-4 0-11 11-14 25-10 38-107 128-251 231-71 51-134 97-140 101-5 5-30 24-55 43-63 48-197 168-236 210-18 20-54 58-81 86-64 67-93 102-93 114 0 6-4 10-8 10s-14 16-21 35-17 35-22 35-9 7-9 15-14 43-30 77c-36 74-70 219-70 299 0 103 57 307 97 347 7 7 13 20 13 28s5 14 10 14c6 0 10 4 10 10 0 25 111 140 237 247 62 52 113 101 113 109s9 14 19 14c23 0 161 147 188 199 10 20 21 37 25 39 18 8 48 138 48 207 0 73-18 183-40 239-11 29-10 29 32-10 24-21 67-68 96-102zm-608-587c0-19 5-25 21-25 20 0 19-2-7-22-96-71-229-225-288-331-19-34-49-107-67-162-33-98-33-104-33-275 0-204 14-273 89-428 100-208 239-363 515-572 101-76 106-80 128-101 9-8 46-37 81-64 105-80 247-222 298-298 45-69 113-209 113-234 0-29-17-10-29 33-7 25-20 51-27 59-8 7-14 17-14 20 0 4-21 39-47 78-96 144-250 280-518 457-209 138-245 164-312 217-85 67-293 273-293 289 0 7-9 16-20 19s-20 13-20 21-4 14-10 14c-5 0-10 6-10 13s-8 22-19 33c-10 11-22 30-25 42-4 12-13 28-19 35-17 18-37 55-37 67 0 6-9 29-20 53-63 137-80 334-41 480 22 83 67 193 88 215 7 7 13 17 13 21 0 8 10 20 72 94 41 48 146 134 217 177 50 31 197 100 214 100 4 0 7-11 7-25zm1858-442c3-18-7-27-45-47-208-105-297-353-234-652 32-151 35-203 16-291-18-84-84-236-85-195 0 17-6 22-27 22h-28l-1 188c-1 161-4 201-25 287-18 77-24 128-24 220 0 106 3 130 29 208 16 48 33 87 38 87 4 0 8 7 8 15s3 15 8 15c4 0 14 11 22 24 24 38 111 105 165 126 35 13 70 19 115 17 59-2 65-4 68-24zm-758-39c0-19-1-34-3-34s-17 17-34 38l-30 38 33-4c31-4 34-7 34-38zm-383-99c39-17 107-68 153-118l29-31-42-11c-48-12-186-12-264 0-47 7-53 10-53 31 0 19-5 24-27 24-27 0-26 1 23 48 44 42 92 68 132 71 7 1 29-6 49-14zm1029-692c62-153 83-331 50-430-47-141-98-205-363-453-126-117-195-196-265-303-27-40-48-66-48-59s-12 12-29 12h-29l20 77c18 70 83 231 99 243 3 3 12 16 19 29 7 14 18 31 24 39 15 20 193 199 297 300 47 46 92 95 100 110s17 29 20 32c32 26 71 173 69 260-4 112 0 214 6 207 4-4 17-33 30-64zm-2371-35c57-113 140-230 233-329 123-130 197-189 487-386 153-103 268-187 363-265 97-78 119-99 82-76-33 20-273 153-375 208-137 74-189 103-232 132-23 15-45 28-49 28-37 0-379 309-413 374-8 14-18 26-22 26s-10 11-13 25c-4 14-10 25-15 25s-14 15-21 33c-7 17-16 41-20 52-19 46-48 143-55 183-10 64 9 52 50-30zm1854-32c47-25 91-66 91-86 0-26-36-29-87-8-23 10-84 24-135 31-89 11-93 13-93 37 0 22 6 26 55 37 64 14 128 10 169-11zm-246-301c69-35 144-67 166-71 23-4 44-11 47-15 3-5 22-9 43-9 33 0 39-4 43-24 4-22 3-23-32-15-20 5-98 31-173 59-75 27-143 50-151 50s-18 9-21 20c-4 11-20 27-36 36-16 8-27 19-24 24 4 6 8 10 10 10s60-29 128-65z" fill="none"/><g fill="#B70842"><path d="M2824 3944c4-16 8-37 9-46 1-10 5-18 10-18 15 0 45-82 68-185 13-55 27-101 31-103 11-5 10-62-1-62-5 0-13-25-16-55-4-30-11-55-16-55-4 0-13-16-20-35s-17-35-21-35-8-5-8-10c0-6-6-17-12-26-37-43-206-203-298-281-120-103-212-199-240-254-7-13-16-26-19-29-4-3-15-25-26-50s-22-47-26-50-17-39-30-80c-20-66-23-95-23-245v-170l37-79c21-44 36-85 33-93-3-7 1-13 8-13 15 0 39-47 31-61-4-5 1-9 10-9 11 0 15-5 11-15-3-9 0-15 9-15 8 0 15-4 15-9s27-37 61-72c33-35 75-80 93-99 39-43 175-163 236-210 25-19 50-38 55-43 6-4 64-46 129-93s141-104 168-127c56-49 103-111 93-126-3-6 0-11 8-11 18 0 81-116 73-135-2-7 2-16 11-19 9-4 13-14 10-26-3-11-1-20 5-20s8-6 5-14-1-16 4-18c12-4 32-86 24-99-4-5-1-9 4-9 6 0 11-6 11-14s6-16 13-19c9-3 9-11 0-35-6-18-7-32-2-32s9-6 9-14 4-17 9-20 9 15 9 41c1 25 4 48 6 51 9 8 24-41 31-99 8-61 8-62 35-66 16-2 20 3 20 26 0 15 3 50 7 76 5 41 4 47-9 43-13-5-16 14-21 130-5 117-15 192-41 308-13 59-62 183-103 256-68 124-127 195-332 398-195 193-233 240-281 343-92 196-40 409 147 603 56 59 153 128 153 109 0-2 15 3 33 13 21 11 49 16 85 14 56-3 73-22 20-22-66-1-176-70-234-148-30-40-26-38 46 27 14 13 52 37 85 54 53 27 70 31 140 31 91-1 146-23 243-97 59-45 205-234 198-254-3-7 1-13 8-13 16 0 29-27 20-41-3-5 1-9 8-9 14 0 78-119 78-144 0-8 7-16 15-20 10-4 15 1 16 17 0 15 8 6 25-30 29-65 54-71 54-14 0 60-14 85-20 36l-5-40-19 50c-44 117-125 263-184 329l-35 39 6 126c10 195 59 374 136 496 59 92-1 56-68-42-40-59-91-219-108-336-14-106-22-121-18-32 3 50 11 119 19 155 24 112 26 126 10 80-18-54-54-242-54-283 0-25-2-28-15-17-9 7-15 8-15 2 0-23-30-18-64 10-20 16-62 45-93 64-54 32-61 34-151 34-85 0-93 2-81 16 11 13 9 14-14 9-36-9-34 0 11 54 110 132 172 279 172 406-1 173-100 374-253 514-83 76-112 98-136 106-22 7-23 5-17-21zm626-3349c0-8-4-15-10-15-5 0-10 7-10 15s5 15 10 15c6 0 10-7 10-15z"/><path d="M2425 3174c-151-65-185-83-265-136-76-50-154-123-231-218-15-17-37-58-50-91-13-32-27-59-31-59-12 0-46-121-57-205-13-92-14-225-2-225 4 0 6-11 4-25-6-31 13-113 39-166 11-23 17-47 14-54-2-7 2-16 11-19 8-4 13-13 9-21-3-9 0-15 8-15 15 0 39-47 31-61-4-5 0-9 7-9 16 0 41-37 33-50-4-6 1-10 10-10 11 0 15-5 12-14-4-9 3-16 19-20 13-4 24-12 24-19 0-17 206-222 293-290 67-53 103-79 312-217 171-113 325-233 401-312 77-81 169-212 159-228-3-5 0-10 8-10 16 0 30-27 21-41-3-5 0-9 6-9s8-5 5-10c-3-6-1-10 6-10s9-3 6-7c-4-3-46 32-94 78-148 142-329 283-578 452-290 197-364 256-487 386-120 128-232 301-283 439l-14 37-1-40c-1-39-1-40-14-15l-14 25-7-38c-13-68 11-220 46-292 6-11 11-30 12-43 0-12 5-22 10-22 4 0 5-4 2-10-3-5 0-10 8-10 16 0 30-27 21-41-3-5 1-9 8-9 16 0 41-37 33-50-4-6 0-10 8-10 21 0 61-47 45-53-8-4-6-6 5-6 10-1 41-23 69-51 82-82 264-230 282-230 4 0 26-13 49-28 43-29 95-58 232-132 423-228 641-373 757-503 15-17 31-28 34-24 15 15-41 233-86 332-63 142-200 301-371 430-35 27-72 56-81 64-22 21-27 25-128 101-276 209-415 364-515 572-70 146-88 226-89 398 0 138 2 150 33 245 51 156 114 257 240 389 52 54 208 178 259 205 46 24 19-10-58-74-44-37-80-68-80-71 0-2 30 19 67 47s85 60 105 72c43 23 51 52 16 54-20 0-144-27-195-43-11-3-7 4 12 20 39 33 18 33-60 0zm906-2676c10-21 16-38 12-38-13 0-53 65-53 86 0 22 8 13 41-48z"/><path d="M2400 2953l-55-58 58 55c53 50 62 60 54 60-1 0-27-26-57-57zM4149 2726c-74-20-219-117-219-147 0-5-9-18-20-29s-23-34-27-50c-3-17-9-30-13-30s-15-28-26-62c-30-101-26-348 10-542 23-124 27-170 24-273-3-122-3-124 15-101l19 22-8-39c-4-22-15-63-25-92-14-42-15-51-3-46 8 3 14 8 14 12s8 16 18 27c57 64 124 201 147 304 24 108 19 196-20 376-18 78-16 200 3 272 50 186 210 331 367 332 51 1 58 3 43 14-10 7-43 19-75 27-57 13-57 14-20 17 20 2 35 7 32 13-9 13-182 10-236-5zM3035 2561c-24-11-64-45-95-81-51-59-53-63-27-57 31 8 34 1 10-25-15-17-14-18 22-18 20 0 63-7 94-15 40-10 67-12 89-6 17 5 46 6 64 2 21-5 53-3 83 5 28 7 69 13 93 14h44l-49 58c-26 32-71 77-99 100-49 41-54 42-120 41-43 0-84-7-109-18zM3185 2220c-3-5 9-26 28-45 35-36 67-46 67-22 0 16-32 47-48 47-7 0-12 7-12 15 0 17-25 20-35 5zM3056 2181c-20-22-14-41 13-41 20 0 51 30 51 48 0 19-45 14-64-7zM3193 2093c4-3 2-12-4-20-9-10-8-13 5-13 9 0 16 8 16 20 0 11-5 20-12 20-6 0-8-3-5-7zM3253 2033c-28-42-30-186-3-238 11-22 17-30 15-18-12 47-12 155-1 217 7 36 11 66 10 66-2 0-12-12-21-27z"/><path d="M4144 2010c8-48 1-51-18-7-13 30-14 25-9-58 4-49 9-91 12-92 9-4 3-182-9-237-11-53-59-169-72-174-4-2-8-8-8-13 0-15-100-116-203-207-96-84-207-208-207-231 0-6-4-11-10-11-5 0-10-6-10-14s-6-21-14-28c-21-21-46-75-46-98 0-11-4-20-9-20-13 0-49-138-53-205-4-49-2-55 6-32 12 32 31 37 22 5-3-13-8-61-12-108l-5-85 34 83c82 197 156 289 483 602 151 145 199 210 241 334 24 73 22 245-6 350-21 81-99 286-108 286-3 0-3-18 1-40zM3156 1935c-3-8-2-15 3-15s12-11 15-25c10-39 22-29 18 15-4 40-24 55-36 25zM3470 1813c-36-8-81-18-100-23l-35-7 35-8c28-7 30-10 15-15-36-13 23-37 118-49 107-13 159-35 215-92l42-43v28c0 15-5 36-10 47-13 24-1 25 42 3l31-16-22 37-22 37 30-4c40-6 31 8-44 72l-59 50-86-1c-47 0-114-7-150-16zM3863 1705c0-22 2-30 4-17 2 12 2 30 0 40-3 9-5-1-4-23z"/><path d="M3277 1563c-11-10-8-63 3-63 6 0 16-11 22-25s17-25 24-25c8 0 81-25 164-55 186-68 238-76 299-43 44 23 111 95 77 82-12-5-15-2-10 10 4 11 1 16-10 16-9 0-21-11-25-24-10-25-30-36-63-36-20 0-20 1-4 19 16 17 16 18-8 14-36-7-187 42-287 93-63 33-97 44-130 44-25 0-49-3-52-7zM3926 1360c-34-34-53-60-45-60 9 0 24 10 35 23 25 27 76 97 72 97-2 0-30-27-62-60z"/></g><g fill="#DB83A0"><path d="M2792 3983c23-27 50-82 43-92-2-5 1-11 9-14 18-7 59-115 53-139-3-10-1-18 5-18s8-11 6-25c-3-14-1-25 3-25 5 0 9-27 9-60s-4-60-9-60-7-9-4-20 1-20-3-20c-5 0-10-12-11-26 0-15-7-30-15-35-7-5-8-9-3-9 7 0 7-3 0-8-5-4-18-23-28-43-30-59-167-201-189-196-12 4-18 0-18-13 0-10-47-57-113-113-126-107-237-222-237-247 0-6-4-10-10-10-5 0-10-7-10-15s-5-15-11-15c-5 0-7-4-4-10 3-5 2-10-3-10s-15-18-22-40-16-40-20-40-7-6-7-12c-2-27-28-118-34-118-3 0-4-11-1-25 2-14 0-25-4-25-5 0-9-49-9-110 0-60 3-110 6-110 9 0 31-119 24-130-3-6-1-10 5-10 7 0 10-7 6-15-3-8-1-15 4-15 12 0 62-111 56-127-3-7 1-13 8-13 15 0 39-47 31-61-4-5 1-9 9-9s18 5 21 10 1 10-5 10-8 5-5 10c3 6 1 10-5 10s-8 5-5 10c3 6 1 10-5 10s-8 5-5 10c3 6 2 10-4 10s-8 7-5 15c4 8 1 15-6 15-6 0-8 5-5 10s2 10-4 10-8 7-5 15c4 8 1 15-5 15s-8 7-5 15c4 8 1 15-6 15s-9 8-5 20c3 11 2 20-3 20-6 0-8 9-5 20s0 20-6 20-8 11-4 30c3 17 2 30-3 30-10 0-9 186 1 213 4 9 5 24 2 32-4 8-2 17 4 21 6 3 8 12 5 20s-1 14 5 14 9 7 6 15c-4 8-2 17 4 20 5 4 7 10 4 15s-1 11 5 15 8 11 5 16c-4 5-2 9 2 9 5 0 17 23 28 50s22 50 26 50c3 0 11 11 17 25 14 30 16 33 84 109 29 32 100 99 158 149 92 78 261 238 298 281 6 9 12 20 12 26 0 5 5 10 10 10 6 0 10 7 10 15s5 15 11 15c5 0 7 5 4 10-3 6-1 10 5 10s9 4 6 9c-4 5-1 11 5 13s12 16 12 31c1 15 6 27 11 27 4 0 5 11 2 25-4 14-2 25 4 25s10 26 10 60-4 60-10 60-8 11-4 25c4 16 2 25-6 25-7 0-9 8-5 20 4 11 2 20-4 20s-8 7-5 15c4 8 1 15-6 15-6 0-8 5-5 10 3 6 2 10-3 10-6 0-8 9-5 20 3 12-1 22-11 26-9 3-13 10-10 15s0 9-6 9-8 5-5 10c3 6 2 10-4 10s-8 6-5 14-3 20-13 27c-19 15-27 49-12 49 5 0 9 5 9 10 0 6-6 10-13 10s-20 9-30 20c-9 11-24 20-33 20-15 0-16-2-2-17zM3618 3297c-18-20-38-42-43-49-21-26-65-137-82-204-10-38-20-71-23-74s-7-30-8-60c-2-30-7-56-11-58-5-1-6-25-3-53 3-37 1-54-9-60-11-6-7-15 16-39 47-49 57-41 50 38-13 130 33 345 106 490 27 53 46 98 44 100-2 3-19-11-37-31z"/><path d="M2472 3225c-170-51-288-110-405-205-39-32-87-75-105-97-64-75-72-86-72-94 0-4-6-14-13-21-14-15-67-130-67-147 0-6-4-11-10-11-5 0-7-7-4-15 4-8 2-15-4-15s-8-9-5-20 1-20-4-20c-6 0-8-11-5-25 2-14 0-25-5-25s-7-18-5-40 0-40-4-40c-5 0-9-29-9-65s4-65 9-65c4 0 6-18 4-40s-1-40 2-40c9 0 41-140 34-151-3-5 0-9 5-9 13 0 43-70 37-86-3-7 2-15 11-18 8-4 13-13 9-21-3-9 0-15 8-15 15 0 39-47 31-61-4-5 0-9 7-9 16 0 41-37 33-50-4-6 4-10 17-9 13 0 17 3 10 6-6 2-10 9-6 14 3 5-2 12-10 15-9 3-13 10-10 15s0 9-6 9-8 5-5 10c3 6 1 10-5 10s-8 5-5 10c3 6 1 10-5 10s-8 5-5 10c3 6 1 10-5 10s-8 5-5 10 2 10-4 10-8 7-5 15c4 8 1 15-6 15-6 0-8 5-5 10 3 6 2 10-4 10s-8 7-5 15c4 8 1 15-5 15s-8 7-5 15c4 8 2 15-4 15s-8 9-5 20 1 20-5 20-8 9-5 20 1 20-4 20c-6 0-8 11-5 25 2 14 0 25-5 25s-7 18-5 40c3 25 0 40-7 40-15 0-15 117 0 126 7 4 9 21 6 40s-1 36 4 40c5 3 7 14 4 25-4 11-2 19 5 19s10 8 7 20c-3 11-1 20 5 20s8 7 4 15c-3 8-1 15 5 15s9 7 5 15c-3 8-1 15 5 15s7 5 4 10c-3 6-2 10 2 10 5 0 17 23 28 50 11 28 23 50 28 50 4 0 6 4 2 9-3 6 1 13 9 18 8 4 15 11 15 16 2 25 141 164 214 215 76 52 195 115 237 125 14 3 42 22 63 40 20 19 53 42 72 51 34 17 47 37 23 35-7 0-50-11-96-24zM2965 2842c-43-38-45-42-18-28 18 9 34 16 35 15 2 0 16 4 31 10 36 14 137 14 137 1 0-5 18-10 40-10s40-4 40-10c0-5 11-10 25-10 31 0 96-30 89-42-3-4 2-8 10-8 28 0 17 17-32 48-92 59-141 76-227 78l-81 1-49-45zM4147 2760c-66-12-143-51-192-98-48-47-75-79-75-91 0-5-4-11-9-13-23-8-64-166-70-268-4-66-10-104-17-103-6 1-3-20 8-54 27-78 61-251 55-279-2-13 0-24 4-24 5 0 9-56 9-125s-3-125-7-125c-5 0-9-19-10-42s-6-44-12-46-9-7-6-11c2-5 0-22-5-40-6-22-5-31 3-31 15 0 39 15 38 24-2 17 1 23 27 51 27 30 27 32 27 163 0 72-3 132-7 132s-5 14-1 30c3 19 1 30-5 30-7 0-9 11-5 30 3 19 1 30-6 30s-9 9-5 25 2 25-5 25-9 9-5 25c4 15 2 25-4 25-7 0-9 14-5 35 3 19 2 35-3 35s-9 52-9 115 4 115 9 115c4 0 5 11 2 25-4 16-2 25 5 25 6 0 9 6 6 14-3 7 0 19 6 25s7 11 3 11c-5 0-3 7 4 15s9 15 6 15c-4 0 0 7 8 16 9 8 14 20 11 25-4 5-1 9 5 9s8 5 5 10c-3 6-1 10 5 10s8 5 5 10c-3 6 1 13 9 16 9 3 16 12 16 18 0 19 59 71 124 110 61 37 114 51 233 61 40 4 71 11 68 15-14 22-170 42-238 30zM3021 2597c-47-15-171-138-171-169 0-5 22-8 50-6 44 4 54 9 87 47 51 60 102 80 192 76 40-2 78-7 84-12 7-4 1 3-13 15-60 56-149 75-229 49zM3126 2463c-4-5-13-8-18-8-6 0-13-6-16-14-3-10 0-12 12-8 10 4 45 8 79 8 34 1 50 4 35 6-16 2-28 9-28 14 0 11-53 12-64 2zM3595 2440c-3-5 0-10 8-10 16 0 30-27 21-41-3-5 1-9 8-9 17 0 83-133 74-148-3-5 3-12 14-15 16-4 20 0 20 20 0 33-49 123-67 123-8 0-11 5-8 10 3 6 1 10-5 10s-8 5-5 10c3 6-1 13-9 16-9 3-14 10-11 15 3 4-3 13-14 19-13 7-22 7-26 0zM3007 2242c-30-18-35-39-12-49 28-10 65 40 44 61-2 3-17-3-32-12zM3151 2237c-7-18-4-24 22-34 40-17 47-16 47 6 0 20-14 34-43 44-13 5-20 0-26-16zM3190 2095c3-15-11-55-20-55-4 0-5-11-2-25 2-14 0-25-4-25-5 0-9-16-9-35s3-35 6-35c4 0 10-11 13-25 4-14 11-25 17-25s6 6 0 18c-6 11-4 49 4 107 9 60 10 93 4 100-7 7-10 7-9 0z"/><path d="M4088 2025c-2-19 0-35 5-35s7-13 5-30c-3-16-1-30 3-30 3 0 6-58 6-130 0-71-3-130-6-130s-7-17-8-37c-1-21-6-39-12-41-5-2-7-10-4-18s0-14-7-14c-6 0-9-4-5-9 3-5-2-17-11-25-8-9-12-16-7-16 4 0 3-4-2-8-6-4-16-19-24-34s-53-64-100-110c-104-101-282-280-297-300-6-8-17-25-24-39-7-13-16-26-19-29-11-9-81-169-88-200-3-17-9-30-13-30-5 0-6-9-3-20s0-20-6-20c-5 0-8-7-4-16 4-10-1-20-12-26-14-8-15-12-4-19s10-9-3-9c-11 0-18-8-18-20 0-11 5-20 10-20 17 0 11-22-11-41-20-17-18-46 2-34 5 4 9-8 9-25 0-43 13-31 41 40 13 33 30 60 37 60 10 0 13 8 10 25-3 14-1 28 4 31s7 12 4 20-1 14 5 14 9 7 5 15c-3 8-1 15 5 15s9 7 5 15c-3 8-1 15 5 15s9 6 6 14-1 16 4 18 11 13 12 26c0 12 5 22 10 22 4 0 5 5 2 10-3 6-1 10 5 10s8 4 5 10-1 10 5 10 8 5 5 10c-3 6-2 10 4 10s13 11 17 25c3 14 10 25 15 25s9 5 9 11c0 23 111 147 207 231 106 93 203 193 203 208 0 6 5 10 10 10 6 0 10 7 10 15s5 15 11 15c5 0 7 5 4 10-3 6-1 10 5 10s8 5 5 10c-3 6-1 10 5 10s8 5 5 10c-3 6-1 10 5 10 7 0 10 7 6 15-3 8-1 15 5 15s9 7 5 15c-3 8-1 15 5 15 7 0 9 10 5 25-4 16-2 25 5 25 8 0 10 13 5 39-3 24-1 51 6 66 9 20 9 31 0 45-7 11-9 38-5 69 4 35 2 51-5 51-8 0-10 15-5 45 4 30 2 45-5 45-6 0-20 20-31 45s-22 45-24 45c-3 0-7-16-9-35zM1708 1965c-1-30 1-55 6-55 4 0 6-16 4-35s0-35 5-35 7-11 5-25c-3-14-1-25 5-25 5 0 7-9 4-20s-1-20 3-20c11 0 33-67 26-79-3-5 1-12 10-15 10-4 14-14 11-26-3-11-1-20 5-20 5 0 6-4 3-10-3-5-1-10 5-10s8-4 5-10c-3-5 0-10 8-10 16 0 30-27 21-41-3-5 1-9 8-9 15 0 41-37 34-48-2-4 7-12 20-19 31-14 31 1 0 32-13 13-21 26-18 29s0 6-7 6-9 5-6 10c3 6 1 10-5 10s-8 5-5 10c3 6 1 10-5 10s-8 5-5 10c3 6 2 10-4 10s-8 7-5 15c4 8 2 15-2 15-5 0-10 12-11 27 0 15-6 29-12 31-5 2-7 10-4 18s1 14-5 14-8 9-5 20 1 20-4 20c-6 0-8 11-5 25 2 14 0 25-6 25s-8 16-5 40c4 28 2 40-7 40-8 0-11 11-8 32 5 33-25 118-42 118-4 0-10-25-12-55zM2316 1885c-3-8 0-15 7-15s25-19 41-41c15-22 30-38 33-35 7 6-27 56-39 56-5 0-6 5-3 10 7 11-12 40-25 40-4 0-10-7-14-15zM3418 1837c-54-13-100-26-104-29-10-10 55-39 90-41 17 0 45 3 61 7 65 16 93 19 183 19 50 1 92 3 92 7 0 3-19 17-42 30-60 34-156 36-280 7zM1965 1790c-3-5 3-10 14-10 12 0 21 5 21 10 0 6-6 10-14 10s-18-4-21-10zM3244 1585c-20-31-11-61 26-80 27-14 29-14 32 8 5 36 60 35 140-4 37-18 65-36 63-40-5-7 9-13 105-44 30-10 58-22 61-27 11-17 68 5 100 38 18 18 30 36 28 39-3 2-34-4-69-15-36-11-68-16-74-11s-28 12-50 15c-21 4-99 38-174 77-74 38-143 69-153 69s-26-11-35-25zM2372 1268c5-15 28-23 28-10 0 5-7 13-16 16-10 4-14 1-12-6zM3240 1000c12-23 19-48 16-55-2-7 2-16 11-19 9-4 13-14 10-26-3-11-1-20 5-20 5 0 8-6 6-12-3-7 2-19 10-27 7-8 12-25 9-38-2-12 0-23 6-23 5 0 7-9 4-20-3-10 0-21 6-23s12-24 12-50c0-38 3-47 18-47 12 0 17 8 17 31 0 16 4 28 9 25 4-3 6 6 3 19-2 14-8 25-13 25s-6 7-3 15c4 8 1 15-5 15s-8 7-5 15c4 8 1 15-5 15s-8 7-5 15c4 8 2 15-4 15s-8 9-5 20c3 12-1 22-11 26-9 3-13 10-10 15s1 9-5 9-8 6-5 14-3 23-14 34-18 23-14 26c3 3 0 6-6 6s-9 7-6 15c4 9 0 15-10 15-9 0-15 5-13 11 1 6-4 14-11 16-9 4-6-9 8-37zM3120 810c27-39 34-39 12 0-9 16-21 30-25 30-5 0 1-13 13-30zM3168 737c8-9 11-21 7-27-3-5 0-10 8-10 16 0 30-27 21-41-3-5 0-9 6-9s8-4 5-10c-3-5-1-10 5-10s9-4 6-9c-3-4 3-19 14-31s22-31 25-41c6-19 25-27 25-10 0 5 3 16 6 25 4 10-6 28-27 48-18 18-32 34-31 36 8 10-1 32-13 32-9 0-12 6-9 15 4 10 0 15-11 15-9 0-14 4-10 9 3 6-5 15-17 22-21 11-22 11-10-4zM3344 471c4-5 0-11-6-14-10-3-8-9 4-23 10-10 20-15 23-12 9 8-6 58-17 58-5 0-7-4-4-9z"/></g><g fill="#282828"><path d="M1981 4528c-1-10-10-27-21-38-18-18-33-20-170-20-93 0-150-4-150-10 0-5 7-10 15-10 24 0 22-155-2-169-14-8-4-10 42-11 46 0 56 3 47 12-7 7-12 43-12 90v78h60v-76c0-61-4-79-17-90-16-12-10-13 42-14 46 0 56 3 47 12-7 7-12 43-12 90v78h60v-78c0-47-5-83-12-90-9-9 0-12 42-12s51 3 42 12c-19 19-16 157 3 164 16 7 19 47 5 79-7 17-9 17-9 3zM613 4449c15-11 43-45 63-75s45-61 56-69c20-14 20-14-11-54-41-51-78-81-102-81-11 0-19-4-19-10s32-10 75-10 75 4 75 10-7 10-15 10c-23 0-18 21 15 73 19 31 37 47 50 47 18 0 20-6 20-60 0-53-2-60-20-60-11 0-20-4-20-10s30-10 70-10 70 4 70 10-6 10-14 10c-18 0-26 22-26 76 0 39 3 44 23 44 15 0 30-13 50-44 28-44 35-76 17-76-5 0-10-4-10-10s30-10 70-10c71 0 94 13 41 23-20 4-44 25-75 63l-46 56 23 18c13 11 41 44 62 74 21 31 46 58 57 61 34 12 18 25-31 25h-49l-48-72c-62-92-84-99-84-30 0 60 7 82 26 82 8 0 14 5 14 10 0 6-30 10-70 10-67 0-93-12-50-23 17-4 20-14 20-66 0-83-17-80-80 14l-51 75h-52l-52-1 28-20z"/><path d="M1159 4441c-57-57-30-148 50-172 54-16 96 4 96 46 0 29-1 30-57 33-66 3-74 19-36 67 18 24 26 26 60 21 21-3 38-3 38 0 0 17-39 33-78 34-35 0-49-6-73-29zm91-131c0-19-31-23-48-6-15 15-14 16 16 16 18 0 32-5 32-10zM1363 4456c13-10 17-28 17-88 0-44-5-79-12-86-9-9 1-12 47-12 46 1 56 3 43 11-12 6-18 22-18 44 0 33 2 35 35 35s35-2 35-33c0-18-5-38-12-45-9-9 1-12 48-12 45 1 55 3 42 11-25 14-27 169-2 169 8 0 12 5 9 10-3 6-28 10-56 10-27 0-49-4-49-10 0-5 5-10 10-10 6 0 10-16 10-35 0-33-2-35-35-35s-35 2-35 31c0 19 7 37 18 45 15 12 8 13-48 13s-63-1-47-13zM2060 4380c0-73-3-90-15-90-8 0-15-4-15-10 0-5 25-10 55-10 49 0 73 12 44 22-6 2-9 23-7 51l3 47 48-60c68-83 77-80 77 26 0 71 3 89 18 100 15 12 8 13-48 13-57 0-63-1-47-13 14-11 17-25 15-61l-3-48-49 62c-68 84-76 81-76-29zM2320 4460c0-5 5-10 10-10 15 0 13-153-2-168-9-9 1-12 48-12 45 1 55 3 42 11-12 6-18 22-18 45 0 35 1 35 38 32 32-3 37-7 40-29 2-15-4-34-13-43-15-15-12-16 42-16 44 1 54 3 41 11-25 14-27 169-3 169 8 0 15 5 15 10 0 6-25 10-55 10-59 0-63-3-39-27 8-9 14-25 12-37-2-16-11-22-40-24-36-3-38-2-38 28 0 18 6 33 15 36 32 13 13 24-40 24-30 0-55-4-55-10zM2623 4463c-7-2-13-15-13-28 0-27 12-38 63-56 34-12 37-16 37-51 0-47-25-53-35-8-5 23-12 30-31 30-38 0-42-29-9-56 38-30 83-38 111-19 20 13 24 25 26 87 3 63 5 73 21 70 29-5 19 15-14 28-23 10-36 10-49 3-10-7-22-8-31-2-15 9-56 11-76 2zm87-54c0-24-23-21-28 4-2 10 3 17 12 17 10 0 16-9 16-21zM2980 4460c0-5 5-10 10-10 15 0 13-153-2-168-9-9 1-12 48-12 45 1 55 3 42 11-12 6-18 22-18 44 0 33 2 35 35 35 34 0 35-1 35-39 0-22-5-42-12-44-7-3 14-6 47-6 45 0 56 2 43 10-25 14-27 169-3 169 8 0 15 5 15 10 0 6-25 10-55 10s-55-4-55-10c0-5 5-10 10-10 6 0 10-16 10-35 0-33-2-35-35-35-32 0-35 2-35 30 0 18 6 33 15 36 32 13 13 24-40 24-30 0-55-4-55-10zM3277 4463c-12-11-8-50 6-61 6-5 29-15 50-23 34-12 37-16 37-51 0-46-21-51-37-8-8 20-18 30-32 30-35 0-38-30-6-56 38-30 83-38 111-19 20 13 24 25 26 87 2 52 7 72 16 70 22-4 12 18-14 30-19 9-30 9-43 1-11-7-23-8-32-2-16 10-73 12-82 2zm93-54c0-24-23-21-28 4-2 10 3 17 12 17 10 0 16-9 16-21zM3640 4465c0-3 9-14 20-25 18-18 20-33 20-135 0-104-2-116-20-127-31-20-24-28 25-28 50 0 53 4 125 142 19 37 37 68 40 68s14-21 24-48c67-163 66-162 113-162 44 0 58 14 24 23-18 4-19 12-15 118 6 138 10 159 29 159 8 0 15 5 15 10 0 6-30 10-70 10-66 0-93-12-52-22 16-5 18-15 14-94-2-49-5-90-6-91-2-2-22 44-46 102-23 58-46 105-50 105s-31-46-60-102c-29-57-54-105-56-107s-4 37-4 88c0 84 2 93 20 98 39 10 19 23-35 23-30 0-55-2-55-5zM4100 4380c0-53-4-90-10-90-5 0-10-4-10-10s26-10 58-10c49 1 55 2 40 14-13 9-18 27-18 62v49l36-40c19-22 42-50 51-62 31-46 43-29 43 59 0 62 4 86 17 100 15 17 14 18-40 18-32 0-57-4-57-10 0-5 5-10 10-10 6 0 10-23 10-51v-51l-52 61c-28 34-57 61-65 61-10 0-13-21-13-90zM4340 4460c0-5 5-10 10-10 9 0 45-70 79-157 8-18 17-33 20-33 4 0 27 43 50 95 24 53 50 95 57 95 8 0 14 5 14 10 0 6-27 10-60 10-54 0-79-12-48-22 9-3 8-15-6-46-11-23-22-42-26-42-13 0-33 84-21 88 26 9 8 22-29 22-22 0-40-4-40-10zM4590 4460c0-5 5-10 10-10 10 0 90-161 90-181 0-29 23 2 63 86 25 52 51 95 57 95 5 0 10 5 10 10 0 6-27 10-60 10-56 0-59-1-49-18 9-14 7-27-9-58l-20-39-16 37c-19 43-20 58-6 58 6 0 10 5 10 10 0 6-18 10-40 10s-40-4-40-10zM4860 4380c0-53-4-90-10-90-5 0-10-4-10-10 0-5 25-10 55-10 53 0 72 11 40 24-11 4-15 20-15 53l1 48 57-63c31-34 60-62 65-62 4 0 7 36 7 79 0 57 4 84 15 95 23 23 19 26-40 26-53 0-72-11-40-24 11-4 15-20 15-53l-1-48-57 63c-31 34-63 62-69 62-10 0-13-25-13-90zM5155 4440c-54-57-32-149 41-169 80-22 144 20 144 96 0 36-6 50-29 74-25 24-38 29-78 29-42 0-54-5-78-30zm116-17c18-48-11-133-46-133-26 0-35 17-35 66 0 78 58 126 81 67zM5390 4460c0-5 5-10 10-10 15 0 13-153-2-168-9-9 1-12 48-12 45 1 55 3 42 11-12 6-18 22-18 44 0 33 2 35 35 35 34 0 35-1 35-39 0-22-5-42-12-44-7-3 14-6 47-6 45 0 56 2 43 10-25 14-27 169-3 169 8 0 15 5 15 10 0 6-25 10-55 10s-55-4-55-10c0-5 5-10 10-10 6 0 10-16 10-35 0-33-2-35-35-35-32 0-35 2-35 30 0 18 6 33 15 36 32 13 13 24-40 24-30 0-55-4-55-10z"/></g></svg>