<svg width="20" height="20" viewBox="0 0 20 20" fill="none" xmlns="http://www.w3.org/2000/svg">
<path d="M12.4878 4.2854H1.25C0.560313 4.28665 0.00125 4.84571 0 5.5354V16.7732C0.00125 17.4629 0.560313 18.022 1.25 18.0232H12.4878C13.1775 18.022 13.7366 17.4629 13.7378 16.7732V5.53415C13.7356 4.84478 13.1772 4.28665 12.4878 4.2854Z" fill="black"/>
<path d="M12.8003 18.3347H1.5625C0.699688 18.3347 0 17.6351 0 16.7722V5.53442C0 4.67161 0.699688 3.97192 1.5625 3.97192H12.8003C13.6631 3.97192 14.3628 4.67161 14.3628 5.53442V16.7732C14.3622 17.6357 13.6628 18.3347 12.8003 18.3347ZM1.5625 4.59817C1.04469 4.59817 0.625 5.01786 0.625 5.53567V16.7732C0.625 17.291 1.04469 17.7107 1.5625 17.7107H12.8003C13.3181 17.7107 13.7378 17.291 13.7378 16.7732V5.53442C13.7378 5.01661 13.3181 4.59692 12.8003 4.59692L1.5625 4.59817Z" fill="#E04F5F"/>
<path d="M9.53123 13.9581L5.01404 8.6306L5.96654 7.8231L9.56654 12.069L19.0781 1.66528L20 2.5081L9.53123 13.9581Z" fill="white"/>
</svg>
