<svg width="43" height="43" viewBox="0 0 43 43" fill="none" xmlns="http://www.w3.org/2000/svg">
<g clip-path="url(#clip0)">
<path d="M43.0001 21.5006C43.0001 28.599 37.2667 34.4006 30.1001 34.4006C23.0017 34.4006 17.2001 28.599 17.2001 21.5006C17.2001 14.4022 22.9334 8.60059 30.0318 8.60059C37.2667 8.60059 43.0001 14.4022 43.0001 21.5006Z" fill="#FFB600"/>
<path d="M30.1001 8.60059C37.1985 8.60059 43.0001 14.4022 43.0001 21.5006C43.0001 28.599 37.2667 34.4006 30.1001 34.4006C23.0017 34.4006 17.2001 28.599 17.2001 21.5006" fill="#F7981D"/>
<path d="M30.1 8.60059C37.1984 8.60059 43 14.4022 43 21.5006C43 28.599 37.2666 34.4006 30.1 34.4006" fill="#FF8500"/>
<path d="M12.7635 8.60059C5.73333 8.66884 0 14.4022 0 21.5006C0 28.599 5.73333 34.4006 12.9 34.4006C16.2444 34.4006 19.2476 33.1038 21.5683 31.0561C22.046 30.6466 22.4556 30.1688 22.8651 29.6911H20.2032C19.8619 29.2815 19.5206 28.8038 19.2476 28.3942H23.8206C24.0937 27.9847 24.3667 27.5069 24.5714 27.0292H18.4968C18.2921 26.6196 18.0873 26.1419 17.9508 25.6641H25.0492C25.4587 24.3672 25.7317 23.0022 25.7317 21.5688C25.7317 20.6133 25.5952 19.726 25.4587 18.8387H17.5413C17.6095 18.3609 17.746 17.9514 17.8825 17.4736H24.981C24.8444 16.9958 24.6397 16.518 24.4349 16.1085H18.4286C18.6333 15.6307 18.9063 15.2212 19.1794 14.7434H23.7524C23.4794 14.2657 23.1381 13.7879 22.7286 13.3784H20.2032C20.6127 12.9006 21.0222 12.4911 21.5 12.0815C19.2476 9.96567 16.1762 8.73709 12.8317 8.73709C12.8317 8.60059 12.8317 8.60059 12.7635 8.60059Z" fill="#FF5050"/>
<path d="M0 21.4998C0 28.5982 5.73333 34.3998 12.9 34.3998C16.2444 34.3998 19.2476 33.103 21.5683 31.0554C22.046 30.6458 22.4556 30.1681 22.8651 29.6903H20.2032C19.8619 29.2808 19.5206 28.803 19.2476 28.3935H23.8206C24.0937 27.9839 24.3667 27.5062 24.5714 27.0284H18.4968C18.2921 26.6189 18.0873 26.1411 17.9508 25.6633H25.0492C25.4587 24.3665 25.7317 23.0014 25.7317 21.5681C25.7317 20.6125 25.5952 19.7252 25.4587 18.8379H17.5413C17.6095 18.3601 17.746 17.9506 17.8825 17.4728H24.981C24.8444 16.9951 24.6397 16.5173 24.4349 16.1078H18.4286C18.6333 15.63 18.9063 15.2205 19.1794 14.7427H23.7524C23.4794 14.2649 23.1381 13.7871 22.7286 13.3776H20.2032C20.6127 12.8998 21.0222 12.4903 21.5 12.0808C19.2476 9.9649 16.1762 8.73633 12.8317 8.73633H12.7635" fill="#E52836"/>
<path d="M12.9001 34.3998C16.2445 34.3998 19.2477 33.103 21.5683 31.0554C22.0461 30.6458 22.4556 30.1681 22.8651 29.6903H20.2032C19.862 29.2808 19.5207 28.803 19.2477 28.3935H23.8207C24.0937 27.9839 24.3667 27.5062 24.5715 27.0284H18.4969C18.2921 26.6189 18.0874 26.1411 17.9509 25.6633H25.0493C25.4588 24.3665 25.7318 23.0014 25.7318 21.5681C25.7318 20.6125 25.5953 19.7252 25.4588 18.8379H17.5413C17.6096 18.3601 17.7461 17.9506 17.8826 17.4728H24.981C24.8445 16.9951 24.6397 16.5173 24.435 16.1078H18.4286C18.6334 15.63 18.9064 15.2205 19.1794 14.7427H23.7524C23.4794 14.2649 23.1382 13.7871 22.7286 13.3776H20.2032C20.6128 12.8998 21.0223 12.4903 21.5001 12.0808C19.2477 9.9649 16.1762 8.73633 12.8318 8.73633H12.7635" fill="#CB2026"/>
<path d="M17.4729 24.7759L17.6777 23.6156C17.6094 23.6156 17.4729 23.6838 17.3364 23.6838C16.8586 23.6838 16.7904 23.4108 16.8586 23.2743L17.2681 20.8854H18.0189L18.2237 19.5886H17.5412L17.6777 18.7695H16.3126C16.3126 18.7695 15.4935 23.2743 15.4935 23.8203C15.4935 24.6394 15.9713 24.9806 16.5856 24.9806C16.9951 24.9806 17.3364 24.8441 17.4729 24.7759Z" fill="white"/>
<path d="M17.9508 22.5918C17.9508 24.5029 19.2476 24.9807 20.3397 24.9807C21.3635 24.9807 21.773 24.7759 21.773 24.7759L22.046 23.4791C22.046 23.4791 21.2953 23.8204 20.6127 23.8204C19.1111 23.8204 19.3841 22.7283 19.3841 22.7283H22.1826C22.1826 22.7283 22.3873 21.841 22.3873 21.4997C22.3873 20.6124 21.9095 19.5204 20.4079 19.5204C18.9746 19.3838 17.9508 20.8854 17.9508 22.5918ZM20.3397 20.6124C21.0905 20.6124 20.954 21.4997 20.954 21.568H19.4524C19.4524 21.4997 19.5889 20.6124 20.3397 20.6124Z" fill="white"/>
<path d="M29.0079 24.7759L29.2809 23.2743C29.2809 23.2743 28.5984 23.6156 28.1206 23.6156C27.165 23.6156 26.7555 22.8648 26.7555 22.0457C26.7555 20.4077 27.5745 19.5204 28.5301 19.5204C29.2126 19.5204 29.7587 19.9299 29.7587 19.9299L29.9634 18.4965C29.9634 18.4965 29.1444 18.1553 28.3936 18.1553C26.8237 18.1553 25.2539 19.5204 25.2539 22.114C25.2539 23.8203 26.073 24.9807 27.711 24.9807C28.2571 24.9807 29.0079 24.7759 29.0079 24.7759Z" fill="white"/>
<path d="M9.96499 19.3838C9.00943 19.3838 8.32689 19.6568 8.32689 19.6568L8.12213 20.8171C8.12213 20.8171 8.73642 20.5441 9.62372 20.5441C10.1015 20.5441 10.511 20.6124 10.511 21.0219C10.511 21.2949 10.4428 21.3632 10.4428 21.3632C10.4428 21.3632 10.0332 21.3632 9.82848 21.3632C8.66816 21.3632 7.37134 21.8409 7.37134 23.4108C7.37134 24.6393 8.19038 24.9124 8.66816 24.9124C9.62372 24.9124 10.0332 24.2981 10.1015 24.2981L10.0332 24.8441H11.2618L11.8078 21.0901C11.8078 19.452 10.4428 19.3838 9.96499 19.3838ZM10.238 22.4552C10.238 22.66 10.1015 23.752 9.28245 23.752C8.87292 23.752 8.73642 23.4108 8.73642 23.206C8.73642 22.8647 8.94118 22.387 9.96499 22.387C10.1697 22.4552 10.238 22.4552 10.238 22.4552Z" fill="white"/>
<path d="M13.1048 24.9123C13.446 24.9123 15.1524 24.9805 15.1524 23.1377C15.1524 21.4313 13.5143 21.7726 13.5143 21.09C13.5143 20.7488 13.7873 20.6123 14.2651 20.6123C14.4698 20.6123 15.2206 20.6805 15.2206 20.6805L15.4254 19.4519C15.4254 19.4519 14.9476 19.3154 14.1286 19.3154C13.1048 19.3154 12.0809 19.725 12.0809 21.09C12.0809 22.6599 13.7873 22.5234 13.7873 23.1377C13.7873 23.5472 13.3095 23.6154 12.9682 23.6154C12.354 23.6154 11.7397 23.4107 11.7397 23.4107L11.5349 24.6392C11.6032 24.7757 11.9444 24.9123 13.1048 24.9123Z" fill="white"/>
<path d="M40.338 18.292L40.065 20.1348C40.065 20.1348 39.5189 19.4523 38.7681 19.4523C37.5396 19.4523 36.4475 20.9539 36.4475 22.7285C36.4475 23.8206 36.9935 24.9809 38.1539 24.9809C38.9729 24.9809 39.4507 24.4348 39.4507 24.4348L39.3824 24.9126H40.7475L41.7713 18.3602L40.338 18.292ZM39.7237 21.9095C39.7237 22.6602 39.3824 23.6158 38.6316 23.6158C38.1539 23.6158 37.8808 23.2063 37.8808 22.5237C37.8808 21.4317 38.3586 20.7491 38.9729 20.7491C39.4507 20.7491 39.7237 21.0904 39.7237 21.9095Z" fill="white"/>
<path d="M2.52534 24.8444L3.34439 19.9301L3.4809 24.8444H4.43645L6.21106 19.9301L5.46026 24.8444H6.8936L7.98566 18.292H5.73328L4.3682 22.319L4.29994 18.292H2.32058L1.22852 24.8444H2.52534Z" fill="white"/>
<path d="M23.6841 24.8443C24.0936 22.5919 24.1619 20.7491 25.1174 21.0903C25.2539 20.203 25.4587 19.8618 25.5952 19.5205C25.5952 19.5205 25.5269 19.5205 25.3222 19.5205C24.7079 19.5205 24.2301 20.3396 24.2301 20.3396L24.3666 19.5888H23.0698L22.1825 24.9126H23.6841V24.8443Z" fill="white"/>
<path d="M32.1476 19.3838C31.192 19.3838 30.5095 19.6568 30.5095 19.6568L30.3047 20.8171C30.3047 20.8171 30.919 20.5441 31.8063 20.5441C32.2841 20.5441 32.6936 20.6124 32.6936 21.0219C32.6936 21.2949 32.6254 21.3632 32.6254 21.3632C32.6254 21.3632 32.2159 21.3632 32.0111 21.3632C30.8508 21.3632 29.554 21.8409 29.554 23.4108C29.554 24.6393 30.373 24.9124 30.8508 24.9124C31.8063 24.9124 32.2159 24.2981 32.2841 24.2981L32.2159 24.8441H33.4444L33.9905 21.0901C34.0587 19.452 32.6254 19.3838 32.1476 19.3838ZM32.4889 22.4552C32.4889 22.66 32.3524 23.752 31.5333 23.752C31.1238 23.752 30.9873 23.4108 30.9873 23.206C30.9873 22.8647 31.192 22.387 32.2159 22.387C32.4206 22.4552 32.4206 22.4552 32.4889 22.4552Z" fill="white"/>
<path d="M35.1508 24.8443C35.5603 22.5919 35.6285 20.7491 36.5841 21.0903C36.7206 20.203 36.9254 19.8618 37.0619 19.5205C37.0619 19.5205 36.9936 19.5205 36.7889 19.5205C36.1746 19.5205 35.6968 20.3396 35.6968 20.3396L35.8333 19.5888H34.5365L33.6492 24.9126H35.1508V24.8443Z" fill="white"/>
<path d="M15.3571 23.8203C15.3571 24.6394 15.8348 24.9806 16.4491 24.9806C16.9269 24.9806 17.3364 24.8441 17.4729 24.7759L17.6777 23.6156C17.6094 23.6156 17.4729 23.6838 17.3364 23.6838C16.8586 23.6838 16.7904 23.4108 16.8586 23.2743L17.2682 20.8854H18.019L18.2237 19.5886H17.5412L17.6777 18.7695" fill="#DCE5E5"/>
<path d="M18.6333 22.5918C18.6333 24.5029 19.2476 24.9807 20.3397 24.9807C21.3635 24.9807 21.773 24.7759 21.773 24.7759L22.046 23.4791C22.046 23.4791 21.2952 23.8204 20.6127 23.8204C19.1111 23.8204 19.3841 22.7283 19.3841 22.7283H22.1825C22.1825 22.7283 22.3873 21.841 22.3873 21.4997C22.3873 20.6124 21.9095 19.5204 20.4079 19.5204C18.9746 19.3838 18.6333 20.8854 18.6333 22.5918ZM20.3397 20.6124C21.0904 20.6124 21.227 21.4997 21.227 21.568H19.4523C19.4523 21.4997 19.5889 20.6124 20.3397 20.6124Z" fill="#DCE5E5"/>
<path d="M29.0078 24.7759L29.2808 23.2743C29.2808 23.2743 28.5983 23.6156 28.1205 23.6156C27.165 23.6156 26.7554 22.8648 26.7554 22.0457C26.7554 20.4077 27.5745 19.5204 28.5301 19.5204C29.2126 19.5204 29.7586 19.9299 29.7586 19.9299L29.9634 18.4965C29.9634 18.4965 29.1443 18.1553 28.3935 18.1553C26.8237 18.1553 25.9364 19.5204 25.9364 22.114C25.9364 23.8203 26.0729 24.9807 27.711 24.9807C28.257 24.9807 29.0078 24.7759 29.0078 24.7759Z" fill="#DCE5E5"/>
<path d="M8.12213 20.8856C8.12213 20.8856 8.73642 20.6126 9.62372 20.6126C10.1015 20.6126 10.511 20.6808 10.511 21.0903C10.511 21.3634 10.4428 21.4316 10.4428 21.4316C10.4428 21.4316 10.0332 21.4316 9.82848 21.4316C8.66816 21.4316 7.37134 21.9094 7.37134 23.4792C7.37134 24.7078 8.19038 24.9808 8.66816 24.9808C9.62372 24.9808 10.0332 24.3665 10.1015 24.3665L10.0332 24.9126H11.2618L11.8078 21.1586C11.8078 19.5888 10.4428 19.5205 9.89673 19.5205L8.12213 20.8856ZM10.9205 22.4554C10.9205 22.6602 10.1015 23.7522 9.28245 23.7522C8.87292 23.7522 8.73642 23.411 8.73642 23.2062C8.73642 22.8649 8.94118 22.3872 9.96499 22.3872C10.1697 22.4554 10.9205 22.4554 10.9205 22.4554Z" fill="#DCE5E5"/>
<path d="M11.6031 24.7757C11.6031 24.7757 12.0127 24.9123 13.173 24.9123C13.5143 24.9123 15.2206 24.9805 15.2206 23.1377C15.2206 21.4313 13.5825 21.7726 13.5825 21.09C13.5825 20.7488 13.8555 20.6123 14.3333 20.6123C14.5381 20.6123 15.2889 20.6805 15.2889 20.6805L15.4936 19.4519C15.4936 19.4519 15.0158 19.3154 14.1968 19.3154C13.173 19.3154 12.8317 19.725 12.8317 21.09C12.8317 22.6599 13.8555 22.5234 13.8555 23.1377C13.8555 23.5472 13.3778 23.6154 13.0365 23.6154" fill="#DCE5E5"/>
<path d="M40.065 20.134C40.065 20.134 39.519 19.4514 38.7682 19.4514C37.5396 19.4514 37.1301 20.953 37.1301 22.7276C37.1301 23.8197 36.9936 24.98 38.1539 24.98C38.9729 24.98 39.4507 24.434 39.4507 24.434L39.3825 24.9118H40.7475L41.7713 18.3594L40.065 20.134ZM39.9967 21.9086C39.9967 22.6594 39.3825 23.6149 38.6317 23.6149C38.1539 23.6149 37.8809 23.2054 37.8809 22.5229C37.8809 21.4308 38.3586 20.7483 38.9729 20.7483C39.4507 20.7483 39.9967 21.0895 39.9967 21.9086Z" fill="#DCE5E5"/>
<path d="M2.52534 24.8444L3.34439 19.9301L3.4809 24.8444H4.43645L6.21106 19.9301L5.46026 24.8444H6.8936L7.98566 18.292H6.27931L4.3682 22.319L4.29994 18.292H3.54915L1.22852 24.8444H2.52534Z" fill="#DCE5E5"/>
<path d="M22.2507 24.8443H23.6841C24.0936 22.5919 24.1618 20.7491 25.1174 21.0904C25.2539 20.203 25.4587 19.8618 25.5952 19.5205C25.5952 19.5205 25.5269 19.5205 25.3222 19.5205C24.7079 19.5205 24.2301 20.3396 24.2301 20.3396L24.3666 19.5888" fill="#DCE5E5"/>
<path d="M30.3047 20.8856C30.3047 20.8856 30.919 20.6126 31.8063 20.6126C32.2841 20.6126 32.6936 20.6808 32.6936 21.0903C32.6936 21.3634 32.6254 21.4316 32.6254 21.4316C32.6254 21.4316 32.2159 21.4316 32.0111 21.4316C30.8508 21.4316 29.554 21.9094 29.554 23.4792C29.554 24.7078 30.373 24.9808 30.8508 24.9808C31.8063 24.9808 32.2159 24.3665 32.2841 24.3665L32.2159 24.9126H33.4444L33.9905 21.1586C33.9905 19.5888 32.6254 19.5205 32.0793 19.5205L30.3047 20.8856ZM33.1032 22.4554C33.1032 22.6602 32.2841 23.7522 31.4651 23.7522C31.0555 23.7522 30.919 23.411 30.919 23.2062C30.919 22.8649 31.1238 22.3872 32.1476 22.3872C32.4206 22.4554 33.1032 22.4554 33.1032 22.4554Z" fill="#DCE5E5"/>
<path d="M33.7174 24.8443H35.1507C35.5603 22.5919 35.6285 20.7491 36.5841 21.0904C36.7206 20.203 36.9253 19.8618 37.0618 19.5205C37.0618 19.5205 36.9936 19.5205 36.7888 19.5205C36.1745 19.5205 35.6968 20.3396 35.6968 20.3396L35.8333 19.5888" fill="#DCE5E5"/>
</g>
<defs>
<clipPath id="clip0">
<rect width="43" height="43" fill="white"/>
</clipPath>
</defs>
</svg>
