<svg width="31" height="31" viewBox="0 0 31 31" fill="none" xmlns="http://www.w3.org/2000/svg">
<g clip-path="url(#clip0)">
<path d="M29.6384 17.7833C30.5548 10.0688 29.198 5.19838 26.7507 2.9955L26.752 2.99422C22.8019 -0.767695 9.46172 -1.3245 4.73596 3.16318C2.61372 5.35838 1.8662 8.58015 1.78428 12.5686C1.70236 16.5584 1.60508 24.0323 8.56956 26.0598H8.57596L8.56956 29.1561C8.56956 29.1561 8.5222 30.4105 9.32348 30.6627C10.24 30.9597 10.6547 30.3773 13.5052 26.9725C18.272 27.3859 21.9328 26.4387 22.3488 26.3005C23.3113 25.9779 28.7577 25.2573 29.6384 17.7833ZM13.975 24.7939C13.975 24.7939 10.958 28.5558 10.0198 29.5325C9.7126 29.8499 9.37596 29.8205 9.38108 29.1907C9.38108 28.7773 9.40412 24.0502 9.40412 24.0502C3.49948 22.3581 3.84764 15.9939 3.91164 12.6646C3.97564 9.33407 4.58492 6.60638 6.38204 4.76958C10.528 0.882225 22.2233 1.75134 25.2032 4.55198C28.846 7.78142 27.5494 16.9053 27.5571 17.2163C26.8083 23.455 22.3948 23.8505 21.5833 24.1206C21.2364 24.2358 18.0172 25.064 13.975 24.7939V24.7939Z" fill="#8E24AA"/>
<path d="M15.6441 5.50098C15.1513 5.50098 15.1513 6.26898 15.6441 6.27538C19.4675 6.30482 22.6163 8.96978 22.6508 13.8581C22.6508 14.3739 23.406 14.3675 23.3996 13.8517H23.3984C23.3574 8.5845 19.9193 5.53042 15.6441 5.50098V5.50098Z" fill="#8E24AA"/>
<path d="M20.6733 13.0467C20.6617 13.5562 21.4157 13.5805 21.4221 13.0647C21.4848 10.1603 19.6941 7.76801 16.3289 7.51585C15.8361 7.48001 15.7849 8.25441 16.2765 8.29025C19.1949 8.51169 20.7321 10.5034 20.6733 13.0467V13.0467Z" fill="#8E24AA"/>
<path d="M19.8669 16.3511C19.2345 15.985 18.5907 16.2128 18.3245 16.5725L17.7677 17.2931C17.4848 17.6592 16.9561 17.6106 16.9561 17.6106C13.0982 16.5904 12.0665 12.5533 12.0665 12.5533C12.0665 12.5533 12.0192 12.0067 12.3725 11.7136L13.0688 11.1376C13.4169 10.8611 13.6371 10.1955 13.2825 9.54145C12.3353 7.83009 11.6992 7.24001 11.3753 6.78689C11.0349 6.36065 10.5229 6.26465 9.99037 6.55265H9.97885C8.87165 7.20033 7.65949 8.41249 8.04733 9.66049C8.70909 10.9763 9.92509 15.1709 13.8009 18.3402C15.6224 19.8391 18.5049 21.3751 19.7286 21.7296L19.7401 21.7475C20.9459 22.1495 22.1184 20.8899 22.7443 19.7495V19.7405C23.0221 19.1888 22.9299 18.6666 22.5241 18.3248C21.8048 17.6234 20.7193 16.849 19.8669 16.3511Z" fill="#8E24AA"/>
<path d="M16.8563 10.3729C18.0864 10.4446 18.6828 11.0871 18.7468 12.4068C18.7699 12.9226 19.5187 12.8868 19.4956 12.371C19.4137 10.6481 18.5152 9.68807 16.8972 9.59847C16.4044 9.56903 16.3584 10.3434 16.8563 10.3729V10.3729Z" fill="#8E24AA"/>
</g>
<defs>
<clipPath id="clip0">
<rect width="30.72" height="30.72" fill="white"/>
</clipPath>
</defs>
</svg>
