<svg width="50" height="50" viewBox="0 0 50 50" fill="none" xmlns="http://www.w3.org/2000/svg">
<g clip-path="url(#clip0)">
<path d="M18.3334 32.1822L20.8731 17.8965H24.8413L22.381 32.1822H18.3334Z" fill="#3C58BF"/>
<path d="M18.3334 32.1822L21.5873 17.8965H24.8413L22.381 32.1822H18.3334Z" fill="#293688"/>
<path d="M36.746 18.0558C35.9524 17.7384 34.6825 17.4209 33.0952 17.4209C29.127 17.4209 26.2698 19.405 26.2698 22.2622C26.2698 24.405 28.2539 25.5161 29.8412 26.2304C31.4285 26.9447 31.9047 27.4209 31.9047 28.0558C31.9047 29.0082 30.6349 29.4844 29.5238 29.4844C27.9365 29.4844 27.0635 29.2463 25.7143 28.6907L25.1587 28.4526L24.6031 31.7066C25.5555 32.1034 27.3016 32.5003 29.127 32.5003C33.3333 32.5003 36.1111 30.5161 36.1111 27.5003C36.1111 25.8336 35.0793 24.5638 32.6984 23.532C31.2698 22.8177 30.3968 22.4209 30.3968 21.7066C30.3968 21.0717 31.1111 20.4368 32.6984 20.4368C34.0476 20.4368 35 20.6749 35.7143 20.9923L36.1111 21.1511L36.746 18.0558Z" fill="#3C58BF"/>
<path d="M36.746 18.0558C35.9524 17.7384 34.6825 17.4209 33.0952 17.4209C29.127 17.4209 26.9841 19.405 26.9841 22.2622C26.9841 24.405 28.2539 25.5161 29.8412 26.2304C31.4285 26.9447 31.9047 27.4209 31.9047 28.0558C31.9047 29.0082 30.6349 29.4844 29.5238 29.4844C27.9365 29.4844 27.0635 29.2463 25.7143 28.6907L25.1587 28.4526L24.6031 31.7066C25.5555 32.1034 27.3016 32.5003 29.127 32.5003C33.3333 32.5003 36.1111 30.5161 36.1111 27.5003C36.1111 25.8336 35.0793 24.5638 32.6984 23.532C31.2698 22.8177 30.3968 22.4209 30.3968 21.7066C30.3968 21.0717 31.1111 20.4368 32.6984 20.4368C34.0476 20.4368 35 20.6749 35.7143 20.9923L36.1111 21.1511L36.746 18.0558Z" fill="#293688"/>
<path d="M43.5714 17.8965C42.619 17.8965 41.9047 17.9759 41.5079 18.9282L35.5555 32.1822H39.8413L40.6349 29.8012H45.7143L46.1905 32.1822H50L46.6666 17.8965H43.5714ZM41.746 27.4203C41.9841 26.706 43.3333 23.2139 43.3333 23.2139C43.3333 23.2139 43.6508 22.3409 43.8889 21.7854L44.127 23.1346C44.127 23.1346 44.9206 26.706 45.0793 27.4997H41.746V27.4203Z" fill="#3C58BF"/>
<path d="M44.5238 17.8965C43.5714 17.8965 42.8571 17.9759 42.4603 18.9282L35.5555 32.1822H39.8413L40.6349 29.8012H45.7143L46.1905 32.1822H50L46.6666 17.8965H44.5238ZM41.746 27.4203C42.0635 26.6266 43.3333 23.2139 43.3333 23.2139C43.3333 23.2139 43.6508 22.3409 43.8889 21.7854L44.127 23.1346C44.127 23.1346 44.9206 26.706 45.0793 27.4997H41.746V27.4203Z" fill="#293688"/>
<path d="M11.0317 27.8972L10.6349 25.8337C9.92062 23.4527 7.61903 20.8337 5.07935 19.5639L8.65077 32.2623H12.9365L19.3651 17.9766H15.0793L11.0317 27.8972Z" fill="#3C58BF"/>
<path d="M11.0317 27.8972L10.6349 25.8337C9.92062 23.4527 7.61903 20.8337 5.07935 19.5639L8.65077 32.2623H12.9365L19.3651 17.9766H15.873L11.0317 27.8972Z" fill="#293688"/>
<path d="M0 17.8965L0.714286 18.0552C5.79365 19.2457 9.28571 22.2616 10.6349 25.833L9.20635 19.087C8.96825 18.1346 8.25397 17.8965 7.38095 17.8965H0Z" fill="#FFBC00"/>
<path d="M0 17.8965C5.07937 19.087 9.28571 22.1822 10.6349 25.7536L9.28571 20.1187C9.04762 19.1663 8.25397 18.6108 7.38095 18.6108L0 17.8965Z" fill="#F7981D"/>
<path d="M0 17.8965C5.07937 19.087 9.28571 22.1822 10.6349 25.7536L9.68254 22.6584C9.44444 21.706 9.12698 20.7536 8.01587 20.3568L0 17.8965Z" fill="#ED7C00"/>
<path d="M15 27.4199L12.3015 24.7215L11.0317 27.7374L10.7142 25.7532C9.99996 23.3723 7.69837 20.7532 5.15869 19.4834L8.73012 32.1818H13.0158L15 27.4199Z" fill="#051244"/>
<path d="M22.381 32.1815L18.9683 28.6895L18.3334 32.1815H22.381Z" fill="#051244"/>
<path d="M31.5079 27.2607C31.8254 27.5782 31.9841 27.8163 31.9047 28.1338C31.9047 29.0861 30.6349 29.5623 29.5238 29.5623C27.9365 29.5623 27.0635 29.3242 25.7143 28.7687L25.1587 28.5306L24.6031 31.7846C25.5555 32.1814 27.3016 32.5782 29.127 32.5782C31.6666 32.5782 33.7301 31.8639 34.9206 30.5941L31.5079 27.2607Z" fill="#051244"/>
<path d="M36.1111 32.182H39.8412L40.6349 29.801H45.7143L46.1904 32.182H50L48.6508 26.3883L43.8889 21.7852L44.127 23.055C44.127 23.055 44.9206 26.6264 45.0793 27.4201H41.746C42.0635 26.6264 43.3333 23.2137 43.3333 23.2137C43.3333 23.2137 43.6508 22.3407 43.8889 21.7852" fill="#051244"/>
</g>
<defs>
<clipPath id="clip0">
<rect width="50" height="50" fill="white"/>
</clipPath>
</defs>
</svg>
