<svg width="1304" height="512" viewBox="0 0 1304 512" fill="none" xmlns="http://www.w3.org/2000/svg">
<path d="M990.973 12.7418C993.255 15.9523 998.674 18.6618 1002.37 19.6082C1004.24 20.0907 1008.64 20.1464 1006.67 17.1586C1005.5 15.377 1002.7 14.412 1000.79 13.6697C997.691 12.5006 994.276 12.0552 990.973 12.7418Z" fill="#65537A"/>
<path d="M990.175 13.2244C991.882 15.5626 994.387 17.2328 996.93 18.5133C999.082 19.5897 1001.48 20.6475 1003.91 20.7959C1005.58 20.8887 1008.29 20.499 1008.06 18.2535C1007.79 15.507 1004.37 14.1152 1002.18 13.2615C998.47 11.814 994.666 11.0902 990.694 11.8697C989.525 12.1109 990.026 13.8924 991.195 13.6512C994.202 13.0573 997.264 13.41 1000.14 14.4492C1002.09 15.1544 1004.85 15.9338 1005.97 17.8267C1006.12 18.0679 1006.26 18.3649 1006.21 18.569C1006.25 18.4762 1006.25 18.5319 1006.19 18.5876C1006.13 18.6432 1005.99 18.7175 1005.89 18.7546C1005.24 19.0144 1004.45 18.9773 1003.76 18.9216C1001.83 18.7731 999.88 17.9009 998.173 17.0658C995.816 15.9152 993.329 14.4306 991.752 12.2965C991.084 11.3315 989.469 12.2594 990.175 13.2244Z" fill="#65537A"/>
<path d="M1007.06 18.1236C1004.54 16.3606 1001.25 15.21 998.525 14.0409Z" fill="#65537A"/>
<path d="M1007.54 17.307C1004.95 15.5069 1001.9 14.4677 999.008 13.2243C998.544 13.0202 998.006 13.0944 997.746 13.5583C997.523 13.9481 997.616 14.6347 998.08 14.8203C1000.98 16.0451 1004 17.1029 1006.62 18.903C1007.02 19.1813 1007.66 18.9772 1007.88 18.569C1008.14 18.1236 1007.95 17.6039 1007.54 17.307Z" fill="#65537A"/>
<path d="M1006.78 18.8474C1003.74 16.7504 999.138 15.6926 995.519 14.5049Z" fill="#65537A"/>
<path d="M1007.27 18.0494C1003.85 15.7297 999.639 14.876 995.779 13.6141C994.647 13.2429 994.146 15.043 995.278 15.3956C999.008 16.6019 1003.04 17.4184 1006.32 19.6453C1007.32 20.3134 1008.25 18.7175 1007.27 18.0494Z" fill="#65537A"/>
<path d="M1006.64 19.1071C1004.3 18.1793 1001.57 17.9195 999.008 17.0472Z" fill="#65537A"/>
<path d="M1006.88 18.2164C1004.41 17.27 1001.75 17.0101 999.249 16.1565C998.767 15.9895 998.229 16.3421 998.099 16.806C997.95 17.3071 998.266 17.7896 998.748 17.9566C1001.25 18.7917 1003.91 19.0515 1006.38 20.0165C1006.84 20.2021 1007.4 19.8124 1007.53 19.367C1007.66 18.8288 1007.34 18.402 1006.88 18.2164Z" fill="#65537A"/>
<path d="M1010.37 16.5461C1011.92 12.6119 1008.81 4.29807 1006.58 0.902008C1002.78 3.79701 1005 19.9051 1010.37 16.5461Z" fill="#65537A"/>
<path d="M1011.27 16.7874C1012.26 14.1708 1011.57 10.9789 1010.83 8.38078C1010.05 5.63424 1008.95 2.85058 1007.4 0.438082C1007.04 -0.100092 1006.41 -0.118661 1005.93 0.252494C1004.91 1.05048 1004.41 2.42375 1004.13 3.64856C1003.76 5.26308 1003.68 6.95183 1003.8 8.60347C1003.91 10.2922 1004.19 11.9995 1004.72 13.5955C1005.17 14.8574 1005.76 16.2121 1006.82 17.0844C1008.01 18.0865 1009.51 18.1421 1010.83 17.3442C1011.85 16.7318 1010.92 15.1172 1009.9 15.7482C1009.47 16.008 1009.21 16.1008 1008.79 16.0822C1008.99 16.1008 1008.36 15.9523 1008.51 16.008C1008.27 15.8967 1008.18 15.8224 1008.06 15.7296C1007.28 15.0615 1006.82 14.0038 1006.49 12.9831C1005.61 10.3664 1005.32 7.32298 1005.84 4.59499C1006.06 3.42586 1006.39 2.25674 1007.27 1.5701C1006.78 1.51443 1006.3 1.44019 1005.8 1.38452C1007.25 3.61144 1008.25 6.1353 1008.99 8.67771C1009.68 11.0345 1010.4 13.911 1009.49 16.3049C1009.05 17.4184 1010.85 17.9009 1011.27 16.7874Z" fill="#65537A"/>
<path d="M1009.7 16.8617C1009.77 14.7276 1009.03 11.5171 1008.79 9.54999Z" fill="#65537A"/>
<path d="M1010.63 16.8617C1010.66 15.5812 1010.46 14.2822 1010.27 13.0017C1010.18 12.3707 1010.07 11.7583 1009.96 11.1273C1009.9 10.8304 1009.86 10.5335 1009.81 10.2366C1009.79 10.0881 1009.77 9.93964 1009.75 9.79118C1009.73 9.62416 1009.77 9.9211 1009.75 9.75408C1009.75 9.67985 1009.73 9.6056 1009.73 9.53137C1009.68 9.03031 1009.34 8.60349 1008.81 8.60349C1008.34 8.60349 1007.82 9.03031 1007.88 9.53137C1008.18 11.9995 1008.84 14.3749 1008.79 16.8431C1008.73 18.0679 1010.59 18.0679 1010.63 16.8617Z" fill="#65537A"/>
<path d="M1009.25 16.472C1008.31 13.3357 1007.51 9.30871 1006.86 5.98688Z" fill="#65537A"/>
<path d="M1010.14 16.2122C1009.12 12.779 1008.44 9.25301 1007.75 5.72704C1007.53 4.55791 1005.73 5.05897 1005.97 6.22811C1006.65 9.73552 1007.32 13.2801 1008.36 16.7132C1008.7 17.8638 1010.48 17.3627 1010.14 16.2122Z" fill="#65537A"/>
<path d="M1008.77 16.2493C1007.47 15.4327 1006.86 13.2429 1006.43 11.8882Z" fill="#65537A"/>
<path d="M1009.23 15.4513C1009.2 15.4141 1009.14 15.3956 1009.1 15.3585C1008.97 15.2657 1009.21 15.4698 1009.14 15.3956C1009.07 15.3214 1008.99 15.2657 1008.92 15.1915C1008.86 15.1172 1008.79 15.0615 1008.73 14.9873C1008.71 14.9688 1008.6 14.8388 1008.7 14.9502C1008.81 15.0615 1008.7 14.9317 1008.66 14.9131C1008.42 14.5605 1008.21 14.1708 1008.03 13.7811C1008.01 13.744 1007.99 13.6883 1007.97 13.6326C1008.01 13.7254 1008.03 13.7811 1007.99 13.6512C1007.95 13.5398 1007.92 13.447 1007.86 13.3357C1007.79 13.1315 1007.71 12.946 1007.66 12.7418C1007.53 12.3707 1007.41 11.9995 1007.3 11.6284C1007.16 11.1644 1006.65 10.8304 1006.15 10.9788C1005.69 11.1273 1005.35 11.6284 1005.5 12.1294C1006.06 13.8924 1006.62 15.9894 1008.27 17.0472C1008.68 17.307 1009.31 17.14 1009.53 16.7132C1009.81 16.2678 1009.68 15.7296 1009.23 15.4513Z" fill="#65537A"/>
<path d="M1010.44 22.596C1011.03 17.8823 1016.53 24.7858 1017.29 26.1591C1018.51 28.553 1019.4 31.4851 1019.42 34.0461C1016.23 32.7656 1008.88 26.5117 1010.38 22.3733" fill="#65537A"/>
<path d="M1011.33 22.8372C1011.37 22.5774 1011.4 22.3362 1011.5 22.0949C1011.55 21.9279 1011.48 22.1506 1011.53 22.0022C1011.55 21.965 1011.59 21.9094 1011.61 21.8723C1011.57 21.9279 1011.52 21.9836 1011.59 21.8908C1011.68 21.7795 1011.55 21.9094 1011.55 21.9094L1011.63 21.8537C1011.48 21.8351 1011.66 21.9094 1011.66 21.8537C1011.66 21.9836 1011.48 21.7424 1011.66 21.8723C1011.76 21.9279 1011.53 21.8166 1011.76 21.8908C1011.83 21.9279 1011.92 21.9465 1012.02 21.965C1012.11 22.0021 1012 21.9465 1011.98 21.9465C1012.04 21.965 1012.09 22.0021 1012.13 22.0207C1012.31 22.132 1012.5 22.2248 1012.67 22.3548C1013 22.5774 1013.33 22.8929 1013.69 23.227C1015.15 24.6188 1016.27 25.9921 1017.06 27.8664C1017.88 29.7964 1018.44 31.912 1018.49 34.009C1018.88 33.7121 1019.27 33.4152 1019.66 33.1182C1019.85 33.1925 1019.51 33.044 1019.48 33.044C1019.37 32.9883 1019.24 32.9326 1019.12 32.877C1018.9 32.7656 1018.68 32.6357 1018.48 32.5058C1017.94 32.1903 1017.44 31.8378 1016.93 31.4666C1015.84 30.6501 1014.82 29.7222 1013.89 28.72C1012.98 27.755 1012.17 26.6787 1011.61 25.491C1011.14 24.526 1010.96 23.561 1011.29 22.6146C1011.68 21.4825 1009.9 21 1009.51 22.1135C1008.79 24.2105 1009.85 26.456 1011.05 28.1262C1012.5 30.149 1014.34 31.8563 1016.36 33.3038C1017.25 33.9348 1018.2 34.5101 1019.22 34.9183C1019.77 35.141 1020.41 34.5657 1020.39 34.0275C1020.35 31.8377 1019.81 29.6665 1018.99 27.6437C1018.51 26.456 1017.99 25.3982 1017.21 24.3775C1016.49 23.4311 1015.69 22.5032 1014.8 21.7052C1014 20.9815 1013.06 20.202 1011.96 20.0536C1010.53 19.868 1009.73 21.0557 1009.57 22.3362C1009.49 22.8373 1009.68 23.3383 1010.22 23.4868C1010.63 23.5981 1011.27 23.3383 1011.33 22.8372Z" fill="#65537A"/>
<path d="M1011.01 21.6867C1013.33 23.5054 1014.69 26.5488 1016.47 28.9242Z" fill="#65537A"/>
<path d="M1010.37 22.3362C1012.7 24.192 1013.93 27.0127 1015.67 29.3881C1015.97 29.7964 1016.47 30.0005 1016.93 29.7222C1017.32 29.4809 1017.57 28.8499 1017.27 28.4602C1015.43 25.9735 1014.13 22.9857 1011.66 21.0371C1011.27 20.7217 1010.74 20.6474 1010.35 21.0371C1010.03 21.3526 1009.96 22.0207 1010.37 22.3362Z" fill="#65537A"/>
<path d="M1010.44 21.1485C1011.09 23.0042 1012.8 26.0848 1013.82 27.6251Z" fill="#65537A"/>
<path d="M1009.55 21.3897C1009.98 22.6145 1010.57 23.7837 1011.16 24.9342C1011.74 26.0106 1012.35 27.0869 1013.02 28.1076C1013.3 28.5344 1013.84 28.7014 1014.28 28.4416C1014.69 28.2004 1014.89 27.588 1014.62 27.1797C1013.97 26.1776 1013.37 25.1384 1012.8 24.0991C1012.5 23.5239 1012.2 22.9486 1011.92 22.3547C1011.85 22.2248 1011.79 22.0763 1011.74 21.9464C1011.7 21.8722 1011.68 21.8165 1011.65 21.7423C1011.65 21.7237 1011.55 21.5196 1011.59 21.6124C1011.63 21.7238 1011.55 21.5196 1011.53 21.4825C1011.52 21.4268 1011.48 21.3526 1011.46 21.2969C1011.4 21.167 1011.37 21.0371 1011.31 20.9072C1011.14 20.4433 1010.68 20.1278 1010.16 20.2577C1009.73 20.369 1009.38 20.9072 1009.55 21.3897Z" fill="#65537A"/>
<path d="M1011.48 19.6824C1015.62 22.6516 1025.64 23.7465 1029.35 20.4433C1024.47 15.1914 1016.58 15.7296 1011.72 18.8473" fill="#65537A"/>
<path d="M1011 20.4804C1013.74 22.4104 1017.38 23.1342 1020.68 23.3383C1023.82 23.5239 1027.51 23.227 1030 21.0743C1030.39 20.7402 1030.33 20.1093 1030 19.7567C1025.14 14.6533 1017.05 14.3564 1011.24 18.0123C1010.24 18.6432 1011.16 20.2577 1012.17 19.6082C1017.29 16.3792 1024.38 16.5276 1028.66 21.0557C1028.66 20.6103 1028.66 20.1835 1028.66 19.7381C1026.53 21.5753 1023.08 21.631 1020.42 21.4269C1017.51 21.2227 1014.34 20.5361 1011.92 18.8288C1010.96 18.1978 1010.03 19.8124 1011 20.4804Z" fill="#65537A"/>
<path d="M1011.42 19.1072C1015.12 18.1422 1021.56 17.9195 1025.23 17.8638Z" fill="#65537A"/>
<path d="M1011.66 19.9979C1016.03 18.8844 1020.74 18.8659 1025.21 18.7917C1026.4 18.7731 1026.4 16.9173 1025.21 16.9359C1020.57 17.0101 1015.69 17.0658 1011.16 18.2164C1010.01 18.5133 1010.51 20.2948 1011.66 19.9979Z" fill="#65537A"/>
<path d="M1011.74 19.2928C1013.74 19.2742 1017.66 19.4784 1019.66 19.4598Z" fill="#65537A"/>
<path d="M1011.74 20.2206C1014.37 20.2021 1017.03 20.4062 1019.66 20.3877C1020.85 20.3877 1020.85 18.5319 1019.66 18.5319C1017.03 18.5504 1014.37 18.3463 1011.74 18.3649C1010.55 18.3834 1010.55 20.2392 1011.74 20.2206Z" fill="#65537A"/>
<path d="M1012.11 18.1978C1017.23 14.6718 1020.39 9.93963 1021.33 3.79703C1014.76 4.40943 1009.9 12.4449 1010.88 18.6989" fill="#65537A"/>
<path d="M1012.57 18.9958C1017.71 15.4141 1021.22 10.2737 1022.22 4.03826C1022.32 3.50009 1021.98 2.79489 1021.33 2.86912C1013.95 3.62998 1008.96 11.9438 1009.99 18.9401C1010.07 19.4412 1010.7 19.701 1011.14 19.5896C1011.68 19.4411 1011.87 18.9401 1011.79 18.439C1010.94 12.7233 1015.25 5.3373 1021.33 4.70634C1021.04 4.31663 1020.74 3.92691 1020.44 3.5372C1019.53 9.29009 1016.43 14.078 1011.65 17.3812C1010.66 18.0679 1011.59 19.6824 1012.57 18.9958Z" fill="#65537A"/>
<path d="M1010.55 18.6617C1012.31 14.6904 1015.71 11.8881 1017.99 8.25082Z" fill="#65537A"/>
<path d="M1011.35 19.1257C1013.13 15.1914 1016.51 12.315 1018.79 8.71479C1019.44 7.69412 1017.83 6.76623 1017.19 7.7869C1014.91 11.4057 1011.53 14.2635 1009.75 18.1978C1009.55 18.6617 1009.62 19.1999 1010.09 19.4597C1010.48 19.701 1011.14 19.5896 1011.35 19.1257Z" fill="#65537A"/>
<path d="M1010.76 18.6061C1012.85 17.0101 1014.67 15.2471 1016.06 13.0388Z" fill="#65537A"/>
<path d="M1011.22 19.404C1013.41 17.7338 1015.39 15.8409 1016.86 13.5027C1017.12 13.0944 1016.95 12.4634 1016.53 12.2408C1016.06 11.9995 1015.54 12.1294 1015.26 12.5748C1015.1 12.8346 1014.93 13.0944 1014.74 13.3542C1014.65 13.4841 1014.56 13.614 1014.47 13.7254C1014.47 13.7254 1014.3 13.9481 1014.39 13.8367C1014.36 13.8924 1014.32 13.9295 1014.28 13.9852C1013.89 14.4862 1013.46 14.9502 1013.02 15.4141C1012.59 15.8595 1012.13 16.2863 1011.66 16.6946C1011.42 16.8987 1011.18 17.1029 1010.94 17.307C1010.81 17.3998 1010.7 17.5111 1010.57 17.6039C1010.51 17.6596 1010.44 17.6967 1010.38 17.7524C1010.24 17.8637 1010.42 17.7153 1010.27 17.8452C1009.88 18.1421 1009.64 18.6617 1009.94 19.1071C1010.2 19.4597 1010.81 19.7195 1011.22 19.404Z" fill="#65537A"/>
<path d="M1010.59 18.8659C1011.65 15.1544 1013 11.8325 1015.49 9.0303Z" fill="#65537A"/>
<path d="M1011.48 19.1257C1012.44 15.7296 1013.78 12.3892 1016.14 9.69835C1016.92 8.80758 1015.62 7.49 1014.82 8.38077C1012.24 11.3129 1010.74 14.8945 1009.68 18.6246C1009.36 19.7752 1011.16 20.2577 1011.48 19.1257Z" fill="#65537A"/>
<path d="M1009.03 20.796C1002.59 20.0351 998.266 26.9571 997.523 32.4873C1002.79 31.6151 1008.21 26.4746 1008.88 21.0558" fill="#65537A"/>
<path d="M1009.03 19.868C1002.18 19.1257 997.468 26.2147 996.614 32.2274C996.521 32.9512 997.004 33.5079 997.764 33.378C1003.65 32.3574 1009.01 27.0127 1009.79 21.0557C1009.86 20.5547 1009.31 20.1278 1008.86 20.1278C1008.31 20.1278 1008.01 20.5547 1007.93 21.0557C1007.58 23.6724 1006.06 26.0663 1004.2 27.8664C1002.31 29.7222 999.917 31.114 997.282 31.5779C997.672 31.9677 998.043 32.3388 998.433 32.7285C999.156 27.4952 1002.98 21.0557 1009.05 21.7238C1009.55 21.7795 1009.98 21.2599 1009.98 20.7959C1009.96 20.2577 1009.53 19.9237 1009.03 19.868Z" fill="#65537A"/>
<path d="M1008.57 21.2413C1006.39 22.9671 1004.43 24.6559 1002.91 26.79Z" fill="#65537A"/>
<path d="M1007.92 20.5732C1005.78 22.2805 1003.72 24.0621 1002.11 26.3076C1001.83 26.6973 1002.03 27.3653 1002.44 27.5695C1002.92 27.8293 1003.41 27.6623 1003.7 27.2355C1003.91 26.9385 1004.02 26.8086 1004.2 26.5859C1004.41 26.3447 1004.61 26.0849 1004.84 25.8622C1005.26 25.3797 1005.73 24.9157 1006.19 24.4889C1007.15 23.5796 1008.19 22.7259 1009.23 21.9094C1009.62 21.6124 1009.57 20.9073 1009.23 20.5918C1008.81 20.2021 1008.32 20.2577 1007.92 20.5732Z" fill="#65537A"/>
<path d="M1008.75 21.5382C1007.51 22.9486 1006.75 24.4518 1005.45 25.6395Z" fill="#65537A"/>
<path d="M1008.08 20.8701C1007.45 21.5939 1006.89 22.3547 1006.34 23.1342C1006.21 23.3012 1006.08 23.4868 1005.97 23.6538C1005.93 23.6909 1005.91 23.728 1005.87 23.7651C1005.8 23.8579 1005.99 23.6352 1005.87 23.7651C1005.8 23.8394 1005.74 23.9322 1005.67 24.0064C1005.39 24.3404 1005.09 24.6745 1004.78 24.9714C1004.43 25.3054 1004.43 25.9549 1004.78 26.289C1005.17 26.6416 1005.71 26.6416 1006.1 26.289C1006.77 25.658 1007.32 24.9343 1007.88 24.192C1008.14 23.8394 1008.38 23.4868 1008.64 23.1342C1008.71 23.0414 1008.77 22.9486 1008.84 22.8744C1008.9 22.8001 1008.88 22.8187 1008.84 22.8929C1008.88 22.8372 1008.92 22.8001 1008.95 22.7445C1009.1 22.5589 1009.25 22.3733 1009.42 22.1877C1009.73 21.8166 1009.81 21.2227 1009.42 20.8701C1009.05 20.5546 1008.44 20.4804 1008.08 20.8701Z" fill="#65537A"/>
<path d="M1008.68 20.666C1006.65 21.5754 1004.26 22.893 1002.78 24.6931Z" fill="#65537A"/>
<path d="M1008.21 19.8681C1005.99 20.8702 1003.7 22.1321 1002.11 24.0435C1001.79 24.4147 1001.72 24.99 1002.11 25.3611C1002.46 25.6766 1003.09 25.7508 1003.42 25.3611C1003.8 24.9157 1004.2 24.5075 1004.65 24.1363C1004.74 24.0621 1004.93 23.9136 1004.97 23.8765C1004.93 23.9136 1005.06 23.8208 1005.06 23.8023C1005.11 23.7466 1005.19 23.7095 1005.26 23.6538C1005.5 23.4682 1005.76 23.3012 1006.02 23.1342C1007.01 22.5032 1008.06 21.9651 1009.14 21.4826C1009.59 21.2784 1009.73 20.6104 1009.47 20.2207C1009.18 19.7382 1008.68 19.6454 1008.21 19.8681Z" fill="#65537A"/>
<path d="M1011.65 20.0907C1012.3 20.499 1012.91 20.7031 1013.41 20.4619C1012.83 19.9237 1012.13 19.2927 1011.7 18.8474C1012.37 18.3649 1013.17 17.9566 1013.89 17.6782C1013.15 17.3998 1012.02 17.771 1011.22 18.1793C1011.29 17.4926 1011.39 16.472 1011.46 15.7853C1011.05 16.4349 1010.09 16.4163 1010.01 17.1029C1009.1 16.5276 1008.9 15.8224 1007.82 15.507C1007.75 16.1936 1007.82 16.9545 1008.31 17.6225C1007.49 17.4741 1006.47 17.3813 1005.69 17.437C1006.3 18.1978 1007.51 18.5875 1008.05 19.4598C1006.99 19.701 1005.63 20.1278 1005.06 21.0371C1006.26 21.4269 1007.36 20.8516 1008.73 20.9815C1008.84 21.965 1010.03 21.2413 1010.4 22.3919C1011.31 21.5197 1010.14 22.2249 1010.46 21.1485C1011.11 21.5568 1011.98 21.9094 1012.57 22.1135C1012.43 21.4825 1012.02 20.666 1011.44 20.1278" fill="#65537A"/>
<path d="M1011.18 20.8887C1011.91 21.3341 1012.82 21.6867 1013.65 21.3527C1014.26 21.1114 1014.62 20.3134 1014.06 19.7938C1013.48 19.2556 1012.89 18.736 1012.35 18.1793C1012.3 18.6618 1012.22 19.1443 1012.17 19.6453C1012.78 19.2185 1013.43 18.8474 1014.13 18.569C1014.97 18.235 1015.04 17.0844 1014.13 16.7874C1013 16.4163 1011.74 16.8802 1010.74 17.3813C1011.2 17.6411 1011.66 17.9195 1012.13 18.1793C1012.2 17.3813 1012.28 16.5833 1012.37 15.7853C1012.41 15.3771 1012.05 14.9873 1011.68 14.8945C1011.26 14.7832 1010.87 14.9874 1010.64 15.3214C1010.63 15.34 1010.53 15.4142 1010.38 15.4884C1010.24 15.5812 1010.07 15.6554 1009.92 15.7482C1009.53 16.008 1009.18 16.3792 1009.1 16.8617C1009.55 16.6761 1010.01 16.4905 1010.46 16.3049C1010.09 16.0637 1009.81 15.7297 1009.49 15.4327C1009.07 15.043 1008.6 14.7832 1008.05 14.6162C1007.43 14.4121 1006.91 14.9317 1006.88 15.507C1006.8 16.4163 1006.97 17.3442 1007.49 18.105C1007.84 17.6597 1008.19 17.1957 1008.53 16.7503C1007.58 16.5833 1006.62 16.472 1005.67 16.5276C1004.85 16.5833 1004.48 17.4926 1005.02 18.105C1005.37 18.5133 1005.82 18.8102 1006.26 19.1072C1006.62 19.3484 1007.01 19.5896 1007.23 19.9422C1007.41 19.4969 1007.6 19.0329 1007.79 18.5875C1006.43 18.903 1005.04 19.4041 1004.24 20.5918C1003.91 21.1114 1004.26 21.798 1004.8 21.9465C1006.12 22.3362 1007.4 21.8166 1008.71 21.9279C1008.42 21.7052 1008.12 21.4825 1007.82 21.2413C1007.92 21.8351 1008.36 22.262 1008.92 22.4475C1009.09 22.5032 1009.27 22.5218 1009.44 22.596C1009.46 22.596 1009.49 22.6146 1009.51 22.6146C1009.42 22.5774 1009.42 22.5774 1009.51 22.6331C1009.51 22.6146 1009.4 22.4104 1009.49 22.6517C1009.73 23.3012 1010.51 23.5796 1011.05 23.06C1011.48 22.6331 1011.91 22.0764 1011.53 21.4454C1011.44 21.2784 1011.27 21.1114 1011.07 21.0371C1010.9 20.9629 1011.18 21.1485 1011.22 21.2227C1011.27 21.5568 1011.31 21.631 1011.31 21.464C1011.29 21.5753 1011.31 21.5568 1011.33 21.4269C1010.89 21.6124 1010.42 21.798 1009.98 21.9836C1010.7 22.429 1011.52 22.7816 1012.31 23.0414C1013 23.2641 1013.61 22.5589 1013.46 21.8908C1013.24 21 1012.76 20.1464 1012.11 19.4969C1011.26 18.6618 1009.94 19.9608 1010.79 20.8145C1011.24 21.2413 1011.53 21.7795 1011.68 22.3919C1012.07 22.0022 1012.44 21.631 1012.83 21.2413C1012.17 21.0186 1011.53 20.7402 1010.94 20.3691C1010.44 20.0536 1009.72 20.3505 1009.59 20.9258C1009.47 21.3526 1009.46 21.8166 1009.7 22.2063C1009.81 22.3733 1009.96 22.5218 1010.12 22.6146C1010.4 22.7816 1010.11 22.6331 1009.99 22.4104C1009.96 22.262 1009.9 22.0949 1009.86 21.9465C1009.85 21.7609 1009.94 21.5753 1010.01 21.5197C1009.94 21.5753 1009.86 21.6867 1009.79 21.7423C1010.31 21.8723 1010.83 22.0207 1011.35 22.1506C1011.11 21.5197 1010.74 21.0557 1010.09 20.833C1009.92 20.7773 1009.73 20.7402 1009.57 20.6846C1009.4 20.6289 1009.66 20.7773 1009.53 20.666C1009.75 20.8701 1009.75 21.0186 1009.7 20.7402C1009.62 20.3134 1009.18 20.0907 1008.81 20.0536C1007.67 19.9608 1006.49 20.4804 1005.37 20.1464C1005.56 20.5918 1005.74 21.0557 1005.93 21.5011C1006.41 20.7773 1007.56 20.5361 1008.36 20.3505C1008.92 20.2206 1009.23 19.4783 1008.92 18.9958C1008.57 18.4576 1008.1 18.0679 1007.58 17.6968C1007.17 17.3999 1006.75 17.1586 1006.39 16.7689C1006.17 17.2885 1005.95 17.8267 1005.74 18.3463C1006.54 18.2906 1007.32 18.3648 1008.1 18.4947C1008.83 18.6247 1009.64 17.8638 1009.14 17.14C1008.79 16.6204 1008.73 16.1008 1008.79 15.4884C1008.4 15.7853 1008.01 16.0822 1007.62 16.3792C1007.99 16.4905 1008.21 16.6946 1008.49 16.9545C1008.84 17.2885 1009.18 17.604 1009.59 17.8823C1010.05 18.1793 1010.85 17.9009 1010.94 17.3256C1010.98 17.1029 1010.94 17.307 1010.9 17.3256C1010.81 17.3442 1011.03 17.2699 1010.9 17.3256C1011.05 17.2514 1011.18 17.1772 1011.33 17.0844C1011.72 16.8617 1012.04 16.6019 1012.3 16.2307C1011.72 16.0822 1011.15 15.9152 1010.57 15.7668C1010.5 16.5647 1010.42 17.3627 1010.33 18.1607C1010.25 18.9216 1011.16 19.2371 1011.72 18.9587C1012.3 18.6803 1013.06 18.3463 1013.69 18.5504C1013.69 17.9566 1013.69 17.3627 1013.69 16.7689C1012.83 17.1029 1012.02 17.5112 1011.27 18.0308C1010.79 18.3834 1010.64 19.0329 1011.09 19.4969C1011.65 20.0536 1012.22 20.5732 1012.8 21.1114C1012.93 20.5918 1013.07 20.0722 1013.2 19.5525C1012.83 19.701 1012.52 19.4783 1012.17 19.2742C1011.09 18.6618 1010.16 20.2577 1011.18 20.8887Z" fill="#65537A"/>
<path d="M1009.42 19.5525C1010.61 19.5525 1010.61 17.6967 1009.42 17.6967C1008.23 17.6967 1008.23 19.5525 1009.42 19.5525Z" fill="#65537A"/>
<path d="M1009.79 21.1299C1010.98 21.1299 1010.98 19.2742 1009.79 19.2742C1008.6 19.2742 1008.58 21.1299 1009.79 21.1299Z" fill="#65537A"/>
<path d="M1010.51 19.8865C1011.7 19.8865 1011.7 18.0308 1010.51 18.0308C1009.33 18.0308 1009.33 19.8865 1010.51 19.8865Z" fill="#65537A"/>
<path d="M1008.7 20.9258C1009.88 20.9258 1009.88 19.07 1008.7 19.07C1007.51 19.07 1007.51 20.9258 1008.7 20.9258Z" fill="#65537A"/>
<path d="M1008.57 19.3298C1009.75 19.3298 1009.75 17.4741 1008.57 17.4741C1007.38 17.4741 1007.38 19.3298 1008.57 19.3298Z" fill="#65537A"/>
<path d="M1009.1 18.569C1010.29 18.569 1010.29 16.7133 1009.1 16.7133C1007.9 16.7133 1007.9 18.569 1009.1 18.569Z" fill="#65537A"/>
<path d="M1010.29 18.5876C1011.48 18.5876 1011.48 16.7318 1010.29 16.7318C1009.1 16.7318 1009.1 18.5876 1010.29 18.5876Z" fill="#65537A"/>
<path d="M1010.22 20.6289C1011.4 20.6289 1011.4 18.7731 1010.22 18.7731C1009.03 18.7731 1009.03 20.6289 1010.22 20.6289Z" fill="#65537A"/>
<path d="M1011.09 21.6867C1012.28 21.6867 1012.28 19.8309 1011.09 19.8309C1009.9 19.8309 1009.88 21.6867 1011.09 21.6867Z" fill="#65537A"/>
<path d="M1011.03 20.3691C1012.22 20.3691 1012.22 18.5133 1011.03 18.5133C1009.85 18.5133 1009.85 20.3691 1011.03 20.3691Z" fill="#65537A"/>
<path d="M1009.66 20.3691C1010.85 20.3691 1010.85 18.5133 1009.66 18.5133C1008.47 18.5133 1008.47 20.3691 1009.66 20.3691Z" fill="#65537A"/>
<path d="M1009.81 22.1506C1011 22.1506 1011 20.2949 1009.81 20.2949C1008.62 20.2949 1008.62 22.1506 1009.81 22.1506Z" fill="#65537A"/>
<path opacity="0.1" d="M1286.87 407.107C1296.14 349.369 1256.85 295.05 1199.11 285.782C1141.37 276.513 1087.05 315.806 1077.78 373.544C1068.51 431.282 1107.81 485.601 1165.54 494.869C1223.28 504.138 1277.6 464.845 1286.87 407.107Z" fill="#65537A"/>
<path d="M62.4565 374.625C58.9355 368.78 58.6278 360.644 58.5937 354.012C58.5253 345.91 59.2775 337.056 62.7643 329.638C64.0291 326.972 65.7724 324.169 68.473 322.802C71.2078 321.4 74.2845 322.015 76.9167 323.348C81.1214 325.468 85.3602 328.921 86.7276 333.57C88.1633 338.492 86.5567 343.791 84.3689 348.235C78.7968 359.618 69.2251 369.121 59.7902 377.36C58.3203 378.625 60.4739 380.744 61.9097 379.479C71.1053 371.446 80.1983 362.319 86.0439 351.516C88.6419 346.696 90.7614 341.159 90.146 335.586C89.5307 329.912 86.0096 325.81 81.4973 322.631C78.2839 320.34 74.3187 318.528 70.2849 319.11C66.969 319.588 64.3368 321.673 62.3883 324.306C57.2606 331.245 56.0641 341.022 55.6538 349.363C55.4146 354.559 55.6198 359.789 56.406 364.951C56.9871 368.745 57.8416 372.779 59.8585 376.129C60.8498 377.77 63.4479 376.266 62.4565 374.625Z" fill="#D67993"/>
<path d="M60.9523 379.24C67.3106 366.523 71.1393 352.884 75.5149 339.415C76.1303 337.569 73.2247 336.783 72.6093 338.629C68.3021 351.824 64.576 365.259 58.3203 377.736C57.4998 379.445 60.0977 380.983 60.9523 379.24Z" fill="#D67993"/>
<path d="M57.8759 382.761C58.628 378.693 57.9444 374.454 57.0556 370.489C55.8249 365.19 53.9447 360.063 51.6544 355.106C47.4839 346.047 41.5015 335.826 32.5794 330.698C29.0926 328.715 24.9563 327.758 21.0592 328.955C16.3076 330.425 12.6157 334.527 10.2228 338.731C4.06963 349.5 10.633 360.165 19.1449 367.207C29.0584 375.411 41.8091 381.496 54.3206 384.504C56.2008 384.949 56.9872 382.077 55.107 381.599C44.9201 379.137 34.904 374.523 26.2211 368.711C18.4613 363.515 8.34264 354.764 11.1458 344.235C13.231 336.304 21.2643 328.647 29.6737 332.476C38.0489 336.304 43.6893 345.705 47.6888 353.568C50.2185 358.593 52.3038 363.891 53.7396 369.361C54.7651 373.326 55.7565 377.804 55.0386 381.906C54.6284 383.855 57.4999 384.641 57.8759 382.761Z" fill="#D67993"/>
<path d="M57.1579 382.248C49.8083 371.822 42.4929 361.293 33.981 351.756C32.682 350.32 30.5965 352.439 31.8613 353.875C40.2023 363.208 47.3811 373.531 54.5599 383.787C55.6879 385.325 58.286 383.821 57.1579 382.248Z" fill="#D67993"/>
<path d="M57.705 381.941C53.8422 381.633 49.8767 382.385 46.1165 383.205C40.9546 384.334 35.8611 385.906 30.9043 387.752C21.6062 391.239 11.4534 395.717 4.54815 403.101C2.12106 405.699 -0.066808 409.015 0.00156089 412.707C0.0699298 416.74 2.80472 419.954 5.91551 422.244C10.2227 425.457 15.8974 428.363 21.4011 427.885C27.2808 427.372 32.4768 424.022 36.8524 420.261C42.903 415.065 47.8598 408.536 52.0303 401.802C55.6538 395.956 58.9356 389.701 60.8842 383.069C61.4311 381.223 58.5253 380.437 57.9784 382.282C54.6283 393.7 47.5522 404.81 39.5189 413.493C35.5877 417.766 30.9043 422.005 25.3323 423.953C19.8969 425.868 15.2479 424.364 10.4279 421.595C7.38546 419.851 3.69346 417.287 3.07814 413.561C2.59956 410.587 4.34304 407.784 6.25737 405.63C12.4106 398.759 21.7429 394.52 30.1523 391.205C35.2116 389.222 40.4077 387.547 45.7063 386.316C49.6033 385.427 53.7054 384.573 57.705 384.881C59.6194 385.086 59.6194 382.077 57.705 381.941Z" fill="#D67993"/>
<path d="M56.5427 381.189C48.1675 388.709 39.724 396.161 30.7335 402.964C29.2293 404.126 30.6993 406.724 32.2376 405.562C41.4332 398.623 50.0818 391.034 58.6621 383.342C60.0978 382.043 57.9784 379.924 56.5427 381.189Z" fill="#D67993"/>
<path d="M60.679 379.889C63.653 387.854 69.4985 394.555 74.2843 401.494C78.9676 408.297 84.7107 416.774 83.5484 425.491C83.0014 429.799 80.2665 435.063 76.096 436.841C72.1306 438.516 68.2337 435.781 65.7382 432.875C62.1147 428.636 60.5423 423.03 59.4142 417.697C58.2177 412.057 57.2946 405.562 58.0467 399.785C58.5937 395.58 60.2346 391.478 61.3285 387.41C62.0464 384.744 63.7214 380.3 62.1489 377.633C61.1575 375.992 58.5595 377.497 59.5508 379.137C60.0978 380.026 59.5508 381.838 59.3457 382.795C58.9355 384.88 58.3543 386.966 57.739 389.017C56.6792 392.674 55.2435 396.435 54.97 400.263C54.4573 406.895 55.3803 413.937 56.9186 420.364C58.2176 425.697 60.0977 430.995 63.7897 435.2C66.4561 438.242 70.2847 440.738 74.4894 440.328C79.2752 439.815 82.7963 435.678 84.779 431.576C88.9153 422.996 85.36 413.766 80.8477 406.143C77.9762 401.289 74.592 396.777 71.3445 392.196C68.4388 388.094 65.3622 383.855 63.5846 379.137C62.9009 377.291 59.9953 378.078 60.679 379.889Z" fill="#D67993"/>
<path d="M58.9015 378.625C64.6786 391.239 65.3282 405.459 70.0456 418.449C70.6951 420.261 73.6007 419.475 72.9512 417.663C68.1312 404.434 67.4134 390.008 61.4995 377.121C60.6791 375.343 58.1152 376.881 58.9015 378.625Z" fill="#D67993"/>
<path d="M62.7642 379.582C69.9771 374.283 76.6773 368.335 84.1295 363.378C91.3082 358.627 101.051 352.747 109.392 358.319C117.459 363.72 117.083 375.924 110.349 382.248C104.332 387.889 94.7608 386.966 87.2744 385.769C78.0446 384.299 68.7807 381.086 59.3458 381.188C57.4315 381.188 57.3973 384.197 59.3458 384.197C68.5756 384.128 77.6687 387.308 86.7276 388.709C95.0686 390.008 104.914 390.76 111.819 384.949C119.271 378.659 120.741 366.66 114.52 359.037C111.34 355.14 106.418 352.986 101.427 353.021C96.9829 353.055 92.6756 354.969 88.8128 357.054C78.7283 362.455 70.3873 370.318 61.1917 377.018C59.7217 378.112 61.2259 380.71 62.7642 379.582Z" fill="#D67993"/>
<path d="M58.5255 383.069C69.8405 381.428 80.7452 377.599 92.1628 376.54C94.0772 376.369 94.0772 373.36 92.1628 373.531C80.4718 374.625 69.3276 378.488 57.7391 380.163C55.8247 380.437 56.6453 383.342 58.5255 383.069Z" fill="#D67993"/>
</svg>
