<svg width="578" height="120" viewBox="0 0 578 120" fill="none" xmlns="http://www.w3.org/2000/svg">
<path d="M577.327 53.3685C577.851 51.9814 578.141 48.4072 577.298 48.7806L576.019 54.4888L577.327 53.3685Z" fill="#C4D4DA"/>
<path d="M573.287 40.5132C572.066 43.1805 570.758 48.0885 570.99 53.7966C572.211 48.1952 572.24 50.6492 573.781 44.0341C574.653 43.5006 575.002 46.328 574.653 48.5153C575.089 47.0749 575.67 50.2757 576.514 46.7015C576.048 41.6868 574.595 40.94 572.909 44.5142C572.734 43.1272 573.112 41.6335 573.287 40.5132Z" fill="#C4D4DA"/>
<path d="M491.106 42.4326L491.571 43.2862C491.455 42.8594 491.309 42.5927 491.106 42.4326Z" fill="#C4D4DA"/>
<path d="M440.902 20.8824C441.309 20.8824 441.542 20.3489 441.6 19.8154C441.193 20.0822 440.844 20.3489 440.902 20.8824Z" fill="#C4D4DA"/>
<path d="M432.53 11.5462C432.705 11.8129 432.879 11.9196 433.024 12.0797C432.879 11.4928 432.676 11.1194 432.53 11.5462Z" fill="#C4D4DA"/>
<path d="M491.106 42.4335L489.914 40.1929C489.682 42.1667 490.496 41.8466 491.106 42.4335Z" fill="#C4D4DA"/>
<path d="M562.298 54.3837C562.56 54.0637 562.734 53.4768 562.938 52.73C562.734 52.9967 562.531 53.2635 562.327 53.4235C562.298 53.7969 562.298 54.0637 562.298 54.3837Z" fill="#C4D4DA"/>
<path d="M512.85 39.2311L513.228 39.1777C513.315 38.4842 513.403 37.6307 513.461 36.6704L512.85 39.2311Z" fill="#C4D4DA"/>
<path d="M529.129 34.1638C528.722 34.0571 529.129 39.1784 529.217 41.4723C529.217 39.2851 529.391 38.2181 529.682 37.6847C529.594 36.7244 529.42 35.5508 529.129 34.1638Z" fill="#C4D4DA"/>
<path d="M557.676 34.0585L558.141 33.2583C558.025 33.4717 557.821 33.7384 557.676 34.0585Z" fill="#C4D4DA"/>
<path d="M501.192 38.1113C501.192 37.3644 501.164 36.6709 501.106 36.2441C501.077 36.8843 501.135 37.5245 501.192 38.1113Z" fill="#C4D4DA"/>
<path d="M26.1613 108.103C26.0744 107.782 26.0165 107.569 25.9586 107.249C25.9875 107.836 26.0455 108.209 26.1613 108.103Z" fill="#C4D4DA"/>
<path d="M2.06293 101.648L2.23735 101.168C2.00479 100.261 1.8013 99.4078 1.53967 98.5542L2.06293 101.648Z" fill="#C4D4DA"/>
<path d="M415.931 1.46086C415.96 1.51421 415.96 1.51421 416.018 1.56756C416.484 1.03409 416.222 1.08743 415.931 1.46086Z" fill="#C4D4DA"/>
<path d="M269.128 45.5273C270.64 50.2219 266.425 51.2888 268.75 56.5702C268.576 54.543 271.047 48.6215 269.128 45.5273Z" fill="#C4D4DA"/>
<path d="M561.862 53.7432C561.659 53.7965 561.426 53.9032 561.223 53.8499C561.513 54.0099 561.717 53.9566 561.862 53.7432Z" fill="#C4D4DA"/>
<path d="M268.75 56.5688L268.982 57.1023C268.895 56.8889 268.837 56.7289 268.75 56.5688Z" fill="#C4D4DA"/>
<path d="M375.873 8.07764C376.018 8.93119 376.251 9.57136 376.454 10.2115C376.425 9.67805 376.28 9.09123 375.873 8.07764Z" fill="#C4D4DA"/>
<path d="M405.553 11.0651L404.826 10.3716C405.117 10.8517 405.35 11.0117 405.553 11.0651Z" fill="#C4D4DA"/>
<path d="M361.919 20.5066C361.512 20.2932 361.28 19.5997 360.844 20.5066C360.931 20.72 360.989 20.88 361.076 21.04C361.193 20.2932 361.396 19.8664 361.919 20.5066Z" fill="#C4D4DA"/>
<path d="M347.094 27.0693C347.239 27.3894 347.355 27.6562 347.501 27.9762C347.646 27.8162 347.791 27.6562 347.937 27.4961L347.094 27.0693Z" fill="#C4D4DA"/>
<path d="M66.5691 76.4685C66.0167 75.2415 65.5807 73.8544 65.1737 72.4141C65.9877 75.7749 64.1563 78.1756 66.5691 76.4685Z" fill="#C4D4DA"/>
<path d="M562.211 51.5029C562.153 52.8366 562.066 53.4768 561.862 53.7435C562.007 53.6902 562.153 53.5301 562.298 53.4234C562.327 52.6766 562.298 51.9297 562.211 51.5029Z" fill="#C4D4DA"/>
<path d="M366.134 60.4634L363.809 60.6234C364.507 60.8368 365.35 60.8368 366.134 60.4634Z" fill="#C4D4DA"/>
<path d="M167.732 56.9961L167.18 57.4762C167.384 57.6363 167.558 57.5296 167.732 56.9961Z" fill="#C4D4DA"/>
<path d="M357.268 64.3051C356.629 62.7046 356.047 61.9044 355.524 61.4243C355.495 61.8511 355.408 62.2245 355.437 62.8647L357.268 64.3051Z" fill="#C4D4DA"/>
<path d="M53.0517 92.953C55.1156 91.6726 52.7609 86.0712 52.4702 82.0701C54.5633 78.5492 54.5342 86.0178 56.0168 88.7385C57.2086 86.0712 57.2668 79.4561 58.4877 78.976C58.7784 79.9896 59.0691 80.203 59.0401 81.6967C59.7377 75.5618 63.8075 78.3358 64.6215 70.8672C64.854 71.3473 65.0285 71.8808 65.1447 72.3076C64.2726 69.2668 63.6622 65.9593 63.3133 63.612C64.2436 62.9718 64.3889 58.4906 65.4936 62.545C64.8831 62.7584 65.1157 64.4655 65.0866 65.9593L65.7843 63.5586C67.7029 69.1601 64.7668 66.4394 65.5517 70.9205C67.1506 67.8798 68.604 61.5314 70.3773 62.385C71.6273 68.1998 67.2378 66.3327 70.0575 70.5471L67.3831 69.5335C70.6971 77.9624 65.9005 69.6402 69.1564 78.8159C72.4122 78.9226 71.9762 73.8013 75.232 74.068C75.4064 70.3871 74.2436 69.2668 74.418 65.5858C77.8773 57.4237 79.9995 79.0827 81.9762 69.4802C82.2088 65.0524 81.5111 57.2103 84.3309 60.3045L84.4762 67.5063C87.4995 66.9729 84.8832 56.9436 88.5751 60.2511C88.3425 63.1852 86.5402 63.5053 87.0925 64.1454C89.7669 68.7333 88.0227 59.6643 89.5635 58.9708L90.61 64.9457C93.6042 62.5984 96.6274 57.157 100.029 54.7563C99.9995 56.6768 99.5926 58.8107 100.61 60.3578C104.738 55.8766 110.145 58.2773 114.564 61.1047L115.843 55.4498C116.221 55.4498 116.686 57.7438 116.337 58.8641C118.11 60.5712 116.221 55.4499 116.889 53.1559C117.819 52.5691 118.314 55.9833 117.819 57.7438C120.465 52.4624 125.814 46.5942 129.128 52.0356L128.575 53.6894C131.046 55.6099 131.046 42.2731 133.43 47.2344L133.023 48.1946C135.697 49.2616 138.488 48.5147 141.104 48.5147C143.721 48.6748 146.221 49.635 148.139 53.7961C148.604 49.9551 149.883 50.862 151.134 51.3955C152.354 51.9823 153.546 52.3024 153.895 46.9143C156.715 52.6758 155.785 54.4896 159.767 58.704C160.843 59.3442 161.802 52.249 163.256 51.4488L162.936 57.1036L165.203 51.6089L165.785 58.6507L167.18 57.477C166.686 57.0503 166.25 54.703 166.453 53.1026C168.692 50.9687 171.163 58.2773 170.959 61.158C172.674 60.0377 174.419 58.8107 176.163 57.7971C175.843 60.0377 174.971 60.5178 174.215 61.7982C177.296 56.8369 174.157 67.8264 176.977 63.3452C176.773 61.9582 177.442 60.0911 177.616 58.9708C178.488 62.7584 181.134 63.5586 183.285 62.8651L182.5 66.5461C185.988 68.7867 190.262 67.3996 194.331 69.0534C193.081 66.7061 194.157 60.1978 195.436 60.0377L195.233 66.0659C196.424 62.7584 194.244 63.3986 196.337 59.5576C197.791 60.8379 196.599 66.5994 195.494 68.1998L197.587 66.8662C197.5 68.68 196.948 69.4268 196.57 71.6141C197.762 68.3065 199.099 78.7626 200.93 72.8944L200.872 74.6549C204.971 76.3086 207.093 75.0816 210.494 76.1486C211.163 71.1339 212.355 72.7877 213.837 69.1067C216.134 71.7208 218.459 76.7887 221.541 77.4823C223.954 75.7751 222.645 73.4279 223.925 70.7605C223.576 75.4551 226.657 76.1486 224.709 78.8693C228.459 79.4561 229.535 79.6695 234.564 77.4823C234.244 75.4017 233.75 74.4415 234.186 72.9477C235.116 72.4676 235.93 75.5084 235.582 77.6956L235.32 78.1224C238.285 75.4551 240.96 79.8295 243.721 83.6172C246.425 87.4582 249.128 90.9258 251.628 86.4446L251.367 86.8714L256.134 82.7103C258.169 83.8839 254.71 86.0178 256.105 89.1653C261.367 82.0168 263.838 91.4592 268.082 86.3913C269.535 93.4331 272.442 93.3797 275.436 92.3128C276.948 91.8327 278.46 91.1925 279.884 91.1925C281.309 91.0858 282.646 91.6726 283.809 93.7532L283.431 90.499C284.419 87.1381 284.855 92.2061 285.727 92.8463C285.495 90.3389 284.39 90.0722 285 88.2051C294.099 83.0304 304.448 88.7919 314.099 88.045C317.559 87.5115 314.012 70.7605 319.099 76.6821L318.663 83.0837C324.419 73.1611 332.21 77.3222 337.646 68.3065C337.472 69.8536 337.704 71.6141 337.094 71.8808C339.041 75.5084 342.036 69.7469 341.541 66.226C342.559 66.1726 342.21 69.2668 343.082 70.7605C344.768 72.6277 345.611 63.7187 346.919 67.613C347.123 68.2532 346.745 69.1601 346.541 69.6402C347.094 67.1862 350.611 68.2532 349.1 63.7187C351.745 64.999 353.227 59.4509 355.466 61.5314C355.931 55.3965 359.739 62.4383 359.1 54.4363C360.001 62.5984 363.954 59.1308 364.943 54.8097C364.768 57.477 366.512 56.8369 366.338 60.4645C367.966 59.7176 369.274 57.5837 368.518 53.5294C372.617 62.0116 373.78 43.5001 376.774 55.3965C381.164 49.4216 385.466 45.2605 389.768 42.5398C390.059 50.8086 384.972 44.3536 385.757 52.9425C389.536 48.7814 391.658 41.0461 395.873 42.6999C396.978 43.7135 395.379 46.3808 395.088 47.8212C399.1 43.8202 402.937 47.9279 406.629 43.5534C406.6 44.3003 406.193 45.1538 405.815 45.7407C406.542 45.4739 407.472 47.021 407.443 43.2333L406.716 44.2469C405.582 38.6988 409.827 32.9907 410.088 30.1633C408.548 40.8327 413.78 33.2041 411.367 46.6476C411.861 46.0074 412.53 44.3003 412.501 41.7396C413.199 42.5398 413.373 44.0335 412.559 46.8076C415.234 45.0471 414.478 40.9928 416.862 41.4195C416.774 43.2333 416.251 43.8735 415.902 45.954C417.269 42.5932 418.693 39.2856 420.641 41.1528C420.466 42.2197 420.612 43.7135 420.001 43.5534C423.489 43.7135 426.629 35.3913 430.263 39.8725C428.489 47.3944 431.367 42.8066 430.989 49.6883L433.228 48.248L432.705 44.7271C434.507 45.3672 436.571 40.9394 437.937 43.7135L436.309 46.0607L439.856 45.9007L438.17 42.6999C440.379 39.8191 438.809 34.111 441.077 36.7783C440.495 37.2584 442.908 37.5252 443.46 41.793C444.594 39.9792 445.786 38.0587 446.949 40.2459C447.065 42.5398 445.844 47.5545 445.902 49.1015C447.414 43.8202 450.35 49.1549 452.181 43.6601C451.629 44.8871 451.222 48.408 451.251 49.2082L452.53 44.9404C453.199 46.7543 453.257 47.5011 452.792 50.2218C455.263 52.089 452.995 41.3662 455.583 46.2741C455.292 46.5409 455.321 47.2877 454.74 47.7678C457.559 50.9153 460.99 47.2877 463.577 50.6486C463.606 57.7438 460.902 51.2888 461.193 57.3704C465.437 57.7971 470.641 52.6758 474.449 55.7166L473.78 54.703C475.35 45.3672 476.251 60.4645 478.78 56.6768C478.199 57.2103 477.589 61.7982 477.821 60.7312C480.466 63.1852 483.78 60.2511 488.257 58.2773L487.53 60.6245C489.013 63.2919 491.833 62.9718 493.606 64.4122C494.275 62.0116 495.292 62.6517 494.856 58.9174C497.269 66.4927 500.147 64.9457 502.792 62.9185C505.496 60.8379 507.908 58.4373 510.525 64.1988C509.914 64.2521 509.1 66.4394 509.595 66.4394C511.048 65.5858 512.472 64.7856 513.897 63.8254C513.403 59.6109 513.228 61.318 512.269 58.1172C512.734 55.5565 513.839 53.4227 514.856 53.316C513.112 56.3568 515.118 60.0911 516.077 62.385C515.874 61.1047 516.106 59.6643 515.961 58.3306C518.548 65.4791 515.903 49.795 519.1 54.2762L519.071 56.5168C520.118 55.1831 520.903 51.9823 522.124 52.3024C522.996 57.0503 521.135 54.863 521.368 58.9174C523.054 58.1706 523.897 48.8881 525.816 53.2093C525.234 54.8097 524.246 55.1298 523.635 56.6235C525.786 61.9049 525.845 60.3044 527.182 60.8379L527.036 60.7312L530.147 62.385L529.275 61.1047C530.06 47.7678 533.257 57.317 535.089 48.0879C533.286 56.8902 535.147 52.7291 535.554 58.2773C536.426 59.5042 537.705 60.8379 537.56 62.4917C538.374 57.5837 540.089 65.159 541.193 58.0105C541.484 59.7176 542.56 57.6904 542.792 62.1716C544.275 60.1978 542.066 59.2375 541.949 56.9969C543.868 50.0618 548.664 62.0649 551.426 52.7291C554.217 48.4614 554.362 42.2731 557.211 38.6988C558.374 41.3662 556.775 45.3139 556.775 45.3139C558.519 47.6612 559.653 46.861 561.077 44.7271C560.816 46.3275 561.194 47.6078 561.688 49.5817C562.822 48.9948 562.327 42.9666 563.926 45.5273C563.694 47.5011 563.403 50.7553 562.909 52.7825C564.188 50.9687 565.496 47.7678 566.949 46.1141C567.269 49.2082 566.048 50.862 565.583 52.8892C567.124 51.3421 569.537 50.3819 570.292 45.4739L569.333 43.6068C569.944 43.4467 569.479 47.8745 569.013 48.7281C567.589 52.4624 567.153 46.8076 567.066 44.9938C567.415 44.567 567.763 44.3003 568.112 43.9268C567.705 38.5921 566.572 39.0189 565.351 40.6727C564.13 42.2731 562.909 45.2605 561.862 45.1005L562.56 37.3118C561.862 39.499 561.165 41.6863 560.525 43.8735C560.002 41.953 559.479 37.7386 560.525 36.4582C558.752 32.8306 559.246 39.3923 557.676 35.3913C557.502 34.7511 557.531 34.3777 557.676 34.0576L556.252 36.6183C556.455 34.9645 555.67 31.2836 556.688 32.2438C553.519 28.4028 552.56 39.0189 551.077 33.5241L551.281 32.9907C547.647 36.725 551.368 38.6455 549.159 46.0074L545.932 32.9907L546.106 38.6455C545.699 38.5921 544.885 38.4321 544.798 36.1915C543.723 40.4593 545.292 38.4854 544.827 42.3798C542.414 38.0053 539.943 46.5942 538.548 38.0053C538.345 42.4331 540.699 40.566 539.042 44.1936C537.414 34.9645 536.92 46.7009 534.74 43.0199C534.711 37.952 536.6 39.9258 534.42 36.2449C534.333 44.8338 530.932 35.7114 529.711 37.7386C530.35 44.3003 526.92 41.5796 524.769 44.4603C524.711 42.2197 520.002 42.2197 517.734 40.1392V39.0189C517.734 45.8474 515.409 45.0471 513.81 46.5409C513.722 42.4865 513.955 40.8861 514.74 38.9656L513.257 39.1789C512.996 41.3662 512.56 42.5932 511.571 43.4467L511.833 38.3787C509.914 38.7522 507.879 44.567 505.263 41.0994C505.031 45.794 507.356 54.2229 504.362 57.317C504.275 54.7563 504.246 50.4352 505.001 49.3683C504.769 49.6884 504.1 51.5022 503.606 50.3285L504.798 46.1141C503.606 44.1936 504.1 49.6883 503.141 49.2082C503.228 45.5806 502.472 46.5409 502.676 43.7135C502.938 43.3934 503.49 45.2605 503.897 43.8735C502.821 43.1266 501.571 40.8861 501.222 38.112C501.251 40.1925 501.077 42.9666 500.263 43.3934C498.199 43.34 499.711 38.9656 498.635 36.885C498.025 39.339 496.862 36.5649 496.571 41.953C495.961 41.8463 495.99 39.2856 495.844 37.7919C494.682 39.9792 490.903 37.4718 491.687 43.4467L491.949 43.8735C491.891 43.9802 491.833 43.9802 491.746 44.0869C487.792 48.6214 484.653 39.1789 480.99 40.2992L481.164 38.5388C478.868 39.8725 476.426 38.1654 474.507 41.4195C473.897 41.2061 473.402 37.6319 473.897 35.6047C472.152 36.3515 471.746 38.272 469.769 34.431C471.716 31.9771 469.536 31.4969 471.687 32.7773C469.798 30.43 469.682 27.4426 466.862 31.3903C468.17 27.1758 465.99 25.0419 464.827 26.0022L465.902 29.8432C464.711 30.0566 463.78 29.2564 462.85 28.4562L464.1 22.6947C460.699 13.679 454.885 31.9237 453.024 18.4802C451.397 22.2145 455.03 22.3746 453.431 26.8557C451.542 25.2553 450.408 15.8662 449.798 15.5995C447.385 11.2783 446.251 23.3882 443.606 20.134C443.751 22.4279 443.49 28.2428 441.164 29.5231C439.245 28.0827 439.594 19.7072 441.048 18.4269C441.542 18.4269 441.716 19.1737 441.629 19.8673C442.356 19.2804 443.315 18.6936 442.763 16.0796L442.24 18.1068C441.455 15.5995 438.606 14.8526 439.623 11.5984C437.879 13.1455 438.635 14.906 439.652 16.3997C437.327 12.452 435.553 15.0127 433.024 12.1319C433.373 13.4656 433.548 16.0796 433.112 15.9196C429.333 12.1853 431.019 19.4938 428.286 19.7606C427.007 16.0796 429.42 12.0252 426.484 14.1591C424.972 11.5451 426.513 8.34425 427.327 6.74383C424.536 10.3181 422.763 2.95618 421.309 1.94258L422.763 0.448859C421.891 1.35576 421.222 1.19572 420.553 1.03568L421.106 5.51685C420.35 4.60994 419.681 4.4499 419.798 2.68944C418.838 5.41015 420.059 9.99801 418.257 13.6256C417.327 11.2783 415.001 15.4928 414.856 9.73128C418.082 12.1319 414.71 3.86308 417.588 3.32961C417.007 3.91643 416.338 3.80973 415.582 2.95618C415.495 2.31601 415.728 1.78254 415.989 1.46246C412.937 -4.03231 414.274 7.75743 410.96 7.33065C411.454 4.12982 410.321 1.08903 409.768 1.72919C411.135 1.88923 410.292 7.22396 409.013 9.62458C406.949 6.95722 406.687 11.4384 405.582 11.065L406.832 12.2919C406.367 15.5461 405.35 15.066 403.896 16.0796C403.78 13.5189 405.234 14.3191 404.71 13.1988C403.111 18.907 401.018 7.2773 398.751 11.225C397.646 9.09111 398.547 5.09007 397.559 3.70304C395.059 8.23755 394.594 -0.458044 391.949 3.32961C392.908 7.59739 392.995 6.53044 391.28 11.0116L395.611 7.43735L392.995 14.1058C394.303 13.9991 395.699 11.065 396.513 11.7051C395.263 15.4394 395.379 14.3191 396.106 17.8934C394.1 11.5451 392.733 22.1078 390.495 17.9468L390.03 7.11726C386.571 3.00953 384.71 13.679 380.524 12.0252L381.949 13.5189C381.745 17.9468 379.536 14.7993 378.373 16.8798C378.199 13.2522 377.268 12.1852 376.512 10.1047C376.803 12.7187 373.518 10.6915 373.838 18.0001L371.6 13.9991C368.169 13.2522 369.012 25.3087 365.902 25.3087C366.367 21.0942 364.71 19.1204 366.425 15.5461C365.408 15.9196 364.419 15.6528 364.681 18.1068C363.809 16.1329 362.443 24.0283 361.105 20.9875C360.873 22.6947 361.193 26.4823 360.03 26.6423C359.826 26.0022 359.826 24.8819 359.826 24.8819C360.03 26.6423 358.373 28.0294 359.855 31.4969C355.379 21.7878 351.454 36.0315 347.53 27.8693C345.524 30.0566 343.111 32.4039 341.222 33.6308C341.193 32.5105 340.989 31.8704 341.396 32.0838C338.257 30.1099 341.193 42.9666 337.617 40.7794C335.262 35.8714 338.78 36.9384 337.501 35.2313C335.437 23.8683 334.07 38.5921 331.076 32.8306L331.483 31.9237C329.361 28.7762 328.315 38.112 325.669 38.4854C325.669 38.4854 325.64 37.4185 325.437 36.725C324.535 43.4467 321.512 46.9143 319.274 49.635C319.448 44.7804 320.059 46.7543 318.983 42.3264C317.966 43.4467 320.291 49.5817 318.256 51.8756C317.21 49.6883 315.349 48.248 314.535 43.34L316.541 42.1664C314.681 36.2982 313.925 43.5001 312.704 42.8599L312.501 40.0325C309.506 42.1664 310.291 49.3683 306.832 50.0618L307.413 52.0356C306.309 59.7176 305.437 48.6214 304.128 54.5429L302.849 47.6078C301.832 49.795 299.245 55.93 297.123 57.9038C297.937 52.1957 300.233 48.8348 301.483 45.1005C300.291 45.5273 297.5 46.8076 297.181 50.5953C297.617 49.7417 298.053 47.8212 298.634 48.7814C297.675 54.8097 295.902 58.2239 293.46 58.704C292.907 44.6204 286.89 56.6768 284.652 45.9007C282.704 48.7281 280.611 48.5147 278.46 47.5545C276.309 46.4875 274.099 44.9404 271.715 45.3672C273.372 56.4101 270.291 45.5806 270.495 56.8369C269.332 57.477 268.867 57.2637 268.779 56.5168L265.436 49.635C264.71 46.3275 266.57 47.2344 266.541 44.6737C264.128 43.6601 265.64 39.8191 264.157 36.6716C264.361 40.726 263.111 42.2731 261.774 40.566L263.547 46.0074C259.826 51.4488 260.989 36.2982 257.239 41.5262L258.518 38.3787C256.628 40.0325 252.035 37.0984 249.593 45.4739C249.361 44.0869 249.186 40.9394 250.029 40.3526C245.901 38.0053 239.564 47.1277 236.686 40.566L237.297 38.0053C236.396 38.4854 235.378 42.5932 234.622 39.499C234.797 38.3787 235.233 36.9384 234.855 36.6183C234.332 37.3118 232.209 40.5126 231.279 38.5921L232.529 35.8714C228.663 30.8568 225.175 40.8327 221.337 41.3128C222.268 33.4174 219.157 29.5231 217.616 27.5493L217.82 26.429C212.907 23.4415 208.459 29.5231 203.372 30.8034C201.454 21.0409 193.808 23.3348 189.477 16.8265C190.058 18.5336 188.721 22.9614 187.791 23.4949C186.831 21.4677 184.128 27.9227 185.029 20.7208L185.436 20.9875C185.291 13.5723 182.732 14.6926 180.901 13.8924L179.738 23.3882C177.994 15.6528 174.622 16.1329 171.628 16.7731C168.575 17.52 165.872 18.6403 164.884 12.0786C163.546 14.2124 162.064 13.9991 160.785 16.2396L161.104 11.065C157.849 9.3045 156.163 8.2909 152.006 9.09111L152.965 5.41015C150.61 4.93003 149.651 20.2407 147.558 20.4007L147.064 12.612C145.058 12.612 143.052 10.7449 141.017 9.94467C138.982 9.1978 136.947 9.3045 135 12.9321C135.058 11.8118 135.145 9.51789 135.785 9.1978C133.808 8.93107 128.197 4.23651 129.186 14.906C128.953 7.97082 125 14.6926 123.023 18.0001L123.168 12.8788C121.569 19.6539 121.598 21.3076 119.186 23.6016C118.575 23.0681 118.459 19.6005 119.331 20.7742C117.209 18.4802 118.052 25.8955 115.523 23.6549L116.221 20.2407C114.157 20.2407 114.418 21.9478 113.546 25.9488C112.412 28.2428 109.651 25.362 109.011 20.9342C108.924 23.8149 108.11 27.8693 106.831 26.8557C106.54 25.1486 106.889 23.975 107.064 23.3882C103.401 20.8808 102.558 30.6434 99.7961 26.3223C99.5926 24.6685 99.36 23.8683 99.1274 23.4415C101.831 22.8013 104.011 22.4813 103.837 22.908C103.459 18.2135 101.191 18.0534 102.412 11.1183C100.901 15.1193 98.6042 23.5482 96.2786 22.1612C96.1623 21.6811 96.017 21.3076 95.8716 20.6141L96.046 20.0273C95.5228 19.7606 95.1158 20.294 94.767 21.2543C94.0111 20.7208 93.517 20.294 92.8774 20.4541C92.2379 16.7198 90.1448 19.2804 89.0402 19.4405C89.6797 24.4551 88.1972 24.135 89.9704 27.8693C89.7669 27.5493 90.1158 27.1758 90.7844 26.749C90.9297 26.5357 91.1042 26.3756 91.1914 26.0555C91.1914 26.2156 91.1623 26.3756 91.1623 26.5357C91.86 26.1622 92.7611 25.6821 93.8077 25.2553C93.2263 28.1361 92.5867 30.59 91.1042 28.1894C90.9007 31.657 90.6972 35.1779 90.5228 36.885C88.2844 30.3233 85.0285 27.7626 84.0983 23.6016C81.1622 27.816 76.5692 28.7229 75.9006 39.1789C75.1739 40.8327 74.4762 36.9917 73.9238 35.7114C74.3018 34.4844 74.9704 34.3243 75.0576 32.8306C73.575 36.1382 69.7668 36.4582 70.3482 43.18C67.6157 41.3662 70.6971 36.5116 67.7319 39.1789L67.8482 36.9384C63.9238 33.4708 62.0633 39.0723 60.1447 44.2469C58.197 49.3683 56.2784 54.4896 51.6854 50.0084C52.2958 50.5419 52.6156 50.7553 52.9063 51.7689C44.0691 50.7553 38.4876 67.6664 29.1562 64.3055C26.6271 64.0921 27.3539 68.3065 26.8306 72.3609L25.1736 67.6664L24.4469 75.295C22.4992 82.0168 16.0457 67.2396 14.2724 78.7092L15.6387 81.6433C14.098 82.2302 11.8596 87.4582 11.0456 83.4038C11.0747 84.1507 11.5398 87.2981 10.5224 86.0178L9.76656 83.4571C9.03982 85.9111 8.37121 88.4718 7.67353 90.9791C4.59212 91.5659 5.23166 80.3097 1.30722 83.4038C0.173495 85.7511 -0.524183 94.6601 0.493264 95.887C1.10373 95.4603 2.38281 96.1004 3.1677 98.6611L2.2956 101.168C4.24328 108.957 5.5805 117.546 10.0863 120L10.8712 113.385L12.5863 116.426L10.8421 118.293C12.8189 120.8 12.5863 117.173 12.7026 114.345C13.4294 116.159 14.098 117.226 14.7084 117.599L14.7375 108.37C15.8131 111.144 15.4352 115.199 17.2666 115.519C17.2957 111.251 14.505 109.651 15.4933 105.97C17.4701 108.53 17.9061 111.678 18.3131 107.623C19.0108 109.437 19.098 110.931 18.8654 112.211C19.2724 108.904 21.3945 108.744 20.8713 104.156C23.0515 107.57 24.1562 99.8347 25.9294 107.25C25.8132 105.169 26.3364 99.9414 27.2666 98.7678C27.6736 109.064 31.0748 96.2605 32.9062 106.13C32.2957 97.0607 36.8306 98.6611 38.1679 92.4728C38.1679 93.2197 38.226 94.7134 37.9062 94.4467C39.3888 94.0732 40.3481 96.2071 41.54 97.114C40.2028 90.3389 41.976 87.1915 42.2086 82.2302C45.2609 87.4048 42.9063 90.8191 44.7958 96.6339C43.5167 91.2458 46.4819 89.1653 44.9412 85.0576C47.0633 88.1517 46.4528 86.2312 48.2842 91.3525C46.7435 82.817 49.1563 89.112 49.1563 83.1904C51.8598 86.0712 51.2493 90.7657 52.7319 86.7647C54.2144 88.7385 53.0517 92.953 53.0517 92.953ZM99.8833 53.1559C99.8833 53.2093 99.8833 53.2626 99.8833 53.2626C99.4472 53.5294 99.0984 53.7427 98.8658 53.9028C99.0984 53.7961 99.3891 53.5827 99.8833 53.1559ZM104.157 51.8222C103.604 51.7689 102.965 51.9289 102.267 52.1423C101.976 50.3819 101.947 48.5147 102.412 48.5147C102.267 49.7417 103.372 50.4886 104.157 51.8222ZM91.3658 19.6539C92.0053 18.6936 92.3542 19.6005 92.5576 20.6141C92.2379 20.8275 91.8309 21.1476 91.3658 21.6811C91.3658 21.8411 91.3658 22.1078 91.3367 22.3212C91.3367 21.3076 91.3076 20.3474 91.3658 19.6539Z" fill="#C4D4DA"/>
<path d="M90.7845 26.7494C90.6972 26.9094 90.6682 27.1228 90.5228 27.2295C90.7263 27.603 90.9007 27.9764 91.0752 28.2431C91.1042 27.6563 91.1333 27.1228 91.1624 26.5894C91.0461 26.5894 90.9007 26.6427 90.7845 26.7494Z" fill="#C4D4DA"/>
<path d="M491.658 43.392L491.571 43.2319C491.629 43.4453 491.687 43.6587 491.716 44.0321C491.687 43.7654 491.687 43.6054 491.658 43.392Z" fill="#C4D4DA"/>
<path d="M162.907 58.4908L162.994 57.2104L162.558 58.2774L162.907 58.4908Z" fill="#C4D4DA"/>
<path d="M516.106 62.3853C516.164 62.812 516.309 63.2922 516.513 63.6656C516.484 63.2922 516.309 62.8654 516.106 62.3853Z" fill="#C4D4DA"/>
<path d="M527.211 60.7842L528.926 62.1179C528.141 61.3177 527.618 60.9976 527.211 60.7842Z" fill="#C4D4DA"/>
<path d="M535.669 60.4648C535.669 59.5579 535.64 58.8644 535.583 58.2242L535.554 58.1709L535.669 60.4648Z" fill="#C4D4DA"/>
<path d="M405.815 45.6333C405.699 45.6333 405.611 45.74 405.524 45.8467C404.856 46.8603 405.321 46.4869 405.815 45.6333Z" fill="#C4D4DA"/>
<path d="M443.46 41.7925C442.966 42.5927 442.472 43.3395 442.007 43.7663C442.646 44.3531 443.141 44.6199 443.46 41.7925Z" fill="#C4D4DA"/>
<path d="M366.394 60.4627C366.394 60.4096 366.394 60.4096 366.394 60.3564C366.308 60.4096 366.221 60.4096 366.135 60.4627H366.394Z" fill="#C4D4DA"/>
<path d="M440.292 43.0197C440.844 44.2467 441.426 44.2467 442.007 43.7133C441.513 43.2331 440.931 42.4863 440.292 43.0197Z" fill="#C4D4DA"/>
<path d="M568.606 54.9178L568.926 55.1845C568.926 54.8644 568.955 54.5443 568.984 54.3843L568.606 54.9178Z" fill="#C4D4DA"/>
<path d="M569.013 54.33L569.42 53.7432C569.217 53.7432 569.071 53.7432 569.013 54.33Z" fill="#C4D4DA"/>
<path d="M570.263 52.5679L569.42 53.7949C569.682 53.7949 570.002 54.0082 570.263 52.5679Z" fill="#C4D4DA"/>
<path d="M559.042 52.8892L559.013 54.7563C559.071 54.3829 559.071 53.7961 559.042 52.8892Z" fill="#C4D4DA"/>
<path d="M556.048 54.0615C556.833 54.2748 558.083 57.6891 558.984 56.302L559.013 54.8083C558.723 57.6891 556.571 50.7006 556.048 54.0615Z" fill="#C4D4DA"/>
<path d="M540.641 35.4436L543.519 35.9238C542.821 34.11 541.92 31.7093 543.112 30.8024C539.013 26.2146 544.304 34.9102 540.641 35.4436Z" fill="#C4D4DA"/>
<path d="M531.978 35.7661C533.316 34.3257 531.659 32.9387 531.6 31.8184C530.874 33.8989 530.699 34.4324 531.978 35.7661Z" fill="#C4D4DA"/>
<path d="M473.489 33.5233L474.158 28.9888C472.966 29.2022 473.925 30.7492 473.489 33.5233Z" fill="#C4D4DA"/>
<path d="M459.216 52.7272L459.943 56.0347L460.961 52.0337L459.216 52.7272Z" fill="#C4D4DA"/>
<path d="M456.309 17.3073L456.862 16.8271L454.798 17.7341L456.309 17.3073Z" fill="#C4D4DA"/>
<path d="M349.1 21.4127L350.204 26.8541C350.815 25.5204 350.117 19.1187 349.1 21.4127Z" fill="#C4D4DA"/>
<path d="M306.861 46.7552C306.076 44.0879 304.71 42.7008 304.274 45.7416C305.262 45.795 306.454 47.6621 306.861 46.7552Z" fill="#C4D4DA"/>
<path d="M178.023 15.4384L179.128 13.7847L177.238 14.905L178.023 15.4384Z" fill="#C4D4DA"/>
</svg>
