<svg width="274" height="258" viewBox="0 0 274 258" fill="none" xmlns="http://www.w3.org/2000/svg">
<path d="M57.3425 5.62519C59.8761 4.33023 63.6484 4.16136 66.9139 3.99245C68.9408 3.87985 71.9249 3.71091 72.4879 3.26049C74.9089 -0.230266 96.0224 0.783173 104.355 4.83696C105.481 5.39998 108.972 7.08911 116.685 28.9908C121.696 43.1791 127.327 62.6597 130.761 77.8614C130.874 76.0597 131.043 74.2018 131.268 72.2875C133.351 50.5547 138.193 22.4034 145.174 14.8025C152.212 7.08908 158.462 5.62522 162.178 4.78069C163.135 4.55548 164.374 4.27394 164.599 4.04873L165.387 2.69752L166.569 3.71092C169.779 6.41345 174.17 8.83448 175.296 8.04624C177.154 6.69498 180.87 6.86385 184.812 7.03275C187.064 7.14536 190.442 7.3143 191.117 6.80758C191.568 6.46977 192.356 5.68153 193.144 4.78069C195.34 2.41598 197.874 -0.342826 200.238 0.0512917C200.97 0.163897 201.928 0.557963 202.603 2.02183C203.617 4.21763 205.531 5.96306 207.389 7.70844C208.853 9.11601 210.429 10.5235 211.499 12.2126C212.963 14.4084 211.78 16.8294 210.88 18.7437C209.641 21.3336 209.303 22.4034 210.88 23.5857C212.343 24.6555 214.37 25.1622 216.341 25.6126C220.057 26.5135 224.674 27.6396 223.942 33.495C223.097 40.1387 223.885 44.8118 226.081 46.3883C228.39 48.0211 227.095 51.9059 225.856 55.6782C225.462 56.8042 224.955 58.3807 224.899 59.1126C226.138 60.0135 227.433 61.7025 227.827 63.5042C228.108 64.9681 227.827 66.3757 226.982 67.558C225.237 70.0353 223.717 75.553 224.617 77.411L225.068 78.3681L224.28 79.0438C224.167 79.1001 217.354 84.674 207.333 91.5992C222.196 87.095 225.8 87.9959 227.207 89.0656C229.966 91.0925 232.5 93.5698 234.977 95.9345C238.806 99.5942 242.465 103.085 244.943 103.085C249.053 103.029 250.066 107.927 250.854 111.53C251.136 112.994 251.53 114.74 251.924 115.246C252.318 115.64 253.05 116.372 253.895 117.161C258.68 121.721 262.96 126.113 262.565 129.435C262.34 131.461 267.407 140.019 272.475 147.057L273.488 148.521L271.799 149.084C269.096 149.985 261.496 153.419 262.171 157.079C262.847 160.739 260.088 164.173 257.442 167.495C255.64 169.747 253.726 172.056 253.782 173.745C253.782 176.335 252.093 179.431 249.222 182.077C245.731 185.23 241.452 186.92 237.68 186.525C234.301 186.188 232.894 188.44 231.036 191.93C229.797 194.351 228.221 197.392 225.012 196.378C221.577 195.252 215.665 197.955 213.638 199.081L213.132 199.362L212.569 199.194C210.767 198.63 205.643 197.335 203.335 198.011C202.322 198.293 200.689 199.588 199.281 200.77C196.973 202.628 195.002 204.261 193.201 203.979C192.469 203.866 191.849 203.472 191.455 202.853C191.286 202.572 191.005 202.177 190.667 201.671C187.796 197.223 179.125 183.654 172.819 179.319C171.749 178.587 170.285 177.179 168.371 174.983C171.074 182.021 173.101 188.552 174.452 194.464C177.661 208.427 177.098 219.068 172.763 226.162C162.91 242.321 155.196 244.573 148.947 246.375C145.343 247.445 142.753 248.177 140.445 251.498L139.713 252.625L138.643 251.836C136.842 250.541 131.549 247.557 128.509 249.134C126.82 250.035 124.568 251.836 122.597 253.469C119.106 256.341 117.192 257.804 115.672 257.523C115.109 257.41 114.659 257.129 114.377 256.622C113.251 254.82 99.5131 243.335 95.2904 244.855C91.1804 246.375 87.4081 241.364 84.424 237.367C83.2417 235.734 81.3837 233.313 80.7081 233.2C76.4854 233.2 65.4501 215.071 64.1551 205.893C63.9862 204.655 63.4232 200.883 76.6543 182.978C68.3778 189.566 58.5812 196.378 52.5568 197.223C42.1971 198.63 36.5106 195.759 33.1324 194.014C32.2316 193.563 31.1055 193 30.824 193.056L29.3601 193.563L29.0786 192.043C28.3467 187.877 26.545 183.203 25.1374 183.091C22.8853 182.922 20.1265 180.445 17.1988 177.742C15.566 176.222 13.0324 173.97 12.2442 173.914C11.6811 173.857 10.5551 174.026 9.37272 174.139C6.16347 174.533 2.50381 175.04 0.927335 173.238C0.476914 172.731 -0.0298087 171.718 0.364309 170.198C0.983637 167.833 0.645822 165.299 0.364309 162.766C0.139099 160.739 -0.142414 158.656 0.0827964 156.685C0.364309 154.039 2.78532 152.969 4.75591 152.068C7.40213 150.886 8.35927 150.266 7.85255 148.408C7.40213 146.663 6.16347 144.974 4.98112 143.341C2.72902 140.245 -0.142414 136.472 4.19288 132.419C9.09121 127.858 11.5122 123.748 10.8366 121.158C10.1047 118.399 13.5954 116.26 16.9736 114.177C17.9307 113.557 19.3946 112.656 19.9013 112.15C19.5072 110.686 19.6198 108.546 20.4643 106.914C21.14 105.619 22.266 104.718 23.6736 104.324C26.6013 103.535 31.3307 100.27 31.7811 98.243L32.0064 97.2295H33.0761C33.1324 97.2295 36.0038 97.2295 40.7332 97.511C33.808 93.4572 29.1349 88.8967 26.8265 83.7732C18.9442 66.5446 21.4215 58.8875 23.3921 52.7505C24.5181 49.1471 25.3626 46.6135 23.8988 42.8412L23.3921 41.6025L24.6307 41.1522C26.7139 40.3639 32.119 37.6051 32.5131 34.2269C32.7383 32.3126 32.4568 29.4412 32.2316 26.9076C31.8374 22.4033 31.6685 19.9823 32.7383 18.9126C33.1324 18.5185 33.6391 18.2933 34.2022 18.3496C36.3416 18.4622 53.5702 13.4513 54.64 9.05965C55.0341 7.31427 55.9912 6.30082 57.3425 5.62519ZM73.614 5.62519C72.2627 6.35712 69.9543 6.46972 67.0829 6.58232C63.1417 6.75123 57.7929 7.03274 57.2299 9.39745C55.7097 15.5344 38.4811 20.2075 34.6526 20.658C34.4837 21.7277 34.7089 24.4866 34.8778 26.4009C35.103 29.216 35.3845 32.0875 35.103 34.2833C34.5963 38.7312 29.1349 41.7151 26.6576 42.8412C27.8963 46.895 26.8828 49.9916 25.8131 53.3135C23.9551 59.0563 21.703 66.1504 29.1349 82.4219C31.7811 88.1647 37.8618 93.3446 47.3207 97.7362L53.7954 100.777L46.645 100.27C40.3954 99.8195 35.7223 99.7068 33.8643 99.6505C32.3442 102.691 27.3895 105.787 24.2366 106.632C23.561 106.801 23.0542 107.251 22.6601 107.871C22.0408 109.053 22.0971 110.742 22.3786 111.474C22.9979 113.219 21.0837 114.345 18.2122 116.147C16.9173 116.935 13.0324 119.356 13.2576 120.201C14.2147 123.861 11.6811 128.646 5.88196 134.051C3.51725 136.247 4.30549 137.824 7.00801 141.427C8.30297 143.172 9.76684 145.143 10.3299 147.451C11.3433 151.618 7.96516 153.194 5.71305 154.208C3.85507 155.052 2.72902 155.615 2.61641 156.685C2.4475 158.374 2.61641 160.176 2.89792 162.146C3.23574 164.905 3.57356 167.72 2.84162 170.535C2.78532 170.817 2.78532 171.042 2.84162 171.155C3.51725 171.887 7.23322 171.436 8.9786 171.211C10.3299 171.042 11.5122 170.873 12.3568 170.93C13.9895 171.042 15.9038 172.731 18.9442 175.49C21.0837 177.404 23.9551 180.051 25.3063 180.163C28.966 180.388 30.7677 186.919 31.4433 190.129C32.2879 190.298 33.1887 190.748 34.3148 191.311C37.4114 192.887 42.6475 195.534 52.219 194.239C57.6803 193.507 68.4904 186.413 82.1156 174.702C83.2417 173.745 84.9308 173.745 86.0005 174.758C83.6358 177.742 81.44 180.614 79.4694 183.316C67.2518 199.813 66.745 204.148 66.8576 205.105C68.2089 214.733 78.6249 229.597 80.877 230.16C82.6787 230.16 84.3114 232.356 86.6198 235.396C88.9846 238.549 92.1938 242.828 94.4459 241.983C100.414 239.788 113.87 251.442 116.404 254.426C117.361 253.976 119.557 252.23 121.021 250.992C123.217 249.19 125.469 247.388 127.439 246.375C131.437 244.348 136.954 247.163 139.263 248.571C141.909 245.305 145.118 244.404 148.44 243.447C154.183 241.758 161.39 239.675 170.736 224.417C174.677 217.942 175.127 207.977 172.087 194.689C170.229 186.582 167.02 177.292 162.628 167.045L158.18 156.741L164.88 165.693C166.964 168.509 168.878 170.873 170.454 172.731C172.65 175.265 173.833 176.278 174.452 176.672C180.476 180.839 187.964 191.818 193.032 199.756C193.37 200.263 193.595 200.657 193.764 200.939C194.383 200.995 196.579 199.25 197.705 198.293C199.507 196.829 201.196 195.477 202.716 195.027C205.756 194.182 211.105 195.59 212.907 196.097C214.764 195.14 221.352 191.987 225.856 193.451C226.757 193.732 227.32 192.944 228.671 190.298C230.304 187.201 232.5 182.922 237.905 183.485C240.889 183.767 244.436 182.359 247.364 179.713C249.672 177.63 251.136 175.152 251.08 173.35C251.023 170.761 253.107 168.171 255.359 165.412C257.667 162.541 260.032 159.613 259.581 157.135C258.624 151.787 265.887 148.183 269.322 146.776C266.394 142.553 259.525 132.306 259.919 128.703C260.201 126.394 254.458 120.989 252.037 118.624C251.08 117.724 250.348 117.048 249.897 116.541C248.996 115.528 248.602 113.726 248.208 111.643C247.476 108.04 246.744 105.281 244.943 105.337C241.396 105.393 237.567 101.734 233.119 97.4547C230.698 95.1463 228.221 92.7816 225.575 90.811C225.18 90.5295 222.478 89.3472 207.276 94.0203C204.686 94.8085 201.871 95.7093 198.887 96.7791L188.302 100.439L197.761 94.4144C209.866 86.7572 219.269 79.3252 221.859 77.2421C221.127 73.9202 222.928 68.3462 224.786 65.7C225.18 65.137 225.349 64.4614 225.18 63.7295C224.899 62.3782 223.773 61.1958 223.097 60.8017C221.521 59.8446 222.253 57.7614 223.266 54.5521C223.717 53.0883 225.18 48.753 224.449 48.2463C221.352 46.0505 220.226 40.7581 221.239 32.8757C221.633 29.6665 220.057 28.9908 215.665 27.921C213.526 27.4143 211.161 26.8513 209.247 25.4437C205.756 22.9101 207.389 19.5319 208.459 17.3361C209.359 15.4781 209.866 14.2958 209.247 13.395C208.346 11.9874 206.995 10.7487 205.531 9.39745C203.504 7.48316 201.421 5.56891 200.182 2.92269C200.07 2.64118 199.901 2.47226 199.788 2.47226C198.775 2.30335 196.241 5.06216 195.059 6.41342C194.101 7.42687 193.313 8.32779 192.638 8.77821C191.286 9.73535 188.753 9.67899 184.699 9.51008C181.827 9.39748 177.943 9.22855 176.817 10.0168C173.889 12.2126 168.315 8.32777 165.725 6.30088C164.993 6.695 163.98 6.97644 162.741 7.20165C159.363 7.98989 153.62 9.28488 147.145 16.379C141.064 23.0227 136.11 49.2597 133.914 72.3438C133.407 77.9177 133.013 83.2664 132.844 87.8832L132.563 96.6664L133.295 100.833C135.434 112.713 144.668 115.134 145.794 115.415C146.751 115.359 147.708 115.303 148.553 115.19L155.253 114.571L148.159 118.343C141.233 122.059 140.501 123.354 140.445 123.466C140.389 123.523 140.164 124.536 141.74 128.252C141.853 128.477 141.965 128.759 142.078 128.984L143.429 132.081L140.22 130.842C134.927 128.477 129.973 128.815 125.525 131.743C124.455 132.475 122.879 133.714 120.908 135.572L117.192 139.006L118.769 134.22C121.471 125.888 117.248 120.032 116.629 119.187C114.827 117.78 112.801 116.429 110.605 115.19C109.985 114.852 109.366 114.514 108.747 114.177L102.779 111.08L109.479 111.699C113.927 112.093 116.967 112.262 117.755 112.319C118.093 112.206 118.938 111.981 120.007 111.587C120.514 111.361 121.077 111.136 121.696 110.855C124.962 109.222 129.297 106.238 130.761 100.889L131.831 97.0606L130.254 88.2774C130.029 87.095 129.804 85.8564 129.522 84.5051C126.369 68.9093 119.951 45.9379 114.208 29.8917C107.395 10.5236 104.017 7.65213 103.173 7.25801C94.4459 2.97902 76.2602 3.31684 74.5711 4.89332C74.3459 5.17483 74.0081 5.39998 73.614 5.62519ZM143.992 117.724C141.064 116.71 134.646 113.67 131.718 105.281C129.41 109.278 125.806 111.756 122.822 113.163C122.147 113.501 121.527 113.782 120.964 113.951C119.332 114.571 118.206 114.852 118.149 114.852H117.811C117.811 114.852 116.798 114.796 115.053 114.683C116.235 115.472 117.361 116.26 118.374 117.048L118.543 117.217C118.769 117.498 123.104 122.735 122.147 130.786C122.879 130.223 123.498 129.716 124.061 129.378C129.297 125.944 134.421 126.113 138.475 127.239C137.517 124.48 137.686 123.241 137.911 122.566C138.193 121.834 139.206 120.482 143.992 117.724Z" fill="#BCCED5"/>
<path d="M120.964 134.445C121.19 134.614 119.106 137.147 115.672 141.032C112.238 144.973 107.508 150.378 102.272 156.346C97.0922 162.371 92.4191 167.776 88.9846 171.773C85.6065 175.714 83.4107 178.136 83.1854 177.967C82.9602 177.798 84.7619 175.095 87.9149 170.929C91.0678 166.762 95.572 161.132 100.808 155.108C106.044 149.083 110.999 143.847 114.715 140.131C118.318 136.415 120.739 134.276 120.964 134.445Z" fill="#BCCED5"/>
<path d="M139.6 128.365C139.938 127.971 146.413 133.883 152.268 142.891C158.18 151.843 160.939 160.176 160.489 160.345C159.926 160.57 156.379 152.8 150.636 144.017C144.949 135.177 139.206 128.759 139.6 128.365Z" fill="#BCCED5"/>
<path d="M158.349 241.196C158.012 241.196 158.462 234.722 158.181 224.306C158.124 223.011 158.068 221.659 158.068 220.195C158.012 218.788 157.899 217.324 157.786 215.748C157.618 212.707 157.28 209.442 156.942 206.007C156.154 199.195 155.028 191.707 153.451 183.88C151.818 176.111 149.96 168.735 148.102 162.148C146.188 155.504 144.33 149.592 142.641 144.638C141.853 142.16 141.008 139.964 140.333 137.994C139.657 136.023 139.038 134.334 138.587 132.983C137.63 130.224 137.123 128.648 137.292 128.648C137.405 128.591 138.137 130.055 139.319 132.701C139.939 134.053 140.614 135.685 141.402 137.6C142.191 139.514 143.091 141.71 143.992 144.187C145.85 149.085 147.877 154.997 149.904 161.641C151.875 168.285 153.845 175.66 155.478 183.486C157.054 191.312 158.181 198.913 158.856 205.782C159.138 209.217 159.419 212.538 159.532 215.635C159.588 217.155 159.701 218.675 159.701 220.083C159.701 221.491 159.701 222.898 159.701 224.193C159.757 226.839 159.588 229.204 159.532 231.287C159.476 233.37 159.307 235.172 159.138 236.636C158.744 239.62 158.518 241.196 158.349 241.196Z" fill="#BCCED5"/>
<path d="M133.013 248.515C132.9 248.458 133.125 246.769 133.632 243.785C133.914 242.265 134.252 240.407 134.533 238.268C134.871 236.128 135.321 233.651 135.603 230.948C135.772 229.597 135.941 228.189 136.166 226.669C136.335 225.205 136.447 223.629 136.616 221.996C136.954 218.787 137.179 215.352 137.404 211.749C137.799 204.486 137.911 196.547 137.686 188.158C137.404 179.769 136.785 171.831 136.053 164.624C135.265 157.417 134.364 150.942 133.52 145.481C133.125 142.778 132.675 140.301 132.281 138.162C131.943 136.022 131.605 134.164 131.324 132.644C130.817 129.604 130.536 127.915 130.704 127.915C130.817 127.915 131.324 129.547 132.112 132.531C132.506 133.995 132.957 135.853 133.407 137.993C133.857 140.132 134.42 142.553 134.927 145.256C135.997 150.661 137.01 157.192 137.911 164.399C138.756 171.662 139.431 179.657 139.713 188.102C139.938 196.547 139.769 204.542 139.262 211.862C138.981 215.521 138.699 218.956 138.249 222.165C138.024 223.798 137.911 225.318 137.686 226.838C137.461 228.302 137.236 229.766 137.01 231.117C136.616 233.82 136.053 236.297 135.659 238.436C135.265 240.576 134.815 242.434 134.42 243.898C133.632 246.882 133.182 248.515 133.013 248.515Z" fill="#BCCED5"/>
<path d="M106.664 249.021C106.551 249.021 106.438 247.276 106.382 244.179C106.326 241.082 106.382 236.578 106.607 230.948C107.058 219.8 108.24 204.429 110.999 187.595C113.701 170.76 117.305 155.784 120.401 145.03C121.978 139.681 123.667 135.402 125.187 132.644C126.707 129.885 127.833 128.534 127.946 128.59C128.059 128.702 127.158 130.11 125.919 132.981C124.624 135.797 123.16 140.019 121.753 145.368C118.994 156.122 115.616 171.098 112.97 187.876C110.267 204.598 108.803 219.913 108.071 231.004C107.733 236.522 107.452 241.026 107.227 244.179C106.945 247.276 106.776 249.021 106.664 249.021Z" fill="#BCCED5"/>
<path d="M83.242 234.721C83.1294 234.721 82.6789 233.257 82.6226 230.442C82.5663 227.626 83.1294 223.629 84.2554 218.843C86.3949 209.216 90.0546 196.041 95.6848 182.078C101.315 168.115 107.734 156.01 112.857 147.621C115.447 143.398 117.643 140.076 119.219 137.824C120.796 135.572 121.753 134.389 121.866 134.446C121.978 134.502 121.246 135.853 119.839 138.218C118.431 140.583 116.404 144.017 114.039 148.296C109.197 156.854 103.06 168.903 97.4865 182.81C91.8563 196.66 88.0277 209.666 85.5504 219.181C84.2554 223.91 83.5235 227.795 83.3546 230.498C83.1857 233.2 83.4109 234.721 83.242 234.721Z" fill="#BCCED5"/>
<path d="M37.3553 96.1594C37.4117 95.8779 41.3528 96.1594 47.715 97.0602C54.0772 97.9048 62.8041 99.4249 72.3192 101.621C81.8344 103.817 90.3924 106.294 96.473 108.321C102.554 110.348 106.213 111.812 106.157 112.093C106.044 112.375 102.216 111.361 96.0789 109.672C89.9419 107.983 81.3839 105.787 71.9251 103.591C62.41 101.396 53.7957 99.6502 47.5461 98.4678C41.1839 97.2292 37.299 96.4409 37.3553 96.1594Z" fill="#BCCED5"/>
<path d="M146.526 119.299C146.413 119.13 149.679 116.709 155.421 113.669C161.164 110.572 169.441 107.025 178.618 103.309C183.179 101.451 187.514 99.5934 191.399 97.848C195.284 96.0463 198.718 94.3573 201.533 92.7808C207.163 89.6842 210.485 87.3758 210.654 87.6573C210.767 87.8262 207.783 90.5287 202.209 94.0195C199.45 95.7649 196.016 97.6228 192.131 99.4808C188.246 101.339 183.91 103.253 179.35 105.111C170.173 108.827 161.896 112.149 156.041 114.908C150.185 117.61 146.694 119.581 146.526 119.299Z" fill="#BCCED5"/>
<path d="M143.655 132.7C143.824 132.474 147.877 135.346 154.24 140.132C160.602 144.974 169.329 151.843 178.337 160.119C182.841 164.285 186.951 168.395 190.555 172.337C194.102 176.278 197.198 179.938 199.619 183.147C200.858 184.723 201.871 186.243 202.829 187.538C203.729 188.833 204.518 190.016 205.081 190.973C206.263 192.887 206.826 193.957 206.714 194.07C206.432 194.238 203.617 190.185 198.55 184.048C196.016 180.951 192.863 177.404 189.26 173.575C185.6 169.803 181.49 165.693 177.042 161.583C168.09 153.363 159.532 146.325 153.395 141.201C147.202 136.134 143.429 132.925 143.655 132.7Z" fill="#BCCED5"/>
<path d="M139.77 123.24C139.826 123.127 141.459 123.634 144.33 124.704C147.202 125.774 151.312 127.406 156.379 129.602C161.446 131.798 167.358 134.557 173.889 137.766C180.364 141.032 187.402 144.804 194.721 148.97C201.984 153.193 208.74 157.472 214.765 161.469C220.789 165.523 226.138 169.296 230.529 172.617C234.921 175.939 238.412 178.698 240.776 180.669C243.141 182.639 244.38 183.765 244.323 183.878C244.211 183.991 242.803 183.033 240.326 181.288C237.849 179.486 234.245 176.896 229.741 173.8C225.237 170.647 219.888 166.987 213.807 163.046C207.727 159.105 200.97 154.938 193.764 150.716C186.557 146.549 179.576 142.777 173.157 139.399C166.739 136.077 160.883 133.206 155.928 130.897C150.974 128.589 146.976 126.731 144.161 125.436C141.233 124.141 139.713 123.353 139.77 123.24Z" fill="#BCCED5"/>
<path d="M140.445 120.089C140.445 119.976 142.247 119.92 145.456 119.92C146.244 119.92 147.145 119.92 148.159 119.977C149.116 120.033 150.185 120.089 151.368 120.202C153.676 120.371 156.266 120.483 159.138 120.877C160.601 121.046 162.065 121.271 163.642 121.44C165.218 121.666 166.851 121.947 168.484 122.229C171.862 122.735 175.409 123.524 179.125 124.255C186.557 125.945 194.721 128.084 203.166 130.561C220.057 135.685 235.09 140.865 246.069 144.299C251.586 146.045 256.034 147.396 259.075 148.297C262.171 149.254 263.86 149.817 263.804 149.93C263.748 150.042 262.002 149.761 258.849 149.029C255.696 148.353 251.192 147.171 245.618 145.594C234.47 142.497 219.325 137.543 202.547 132.419C194.158 129.886 186.05 127.746 178.675 126.001C174.959 125.213 171.468 124.368 168.146 123.805C166.513 123.524 164.88 123.186 163.36 122.904C161.84 122.679 160.32 122.454 158.912 122.229C156.097 121.722 153.507 121.497 151.199 121.215C150.073 121.102 149.003 120.99 148.046 120.877C147.089 120.821 146.188 120.708 145.4 120.652C142.247 120.427 140.445 120.258 140.445 120.089Z" fill="#BCCED5"/>
<path d="M158.011 113.05C158.011 112.937 159.419 112.656 162.065 112.374C163.36 112.205 164.993 112.037 166.851 111.924C168.709 111.811 170.848 111.586 173.213 111.53C177.943 111.305 183.517 111.192 189.766 111.361C196.016 111.53 202.828 111.924 209.979 112.656C217.129 113.444 223.942 114.457 230.022 115.584C236.159 116.766 241.621 118.005 246.181 119.243C248.49 119.806 250.517 120.426 252.318 120.989C254.12 121.495 255.64 122.002 256.879 122.452C259.356 123.297 260.707 123.86 260.707 123.973C260.595 124.254 255.021 122.734 245.843 120.651C241.283 119.581 235.822 118.511 229.685 117.442C223.604 116.428 216.848 115.415 209.754 114.683C202.659 113.951 195.847 113.5 189.653 113.219C183.46 112.994 177.886 112.937 173.213 112.994C163.867 112.994 158.011 113.331 158.011 113.05Z" fill="#BCCED5"/>
<path d="M186.388 100.439C186.388 100.157 189.485 99.6506 194.552 99.3128C199.619 98.975 206.713 98.8624 214.427 99.3692C222.197 99.9322 229.178 101.002 234.133 102.015C239.144 103.085 242.128 103.986 242.071 104.267C241.959 104.83 229.629 102.353 214.258 101.34C199 100.214 186.444 101.002 186.388 100.439Z" fill="#BCCED5"/>
<path d="M30.1483 187.031C30.092 186.693 35.8911 185.286 44.9558 182.02C46.0819 181.626 47.2642 181.175 48.5029 180.725C49.7416 180.275 50.9802 179.712 52.2752 179.205C54.9214 178.191 57.6239 176.897 60.5516 175.602C66.2945 172.899 72.4878 169.69 78.7374 165.861C84.987 162.033 90.6735 157.979 95.6844 154.094C98.1618 152.123 100.526 150.265 102.666 148.351C103.736 147.394 104.805 146.549 105.763 145.649C106.72 144.748 107.621 143.903 108.521 143.059C115.503 136.471 119.444 131.967 119.726 132.192C119.838 132.305 118.937 133.487 117.248 135.57C116.404 136.64 115.334 137.879 114.039 139.286C112.744 140.694 111.28 142.383 109.535 144.016C108.69 144.86 107.789 145.761 106.832 146.718C105.875 147.619 104.862 148.52 103.792 149.533C101.709 151.504 99.3441 153.418 96.8668 155.445C91.8559 159.443 86.113 163.609 79.8071 167.494C73.4449 171.323 67.1953 174.532 61.3399 177.178C58.4121 178.417 55.597 179.655 52.8945 180.612C51.5432 181.119 50.3046 181.626 49.0096 182.02C47.771 182.414 46.5323 182.808 45.4063 183.202C43.0978 183.991 40.9584 184.497 39.1004 185.004C37.2424 185.511 35.6659 185.905 34.3146 186.186C31.6684 186.918 30.2046 187.144 30.1483 187.031Z" fill="#BCCED5"/>
<path d="M4.30517 172.901C4.30517 172.788 5.99425 172.338 9.09089 171.662C10.6111 171.325 12.5253 170.93 14.7211 170.424C16.9169 169.917 19.3943 169.41 22.1531 168.678C24.9119 168.003 27.8959 167.214 31.1052 166.314C34.3144 165.469 37.6926 164.399 41.296 163.273C48.3901 160.965 56.1598 158.262 64.0985 154.997C72.0372 151.731 79.5254 148.241 86.1691 144.919C89.491 143.173 92.6439 141.597 95.5153 139.964C98.4431 138.388 101.089 136.811 103.51 135.404C105.988 133.996 108.127 132.645 110.041 131.462C111.956 130.28 113.588 129.267 114.94 128.422C117.642 126.733 119.162 125.832 119.219 125.945C119.275 126.057 117.924 127.183 115.39 129.041C114.095 129.998 112.575 131.124 110.661 132.363C108.803 133.602 106.663 135.066 104.242 136.586C101.821 138.106 99.175 139.739 96.3036 141.372C93.4321 143.061 90.2792 144.75 86.9573 146.551C80.2573 149.986 72.8254 153.589 64.7741 156.855C56.7229 160.12 48.8968 162.823 41.7464 165.019C38.143 166.088 34.7086 167.102 31.4993 167.89C28.2901 168.735 25.2497 169.41 22.4346 170.03C19.6758 170.705 17.1422 171.099 14.8901 171.55C12.6943 172 10.78 172.282 9.20349 172.451C6.05055 172.845 4.30517 173.014 4.30517 172.901Z" fill="#BCCED5"/>
<path d="M9.71068 149.029C9.71068 148.916 11.2308 148.522 13.9897 148.015C15.3972 147.734 17.0863 147.452 19.0006 147.058C20.9712 146.664 23.167 146.27 25.6443 145.763C30.5426 144.806 36.3981 143.511 42.8166 141.991C49.2351 140.414 56.2729 138.556 63.5922 136.304C70.9116 134.052 77.7805 131.744 84.0301 129.492C90.2234 127.24 95.7973 125.044 100.414 123.129C102.723 122.229 104.806 121.271 106.664 120.54C108.522 119.808 110.098 119.076 111.393 118.569C113.983 117.443 115.447 116.936 115.503 117.049C115.56 117.161 114.208 117.95 111.731 119.245C110.492 119.92 108.972 120.708 107.17 121.553C105.369 122.398 103.342 123.411 101.033 124.424C96.4729 126.508 90.899 128.816 84.7057 131.237C78.4561 133.602 71.5872 135.966 64.2116 138.219C56.8359 140.414 49.7418 142.272 43.267 143.736C36.7922 145.2 30.8804 146.326 25.9258 147.114C23.4485 147.565 21.1964 147.846 19.2258 148.128C17.2552 148.409 15.5098 148.634 14.1586 148.747C11.2871 149.085 9.71068 149.198 9.71068 149.029Z" fill="#BCCED5"/>
<path d="M11.3435 127.294C11.3998 127.125 12.6385 127.407 14.8906 127.857C17.1427 128.251 20.4082 128.758 24.5183 128.87C28.5721 128.983 33.4704 128.645 38.8192 127.744C44.1679 126.9 49.9671 125.492 55.9915 123.747C62.0158 122.058 67.7587 120.256 72.9948 118.68C78.231 117.103 82.9604 115.752 86.9016 114.57C94.8402 112.317 99.7949 111.023 99.9075 111.304C99.9638 111.586 95.178 113.331 87.352 115.921C83.4108 117.216 78.7377 118.736 73.5579 120.425C68.3217 122.058 62.6352 123.916 56.5545 125.661C50.4738 127.35 44.562 128.758 39.1007 129.546C33.6393 130.334 28.6284 130.56 24.462 130.222C20.2956 129.94 16.9738 129.208 14.7217 128.589C12.4696 127.913 11.2872 127.407 11.3435 127.294Z" fill="#BCCED5"/>
<path d="M33.6395 18.8C33.6958 18.6874 35.3285 19.5319 38.1437 21.3336C40.9588 23.079 44.9 25.7815 49.6294 29.3285C54.3588 32.8756 59.8765 37.2672 65.8445 42.2781C71.8689 47.2891 78.4 52.863 85.0437 58.9436C98.3874 71.105 109.423 83.2664 116.686 92.6126C118.544 94.921 120.064 97.1168 121.471 98.9748C122.823 100.889 124.005 102.578 124.906 103.929C126.708 106.745 127.608 108.321 127.496 108.377C127.383 108.434 126.257 107.026 124.287 104.38C123.273 103.085 122.034 101.452 120.627 99.6505C119.163 97.8488 117.53 95.7092 115.616 93.4571C108.128 84.3924 97.0362 72.5126 83.7487 60.3512C77.105 54.2705 70.6866 48.6403 64.7185 43.5731C58.8067 38.5058 53.4017 34.0016 48.7849 30.3419C44.168 26.6823 40.3395 23.8108 37.6932 21.8965C35.047 20.0386 33.5832 18.9126 33.6395 18.8Z" fill="#BCCED5"/>
<path d="M55.2596 7.08858C55.3159 6.97598 56.8361 7.82051 59.4823 9.45328C60.1579 9.8474 60.8898 10.2978 61.6781 10.8045C62.4663 11.3112 63.3108 11.9306 64.2117 12.5499C66.0134 13.8449 68.0966 15.1962 70.2924 16.9415C71.4184 17.7861 72.5445 18.6869 73.7831 19.5878C74.9655 20.5449 76.1478 21.5583 77.4428 22.6281C79.9764 24.7113 82.5663 27.076 85.2688 29.6096C90.6176 34.7331 96.1915 40.5886 101.597 47.176C106.945 53.8197 111.618 60.4634 115.503 66.713C117.418 69.8659 119.219 72.85 120.739 75.7777C121.528 77.2416 122.316 78.5928 122.992 79.9441C123.667 81.2954 124.287 82.6466 124.906 83.8853C126.145 86.3626 127.102 88.7273 128.002 90.7542C128.453 91.7676 128.847 92.7248 129.185 93.6256C129.523 94.5264 129.804 95.3147 130.086 96.0466C131.155 98.9744 131.662 100.607 131.55 100.663C131.437 100.72 130.649 99.1432 129.354 96.3281C129.016 95.5962 128.678 94.8079 128.284 93.9634C127.89 93.1189 127.439 92.1618 126.933 91.2046C125.976 89.234 124.962 86.9256 123.611 84.5046C122.992 83.266 122.316 81.9709 121.584 80.676C120.908 79.3247 120.064 77.9735 119.276 76.5659C117.699 73.6945 115.841 70.7668 113.927 67.6701C109.986 61.5331 105.313 54.9457 100.02 48.4146C94.6714 41.8835 89.1537 36.0281 83.9739 30.9045C81.3277 28.4272 78.8504 25.9499 76.3167 23.8667C75.0781 22.797 73.952 21.7272 72.7697 20.7701C71.5873 19.8129 70.4613 18.9121 69.3915 18.0113C67.3083 16.2096 65.2251 14.7457 63.4798 13.3944C62.5789 12.7188 61.7907 12.0995 61.0587 11.5364C60.2705 10.9734 59.5949 10.4667 58.9755 10.0163C56.5545 8.27088 55.2033 7.20119 55.2596 7.08858Z" fill="#BCCED5"/>
<path d="M72.4316 3.03496C72.4879 2.92235 73.6703 3.37272 75.7535 4.38617C76.2602 4.61138 76.8232 4.89294 77.4988 5.23076C78.1182 5.56857 78.7938 5.96267 79.4694 6.35679C80.877 7.20133 82.5098 8.04584 84.2551 9.22819C85.0997 9.79121 86.0005 10.3543 86.9577 10.9736C87.9148 11.593 88.8156 12.3249 89.7728 13.0568C91.7434 14.4644 93.714 16.1535 95.7972 17.8988C99.9073 21.5022 104.13 25.7812 108.127 30.6232C112.069 35.5215 115.39 40.5325 118.149 45.2619C119.444 47.6829 120.739 49.935 121.696 52.1308C122.203 53.2569 122.71 54.2703 123.16 55.34C123.554 56.3534 124.005 57.3669 124.343 58.324C125.131 60.2383 125.694 61.9837 126.201 63.5602C126.426 64.3484 126.707 65.0804 126.876 65.756C127.045 66.4316 127.214 67.051 127.327 67.614C127.89 69.8661 128.115 71.1047 128.002 71.1047C127.664 71.2173 126.313 66.319 123.048 58.8871C122.653 57.9862 122.203 56.9728 121.753 55.9593C121.302 54.9459 120.739 53.9324 120.232 52.8627C119.219 50.7232 117.924 48.5275 116.573 46.1627C113.814 41.5459 110.492 36.7039 106.607 31.8618C102.666 27.0761 98.556 22.8534 94.6148 19.25C92.5879 17.5047 90.7299 15.7593 88.8156 14.3517C87.8585 13.6198 87.014 12.8878 86.1131 12.2122C85.2123 11.5929 84.3677 10.9736 83.5232 10.3543C76.7669 5.6812 72.2627 3.37277 72.4316 3.03496Z" fill="#BCCED5"/>
<path d="M24.5741 43.0651C24.6867 42.9525 25.9254 43.9659 28.2338 45.8239C30.4859 47.6819 33.7514 50.3845 37.7489 53.7063C45.8002 60.35 57.117 69.3021 70.0666 78.5358C83.0162 87.7694 95.1212 95.5954 104.017 101.057C108.465 103.759 112.068 106.011 114.546 107.532C117.023 109.052 118.374 109.953 118.318 110.065C118.262 110.178 116.798 109.502 114.151 108.207C111.562 106.912 107.789 104.885 103.285 102.295C94.1641 97.1155 81.8901 89.4584 68.8842 80.1685C55.8783 70.8786 44.6741 61.7013 36.848 54.7761C32.9069 51.3416 29.8102 48.4701 27.727 46.387C25.5875 44.3601 24.4615 43.1777 24.5741 43.0651Z" fill="#BCCED5"/>
<path d="M22.7164 58.7197C22.9416 58.4944 26.1509 61.4221 31.387 65.9826C36.6231 70.5995 43.9988 76.7927 52.3878 83.3238C60.8332 89.7986 68.7156 95.3726 74.4585 99.2575C80.2576 103.199 83.861 105.563 83.6921 105.789C83.5795 106.014 79.6946 104.043 73.6702 100.384C67.7022 96.7239 59.5946 91.3751 51.1492 84.844C42.6475 78.3129 35.4408 71.8382 30.3735 66.9961C25.4189 62.1541 22.5475 58.8886 22.7164 58.7197Z" fill="#BCCED5"/>
<path d="M140.333 114.178C140.22 114.065 141.74 113.052 144.274 110.968C146.807 108.885 150.242 105.676 153.902 101.172C157.618 96.6675 161.502 90.9246 165.613 84.3372C169.723 77.7498 174.002 70.4305 178.112 62.4918C186.388 46.6708 192.187 31.5254 195.678 20.3212C196.579 17.506 197.255 14.9725 197.93 12.7204C198.55 10.4683 199.056 8.55397 199.45 6.9775C200.239 3.76825 200.745 2.0229 200.858 2.0792C200.971 2.0792 200.745 3.93715 200.182 7.1464C199.901 8.77917 199.45 10.7498 198.944 13.0019C198.381 15.254 197.818 17.8439 196.973 20.7153C193.876 32.0885 188.19 47.4591 179.857 63.3927C175.691 71.3876 171.355 78.7633 167.133 85.2944C162.966 91.8818 158.856 97.6246 154.971 102.073C151.087 106.52 147.427 109.673 144.724 111.588C142.022 113.502 140.333 114.234 140.333 114.178Z" fill="#BCCED5"/>
<path d="M143.767 116.484C143.542 116.203 148.665 112.318 156.266 105.449C157.223 104.605 158.18 103.647 159.25 102.747C160.264 101.789 161.277 100.776 162.403 99.7063C164.599 97.6231 166.795 95.2584 169.159 92.8374C173.776 87.8827 178.675 82.1961 183.404 76.0029C188.133 69.7533 192.3 63.5601 195.847 57.7609C197.592 54.8332 199.281 52.0743 200.689 49.428C201.421 48.0768 202.153 46.8382 202.772 45.5995C203.391 44.3609 204.011 43.1785 204.63 41.9962C209.247 32.8188 211.668 26.907 211.949 27.0196C212.062 27.0759 211.612 28.5962 210.598 31.2987C210.091 32.65 209.472 34.339 208.684 36.197C207.896 38.1113 206.995 40.2508 205.869 42.6155C205.306 43.7978 204.743 45.0365 204.123 46.2751C203.504 47.5701 202.828 48.8087 202.096 50.16C200.745 52.8625 199.056 55.6776 197.367 58.6617C193.82 64.5171 189.71 70.8231 184.924 77.129C180.138 83.4349 175.128 89.0651 170.398 94.076C167.977 96.497 165.725 98.8617 163.473 100.889C162.347 101.902 161.277 102.916 160.207 103.873C159.138 104.774 158.124 105.674 157.111 106.519C155.196 108.208 153.282 109.672 151.706 110.911C150.129 112.205 148.665 113.219 147.483 114.063C145.175 115.753 143.823 116.597 143.767 116.484Z" fill="#BCCED5"/>
<path d="M149.679 117.159C149.566 116.878 154.633 114.626 162.516 110.29C164.486 109.221 166.626 107.982 168.878 106.631C171.186 105.28 173.495 103.759 175.972 102.127C180.87 98.8047 186.106 94.9762 191.342 90.5846C196.579 86.193 201.252 81.6888 205.418 77.4661C207.445 75.2703 209.359 73.2997 211.105 71.2728C212.85 69.3022 214.426 67.3879 215.834 65.6988C221.464 58.7173 224.561 54.1005 224.842 54.2694C224.955 54.3257 224.279 55.5643 222.984 57.7038C222.365 58.7736 221.521 60.1249 220.507 61.5887C219.494 63.0526 218.368 64.798 216.96 66.5434C215.609 68.3451 214.089 70.3156 212.4 72.3425C210.711 74.4257 208.796 76.509 206.826 78.7048C202.716 83.0401 197.986 87.6568 192.694 92.1047C187.401 96.5526 182.053 100.381 177.042 103.647C174.508 105.223 172.087 106.743 169.779 108.038C167.47 109.39 165.274 110.516 163.247 111.529C161.277 112.599 159.363 113.387 157.73 114.119C156.097 114.907 154.689 115.47 153.507 115.921C151.03 116.822 149.735 117.272 149.679 117.159Z" fill="#BCCED5"/>
<path d="M138.812 114.12C138.7 114.12 138.587 112.488 138.756 109.616C138.981 106.745 139.544 102.522 140.783 97.5111C142.021 92.4439 143.879 86.5884 145.963 80.0573C148.046 73.5262 150.411 66.3758 153.169 59.0002C158.631 44.1926 164.768 31.1867 169.948 22.1783C172.537 17.6741 174.79 14.1271 176.422 11.7624C178.111 9.39766 179.069 8.10267 179.181 8.21527C179.294 8.27158 178.506 9.67912 177.042 12.1564C175.578 14.6337 173.551 18.2935 171.13 22.854C166.288 31.975 160.432 44.9245 155.027 59.6758C152.269 67.0514 149.848 74.1456 147.708 80.6204C145.569 87.0952 143.542 92.8943 142.19 97.8489C140.783 102.804 139.995 106.857 139.544 109.729C139.15 112.544 138.981 114.12 138.812 114.12Z" fill="#BCCED5"/>
<path d="M132.112 85.7451C132 85.6888 132.112 84.4501 132.563 82.198C132.957 79.9459 133.689 76.7366 134.646 72.7392C136.617 64.8005 139.882 53.9904 144.499 42.3358C146.751 36.5366 149.172 31.0753 151.481 26.177C153.789 21.2787 156.154 16.9996 158.406 13.5652C160.658 10.1307 162.797 7.54081 164.374 5.90804C165.95 4.27527 166.964 3.48704 167.076 3.54334C167.302 3.76855 163.698 7.31563 159.588 14.2972C155.422 21.2224 150.918 31.5257 146.301 43.0678C141.74 54.6098 138.306 65.3073 135.997 73.077C133.633 80.9031 132.394 85.8014 132.112 85.7451Z" fill="#BCCED5"/>
</svg>
