<svg version="1" xmlns="http://www.w3.org/2000/svg" width="512" height="512" viewBox="0 0 5120 5120"><path d="M1915 4640l-160-89-10 32c-14 48-95 124-140 133-86 16-236-14-261-51-12-19-12-27 0-62l14-41-41-6c-115-18-157-49-137-100 7-20 7-28-3-31l-49-15c-20-6-64-29-98-51-59-38-62-42-58-74 3-28 0-35-17-39-12-3-49-23-83-45-52-34-62-45-62-69 0-15 5-33 12-40s8-12 2-12c-24 0-108-66-151-119-25-30-62-68-84-84-44-33-119-123-119-144 0-8 13-26 29-41l30-26-60-65-71-76a795 795 0 1-154-170 NaNc7 NaN 19 NaN 86 NaN 39 NaN 52 NaN 42 NaN-8 NaN-29 NaN-46 NaN-24 NaN-42 NaN-77 NaN-30 NaN-55 NaN-74 NaN-37 NaN-69 NaN-69 NaN 0 NaN 21 NaN 135 NaNl81 NaN-23 NaNc-12 NaN-27 NaN-33 NaN-8 NaN-20 NaN-44 NaN-49 NaN-101 NaN-120 NaN-24 NaN-32 NaN-16 NaN 17 NaN 169 NaN 225 NaN 57 NaN 58 NaN 63 NaN 2 NaN-10 NaN-27 NaN-17 NaN-33 NaN-37 NaN-3 NaN-17 NaN-33 NaN-37 NaN-98 NaN-118 NaN-11 NaN-16 NaN-16 NaN 0 NaN 15 NaN 43 NaN 40 NaN 188 NaN 237 NaNl22 NaN 11 NaNc13 NaN 13 NaN-1 NaN-8 NaN-24 NaN-59 NaN-91 NaN-130 NaN-106 NaN 20 NaN 45 NaN 74 NaN 51 NaN 211 NaN 228 NaN 6 NaN 12 NaN 45 NaN 21 NaN 38 NaN 39 NaN 0 NaN-12 NaN-28 NaN-60 NaN-115 NaN-128 NaN-7 NaN 22 NaN 63 NaN 29 NaN 40 NaN 64 NaN 26 NaN 124 NaN 159 NaN 18 NaN 36 NaN 40 NaNs27 NaN 49 NaNl41 NaN-27 NaNc-16 NaN-41 NaN-56 NaN-74 NaN-87 NaN-37 NaN 46 NaN 66 NaN 102 NaN 26 NaN 46 NaN 124 NaN 51 NaN 95 NaN 98 NaN 2 NaN 2 NaN-1 NaN-12 NaN 48 NaN 129 NaN 80 NaN 269 NaN 296 NaN 7 NaN 12 NaN 12 NaNvNaNl65 NaNc95 NaN 99 NaN 92 NaN-6 NaN-25 NaN-82 NaN-54 NaN-103 NaN-166 NaN-55 NaN-63 NaN-21 NaN 16 NaN 52 NaN 80 NaN 71 NaN 71 NaN-1 NaN-59 NaN-137 NaN-182 NaN-72 NaN-152 NaN-181 NaNl-17 NaN-18 NaNc-17 NaN-17 NaN 8 NaN 21 NaN 24 NaN 17 NaN-9 NaN-5 NaN 56 NaN 36 NaN 77 NaN 90 NaN 23 NaN 23 NaN 6 NaN-16 NaN-16 NaN 1 NaN 48 NaN 123 NaN 190 NaNl73 NaNvNaNc0 NaN 7 NaN 16 NaN 37 NaN 7 NaN 894 NaN 728 NaN 826 NaN 855 NaN 37 NaN 65 NaN 65 NaNvNaNh108c95 NaN 114 NaN 167 NaN 69 NaN 107 NaN 141 NaN 14 NaN 38 NaN 55 NaN 43 NaN 105 NaN 125 NaN 24 NaN 22 NaN-5 NaN-49 NaN-179 NaN-386 NaNl-120 NaN-35 NaNc-53 NaN-73 NaN-138 NaN-69 NaN-203 NaN-287 NaNa500 500 0 0-173 191 NaNc-387 NaN-391 NaN-394 NaNl-4 NaN 118 NaNc98 NaN 125 NaN 154 NaN 41 NaN 80 NaN 80 NaN 0 NaN 8 NaN 39 NaN 21 NaN 51 NaN 65 NaNl27 NaN 28 NaNc15 NaN 34 NaN 43 NaN 25 NaN 70 NaN 113 NaN 21 NaN 44 NaN 51 NaNs25 NaN 41 NaNl28 NaN 27 NaN 27 NaN-30 NaNc-16 NaN-41 NaN-54 NaN-49 NaN-26 NaN 70 NaN 40 NaN 55 NaN 73 NaN 23 NaN 91 NaN 119 NaN 9 NaN 31 NaN 49 NaN 31 NaN 34 NaN 54 NaNl20 NaN-37 NaNc-44 NaN-79 NaN-93 NaN-13 NaN 0 NaN 37 NaN 32 NaN 57 NaN 85 NaN 30 NaN 121 NaN 164 NaN 20 NaN 39 NaN 44 NaN 4 NaN 15 NaN 23 NaN 19 NaN 12 NaN-12 NaN-29 NaN-90 NaN-117 NaN-23 NaN-26 NaN-22 NaN 5 NaN 40 NaN 64 NaN 46 NaN 186 NaN 231 NaNl27 NaN 13 NaNc11 NaN 10 NaN-7 NaN-14 NaN-28 NaN-45 NaN-32 NaN-91 NaN-113 NaN-21 NaN-23 NaN-4 NaN 16 NaN 58 NaN 143 NaN 35 NaN 64 NaN 65 NaN 5 NaN-29 NaN-39 NaN-8 NaN-34 NaN-59 NaN-55 NaN-84 NaN-97 NaN-14 NaN-6 NaN 82 NaN 56 NaN 58 NaN 51 NaN-3 NaN-7 NaN-8 NaNl-48 NaNc-51 NaN-87 NaN-117 NaN-40 NaN-34 NaN 28 NaNl30 NaN-18 NaNc-10 NaN-38 NaN-62 NaN-50 NaN-88 NaN-124 NaN-29 NaN-30 NaN-9 NaN 15 NaN 15 NaN-1 NaN-9 NaN-35 NaN-58 NaN-109 NaN-162 NaN-155 NaN 2 NaN-21 NaN-49 NaN-29 NaN-53 NaN-53 NaN 0 NaN-12 NaN-28 NaNs-52 NaN-80 NaNc-67 NaN-70 NaN-13 NaNl40 NaN-21 NaNc-12 NaN-34 NaN-54 NaN-45 NaN-107 NaN-123 NaN-19 NaN-27 NaN-11 NaN 26 NaN 213 NaN 298 NaN 43 NaN 99 NaN 108 NaN 3 NaN 28 NaN 56 NaNl51 NaN 54 NaNc75 NaN 102 NaN 146 NaN 18 NaN 39 NaN 46 NaN 10 NaN 16 NaN 46 NaN 32 NaN 36 NaN 68 NaN 37 NaN 67 NaN 67 NaN 0 NaN 4 NaN 9 NaN 12 NaN 56 NaN 72 NaN 12 NaN 15 NaN 45 NaN 24 NaN 36 NaN 51 NaN 29 NaN 71 NaN 85 NaN 6 NaN 17 NaN 24 NaN 14 NaN 54 NaN 54 NaN 0 NaN 5 NaN 18 NaN 38 NaN 78 NaN 89 NaN 6 NaN 21 NaN 33 NaN 27 NaN 30 NaN 8 NaN-13 NaN-14 NaN-7 NaN 5 NaN 11 NaN 13 NaNs24 NaN 49 NaNc83 NaN 103 NaN 100 NaN-1 NaN-16 NaN-65 NaN-31 NaN-33 NaN-34 NaNvNaNh72c92 NaN 99 NaN 91 NaN-12 NaN-64 NaN-147 NaN-34 NaN-38 NaN-43 NaN-3 NaN-8 NaN-12 NaN-5 NaN 5 NaN 60 NaN 36 NaN 77 NaN 91 NaN 25 NaN 26 NaN 21 NaN-8 NaN-71 NaN-119 NaN-56 NaN-151 NaN-208 NaN-35 NaN-41 NaN-47 NaN-3 NaN-4 NaN-2 NaNl38 NaNc29 NaN 32 NaN 28 NaN-5 NaN-2 NaN 26 NaN 18 NaN 56 NaN 85 NaN 39 NaN 52 NaN 52 NaN 0 NaN-106 NaN-172 NaN-69 NaN-166 NaN-208 NaN-29 NaN-36 NaN-50 NaN-10 NaN-7 NaN 15 NaN 19 NaN 25 NaN 21 NaN-4 NaN 3 NaN 47 NaN 61 NaN 117 NaN 117 NaN 0 NaN-78 NaN-134 NaN-50 NaN-61 NaN-120 NaN-78 NaN-146 NaN-168 NaN-7 NaN-16 NaN-20 NaN-3 NaN-24 NaN-46 NaN-40 NaN-40 NaN-24 NaN 9 NaN 24 NaN 33 NaNs44 NaN 78 NaNc84 NaN 84 NaN-1 NaN-86 NaN-156 NaN-216 NaN-64 NaN-116 NaN-136 NaN-12 NaN-21 NaN-29 NaN-55 NaN-107 NaN-107 NaN 0 NaN 12 NaN 28 NaN 53 NaN 131 NaN 157 NaN 9 NaN-23 NaN-90 NaN-155 NaN-264 NaN-310 NaN-8 NaN-20 NaN-26 NaN-5 NaN-79 NaN-164 NaN-84 NaN-162 NaN-173 NaN-26 NaN-44 NaN-40 NaN 2 NaN 32 NaN 133 NaNl137 NaNc4 NaN-5 NaN-20 NaNl-28 NaN-159 NaNc-88 NaN-170 NaN-181 NaN-28 NaN-46 NaN-42 NaN 2 NaN 36 NaN 165 NaNl163 NaN-34 NaNc-19 NaN-37 NaN-41 NaN-6 NaN-13 NaN-586 NaN-635 NaN-610 NaN-662 NaN-15 NaN-29 NaN-33 NaN-5 NaN-11 NaN-29 NaN-27 NaN-81 NaN-108 NaN-49 NaN-23 NaN 51 NaN 35 NaN 49 NaN 240 NaNl202 NaNvNaNc0 NaN-19 NaN-110 NaN-90 NaN-359 NaN-414 NaN-27 NaN-64 NaN-81 NaN-27 NaN-45 NaN-111 NaN-100 NaN-355 NaN-406 NaN-42 NaN-78 NaN-78 NaNvNaNl-23 NaNc-53 NaN-146 NaN-239 NaN-34 NaN-39 NaN-47 NaN-9 NaN-8 NaN 19 NaN 47 NaN 129 NaN 145 NaN 17 NaN 12 NaN-16 NaN-38 NaN-91 NaN-163 NaN-20 NaN-32 NaN-36 NaN-7 NaN-6 NaN 52 NaN 112 NaN 122 NaN 107 NaN-12 NaN-46 NaN-93 NaN-28 NaN-36 NaN-36 NaN 0 NaN 1 NaN 32 NaN 57 NaN 96 NaN 110 NaN 16 NaN 17 NaN 1 NaN-8 NaN-9 NaN-1 NaNl11 NaN 37 NaNc20 NaN 44 NaN 52 NaN 23 NaN 60 NaN 68 NaN 10 NaN 28 NaN 53 NaN 40 NaN 64 NaN 100 NaN 20 NaN 48 NaN 63 NaNs42 NaN 61 NaNc20 NaN 41 NaN 52 NaN 17 NaN 87 NaN 107 NaN 8 NaN 14 NaN 42 NaN 30 NaN 34 NaN 67 NaN 20 NaN 50 NaN 67 NaNs38 NaN 48 NaNc22 NaN 88 NaN 126 NaN 37 NaN 40 NaN 6 NaNl-22 NaN 30 NaN 61 NaNc28 NaN 31 NaN 26 NaN-5 NaN-3 NaN 76 NaN 61 NaN 83 NaN 85 NaN 4 NaN-14 NaN-42 NaN-11 NaN-93 NaN-181 NaNzm1871-402c3-5-3-16-14-23-10-8-27-30-36-50l-17-36-29 21-30 21 20 39c11 22 20 53 20 70v32l40-32c22-17 43-36 46-42zm303-282l33-34-23-12c-13-7-38-25-55-41-30-29-31-29-48-11-16 18-16 22 7 63 44 84 40 82 86 35zm280-350c10-12 6-15-21-21-18-4-47-16-64-26-29-18-32-18-38-2-4 9-2 21 4 27 8 8 60 26 101 35 4 0 12-5 18-13zm116-406c-27-12-35-12-35 0 0 6 12 10 28 9 24 0 25-1 7-9zM1565 1881c-15-14-60 26-69 62-12 46 12 130 46 167l23 25 3-124c1-68 0-126-3-130zm2049 12c8-24 4-26-31-17-20 6-23 13-23 57v52l24-35c13-19 26-45 30-57zm-3065 6c-14-8-29-3-29 11 0 4 9 6 21 3 15-4 17-8 8-14zm580-207l17-49-41 9c-27 6-57 4-95-6-41-11-57-11-62-3-16 25-1 39 65 61 37 13 73 28 79 34 15 15 18 12 37-46zm-311-180c2-7-5-12-16-12-10 0-36-11-56-25l-36-24-15 29c-8 16-15 31-15 34 0 5 102 14 124 11 6-1 12-7 14-13zm232-347c19-20 21-27 10-40-7-8-18-15-24-15-7 0-23-11-36-25s-27-25-30-25c-4 0-20 18-35 40-36 52-25 63 86 89 3 0 16-10 29-24zm230-319c0-7-12-16-27-19-38-7-40-1-6 17 35 19 33 19 33 2z" fill="#3a2c60"/><g fill="#f9759e"><path d="M1915 4640l-160-89-10 32c-14 48-95 124-140 133-86 16-236-14-261-51-12-18-12-28-1-61 13-36 18-40 59-45 55-8 95-28 129-66 33-35 49-65 49-92 0-12 1-21 3-21l177 95c96 52 181 93 190 90 8-2 53 17 100 43 63 35 86 53 88 70 4 29-14 52-42 52-11-1-93-41-181-90zm1235 76c-6-8-10-25-8-38 2-18 33-40 146-101 129-71 145-78 160-64 9 8 29 21 44 28 27 14 26 15-132 102-87 48-168 87-178 87-11 0-25-7-32-14zm490-15c-45-25-75-57-95-104l-15-37h35c55 0 172-29 197-49 20-17 21-21 9-61-14-49-12-54 20-41 38 14 88 71 119 136 41 85 43 99 23 123-40 48-226 68-293 33zm-2327-233c-41-9-42-10-32-36 32-84 105-132 171-113 65 20 64 94-1 138-36 24-69 27-138 11z"/><path d="M3513 4460c-38-23-53-48-53-90 0-26 6-33 37-46 30-13 44-14 74-5 40 12 92 66 108 112 9 27 8 28-40 38-69 15-89 14-126-9zm-2380-49c-29-10-77-34-108-55-51-34-56-40-53-69l3-32 56 3c90 6 178-46 195-115 4-12 9-23 11-23 3 0 37 25 75 56l69 56-50 24c-36 18-60 40-85 79-20 29-36 58-36 63 0 26-26 30-77 13zm604-38l-97-55 39-38c49-47 65-96 58-171-4-52-3-59 13-59 22 0 88 71 126 136 24 40 29 60 28 110 0 65-27 127-55 131-7 0-58-24-112-54zm2276 43c-58-18-98-49-118-91-18-40-11-43-96 27l-46 38-26-39-26-39 49-41 48-41 42 15c57 20 99 19 162-5s148-84 148-105c0-29 24-15 92 53 56 56 68 74 68 100 0 29-7 37-62 72-58 38-142 71-177 69-9 0-35-6-58-13zm-363-148c-24-15-50-28-58-28-18 0-1-22 39-51l28-20 21 41c12 23 20 52 18 64l-3 23-45-29zm-2119-53c-32-41-35-80-12-128 12-24 32-54 46-67l24-23 20 24c37 44 54 90 48 131-11 79-84 116-126 63zm1813 17c-24-16-44-59-44-92 0-34 16-71 52-120l18-24 25 24c38 36 68 104 60 139-14 63-71 101-111 73zm-1314-44c-43-29-68-65-76-105l-6-33h125c101 0 129-3 141-16 19-19 20-38 3-52-7-6-75-12-154-14-122-3-144-6-162-22-30-27-28-86 2-114 22-21 31-22 243-22 158 0 223-3 232-12 19-19 16-447-3-523a507 507 0 0-226-300 1182lNaN NaNcNaN NaN NaN NaN NaN NaNlNaN NaNhNaNvNaNlNaN NaNcNaN NaN NaN NaN NaN NaNa547 547 0 0-199 NaN NaNcNaN NaN NaN NaN NaN NaN NaN NaN NaN NaN NaN NaN NaN NaN NaN NaN NaN NaNhNaNlNaN NaNcNaN NaN NaN NaN NaN NaN NaN NaN NaN NaN NaN NaN NaN NaN NaN NaN NaN NaN NaN NaN NaN NaN NaN NaN NaN NaN NaN NaN NaN NaN NaN NaN NaN NaN NaN NaN NaN NaN NaN NaN NaN NaN NaN NaN NaN NaN NaN NaN NaN NaN NaN NaN NaN NaN NaN NaN NaN NaN NaN NaNlNaN NaN NaN NaN NaN NaN NaN NaNzm624-160c8-13 8-23 0-35-10-16-31-18-169-21-158-3-185 2-185 34 0 7 7 20 16 29 13 13 40 15 171 13 136-3 157-5 167-20zM962 4154c-29-14-52-29-52-34 0-18 91-89 122-95 45-9 104 16 120 50 10 22 8 30-9 53-43 58-101 66-181 26zm2899 13c-13-6-33-24-44-39-17-23-19-31-9-53 16-34 75-59 120-50 31 6 122 77 122 95 0 14-103 60-134 60-17 0-42-6-55-13zm-2471-30l-63-53-38-31 33-21c62-38 99-135 80-206-10-34-9-36 13-36 14 0 38 16 63 44 69 75 69 76 12 150-43 58-59 93-72 158-3 15-6 14-28-5zm2146-16c-3-22-9-46-12-55-9-23 18-20 50 5 33 26 32 38-3 66l-29 22-6-38zm813-40c-51-10-105-47-121-81-7-17-16-30-20-30-3 0-24 20-46 45s-44 45-49 45-22-14-38-30l-29-30 38-39 38-39-23-12c-31-16-79-61-79-74 0-5 7-18 16-28 16-17 18-16 36 22 26 52 74 81 146 87 73 7 124-17 199-93 29-30 58-54 65-54 19 0 108 53 141 83 15 15 27 32 27 40 0 25-78 113-132 150-56 37-109 49-169 38zm-3582-32c-73-48-168-172-108-139 11 5 42 10 69 10 68 0 130-34 158-88l22-41 66 74 67 74-41 11c-26 7-62 31-104 70-35 33-68 60-73 60s-30-14-56-31zm438-92c-51-44-43-128 21-200 30-35 39-30 78 43 33 60 30 102-10 150-31 36-54 38-89 7zm2461-7c-40-48-43-90-10-150 39-73 48-78 78-43 64 72 72 156 21 200-35 31-58 29-89-7zm339 20c-3-5-24-14-47-20l-40-11 28-30 28-30 18 23c22 29 40 78 28 78-5 0-12-4-15-10zm-2968-158c-49-50-56-62-34-62 24 0 90-63 108-104 10-23 19-64 19-94 0-57 11-69 54-58 15 4 33 25 55 65 36 69 37 71 12 71-37 0-141 135-160 208-6 21-9 20-54-26zm2830 18c-4-16-6-33-5-38 3-10 30-3 46 12 10 10 8 17-11 35l-24 22-6-31zm-3192-1c-24-14-95-81-95-89 0-4 27-19 59-34 45-22 67-27 94-22 74 14 113 90 67 131-24 21-98 30-125 14z"/><path d="M4190 3833c-55-20-67-79-24-118 43-40 87-42 155-9 32 15 59 30 59 34 0 10-73 77-97 89-23 11-67 13-93 4zm-1540-276c0-313 29-381 224-526 177-132 302-280 394-471l56-115 144-95c185-122 262-201 328-335 46-92 48-100 49-183 0-48-4-102-8-120l-9-33 40 20c92 47 146 151 145 281-2 192-132 368-408 552l-120 79-35 77c-53 116-73 151-138 238-69 93-203 223-287 281a493 493 0 0-173 191 NaNc-387 NaN-391 NaN-394 NaNl-4 NaNh-168vNaNzm1906 133c-16-5-42-22-58-37l-29-28-18 23c-17 23-18 23-54 6-38-18-45-32-26-51 7-7-2-14-33-22-81-21-92-44-48-101l19-25 21 22c34 38 81 56 140 56 70 0 101-16 174-93l60-63 35 13c20 7 60 28 89 46 39 25 52 40 52 57 0 46-106 164-172 192-40 16-106 18-152 5zm-3624-17c-20-8-42-59-42-98 0-31 9-46 54-93l55-57 25 55c30 63 32 99 11 140-25 47-65 68-103 53zm3030-9c-29-20-52-65-52-101 0-15 12-53 26-83l25-55 55 57c45 47 54 62 54 93 0 83-54 127-108 89zm-3491-60c-34-35-61-69-61-73 0-5 17-5 38 0 62 14 171-18 185-56 4-8 10-15 15-15 7 0 102 131 102 141 0 2-21 4-48 5-31 1-67 11-109 32l-61 31-61-65zm3739-8c0-2 6-9 14-15 10-9 16-8 26 4 11 13 8 15-14 15-14 0-26-2-26-4z"/><path d="M768 3482l-38-57 34-6c84-14 151-87 163-179 8-53 10-55 45-64 19-5 43-6 51-3 23 9 60 115 64 187l4 65-28-42c-15-24-34-45-42-48-34-13-201 137-201 180 0 31-18 20-52-33zm3379 52c-4-4-7-14-7-23 0-11 3-12 11-4 6 6 10 16 7 23-2 6-7 8-11 4zm-3691-84c-27-9-116-86-116-101 0-14 100-49 139-49 43 0 95 34 106 70 9 28-12 60-50 76s-39 16-79 4zm3738-3c-8-22-1-30 21-25 14 3 14 5 1 23-14 19-15 19-22 2zm229-1c-36-17-57-48-48-76 11-36 63-70 106-70 40 0 139 36 139 50 0 12-98 100-112 100-7 0-22 2-33 5s-34-2-52-9zM704 3319c-22-25-25-85-5-123 16-30 105-91 120-82 15 10 33 103 26 136-9 42-60 90-94 90-16 0-36-9-47-21zm3448-9c-17-16-33-44-37-60-7-34 11-126 27-136 13-9 104 55 120 84 19 36 16 97-6 121-28 30-69 27-104-9zm546-59c-34-19-38-19-47-4-8 16-12 16-50-1-22-11-38-23-35-27 3-5-8-9-24-9-23 0-92-17-92-23 0-4 42-112 46-118 2-4 25 4 51 17 59 30 104 30 170-1 51-23 101-81 119-138 5-16 12-18 57-12 28 4 69 13 91 19 40 12 41 13 40 58 0 69-63 190-116 226-56 36-156 43-210 13zm-4353-35c-19-19-65-96-65-108 0-2 19-2 43 0 30 2 56-4 90-21l48-25 9 22 29 70c12 27 21 52 21 57s-19 9-43 9c-23 0-57 4-75 10-29 8-37 6-57-14z"/><path d="M573 3122l-31-77 53-6c83-10 160-76 171-150 8-50 21-59 87-66 50-5 56-4 68 18 14 27 19 188 6 232-10 37-21 34-40-13-8-22-23-43-33-47-41-15-234 118-234 161 0 38-18 18-47-52zm1622 37c-61-50-175-161-175-171 0-18 179 125 208 166 19 25 30 46 25 46-4-1-30-19-58-41zm2167-64c-20-44-15-55 23-55h35l-15 36-15 40c0 14-19 0-28-21zm-4093-88c-41-27-96-126-77-139 7-4 41-8 74-8 68 0 102 19 129 70 20 39 19 47-10 75-30 31-71 32-116 2zm4306-2c-29-28-30-36-10-75 27-51 61-70 129-70 87 0 91 6 59 71-47 92-127 126-178 74zm-4045-64c-15-29-12-79 7-112 17-28 71-60 126-73l27-6v71c0 67-2 73-34 105-28 28-42 34-75 34-30 0-43-5-51-19zm3774-15c-32-32-34-38-34-105v-71l28 6c90 22 142 71 142 134 0 52-15 70-61 70-33 0-47-6-75-34zm501-131a458 458 0 0-230 3 NaNc-235 NaN-231 NaN-225 NaN 9 NaN 14 NaN 27 NaN 79 NaN 191 NaN 234 NaN 14 NaN 28 NaN 31 NaN 7 NaN 8 NaN 84 NaN 47 NaN 82 NaN 89 NaN 26 NaN 4 NaN-36 NaNa176 176 0 1-207 73 NaNzm-4472-17c-41-19-73-58-87-104-6-19-2-22 41-26 27-3 55-9 64-12 13-6 17 3 22 54 4 33 10 72 13 85 7 30 2 30-53 3z"/><path d="M465 2759l-14-87c-7-56-6-62 8-55 9 4 46 8 82 8 56 0 72-4 107-29 26-18 49-45 62-75l29-61c6-10 27-16 67-18 109-6 118 4 103 118-12 95-43 165-88 196-20 13-39 24-42 24-4 0-9-22-13-50-9-66-27-76-106-56-75 19-154 59-174 87l-15 22-6-24zm3983-22c-21-18-44-48-52-69l-16-36 53-4c28-2 59-8 68-12 14-6 14 1 6 66-5 40-12 76-15 80-4 3-24-8-44-25zM223 2550c-39-23-61-64-70-126l-6-47 59 7c90 10 138 53 138 123 0 61-58 82-121 43zm4412 6c-24-17-25-74-2-110 26-39 56-55 121-62l59-7-6 47c-9 62-31 103-70 126-38 23-76 25-102 6z"/><path d="M485 2533c-13-12-16-27-12-56 9-68 65-107 152-107h47l-7 33c-14 67-27 97-56 122-36 30-98 34-124 8zm3866-8c-29-25-42-55-56-122l-7-33h47c87 0 143 39 152 107 7 51-14 73-67 73-27 0-48-8-69-25zm-2743-42c-70-51-129-104-193-174-26-28-31-37-15-26a15892 15892 0 1250 171 NaN NaNlNaN NaNcNaN NaN NaN NaN NaN NaN NaN NaN NaN NaN NaN NaNz"/><path d="M750 2356c0-22-4-46-8-52-20-31-171-21-247 16-25 12-48 20-51 17s-2-37 2-76l6-70 41 21c31 15 54 19 98 16 77-6 127-39 165-112 33-63 44-66 144-45 85 18 92 40 49 151-39 100-89 151-165 168l-34 8v-42zm3745-16c-10-11-43-28-74-37-91-27-113-73-36-73 26 0 63-9 84-20l39-19 7 80c4 44 5 82 3 85-3 2-13-5-23-16zm99-81l-9-91 29 6c83 17 186-59 210-154 13-54 14-55 61-68 90-26 111 9 108 174-1 77-15 114-57 153-24 23-34 25-133 26-102 1-133 8-194 42-3 2-10-37-15-88zm-3075 9a952 952 0 1-285-302 NaNc-17 NaN-21 NaN-21 NaN 0 NaN 6 NaN 21 NaN 49 NaN 115 NaN 259 NaN 94 NaN 94 NaN 94 NaNs0 NaN-95 NaNc-164 NaN-226 NaN-226 NaN 0 NaN 6 NaN 30 NaN 46 NaN 155 NaN 309 NaN 8 NaN 20 NaN 13 NaN-4 NaN-41 NaN-82 NaNzm1841 43c0-31 26-63 87-108 97-72 205-189 239-259 24-48 29-72 29-129 0-135-66-189-232-187-91 1-94 0-91-21s7-22 114-22c106 0 113 1 160 30 73 46 99 98 99 200 0 74-3 88-39 159a875 875 0 1-273 289 NaNc-644 NaN-655 NaN-655 NaNzm-3033-51c-24-28-43-68-35-75 1-1 21-6 44-9l41-7-8 56c-4 31-10 59-12 61-2 3-16-9-30-26z"/><path d="M517 2133c-28-32-22-75 19-114 34-32 38-34 105-33 38 1 72 4 75 7 9 9-37 104-61 127-34 32-113 39-138 13zm3818 8c-11-5-28-17-37-28-22-23-62-113-54-120 3-3 37-6 76-7 70-1 72 0 106 36 39 43 45 85 16 111-20 18-73 21-107 8zm-945-210c0-136 4-212 10-216s47-7 91-8c93-1 128 18 143 75 14 56 2 85-39 92l-35 7v114l-76 73c-42 39-80 72-85 72s-9-93-9-209zm-1932 117c-140-138-172-274-75-325 31-16 156-21 178-7 5 3 9 40 9 82 0 77 0 78-30 89-55 21-64 99-21 185 11 23 19 44 17 46s-37-30-78-70zm-1173 38c-55-24-69-50-73-132-5-87 0-89 86-49 40 19 56 33 67 59 21 51 18 83-10 111-28 29-30 29-70 11zm4320-10c-28-29-32-61-10-112 11-26 27-40 67-59 82-38 88-36 88 38 0 69-13 102-50 128-45 31-67 33-95 5zm-3789-77c-3-8-6-25-8-39-4-33-50-48-177-58-109-8-116-15-86-85l16-38 30 25c35 30 82 40 149 34 59-6 106-39 151-106l35-51c6-7 139 38 163 55 33 24 24 78-26 151-55 80-104 113-181 120-47 4-63 3-66-8zm3584-86c-30-9-66-12-107-8l-62 7-21-34-20-33 43-3c76-4 106-12 137-38l30-26 11 29c15 37 39 117 36 118-1 1-22-5-47-12zm125-15c-9-25-45-143-45-148 0-3 19-6 41-7 85-3 169-97 169-189 0-42 1-44 41-55 55-17 69-6 97 77 27 79 33 164 13 212-15 35-26 40-35 16-15-39-202 19-251 78-17 20-27 25-30 16zM442 1796c-17-38-15-43 13-48 28-6 30 3 12 46l-13 29-12-27z"/><path d="M642 1744c-44-31-17-107 48-134 25-10 42-10 83-1 29 6 58 15 66 20 19 12 6 43-39 90-36 37-45 41-88 41-27 0-57-7-70-16zm3518-25c-45-47-58-78-39-90 8-5 37-14 66-20 41-9 58-9 83 1 65 27 92 103 48 134-13 9-43 16-70 16-43 0-52-4-88-41zm-3736-59c-36-15-74-68-74-106 0-43 20-124 30-124 18 0 106 67 117 90 21 42 16 98-12 125-26 27-30 28-61 15zm4051-14c-28-28-34-83-12-126 11-23 99-90 117-90 10 0 30 81 30 125 0 26-8 44-32 69-46 48-72 53-103 22zm-3460 3c-26-6-51-22-70-44-17-20-51-42-80-53-34-12-49-23-47-34 1-10-8-17-27-21-16-3-41-17-56-30-25-21-26-26-15-46l12-23 31 30c61 59 150 78 223 47 20-8 62-42 94-75s63-60 70-60c21 0 127 60 151 86 20 21 21 26 9 54-7 17-39 51-71 76-33 25-59 49-59 54 0 31-99 55-165 39zm2994-112c-44-56-44-56 14-50 68 7 118-9 168-54l38-34 30 60 31 63c0 2-28 4-63 4-34 1-89 11-121 23-33 12-62 21-65 21s-18-15-32-33zm326-105l-43-83c-2-4 10-10 25-14 77-19 133-102 133-197 0-48 3-58 20-63 33-10 53 2 83 50 29 49 67 152 67 182 0 13-19 27-64 46-69 30-139 84-165 128l-17 27-39-76z"/><path d="M860 1403c-29-11-50-36-50-60 0-38 15-58 60-78 39-17 44-18 93-2 29 9 62 23 72 32 19 14 18 16-32 65-44 43-57 50-90 49-21 0-45-3-53-6zm3098-41c-51-49-52-51-33-66 33-26 113-48 144-41 43 9 81 48 81 83 0 40-31 64-89 70-49 4-51 3-103-46zm-2682-52c-44-13-94-52-112-86l-17-31-22 25-22 25-36-22c-21-12-37-26-37-29 0-4 12-20 26-36 22-25 28-27 50-17 39 18 113 13 161-10 24-12 68-43 98-71 53-48 54-49 83-34 16 8 52 33 80 56 71 55 71 81 0 146-90 80-172 108-252 84zm2475-86c-28-25-51-54-51-64 0-16 7-17 63-13 92 7 172-36 199-107l9-25 20 25 58 81 40 55-30-4c-39-6-121 22-190 64-31 19-59 34-62 34s-28-21-56-46zm-3111 23c-55-43-63-103-25-186l26-54 40 39c23 21 48 54 56 73 34 79-38 175-97 128zm3603-9c-49-54-36-124 36-192l40-39 26 54c29 63 32 115 8 149-38 55-76 64-110 28zm-3359-80c13-22 20-22 35-4 9 11 6 14-18 18-26 4-28 2-17-14zm112-77c-22-23-26-33-18-48 10-17 11-16 21 7 6 14 18 35 27 48 24 32 3 27-30-7zm3086-48l-50-68 44-21c75-36 108-91 109-184l1-65 32-3c28-3 35 2 65 50 65 103 84 178 45 178-31 0-124 76-160 131-17 27-32 49-34 49-1 0-25-30-52-67zm-2981 11c-38-32-40-67-6-98 38-36 81-39 141-10 28 13 58 32 68 43 16 17 14 20-36 55-67 46-121 49-167 10z"/><path d="M3715 1051c-16-11-41-28-54-39l-24-19 35-26c76-59 145-66 193-21 78 72-55 166-150 105zm-2305-80c-5-11-37-41-70-66s-60-52-60-59c0-8 18-16 45-19 97-14 182-86 209-178 9-29 16-60 16-70 0-22 20-29 90-29 39 0 62 5 70 15 17 21 7 205-15 267-19 53-83 119-141 143-54 22-131 20-144-4zm2198-94c-34-53-32-58 26-51 41 5 63 2 99-14l46-20 14 21c14 21 13 22-24 23-22 1-62 15-93 33l-54 30-14-22zM890 852c-43-44-47-88-15-161 15-34 31-61 34-61 10 0 77 72 90 97 19 38 13 89-15 122-32 39-57 39-94 3zm3086-3c-28-33-34-84-15-122 13-25 80-97 90-97 3 0 19 27 34 61 32 73 28 117-15 161-37 36-62 36-94-3zm-2812-31c13-22 30-23 50-2 22 21 21 22-22 21-34-2-38-4-28-19zm-78-83c-4-20-6-39-4-40 2-2 14 5 28 15l25 19-21 21-21 22-7-37zm2760 16c-15-16-19-38-20-96-1-41 0-75 2-75 9 0 82 41 87 50 3 5-2 21-11 34-9 14-21 44-28 66-12 41-12 41-30 21z"/><path d="M1255 738c-33-18-45-40-45-82 1-97 79-163 207-174l66-5-7 54c-16 123-41 169-110 200-46 21-82 23-111 7zm2339-7c-69-31-94-77-110-200l-7-54 66 5c126 10 206 77 207 170 0 50-8 66-41 83-37 20-65 19-115-4z"/></g><g fill="#6dc9f7"><path d="M1915 4640l-160-89-10 32c-14 48-95 124-140 133-86 16-236-14-261-51-12-18-12-28-1-61 13-36 18-40 59-45 55-8 95-28 129-66 33-35 49-65 49-92 0-12 1-21 3-21l177 95c96 52 181 93 190 90 8-2 53 17 100 43 63 35 86 53 88 70 4 29-14 52-42 52-11-1-93-41-181-90zm1235 76c-6-8-10-25-8-38 2-18 33-40 146-101 129-71 145-78 160-64 9 8 29 21 44 28 27 14 26 15-132 102-87 48-168 87-178 87-11 0-25-7-32-14zm490-15c-45-25-75-57-95-104l-15-37h35c55 0 172-29 197-49 20-17 21-21 9-61-14-49-12-54 20-41 38 14 88 71 119 136 41 85 43 99 23 123-40 48-226 68-293 33zm-2327-233c-41-9-42-10-32-36 32-84 105-132 171-113 65 20 64 94-1 138-36 24-69 27-138 11z"/><path d="M3513 4460c-38-23-53-48-53-90 0-26 6-33 37-46 30-13 44-14 74-5 40 12 92 66 108 112 9 27 8 28-40 38-69 15-89 14-126-9zm-2380-49c-29-10-77-34-108-55-51-34-56-40-53-69l3-32 56 3c90 6 178-46 195-115 4-12 9-23 11-23 3 0 37 25 75 56l69 56-50 24c-36 18-60 40-85 79-20 29-36 58-36 63 0 26-26 30-77 13zm604-38l-97-55 39-38c49-47 65-96 58-171-4-52-3-59 13-59 22 0 88 71 126 136 24 40 29 60 28 110 0 65-27 127-55 131-7 0-58-24-112-54zm2276 43c-58-18-98-49-118-91-18-40-11-43-96 27l-46 38-26-39-26-39 49-41 48-41 42 15c57 20 99 19 162-5s148-84 148-105c0-29 24-15 92 53 56 56 68 74 68 100 0 29-7 37-62 72-58 38-142 71-177 69-9 0-35-6-58-13zm-363-148c-24-15-50-28-58-28-18 0-1-22 39-51l28-20 21 41c12 23 20 52 18 64l-3 23-45-29zm-2119-53c-32-41-35-80-12-128 12-24 32-54 46-67l24-23 20 24c37 44 54 90 48 131-11 79-84 116-126 63zm1813 17c-24-16-44-59-44-92 0-34 16-71 52-120l18-24 25 24c38 36 68 104 60 139-14 63-71 101-111 73zm-1314-44c-43-29-68-65-76-105l-6-33h125c101 0 129-3 141-16 19-19 20-38 3-52-7-6-75-12-154-14-122-3-144-6-162-22-30-27-28-86 2-114 22-21 31-22 243-22 158 0 223-3 232-12 19-19 16-447-3-523a507 507 0 0-226-300 1182lNaN NaNcNaN NaN NaN NaN NaN NaNlNaN NaNhNaNvNaNlNaN NaNcNaN NaN NaN NaN NaN NaNa547 547 0 0-199 NaN NaNcNaN NaN NaN NaN NaN NaN NaN NaN NaN NaN NaN NaN NaN NaN NaN NaN NaN NaNhNaNlNaN NaNcNaN NaN NaN NaN NaN NaN NaN NaN NaN NaN NaN NaN NaN NaN NaN NaN NaN NaN NaN NaN NaN NaN NaN NaN NaN NaN NaN NaN NaN NaN NaN NaN NaN NaN NaN NaN NaN NaN NaN NaN NaN NaN NaN NaN NaN NaN NaN NaN NaN NaN NaN NaN NaN NaN NaN NaN NaN NaN NaN NaNlNaN NaN NaN NaN NaN NaN NaN NaNzm624-160c8-13 8-23 0-35-10-16-31-18-169-21-158-3-185 2-185 34 0 7 7 20 16 29 13 13 40 15 171 13 136-3 157-5 167-20zm-295-1473l125-65 124 65c125 65 158 76 168 52 2-7-7-76-21-152l-25-140 105-102c104-101 125-136 88-147-10-2-78-13-151-22l-133-18-67-131c-90-174-91-174-180 0l-67 130-140 20c-146 22-165 27-165 49 0 8 48 60 106 116l107 102-24 137c-23 142-22 171 8 171 10 0 74-30 142-65zM962 4154c-29-14-52-29-52-34 0-18 91-89 122-95 45-9 104 16 120 50 10 22 8 30-9 53-43 58-101 66-181 26zm2899 13c-13-6-33-24-44-39-17-23-19-31-9-53 16-34 75-59 120-50 31 6 122 77 122 95 0 14-103 60-134 60-17 0-42-6-55-13zm-2471-30l-63-53-38-31 33-21c62-38 99-135 80-206-10-34-9-36 13-36 14 0 38 16 63 44 69 75 69 76 12 150-43 58-59 93-72 158-3 15-6 14-28-5zm2146-16c-3-22-9-46-12-55-9-23 18-20 50 5 33 26 32 38-3 66l-29 22-6-38zm813-40c-51-10-105-47-121-81-7-17-16-30-20-30-3 0-24 20-46 45s-44 45-49 45-22-14-38-30l-29-30 38-39 38-39-23-12c-31-16-79-61-79-74 0-5 7-18 16-28 16-17 18-16 36 22 26 52 74 81 146 87 73 7 124-17 199-93 29-30 58-54 65-54 19 0 108 53 141 83 15 15 27 32 27 40 0 25-78 113-132 150-56 37-109 49-169 38zm-3582-32c-73-48-168-172-108-139 11 5 42 10 69 10 68 0 130-34 158-88l22-41 66 74 67 74-41 11c-26 7-62 31-104 70-35 33-68 60-73 60s-30-14-56-31zm438-92c-51-44-43-128 21-200 30-35 39-30 78 43 33 60 30 102-10 150-31 36-54 38-89 7zm2461-7c-40-48-43-90-10-150 39-73 48-78 78-43 64 72 72 156 21 200-35 31-58 29-89-7zm339 20c-3-5-24-14-47-20l-40-11 28-30 28-30 18 23c22 29 40 78 28 78-5 0-12-4-15-10zm-2968-158c-49-50-56-62-34-62 24 0 90-63 108-104 10-23 19-64 19-94 0-57 11-69 54-58 15 4 33 25 55 65 36 69 37 71 12 71-37 0-141 135-160 208-6 21-9 20-54-26zm2830 18c-4-16-6-33-5-38 3-10 30-3 46 12 10 10 8 17-11 35l-24 22-6-31zm-3192-1c-24-14-95-81-95-89 0-4 27-19 59-34 45-22 67-27 94-22 74 14 113 90 67 131-24 21-98 30-125 14z"/><path d="M4190 3833c-55-20-67-79-24-118 43-40 87-42 155-9 32 15 59 30 59 34 0 10-73 77-97 89-23 11-67 13-93 4zm-1540-276c0-313 29-381 224-526 177-132 302-280 394-471l56-115 144-95c185-122 262-201 328-335 46-92 48-100 49-183 0-48-4-102-8-120l-9-33 40 20c92 47 146 151 145 281-2 192-132 368-408 552l-120 79-35 77c-53 116-73 151-138 238-69 93-203 223-287 281a493 493 0 0-173 191 NaNc-387 NaN-391 NaN-394 NaNl-4 NaNh-168vNaNzm1906 133c-16-5-42-22-58-37l-29-28-18 23c-17 23-18 23-54 6-38-18-45-32-26-51 7-7-2-14-33-22-81-21-92-44-48-101l19-25 21 22c34 38 81 56 140 56 70 0 101-16 174-93l60-63 35 13c20 7 60 28 89 46 39 25 52 40 52 57 0 46-106 164-172 192-40 16-106 18-152 5zm-3624-17c-20-8-42-59-42-98 0-31 9-46 54-93l55-57 25 55c30 63 32 99 11 140-25 47-65 68-103 53zm3030-9c-29-20-52-65-52-101 0-15 12-53 26-83l25-55 55 57c45 47 54 62 54 93 0 83-54 127-108 89zm-3491-60c-34-35-61-69-61-73 0-5 17-5 38 0 62 14 171-18 185-56 4-8 10-15 15-15 7 0 102 131 102 141 0 2-21 4-48 5-31 1-67 11-109 32l-61 31-61-65zm3739-8c0-2 6-9 14-15 10-9 16-8 26 4 11 13 8 15-14 15-14 0-26-2-26-4z"/><path d="M768 3482l-38-57 34-6c84-14 151-87 163-179 8-53 10-55 45-64 19-5 43-6 51-3 23 9 60 115 64 187l4 65-28-42c-15-24-34-45-42-48-34-13-201 137-201 180 0 31-18 20-52-33zm3379 52c-4-4-7-14-7-23 0-11 3-12 11-4 6 6 10 16 7 23-2 6-7 8-11 4zm-3691-84c-27-9-116-86-116-101 0-14 100-49 139-49 43 0 95 34 106 70 9 28-12 60-50 76s-39 16-79 4zm3738-3c-8-22-1-30 21-25 14 3 14 5 1 23-14 19-15 19-22 2zm229-1c-36-17-57-48-48-76 11-36 63-70 106-70 40 0 139 36 139 50 0 12-98 100-112 100-7 0-22 2-33 5s-34-2-52-9zM704 3319c-22-25-25-85-5-123 16-30 105-91 120-82 15 10 33 103 26 136-9 42-60 90-94 90-16 0-36-9-47-21zm3448-9c-17-16-33-44-37-60-7-34 11-126 27-136 13-9 104 55 120 84 19 36 16 97-6 121-28 30-69 27-104-9zm546-59c-34-19-38-19-47-4-8 16-12 16-50-1-22-11-38-23-35-27 3-5-8-9-24-9-23 0-92-17-92-23 0-4 42-112 46-118 2-4 25 4 51 17 59 30 104 30 170-1 51-23 101-81 119-138 5-16 12-18 57-12 28 4 69 13 91 19 40 12 41 13 40 58 0 69-63 190-116 226-56 36-156 43-210 13zm-4353-35c-19-19-65-96-65-108 0-2 19-2 43 0 30 2 56-4 90-21l48-25 9 22 29 70c12 27 21 52 21 57s-19 9-43 9c-23 0-57 4-75 10-29 8-37 6-57-14z"/><path d="M573 3122l-31-77 53-6c83-10 160-76 171-150 8-50 21-59 87-66 50-5 56-4 68 18 14 27 19 188 6 232-10 37-21 34-40-13-8-22-23-43-33-47-41-15-234 118-234 161 0 38-18 18-47-52zm1622 37c-61-50-175-161-175-171 0-18 179 125 208 166 19 25 30 46 25 46-4-1-30-19-58-41zm2167-64c-20-44-15-55 23-55h35l-15 36-15 40c0 14-19 0-28-21zm-4093-88c-41-27-96-126-77-139 7-4 41-8 74-8 68 0 102 19 129 70 20 39 19 47-10 75-30 31-71 32-116 2zm4306-2c-29-28-30-36-10-75 27-51 61-70 129-70 87 0 91 6 59 71-47 92-127 126-178 74zm-4045-64c-15-29-12-79 7-112 17-28 71-60 126-73l27-6v71c0 67-2 73-34 105-28 28-42 34-75 34-30 0-43-5-51-19zm3774-15c-32-32-34-38-34-105v-71l28 6c90 22 142 71 142 134 0 52-15 70-61 70-33 0-47-6-75-34zm501-131a458 458 0 0-230 3 NaNc-235 NaN-231 NaN-225 NaN 9 NaN 14 NaN 27 NaN 79 NaN 191 NaN 234 NaN 14 NaN 28 NaN 31 NaN 7 NaN 8 NaN 84 NaN 47 NaN 82 NaN 89 NaN 26 NaN 4 NaN-36 NaNa176 176 0 1-207 73 NaNzm-4472-17c-41-19-73-58-87-104-6-19-2-22 41-26 27-3 55-9 64-12 13-6 17 3 22 54 4 33 10 72 13 85 7 30 2 30-53 3z"/><path d="M465 2759l-14-87c-7-56-6-62 8-55 9 4 46 8 82 8 56 0 72-4 107-29 26-18 49-45 62-75l29-61c6-10 27-16 67-18 109-6 118 4 103 118-12 95-43 165-88 196-20 13-39 24-42 24-4 0-9-22-13-50-9-66-27-76-106-56-75 19-154 59-174 87l-15 22-6-24zm3983-22c-21-18-44-48-52-69l-16-36 53-4c28-2 59-8 68-12 14-6 14 1 6 66-5 40-12 76-15 80-4 3-24-8-44-25zM223 2550c-39-23-61-64-70-126l-6-47 59 7c90 10 138 53 138 123 0 61-58 82-121 43zm4412 6c-24-17-25-74-2-110 26-39 56-55 121-62l59-7-6 47c-9 62-31 103-70 126-38 23-76 25-102 6z"/><path d="M485 2533c-13-12-16-27-12-56 9-68 65-107 152-107h47l-7 33c-14 67-27 97-56 122-36 30-98 34-124 8zm3866-8c-29-25-42-55-56-122l-7-33h47c87 0 143 39 152 107 7 51-14 73-67 73-27 0-48-8-69-25zm-2743-42c-70-51-129-104-193-174-26-28-31-37-15-26a15892 15892 0 1250 171 NaN NaNlNaN NaNcNaN NaN NaN NaN NaN NaN NaN NaN NaN NaN NaN NaNz"/><path d="M750 2356c0-22-4-46-8-52-20-31-171-21-247 16-25 12-48 20-51 17s-2-37 2-76l6-70 41 21c31 15 54 19 98 16 77-6 127-39 165-112 33-63 44-66 144-45 85 18 92 40 49 151-39 100-89 151-165 168l-34 8v-42zm3745-16c-10-11-43-28-74-37-91-27-113-73-36-73 26 0 63-9 84-20l39-19 7 80c4 44 5 82 3 85-3 2-13-5-23-16zm99-81l-9-91 29 6c83 17 186-59 210-154 13-54 14-55 61-68 90-26 111 9 108 174-1 77-15 114-57 153-24 23-34 25-133 26-102 1-133 8-194 42-3 2-10-37-15-88zm-4267 1c-24-28-43-68-35-75 1-1 21-6 44-9l41-7-8 56c-4 31-10 59-12 61-2 3-16-9-30-26z"/><path d="M517 2133c-28-32-22-75 19-114 34-32 38-34 105-33 38 1 72 4 75 7 9 9-37 104-61 127-34 32-113 39-138 13zm3818 8c-11-5-28-17-37-28-22-23-62-113-54-120 3-3 37-6 76-7 70-1 72 0 106 36 39 43 45 85 16 111-20 18-73 21-107 8zm-945-210c0-136 4-212 10-216s47-7 91-8c93-1 128 18 143 75 14 56 2 85-39 92l-35 7v114l-76 73c-42 39-80 72-85 72s-9-93-9-209zm-1932 117c-140-138-172-274-75-325 31-16 156-21 178-7 5 3 9 40 9 82 0 77 0 78-30 89-55 21-64 99-21 185 11 23 19 44 17 46s-37-30-78-70zm-1173 38c-55-24-69-50-73-132-5-87 0-89 86-49 40 19 56 33 67 59 21 51 18 83-10 111-28 29-30 29-70 11zm4320-10c-28-29-32-61-10-112 11-26 27-40 67-59 82-38 88-36 88 38 0 69-13 102-50 128-45 31-67 33-95 5zm-3789-77c-3-8-6-25-8-39-4-33-50-48-177-58-109-8-116-15-86-85l16-38 30 25c35 30 82 40 149 34 59-6 106-39 151-106l35-51c6-7 139 38 163 55 33 24 24 78-26 151-55 80-104 113-181 120-47 4-63 3-66-8zm3584-86c-30-9-66-12-107-8l-62 7-21-34-20-33 43-3c76-4 106-12 137-38l30-26 11 29c15 37 39 117 36 118-1 1-22-5-47-12zm125-15c-9-25-45-143-45-148 0-3 19-6 41-7 85-3 169-97 169-189 0-42 1-44 41-55 55-17 69-6 97 77 27 79 33 164 13 212-15 35-26 40-35 16-15-39-202 19-251 78-17 20-27 25-30 16zM442 1796c-17-38-15-43 13-48 28-6 30 3 12 46l-13 29-12-27z"/><path d="M642 1744c-44-31-17-107 48-134 25-10 42-10 83-1 29 6 58 15 66 20 19 12 6 43-39 90-36 37-45 41-88 41-27 0-57-7-70-16zm3518-25c-45-47-58-78-39-90 8-5 37-14 66-20 41-9 58-9 83 1 65 27 92 103 48 134-13 9-43 16-70 16-43 0-52-4-88-41zm-3736-59c-36-15-74-68-74-106 0-43 20-124 30-124 18 0 106 67 117 90 21 42 16 98-12 125-26 27-30 28-61 15zm4051-14c-28-28-34-83-12-126 11-23 99-90 117-90 10 0 30 81 30 125 0 26-8 44-32 69-46 48-72 53-103 22zm-3460 3c-26-6-51-22-70-44-17-20-51-42-80-53-34-12-49-23-47-34 1-10-8-17-27-21-16-3-41-17-56-30-25-21-26-26-15-46l12-23 31 30c61 59 150 78 223 47 20-8 62-42 94-75s63-60 70-60c21 0 127 60 151 86 20 21 21 26 9 54-7 17-39 51-71 76-33 25-59 49-59 54 0 31-99 55-165 39zm2994-112c-44-56-44-56 14-50 68 7 118-9 168-54l38-34 30 60 31 63c0 2-28 4-63 4-34 1-89 11-121 23-33 12-62 21-65 21s-18-15-32-33zm326-105l-43-83c-2-4 10-10 25-14 77-19 133-102 133-197 0-48 3-58 20-63 33-10 53 2 83 50 29 49 67 152 67 182 0 13-19 27-64 46-69 30-139 84-165 128l-17 27-39-76z"/><path d="M860 1403c-29-11-50-36-50-60 0-38 15-58 60-78 39-17 44-18 93-2 29 9 62 23 72 32 19 14 18 16-32 65-44 43-57 50-90 49-21 0-45-3-53-6zm3098-41c-51-49-52-51-33-66 33-26 113-48 144-41 43 9 81 48 81 83 0 40-31 64-89 70-49 4-51 3-103-46zm-2682-52c-44-13-94-52-112-86l-17-31-22 25-22 25-36-22c-21-12-37-26-37-29 0-4 12-20 26-36 22-25 28-27 50-17 39 18 113 13 161-10 24-12 68-43 98-71 53-48 54-49 83-34 16 8 52 33 80 56 71 55 71 81 0 146-90 80-172 108-252 84zm2475-86c-28-25-51-54-51-64 0-16 7-17 63-13 92 7 172-36 199-107l9-25 20 25 58 81 40 55-30-4c-39-6-121 22-190 64-31 19-59 34-62 34s-28-21-56-46zm-3111 23c-55-43-63-103-25-186l26-54 40 39c23 21 48 54 56 73 34 79-38 175-97 128zm3603-9c-49-54-36-124 36-192l40-39 26 54c29 63 32 115 8 149-38 55-76 64-110 28zm-3359-80c13-22 20-22 35-4 9 11 6 14-18 18-26 4-28 2-17-14zm112-77c-22-23-26-33-18-48 10-17 11-16 21 7 6 14 18 35 27 48 24 32 3 27-30-7zm3086-48l-50-68 44-21c75-36 108-91 109-184l1-65 32-3c28-3 35 2 65 50 65 103 84 178 45 178-31 0-124 76-160 131-17 27-32 49-34 49-1 0-25-30-52-67zm-2981 11c-38-32-40-67-6-98 38-36 81-39 141-10 28 13 58 32 68 43 16 17 14 20-36 55-67 46-121 49-167 10z"/><path d="M3715 1051c-16-11-41-28-54-39l-24-19 35-26c76-59 145-66 193-21 78 72-55 166-150 105zm-2305-80c-5-11-37-41-70-66s-60-52-60-59c0-8 18-16 45-19 97-14 182-86 209-178 9-29 16-60 16-70 0-22 20-29 90-29 39 0 62 5 70 15 17 21 7 205-15 267-19 53-83 119-141 143-54 22-131 20-144-4zm2198-94c-34-53-32-58 26-51 41 5 63 2 99-14l46-20 14 21c14 21 13 22-24 23-22 1-62 15-93 33l-54 30-14-22zM890 852c-43-44-47-88-15-161 15-34 31-61 34-61 10 0 77 72 90 97 19 38 13 89-15 122-32 39-57 39-94 3zm3086-3c-28-33-34-84-15-122 13-25 80-97 90-97 3 0 19 27 34 61 32 73 28 117-15 161-37 36-62 36-94-3zm-2812-31c13-22 30-23 50-2 22 21 21 22-22 21-34-2-38-4-28-19zm-78-83c-4-20-6-39-4-40 2-2 14 5 28 15l25 19-21 21-21 22-7-37zm2760 16c-15-16-19-38-20-96-1-41 0-75 2-75 9 0 82 41 87 50 3 5-2 21-11 34-9 14-21 44-28 66-12 41-12 41-30 21z"/><path d="M1255 738c-33-18-45-40-45-82 1-97 79-163 207-174l66-5-7 54c-16 123-41 169-110 200-46 21-82 23-111 7zm2339-7c-69-31-94-77-110-200l-7-54 66 5c126 10 206 77 207 170 0 50-8 66-41 83-37 20-65 19-115-4z"/></g><g fill="#f1e0e7"><path d="M1915 4640l-160-89-10 32c-14 48-95 124-140 133-86 16-236-14-261-51-12-18-12-28-1-61 13-36 18-40 59-45 55-8 95-28 129-66 33-35 49-65 49-92 0-12 1-21 3-21l177 95c96 52 181 93 190 90 8-2 53 17 100 43 63 35 86 53 88 70 4 29-14 52-42 52-11-1-93-41-181-90zm1235 76c-6-8-10-25-8-38 2-18 33-40 146-101 129-71 145-78 160-64 9 8 29 21 44 28 27 14 26 15-132 102-87 48-168 87-178 87-11 0-25-7-32-14zm490-15c-45-25-75-57-95-104l-15-37h35c55 0 172-29 197-49 20-17 21-21 9-61-14-49-12-54 20-41 38 14 88 71 119 136 41 85 43 99 23 123-40 48-226 68-293 33zm-2507-290c-29-10-77-34-108-55-51-34-56-40-53-69l3-32 56 3c90 6 178-46 195-115 4-12 9-23 11-23 3 0 37 25 75 56l69 56-50 24c-36 18-60 40-85 79-20 29-36 58-36 63 0 26-26 30-77 13zm604-38l-97-55 39-38c49-47 65-96 58-171-4-52-3-59 13-59 22 0 88 71 126 136 24 40 29 60 28 110 0 65-27 127-55 131-7 0-58-24-112-54zm2276 43c-58-18-98-49-118-91-18-40-11-43-96 27l-46 38-26-39-26-39 49-41 48-41 42 15c57 20 99 19 162-5s148-84 148-105c0-29 24-15 92 53 56 56 68 74 68 100 0 29-7 37-62 72-58 38-142 71-177 69-9 0-35-6-58-13zm-363-148c-24-15-50-28-58-28-18 0-1-22 39-51l28-20 21 41c12 23 20 52 18 64l-3 23-45-29zm-1620-80c-43-29-68-65-76-105l-6-33h125c101 0 129-3 141-16 19-19 20-38 3-52-7-6-75-12-154-14-122-3-144-6-162-22-30-27-28-86 2-114 22-21 31-22 243-22 158 0 223-3 232-12 19-19 16-447-3-523a507 507 0 0-226-300 1182lNaN NaNcNaN NaN NaN NaN NaN NaNlNaN NaNhNaNvNaNlNaN NaNcNaN NaN NaN NaN NaN NaNa547 547 0 0-199 NaN NaNcNaN NaN NaN NaN NaN NaN NaN NaN NaN NaN NaN NaN NaN NaN NaN NaN NaN NaNhNaNlNaN NaNcNaN NaN NaN NaN NaN NaN NaN NaN NaN NaN NaN NaN NaN NaN NaN NaN NaN NaN NaN NaN NaN NaN NaN NaN NaN NaN NaN NaN NaN NaN NaN NaN NaN NaN NaN NaN NaN NaN NaN NaN NaN NaN NaN NaN NaN NaN NaN NaN NaN NaN NaN NaN NaN NaN NaN NaN NaN NaN NaN NaNlNaN NaN NaN NaN NaN NaN NaN NaNzm624-160c8-13 8-23 0-35-10-16-31-18-169-21-158-3-185 2-185 34 0 7 7 20 16 29 13 13 40 15 171 13 136-3 157-5 167-20zm-295-1473l125-65 124 65c125 65 158 76 168 52 2-7-7-76-21-152l-25-140 105-102c104-101 125-136 88-147-10-2-78-13-151-22l-133-18-67-131c-90-174-91-174-180 0l-67 130-140 20c-146 22-165 27-165 49 0 8 48 60 106 116l107 102-24 137c-23 142-22 171 8 171 10 0 74-30 142-65zm-969 1582l-63-53-38-31 33-21c62-38 99-135 80-206-10-34-9-36 13-36 14 0 38 16 63 44 69 75 69 76 12 150-43 58-59 93-72 158-3 15-6 14-28-5zm2146-16c-3-22-9-46-12-55-9-23 18-20 50 5 33 26 32 38-3 66l-29 22-6-38zm813-40c-51-10-105-47-121-81-7-17-16-30-20-30-3 0-24 20-46 45s-44 45-49 45-22-14-38-30l-29-30 38-39 38-39-23-12c-31-16-79-61-79-74 0-5 7-18 16-28 16-17 18-16 36 22 26 52 74 81 146 87 73 7 124-17 199-93 29-30 58-54 65-54 19 0 108 53 141 83 15 15 27 32 27 40 0 25-78 113-132 150-56 37-109 49-169 38zm-3582-32c-73-48-168-172-108-139 11 5 42 10 69 10 68 0 130-34 158-88l22-41 66 74 67 74-41 11c-26 7-62 31-104 70-35 33-68 60-73 60s-30-14-56-31zm3238-79c-3-5-24-14-47-20l-40-11 28-30 28-30 18 23c22 29 40 78 28 78-5 0-12-4-15-10zm-2968-158c-49-50-56-62-34-62 24 0 90-63 108-104 10-23 19-64 19-94 0-57 11-69 54-58 15 4 33 25 55 65 36 69 37 71 12 71-37 0-141 135-160 208-6 21-9 20-54-26zm2830 18c-4-16-6-33-5-38 3-10 30-3 46 12 10 10 8 17-11 35l-24 22-6-31z"/><path d="M2650 3557c0-313 29-381 224-526 177-132 302-280 394-471l56-115 144-95c185-122 262-201 328-335 46-92 48-100 49-183 0-48-4-102-8-120l-9-33 40 20c92 47 146 151 145 281-2 192-132 368-408 552l-120 79-35 77c-53 116-73 151-138 238-69 93-203 223-287 281a493 493 0 0-173 191 NaNc-387 NaN-391 NaN-394 NaNl-4 NaNh-168vNaNzm1906 133c-16-5-42-22-58-37l-29-28-18 23c-17 23-18 23-54 6-38-18-45-32-26-51 7-7-2-14-33-22-81-21-92-44-48-101l19-25 21 22c34 38 81 56 140 56 70 0 101-16 174-93l60-63 35 13c20 7 60 28 89 46 39 25 52 40 52 57 0 46-106 164-172 192-40 16-106 18-152 5zm-4085-86c-34-35-61-69-61-73 0-5 17-5 38 0 62 14 171-18 185-56 4-8 10-15 15-15 7 0 102 131 102 141 0 2-21 4-48 5-31 1-67 11-109 32l-61 31-61-65zm3739-8c0-2 6-9 14-15 10-9 16-8 26 4 11 13 8 15-14 15-14 0-26-2-26-4zM768 3482l-38-57 34-6c84-14 151-87 163-179 8-53 10-55 45-64 19-5 43-6 51-3 23 9 60 115 64 187l4 65-28-42c-15-24-34-45-42-48-34-13-201 137-201 180 0 31-18 20-52-33zm3379 52c-4-4-7-14-7-23 0-11 3-12 11-4 6 6 10 16 7 23-2 6-7 8-11 4zm47-87c-8-22-1-30 21-25 14 3 14 5 1 23-14 19-15 19-22 2zm504-196c-34-19-38-19-47-4-8 16-12 16-50-1-22-11-38-23-35-27 3-5-8-9-24-9-23 0-92-17-92-23 0-4 42-112 46-118 2-4 25 4 51 17 59 30 104 30 170-1 51-23 101-81 119-138 5-16 12-18 57-12 28 4 69 13 91 19 40 12 41 13 40 58 0 69-63 190-116 226-56 36-156 43-210 13zm-4353-35c-19-19-65-96-65-108 0-2 19-2 43 0 30 2 56-4 90-21l48-25 9 22 29 70c12 27 21 52 21 57s-19 9-43 9c-23 0-57 4-75 10-29 8-37 6-57-14zm228-94l-31-77 53-6c83-10 160-76 171-150 8-50 21-59 87-66 50-5 56-4 68 18 14 27 19 188 6 232-10 37-21 34-40-13-8-22-23-43-33-47-41-15-234 118-234 161 0 38-18 18-47-52zm1622 37c-61-50-175-161-175-171 0-18 179 125 208 166 19 25 30 46 25 46-4-1-30-19-58-41zm2167-64c-20-44-15-55 23-55h35l-15 36-15 40c0 14-19 0-28-21zm443-300a458 458 0 0-230 3 NaNc-235 NaN-231 NaN-225 NaN 9 NaN 14 NaN 27 NaN 79 NaN 191 NaN 234 NaN 14 NaN 28 NaN 31 NaN 7 NaN 8 NaN 84 NaN 47 NaN 82 NaN 89 NaN 26 NaN 4 NaN-36 NaNa176 176 0 1-207 73 NaNzm-4472-17c-41-19-73-58-87-104-6-19-2-22 41-26 27-3 55-9 64-12 13-6 17 3 22 54 4 33 10 72 13 85 7 30 2 30-53 3zm132-19l-14-87c-7-56-6-62 8-55 9 4 46 8 82 8 56 0 72-4 107-29 26-18 49-45 62-75l29-61c6-10 27-16 67-18 109-6 118 4 103 118-12 95-43 165-88 196-20 13-39 24-42 24-4 0-9-22-13-50-9-66-27-76-106-56-75 19-154 59-174 87l-15 22-6-24zm3983-22c-21-18-44-48-52-69l-16-36 53-4c28-2 59-8 68-12 14-6 14 1 6 66-5 40-12 76-15 80-4 3-24-8-44-25zm-2840-254c-70-51-129-104-193-174-26-28-31-37-15-26a15892 15892 0 1250 171 NaN NaNlNaN NaNcNaN NaN NaN NaN NaN NaN NaN NaN NaN NaN NaN NaNzm-858-127c0-22-4-46-8-52-20-31-171-21-247 16-25 12-48 20-51 17s-2-37 2-76l6-70 41 21c31 15 54 19 98 16 77-6 127-39 165-112 33-63 44-66 144-45 85 18 92 40 49 151-39 100-89 151-165 168l-34 8v-42zm3745-16c-10-11-43-28-74-37-91-27-113-73-36-73 26 0 63-9 84-20l39-19 7 80c4 44 5 82 3 85-3 2-13-5-23-16zm99-81l-9-91 29 6c83 17 186-59 210-154 13-54 14-55 61-68 90-26 111 9 108 174-1 77-15 114-57 153-24 23-34 25-133 26-102 1-133 8-194 42-3 2-10-37-15-88zm-4267 1c-24-28-43-68-35-75 1-1 21-6 44-9l41-7-8 56c-4 31-10 59-12 61-2 3-16-9-30-26zm3063-329c0-136 4-212 10-216s47-7 91-8c93-1 128 18 143 75 14 56 2 85-39 92l-35 7v114l-76 73c-42 39-80 72-85 72s-9-93-9-209zm-1932 117c-140-138-172-274-75-325 31-16 156-21 178-7 5 3 9 40 9 82 0 77 0 78-30 89-55 21-64 99-21 185 11 23 19 44 17 46s-37-30-78-70zm-642-49c-3-8-6-25-8-39-4-33-50-48-177-58-109-8-116-15-86-85l16-38 30 25c35 30 82 40 149 34 59-6 106-39 151-106l35-51c6-7 139 38 163 55 33 24 24 78-26 151-55 80-104 113-181 120-47 4-63 3-66-8zm3584-86c-30-9-66-12-107-8l-62 7-21-34-20-33 43-3c76-4 106-12 137-38l30-26 11 29c15 37 39 117 36 118-1 1-22-5-47-12zm125-15c-9-25-45-143-45-148 0-3 19-6 41-7 85-3 169-97 169-189 0-42 1-44 41-55 55-17 69-6 97 77 27 79 33 164 13 212-15 35-26 40-35 16-15-39-202 19-251 78-17 20-27 25-30 16zM442 1796c-17-38-15-43 13-48 28-6 30 3 12 46l-13 29-12-27zm573-147c-26-6-51-22-70-44-17-20-51-42-80-53-34-12-49-23-47-34 1-10-8-17-27-21-16-3-41-17-56-30-25-21-26-26-15-46l12-23 31 30c61 59 150 78 223 47 20-8 62-42 94-75s63-60 70-60c21 0 127 60 151 86 20 21 21 26 9 54-7 17-39 51-71 76-33 25-59 49-59 54 0 31-99 55-165 39zm2994-112c-44-56-44-56 14-50 68 7 118-9 168-54l38-34 30 60 31 63c0 2-28 4-63 4-34 1-89 11-121 23-33 12-62 21-65 21s-18-15-32-33zm326-105l-43-83c-2-4 10-10 25-14 77-19 133-102 133-197 0-48 3-58 20-63 33-10 53 2 83 50 29 49 67 152 67 182 0 13-19 27-64 46-69 30-139 84-165 128l-17 27-39-76zm-3059-122c-44-13-94-52-112-86l-17-31-22 25-22 25-36-22c-21-12-37-26-37-29 0-4 12-20 26-36 22-25 28-27 50-17 39 18 113 13 161-10 24-12 68-43 98-71 53-48 54-49 83-34 16 8 52 33 80 56 71 55 71 81 0 146-90 80-172 108-252 84zm2475-86c-28-25-51-54-51-64 0-16 7-17 63-13 92 7 172-36 199-107l9-25 20 25 58 81 40 55-30-4c-39-6-121 22-190 64-31 19-59 34-62 34s-28-21-56-46zm-2867-66c13-22 20-22 35-4 9 11 6 14-18 18-26 4-28 2-17-14zm112-77c-22-23-26-33-18-48 10-17 11-16 21 7 6 14 18 35 27 48 24 32 3 27-30-7zm3086-48l-50-68 44-21c75-36 108-91 109-184l1-65 32-3c28-3 35 2 65 50 65 103 84 178 45 178-31 0-124 76-160 131-17 27-32 49-34 49-1 0-25-30-52-67zm-2672-62c-5-11-37-41-70-66s-60-52-60-59c0-8 18-16 45-19 97-14 182-86 209-178 9-29 16-60 16-70 0-22 20-29 90-29 39 0 62 5 70 15 17 21 7 205-15 267-19 53-83 119-141 143-54 22-131 20-144-4zm2198-94c-34-53-32-58 26-51 41 5 63 2 99-14l46-20 14 21c14 21 13 22-24 23-22 1-62 15-93 33l-54 30-14-22zm-2444-59c13-22 30-23 50-2 22 21 21 22-22 21-34-2-38-4-28-19zm-78-83c-4-20-6-39-4-40 2-2 14 5 28 15l25 19-21 21-21 22-7-37zm2760 16c-15-16-19-38-20-96-1-41 0-75 2-75 9 0 82 41 87 50 3 5-2 21-11 34-9 14-21 44-28 66-12 41-12 41-30 21z"/></g></svg>