<svg height="512" viewBox="0 0 32 32" width="512" xmlns="http://www.w3.org/2000/svg"><path d="M26 32H6a6 6 0 0 1-6-6V6a6 6 0 0 1 6-6h20a6 6 0 0 1 6 6v20a6 6 0 0 1-6 6z" fill="#e3f8fa"/><g fill="#8ce1eb"><path d="M12.167 15.333H10.5a.5.5 0 0 0-.5.5V17.5a.5.5 0 0 0 .5.5h1.667a.5.5 0 0 0 .5-.5v-1.667a.5.5 0 0 0-.5-.5zM12.167 19.333H10.5a.5.5 0 0 0-.5.5V21.5a.5.5 0 0 0 .5.5h1.667a.5.5 0 0 0 .5-.5v-1.667a.5.5 0 0 0-.5-.5zM16.833 15.333h-1.667a.5.5 0 0 0-.5.5V17.5a.5.5 0 0 0 .5.5h1.667a.5.5 0 0 0 .5-.5v-1.667a.5.5 0 0 0-.5-.5z"/></g><path d="M16.833 19.333h-1.667a.5.5 0 0 0-.5.5V21.5a.5.5 0 0 0 .5.5h1.667a.5.5 0 0 0 .5-.5v-1.667a.5.5 0 0 0-.5-.5z" fill="#26c6da"/><path d="M21.5 15.333h-1.667a.5.5 0 0 0-.5.5V17.5a.5.5 0 0 0 .5.5H21.5a.5.5 0 0 0 .5-.5v-1.667a.5.5 0 0 0-.5-.5z" fill="#8ce1eb"/><path d="M22 10H10c-1.103 0-2 .897-2 2v10c0 1.103.897 2 2 2h12c1.103 0 2-.897 2-2V12c0-1.103-.897-2-2-2zm.667 12a.667.667 0 0 1-.667.667H10A.667.667 0 0 1 9.333 22v-7.307h13.333V22z" fill="#26c6da"/><g fill="#8ce1eb"><path d="M12 8h-.667a.667.667 0 0 0-.667.667v2.667c0 .368.298.667.667.667H12a.667.667 0 0 0 .667-.667V8.667A.667.667 0 0 0 12 8zM20.667 8H20a.667.667 0 0 0-.667.667v2.667c0 .368.299.666.667.666h.667a.667.667 0 0 0 .667-.667V8.667A.667.667 0 0 0 20.667 8z"/></g></svg>