<svg version="1" xmlns="http://www.w3.org/2000/svg" width="512" height="512" viewBox="0 0 5120 5120"><path d="M2323 4942c-13-9-27-33-33-52s-10-153-10-301c0-438-15-489-295-1024-107-203-207-405-224-447-116-293-125-623-25-924 59-179 184-398 315-553 43-51 63-83 64-105 1-17 50-130 107-251l105-220-26-7c-13-4-70-13-125-19-546-63-1095 270-1254 761-34 105-42 147-52 297-11 165-28 246-69 337-42 93-81 146-199 268l-105 108h86c47 0 98 5 112 12 54 24 55 34 55 458 0 426 1 433 58 493 48 51 87 64 207 70 66 3 129 12 158 22 65 23 150 103 184 173 26 53 28 66 31 209l4 152 170 3 170 3 24 28c17 20 24 40 24 72 0 36-5 47-31 69l-31 26h-224c-250 0-273-5-293-61-6-19-11-106-11-211 0-198-5-219-62-259-28-20-49-24-154-30-108-6-130-10-187-37-119-55-200-156-226-280-7-33-11-180-11-382v-330h-67c-72 0-134-22-165-56-26-29-48-89-48-129 0-65 28-107 164-245 193-196 221-254 236-498 14-209 53-360 137-523 189-371 550-627 993-705 126-22 372-22 497 0 51 9 99 19 106 21 8 4 65-107 171-332 87-186 170-349 183-363l23-25h772l24 28c49 57 43 70-180 463l-204 359 259 5c252 5 259 6 281 28 39 39 31 92-29 191l-52 84 77 39c178 91 367 248 469 388 156 216 222 406 247 705 21 257 43 302 237 501 76 77 143 153 149 168 19 50 12 126-15 172-34 59-89 84-183 84h-71l-3 368-3 367-31 65c-39 84-111 155-194 194-57 26-78 31-187 36-132 6-152 14-197 74-19 25-21 45-26 233l-5 205-28 24c-33 28-91 32-123 9-41-28-46-62-42-272 5-233 17-280 96-361 78-80 171-112 325-112 97 0 158-35 198-112 18-35 19-64 19-428 0-439 1-449 64-475 21-9 68-15 117-15h82l-124-127c-101-103-133-143-166-208-58-113-73-171-84-334-23-339-105-535-309-742-107-109-209-184-328-240l-64-31-22 25c-67 80-176 46-176-55 0-31 14-62 65-146l66-107-255-3-255-2-25-31c-16-19-26-43-26-62 0-23 58-133 205-392l204-360-216-3c-119-1-220 1-224 5-4 5-122 249-261 543l-254 535 227 5c209 5 229 7 249 25 12 11 26 30 31 43 5 14-1 157-16 370-14 191-25 356-25 366 0 11 36-38 81-110 44-71 89-137 101-147 33-28 94-23 129 12 36 37 38 80 6 136-88 152-363 584-383 603-38 33-97 30-135-7-16-16-29-38-29-48s16-240 35-512 35-503 35-513c0-17-13-18-172-18l-173 1-32 27c-94 81-229 265-305 415-93 185-145 414-133 583 8 123 36 250 77 359 18 50 118 250 220 445 197 375 234 457 273 610 38 152 45 234 45 540v288l-31 26c-36 31-92 34-126 8z"/><path d="M1988 4571c-27-24-33-36-33-71s6-47 34-72c29-26 39-30 75-25 56 8 86 43 86 102 0 36-5 47-31 69-42 36-89 35-131-3zM3243 1853c-32-6-73-59-73-94 0-63 35-98 97-99 56 0 92 31 100 86 5 36 1 45-23 72-30 31-62 42-101 35z"/></svg>