<svg version="1" xmlns="http://www.w3.org/2000/svg" width="512" height="512" viewBox="0 0 5120 5120"><path d="M313 5099c-49-24-109-87-129-135-11-26-14-104-14-371 0-375 3-396 65-519 68-134 189-239 335-291 64-22 97-27 218-31l142-5v-195l-42-25c-89-52-153-133-188-238-20-59-21-80-18-324l3-261 38-76c92-187 255-261 540-244 234 14 373 117 432 319 14 48 16 97 13 310l-3 252-32 67c-36 77-107 158-170 195l-43 25v198h113c187 0 310 39 432 137 70 57 152 174 186 264 22 62 23 76 27 409 2 247 0 357-9 388-15 54-77 124-132 151-43 21-52 21-883 21-830 0-839 0-881-21zm1704-181l23-21v-303c0-341-6-379-75-479-54-79-156-151-241-169l-32-7-78 398c-66 338-81 401-101 421-22 22-24 22-318 22s-296 0-319-23c-19-19-34-81-102-420l-79-398-30 7c-57 12-148 66-196 115-26 27-63 79-81 116l-33 68-3 324c-3 323-3 324 19 347l22 24h1601l23-22zm-578-630c34-172 65-323 68-335l5-23H878l5 23c3 12 34 163 68 335l62 312h364l62-312zm-159-618v-80h-170v160h170v-80zm106-287c54-29 117-101 132-151 7-22 12-85 12-141v-101h-200l-38-35-39-35-103 35c-89 30-117 35-197 35h-93v104c0 56 5 118 12 137 16 47 57 103 95 129 63 43 100 50 243 47 116-2 141-6 176-24zm-257-613c61-22 130-40 152-40 32 0 47 7 83 40 41 38 47 40 106 40h62l-7-37c-15-81-76-157-154-191-51-23-301-23-352 0-78 34-159 138-159 206 0 21 4 22 78 22 66 0 96-6 191-40zM3042 5099c-53-27-115-96-130-147-19-63-16-671 3-747 36-142 125-269 245-350 112-76 185-97 358-103l142-5v-195l-43-25c-63-37-134-118-170-195l-32-67-3-252c-3-213-1-262 13-310 42-146 129-240 267-291 123-46 393-39 503 13 85 41 159 114 202 203l38 76 3 261c3 244 2 265-18 324-35 105-99 186-187 238l-43 25v195l143 5c120 4 153 9 217 31 146 52 267 157 335 291 62 123 65 144 65 519 0 267-3 345-14 371-20 49-81 112-130 135-42 21-55 21-882 21-833 0-839 0-882-21zm1707-183c22-23 22-24 19-347l-3-324-33-68c-18-37-55-89-81-116-48-49-139-103-196-115l-30-7-79 398c-68 339-83 401-102 420-23 23-25 23-319 23s-296 0-318-22c-20-20-35-83-101-421l-78-398-32 7c-85 18-187 90-241 169-69 99-75 138-75 478 0 295 0 301 22 324l21 23h1604l22-24zm-580-628c34-172 65-323 68-335l5-23h-634l5 23c3 12 34 163 68 335l62 312h364l62-312zm-159-618v-80h-170v160h170v-80zm106-287c22-12 54-36 72-54 55-57 67-92 70-221l4-118h-202l-38-35-39-35-103 35c-89 30-117 35-197 35h-93v108c0 121 16 171 73 230 66 70 109 82 277 79 116-2 141-6 176-24zm-251-613c65-22 134-40 152-40 25 0 44 10 77 40 41 38 47 40 105 40 57 0 61-2 61-22 0-68-81-172-159-206-51-23-301-23-352 0-78 34-159 138-159 206 0 21 4 22 78 22 64 0 99-7 197-40zM2476 3150c-44-14-102-58-130-101-14-21-26-43-26-49s-79-10-225-10h-225v-180h224c221 0 225 0 231-21 10-32 81-105 115-119l30-12v-448h180v448l30 12c34 14 105 87 115 119 6 21 10 21 231 21h224v180h-445l-14 31c-21 48-86 105-138 123-50 17-130 20-177 6zm139-195c14-13 25-36 25-50 0-32-50-85-80-85s-80 53-80 85c0 36 41 75 80 75 19 0 40-9 55-25zM2350 2030c-393-84-689-370-791-766-19-75-23-113-23-244 1-135 4-168 27-255 101-378 405-668 782-746 121-25 309-25 430 0 377 78 681 368 782 746 23 87 26 120 27 255 0 131-4 169-23 244-105 405-410 694-814 771-107 20-290 18-397-5zm425-185c93-25 235-98 313-161 135-107 248-279 293-449 31-114 31-308 0-419-77-286-282-503-561-597-82-28-112-33-225-36-149-6-227 7-350 56-277 111-472 359-522 663-70 428 227 855 662 952 89 20 303 15 390-9z"/><path d="M2718 1515c-28-9-68-35-102-66l-56-51-46 42c-61 56-116 80-188 80-79 0-128-16-177-59-118-100-118-282 0-395l40-40-45-48c-58-62-84-119-84-187 0-78 18-127 67-181 53-59 107-82 193-82 81 0 127 19 191 79l49 46 49-46c64-60 110-79 191-79 86 0 140 23 193 82 49 54 67 103 67 181 0 68-26 125-84 187l-45 48 40 40c113 107 121 281 18 383-67 68-180 95-271 66zm-283-255c77-74 87-80 125-80s48 6 125 80c72 69 88 80 119 80 25 0 40-7 55-26 37-47 28-69-61-161-78-80-83-87-83-128s5-48 83-128c96-99 104-127 50-172-44-37-68-28-164 66-76 74-84 79-124 79s-48-5-124-79c-96-94-120-103-164-66-54 45-46 73 47 169 80 82 99 116 86 157-4 13-43 60-86 105-86 90-94 112-58 158 15 19 30 26 55 26 31 0 47-11 119-80z"/></svg>