<!DOCTYPE svg PUBLIC "-//W3C//DTD SVG 20010904//EN" "http://www.w3.org/TR/2001/REC-SVG-20010904/DTD/svg10.dtd">
<svg version="1.0" xmlns="http://www.w3.org/2000/svg" width="205px" height="327px" viewBox="0 0 2050 3270" preserveAspectRatio="xMidYMid meet">
<g id="layer101" fill="#e4a2ac" stroke="none">
 <path d="M1960 3260 c-8 -5 -233 -16 -499 -24 -328 -11 -488 -19 -497 -27 -17 -14 -18 -53 -1 -67 6 -6 167 -34 356 -64 l344 -54 -119 -38 c-453 -144 -791 -335 -1057 -595 -424 -415 -582 -949 -432 -1466 119 -411 441 -768 817 -910 39 -14 51 -15 63 -5 33 27 17 49 -61 86 -118 56 -276 167 -372 262 -193 190 -315 402 -379 659 -24 96 -27 127 -28 283 0 187 6 229 57 390 67 211 192 418 354 589 171 180 354 311 611 437 137 68 412 178 422 169 2 -2 -21 -32 -51 -67 -116 -133 -258 -343 -258 -382 0 -13 7 -29 15 -36 29 -24 60 -3 117 82 81 123 209 280 312 383 l91 92 82 17 c61 13 86 22 93 37 14 26 5 54 -21 65 -19 9 -14 15 55 73 42 34 76 67 76 72 0 6 -5 19 -10 30 -11 20 -53 25 -80 9z m-163 -129 l-33 -30 -144 24 -145 23 135 4 c74 2 154 5 178 6 l43 2 -34 -29z"/>
 </g>

</svg>