<?xml version="1.0" standalone="no"?>
<!DOCTYPE svg PUBLIC "-//W3C//DTD SVG 1.1//EN" "http://www.w3.org/Graphics/SVG/1.1/DTD/svg11.dtd" >
<svg xmlns="http://www.w3.org/2000/svg" xmlns:xlink="http://www.w3.org/1999/xlink" version="1.1">
<metadata>
Created by FontForge 20170731 at Tue Mar  9 18:05:40 2021
 By Aleksey,,,
Copyright (c) 2014 by Commercial Type, Inc.. All rights reserved. |DCNT
</metadata>
<defs>
<font id="DrukWideCyr-Super" horiz-adv-x="1445" >
  <font-face 
    font-family="Druk Wide Cyr"
    font-weight="1000"
    font-stretch="normal"
    units-per-em="2048"
    panose-1="0 0 0 0 0 0 0 0 0 0"
    ascent="1638"
    descent="-410"
    x-height="1102"
    cap-height="1524"
    bbox="-248 -678 5997 2478"
    underline-thickness="172"
    underline-position="-212"
    unicode-range="U+000D-FB04"
  />
<missing-glyph horiz-adv-x="606" 
 />
    <glyph glyph-name="f_f" unicode="ff" horiz-adv-x="2283" 
d="M999 0h-747v696h-229v406h229v65q0 184 105 270.5t337 86.5h523v-340h-162q-34 0 -45 -13.5t-11 -46.5v-22h287v65q0 184 105.5 270.5t337.5 86.5h522v-340h-162q-33 0 -44 -13.5t-11 -46.5v-22h217v-406h-217v-696h-748v696h-287v-696z" />
    <glyph glyph-name="f_i" unicode="fi" horiz-adv-x="2084" 
d="M1208 1524v-340h-153q-34 0 -45 -13.5t-11 -46.5v-22h209v-406h-209v-696h-747v696h-229v406h229v65q0 184 105 270.5t337 86.5h514zM2030 1524v-359h-746v359h746zM2030 1102v-1102h-746v1102h746z" />
    <glyph glyph-name="f_l" unicode="fl" horiz-adv-x="2084" 
d="M1208 1524v-340h-153q-34 0 -45 -13.5t-11 -46.5v-22h209v-406h-209v-696h-747v696h-229v406h229v65q0 184 105 270.5t337 86.5h514zM2030 1524v-1524h-746v1524h746z" />
    <glyph glyph-name="emdash.alt" unicode="&#x2014;&#x2014;" horiz-adv-x="6045" 
d="M5997 774v-334h-5948v334h5948z" />
    <glyph glyph-name=".notdef" horiz-adv-x="606" 
 />
    <glyph glyph-name=".null" horiz-adv-x="0" 
 />
    <glyph glyph-name="nonmarkingreturn" horiz-adv-x="682" 
 />
    <glyph glyph-name="NULL" horiz-adv-x="0" 
 />
    <glyph glyph-name="NULL" horiz-adv-x="0" 
 />
    <glyph glyph-name="CR" unicode="&#xd;" horiz-adv-x="606" 
 />
    <glyph glyph-name="space" unicode=" " horiz-adv-x="606" 
 />
    <glyph glyph-name="exclam" unicode="!" horiz-adv-x="1017" 
d="M2 1524h1014l-275 -979h-465zM877 475v-475h-736v475h736z" />
    <glyph glyph-name="quotedbl" unicode="&#x22;" horiz-adv-x="1331" 
d="M1278 1524v-596h-578v596h578zM631 1524v-594h-578v594h578z" />
    <glyph glyph-name="numbersign" unicode="#" horiz-adv-x="1933" 
d="M1067 674l72 250h-277l-71 -250h276zM874 0l107 371h-276l-107 -371h-428l104 371h-268l86 303h268l72 250h-268l86 303h268l84 297h432l-86 -297h277l86 297h432l-86 -297h270l-88 -303h-270l-72 -250h270l-88 -303h-270l-106 -371h-429z" />
    <glyph glyph-name="dollar" unicode="$" horiz-adv-x="2295" 
d="M834 1102v-4q0 -38 39 -59.5t149 -32.5v184q-115 -7 -151.5 -27t-36.5 -61zM1421 467v8q0 21 -5 34.5t-22.5 28t-55.5 24.5t-99 16v-220q106 7 144 36.5t38 72.5zM1239 -154h-217v127q-192 0 -348.5 19.5t-260 51t-180.5 77.5t-119 91t-67 101t-32 98.5t-7 90.5v20h826
q2 -25 5.5 -40.5t14.5 -37.5t30 -36.5t54 -27.5t84 -20v230l-262 10q-145 6 -260.5 26.5t-193.5 54t-132.5 75t-84.5 94t-43 105t-13 114.5v18q0 111 48.5 191.5t160 141.5t306 91.5t474.5 30.5v117h217v-117q195 -1 349.5 -18.5t260.5 -49.5t180.5 -73.5t116.5 -95.5
t60 -110.5t18 -123.5v-14h-805q-3 22 -9.5 38t-24.5 35.5t-54.5 33.5t-91.5 22v-193l262 -8q284 -8 457 -61t248 -148.5t75 -245.5v-28q0 -62 -11 -115t-41.5 -107.5t-80 -98t-130 -83t-187.5 -66t-257 -42.5t-335 -17v-127z" />
    <glyph glyph-name="percent" unicode="%" horiz-adv-x="3129" 
d="M733 659h-41q-119 0 -217 15t-165.5 40t-119.5 61t-82 73.5t-49 82t-25.5 82.5t-6.5 79v26q0 41 6.5 78.5t25.5 80.5t50 79.5t83 71t120 58t166.5 38t217.5 14.5h33q165 0 289.5 -27.5t195.5 -69.5t114.5 -101t57 -111t13.5 -111v-26q0 -59 -13.5 -112.5t-56.5 -114.5
t-113 -104.5t-194.5 -72.5t-288.5 -29zM2171 1524h508l-1727 -1524h-506zM713 963q85 0 125.5 39t40.5 98v6q0 59 -40.5 97t-125.5 38t-125.5 -38t-40.5 -97v-6q0 -59 40.5 -98t125.5 -39zM2437 -16h-41q-119 0 -217 15t-165.5 40t-119.5 60.5t-82 73t-49 82t-25.5 82.5
t-6.5 79v26q0 41 6.5 78.5t25.5 80.5t50 79.5t83 71t120 58t166.5 38t217.5 14.5h33q165 0 289.5 -27.5t195.5 -69.5t114.5 -101t57 -111t13.5 -111v-26q0 -41 -6.5 -79t-25.5 -82.5t-49.5 -82t-82 -73t-119.5 -60.5t-166 -40t-217 -15zM2417 287q85 0 125.5 39t40.5 98v6
q0 59 -40.5 97t-125.5 38t-125.5 -38t-40.5 -97v-6q0 -59 40.5 -98t125.5 -39z" />
    <glyph glyph-name="ampersand" unicode="&#x26;" horiz-adv-x="2533" 
d="M1006 1184q0 -43 35.5 -81.5t136.5 -109.5q99 35 146.5 73t47.5 95q0 50 -46 79.5t-144 29.5q-176 0 -176 -86zM1143 311q81 0 145 6l-489 328q-29 -48 -29 -102v-6q0 -45 19 -83.5t60 -71.5t116 -52t178 -19zM2544 420l-177 -443q-224 -5 -382 18t-289 79
q-281 -105 -703 -105q-209 0 -376 22t-279.5 60.5t-187 92.5t-107.5 115t-33 132v17q0 314 549 401q-118 94 -165.5 178.5t-47.5 181.5v17q0 60 23 111.5t79.5 100t144 82t225.5 54t315 20.5h122q166 0 293.5 -19.5t205.5 -51t127.5 -75.5t68 -87.5t18.5 -93.5v-10
q0 -89 -53.5 -156t-182 -121.5t-337.5 -91.5l370 -244q80 139 80 320h602q0 -274 -225 -496q92 -8 322 -8z" />
    <glyph glyph-name="quotesingle" unicode="'" horiz-adv-x="686" 
d="M633 1524v-596h-580v596h580z" />
    <glyph glyph-name="parenleft" unicode="(" horiz-adv-x="837" 
d="M25 707q0 286 134 525t376 423h329q-291 -431 -291 -948q0 -278 77 -512t214 -463h-329q-510 411 -510 975z" />
    <glyph glyph-name="parenright" unicode=")" horiz-adv-x="837" 
d="M303 -268h-330q137 229 214 463t77 512q0 517 -291 948h330q242 -184 376 -423t134 -525q0 -564 -510 -975z" />
    <glyph glyph-name="asterisk" unicode="*" horiz-adv-x="1036" 
d="M655 1288l203 182l168 -323l-299 -57l299 -62l-168 -326l-209 164l72 -235h-404l76 235l-213 -164l-170 326l301 62l-301 57l170 323l205 -182l-68 236h404z" />
    <glyph glyph-name="plus" unicode="+" horiz-adv-x="1294" 
d="M1266 455h-402v-361h-436v361h-399v356h399v358h436v-358h402v-356z" />
    <glyph glyph-name="comma" unicode="," horiz-adv-x="833" 
d="M625 -276h-381q36 59 68 139t36 137h-299v475h735v-381q0 -90 -50.5 -195t-108.5 -175z" />
    <glyph glyph-name="hyphen" unicode="-" horiz-adv-x="808" 
d="M49 827h711v-438h-711v438z" />
    <glyph glyph-name="period" unicode="." horiz-adv-x="833" 
d="M784 475v-475h-735v475h735z" />
    <glyph glyph-name="slash" unicode="/" horiz-adv-x="1087" 
d="M1120 1655l-663 -1923h-537l660 1923h540z" />
    <glyph glyph-name="zero" unicode="0" horiz-adv-x="2457" 
d="M2427 793v-62q0 -71 -10.5 -136.5t-42 -144t-82.5 -144.5t-140 -130t-206 -108.5t-288 -71.5t-380 -27h-96q-209 0 -380.5 27t-289 71.5t-206.5 108.5t-140 130t-82.5 144.5t-42 144t-10.5 136.5v62q0 71 10.5 136.5t42 144.5t82.5 144.5t140 129.5t206.5 108t289 71
t380.5 27h96q209 0 380 -27t288 -71t206 -108t140 -129.5t82.5 -144.5t42 -144.5t10.5 -136.5zM1626 758v24q0 42 -11.5 80.5t-40.5 77.5t-72.5 67.5t-113.5 46t-159 17.5q-90 0 -160.5 -17.5t-114.5 -46t-72.5 -67.5t-39.5 -77.5t-11 -80.5v-24q0 -42 11.5 -81.5t40.5 -80
t73 -70.5t114.5 -48.5t158.5 -18.5q89 0 159.5 18.5t114 48.5t72.5 70.5t40 80t11 81.5z" />
    <glyph glyph-name="one" unicode="1" horiz-adv-x="1269" 
d="M426 817h-395v377q412 11 536 330h637v-1524h-778v817z" />
    <glyph glyph-name="two" unicode="2" horiz-adv-x="2226" 
d="M2183 0h-2150v188v2q0 53 2.5 86t20.5 101.5t51.5 119t104 120t168.5 123t254 110t353 98.5q107 24 178 37q119 24 153 40.5t34 45.5v2q0 23 -16.5 38.5t-71.5 26.5t-150 11q-59 0 -105.5 -8t-75 -19t-49 -29t-30 -31.5t-14.5 -34t-5.5 -28.5t-0.5 -22h-781v10
q0 55 7 102t31.5 107.5t65.5 108t116 96t176.5 80.5t253 52.5t339.5 20.5h99q183 0 330.5 -13t253 -35.5t184.5 -57.5t127.5 -74t77.5 -89.5t40 -100.5t11 -111v-16q0 -73 -20.5 -129t-70 -101t-116 -78t-173.5 -62t-226.5 -50.5t-290.5 -46.5q-34 -4 -83.5 -13t-70.5 -12
q-169 -28 -258 -49.5t-124.5 -42t-35.5 -47.5h811v149h676v-575z" />
    <glyph glyph-name="three" unicode="3" horiz-adv-x="2326" 
d="M1186 -31h-105q-197 0 -358.5 21.5t-271 57t-192 85.5t-129.5 101.5t-75.5 112t-37.5 108.5t-9 100v18h791q0 -14 3.5 -29t22 -41t51 -45t98 -33.5t154.5 -14.5q101 0 169.5 8t102.5 23t47 31.5t13 39.5v4q0 41 -34 60.5t-107 19.5h-457v385h459q125 0 125 66v2
q0 17 -4 28t-21.5 23.5t-50.5 19.5t-93.5 12t-146.5 5q-63 0 -115 -6t-84.5 -15.5t-57 -23t-37 -25.5t-19.5 -26t-8.5 -21.5t-1.5 -15.5h-782v22q0 34 4.5 66t19 73.5t37.5 78.5t64.5 77t96 73t135 63.5t178.5 51t230.5 33t286.5 12.5h97q206 0 371 -13t275.5 -33.5
t191 -52.5t124.5 -64t69.5 -75t32.5 -77t7 -78v-8q0 -102 -90 -168t-230 -88q78 -11 144 -36.5t122.5 -68.5t88.5 -112t32 -156v-12q0 -543 -1126 -543z" />
    <glyph glyph-name="four" unicode="4" horiz-adv-x="2310" 
d="M25 653l1052 881h875v-821h336v-469h-336v-244h-785v244h-1142v409zM1167 713v405l-485 -405h485z" />
    <glyph glyph-name="five" unicode="5" horiz-adv-x="2189" 
d="M1165 -31h-102q-163 0 -300 13.5t-235 34t-176.5 53.5t-128 64.5t-86 74.5t-54 75.5t-27.5 76.5t-11.5 68t-1.5 58v13h797q40 -107 274 -107q131 0 190.5 40.5t59.5 107.5v4q0 63 -60 103t-190 40q-68 0 -120 -11t-79 -25t-45.5 -33t-22.5 -28t-7 -18h-774v951h1994v-400
h-1212v-200q24 16 54.5 31.5t94.5 39t163.5 38t217.5 14.5h17q184 0 322.5 -26.5t223 -70t136.5 -109t71 -134t19 -154.5v-12q0 -61 -10 -114.5t-39 -113t-75.5 -108t-124 -93.5t-180 -75.5t-249 -49t-324.5 -18.5z" />
    <glyph glyph-name="six" unicode="6" horiz-adv-x="2326" 
d="M1204 -31h-96q-159 0 -295.5 18t-237 48.5t-183 75t-138 92.5t-97.5 107t-65.5 112t-37.5 113.5t-18.5 106.5t-4.5 95v49q0 48 4 92.5t17.5 105t36.5 113t65 112t97.5 108t139.5 94t186.5 76t242.5 49t304 18.5h97q179 0 327.5 -17.5t251.5 -47t182 -71t126 -85t77 -94
t40.5 -94t10.5 -88.5v-10h-778q-70 100 -256 100q-102 0 -176.5 -26t-114 -69t-57.5 -89.5t-18 -96.5v-14q198 137 628 137h25q187 0 328 -21t234 -58t151 -93.5t82 -122t24 -149.5v-19q0 -60 -9 -110.5t-37.5 -109.5t-76.5 -105.5t-132 -91.5t-197.5 -74.5t-279.5 -47.5
t-372 -18zM872 508v-2q0 -39 23.5 -64.5t96.5 -42t200 -16.5q94 0 157.5 8.5t96.5 26t46 38.5t13 50v2q0 27 -13 47t-46 37.5t-97 27t-157 9.5q-95 0 -160.5 -9.5t-99 -27t-47 -37.5t-13.5 -47z" />
    <glyph glyph-name="seven" unicode="7" horiz-adv-x="2148" 
d="M1524 0h-850v160q0 71 13 129.5t48.5 126.5t103.5 142t173 161q65 54 184 143t181.5 140.5t62.5 68.5h-674v-260h-719v713h2067v-379q-3 -4 -57 -66t-86.5 -101t-90 -112.5t-106.5 -142.5q-139 -199 -194.5 -364.5t-55.5 -358.5z" />
    <glyph glyph-name="eight" unicode="8" horiz-adv-x="2287" 
d="M2238 1149v-12q0 -128 -103 -214.5t-290 -115.5q198 -30 313 -122.5t115 -231.5v-15q0 -52 -7.5 -93.5t-34.5 -92t-72.5 -89t-128 -76.5t-194.5 -62.5t-277.5 -40t-372.5 -15.5h-84q-208 0 -374 15.5t-278 40t-194.5 62.5t-128 76.5t-72 89t-34 92t-7.5 93.5v15
q0 141 116 232.5t312 121.5q-186 29 -290.5 115.5t-104.5 214.5v12q0 45 8 81.5t34.5 80t72 76.5t125.5 65.5t188.5 54t268 34.5t358.5 13h88q199 0 358.5 -13t267.5 -34t187.5 -54t123.5 -66t70 -76.5t33.5 -80t7.5 -81.5zM1425 1071v6q0 28 -19.5 45.5t-83.5 29t-179 11.5
q-90 0 -148 -6t-86 -18.5t-37.5 -26.5t-9.5 -35v-6q0 -30 19 -48t83 -30t179 -12q114 0 177.5 11.5t84 30t20.5 48.5zM1466 494v6q0 23 -15 40t-50 31t-100 21.5t-158 7.5q-94 0 -158.5 -7.5t-99 -21.5t-48.5 -31t-14 -40v-6q0 -105 320 -105q323 0 323 105z" />
    <glyph glyph-name="nine" unicode="9" horiz-adv-x="2328" 
d="M1456 1016v2q0 39 -23.5 64.5t-96 42t-199.5 16.5q-177 0 -245.5 -31.5t-68.5 -91.5v-2q0 -36 24.5 -61t97 -42.5t192.5 -17.5q95 0 160.5 9.5t98.5 27t46.5 37.5t13.5 47zM1208 -31h-96q-181 0 -331 18t-253 47.5t-183 71.5t-126.5 86t-76 94.5t-40 93.5t-10.5 87v10
h770q8 -13 21.5 -26.5t42.5 -32t82 -30t122 -11.5q101 0 176 27t113.5 71t56 90.5t17.5 96.5v10q-188 -140 -606 -140h-25q-226 0 -391 35.5t-263 101.5t-144 153t-46 198v18q0 60 11 111t41.5 105t80.5 96.5t132.5 82t191.5 65t263.5 41t344.5 15.5h99q165 0 306 -17.5
t245.5 -46.5t190 -72.5t143 -89.5t101 -103t67.5 -108.5t39 -110t19.5 -103t4.5 -92.5v-49q0 -49 -3.5 -94t-17 -107.5t-35.5 -116.5t-63.5 -116t-97 -112t-139 -97t-186 -79t-243 -51.5t-305.5 -19.5z" />
    <glyph glyph-name="colon" unicode=":" horiz-adv-x="837" 
d="M786 1055v-475h-735v475h735zM786 475v-475h-735v475h735z" />
    <glyph glyph-name="semicolon" unicode=";" horiz-adv-x="837" 
d="M786 1055v-475h-735v475h735zM627 -276h-381q36 59 68 139t36 137h-299v475h735v-381q0 -90 -50.5 -195t-108.5 -175z" />
    <glyph glyph-name="less" unicode="&#x3c;" horiz-adv-x="1132" 
d="M1102 109l-1073 315v395l1073 314v-371l-658 -144l658 -139v-370z" />
    <glyph glyph-name="equal" unicode="=" horiz-adv-x="1218" 
d="M33 1001h1153v-333h-1153v333zM33 598h1153v-334h-1153v334z" />
    <glyph glyph-name="greater" unicode="&#x3e;" horiz-adv-x="1091" 
d="M31 109v370l633 139l-633 144v371l1032 -314v-395z" />
    <glyph glyph-name="question" unicode="?" horiz-adv-x="2076" 
d="M1313 543h-731v102q0 33 1 53t4.5 48t12 46t22 40.5t35.5 38t52.5 32.5t73 30.5t96.5 24.5l272 54q87 17 121.5 34.5t34.5 43.5v2q0 22 -14 34t-67.5 19.5t-156.5 7.5q-85 0 -144.5 -9t-90 -21t-48.5 -34.5t-22 -38t-6 -42.5h-748v24q0 38 2 65.5t12 72t27.5 77.5t53 75
t84 72t124.5 61t171 50.5t226.5 32t288.5 12.5h99q178 0 322 -14t243.5 -37.5t173.5 -59t117 -72.5t69 -85.5t34.5 -91t8.5 -94.5v-19q0 -51 -10 -96.5t-36 -93t-67.5 -85.5t-109 -70t-155.5 -50l-277 -55q-56 -12 -77 -29.5t-21 -52.5v-2zM1317 475v-475h-735v475h735z" />
    <glyph glyph-name="at" unicode="@" horiz-adv-x="2746" 
d="M1376 -305q-196 0 -363 18t-292.5 49t-227.5 77.5t-172.5 98t-123.5 117t-83.5 128t-49.5 137.5t-25 138.5t-6 137.5v25q0 72 5.5 132t22.5 134.5t46.5 135t81 126.5t121.5 117t173 98.5t230 78.5t297.5 49.5t371.5 18.5h33q202 0 372 -17.5t294.5 -45.5t223.5 -72.5
t164.5 -89t112.5 -106t72 -112.5t39 -118t17.5 -114t3.5 -109v-22q0 -65 -8.5 -124.5t-30.5 -124t-56 -118.5t-90 -103t-128 -83t-173 -54t-223 -20h-37q-101 0 -181 12t-126 28t-81 40t-49 40.5t-26 37.5q-29 -22 -45 -34t-65 -39t-96 -42.5t-123 -29t-160 -13.5h-27
q-98 0 -177.5 18t-133 47.5t-92.5 71.5t-59.5 87t-30.5 96.5t-10 97.5t8 92l20 139q6 36 13.5 65.5t24.5 70.5t40 73.5t61 66t86 56t118 37t153 14.5h28q319 0 490 -158l16 150h721l-94 -742q-5 -32 5 -48.5t44 -16.5q99 0 164 110.5t65 315.5v4q0 58 -1.5 90.5t-11 89.5
t-27 91t-53.5 82.5t-86.5 78t-129.5 63t-179.5 52t-239.5 31t-306 12.5h-33q-202 0 -364 -22t-272.5 -58t-192 -91.5t-128 -112.5t-74 -132t-36 -138.5t-8.5 -142.5v-22q0 -56 4.5 -103.5t18.5 -106t37.5 -107t64.5 -101t96.5 -93.5t137 -79t182 -62.5t235 -39.5t293.5 -15
q152 0 286.5 8t229.5 18.5t184.5 30t141 33.5t110 38t80 35t62.5 32l94 -193q-51 -28 -81 -43t-133 -48.5t-216.5 -52.5t-314.5 -35.5t-443 -16.5zM1475 565l8 72q11 84 -14 126t-97 42q-61 0 -87.5 -42.5t-35.5 -113.5l-14 -78q-6 -48 -3.5 -88.5t28 -67t71.5 -26.5
q34 0 59 12t39.5 28t24.5 43t13.5 45.5t7.5 47.5z" />
    <glyph glyph-name="A" unicode="A" horiz-adv-x="2514" 
d="M1399 633l-187 422l-182 -422h369zM1677 0l-80 182h-761l-80 -182h-787l719 1524h1094l764 -1524h-869z" />
    <glyph glyph-name="B" unicode="B" horiz-adv-x="2416" 
d="M63 0v1524h1678q134 0 237 -19.5t166.5 -51.5t103.5 -77.5t55 -92.5t15 -101v-13q0 -120 -87.5 -198t-215.5 -105q63 -11 117 -28.5t106 -50t88.5 -75.5t59 -107t22.5 -142v-17q0 -75 -21 -139t-70 -121.5t-124 -98t-190 -64t-262 -23.5h-1678zM1386 1128h-544v-147h544
q73 0 105.5 16.5t32.5 57.5v4q0 41 -31 55t-107 14zM1417 598h-575v-188h575q93 0 128.5 24.5t35.5 71.5v4q0 46 -34.5 67t-129.5 21z" />
    <glyph glyph-name="C" unicode="C" horiz-adv-x="2453" 
d="M1288 -31h-71q-1186 0 -1186 766v62q0 76 10 143t42 146t84 143.5t143 126.5t212.5 104t299 68t395.5 26h71q209 0 380.5 -24.5t287.5 -64t204 -96t137.5 -113t80 -123t40 -119t9.5 -107.5v-30h-789q-18 59 -54 95q-100 97 -343 97q-100 0 -175.5 -17.5t-119.5 -44.5
t-70.5 -66t-35.5 -76t-9 -81v-24q0 -43 9.5 -82t37 -80.5t71 -71t119 -48.5t173.5 -19q101 0 177.5 19t115.5 43t64.5 58.5t31 52t8.5 36.5h789v-54q0 -39 -5.5 -78t-22 -89t-43 -95.5t-72 -94t-105.5 -89.5t-147 -78.5t-192.5 -63.5t-246.5 -41.5t-305 -15.5z" />
    <glyph glyph-name="D" unicode="D" horiz-adv-x="2455" 
d="M63 0v1524h1221q254 0 452 -37.5t326.5 -102.5t212 -158t118 -196.5t34.5 -226.5v-64q0 -86 -14 -161t-49.5 -151t-91.5 -138t-145.5 -117t-206.5 -92t-278.5 -58.5t-357.5 -21.5h-1221zM842 1051v-580h311q91 0 164.5 11.5t121.5 30t83.5 45t54 51.5t29.5 56t13.5 52
t2.5 45v12q0 23 -3 44t-14.5 50t-30.5 53t-54.5 49t-83.5 42t-120.5 28t-162.5 11h-311z" />
    <glyph glyph-name="E" unicode="E" horiz-adv-x="1955" 
d="M63 1524h1838v-426h-1072v-119h1059v-418h-1059v-131h1080v-430h-1846v1524z" />
    <glyph glyph-name="F" unicode="F" horiz-adv-x="1912" 
d="M63 1524h1803v-426h-1037v-123h1020v-424h-1020v-551h-766v1524z" />
    <glyph glyph-name="G" unicode="G" horiz-adv-x="2521" 
d="M1139 -31h-54q-178 0 -326.5 24.5t-255.5 66.5t-190.5 101.5t-135.5 126t-85.5 144.5t-47 152t-13.5 153v62q0 755 1171 755h66q223 0 404.5 -22.5t302 -58t210.5 -88t139.5 -104.5t79 -115.5t37.5 -112t8 -103.5v-2h-794q-4 16 -12.5 31t-35.5 37t-67.5 38t-114.5 28
t-170 12q-218 0 -321 -84t-103 -230v-18q0 -74 23.5 -134t71.5 -107.5t130.5 -74t192.5 -26.5q86 0 156 10t111 25.5t69 34.5t38.5 35t10.5 30h-411v311h1237v-866h-523q-12 37 -38.5 85t-53.5 75q-21 -20 -46 -38t-86 -48t-133 -51.5t-189 -37.5t-252 -16z" />
    <glyph glyph-name="H" unicode="H" horiz-adv-x="2498" 
d="M63 0v1524h779v-506h815v506h778v-1524h-778v543h-815v-543h-779z" />
    <glyph glyph-name="I" unicode="I" horiz-adv-x="903" 
d="M840 1524v-1524h-777v1524h777z" />
    <glyph glyph-name="J" unicode="J" horiz-adv-x="2144" 
d="M1083 -23h-149q-184 0 -331.5 31t-242 77t-163 116t-103 132t-54 143t-23 129.5t-3.5 109.5v14h738q9 -69 32 -106q64 -99 242 -99h4q69 0 120.5 16.5t81 42.5t47.5 64t24 73.5t6 78.5v725h780v-736q0 -62 -3.5 -112.5t-15.5 -118t-32.5 -122t-58 -116.5t-89 -109.5
t-128.5 -92.5t-172 -74.5t-224.5 -47.5t-282.5 -18z" />
    <glyph glyph-name="K" unicode="K" horiz-adv-x="2449" 
d="M842 0h-779v1524h779v-541l692 541h946l-905 -684l909 -840h-1016l-626 608v-608z" />
    <glyph glyph-name="L" unicode="L" horiz-adv-x="1941" 
d="M63 1524h779v-981h1056v-543h-1835v1524z" />
    <glyph glyph-name="M" unicode="M" horiz-adv-x="2861" 
d="M63 0v1524h1027l358 -678l373 678h977v-1524h-775v754l-409 -754h-371l-407 754v-754h-773z" />
    <glyph glyph-name="N" unicode="N" horiz-adv-x="2500" 
d="M63 1524h879l717 -693v693h778v-1524h-792l-803 762v-762h-779v1524z" />
    <glyph glyph-name="O" unicode="O" horiz-adv-x="2535" 
d="M1217 1554h102q214 0 389.5 -25.5t296.5 -68t212.5 -104.5t145 -126.5t87 -143t44.5 -146.5t11 -143v-62q0 -74 -11.5 -141.5t-44.5 -146.5t-86.5 -145t-145.5 -129.5t-213 -107t-296.5 -70t-388.5 -26.5h-102q-213 0 -388.5 26.5t-296 70t-212.5 107t-145.5 129.5
t-87 145t-45 146.5t-11.5 141.5v62q0 75 11 143t44.5 146.5t87 143t145 126.5t212.5 104.5t296.5 68t389.5 25.5zM1702 756v28q0 42 -13 81t-45 76.5t-80 65.5t-124.5 45t-173.5 17q-121 0 -209.5 -25t-135.5 -68t-68.5 -90.5t-21.5 -101.5v-24q0 -43 13.5 -84t45.5 -81
t80.5 -69.5t124.5 -48t171 -18.5q119 0 207.5 26.5t136 70.5t70 94t22.5 106z" />
    <glyph glyph-name="P" unicode="P" horiz-adv-x="2340" 
d="M1577 416h-735v-416h-779v1524h1514q172 0 303.5 -27t214.5 -73t135.5 -113.5t73 -141.5t20.5 -165v-54q0 -534 -747 -534zM842 1077v-200h544q74 0 106 27.5t32 70.5v4q0 98 -138 98h-544z" />
    <glyph glyph-name="Q" unicode="Q" horiz-adv-x="2535" 
d="M977 -317v294q-169 14 -307.5 48t-235 80.5t-170 107.5t-117 123.5t-70.5 135t-36.5 134.5t-9.5 129v62q0 75 11 143t44.5 146.5t87 143t145 126.5t212.5 104.5t296.5 68t389.5 25.5h102q214 0 389.5 -25.5t296.5 -68t212.5 -104.5t145 -126.5t87 -143t44.5 -146.5
t11 -143v-62q0 -65 -8.5 -125t-33 -129t-64 -129t-106 -120t-154 -106t-213 -82.5t-277.5 -55.5l309 -305h-981zM1702 756v28q0 42 -13 81t-45 76.5t-80 65.5t-124.5 45t-173.5 17q-121 0 -209.5 -25t-135.5 -68t-68.5 -90.5t-21.5 -101.5v-24q0 -43 13.5 -84t45.5 -81
t80.5 -69.5t124.5 -48t171 -18.5q119 0 207.5 26.5t136 70.5t70 94t22.5 106z" />
    <glyph glyph-name="R" unicode="R" horiz-adv-x="2396" 
d="M842 915h567q141 0 141 97q0 96 -141 96h-567v-193zM842 487v-487h-779v1524h1684q104 0 189 -10.5t163.5 -38t131.5 -70t84.5 -110.5t31.5 -156v-19q0 -65 -23.5 -120.5t-60 -93t-85 -67t-93 -45.5t-90.5 -26q180 -35 270 -133t90 -250v-231q0 -90 27 -142v-12h-801
q-10 10 -10 47v184q0 124 -69 190t-226 66h-434z" />
    <glyph glyph-name="S" unicode="S" horiz-adv-x="2338" 
d="M1284 -31h-268q-191 0 -346 19.5t-258 51t-180 78t-118.5 91.5t-66.5 101.5t-32 99.5t-7 92v16h912q0 -164 241 -164q125 0 179.5 30t54.5 77v6q0 23 -8 38t-34.5 31t-86.5 25.5t-154 13.5l-321 11q-182 7 -319 37t-219.5 73.5t-133 106t-68.5 125.5t-18 141v18
q0 89 29.5 158.5t98.5 128t179 96.5t275.5 59t383.5 21h261q238 0 417.5 -25t290.5 -67.5t179.5 -105.5t94 -130t25.5 -151v-10h-893q-2 18 -6.5 32t-19.5 32t-38.5 30t-67 20.5t-101.5 8.5q-90 0 -139.5 -10t-65.5 -26t-16 -44v-4q0 -44 62.5 -66t231.5 -26l308 -9
q296 -8 472.5 -61t253 -151.5t76.5 -256.5v-28q0 -62 -12 -115t-43 -108.5t-81 -100t-131 -84.5t-187.5 -67t-255.5 -42.5t-330 -15.5z" />
    <glyph glyph-name="T" unicode="T" horiz-adv-x="2174" 
d="M698 0v999h-657v525h2093v-525h-657v-999h-779z" />
    <glyph glyph-name="U" unicode="U" horiz-adv-x="2461" 
d="M49 817v707h782v-627q0 -350 398 -350h4q92 0 163.5 20.5t114.5 53.5t70.5 80t38 94t10.5 102v627h783v-707q0 -57 -5 -110t-21 -119.5t-41.5 -125.5t-70.5 -122.5t-104 -115.5t-146 -99.5t-192 -80.5t-246.5 -52t-306.5 -19h-102q-165 0 -306 19t-246.5 52t-191.5 80.5
t-145 99.5t-103.5 115.5t-70 122.5t-41 126t-20.5 119.5t-5 109.5z" />
    <glyph glyph-name="V" unicode="V" horiz-adv-x="2449" 
d="M1808 0h-1112l-725 1524h883l420 -940l397 940h807z" />
    <glyph glyph-name="W" unicode="W" horiz-adv-x="3584" 
d="M1561 0h-1055l-533 1524h893l256 -899l240 899h932l235 -916l242 916h840l-547 -1524h-1043l-227 846z" />
    <glyph glyph-name="X" unicode="X" horiz-adv-x="2488" 
d="M887 0h-916l588 805l-551 719h942l310 -453l309 453h885l-519 -721l582 -803h-936l-346 475z" />
    <glyph glyph-name="Y" unicode="Y" horiz-adv-x="2441" 
d="M836 0v541l-871 983h897l391 -459l398 459h825l-862 -994v-530h-778z" />
    <glyph glyph-name="Z" unicode="Z" horiz-adv-x="2115" 
d="M45 1524h2026v-367l-908 -637h914v-520h-2038v371l883 659h-877v494z" />
    <glyph glyph-name="bracketleft" unicode="[" horiz-adv-x="860" 
d="M61 -268v1923h773v-273h-248v-1378h248v-272h-773z" />
    <glyph glyph-name="backslash" unicode="\" horiz-adv-x="1087" 
d="M635 -268l-664 1923h541l655 -1923h-532z" />
    <glyph glyph-name="bracketright" unicode="]" horiz-adv-x="860" 
d="M27 -268v272h247v1378h-247v273h772v-1923h-772z" />
    <glyph glyph-name="asciicircum" unicode="^" horiz-adv-x="1648" 
d="M1008 854l-199 299l-207 -299h-602l477 670h692l480 -670h-641z" />
    <glyph glyph-name="underscore" unicode="_" horiz-adv-x="1839" 
d="M-4 -377v334h1847v-334h-1847z" />
    <glyph glyph-name="grave" unicode="`" 
d="M1159 1165h-631l-243 359h700z" />
    <glyph glyph-name="a" unicode="a" horiz-adv-x="1910" 
d="M1063 440v74l-238 -63q-40 -11 -60 -29t-20 -49v-2q0 -36 29 -63t94 -27q93 0 144 45t51 114zM1069 139q-27 -24 -65 -47t-102 -50.5t-158.5 -44.5t-204.5 -17h-13q-133 0 -233.5 29.5t-157.5 79.5t-84.5 109t-27.5 126v41q0 61 19 108.5t64 89t128 67.5t202 36l580 47
q29 4 39 15t10 30v2q0 69 -152 69h-4q-168 0 -168 -90h-692v25q0 39 4.5 68.5t23 69.5t51 69.5t92.5 60.5t142 51t206.5 32.5t279.5 12.5h117q163 0 293.5 -13.5t216.5 -34t149.5 -51.5t97 -61t53 -68t24.5 -65.5t5 -60.5v-377q0 -35 29 -35h63v-362h-641q-162 0 -186 139z
" />
    <glyph glyph-name="b" unicode="b" horiz-adv-x="2002" 
d="M55 1524h746v-566q17 17 52 38.5t96.5 49t156.5 46t203 18.5h53q144 0 255.5 -31.5t179 -81.5t110.5 -121t59 -141.5t16 -150.5v-52q0 -58 -8.5 -111t-30 -108t-54.5 -101.5t-85 -87.5t-118 -70t-157 -45.5t-200 -16.5h-55q-81 0 -157.5 12.5t-121 24t-101 38t-65.5 32
t-47 28.5q-11 -43 -24 -127h-703v1524zM801 555v-8q0 -88 56.5 -151.5t158.5 -63.5h10q55 0 96 18.5t63.5 50t33 68t10.5 78.5v8q0 91 -47.5 153t-153.5 62h-12q-106 0 -160.5 -62.5t-54.5 -152.5z" />
    <glyph glyph-name="c" unicode="c" horiz-adv-x="1964" 
d="M1065 -31h-143q-139 0 -257 13.5t-203 35.5t-154 56t-113.5 68.5t-77 80t-49.5 83t-27 85.5t-12 79.5t-2 72.5v28q0 40 2 71.5t11.5 78.5t26.5 83.5t49.5 81.5t77 78t113 66.5t154 55t203 34.5t256.5 13h147q133 0 246 -12.5t196 -33.5t150 -52t111.5 -63t78 -72t51 -75
t28 -75t13.5 -68t3 -59v-7h-756q0 14 -4 32.5t-16.5 44.5t-33 47t-57 36t-84.5 15h-10q-51 0 -88.5 -14t-58.5 -35.5t-33.5 -53t-16.5 -59.5t-4 -62v-2q0 -248 201 -248h10q47 0 84 16.5t57.5 39t33 51t16.5 48.5t4 34h756v-6q0 -29 -2 -55t-12 -67.5t-26.5 -77t-48.5 -78.5
t-76 -77.5t-111.5 -68.5t-151 -56.5t-199.5 -36.5t-252 -14z" />
    <glyph glyph-name="d" unicode="d" horiz-adv-x="2000" 
d="M1200 555v16q0 34 -10.5 66t-33.5 62.5t-67 49.5t-102 19h-8q-45 0 -80.5 -13t-57 -33t-35.5 -47.5t-19 -53.5t-5 -54v-10q0 -40 9 -75t29.5 -68t60.5 -52.5t96 -19.5h8q59 0 103 19t67.5 51t34 67.5t10.5 75.5zM1200 1524h746v-1524h-746v145q-167 -153 -506 -153h-51
q-133 0 -239 31t-175 82t-115 121.5t-65.5 146t-19.5 157.5v52q0 79 19 152t63.5 142.5t112 120.5t172 82t235.5 31h51q334 0 518 -129v543z" />
    <glyph glyph-name="e" unicode="e" horiz-adv-x="1966" 
d="M764 711h442q-8 58 -57.5 90.5t-163.5 32.5q-119 0 -165.5 -33t-55.5 -90zM1944 422v-4q0 -40 -7 -76t-30 -83t-62 -85.5t-109.5 -77.5t-164.5 -66t-235 -44t-314 -17h-92q-175 0 -316 22t-233.5 56t-160.5 85.5t-104 100t-57.5 110.5t-26.5 106.5t-5 97.5v28
q0 52 5.5 96t27 103.5t57.5 106.5t104.5 96t161.5 81.5t233.5 53.5t315.5 21h90q140 0 258.5 -13t206 -34.5t157.5 -55.5t117.5 -69t82 -81.5t53.5 -88t30 -93t14 -91.5t3 -89v-29h-1182q3 -34 14 -63t34.5 -57t69 -44t109.5 -16q55 0 97 10.5t63 22t35.5 31.5t17 28t6.5 21
h736z" />
    <glyph glyph-name="f" unicode="f" horiz-adv-x="1249" 
d="M1217 1524v-340h-162q-34 0 -45 -13.5t-11 -46.5v-22h218v-406h-218v-696h-747v696h-229v406h229v65q0 184 105 270.5t337 86.5h523z" />
    <glyph glyph-name="g" unicode="g" horiz-adv-x="2029" 
d="M997 752h-10q-109 0 -160 -51t-51 -126v-6q0 -80 51.5 -136t159.5 -56h10q114 0 173 56.5t59 135.5v6q0 73 -59 125t-173 52zM1094 -401h-183q-141 0 -259 13.5t-200.5 36t-146.5 54.5t-102.5 66t-63.5 74t-34 76t-9 73v8h746q11 -70 159 -70h7q106 0 163.5 53t57.5 156
v66q-21 -21 -39.5 -36.5t-65 -41.5t-99.5 -43t-141 -30t-192 -13h-47q-140 0 -249.5 31.5t-177 82t-111.5 121t-61 141t-17 148.5v25q0 78 18 148.5t63 139.5t113.5 119t177.5 80.5t248 30.5h49q98 0 183.5 -11.5t134.5 -23t101.5 -36t65.5 -32.5t46 -30v127h745v-950
q0 -85 -22 -159.5t-82.5 -149t-156 -126.5t-254 -85t-365.5 -33z" />
    <glyph glyph-name="h" unicode="h" horiz-adv-x="2023" 
d="M55 0v1524h746v-629q23 23 46 43t81.5 57.5t120.5 63.5t159.5 46.5t202.5 20.5h10q96 0 177 -16.5t136 -42.5t98 -62.5t68 -72.5t41 -76t21.5 -70t5.5 -57v-729h-745v494q0 211 -211 211q-109 0 -160 -60t-51 -149v-496h-746z" />
    <glyph glyph-name="i" unicode="i" horiz-adv-x="856" 
d="M801 1524v-359h-746v359h746zM801 1102v-1102h-746v1102h746z" />
    <glyph glyph-name="j" unicode="j" horiz-adv-x="856" 
d="M801 1524v-359h-746v359h746zM-68 -41h56q43 0 55 12.5t12 59.5v1071h746v-1151q0 -96 -22 -164t-61.5 -104t-85 -52t-100.5 -16h-600v344z" />
    <glyph glyph-name="k" unicode="k" horiz-adv-x="1873" 
d="M801 0h-746v1524h746v-822l243 400h783l-309 -459l378 -643h-819l-276 469v-469z" />
    <glyph glyph-name="l" unicode="l" horiz-adv-x="856" 
d="M801 1524v-1524h-746v1524h746z" />
    <glyph glyph-name="m" unicode="m" horiz-adv-x="3082" 
d="M801 0h-746v1102h746v-207q72 66 119 99q197 132 466 132h9q106 0 191 -21t141.5 -58t92.5 -77.5t58 -88.5q40 40 90.5 76.5t128 77.5t183.5 66t223 25h6q91 0 168 -16.5t129 -43.5t93 -63t64.5 -73t38.5 -76.5t20 -69t5 -55.5v-729h-746v500q0 205 -182 205
q-94 0 -139 -58t-45 -145v-502h-746v500q0 205 -182 205q-93 0 -139.5 -58.5t-46.5 -144.5v-502z" />
    <glyph glyph-name="n" unicode="n" horiz-adv-x="2023" 
d="M55 0v1102h746v-207q23 23 46 43t81.5 57.5t120.5 63.5t159.5 46.5t202.5 20.5h10q96 0 177 -16.5t136 -42.5t98 -62.5t68 -72.5t41 -76t21.5 -70t5.5 -57v-729h-745v494q0 211 -211 211q-109 0 -160 -60t-51 -149v-496h-746z" />
    <glyph glyph-name="o" unicode="o" horiz-adv-x="2058" 
d="M1112 -31h-166q-174 0 -315 22t-235 56.5t-164 85t-108 100t-61 110t-29.5 105.5t-6.5 95v28q0 49 6.5 93.5t29.5 103.5t61 107.5t108.5 98t164 83t234 55t313.5 21.5h172q139 0 257 -13t204.5 -35t156.5 -54.5t116.5 -66.5t81 -77.5t53.5 -81.5t30 -83t14 -78t3 -71v-32
q0 -38 -3 -72t-14.5 -79.5t-31 -84.5t-54.5 -83t-82 -79.5t-117.5 -68.5t-157 -55.5t-204.5 -36t-256 -13.5zM1026 315h6q71 0 122 24.5t76 64.5t35.5 79.5t10.5 81.5q0 30 -5.5 57.5t-21.5 58.5t-42 54t-71 38t-104 15h-6q-58 0 -102.5 -15t-70.5 -38t-42.5 -54t-22.5 -59
t-6 -57q0 -34 5.5 -65t21.5 -66t42 -60.5t71 -42t104 -16.5z" />
    <glyph glyph-name="p" unicode="p" horiz-adv-x="2011" 
d="M801 553v-8q0 -36 11.5 -72t36 -69t69 -53.5t102.5 -20.5h12q54 0 94 20t61 53t30.5 68t9.5 72v8q0 39 -9.5 75t-30.5 69t-61 53t-94 20h-12q-113 0 -166 -63.5t-53 -151.5zM55 1102h746v-146q23 19 54 38.5t93 49t154 48t196 18.5h56q149 0 263.5 -32.5t182 -82.5
t110 -120t57.5 -136t15 -139v-51q0 -66 -12.5 -128t-40 -126.5t-77.5 -117.5t-119.5 -95.5t-172.5 -66t-229 -23.5h-53q-95 0 -182 12.5t-147 31.5t-93.5 33.5t-54.5 26.5v-481h-746v1487z" />
    <glyph glyph-name="q" unicode="q" horiz-adv-x="1998" 
d="M1245 1102h701v-1487h-748v532q-206 -153 -518 -153h-55q-134 0 -240 33.5t-171.5 87t-108 126t-59.5 144t-17 147.5v52q0 76 17.5 147t61 141t109 121t170.5 83t238 32h55q341 0 532 -152q9 20 21 71t12 75zM1198 555v16q0 36 -10.5 68.5t-34 62.5t-66.5 48t-102 18h-10
q-54 0 -93.5 -18t-60.5 -48.5t-30 -63.5t-9 -71v-10q0 -39 9.5 -74.5t30.5 -68.5t60 -52.5t91 -19.5h10q59 0 103 19t67.5 51t34 67.5t10.5 75.5z" />
    <glyph glyph-name="r" unicode="r" horiz-adv-x="1835" 
d="M801 526v-526h-746v1102h742v-217q201 241 491 241h25q93 0 169 -19.5t126.5 -50t88.5 -74t58.5 -85.5t33 -91.5t16 -85t3.5 -71.5v-203h-733v111q0 71 -31.5 113.5t-99.5 42.5q-143 0 -143 -187z" />
    <glyph glyph-name="s" unicode="s" horiz-adv-x="1804" 
d="M963 -31h-166q-145 0 -264 14t-199.5 37.5t-141.5 56.5t-95 67t-55 74.5t-27.5 73t-6.5 68.5v17h752q2 -45 30 -76t93 -31h4q117 0 117 72v2q0 37 -31.5 54.5t-120.5 21.5l-301 12q-126 7 -220 29.5t-151.5 54t-92.5 76t-47.5 90t-12.5 100.5v15q0 65 21 114t73.5 92
t139 71t221.5 43.5t317 15.5h159q159 0 284.5 -12t210 -34.5t142.5 -51.5t90 -68t45 -78.5t13 -87.5v-19h-731q0 82 -123 82h-4q-74 0 -98.5 -13.5t-24.5 -45.5q0 -28 32.5 -46t120.5 -22l302 -12q141 -7 241 -26t164 -47.5t101 -72.5t51 -94t14 -120v-19
q0 -66 -16.5 -116.5t-68.5 -101.5t-140 -84t-240 -54t-360 -21z" />
    <glyph glyph-name="t" unicode="t" horiz-adv-x="1208" 
d="M1171 0h-616q-69 0 -124.5 15t-103 49.5t-74 98t-26.5 152.5v381h-204v406h204v321h746v-321h198v-406h-198v-182q0 -63 17 -81.5t79 -18.5h102v-414z" />
    <glyph glyph-name="u" unicode="u" horiz-adv-x="2009" 
d="M1954 1102v-1102h-746v207q-21 -23 -46 -46t-80 -59t-117.5 -62t-158.5 -45.5t-202 -19.5h-12q-96 0 -176 16.5t-134 43.5t-96 63.5t-66 74t-39.5 78.5t-20.5 73t-5 61v717h746v-494q0 -211 203 -211q55 0 96.5 18.5t64 49.5t33 66.5t10.5 74.5v496h746z" />
    <glyph glyph-name="v" unicode="v" horiz-adv-x="1923" 
d="M428 0l-451 1102h797l203 -660l186 660h783l-428 -1102h-1090z" />
    <glyph glyph-name="w" unicode="w" horiz-adv-x="2797" 
d="M1296 0h-923l-393 1102h776l149 -658l142 658h751l137 -651l146 651h737l-377 -1102h-891l-127 528z" />
    <glyph glyph-name="x" unicode="x" horiz-adv-x="1959" 
d="M780 0h-794l376 582l-385 520h814l186 -295l160 295h802l-356 -512l399 -590h-821l-186 332z" />
    <glyph glyph-name="y" unicode="y" horiz-adv-x="1865" 
d="M242 -385v362h235q49 0 49 37v2q0 5 -0.5 10.5t-3 12.5t-4 12t-6.5 15t-7 14.5t-9 18t-9 18.5l-510 985h791l215 -625l172 625h733l-440 -1096q-84 -207 -194.5 -299t-266.5 -92h-745z" />
    <glyph glyph-name="z" unicode="z" horiz-adv-x="1650" 
d="M1614 0h-1577v362l688 361h-690v379h1579v-363l-672 -338h672v-401z" />
    <glyph glyph-name="braceleft" unicode="{" horiz-adv-x="915" 
d="M889 -268h-436q-189 0 -285 56.5t-96 176.5q0 57 28 138t61 148t61 135.5t28 102.5q0 78 -84 78h-156v262h156q84 0 84 62q0 37 -28 105t-61 133t-61 143.5t-28 134.5q0 248 381 248h436v-273h-203q-49 0 -71.5 -13.5t-22.5 -47.5q0 -30 34 -108t67.5 -164t33.5 -138
q0 -88 -57.5 -137.5t-196.5 -73.5q138 -23 196 -66.5t58 -117.5q0 -56 -33.5 -148t-67.5 -173t-34 -109q0 -82 110 -82h187v-272z" />
    <glyph glyph-name="bar" unicode="|" horiz-adv-x="718" 
d="M602 1655v-1923h-485v1923h485z" />
    <glyph glyph-name="braceright" unicode="}" horiz-adv-x="915" 
d="M27 -268v272h186q109 0 109 82q0 28 -33.5 109t-67 173t-33.5 148q0 74 57 117.5t195 66.5q-138 24 -195 73.5t-57 137.5q0 52 33.5 138t67 164t33.5 108q0 34 -23 47.5t-72 13.5h-200v273h436q195 0 286 -62t91 -186q0 -56 -27 -134.5t-60 -143.5t-60 -133t-27 -105
q0 -62 84 -62h155v-262h-155q-47 0 -65.5 -18t-18.5 -60q0 -34 27 -102.5t60 -135.5t60 -148t27 -138q0 -121 -94 -177t-283 -56h-436z" />
    <glyph glyph-name="asciitilde" unicode="~" horiz-adv-x="1509" 
d="M1102 438q-121 0 -207 32.5t-195 100.5q-22 13 -50.5 31.5t-40 25.5t-25.5 13t-25 6q-33 0 -33 -47v-184h-495v375q0 52 10.5 102t37.5 101t67.5 88.5t106 61t148.5 23.5q124 0 210.5 -29.5t193.5 -95.5q10 -6 25 -15.5t22 -13.5t18.5 -11t17 -10t13.5 -7.5t13 -6
t10.5 -4t10.5 -3t9 -0.5q22 0 29.5 13t7.5 46v168h498v-426q0 -62 -20 -118t-61.5 -106t-118 -80t-177.5 -30z" />
    <glyph glyph-name="exclamdown" unicode="&#xa1;" horiz-adv-x="892" 
d="M942 -422h-1016l275 979h467zM66 627v475h737v-475h-737z" />
    <glyph glyph-name="cent" unicode="&#xa2;" horiz-adv-x="2015" 
d="M782 567v-2q0 -40 4.5 -71.5t17 -66t39 -60t66.5 -39.5v452q-40 -12 -66.5 -34.5t-39 -53.5t-17 -60t-4.5 -65zM1124 -158h-215v127q-138 1 -254 15.5t-200.5 37t-152 57t-111.5 68.5t-76 79.5t-48.5 82.5t-26 84.5t-11.5 78.5t-2 71v28q0 52 4 91.5t23 101t52.5 107
t99 97t156.5 85t231 56t316 24.5v122h215v-122q132 -1 244.5 -14.5t195 -35t149.5 -52.5t111 -63.5t76.5 -72t50.5 -74t28 -74t13 -67t3 -57.5v-7h-756q0 15 -4.5 34t-16 44t-36 47.5t-58.5 36.5v-446q45 20 73 57.5t35 65.5t7 51h756v-6q0 -39 -4 -72.5t-23 -89.5
t-51.5 -101.5t-98 -97t-154.5 -86.5t-228.5 -58.5t-311.5 -25.5v-127z" />
    <glyph glyph-name="sterling" unicode="&#xa3;" horiz-adv-x="2168" 
d="M2132 545v-545h-2105v371h141q96 0 144 29t48 94v4q0 51 -16 133h-317v258h254q-25 113 -25 178v14q0 49 7.5 91t30.5 90.5t61 87t104 75.5t154 62t216.5 40t286.5 15h82q168 0 303.5 -17t227.5 -45.5t160.5 -72t107 -88t61.5 -103.5t30 -109.5t7 -113.5v-22h-749
q-3 28 -5 42.5t-13 42t-27.5 42t-50.5 27t-81 12.5q-100 0 -138 -41.5t-38 -126.5q0 -18 4 -80h738v-258h-711v-29q0 -86 -50.5 -139.5t-137.5 -91.5h495v174h801z" />
    <glyph glyph-name="yen" unicode="&#xa5;" horiz-adv-x="2344" 
d="M795 0v338h-492v182h492v72h-492v178h361l-699 754h873l372 -445l381 445h789l-680 -754h364v-178h-491v-72h491v-182h-491v-338h-778z" />
    <glyph glyph-name="brokenbar" unicode="&#xa6;" horiz-adv-x="718" 
d="M602 1655v-881h-485v881h485zM602 682v-950h-485v950h485z" />
    <glyph glyph-name="section" unicode="&#xa7;" horiz-adv-x="2131" 
d="M1096 -426h-164q-158 0 -285 15t-212.5 39t-148 61.5t-97.5 75t-55 88t-26 92t-6 94.5v14h709q7 -60 26 -87q48 -70 193 -70q178 0 178 81v5q0 31 -18 50t-73.5 36t-158.5 30l-450 62q-136 18 -234.5 55t-154 88.5t-80.5 109t-25 124.5v20q0 133 93.5 215t254.5 113
q-200 95 -200 286v21q0 66 24.5 118.5t84.5 98.5t155 76t241 47.5t337 17.5h172q160 0 285.5 -13t209.5 -34t144 -55.5t92.5 -68t50.5 -82.5t22.5 -87.5t4.5 -93.5v-8h-697q-7 51 -23 73q-44 58 -188 58h-12q-102 0 -140 -14.5t-38 -46.5v-7q0 -32 40.5 -54t149.5 -38
l619 -94q123 -18 208 -50.5t130.5 -79.5t64.5 -99t19 -119v-23q0 -69 -34.5 -125t-90.5 -90.5t-113 -55t-117 -30.5q82 -32 137.5 -108t55.5 -199v-14q0 -67 -19.5 -122.5t-76.5 -112t-149.5 -95.5t-249.5 -63.5t-365 -24.5zM887 530l499 -84q15 8 28 25t13 41q0 22 -6.5 38
t-26.5 34t-65 32.5t-115 26.5l-499 90q-18 -6 -34.5 -23.5t-16.5 -43.5q0 -21 7 -37t28 -35.5t68.5 -35.5t119.5 -28z" />
    <glyph glyph-name="dieresis" unicode="&#xa8;" 
d="M1335 1524v-359h-575v359h575zM682 1524v-359h-573v359h573z" />
    <glyph glyph-name="copyright" unicode="&#xa9;" horiz-adv-x="2504" 
d="M1260 -31h-17q-203 0 -372 22.5t-292.5 61t-219 95.5t-157 122t-100.5 143.5t-55 156.5t-16 165v58q0 86 15.5 163.5t54.5 155.5t100 142.5t156 121t218 95.5t291.5 61t370.5 22h27q203 0 373 -22.5t293 -61.5t218.5 -96t156 -122t99.5 -143t54.5 -154.5t15.5 -161.5v-58
q0 -88 -16 -166.5t-55 -157t-100.5 -143t-157.5 -121.5t-219.5 -95.5t-293 -60.5t-372.5 -22zM344 793v-58q0 -105 25.5 -187.5t88 -153.5t163 -118.5t255.5 -74.5t361 -29h27q206 2 361 29t256.5 73.5t164.5 117.5t89 154t26 189v58q0 104 -26 186t-89 153.5t-164 119
t-257 74t-361 26.5h-27q-204 0 -359 -26.5t-255.5 -74t-163.5 -119t-89 -153.5t-26 -186zM1300 301h-26q-768 0 -768 434v70q0 45 7.5 84.5t29.5 83.5t57 80t94.5 69.5t137.5 56.5t190 36.5t248 13.5h18q176 0 311 -26t212 -65.5t125.5 -93t64.5 -100t16 -94.5v-25h-579
q-2 12 -8.5 23t-23 27.5t-53 27t-87.5 10.5q-91 0 -130.5 -37.5t-39.5 -95.5v-8q0 -149 170 -149q42 0 74 9t48.5 19.5t29 28.5t14.5 24.5t6 18.5h579v-33q0 -35 -7 -68t-27 -73t-52.5 -74t-88 -67t-128.5 -56t-179 -37t-235 -14z" />
    <glyph glyph-name="ordfeminine" unicode="&#xaa;" horiz-adv-x="1404" 
d="M635 985q61 0 97 31t36 76v41l-156 -41q-31 -8 -45 -20t-14 -34v-2q0 -51 82 -51zM774 879q-156 -105 -385 -105h-10q-103 0 -178 20t-115 54.5t-58 73t-18 82.5v24q0 83 76.5 133t263.5 66l367 28q32 4 41.5 13t9.5 24v2q0 47 -100 47h-2q-111 0 -111 -59h-524v16
q0 23 2.5 40t15.5 44t35.5 46.5t66.5 41.5t105 35.5t156 23t213 9.5h77q119 0 214.5 -8.5t158.5 -22t109 -34.5t70 -40t38 -44.5t17.5 -43.5t3.5 -40v-236q0 -25 20 -25h53v-253h-491q-103 0 -121 88z" />
    <glyph glyph-name="guillemotleft" unicode="&#xab;" horiz-adv-x="1284" 
d="M494 586l225 -367h-473l-234 367l234 358h471zM1055 586l211 -367h-473l-226 367l228 358h471z" />
    <glyph glyph-name="registered" unicode="&#xae;" horiz-adv-x="1462" 
d="M694 1554h76q116 0 212 -14t163.5 -37t119.5 -57t83.5 -70t51 -80t27 -83.5t7.5 -82.5v-28q0 -46 -8 -87.5t-28.5 -85.5t-52.5 -80.5t-84 -69.5t-120 -55.5t-162.5 -36t-208.5 -13.5h-76q-159 0 -279.5 26t-192.5 66.5t-116.5 98.5t-60.5 114.5t-16 122.5v28q0 44 7 83
t26.5 83t50.5 80t83 70t119.5 57t164.5 37t214 14zM727 805h12q102 0 182 10.5t133 26.5t91 42.5t57.5 51t30.5 59.5t13.5 60t2.5 61t-2.5 61.5t-14 59.5t-32 58.5t-58.5 50t-90.5 41.5t-132 26t-180.5 10h-12q-101 0 -181.5 -10t-133.5 -25.5t-91.5 -41t-59 -50t-32 -58.5
t-14 -60t-2.5 -62t2 -60t13 -59.5t30.5 -59.5t57.5 -51t91 -43t135 -27t185 -11zM686 1157h76q45 0 45 37q0 18 -10 26.5t-35 8.5h-76v-72zM686 1040v-145h-305v446h516q126 0 171.5 -32t45.5 -88v-2q0 -44 -35.5 -70t-87.5 -33q123 -18 123 -115v-55q0 -30 10 -43v-8h-313
q-4 12 -4 20v56q0 39 -13 54t-59 15h-49z" />
    <glyph glyph-name="macron" unicode="&#xaf;" 
d="M201 1182v291h1042v-291h-1042z" />
    <glyph glyph-name="degree" unicode="&#xb0;" horiz-adv-x="958" 
d="M479 686q-196 0 -326 119.5t-130 310.5t130 310.5t326 119.5t326.5 -119.5t130.5 -310.5t-130.5 -310.5t-326.5 -119.5zM479 967q69 0 111.5 41.5t42.5 107.5t-42.5 108t-111.5 42q-67 0 -110 -42t-43 -108t42.5 -107.5t110.5 -41.5z" />
    <glyph glyph-name="two.sup" unicode="&#xb2;" horiz-adv-x="1292" 
d="M1270 770h-1245v115q0 40 3 66t15.5 59t36 55.5t66.5 48.5t104.5 46t151.5 40t208 37q62 8 96.5 18t44 19t9.5 22v2q0 20 -22.5 30.5t-88.5 10.5q-37 0 -63 -7t-37.5 -19t-16 -22t-4.5 -21h-493v6q0 25 2.5 44t15.5 48.5t36 52t67.5 47.5t106 41t156.5 26.5t214 10.5h37
q183 0 307 -18.5t187 -53.5t87.5 -75t24.5 -94v-11q0 -72 -44.5 -114t-171.5 -71.5t-364 -45.5q-240 -19 -274 -45h848v-248z" />
    <glyph glyph-name="three.sup" unicode="&#xb3;" horiz-adv-x="1329" 
d="M680 745h-70q-153 0 -267 21t-175.5 51t-98.5 72t-47 74t-10 67v10h488q0 -5 3 -11.5t12.5 -15t23.5 -15.5t39.5 -12t58.5 -5q58 0 90.5 6.5t42.5 16t10 24.5v2q0 20 -17 28.5t-63 8.5h-192v193h186q70 0 70 30v2q0 13 -8.5 21.5t-37.5 15t-81 6.5q-34 0 -59.5 -4
t-38.5 -10t-21 -13.5t-10 -12.5t-2 -9h-479v12q0 13 2 26t13.5 39.5t32 48.5t62.5 48t99.5 44t149.5 30t206 12h82q154 0 265 -10.5t174 -26.5t99.5 -42t47 -49.5t10.5 -55.5v-10q0 -65 -54 -99t-131 -43q103 -13 167.5 -61t64.5 -133v-6q0 -43 -10.5 -75.5t-49 -70
t-105 -62t-187 -41t-285.5 -16.5z" />
    <glyph glyph-name="acute" unicode="&#xb4;" 
d="M285 1165l174 359h700l-244 -359h-630z" />
    <glyph glyph-name="paragraph" unicode="&#xb6;" horiz-adv-x="1792" 
d="M707 0v598h-129q-151 0 -263.5 36t-177 100t-95 142t-30.5 171v43q0 75 15 136t53.5 118t100.5 95.5t161.5 61.5t230.5 23h1205v-312h-152v-1212h-364v1212h-191v-1212h-364z" />
    <glyph glyph-name="periodcentered" unicode="&#xb7;" horiz-adv-x="833" 
d="M784 967v-475h-735v475h735z" />
    <glyph glyph-name="cedilla" unicode="&#xb8;" 
d="M299 -537v199h233q33 0 45.5 10.5t12.5 32.5q0 20 -12.5 30.5t-45.5 10.5h-143v254h326v-94q105 0 182.5 -11t124.5 -29t75 -46.5t38 -58.5t10 -70v-4q0 -40 -10.5 -71.5t-39 -61t-75.5 -49t-124.5 -31t-182.5 -11.5h-414z" />
    <glyph glyph-name="one.sup" unicode="&#xb9;" horiz-adv-x="841" 
d="M254 1159h-225v234q68 2 120 10.5t82.5 19.5t53 29.5t33 33.5t20.5 38h453v-754h-537v389z" />
    <glyph glyph-name="ordmasculine" unicode="&#xba;" horiz-adv-x="1433" 
d="M772 770h-110q-644 0 -644 379v18q0 371 641 371h117q97 0 179.5 -8.5t142.5 -22.5t109 -35.5t81.5 -44t56.5 -51t37 -54t21 -55.5t10 -52t2 -48v-18q0 -35 -4 -64.5t-19 -70t-41 -72.5t-75 -65.5t-115 -56t-165.5 -36.5t-223.5 -14zM715 1012h4q42 0 72.5 14t45 37.5
t21 47t6.5 48.5q0 56 -32.5 97.5t-112.5 41.5h-4q-80 0 -113 -41.5t-33 -97.5q0 -59 32 -103t114 -44z" />
    <glyph glyph-name="guillemotright" unicode="&#xbb;" horiz-adv-x="1284" 
d="M229 586l-211 358h474l225 -358l-223 -367h-476zM1040 219h-475l228 367l-226 358h473l232 -358z" />
    <glyph glyph-name="onequarter" unicode="&#xbc;" horiz-adv-x="2355" 
d="M254 1159h-225v234q68 2 120 10.5t82.5 19.5t53 29.5t33 33.5t20.5 38h453v-754h-537v389zM1788 1524h489l-1831 -1524h-475zM1096 401l569 353h537v-344h137v-248h-137v-162h-519v162h-587v239zM1423 410h260v157z" />
    <glyph glyph-name="onehalf" unicode="&#xbd;" horiz-adv-x="2533" 
d="M1786 1524h489l-1831 -1524h-475zM254 1159h-225v234q68 2 120 10.5t82.5 19.5t53 29.5t33 33.5t20.5 38h453v-754h-537v389zM2511 0h-1245v115q0 40 3 66t15.5 59t36 55.5t66.5 48.5t104.5 46t151.5 40t208 37q62 8 96.5 18t44 19t9.5 22v2q0 20 -22.5 30.5t-88.5 10.5
q-37 0 -63 -7t-37.5 -19t-16 -22t-4.5 -21h-493v6q0 25 2.5 44t15.5 48.5t36 52t67.5 47.5t106 41t156.5 26.5t214 10.5h37q183 0 307 -18.5t187 -53.5t87.5 -75t24.5 -94v-11q0 -72 -44.5 -114t-171.5 -71.5t-364 -45.5q-240 -19 -274 -45h848v-248z" />
    <glyph glyph-name="threequarters" unicode="&#xbe;" horiz-adv-x="2723" 
d="M680 748h-70q-111 0 -201.5 11t-151.5 28.5t-107 42.5t-71.5 50t-41 54t-20.5 51.5t-5 46.5v10h488q0 -5 3 -11.5t12.5 -15t23.5 -15.5t39.5 -12t58.5 -5q58 0 90.5 6.5t42.5 16t10 24.5v2q0 20 -17 28.5t-63 8.5h-192v193h186q70 0 70 30v2q0 13 -8.5 21.5t-37.5 15
t-81 6.5q-34 0 -59.5 -4t-38.5 -10t-21 -13.5t-10 -12.5t-2 -9h-479v12q0 13 2 26t13.5 39.5t32 48.5t62.5 48t99.5 44t149.5 30t206 12h82q154 0 265 -10.5t174 -26.5t99.5 -42t47 -49.5t10.5 -55.5v-10q0 -65 -54 -99t-131 -43q103 -13 167.5 -61t64.5 -133v-6
q0 -43 -10.5 -75.5t-49 -70t-105 -61.5t-187 -40.5t-285.5 -16.5zM2154 1524h490l-1831 -1524h-475zM1464 401l570 353h536v-344h137v-248h-137v-162h-518v162h-588v239zM1792 410h260v157z" />
    <glyph glyph-name="questiondown" unicode="&#xbf;" horiz-adv-x="2080" 
d="M754 559h733v-102q0 -29 -0.5 -47t-3.5 -44t-8.5 -42.5t-16 -37.5t-26 -35.5t-38 -31.5t-51.5 -29.5t-68 -24.5t-87 -22l-273 -53q-86 -17 -120.5 -34.5t-34.5 -43.5v-2q0 -22 14 -33.5t67 -19.5t156 -8q85 0 144.5 9t90.5 21t49 34.5t22 38t6 42.5h749v-24
q0 -38 -2 -65.5t-12 -72t-27.5 -77.5t-53 -75t-84.5 -72.5t-125 -61.5t-171 -50.5t-227 -32t-289 -12.5h-98q-178 0 -322.5 14t-244 37.5t-174 59t-117.5 73t-69.5 86t-35 91t-8.5 94.5v19q0 51 10 96.5t36.5 93t68.5 85.5t110 70t156 50l276 55q56 12 77.5 29.5t21.5 52.5
v2zM750 627v475h737v-475h-737z" />
    <glyph glyph-name="Agrave" unicode="&#xc0;" horiz-adv-x="2514" 
d="M1399 633l-187 422l-182 -422h369zM1677 0l-80 182h-761l-80 -182h-787l719 1524h1094l764 -1524h-869zM1454 1925l121 -336h-651l-195 336h725z" />
    <glyph glyph-name="Aacute" unicode="&#xc1;" horiz-adv-x="2514" 
d="M1399 633l-187 422l-182 -422h369zM1677 0l-80 182h-761l-80 -182h-787l719 1524h1094l764 -1524h-869zM913 1589l119 336h725l-192 -336h-652z" />
    <glyph glyph-name="Acircumflex" unicode="&#xc2;" horiz-adv-x="2514" 
d="M1399 633l-187 422l-182 -422h369zM1677 0l-80 182h-761l-80 -182h-787l719 1524h1094l764 -1524h-869zM1585 1925l350 -338h-589l-111 119l-113 -119h-583l346 338h700z" />
    <glyph glyph-name="Atilde" unicode="&#xc3;" horiz-adv-x="2514" 
d="M1399 633l-187 422l-182 -422h369zM1677 0l-80 182h-761l-80 -182h-787l719 1524h1094l764 -1524h-869zM1526 1587h-6q-56 0 -104 7.5t-79.5 16.5t-122.5 38q-94 30 -124 30q-31 0 -31 -43v-49h-385v185q0 202 278 202h4q20 0 38.5 -1t32.5 -2t35 -5t32 -6t37.5 -9
t38.5 -10t48.5 -13t53.5 -15q93 -27 112 -27q29 0 29 33v55h391v-157q0 -32 -4 -58.5t-21 -60t-45 -56.5t-81.5 -39t-126.5 -16z" />
    <glyph glyph-name="Adieresis" unicode="&#xc4;" horiz-adv-x="2514" 
d="M1399 633l-187 422l-182 -422h369zM1677 0l-80 182h-761l-80 -182h-787l719 1524h1094l764 -1524h-869zM1874 1925v-336h-596v336h596zM1196 1925v-336h-594v336h594z" />
    <glyph glyph-name="Aring" unicode="&#xc5;" horiz-adv-x="2514" 
d="M1399 633l-187 422l-182 -422h369zM1677 0l-80 182h-761l-80 -182h-787l719 1524h1094l764 -1524h-869zM805 1831q0 252 436 252q126 0 214.5 -20t135 -56t66.5 -79t20 -97q0 -43 -11.5 -78t-42 -68t-78.5 -55t-125.5 -35.5t-178.5 -13.5q-102 0 -180 13.5t-126 36
t-77.5 55.5t-41 67.5t-11.5 77.5zM1090 1833q0 -88 151 -88q152 0 152 88q0 86 -152 86q-151 0 -151 -86z" />
    <glyph glyph-name="AE" unicode="&#xc6;" horiz-adv-x="3272" 
d="M1444 635v491l-309 -491h309zM1444 0v184h-592l-117 -184h-770l1000 1524h2254v-426h-1009v-119h997v-418h-997v-131h1018v-430h-1784z" />
    <glyph glyph-name="Ccedilla" unicode="&#xc7;" horiz-adv-x="2453" 
d="M1288 -31h-71q-1186 0 -1186 766v62q0 76 10 143t42 146t84 143.5t143 126.5t212.5 104t299 68t395.5 26h71q209 0 380.5 -24.5t287.5 -64t204 -96t137.5 -113t80 -123t40 -119t9.5 -107.5v-30h-789q-18 59 -54 95q-100 97 -343 97q-100 0 -175.5 -17.5t-119.5 -44.5
t-70.5 -66t-35.5 -76t-9 -81v-24q0 -43 9.5 -82t37 -80.5t71 -71t119 -48.5t173.5 -19q101 0 177.5 19t115.5 43t64.5 58.5t31 52t8.5 36.5h789v-54q0 -39 -5.5 -78t-22 -89t-43 -95.5t-72 -94t-105.5 -89.5t-147 -78.5t-192.5 -63.5t-246.5 -41.5t-305 -15.5zM862 -537v199
h234q33 0 45 10.5t12 32.5q0 21 -12 31t-45 10h-144v254h326v-94q105 0 182.5 -11t124.5 -29t75 -46.5t38 -58.5t10 -70v-4q0 -40 -10.5 -71.5t-39 -61t-75.5 -49t-124.5 -31t-182.5 -11.5h-414z" />
    <glyph glyph-name="Egrave" unicode="&#xc8;" horiz-adv-x="1955" 
d="M63 1524h1838v-426h-1072v-119h1059v-418h-1059v-131h1080v-430h-1846v1524zM1231 1925l121 -336h-652l-194 336h725z" />
    <glyph glyph-name="Eacute" unicode="&#xc9;" horiz-adv-x="1955" 
d="M63 1524h1838v-426h-1072v-119h1059v-418h-1059v-131h1080v-430h-1846v1524zM668 1589l118 336h725l-192 -336h-651z" />
    <glyph glyph-name="Ecircumflex" unicode="&#xca;" horiz-adv-x="1955" 
d="M63 1524h1838v-426h-1072v-119h1059v-418h-1059v-131h1080v-430h-1846v1524zM1356 1925l350 -338h-590l-110 119l-113 -119h-584l346 338h701z" />
    <glyph glyph-name="Edieresis" unicode="&#xcb;" horiz-adv-x="1955" 
d="M63 1524h1838v-426h-1072v-119h1059v-418h-1059v-131h1080v-430h-1846v1524zM1636 1925v-336h-596v336h596zM958 1925v-336h-593v336h593z" />
    <glyph glyph-name="Igrave" unicode="&#xcc;" horiz-adv-x="903" 
d="M840 1524v-1524h-777v1524h777zM655 1925l121 -336h-651l-195 336h725z" />
    <glyph glyph-name="Iacute" unicode="&#xcd;" horiz-adv-x="903" 
d="M840 1524v-1524h-777v1524h777zM127 1589l119 336h725l-193 -336h-651z" />
    <glyph glyph-name="Icircumflex" unicode="&#xce;" horiz-adv-x="903" 
d="M840 1524v-1524h-777v1524h777zM799 1925l350 -338h-590l-110 119l-113 -119h-584l346 338h701z" />
    <glyph glyph-name="Idieresis" unicode="&#xcf;" horiz-adv-x="903" 
d="M840 1524v-1524h-777v1524h777zM1087 1925v-336h-595v336h595zM410 1925v-336h-594v336h594z" />
    <glyph glyph-name="Eth" unicode="&#xd0;" horiz-adv-x="2523" 
d="M131 0v588h-121v358h121v578h1221q254 0 452 -37.5t326.5 -102.5t211.5 -158t117.5 -196.5t34.5 -226.5v-64q0 -86 -14 -160.5t-49 -151t-91.5 -138.5t-145.5 -117t-206 -92t-278.5 -58.5t-357.5 -21.5h-1221zM909 1051v-105h500v-358h-500v-117h312q91 0 164.5 11.5
t121.5 30t83.5 45t54 51.5t29.5 56t13.5 52t2.5 45v12q0 23 -3 44t-14.5 50t-30.5 53t-54.5 49t-83.5 42t-120.5 28t-162.5 11h-312z" />
    <glyph glyph-name="Ntilde" unicode="&#xd1;" horiz-adv-x="2500" 
d="M63 1524h879l717 -693v693h778v-1524h-792l-803 762v-762h-779v1524zM1534 1587h-6q-56 0 -104 8t-78 16.5t-123 37.5q-94 30 -125 30t-31 -43v-49h-385v185q0 202 279 202h4q23 0 41.5 -0.5t41.5 -4t34.5 -5.5t42 -9.5t41 -10.5t54 -14.5t60.5 -16.5q93 -27 113 -27
q28 0 28 33v55h391v-157q0 -32 -4 -58.5t-21 -60t-45 -56.5t-81.5 -39t-126.5 -16z" />
    <glyph glyph-name="Ograve" unicode="&#xd2;" horiz-adv-x="2535" 
d="M1217 1554h102q214 0 389.5 -25.5t296.5 -68t212.5 -104.5t145 -126.5t87 -143t44.5 -146.5t11 -143v-62q0 -74 -11.5 -141.5t-44.5 -146.5t-86.5 -145t-145.5 -129.5t-213 -107t-296.5 -70t-388.5 -26.5h-102q-213 0 -388.5 26.5t-296 70t-212.5 107t-145.5 129.5
t-87 145t-45 146.5t-11.5 141.5v62q0 75 11 143t44.5 146.5t87 143t145 126.5t212.5 104.5t296.5 68t389.5 25.5zM1702 756v28q0 42 -13 81t-45 76.5t-80 65.5t-124.5 45t-173.5 17q-121 0 -209.5 -25t-135.5 -68t-68.5 -90.5t-21.5 -101.5v-24q0 -43 13.5 -84t45.5 -81
t80.5 -69.5t124.5 -48t171 -18.5q119 0 207.5 26.5t136 70.5t70 94t22.5 106zM1470 1925l121 -336h-651l-195 336h725z" />
    <glyph glyph-name="Oacute" unicode="&#xd3;" horiz-adv-x="2535" 
d="M1217 1554h102q214 0 389.5 -25.5t296.5 -68t212.5 -104.5t145 -126.5t87 -143t44.5 -146.5t11 -143v-62q0 -74 -11.5 -141.5t-44.5 -146.5t-86.5 -145t-145.5 -129.5t-213 -107t-296.5 -70t-388.5 -26.5h-102q-213 0 -388.5 26.5t-296 70t-212.5 107t-145.5 129.5
t-87 145t-45 146.5t-11.5 141.5v62q0 75 11 143t44.5 146.5t87 143t145 126.5t212.5 104.5t296.5 68t389.5 25.5zM1702 756v28q0 42 -13 81t-45 76.5t-80 65.5t-124.5 45t-173.5 17q-121 0 -209.5 -25t-135.5 -68t-68.5 -90.5t-21.5 -101.5v-24q0 -43 13.5 -84t45.5 -81
t80.5 -69.5t124.5 -48t171 -18.5q119 0 207.5 26.5t136 70.5t70 94t22.5 106zM944 1589l119 336h725l-193 -336h-651z" />
    <glyph glyph-name="Ocircumflex" unicode="&#xd4;" horiz-adv-x="2535" 
d="M1217 1554h102q214 0 389.5 -25.5t296.5 -68t212.5 -104.5t145 -126.5t87 -143t44.5 -146.5t11 -143v-62q0 -74 -11.5 -141.5t-44.5 -146.5t-86.5 -145t-145.5 -129.5t-213 -107t-296.5 -70t-388.5 -26.5h-102q-213 0 -388.5 26.5t-296 70t-212.5 107t-145.5 129.5
t-87 145t-45 146.5t-11.5 141.5v62q0 75 11 143t44.5 146.5t87 143t145 126.5t212.5 104.5t296.5 68t389.5 25.5zM1702 756v28q0 42 -13 81t-45 76.5t-80 65.5t-124.5 45t-173.5 17q-121 0 -209.5 -25t-135.5 -68t-68.5 -90.5t-21.5 -101.5v-24q0 -43 13.5 -84t45.5 -81
t80.5 -69.5t124.5 -48t171 -18.5q119 0 207.5 26.5t136 70.5t70 94t22.5 106zM1616 1925l350 -338h-590l-110 119l-113 -119h-584l346 338h701z" />
    <glyph glyph-name="Otilde" unicode="&#xd5;" horiz-adv-x="2535" 
d="M1217 1554h102q214 0 389.5 -25.5t296.5 -68t212.5 -104.5t145 -126.5t87 -143t44.5 -146.5t11 -143v-62q0 -74 -11.5 -141.5t-44.5 -146.5t-86.5 -145t-145.5 -129.5t-213 -107t-296.5 -70t-388.5 -26.5h-102q-213 0 -388.5 26.5t-296 70t-212.5 107t-145.5 129.5
t-87 145t-45 146.5t-11.5 141.5v62q0 75 11 143t44.5 146.5t87 143t145 126.5t212.5 104.5t296.5 68t389.5 25.5zM1702 756v28q0 42 -13 81t-45 76.5t-80 65.5t-124.5 45t-173.5 17q-121 0 -209.5 -25t-135.5 -68t-68.5 -90.5t-21.5 -101.5v-24q0 -43 13.5 -84t45.5 -81
t80.5 -69.5t124.5 -48t171 -18.5q119 0 207.5 26.5t136 70.5t70 94t22.5 106zM1552 1602h-6q-56 0 -103 7t-80.5 16.5t-121.5 37.5q-97 31 -125 31q-31 0 -31 -43v-49h-385v184q0 203 279 203h4q26 0 51 -2t41 -4t48 -9.5t45 -11t61 -16.5t69 -19q89 -26 113 -26q29 0 29 32
v56h391v-158q0 -32 -4.5 -58.5t-21 -59.5t-45 -56t-82 -39t-126.5 -16z" />
    <glyph glyph-name="Odieresis" unicode="&#xd6;" horiz-adv-x="2535" 
d="M1217 1554h102q214 0 389.5 -25.5t296.5 -68t212.5 -104.5t145 -126.5t87 -143t44.5 -146.5t11 -143v-62q0 -74 -11.5 -141.5t-44.5 -146.5t-86.5 -145t-145.5 -129.5t-213 -107t-296.5 -70t-388.5 -26.5h-102q-213 0 -388.5 26.5t-296 70t-212.5 107t-145.5 129.5
t-87 145t-45 146.5t-11.5 141.5v62q0 75 11 143t44.5 146.5t87 143t145 126.5t212.5 104.5t296.5 68t389.5 25.5zM1702 756v28q0 42 -13 81t-45 76.5t-80 65.5t-124.5 45t-173.5 17q-121 0 -209.5 -25t-135.5 -68t-68.5 -90.5t-21.5 -101.5v-24q0 -43 13.5 -84t45.5 -81
t80.5 -69.5t124.5 -48t171 -18.5q119 0 207.5 26.5t136 70.5t70 94t22.5 106zM1905 1925v-336h-596v336h596zM1227 1925v-336h-594v336h594z" />
    <glyph glyph-name="multiply" unicode="&#xd7;" horiz-adv-x="1181" 
d="M934 72l-338 305l-334 -305l-256 284l305 279l-301 272l236 285l338 -305l334 305l258 -285l-306 -280l299 -271z" />
    <glyph glyph-name="Oslash" unicode="&#xd8;" horiz-adv-x="2566" 
d="M1329 -27h-98q-377 0 -627 84l-78 -57h-540l290 215q-249 194 -249 516v62q0 74 11.5 141t45 145.5t87.5 143.5t147 127t216 105t301.5 69t395.5 26h98q348 0 608 -82l74 56h539l-283 -209q268 -198 268 -522v-62q0 -56 -6.5 -108t-25 -113t-47.5 -114t-78 -108.5
t-113.5 -101t-156 -86t-203 -68t-258.5 -43.5t-318 -16zM1280 440q126 0 220.5 26t148.5 72t80 101t26 119v28q0 69 -31 129l-624 -473q55 -2 180 -2zM807 786v-28q0 -63 29 -129l610 461h-166q-127 0 -221.5 -24.5t-148 -67.5t-78.5 -95.5t-25 -116.5z" />
    <glyph glyph-name="Ugrave" unicode="&#xd9;" horiz-adv-x="2461" 
d="M49 817v707h782v-627q0 -350 398 -350h4q92 0 163.5 20.5t114.5 53.5t70.5 80t38 94t10.5 102v627h783v-707q0 -57 -5 -110t-21 -119.5t-41.5 -125.5t-70.5 -122.5t-104 -115.5t-146 -99.5t-192 -80.5t-246.5 -52t-306.5 -19h-102q-165 0 -306 19t-246.5 52t-191.5 80.5
t-145 99.5t-103.5 115.5t-70 122.5t-41 126t-20.5 119.5t-5 109.5zM1444 1925l121 -336h-652l-194 336h725z" />
    <glyph glyph-name="Uacute" unicode="&#xda;" horiz-adv-x="2461" 
d="M49 817v707h782v-627q0 -350 398 -350h4q92 0 163.5 20.5t114.5 53.5t70.5 80t38 94t10.5 102v627h783v-707q0 -57 -5 -110t-21 -119.5t-41.5 -125.5t-70.5 -122.5t-104 -115.5t-146 -99.5t-192 -80.5t-246.5 -52t-306.5 -19h-102q-165 0 -306 19t-246.5 52t-191.5 80.5
t-145 99.5t-103.5 115.5t-70 122.5t-41 126t-20.5 119.5t-5 109.5zM897 1589l119 336h725l-193 -336h-651z" />
    <glyph glyph-name="Ucircumflex" unicode="&#xdb;" horiz-adv-x="2461" 
d="M49 817v707h782v-627q0 -350 398 -350h4q92 0 163.5 20.5t114.5 53.5t70.5 80t38 94t10.5 102v627h783v-707q0 -57 -5 -110t-21 -119.5t-41.5 -125.5t-70.5 -122.5t-104 -115.5t-146 -99.5t-192 -80.5t-246.5 -52t-306.5 -19h-102q-165 0 -306 19t-246.5 52t-191.5 80.5
t-145 99.5t-103.5 115.5t-70 122.5t-41 126t-20.5 119.5t-5 109.5zM1579 1925l350 -338h-590l-110 119l-113 -119h-584l347 338h700z" />
    <glyph glyph-name="Udieresis" unicode="&#xdc;" horiz-adv-x="2461" 
d="M49 817v707h782v-627q0 -350 398 -350h4q92 0 163.5 20.5t114.5 53.5t70.5 80t38 94t10.5 102v627h783v-707q0 -57 -5 -110t-21 -119.5t-41.5 -125.5t-70.5 -122.5t-104 -115.5t-146 -99.5t-192 -80.5t-246.5 -52t-306.5 -19h-102q-165 0 -306 19t-246.5 52t-191.5 80.5
t-145 99.5t-103.5 115.5t-70 122.5t-41 126t-20.5 119.5t-5 109.5zM1868 1925v-336h-596v336h596zM1190 1925v-336h-594v336h594z" />
    <glyph glyph-name="Yacute" unicode="&#xdd;" horiz-adv-x="2441" 
d="M836 0v541l-871 983h897l391 -459l398 459h825l-862 -994v-530h-778zM920 1589l118 336h725l-192 -336h-651z" />
    <glyph glyph-name="Thorn" unicode="&#xde;" horiz-adv-x="2316" 
d="M1528 213h-686v-213h-779v1524h779v-195h686q131 0 238.5 -14t186.5 -39t139.5 -62.5t99 -81t62.5 -97.5t34 -109.5t10 -120.5v-51q0 -92 -20.5 -168t-73.5 -147t-138 -119.5t-222 -77.5t-316 -29zM842 883v-209h518q73 0 105 29t32 73v6q0 101 -137 101h-518z" />
    <glyph glyph-name="germandbls" unicode="&#xdf;" horiz-adv-x="2052" 
d="M1618 905q186 -26 302 -133t116 -278v-25q0 -74 -15.5 -137.5t-57 -126t-106.5 -106.5t-172.5 -71.5t-246.5 -27.5h-568v391h228q164 0 164 111v6q0 108 -162 108h-230v392h224q44 0 74 9t43 23.5t17.5 27t4.5 26.5v4q0 16 -4.5 28.5t-20 29.5t-55.5 26.5t-100 9.5h-74
q-108 0 -143 -30t-35 -91v-1071h-746v1100q0 52 7.5 94t29.5 87.5t59.5 79.5t101 66t149.5 52.5t209.5 32.5t277.5 12h231q156 0 281.5 -12t208 -30.5t143 -48t92.5 -57t50.5 -64.5t23 -65t4.5 -63v-19q0 -106 -88 -173.5t-217 -86.5z" />
    <glyph glyph-name="agrave" unicode="&#xe0;" horiz-adv-x="1910" 
d="M1063 440v74l-238 -63q-40 -11 -60 -29t-20 -49v-2q0 -36 29 -63t94 -27q93 0 144 45t51 114zM1069 139q-27 -24 -65 -47t-102 -50.5t-158.5 -44.5t-204.5 -17h-13q-133 0 -233.5 29.5t-157.5 79.5t-84.5 109t-27.5 126v41q0 61 19 108.5t64 89t128 67.5t202 36l580 47
q29 4 39 15t10 30v2q0 69 -152 69h-4q-168 0 -168 -90h-692v25q0 39 4.5 68.5t23 69.5t51 69.5t92.5 60.5t142 51t206.5 32.5t279.5 12.5h117q163 0 293.5 -13.5t216.5 -34t149.5 -51.5t97 -61t53 -68t24.5 -65.5t5 -60.5v-377q0 -35 29 -35h63v-362h-641q-162 0 -186 139z
M1243 1165h-631l-243 359h700z" />
    <glyph glyph-name="aacute" unicode="&#xe1;" horiz-adv-x="1910" 
d="M1063 440v74l-238 -63q-40 -11 -60 -29t-20 -49v-2q0 -36 29 -63t94 -27q93 0 144 45t51 114zM1069 139q-27 -24 -65 -47t-102 -50.5t-158.5 -44.5t-204.5 -17h-13q-133 0 -233.5 29.5t-157.5 79.5t-84.5 109t-27.5 126v41q0 61 19 108.5t64 89t128 67.5t202 36l580 47
q29 4 39 15t10 30v2q0 69 -152 69h-4q-168 0 -168 -90h-692v25q0 39 4.5 68.5t23 69.5t51 69.5t92.5 60.5t142 51t206.5 32.5t279.5 12.5h117q163 0 293.5 -13.5t216.5 -34t149.5 -51.5t97 -61t53 -68t24.5 -65.5t5 -60.5v-377q0 -35 29 -35h63v-362h-641q-162 0 -186 139z
M602 1176l174 358h701l-244 -358h-631z" />
    <glyph glyph-name="acircumflex" unicode="&#xe2;" horiz-adv-x="1910" 
d="M1063 440v74l-238 -63q-40 -11 -60 -29t-20 -49v-2q0 -36 29 -63t94 -27q93 0 144 45t51 114zM1069 139q-27 -24 -65 -47t-102 -50.5t-158.5 -44.5t-204.5 -17h-13q-133 0 -233.5 29.5t-157.5 79.5t-84.5 109t-27.5 126v41q0 61 19 108.5t64 89t128 67.5t202 36l580 47
q29 4 39 15t10 30v2q0 69 -152 69h-4q-168 0 -168 -90h-692v25q0 39 4.5 68.5t23 69.5t51 69.5t92.5 60.5t142 51t206.5 32.5t279.5 12.5h117q163 0 293.5 -13.5t216.5 -34t149.5 -51.5t97 -61t53 -68t24.5 -65.5t5 -60.5v-377q0 -35 29 -35h63v-362h-641q-162 0 -186 139z
M1266 1524l317 -359h-569l-107 144l-104 -144h-563l319 359h707z" />
    <glyph glyph-name="atilde" unicode="&#xe3;" horiz-adv-x="1910" 
d="M1063 440v74l-238 -63q-40 -11 -60 -29t-20 -49v-2q0 -36 29 -63t94 -27q93 0 144 45t51 114zM1069 139q-27 -24 -65 -47t-102 -50.5t-158.5 -44.5t-204.5 -17h-13q-133 0 -233.5 29.5t-157.5 79.5t-84.5 109t-27.5 126v41q0 61 19 108.5t64 89t128 67.5t202 36l580 47
q29 4 39 15t10 30v2q0 69 -152 69h-4q-168 0 -168 -90h-692v25q0 39 4.5 68.5t23 69.5t51 69.5t92.5 60.5t142 51t206.5 32.5t279.5 12.5h117q163 0 293.5 -13.5t216.5 -34t149.5 -51.5t97 -61t53 -68t24.5 -65.5t5 -60.5v-377q0 -35 29 -35h63v-362h-641q-162 0 -186 139z
M1196 1174h-4q-53 0 -99 7.5t-76.5 16t-121.5 37.5q-79 29 -113 29q-32 0 -32 -43v-47h-388v180q0 202 279 202h4q73 0 131 -11.5t176 -49.5q86 -27 105 -27q28 0 28 33v55h390v-153q0 -26 -3 -48t-12 -50t-28.5 -49.5t-49 -41t-77 -30t-109.5 -10.5z" />
    <glyph glyph-name="adieresis" unicode="&#xe4;" horiz-adv-x="1910" 
d="M1063 440v74l-238 -63q-40 -11 -60 -29t-20 -49v-2q0 -36 29 -63t94 -27q93 0 144 45t51 114zM1069 139q-27 -24 -65 -47t-102 -50.5t-158.5 -44.5t-204.5 -17h-13q-133 0 -233.5 29.5t-157.5 79.5t-84.5 109t-27.5 126v41q0 61 19 108.5t64 89t128 67.5t202 36l580 47
q29 4 39 15t10 30v2q0 69 -152 69h-4q-168 0 -168 -90h-692v25q0 39 4.5 68.5t23 69.5t51 69.5t92.5 60.5t142 51t206.5 32.5t279.5 12.5h117q163 0 293.5 -13.5t216.5 -34t149.5 -51.5t97 -61t53 -68t24.5 -65.5t5 -60.5v-377q0 -35 29 -35h63v-362h-641q-162 0 -186 139z
M1526 1524v-359h-576v359h576zM872 1524v-359h-573v359h573z" />
    <glyph glyph-name="aring" unicode="&#xe5;" horiz-adv-x="1910" 
d="M1063 440v74l-238 -63q-40 -11 -60 -29t-20 -49v-2q0 -36 29 -63t94 -27q93 0 144 45t51 114zM1069 139q-27 -24 -65 -47t-102 -50.5t-158.5 -44.5t-204.5 -17h-13q-133 0 -233.5 29.5t-157.5 79.5t-84.5 109t-27.5 126v41q0 61 19 108.5t64 89t128 67.5t202 36l580 47
q29 4 39 15t10 30v2q0 69 -152 69h-4q-168 0 -168 -90h-692v25q0 39 4.5 68.5t23 69.5t51 69.5t92.5 60.5t142 51t206.5 32.5t279.5 12.5h117q163 0 293.5 -13.5t216.5 -34t149.5 -51.5t97 -61t53 -68t24.5 -65.5t5 -60.5v-377q0 -35 29 -35h63v-362h-641q-162 0 -186 139z
M477 1417q0 252 432 252t432 -252q0 -43 -11.5 -78t-41.5 -68t-78 -55t-124.5 -35.5t-176.5 -13.5q-125 0 -212.5 19.5t-134 56t-66 78.5t-19.5 96zM762 1419q0 -88 147 -88q148 0 148 88q0 86 -148 86q-147 0 -147 -86z" />
    <glyph glyph-name="ae" unicode="&#xe6;" horiz-adv-x="3002" 
d="M2023 834q-211 0 -223 -123h443q-17 123 -220 123zM868 281q94 0 144.5 44.5t50.5 114.5v74l-238 -63q-40 -12 -60 -28.5t-20 -49.5v-2q0 -36 29 -63t94 -27zM2980 422v-6q0 -40 -8 -77t-32.5 -83t-65 -84.5t-111.5 -76t-164.5 -64t-232 -42.5t-306.5 -16h-92
q-297 0 -475.5 53t-286.5 148q-42 -33 -68 -51.5t-86 -49.5t-119.5 -48t-154.5 -31t-205 -14h-14q-118 0 -212 19.5t-153.5 52t-99 78t-55.5 93.5t-16 101v41q0 61 20 109t65.5 88.5t128 67t199.5 36.5l580 47q28 4 38.5 14.5t10.5 30.5v2q0 69 -152 69h-4q-168 0 -168 -90
h-690v25q0 35 3.5 61.5t21 66.5t48 70t90 63t141.5 54t208.5 35t284.5 14h108q349 0 506 -98q179 96 510 96h88q141 0 260 -13t206.5 -34.5t157.5 -54.5t117 -68t81 -81t52.5 -86.5t29 -92t13.5 -89.5t3 -87v-31h-1182q3 -33 13.5 -61t33.5 -57t69 -45.5t111 -16.5
q42 0 76.5 5.5t56.5 15t38.5 20t25.5 23.5t14 21.5t8 17.5l3 10h733z" />
    <glyph glyph-name="ccedilla" unicode="&#xe7;" horiz-adv-x="1964" 
d="M1065 -31h-143q-139 0 -257 13.5t-203 35.5t-154 56t-113.5 68.5t-77 80t-49.5 83t-27 85.5t-12 79.5t-2 72.5v28q0 40 2 71.5t11.5 78.5t26.5 83.5t49.5 81.5t77 78t113 66.5t154 55t203 34.5t256.5 13h147q133 0 246 -12.5t196 -33.5t150 -52t111.5 -63t78 -72t51 -75
t28 -75t13.5 -68t3 -59v-7h-756q0 14 -4 32.5t-16.5 44.5t-33 47t-57 36t-84.5 15h-10q-51 0 -88.5 -14t-58.5 -35.5t-33.5 -53t-16.5 -59.5t-4 -62v-2q0 -248 201 -248h10q47 0 84 16.5t57.5 39t33 51t16.5 48.5t4 34h756v-6q0 -29 -2 -55t-12 -67.5t-26.5 -77t-48.5 -78.5
t-76 -77.5t-111.5 -68.5t-151 -56.5t-199.5 -36.5t-252 -14zM563 -537v199h234q33 0 45 10.5t12 32.5q0 21 -12 31t-45 10h-144v254h326v-94q105 0 182.5 -11t124.5 -29t75 -46.5t38 -58.5t10 -70v-4q0 -40 -10.5 -71.5t-39 -61t-75.5 -49t-124.5 -31t-182.5 -11.5h-414z
" />
    <glyph glyph-name="egrave" unicode="&#xe8;" horiz-adv-x="1966" 
d="M764 711h442q-8 58 -57.5 90.5t-163.5 32.5q-119 0 -165.5 -33t-55.5 -90zM1944 422v-4q0 -40 -7 -76t-30 -83t-62 -85.5t-109.5 -77.5t-164.5 -66t-235 -44t-314 -17h-92q-175 0 -316 22t-233.5 56t-160.5 85.5t-104 100t-57.5 110.5t-26.5 106.5t-5 97.5v28
q0 52 5.5 96t27 103.5t57.5 106.5t104.5 96t161.5 81.5t233.5 53.5t315.5 21h90q140 0 258.5 -13t206 -34.5t157.5 -55.5t117.5 -69t82 -81.5t53.5 -88t30 -93t14 -91.5t3 -89v-29h-1182q3 -34 14 -63t34.5 -57t69 -44t109.5 -16q55 0 97 10.5t63 22t35.5 31.5t17 28t6.5 21
h736zM1303 1165h-631l-244 359h700z" />
    <glyph glyph-name="eacute" unicode="&#xe9;" horiz-adv-x="1966" 
d="M764 711h442q-8 58 -57.5 90.5t-163.5 32.5q-119 0 -165.5 -33t-55.5 -90zM1944 422v-4q0 -40 -7 -76t-30 -83t-62 -85.5t-109.5 -77.5t-164.5 -66t-235 -44t-314 -17h-92q-175 0 -316 22t-233.5 56t-160.5 85.5t-104 100t-57.5 110.5t-26.5 106.5t-5 97.5v28
q0 52 5.5 96t27 103.5t57.5 106.5t104.5 96t161.5 81.5t233.5 53.5t315.5 21h90q140 0 258.5 -13t206 -34.5t157.5 -55.5t117.5 -69t82 -81.5t53.5 -88t30 -93t14 -91.5t3 -89v-29h-1182q3 -34 14 -63t34.5 -57t69 -44t109.5 -16q55 0 97 10.5t63 22t35.5 31.5t17 28t6.5 21
h736zM674 1165l174 359h700l-243 -359h-631z" />
    <glyph glyph-name="ecircumflex" unicode="&#xea;" horiz-adv-x="1966" 
d="M764 711h442q-8 58 -57.5 90.5t-163.5 32.5q-119 0 -165.5 -33t-55.5 -90zM1944 422v-4q0 -40 -7 -76t-30 -83t-62 -85.5t-109.5 -77.5t-164.5 -66t-235 -44t-314 -17h-92q-175 0 -316 22t-233.5 56t-160.5 85.5t-104 100t-57.5 110.5t-26.5 106.5t-5 97.5v28
q0 52 5.5 96t27 103.5t57.5 106.5t104.5 96t161.5 81.5t233.5 53.5t315.5 21h90q140 0 258.5 -13t206 -34.5t157.5 -55.5t117.5 -69t82 -81.5t53.5 -88t30 -93t14 -91.5t3 -89v-29h-1182q3 -34 14 -63t34.5 -57t69 -44t109.5 -16q55 0 97 10.5t63 22t35.5 31.5t17 28t6.5 21
h736zM1341 1524l318 -359h-569l-107 144l-104 -144h-564l320 359h706z" />
    <glyph glyph-name="edieresis" unicode="&#xeb;" horiz-adv-x="1966" 
d="M764 711h442q-8 58 -57.5 90.5t-163.5 32.5q-119 0 -165.5 -33t-55.5 -90zM1944 422v-4q0 -40 -7 -76t-30 -83t-62 -85.5t-109.5 -77.5t-164.5 -66t-235 -44t-314 -17h-92q-175 0 -316 22t-233.5 56t-160.5 85.5t-104 100t-57.5 110.5t-26.5 106.5t-5 97.5v28
q0 52 5.5 96t27 103.5t57.5 106.5t104.5 96t161.5 81.5t233.5 53.5t315.5 21h90q140 0 258.5 -13t206 -34.5t157.5 -55.5t117.5 -69t82 -81.5t53.5 -88t30 -93t14 -91.5t3 -89v-29h-1182q3 -34 14 -63t34.5 -57t69 -44t109.5 -16q55 0 97 10.5t63 22t35.5 31.5t17 28t6.5 21
h736zM1602 1524v-359h-576v359h576zM948 1524v-359h-573v359h573z" />
    <glyph glyph-name="igrave" unicode="&#xec;" horiz-adv-x="856" 
d="M801 1102v-1102h-746v1102h746zM745 1165h-630l-244 359h700z" />
    <glyph glyph-name="iacute" unicode="&#xed;" horiz-adv-x="856" 
d="M801 1102v-1102h-746v1102h746zM113 1165l174 359h700l-244 -359h-630z" />
    <glyph glyph-name="icircumflex" unicode="&#xee;" horiz-adv-x="856" 
d="M731 1524l232 -359h-455l-84 144l-82 -144h-448l233 359h604zM801 1102v-1102h-746v1102h746z" />
    <glyph glyph-name="idieresis" unicode="&#xef;" horiz-adv-x="856" 
d="M897 1524v-359h-438v359h438zM397 1524v-359h-438v359h438zM801 1102v-1102h-746v1102h746z" />
    <glyph glyph-name="eth" unicode="&#xf0;" horiz-adv-x="2058" 
d="M1073 -31h-112q-157 0 -289 18t-226.5 48.5t-168.5 74t-120.5 91.5t-76 105t-41.5 111t-12 111v43q0 55 8 105.5t27.5 103.5t51 97.5t81 84.5t113.5 68t153 44t196 16h21q280 0 455 -76l-236 170l-582 -60v191l351 35l-242 174h866l133 -97l455 48v-193l-219 -22
q207 -154 290 -300t83 -342v-40q0 -58 -7.5 -109.5t-32.5 -115.5t-66 -116t-114.5 -103.5t-171.5 -86.5t-243.5 -56.5t-323.5 -21.5zM1026 315h6q71 0 122 24.5t76 64.5t35.5 79.5t10.5 81.5q0 30 -5.5 57.5t-21.5 58.5t-42 54t-71 38t-104 15h-6q-58 0 -102.5 -15
t-70.5 -38t-42.5 -54t-22.5 -59t-6 -57q0 -34 5.5 -65t21.5 -66t42 -60.5t71 -42t104 -16.5z" />
    <glyph glyph-name="ntilde" unicode="&#xf1;" horiz-adv-x="2023" 
d="M55 0v1102h746v-207q23 23 46 43t81.5 57.5t120.5 63.5t159.5 46.5t202.5 20.5h10q96 0 177 -16.5t136 -42.5t98 -62.5t68 -72.5t41 -76t21.5 -70t5.5 -57v-729h-745v494q0 211 -211 211q-109 0 -160 -60t-51 -149v-496h-746zM1298 1163h-4q-53 0 -100.5 8t-74 16
t-122.5 38q-77 28 -112 28q-33 0 -33 -43v-47h-387v180q0 203 278 203h5q73 0 131 -11.5t176 -49.5q86 -27 104 -27q29 0 29 33v55h389v-153q0 -32 -4 -58.5t-20.5 -60t-45 -56.5t-82.5 -39t-127 -16z" />
    <glyph glyph-name="ograve" unicode="&#xf2;" horiz-adv-x="2058" 
d="M1112 -31h-166q-174 0 -315 22t-235 56.5t-164 85t-108 100t-61 110t-29.5 105.5t-6.5 95v28q0 49 6.5 93.5t29.5 103.5t61 107.5t108.5 98t164 83t234 55t313.5 21.5h172q139 0 257 -13t204.5 -35t156.5 -54.5t116.5 -66.5t81 -77.5t53.5 -81.5t30 -83t14 -78t3 -71v-32
q0 -38 -3 -72t-14.5 -79.5t-31 -84.5t-54.5 -83t-82 -79.5t-117.5 -68.5t-157 -55.5t-204.5 -36t-256 -13.5zM1026 315h6q71 0 122 24.5t76 64.5t35.5 79.5t10.5 81.5q0 30 -5.5 57.5t-21.5 58.5t-42 54t-71 38t-104 15h-6q-58 0 -102.5 -15t-70.5 -38t-42.5 -54t-22.5 -59
t-6 -57q0 -34 5.5 -65t21.5 -66t42 -60.5t71 -42t104 -16.5zM1346 1165h-631l-244 359h700z" />
    <glyph glyph-name="oacute" unicode="&#xf3;" horiz-adv-x="2058" 
d="M1112 -31h-166q-174 0 -315 22t-235 56.5t-164 85t-108 100t-61 110t-29.5 105.5t-6.5 95v28q0 49 6.5 93.5t29.5 103.5t61 107.5t108.5 98t164 83t234 55t313.5 21.5h172q139 0 257 -13t204.5 -35t156.5 -54.5t116.5 -66.5t81 -77.5t53.5 -81.5t30 -83t14 -78t3 -71v-32
q0 -38 -3 -72t-14.5 -79.5t-31 -84.5t-54.5 -83t-82 -79.5t-117.5 -68.5t-157 -55.5t-204.5 -36t-256 -13.5zM1026 315h6q71 0 122 24.5t76 64.5t35.5 79.5t10.5 81.5q0 30 -5.5 57.5t-21.5 58.5t-42 54t-71 38t-104 15h-6q-58 0 -102.5 -15t-70.5 -38t-42.5 -54t-22.5 -59
t-6 -57q0 -34 5.5 -65t21.5 -66t42 -60.5t71 -42t104 -16.5zM711 1165l174 359h700l-244 -359h-630z" />
    <glyph glyph-name="ocircumflex" unicode="&#xf4;" horiz-adv-x="2058" 
d="M1112 -31h-166q-174 0 -315 22t-235 56.5t-164 85t-108 100t-61 110t-29.5 105.5t-6.5 95v28q0 49 6.5 93.5t29.5 103.5t61 107.5t108.5 98t164 83t234 55t313.5 21.5h172q139 0 257 -13t204.5 -35t156.5 -54.5t116.5 -66.5t81 -77.5t53.5 -81.5t30 -83t14 -78t3 -71v-32
q0 -38 -3 -72t-14.5 -79.5t-31 -84.5t-54.5 -83t-82 -79.5t-117.5 -68.5t-157 -55.5t-204.5 -36t-256 -13.5zM1026 315h6q71 0 122 24.5t76 64.5t35.5 79.5t10.5 81.5q0 30 -5.5 57.5t-21.5 58.5t-42 54t-71 38t-104 15h-6q-58 0 -102.5 -15t-70.5 -38t-42.5 -54t-22.5 -59
t-6 -57q0 -34 5.5 -65t21.5 -66t42 -60.5t71 -42t104 -16.5zM1382 1524l318 -359h-570l-106 144l-104 -144h-564l320 359h706z" />
    <glyph glyph-name="otilde" unicode="&#xf5;" horiz-adv-x="2058" 
d="M1112 -31h-166q-174 0 -315 22t-235 56.5t-164 85t-108 100t-61 110t-29.5 105.5t-6.5 95v28q0 49 6.5 93.5t29.5 103.5t61 107.5t108.5 98t164 83t234 55t313.5 21.5h172q139 0 257 -13t204.5 -35t156.5 -54.5t116.5 -66.5t81 -77.5t53.5 -81.5t30 -83t14 -78t3 -71v-32
q0 -38 -3 -72t-14.5 -79.5t-31 -84.5t-54.5 -83t-82 -79.5t-117.5 -68.5t-157 -55.5t-204.5 -36t-256 -13.5zM1026 315h6q71 0 122 24.5t76 64.5t35.5 79.5t10.5 81.5q0 30 -5.5 57.5t-21.5 58.5t-42 54t-71 38t-104 15h-6q-58 0 -102.5 -15t-70.5 -38t-42.5 -54t-22.5 -59
t-6 -57q0 -34 5.5 -65t21.5 -66t42 -60.5t71 -42t104 -16.5zM1303 1178h-5q-53 0 -99 7.5t-76.5 16t-121.5 37.5q-79 29 -112 29t-33 -43v-47h-387v180q0 203 279 203h4q73 0 130 -12t177 -50q83 -26 104 -26q29 0 29 32v56h389v-154q0 -32 -4 -58t-20.5 -60t-44.5 -56.5
t-82 -38.5t-127 -16z" />
    <glyph glyph-name="odieresis" unicode="&#xf6;" horiz-adv-x="2058" 
d="M1112 -31h-166q-174 0 -315 22t-235 56.5t-164 85t-108 100t-61 110t-29.5 105.5t-6.5 95v28q0 49 6.5 93.5t29.5 103.5t61 107.5t108.5 98t164 83t234 55t313.5 21.5h172q139 0 257 -13t204.5 -35t156.5 -54.5t116.5 -66.5t81 -77.5t53.5 -81.5t30 -83t14 -78t3 -71v-32
q0 -38 -3 -72t-14.5 -79.5t-31 -84.5t-54.5 -83t-82 -79.5t-117.5 -68.5t-157 -55.5t-204.5 -36t-256 -13.5zM1026 315h6q71 0 122 24.5t76 64.5t35.5 79.5t10.5 81.5q0 30 -5.5 57.5t-21.5 58.5t-42 54t-71 38t-104 15h-6q-58 0 -102.5 -15t-70.5 -38t-42.5 -54t-22.5 -59
t-6 -57q0 -34 5.5 -65t21.5 -66t42 -60.5t71 -42t104 -16.5zM1642 1524v-359h-575v359h575zM989 1524v-359h-573v359h573z" />
    <glyph glyph-name="divide" unicode="&#xf7;" horiz-adv-x="1218" 
d="M827 1241v-358h-438v358h438zM29 811h1161v-356h-1161v356zM827 379v-356h-438v356h438z" />
    <glyph glyph-name="oslash" unicode="&#xf8;" horiz-adv-x="2058" 
d="M1100 -31h-168q-299 0 -490 72l-67 -41h-387l235 154q-196 136 -196 389v28q0 50 6.5 94t29.5 103t61 107.5t109 98t166 83t238 55t319 21.5h172q289 0 480 -68l57 37h395l-217 -146q189 -148 189 -383v-32q0 -51 -6 -95.5t-28.5 -105t-60.5 -109.5t-109 -99.5t-166 -85
t-239.5 -56t-322.5 -21.5zM758 565q0 -44 4 -59l416 272q-70 25 -148 25h-6q-63 0 -112 -16t-77.5 -40t-46.5 -57t-24 -63t-6 -62zM1030 301h4q63 0 112 18t77.5 45t46.5 63.5t24 69.5t6 68q0 27 -2 41l-419 -276q63 -29 151 -29z" />
    <glyph glyph-name="ugrave" unicode="&#xf9;" horiz-adv-x="2009" 
d="M1954 1102v-1102h-746v207q-21 -23 -46 -46t-80 -59t-117.5 -62t-158.5 -45.5t-202 -19.5h-12q-96 0 -176 16.5t-134 43.5t-96 63.5t-66 74t-39.5 78.5t-20.5 73t-5 61v717h746v-494q0 -211 203 -211q55 0 96.5 18.5t64 49.5t33 66.5t10.5 74.5v496h746zM1335 1165h-630
l-244 359h700z" />
    <glyph glyph-name="uacute" unicode="&#xfa;" horiz-adv-x="2009" 
d="M1954 1102v-1102h-746v207q-21 -23 -46 -46t-80 -59t-117.5 -62t-158.5 -45.5t-202 -19.5h-12q-96 0 -176 16.5t-134 43.5t-96 63.5t-66 74t-39.5 78.5t-20.5 73t-5 61v717h746v-494q0 -211 203 -211q55 0 96.5 18.5t64 49.5t33 66.5t10.5 74.5v496h746zM684 1165
l174 359h701l-244 -359h-631z" />
    <glyph glyph-name="ucircumflex" unicode="&#xfb;" horiz-adv-x="2009" 
d="M1954 1102v-1102h-746v207q-21 -23 -46 -46t-80 -59t-117.5 -62t-158.5 -45.5t-202 -19.5h-12q-96 0 -176 16.5t-134 43.5t-96 63.5t-66 74t-39.5 78.5t-20.5 73t-5 61v717h746v-494q0 -211 203 -211q55 0 96.5 18.5t64 49.5t33 66.5t10.5 74.5v496h746zM1358 1524
l317 -359h-569l-107 144l-104 -144h-563l319 359h707z" />
    <glyph glyph-name="udieresis" unicode="&#xfc;" horiz-adv-x="2009" 
d="M1954 1102v-1102h-746v207q-21 -23 -46 -46t-80 -59t-117.5 -62t-158.5 -45.5t-202 -19.5h-12q-96 0 -176 16.5t-134 43.5t-96 63.5t-66 74t-39.5 78.5t-20.5 73t-5 61v717h746v-494q0 -211 203 -211q55 0 96.5 18.5t64 49.5t33 66.5t10.5 74.5v496h746zM1618 1524v-359
h-576v359h576zM965 1524v-359h-574v359h574z" />
    <glyph glyph-name="yacute" unicode="&#xfd;" horiz-adv-x="1865" 
d="M242 -385v362h235q49 0 49 37v2q0 5 -0.5 10.5t-3 12.5t-4 12t-6.5 15t-7 14.5t-9 18t-9 18.5l-510 985h791l215 -625l172 625h733l-440 -1096q-84 -207 -194.5 -299t-266.5 -92h-745zM641 1165l174 359h701l-244 -359h-631z" />
    <glyph glyph-name="thorn" unicode="&#xfe;" horiz-adv-x="2011" 
d="M801 553v-8q0 -36 11.5 -72t36 -69t69 -53.5t102.5 -20.5h12q54 0 94 20t61 53t30.5 68t9.5 72v8q0 39 -9.5 75t-30.5 69t-61 53t-94 20h-12q-59 0 -103 -19t-68.5 -51.5t-36 -68.5t-11.5 -76zM55 1524h746v-568q18 15 38 29.5t66.5 38.5t98 41.5t130 31t164.5 13.5h56
q149 0 263.5 -32.5t182 -83t110 -120.5t57.5 -135.5t15 -138.5v-51q0 -82 -17 -156t-62.5 -149t-116.5 -129.5t-187.5 -88.5t-267.5 -34h-53q-95 0 -182 12.5t-147 31.5t-93.5 33.5t-54.5 26.5v-481h-746v1909z" />
    <glyph glyph-name="ydieresis" unicode="&#xff;" horiz-adv-x="1865" 
d="M242 -385v362h235q49 0 49 37v2q0 5 -0.5 10.5t-3 12.5t-4 12t-6.5 15t-7 14.5t-9 18t-9 18.5l-510 985h791l215 -625l172 625h733l-440 -1096q-84 -207 -194.5 -299t-266.5 -92h-745zM1575 1524v-359h-576v359h576zM922 1524v-359h-574v359h574z" />
    <glyph glyph-name="Amacron" unicode="&#x100;" horiz-adv-x="2514" 
d="M1399 633l-187 422l-182 -422h369zM1677 0l-80 182h-761l-80 -182h-787l719 1524h1094l764 -1524h-869zM700 1606v290h1074v-290h-1074z" />
    <glyph glyph-name="amacron" unicode="&#x101;" horiz-adv-x="1910" 
d="M1063 440v74l-238 -63q-40 -11 -60 -29t-20 -49v-2q0 -36 29 -63t94 -27q93 0 144 45t51 114zM1069 139q-27 -24 -65 -47t-102 -50.5t-158.5 -44.5t-204.5 -17h-13q-133 0 -233.5 29.5t-157.5 79.5t-84.5 109t-27.5 126v41q0 61 19 108.5t64 89t128 67.5t202 36l580 47
q29 4 39 15t10 30v2q0 69 -152 69h-4q-168 0 -168 -90h-692v25q0 39 4.5 68.5t23 69.5t51 69.5t92.5 60.5t142 51t206.5 32.5t279.5 12.5h117q163 0 293.5 -13.5t216.5 -34t149.5 -51.5t97 -61t53 -68t24.5 -65.5t5 -60.5v-377q0 -35 29 -35h63v-362h-641q-162 0 -186 139z
M397 1192v291h1043v-291h-1043z" />
    <glyph glyph-name="Abreve" unicode="&#x102;" horiz-adv-x="2514" 
d="M1399 633l-187 422l-182 -422h369zM1677 0l-80 182h-761l-80 -182h-787l719 1524h1094l764 -1524h-869zM1294 1583h-104q-93 0 -169 15t-127 38.5t-90 57t-60.5 67t-34.5 72t-17 68t-4 59.5v4h422q0 -12 5 -26.5t17 -33.5t40.5 -31.5t68.5 -12.5h4q39 0 67 12.5
t39.5 31.5t16 33.5t4.5 26.5h416v-4q0 -41 -11.5 -86t-45 -98.5t-85.5 -95t-143.5 -69.5t-208.5 -28z" />
    <glyph glyph-name="abreve" unicode="&#x103;" horiz-adv-x="1910" 
d="M969 1169h-111q-120 0 -212 26t-143 64.5t-83.5 89t-42.5 91t-10 80.5v4h413q0 -27 32.5 -56.5t100.5 -29.5h5q36 0 63 9.5t40 24.5t18.5 27.5t7.5 24.5h409v-4q0 -31 -10 -65.5t-31 -75.5t-59.5 -77.5t-89.5 -66.5t-128 -48t-169 -18zM1063 440v74l-238 -63
q-40 -11 -60 -29t-20 -49v-2q0 -36 29 -63t94 -27q93 0 144 45t51 114zM1069 139q-27 -24 -65 -47t-102 -50.5t-158.5 -44.5t-204.5 -17h-13q-133 0 -233.5 29.5t-157.5 79.5t-84.5 109t-27.5 126v41q0 61 19 108.5t64 89t128 67.5t202 36l580 47q29 4 39 15t10 30v2
q0 69 -152 69h-4q-168 0 -168 -90h-692v25q0 39 4.5 68.5t23 69.5t51 69.5t92.5 60.5t142 51t206.5 32.5t279.5 12.5h117q163 0 293.5 -13.5t216.5 -34t149.5 -51.5t97 -61t53 -68t24.5 -65.5t5 -60.5v-377q0 -35 29 -35h63v-362h-641q-162 0 -186 139z" />
    <glyph glyph-name="Aogonek" unicode="&#x104;" horiz-adv-x="2514" 
d="M1399 633l-187 422l-182 -422h369zM1677 0l-80 182h-761l-80 -182h-787l719 1524h1094l764 -1524h-869zM1755 -233v10q0 83 116.5 133t371.5 90h303q-63 -34 -96 -61t-33 -54v-2q0 -35 51 -35h78v-233h-424q-198 0 -282.5 38.5t-84.5 113.5z" />
    <glyph glyph-name="aogonek" unicode="&#x105;" horiz-adv-x="1910" 
d="M1063 440v74l-238 -63q-40 -11 -60 -29t-20 -49v-2q0 -36 29 -63t94 -27q93 0 144 45t51 114zM1069 139q-27 -24 -65 -47t-102 -50.5t-158.5 -44.5t-204.5 -17h-13q-133 0 -233.5 29.5t-157.5 79.5t-84.5 109t-27.5 126v41q0 61 19 108.5t64 89t128 67.5t202 36l580 47
q29 4 39 15t10 30v2q0 69 -152 69h-4q-168 0 -168 -90h-692v25q0 39 4.5 68.5t23 69.5t51 69.5t92.5 60.5t142 51t206.5 32.5t279.5 12.5h117q163 0 293.5 -13.5t216.5 -34t149.5 -51.5t97 -61t53 -68t24.5 -65.5t5 -60.5v-377q0 -35 29 -35h63v-362h-641q-162 0 -186 139z
M1106 -233v10q0 83 116.5 133t370.5 90h303q-63 -34 -96 -61t-33 -54v-2q0 -35 52 -35h77v-233h-423q-198 0 -282.5 38.5t-84.5 113.5z" />
    <glyph glyph-name="Cacute" unicode="&#x106;" horiz-adv-x="2453" 
d="M909 1604l115 321h725l-188 -321h-652zM1288 -31h-71q-1186 0 -1186 766v62q0 76 10 143t42 146t84 143.5t143 126.5t212.5 104t299 68t395.5 26h71q209 0 380.5 -24.5t287.5 -64t204 -96t137.5 -113t80 -123t40 -119t9.5 -107.5v-30h-789q-18 59 -54 95q-100 97 -343 97
q-100 0 -175.5 -17.5t-119.5 -44.5t-70.5 -66t-35.5 -76t-9 -81v-24q0 -43 9.5 -82t37 -80.5t71 -71t119 -48.5t173.5 -19q101 0 177.5 19t115.5 43t64.5 58.5t31 52t8.5 36.5h789v-54q0 -39 -5.5 -78t-22 -89t-43 -95.5t-72 -94t-105.5 -89.5t-147 -78.5t-192.5 -63.5
t-246.5 -41.5t-305 -15.5z" />
    <glyph glyph-name="cacute" unicode="&#x107;" horiz-adv-x="1964" 
d="M670 1180l168 344h700l-238 -344h-630zM1065 -31h-143q-139 0 -257 13.5t-203 35.5t-154 56t-113.5 68.5t-77 80t-49.5 83t-27 85.5t-12 79.5t-2 72.5v28q0 40 2 71.5t11.5 78.5t26.5 83.5t49.5 81.5t77 78t113 66.5t154 55t203 34.5t256.5 13h147q133 0 246 -12.5
t196 -33.5t150 -52t111.5 -63t78 -72t51 -75t28 -75t13.5 -68t3 -59v-7h-756q0 14 -4 32.5t-16.5 44.5t-33 47t-57 36t-84.5 15h-10q-51 0 -88.5 -14t-58.5 -35.5t-33.5 -53t-16.5 -59.5t-4 -62v-2q0 -248 201 -248h10q47 0 84 16.5t57.5 39t33 51t16.5 48.5t4 34h756v-6
q0 -29 -2 -55t-12 -67.5t-26.5 -77t-48.5 -78.5t-76 -77.5t-111.5 -68.5t-151 -56.5t-199.5 -36.5t-252 -14z" />
    <glyph glyph-name="Ccircumflex" unicode="&#x108;" horiz-adv-x="2453" 
d="M1604 1925l335 -323h-591l-111 118l-113 -118h-585l331 323h734zM1288 -31h-71q-1186 0 -1186 766v62q0 76 10 143t42 146t84 143.5t143 126.5t212.5 104t299 68t395.5 26h71q209 0 380.5 -24.5t287.5 -64t204 -96t137.5 -113t80 -123t40 -119t9.5 -107.5v-30h-789
q-18 59 -54 95q-100 97 -343 97q-100 0 -175.5 -17.5t-119.5 -44.5t-70.5 -66t-35.5 -76t-9 -81v-24q0 -43 9.5 -82t37 -80.5t71 -71t119 -48.5t173.5 -19q101 0 177.5 19t115.5 43t64.5 58.5t31 52t8.5 36.5h789v-54q0 -39 -5.5 -78t-22 -89t-43 -95.5t-72 -94
t-105.5 -89.5t-147 -78.5t-192.5 -63.5t-246.5 -41.5t-305 -15.5z" />
    <glyph glyph-name="ccircumflex" unicode="&#x109;" horiz-adv-x="1964" 
d="M1339 1524l318 -348h-570l-106 133l-104 -133h-564l320 348h706zM1065 -31h-143q-139 0 -257 13.5t-203 35.5t-154 56t-113.5 68.5t-77 80t-49.5 83t-27 85.5t-12 79.5t-2 72.5v28q0 40 2 71.5t11.5 78.5t26.5 83.5t49.5 81.5t77 78t113 66.5t154 55t203 34.5t256.5 13
h147q133 0 246 -12.5t196 -33.5t150 -52t111.5 -63t78 -72t51 -75t28 -75t13.5 -68t3 -59v-7h-756q0 14 -4 32.5t-16.5 44.5t-33 47t-57 36t-84.5 15h-10q-51 0 -88.5 -14t-58.5 -35.5t-33.5 -53t-16.5 -59.5t-4 -62v-2q0 -248 201 -248h10q47 0 84 16.5t57.5 39t33 51
t16.5 48.5t4 34h756v-6q0 -29 -2 -55t-12 -67.5t-26.5 -77t-48.5 -78.5t-76 -77.5t-111.5 -68.5t-151 -56.5t-199.5 -36.5t-252 -14z" />
    <glyph glyph-name="Cdotaccent" unicode="&#x10a;" horiz-adv-x="2453" 
d="M1626 1925v-321h-754v321h754zM1288 -31h-71q-1186 0 -1186 766v62q0 76 10 143t42 146t84 143.5t143 126.5t212.5 104t299 68t395.5 26h71q209 0 380.5 -24.5t287.5 -64t204 -96t137.5 -113t80 -123t40 -119t9.5 -107.5v-30h-789q-18 59 -54 95q-100 97 -343 97
q-100 0 -175.5 -17.5t-119.5 -44.5t-70.5 -66t-35.5 -76t-9 -81v-24q0 -43 9.5 -82t37 -80.5t71 -71t119 -48.5t173.5 -19q101 0 177.5 19t115.5 43t64.5 58.5t31 52t8.5 36.5h789v-54q0 -39 -5.5 -78t-22 -89t-43 -95.5t-72 -94t-105.5 -89.5t-147 -78.5t-192.5 -63.5
t-246.5 -41.5t-305 -15.5z" />
    <glyph glyph-name="cdotaccent" unicode="&#x10b;" horiz-adv-x="1964" 
d="M1360 1524v-344h-750v344h750zM1065 -31h-143q-139 0 -257 13.5t-203 35.5t-154 56t-113.5 68.5t-77 80t-49.5 83t-27 85.5t-12 79.5t-2 72.5v28q0 40 2 71.5t11.5 78.5t26.5 83.5t49.5 81.5t77 78t113 66.5t154 55t203 34.5t256.5 13h147q133 0 246 -12.5t196 -33.5
t150 -52t111.5 -63t78 -72t51 -75t28 -75t13.5 -68t3 -59v-7h-756q0 14 -4 32.5t-16.5 44.5t-33 47t-57 36t-84.5 15h-10q-51 0 -88.5 -14t-58.5 -35.5t-33.5 -53t-16.5 -59.5t-4 -62v-2q0 -248 201 -248h10q47 0 84 16.5t57.5 39t33 51t16.5 48.5t4 34h756v-6q0 -29 -2 -55
t-12 -67.5t-26.5 -77t-48.5 -78.5t-76 -77.5t-111.5 -68.5t-151 -56.5t-199.5 -36.5t-252 -14z" />
    <glyph glyph-name="Ccaron" unicode="&#x10c;" horiz-adv-x="2453" 
d="M870 1604l-338 321h596l111 -117l113 117h590l-330 -321h-742zM1288 -31h-71q-1186 0 -1186 766v62q0 76 10 143t42 146t84 143.5t143 126.5t212.5 104t299 68t395.5 26h71q209 0 380.5 -24.5t287.5 -64t204 -96t137.5 -113t80 -123t40 -119t9.5 -107.5v-30h-789
q-18 59 -54 95q-100 97 -343 97q-100 0 -175.5 -17.5t-119.5 -44.5t-70.5 -66t-35.5 -76t-9 -81v-24q0 -43 9.5 -82t37 -80.5t71 -71t119 -48.5t173.5 -19q101 0 177.5 19t115.5 43t64.5 58.5t31 52t8.5 36.5h789v-54q0 -39 -5.5 -78t-22 -89t-43 -95.5t-72 -94
t-105.5 -89.5t-147 -78.5t-192.5 -63.5t-246.5 -41.5t-305 -15.5z" />
    <glyph glyph-name="ccaron" unicode="&#x10d;" horiz-adv-x="1964" 
d="M610 1180l-305 344h580l104 -144l107 144h573l-307 -344h-752zM1065 -31h-143q-139 0 -257 13.5t-203 35.5t-154 56t-113.5 68.5t-77 80t-49.5 83t-27 85.5t-12 79.5t-2 72.5v28q0 40 2 71.5t11.5 78.5t26.5 83.5t49.5 81.5t77 78t113 66.5t154 55t203 34.5t256.5 13h147
q133 0 246 -12.5t196 -33.5t150 -52t111.5 -63t78 -72t51 -75t28 -75t13.5 -68t3 -59v-7h-756q0 14 -4 32.5t-16.5 44.5t-33 47t-57 36t-84.5 15h-10q-51 0 -88.5 -14t-58.5 -35.5t-33.5 -53t-16.5 -59.5t-4 -62v-2q0 -248 201 -248h10q47 0 84 16.5t57.5 39t33 51
t16.5 48.5t4 34h756v-6q0 -29 -2 -55t-12 -67.5t-26.5 -77t-48.5 -78.5t-76 -77.5t-111.5 -68.5t-151 -56.5t-199.5 -36.5t-252 -14z" />
    <glyph glyph-name="Dcaron" unicode="&#x10e;" horiz-adv-x="2455" 
d="M63 0v1524h1221q254 0 452 -37.5t326.5 -102.5t212 -158t118 -196.5t34.5 -226.5v-64q0 -86 -14 -161t-49.5 -151t-91.5 -138t-145.5 -117t-206.5 -92t-278.5 -58.5t-357.5 -21.5h-1221zM842 1051v-580h311q91 0 164.5 11.5t121.5 30t83.5 45t54 51.5t29.5 56t13.5 52
t2.5 45v12q0 23 -3 44t-14.5 50t-30.5 53t-54.5 49t-83.5 42t-120.5 28t-162.5 11h-311zM709 1589l-353 336h590l111 -117l112 117h584l-344 -336h-700z" />
    <glyph glyph-name="dcaron" unicode="&#x10f;" horiz-adv-x="2000" 
d="M1200 555v16q0 34 -10.5 66t-33.5 62.5t-67 49.5t-102 19h-8q-45 0 -80.5 -13t-57 -33t-35.5 -47.5t-19 -53.5t-5 -54v-10q0 -40 9 -75t29.5 -68t60.5 -52.5t96 -19.5h8q59 0 103 19t67.5 51t34 67.5t10.5 75.5zM1200 1524h746v-1524h-746v145q-167 -153 -506 -153h-51
q-133 0 -239 31t-175 82t-115 121.5t-65.5 146t-19.5 157.5v52q0 79 19 152t63.5 142.5t112 120.5t172 82t235.5 31h51q334 0 518 -129v543zM1989 1163l20 361h526l-51 -361h-495z" />
    <glyph glyph-name="Dcroat" unicode="&#x110;" horiz-adv-x="2523" 
d="M131 0v588h-121v358h121v578h1221q254 0 452 -37.5t326.5 -102.5t211.5 -158t117.5 -196.5t34.5 -226.5v-64q0 -86 -14 -160.5t-49 -151t-91.5 -138.5t-145.5 -117t-206 -92t-278.5 -58.5t-357.5 -21.5h-1221zM909 1051v-105h500v-358h-500v-117h312q91 0 164.5 11.5
t121.5 30t83.5 45t54 51.5t29.5 56t13.5 52t2.5 45v12q0 23 -3 44t-14.5 50t-30.5 53t-54.5 49t-83.5 42t-120.5 28t-162.5 11h-312z" />
    <glyph glyph-name="dcroat" unicode="&#x111;" horiz-adv-x="2000" 
d="M711 1176v254h1343v-254h-1343zM1200 555v16q0 34 -10.5 66t-33.5 62.5t-67 49.5t-102 19h-8q-45 0 -80.5 -13t-57 -33t-35.5 -47.5t-19 -53.5t-5 -54v-10q0 -40 9 -75t29.5 -68t60.5 -52.5t96 -19.5h8q59 0 103 19t67.5 51t34 67.5t10.5 75.5zM1200 1524h746v-1524h-746
v145q-167 -153 -506 -153h-51q-133 0 -239 31t-175 82t-115 121.5t-65.5 146t-19.5 157.5v52q0 79 19 152t63.5 142.5t112 120.5t172 82t235.5 31h51q334 0 518 -129v543z" />
    <glyph glyph-name="Emacron" unicode="&#x112;" horiz-adv-x="1955" 
d="M63 1524h1838v-426h-1072v-119h1059v-418h-1059v-131h1080v-430h-1846v1524zM465 1606v290h1073v-290h-1073z" />
    <glyph glyph-name="emacron" unicode="&#x113;" horiz-adv-x="1966" 
d="M764 711h442q-8 58 -57.5 90.5t-163.5 32.5q-119 0 -165.5 -33t-55.5 -90zM1944 422v-4q0 -40 -7 -76t-30 -83t-62 -85.5t-109.5 -77.5t-164.5 -66t-235 -44t-314 -17h-92q-175 0 -316 22t-233.5 56t-160.5 85.5t-104 100t-57.5 110.5t-26.5 106.5t-5 97.5v28
q0 52 5.5 96t27 103.5t57.5 106.5t104.5 96t161.5 81.5t233.5 53.5t315.5 21h90q140 0 258.5 -13t206 -34.5t157.5 -55.5t117.5 -69t82 -81.5t53.5 -88t30 -93t14 -91.5t3 -89v-29h-1182q3 -34 14 -63t34.5 -57t69 -44t109.5 -16q55 0 97 10.5t63 22t35.5 31.5t17 28t6.5 21
h736zM467 1196v291h1042v-291h-1042z" />
    <glyph glyph-name="Ebreve" unicode="&#x114;" horiz-adv-x="1955" 
d="M63 1524h1838v-426h-1072v-119h1059v-418h-1059v-131h1080v-430h-1846v1524zM1065 1583h-104q-93 0 -169 15t-127 38.5t-90 57t-60.5 67t-34.5 72t-17 68t-4 59.5v4h422q0 -12 5 -26.5t17 -33.5t40.5 -31.5t68.5 -12.5h4q39 0 67 12.5t39.5 31.5t16 33.5t4.5 26.5h416v-4
q0 -41 -11.5 -86t-45 -98.5t-85.5 -95t-143.5 -69.5t-208.5 -28z" />
    <glyph glyph-name="ebreve" unicode="&#x115;" horiz-adv-x="1966" 
d="M1044 1174h-110q-120 0 -212 26t-143.5 64t-84 88t-42.5 90t-10 78v4h416q0 -9 6.5 -21.5t20 -27t41 -24t63.5 -9.5h4q111 0 127 82h412v-4q0 -30 -10 -64t-31 -74t-59.5 -76t-90 -66t-128.5 -48t-169 -18zM764 711h442q-8 58 -57.5 90.5t-163.5 32.5q-119 0 -165.5 -33
t-55.5 -90zM1944 422v-4q0 -40 -7 -76t-30 -83t-62 -85.5t-109.5 -77.5t-164.5 -66t-235 -44t-314 -17h-92q-175 0 -316 22t-233.5 56t-160.5 85.5t-104 100t-57.5 110.5t-26.5 106.5t-5 97.5v28q0 52 5.5 96t27 103.5t57.5 106.5t104.5 96t161.5 81.5t233.5 53.5t315.5 21
h90q140 0 258.5 -13t206 -34.5t157.5 -55.5t117.5 -69t82 -81.5t53.5 -88t30 -93t14 -91.5t3 -89v-29h-1182q3 -34 14 -63t34.5 -57t69 -44t109.5 -16q55 0 97 10.5t63 22t35.5 31.5t17 28t6.5 21h736z" />
    <glyph glyph-name="Edotaccent" unicode="&#x116;" horiz-adv-x="1955" 
d="M63 1524h1838v-426h-1072v-119h1059v-418h-1059v-131h1080v-430h-1846v1524zM1380 1948v-359h-745v359h745z" />
    <glyph glyph-name="edotaccent" unicode="&#x117;" horiz-adv-x="1966" 
d="M1364 1524v-344h-750v344h750zM764 711h442q-8 58 -57.5 90.5t-163.5 32.5q-119 0 -165.5 -33t-55.5 -90zM1944 422v-4q0 -40 -7 -76t-30 -83t-62 -85.5t-109.5 -77.5t-164.5 -66t-235 -44t-314 -17h-92q-175 0 -316 22t-233.5 56t-160.5 85.5t-104 100t-57.5 110.5
t-26.5 106.5t-5 97.5v28q0 52 5.5 96t27 103.5t57.5 106.5t104.5 96t161.5 81.5t233.5 53.5t315.5 21h90q140 0 258.5 -13t206 -34.5t157.5 -55.5t117.5 -69t82 -81.5t53.5 -88t30 -93t14 -91.5t3 -89v-29h-1182q3 -34 14 -63t34.5 -57t69 -44t109.5 -16q55 0 97 10.5t63 22
t35.5 31.5t17 28t6.5 21h736z" />
    <glyph glyph-name="Eogonek" unicode="&#x118;" horiz-adv-x="1955" 
d="M913 -233v10q0 83 116.5 133t371.5 90h303q-63 -34 -96 -61t-33 -54v-2q0 -35 51 -35h84v-233h-430q-198 0 -282.5 38.5t-84.5 113.5zM63 1524h1838v-426h-1072v-119h1059v-418h-1059v-131h1080v-430h-1846v1524z" />
    <glyph glyph-name="eogonek" unicode="&#x119;" horiz-adv-x="1966" 
d="M1657 -152v-233h-430q-198 0 -282.5 38.5t-84.5 113.5v10q0 78 106.5 123.5t370.5 87.5q-160 -19 -315 -19h-92q-175 0 -316 22t-233.5 56t-160.5 85.5t-104 100t-57.5 110.5t-26.5 106.5t-5 97.5v28q0 52 5.5 96t27 103.5t57.5 106.5t104.5 96t161.5 81.5t233.5 53.5
t315.5 21h90q140 0 258.5 -13t206 -34.5t157.5 -55.5t117.5 -69t82 -81.5t53.5 -88t30 -93t14 -91.5t3 -89v-29h-1182q3 -34 14 -63t34.5 -57t69 -44t109.5 -16q55 0 97 10.5t63 22t35.5 31.5t17 28t6.5 21h736v-4q0 -114 -66.5 -208t-226.5 -200q-8 -6 -28 -19t-28 -19
t-23 -17t-21.5 -18t-14.5 -16.5t-11 -18t-3 -17.5v-2q0 -35 51 -35h84zM764 711h442q-8 58 -57.5 90.5t-163.5 32.5q-119 0 -165.5 -33t-55.5 -90z" />
    <glyph glyph-name="Ecaron" unicode="&#x11a;" horiz-adv-x="1955" 
d="M63 1524h1838v-426h-1072v-119h1059v-418h-1059v-131h1080v-430h-1846v1524zM662 1589l-353 336h590l111 -117l112 117h584l-344 -336h-700z" />
    <glyph glyph-name="ecaron" unicode="&#x11b;" horiz-adv-x="1966" 
d="M612 1180l-305 344h580l104 -144l107 144h573l-307 -344h-752zM764 711h442q-8 58 -57.5 90.5t-163.5 32.5q-119 0 -165.5 -33t-55.5 -90zM1944 422v-4q0 -40 -7 -76t-30 -83t-62 -85.5t-109.5 -77.5t-164.5 -66t-235 -44t-314 -17h-92q-175 0 -316 22t-233.5 56
t-160.5 85.5t-104 100t-57.5 110.5t-26.5 106.5t-5 97.5v28q0 52 5.5 96t27 103.5t57.5 106.5t104.5 96t161.5 81.5t233.5 53.5t315.5 21h90q140 0 258.5 -13t206 -34.5t157.5 -55.5t117.5 -69t82 -81.5t53.5 -88t30 -93t14 -91.5t3 -89v-29h-1182q3 -34 14 -63t34.5 -57
t69 -44t109.5 -16q55 0 97 10.5t63 22t35.5 31.5t17 28t6.5 21h736z" />
    <glyph glyph-name="Gcircumflex" unicode="&#x11c;" horiz-adv-x="2521" 
d="M1634 1925l336 -323h-592l-110 118l-113 -118h-586l332 323h733zM1139 -31h-54q-178 0 -326.5 24.5t-255.5 66.5t-190.5 101.5t-135.5 126t-85.5 144.5t-47 152t-13.5 153v62q0 755 1171 755h66q223 0 404.5 -22.5t302 -58t210.5 -88t139.5 -104.5t79 -115.5t37.5 -112
t8 -103.5v-2h-794q-4 16 -12.5 31t-35.5 37t-67.5 38t-114.5 28t-170 12q-218 0 -321 -84t-103 -230v-18q0 -74 23.5 -134t71.5 -107.5t130.5 -74t192.5 -26.5q86 0 156 10t111 25.5t69 34.5t38.5 35t10.5 30h-411v311h1237v-866h-523q-12 37 -38.5 85t-53.5 75
q-21 -20 -46 -38t-86 -48t-133 -51.5t-189 -37.5t-252 -16z" />
    <glyph glyph-name="gcircumflex" unicode="&#x11d;" horiz-adv-x="2029" 
d="M997 752h-10q-109 0 -160 -51t-51 -126v-6q0 -80 51.5 -136t159.5 -56h10q114 0 173 56.5t59 135.5v6q0 73 -59 125t-173 52zM1094 -401h-183q-141 0 -259 13.5t-200.5 36t-146.5 54.5t-102.5 66t-63.5 74t-34 76t-9 73v8h746q11 -70 159 -70h7q106 0 163.5 53t57.5 156
v66q-21 -21 -39.5 -36.5t-65 -41.5t-99.5 -43t-141 -30t-192 -13h-47q-140 0 -249.5 31.5t-177 82t-111.5 121t-61 141t-17 148.5v25q0 78 18 148.5t63 139.5t113.5 119t177.5 80.5t248 30.5h49q98 0 183.5 -11.5t134.5 -23t101.5 -36t65.5 -32.5t46 -30v127h745v-950
q0 -85 -22 -159.5t-82.5 -149t-156 -126.5t-254 -85t-365.5 -33zM1333 1524l318 -359h-570l-106 144l-105 -144h-563l320 359h706z" />
    <glyph glyph-name="Gbreve" unicode="&#x11e;" horiz-adv-x="2521" 
d="M1139 -31h-54q-178 0 -326.5 24.5t-255.5 66.5t-190.5 101.5t-135.5 126t-85.5 144.5t-47 152t-13.5 153v62q0 755 1171 755h66q223 0 404.5 -22.5t302 -58t210.5 -88t139.5 -104.5t79 -115.5t37.5 -112t8 -103.5v-2h-794q-4 16 -12.5 31t-35.5 37t-67.5 38t-114.5 28
t-170 12q-218 0 -321 -84t-103 -230v-18q0 -74 23.5 -134t71.5 -107.5t130.5 -74t192.5 -26.5q86 0 156 10t111 25.5t69 34.5t38.5 35t10.5 30h-411v311h1237v-866h-523q-12 37 -38.5 85t-53.5 75q-21 -20 -46 -38t-86 -48t-133 -51.5t-189 -37.5t-252 -16zM1327 1597h-104
q-93 0 -169 15t-127 38.5t-90 57t-60.5 67t-34.5 72t-17 68t-4 59.5v4h422q0 -12 5 -26.5t17 -33.5t40.5 -31.5t68.5 -12.5h4q39 0 67 12.5t39.5 31.5t16 33.5t4.5 26.5h416v-4q0 -41 -11.5 -86t-45 -98.5t-85.5 -95t-143.5 -69.5t-208.5 -28z" />
    <glyph glyph-name="gbreve" unicode="&#x11f;" horiz-adv-x="2029" 
d="M997 752h-10q-109 0 -160 -51t-51 -126v-6q0 -80 51.5 -136t159.5 -56h10q114 0 173 56.5t59 135.5v6q0 73 -59 125t-173 52zM1094 -401h-183q-141 0 -259 13.5t-200.5 36t-146.5 54.5t-102.5 66t-63.5 74t-34 76t-9 73v8h746q11 -70 159 -70h7q106 0 163.5 53t57.5 156
v66q-21 -21 -39.5 -36.5t-65 -41.5t-99.5 -43t-141 -30t-192 -13h-47q-140 0 -249.5 31.5t-177 82t-111.5 121t-61 141t-17 148.5v25q0 78 18 148.5t63 139.5t113.5 119t177.5 80.5t248 30.5h49q98 0 183.5 -11.5t134.5 -23t101.5 -36t65.5 -32.5t46 -30v127h745v-950
q0 -85 -22 -159.5t-82.5 -149t-156 -126.5t-254 -85t-365.5 -33zM1509 1524v-4q0 -33 -9.5 -69.5t-29.5 -78.5t-58 -79t-89.5 -67.5t-129 -48.5t-171.5 -18h-111q-122 0 -214.5 26.5t-143.5 64.5t-82.5 90.5t-41 94.5t-9.5 85v4h414v-2q0 -12 5 -25.5t18 -29.5t41.5 -26.5
t68.5 -10.5h4q71 0 100 31t29 61v2h409z" />
    <glyph glyph-name="Gdotaccent" unicode="&#x120;" horiz-adv-x="2521" 
d="M1647 1925v-321h-754v321h754zM1139 -31h-54q-178 0 -326.5 24.5t-255.5 66.5t-190.5 101.5t-135.5 126t-85.5 144.5t-47 152t-13.5 153v62q0 755 1171 755h66q223 0 404.5 -22.5t302 -58t210.5 -88t139.5 -104.5t79 -115.5t37.5 -112t8 -103.5v-2h-794q-4 16 -12.5 31
t-35.5 37t-67.5 38t-114.5 28t-170 12q-218 0 -321 -84t-103 -230v-18q0 -74 23.5 -134t71.5 -107.5t130.5 -74t192.5 -26.5q86 0 156 10t111 25.5t69 34.5t38.5 35t10.5 30h-411v311h1237v-866h-523q-12 37 -38.5 85t-53.5 75q-21 -20 -46 -38t-86 -48t-133 -51.5
t-189 -37.5t-252 -16z" />
    <glyph glyph-name="gdotaccent" unicode="&#x121;" horiz-adv-x="2029" 
d="M997 752h-10q-109 0 -160 -51t-51 -126v-6q0 -80 51.5 -136t159.5 -56h10q114 0 173 56.5t59 135.5v6q0 73 -59 125t-173 52zM1094 -401h-183q-141 0 -259 13.5t-200.5 36t-146.5 54.5t-102.5 66t-63.5 74t-34 76t-9 73v8h746q11 -70 159 -70h7q106 0 163.5 53t57.5 156
v66q-21 -21 -39.5 -36.5t-65 -41.5t-99.5 -43t-141 -30t-192 -13h-47q-140 0 -249.5 31.5t-177 82t-111.5 121t-61 141t-17 148.5v25q0 78 18 148.5t63 139.5t113.5 119t177.5 80.5t248 30.5h49q98 0 183.5 -11.5t134.5 -23t101.5 -36t65.5 -32.5t46 -30v127h745v-950
q0 -85 -22 -159.5t-82.5 -149t-156 -126.5t-254 -85t-365.5 -33zM1354 1524v-359h-746v359h746z" />
    <glyph glyph-name="uni0122" unicode="&#x122;" horiz-adv-x="2521" 
d="M1139 -31h-54q-178 0 -326.5 24.5t-255.5 66.5t-190.5 101.5t-135.5 126t-85.5 144.5t-47 152t-13.5 153v62q0 755 1171 755h66q223 0 404.5 -22.5t302 -58t210.5 -88t139.5 -104.5t79 -115.5t37.5 -112t8 -103.5v-2h-794q-4 16 -12.5 31t-35.5 37t-67.5 38t-114.5 28
t-170 12q-218 0 -321 -84t-103 -230v-18q0 -74 23.5 -134t71.5 -107.5t130.5 -74t192.5 -26.5q86 0 156 10t111 25.5t69 34.5t38.5 35t10.5 30h-411v311h1237v-866h-523q-12 37 -38.5 85t-53.5 75q-21 -20 -46 -38t-86 -48t-133 -51.5t-189 -37.5t-252 -16zM1313 -678h-332
q29 40 60 117t36 115h-280v360h661v-276q0 -66 -48 -161.5t-97 -154.5z" />
    <glyph glyph-name="uni0123" unicode="&#x123;" horiz-adv-x="2029" 
d="M997 752h-10q-109 0 -160 -51t-51 -126v-6q0 -80 51.5 -136t159.5 -56h10q114 0 173 56.5t59 135.5v6q0 73 -59 125t-173 52zM1094 -401h-183q-141 0 -259 13.5t-200.5 36t-146.5 54.5t-102.5 66t-63.5 74t-34 76t-9 73v8h746q11 -70 159 -70h7q106 0 163.5 53t57.5 156
v66q-21 -21 -39.5 -36.5t-65 -41.5t-99.5 -43t-141 -30t-192 -13h-47q-140 0 -249.5 31.5t-177 82t-111.5 121t-61 141t-17 148.5v25q0 78 18 148.5t63 139.5t113.5 119t177.5 80.5t248 30.5h49q98 0 183.5 -11.5t134.5 -23t101.5 -36t65.5 -32.5t46 -30v127h745v-950
q0 -85 -22 -159.5t-82.5 -149t-156 -126.5t-254 -85t-365.5 -33zM778 1757h336q-30 -45 -61 -119t-35 -112h278v-361h-663v277q0 65 47.5 160.5t97.5 154.5z" />
    <glyph glyph-name="Hcircumflex" unicode="&#x124;" horiz-adv-x="2498" 
d="M63 0v1524h779v-506h815v506h778v-1524h-778v543h-815v-543h-779zM1597 1925l351 -338h-590l-111 119l-112 -119h-584l346 338h700z" />
    <glyph glyph-name="hcircumflex" unicode="&#x125;" horiz-adv-x="2023" 
d="M55 0v1524h746v-629q23 23 46 43t81.5 57.5t120.5 63.5t159.5 46.5t202.5 20.5h10q96 0 177 -16.5t136 -42.5t98 -62.5t68 -72.5t41 -76t21.5 -70t5.5 -57v-729h-745v494q0 211 -211 211q-109 0 -160 -60t-51 -149v-496h-746zM1251 1923l351 -338h-590l-111 119
l-113 -119h-583l346 338h700z" />
    <glyph glyph-name="Hbar" unicode="&#x126;" horiz-adv-x="2588" 
d="M2 1141v270h2585v-270h-2585zM109 0v1524h778v-506h815v506h778v-1524h-778v543h-815v-543h-778z" />
    <glyph glyph-name="hbar" unicode="&#x127;" horiz-adv-x="2023" 
d="M-53 1430h1343v-254h-1343v254zM55 0v1524h746v-629q23 23 46 43t81.5 57.5t120.5 63.5t159.5 46.5t202.5 20.5h10q96 0 177 -16.5t136 -42.5t98 -62.5t68 -72.5t41 -76t21.5 -70t5.5 -57v-729h-745v494q0 211 -211 211q-109 0 -160 -60t-51 -149v-496h-746z" />
    <glyph glyph-name="Itilde" unicode="&#x128;" horiz-adv-x="903" 
d="M840 1524v-1524h-777v1524h777zM735 1587h-6q-56 0 -104 8t-78 16.5t-123 37.5q-94 30 -125 30t-31 -43v-49h-385v185q0 202 279 202h4q23 0 41.5 -0.5t41.5 -4t34.5 -5.5t42 -9.5t41 -10.5t54 -14.5t60.5 -16.5q93 -27 113 -27q29 0 29 33v55h391v-157q0 -32 -4.5 -58.5
t-21 -60t-45 -56.5t-82 -39t-126.5 -16z" />
    <glyph glyph-name="itilde" unicode="&#x129;" horiz-adv-x="856" 
d="M653 1163h-4q-39 0 -75.5 7.5t-64 17t-101.5 37.5q-67 28 -91 28q-26 0 -26 -43v-47h-311v180q0 203 223 203h2q56 0 106.5 -12t145.5 -49q9 -4 26 -11t23.5 -9t16.5 -4.5t18 -2.5q22 0 22 33v55h314v-153q0 -230 -224 -230zM801 1102v-1102h-746v1102h746z" />
    <glyph glyph-name="Imacron" unicode="&#x12a;" horiz-adv-x="903" 
d="M-68 1606v290h1039v-290h-1039zM840 1524v-1524h-777v1524h777z" />
    <glyph glyph-name="imacron" unicode="&#x12b;" horiz-adv-x="856" 
d="M-23 1182v291h902v-291h-902zM801 1102v-1102h-746v1102h746z" />
    <glyph glyph-name="Ibreve" unicode="&#x12c;" horiz-adv-x="903" 
d="M840 1524v-1524h-777v1524h777zM508 1583h-105q-93 0 -169 15t-127 38.5t-89.5 57t-60 67t-34.5 72t-17 68t-4 59.5v4h422q0 -12 5 -26.5t17 -33.5t40.5 -31.5t68.5 -12.5h4q39 0 67 12.5t39.5 31.5t16 33.5t4.5 26.5h415v-4q0 -41 -11.5 -86t-45 -98.5t-85.5 -95
t-143 -69.5t-208 -28z" />
    <glyph glyph-name="ibreve" unicode="&#x12d;" horiz-adv-x="856" 
d="M889 1524v-4q0 -26 -4 -54t-17 -64.5t-33 -70t-54.5 -66t-79.5 -56.5t-111.5 -39t-145.5 -15h-28q-87 0 -157.5 15t-116.5 38.5t-80 57.5t-51.5 65.5t-28 70t-13 64.5t-2.5 54v4h371v-2q0 -30 21.5 -60t70.5 -30h4q47 0 67.5 30t20.5 60v2h367zM801 1102v-1102h-746v1102
h746z" />
    <glyph glyph-name="Iogonek" unicode="&#x12e;" horiz-adv-x="903" 
d="M840 1524v-1524h-777v1524h777zM49 -233v10q0 83 116.5 133t371.5 90h303q-63 -34 -96 -61t-33 -54v-2q0 -35 51 -35h78v-233h-424q-198 0 -282.5 38.5t-84.5 113.5z" />
    <glyph glyph-name="iogonek" unicode="&#x12f;" horiz-adv-x="856" 
d="M801 1524v-359h-746v359h746zM801 1102v-1102h-746v1102h746zM10 -233v10q0 83 116.5 133t371.5 90h303q-63 -34 -96 -61t-33 -54v-2q0 -35 51 -35h78v-233h-424q-198 0 -282.5 38.5t-84.5 113.5z" />
    <glyph glyph-name="Idotaccent" unicode="&#x130;" horiz-adv-x="903" 
d="M840 1524v-1524h-777v1524h777zM823 1948v-359h-745v359h745z" />
    <glyph glyph-name="dotlessi" unicode="&#x131;" horiz-adv-x="856" 
d="M801 1102v-1102h-746v1102h746z" />
    <glyph glyph-name="IJ" unicode="&#x132;" horiz-adv-x="3035" 
d="M840 1524v-1524h-777v1524h777zM1974 -23h-149q-184 0 -331.5 31t-242 77t-163 116t-103 132t-54 143t-23 129.5t-3.5 109.5v14h737q9 -71 35 -110q65 -95 240 -95h4q69 0 120.5 16.5t81 42.5t47.5 64t24 73.5t6 78.5v725h780v-736q0 -62 -3.5 -112.5t-15.5 -118
t-32.5 -122t-58 -116.5t-89 -109.5t-128.5 -92.5t-172 -74.5t-224.5 -47.5t-282.5 -18z" />
    <glyph glyph-name="ij" unicode="&#x133;" horiz-adv-x="1699" 
d="M801 1524v-359h-746v359h746zM801 1102v-1102h-746v1102h746zM1645 1524v-359h-746v359h746zM776 -41h55q43 0 55.5 12.5t12.5 59.5v1071h746v-1151q0 -96 -22 -164t-61.5 -104t-85 -52t-100.5 -16h-600v344z" />
    <glyph glyph-name="Jcircumflex" unicode="&#x134;" horiz-adv-x="2144" 
d="M1083 -23h-149q-184 0 -331.5 31t-242 77t-163 116t-103 132t-54 143t-23 129.5t-3.5 109.5v14h738q9 -69 32 -106q64 -99 242 -99h4q69 0 120.5 16.5t81 42.5t47.5 64t24 73.5t6 78.5v725h780v-736q0 -62 -3.5 -112.5t-15.5 -118t-32.5 -122t-58 -116.5t-89 -109.5
t-128.5 -92.5t-172 -74.5t-224.5 -47.5t-282.5 -18zM2032 1925l350 -338h-590l-111 119l-112 -119h-584l346 338h701z" />
    <glyph glyph-name="jcircumflex" unicode="&#x135;" horiz-adv-x="856" 
d="M729 1524l232 -359h-455l-84 144l-82 -144h-449l234 359h604zM-68 -41h56q43 0 55 12.5t12 59.5v1071h746v-1151q0 -96 -22 -164t-61.5 -104t-85 -52t-100.5 -16h-600v344z" />
    <glyph glyph-name="uni0136" unicode="&#x136;" horiz-adv-x="2449" 
d="M842 0h-779v1524h779v-541l692 541h946l-905 -684l909 -840h-1016l-626 608v-608zM1341 -655h-331q29 40 60 116.5t36 114.5h-281v361h662v-277q0 -65 -48 -160t-98 -155z" />
    <glyph glyph-name="uni0137" unicode="&#x137;" horiz-adv-x="1873" 
d="M801 0h-746v1524h746v-822l243 400h783l-309 -459l378 -643h-819l-276 469v-469zM1118 -655h-332q29 41 60.5 117.5t36.5 113.5h-281v361h662v-277q0 -65 -48 -160t-98 -155z" />
    <glyph glyph-name="Lacute" unicode="&#x139;" horiz-adv-x="1941" 
d="M63 1524h779v-981h1056v-543h-1835v1524zM127 1589l119 336h725l-193 -336h-651z" />
    <glyph glyph-name="lacute" unicode="&#x13a;" horiz-adv-x="856" 
d="M115 1587l164 338h700l-234 -338h-630zM801 1524v-1524h-746v1524h746z" />
    <glyph glyph-name="uni013B" unicode="&#x13b;" horiz-adv-x="1941" 
d="M63 1524h779v-981h1056v-543h-1835v1524zM1165 -655h-331q29 40 60 116.5t36 114.5h-281v361h662v-277q0 -65 -48 -160t-98 -155z" />
    <glyph glyph-name="uni013C" unicode="&#x13c;" horiz-adv-x="856" 
d="M801 1524v-1524h-746v1524h746zM612 -655h-331q29 40 60 116.5t36 114.5h-281v361h662v-277q0 -65 -48 -160t-98 -155z" />
    <glyph glyph-name="Lcaron" unicode="&#x13d;" horiz-adv-x="1941" 
d="M63 1524h779v-981h1056v-543h-1835v1524zM885 1163l20 361h527l-52 -361h-495z" />
    <glyph glyph-name="lcaron" unicode="&#x13e;" horiz-adv-x="856" 
d="M844 1163l20 361h527l-52 -361h-495zM801 1524v-1524h-746v1524h746z" />
    <glyph glyph-name="Ldot" unicode="&#x13f;" horiz-adv-x="1941" 
d="M63 1524h779v-981h1056v-543h-1835v1524zM1804 1155v-475h-733v475h733z" />
    <glyph glyph-name="ldot" unicode="&#x140;" horiz-adv-x="1597" 
d="M1587 1024v-475h-733v475h733zM801 1524v-1524h-746v1524h746z" />
    <glyph glyph-name="Lslash" unicode="&#x141;" horiz-adv-x="2015" 
d="M137 1524h778v-508l588 203v-351l-588 -196v-129h1057v-543h-1835v412l-135 -45v338l135 45v774z" />
    <glyph glyph-name="lslash" unicode="&#x142;" horiz-adv-x="983" 
d="M864 715v-715h-745v451l-105 -37v366l105 37v707h745v-443l105 37v-366z" />
    <glyph glyph-name="Nacute" unicode="&#x143;" horiz-adv-x="2500" 
d="M63 1524h879l717 -693v693h778v-1524h-792l-803 762v-762h-779v1524zM926 1589l118 336h725l-192 -336h-651z" />
    <glyph glyph-name="nacute" unicode="&#x144;" horiz-adv-x="2023" 
d="M55 0v1102h746v-207q23 23 46 43t81.5 57.5t120.5 63.5t159.5 46.5t202.5 20.5h10q96 0 177 -16.5t136 -42.5t98 -62.5t68 -72.5t41 -76t21.5 -70t5.5 -57v-729h-745v494q0 211 -211 211q-109 0 -160 -60t-51 -149v-496h-746zM711 1165l174 359h700l-244 -359h-630z" />
    <glyph glyph-name="uni0145" unicode="&#x145;" horiz-adv-x="2500" 
d="M63 1524h879l717 -693v693h778v-1524h-792l-803 762v-762h-779v1524zM1434 -655h-332q29 40 60 116.5t36 114.5h-280v361h661v-277q0 -65 -47.5 -160.5t-97.5 -154.5z" />
    <glyph glyph-name="uni0146" unicode="&#x146;" horiz-adv-x="2023" 
d="M55 0v1102h746v-207q23 23 46 43t81.5 57.5t120.5 63.5t159.5 46.5t202.5 20.5h10q96 0 177 -16.5t136 -42.5t98 -62.5t68 -72.5t41 -76t21.5 -70t5.5 -57v-729h-745v494q0 211 -211 211q-109 0 -160 -60t-51 -149v-496h-746zM1204 -655h-332q29 41 60.5 117.5
t36.5 113.5h-281v361h662v-277q0 -65 -48 -160t-98 -155z" />
    <glyph glyph-name="Ncaron" unicode="&#x147;" horiz-adv-x="2500" 
d="M63 1524h879l717 -693v693h778v-1524h-792l-803 762v-762h-779v1524zM903 1589l-352 336h590l110 -117l113 117h584l-344 -336h-701z" />
    <glyph glyph-name="ncaron" unicode="&#x148;" horiz-adv-x="2023" 
d="M55 0v1102h746v-207q23 23 46 43t81.5 57.5t120.5 63.5t159.5 46.5t202.5 20.5h10q96 0 177 -16.5t136 -42.5t98 -62.5t68 -72.5t41 -76t21.5 -70t5.5 -57v-729h-745v494q0 211 -211 211q-109 0 -160 -60t-51 -149v-496h-746zM678 1165l-318 359h570l104 -144l107 144
h563l-320 -359h-706z" />
    <glyph glyph-name="napostrophe" unicode="&#x149;" horiz-adv-x="2676" 
d="M709 0v1102h745v-207q23 23 46 43t81.5 57.5t120.5 63.5t159.5 46.5t202.5 20.5h11q96 0 177 -16.5t136 -42.5t98 -62.5t67.5 -72.5t40.5 -76t21.5 -70t5.5 -57v-729h-745v494q0 211 -211 211q-109 0 -160 -60t-51 -149v-496h-745zM537 883h-353q87 179 97 250h-275v391
h684v-307q0 -81 -48.5 -174t-104.5 -160z" />
    <glyph glyph-name="Eng" unicode="&#x14a;" horiz-adv-x="2502" 
d="M2439 1524v-1487q0 -105 -28 -188t-75.5 -133t-106 -75.5t-124.5 -25.5h-657v369h156q34 0 34 24q0 13 -8.5 23.5t-42.5 42.5l-745 688v-762h-779v1524h879l717 -693v693h780z" />
    <glyph glyph-name="eng" unicode="&#x14b;" horiz-adv-x="2023" 
d="M1968 729v-790q0 -94 -23 -162t-61.5 -104t-80.5 -52t-89 -16h-657v385h100q39 0 52.5 14.5t13.5 56.5v433q0 211 -211 211q-109 0 -160 -60t-51 -149v-496h-746v1102h746v-207q23 23 46 43t81.5 57.5t120.5 63.5t159.5 46.5t202.5 20.5h10q96 0 177 -16.5t136 -42.5
t98 -62.5t68 -72.5t41 -76t21.5 -70t5.5 -57z" />
    <glyph glyph-name="Omacron" unicode="&#x14c;" horiz-adv-x="2535" 
d="M1217 1554h102q214 0 389.5 -25.5t296.5 -68t212.5 -104.5t145 -126.5t87 -143t44.5 -146.5t11 -143v-62q0 -74 -11.5 -141.5t-44.5 -146.5t-86.5 -145t-145.5 -129.5t-213 -107t-296.5 -70t-388.5 -26.5h-102q-213 0 -388.5 26.5t-296 70t-212.5 107t-145.5 129.5
t-87 145t-45 146.5t-11.5 141.5v62q0 75 11 143t44.5 146.5t87 143t145 126.5t212.5 104.5t296.5 68t389.5 25.5zM1702 756v28q0 42 -13 81t-45 76.5t-80 65.5t-124.5 45t-173.5 17q-121 0 -209.5 -25t-135.5 -68t-68.5 -90.5t-21.5 -101.5v-24q0 -43 13.5 -84t45.5 -81
t80.5 -69.5t124.5 -48t171 -18.5q119 0 207.5 26.5t136 70.5t70 94t22.5 106zM731 1620v291h1073v-291h-1073z" />
    <glyph glyph-name="omacron" unicode="&#x14d;" horiz-adv-x="2058" 
d="M1112 -31h-166q-174 0 -315 22t-235 56.5t-164 85t-108 100t-61 110t-29.5 105.5t-6.5 95v28q0 49 6.5 93.5t29.5 103.5t61 107.5t108.5 98t164 83t234 55t313.5 21.5h172q139 0 257 -13t204.5 -35t156.5 -54.5t116.5 -66.5t81 -77.5t53.5 -81.5t30 -83t14 -78t3 -71v-32
q0 -38 -3 -72t-14.5 -79.5t-31 -84.5t-54.5 -83t-82 -79.5t-117.5 -68.5t-157 -55.5t-204.5 -36t-256 -13.5zM1026 315h6q71 0 122 24.5t76 64.5t35.5 79.5t10.5 81.5q0 30 -5.5 57.5t-21.5 58.5t-42 54t-71 38t-104 15h-6q-58 0 -102.5 -15t-70.5 -38t-42.5 -54t-22.5 -59
t-6 -57q0 -34 5.5 -65t21.5 -66t42 -60.5t71 -42t104 -16.5zM510 1196v291h1042v-291h-1042z" />
    <glyph glyph-name="Obreve" unicode="&#x14e;" horiz-adv-x="2535" 
d="M1217 1554h102q214 0 389.5 -25.5t296.5 -68t212.5 -104.5t145 -126.5t87 -143t44.5 -146.5t11 -143v-62q0 -74 -11.5 -141.5t-44.5 -146.5t-86.5 -145t-145.5 -129.5t-213 -107t-296.5 -70t-388.5 -26.5h-102q-213 0 -388.5 26.5t-296 70t-212.5 107t-145.5 129.5
t-87 145t-45 146.5t-11.5 141.5v62q0 75 11 143t44.5 146.5t87 143t145 126.5t212.5 104.5t296.5 68t389.5 25.5zM1702 756v28q0 42 -13 81t-45 76.5t-80 65.5t-124.5 45t-173.5 17q-121 0 -209.5 -25t-135.5 -68t-68.5 -90.5t-21.5 -101.5v-24q0 -43 13.5 -84t45.5 -81
t80.5 -69.5t124.5 -48t171 -18.5q119 0 207.5 26.5t136 70.5t70 94t22.5 106zM1325 1597h-104q-93 0 -169 15t-127 38.5t-90 57t-60.5 67t-34.5 72t-17 68t-4 59.5v4h422q0 -12 5 -26.5t17 -33.5t40.5 -31.5t68.5 -12.5h4q39 0 67 12.5t39.5 31.5t16 33.5t4.5 26.5h416v-4
q0 -41 -11.5 -86t-45 -98.5t-85.5 -95t-143.5 -69.5t-208.5 -28z" />
    <glyph glyph-name="obreve" unicode="&#x14f;" horiz-adv-x="2058" 
d="M1085 1174h-110q-120 0 -212 26t-143.5 64t-84 88t-42.5 90t-10 78v4h416q0 -9 6.5 -21.5t20 -27t41 -24t63.5 -9.5h4q111 0 127 82h412v-4q0 -30 -10 -64t-31 -74t-59.5 -76t-90 -66t-128.5 -48t-169 -18zM1112 -31h-166q-174 0 -315 22t-235 56.5t-164 85t-108 100
t-61 110t-29.5 105.5t-6.5 95v28q0 49 6.5 93.5t29.5 103.5t61 107.5t108.5 98t164 83t234 55t313.5 21.5h172q139 0 257 -13t204.5 -35t156.5 -54.5t116.5 -66.5t81 -77.5t53.5 -81.5t30 -83t14 -78t3 -71v-32q0 -38 -3 -72t-14.5 -79.5t-31 -84.5t-54.5 -83t-82 -79.5
t-117.5 -68.5t-157 -55.5t-204.5 -36t-256 -13.5zM1026 315h6q71 0 122 24.5t76 64.5t35.5 79.5t10.5 81.5q0 30 -5.5 57.5t-21.5 58.5t-42 54t-71 38t-104 15h-6q-58 0 -102.5 -15t-70.5 -38t-42.5 -54t-22.5 -59t-6 -57q0 -34 5.5 -65t21.5 -66t42 -60.5t71 -42t104 -16.5
z" />
    <glyph glyph-name="Ohungarumlaut" unicode="&#x150;" horiz-adv-x="2535" 
d="M1325 1604l113 321h604l-123 -321h-594zM653 1604l101 321h604l-113 -321h-592zM1217 1554h102q214 0 389.5 -25.5t296.5 -68t212.5 -104.5t145 -126.5t87 -143t44.5 -146.5t11 -143v-62q0 -74 -11.5 -141.5t-44.5 -146.5t-86.5 -145t-145.5 -129.5t-213 -107t-296.5 -70
t-388.5 -26.5h-102q-213 0 -388.5 26.5t-296 70t-212.5 107t-145.5 129.5t-87 145t-45 146.5t-11.5 141.5v62q0 75 11 143t44.5 146.5t87 143t145 126.5t212.5 104.5t296.5 68t389.5 25.5zM1702 756v28q0 42 -13 81t-45 76.5t-80 65.5t-124.5 45t-173.5 17
q-121 0 -209.5 -25t-135.5 -68t-68.5 -90.5t-21.5 -101.5v-24q0 -43 13.5 -84t45.5 -81t80.5 -69.5t124.5 -48t171 -18.5q119 0 207.5 26.5t136 70.5t70 94t22.5 106z" />
    <glyph glyph-name="ohungarumlaut" unicode="&#x151;" horiz-adv-x="2058" 
d="M1087 1180l134 344h583l-141 -344h-576zM438 1180l121 344h582l-129 -344h-574zM1112 -31h-166q-174 0 -315 22t-235 56.5t-164 85t-108 100t-61 110t-29.5 105.5t-6.5 95v28q0 49 6.5 93.5t29.5 103.5t61 107.5t108.5 98t164 83t234 55t313.5 21.5h172q139 0 257 -13
t204.5 -35t156.5 -54.5t116.5 -66.5t81 -77.5t53.5 -81.5t30 -83t14 -78t3 -71v-32q0 -38 -3 -72t-14.5 -79.5t-31 -84.5t-54.5 -83t-82 -79.5t-117.5 -68.5t-157 -55.5t-204.5 -36t-256 -13.5zM1026 315h6q71 0 122 24.5t76 64.5t35.5 79.5t10.5 81.5q0 30 -5.5 57.5
t-21.5 58.5t-42 54t-71 38t-104 15h-6q-58 0 -102.5 -15t-70.5 -38t-42.5 -54t-22.5 -59t-6 -57q0 -34 5.5 -65t21.5 -66t42 -60.5t71 -42t104 -16.5z" />
    <glyph glyph-name="OE" unicode="&#x152;" horiz-adv-x="3502" 
d="M1251 1069q-118 0 -204 -25.5t-131 -68.5t-65 -90.5t-20 -100.5v-24q0 -55 21.5 -105.5t68 -96t131.5 -72.5t199 -27q93 0 167 18t120.5 47.5t77 69t43 79.5t12.5 83v28q0 42 -12.5 80.5t-43 76.5t-77 65.5t-120.5 45t-167 17.5zM1810 0v125q-220 -152 -669 -152h-66
q-184 0 -336.5 26t-258.5 69.5t-187.5 106t-130 128t-79 143.5t-41.5 145.5t-11 139.5v62q0 73 10.5 140t41 144.5t78.5 142.5t129.5 126t187.5 104t259 68.5t338 25.5h66q465 0 669 -139v119h1639v-426h-1010v-119h998v-418h-998v-131h1018v-430h-1647z" />
    <glyph glyph-name="oe" unicode="&#x153;" horiz-adv-x="3213" 
d="M2013 711h443q-8 57 -58 90t-164 33q-119 0 -165.5 -33t-55.5 -90zM1026 315h6q71 0 122 24.5t76 64.5t35.5 79.5t10.5 81.5q0 30 -5.5 57.5t-21.5 58.5t-42 54t-71 38t-104 15h-6q-58 0 -102.5 -15t-70.5 -38t-42.5 -54t-22.5 -59t-6 -57q0 -34 5.5 -65t21.5 -66
t42 -60.5t71 -42t104 -16.5zM1651 104q-197 -135 -582 -135h-145q-169 0 -307 22t-229.5 56.5t-160 85t-106 100.5t-59.5 110t-28.5 105t-6.5 95v28q0 49 6.5 93.5t29.5 103.5t60.5 107.5t106 98t160 83t228 55t304.5 21.5h151q366 0 580 -132q200 125 573 125h68
q136 0 251 -13t200 -34t153.5 -54.5t114.5 -68t79.5 -80.5t52 -87t29.5 -92t14 -90.5t3 -88.5v-29h-1180q3 -34 14 -63t34.5 -57t69 -44t109.5 -16q191 0 220 113h733v-4q0 -39 -6.5 -74.5t-29.5 -82t-60.5 -85t-106.5 -77.5t-160.5 -65.5t-228.5 -43.5t-305 -17h-70
q-371 0 -573 131z" />
    <glyph glyph-name="Racute" unicode="&#x154;" horiz-adv-x="2396" 
d="M842 915h567q141 0 141 97q0 96 -141 96h-567v-193zM842 487v-487h-779v1524h1684q104 0 189 -10.5t163.5 -38t131.5 -70t84.5 -110.5t31.5 -156v-19q0 -65 -23.5 -120.5t-60 -93t-85 -67t-93 -45.5t-90.5 -26q180 -35 270 -133t90 -250v-231q0 -90 27 -142v-12h-801
q-10 10 -10 47v184q0 124 -69 190t-226 66h-434zM819 1589l119 336h725l-193 -336h-651z" />
    <glyph glyph-name="racute" unicode="&#x155;" horiz-adv-x="1835" 
d="M801 526v-526h-746v1102h742v-217q201 241 491 241h25q93 0 169 -19.5t126.5 -50t88.5 -74t58.5 -85.5t33 -91.5t16 -85t3.5 -71.5v-203h-733v111q0 71 -31.5 113.5t-99.5 42.5q-143 0 -143 -187zM608 1165l174 359h701l-244 -359h-631z" />
    <glyph glyph-name="uni0156" unicode="&#x156;" horiz-adv-x="2396" 
d="M842 915h567q141 0 141 97q0 96 -141 96h-567v-193zM842 487v-487h-779v1524h1684q104 0 189 -10.5t163.5 -38t131.5 -70t84.5 -110.5t31.5 -156v-19q0 -65 -23.5 -120.5t-60 -93t-85 -67t-93 -45.5t-90.5 -26q180 -35 270 -133t90 -250v-231q0 -90 27 -142v-12h-801
q-10 10 -10 47v184q0 124 -69 190t-226 66h-434zM1386 -655h-331q29 40 60 116.5t36 114.5h-281v361h662v-277q0 -65 -48 -160t-98 -155z" />
    <glyph glyph-name="uni0157" unicode="&#x157;" horiz-adv-x="1835" 
d="M801 526v-526h-746v1102h742v-217q201 241 491 241h25q93 0 169 -19.5t126.5 -50t88.5 -74t58.5 -85.5t33 -91.5t16 -85t3.5 -71.5v-203h-733v111q0 71 -31.5 113.5t-99.5 42.5q-143 0 -143 -187zM608 -655h-332q29 41 60.5 117.5t36.5 113.5h-281v361h662v-277
q0 -65 -48 -160t-98 -155z" />
    <glyph glyph-name="Rcaron" unicode="&#x158;" horiz-adv-x="2396" 
d="M842 915h567q141 0 141 97q0 96 -141 96h-567v-193zM842 487v-487h-779v1524h1684q104 0 189 -10.5t163.5 -38t131.5 -70t84.5 -110.5t31.5 -156v-19q0 -65 -23.5 -120.5t-60 -93t-85 -67t-93 -45.5t-90.5 -26q180 -35 270 -133t90 -250v-231q0 -90 27 -142v-12h-801
q-10 10 -10 47v184q0 124 -69 190t-226 66h-434zM793 1589l-353 336h590l111 -117l112 117h584l-344 -336h-700z" />
    <glyph glyph-name="rcaron" unicode="&#x159;" horiz-adv-x="1835" 
d="M801 526v-526h-746v1102h742v-217q201 241 491 241h25q93 0 169 -19.5t126.5 -50t88.5 -74t58.5 -85.5t33 -91.5t16 -85t3.5 -71.5v-203h-733v111q0 71 -31.5 113.5t-99.5 42.5q-143 0 -143 -187zM563 1165l-317 359h569l105 -144l106 144h563l-319 -359h-707z" />
    <glyph glyph-name="Sacute" unicode="&#x15a;" horiz-adv-x="2338" 
d="M842 1604l114 321h725l-188 -321h-651zM1284 -31h-268q-191 0 -346 19.5t-258 51t-180 78t-118.5 91.5t-66.5 101.5t-32 99.5t-7 92v16h912q0 -164 241 -164q125 0 179.5 30t54.5 77v6q0 23 -8 38t-34.5 31t-86.5 25.5t-154 13.5l-321 11q-182 7 -319 37t-219.5 73.5
t-133 106t-68.5 125.5t-18 141v18q0 89 29.5 158.5t98.5 128t179 96.5t275.5 59t383.5 21h261q238 0 417.5 -25t290.5 -67.5t179.5 -105.5t94 -130t25.5 -151v-10h-893q-2 18 -6.5 32t-19.5 32t-38.5 30t-67 20.5t-101.5 8.5q-90 0 -139.5 -10t-65.5 -26t-16 -44v-4
q0 -44 62.5 -66t231.5 -26l308 -9q296 -8 472.5 -61t253 -151.5t76.5 -256.5v-28q0 -62 -12 -115t-43 -108.5t-81 -100t-131 -84.5t-187.5 -67t-255.5 -42.5t-330 -15.5z" />
    <glyph glyph-name="sacute" unicode="&#x15b;" horiz-adv-x="1804" 
d="M578 1180l167 344h701l-238 -344h-630zM963 -31h-166q-145 0 -264 14t-199.5 37.5t-141.5 56.5t-95 67t-55 74.5t-27.5 73t-6.5 68.5v17h752q2 -45 30 -76t93 -31h4q117 0 117 72v2q0 37 -31.5 54.5t-120.5 21.5l-301 12q-126 7 -220 29.5t-151.5 54t-92.5 76t-47.5 90
t-12.5 100.5v15q0 65 21 114t73.5 92t139 71t221.5 43.5t317 15.5h159q159 0 284.5 -12t210 -34.5t142.5 -51.5t90 -68t45 -78.5t13 -87.5v-19h-731q0 82 -123 82h-4q-74 0 -98.5 -13.5t-24.5 -45.5q0 -28 32.5 -46t120.5 -22l302 -12q141 -7 241 -26t164 -47.5t101 -72.5
t51 -94t14 -120v-19q0 -66 -16.5 -116.5t-68.5 -101.5t-140 -84t-240 -54t-360 -21z" />
    <glyph glyph-name="Scircumflex" unicode="&#x15c;" horiz-adv-x="2338" 
d="M1530 1925l336 -323h-592l-111 118l-112 -118h-586l332 323h733zM1284 -31h-268q-191 0 -346 19.5t-258 51t-180 78t-118.5 91.5t-66.5 101.5t-32 99.5t-7 92v16h912q0 -164 241 -164q125 0 179.5 30t54.5 77v6q0 23 -8 38t-34.5 31t-86.5 25.5t-154 13.5l-321 11
q-182 7 -319 37t-219.5 73.5t-133 106t-68.5 125.5t-18 141v18q0 89 29.5 158.5t98.5 128t179 96.5t275.5 59t383.5 21h261q238 0 417.5 -25t290.5 -67.5t179.5 -105.5t94 -130t25.5 -151v-10h-893q-2 18 -6.5 32t-19.5 32t-38.5 30t-67 20.5t-101.5 8.5q-90 0 -139.5 -10
t-65.5 -26t-16 -44v-4q0 -44 62.5 -66t231.5 -26l308 -9q296 -8 472.5 -61t253 -151.5t76.5 -256.5v-28q0 -62 -12 -115t-43 -108.5t-81 -100t-131 -84.5t-187.5 -67t-255.5 -42.5t-330 -15.5z" />
    <glyph glyph-name="scircumflex" unicode="&#x15d;" horiz-adv-x="1804" 
d="M1251 1524l318 -344h-570l-106 129l-105 -129h-563l320 344h706zM963 -31h-166q-145 0 -264 14t-199.5 37.5t-141.5 56.5t-95 67t-55 74.5t-27.5 73t-6.5 68.5v17h752q2 -45 30 -76t93 -31h4q117 0 117 72v2q0 37 -31.5 54.5t-120.5 21.5l-301 12q-126 7 -220 29.5
t-151.5 54t-92.5 76t-47.5 90t-12.5 100.5v15q0 65 21 114t73.5 92t139 71t221.5 43.5t317 15.5h159q159 0 284.5 -12t210 -34.5t142.5 -51.5t90 -68t45 -78.5t13 -87.5v-19h-731q0 82 -123 82h-4q-74 0 -98.5 -13.5t-24.5 -45.5q0 -28 32.5 -46t120.5 -22l302 -12
q141 -7 241 -26t164 -47.5t101 -72.5t51 -94t14 -120v-19q0 -66 -16.5 -116.5t-68.5 -101.5t-140 -84t-240 -54t-360 -21z" />
    <glyph glyph-name="uni015E" unicode="&#x15e;" horiz-adv-x="2338" 
d="M1284 -31h-268q-191 0 -346 19.5t-258 51t-180 78t-118.5 91.5t-66.5 101.5t-32 99.5t-7 92v16h912q0 -164 241 -164q125 0 179.5 30t54.5 77v6q0 23 -8 38t-34.5 31t-86.5 25.5t-154 13.5l-321 11q-182 7 -319 37t-219.5 73.5t-133 106t-68.5 125.5t-18 141v18
q0 89 29.5 158.5t98.5 128t179 96.5t275.5 59t383.5 21h261q238 0 417.5 -25t290.5 -67.5t179.5 -105.5t94 -130t25.5 -151v-10h-893q-2 18 -6.5 32t-19.5 32t-38.5 30t-67 20.5t-101.5 8.5q-90 0 -139.5 -10t-65.5 -26t-16 -44v-4q0 -44 62.5 -66t231.5 -26l308 -9
q296 -8 472.5 -61t253 -151.5t76.5 -256.5v-28q0 -62 -12 -115t-43 -108.5t-81 -100t-131 -84.5t-187.5 -67t-255.5 -42.5t-330 -15.5zM743 -537v199h234q33 0 45 10.5t12 32.5q0 21 -12 31t-45 10h-143v254h325v-94q105 0 182.5 -11t124.5 -29t75 -46.5t38 -58.5t10 -70v-4
q0 -40 -10.5 -71.5t-39 -61t-75.5 -49t-124.5 -31t-182.5 -11.5h-414z" />
    <glyph glyph-name="uni015F" unicode="&#x15f;" horiz-adv-x="1804" 
d="M963 -31h-166q-145 0 -264 14t-199.5 37.5t-141.5 56.5t-95 67t-55 74.5t-27.5 73t-6.5 68.5v17h752q2 -45 30 -76t93 -31h4q117 0 117 72v2q0 37 -31.5 54.5t-120.5 21.5l-301 12q-126 7 -220 29.5t-151.5 54t-92.5 76t-47.5 90t-12.5 100.5v15q0 65 21 114t73.5 92
t139 71t221.5 43.5t317 15.5h159q159 0 284.5 -12t210 -34.5t142.5 -51.5t90 -68t45 -78.5t13 -87.5v-19h-731q0 82 -123 82h-4q-74 0 -98.5 -13.5t-24.5 -45.5q0 -28 32.5 -46t120.5 -22l302 -12q141 -7 241 -26t164 -47.5t101 -72.5t51 -94t14 -120v-19
q0 -66 -16.5 -116.5t-68.5 -101.5t-140 -84t-240 -54t-360 -21zM479 -537v199h234q33 0 45 10.5t12 32.5q0 21 -12 31t-45 10h-144v254h326v-94q105 0 182.5 -11t124.5 -29t75 -46.5t38 -58.5t10 -70v-4q0 -40 -10.5 -71.5t-39 -61t-75.5 -49t-124.5 -31t-182.5 -11.5h-414z
" />
    <glyph glyph-name="Scaron" unicode="&#x160;" horiz-adv-x="2338" 
d="M1284 -31h-268q-191 0 -346 19.5t-258 51t-180 78t-118.5 91.5t-66.5 101.5t-32 99.5t-7 92v16h912q0 -164 241 -164q125 0 179.5 30t54.5 77v6q0 23 -8 38t-34.5 31t-86.5 25.5t-154 13.5l-321 11q-182 7 -319 37t-219.5 73.5t-133 106t-68.5 125.5t-18 141v18
q0 89 29.5 158.5t98.5 128t179 96.5t275.5 59t383.5 21h261q238 0 417.5 -25t290.5 -67.5t179.5 -105.5t94 -130t25.5 -151v-10h-893q-2 18 -6.5 32t-19.5 32t-38.5 30t-67 20.5t-101.5 8.5q-90 0 -139.5 -10t-65.5 -26t-16 -44v-4q0 -44 62.5 -66t231.5 -26l308 -9
q296 -8 472.5 -61t253 -151.5t76.5 -256.5v-28q0 -62 -12 -115t-43 -108.5t-81 -100t-131 -84.5t-187.5 -67t-255.5 -42.5t-330 -15.5zM821 1589l-352 336h590l110 -117l113 117h584l-344 -336h-701z" />
    <glyph glyph-name="scaron" unicode="&#x161;" horiz-adv-x="1804" 
d="M963 -31h-166q-145 0 -264 14t-199.5 37.5t-141.5 56.5t-95 67t-55 74.5t-27.5 73t-6.5 68.5v17h752q2 -45 30 -76t93 -31h4q117 0 117 72v2q0 37 -31.5 54.5t-120.5 21.5l-301 12q-126 7 -220 29.5t-151.5 54t-92.5 76t-47.5 90t-12.5 100.5v15q0 65 21 114t73.5 92
t139 71t221.5 43.5t317 15.5h159q159 0 284.5 -12t210 -34.5t142.5 -51.5t90 -68t45 -78.5t13 -87.5v-19h-731q0 82 -123 82h-4q-74 0 -98.5 -13.5t-24.5 -45.5q0 -28 32.5 -46t120.5 -22l302 -12q141 -7 241 -26t164 -47.5t101 -72.5t51 -94t14 -120v-19
q0 -66 -16.5 -116.5t-68.5 -101.5t-140 -84t-240 -54t-360 -21zM545 1165l-318 359h570l104 -144l107 144h563l-320 -359h-706z" />
    <glyph glyph-name="Tcommaaccent" unicode="&#x162;" horiz-adv-x="2174" 
d="M698 0v999h-657v525h2093v-525h-657v-999h-779zM1272 -655h-332q29 40 60 116.5t36 114.5h-280v361h661v-277q0 -65 -47.5 -160.5t-97.5 -154.5z" />
    <glyph glyph-name="tcommaaccent" unicode="&#x163;" horiz-adv-x="1208" 
d="M1171 0h-616q-69 0 -124.5 15t-103 49.5t-74 98t-26.5 152.5v381h-204v406h204v321h746v-321h198v-406h-198v-182q0 -63 17 -81.5t79 -18.5h102v-414zM936 -655h-332q29 40 60 116.5t36 114.5h-280v361h661v-277q0 -65 -47.5 -160.5t-97.5 -154.5z" />
    <glyph glyph-name="Tcaron" unicode="&#x164;" horiz-adv-x="2174" 
d="M698 0v999h-657v525h2093v-525h-657v-999h-779zM741 1589l-352 336h590l111 -117l112 117h584l-344 -336h-701z" />
    <glyph glyph-name="tcaron" unicode="&#x165;" horiz-adv-x="1208" 
d="M1171 0h-616q-69 0 -124.5 15t-103 49.5t-74 98t-26.5 152.5v381h-204v406h204v321h746v-321h198v-406h-198v-182q0 -63 17 -81.5t79 -18.5h102v-414zM1016 1163l20 361h527l-52 -361h-495z" />
    <glyph glyph-name="Tbar" unicode="&#x166;" horiz-adv-x="2174" 
d="M1921 506h-1667v321h1667v-321zM698 0v999h-657v525h2093v-525h-657v-999h-779z" />
    <glyph glyph-name="tbar" unicode="&#x167;" horiz-adv-x="1208" 
d="M1171 379v-379h-616q-69 0 -124.5 15t-103 49.5t-74 98t-26.5 152.5v150h-204v213h204v74h-204v350h204v321h746v-321h198v-350h-198v-74h198v-213h-198q2 -54 19 -70t77 -16h102z" />
    <glyph glyph-name="Utilde" unicode="&#x168;" horiz-adv-x="2461" 
d="M49 817v707h782v-627q0 -350 398 -350h4q92 0 163.5 20.5t114.5 53.5t70.5 80t38 94t10.5 102v627h783v-707q0 -57 -5 -110t-21 -119.5t-41.5 -125.5t-70.5 -122.5t-104 -115.5t-146 -99.5t-192 -80.5t-246.5 -52t-306.5 -19h-102q-165 0 -306 19t-246.5 52t-191.5 80.5
t-145 99.5t-103.5 115.5t-70 122.5t-41 126t-20.5 119.5t-5 109.5zM1516 1587h-7q-56 0 -104 8t-78 16.5t-123 37.5q-94 30 -125 30q-30 0 -30 -43v-49h-385v185q0 202 278 202h4q20 0 38.5 -1t32.5 -2t35 -5t32 -6t37.5 -9t38.5 -10t48.5 -13t53.5 -15q93 -27 112 -27
q29 0 29 33v55h391v-157q0 -32 -4 -58.5t-21 -60t-45 -56.5t-81.5 -39t-126.5 -16z" />
    <glyph glyph-name="utilde" unicode="&#x169;" horiz-adv-x="2009" 
d="M1954 1102v-1102h-746v207q-21 -23 -46 -46t-80 -59t-117.5 -62t-158.5 -45.5t-202 -19.5h-12q-96 0 -176 16.5t-134 43.5t-96 63.5t-66 74t-39.5 78.5t-20.5 73t-5 61v717h746v-494q0 -211 203 -211q55 0 96.5 18.5t64 49.5t33 66.5t10.5 74.5v496h746zM1282 1163h-4
q-53 0 -100.5 8t-74 16t-122.5 38q-77 28 -113 28q-32 0 -32 -43v-47h-387v180q0 203 278 203h4q73 0 131 -11.5t176 -49.5q86 -27 105 -27q28 0 28 33v55h390v-153q0 -32 -4 -58.5t-20.5 -60t-45 -56.5t-82.5 -39t-127 -16z" />
    <glyph glyph-name="Umacron" unicode="&#x16a;" horiz-adv-x="2461" 
d="M49 817v707h782v-627q0 -350 398 -350h4q92 0 163.5 20.5t114.5 53.5t70.5 80t38 94t10.5 102v627h783v-707q0 -57 -5 -110t-21 -119.5t-41.5 -125.5t-70.5 -122.5t-104 -115.5t-146 -99.5t-192 -80.5t-246.5 -52t-306.5 -19h-102q-165 0 -306 19t-246.5 52t-191.5 80.5
t-145 99.5t-103.5 115.5t-70 122.5t-41 126t-20.5 119.5t-5 109.5zM694 1606v290h1073v-290h-1073z" />
    <glyph glyph-name="umacron" unicode="&#x16b;" horiz-adv-x="2009" 
d="M1954 1102v-1102h-746v207q-21 -23 -46 -46t-80 -59t-117.5 -62t-158.5 -45.5t-202 -19.5h-12q-96 0 -176 16.5t-134 43.5t-96 63.5t-66 74t-39.5 78.5t-20.5 73t-5 61v717h746v-494q0 -211 203 -211q55 0 96.5 18.5t64 49.5t33 66.5t10.5 74.5v496h746zM483 1182v291
h1043v-291h-1043z" />
    <glyph glyph-name="Ubreve" unicode="&#x16c;" horiz-adv-x="2461" 
d="M49 817v707h782v-627q0 -350 398 -350h4q92 0 163.5 20.5t114.5 53.5t70.5 80t38 94t10.5 102v627h783v-707q0 -57 -5 -110t-21 -119.5t-41.5 -125.5t-70.5 -122.5t-104 -115.5t-146 -99.5t-192 -80.5t-246.5 -52t-306.5 -19h-102q-165 0 -306 19t-246.5 52t-191.5 80.5
t-145 99.5t-103.5 115.5t-70 122.5t-41 126t-20.5 119.5t-5 109.5zM1288 1583h-104q-93 0 -169 15t-127 38.5t-90 57t-60.5 67t-34.5 72t-17 68t-4 59.5v4h422q0 -12 5 -26.5t17 -33.5t40.5 -31.5t68.5 -12.5h4q39 0 67 12.5t39.5 31.5t16 33.5t4.5 26.5h416v-4
q0 -41 -11.5 -86t-45 -98.5t-85.5 -95t-143.5 -69.5t-208.5 -28z" />
    <glyph glyph-name="ubreve" unicode="&#x16d;" horiz-adv-x="2009" 
d="M1954 1102v-1102h-746v207q-21 -23 -46 -46t-80 -59t-117.5 -62t-158.5 -45.5t-202 -19.5h-12q-96 0 -176 16.5t-134 43.5t-96 63.5t-66 74t-39.5 78.5t-20.5 73t-5 61v717h746v-494q0 -211 203 -211q55 0 96.5 18.5t64 49.5t33 66.5t10.5 74.5v496h746zM1548 1524v-4
q0 -33 -9.5 -69.5t-29.5 -78.5t-58 -79t-89.5 -67.5t-129 -48.5t-171.5 -18h-111q-122 0 -214.5 26.5t-143.5 64.5t-82.5 90.5t-41 94.5t-9.5 85v4h413v-2q0 -12 5 -25.5t18 -29.5t42 -26.5t69 -10.5h4q71 0 100 31t29 61v2h409z" />
    <glyph glyph-name="Uring" unicode="&#x16e;" horiz-adv-x="2461" 
d="M49 817v707h782v-627q0 -350 398 -350h4q92 0 163.5 20.5t114.5 53.5t70.5 80t38 94t10.5 102v627h783v-707q0 -57 -5 -110t-21 -119.5t-41.5 -125.5t-70.5 -122.5t-104 -115.5t-146 -99.5t-192 -80.5t-246.5 -52t-306.5 -19h-102q-165 0 -306 19t-246.5 52t-191.5 80.5
t-145 99.5t-103.5 115.5t-70 122.5t-41 126t-20.5 119.5t-5 109.5zM799 1810q0 252 436 252q126 0 214.5 -20t135 -56t66.5 -79t20 -97t-20 -96.5t-67 -78t-135 -55t-214 -19.5q-127 0 -215.5 19.5t-135 55.5t-66 78t-19.5 96zM1083 1812q0 -88 152 -88q151 0 151 88
q0 86 -151 86q-152 0 -152 -86z" />
    <glyph glyph-name="uring" unicode="&#x16f;" horiz-adv-x="2009" 
d="M1954 1102v-1102h-746v207q-21 -23 -46 -46t-80 -59t-117.5 -62t-158.5 -45.5t-202 -19.5h-12q-96 0 -176 16.5t-134 43.5t-96 63.5t-66 74t-39.5 78.5t-20.5 73t-5 61v717h746v-494q0 -211 203 -211q55 0 96.5 18.5t64 49.5t33 66.5t10.5 74.5v496h746zM575 1407
q0 252 433 252q432 0 432 -252q0 -43 -11.5 -78t-41.5 -68t-78 -55t-124.5 -35.5t-176.5 -13.5q-433 0 -433 250zM860 1409q0 -88 148 -88q147 0 147 88q0 86 -147 86q-148 0 -148 -86z" />
    <glyph glyph-name="Uhungarumlaut" unicode="&#x170;" horiz-adv-x="2461" 
d="M49 817v707h782v-627q0 -350 398 -350h4q92 0 163.5 20.5t114.5 53.5t70.5 80t38 94t10.5 102v627h783v-707q0 -57 -5 -110t-21 -119.5t-41.5 -125.5t-70.5 -122.5t-104 -115.5t-146 -99.5t-192 -80.5t-246.5 -52t-306.5 -19h-102q-165 0 -306 19t-246.5 52t-191.5 80.5
t-145 99.5t-103.5 115.5t-70 122.5t-41 126t-20.5 119.5t-5 109.5zM1288 1589l117 336h604l-127 -336h-594zM616 1589l105 336h604l-117 -336h-592z" />
    <glyph glyph-name="uhungarumlaut" unicode="&#x171;" horiz-adv-x="2009" 
d="M1954 1102v-1102h-746v207q-21 -23 -46 -46t-80 -59t-117.5 -62t-158.5 -45.5t-202 -19.5h-12q-96 0 -176 16.5t-134 43.5t-96 63.5t-66 74t-39.5 78.5t-20.5 73t-5 61v717h746v-494q0 -211 203 -211q55 0 96.5 18.5t64 49.5t33 66.5t10.5 74.5v496h746zM1038 1165
l140 359h583l-147 -359h-576zM389 1165l127 359h582l-135 -359h-574z" />
    <glyph glyph-name="Uogonek" unicode="&#x172;" horiz-adv-x="2461" 
d="M1870 -385h-430q-198 0 -282.5 38.5t-84.5 113.5v10q0 29 13 52.5t41.5 43t63.5 34.5t90 29t109.5 25t131.5 25q-140 -13 -242 -13h-102q-165 0 -306 19t-246.5 52t-191.5 80.5t-145 99.5t-103.5 115.5t-70 122.5t-41 126t-20.5 119.5t-5 109.5v707h782v-627
q0 -350 398 -350h4q92 0 163.5 20.5t114.5 53.5t70.5 80t38 94t10.5 102v627h783v-707q0 -248 -113.5 -439t-374.5 -341q-128 -75 -150 -92q-40 -31 -40 -60v-2q0 -35 51 -35h84v-233z" />
    <glyph glyph-name="uogonek" unicode="&#x173;" horiz-adv-x="2009" 
d="M1954 1102v-1102h-746v207q-21 -23 -46 -46t-80 -59t-117.5 -62t-158.5 -45.5t-202 -19.5h-12q-96 0 -176 16.5t-134 43.5t-96 63.5t-66 74t-39.5 78.5t-20.5 73t-5 61v717h746v-494q0 -211 203 -211q55 0 96.5 18.5t64 49.5t33 66.5t10.5 74.5v496h746zM1163 -233v10
q0 83 116.5 133t371.5 90h303q-63 -34 -96 -61t-33 -54v-2q0 -35 51 -35h78v-233h-424q-198 0 -282.5 38.5t-84.5 113.5z" />
    <glyph glyph-name="Wcircumflex" unicode="&#x174;" horiz-adv-x="3584" 
d="M1561 0h-1055l-533 1524h893l256 -899l240 899h932l235 -916l242 916h840l-547 -1524h-1043l-227 846zM2159 1925l350 -338h-590l-111 119l-112 -119h-584l346 338h701z" />
    <glyph glyph-name="wcircumflex" unicode="&#x175;" horiz-adv-x="2797" 
d="M1296 0h-923l-393 1102h776l149 -658l142 658h751l137 -651l146 651h737l-377 -1102h-891l-127 528zM1767 1524l318 -359h-569l-107 144l-104 -144h-564l320 359h706z" />
    <glyph glyph-name="Ycircumflex" unicode="&#x176;" horiz-adv-x="2441" 
d="M836 0v541l-871 983h897l391 -459l398 459h825l-862 -994v-530h-778zM1606 1925l350 -338h-590l-111 119l-112 -119h-584l346 338h701z" />
    <glyph glyph-name="ycircumflex" unicode="&#x177;" horiz-adv-x="1865" 
d="M242 -385v362h235q49 0 49 37v2q0 5 -0.5 10.5t-3 12.5t-4 12t-6.5 15t-7 14.5t-9 18t-9 18.5l-510 985h791l215 -625l172 625h733l-440 -1096q-84 -207 -194.5 -299t-266.5 -92h-745zM1315 1524l317 -359h-569l-107 144l-104 -144h-563l319 359h707z" />
    <glyph glyph-name="Ydieresis" unicode="&#x178;" horiz-adv-x="2441" 
d="M836 0v541l-871 983h897l391 -459l398 459h825l-862 -994v-530h-778zM1880 1925v-336h-596v336h596zM1202 1925v-336h-594v336h594z" />
    <glyph glyph-name="Zacute" unicode="&#x179;" horiz-adv-x="2115" 
d="M45 1524h2026v-367l-908 -637h914v-520h-2038v371l883 659h-877v494zM731 1589l119 336h725l-193 -336h-651z" />
    <glyph glyph-name="zacute" unicode="&#x17a;" horiz-adv-x="1650" 
d="M1614 0h-1577v362l688 361h-690v379h1579v-363l-672 -338h672v-401zM504 1165l174 359h700l-243 -359h-631z" />
    <glyph glyph-name="Zdotaccent" unicode="&#x17b;" horiz-adv-x="2115" 
d="M45 1524h2026v-367l-908 -637h914v-520h-2038v371l883 659h-877v494zM1430 1948v-359h-746v359h746z" />
    <glyph glyph-name="zdotaccent" unicode="&#x17c;" horiz-adv-x="1650" 
d="M1614 0h-1577v362l688 361h-690v379h1579v-363l-672 -338h672v-401zM1200 1524v-359h-745v359h745z" />
    <glyph glyph-name="Zcaron" unicode="&#x17d;" horiz-adv-x="2115" 
d="M45 1524h2026v-367l-908 -637h914v-520h-2038v371l883 659h-877v494zM711 1589l-353 336h590l111 -117l112 117h584l-344 -336h-700z" />
    <glyph glyph-name="zcaron" unicode="&#x17e;" horiz-adv-x="1650" 
d="M1614 0h-1577v362l688 361h-690v379h1579v-363l-672 -338h672v-401zM479 1165l-317 359h569l105 -144l106 144h563l-319 -359h-707z" />
    <glyph glyph-name="uni0192" unicode="&#x192;" horiz-adv-x="1251" 
d="M1210 621h-229l-43 -1016h-760l43 1016h-190v407h209l6 139q8 182 119.5 269.5t359.5 87.5h485v-340h-145q-34 0 -46.5 -13.5t-14.5 -46.5l-5 -96h211v-407z" />
    <glyph glyph-name="Aringacute" unicode="&#x1fa;" horiz-adv-x="2514" 
d="M805 1831q0 252 436 252q126 0 214.5 -20t135 -56t66.5 -79t20 -97q0 -43 -11.5 -78t-42 -68t-78.5 -55t-125.5 -35.5t-178.5 -13.5q-102 0 -180 13.5t-126 36t-77.5 55.5t-41 67.5t-11.5 77.5zM1090 1833q0 -88 151 -88q152 0 152 88q0 86 -152 86q-151 0 -151 -86z
M932 2120l174 358h700l-243 -358h-631zM1399 633l-187 422l-182 -422h369zM1677 0l-80 182h-761l-80 -182h-787l719 1524h1094l764 -1524h-869z" />
    <glyph glyph-name="aringacute" unicode="&#x1fb;" horiz-adv-x="1910" 
d="M612 1706l174 358h701l-244 -358h-631zM487 1417q0 252 433 252q432 0 432 -252q0 -43 -11.5 -78t-41.5 -68t-78 -55t-124.5 -35.5t-176.5 -13.5q-433 0 -433 250zM772 1419q0 -88 148 -88q147 0 147 88q0 86 -147 86q-148 0 -148 -86zM1063 440v74l-238 -63
q-40 -11 -60 -29t-20 -49v-2q0 -36 29 -63t94 -27q93 0 144 45t51 114zM1069 139q-27 -24 -65 -47t-102 -50.5t-158.5 -44.5t-204.5 -17h-13q-133 0 -233.5 29.5t-157.5 79.5t-84.5 109t-27.5 126v41q0 61 19 108.5t64 89t128 67.5t202 36l580 47q29 4 39 15t10 30v2
q0 69 -152 69h-4q-168 0 -168 -90h-692v25q0 39 4.5 68.5t23 69.5t51 69.5t92.5 60.5t142 51t206.5 32.5t279.5 12.5h117q163 0 293.5 -13.5t216.5 -34t149.5 -51.5t97 -61t53 -68t24.5 -65.5t5 -60.5v-377q0 -35 29 -35h63v-362h-641q-162 0 -186 139z" />
    <glyph glyph-name="AEacute" unicode="&#x1fc;" horiz-adv-x="3272" 
d="M1444 635v491l-309 -491h309zM1444 0v184h-592l-117 -184h-770l1000 1524h2254v-426h-1009v-119h997v-418h-997v-131h1018v-430h-1784zM1749 1589l119 336h725l-193 -336h-651z" />
    <glyph glyph-name="aeacute" unicode="&#x1fd;" horiz-adv-x="3002" 
d="M2023 834q-211 0 -223 -123h443q-17 123 -220 123zM868 281q94 0 144.5 44.5t50.5 114.5v74l-238 -63q-40 -12 -60 -28.5t-20 -49.5v-2q0 -36 29 -63t94 -27zM2980 422v-6q0 -40 -8 -77t-32.5 -83t-65 -84.5t-111.5 -76t-164.5 -64t-232 -42.5t-306.5 -16h-92
q-297 0 -475.5 53t-286.5 148q-42 -33 -68 -51.5t-86 -49.5t-119.5 -48t-154.5 -31t-205 -14h-14q-118 0 -212 19.5t-153.5 52t-99 78t-55.5 93.5t-16 101v41q0 61 20 109t65.5 88.5t128 67t199.5 36.5l580 47q28 4 38.5 14.5t10.5 30.5v2q0 69 -152 69h-4q-168 0 -168 -90
h-690v25q0 35 3.5 61.5t21 66.5t48 70t90 63t141.5 54t208.5 35t284.5 14h108q349 0 506 -98q179 96 510 96h88q141 0 260 -13t206.5 -34.5t157.5 -54.5t117 -68t81 -81t52.5 -86.5t29 -92t13.5 -89.5t3 -87v-31h-1182q3 -33 13.5 -61t33.5 -57t69 -45.5t111 -16.5
q42 0 76.5 5.5t56.5 15t38.5 20t25.5 23.5t14 21.5t8 17.5l3 10h733zM1155 1165l174 359h701l-244 -359h-631z" />
    <glyph glyph-name="Oslashacute" unicode="&#x1fe;" horiz-adv-x="2566" 
d="M942 1604l115 321h725l-189 -321h-651zM1329 -27h-98q-377 0 -627 84l-78 -57h-540l290 215q-249 194 -249 516v62q0 74 11.5 141t45 145.5t87.5 143.5t147 127t216 105t301.5 69t395.5 26h98q348 0 608 -82l74 56h539l-283 -209q268 -198 268 -522v-62q0 -56 -6.5 -108
t-25 -113t-47.5 -114t-78 -108.5t-113.5 -101t-156 -86t-203 -68t-258.5 -43.5t-318 -16zM1280 440q126 0 220.5 26t148.5 72t80 101t26 119v28q0 69 -31 129l-624 -473q55 -2 180 -2zM807 786v-28q0 -63 29 -129l610 461h-166q-127 0 -221.5 -24.5t-148 -67.5t-78.5 -95.5
t-25 -116.5z" />
    <glyph glyph-name="oslashacute" unicode="&#x1ff;" horiz-adv-x="2058" 
d="M705 1180l163 344h701l-234 -344h-630zM1100 -31h-168q-299 0 -490 72l-67 -41h-387l235 154q-196 136 -196 389v28q0 50 6.5 94t29.5 103t61 107.5t109 98t166 83t238 55t319 21.5h172q289 0 480 -68l57 37h395l-217 -146q189 -148 189 -383v-32q0 -51 -6 -95.5
t-28.5 -105t-60.5 -109.5t-109 -99.5t-166 -85t-239.5 -56t-322.5 -21.5zM758 565q0 -44 4 -59l416 272q-70 25 -148 25h-6q-63 0 -112 -16t-77.5 -40t-46.5 -57t-24 -63t-6 -62zM1030 301h4q63 0 112 18t77.5 45t46.5 63.5t24 69.5t6 68q0 27 -2 41l-419 -276
q63 -29 151 -29z" />
    <glyph glyph-name="uni0218" unicode="&#x218;" horiz-adv-x="2338" 
d="M1284 -31h-268q-191 0 -346 19.5t-258 51t-180 78t-118.5 91.5t-66.5 101.5t-32 99.5t-7 92v16h912q0 -164 241 -164q125 0 179.5 30t54.5 77v6q0 23 -8 38t-34.5 31t-86.5 25.5t-154 13.5l-321 11q-182 7 -319 37t-219.5 73.5t-133 106t-68.5 125.5t-18 141v18
q0 89 29.5 158.5t98.5 128t179 96.5t275.5 59t383.5 21h261q238 0 417.5 -25t290.5 -67.5t179.5 -105.5t94 -130t25.5 -151v-10h-893q-2 18 -6.5 32t-19.5 32t-38.5 30t-67 20.5t-101.5 8.5q-90 0 -139.5 -10t-65.5 -26t-16 -44v-4q0 -44 62.5 -66t231.5 -26l308 -9
q296 -8 472.5 -61t253 -151.5t76.5 -256.5v-28q0 -62 -12 -115t-43 -108.5t-81 -100t-131 -84.5t-187.5 -67t-255.5 -42.5t-330 -15.5zM1350 -678h-332q29 40 60 117t36 115h-280v360h661v-276q0 -66 -48 -161.5t-97 -154.5z" />
    <glyph glyph-name="uni0219" unicode="&#x219;" horiz-adv-x="1804" 
d="M963 -31h-166q-145 0 -264 14t-199.5 37.5t-141.5 56.5t-95 67t-55 74.5t-27.5 73t-6.5 68.5v17h752q2 -45 30 -76t93 -31h4q117 0 117 72v2q0 37 -31.5 54.5t-120.5 21.5l-301 12q-126 7 -220 29.5t-151.5 54t-92.5 76t-47.5 90t-12.5 100.5v15q0 65 21 114t73.5 92
t139 71t221.5 43.5t317 15.5h159q159 0 284.5 -12t210 -34.5t142.5 -51.5t90 -68t45 -78.5t13 -87.5v-19h-731q0 82 -123 82h-4q-74 0 -98.5 -13.5t-24.5 -45.5q0 -28 32.5 -46t120.5 -22l302 -12q141 -7 241 -26t164 -47.5t101 -72.5t51 -94t14 -120v-19
q0 -66 -16.5 -116.5t-68.5 -101.5t-140 -84t-240 -54t-360 -21zM1081 -670h-331q29 40 60 117t36 115h-281v360h662v-276q0 -65 -48 -160.5t-98 -155.5z" />
    <glyph glyph-name="uni021A" unicode="&#x21a;" horiz-adv-x="2174" 
d="M698 0v999h-657v525h2093v-525h-657v-999h-779zM1272 -655h-332q29 40 60 116.5t36 114.5h-280v361h661v-277q0 -65 -47.5 -160.5t-97.5 -154.5z" />
    <glyph glyph-name="uni021B" unicode="&#x21b;" horiz-adv-x="1208" 
d="M1171 0h-616q-69 0 -124.5 15t-103 49.5t-74 98t-26.5 152.5v381h-204v406h204v321h746v-321h198v-406h-198v-182q0 -63 17 -81.5t79 -18.5h102v-414zM936 -655h-332q29 40 60 116.5t36 114.5h-280v361h661v-277q0 -65 -47.5 -160.5t-97.5 -154.5z" />
    <glyph glyph-name="uni0237" unicode="&#x237;" horiz-adv-x="856" 
d="M-68 -41h56q43 0 55 12.5t12 59.5v1071h746v-1151q0 -96 -22 -164t-61.5 -104t-85 -52t-100.5 -16h-600v344z" />
    <glyph glyph-name="uni02BC" unicode="&#x2bc;" horiz-adv-x="770" 
d="M580 883h-353q87 179 97 250h-275v391h684v-307q0 -81 -48.5 -174t-104.5 -160z" />
    <glyph glyph-name="circumflex" unicode="&#x2c6;" 
d="M1077 1524l318 -359h-570l-106 144l-105 -144h-563l320 359h706z" />
    <glyph glyph-name="caron" unicode="&#x2c7;" 
d="M369 1165l-318 359h570l104 -144l106 144h564l-320 -359h-706z" />
    <glyph glyph-name="breve" unicode="&#x2d8;" 
d="M1268 1524v-4q0 -41 -12.5 -85t-47 -94.5t-87 -90t-141 -65.5t-200.5 -26h-110q-88 0 -161.5 14t-123.5 36t-88 53.5t-60 63.5t-36 69t-18.5 66t-4.5 59v4h414v-2q0 -12 5 -25.5t18 -29.5t41.5 -26.5t68.5 -10.5h4q71 0 100 31t29 61v2h410z" />
    <glyph glyph-name="dotaccent" unicode="&#x2d9;" 
d="M1096 1524v-359h-746v359h746z" />
    <glyph glyph-name="ring" unicode="&#x2da;" 
d="M295 1407q0 252 432 252t432 -252q0 -43 -11.5 -78t-41.5 -68t-78 -55t-124.5 -35.5t-176.5 -13.5q-125 0 -212.5 19.5t-134 56t-66 78.5t-19.5 96zM580 1409q0 -88 147 -88t147 88q0 86 -147 86t-147 -86z" />
    <glyph glyph-name="ogonek" unicode="&#x2db;" 
d="M330 -233v10q0 83 116.5 133t370.5 90h303q-63 -34 -96 -61t-33 -54v-2q0 -35 51 -35h78v-233h-424q-198 0 -282 38t-84 114z" />
    <glyph glyph-name="tilde" unicode="&#x2dc;" 
d="M999 1163h-4q-53 0 -100.5 8t-74 16t-122.5 38q-77 28 -112 28q-33 0 -33 -43v-47h-387v180q0 203 278 203h5q73 0 131 -11.5t176 -49.5q86 -27 104 -27q29 0 29 33v55h389v-153q0 -32 -4 -58.5t-20.5 -60t-45 -56.5t-82.5 -39t-127 -16z" />
    <glyph glyph-name="hungarumlaut" unicode="&#x2dd;" 
d="M686 1165l139 359h584l-147 -359h-576zM37 1165l127 359h581l-135 -359h-573z" />
    <glyph glyph-name="uni0401" unicode="&#x401;" horiz-adv-x="1955" 
d="M63 1524h1838v-426h-1072v-119h1059v-418h-1059v-131h1080v-430h-1846v1524zM1636 1925v-336h-596v336h596zM958 1925v-336h-593v336h593z" />
    <glyph glyph-name="uni0402" unicode="&#x402;" horiz-adv-x="2594" 
d="M2128 999h-862v-157l116 18q180 19 334 19h64q394 0 592 -139t198 -380v-34q0 -594 -1057 -594h-92v418h86q62 0 108.5 7.5t74.5 19.5t45.5 30.5t23.5 38t6 43.5v10q0 60 -49 92.5t-174 32.5h-31q-106 0 -178 -10q-6 -1 -30.5 -5.5t-36.5 -5.5v-403h-779v999h-452v525
h2093v-525z" />
    <glyph glyph-name="uni0403" unicode="&#x403;" horiz-adv-x="1859" 
d="M57 0v1524h1762v-475h-983v-1049h-779zM608 1589l119 336h725l-192 -336h-652z" />
    <glyph glyph-name="uni0404" unicode="&#x404;" horiz-adv-x="2441" 
d="M2421 657v-43q0 -39 -5.5 -78t-22 -89t-43 -95.5t-72 -94t-105.5 -89.5t-147 -78.5t-192.5 -63.5t-246.5 -41.5t-305 -15.5h-72q-1185 0 -1185 766v62q0 76 10 143t42 146t84 143.5t143 126.5t212 104t298.5 68t395.5 26h72q209 0 380.5 -24.5t287.5 -64t204 -96
t137.5 -113t80 -123t40 -119t9.5 -107.5v-20h-789q-16 54 -34 81q-92 142 -363 142q-178 0 -275 -37t-135 -112h668v-383h-670q38 -79 136 -119.5t276 -40.5q73 0 134 12t100.5 29t70 42.5t46.5 46t27 47t14 37.5t5 25h789z" />
    <glyph glyph-name="uni0405" unicode="&#x405;" horiz-adv-x="2326" 
d="M1284 -31h-268q-191 0 -346 19.5t-258 51t-180 78t-118.5 91.5t-66.5 101.5t-32 99.5t-7 92v16h912q0 -164 241 -164q125 0 179.5 30t54.5 77v6q0 23 -8 38t-34.5 31t-86.5 25.5t-154 13.5l-321 11q-182 7 -319 37t-219.5 73.5t-133 106t-68.5 125.5t-18 141v18
q0 89 29.5 158.5t98.5 128t179 96.5t275.5 59t383.5 21h261q238 0 417.5 -25t290.5 -67.5t179.5 -105.5t94 -130t25.5 -151v-10h-893q-2 18 -6.5 32t-19.5 32t-38.5 30t-67 20.5t-101.5 8.5q-90 0 -139.5 -10t-65.5 -26t-16 -44v-4q0 -44 62.5 -66t231.5 -26l308 -9
q296 -8 472.5 -61t253 -151.5t76.5 -256.5v-28q0 -62 -12 -115t-43 -108.5t-81 -100t-131 -84.5t-187.5 -67t-255.5 -42.5t-330 -15.5z" />
    <glyph glyph-name="uni0406" unicode="&#x406;" horiz-adv-x="890" 
d="M840 1524v-1524h-777v1524h777z" />
    <glyph glyph-name="uni0407" unicode="&#x407;" horiz-adv-x="903" 
d="M840 1524v-1524h-777v1524h777zM1087 1925v-336h-595v336h595zM410 1925v-336h-594v336h594z" />
    <glyph glyph-name="uni0408" unicode="&#x408;" horiz-adv-x="2131" 
d="M1083 -23h-149q-184 0 -331.5 31t-242 77t-163 116t-103 132t-54 143t-23 129.5t-3.5 109.5v14h738q9 -69 32 -106q64 -99 242 -99h4q69 0 120.5 16.5t81 42.5t47.5 64t24 73.5t6 78.5v725h780v-736q0 -62 -3.5 -112.5t-15.5 -118t-32.5 -122t-58 -116.5t-89 -109.5
t-128.5 -92.5t-172 -74.5t-224.5 -47.5t-282.5 -18z" />
    <glyph glyph-name="uni0409" unicode="&#x409;" horiz-adv-x="3620" 
d="M315 0h-295v541h29q77 0 119 12.5t70 46.5q27 37 39.5 100t20 253t7.5 571h1886v-416h672q172 0 303.5 -27t215 -73t136 -113.5t73 -141.5t20.5 -165v-53q0 -90 -21.5 -166t-74.5 -146t-136.5 -118t-214.5 -76.5t-301 -28.5h-1450v1049h-385q0 -301 -20.5 -497
t-83.5 -308q-74 -131 -212.5 -187.5t-396.5 -56.5zM2191 446h482q74 0 105.5 30t31.5 77v4q0 105 -137 105h-482v-216z" />
    <glyph glyph-name="uni040A" unicode="&#x40a;" horiz-adv-x="3694" 
d="M1505 0v551h-669v-551h-779v1524h779v-498h669v498h779v-498h653q172 0 303.5 -26t214.5 -69.5t135.5 -107.5t73 -133t20.5 -153v-13q0 -86 -21.5 -160t-74.5 -142.5t-136 -116.5t-214.5 -76.5t-300.5 -28.5h-1432zM2284 420h475q64 0 94.5 31t30.5 67v4q0 36 -30.5 67.5
t-94.5 31.5h-475v-201z" />
    <glyph glyph-name="uni040B" unicode="&#x40b;" horiz-adv-x="2621" 
d="M2128 999h-862v-161q46 10 125 20q160 21 290 21h41q319 0 509.5 -75t275 -229.5t84.5 -408.5v-166h-779v154q0 135 -64 202.5t-214 67.5h-23q-90 0 -176 -12l-69 -13v-399h-779v999h-452v525h2093v-525z" />
    <glyph glyph-name="uni040C" unicode="&#x40c;" horiz-adv-x="2437" 
d="M842 0h-779v1524h779v-541l692 541h946l-905 -684l909 -840h-1016l-626 608v-608zM854 1589l119 336h725l-193 -336h-651z" />
    <glyph glyph-name="uni040E" unicode="&#x40e;" horiz-adv-x="2400" 
d="M2435 1524l-928 -1190q-58 -74 -98 -119t-90 -87t-95.5 -63t-112 -37.5t-143 -22t-184.5 -5.5h-317v479h268q56 0 56 41v2q0 20 -21 47l-805 955h903l404 -523l356 523h807zM1311 1583h-105q-93 0 -169 15t-127 38.5t-89.5 57t-60 67t-34.5 72t-17 68t-4 59.5v4h421
q0 -12 5 -26.5t17 -33.5t40.5 -31.5t68.5 -12.5h5q39 0 67 12.5t39.5 31.5t16 33.5t4.5 26.5h415v-4q0 -41 -11.5 -86t-45 -98.5t-85.5 -95t-143 -69.5t-208 -28z" />
    <glyph glyph-name="uni040F" unicode="&#x40f;" horiz-adv-x="2445" 
d="M57 0v1524h779v-1049h774v1049h778v-1524h-807v-287h-717v287h-807z" />
    <glyph glyph-name="uni0410" unicode="&#x410;" horiz-adv-x="2502" 
d="M1399 633l-187 422l-182 -422h369zM1677 0l-80 182h-761l-80 -182h-787l719 1524h1094l764 -1524h-869z" />
    <glyph glyph-name="uni0411" unicode="&#x411;" horiz-adv-x="2328" 
d="M59 0v1524h2050v-426h-1273v-94h735q172 0 303.5 -25t214.5 -67.5t135.5 -104.5t73 -130t20.5 -151v-12q0 -86 -21.5 -158.5t-74.5 -139.5t-136 -113.5t-214 -74.5t-301 -28h-1512zM836 440h557q65 0 95 26.5t30 61.5v4q0 35 -30 62t-95 27h-557v-181z" />
    <glyph glyph-name="uni0412" unicode="&#x412;" horiz-adv-x="2404" 
d="M63 0v1524h1678q134 0 237 -19.5t166.5 -51.5t103.5 -77.5t55 -92.5t15 -101v-13q0 -120 -87.5 -198t-215.5 -105q63 -11 117 -28.5t106 -50t88.5 -75.5t59 -107t22.5 -142v-17q0 -75 -21 -139t-70 -121.5t-124 -98t-190 -64t-262 -23.5h-1678zM1386 1128h-544v-147h544
q73 0 105.5 16.5t32.5 57.5v4q0 41 -31 55t-107 14zM1417 598h-575v-188h575q93 0 128.5 24.5t35.5 71.5v4q0 46 -34.5 67t-129.5 21z" />
    <glyph glyph-name="uni0413" unicode="&#x413;" horiz-adv-x="1859" 
d="M57 0v1524h1762v-475h-983v-1049h-779z" />
    <glyph glyph-name="uni0414" unicode="&#x414;" horiz-adv-x="2627" 
d="M10 475h215q41 86 63.5 152t41 181.5t25.5 283.5t7 432h2010v-1049h245v-762h-716v287h-1174v-287h-717v762zM971 475h622v574h-512q0 -396 -110 -574z" />
    <glyph glyph-name="uni0415" unicode="&#x415;" horiz-adv-x="1943" 
d="M63 1524h1838v-426h-1072v-119h1059v-418h-1059v-131h1080v-430h-1846v1524z" />
    <glyph glyph-name="uni0416" unicode="&#x416;" horiz-adv-x="3823" 
d="M1526 0v592l-545 -592h-1008l844 831l-858 693h956l611 -529v529h778v-529l610 529h946l-847 -684l852 -840h-1016l-545 592v-592h-778z" />
    <glyph glyph-name="uni0417" unicode="&#x417;" horiz-adv-x="2392" 
d="M2382 510v-16q0 -88 -35.5 -163t-119 -142.5t-211 -115t-323 -75t-444.5 -27.5h-69q-256 0 -457.5 33t-330.5 88t-213.5 131.5t-119 157.5t-34.5 172v43h788q8 -79 104 -128.5t304 -49.5q333 0 333 94v4q0 82 -239 82h-438v383h442q114 0 166.5 16t52.5 56v4
q0 80 -328 80q-135 0 -220.5 -18t-125 -49.5t-51.5 -80.5h-788v21q0 46 10.5 90.5t42.5 100t82.5 103.5t139 95t204 80.5t285 54t374.5 20.5h72q205 0 372.5 -15t284 -42t201 -62t133 -79t70.5 -88.5t22 -93.5v-13q0 -61 -26 -112.5t-71 -87t-98 -59t-114 -36.5
q167 -29 270 -121t103 -235z" />
    <glyph glyph-name="uni0418" unicode="&#x418;" horiz-adv-x="2506" 
d="M1671 0v860l-835 -860h-779v1524h779v-862l835 862h778v-1524h-778z" />
    <glyph glyph-name="uni0419" unicode="&#x419;" horiz-adv-x="2506" 
d="M1671 0v860l-835 -860h-779v1524h779v-862l835 862h778v-1524h-778zM1319 1583h-105q-93 0 -169 15t-127 38.5t-89.5 57t-60 67t-34.5 72t-17 68t-4 59.5v4h422q0 -12 5 -26.5t17 -33.5t40.5 -31.5t68.5 -12.5h4q39 0 67 12.5t39.5 31.5t16 33.5t4.5 26.5h415v-4
q0 -41 -11.5 -86t-45 -98.5t-85.5 -95t-143 -69.5t-208 -28z" />
    <glyph glyph-name="uni041A" unicode="&#x41a;" horiz-adv-x="2437" 
d="M1462 0l-626 608v-608h-779v1524h779v-541l692 541h946l-905 -684l909 -840h-1016z" />
    <glyph glyph-name="uni041B" unicode="&#x41b;" horiz-adv-x="2316" 
d="M1481 0v1049h-453q0 -301 -20.5 -497t-83.5 -308q-74 -131 -212.5 -187.5t-396.5 -56.5h-295v541h29q77 0 119 12.5t70 46.5q27 37 39.5 100t20 253t7.5 571h1954v-1524h-778z" />
    <glyph glyph-name="uni041C" unicode="&#x41c;" horiz-adv-x="2848" 
d="M63 0v1524h1027l358 -678l373 678h977v-1524h-775v754l-409 -754h-371l-407 754v-754h-773z" />
    <glyph glyph-name="uni041D" unicode="&#x41d;" horiz-adv-x="2486" 
d="M1651 0v543h-815v-543h-779v1524h779v-506h815v506h778v-1524h-778z" />
    <glyph glyph-name="uni041E" unicode="&#x41e;" horiz-adv-x="2523" 
d="M1217 1554h102q214 0 389.5 -25.5t296.5 -68t212.5 -104.5t145 -126.5t87 -143t44.5 -146.5t11 -143v-62q0 -74 -11.5 -141.5t-44.5 -146.5t-86.5 -145t-145.5 -129.5t-213 -107t-296.5 -70t-388.5 -26.5h-102q-213 0 -388.5 26.5t-296 70t-212.5 107t-145.5 129.5
t-87 145t-45 146.5t-11.5 141.5v62q0 75 11 143t44.5 146.5t87 143t145 126.5t212.5 104.5t296.5 68t389.5 25.5zM1702 756v28q0 42 -13 81t-45 76.5t-80 65.5t-124.5 45t-173.5 17q-121 0 -209.5 -25t-135.5 -68t-68.5 -90.5t-21.5 -101.5v-24q0 -43 13.5 -84t45.5 -81
t80.5 -69.5t124.5 -48t171 -18.5q119 0 207.5 26.5t136 70.5t70 94t22.5 106z" />
    <glyph glyph-name="uni041F" unicode="&#x41f;" horiz-adv-x="2445" 
d="M57 0v1524h2331v-1524h-778v1049h-774v-1049h-779z" />
    <glyph glyph-name="uni0420" unicode="&#x420;" horiz-adv-x="2328" 
d="M1577 416h-735v-416h-779v1524h1514q172 0 303.5 -27t214.5 -73t135.5 -113.5t73 -141.5t20.5 -165v-54q0 -534 -747 -534zM842 1077v-200h544q74 0 106 27.5t32 70.5v4q0 98 -138 98h-544z" />
    <glyph glyph-name="uni0421" unicode="&#x421;" horiz-adv-x="2441" 
d="M1288 -31h-71q-1186 0 -1186 766v62q0 76 10 143t42 146t84 143.5t143 126.5t212.5 104t299 68t395.5 26h71q209 0 380.5 -24.5t287.5 -64t204 -96t137.5 -113t80 -123t40 -119t9.5 -107.5v-30h-789q-18 59 -54 95q-100 97 -343 97q-100 0 -175.5 -17.5t-119.5 -44.5
t-70.5 -66t-35.5 -76t-9 -81v-24q0 -43 9.5 -82t37 -80.5t71 -71t119 -48.5t173.5 -19q101 0 177.5 19t115.5 43t64.5 58.5t31 52t8.5 36.5h789v-54q0 -39 -5.5 -78t-22 -89t-43 -95.5t-72 -94t-105.5 -89.5t-147 -78.5t-192.5 -63.5t-246.5 -41.5t-305 -15.5z" />
    <glyph glyph-name="uni0422" unicode="&#x422;" horiz-adv-x="2162" 
d="M698 0v999h-657v525h2093v-525h-657v-999h-779z" />
    <glyph glyph-name="uni0423" unicode="&#x423;" horiz-adv-x="2400" 
d="M2435 1524l-928 -1190q-58 -74 -98 -119t-90 -87t-95.5 -63t-112 -37.5t-143 -22t-184.5 -5.5h-317v479h268q56 0 56 41v2q0 20 -21 47l-805 955h903l404 -523l356 523h807z" />
    <glyph glyph-name="uni0424" unicode="&#x424;" horiz-adv-x="3313" 
d="M1268 1401v143h778v-143h367q150 0 275.5 -17.5t216 -48t160.5 -74.5t114.5 -93.5t72.5 -109t39.5 -117.5t11.5 -122v-53q0 -64 -11 -123t-39.5 -120t-72.5 -111.5t-114 -96t-160.5 -77t-215.5 -50t-275 -18.5h-369v-190h-778v190h-369q-150 0 -275.5 18.5t-215.5 50
t-160.5 77t-114.5 96t-72.5 111.5t-39.5 120t-11 123v53q0 64 11.5 122t40 117.5t72.5 109t114.5 93.5t161 74.5t216 48t275.5 17.5h367zM2036 948v-323h233q58 0 102 11t68.5 27.5t39.5 39.5t19.5 42t4.5 39v4q0 26 -9 50.5t-32 51t-73 42.5t-122 16h-231zM1278 948h-231
q-72 0 -122 -16t-73 -42.5t-32 -51t-9 -50.5v-4q0 -27 8.5 -50.5t31 -50t72 -42.5t121.5 -16h234v323z" />
    <glyph glyph-name="uni0425" unicode="&#x425;" horiz-adv-x="2476" 
d="M887 0h-916l588 805l-551 719h942l310 -453l309 453h885l-519 -721l582 -803h-936l-346 475z" />
    <glyph glyph-name="uni0426" unicode="&#x426;" horiz-adv-x="2643" 
d="M57 0v1524h779v-1049h774v1049h778v-1049h246v-762h-717v287h-1860z" />
    <glyph glyph-name="uni0427" unicode="&#x427;" horiz-adv-x="2357" 
d="M1522 0v535q-179 -33 -504 -33q-260 0 -439 35.5t-305 120t-184.5 225t-58.5 348.5v293h778v-297q0 -77 24.5 -127t77 -76.5t118.5 -36.5t165 -10q155 0 328 22v525h778v-1524h-778z" />
    <glyph glyph-name="uni0428" unicode="&#x428;" horiz-adv-x="3424" 
d="M57 0v1524h779v-1049h487v1049h778v-1049h488v1049h778v-1524h-3310z" />
    <glyph glyph-name="uni0429" unicode="&#x429;" horiz-adv-x="3622" 
d="M57 0v1524h779v-1049h487v1049h778v-1049h488v1049h778v-1049h246v-762h-717v287h-2839z" />
    <glyph glyph-name="uni042A" unicode="&#x42a;" horiz-adv-x="2899" 
d="M1407 1108h735q172 0 303.5 -27t215 -73t136 -113.5t73 -141.5t20.5 -165v-53q0 -90 -21.5 -166t-74.5 -146t-136.5 -118t-214.5 -76.5t-301 -28.5h-1511v999h-596v525h1372v-416zM1407 446h545q74 0 105.5 30t31.5 77v4q0 105 -137 105h-545v-216z" />
    <glyph glyph-name="uni042B" unicode="&#x42b;" horiz-adv-x="3233" 
d="M836 1108h735q172 0 303.5 -27t214.5 -73t135.5 -113.5t73 -141.5t20.5 -165v-53q0 -90 -21.5 -166t-74.5 -146t-136 -118t-214 -76.5t-301 -28.5h-1512v1524h777v-416zM836 446h544q74 0 106 30t32 77v4q0 105 -138 105h-544v-216zM3181 1524v-1524h-777v1524h777z" />
    <glyph glyph-name="uni042C" unicode="&#x42c;" horiz-adv-x="2328" 
d="M836 1108h735q172 0 303.5 -27t214.5 -73t135.5 -113.5t73 -141.5t20.5 -165v-53q0 -90 -21.5 -166t-74.5 -146t-136 -118t-214 -76.5t-301 -28.5h-1512v1524h777v-416zM836 446h544q74 0 106 30t32 77v4q0 105 -138 105h-544v-216z" />
    <glyph glyph-name="uni042D" unicode="&#x42d;" horiz-adv-x="2445" 
d="M2421 797v-62q0 -75 -10.5 -142t-43 -147t-85.5 -145.5t-144.5 -128.5t-212.5 -106.5t-297.5 -70t-392.5 -26.5h-72q-209 0 -380.5 22.5t-287 58.5t-203.5 87.5t-137.5 103t-80 111.5t-40 106.5t-9.5 94.5v43h788q4 -33 28 -63t71 -56.5t129 -42.5t190 -16
q168 0 259.5 41.5t129.5 118.5h-668v383h664q-84 149 -406 149q-189 0 -286.5 -45t-110.5 -117h-788v21q0 50 9.5 97.5t40 108t80 111.5t137 102t203.5 86.5t287.5 57.5t380.5 22h72q218 0 395.5 -26t299 -68t212.5 -104t143 -126.5t84 -143.5t42 -146t10 -143z" />
    <glyph glyph-name="uni042E" unicode="&#x42e;" horiz-adv-x="3452" 
d="M3428 797v-62q0 -74 -11 -141.5t-44.5 -146.5t-87 -145t-145 -129.5t-212.5 -107t-296.5 -70t-388.5 -26.5h-62q-170 0 -315.5 17.5t-254.5 47.5t-198.5 73.5t-151 92t-107.5 107.5t-73 116t-43 120h-202v-543h-779v1524h779v-506h211q24 86 71 159.5t135.5 144.5
t210 121t305.5 80.5t412 30.5h62q214 0 389.5 -25.5t296.5 -68t212.5 -104.5t145 -126.5t86.5 -143t44 -146.5t11 -143zM2626 756v28q0 42 -12.5 81t-43 76.5t-76.5 65.5t-119 45t-165 17q-93 0 -166.5 -17t-119 -44.5t-75 -65.5t-41.5 -77t-12 -81v-24q0 -43 13 -84
t43.5 -81t77 -69.5t118.5 -48t162 -18.5q114 0 198 26.5t129.5 70.5t67 94t21.5 106z" />
    <glyph glyph-name="uni042F" unicode="&#x42f;" horiz-adv-x="2379" 
d="M1546 393h-184l-436 -393h-916l537 455q-242 56 -363 181.5t-121 305.5v53q0 88 23.5 164t78.5 144.5t139 116.5t213.5 76t293.5 28h1511v-1524h-776v393zM1546 809v268h-512q-87 0 -128.5 -37t-41.5 -96v-4q0 -59 42 -95t130 -36h510z" />
    <glyph glyph-name="uni0430" unicode="&#x430;" horiz-adv-x="1898" 
d="M1063 440v74l-238 -63q-40 -11 -60 -29t-20 -49v-2q0 -36 29 -63t94 -27q93 0 144 45t51 114zM1069 139q-27 -24 -65 -47t-102 -50.5t-158.5 -44.5t-204.5 -17h-13q-133 0 -233.5 29.5t-157.5 79.5t-84.5 109t-27.5 126v41q0 61 19 108.5t64 89t128 67.5t202 36l580 47
q29 4 39 15t10 30v2q0 69 -152 69h-4q-168 0 -168 -90h-692v25q0 39 4.5 68.5t23 69.5t51 69.5t92.5 60.5t142 51t206.5 32.5t279.5 12.5h117q163 0 293.5 -13.5t216.5 -34t149.5 -51.5t97 -61t53 -68t24.5 -65.5t5 -60.5v-377q0 -35 29 -35h63v-362h-641q-162 0 -186 139z
" />
    <glyph glyph-name="uni0431" unicode="&#x431;" horiz-adv-x="2031" 
d="M2011 530v-26q0 -45 -5 -83.5t-25.5 -95.5t-56 -102.5t-104 -95t-161 -82.5t-235 -54.5t-318.5 -21.5h-166q-154 0 -282.5 20.5t-222.5 57t-166.5 89t-119 112t-76 131.5t-41.5 143t-12 150v6q0 414 242 619.5t707 205.5h153q142 0 142 47h704q0 -168 -66 -271.5
t-221 -156.5t-413 -53h-197q-216 0 -318 -54t-120 -167q193 151 598 151h37q136 0 247 -16t187 -42t133 -64.5t90 -78t53 -88.5t26.5 -91t6.5 -89zM1022 315q71 0 121 19.5t74.5 52t34.5 64t10 65.5v2q0 33 -10 63t-34 61t-74.5 50t-121.5 19q-73 0 -124.5 -19t-77 -51
t-36 -63t-10.5 -64v-2q0 -34 10 -65t35 -62.5t77 -50.5t126 -19z" />
    <glyph glyph-name="uni0432" unicode="&#x432;" horiz-adv-x="1968" 
d="M1393 0h-1344v1102h1344q114 0 201.5 -14t141 -37.5t87.5 -56.5t46.5 -67t12.5 -73v-8q0 -87 -75 -143.5t-183 -75.5q69 -11 123.5 -29.5t105.5 -51t79 -86.5t28 -126v-10q0 -68 -29.5 -124.5t-93.5 -102.5t-177 -71.5t-267 -25.5zM772 709h258q62 0 89.5 12t27.5 41v4
q0 29 -26 39t-91 10h-258v-106zM772 297h283q81 0 110 17.5t29 52.5v2q0 33 -28.5 48t-110.5 15h-283v-135z" />
    <glyph glyph-name="uni0433" unicode="&#x433;" horiz-adv-x="1388" 
d="M49 0v1102h1319v-400h-573v-702h-746z" />
    <glyph glyph-name="uni0434" unicode="&#x434;" horiz-adv-x="2230" 
d="M10 -287v686h154q109 151 102 703h1739v-703h205v-686h-656v287h-888v-287h-656zM846 399h434v314h-381q-11 -205 -53 -314z" />
    <glyph glyph-name="uni0435" unicode="&#x435;" horiz-adv-x="1953" 
d="M764 711h442q-8 58 -57.5 90.5t-163.5 32.5q-119 0 -165.5 -33t-55.5 -90zM1944 422v-4q0 -40 -7 -76t-30 -83t-62 -85.5t-109.5 -77.5t-164.5 -66t-235 -44t-314 -17h-92q-175 0 -316 22t-233.5 56t-160.5 85.5t-104 100t-57.5 110.5t-26.5 106.5t-5 97.5v28
q0 52 5.5 96t27 103.5t57.5 106.5t104.5 96t161.5 81.5t233.5 53.5t315.5 21h90q140 0 258.5 -13t206 -34.5t157.5 -55.5t117.5 -69t82 -81.5t53.5 -88t30 -93t14 -91.5t3 -89v-29h-1182q3 -34 14 -63t34.5 -57t69 -44t109.5 -16q55 0 97 10.5t63 22t35.5 31.5t17 28t6.5 21
h736z" />
    <glyph glyph-name="uni0436" unicode="&#x436;" horiz-adv-x="2777" 
d="M1006 0v465l-256 -465h-779l324 592l-289 510h776l224 -393v393h745v-393l223 393h756l-266 -473l342 -629h-799l-256 465v-465h-745z" />
    <glyph glyph-name="uni0437" unicode="&#x437;" horiz-adv-x="1912" 
d="M1892 334v-10q0 -75 -47.5 -136.5t-150 -112t-285 -78.5t-430.5 -28h-84q-160 0 -292.5 19t-222 50t-157.5 74.5t-107 87t-63 93.5t-31.5 88.5t-7.5 77.5v6h715q0 -195 234 -195q163 0 163 84v2q0 82 -153 82h-187v234h179q116 0 116 80v4q0 33 -33.5 55.5t-105.5 22.5
q-105 0 -158 -48.5t-55 -128.5h-715v7q0 35 7 70.5t30.5 83.5t61 90t105.5 84.5t157.5 72.5t222.5 49t295 19h137q408 0 596.5 -69t188.5 -210v-8q0 -45 -25 -83.5t-66.5 -65t-89 -44t-98.5 -26.5q356 -59 356 -293z" />
    <glyph glyph-name="uni0438" unicode="&#x438;" horiz-adv-x="2011" 
d="M49 0v1102h746v-557l422 557h745v-1102h-745v557l-422 -557h-746z" />
    <glyph glyph-name="uni0439" unicode="&#x439;" horiz-adv-x="2011" 
d="M49 0v1102h746v-557l422 557h745v-1102h-745v557l-422 -557h-746zM1561 1524v-4q0 -41 -12.5 -85t-47 -94.5t-87 -90t-141 -65.5t-200.5 -26h-110q-88 0 -161.5 14t-123.5 36t-88 53.5t-60 63.5t-36 69t-18.5 66t-4.5 59v4h414v-2q0 -12 5 -25.5t18 -29.5t41.5 -26.5
t68.5 -10.5h4q71 0 100 31t29 61v2h410z" />
    <glyph glyph-name="uni043A" unicode="&#x43a;" horiz-adv-x="1861" 
d="M1071 0l-276 469v-469h-746v1102h746v-400l243 400h783l-310 -459l379 -643h-819z" />
    <glyph glyph-name="uni043B" unicode="&#x43b;" horiz-adv-x="1990" 
d="M1155 0v702h-266q-7 -258 -29.5 -371.5t-79.5 -187.5q-69 -89 -161.5 -116t-264.5 -27h-344v438h25q101 0 141 70q26 42 36.5 162.5t10.5 431.5h1678v-1102h-746z" />
    <glyph glyph-name="uni043C" unicode="&#x43c;" horiz-adv-x="2564" 
d="M1090 0l-326 553v-553h-715v1102h981l262 -469l277 469h946v-1102h-741v549l-326 -549h-358z" />
    <glyph glyph-name="uni043D" unicode="&#x43d;" horiz-adv-x="1990" 
d="M795 0h-746v1102h746v-357h401v357h746v-1102h-746v346h-401v-346z" />
    <glyph glyph-name="uni043E" unicode="&#x43e;" horiz-adv-x="2045" 
d="M1112 -31h-166q-174 0 -315 22t-235 56.5t-164 85t-108 100t-61 110t-29.5 105.5t-6.5 95v28q0 49 6.5 93.5t29.5 103.5t61 107.5t108.5 98t164 83t234 55t313.5 21.5h172q139 0 257 -13t204.5 -35t156.5 -54.5t116.5 -66.5t81 -77.5t53.5 -81.5t30 -83t14 -78t3 -71v-32
q0 -38 -3 -72t-14.5 -79.5t-31 -84.5t-54.5 -83t-82 -79.5t-117.5 -68.5t-157 -55.5t-204.5 -36t-256 -13.5zM1026 315h6q71 0 122 24.5t76 64.5t35.5 79.5t10.5 81.5q0 30 -5.5 57.5t-21.5 58.5t-42 54t-71 38t-104 15h-6q-58 0 -102.5 -15t-70.5 -38t-42.5 -54t-22.5 -59
t-6 -57q0 -34 5.5 -65t21.5 -66t42 -60.5t71 -42t104 -16.5z" />
    <glyph glyph-name="uni043F" unicode="&#x43f;" horiz-adv-x="1970" 
d="M49 0v1102h1872v-1102h-745v702h-381v-702h-746z" />
    <glyph glyph-name="uni0440" unicode="&#x440;" horiz-adv-x="1998" 
d="M801 553v-8q0 -36 11.5 -72t36 -69t69 -53.5t102.5 -20.5h12q54 0 94 20t61 53t30.5 68t9.5 72v8q0 39 -9.5 75t-30.5 69t-61 53t-94 20h-12q-113 0 -166 -63.5t-53 -151.5zM55 1102h746v-146q23 19 54 38.5t93 49t154 48t196 18.5h56q149 0 263.5 -32.5t182 -82.5
t110 -120t57.5 -136t15 -139v-51q0 -66 -12.5 -128t-40 -126.5t-77.5 -117.5t-119.5 -95.5t-172.5 -66t-229 -23.5h-53q-95 0 -182 12.5t-147 31.5t-93.5 33.5t-54.5 26.5v-481h-746v1487z" />
    <glyph glyph-name="uni0441" unicode="&#x441;" horiz-adv-x="1951" 
d="M1065 -31h-143q-139 0 -257 13.5t-203 35.5t-154 56t-113.5 68.5t-77 80t-49.5 83t-27 85.5t-12 79.5t-2 72.5v28q0 40 2 71.5t11.5 78.5t26.5 83.5t49.5 81.5t77 78t113 66.5t154 55t203 34.5t256.5 13h147q133 0 246 -12.5t196 -33.5t150 -52t111.5 -63t78 -72t51 -75
t28 -75t13.5 -68t3 -59v-7h-756q0 14 -4 32.5t-16.5 44.5t-33 47t-57 36t-84.5 15h-10q-51 0 -88.5 -14t-58.5 -35.5t-33.5 -53t-16.5 -59.5t-4 -62v-2q0 -248 201 -248h10q47 0 84 16.5t57.5 39t33 51t16.5 48.5t4 34h756v-6q0 -29 -2 -55t-12 -67.5t-26.5 -77t-48.5 -78.5
t-76 -77.5t-111.5 -68.5t-151 -56.5t-199.5 -36.5t-252 -14z" />
    <glyph glyph-name="uni0442" unicode="&#x442;" horiz-adv-x="1646" 
d="M451 0v702h-431v400h1606v-400h-430v-702h-745z" />
    <glyph glyph-name="uni0443" unicode="&#x443;" horiz-adv-x="1853" 
d="M242 -385v362h235q49 0 49 37v2q0 5 -0.5 10.5t-3 12.5t-4 12t-6.5 15t-7 14.5t-9 18t-9 18.5l-510 985h791l215 -625l172 625h733l-440 -1096q-84 -207 -194.5 -299t-266.5 -92h-745z" />
    <glyph glyph-name="uni0444" unicode="&#x444;" horiz-adv-x="2789" 
d="M1851 -31h-84v-354h-745v354h-102q-170 0 -308 22t-230 56.5t-160.5 85t-106 100t-60 109.5t-29 105t-6.5 94v30q0 49 6.5 93.5t29 103.5t60 107.5t106 98t160 83t229.5 55t307 21.5h104v391h745v-391h82q169 0 308 -22t233 -56.5t164.5 -85t110.5 -100.5t64.5 -109
t32 -105t7.5 -94v-31q0 -48 -7.5 -93.5t-32 -103.5t-64 -107t-110.5 -98t-164.5 -83t-232 -55t-307.5 -21zM989 313h33v478h-33q-45 0 -82.5 -15t-61 -39.5t-39.5 -55.5t-23 -61.5t-7 -60.5v-6q0 -107 52 -173t161 -67zM1800 791h-33v-478h33q56 0 99.5 22.5t67 58t35 73.5
t11.5 76v6q0 108 -52 174.5t-161 67.5z" />
    <glyph glyph-name="uni0445" unicode="&#x445;" horiz-adv-x="1947" 
d="M780 0h-794l376 582l-385 520h814l186 -295l160 295h802l-356 -512l399 -590h-821l-186 332z" />
    <glyph glyph-name="uni0446" unicode="&#x446;" horiz-adv-x="2146" 
d="M2126 399v-686h-656v287h-1421v1102h746v-703h381v703h745v-703h205z" />
    <glyph glyph-name="uni0447" unicode="&#x447;" horiz-adv-x="1961" 
d="M1167 1102h746v-1102h-746v332q-162 -33 -356 -33q-200 0 -342 28.5t-245.5 94.5t-153.5 178.5t-50 276.5v225h746v-213q0 -59 12.5 -96.5t40 -57t61.5 -26.5t87 -7q136 0 200 23v377z" />
    <glyph glyph-name="uni0448" unicode="&#x448;" horiz-adv-x="2768" 
d="M49 0v1102h746v-703h217v703h745v-703h217v703h746v-1102h-2671z" />
    <glyph glyph-name="uni0449" unicode="&#x449;" horiz-adv-x="2945" 
d="M49 0v1102h746v-703h217v703h745v-703h217v703h746v-703h205v-686h-656v287h-2220z" />
    <glyph glyph-name="uni044A" unicode="&#x44a;" horiz-adv-x="2295" 
d="M20 702v400h1135v-254h424q162 0 286 -21t203 -56t128.5 -87t69.5 -108.5t20 -124.5v-41q0 -410 -707 -410h-1169v702h-390zM1155 322h238q75 0 106 29.5t31 72.5v2q0 100 -139 100h-236v-204z" />
    <glyph glyph-name="uni044B" unicode="&#x44b;" horiz-adv-x="2781" 
d="M2738 1102v-1102h-745v1102h745zM49 0v1102h746v-254h424q162 0 286 -21t202.5 -56t128.5 -87t69.5 -108.5t19.5 -124.5v-41q0 -410 -706 -410h-1170zM795 322h237q75 0 106 29.5t31 72.5v2q0 100 -139 100h-235v-204z" />
    <glyph glyph-name="uni044C" unicode="&#x44c;" horiz-adv-x="1935" 
d="M49 0v1102h746v-254h424q162 0 286 -21t202.5 -56t128.5 -87t69.5 -108.5t19.5 -124.5v-41q0 -410 -706 -410h-1170zM795 322h237q75 0 106 29.5t31 72.5v2q0 100 -139 100h-235v-204z" />
    <glyph glyph-name="uni044D" unicode="&#x44d;" horiz-adv-x="1949" 
d="M1929 571v-30q0 -48 -7.5 -94t-31 -105t-62.5 -109t-108 -100.5t-160 -85t-226 -56.5t-300 -22h-143q-156 0 -285.5 19t-218.5 50t-157.5 74.5t-108 87.5t-65 93t-34 88.5t-8.5 77.5v6h756q6 -48 25.5 -89.5t66.5 -73.5t113 -32h10q152 0 195 166h-353v236h357
q-14 70 -62.5 116t-136.5 46h-10q-51 0 -90.5 -16t-62.5 -43t-35.5 -56t-16.5 -62h-756v7q0 34 8 70.5t32.5 84t63.5 89.5t107 84.5t156.5 72.5t219.5 49t288 19h147q164 0 299 -21t226 -55.5t160 -83.5t107.5 -98t62 -107t31 -103.5t7.5 -93.5z" />
    <glyph glyph-name="uni044E" unicode="&#x44e;" horiz-adv-x="2844" 
d="M2824 573v-32q0 -37 -4 -72t-16 -79.5t-32 -84.5t-55.5 -83.5t-82 -79t-115.5 -68.5t-152.5 -55.5t-196.5 -36t-245 -13.5h-125q-166 0 -302.5 22t-228.5 58t-161.5 86.5t-108 101t-61.5 109.5h-143v-346h-746v1102h746v-357h137q21 60 58 111.5t106 104t161 89.5t231 60
t310 23h131q168 0 304.5 -21.5t228 -55t160 -83t106 -98t60.5 -107t29.5 -103t6.5 -92.5zM1866 788h-6q-55 0 -97 -21.5t-63.5 -56.5t-32 -71t-10.5 -72v-2q0 -42 10 -82t31 -79.5t63 -64t99 -24.5h6q56 0 97.5 24.5t63 63.5t31.5 79t10 81v2q0 36 -10 72.5t-31.5 71.5
t-63 57t-97.5 22z" />
    <glyph glyph-name="uni044F" unicode="&#x44f;" horiz-adv-x="1982" 
d="M1188 274h-115l-285 -274h-788l356 338q-299 90 -299 330v20q0 70 20.5 128.5t71 112.5t129 91.5t202.5 59.5t284 22h1169v-1102h-745v274zM1188 760h-246q-129 0 -129 -92v-2q0 -91 129 -91h246v185z" />
    <glyph glyph-name="uni0451" unicode="&#x451;" horiz-adv-x="1966" 
d="M764 711h442q-8 58 -57.5 90.5t-163.5 32.5q-119 0 -165.5 -33t-55.5 -90zM1944 422v-4q0 -40 -7 -76t-30 -83t-62 -85.5t-109.5 -77.5t-164.5 -66t-235 -44t-314 -17h-92q-175 0 -316 22t-233.5 56t-160.5 85.5t-104 100t-57.5 110.5t-26.5 106.5t-5 97.5v28
q0 52 5.5 96t27 103.5t57.5 106.5t104.5 96t161.5 81.5t233.5 53.5t315.5 21h90q140 0 258.5 -13t206 -34.5t157.5 -55.5t117.5 -69t82 -81.5t53.5 -88t30 -93t14 -91.5t3 -89v-29h-1182q3 -34 14 -63t34.5 -57t69 -44t109.5 -16q55 0 97 10.5t63 22t35.5 31.5t17 28t6.5 21
h736zM1602 1524v-359h-576v359h576zM948 1524v-359h-573v359h573z" />
    <glyph glyph-name="uni0452" unicode="&#x452;" horiz-adv-x="2011" 
d="M1962 729v-797q0 -91 -22 -155.5t-61.5 -98.5t-84.5 -48.5t-100 -14.5h-600v344h55q43 0 55.5 13.5t12.5 60.5v461q0 211 -211 211q-109 0 -160 -60t-51 -149v-496h-746v1176h-108v254h108v94h746v-94h489v-254h-489v-281q23 23 46 43t81.5 57.5t120.5 63.5t159.5 46.5
t202.5 20.5h10q96 0 177 -16.5t136 -42.5t98 -62.5t68 -72.5t41 -76t21.5 -70t5.5 -57z" />
    <glyph glyph-name="uni0453" unicode="&#x453;" horiz-adv-x="1388" 
d="M49 0v1102h1319v-400h-573v-702h-746zM367 1165l174 359h700l-244 -359h-630z" />
    <glyph glyph-name="uni0454" unicode="&#x454;" horiz-adv-x="1951" 
d="M1935 465v-6q0 -39 -7.5 -77.5t-31 -88.5t-62 -93.5t-106.5 -87t-156.5 -74.5t-220.5 -50t-292 -19h-144q-178 0 -320 22t-234 56t-159 86t-101 99t-53.5 110t-23.5 104.5t-4 94.5v30q0 40 2 71.5t11.5 78.5t26.5 83.5t49.5 81.5t77 78t113 66.5t154 55t203 34.5
t256.5 13h148q161 0 294 -19t221.5 -49t156 -72.5t105 -84.5t60.5 -90t30 -83.5t7 -70.5v-7h-755q0 26 -11 54.5t-32.5 57t-60.5 47t-89 18.5h-10q-178 0 -211 -162h377v-236h-375q20 -78 67 -122t142 -44h10q64 0 110 34t64.5 76.5t18.5 84.5h755z" />
    <glyph glyph-name="uni0455" unicode="&#x455;" horiz-adv-x="1792" 
d="M963 -31h-166q-145 0 -264 14t-199.5 37.5t-141.5 56.5t-95 67t-55 74.5t-27.5 73t-6.5 68.5v17h752q2 -45 30 -76t93 -31h4q117 0 117 72v2q0 37 -31.5 54.5t-120.5 21.5l-301 12q-126 7 -220 29.5t-151.5 54t-92.5 76t-47.5 90t-12.5 100.5v15q0 65 21 114t73.5 92
t139 71t221.5 43.5t317 15.5h159q159 0 284.5 -12t210 -34.5t142.5 -51.5t90 -68t45 -78.5t13 -87.5v-19h-731q0 82 -123 82h-4q-74 0 -98.5 -13.5t-24.5 -45.5q0 -28 32.5 -46t120.5 -22l302 -12q141 -7 241 -26t164 -47.5t101 -72.5t51 -94t14 -120v-19
q0 -66 -16.5 -116.5t-68.5 -101.5t-140 -84t-240 -54t-360 -21z" />
    <glyph glyph-name="uni0456" unicode="&#x456;" horiz-adv-x="843" 
d="M801 1524v-359h-746v359h746zM801 1102v-1102h-746v1102h746z" />
    <glyph glyph-name="uni0457" unicode="&#x457;" horiz-adv-x="843" 
d="M385 1524v-359h-369v359h369zM813 1524v-359h-371v359h371zM801 1102v-1102h-746v1102h746z" />
    <glyph glyph-name="uni0458" unicode="&#x458;" horiz-adv-x="843" 
d="M801 1524v-359h-746v359h746zM-68 -41h56q43 0 55 12.5t12 59.5v1071h746v-1151q0 -96 -22 -164t-61.5 -104t-85 -52t-100.5 -16h-600v344z" />
    <glyph glyph-name="uni0459" unicode="&#x459;" horiz-adv-x="2979" 
d="M223 1102h1657v-254h383q162 0 286 -21t203 -56t128.5 -87t69.5 -108.5t20 -124.5v-41q0 -410 -707 -410h-1128v702h-246q-7 -246 -29 -360t-67 -182q-73 -99 -170 -129.5t-269 -30.5h-344v438h25q101 0 141 70q26 42 36.5 162.5t10.5 431.5zM1880 322h195q75 0 107 29
t32 73v2q0 47 -30.5 73.5t-108.5 26.5h-195v-204z" />
    <glyph glyph-name="uni045A" unicode="&#x45a;" horiz-adv-x="3000" 
d="M795 0h-746v1102h746v-297h360v297h746v-297h383q162 0 286 -19.5t202.5 -53t128.5 -82.5t69.5 -102t19.5 -118v-41q0 -65 -20 -120t-70.5 -106t-129 -86t-202.5 -56t-284 -21h-1129v426h-360v-426zM1901 483v-161h204q68 0 98.5 25t30.5 56v3q0 30 -30.5 53.5
t-98.5 23.5h-204z" />
    <glyph glyph-name="uni045B" unicode="&#x45b;" horiz-adv-x="2023" 
d="M55 1430v94h746v-94h489v-254h-489v-281q23 23 46 43t81.5 57.5t120.5 63.5t159.5 46.5t202.5 20.5h10q96 0 177 -16.5t136 -42.5t98 -62.5t68 -72.5t41 -76t21.5 -70t5.5 -57v-729h-745v494q0 211 -211 211q-109 0 -160 -60t-51 -149v-496h-746v1176h-108v254h108z" />
    <glyph glyph-name="uni045C" unicode="&#x45c;" horiz-adv-x="1861" 
d="M592 1165l174 359h700l-243 -359h-631zM1071 0l-276 469v-469h-746v1102h746v-400l243 400h783l-310 -459l379 -643h-819z" />
    <glyph glyph-name="uni045E" unicode="&#x45e;" horiz-adv-x="1853" 
d="M242 -385v362h235q49 0 49 37v2q0 5 -0.5 10.5t-3 12.5t-4 12t-6.5 15t-7 14.5t-9 18t-9 18.5l-510 985h791l215 -625l172 625h733l-440 -1096q-84 -207 -194.5 -299t-266.5 -92h-745zM1511 1524v-4q0 -33 -9.5 -69.5t-29.5 -78.5t-58 -79t-89.5 -67.5t-129 -48.5
t-171.5 -18h-111q-122 0 -214.5 26.5t-143.5 64.5t-82.5 90.5t-41 94.5t-9.5 85v4h414v-2q0 -12 5 -25.5t18 -29.5t41.5 -26.5t68.5 -10.5h4q71 0 100 31t29 61v2h409z" />
    <glyph glyph-name="uni045F" unicode="&#x45f;" horiz-adv-x="1970" 
d="M1921 0h-608v-287h-656v287h-608v1102h746v-703h381v703h745v-1102z" />
    <glyph glyph-name="uni0490" unicode="&#x490;" horiz-adv-x="1859" 
d="M57 0v1524h1045v286h717v-761h-983v-1049h-779z" />
    <glyph glyph-name="uni0491" unicode="&#x491;" horiz-adv-x="1388" 
d="M49 0v1102h664v287h655v-687h-573v-702h-746z" />
    <glyph glyph-name="uni0492" unicode="&#x492;" horiz-adv-x="1927" 
d="M125 905v619h1761v-475h-983v-144h500v-358h-500v-547h-778v547h-121v358h121z" />
    <glyph glyph-name="uni0493" unicode="&#x493;" horiz-adv-x="1464" 
d="M125 598v504h1319v-400h-574v-104h310v-258h-310v-340h-745v340h-109v258h109z" />
    <glyph glyph-name="uni0496" unicode="&#x496;" horiz-adv-x="3872" 
d="M3865 -287h-717v287h-299l-545 592v-592h-778v592l-545 -592h-1008l844 831l-858 693h956l611 -529v529h778v-529l610 529h946l-847 -684l368 -365h484v-762z" />
    <glyph glyph-name="uni0497" unicode="&#x497;" horiz-adv-x="2816" 
d="M1006 0v465l-256 -465h-779l324 592l-289 510h776l224 -393v393h745v-393l223 393h756l-266 -473l125 -230h217v-686h-656v287h-143l-256 465v-465h-745z" />
    <glyph glyph-name="uni049A" unicode="&#x49a;" horiz-adv-x="2486" 
d="M2478 -287h-717v287h-299l-626 608v-608h-779v1524h779v-541l692 541h946l-905 -684l395 -365h514v-762z" />
    <glyph glyph-name="uni049B" unicode="&#x49b;" horiz-adv-x="1902" 
d="M1071 0l-276 469v-469h-746v1102h746v-400l243 400h783l-310 -459l144 -244h237v-686h-655v287h-166z" />
    <glyph glyph-name="uni04A2" unicode="&#x4a2;" horiz-adv-x="2695" 
d="M2675 -287h-717v287h-307v543h-815v-543h-779v1524h779v-506h815v506h778v-1049h246v-762z" />
    <glyph glyph-name="uni04A3" unicode="&#x4a3;" horiz-adv-x="2166" 
d="M795 0h-746v1102h746v-357h401v357h746v-703h204v-686h-655v287h-295v346h-401v-346z" />
    <glyph glyph-name="uni04AE" unicode="&#x4ae;" horiz-adv-x="2428" 
d="M836 0v541l-871 983h897l391 -459l398 459h825l-862 -994v-530h-778z" />
    <glyph glyph-name="uni04AF" unicode="&#x4af;" horiz-adv-x="1910" 
d="M1339 0v-385h-745v385l-623 1102h797l199 -498l190 498h782z" />
    <glyph glyph-name="uni04B0" unicode="&#x4b0;" horiz-adv-x="2428" 
d="M379 541h457l-871 983h897l391 -459l398 459h825l-854 -983h436v-322h-444v-219h-778v219h-457v322z" />
    <glyph glyph-name="uni04B1" unicode="&#x4b1;" horiz-adv-x="1910" 
d="M1339 -254v-131h-745v131h-369v254h369l-623 1102h797l199 -498l190 498h782l-600 -1102h369v-254h-369z" />
    <glyph glyph-name="uni04B2" unicode="&#x4b2;" horiz-adv-x="2519" 
d="M2511 -287h-717v287h-213l-346 475l-348 -475h-916l588 805l-551 719h942l310 -453l309 453h885l-519 -721l238 -328h338v-467l6 -8h-6v-287z" />
    <glyph glyph-name="uni04B3" unicode="&#x4b3;" horiz-adv-x="1986" 
d="M780 0h-794l376 582l-385 520h814l186 -295l160 295h802l-356 -512l129 -191h264v-391l6 -8h-6v-287h-655v287h-160l-186 332z" />
    <glyph glyph-name="uni04BA" unicode="&#x4ba;" horiz-adv-x="2357" 
d="M836 1524v-535q179 33 503 33q207 0 361.5 -22.5t276 -73.5t197 -135.5t114.5 -207.5t39 -290v-293h-779v297q0 77 -24.5 127t-77 76.5t-118.5 36.5t-165 10q-146 0 -327 -23v-524h-779v1524h779z" />
    <glyph glyph-name="uni04BB" unicode="&#x4bb;" horiz-adv-x="2011" 
d="M55 0v1524h746v-629q23 23 46 43t81.5 57.5t120.5 63.5t159.5 46.5t202.5 20.5h10q96 0 177 -16.5t136 -42.5t98 -62.5t68 -72.5t41 -76t21.5 -70t5.5 -57v-729h-745v494q0 211 -211 211q-109 0 -160 -60t-51 -149v-496h-746z" />
    <glyph glyph-name="uni04C0" unicode="&#x4c0;" horiz-adv-x="890" 
d="M840 1524v-1524h-777v1524h777z" />
    <glyph glyph-name="uni04CF" unicode="&#x4cf;" horiz-adv-x="843" 
d="M801 1524v-1524h-746v1524h746z" />
    <glyph glyph-name="uni04D8" unicode="&#x4d8;" horiz-adv-x="2486" 
d="M2462 799v-62q0 -61 -8 -118.5t-28.5 -119.5t-52 -117t-81.5 -109t-114 -99t-152.5 -83.5t-194.5 -65t-242 -41.5t-293 -15h-69q-162 0 -303 15t-250 41.5t-200.5 65.5t-157.5 83.5t-117 99t-83.5 109.5t-53 117t-29 119t-8.5 118v170h1617q-37 103 -129 155t-262 52
q-90 0 -163 -11.5t-116.5 -28t-74.5 -37.5t-43 -37.5t-16 -30.5h-795v2q2 55 12 103t42 109.5t82.5 111t141 99.5t210.5 84t298 55t396 21h67q1170 0 1170 -755zM1634 596h-780q25 -89 124 -144t265 -55q315 0 391 199z" />
    <glyph glyph-name="uni04D9" unicode="&#x4d9;" horiz-adv-x="1953" 
d="M1194 391h-442q8 -58 57.5 -90.5t163.5 -32.5q119 0 165.5 33t55.5 90zM14 680v4q0 40 7 76t30 83t62 85.5t109.5 77.5t164.5 66t235 44t314 17h92q175 0 316 -22t233.5 -56t160.5 -85.5t104 -100t57.5 -110.5t26.5 -106.5t5 -97.5v-29q0 -52 -5.5 -96t-27 -103.5
t-57.5 -106.5t-104.5 -96t-161.5 -81.5t-233.5 -53t-315.5 -20.5h-90q-140 0 -258.5 13t-206 34.5t-157.5 55.5t-117.5 69t-82 81.5t-53.5 88t-30 93t-14 91.5t-3 89v28h1182q-3 34 -14 63.5t-34.5 57.5t-69.5 44t-109 16q-55 0 -97 -10.5t-63 -22t-35.5 -31.5t-17 -28
t-6.5 -21h-736z" />
    <glyph glyph-name="uni04E8" unicode="&#x4e8;" horiz-adv-x="2523" 
d="M1210 1554h103q214 0 389.5 -25.5t296.5 -68t212.5 -104.5t145 -126.5t87 -143t44.5 -146.5t11 -143v-62q0 -74 -11.5 -141.5t-44.5 -146.5t-86.5 -145t-145.5 -129.5t-213 -107t-296.5 -70t-388.5 -26.5h-103q-213 0 -388 26.5t-296 70t-213 107t-145.5 129.5t-86.5 145
t-44.5 146.5t-11.5 141.5v62q0 75 11 143t44 146.5t86.5 143t145 126.5t212.5 104.5t296.5 68t389.5 25.5zM1260 1094q-357 0 -441 -158h881q-84 158 -440 158zM1260 434q344 0 438 160h-871q94 -160 433 -160z" />
    <glyph glyph-name="uni04E9" unicode="&#x4e9;" horiz-adv-x="2045" 
d="M1112 -31h-166q-174 0 -315 22t-235 56.5t-164 85t-108 100t-61 110t-29.5 105.5t-6.5 95v28q0 49 6.5 93.5t29.5 103.5t61 107.5t108.5 98t164 83t234 55t313.5 21.5h172q139 0 257 -13t204.5 -35t156.5 -54.5t116.5 -66.5t81 -77.5t53.5 -81.5t30 -83t14 -78t3 -71v-32
q0 -38 -3 -72t-14.5 -79.5t-31 -84.5t-54.5 -83t-82 -79.5t-117.5 -68.5t-157 -55.5t-204.5 -36t-256 -13.5zM1026 315h6q134 0 197 88q7 8 20 35h-442q14 -28 20 -37q61 -86 199 -86zM1231 709q-59 79 -199 79h-6q-138 0 -197 -79q-13 -13 -24 -35h448q-10 20 -22 35z" />
    <glyph glyph-name="Wgrave" unicode="&#x1e80;" horiz-adv-x="3584" 
d="M1561 0h-1055l-533 1524h893l256 -899l240 899h932l235 -916l242 916h840l-547 -1524h-1043l-227 846zM2034 1925l120 -336h-651l-194 336h725z" />
    <glyph glyph-name="wgrave" unicode="&#x1e81;" horiz-adv-x="2797" 
d="M1296 0h-923l-393 1102h776l149 -658l142 658h751l137 -651l146 651h737l-377 -1102h-891l-127 528zM1729 1165h-631l-244 359h700z" />
    <glyph glyph-name="Wacute" unicode="&#x1e82;" horiz-adv-x="3584" 
d="M1561 0h-1055l-533 1524h893l256 -899l240 899h932l235 -916l242 916h840l-547 -1524h-1043l-227 846zM1487 1589l119 336h725l-193 -336h-651z" />
    <glyph glyph-name="wacute" unicode="&#x1e83;" horiz-adv-x="2797" 
d="M1296 0h-923l-393 1102h776l149 -658l142 658h751l137 -651l146 651h737l-377 -1102h-891l-127 528zM1112 1165l174 359h701l-244 -359h-631z" />
    <glyph glyph-name="Wdieresis" unicode="&#x1e84;" horiz-adv-x="3584" 
d="M1561 0h-1055l-533 1524h893l256 -899l240 899h932l235 -916l242 916h840l-547 -1524h-1043l-227 846zM2447 1925v-336h-596v336h596zM1769 1925v-336h-593v336h593z" />
    <glyph glyph-name="wdieresis" unicode="&#x1e85;" horiz-adv-x="2797" 
d="M1296 0h-923l-393 1102h776l149 -658l142 658h751l137 -651l146 651h737l-377 -1102h-891l-127 528zM2028 1524v-359h-576v359h576zM1374 1524v-359h-573v359h573z" />
    <glyph glyph-name="Ygrave" unicode="&#x1ef2;" horiz-adv-x="2441" 
d="M836 0v541l-871 983h897l391 -459l398 459h825l-862 -994v-530h-778zM1460 1925l121 -336h-651l-195 336h725z" />
    <glyph glyph-name="ygrave" unicode="&#x1ef3;" horiz-adv-x="1865" 
d="M242 -385v362h235q49 0 49 37v2q0 5 -0.5 10.5t-3 12.5t-4 12t-6.5 15t-7 14.5t-9 18t-9 18.5l-510 985h791l215 -625l172 625h733l-440 -1096q-84 -207 -194.5 -299t-266.5 -92h-745zM1276 1165h-631l-244 359h701z" />
    <glyph glyph-name="uni2009" unicode="&#x2009;" horiz-adv-x="10" 
 />
    <glyph glyph-name="endash" unicode="&#x2013;" horiz-adv-x="1996" 
d="M49 774h1899v-334h-1899v334z" />
    <glyph glyph-name="emdash" unicode="&#x2014;" horiz-adv-x="3072" 
d="M49 774h2974v-334h-2974v334z" />
    <glyph glyph-name="quoteleft" unicode="&#x2018;" horiz-adv-x="782" 
d="M203 1524h352q-85 -176 -96 -250h274v-391h-684v307q0 79 49.5 176t104.5 158z" />
    <glyph glyph-name="quoteright" unicode="&#x2019;" horiz-adv-x="782" 
d="M580 883h-353q87 179 97 250h-275v391h684v-307q0 -81 -48.5 -174t-104.5 -160z" />
    <glyph glyph-name="quotesinglbase" unicode="&#x201a;" horiz-adv-x="782" 
d="M580 -250h-353q87 179 97 250h-275v391h684v-307q0 -81 -48.5 -174t-104.5 -160z" />
    <glyph glyph-name="quotedblleft" unicode="&#x201c;" horiz-adv-x="1527" 
d="M203 1524h352q-85 -176 -96 -250h274v-391h-684v307q0 79 49.5 176t104.5 158zM948 1524h352q-85 -176 -96 -250h275v-391h-684v307q0 79 49.5 176t103.5 158z" />
    <glyph glyph-name="quotedblright" unicode="&#x201d;" horiz-adv-x="1527" 
d="M580 883h-353q87 179 97 250h-275v391h684v-307q0 -81 -48.5 -174t-104.5 -160zM1325 883h-352q85 176 96 250h-274v391h684v-307q0 -81 -48.5 -173.5t-105.5 -160.5z" />
    <glyph glyph-name="quotedblbase" unicode="&#x201e;" horiz-adv-x="1527" 
d="M1325 -250h-352q85 176 96 250h-274v391h684v-307q0 -81 -48.5 -173.5t-105.5 -160.5zM580 -250h-353q87 179 97 250h-275v391h684v-307q0 -81 -48.5 -174t-104.5 -160z" />
    <glyph glyph-name="dagger" unicode="&#x2020;" horiz-adv-x="1234" 
d="M274 0v791h-245v479h245v254h687v-254h245v-479h-245v-791h-687z" />
    <glyph glyph-name="daggerdbl" unicode="&#x2021;" horiz-adv-x="1226" 
d="M274 252h-245v426h245v178h-245v426h245v242h678v-242h246v-426h-246v-178h246v-426h-246v-252h-678v252z" />
    <glyph glyph-name="bullet" unicode="&#x2022;" horiz-adv-x="1107" 
d="M1081 674q0 -145 -69.5 -262.5t-190.5 -183.5t-268 -66q-146 0 -266.5 66t-190 183.5t-69.5 262.5q0 146 69.5 263.5t190 183t266.5 65.5q224 0 376 -145.5t152 -366.5z" />
    <glyph glyph-name="ellipsis" unicode="&#x2026;" horiz-adv-x="2476" 
d="M784 475v-475h-735v475h735zM1606 475v-475h-736v475h736zM2427 475v-475h-735v475h735z" />
    <glyph glyph-name="perthousand" unicode="&#x2030;" horiz-adv-x="4538" 
d="M733 659h-41q-119 0 -217 15t-165.5 40t-119.5 61t-82 73.5t-49 82t-25.5 82.5t-6.5 79v26q0 41 6.5 78.5t25.5 80.5t50 79.5t83 71t120 58t166.5 38t217.5 14.5h33q165 0 289.5 -27.5t195.5 -69.5t114.5 -101t57 -111t13.5 -111v-26q0 -59 -13.5 -112.5t-56.5 -114.5
t-113 -104.5t-194.5 -72.5t-288.5 -29zM2171 1524h508l-1727 -1524h-506zM713 963q85 0 125.5 39t40.5 98v6q0 59 -40.5 97t-125.5 38t-125.5 -38t-40.5 -97v-6q0 -59 40.5 -98t125.5 -39zM2437 -16h-41q-119 0 -217 15t-165.5 40t-119.5 60.5t-82 73t-49 82t-25.5 82.5
t-6.5 79v26q0 41 6.5 78.5t25.5 80.5t50 79.5t83 71t120 58t166.5 38t217.5 14.5h33q165 0 289.5 -27.5t195.5 -69.5t114.5 -101t57 -111t13.5 -111v-26q0 -41 -6.5 -79t-25.5 -82.5t-49.5 -82t-82 -73t-119.5 -60.5t-166 -40t-217 -15zM3846 -16h-41q-119 0 -217 15
t-165.5 40t-119.5 60.5t-82 73t-49 82t-25.5 82.5t-6.5 79v26q0 41 6.5 78.5t25.5 80.5t50 79.5t83 71t120 58t166.5 38t217.5 14.5h33q165 0 289.5 -27.5t195.5 -69.5t114.5 -101t57 -111t13.5 -111v-26q0 -41 -6.5 -79t-25.5 -82.5t-49.5 -82t-82 -73t-119.5 -60.5
t-166 -40t-217 -15zM2417 287q85 0 125.5 39t40.5 98v6q0 59 -40.5 97t-125.5 38t-125.5 -38t-40.5 -97v-6q0 -59 40.5 -98t125.5 -39zM3826 287q85 0 125.5 39t40.5 98v6q0 59 -40.5 97t-125.5 38t-125.5 -38t-40.5 -97v-6q0 -59 40.5 -98t125.5 -39z" />
    <glyph glyph-name="uni2032" unicode="&#x2032;" horiz-adv-x="720" 
d="M715 1524l-140 -596h-569l139 596h570z" />
    <glyph glyph-name="uni2033" unicode="&#x2033;" horiz-adv-x="1361" 
d="M715 1524l-142 -596h-567l141 596h568zM1214 928h-567l141 596h568z" />
    <glyph glyph-name="guilsinglleft" unicode="&#x2039;" horiz-adv-x="776" 
d="M758 219h-512l-234 367l234 358h510l-224 -358z" />
    <glyph glyph-name="guilsinglright" unicode="&#x203a;" horiz-adv-x="776" 
d="M530 219h-512l226 367l-224 358h510l234 -358z" />
    <glyph glyph-name="fraction" unicode="&#x2044;" horiz-adv-x="2318" 
d="M1823 1524h489l-1831 -1524h-475z" />
    <glyph glyph-name="zero.sup" unicode="&#x2070;" horiz-adv-x="1419" 
d="M684 1546h49q169 0 294 -25t194 -62.5t110 -92t52.5 -101.5t11.5 -104v-31q0 -57 -11.5 -104t-52.5 -101.5t-110 -92t-194 -62.5t-294 -25h-49q-122 0 -221 13t-166 34.5t-117.5 53t-79 64t-45.5 73t-22.5 74.5t-5.5 73v31q0 57 11.5 104t52 101.5t109 92t192.5 62.5
t292 25zM852 1145v12q0 24 -6 46.5t-20.5 45.5t-44.5 37t-72 14q-44 0 -74 -13.5t-44.5 -37t-20 -45.5t-5.5 -47v-12q0 -25 6 -48.5t21 -47t45 -38t72 -14.5q44 0 74 14t44 38.5t19.5 47t5.5 48.5z" />
    <glyph glyph-name="four.sup" unicode="&#x2074;" horiz-adv-x="1273" 
d="M14 1171l570 353h536v-344h137v-248h-137v-162h-518v162h-588v239zM342 1180h260v157z" />
    <glyph glyph-name="five.sup" unicode="&#x2075;" horiz-adv-x="1286" 
d="M645 745h-31q-118 0 -212 10.5t-154.5 26.5t-104 40.5t-65.5 45.5t-34.5 49.5t-14.5 45t-2 38.5v7h479q0 -6 8.5 -14t38.5 -16.5t76 -8.5q129 0 129 55v6q0 55 -129 55q-45 0 -75 -7.5t-38.5 -14t-9.5 -12.5h-465v473h1159v-209h-692v-115q13 13 39 26t105.5 28.5
t189.5 15.5q101 0 175.5 -11t121.5 -29.5t75.5 -48t39 -62.5t10.5 -77v-12q0 -46 -11 -82t-49.5 -76t-103 -66t-181 -43.5t-274.5 -17.5z" />
    <glyph glyph-name="six.sup" unicode="&#x2076;" horiz-adv-x="1388" 
d="M743 745h-57q-124 0 -224.5 14t-168 37t-117.5 56.5t-78 67t-44.5 74.5t-21.5 73t-5 68v28q0 38 5.5 71.5t23 73.5t46 72.5t78.5 64t116.5 53.5t163.5 35t216 13h43q620 0 620 -270h-493l-4 5q-4 5 -8 9t-14.5 10.5t-23.5 10.5t-34 7t-47 3q-47 0 -81.5 -12.5t-51 -29
t-26.5 -41.5t-11.5 -41t-1.5 -36v-2q106 74 370 74h11q114 0 195.5 -10.5t131 -28t78 -45.5t38 -58.5t9.5 -72.5v-14q0 -40 -11 -72.5t-50 -69t-105 -60.5t-185.5 -40.5t-281.5 -16.5zM563 1016v-2q0 -62 148 -62q147 0 147 62v2q0 11 -3.5 19t-16.5 18.5t-45 16t-82 5.5
q-49 0 -81 -5.5t-45.5 -15.5t-17.5 -18.5t-4 -19.5z" />
    <glyph glyph-name="seven.sup" unicode="&#x2077;" horiz-adv-x="1280" 
d="M33 1524h1222v-211q-122 -122 -170 -183q-66 -83 -84 -149.5t-18 -208.5v-2h-614v121q0 37 9 62.5t38 54t61 50t101 64.5q180 109 207 132q21 19 22 30h-287v-137h-487v377z" />
    <glyph glyph-name="eight.sup" unicode="&#x2078;" horiz-adv-x="1351" 
d="M1315 1352v-13q0 -72 -63.5 -113t-159.5 -55q48 -7 88.5 -19t78 -32.5t59 -53t21.5 -73.5v-16q0 -24 -4.5 -43.5t-20 -44t-42 -43t-74.5 -37.5t-114 -31.5t-164 -20t-220 -7.5h-49q-122 0 -220 7.5t-164 20t-114 31.5t-74.5 37.5t-42 43t-20 44t-4.5 43.5v16
q0 41 21 73.5t58 53t78.5 33t90.5 18.5q-96 14 -159.5 55t-63.5 113v13q0 29 8 51.5t30 46t65.5 39.5t109.5 30t167.5 20.5t233.5 6.5h49q132 0 233.5 -6.5t167.5 -20.5t109.5 -30t66 -39.5t30.5 -46t8 -51.5zM797 1303v4q0 25 -25 37t-96 12t-96 -12t-25 -37v-4
q0 -26 25.5 -40t95.5 -14t95.5 14t25.5 40zM807 1026v2q0 32 -28 47t-103 15q-77 0 -104 -15t-27 -47v-2q0 -32 27 -47.5t104 -15.5q75 0 103 15.5t28 47.5z" />
    <glyph glyph-name="nine.sup" unicode="&#x2079;" horiz-adv-x="1392" 
d="M829 1276v2q0 12 -3.5 20.5t-16.5 19t-45 16t-82 5.5q-49 0 -81 -5.5t-45 -16t-17 -19t-4 -20.5v-2q0 -11 4 -19.5t17 -18.5t45 -15.5t81 -5.5q50 0 82 5.5t45 16t16.5 18.5t3.5 19zM725 745h-45q-625 0 -625 271h494q0 -5 9 -14.5t40.5 -20t79.5 -10.5t82.5 12.5
t51.5 29t27 41t11.5 40.5t1.5 36v3q-125 -74 -365 -74h-12q-109 0 -191.5 12t-132.5 31.5t-81 48.5t-42.5 59t-11.5 66v12q0 41 9.5 72t47 68t101.5 61t182 40.5t281 16.5h57q124 0 225.5 -14t170 -36t120.5 -54.5t81.5 -65t47.5 -72t23.5 -71t5.5 -66.5v-28
q0 -394 -643 -394z" />
    <glyph glyph-name="zero.sub" unicode="&#x2080;" horiz-adv-x="1419" 
d="M684 584h49q169 0 294 -25t194 -62.5t110 -92t52.5 -101.5t11.5 -104v-31q0 -57 -11.5 -104t-52.5 -101.5t-110 -92t-194 -62.5t-294 -25h-49q-122 0 -221 13t-166 34.5t-117.5 53t-79 64t-45.5 73t-22.5 74.5t-5.5 73v31q0 57 11.5 104t52 101.5t109 92t192.5 62.5
t292 25zM852 182v13q0 24 -6 46.5t-20.5 45.5t-44.5 37t-72 14q-44 0 -74 -13.5t-44.5 -37t-20 -45.5t-5.5 -47v-13q0 -25 6 -48.5t21 -47t45 -37.5t72 -14q44 0 74 14t44 38t19.5 46.5t5.5 48.5z" />
    <glyph glyph-name="one.sub" unicode="&#x2081;" horiz-adv-x="841" 
d="M254 197h-225v233q68 2 120 10.5t82.5 19.5t53 29.5t33 33.5t20.5 38h453v-754h-537v390z" />
    <glyph glyph-name="two.sub" unicode="&#x2082;" horiz-adv-x="1292" 
d="M1270 -193h-1245v115q0 40 3 66t15.5 59t36 55.5t66.5 48.5t104.5 46t151.5 40t208 37q62 8 96.5 18t44 19.5t9.5 22.5v2q0 20 -22.5 30.5t-88.5 10.5q-70 0 -95.5 -22t-25.5 -48h-493v6q0 25 2.5 44t15.5 48.5t36 52t67.5 47.5t106 41.5t156.5 27t214 10.5h37
q147 0 256.5 -13t175.5 -34t106 -53.5t54 -66t14 -75.5v-10q0 -72 -44.5 -114t-171.5 -72t-364 -46q-240 -19 -274 -45h848v-248z" />
    <glyph glyph-name="three.sub" unicode="&#x2083;" horiz-adv-x="1329" 
d="M680 -217h-70q-153 0 -267 21t-175.5 51t-98.5 72t-47 74t-10 67v10h488q0 -10 9 -22t42.5 -25t85.5 -13q58 0 90.5 7t42.5 16.5t10 24.5v2q0 19 -17 27.5t-63 8.5h-192v193h186q70 0 70 31v2q0 13 -8.5 21.5t-37.5 15t-81 6.5q-34 0 -59.5 -4t-38.5 -10t-21 -13.5
t-10 -12.5t-2 -9h-479v12q0 13 2 26t13.5 39.5t32 48.5t62.5 48t99.5 44t149.5 30t206 12h82q154 0 265 -10.5t174 -27t99.5 -42t47 -49.5t10.5 -56v-10q0 -64 -53.5 -98t-131.5 -43q103 -13 167.5 -61.5t64.5 -133.5v-6q0 -43 -10.5 -75.5t-49 -70t-105 -61.5t-187 -40.5
t-285.5 -16.5z" />
    <glyph glyph-name="four.sub" unicode="&#x2084;" horiz-adv-x="1273" 
d="M14 209l570 352h536v-344h137v-248h-137v-162h-518v162h-588v240zM342 217h260v158z" />
    <glyph glyph-name="five.sub" unicode="&#x2085;" horiz-adv-x="1286" 
d="M645 -217h-31q-118 0 -212 10.5t-154.5 26.5t-104 40.5t-65.5 45.5t-34.5 49.5t-14.5 45t-2 38.5v6h479q0 -6 8.5 -14t38.5 -16.5t76 -8.5q129 0 129 55v7q0 55 -129 55q-45 0 -75 -7.5t-38 -14.5t-10 -13h-465v473h1159v-209h-692v-114q9 9 26.5 18t54 22t103 21
t150.5 8q126 0 210.5 -15.5t130 -47t63.5 -70.5t18 -94v-12q0 -46 -11 -82t-49.5 -76t-103 -66t-181 -43.5t-274.5 -17.5z" />
    <glyph glyph-name="six.sub" unicode="&#x2086;" horiz-adv-x="1388" 
d="M743 -217h-57q-124 0 -224.5 14t-168 37t-117.5 56.5t-78 66.5t-44.5 74t-21.5 73t-5 68v29q0 38 5.5 71.5t23 73.5t46 72.5t78.5 64t116.5 53.5t163.5 35t216 13h43q620 0 620 -271h-493l-4 5q-4 5 -8 9t-14.5 10.5t-23.5 10.5t-34 7t-47 3q-47 0 -81.5 -12.5t-51 -29
t-26.5 -41t-11.5 -40.5t-1.5 -36v-2q105 73 370 73h11q114 0 195.5 -10.5t131 -28t78 -45.5t38 -58.5t9.5 -72.5v-14q0 -40 -11 -72t-50 -68.5t-105 -61t-185.5 -40.5t-281.5 -16zM563 53v-2q0 -61 148 -61q147 0 147 61v2q0 11 -3.5 19.5t-16.5 19t-45 16t-82 5.5
q-49 0 -81 -5.5t-45.5 -16t-17.5 -19t-4 -19.5z" />
    <glyph glyph-name="seven.sub" unicode="&#x2087;" horiz-adv-x="1280" 
d="M33 561h1222v-211l-22 -22t-33 -32.5t-35.5 -36.5t-41 -45t-38.5 -46q-66 -83 -84 -149.5t-18 -208.5v-3h-614v121q0 69 40 110.5t169 121.5q180 109 207 132q21 19 22 30h-287v-138h-487v377z" />
    <glyph glyph-name="eight.sub" unicode="&#x2088;" horiz-adv-x="1351" 
d="M1315 389v-12q0 -72 -63.5 -113t-159.5 -55q48 -7 88.5 -19t78 -32.5t59 -53t21.5 -73.5v-17q0 -24 -4.5 -43.5t-20 -44t-42 -43t-74.5 -37.5t-114 -31.5t-164 -20t-220 -7.5h-49q-122 0 -220 7.5t-164 20t-114 31.5t-74.5 37.5t-42 43t-20 44t-4.5 43.5v17q0 41 21 73.5
t58 53t78.5 33t90.5 18.5q-96 14 -159.5 55t-63.5 113v12q0 29 8 51.5t30 46t65.5 40t109.5 30t167.5 20.5t233.5 7h49q158 0 272 -10.5t179.5 -27t103 -43.5t49 -52.5t11.5 -61.5zM797 340v4q0 25 -25 37t-96 12t-96 -12t-25 -37v-4q0 -26 25.5 -39.5t95.5 -13.5t95.5 13.5
t25.5 39.5zM807 63v3q0 31 -28 46t-103 15q-77 0 -104 -14.5t-27 -46.5v-3q0 -32 27 -47.5t104 -15.5q75 0 103 15.5t28 47.5z" />
    <glyph glyph-name="nine.sub" unicode="&#x2089;" horiz-adv-x="1392" 
d="M829 313v2q0 12 -3.5 20.5t-16.5 19.5t-45 16.5t-82 5.5q-49 0 -81 -5.5t-45 -16.5t-17 -19.5t-4 -20.5v-2q0 -11 4 -19.5t17 -18.5t45 -15.5t81 -5.5q50 0 82 5.5t45 16t16.5 18.5t3.5 19zM725 -217h-45q-625 0 -625 270h494q0 -5 9 -14.5t40.5 -20t79.5 -10.5
t82.5 12.5t51.5 29t27 41.5t11.5 41t1.5 36v2q-125 -74 -365 -74h-12q-109 0 -191.5 12t-132.5 31.5t-81 48.5t-42.5 59t-11.5 66v13q0 41 9.5 72t47 68t101.5 61t182 40.5t281 16.5h57q124 0 225.5 -14t170 -36t120.5 -54.5t81.5 -65t47.5 -72t23.5 -71t5.5 -66.5v-29
q0 -393 -643 -393z" />
    <glyph glyph-name="Euro" unicode="&#x20ac;" horiz-adv-x="2504" 
d="M1382 -31h-71q-191 0 -349.5 23t-271.5 65.5t-199 96.5t-142 122t-89 135.5t-51 143.5h-186v182h165v74h-165v176h186q21 90 64.5 167.5t128.5 153t203.5 128.5t299.5 85.5t406 32.5h71q191 0 350 -23t270 -61t197 -91t137.5 -108.5t84.5 -118.5t45 -117t12 -107v-31
h-788q-4 21 -12 40.5t-32.5 51.5t-61 54.5t-103 39.5t-152.5 17q-138 0 -219 -27t-119 -86h537v-176h-584v-74h584v-182h-539q41 -66 123 -96.5t217 -30.5q89 0 157 18.5t104 43.5t60 59t30.5 55t9.5 41h788v-31q0 -51 -11.5 -104.5t-44 -118t-83.5 -122.5t-137.5 -114
t-197 -96.5t-271 -65t-351.5 -24.5z" />
    <glyph glyph-name="uni20B4" unicode="&#x20b4;" horiz-adv-x="2619" 
d="M2599 1006v-181h-2579v181h1422l-25 2q59 0 91 24.5t32 67.5v4q0 21 -9 37.5t-31.5 31.5t-68 23t-112.5 8q-58 0 -101.5 -8.5t-67 -20.5t-38.5 -30t-20 -32t-7 -32h-892v11q0 69 18.5 125.5t61 109.5t118 92.5t184.5 69.5t267 45.5t358 15.5h260q257 0 444 -28t301 -83.5
t168 -132t54 -178.5v-18q0 -51 -35 -104h207zM2451 498v-17q0 -49 -7 -91t-31.5 -96.5t-66.5 -97.5t-118.5 -87t-179.5 -73.5t-258 -48t-346 -18.5h-268q-238 0 -422.5 26t-299.5 68t-188.5 102.5t-102 124t-28.5 136.5v23q0 59 27 124h-142v181h2579v-181h-1487
q-47 -30 -47 -106v-6q0 -50 54.5 -88.5t176.5 -38.5h2q242 0 242 164h911z" />
    <glyph glyph-name="uni20B8" unicode="&#x20b8;" horiz-adv-x="2162" 
d="M35 1346v178h2093v-178h-2093zM35 750v524h2093v-524h-658v-750h-778v750h-657z" />
    <glyph glyph-name="uni20BD" unicode="&#x20bd;" horiz-adv-x="2451" 
d="M2441 1004v-54q0 -534 -747 -534h-736v-72h852v-182h-852v-162h-778v162h-164v182h164v72h-164v178h164v930h1514q172 0 303.5 -27t214.5 -73t135.5 -113.5t73 -141.5t20.5 -165zM958 1077v-250h545q73 0 105 34.5t32 88.5v4q0 123 -137 123h-545z" />
    <glyph glyph-name="uni2116" unicode="&#x2116;" horiz-adv-x="3895" 
d="M3205 659h-41q-119 0 -217 15t-165.5 40t-119.5 61t-82 73.5t-49 82t-25.5 82.5t-6.5 79v26q0 41 6.5 78.5t25.5 80.5t50 79.5t83 71t120 58t166.5 38t217.5 14.5h33q165 0 289.5 -27.5t195.5 -69.5t114.5 -101t57 -111t13.5 -111v-26q0 -59 -13.5 -112.5t-56.5 -114.5
t-113 -104.5t-194.5 -72.5t-288.5 -29zM3185 963q85 0 125.5 39t40.5 98v6q0 59 -40.5 97t-125.5 38t-125.5 -38t-40.5 -97v-6q0 -59 40.5 -98t125.5 -39zM2521 233v359h1327v-359h-1327zM63 1524h879l717 -693v693h778v-1524h-792l-803 762v-762h-779v1524z" />
    <glyph glyph-name="trademark" unicode="&#x2122;" horiz-adv-x="2301" 
d="M922 1247h-217v-456h-469v456h-218v277h904v-277zM975 791v733h586l69 -310l72 310h555v-733h-399v376l-117 -376h-256l-115 376v-376h-395z" />
    <glyph glyph-name="onethird" unicode="&#x2153;" horiz-adv-x="2592" 
d="M254 1159h-225v234q68 2 120 10.5t82.5 19.5t53 29.5t33 33.5t20.5 38h453v-754h-537v389zM1786 1524h489l-1831 -1524h-475zM1944 -25h-70q-153 0 -267 21t-175.5 51t-98.5 72t-47 74t-10 67v10h487q0 -5 3 -11.5t12.5 -15t24 -15.5t40 -12t58.5 -5q58 0 90.5 6.5
t42.5 16t10 24.5v2q0 20 -17 28.5t-63 8.5h-192v192h186q70 0 70 31v2q0 13 -8.5 21.5t-37.5 15t-81 6.5q-54 0 -86 -11t-39 -20.5t-7 -17.5h-479v12q0 13 2 26t13.5 39.5t32 48.5t62.5 48t99.5 44t149.5 30t206 12h82q154 0 265 -10.5t174 -26.5t99.5 -42t47 -49.5
t10.5 -55.5v-10q0 -65 -53.5 -99t-130.5 -43q103 -13 167 -61t64 -133v-6q0 -35 -8 -63t-29.5 -60t-66.5 -56t-112 -44.5t-174 -31t-246 -10.5z" />
    <glyph glyph-name="twothirds" unicode="&#x2154;" horiz-adv-x="3041" 
d="M1270 770h-1245v115q0 40 3 66t15.5 59t36 55.5t66.5 48.5t104.5 46t151.5 40t208 37q62 8 96.5 18t44 19t9.5 22v2q0 20 -22.5 30.5t-88.5 10.5q-37 0 -63 -7t-37.5 -19t-16 -22t-4.5 -21h-493v6q0 25 2.5 44t15.5 48.5t36 52t67.5 47.5t106 41t156.5 26.5t214 10.5h37
q183 0 307 -18.5t187 -53.5t87.5 -75t24.5 -94v-11q0 -72 -44.5 -114t-171.5 -71.5t-364 -45.5q-240 -19 -274 -45h848v-248zM2238 1524h490l-1831 -1524h-475zM2392 -25h-70q-153 0 -267 21t-175.5 51t-98.5 72t-47 74t-10 67v10h488q0 -5 3 -11.5t12.5 -15t23.5 -15.5
t39.5 -12t58.5 -5q58 0 90.5 6.5t42.5 16t10 24.5v2q0 20 -17 28.5t-62 8.5h-193v192h186q70 0 70 31v2q0 13 -8.5 21.5t-37.5 15t-81 6.5q-34 0 -59.5 -4t-38.5 -10t-21 -13.5t-10 -12.5t-2 -9h-479v12q0 13 2 26t13.5 39.5t32 48.5t62.5 48t99.5 44t149.5 30t206 12h82
q154 0 265 -10.5t174 -26.5t99.5 -42t47 -49.5t10.5 -55.5v-10q0 -65 -53.5 -99t-130.5 -43q103 -13 167 -61t64 -133v-6q0 -43 -10.5 -75.5t-49 -70t-105 -62t-187 -41t-285.5 -16.5z" />
    <glyph glyph-name="oneeighth" unicode="&#x215b;" horiz-adv-x="2639" 
d="M254 1159h-225v234q68 2 120 10.5t82.5 19.5t53 29.5t33 33.5t20.5 38h453v-754h-537v389zM1786 1524h489l-1831 -1524h-475zM2603 582v-13q0 -72 -63.5 -113t-159.5 -55q48 -7 89 -19t78.5 -32.5t59 -53t21.5 -73.5v-16q0 -24 -4.5 -43.5t-20 -44t-42 -43t-74.5 -37.5
t-114 -31.5t-164 -20t-220 -7.5h-50q-122 0 -220 7.5t-164 20t-114 31.5t-74.5 37.5t-42 43t-20 44t-4.5 43.5v16q0 41 21 73.5t58 53t78.5 33t90.5 18.5q-96 14 -159.5 55t-63.5 113v13q0 29 8 51.5t30 46t65.5 39.5t109.5 30t167.5 20.5t233.5 6.5h50q132 0 233.5 -6.5
t167.5 -20.5t109.5 -30t65.5 -39.5t30 -46t8 -51.5zM2085 532v5q0 25 -25 37t-96 12t-96 -12t-25 -37v-5q0 -26 25.5 -39.5t95.5 -13.5t95.5 13.5t25.5 39.5zM2095 256v2q0 31 -28 46t-103 15q-77 0 -104 -14.5t-27 -46.5v-2q0 -32 27 -47.5t104 -15.5q75 0 103 15.5
t28 47.5z" />
    <glyph glyph-name="threeeighths" unicode="&#x215c;" horiz-adv-x="3010" 
d="M2154 1524h490l-1831 -1524h-475zM680 748h-70q-111 0 -201.5 11t-151.5 28.5t-107 42.5t-71.5 50t-41 54t-20.5 51.5t-5 46.5v10h488q0 -5 3 -11.5t12.5 -15t23.5 -15.5t39.5 -12t58.5 -5q58 0 90.5 6.5t42.5 16t10 24.5v2q0 20 -17 28.5t-63 8.5h-192v193h186
q70 0 70 30v2q0 13 -8.5 21.5t-37.5 15t-81 6.5q-34 0 -59.5 -4t-38.5 -10t-21 -13.5t-10 -12.5t-2 -9h-479v12q0 13 2 26t13.5 39.5t32 48.5t62.5 48t99.5 44t149.5 30t206 12h82q154 0 265 -10.5t174 -26.5t99.5 -42t47 -49.5t10.5 -55.5v-10q0 -65 -54 -99t-131 -43
q103 -13 167.5 -61t64.5 -133v-6q0 -43 -10.5 -75.5t-49 -70t-105 -61.5t-187 -40.5t-285.5 -16.5zM2974 582v-13q0 -72 -64 -113t-160 -55q48 -7 89 -19t78.5 -32.5t59 -53t21.5 -73.5v-16q0 -24 -4.5 -43.5t-20 -44t-42 -43t-74.5 -37.5t-114 -31.5t-164 -20t-220 -7.5
h-49q-122 0 -220 7.5t-164 20t-114 31.5t-74.5 37.5t-42 43t-20 44t-4.5 43.5v16q0 41 21 73.5t58 53t78.5 33t90.5 18.5q-96 14 -159.5 55t-63.5 113v13q0 29 8 51.5t30 46t65.5 39.5t109.5 30t167.5 20.5t233.5 6.5h49q132 0 233.5 -6.5t167.5 -20.5t109.5 -30t66 -39.5
t30.5 -46t8 -51.5zM2456 532v5q0 25 -25 37t-96 12t-96 -12t-25 -37v-5q0 -26 25.5 -39.5t95.5 -13.5t95.5 13.5t25.5 39.5zM2466 256v2q0 31 -28 46t-103 15q-77 0 -104 -14.5t-27 -46.5v-2q0 -32 27 -47.5t104 -15.5q75 0 103 15.5t28 47.5z" />
    <glyph glyph-name="fiveeighths" unicode="&#x215d;" horiz-adv-x="2951" 
d="M2095 1524h490l-1831 -1524h-475zM645 745h-31q-118 0 -212 10.5t-154.5 26.5t-104 40.5t-65.5 45.5t-34.5 49.5t-14.5 45t-2 38.5v7h479q0 -6 8.5 -14t38.5 -16.5t76 -8.5q129 0 129 55v6q0 55 -129 55q-45 0 -75 -7.5t-38.5 -14t-9.5 -12.5h-465v473h1159v-209h-692
v-115q13 13 39 26t105.5 28.5t189.5 15.5q101 0 175.5 -11t121.5 -29.5t75.5 -48t39 -62.5t10.5 -77v-12q0 -46 -11 -82t-49.5 -76t-103 -66t-181 -43.5t-274.5 -17.5zM2914 582v-13q0 -72 -63.5 -113t-159.5 -55q48 -7 89 -19t78.5 -32.5t59 -53t21.5 -73.5v-16
q0 -24 -4.5 -43.5t-20 -44t-42 -43t-74.5 -37.5t-114 -31.5t-164 -20t-220 -7.5h-49q-122 0 -220 7.5t-164 20t-114 31.5t-74.5 37.5t-42 43t-20 44t-4.5 43.5v16q0 41 21 73.5t58 53t78.5 33t90.5 18.5q-96 14 -160 55t-64 113v13q0 29 8 51.5t30.5 46t66 39.5t109.5 30
t167.5 20.5t233.5 6.5h49q132 0 233.5 -6.5t167.5 -20.5t109.5 -30t65.5 -39.5t30 -46t8 -51.5zM2396 532v5q0 25 -25 37t-96 12t-96 -12t-25 -37v-5q0 -26 25.5 -39.5t95.5 -13.5t95.5 13.5t25.5 39.5zM2406 256v2q0 31 -28 46t-103 15q-77 0 -104 -14.5t-27 -46.5v-2
q0 -32 27 -47.5t104 -15.5q75 0 103 15.5t28 47.5z" />
    <glyph glyph-name="seveneighths" unicode="&#x215e;" horiz-adv-x="2801" 
d="M33 1524h1222v-211q-122 -122 -170 -183q-66 -83 -84 -149.5t-18 -208.5v-2h-614v121q0 37 9 62.5t38 54t61 50t101 64.5q180 109 207 132q21 19 22 30h-287v-137h-487v377zM1946 1524h489l-1831 -1524h-475zM2765 582v-13q0 -72 -63.5 -113t-159.5 -55q48 -7 88.5 -19
t78 -32.5t59 -53t21.5 -73.5v-16q0 -24 -4.5 -43.5t-20 -44t-42 -43t-74.5 -37.5t-114 -31.5t-164 -20t-220 -7.5h-49q-122 0 -220 7.5t-164 20t-114 31.5t-74.5 37.5t-42 43t-20 44t-4.5 43.5v16q0 41 21 73.5t58 53t78.5 33t90.5 18.5q-96 14 -159.5 55t-63.5 113v13
q0 29 8 51.5t30 46t65.5 39.5t109.5 30t167.5 20.5t233.5 6.5h49q132 0 233.5 -6.5t167.5 -20.5t109.5 -30t66 -39.5t30.5 -46t8 -51.5zM2247 532v5q0 25 -25 37t-96 12t-96 -12t-25 -37v-5q0 -26 25.5 -39.5t95.5 -13.5t95.5 13.5t25.5 39.5zM2257 256v2q0 31 -28 46
t-103 15q-77 0 -104 -14.5t-27 -46.5v-2q0 -32 27 -47.5t104 -15.5q75 0 103 15.5t28 47.5z" />
    <glyph glyph-name="minus" unicode="&#x2212;" horiz-adv-x="1210" 
d="M29 813h1153v-360h-1153v360z" />
    <glyph glyph-name="uni24C5" unicode="&#x24c5;" horiz-adv-x="2504" 
d="M2474 793v-58q0 -88 -16 -166.5t-55 -157t-100.5 -143t-157.5 -121.5t-219.5 -95.5t-293 -60.5t-372.5 -22h-17q-203 0 -372 22.5t-292.5 61t-219 95.5t-157 122t-100.5 143.5t-55 156.5t-16 165v58q0 86 15.5 163.5t54.5 155.5t100 142.5t156 121t218 95.5t291.5 61
t370.5 22h27q203 0 373 -22.5t293 -61.5t218.5 -96t156 -122t99.5 -143t54.5 -154.5t15.5 -161.5zM1237 172h27q206 2 361 29t256.5 73.5t164.5 117.5t89 154t26 189v58q0 104 -26 186t-89 153.5t-164 119t-257 74t-361 26.5h-27q-204 0 -359 -26.5t-255.5 -74t-163.5 -119
t-89 -153.5t-26 -186v-58q0 -105 25.5 -187.5t88 -153.5t163 -118.5t255.5 -74.5t361 -29zM1483 565h-295v-241h-553v882h848q152 0 255 -20t161 -60.5t82 -93.5t24 -127v-31q0 -74 -25.5 -128.5t-84 -96t-161.5 -63t-251 -21.5zM1188 963v-146h172q46 0 66 18t20 54v4
q0 70 -86 70h-172z" />
    <glyph glyph-name="zero.den" unicode="&#xe402;" horiz-adv-x="1419" 
d="M684 776h49q169 0 294 -25t194 -62.5t110 -92t52.5 -101.5t11.5 -104v-31q0 -57 -11.5 -104t-52.5 -101.5t-110 -92t-194 -62.5t-294 -25h-49q-122 0 -221 13t-166 34.5t-117.5 53t-79 64t-45.5 73t-22.5 74.5t-5.5 73v31q0 57 11.5 104t52 101.5t109 92t192.5 62.5
t292 25zM852 375v12q0 24 -6 46.5t-20.5 45.5t-44.5 37t-72 14q-44 0 -74 -13.5t-44.5 -37t-20 -45.5t-5.5 -47v-12q0 -25 6 -48.5t21 -47t45 -38t72 -14.5q44 0 74 14t44 38.5t19.5 47t5.5 48.5z" />
    <glyph glyph-name="one.den" unicode="&#xe403;" horiz-adv-x="841" 
d="M254 389h-225v234q68 2 120 10.5t82.5 19.5t53 29.5t33 33.5t20.5 38h453v-754h-537v389z" />
    <glyph glyph-name="two.den" unicode="&#xe404;" horiz-adv-x="1292" 
d="M1270 0h-1245v115q0 40 3 66t15.5 59t36 55.5t66.5 48.5t104.5 46t151.5 40t208 37q62 8 96.5 18t44 19t9.5 22v2q0 20 -22.5 30.5t-88.5 10.5q-37 0 -63 -7t-37.5 -19t-16 -22t-4.5 -21h-493v6q0 25 2.5 44t15.5 48.5t36 52t67.5 47.5t106 41t156.5 26.5t214 10.5h37
q183 0 307 -18.5t187 -53.5t87.5 -75t24.5 -94v-11q0 -72 -44.5 -114t-171.5 -71.5t-364 -45.5q-240 -19 -274 -45h848v-248z" />
    <glyph glyph-name="three.den" unicode="&#xe405;" horiz-adv-x="1329" 
d="M680 -25h-70q-153 0 -267 21t-175.5 51t-98.5 72t-47 74t-10 67v10h488q0 -5 3 -11.5t12.5 -15t23.5 -15.5t39.5 -12t58.5 -5q58 0 90.5 6.5t42.5 16t10 24.5v2q0 20 -17 28.5t-63 8.5h-192v192h186q70 0 70 31v2q0 13 -8.5 21.5t-37.5 15t-81 6.5q-34 0 -59.5 -4
t-38.5 -10t-21 -13.5t-10 -12.5t-2 -9h-479v12q0 13 2 26t13.5 39.5t32 48.5t62.5 48t99.5 44t149.5 30t206 12h82q154 0 265 -10.5t174 -26.5t99.5 -42t47 -49.5t10.5 -55.5v-10q0 -65 -54 -99t-131 -43q103 -13 167.5 -61t64.5 -133v-6q0 -43 -10.5 -75.5t-49 -70
t-105 -62t-187 -41t-285.5 -16.5z" />
    <glyph glyph-name="four.den" unicode="&#xe406;" horiz-adv-x="1273" 
d="M14 401l570 353h536v-344h137v-248h-137v-162h-518v162h-588v239zM342 410h260v157z" />
    <glyph glyph-name="five.den" unicode="&#xe407;" horiz-adv-x="1286" 
d="M645 -25h-31q-118 0 -212 10.5t-154.5 26.5t-104 40.5t-65.5 45.5t-34.5 49.5t-14.5 45t-2 38.5v7h479q0 -6 8.5 -14t38.5 -16.5t76 -8.5q129 0 129 55v6q0 55 -129 55q-45 0 -75 -7.5t-38.5 -14t-9.5 -12.5h-465v473h1159v-209h-692v-115q13 13 39 26t105.5 28.5
t189.5 15.5q101 0 175.5 -11t121.5 -29.5t75.5 -48t39 -62.5t10.5 -77v-12q0 -46 -11 -82t-49.5 -76t-103 -66t-181 -43.5t-274.5 -17.5z" />
    <glyph glyph-name="six.den" unicode="&#xe408;" horiz-adv-x="1388" 
d="M743 -25h-57q-124 0 -224.5 14t-168 37t-117.5 56.5t-78 67t-44.5 74.5t-21.5 73t-5 68v28q0 38 5.5 71.5t23 73.5t46 72.5t78.5 64t116.5 53.5t163.5 35t216 13h43q620 0 620 -270h-493l-4 5q-4 5 -8 9t-14.5 10.5t-23.5 10.5t-34 7t-47 3q-47 0 -81.5 -12.5t-51 -29
t-26.5 -41.5t-11.5 -41t-1.5 -36v-2q106 74 370 74h11q114 0 195.5 -10.5t131 -28t78 -45.5t38 -58.5t9.5 -72.5v-15q0 -40 -11 -72t-50 -68.5t-105 -61t-185.5 -40.5t-281.5 -16zM563 246v-2q0 -62 148 -62q147 0 147 62v2q0 11 -3.5 19t-16.5 18.5t-45 16t-82 5.5
q-49 0 -81 -5.5t-45.5 -15.5t-17.5 -18.5t-4 -19.5z" />
    <glyph glyph-name="seven.den" unicode="&#xe409;" horiz-adv-x="1280" 
d="M33 754h1222v-211q-122 -122 -170 -183q-66 -83 -84 -149.5t-18 -208.5v-2h-614v121q0 37 9 62.5t38 54t61 50t101 64.5q180 109 207 132q21 19 22 30h-287v-137h-487v377z" />
    <glyph glyph-name="eight.den" unicode="&#xe40a;" horiz-adv-x="1351" 
d="M1315 582v-13q0 -72 -63.5 -113t-159.5 -55q48 -7 88.5 -19t78 -32.5t59 -53t21.5 -73.5v-16q0 -24 -4.5 -43.5t-20 -44t-42 -43t-74.5 -37.5t-114 -31.5t-164 -20t-220 -7.5h-49q-122 0 -220 7.5t-164 20t-114 31.5t-74.5 37.5t-42 43t-20 44t-4.5 43.5v16q0 41 21 73.5
t58 53t78.5 33t90.5 18.5q-96 14 -159.5 55t-63.5 113v13q0 29 8 51.5t30 46t65.5 39.5t109.5 30t167.5 20.5t233.5 6.5h49q132 0 233.5 -6.5t167.5 -20.5t109.5 -30t66 -39.5t30.5 -46t8 -51.5zM797 532v5q0 25 -25 37t-96 12t-96 -12t-25 -37v-5q0 -26 25.5 -39.5
t95.5 -13.5t95.5 13.5t25.5 39.5zM807 256v2q0 31 -28 46t-103 15q-77 0 -104 -14.5t-27 -46.5v-2q0 -32 27 -47.5t104 -15.5q75 0 103 15.5t28 47.5z" />
    <glyph glyph-name="nine.den" unicode="&#xe40b;" horiz-adv-x="1392" 
d="M829 506v2q0 12 -3.5 20.5t-16.5 19t-45 16t-82 5.5q-49 0 -81 -5.5t-45 -16t-17 -19t-4 -20.5v-2q0 -11 4 -19.5t17 -19t45 -16t81 -5.5q50 0 82 5.5t45 16t16.5 19t3.5 19.5zM725 -25h-45q-625 0 -625 271h494q0 -5 9 -14.5t40.5 -20t79.5 -10.5t82.5 12.5t51.5 29
t27 41t11.5 40.5t1.5 36v2q-123 -73 -365 -73h-12q-109 0 -191.5 12t-132.5 31.5t-81 48.5t-42.5 59t-11.5 66v12q0 41 9.5 72t47 68t101.5 61t182 40.5t281 16.5h57q124 0 225.5 -14t170 -36t120.5 -54.5t81.5 -65t47.5 -72t23.5 -71t5.5 -66.5v-28q0 -394 -643 -394z" />
    <glyph glyph-name="zero.num" unicode="&#xe416;" horiz-adv-x="1419" 
d="M684 1546h49q169 0 294 -25t194 -62.5t110 -92t52.5 -101.5t11.5 -104v-31q0 -57 -11.5 -104t-52.5 -101.5t-110 -92t-194 -62.5t-294 -25h-49q-122 0 -221 13t-166 34.5t-117.5 53t-79 64t-45.5 73t-22.5 74.5t-5.5 73v31q0 57 11.5 104t52 101.5t109 92t192.5 62.5
t292 25zM852 1145v12q0 24 -6 46.5t-20.5 45.5t-44.5 37t-72 14q-44 0 -74 -13.5t-44.5 -37t-20 -45.5t-5.5 -47v-12q0 -25 6 -48.5t21 -47t45 -38t72 -14.5q44 0 74 14t44 38.5t19.5 47t5.5 48.5z" />
    <glyph glyph-name="one.num" unicode="&#xe417;" horiz-adv-x="841" 
d="M254 1159h-225v234q68 2 120 10.5t82.5 19.5t53 29.5t33 33.5t20.5 38h453v-754h-537v389z" />
    <glyph glyph-name="two.num" unicode="&#xe418;" horiz-adv-x="1292" 
d="M1270 770h-1245v115q0 40 3 66t15.5 59t36 55.5t66.5 48.5t104.5 46t151.5 40t208 37q62 8 96.5 18t44 19t9.5 22v2q0 20 -22.5 30.5t-88.5 10.5q-37 0 -63 -7t-37.5 -19t-16 -22t-4.5 -21h-493v6q0 25 2.5 44t15.5 48.5t36 52t67.5 47.5t106 41t156.5 26.5t214 10.5h37
q183 0 307 -18.5t187 -53.5t87.5 -75t24.5 -94v-11q0 -72 -44.5 -114t-171.5 -71.5t-364 -45.5q-240 -19 -274 -45h848v-248z" />
    <glyph glyph-name="three.num" unicode="&#xe419;" horiz-adv-x="1329" 
d="M680 745h-70q-153 0 -267 21t-175.5 51t-98.5 72t-47 74t-10 67v10h488q0 -5 3 -11.5t12.5 -15t23.5 -15.5t39.5 -12t58.5 -5q58 0 90.5 6.5t42.5 16t10 24.5v2q0 20 -17 28.5t-63 8.5h-192v193h186q70 0 70 30v2q0 13 -8.5 21.5t-37.5 15t-81 6.5q-34 0 -59.5 -4
t-38.5 -10t-21 -13.5t-10 -12.5t-2 -9h-479v12q0 13 2 26t13.5 39.5t32 48.5t62.5 48t99.5 44t149.5 30t206 12h82q154 0 265 -10.5t174 -26.5t99.5 -42t47 -49.5t10.5 -55.5v-10q0 -65 -54 -99t-131 -43q103 -13 167.5 -61t64.5 -133v-6q0 -43 -10.5 -75.5t-49 -70
t-105 -62t-187 -41t-285.5 -16.5z" />
    <glyph glyph-name="four.num" unicode="&#xe41a;" horiz-adv-x="1273" 
d="M14 1171l570 353h536v-344h137v-248h-137v-162h-518v162h-588v239zM342 1180h260v157z" />
    <glyph glyph-name="five.num" unicode="&#xe41b;" horiz-adv-x="1286" 
d="M645 745h-31q-118 0 -212 10.5t-154.5 26.5t-104 40.5t-65.5 45.5t-34.5 49.5t-14.5 45t-2 38.5v7h479q0 -6 8.5 -14t38.5 -16.5t76 -8.5q129 0 129 55v6q0 55 -129 55q-45 0 -75 -7.5t-38.5 -14t-9.5 -12.5h-465v473h1159v-209h-692v-115q13 13 39 26t105.5 28.5
t189.5 15.5q101 0 175.5 -11t121.5 -29.5t75.5 -48t39 -62.5t10.5 -77v-12q0 -46 -11 -82t-49.5 -76t-103 -66t-181 -43.5t-274.5 -17.5z" />
    <glyph glyph-name="six.num" unicode="&#xe41c;" horiz-adv-x="1388" 
d="M743 745h-57q-124 0 -224.5 14t-168 37t-117.5 56.5t-78 67t-44.5 74.5t-21.5 73t-5 68v28q0 38 5.5 71.5t23 73.5t46 72.5t78.5 64t116.5 53.5t163.5 35t216 13h43q620 0 620 -270h-493l-4 5q-4 5 -8 9t-14.5 10.5t-23.5 10.5t-34 7t-47 3q-47 0 -81.5 -12.5t-51 -29
t-26.5 -41.5t-11.5 -41t-1.5 -36v-2q106 74 370 74h11q114 0 195.5 -10.5t131 -28t78 -45.5t38 -58.5t9.5 -72.5v-14q0 -40 -11 -72.5t-50 -69t-105 -60.5t-185.5 -40.5t-281.5 -16.5zM563 1016v-2q0 -62 148 -62q147 0 147 62v2q0 11 -3.5 19t-16.5 18.5t-45 16t-82 5.5
q-49 0 -81 -5.5t-45.5 -15.5t-17.5 -18.5t-4 -19.5z" />
    <glyph glyph-name="seven.num" unicode="&#xe41d;" horiz-adv-x="1280" 
d="M33 1524h1222v-211q-122 -122 -170 -183q-66 -83 -84 -149.5t-18 -208.5v-2h-614v121q0 37 9 62.5t38 54t61 50t101 64.5q180 109 207 132q21 19 22 30h-287v-137h-487v377z" />
    <glyph glyph-name="eight.num" unicode="&#xe41e;" horiz-adv-x="1351" 
d="M1315 1352v-13q0 -72 -63.5 -113t-159.5 -55q48 -7 88.5 -19t78 -32.5t59 -53t21.5 -73.5v-16q0 -24 -4.5 -43.5t-20 -44t-42 -43t-74.5 -37.5t-114 -31.5t-164 -20t-220 -7.5h-49q-122 0 -220 7.5t-164 20t-114 31.5t-74.5 37.5t-42 43t-20 44t-4.5 43.5v16
q0 41 21 73.5t58 53t78.5 33t90.5 18.5q-96 14 -159.5 55t-63.5 113v13q0 29 8 51.5t30 46t65.5 39.5t109.5 30t167.5 20.5t233.5 6.5h49q132 0 233.5 -6.5t167.5 -20.5t109.5 -30t66 -39.5t30.5 -46t8 -51.5zM797 1303v4q0 25 -25 37t-96 12t-96 -12t-25 -37v-4
q0 -26 25.5 -40t95.5 -14t95.5 14t25.5 40zM807 1026v2q0 32 -28 47t-103 15q-77 0 -104 -15t-27 -47v-2q0 -32 27 -47.5t104 -15.5q75 0 103 15.5t28 47.5z" />
    <glyph glyph-name="nine.num" unicode="&#xe41f;" horiz-adv-x="1392" 
d="M829 1276v2q0 12 -3.5 20.5t-16.5 19t-45 16t-82 5.5q-49 0 -81 -5.5t-45 -16t-17 -19t-4 -20.5v-2q0 -11 4 -19.5t17 -18.5t45 -15.5t81 -5.5q50 0 82 5.5t45 16t16.5 18.5t3.5 19zM725 745h-45q-625 0 -625 271h494q0 -5 9 -14.5t40.5 -20t79.5 -10.5t82.5 12.5
t51.5 29t27 41t11.5 40.5t1.5 36v3q-125 -74 -365 -74h-12q-109 0 -191.5 12t-132.5 31.5t-81 48.5t-42.5 59t-11.5 66v12q0 41 9.5 72t47 68t101.5 61t182 40.5t281 16.5h57q124 0 225.5 -14t170 -36t120.5 -54.5t81.5 -65t47.5 -72t23.5 -71t5.5 -66.5v-28
q0 -394 -643 -394z" />
    </font>
</defs>
</svg>
