<svg width="1202" height="488" viewBox="0 0 1202 488" fill="none" xmlns="http://www.w3.org/2000/svg">
<g clip-path="url(#clip0)">
<path d="M84.7396 114.454C77.5687 111.56 70.8111 107.699 64.6385 103.047C58.5644 98.4738 53.0464 93.1753 48.0856 87.4121C43.0377 81.5503 38.5585 75.2044 34.5552 68.6005C30.5412 61.9797 27.0061 55.0869 23.8569 48.0177C20.7611 41.0687 18.0259 33.9594 15.6031 26.7445C15.3073 25.8768 15.0199 25.0036 14.738 24.1389C14.498 23.4135 13.3658 23.7603 13.5974 24.491C15.9666 31.7521 18.6231 38.9239 21.654 45.9383C24.7461 53.1037 28.2042 60.1171 32.1413 66.8587C36.0646 73.5972 40.4584 80.0692 45.4149 86.0848C50.3089 92.0216 55.7457 97.5267 61.7632 102.326C67.7946 107.129 74.3874 111.214 81.435 114.342C82.3517 114.751 83.2744 115.133 84.1971 115.515C84.9078 115.808 85.4502 114.746 84.7396 114.454Z" fill="#D67993"/>
<path d="M19.5611 28.707C18.9028 31.9939 18.4933 35.335 18.7104 38.6896C19.0757 38.5738 19.4411 38.458 19.8065 38.3422C17.861 35.6459 15.0319 33.8498 12.4992 31.7565C11.9112 31.2665 11.1111 32.1488 11.7044 32.6471C14.1387 34.6611 16.93 36.3983 18.7967 38.9906C19.13 39.454 19.9322 39.2598 19.8928 38.6433C19.6907 35.386 20.0846 32.1501 20.7218 28.9599C20.8706 28.2107 19.7099 27.9578 19.5611 28.707Z" fill="#D67993"/>
<path d="M24.3265 38.5889C23.9389 42.4269 23.6426 46.2776 23.6402 50.1416C23.9701 49.9891 24.3031 49.8229 24.633 49.6704C20.3096 46.6948 16.2134 43.4068 11.9038 40.4342C11.2815 40.0019 10.4814 40.8841 11.109 41.3248C15.4325 44.3005 19.5286 47.5884 23.8383 50.5611C24.2467 50.8455 24.8326 50.6475 24.8311 50.0899C24.8401 46.3286 25.1207 42.5831 25.4956 38.8364C25.5723 38.086 24.4062 37.8247 24.3265 38.5889Z" fill="#D67993"/>
<path d="M29.84 48.1924C29.7843 52.8988 29.6066 57.6003 29.6506 62.3139C29.8898 62.1127 30.129 61.9116 30.3683 61.7104C25.3274 60.1344 21.348 56.3436 16.5465 54.2335C15.8473 53.9219 15.3048 54.9834 16.004 55.2949C20.9047 57.4483 24.9531 61.2542 30.11 62.8627C30.4962 62.983 30.8383 62.6089 30.8277 62.2592C30.7891 57.554 30.9613 52.8441 31.0171 48.1377C31.0385 47.3752 29.8476 47.4269 29.84 48.1924Z" fill="#D67993"/>
<path d="M35.6889 58.7809C36.422 63.7532 36.935 68.9381 36.3137 73.9482C36.5962 73.8144 36.8787 73.6805 37.1611 73.5466C32.1792 71.7664 27.7422 68.7805 23.0219 66.4638C22.3341 66.133 21.7862 67.186 22.4794 67.5252C27.2051 69.8503 31.6451 72.8224 36.6187 74.6081C36.9412 74.7218 37.4172 74.6301 37.466 74.2065C38.0976 69.0828 37.6218 63.8265 36.8714 58.7346C36.7678 57.9811 35.5715 58.0243 35.6889 58.7809Z" fill="#D67993"/>
<path d="M42.0421 69.0811C42.2416 74.1109 42.6699 79.2194 44.0652 84.0755C44.2942 83.8215 44.5232 83.5674 44.7577 83.3218C40.0147 81.8396 35.5113 79.657 30.6396 78.5666C29.888 78.3956 29.6405 79.5647 30.3867 79.7273C35.2584 80.8177 39.7534 83.0057 44.5048 84.4825C44.9517 84.6233 45.3155 84.1164 45.1973 83.7288C43.8255 78.9646 43.4229 73.9702 43.2246 69.0348C43.1907 68.2603 42.0082 68.3066 42.0421 69.0811Z" fill="#D67993"/>
<path d="M48.4704 80.6642C48.7376 83.3567 49.6473 85.9576 50.7366 88.4312C51.8554 90.9691 53.17 93.4049 54.5659 95.8006C54.7763 95.499 54.9867 95.1975 55.1972 94.896C50.5895 93.2913 45.5626 93.8099 40.9549 92.2052C40.2352 91.9543 39.9877 93.1234 40.702 93.3659C45.3097 94.9706 50.3366 94.452 54.9443 96.0567C55.4681 96.2432 55.8073 95.55 55.5756 95.1521C54.2308 92.8545 52.9533 90.5136 51.8856 88.0736C50.8443 85.7118 49.9304 83.1969 49.6751 80.6155C49.5883 79.8512 48.3974 79.9029 48.4704 80.6642Z" fill="#D67993"/>
<path d="M84.9466 113.869C80.0035 112.409 75.8581 109.081 72.4075 105.355C68.6301 101.268 65.5459 96.5575 62.7963 91.7392C60.2377 87.2737 57.9759 82.6413 55.7617 77.9904C52.6638 71.4824 50.2276 64.7277 48.2716 57.7955C47.147 53.8234 46.1701 49.8039 45.2431 45.788C44.7737 43.7245 44.3042 41.661 43.857 39.5951C43.4127 37.5153 42.9823 35.4386 42.1757 33.4609C41.8998 33.6975 41.6101 33.9311 41.3342 34.1677C43.7618 35.1164 45.9187 36.6429 47.9012 38.3052C50.0946 40.1292 52.1209 42.1556 54.0799 44.2253C58.1233 48.486 62.2274 52.7671 65.7022 57.5118C69.8002 63.116 73.2684 69.2199 75.924 75.6315C77.1147 78.5035 78.1377 81.4475 79.1385 84.3939C80.1315 87.3097 81.0464 90.2519 81.7996 93.2384C83.4668 99.8689 84.3984 106.853 83.1502 113.644C83.4765 113.542 83.8028 113.439 84.1237 113.328C81.3709 110.318 79.9692 106.322 78.6137 102.546C77.1868 98.5657 75.5977 94.666 73.925 90.7844C71.3292 84.7621 68.5826 78.801 65.4358 73.0495C63.0501 68.6868 60.6392 64.3404 58.2031 60.0101C55.4091 55.0302 52.5762 50.0635 49.659 45.1508C47.4509 41.4348 45.2464 37.6688 42.7101 34.1635C42.5096 33.8882 42.3036 33.6045 42.0947 33.3347C41.6335 32.7276 40.6238 33.376 41.0934 33.9777C43.5517 37.1765 45.6103 40.7153 47.6869 44.1711C50.6023 49.0255 53.4113 53.9363 56.195 58.8634C58.7416 63.3841 61.2576 67.9127 63.7483 72.4574C64.6037 74.0116 65.4676 75.5604 66.2924 77.1224C68.3238 80.9519 70.0607 84.9706 71.8097 88.934C73.5424 92.8721 75.2776 96.8325 76.7393 100.885C78.114 104.673 79.3444 108.625 81.5888 112.009C82.1051 112.794 82.6834 113.528 83.3151 114.216C83.6202 114.543 84.2205 114.312 84.2886 113.9C85.4145 107.769 84.8287 101.49 83.5122 95.4425C82.1776 89.3115 80.1304 83.3291 77.9035 77.474C75.43 70.9573 72.1109 64.734 68.1679 58.9827C64.6525 53.86 60.4493 49.3691 56.2414 44.8337C54.0026 42.4209 51.7188 40.0489 49.2257 37.9063C47.0143 35.9987 44.5848 34.1957 41.843 33.1278C41.4159 32.9624 40.7969 33.3124 41.0015 33.8346C41.7469 35.6616 42.1744 37.5857 42.5796 39.5121C42.9753 41.3497 43.3848 43.1903 43.7973 45.017C44.6307 48.6652 45.5002 52.3139 46.4646 55.9254C48.4228 63.2128 50.8186 70.3855 54.019 77.2199C58.5951 86.9737 63.4091 96.9314 70.5251 105.125C74.3336 109.501 78.9852 113.395 84.6348 115.068C85.4278 115.248 85.6807 114.087 84.9466 113.869Z" fill="#D67993"/>
<path d="M84.3749 114.367C83.196 100.78 84.4313 86.9729 87.5242 73.7084C88.3773 70.0587 89.3825 66.4421 90.5504 62.8754C90.2241 62.978 89.8978 63.0806 89.5769 63.1916C92.6613 66.4401 94.8248 70.4938 96.2894 74.6992C97.8579 79.1588 98.695 83.886 98.7858 88.6171C98.8656 92.7016 98.4664 97.0581 96.972 100.894C95.8116 103.861 94.3964 106.802 92.5842 109.44C90.8886 111.907 87.8641 115.525 84.5465 113.579C84.651 113.798 84.7554 114.016 84.8599 114.234C86.1471 107.596 88.1197 101.1 89.6971 94.525C91.3317 87.6876 92.6977 80.6542 92.5136 73.5942C92.4169 69.8533 91.8377 66.1014 90.5362 62.5756C90.2739 61.8527 89.1388 62.2132 89.3956 62.9278C91.7304 69.284 91.6448 76.2201 90.7518 82.8427C89.8057 89.8084 87.9609 96.6145 86.1911 103.408C85.2768 106.907 84.3678 110.414 83.6884 113.964C83.6366 114.235 83.7626 114.487 84.0017 114.619C87.1132 116.447 90.1851 114.272 92.2039 111.883C94.5004 109.148 96.1741 105.851 97.5534 102.576C101.028 94.367 100.561 84.5893 98.0227 76.1769C96.49 71.0882 94.0415 66.1836 90.3717 62.301C90.0366 61.9457 89.5185 62.2308 89.3981 62.6171C85.1506 75.6011 82.9125 89.3268 82.7725 102.989C82.7323 106.794 82.8638 110.607 83.2009 114.408C83.257 115.18 84.4479 115.128 84.3749 114.367Z" fill="#D67993"/>
<path d="M93.4977 68.7789C92.5802 70.2001 92.0405 71.747 91.4395 73.3095C91.7483 73.2537 92.0572 73.198 92.3661 73.1423C90.9553 71.7783 89.877 70.1177 88.4663 68.7537C87.9096 68.2199 87.1232 69.1051 87.6716 69.6443C89.0823 71.0083 90.1606 72.669 91.5713 74.033C91.8278 74.2842 92.3643 74.213 92.4979 73.8658C93.0989 72.3033 93.6332 70.7479 94.5507 69.3268C94.7245 69.0607 94.5511 68.6611 94.2898 68.5317C93.993 68.3658 93.6715 68.5128 93.4977 68.7789Z" fill="#D67993"/>
<path d="M96.4772 73.9368C94.5606 75.0606 92.8061 76.4369 91.4606 78.228C91.2676 78.4827 91.2476 78.8401 91.5016 79.0692C91.7256 79.27 92.1498 79.2828 92.3428 79.0281C93.6288 77.3109 95.271 76.0187 97.1118 74.9435C97.7844 74.5473 97.1414 73.5459 96.4772 73.9368Z" fill="#D67993"/>
<path d="M97.6993 77.8939C96.5141 78.5837 95.2478 79.1473 94.068 79.8455C92.9556 80.5005 91.9788 81.3298 91.223 82.3737C91.0355 82.6368 91.01 82.9858 91.2641 83.2149C91.4881 83.4157 91.9123 83.4285 92.1053 83.1738C92.8382 82.1684 93.7332 81.4153 94.809 80.7958C95.969 80.1222 97.1823 79.5688 98.3423 78.8952C99.0064 78.5044 98.355 77.5085 97.6993 77.8939Z" fill="#D67993"/>
<path d="M98.5852 82.364C95.8758 83.9375 92.9222 85.038 90.2074 86.6031C89.5379 86.9855 90.1947 87.9898 90.8504 87.6044C93.5598 86.0309 96.5134 84.9304 99.2282 83.3653C99.8839 82.9799 99.2409 81.9786 98.5852 82.364Z" fill="#D67993"/>
<path d="M98.5012 87.1004C95.7275 88.7033 92.6885 89.93 89.7509 91.2222C89.9444 91.2643 90.1378 91.3065 90.3313 91.3486C88.5669 89.5819 86.7273 87.8278 85.1685 85.8815C84.6959 85.2937 83.6892 85.9283 84.1672 86.5245C85.7939 88.558 87.7013 90.3992 89.5366 92.2393C89.6675 92.3691 89.9408 92.4432 90.1169 92.3658C91.3747 91.8076 92.6241 91.2548 93.8712 90.6798C95.6464 89.8725 97.4602 89.0881 99.1496 88.1101C99.7999 87.7163 99.1569 86.715 98.5012 87.1004Z" fill="#D67993"/>
<path d="M91.0281 86.7892C89.6532 84.4633 87.8349 82.446 86.4685 80.1146C86.0776 79.4505 85.0817 80.102 85.4671 80.7577C86.842 83.0836 88.6603 85.1009 90.0267 87.4322C90.4122 88.0879 91.4135 87.4449 91.0281 86.7892Z" fill="#D67993"/>
<path d="M92.1621 82.4481C90.594 79.7471 89.2423 76.8835 87.1609 74.5121C86.9459 74.2699 86.5175 74.343 86.3197 74.5532C86.0823 74.8126 86.1596 75.1552 86.3608 75.3944C88.3605 77.6755 89.6437 80.4881 91.1554 83.0827C91.5516 83.7552 92.553 83.1122 92.1621 82.4481Z" fill="#D67993"/>
<path d="M92.442 77.776C91.1806 75.6268 89.6915 73.4931 87.8989 71.7564C87.3421 71.2226 86.5558 72.1079 87.1041 72.6471C88.8259 74.3104 90.2387 76.3624 91.446 78.4275C91.8231 79.0886 92.819 78.4371 92.442 77.776Z" fill="#D67993"/>
<path d="M89.5424 95.1354C88.1377 93.7437 86.7276 92.3437 85.3343 90.9329C85.1926 90.7862 85.037 90.6365 84.8953 90.4898C84.8545 90.4448 84.8082 90.3913 84.759 90.3516C84.6581 90.25 84.7728 90.3546 84.8052 90.4051C84.834 90.5054 84.8712 90.6004 84.9 90.7007C84.6608 90.9019 84.4215 91.1031 84.1823 91.3042C84.097 91.2639 84.0063 91.2152 83.921 91.1749C84.1757 91.3679 84.5416 91.3825 84.7622 91.1339C84.963 90.9099 84.9674 90.4911 84.7211 90.2927C84.6226 90.2133 84.562 90.1929 84.4406 90.1519C84.0681 90.0346 83.7039 90.4112 83.7229 90.7554C83.7366 91.0913 84.1036 91.3667 84.3162 91.5867C84.6951 91.9732 85.0825 92.3543 85.4614 92.7409C86.3478 93.6215 87.2312 94.516 88.1177 95.3966C88.3248 95.6082 88.5405 95.8144 88.7476 96.026C89.2875 96.5707 90.0823 95.68 89.5424 95.1354Z" fill="#D67993"/>
<path d="M88.5094 99.0788C87.2195 97.7918 85.9295 96.5047 84.6341 95.2093C84.4485 95.0314 84.2659 94.8396 84.0804 94.6617C83.5405 94.1171 82.7457 95.0077 83.2856 95.5523C84.5756 96.8394 85.8656 98.1264 87.161 99.4218C87.3466 99.5998 87.5291 99.7915 87.7147 99.9694C88.2492 100.506 89.0493 99.6234 88.5094 99.0788Z" fill="#D67993"/>
<path d="M87.2114 101.98C86.7051 101.58 86.2072 101.175 85.7123 100.756C85.3267 100.433 84.9496 100.105 84.5838 99.7577C84.4283 99.608 84.2781 99.4667 84.1394 99.3062C84.134 99.2978 84.0439 99.213 84.0523 99.2076C84.0523 99.2076 84.1526 99.3453 84.0577 99.2161C84.0253 99.1656 83.9791 99.1121 83.9467 99.0616C83.7822 98.7869 83.3868 98.708 83.1176 98.8809C82.8399 99.0593 82.767 99.4269 82.9369 99.71C83.2713 100.268 83.8515 100.727 84.3296 101.157C84.8815 101.646 85.4449 102.116 86.0251 102.576C86.1482 102.675 86.2713 102.774 86.3945 102.873C86.6491 103.066 87.0096 103.072 87.2357 102.832C87.4617 102.592 87.4661 102.173 87.2114 101.98Z" fill="#D67993"/>
<path d="M98.4993 91.0948C95.4084 92.5924 92.1999 93.8328 88.9674 95.0173C88.2445 95.2795 88.605 96.4147 89.3196 96.1579C92.6524 94.9446 95.9451 93.6502 99.1393 92.1099C99.8304 91.7612 99.179 90.7653 98.4993 91.0948Z" fill="#D67993"/>
<path d="M98.5067 95.6774C95.2931 97.5391 91.7327 98.435 88.0793 98.9272C87.3258 99.0308 87.3637 100.219 88.131 100.118C92.0013 99.5936 95.7456 98.6509 99.1497 96.6787C99.8192 96.2963 99.1678 95.3004 98.5067 95.6774Z" fill="#D67993"/>
<path d="M97.2621 99.828C95.7152 100.584 94.0873 101.047 92.3754 101.231C90.7134 101.419 89.037 101.473 87.3876 101.736C86.6449 101.857 86.6828 103.045 87.4393 102.927C89.1777 102.655 90.94 102.604 92.6801 102.39C94.523 102.169 96.238 101.638 97.9052 100.829C98.5933 100.494 97.9419 99.4985 97.2621 99.828Z" fill="#D67993"/>
<path d="M95.8345 103.656C92.8759 105.045 89.4802 104.588 86.3788 105.403C85.6349 105.595 85.9955 106.73 86.731 106.543C88.3276 106.124 89.971 106.055 91.6077 105.884C93.2974 105.702 94.9282 105.391 96.4691 104.663C96.76 104.524 96.8035 104.092 96.6498 103.834C96.4606 103.54 96.1224 103.531 95.8345 103.656Z" fill="#D67993"/>
<path d="M93.1973 108.951C90.5813 108.801 87.9574 108.786 85.3498 108.631C85.0284 108.611 84.7729 108.954 84.7818 109.245C84.7924 109.595 85.0747 109.794 85.3961 109.813C88.0121 109.963 90.636 109.978 93.2436 110.134C93.565 110.153 93.8205 109.811 93.8117 109.519C93.801 109.169 93.5187 108.97 93.1973 108.951Z" fill="#D67993"/>
</g>
<path d="M1052.71 474.458C1058.65 472.782 1064.81 472.488 1070.89 471.644C1073.89 471.231 1076.81 470.598 1079.71 469.715C1082.52 468.86 1085.3 467.886 1088.04 466.831C1093.52 464.711 1098.85 462.24 1104.1 459.588C1108.95 457.132 1113.83 454.677 1118.53 451.939C1123.69 448.927 1128.56 445.361 1132.41 440.756C1132.82 440.27 1132.12 439.553 1131.72 440.05C1124.81 448.297 1114.85 452.956 1105.48 457.78C1100.22 460.482 1094.88 463.043 1089.39 465.243C1083.97 467.414 1078.37 469.442 1072.59 470.39C1065.88 471.488 1059.04 471.645 1052.46 473.495C1051.85 473.67 1052.1 474.632 1052.71 474.458Z" fill="#D67993"/>
<path d="M1132.31 440.835C1138.16 437.199 1143.34 432.556 1148.01 427.538C1152.98 422.194 1157.42 416.344 1161.27 410.149C1163.13 407.166 1164.85 404.092 1166.38 400.925C1167.4 398.835 1168.46 396.694 1169.08 394.45C1170.09 390.799 1170.55 386.933 1170.73 383.155C1170.82 381.315 1170.84 379.455 1170.62 377.633C1170.48 376.382 1170.29 374.96 1169.55 373.903C1167.54 371.035 1164.44 375.457 1163.43 376.997C1159.8 382.444 1156.41 388.084 1153.49 393.937C1150.41 400.129 1147.77 406.545 1145.12 412.931C1142.84 418.411 1140.71 423.971 1138.31 429.4C1136.94 432.507 1135.41 435.573 1133.29 438.244C1132.79 438.869 1132.26 439.475 1131.73 440.06C1131.3 440.526 1131.99 441.242 1132.42 440.766C1137.51 435.223 1142.23 429.345 1146.57 423.205C1150.9 417.094 1154.87 410.74 1158.57 404.244C1160.68 400.513 1162.72 396.742 1164.68 392.93C1164.98 392.362 1164.12 391.854 1163.83 392.422C1160.39 399.09 1156.75 405.657 1152.79 412.041C1148.86 418.366 1144.63 424.497 1140.02 430.335C1137.38 433.681 1134.61 436.926 1131.73 440.06C1131.96 440.292 1132.2 440.534 1132.42 440.766C1134.58 438.406 1136.33 435.782 1137.75 432.925C1139.85 428.704 1141.53 424.259 1143.31 419.895C1146.04 413.22 1148.77 406.544 1151.73 399.971C1154.21 394.474 1157.01 389.159 1160.15 384.018C1161.09 382.496 1162.04 380.985 1163.01 379.484C1163.75 378.33 1164.47 377.147 1165.32 376.065C1165.79 375.459 1166.32 374.844 1166.94 374.389C1167.33 374.103 1167.7 373.926 1168.09 373.96C1167.99 373.949 1168.2 373.991 1168.25 374.001C1168.25 374.001 1168.34 374.042 1168.42 374.103C1168.46 374.133 1168.67 374.345 1168.72 374.426C1169.03 374.859 1169.18 375.36 1169.32 375.871C1169.71 377.395 1169.78 379.016 1169.8 380.586C1169.82 384.416 1169.41 388.303 1168.63 392.056C1167.65 396.807 1165.28 401.195 1162.92 405.394C1159.44 411.612 1155.35 417.495 1150.75 422.943C1146.28 428.243 1141.3 433.207 1135.71 437.326C1134.45 438.255 1133.15 439.143 1131.82 439.971C1131.28 440.316 1131.77 441.18 1132.31 440.835Z" fill="#D67993"/>
<path d="M1112.53 455.175C1119.96 447.992 1124.71 438.405 1127.82 428.664C1130.39 420.607 1131.98 412.151 1132.31 403.694C1132.44 400.165 1132.52 396.295 1131.33 392.914C1130.89 391.67 1130.22 390.414 1129.03 389.763C1127.56 388.949 1126 389.135 1124.89 390.435C1123.78 391.745 1123.25 393.46 1122.7 395.055C1121.94 397.268 1121.45 399.524 1121.03 401.82C1120.03 407.221 1119.5 412.697 1119.01 418.162C1118.02 429.154 1117.32 440.478 1113.36 450.882C1112.88 452.138 1112.36 453.363 1111.78 454.568C1111.58 454.966 1112 455.56 1112.45 455.254C1114.26 454.01 1115.53 452.122 1116.54 450.191C1117.76 447.842 1118.67 445.32 1119.46 442.798C1120.24 440.325 1120.9 437.831 1121.57 435.327C1122.35 432.444 1123.34 429.633 1124.21 426.78C1125.45 422.692 1126.43 418.49 1126.53 414.211C1126.54 413.571 1125.55 413.562 1125.54 414.202C1125.45 418.011 1124.65 421.744 1123.59 425.395C1122.75 428.327 1121.68 431.187 1120.87 434.13C1119.55 438.998 1118.39 443.988 1116.24 448.578C1115.24 450.719 1113.97 453.028 1111.97 454.399C1112.2 454.632 1112.41 454.854 1112.64 455.086C1117.28 445.458 1118.51 434.648 1119.48 424.137C1119.98 418.741 1120.39 413.345 1121.09 407.971C1121.44 405.354 1121.85 402.738 1122.38 400.153C1122.64 398.945 1122.86 397.687 1123.26 396.52C1123.5 395.803 1123.76 395.085 1124.01 394.367C1124.48 393.031 1125.11 391.067 1126.49 390.4C1127.73 389.811 1129.12 390.794 1129.75 391.83C1130.55 393.117 1130.86 394.69 1131.08 396.172C1131.34 397.984 1131.4 399.825 1131.39 401.655C1131.34 409.545 1130.01 417.463 1127.9 425.044C1125.21 434.72 1121.01 444.352 1114.3 451.941C1113.52 452.824 1112.71 453.666 1111.87 454.479C1111.37 454.904 1112.07 455.62 1112.53 455.175Z" fill="#D67993"/>
<path d="M1094.01 464.045C1102.53 461.723 1106.52 453.329 1108.5 445.417C1109.54 441.287 1110.14 437.062 1110.65 432.836C1111.12 429.091 1111.68 425.366 1112.08 421.609C1112.56 417.023 1112.83 412.316 1112.12 407.739C1111.81 405.776 1111.3 403.781 1110.32 402.032C1109.86 401.228 1109.3 400.533 1108.68 399.867C1108.02 399.181 1107.29 398.484 1106.38 398.136C1103.01 396.865 1102.39 402.62 1102.12 404.647C1101.84 406.785 1101.59 408.913 1101.26 411.05C1100.78 414.225 1100.4 417.412 1100.06 420.599C1098.65 433.647 1097.95 446.931 1094.06 459.546C1093.61 461.032 1093.1 462.497 1092.55 463.952C1092.36 464.44 1093.03 464.756 1093.37 464.44C1098.08 460.123 1101.01 454.319 1102.86 448.286C1104.8 441.993 1105.67 435.431 1106.36 428.907C1106.73 425.44 1107.03 421.963 1107.45 418.507C1107.52 417.877 1106.53 417.868 1106.46 418.497C1105.73 424.691 1105.29 430.917 1104.34 437.089C1103.35 443.39 1101.89 449.777 1098.92 455.47C1097.31 458.555 1095.25 461.377 1092.69 463.733C1092.97 463.896 1093.24 464.058 1093.52 464.221C1097.98 452.401 1099.16 439.702 1100.39 427.222C1100.69 424.045 1101.01 420.868 1101.38 417.701C1101.74 414.604 1102.25 411.539 1102.69 408.463C1102.92 406.765 1103.03 405.066 1103.31 403.368C1103.54 402.09 1103.76 400.182 1104.8 399.252C1105.97 398.222 1107.54 400.077 1108.26 400.843C1109.5 402.175 1110.21 403.871 1110.67 405.606C1111.82 409.856 1111.67 414.425 1111.34 418.772C1111.06 422.55 1110.45 426.284 1110 430.04C1109.52 433.996 1109.05 437.962 1108.27 441.865C1106.77 449.412 1104 458.297 1096.59 461.989C1095.68 462.441 1094.73 462.782 1093.76 463.053C1093.14 463.257 1093.39 464.22 1094.01 464.045Z" fill="#D67993"/>
<path d="M1069.9 471.915C1073.5 471.118 1076.75 469.268 1079.36 466.651C1081.95 464.065 1083.89 460.883 1085.41 457.576C1086.96 454.2 1088.12 450.661 1089.1 447.08C1089.43 445.883 1089.8 444.676 1090 443.448C1090.19 442.299 1090.28 441.15 1090.34 439.991C1090.46 437.402 1090.41 434.781 1090.03 432.228C1089.88 431.226 1089.68 430.204 1089.28 429.271C1089.01 428.658 1088.61 427.964 1087.93 427.758C1087.19 427.531 1086.5 427.985 1086 428.491C1085.06 429.462 1084.43 430.766 1083.87 431.981C1082.01 436.014 1080.85 440.314 1079.88 444.635C1077.95 453.058 1076.4 461.844 1070.56 468.581C1069.79 469.464 1068.96 470.296 1068.1 471.088C1067.74 471.425 1068.1 472.059 1068.57 471.923C1072.21 470.866 1075.01 468.142 1077.19 465.141C1079.6 461.813 1081.35 458.049 1082.89 454.253C1083.65 452.36 1084.35 450.446 1085.05 448.533C1085.27 447.935 1084.31 447.666 1084.09 448.264C1082.83 451.733 1081.54 455.191 1079.93 458.506C1078.25 461.951 1076.23 465.393 1073.38 468.007C1071.92 469.343 1070.23 470.418 1068.32 470.971C1068.48 471.252 1068.64 471.523 1068.8 471.805C1071.97 468.894 1074.47 465.357 1076.2 461.412C1077.85 457.687 1078.85 453.726 1079.75 449.764C1080.68 445.653 1081.51 441.52 1082.81 437.512C1083.46 435.488 1084.21 433.474 1085.17 431.583C1085.64 430.667 1086.18 429.552 1087.02 428.91C1087.12 428.831 1087.28 428.742 1087.33 428.723C1087.47 428.664 1087.51 428.674 1087.57 428.685C1087.64 428.696 1087.68 428.706 1087.76 428.767C1087.81 428.797 1087.91 428.878 1088 428.989C1088.43 429.513 1088.66 430.405 1088.82 431.117C1089.36 433.452 1089.44 435.912 1089.4 438.302C1089.37 440.362 1089.3 442.481 1088.78 444.477C1087.89 447.889 1086.91 451.29 1085.62 454.578C1083.09 461.025 1079.04 467.619 1072.26 470.197C1071.41 470.519 1070.54 470.771 1069.64 470.973C1069.01 471.097 1069.26 472.049 1069.9 471.915Z" fill="#D67993"/>
<path d="M1068.19 471.849C1077.07 476.051 1086.16 479.914 1095.63 482.611C1100.3 483.934 1105.06 484.967 1109.87 485.552C1111.49 485.746 1113.1 485.921 1114.72 486.106C1116.2 486.27 1117.68 486.373 1119.17 486.367C1121.76 486.34 1125.11 486.071 1126.86 483.897C1127.74 482.805 1128.17 481.259 1127.88 479.876C1127.62 478.564 1126.7 477.505 1125.65 476.716C1123.04 474.712 1119.55 473.93 1116.37 473.381C1111.45 472.525 1106.44 472.46 1101.46 472.404C1098.97 472.371 1096.47 472.348 1093.98 472.216C1091.42 472.082 1088.9 471.769 1086.36 471.386C1081.58 470.672 1076.72 470.107 1071.88 470.493C1070.68 470.592 1069.48 470.741 1068.29 470.96C1067.82 471.046 1067.82 471.816 1068.28 471.92C1081.27 474.579 1094.11 478.417 1107.34 479.728C1110.72 480.069 1114.13 480.21 1117.53 480.051C1118.17 480.027 1118.18 479.027 1117.54 479.062C1104.84 479.625 1092.26 476.32 1079.98 473.487C1076.18 472.613 1072.38 471.748 1068.55 470.963C1068.55 471.283 1068.55 471.603 1068.54 471.923C1073.22 471.055 1078.02 471.309 1082.72 471.882C1085.05 472.164 1087.38 472.605 1089.72 472.866C1092.07 473.138 1094.44 473.26 1096.81 473.321C1101.59 473.455 1106.39 473.349 1111.16 473.733C1115 474.038 1119.04 474.555 1122.6 476.118C1124.9 477.129 1127.7 479.015 1126.77 481.916C1125.88 484.668 1122.74 485.209 1120.19 485.346C1117.47 485.491 1114.82 485.057 1112.12 484.812C1107.47 484.39 1102.87 483.517 1098.35 482.346C1089.18 479.972 1080.36 476.421 1071.78 472.472C1070.74 471.993 1069.7 471.513 1068.67 471.024C1068.13 470.729 1067.61 471.584 1068.19 471.849Z" fill="#D67993"/>
<path d="M1092.77 464.534C1096.78 467.401 1102.03 468.239 1106.82 468.663C1111.93 469.12 1117.1 468.997 1122.23 468.714C1128.24 468.379 1134.27 467.944 1140.21 466.889C1143.15 466.365 1146.07 465.692 1148.89 464.718C1151.27 463.9 1153.46 462.77 1155.57 461.399C1157.87 459.89 1160.05 458.17 1162.02 456.238C1163.8 454.484 1165.5 452.499 1166.57 450.229C1167.07 449.174 1167.37 448.046 1167.51 446.898C1167.61 446.129 1167.61 445.299 1167.29 444.576C1166.77 443.391 1165.52 443.119 1164.34 443.269C1162.76 443.474 1161.24 444.2 1159.84 444.917C1158.29 445.713 1156.81 446.65 1155.32 447.566C1149.74 451.005 1143.82 453.871 1137.68 456.155C1125.58 460.654 1112.69 462.906 1099.79 463.138C1098.19 463.164 1096.59 463.159 1095 463.134C1094.46 463.119 1094.29 464.018 1094.86 464.103C1101.2 465.101 1107.66 465.23 1114.06 464.949C1120.77 464.65 1127.47 463.892 1134.09 462.762C1137.62 462.165 1141.12 461.447 1144.6 460.599C1145.22 460.444 1144.97 459.492 1144.35 459.636C1138.15 461.149 1131.85 462.252 1125.5 463.004C1118.89 463.793 1112.23 464.212 1105.58 464.031C1102.09 463.939 1098.59 463.677 1095.14 463.136C1095.09 463.455 1095.04 463.785 1095 464.104C1107.51 464.349 1120.08 462.764 1132.06 459.094C1138.03 457.258 1143.84 454.911 1149.4 452.042C1151.94 450.725 1154.42 449.288 1156.85 447.78C1158.27 446.903 1159.71 446.056 1161.2 445.34C1162.41 444.771 1163.92 444.045 1165.3 444.207C1166.62 444.359 1166.67 445.73 1166.55 446.799C1166.27 449.186 1165.06 451.245 1163.57 453.082C1161.89 455.167 1159.9 456.988 1157.79 458.619C1155.81 460.151 1153.67 461.542 1151.42 462.641C1148.99 463.829 1146.3 464.554 1143.67 465.17C1137.85 466.527 1131.86 467.092 1125.91 467.488C1120.91 467.822 1115.91 468.066 1110.91 467.9C1105.93 467.735 1100.65 467.286 1096.05 465.224C1095.09 464.795 1094.18 464.277 1093.32 463.669C1092.75 463.314 1092.26 464.169 1092.77 464.534Z" fill="#D67993"/>
<path d="M1114.9 453.876C1126.41 451.062 1137.96 448.137 1148.87 443.427C1159 439.059 1169.01 433.031 1176.03 424.365C1178.99 420.722 1181.96 416.109 1180.81 411.218C1180.37 409.404 1179.21 407.803 1177.2 407.815C1175.26 407.827 1173.41 408.99 1171.91 410.116C1169.97 411.569 1168.33 413.374 1166.62 415.078C1164.62 417.08 1162.62 419.092 1160.6 421.083C1156.47 425.176 1152.26 429.197 1147.86 432.997C1139.16 440.528 1129.49 447.4 1118.5 451.129C1117.18 451.577 1115.85 451.975 1114.5 452.323C1114.58 452.643 1114.67 452.964 1114.75 453.285C1122.11 450.472 1129.42 447.469 1136.53 444.064C1143.51 440.728 1150.31 437.01 1156.82 432.819C1160.57 430.403 1164.22 427.817 1167.77 425.099C1168.27 424.714 1167.58 424.007 1167.07 424.393C1160.9 429.126 1154.37 433.397 1147.59 437.215C1140.89 440.984 1133.97 444.301 1126.91 447.326C1122.81 449.088 1118.65 450.741 1114.49 452.332C1113.9 452.557 1114.11 453.459 1114.74 453.295C1125.59 450.464 1135.29 444.453 1143.99 437.502C1152.75 430.512 1160.59 422.493 1168.5 414.595C1170.13 412.97 1171.71 411.315 1173.68 410.103C1174.95 409.314 1176.96 408.233 1178.44 409.136C1179.28 409.644 1179.65 410.657 1179.85 411.569C1180.1 412.672 1180.16 413.762 1179.97 414.88C1179.56 417.227 1178.38 419.396 1177.05 421.344C1174.26 425.449 1170.62 428.945 1166.71 431.97C1162.08 435.558 1156.99 438.541 1151.7 441.053C1141.22 446.027 1129.96 449.114 1118.73 451.901C1117.37 452.239 1115.99 452.576 1114.63 452.914C1114.03 453.068 1114.28 454.031 1114.9 453.876Z" fill="#D67993"/>
<g opacity="0.1">
<g opacity="0.1">
<path opacity="0.1" d="M1072.92 472.773C1080.93 470.486 1089.24 470.762 1097.01 468.873C1107.51 465.979 1117.01 461.676 1126.67 456.684C1136.01 451.769 1145.51 447.466 1152.39 439.199" fill="#65537A"/>
</g>
<g opacity="0.1">
<path opacity="0.1" d="M1152.39 439.199C1167.27 429.965 1181.74 410.936 1188.36 394.816C1191.03 388.231 1193.12 361.679 1183.64 376.852C1175.5 389.388 1172.91 395.185 1167.11 408.962C1158.96 428.359 1157.86 433.249 1152.39 439.199C1165.67 424.75 1175.62 408.81 1184.57 391.462L1152.39 439.199Z" fill="#65537A"/>
</g>
<g opacity="0.1">
<path opacity="0.1" d="M1132.51 453.607C1143.98 442.572 1149.75 424.344 1151.62 409.061C1152.04 405.334 1153.51 391.127 1149.02 388.936C1145.23 386.901 1144.03 392.79 1143.01 395.351C1138.24 413.648 1140.83 436.423 1132.51 453.607C1137.89 449.987 1140.37 437.189 1142.18 431.135C1144.07 425.402 1146.21 419.272 1146.32 412.982" fill="#65537A"/>
</g>
<g opacity="0.1">
<path opacity="0.1" d="M1114.21 462.36C1128.14 458.638 1129.56 438.84 1131.03 427.273C1132 420.441 1134.41 404.693 1128.77 399.151C1123.37 393.221 1123.08 402.849 1122.52 407.274C1119.39 425.506 1119.98 445.462 1113.36 462.903C1125.23 452.101 1125.56 431.913 1127.28 417.318" fill="#65537A"/>
</g>
<g opacity="0.1">
<path opacity="0.1" d="M1090.09 470.23C1102.3 467.581 1106.88 453.933 1109.58 443.387C1111 438.43 1110.42 418.464 1104.6 431.091C1098.39 444.805 1100.64 459.416 1088.77 470.218C1097.4 467.777 1102.13 454.759 1104.89 447.164" fill="#65537A"/>
</g>
<g opacity="0.1">
<path opacity="0.1" d="M1088.77 470.218C1102.56 476.744 1117.9 482.885 1133.04 484.134C1136.45 484.625 1145.29 485.756 1147.26 481.654C1149.69 476.776 1143.5 474.329 1140.31 473.46C1129.38 470.53 1118.03 472.636 1107.02 470.715C1101.2 469.821 1094.76 469.092 1088.77 470.218C1106.37 473.819 1122.89 479.03 1137.88 478.338L1088.77 470.218Z" fill="#65537A"/>
</g>
<g opacity="0.1">
<path opacity="0.1" d="M1113.35 462.902C1120.15 467.835 1133.9 467.441 1142.37 467.028C1151.15 466.529 1162.5 465.743 1170.9 462.369C1176.27 460.068 1184.62 453.745 1186.82 447.935C1189.75 438.321 1180.56 443.867 1176.26 446.558C1157.96 457.941 1136.51 462.854 1115.31 462.42C1130.05 464.755 1150.17 462.48 1164.79 458.913" fill="#65537A"/>
</g>
<g opacity="0.1">
<path opacity="0.1" d="M1135.11 452.191C1154.7 447.41 1175.47 442.04 1191.16 427.993C1194.92 424.448 1202.26 416.715 1200.73 410.49C1199.53 404.199 1193.53 407.964 1190.08 411.443C1174.7 426.733 1156.97 445.891 1134.95 451.6C1154.25 444.246 1171.38 436.113 1187.76 423.542" fill="#65537A"/>
</g>
</g>
<defs>
<clipPath id="clip0">
<rect width="60.56" height="117.06" fill="white" transform="translate(0 32.7238) rotate(-32.7078)"/>
</clipPath>
</defs>
</svg>
