<!DOCTYPE svg PUBLIC "-//W3C//DTD SVG 20010904//EN" "http://www.w3.org/TR/2001/REC-SVG-20010904/DTD/svg10.dtd">
<svg version="1.0" xmlns="http://www.w3.org/2000/svg" width="512px" height="512px" viewBox="0 0 5120 5120" preserveAspectRatio="xMidYMid meet">
<g id="layer101" fill="#000000" stroke="none">
 <path d="M313 5099 c-49 -24 -109 -87 -129 -135 -11 -26 -14 -104 -14 -371 0 -375 3 -396 65 -519 68 -134 189 -239 335 -291 64 -22 97 -27 218 -31 l142 -5 0 -97 0 -98 -42 -25 c-89 -52 -153 -133 -188 -238 -20 -59 -21 -80 -18 -324 l3 -261 38 -76 c92 -187 255 -261 540 -244 234 14 373 117 432 319 14 48 16 97 13 310 l-3 252 -32 67 c-36 77 -107 158 -170 195 l-43 25 0 99 0 99 113 0 c187 0 310 39 432 137 70 57 152 174 186 264 22 62 23 76 27 409 2 247 0 357 -9 388 -15 54 -77 124 -132 151 -43 21 -52 21 -883 21 -830 0 -839 0 -881 -21z m1704 -181 l23 -21 0 -303 c0 -341 -6 -379 -75 -479 -54 -79 -156 -151 -241 -169 l-32 -7 -78 398 c-66 338 -81 401 -101 421 -22 22 -24 22 -318 22 -294 0 -296 0 -319 -23 -19 -19 -34 -81 -102 -420 l-79 -398 -30 7 c-57 12 -148 66 -196 115 -26 27 -63 79 -81 116 l-33 68 -3 324 c-3 323 -3 324 19 347 l22 24 801 0 800 0 23 -22z m-578 -630 c34 -172 65 -323 68 -335 l5 -23 -317 0 -317 0 5 23 c3 12 34 163 68 335 l62 312 182 0 182 0 62 -312z m-159 -618 l0 -80 -85 0 -85 0 0 80 0 80 85 0 85 0 0 -80z m106 -287 c54 -29 117 -101 132 -151 7 -22 12 -85 12 -141 l0 -101 -100 0 -100 0 -38 -35 -39 -35 -103 35 c-89 30 -117 35 -197 35 l-93 0 0 104 c0 56 5 118 12 137 16 47 57 103 95 129 63 43 100 50 243 47 116 -2 141 -6 176 -24z m-257 -613 c61 -22 130 -40 152 -40 32 0 47 7 83 40 41 38 47 40 106 40 l62 0 -7 -37 c-15 -81 -76 -157 -154 -191 -51 -23 -301 -23 -352 0 -78 34 -159 138 -159 206 0 21 4 22 78 22 66 0 96 -6 191 -40z"/>
 <path d="M3042 5099 c-53 -27 -115 -96 -130 -147 -19 -63 -16 -671 3 -747 36 -142 125 -269 245 -350 112 -76 185 -97 358 -103 l142 -5 0 -97 0 -98 -43 -25 c-63 -37 -134 -118 -170 -195 l-32 -67 -3 -252 c-3 -213 -1 -262 13 -310 42 -146 129 -240 267 -291 123 -46 393 -39 503 13 85 41 159 114 202 203 l38 76 3 261 c3 244 2 265 -18 324 -35 105 -99 186 -187 238 l-43 25 0 98 0 97 143 5 c120 4 153 9 217 31 146 52 267 157 335 291 62 123 65 144 65 519 0 267 -3 345 -14 371 -20 49 -81 112 -130 135 -42 21 -55 21 -882 21 -833 0 -839 0 -882 -21z m1707 -183 c22 -23 22 -24 19 -347 l-3 -324 -33 -68 c-18 -37 -55 -89 -81 -116 -48 -49 -139 -103 -196 -115 l-30 -7 -79 398 c-68 339 -83 401 -102 420 -23 23 -25 23 -319 23 -294 0 -296 0 -318 -22 -20 -20 -35 -83 -101 -421 l-78 -398 -32 7 c-85 18 -187 90 -241 169 -69 99 -75 138 -75 478 0 295 0 301 22 324 l21 23 802 0 802 0 22 -24z m-580 -628 c34 -172 65 -323 68 -335 l5 -23 -317 0 -317 0 5 23 c3 12 34 163 68 335 l62 312 182 0 182 0 62 -312z m-159 -618 l0 -80 -85 0 -85 0 0 80 0 80 85 0 85 0 0 -80z m106 -287 c22 -12 54 -36 72 -54 55 -57 67 -92 70 -221 l4 -118 -101 0 -101 0 -38 -35 -39 -35 -103 35 c-89 30 -117 35 -197 35 l-93 0 0 108 c0 121 16 171 73 230 66 70 109 82 277 79 116 -2 141 -6 176 -24z m-251 -613 c65 -22 134 -40 152 -40 25 0 44 10 77 40 41 38 47 40 105 40 57 0 61 -2 61 -22 0 -68 -81 -172 -159 -206 -51 -23 -301 -23 -352 0 -78 34 -159 138 -159 206 0 21 4 22 78 22 64 0 99 -7 197 -40z"/>
 <path d="M2476 3150 c-44 -14 -102 -58 -130 -101 -14 -21 -26 -43 -26 -49 0 -6 -79 -10 -225 -10 l-225 0 0 -90 0 -90 224 0 c221 0 225 0 231 -21 10 -32 81 -105 115 -119 l30 -12 0 -224 0 -224 90 0 90 0 0 224 0 224 30 12 c34 14 105 87 115 119 6 21 10 21 231 21 l224 0 0 90 0 90 -223 0 -222 0 -14 31 c-21 48 -86 105 -138 123 -50 17 -130 20 -177 6z m139 -195 c14 -13 25 -36 25 -50 0 -32 -50 -85 -80 -85 -30 0 -80 53 -80 85 0 36 41 75 80 75 19 0 40 -9 55 -25z"/>
 <path d="M2350 2030 c-393 -84 -689 -370 -791 -766 -19 -75 -23 -113 -23 -244 1 -135 4 -168 27 -255 101 -378 405 -668 782 -746 121 -25 309 -25 430 0 377 78 681 368 782 746 23 87 26 120 27 255 0 131 -4 169 -23 244 -105 405 -410 694 -814 771 -107 20 -290 18 -397 -5z m425 -185 c93 -25 235 -98 313 -161 135 -107 248 -279 293 -449 31 -114 31 -308 0 -419 -77 -286 -282 -503 -561 -597 -82 -28 -112 -33 -225 -36 -149 -6 -227 7 -350 56 -277 111 -472 359 -522 663 -70 428 227 855 662 952 89 20 303 15 390 -9z"/>
 <path d="M2718 1515 c-28 -9 -68 -35 -102 -66 l-56 -51 -46 42 c-61 56 -116 80 -188 80 -79 0 -128 -16 -177 -59 -118 -100 -118 -282 0 -395 l40 -40 -45 -48 c-58 -62 -84 -119 -84 -187 0 -78 18 -127 67 -181 53 -59 107 -82 193 -82 81 0 127 19 191 79 l49 46 49 -46 c64 -60 110 -79 191 -79 86 0 140 23 193 82 49 54 67 103 67 181 0 68 -26 125 -84 187 l-45 48 40 40 c113 107 121 281 18 383 -67 68 -180 95 -271 66z m-283 -255 c77 -74 87 -80 125 -80 38 0 48 6 125 80 72 69 88 80 119 80 25 0 40 -7 55 -26 37 -47 28 -69 -61 -161 -78 -80 -83 -87 -83 -128 0 -41 5 -48 83 -128 96 -99 104 -127 50 -172 -44 -37 -68 -28 -164 66 -76 74 -84 79 -124 79 -40 0 -48 -5 -124 -79 -96 -94 -120 -103 -164 -66 -54 45 -46 73 47 169 80 82 99 116 86 157 -4 13 -43 60 -86 105 -86 90 -94 112 -58 158 15 19 30 26 55 26 31 0 47 -11 119 -80z"/>
 </g>

</svg>