<!DOCTYPE svg PUBLIC "-//W3C//DTD SVG 20010904//EN" "http://www.w3.org/TR/2001/REC-SVG-20010904/DTD/svg10.dtd">
<svg version="1.0" xmlns="http://www.w3.org/2000/svg" width="512px" height="512px" viewBox="0 0 5120 5120" preserveAspectRatio="xMidYMid meet">
<g id="layer101" fill="#000000" stroke="none">
 <path d="M1245 5095 l-25 -24 0 -250 c0 -162 4 -259 11 -274 23 -50 91 -61 136 -23 l28 24 3 201 4 201 159 0 159 0 0 -456 c0 -466 1 -482 39 -511 25 -19 76 -15 105 8 l26 20 0 470 0 469 670 0 670 0 0 -469 0 -470 26 -20 c29 -23 80 -27 105 -8 38 29 39 45 39 511 l0 456 160 0 160 0 0 -498 c0 -557 0 -555 -71 -700 -49 -100 -141 -202 -234 -262 -94 -59 -110 -106 -56 -161 43 -42 75 -38 163 20 169 114 283 267 345 468 l27 88 4 582 3 583 -25 25 -25 25 -1291 0 -1291 0 -24 -25z"/>
 <path d="M1263 4388 c-41 -20 -46 -54 -40 -275 5 -218 12 -263 61 -385 37 -92 85 -165 164 -249 75 -80 192 -167 257 -190 19 -7 35 -16 35 -19 0 -3 -29 -27 -64 -53 -209 -154 -348 -410 -363 -672 l-6 -101 -44 -18 c-60 -25 -129 -95 -161 -164 -23 -49 -27 -70 -27 -147 1 -79 4 -97 30 -148 45 -91 138 -165 227 -182 41 -8 41 -10 53 -150 28 -321 151 -587 369 -793 222 -210 492 -316 806 -316 155 1 227 11 353 51 43 13 81 22 84 19 10 -10 -16 -117 -42 -173 -13 -29 -50 -81 -81 -114 -170 -177 -435 -184 -613 -14 -64 61 -101 122 -126 207 -10 34 -25 64 -38 73 -33 23 -84 19 -112 -10 -31 -30 -32 -74 -4 -158 56 -168 190 -305 364 -374 64 -25 81 -27 210 -28 159 0 205 11 315 75 121 70 209 175 265 315 24 58 29 89 33 183 l5 113 60 41 c144 97 285 260 369 424 75 146 108 262 127 439 22 196 17 182 58 190 90 17 183 91 228 182 26 51 29 69 30 148 0 77 -4 98 -27 147 -32 69 -101 139 -161 164 l-44 18 -6 96 c-11 178 -77 358 -185 500 -73 96 -121 136 -418 353 -359 261 -427 291 -644 291 -193 0 -291 -36 -499 -186 -149 -108 -138 -105 -244 -63 -182 72 -317 215 -389 412 -18 50 -22 89 -27 281 l-6 224 -28 24 c-30 25 -67 30 -104 12z m1438 -894 c30 -9 76 -27 102 -41 52 -26 488 -338 575 -411 107 -90 190 -225 233 -377 24 -85 28 -233 12 -379 l-8 -69 -90 77 c-84 72 -91 81 -106 135 -21 80 -58 139 -124 199 -75 69 -145 95 -255 96 -100 1 -169 -19 -236 -70 l-44 -34 0 50 c0 60 -15 94 -47 109 -13 6 -71 11 -129 11 -103 0 -106 -1 -135 -29 -36 -36 -38 -79 -6 -116 18 -22 34 -27 85 -32 l62 -6 0 -93 0 -94 -59 0 -58 0 -23 62 c-18 49 -37 77 -89 129 -87 87 -150 113 -276 113 -115 0 -183 -25 -260 -96 -66 -60 -103 -119 -124 -199 -15 -54 -22 -63 -106 -135 l-90 -77 -13 129 c-28 277 40 488 213 659 63 63 533 408 607 446 115 59 274 77 389 43z m-533 -960 c81 -33 131 -111 132 -202 0 -66 -25 -118 -81 -165 -84 -73 -203 -69 -283 9 -48 47 -69 95 -68 160 1 151 160 257 300 198z m950 0 c190 -79 173 -352 -25 -410 -71 -21 -135 -6 -192 43 -56 48 -81 99 -81 168 0 154 157 258 298 199z m-1772 -561 c-10 -10 -56 27 -76 60 -38 62 -18 172 39 214 14 10 17 -2 29 -129 8 -77 11 -142 8 -145z m2503 226 c27 -48 28 -123 1 -166 -20 -33 -66 -70 -76 -60 -3 3 0 68 7 145 11 130 13 139 30 129 10 -6 27 -27 38 -48z m-1189 12 c14 -51 80 -149 125 -184 20 -16 61 -40 93 -55 50 -24 69 -27 157 -27 92 0 106 3 167 32 73 34 146 100 175 157 l19 37 94 -82 c52 -45 97 -83 98 -84 2 -2 1 -46 -3 -97 l-7 -94 -87 -18 c-215 -44 -415 -173 -581 -375 l-74 -90 -50 47 c-149 141 -379 246 -642 294 -98 17 -161 22 -354 23 l-235 1 -12 120 c-19 200 -27 177 84 272 l97 83 19 -37 c29 -57 102 -123 175 -157 61 -29 75 -32 167 -32 88 0 107 3 157 27 32 15 73 39 93 55 45 35 111 133 125 184 l11 39 89 0 89 0 11 -39z m895 -618 c-37 -230 -104 -386 -232 -538 -191 -227 -466 -355 -763 -355 -410 0 -778 250 -928 631 -31 78 -57 177 -50 185 3 2 88 4 190 4 289 1 477 -35 667 -126 149 -71 213 -121 337 -267 24 -28 39 -37 63 -37 49 0 64 13 127 107 100 150 254 297 379 361 58 29 172 71 198 71 15 1 17 -5 12 -36z"/>
 <path d="M2465 3136 c-66 -16 -124 -47 -169 -89 -30 -29 -36 -41 -36 -76 0 -45 23 -76 64 -87 26 -6 48 3 116 51 39 27 51 30 120 30 69 0 81 -3 119 -30 64 -46 90 -57 117 -51 41 11 64 42 64 87 0 35 -6 47 -36 76 -91 86 -232 120 -359 89z"/>
 <path d="M1993 2364 c-31 -7 -63 -51 -63 -86 0 -19 10 -40 29 -59 29 -28 33 -29 126 -29 94 0 97 1 127 30 26 27 30 36 25 67 -11 63 -34 76 -134 79 -48 1 -98 0 -110 -2z"/>
 <path d="M2944 2364 c-31 -7 -54 -36 -61 -77 -5 -31 -1 -40 25 -67 30 -29 33 -30 127 -30 93 0 97 1 126 29 36 37 38 79 5 117 -22 26 -29 28 -112 30 -49 1 -99 0 -110 -2z"/>
 <path d="M2470 4250 c-267 -42 -479 -284 -480 -548 0 -66 29 -102 83 -102 58 0 77 25 92 119 25 155 95 255 223 318 72 36 81 38 171 38 87 0 102 -3 163 -32 130 -61 208 -170 233 -324 15 -94 34 -119 92 -119 54 0 83 36 83 102 -1 237 -178 467 -410 532 -72 20 -181 27 -250 16z"/>
 </g>

</svg>