<!DOCTYPE svg PUBLIC "-//W3C//DTD SVG 20010904//EN" "http://www.w3.org/TR/2001/REC-SVG-20010904/DTD/svg10.dtd">
<svg version="1.0" xmlns="http://www.w3.org/2000/svg" width="512px" height="512px" viewBox="0 0 5120 5120" preserveAspectRatio="xMidYMid meet">
<g id="layer101" fill="#2d527c" stroke="none">
 <path d="M1825 5106 c-16 -7 -38 -23 -48 -34 -46 -51 -46 -52 -47 -889 l0 -793 -798 0 -798 0 -44 -22 c-25 -13 -55 -38 -68 -57 l-22 -35 2 -722 c3 -717 3 -723 24 -751 12 -15 36 -37 55 -48 33 -19 55 -20 841 -23 l808 -2 2 -808 c3 -786 4 -808 23 -841 11 -19 33 -43 48 -55 28 -21 32 -21 757 -21 725 0 729 0 757 21 15 12 37 36 48 55 19 33 20 55 23 841 l2 808 808 2 c786 3 808 4 841 23 19 11 43 33 55 48 21 28 21 32 21 757 0 725 0 729 -21 757 -12 15 -36 37 -55 48 -33 19 -52 20 -494 20 l-460 0 -37 -23 c-51 -32 -82 -98 -76 -163 6 -56 28 -93 78 -126 33 -23 37 -23 381 -23 l349 0 0 -490 0 -490 -806 0 c-803 0 -806 0 -844 -21 -21 -12 -47 -38 -59 -59 -21 -38 -21 -41 -21 -844 l0 -806 -490 0 -490 0 0 743 0 742 645 645 c499 498 649 654 660 685 14 35 15 155 13 945 -3 884 -3 906 -23 939 -11 19 -33 43 -48 55 -28 21 -34 21 -745 23 -580 2 -723 0 -747 -11z"/>
 </g>
<g id="layer102" fill="#cee8fa" stroke="none">
 <path d="M2070 3987 l0 -804 -23 -43 c-16 -30 -37 -51 -67 -67 l-43 -23 -804 0 -803 0 0 -490 0 -490 753 0 752 0 608 608 607 607 0 753 0 752 -490 0 -490 0 0 -803z"/>
 </g>

</svg>