<!DOCTYPE svg PUBLIC "-//W3C//DTD SVG 20010904//EN" "http://www.w3.org/TR/2001/REC-SVG-20010904/DTD/svg10.dtd">
<svg version="1.0" xmlns="http://www.w3.org/2000/svg" width="512px" height="512px" viewBox="0 0 5120 5120" preserveAspectRatio="xMidYMid meet">
<g id="layer101" fill="#000000" stroke="none">
 <path d="M2325 4870 c-456 -51 -875 -224 -1220 -503 -97 -79 -264 -246 -340 -342 -180 -224 -332 -517 -415 -800 -19 -66 -23 -72 -69 -98 -276 -155 -366 -528 -196 -812 41 -68 152 -185 201 -211 30 -16 35 -26 55 -108 127 -521 433 -987 853 -1303 420 -316 905 -468 1431 -450 576 20 1100 242 1514 642 325 314 541 693 645 1131 15 62 21 72 50 88 49 26 160 143 201 211 116 195 114 450 -5 632 -47 71 -121 141 -191 180 -47 27 -49 30 -74 113 -159 525 -480 958 -935 1262 -124 82 -364 202 -505 251 -118 41 -282 81 -420 103 -118 18 -465 27 -580 14z m497 -226 c549 -71 1043 -351 1380 -784 164 -211 302 -490 368 -743 13 -49 32 -99 42 -112 10 -13 44 -36 76 -50 149 -68 239 -230 211 -382 -19 -102 -92 -219 -168 -268 l-36 -24 -85 26 c-75 24 -102 27 -235 27 -116 1 -165 -3 -215 -17 -86 -25 -215 -85 -303 -144 -92 -61 -255 -223 -336 -335 -35 -49 -68 -88 -73 -88 -5 0 -28 15 -51 34 -63 50 -210 147 -314 205 -651 366 -1572 481 -2505 314 l-147 -26 -40 26 c-79 52 -150 167 -171 275 -27 146 60 304 208 374 34 17 70 40 80 53 10 13 29 63 42 112 66 253 204 532 368 743 335 429 827 711 1372 784 145 19 382 19 532 0z m-1214 -2494 c502 -28 889 -120 1257 -300 137 -67 318 -178 400 -245 96 -79 198 -96 293 -49 42 21 64 42 114 112 127 177 305 336 444 398 117 52 281 68 399 40 49 -11 50 -12 48 -48 -3 -50 -74 -263 -126 -378 -252 -556 -742 -966 -1340 -1119 -188 -49 -320 -65 -537 -65 -216 0 -349 16 -535 64 -588 152 -1072 549 -1328 1089 -45 96 -127 325 -142 397 l-6 31 106 17 c173 27 361 47 520 55 217 12 242 12 433 1z"/>
 <path d="M2961 4414 c-18 -15 -33 -39 -37 -60 -4 -22 -17 -43 -38 -59 -97 -73 -361 -129 -673 -142 -131 -5 -169 -10 -192 -24 -61 -37 -59 -141 2 -180 30 -19 43 -20 183 -15 439 17 752 103 870 238 44 50 68 118 61 170 -12 89 -109 129 -176 72z"/>
 <path d="M1445 3624 c-237 -36 -431 -208 -490 -434 -26 -100 -17 -263 20 -355 75 -188 230 -320 425 -361 129 -27 258 -10 385 52 57 27 191 147 226 201 l14 23 65 -33 c58 -29 73 -32 155 -32 82 0 97 3 155 33 l65 32 20 -27 c11 -16 49 -58 85 -94 223 -224 591 -222 815 5 121 122 169 243 169 416 -1 167 -54 292 -173 410 -109 108 -248 164 -406 164 -100 0 -170 -16 -265 -62 -184 -89 -319 -305 -320 -512 0 -54 -27 -102 -72 -130 -98 -59 -217 20 -218 145 -1 231 -178 464 -406 534 -62 20 -195 33 -249 25z m195 -239 c61 -21 136 -80 177 -139 126 -184 53 -438 -155 -534 -47 -22 -72 -26 -142 -27 -73 0 -94 4 -148 29 -81 38 -162 123 -192 203 -107 285 171 568 460 468z m1484 -13 c79 -37 141 -101 180 -182 70 -149 21 -337 -112 -435 -54 -40 -155 -75 -217 -75 -62 0 -163 35 -217 75 -96 71 -157 209 -144 325 18 149 136 283 283 320 63 16 159 4 227 -28z"/>
 </g>

</svg>