<!DOCTYPE svg PUBLIC "-//W3C//DTD SVG 20010904//EN" "http://www.w3.org/TR/2001/REC-SVG-20010904/DTD/svg10.dtd">
<svg version="1.0" xmlns="http://www.w3.org/2000/svg" width="512px" height="512px" viewBox="0 0 5120 5120" preserveAspectRatio="xMidYMid meet">
<g id="layer101" fill="#000000" stroke="none">
 <path d="M1517 5103 c-35 -40 -30 -98 12 -130 11 -8 61 -12 154 -13 124 0 137 -2 137 -17 0 -38 -243 -1898 -249 -1905 -4 -4 -214 19 -466 52 -590 78 -595 78 -667 51 -68 -26 -132 -86 -160 -148 -15 -34 -41 -207 -104 -691 -46 -356 -84 -678 -84 -717 0 -81 20 -133 73 -192 69 -76 67 -75 810 -172 373 -49 680 -91 683 -94 9 -9 -53 -446 -66 -462 -20 -24 -94 -19 -125 8 l-27 23 16 114 c23 165 22 194 -10 219 -33 26 -75 27 -104 3 -28 -22 -46 -113 -56 -272 -6 -95 -5 -109 14 -146 26 -51 79 -98 129 -115 21 -7 72 -13 114 -13 67 -1 81 2 125 29 79 48 97 97 128 345 35 275 27 251 84 243 26 -3 48 -7 49 -8 2 -1 23 -159 48 -351 24 -192 51 -372 60 -401 21 -69 88 -143 156 -173 75 -32 124 -29 639 39 250 33 458 57 462 55 5 -3 8 -20 8 -38 0 -81 48 -161 120 -200 84 -46 222 -33 295 26 59 49 80 100 80 198 l0 84 516 67 c455 59 522 70 566 92 98 50 154 142 154 255 0 37 -38 358 -85 714 -62 478 -89 658 -104 690 -39 89 -129 153 -230 164 -30 4 -232 -19 -551 -60 -278 -37 -508 -63 -511 -59 -4 5 -73 521 -154 1148 -81 627 -152 1153 -158 1168 -24 62 -112 66 -144 6 -13 -26 -3 -119 136 -1186 109 -839 147 -1159 139 -1164 -19 -11 -141 -22 -148 -12 -4 4 -88 627 -185 1383 -98 756 -180 1385 -183 1398 -5 21 -3 22 81 22 62 0 86 -3 86 -12 0 -7 7 -60 15 -117 12 -80 20 -110 37 -128 30 -32 81 -31 115 3 28 28 28 35 7 202 l-7 52 170 0 c192 0 209 5 219 70 4 27 1 42 -16 63 l-21 27 -1003 0 c-942 0 -1004 -1 -1019 -17z m643 -160 c0 -23 -252 -1947 -255 -1951 -5 -6 -142 10 -154 17 -8 5 26 289 114 969 69 529 125 966 125 972 0 6 33 10 85 10 74 0 85 -2 85 -17z m707 -1388 c100 -770 182 -1407 183 -1415 0 -13 -81 -26 -482 -79 -266 -34 -491 -63 -502 -64 -17 -2 -46 27 -36 36 3 2 51 39 108 82 107 81 145 128 157 198 31 169 -132 310 -296 256 -19 -7 -68 -37 -109 -68 -41 -31 -91 -68 -111 -84 l-37 -27 -91 115 c-95 120 -132 149 -209 161 -92 15 -199 -48 -237 -138 -19 -46 -20 -138 -1 -181 7 -18 48 -76 90 -129 42 -54 76 -101 76 -105 0 -5 -49 -46 -110 -92 -92 -70 -114 -91 -136 -137 -74 -151 35 -324 202 -324 74 0 108 16 229 110 l104 80 81 -105 c44 -57 93 -114 109 -127 27 -21 30 -32 44 -133 8 -60 13 -112 11 -114 -1 -2 -355 42 -786 98 -846 110 -814 103 -852 172 l-18 34 86 663 c54 420 91 674 101 692 19 37 62 60 112 60 21 0 506 -61 1078 -135 572 -74 1061 -135 1086 -135 49 0 71 15 84 58 8 28 -9 73 -33 88 -9 6 -168 30 -352 54 -184 24 -336 44 -337 45 -1 0 56 444 127 985 71 542 130 991 130 998 0 10 39 12 177 10 l177 -3 183 -1400z m-1339 -1167 c127 -164 152 -188 196 -188 48 0 49 1 206 120 102 77 138 99 154 94 29 -8 46 -33 46 -66 0 -24 -19 -42 -140 -134 -110 -84 -142 -114 -151 -141 -14 -43 -5 -77 30 -122 41 -53 44 -60 31 -76 -6 -8 -19 -34 -29 -59 l-17 -45 -58 75 c-97 126 -124 124 -303 -12 -70 -53 -137 -101 -150 -107 -33 -15 -73 14 -73 54 0 35 3 38 170 166 171 132 171 139 6 351 -53 68 -96 128 -96 134 0 14 21 52 34 60 35 23 57 7 144 -104z m3112 -253 c16 -9 37 -29 45 -45 10 -19 46 -267 101 -693 l86 -662 -18 -34 c-11 -19 -30 -43 -44 -53 -25 -18 -131 -32 -2154 -294 -192 -25 -362 -42 -377 -39 -36 8 -86 66 -94 107 -12 75 -165 1271 -165 1296 0 39 36 91 73 106 17 7 352 55 742 105 391 51 926 121 1190 155 524 70 572 73 615 51z m-1016 -1841 c13 -34 6 -91 -13 -108 -31 -28 -95 -32 -119 -8 -19 19 -40 98 -29 109 6 5 92 19 133 22 12 0 25 -6 28 -15z"/>
 <path d="M3120 1731 c-70 -14 -99 -41 -236 -213 -173 -217 -178 -225 -178 -302 1 -128 90 -216 218 -216 79 1 126 33 228 162 l45 57 259 -206 c143 -112 273 -212 289 -221 49 -25 145 -20 199 12 115 68 139 231 48 327 -49 51 -699 565 -737 583 -41 19 -93 25 -135 17z m361 -402 c407 -323 399 -316 399 -344 0 -23 -24 -45 -49 -45 -5 0 -143 106 -307 235 -163 129 -308 238 -322 242 -44 11 -70 -10 -165 -127 -69 -86 -99 -116 -118 -118 -35 -4 -55 22 -43 53 17 44 264 345 283 345 10 0 155 -108 322 -241z"/>
 </g>

</svg>