<!DOCTYPE svg PUBLIC "-//W3C//DTD SVG 20010904//EN" "http://www.w3.org/TR/2001/REC-SVG-20010904/DTD/svg10.dtd">
<svg version="1.0" xmlns="http://www.w3.org/2000/svg" width="512px" height="512px" viewBox="0 0 5120 5120" preserveAspectRatio="xMidYMid meet">
<g id="layer101" fill="#fff" stroke="none">
<path d="M59 4203 c-63 -39 -59 86 -59 -1643 0 -1733 -5 -1605 60 -1644 26 -15 230 -16 2500 -16 2270 0 2474 1 2500 16 65 39 60 -89 60 1644 0 1733 5 1605 -60 1644 -26 15 -229 16 -2502 16 -2268 -1 -2475 -2 -2499 -17z m1759 -343 c239 -26 474 -122 662 -269 l69 -54 -66 -71 -65 -71 71 -3 c39 -2 104 -2 143 0 l72 3 -66 71 -67 70 43 36 c116 97 308 198 461 243 102 30 268 55 365 55 268 0 574 -104 790 -267 63 -48 194 -178 245 -243 293 -379 354 -886 160 -1331 -65 -150 -154 -276 -281 -401 -123 -120 -222 -188 -379 -260 -151 -70 -370 -118 -535 -118 -96 0 -262 25 -365 55 -126 36 -312 131 -424 215 l-93 72 -37 -31 c-170 -144 -412 -256 -635 -293 -116 -20 -344 -14 -463 11 -526 111 -916 505 -1030 1042 -24 116 -24 362 0 478 58 270 164 475 345 663 288 298 676 441 1080 398z m2833 -593 c-8 -8 -11 -5 -11 9 0 27 14 41 18 19 2 -9 -1 -22 -7 -28z"/>
<path d="M2285 3197 c-19 -35 -35 -69 -35 -75 0 -9 82 -12 310 -12 193 0 310 4 310 10 0 5 -16 39 -36 75 l-36 65 -238 0 -239 0 -36 -63z"/>
<path d="M1171 2892 c-68 -37 -92 -141 -52 -227 36 -78 99 -113 218 -122 67 -5 73 -8 73 -28 0 -43 -65 -55 -177 -31 -35 7 -63 10 -63 8 0 -3 5 -33 11 -67 l11 -62 50 -11 c81 -19 192 -15 238 8 45 23 80 81 80 132 0 18 -12 117 -27 221 l-26 187 -70 0 c-65 0 -69 -1 -64 -20 5 -20 5 -20 -29 0 -49 31 -130 36 -173 12z m177 -134 c20 -22 42 -68 42 -89 0 -18 -86 -10 -114 12 -28 22 -35 66 -14 87 19 19 63 14 86 -10z"/>
<path d="M1588 2901 c-26 -4 -50 -10 -54 -13 -3 -4 -3 -35 1 -68 l7 -62 32 6 c108 23 176 14 176 -22 0 -22 -18 -39 -83 -76 -117 -67 -115 -241 3 -303 36 -19 58 -23 139 -23 53 0 101 4 107 8 8 5 9 22 3 57 -4 28 -8 56 -8 62 -1 9 -23 12 -76 11 -117 -2 -129 33 -32 90 74 43 97 79 97 155 0 119 -60 176 -194 182 -39 2 -92 0 -118 -4z"/>
<path d="M1963 2890 c-62 -37 -62 -87 -2 -425 11 -60 22 -129 26 -152 l6 -43 75 0 75 0 -6 40 -5 40 35 0 35 0 -7 53 c-10 83 -13 87 -50 87 -40 0 -38 -4 -61 144 -16 106 -16 110 2 123 11 8 31 12 46 9 26 -5 26 -4 21 32 -12 84 -18 97 -49 103 -58 13 -109 9 -141 -11z"/>
<path d="M2321 2895 c-78 -24 -126 -85 -141 -180 -18 -111 22 -245 96 -318 82 -81 217 -84 294 -7 57 57 69 122 44 253 l-6 27 -145 0 -145 0 7 28 c18 76 119 98 239 52 16 -6 30 -9 32 -8 4 5 -22 137 -29 144 -24 25 -178 30 -246 9z m159 -369 c0 -32 -25 -56 -56 -56 -26 0 -84 48 -84 69 0 7 27 11 70 11 67 0 70 -1 70 -24z"/>
<path d="M3090 2898 c-19 -7 -55 -33 -80 -58 -75 -74 -97 -192 -65 -343 18 -88 57 -158 117 -212 81 -73 180 -92 299 -59 l57 16 -5 37 c-20 131 -14 125 -93 96 -120 -44 -218 44 -228 206 -7 123 33 179 128 179 22 0 57 -7 77 -15 20 -8 37 -14 39 -12 1 1 -2 37 -8 79 -8 54 -16 79 -27 83 -32 13 -176 14 -211 3z"/>
<path d="M3440 2892 c-97 -48 -93 -234 5 -301 44 -29 123 -51 187 -51 41 0 48 -3 48 -20 0 -37 -43 -54 -120 -46 -38 3 -81 11 -96 16 l-26 10 7 -56 c4 -32 9 -63 12 -70 7 -18 91 -34 179 -34 119 0 175 41 189 136 3 21 -7 125 -23 229 l-27 190 -68 3 c-60 3 -67 1 -67 -16 0 -18 -2 -18 -47 4 -55 28 -105 30 -153 6z m161 -122 c19 -11 40 -46 53 -87 7 -21 4 -23 -33 -23 -54 0 -88 17 -100 50 -18 52 29 87 80 60z"/>
<path d="M4187 2896 c-50 -18 -71 -38 -98 -94 -25 -53 -30 -168 -11 -237 13 -45 4 -60 -28 -50 -32 10 -55 72 -79 215 -12 69 -24 135 -26 148 -5 20 -11 22 -81 22 l-76 0 4 -27 c2 -16 22 -139 44 -275 l39 -248 71 0 71 0 -5 27 -5 28 37 -33 c24 -21 47 -32 66 -32 17 0 30 2 30 5 0 2 -8 26 -19 52 -10 26 -22 64 -26 83 -6 33 -5 32 27 -20 39 -64 99 -109 156 -117 51 -7 79 0 124 31 l35 24 13 -89 13 -89 73 0 c66 0 74 2 74 19 0 11 -22 158 -50 328 -27 169 -50 314 -50 321 0 8 -22 12 -75 12 -59 0 -75 -3 -75 -15 0 -11 -8 -11 -42 5 -50 23 -79 24 -131 6z m144 -146 c58 -31 87 -196 42 -241 -26 -26 -67 -28 -94 -3 -29 26 -38 45 -49 105 -21 108 29 177 101 139z"/>
<path d="M470 2884 c0 -14 92 -566 106 -636 l6 -28 102 0 103 0 7 92 c3 50 6 134 7 187 l1 96 62 -185 63 -185 116 -3 c64 -1 117 0 117 3 0 3 -25 154 -55 335 -30 181 -55 331 -55 334 0 4 -34 6 -75 6 -67 0 -75 -2 -75 -19 0 -11 14 -104 30 -207 17 -102 29 -188 28 -189 -2 -2 -37 91 -78 206 l-75 209 -52 0 -53 0 -1 -77 c-1 -43 -4 -141 -8 -218 l-6 -140 -33 200 c-19 110 -36 208 -38 218 -7 25 -144 26 -144 1z"/>
<path d="M2617 2878 c12 -71 83 -518 83 -523 0 -3 32 -5 70 -5 63 0 70 2 70 20 0 18 2 18 36 -5 20 -14 48 -25 62 -25 27 0 28 -3 -6 110 -12 39 -25 64 -32 62 -26 -6 -59 29 -74 77 -8 27 -25 108 -37 180 l-23 131 -76 0 c-75 0 -77 -1 -73 -22z"/>
<path d="M4572 2888 c-7 -7 -12 -21 -12 -33 0 -12 5 -26 12 -33 7 -7 21 -12 33 -12 12 0 26 5 33 12 7 7 12 21 12 33 0 12 -5 26 -12 33 -7 7 -21 12 -33 12 -12 0 -26 -5 -33 -12z"/>
<path d="M2190 2145 c0 -3 16 -37 35 -75 l35 -70 308 0 307 0 22 58 c12 31 25 65 29 75 6 16 -16 17 -365 17 -204 0 -371 -2 -371 -5z"/>
<path d="M2340 1865 c0 -3 21 -37 46 -75 l47 -70 133 0 133 0 44 63 c24 34 47 68 51 75 6 9 -42 12 -223 12 -127 0 -231 -2 -231 -5z"/>
</g>


</svg>