<!DOCTYPE svg PUBLIC "-//W3C//DTD SVG 20010904//EN" "http://www.w3.org/TR/2001/REC-SVG-20010904/DTD/svg10.dtd">
<svg version="1.0" xmlns="http://www.w3.org/2000/svg" width="512px" height="512px" viewBox="0 0 5120 5120" preserveAspectRatio="xMidYMid meet">
<g id="layer101" fill="#fff" stroke="none">
<path d="M4030 4832 c-19 -10 -322 -212 -672 -450 l-637 -433 -343 247 c-189 136 -361 255 -383 265 -55 25 -121 24 -175 -3 -89 -46 -83 -28 -278 -767 l-178 -674 -633 -243 c-675 -258 -683 -262 -717 -341 -8 -18 -14 -59 -14 -91 0 -74 39 -141 100 -172 23 -12 1104 -444 2403 -961 l2362 -941 66 4 c75 4 120 28 160 86 49 72 62 -9 -366 2237 -218 1144 -401 2096 -407 2115 -16 53 -56 100 -102 121 -52 24 -139 24 -186 1z m-21 -704 c183 -958 579 -3043 578 -3044 -3 -3 -2202 2115 -2204 2123 -2 7 1574 1082 1588 1083 4 0 21 -73 38 -162z m-1823 -309 c71 -50 137 -98 146 -107 16 -13 0 -26 -190 -155 -114 -77 -217 -149 -229 -160 -20 -18 -18 -4 28 169 27 104 59 226 71 272 14 57 25 82 33 78 7 -2 71 -46 141 -97z m714 -1696 c1021 -981 1114 -1071 1094 -1060 -6 4 -731 293 -1610 642 -879 350 -1600 638 -1601 639 -2 1 178 71 400 156 221 84 423 164 449 177 73 36 93 76 150 290 27 104 51 194 54 202 3 9 13 -2 27 -28 15 -29 337 -345 1037 -1018z"/>
</g>


</svg>