<!DOCTYPE svg PUBLIC "-//W3C//DTD SVG 20010904//EN" "http://www.w3.org/TR/2001/REC-SVG-20010904/DTD/svg10.dtd">
<svg version="1.0" xmlns="http://www.w3.org/2000/svg" width="256px" height="256px" viewBox="0 0 2560 2560" preserveAspectRatio="xMidYMid meet">
<g id="layer101" fill="#fff" stroke="none">
<path d="M0 1975 l0 -55 1280 0 1280 0 0 55 0 55 -1280 0 -1280 0 0 -55z"/>
<path d="M210 1374 c0 -215 -4 -351 -11 -380 -7 -28 -28 -63 -56 -94 l-45 -50 166 0 166 0 2 255 3 255 153 -255 153 -255 111 0 c101 0 110 1 103 18 -3 9 -110 203 -237 430 l-231 412 -138 0 -139 0 0 -336z"/>
<path d="M760 1658 c11 -29 82 -222 159 -428 l139 -375 111 -3 c61 -1 111 1 111 5 1 4 -70 198 -157 431 l-158 422 -112 0 -113 0 20 -52z"/>
<path d="M1271 1694 c-29 -8 -70 -24 -92 -37 l-38 -23 40 -72 39 -71 45 24 c109 58 225 57 282 0 33 -33 34 -35 19 -63 -8 -16 -48 -55 -88 -88 -40 -32 -86 -72 -101 -88 -91 -95 -88 -214 7 -331 74 -89 212 -130 349 -102 82 17 164 53 180 79 8 12 2 29 -28 72 -21 31 -42 56 -46 56 -5 0 -30 -14 -56 -30 -116 -74 -207 -58 -228 41 -10 43 16 77 115 151 102 76 130 118 130 199 0 147 -92 255 -248 288 -72 15 -215 13 -281 -5z"/>
<path d="M1830 1613 c28 -54 131 -248 228 -430 l177 -333 113 0 c107 0 112 1 112 21 0 24 48 732 54 797 l4 42 -114 0 -114 0 0 -85 0 -85 -119 0 -118 0 -38 85 -38 85 -99 0 -100 0 52 -97z m459 -375 l0 -143 -69 135 c-38 74 -69 138 -69 143 -1 4 31 7 69 7 l70 0 -1 -142z"/>
<path d="M0 585 l0 -55 1280 0 1280 0 0 55 0 55 -1280 0 -1280 0 0 -55z"/>
</g>


</svg>