<svg version="1" xmlns="http://www.w3.org/2000/svg" width="147" height="172" viewBox="0 0 1470 1720"><path d="M196 1705c-42-22-55-44-56-92 0-75 24-87 243-124 93-15 171-30 173-32s10-34 18-73c18-89 24-176 11-180-5-1-28 34-50 79s-51 89-65 99c-48 35-172 71-258 76-77 4-86 3-147-27-55-27-65-36-65-58 0-21 4-25 23-20 12 2 29 8 38 11 13 6 16 2 12-17-6-30 18-50 59-49s82 32 88 66l5 26 91-45 92-46 39-102c22-56 48-126 58-155 19-60 72-122 103-122 21 0 42-26 42-53 0-8-14-20-31-28-40-16-122-97-138-137-9-21-24-35-47-42-42-14-66-48-67-96-1-26 5-41 21-54 17-14 22-29 22-68 0-225 124-359 343-370 77-4 90-7 103-27 47-71 173-56 256 31 54 57 60 81 57 239-2 124 0 147 19 198 30 78 28 98-13 172-21 36-33 69-29 79 3 9 1 16-5 16-19 0-52-63-50-95 2-54 2-55-41-37-25 11-46 30-59 53-24 41-109 124-145 141-21 9-24 16-19 37 8 37 12 41 35 41 39 0 83 60 118 162 18 53 47 125 64 160 30 61 34 64 116 106 84 42 85 42 88 20 8-51 71-84 125-65 25 8 28 14 25 39-4 23-2 28 11 22 9-4 26-9 39-11 18-5 22-1 22 21 0 23-9 31-66 58-60 28-72 30-147 26-85-5-209-41-257-76-14-10-43-53-65-97-38-76-40-78-43-47-3 33 14 201 21 209 3 2 83 19 180 38 193 38 204 41 230 63 19 17 24 91 7 123-26 48-33 49-587 49-443 0-522-2-547-15zm-26-343c0-17-35-41-48-33-20 12-3 41 24 41 13 0 24-4 24-8zm1184-9c10-24-15-35-36-16-10 9-18 20-18 25 0 15 48 8 54-9z" fill="#66442e"/><path d="M196 1705c-42-22-55-44-56-92 0-75 24-87 243-124 93-15 171-30 173-32s10-34 18-73c18-89 24-176 11-180-5-1-28 34-50 79s-51 89-65 99c-48 35-172 71-258 76-77 4-86 3-147-27-55-27-65-36-65-58 0-21 4-25 23-20 12 2 29 8 38 11 13 6 16 2 12-17-6-30 18-50 59-49s82 32 88 66l5 26 91-45 92-46 39-102c22-56 48-126 58-155 19-60 72-122 103-122 21 0 42-26 42-53 0-8-14-20-31-28-40-16-122-97-138-137-9-21-24-35-47-42-42-14-66-48-67-96-1-26 5-41 21-54 17-14 22-29 22-68 0-225 124-359 343-370 77-4 90-7 103-27 47-71 173-56 256 31 54 57 60 81 57 239-2 124 0 147 19 198 30 78 28 98-13 172-21 36-33 69-29 79 3 9 1 16-5 16-19 0-52-63-50-95 2-54 2-55-41-37-25 11-46 30-59 53-24 41-109 124-145 141-21 9-24 16-19 37 8 37 12 41 35 41 39 0 83 60 118 162 18 53 47 125 64 160 30 61 34 64 116 106 84 42 85 42 88 20 8-51 71-84 125-65 25 8 28 14 25 39-4 23-2 28 11 22 9-4 26-9 39-11 18-5 22-1 22 21 0 23-9 31-66 58-60 28-72 30-147 26-85-5-209-41-257-76-14-10-43-53-65-97-38-76-40-78-43-47-3 33 14 201 21 209 3 2 83 19 180 38 193 38 204 41 230 63 19 17 24 91 7 123-26 48-33 49-587 49-443 0-522-2-547-15zm-26-343c0-17-35-41-48-33-20 12-3 41 24 41 13 0 24-4 24-8zm1184-9c10-24-15-35-36-16-10 9-18 20-18 25 0 15 48 8 54-9z" fill="#9b6436"/><path d="M196 1705c-42-22-55-44-56-92 0-75 24-87 243-124 93-15 171-30 173-32s10-34 18-73c18-89 24-176 11-180-5-1-28 34-50 79s-51 89-65 99c-48 35-172 71-258 76-77 4-86 3-147-27-55-27-65-36-65-58 0-21 4-25 23-20 12 2 29 8 38 11 13 6 16 2 12-17-6-30 18-50 59-49s82 32 88 66l5 26 91-45 92-46 39-102c22-56 48-126 58-155 19-60 72-122 103-122 21 0 42-26 42-53 0-8-14-20-31-28-40-16-122-97-138-136-7-18-27-36-54-48-52-25-76-79-54-123 10-23 19-27 53-28 45 0 113-35 153-78 14-14 34-26 45-27 21 0 21-1 1-9-27-11-9-17 74-24 81-8 110-22 141-70l25-39 6 36c7 44 32 83 59 92 12 4 24 22 32 46 6 22 24 51 40 64 24 20 33 23 55 14 33-12 53 4 53 43 0 45-26 85-64 99-22 8-42 26-55 49-24 42-108 125-145 142-21 9-24 16-19 37 8 37 12 41 35 41 39 0 83 60 118 162 18 53 47 125 64 160 30 61 34 64 116 106 84 42 85 42 88 20 8-51 71-84 125-65 25 8 28 14 25 39-4 23-2 28 11 22 9-4 26-9 39-11 18-5 22-1 22 21 0 23-9 31-66 58-60 28-72 30-147 26-85-5-209-41-257-76-14-10-43-53-65-97-38-76-40-78-43-47-3 33 14 201 21 209 3 2 83 19 180 38 193 38 204 41 230 63 19 17 24 91 7 123-26 48-33 49-587 49-443 0-522-2-547-15zm-26-343c0-17-35-41-48-33-20 12-3 41 24 41 13 0 24-4 24-8zm1184-9c10-24-15-35-36-16-10 9-18 20-18 25 0 15 48 8 54-9zM657 538c13-12 21-23 19-26-2-2-14 6-25 17-30 30-94 29-116-1-15-21-16-21-13-3 8 47 91 55 135 13zm301 6c12-8 22-20 22-25 0-6-12-1-26 10-38 30-89 28-119-5-14-15-25-23-25-19 0 5 10 19 22 32 26 28 91 32 126 7z" fill="#e64c4f"/><path d="M196 1705c-42-22-55-44-56-92 0-75 24-87 243-124 93-15 171-30 173-32s10-34 18-73c18-89 24-176 11-180-5-1-28 34-50 79s-51 89-65 99c-48 35-172 71-258 76-77 4-86 3-147-27-55-27-65-36-65-58 0-21 4-25 23-20 12 2 29 8 38 11 13 6 16 2 12-17-6-30 18-50 59-49s82 32 88 66l5 26 91-45 92-46 39-102c22-56 48-126 58-155 19-60 72-122 103-122 21 0 42-26 42-53 0-8-14-20-31-28-40-16-122-97-138-136-7-18-27-36-54-48-52-25-76-79-54-123 10-23 19-27 53-28 45 0 113-35 153-78 14-14 34-26 45-27 21 0 21-1 1-9-27-11-9-17 74-24 81-8 110-22 141-70l25-39 6 36c7 44 32 83 59 92 12 4 24 22 32 46 6 22 24 51 40 64 24 20 33 23 55 14 33-12 53 4 53 43 0 45-26 85-64 99-22 8-42 26-55 49-24 42-108 125-145 142-21 9-24 16-19 37 8 37 12 41 35 41 39 0 83 60 118 162 18 53 47 125 64 160 30 61 34 64 116 106 84 42 85 42 88 20 8-51 71-84 125-65 25 8 28 14 25 39-4 23-2 28 11 22 9-4 26-9 39-11 18-5 22-1 22 21 0 23-9 31-66 58-60 28-72 30-147 26-85-5-209-41-257-76-14-10-43-53-65-97-38-76-40-78-43-47-3 33 14 201 21 209 3 2 83 19 180 38 193 38 204 41 230 63 19 17 24 91 7 123-26 48-33 49-587 49-443 0-522-2-547-15zm-26-343c0-17-35-41-48-33-20 12-3 41 24 41 13 0 24-4 24-8zm1184-9c10-24-15-35-36-16-10 9-18 20-18 25 0 15 48 8 54-9zM798 722c12-8 22-19 22-24s-12 0-26 11c-32 25-71 27-96 4-11-10-18-12-18-4 0 16 59 41 79 33 9-3 26-12 39-20zM657 538c13-12 21-23 19-26-2-2-14 6-25 17-30 30-94 29-116-1-15-21-16-21-13-3 8 47 91 55 135 13zm301 6c12-8 22-20 22-25 0-6-12-1-26 10-38 30-89 28-119-5-14-15-25-23-25-19 0 5 10 19 22 32 26 28 91 32 126 7z" fill="#617cf2"/><path d="M196 1705c-42-22-55-44-56-92 0-75 29-90 235-123 190-30 183-28 190-58l5-27 168 1c161 1 167 2 170 22 3 17 15 23 60 32 273 56 336 71 353 86 21 19 26 92 9 125-26 48-33 49-587 49-443 0-522-2-547-15zM63 1430c-52-26-63-36-63-57s4-25 23-20c12 2 29 8 38 11 13 6 16 2 12-17-6-30 18-50 59-49s82 32 88 66l5 26 91-45 91-46 33-82c18-45 43-113 56-151 28-81 72-145 85-125 14 22 11 54-12 122-20 61-20 66-4 97 17 33 17 33-27 118-23 48-54 94-68 104-50 36-171 71-260 75-80 4-89 3-147-27zm107-68c0-17-35-41-48-33-20 12-3 41 24 41 13 0 24-4 24-8zm975 79c-135-40-164-60-205-141-41-82-44-99-24-121 23-26 21-92-5-149-11-25-21-58-20-75v-30l28 31c16 18 41 70 61 127 18 52 47 124 64 159 30 61 34 64 116 106 84 42 85 42 88 20 8-51 71-84 125-65 25 8 28 14 25 39-4 23-2 28 11 22 9-4 26-9 39-11 18-5 22-1 22 21 0 23-9 31-62 56-52 25-75 30-133 29-38 0-97-8-130-18zm209-88c10-24-15-35-36-16-10 9-18 20-18 25 0 15 48 8 54-9zM703 950c-50-11-64-28-57-65 5-29 3-33-26-45-40-17-123-98-139-137-7-18-27-36-54-48-52-25-76-79-54-123 10-23 19-27 53-28 45 0 113-35 153-78 14-14 34-26 45-27 21 0 21-1 1-9-27-11-9-17 74-24 81-8 110-22 141-70l25-39 6 36c7 44 32 83 59 92 12 4 24 22 32 46 6 22 24 51 40 64 24 20 33 23 55 14 33-12 53 4 53 43 0 45-26 85-64 99-22 8-42 26-55 49-23 42-108 125-145 141-21 10-24 17-19 44 4 27 1 36-18 48-33 20-68 26-106 17zm95-228c12-8 22-19 22-24s-12 0-26 11c-32 25-71 27-96 4-11-10-18-12-18-4 0 16 59 41 79 33 9-3 26-12 39-20zM657 538c13-12 21-23 19-26-2-2-14 6-25 17-30 30-94 29-116-1-15-21-16-21-13-3 8 47 91 55 135 13zm301 6c12-8 22-20 22-25 0-6-12-1-26 10-38 30-89 28-119-5-14-15-25-23-25-19 0 5 10 19 22 32 26 28 91 32 126 7z" fill="#e1a373"/><path d="M196 1705c-42-22-55-44-56-92 0-75 29-90 235-123 190-30 183-28 190-58l5-27 168 1c161 1 167 2 170 22 3 17 15 23 60 32 273 56 336 71 353 86 21 19 26 92 9 125-26 48-33 49-587 49-443 0-522-2-547-15zM63 1430c-52-26-63-36-63-57s4-25 23-20c12 2 29 8 38 11 13 6 16 2 12-17-6-30 18-50 59-49s82 32 88 66l5 26 91-45 91-46 33-82c18-45 43-113 56-151 28-81 72-145 85-125 14 22 11 54-12 122-20 61-20 66-4 97 17 33 17 33-27 118-23 48-54 94-68 104-50 36-171 71-260 75-80 4-89 3-147-27zm107-68c0-17-35-41-48-33-20 12-3 41 24 41 13 0 24-4 24-8zm975 79c-135-40-164-60-205-141-41-82-44-99-24-121 23-26 21-92-5-149-11-25-21-58-20-75v-30l28 31c16 18 41 70 61 127 18 52 47 124 64 159 30 61 34 64 116 106 84 42 85 42 88 20 8-51 71-84 125-65 25 8 28 14 25 39-4 23-2 28 11 22 9-4 26-9 39-11 18-5 22-1 22 21 0 23-9 31-62 56-52 25-75 30-133 29-38 0-97-8-130-18zm209-88c10-24-15-35-36-16-10 9-18 20-18 25 0 15 48 8 54-9zM703 950c-49-11-62-26-56-64 5-29 2-34-27-46-40-17-122-98-139-137-7-18-27-36-54-48-52-25-76-79-54-123 10-23 19-27 57-27 50-1 97-25 144-74 17-18 41-31 55-32l26-1-25-8c-34-10-13-17 71-24 83-6 114-21 141-65l22-36 9 42c6 32 18 50 48 73 21 18 39 38 39 46 0 26 28 70 52 81 13 6 37 8 54 6 29-5 33-2 39 26 9 44-19 97-60 112-21 8-41 26-54 49-23 42-108 125-145 141-21 10-24 17-19 44 4 27 1 36-18 48-33 20-68 26-106 17zm76-214c28-15 60-46 46-46-4 0-18 9-32 20-31 24-61 25-91 4-33-23-38-10-6 15s45 26 83 7zm-38-100c-10-11-9-26 3-67 18-60 20-79 7-79-5 0-12 17-15 38-4 20-12 49-18 64-12 33-5 58 18 58 13 0 14-3 5-14zm-112-77c17-6 36-20 42-30 13-25 4-24-21 1-13 13-33 20-60 20-29 0-43-5-52-20-17-26-32-26-18 1 19 35 59 45 109 28zm329-15c12-8 22-20 22-25 0-6-12-1-26 10-38 30-89 28-119-5-14-15-25-23-25-19 0 5 10 19 22 32 26 28 91 32 126 7zm-23-133c-15-13-85-23-85-12 0 5 17 12 38 14 20 2 41 4 47 5s6-1 0-7z" fill="#acabf7"/><path d="M196 1705c-41-22-55-44-56-90 0-58 10-68 75-73 56-5 82-1 362 44l152 25 229-35c238-37 349-45 370-24 15 15 16 92 2 119-26 48-33 49-587 49-443 0-522-2-547-15zm415-225c-54-12-54-12-46-50 6-26 10-30 28-24 20 6 253 8 292 2 15-2 20 3 20 21 0 19-8 27-40 38-49 18-195 25-254 13zm-548-50c-52-26-63-36-63-57s4-25 23-20c12 2 29 8 38 11 13 6 16 2 12-17-6-30 18-50 59-49s82 32 88 66l5 26 91-45 92-46 39-102c22-56 48-125 57-153 9-27 30-66 46-85l31-34-4 55c-2 30-10 76-17 102-12 42-12 51 3 82 16 35 16 35-26 118-23 45-53 90-67 100-50 36-171 71-260 75-80 4-89 3-147-27zm107-68c0-17-35-41-48-33-20 12-3 41 24 41 13 0 24-4 24-8zm975 79c-142-42-169-62-215-162l-31-69 20-29c26-36 26-83 2-136-10-22-21-58-25-80l-7-40 29 31c17 18 42 68 62 127 18 52 47 124 64 159 30 61 34 64 116 106 84 42 85 42 88 20 8-51 71-84 125-65 25 8 28 14 25 39-4 23-2 28 11 22 9-4 26-9 39-11 18-5 22-1 22 21 0 23-9 31-62 56-52 25-75 30-133 29-38 0-97-8-130-18zm209-88c10-24-15-35-36-16-10 9-18 20-18 25 0 15 48 8 54-9zM673 938c-24-12-26-17-23-59 1-21-5-29-31-39-40-17-122-98-138-137-7-18-27-36-54-48-52-25-76-79-54-123 10-23 19-27 57-27 50-1 97-25 144-74 17-18 41-31 55-32l26-1-25-8c-34-10-13-17 71-24 83-6 114-21 141-65l22-36 9 42c6 32 18 50 48 73 21 18 39 38 39 46 0 26 28 70 52 81 13 6 37 8 54 6 29-5 33-2 39 26 9 44-19 97-60 112-21 8-41 26-54 49-23 42-108 125-145 141-20 10-24 17-20 39 11 55-85 91-153 58zm106-202c28-15 60-46 46-46-4 0-18 9-32 20-31 24-61 25-91 4-33-23-38-10-6 15s45 26 83 7zm-38-100c-10-11-9-26 3-67 18-60 20-79 7-79-5 0-12 17-15 38-4 20-12 49-18 64-12 33-5 58 18 58 13 0 14-3 5-14zm-112-77c17-6 36-20 42-30 13-25 4-24-21 1-13 13-33 20-60 20-29 0-43-5-52-20-17-26-32-26-18 1 19 35 59 45 109 28zm329-15c12-8 22-20 22-25 0-6-12-1-26 10-38 30-89 28-119-5-14-15-25-23-25-19 0 5 10 19 22 32 26 28 91 32 126 7zm-23-133c-15-13-85-23-85-12 0 5 17 12 38 14 20 2 41 4 47 5s6-1 0-7z" fill="#f7d7b3"/></svg>