<svg version="1" xmlns="http://www.w3.org/2000/svg" width="147" height="165" viewBox="0 0 1470 1650"><path d="M216 1631c-65-43-75-114-23-162 34-33 225-129 295-150l42-12-1-81v-81l-19 53c-10 30-30 66-45 82-62 65-196 112-327 114-92 1-131-20-136-74l-3-33 39 6c37 6 39 5 35-16-8-42 54-74 115-60 13 3 32 18 41 34l17 28 50-33c27-18 56-42 65-52 9-11 28-73 43-139 40-177 75-226 169-240 60-9 62-32 6-69-41-27-112-125-123-170-4-17-15-26-36-31-88-19-111-165-26-165 21 0 24-6 29-57 3-32 9-68 13-80 5-19 3-21-18-16-31 9-88 55-88 72 0 8-7 23-16 33-10 10-18 33-20 50-11 139-11 154 3 186 8 19 26 52 39 74 14 22 23 42 20 46-3 3-30 7-60 10l-54 4-11-51c-6-29-11-70-11-92 0-21-6-48-12-59-10-15-10-27-1-50 7-17 7-32 2-36-13-8-11-48 3-62 7-7 11-27 10-46-2-27 3-39 25-56 15-12 33-34 39-50 9-19 22-30 44-35 18-4 41-16 51-26 22-22 48-24 73-6 17 12 23 9 60-31 23-26 67-57 101-73C667 4 687 0 763 0c107 0 158 21 221 91 42 47 44 48 74 37 28-11 34-10 55 10 13 12 30 22 38 22 23 0 59 29 59 49 0 9 14 27 31 40 23 17 30 29 27 50-1 15 6 40 16 56 15 23 16 31 5 51-10 20-10 29 1 49 11 21 11 27-2 42-10 12-17 47-21 100-3 45-8 87-12 93-8 13-109 10-122-3-3-4 1-15 9-24 9-10 27-41 42-70 23-46 25-60 20-120-3-37-6-80-7-94s-7-32-13-40-14-23-18-34c-7-24-62-69-93-77-19-5-21-3-12 19 5 13 9 48 9 77 0 51 1 54 30 60 72 14 53 129-26 158-24 8-35 20-39 39-12 53-81 146-129 174-56 33-59 52-8 61 96 17 129 64 167 239 15 66 35 128 44 139 9 10 38 34 65 52l50 33 17-28c19-31 47-42 94-36 36 5 68 40 59 67-5 17-2 18 36 12l41-7-3 33c-2 22-12 40-31 54-55 40-249 18-359-41-64-35-97-73-119-135l-18-53-1 80v80l88 34c121 47 195 84 242 122 35 28 40 38 40 73 0 119-124 147-365 85-217-56-210-55-278-36-253 71-393 86-451 48zm-41-351c7-11-35-31-47-23-5 2-8 11-8 19 0 16 45 20 55 4zm1175-4c0-21-11-25-38-15-28 11-20 29 14 29 14 0 24-6 24-14z" fill="#431f0d"/><g fill="#725039"><path d="M216 1631c-65-43-75-114-23-162 34-33 225-129 295-150l42-12-1-81v-81l-19 53c-10 30-30 66-45 82-62 65-196 112-327 114-92 1-131-20-136-74l-3-33 39 6c37 6 39 5 35-16-8-42 54-74 115-60 13 3 32 18 41 34l17 28 50-33c27-18 56-42 65-52 9-11 28-73 43-139 40-177 75-226 169-240 60-9 62-32 6-69-41-27-112-125-123-170-4-17-15-26-36-31-92-20-110-165-20-165 22 0 39-12 76-57 27-32 50-60 51-62 9-13 11 10 4 37l-10 32h462l-6-35c-3-19-3-35 1-35 4 1 24 28 46 60 28 43 45 60 60 60 38 0 60 24 59 63-1 46-27 84-69 99-24 8-35 20-39 39-12 53-81 146-129 174-56 33-59 52-8 61 96 17 129 64 167 239 15 66 35 128 44 139 9 10 38 34 65 52l50 33 17-28c19-31 47-42 94-36 36 5 68 40 59 67-5 17-2 18 36 12l41-7-3 33c-2 22-12 40-31 54-55 40-249 18-359-41-64-35-97-73-119-135l-18-53-1 80v80l88 34c121 47 195 84 242 122 35 28 40 38 40 73 0 119-124 147-365 85-217-56-210-55-278-36-253 71-393 86-451 48zm-41-351c7-11-35-31-47-23-5 2-8 11-8 19 0 16 45 20 55 4zm1175-4c0-21-11-25-38-15-28 11-20 29 14 29 14 0 24-6 24-14zM573 440c-13-5-23-15-23-21 0-7-3-9-6-6-10 10 16 37 35 36 11 0 9-3-6-9zm82-10c10-11 13-20 7-20-7 0-12 4-12 8 0 5-10 14-22 20-16 7-18 11-7 11 9 1 24-8 34-19zm218 10c-13-5-23-15-23-21 0-7-3-9-6-6-10 10 16 37 35 36 11 0 9-3-6-9zm82-10c10-11 13-20 7-20-7 0-12 4-12 8 0 5-10 14-22 20-16 7-18 11-7 11 9 1 24-8 34-19zm-732 88c2-7 14-13 27-13s25 6 28 13c2 8-7 12-28 12s-30-4-27-12zm990 0c2-7 14-13 27-13s25 6 28 13c2 8-7 12-28 12s-30-4-27-12z"/><path d="M422 335c0-22 6-58 13-80l14-40-6 55c-4 30-10 66-14 80-6 21-7 19-7-15zm640-5c-1-25-6-60-11-78-6-18-6-30-1-27 13 8 22 65 17 110l-4 40-1-45zM480 144c0-5 19-29 43-51C576 41 662 0 715 1l40 1-48 8c-71 12-151 55-192 102-19 23-35 37-35 32zm513-29c-29-43-90-85-151-101-36-10-40-13-19-13 42-1 112 36 157 85 22 24 40 48 40 54 0 15-3 13-27-25z"/></g><path d="M216 1631c-65-43-75-114-23-162 34-33 225-129 295-150l42-12-1-81v-81l-19 53c-10 30-30 66-45 82-62 65-196 112-327 114-92 1-131-20-136-74l-3-33 39 6c37 6 39 5 35-16-8-42 54-74 115-60 13 3 32 18 41 34l17 28 50-33c27-18 56-42 65-52 9-11 28-73 43-139 40-177 75-226 169-240 60-9 62-32 6-69-41-27-112-125-123-170-4-17-15-26-36-31-41-9-80-58-80-100s22-65 63-65c27 0 39-9 76-55 24-30 46-55 48-55 3 0 2 13-2 30l-7 30h461l3-32 3-32 38 57c27 42 43 57 60 57 39 0 61 24 60 63-1 46-27 84-69 99-24 8-35 20-39 39-12 53-81 146-129 174-56 33-59 52-8 61 96 17 129 64 167 239 15 66 35 128 44 139 9 10 38 34 65 52l50 33 17-28c19-31 47-42 94-36 36 5 68 40 59 67-5 17-2 18 36 12l41-7-3 33c-2 22-12 40-31 54-55 40-249 18-359-41-64-35-97-73-119-135l-18-53-1 80v80l88 34c121 47 195 84 242 122 35 28 40 38 40 73 0 119-124 147-365 85-217-56-210-55-278-36-253 71-393 86-451 48zm-41-351c7-11-35-31-47-23-5 2-8 11-8 19 0 16 45 20 55 4zm1175-4c0-21-11-25-38-15-28 11-20 29 14 29 14 0 24-6 24-14zM655 429c11-10 14-19 8-19s-16 7-23 15-25 15-40 15-33-7-40-15-18-15-24-15 2 12 18 26c33 29 67 27 101-7zm300 0c11-10 14-19 8-19s-16 7-23 15-25 15-40 15-33-7-40-15-18-15-24-15 2 12 18 26c33 29 67 27 101-7zm-735 91c0-5 14-10 31-10s28 4 24 10c-3 6-17 10-31 10-13 0-24-4-24-10zm995 0c-4-6 7-10 24-10s31 5 31 10c0 6-11 10-24 10-14 0-28-4-31-10z" fill="#956d58"/><path d="M216 1631c-65-43-75-114-23-162 34-33 225-129 295-150l42-12-1-81v-81l-19 53c-10 30-30 66-45 82-62 65-196 112-327 114-92 1-131-20-136-74l-3-33 39 6c37 6 39 5 35-16-8-42 54-74 115-60 13 3 32 18 41 34l17 28 50-33c27-18 56-42 65-52 9-11 28-73 43-139 40-177 75-226 169-240 60-9 62-32 6-69-41-27-112-125-123-170-4-17-15-26-36-31-41-9-80-58-80-100 0-43 22-65 65-65 26 0 39-8 61-36 16-20 37-46 47-58 18-21 18-21 12 12l-7 32h462v-32c0-32 1-32 40 28 33 50 44 61 62 57 36-7 62 19 61 60-1 46-27 84-69 99-24 8-35 20-39 39-12 53-81 146-129 174-56 33-59 52-8 61 96 17 129 64 167 239 15 66 35 128 44 139 9 10 38 34 65 52l50 33 17-28c19-31 47-42 94-36 36 5 68 40 59 67-5 17-2 18 36 12l41-7-3 33c-2 22-12 40-31 54-55 40-249 18-359-41-64-35-97-73-119-135l-18-53-1 80v80l88 34c121 47 195 84 242 122 35 28 40 38 40 73 0 119-124 147-365 85-217-56-210-55-278-36-253 71-393 86-451 48zm-41-351c7-11-35-31-47-23-5 2-8 11-8 19 0 16 45 20 55 4zm1175-4c0-21-11-25-38-15-28 11-20 29 14 29 14 0 24-6 24-14zM650 435c13-14 21-27 18-30-2-3-13 4-23 15-24 27-70 26-89-2-17-23-30-21-21 4 7 18 42 36 71 37 11 1 31-10 44-24zm300 0c13-14 21-27 18-30-2-3-13 4-23 15-24 27-70 26-89-2-17-23-30-21-21 4 7 18 42 36 71 37 11 1 31-10 44-24zm-730 83c0-4 14-8 30-8 17 0 30 2 30 4s-13 6-30 8c-16 3-30 1-30-4zm1015 2l-30-8 33-1c17 0 32 4 32 9 0 6-1 9-2 9-2-1-16-5-33-9z" fill="#e75052"/><path d="M216 1631c-65-43-75-114-23-162 34-33 225-129 295-150l42-12-1-81v-81l-19 53c-10 30-30 66-45 82-62 65-196 112-327 114-92 1-131-20-136-74l-3-33 39 6c37 6 39 5 35-16-8-42 54-74 115-60 13 3 32 18 41 34l17 28 50-33c27-18 56-42 65-52 9-11 28-73 43-139 40-177 75-226 169-240 60-9 62-32 6-69-41-27-112-125-123-170-4-17-15-26-36-31-41-9-80-58-80-100 0-43 22-65 65-65 26 0 39-8 61-36 16-20 37-46 47-58 18-21 18-21 12 12l-7 32h462v-32c0-32 1-32 40 28 33 50 44 61 62 57 36-7 62 19 61 60-1 46-27 84-69 99-24 8-35 20-39 39-12 53-81 146-129 174-56 33-59 52-8 61 96 17 129 64 167 239 15 66 35 128 44 139 9 10 38 34 65 52l50 33 17-28c19-31 47-42 94-36 36 5 68 40 59 67-5 17-2 18 36 12l41-7-3 33c-2 22-12 40-31 54-55 40-249 18-359-41-64-35-97-73-119-135l-18-53-1 80v80l88 34c121 47 195 84 242 122 35 28 40 38 40 73 0 119-124 147-365 85-217-56-210-55-278-36-253 71-393 86-451 48zm-41-351c7-11-35-31-47-23-5 2-8 11-8 19 0 16 45 20 55 4zm1175-4c0-21-11-25-38-15-28 11-20 29 14 29 14 0 24-6 24-14zM804 649l21-21-35 21c-44 26-70 26-104 0-17-13-24-15-20-6 15 40 102 44 138 6zM650 435c13-14 21-27 18-30-2-3-13 4-23 15-24 27-70 26-89-2-17-23-30-21-21 4 7 18 42 36 71 37 11 1 31-10 44-24zm300 0c13-14 21-27 18-30-2-3-13 4-23 15-24 27-70 26-89-2-17-23-30-21-21 4 7 18 42 36 71 37 11 1 31-10 44-24zm-730 83c0-4 14-8 30-8 17 0 30 2 30 4s-13 6-30 8c-16 3-30 1-30-4zm1015 2l-30-8 33-1c17 0 32 4 32 9 0 6-1 9-2 9-2-1-16-5-33-9z" fill="#b08f72"/><path d="M216 1631c-65-43-75-114-23-162 34-33 225-129 295-150l42-12-1-81v-81l-19 53c-10 30-30 66-45 82-62 65-196 112-327 114-92 1-131-20-136-74l-3-33 39 6c37 6 39 5 35-16-8-42 54-74 115-60 13 3 32 18 41 34l17 28 50-33c27-18 56-42 65-52 9-11 28-73 43-139 40-177 75-226 169-240 60-9 62-32 6-69-41-27-112-125-123-170-4-17-15-26-36-31-96-21-109-177-13-162 18 3 33 3 33-1s20-29 44-57c40-45 44-47 39-22l-5 27h226c124 0 229-1 234-2 4-2 6-13 4-25-1-13-1-23 1-23s20 24 41 54c29 42 41 52 59 49 35-7 61 19 60 60-1 46-27 84-69 99-24 8-35 20-39 39-12 53-81 146-129 174-56 33-59 52-8 61 96 17 129 64 167 239 15 66 35 128 44 139 9 10 38 34 65 52l50 33 17-28c19-31 47-42 94-36 36 5 68 40 59 67-5 17-2 18 36 12l41-7-3 33c-2 22-12 40-31 54-55 40-249 18-359-41-64-35-97-73-119-135l-18-53-1 80v80l88 34c121 47 195 84 242 122 35 28 40 38 40 73 0 119-124 147-365 85-217-56-210-55-278-36-253 71-393 86-451 48zm-41-351c7-11-35-31-47-23-5 2-8 11-8 19 0 16 45 20 55 4zm1175-4c0-21-11-25-38-15-28 11-20 29 14 29 14 0 24-6 24-14zM804 649l21-21-35 21c-44 26-70 26-104 0-17-13-24-15-20-6 15 40 102 44 138 6zM648 444c12-8 22-22 22-30 0-12-5-11-26 5-34 27-70 27-86 1-14-21-28-27-28-10 0 20 41 50 68 50 15 0 38-7 50-16zm300 0c12-8 22-22 22-30 0-12-5-11-26 5-34 27-70 27-86 1-14-21-28-27-28-10 0 20 41 50 68 50 15 0 38-7 50-16zm-728 75c0-5 11-9 25-9s25 2 25 4-11 6-25 8c-14 3-25 1-25-3zm1003-6c9-2 25-2 35 0 9 3 1 5-18 5s-27-2-17-5z" fill="#eea36a"/><path d="M216 1631c-65-43-75-114-23-162 34-33 225-129 295-150l42-12-1-81v-81l-19 53c-10 30-30 66-45 82-62 65-196 112-327 114-92 1-131-20-136-74l-3-33 39 6c37 6 39 5 35-16-8-42 54-74 115-60 13 3 32 18 41 34l17 28 50-33c27-18 56-42 65-52 9-11 28-73 43-139 40-177 75-226 169-240 60-9 62-32 6-69-41-27-112-125-123-170-4-17-15-26-36-31-96-21-109-177-13-162 18 3 33 3 33-1s20-29 44-57c40-45 44-47 39-22l-5 27h226c124 0 229-1 234-2 4-2 6-13 4-25-1-13-1-23 1-23s20 24 41 54c29 42 41 52 59 49 35-7 61 19 60 60-1 46-27 84-69 99-24 8-35 20-39 39-12 53-81 146-129 174-56 33-59 52-8 61 96 17 129 64 167 239 15 66 35 128 44 139 9 10 38 34 65 52l50 33 17-28c19-31 47-42 94-36 36 5 68 40 59 67-5 17-2 18 36 12l41-7-3 33c-2 22-12 40-31 54-55 40-249 18-359-41-64-35-97-73-119-135l-18-53-1 80v80l88 34c121 47 195 84 242 122 35 28 40 38 40 73 0 119-124 147-365 85-217-56-210-55-278-36-253 71-393 86-451 48zm-41-351c7-11-35-31-47-23-5 2-8 11-8 19 0 16 45 20 55 4zm1175-4c0-21-11-25-38-15-28 11-20 29 14 29 14 0 24-6 24-14zM802 650c18-16 27-30 20-30s-15 7-18 15c-7 18-66 37-90 29-10-4-27-16-36-28-15-18-18-18-18-4 0 24 39 48 77 48 22 0 43-10 65-30zm-69-71c-7-7-7-24 3-56 17-55 18-73 4-73-5 0-10 10-10 23-1 12-7 40-15 61-15 43-12 56 13 56 11 0 13-3 5-11zm-85-135c12-8 22-22 22-30 0-12-5-11-26 5-34 27-70 27-86 1-14-21-28-27-28-10 0 20 41 50 68 50 15 0 38-7 50-16zm300 0c12-8 22-22 22-30 0-12-5-11-26 5-34 27-70 27-86 1-14-21-28-27-28-10 0 20 41 50 68 50 15 0 38-7 50-16zm-728 75c0-5 11-9 25-9s25 2 25 4-11 6-25 8c-14 3-25 1-25-3zm1003-6c9-2 25-2 35 0 9 3 1 5-18 5s-27-2-17-5z" fill="#f9d9b5"/><path d="M216 1631c-65-43-75-114-23-162 34-33 225-129 295-150l42-12v-194l-48-7c-27-3-56-12-66-19-16-12-16-17-1-82 18-79 53-145 87-167 42-28 99-31 148-9 58 26 134 27 184 1 65-33 140-7 180 63 20 35 56 154 56 187 0 11-65 30-102 30h-28v195l88 34c121 47 195 84 242 122 35 28 40 38 40 73 0 81-50 116-164 116-74 0-297-44-295-58 0-4 21-41 47-82 31-48 55-76 71-80 20-5 18-7-23-28-57-27-93-28-126-2-36 28-131 28-172-1-41-30-81-21-197 44-104 58-135 93-112 121 13 15 16 15 37 1 26-17 134-45 176-45 20 0 32 9 48 36 12 19 20 37 17 40s-52 16-109 30c-132 30-250 32-292 5z" fill="#f4d6fb"/></svg>