<!DOCTYPE svg PUBLIC "-//W3C//DTD SVG 20010904//EN" "http://www.w3.org/TR/2001/REC-SVG-20010904/DTD/svg10.dtd">
<svg version="1.0" xmlns="http://www.w3.org/2000/svg" width="1047px" height="1245px" viewBox="0 0 10090 12000" preserveAspectRatio="xMidYMid meet">
<g id="layer101" fill="#242424" stroke="none">
 <path d="M4174 9245 c-10 -8 -28 -15 -40 -15 -12 0 -50 -22 -85 -49 -35 -27 -107 -79 -159 -115 -52 -35 -120 -87 -150 -114 -30 -27 -100 -84 -156 -128 -206 -162 -580 -511 -590 -550 -8 -30 3 -62 24 -73 9 -5 96 -16 192 -26 96 -9 214 -25 261 -36 216 -47 802 -123 898 -117 39 3 48 7 59 31 18 37 8 75 -23 89 l-25 11 22 11 c29 15 46 61 32 84 -9 13 -49 22 -190 39 -212 26 -442 60 -502 75 -32 8 -40 14 -32 22 8 8 121 11 378 11 434 0 534 -9 662 -62 47 -19 109 -43 139 -54 30 -11 79 -33 110 -50 132 -69 428 -259 523 -336 25 -21 86 -69 135 -108 150 -118 397 -383 469 -502 10 -18 36 -57 57 -87 156 -228 294 -612 326 -911 19 -180 22 -248 8 -241 -100 45 -207 81 -317 106 -118 28 -159 32 -325 37 -196 5 -281 -4 -505 -52 -201 -44 -489 -215 -666 -397 -99 -102 -184 -199 -184 -211 0 -4 -18 -35 -40 -67 -127 -187 -214 -416 -232 -609 -12 -136 -3 -309 19 -383 36 -122 112 -239 230 -355 129 -127 358 -227 581 -254 273 -33 669 82 936 272 94 68 356 317 356 339 0 8 17 34 38 59 133 159 244 379 351 692 l46 136 24 -15 c22 -15 216 -236 274 -313 35 -46 53 -99 82 -239 59 -284 60 -476 4 -790 -28 -159 -35 -187 -92 -340 -206 -562 -576 -1004 -1122 -1340 -175 -107 -265 -154 -395 -205 -489 -190 -805 -254 -1271 -255 -109 0 -128 -2 -142 -18 -10 -10 -17 -24 -17 -30 0 -16 -11 -15 -34 3 -42 31 -91 10 -84 -37 4 -32 165 -137 271 -178 45 -18 134 -45 197 -62 216 -56 500 -49 760 19 52 13 127 33 165 43 235 61 681 288 947 482 48 34 111 80 140 100 29 21 80 63 113 94 33 31 91 84 129 118 93 82 316 334 373 421 26 39 68 102 93 140 60 90 160 274 187 345 166 434 218 748 183 1101 -31 306 -167 719 -302 918 -17 25 -61 91 -98 146 -40 59 -114 147 -180 213 l-111 114 -3 366 -2 367 -33 150 c-40 190 -95 352 -179 530 -81 173 -101 207 -226 375 -290 390 -685 687 -1178 884 -65 26 -150 54 -189 62 -40 8 -76 17 -80 20 -16 10 -288 63 -384 75 -241 31 -604 11 -827 -45 -48 -12 -86 -21 -85 -20 1 1 63 43 137 93 251 170 329 226 411 296 175 149 175 148 144 192 -28 41 -67 39 -150 -7 l-75 -42 12 29 c7 15 23 36 35 46 29 23 31 72 4 87 -26 13 -34 13 -57 -5z m1146 -1033 c106 -41 219 -95 320 -153 52 -30 107 -60 122 -68 30 -15 147 -112 257 -211 77 -70 238 -277 300 -388 21 -37 59 -119 84 -183 47 -121 111 -332 105 -348 -1 -4 -36 62 -77 148 -72 150 -209 374 -268 436 -15 16 -46 54 -69 85 -51 69 -313 319 -419 401 -43 33 -167 119 -274 191 -107 72 -184 127 -170 123 13 -4 53 -19 89 -33z m1390 -1642 c35 -204 48 -435 34 -592 l-7 -66 -36 24 -37 24 9 78 c12 90 15 560 5 647 -10 89 8 25 32 -115z m-579 -723 c83 -20 197 -88 307 -184 l33 -28 -15 -50 c-7 -27 -31 -111 -51 -185 -126 -460 -316 -748 -653 -993 -119 -86 -217 -132 -342 -162 -102 -24 -128 -27 -235 -22 -128 5 -235 31 -331 80 -94 48 -249 188 -307 277 -37 58 -72 183 -72 260 0 67 4 83 37 150 65 129 248 317 535 548 44 35 270 166 348 202 198 91 387 132 570 125 66 -3 145 -11 176 -18z m794 -267 c27 -27 47 -50 44 -50 -3 0 -27 23 -54 50 -27 28 -47 50 -44 50 3 0 27 -22 54 -50z m-281 -72 c20 -22 21 -26 8 -88 -46 -215 -211 -561 -362 -761 -67 -89 -221 -260 -203 -224 6 11 40 59 76 107 84 113 144 220 255 453 83 176 160 384 178 480 11 64 16 67 48 33z m-1904 -1305 c0 -7 -61 31 -73 46 -7 8 7 2 31 -14 23 -15 42 -30 42 -32z m2621 -549 c-39 -137 -104 -301 -181 -454 -55 -108 -219 -348 -305 -445 l-27 -30 26 36 c14 20 26 39 26 43 0 3 39 64 86 134 127 188 289 529 370 776 52 158 55 118 5 -60z m-1226 -1438 c-28 -25 -67 -55 -88 -68 -21 -13 -79 -49 -130 -82 -163 -104 -331 -180 -495 -226 -155 -42 -271 -65 -382 -74 -56 -5 -45 0 85 33 83 21 162 44 178 50 15 6 56 17 91 25 76 18 315 118 441 186 50 26 124 66 166 88 41 21 98 55 125 75 66 49 69 46 9 -7z m-1700 -520 c14 -13 96 -35 215 -56 52 -9 51 -9 -23 -4 -75 5 -253 45 -286 64 -12 7 -2 9 32 10 28 0 54 -6 62 -14z"/>
 </g>

</svg>