<?xml version="1.0" encoding="UTF-8"?> <svg xmlns="http://www.w3.org/2000/svg" width="43" height="43" viewBox="0 0 43 43" fill="none"> <circle cx="21.5" cy="21.5" r="21.5" fill="white"></circle> <path d="M31.4269 13.3324C31.8136 12.9565 32.0046 12.4991 31.9999 11.9602C32.0046 11.4214 31.8136 10.959 31.4269 10.573C31.051 10.1964 30.5936 10.0054 30.0548 10C29.5159 10.0054 29.0535 10.1964 28.6675 10.573L21.0075 18.2481L13.3324 10.573C12.9565 10.1964 12.4991 10.0054 11.9602 10C11.4214 10.0054 10.959 10.1964 10.573 10.573C10.1964 10.959 10.0054 11.4214 10 11.9602C10.0054 12.4991 10.1964 12.9565 10.573 13.3324L18.2481 21.0075L10.573 28.6675C10.1964 29.0535 10.0054 29.5159 10 30.0548C10.0054 30.5936 10.1964 31.051 10.573 31.4269C10.959 31.8136 11.4214 32.0046 11.9602 31.9999C12.4991 32.0046 12.9565 31.8136 13.3324 31.4269L21.0075 23.7669L28.6675 31.4269C29.0535 31.8136 29.5159 32.0046 30.0548 31.9999C30.5936 32.0046 31.051 31.8136 31.4269 31.4269C31.8136 31.051 32.0046 30.5936 31.9999 30.0548C32.0046 29.5159 31.8136 29.0535 31.4269 28.6675L23.7669 21.0075L31.4269 13.3324Z" fill="black"></path> </svg> 