<svg version="1" xmlns="http://www.w3.org/2000/svg" width="512" height="512" viewBox="0 0 5120 5120"><path d="M636 5109c-180-42-341-216-375-403-14-79-15-3660-1-3761 21-148 130-305 260-374 93-50 155-61 337-61h163V0h520v510h2040V0h520v510h163c183 0 244 11 340 62 124 67 231 214 256 352 15 84 15 3699 0 3782-34 189-195 361-379 403-58 13-3787 13-3844 0zm3714-1909V1800H770v2800h3580V3200z"/><path d="M1785 3690l-410-410 135-135c74-74 139-135 145-135 5 0 130 120 277 267l268 268 625-625 625-625 135 135c74 74 135 139 135 145 0 10-1510 1525-1520 1525-3 0-190-184-415-410z"/></svg>