<svg width="15" height="13" viewBox="0 0 15 13" fill="none" xmlns="http://www.w3.org/2000/svg">
<path d="M0.361557 4.7371C1.21017 5.93067 3.22475 6.93797 4.59771 7.28983C5.29453 7.46921 6.92966 7.48991 6.19834 6.37913C5.76369 5.7168 4.7288 5.35804 4.01817 5.08896C2.85909 4.64741 1.58273 4.48183 0.361557 4.7371Z" fill="#65537A"/>
<path d="M0.0648858 4.90957C0.699619 5.77888 1.63102 6.39981 2.57622 6.87586C3.37654 7.27602 4.26654 7.66928 5.17035 7.72447C5.79128 7.75897 6.79857 7.61409 6.71578 6.77927C6.61919 5.75818 5.34973 5.24074 4.53561 4.92337C3.15576 4.38523 1.74141 4.11616 0.264965 4.40593C-0.16279 4.49562 0.0165909 5.15795 0.451245 5.06826C1.56893 4.84748 2.71421 4.98546 3.77669 5.36492C4.50112 5.6271 5.52911 5.91687 5.94306 6.62059C5.99826 6.71028 6.05345 6.82067 6.03275 6.89656C6.04655 6.86207 6.04655 6.88276 6.02586 6.90346C6.00516 6.92416 5.94996 6.95176 5.91547 6.96555C5.67399 7.06214 5.37732 7.04835 5.12205 7.02765C4.40453 6.97245 3.6801 6.64819 3.04537 6.33772C2.16916 5.91687 1.24466 5.36492 0.658223 4.56461C0.40295 4.21275 -0.197287 4.55081 0.0648858 4.90957Z" fill="#65537A"/>
<path d="M6.34322 6.73097C5.40492 6.07554 4.18375 5.64779 3.16956 5.21313L6.34322 6.73097Z" fill="#65537A"/>
<path d="M6.5157 6.43431C5.5498 5.76508 4.41832 5.37872 3.34204 4.91647C3.17645 4.84748 2.97638 4.86818 2.87289 5.04066C2.79009 5.18554 2.82459 5.44081 2.99707 5.51671C4.07336 5.97206 5.19794 6.36532 6.17074 7.03455C6.32252 7.13804 6.5571 7.06214 6.63989 6.91036C6.74338 6.73788 6.67438 6.5447 6.5157 6.43431Z" fill="#65537A"/>
<path d="M6.23974 7.00689C5.10826 6.22727 3.39724 5.82711 2.05188 5.39246L6.23974 7.00689Z" fill="#65537A"/>
<path d="M6.41221 6.71029C5.14274 5.84788 3.57661 5.52361 2.14156 5.06136C1.7207 4.92337 1.53442 5.5926 1.95528 5.72369C3.34203 6.17214 4.83917 6.47571 6.06034 7.30362C6.4329 7.552 6.77787 6.95866 6.41221 6.71029Z" fill="#65537A"/>
<path d="M6.17764 7.10347C5.30833 6.7585 4.28724 6.66191 3.34204 6.33765L6.17764 7.10347Z" fill="#65537A"/>
<path d="M6.26733 6.77233C5.35663 6.41357 4.36313 6.32388 3.43863 6.00651C3.25925 5.94442 3.05917 6.07551 3.01087 6.24799C2.96258 6.43427 3.07987 6.61365 3.25235 6.67574C4.18375 6.98621 5.17034 7.0828 6.08795 7.44156C6.26043 7.51055 6.46741 7.36567 6.5157 7.20009C6.564 7.00001 6.44671 6.84132 6.26733 6.77233Z" fill="#65537A"/>
<path d="M7.57129 6.15141C8.15083 4.68877 6.99176 1.59789 6.16384 0.335327C4.74949 1.41161 5.57051 7.40018 7.57129 6.15141Z" fill="#65537A"/>
<path d="M7.90246 6.24113C8.26812 5.26834 8.01285 4.08166 7.73688 3.11576C7.44711 2.09467 7.04005 1.05978 6.46051 0.162876C6.32942 -0.0372025 6.09485 -0.0441018 5.91547 0.0938836C5.54291 0.390552 5.35663 0.901098 5.25314 1.34955C5.11515 1.94979 5.08756 2.58452 5.12895 3.19166C5.17035 3.81949 5.27384 4.45422 5.47392 5.04756C5.6395 5.52361 5.86717 6.02036 6.25353 6.35152C6.69509 6.72408 7.25393 6.74478 7.74378 6.44811C8.12323 6.22044 7.77827 5.6202 7.39881 5.85477C7.24013 5.95136 7.14354 5.98586 6.98486 5.97896C7.06075 5.98586 6.82617 5.93067 6.88137 5.95136C6.79168 5.90997 6.75718 5.88237 6.71578 5.84788C6.42601 5.5926 6.25353 5.19934 6.12245 4.81988C5.79818 3.84709 5.69469 2.71561 5.88097 1.70141C5.96376 1.26676 6.08795 0.832106 6.41222 0.576833C6.23283 0.556135 6.05345 0.528538 5.86717 0.50784C6.40532 1.33575 6.77788 2.27405 7.05385 3.21925C7.30912 4.09546 7.57819 5.16485 7.24013 6.05485C7.08144 6.47571 7.75067 6.65509 7.90246 6.24113Z" fill="#65537A"/>
<path d="M7.32293 6.26873C7.35052 5.47531 7.07455 4.28174 6.98486 3.55042L7.32293 6.26873Z" fill="#65537A"/>
<path d="M7.66789 6.26872C7.68168 5.79267 7.60579 5.30972 7.5368 4.83367C7.5023 4.5991 7.46091 4.37142 7.41951 4.13685C7.39881 4.03336 7.38502 3.92297 7.36432 3.81258C7.35742 3.75739 7.35052 3.70219 7.34362 3.647C7.33672 3.5849 7.35052 3.69529 7.34362 3.6332C7.34362 3.6056 7.33672 3.578 7.33672 3.55041C7.31602 3.36413 7.19184 3.20544 6.99176 3.20544C6.81928 3.20544 6.6261 3.36413 6.64679 3.55041C6.75718 4.46801 7.00556 5.35112 6.98486 6.26872C6.96416 6.71717 7.65409 6.71717 7.66789 6.26872Z" fill="#65537A"/>
<path d="M7.15044 6.1238C6.79858 4.95782 6.50191 3.46068 6.26044 2.22571L7.15044 6.1238Z" fill="#65537A"/>
<path d="M7.48851 6.02731C7.10905 4.75095 6.85377 3.44009 6.5985 2.12923C6.51571 1.69457 5.84648 1.88085 5.93617 2.31551C6.19144 3.61947 6.43982 4.93723 6.82618 6.21359C6.95036 6.63445 7.61269 6.45507 7.48851 6.02731Z" fill="#65537A"/>
<path d="M6.97795 6.04101C6.4881 5.73744 6.26043 4.92332 6.10175 4.41968L6.97795 6.04101Z" fill="#65537A"/>
<path d="M7.15044 5.74437C7.13664 5.73057 7.11594 5.72367 7.10214 5.70987C7.05385 5.67538 7.14354 5.75127 7.11594 5.72367C7.08835 5.69607 7.06075 5.67538 7.03315 5.64778C7.01245 5.62018 6.98486 5.59948 6.96416 5.57189C6.95726 5.56499 6.91586 5.51669 6.95036 5.55809C6.99175 5.59948 6.95036 5.55119 6.93656 5.54429C6.84687 5.4132 6.77098 5.26832 6.70199 5.12343C6.69509 5.10964 6.68819 5.08894 6.68129 5.06824C6.69509 5.10274 6.70199 5.12343 6.68819 5.07514C6.67439 5.04064 6.66059 4.99925 6.64679 4.96475C6.61919 4.88886 6.5916 4.81297 6.5709 4.74397C6.52261 4.60599 6.48121 4.468 6.43981 4.33002C6.38462 4.15754 6.19144 4.02645 6.01206 4.08854C5.83958 4.14374 5.71539 4.33002 5.77058 4.5094C5.97756 5.16483 6.18454 5.94445 6.79858 6.33771C6.95036 6.4343 7.18493 6.3722 7.26773 6.21352C7.36432 6.04794 7.30912 5.84786 7.15044 5.74437Z" fill="#65537A"/>
<path d="M7.59889 8.40065C7.81967 6.64823 9.86185 9.21476 10.1447 9.72531C10.6001 10.6153 10.9312 11.7054 10.9381 12.6575C9.75146 12.1814 7.01245 9.85639 7.57819 8.31786" fill="#65537A"/>
<path d="M7.93005 8.49028C7.94385 8.39369 7.95765 8.304 7.99215 8.21431C8.01284 8.15222 7.98525 8.23501 8.00594 8.17981C8.01284 8.16601 8.02664 8.14532 8.03354 8.13152C8.01974 8.15222 7.99905 8.17291 8.02664 8.13842C8.06114 8.09702 8.01284 8.14532 8.01284 8.14532L8.04044 8.12462C7.98525 8.11772 8.05424 8.14532 8.05424 8.12462C8.05424 8.17291 7.98525 8.08322 8.05424 8.13152C8.08874 8.15222 8.00594 8.11082 8.08874 8.13842C8.11633 8.15222 8.15083 8.15911 8.17843 8.16601C8.21292 8.17981 8.17153 8.15911 8.16463 8.15911C8.18533 8.16601 8.20602 8.17981 8.21982 8.18671C8.28881 8.22811 8.35781 8.2626 8.4199 8.3109C8.54409 8.39369 8.66827 8.51098 8.79936 8.63516C9.3444 9.15261 9.75836 9.66316 10.055 10.36C10.3586 11.0775 10.5656 11.864 10.5863 12.6436C10.7312 12.5333 10.876 12.4229 11.0209 12.3125C11.0899 12.3401 10.9657 12.2849 10.9519 12.2849C10.9105 12.2642 10.8622 12.2435 10.8208 12.2228C10.7381 12.1814 10.6553 12.1331 10.5794 12.0848C10.3793 11.9675 10.193 11.8364 10.0067 11.6984C9.59968 11.3949 9.22022 11.0499 8.87525 10.6773C8.53719 10.3186 8.23362 9.91843 8.02664 9.47688C7.85416 9.11811 7.78517 8.75935 7.90935 8.40749C8.05424 7.98663 7.39191 7.80725 7.24702 8.22121C6.97795 9.00083 7.37121 9.83564 7.81966 10.4566C8.35781 11.2086 9.04084 11.8433 9.79286 12.3815C10.124 12.616 10.4759 12.8299 10.8553 12.9817C11.0623 13.0645 11.2969 12.8506 11.29 12.6505C11.2762 11.8364 11.0761 11.0292 10.7726 10.2772C10.5932 9.83564 10.4 9.44238 10.1102 9.06292C9.84115 8.71106 9.54448 8.36609 9.21332 8.06942C8.91665 7.80035 8.56479 7.51058 8.15773 7.45539C7.62648 7.3864 7.32982 7.82795 7.26772 8.304C7.24013 8.49028 7.30912 8.67656 7.5092 8.73175C7.66788 8.77315 7.90246 8.67656 7.93005 8.49028Z" fill="#65537A"/>
<path d="M7.81277 8.06262C8.67518 8.73875 9.17883 9.87023 9.84116 10.7533L7.81277 8.06262Z" fill="#65537A"/>
<path d="M7.56439 8.30407C8.4337 8.994 8.88905 10.0427 9.53758 10.9258C9.64797 11.0776 9.83425 11.1535 10.0067 11.05C10.1516 10.9603 10.2413 10.7257 10.1309 10.5808C9.44789 9.65633 8.96494 8.54554 8.04734 7.82112C7.90246 7.70383 7.70238 7.67623 7.55749 7.82112C7.4471 7.93841 7.41951 8.18678 7.56439 8.30407Z" fill="#65537A"/>
<path d="M7.59888 7.86255C7.84035 8.55248 8.47508 9.69775 8.85454 10.2704L7.59888 7.86255Z" fill="#65537A"/>
<path d="M7.26772 7.95223C7.42641 8.40759 7.64718 8.84224 7.86796 9.27C8.08184 9.67015 8.30951 10.0703 8.55789 10.4498C8.66138 10.6085 8.86145 10.6705 9.02704 10.574C9.17882 10.4843 9.25471 10.2566 9.15122 10.1048C8.90975 9.73225 8.68897 9.34589 8.47509 8.95953C8.36471 8.74565 8.25432 8.53177 8.15083 8.311C8.12323 8.2627 8.10253 8.20751 8.08184 8.15921C8.06804 8.13162 8.06114 8.11092 8.04734 8.08332C8.04734 8.07642 8.01284 8.00053 8.02664 8.03503C8.04044 8.07642 8.01284 8.00053 8.00594 7.99363C7.99905 7.97293 7.98525 7.94534 7.97835 7.92464C7.95765 7.87634 7.94385 7.82805 7.92315 7.77975C7.86106 7.60727 7.68858 7.48998 7.4954 7.53828C7.33672 7.57277 7.20563 7.77285 7.26772 7.95223Z" fill="#65537A"/>
<path d="M7.97835 7.31742C9.51688 8.4213 13.2425 8.82836 14.6223 7.60029C12.8078 5.64779 9.87565 5.84787 8.06804 7.00695" fill="#65537A"/>
<path d="M7.80587 7.61411C8.82696 8.33164 10.1792 8.60071 11.4073 8.6766C12.5733 8.74559 13.9462 8.6352 14.8707 7.83489C15.0156 7.7107 14.9949 7.47613 14.8707 7.34504C13.0631 5.44774 10.055 5.33735 7.89556 6.69651C7.523 6.93108 7.86796 7.53132 8.24052 7.28985C10.1447 6.08937 12.7802 6.14457 14.374 7.82799C14.374 7.66241 14.374 7.50372 14.374 7.33814C13.5806 8.02117 12.2973 8.04187 11.3107 7.96597C10.2275 7.89008 9.04774 7.63481 8.15083 7.00008C7.79207 6.7655 7.44711 7.36574 7.80587 7.61411Z" fill="#65537A"/>
<path d="M7.96455 7.10361C9.33751 6.74485 11.7316 6.66206 13.0976 6.64136L7.96455 7.10361Z" fill="#65537A"/>
<path d="M8.05425 7.4347C9.67558 7.02074 11.428 7.01384 13.0907 6.98624C13.5323 6.97934 13.5323 6.28942 13.0907 6.29632C11.3659 6.32391 9.55139 6.34461 7.86797 6.77237C7.44021 6.88275 7.6196 7.54508 8.05425 7.4347Z" fill="#65537A"/>
<path d="M8.08183 7.17244C8.82695 7.16554 10.2827 7.24143 11.0278 7.23453L8.08183 7.17244Z" fill="#65537A"/>
<path d="M8.08183 7.51752C9.06153 7.51062 10.0481 7.58651 11.0278 7.57961C11.4694 7.57961 11.4694 6.88969 11.0278 6.88969C10.0481 6.89659 9.06153 6.82069 8.08183 6.82759C7.64028 6.83449 7.63338 7.52442 8.08183 7.51752Z" fill="#65537A"/>
<path d="M8.21983 6.75862C10.124 5.45466 11.2969 3.68844 11.6419 1.40479C9.19953 1.63246 7.39192 4.61985 7.75758 6.9449" fill="#65537A"/>
<path d="M8.3923 7.06217C10.3034 5.73061 11.6074 3.81952 11.9799 1.50136C12.0144 1.30128 11.8902 1.03911 11.6488 1.06671C8.90285 1.34958 7.04695 4.44045 7.43331 7.04148C7.4609 7.22776 7.69548 7.32435 7.86106 7.28295C8.06114 7.22776 8.13013 7.04148 8.10254 6.8552C7.78517 4.73022 9.3858 1.98431 11.6488 1.74974C11.5384 1.60485 11.428 1.45997 11.3176 1.31508C10.9795 3.45386 9.82735 5.23387 8.04734 6.46194C7.68168 6.71721 8.02664 7.31055 8.3923 7.06217Z" fill="#65537A"/>
<path d="M7.63339 6.938C8.28882 5.46155 9.55139 4.41976 10.4 3.0675L7.63339 6.938Z" fill="#65537A"/>
<path d="M7.93696 7.11042C8.59929 5.64777 9.85496 4.57839 10.7036 3.23993C10.945 2.86047 10.3448 2.5155 10.1102 2.89496C9.26162 4.24032 8.00595 5.30281 7.34362 6.76545C7.26773 6.93794 7.29533 7.13801 7.46781 7.2346C7.61269 7.3174 7.85417 7.2829 7.93696 7.11042Z" fill="#65537A"/>
<path d="M7.71617 6.91719C8.49579 6.32386 9.17192 5.66843 9.68936 4.84741L7.71617 6.91719Z" fill="#65537A"/>
<path d="M7.88866 7.21393C8.70277 6.59299 9.44099 5.88927 9.98603 5.01996C10.0826 4.86818 10.0205 4.6336 9.86185 4.55081C9.68937 4.46112 9.49619 4.50941 9.3927 4.675C9.3306 4.77159 9.26851 4.86818 9.19952 4.96477C9.16502 5.01306 9.13053 5.06136 9.09603 5.10275C9.09603 5.10275 9.03394 5.18554 9.06843 5.14415C9.05463 5.16484 9.04083 5.17864 9.02704 5.19934C8.88215 5.38562 8.72347 5.5581 8.55789 5.73058C8.3992 5.88927 8.22672 6.04795 8.05424 6.19974C7.96455 6.27563 7.87486 6.35152 7.78517 6.42741C7.73687 6.46191 7.69548 6.5033 7.64718 6.5378C7.62648 6.5585 7.59889 6.5723 7.57819 6.59299C7.523 6.63439 7.59199 6.5792 7.53679 6.62749C7.39191 6.73788 7.30222 6.93106 7.41261 7.09664C7.5092 7.23463 7.73687 7.33121 7.88866 7.21393Z" fill="#65537A"/>
<path d="M7.65408 7.01391C8.04734 5.63406 8.55099 4.39909 9.47549 3.3573L7.65408 7.01391Z" fill="#65537A"/>
<path d="M7.98525 7.11046C8.34402 5.84789 8.84076 4.60602 9.71697 3.60563C10.0067 3.27446 9.52379 2.78462 9.22712 3.11578C8.26812 4.20586 7.70928 5.53742 7.31603 6.92418C7.19874 7.35193 7.86107 7.53131 7.98525 7.11046Z" fill="#65537A"/>
<path d="M7.06765 7.7314C4.6736 7.44853 3.06607 10.022 2.7901 12.0779C4.74949 11.7537 6.76408 9.84258 7.01245 7.82799" fill="#65537A"/>
<path d="M7.06764 7.38644C4.52181 7.11047 2.7694 9.74599 2.45203 11.9814C2.41753 12.2573 2.60381 12.4574 2.87978 12.4091C5.06685 12.0297 7.06074 10.0427 7.35051 7.828C7.37811 7.64171 7.17113 7.48303 7.00555 7.48303C6.79857 7.48303 6.68818 7.64171 6.66058 7.828C6.5295 8.80079 5.96376 9.6908 5.27383 10.36C4.5701 11.05 3.6801 11.5674 2.7004 11.7399C2.84529 11.8848 2.98327 12.0228 3.12816 12.1676C3.39723 10.222 4.81848 7.82799 7.07454 8.07637C7.26082 8.09707 7.4195 7.90389 7.4195 7.7314C7.4126 7.52443 7.25392 7.40714 7.06764 7.38644Z" fill="#65537A"/>
<path d="M6.90207 7.89697C6.09485 8.5386 5.36353 9.16644 4.79779 9.95985L6.90207 7.89697Z" fill="#65537A"/>
<path d="M6.65369 7.64864C5.86027 8.28338 5.09445 8.94571 4.49422 9.78052C4.39073 9.9254 4.46662 10.1738 4.6184 10.2497C4.79778 10.3463 4.97717 10.2842 5.08755 10.1255C5.16345 10.0151 5.20484 9.9668 5.27383 9.88401C5.34973 9.79432 5.42562 9.69773 5.50841 9.61494C5.66709 9.43555 5.83957 9.26307 6.01206 9.10439C6.37082 8.76633 6.75718 8.44896 7.14354 8.14539C7.28842 8.035 7.26772 7.77283 7.14354 7.65554C6.99175 7.51066 6.80547 7.53136 6.65369 7.64864Z" fill="#65537A"/>
<path d="M6.96417 8.00049C6.50192 8.52483 6.21905 9.08367 5.7361 9.52523L6.96417 8.00049Z" fill="#65537A"/>
<path d="M6.72269 7.75899C6.48811 8.02806 6.28113 8.31093 6.07415 8.6007C6.02586 8.66279 5.97756 8.73178 5.93617 8.79388C5.92237 8.80767 5.91547 8.82147 5.90167 8.83527C5.87408 8.86977 5.94307 8.78698 5.90167 8.83527C5.87408 8.86287 5.85338 8.89737 5.82578 8.92496C5.72229 9.04915 5.6119 9.17334 5.49462 9.28372C5.36353 9.40791 5.36353 9.64939 5.49462 9.77357C5.6395 9.90466 5.83958 9.90466 5.98446 9.77357C6.23284 9.539 6.43982 9.26993 6.64679 8.99396C6.74338 8.86287 6.83307 8.73178 6.92966 8.6007C6.95726 8.5662 6.97796 8.5317 7.00556 8.50411C7.02625 8.47651 7.01935 8.48341 7.00556 8.51101C7.01935 8.49031 7.03315 8.47651 7.04695 8.45581C7.10215 8.38682 7.15734 8.31783 7.21943 8.24883C7.33672 8.11085 7.36432 7.89007 7.21943 7.75899C7.08145 7.6417 6.84687 7.6141 6.72269 7.75899Z" fill="#65537A"/>
<path d="M6.94347 7.68311C6.18455 8.02117 5.29454 8.51102 4.7426 9.18025L6.94347 7.68311Z" fill="#65537A"/>
<path d="M6.76408 7.37951C5.93616 7.75207 5.08755 8.22122 4.49422 8.93184C4.37693 9.06983 4.34933 9.28371 4.49422 9.42169C4.6253 9.53898 4.85988 9.56658 4.98406 9.42169C5.12205 9.25611 5.27383 9.10433 5.43942 8.96634C5.47391 8.93874 5.5429 8.88355 5.5567 8.86975C5.5429 8.88355 5.5912 8.84905 5.5912 8.84215C5.6119 8.82146 5.63949 8.80766 5.66709 8.78696C5.75678 8.71797 5.85337 8.65587 5.94996 8.59378C6.31562 8.3592 6.70888 8.15913 7.10904 7.97974C7.27462 7.90385 7.32982 7.65548 7.23323 7.51059C7.12974 7.33811 6.94346 7.30362 6.76408 7.37951Z" fill="#65537A"/>
<path d="M8.04734 7.4623C8.28881 7.61408 8.51649 7.68997 8.70277 7.60028C8.48889 7.40021 8.22672 7.16563 8.06804 7.00005C8.31641 6.82067 8.61308 6.66888 8.88215 6.56539C8.60618 6.4619 8.18533 6.59989 7.88866 6.75167C7.91625 6.4964 7.95075 6.11694 7.97835 5.86167C7.82656 6.10314 7.4678 6.09624 7.4402 6.35152C7.10214 6.13764 7.02625 5.87547 6.62609 5.75818C6.59849 6.01345 6.62609 6.29632 6.80547 6.5447C6.5019 6.4895 6.12244 6.455 5.83267 6.4757C6.06035 6.75857 6.5088 6.90346 6.70888 7.22772C6.31562 7.31741 5.81198 7.4761 5.5981 7.81416C6.04655 7.95905 6.45361 7.74517 6.96415 7.79346C7.00555 8.15912 7.4471 7.89005 7.58509 8.31781C7.92315 7.99354 7.4885 8.25571 7.60579 7.85556C7.84726 8.00734 8.17153 8.13843 8.3923 8.21432C8.33711 7.97974 8.18533 7.67618 7.97145 7.4761" fill="#65537A"/>
<path d="M7.87487 7.76585C8.14394 7.93144 8.482 8.06252 8.79247 7.93834C9.02014 7.84865 9.15123 7.55198 8.94425 7.3588C8.73037 7.15872 8.5096 6.96554 8.30952 6.75856C8.28882 6.93794 8.26122 7.11732 8.24053 7.3036C8.4682 7.14492 8.70968 7.00693 8.97185 6.90345C9.28232 6.77926 9.30991 6.3515 8.97185 6.24112C8.55099 6.10313 8.08184 6.27561 7.70928 6.46189C7.88176 6.55848 8.05425 6.66197 8.22673 6.75856C8.25433 6.46189 8.28192 6.16522 8.31642 5.86855C8.33022 5.71677 8.19913 5.57189 8.06115 5.53739C7.90246 5.49599 7.75758 5.57189 7.67479 5.69607C7.66789 5.70297 7.63339 5.73057 7.5782 5.75817C7.523 5.79266 7.46091 5.82026 7.40572 5.85476C7.26083 5.95135 7.12974 6.08933 7.10215 6.26871C7.26773 6.19972 7.44021 6.13073 7.60579 6.06173C7.46781 5.97204 7.36432 5.84786 7.24703 5.73747C7.08835 5.59258 6.91587 5.49599 6.70889 5.4339C6.48121 5.35111 6.28803 5.54429 6.27424 5.75817C6.24664 6.09623 6.30873 6.44119 6.50191 6.72406C6.633 6.55848 6.76408 6.386 6.88827 6.22042C6.54331 6.15143 6.18454 6.11003 5.82578 6.13073C5.52221 6.15143 5.38423 6.48949 5.58431 6.72406C5.71539 6.87585 5.88098 6.98624 6.04656 7.09663C6.17765 7.18632 6.32253 7.27601 6.40532 7.40709C6.47431 7.24151 6.54331 7.06903 6.6123 6.90345C6.11555 7.01383 5.59811 7.20011 5.29454 7.64167C5.17035 7.83485 5.30144 8.09012 5.50152 8.14531C5.99137 8.2902 6.46741 8.09702 6.95726 8.13841C6.84687 8.05562 6.73649 7.97283 6.6261 7.88314C6.66059 8.10392 6.82618 8.2626 7.03316 8.33159C7.09525 8.35229 7.16424 8.35919 7.22633 8.38679C7.23323 8.38679 7.24703 8.39369 7.25393 8.39369C7.21944 8.37989 7.21944 8.37989 7.25393 8.40059C7.25393 8.39369 7.21254 8.3178 7.24703 8.40749C7.33672 8.64896 7.62649 8.75245 7.82657 8.55927C7.98525 8.40059 8.14394 8.19361 8.00595 7.95903C7.97146 7.89694 7.90936 7.83485 7.83347 7.80725C7.77138 7.77965 7.87487 7.84865 7.88866 7.87624C7.90936 8.00043 7.92316 8.02803 7.92316 7.96593C7.91626 8.00733 7.92316 8.00043 7.93006 7.95213C7.76448 8.02113 7.592 8.09012 7.42641 8.15911C7.69548 8.3247 7.99905 8.45578 8.29572 8.55237C8.55099 8.63516 8.77867 8.37299 8.72348 8.12462C8.64068 7.79345 8.4613 7.47608 8.21983 7.23461C7.90246 6.92414 7.41261 7.40709 7.72998 7.72446C7.89556 7.88314 8.00595 8.08322 8.06115 8.3109C8.20603 8.16601 8.34402 8.02803 8.4889 7.88314C8.24053 7.80035 8.00595 7.69686 7.78517 7.55888C7.59889 7.44159 7.32982 7.55198 7.28153 7.76585C7.24013 7.92454 7.23323 8.09702 7.32292 8.2419C7.36432 8.304 7.41951 8.35919 7.48161 8.39369C7.5851 8.45578 7.47471 8.40059 7.43331 8.3178C7.41951 8.2626 7.39882 8.20051 7.38502 8.14531C7.37812 8.07632 7.41261 8.00733 7.44021 7.98663C7.41261 8.00733 7.38502 8.04872 7.35742 8.06942C7.5506 8.11772 7.74378 8.17291 7.93696 8.22121C7.84727 7.98663 7.70928 7.81415 7.46781 7.73136C7.40571 7.71066 7.33672 7.69686 7.27463 7.67616C7.21254 7.65547 7.30913 7.71066 7.26083 7.66926C7.34362 7.74516 7.34362 7.80035 7.32292 7.69686C7.29533 7.53818 7.12974 7.45539 6.99176 7.44159C6.5709 7.40709 6.12935 7.60027 5.71539 7.47608C5.78439 7.64167 5.85338 7.81415 5.92237 7.97973C6.10175 7.71066 6.52951 7.62097 6.82618 7.55198C7.03315 7.50368 7.15044 7.22771 7.03316 7.04833C6.90207 6.84825 6.72959 6.70337 6.53641 6.56538C6.38462 6.45499 6.22594 6.3653 6.09485 6.22042C6.01206 6.4136 5.92927 6.61368 5.85338 6.80686C6.15005 6.78616 6.43982 6.81376 6.72959 6.86205C6.99866 6.91034 7.30223 6.62747 7.11595 6.3584C6.98486 6.16522 6.96416 5.97204 6.98486 5.74437C6.81928 5.86856 6.67439 5.97894 6.52951 6.08933C6.66749 6.13073 6.75028 6.20662 6.85377 6.30321C6.98486 6.4274 7.10905 6.54468 7.26083 6.64817C7.43331 6.75856 7.72998 6.65507 7.76448 6.44119C7.77828 6.3584 7.76448 6.43429 7.75068 6.44119C7.71618 6.44809 7.79897 6.4205 7.75068 6.44119C7.80587 6.4136 7.85417 6.386 7.90936 6.3515C8.05425 6.26871 8.17153 6.17212 8.26812 6.03414C8.05425 5.97894 7.84037 5.92375 7.62649 5.86166C7.59889 6.15832 7.5713 6.45499 7.5368 6.75166C7.5092 7.03453 7.84727 7.15182 8.05425 7.04833C8.26812 6.94484 8.55099 6.82065 8.78557 6.89655C8.78557 6.67577 8.78557 6.45499 8.78557 6.23422C8.4682 6.3584 8.16464 6.51019 7.88866 6.70337C7.70928 6.83445 7.65409 7.07593 7.81967 7.24841C8.02665 7.45539 8.24053 7.64857 8.4544 7.84865C8.5027 7.65547 8.55789 7.46229 8.60619 7.26911C8.4682 7.3243 8.35091 7.24151 8.21983 7.16562C7.84037 6.93794 7.49541 7.53128 7.87487 7.76585Z" fill="#65537A"/>
<path d="M7.21943 7.26915C7.66098 7.26915 7.66098 6.57922 7.21943 6.57922C6.77097 6.57922 6.77097 7.26915 7.21943 7.26915Z" fill="#65537A"/>
<path d="M7.35741 7.85558C7.79897 7.85558 7.79897 7.16565 7.35741 7.16565C6.90896 7.16565 6.90896 7.85558 7.35741 7.85558Z" fill="#65537A"/>
<path d="M7.62648 7.3933C8.06804 7.3933 8.06804 6.70337 7.62648 6.70337C7.18493 6.70337 7.18493 7.3933 7.62648 7.3933Z" fill="#65537A"/>
<path d="M6.95035 7.77965C7.39191 7.77965 7.39191 7.08972 6.95035 7.08972C6.5019 7.08972 6.5019 7.77965 6.95035 7.77965Z" fill="#65537A"/>
<path d="M6.90206 7.18639C7.34361 7.18639 7.34361 6.49646 6.90206 6.49646C6.45361 6.49646 6.45361 7.18639 6.90206 7.18639Z" fill="#65537A"/>
<path d="M7.10215 6.90343C7.5437 6.90343 7.5437 6.2135 7.10215 6.2135C6.65369 6.2135 6.65369 6.90343 7.10215 6.90343Z" fill="#65537A"/>
<path d="M7.54369 6.91039C7.98524 6.91039 7.98524 6.22046 7.54369 6.22046C7.10214 6.22046 7.10214 6.91039 7.54369 6.91039Z" fill="#65537A"/>
<path d="M7.5161 7.6693C7.95765 7.6693 7.95765 6.97937 7.5161 6.97937C7.07455 6.97937 7.07455 7.6693 7.5161 7.6693Z" fill="#65537A"/>
<path d="M7.84035 8.06249C8.28191 8.06249 8.28191 7.37256 7.84035 7.37256C7.3919 7.37256 7.3919 8.06249 7.84035 8.06249Z" fill="#65537A"/>
<path d="M7.81966 7.57274C8.26121 7.57274 8.26121 6.88281 7.81966 6.88281C7.37811 6.88281 7.37811 7.57274 7.81966 7.57274Z" fill="#65537A"/>
<path d="M7.30912 7.57274C7.75067 7.57274 7.75067 6.88281 7.30912 6.88281C6.86756 6.88281 6.86756 7.57274 7.30912 7.57274Z" fill="#65537A"/>
<path d="M7.36432 8.23497C7.80587 8.23497 7.80587 7.54504 7.36432 7.54504C6.92277 7.54504 6.91587 8.23497 7.36432 8.23497Z" fill="#65537A"/>
</svg>
