<svg version="1" xmlns="http://www.w3.org/2000/svg" width="512" height="512" viewBox="0 0 5120 5120"><path d="M2270 5109c-416-48-834-206-1176-445C497 4249 111 3608 15 2877c-31-243-17-587 35-843C183 1381 584 792 1150 417c157-104 210-127 295-127s137 22 193 80c48 49 72 113 72 192 0 114-41 172-181 258-541 332-882 846-974 1465-21 143-21 403 0 554 116 818 713 1483 1514 1686 172 43 292 58 491 58 416 1 781-111 1130-344 598-400 947-1113 890-1819-44-548-289-1038-693-1386-284-244-608-399-979-467l-77-14-3 421-3 421-25 48c-48 94-133 147-240 147-115 0-212-65-250-167-19-51-20-79-20-627 0-641-1-628 70-709 24-27 60-53 92-67 50-22 61-22 228-17 357 12 680 94 1015 257 246 121 448 264 654 465 398 387 647 864 742 1419 31 176 38 543 14 727-72 569-307 1061-700 1468-417 431-940 692-1535 766-135 16-471 19-600 4z"/><path d="M2499 3067c-111-40-180-99-294-247-158-206-392-607-534-917-101-220-107-247-61-293 48-48 157-11 512 172 453 235 812 484 904 630 94 147 84 364-21 507-80 109-187 162-340 168-87 3-109 1-166-20z"/></svg>