<svg width="274" height="258" viewBox="0 0 274 258" fill="none" xmlns="http://www.w3.org/2000/svg"><path d="M57.343 5.625c2.533-1.295 6.305-1.464 9.57-1.633 2.028-.112 5.012-.281 5.575-.732 2.42-3.49 23.534-2.477 31.867 1.577 1.126.563 4.617 2.252 12.33 24.154 5.011 14.188 10.642 33.669 14.076 48.87.113-1.801.282-3.66.507-5.574 2.083-21.732 6.925-49.884 13.906-57.485 7.038-7.713 13.288-9.177 17.004-10.021.957-.226 2.196-.507 2.421-.732l.788-1.351 1.182 1.013c3.21 2.702 7.601 5.123 8.727 4.335 1.858-1.351 5.574-1.182 9.516-1.013 2.252.112 5.63.281 6.305-.225.451-.338 1.239-1.126 2.027-2.027 2.196-2.365 4.73-5.124 7.094-4.73.732.113 1.69.507 2.365 1.97 1.014 2.197 2.928 3.942 4.786 5.687 1.464 1.408 3.04 2.816 4.11 4.505 1.464 2.195.281 4.616-.619 6.53-1.239 2.59-1.577 3.66 0 4.843 1.463 1.07 3.49 1.576 5.461 2.027 3.716.9 8.333 2.027 7.601 7.882-.845 6.644-.057 11.317 2.139 12.893 2.309 1.633 1.014 5.518-.225 9.29-.394 1.126-.901 2.703-.957 3.435 1.239.9 2.534 2.59 2.928 4.391.281 1.464 0 2.872-.845 4.054-1.745 2.477-3.265 7.995-2.365 9.853l.451.957-.788.676c-.113.056-6.926 5.63-16.947 12.555 14.863-4.504 18.467-3.603 19.874-2.533 2.759 2.026 5.293 4.504 7.77 6.868 3.829 3.66 7.488 7.151 9.966 7.151 4.11-.056 5.123 4.842 5.911 8.445.282 1.464.676 3.21 1.07 3.716a79.11 79.11 0 0 0 1.971 1.915c4.785 4.56 9.065 8.952 8.67 12.274-.225 2.026 4.842 10.584 9.91 17.622l1.013 1.464-1.689.563c-2.703.901-10.303 4.335-9.628 7.995.676 3.66-2.083 7.094-4.729 10.416-1.802 2.252-3.716 4.561-3.66 6.25 0 2.59-1.689 5.686-4.56 8.332-3.491 3.153-7.77 4.843-11.542 4.448-3.379-.337-4.786 1.915-6.644 5.405-1.239 2.421-2.815 5.462-6.024 4.448-3.435-1.126-9.347 1.577-11.374 2.703l-.506.281-.563-.168c-1.802-.564-6.926-1.859-9.234-1.183-1.013.282-2.646 1.577-4.054 2.759-2.308 1.858-4.279 3.491-6.08 3.209a2.479 2.479 0 0 1-1.746-1.126c-.169-.281-.45-.676-.788-1.182-2.871-4.448-11.542-18.017-17.848-22.352-1.07-.732-2.534-2.14-4.448-4.336 2.703 7.038 4.73 13.569 6.081 19.481 3.209 13.963 2.646 24.604-1.689 31.698-9.853 16.159-17.567 18.411-23.816 20.213-3.604 1.07-6.194 1.802-8.502 5.123l-.732 1.127-1.07-.789c-1.801-1.295-7.094-4.279-10.134-2.702-1.689.901-3.941 2.702-5.912 4.335-3.491 2.872-5.405 4.335-6.925 4.054-.563-.113-1.013-.394-1.295-.901-1.126-1.802-14.864-13.287-19.087-11.767-4.11 1.52-7.882-3.491-10.866-7.488-1.182-1.633-3.04-4.054-3.716-4.167-4.223 0-15.258-18.129-16.553-27.307-.169-1.238-.732-5.01 12.5-22.915-8.277 6.588-18.074 13.4-24.098 14.245-10.36 1.407-16.046-1.464-19.425-3.209-.9-.451-2.026-1.014-2.308-.958l-1.464.507-.281-1.52c-.732-4.166-2.534-8.84-3.942-8.952-2.252-.169-5.01-2.646-7.938-5.349-1.633-1.52-4.167-3.772-4.955-3.828-.563-.057-1.689.112-2.871.225-3.21.394-6.87.901-8.446-.901-.45-.507-.957-1.52-.563-3.04.62-2.365.282-4.899 0-7.432-.225-2.027-.506-4.11-.281-6.081.281-2.646 2.702-3.716 4.673-4.617 2.646-1.182 3.603-1.802 3.097-3.66-.45-1.745-1.69-3.434-2.872-5.067-2.252-3.096-5.123-6.869-.788-10.922 4.898-4.561 7.32-8.671 6.644-11.261-.732-2.759 2.758-4.898 6.137-6.981.957-.62 2.42-1.521 2.927-2.027-.394-1.464-.281-3.604.563-5.236.676-1.295 1.802-2.196 3.21-2.59 2.927-.789 7.657-4.054 8.107-6.081l.225-1.013h1.07c.056 0 2.928 0 7.657.281-6.925-4.054-11.598-8.614-13.906-13.738-7.883-17.228-5.405-24.885-3.435-31.022 1.126-3.604 1.97-6.137.507-9.91l-.507-1.239 1.239-.45c2.083-.788 7.488-3.547 7.882-6.925.225-1.914-.056-4.786-.281-7.32-.395-4.504-.563-6.925.506-7.994.394-.395.901-.62 1.464-.563 2.14.112 19.368-4.899 20.438-9.29.394-1.746 1.351-2.76 2.703-3.435zm16.271 0c-1.351.732-3.66.845-6.531.957-3.941.17-9.29.45-9.853 2.815-1.52 6.137-18.749 10.81-22.577 11.261-.17 1.07.056 3.829.225 5.743.225 2.815.507 5.686.225 7.882-.507 4.448-5.968 7.432-8.445 8.558 1.238 4.054.225 7.15-.845 10.472-1.858 5.743-4.11 12.837 3.322 29.109 2.646 5.743 8.727 10.923 18.186 15.314l6.474 3.041-7.15-.507c-6.25-.45-10.923-.563-12.78-.62-1.52 3.041-6.476 6.137-9.628 6.982-.676.169-1.183.619-1.577 1.239-.62 1.182-.563 2.871-.281 3.603.619 1.745-1.295 2.871-4.167 4.673-1.295.788-5.18 3.209-4.954 4.054.957 3.66-1.577 8.445-7.376 13.85-2.365 2.196-1.577 3.773 1.126 7.376 1.295 1.745 2.759 3.716 3.322 6.024 1.013 4.167-2.365 5.743-4.617 6.757-1.858.844-2.984 1.407-3.097 2.477-.169 1.689 0 3.491.282 5.461.338 2.759.676 5.574-.056 8.389-.057.282-.057.507 0 .62.675.732 4.391.281 6.137.056 1.35-.169 2.533-.338 3.378-.281 1.633.112 3.547 1.801 6.587 4.56 2.14 1.914 5.011 4.561 6.362 4.673 3.66.225 5.462 6.756 6.137 9.966.845.169 1.746.619 2.872 1.182 3.096 1.576 8.333 4.223 17.904 2.928 5.461-.732 16.271-7.826 29.897-19.537 1.126-.957 2.815-.957 3.885.056a271.398 271.398 0 0 0-6.532 8.558c-12.217 16.497-12.724 20.832-12.611 21.789 1.35 9.628 11.767 24.492 14.019 25.055 1.802 0 3.434 2.196 5.743 5.236 2.365 3.153 5.574 7.432 7.826 6.587 5.968-2.195 19.424 9.459 21.958 12.443.957-.45 3.153-2.196 4.617-3.434 2.196-1.802 4.448-3.604 6.418-4.617 3.998-2.027 9.515.788 11.824 2.196 2.646-3.266 5.855-4.167 9.177-5.124 5.743-1.689 12.95-3.772 22.296-19.03 3.941-6.475 4.391-16.44 1.351-29.728-1.858-8.107-5.067-17.397-9.459-27.644l-4.448-10.304 6.7 8.952a135.65 135.65 0 0 0 5.574 7.038c2.196 2.534 3.379 3.547 3.998 3.941 6.024 4.167 13.512 15.146 18.58 23.084.338.507.563.901.732 1.183.619.056 2.815-1.689 3.941-2.646 1.802-1.464 3.491-2.816 5.011-3.266 3.04-.845 8.389.563 10.191 1.07 1.857-.957 8.445-4.11 12.949-2.646.901.281 1.464-.507 2.815-3.153 1.633-3.097 3.829-7.376 9.234-6.813 2.984.282 6.531-1.126 9.459-3.772 2.308-2.083 3.772-4.561 3.716-6.363-.057-2.589 2.027-5.179 4.279-7.938 2.308-2.871 4.673-5.799 4.222-8.277-.957-5.348 6.306-8.952 9.741-10.359-2.928-4.223-9.797-14.47-9.403-18.073.282-2.309-5.461-7.714-7.882-10.079-.957-.9-1.689-1.576-2.14-2.083-.901-1.013-1.295-2.815-1.689-4.898-.732-3.603-1.464-6.362-3.265-6.306-3.547.056-7.376-3.603-11.824-7.882-2.421-2.309-4.898-4.673-7.544-6.644-.395-.282-3.097-1.464-18.299 3.21-2.59.787-5.405 1.688-8.389 2.758l-10.585 3.66 9.459-6.025c12.105-7.657 21.508-15.089 24.098-17.172-.732-3.322 1.069-8.896 2.927-11.542a2.409 2.409 0 0 0 .394-1.97c-.281-1.352-1.407-2.534-2.083-2.928-1.576-.957-.844-3.04.169-6.25.451-1.464 1.914-5.799 1.183-6.306-3.097-2.196-4.223-7.488-3.21-15.37.394-3.21-1.182-3.885-5.574-4.955-2.139-.507-4.504-1.07-6.418-2.477-3.491-2.534-1.858-5.912-.788-8.108.9-1.858 1.407-3.04.788-3.941-.901-1.408-2.252-2.646-3.716-3.998-2.027-1.914-4.11-3.828-5.349-6.474-.112-.282-.281-.45-.394-.45-1.013-.17-3.547 2.59-4.729 3.94-.958 1.014-1.746 1.915-2.421 2.365-1.352.957-3.885.901-7.939.732-2.872-.113-6.756-.281-7.882.507-2.928 2.196-8.502-1.69-11.092-3.716-.732.394-1.745.675-2.984.9-3.378.789-9.121 2.084-15.596 9.178-6.081 6.644-11.035 32.88-13.231 55.965-.507 5.574-.901 10.922-1.07 15.54l-.281 8.782.732 4.167c2.139 11.88 11.373 14.301 12.499 14.582.957-.056 1.914-.112 2.759-.225l6.7-.619-7.094 3.772c-6.926 3.716-7.658 5.011-7.714 5.123-.056.057-.281 1.07 1.295 4.786.113.225.225.507.338.732l1.351 3.097-3.209-1.239c-5.293-2.365-10.247-2.027-14.695.901-1.07.732-2.646 1.971-4.617 3.829l-3.716 3.434 1.577-4.786c2.702-8.332-1.521-14.188-2.14-15.033a48.726 48.726 0 0 0-6.024-3.997l-1.858-1.013-5.968-3.097 6.7.619c4.448.394 7.488.563 8.276.62.338-.113 1.183-.338 2.252-.732.507-.226 1.07-.451 1.689-.732 3.266-1.633 7.601-4.617 9.065-9.966l1.07-3.828-1.577-8.784c-.225-1.182-.45-2.42-.732-3.772-3.153-15.596-9.571-38.567-15.314-54.613-6.813-19.368-10.191-22.24-11.035-22.634-8.727-4.279-26.913-3.941-28.602-2.365-.225.282-.563.507-.957.732zm70.378 112.099c-2.928-1.014-9.346-4.054-12.274-12.443-2.308 3.997-5.912 6.475-8.896 7.882-.675.338-1.295.619-1.858.788-1.632.62-2.758.901-2.815.901h-.338s-1.013-.056-2.758-.169a56.974 56.974 0 0 1 3.321 2.365l.169.169c.226.281 4.561 5.518 3.604 13.569.732-.563 1.351-1.07 1.914-1.408 5.236-3.434 10.36-3.265 14.414-2.139-.958-2.759-.789-3.998-.564-4.673.282-.732 1.295-2.084 6.081-4.842z" fill="#BCCED5"/><path d="M120.964 134.445c.226.169-1.858 2.702-5.292 6.587a6406.55 6406.55 0 0 1-13.4 15.314c-5.18 6.025-9.853 11.43-13.287 15.427-3.379 3.941-5.574 6.363-5.8 6.194-.225-.169 1.577-2.872 4.73-7.038 3.153-4.167 7.657-9.797 12.893-15.821 5.236-6.025 10.191-11.261 13.907-14.977 3.603-3.716 6.024-5.855 6.249-5.686zM139.6 128.365c.338-.394 6.813 5.518 12.668 14.526 5.912 8.952 8.671 17.285 8.221 17.454-.563.225-4.11-7.545-9.853-16.328-5.687-8.84-11.43-15.258-11.036-15.652zM158.349 241.196c-.337 0 .113-6.474-.168-16.89a91.415 91.415 0 0 1-.113-4.111c-.056-1.407-.169-2.871-.282-4.447-.168-3.041-.506-6.306-.844-9.741a269.003 269.003 0 0 0-3.491-22.127 332.921 332.921 0 0 0-5.349-21.732c-1.914-6.644-3.772-12.556-5.461-17.51-.788-2.478-1.633-4.674-2.308-6.644-.676-1.971-1.295-3.66-1.746-5.011-.957-2.759-1.464-4.335-1.295-4.335.113-.057.845 1.407 2.027 4.053.62 1.352 1.295 2.984 2.083 4.899.789 1.914 1.689 4.11 2.59 6.587 1.858 4.898 3.885 10.81 5.912 17.454 1.971 6.644 3.941 14.019 5.574 21.845 1.576 7.826 2.703 15.427 3.378 22.296.282 3.435.563 6.756.676 9.853.056 1.52.169 3.04.169 4.448v4.11c.056 2.646-.113 5.011-.169 7.094a60.217 60.217 0 0 1-.394 5.349c-.394 2.984-.62 4.56-.789 4.56zM133.013 248.515c-.113-.057.112-1.746.619-4.73.282-1.52.62-3.378.901-5.517.338-2.14.788-4.617 1.07-7.32.169-1.351.338-2.759.563-4.279.169-1.464.281-3.04.45-4.673.338-3.209.563-6.644.788-10.247.395-7.263.507-15.202.282-23.591-.282-8.389-.901-16.327-1.633-23.534a434.891 434.891 0 0 0-2.533-19.143c-.395-2.703-.845-5.18-1.239-7.319-.338-2.14-.676-3.998-.957-5.518-.507-3.04-.788-4.729-.62-4.729.113 0 .62 1.632 1.408 4.616a102.71 102.71 0 0 1 1.295 5.462c.45 2.139 1.013 4.56 1.52 7.263 1.07 5.405 2.083 11.936 2.984 19.143.845 7.263 1.52 15.258 1.802 23.703.225 8.445.056 16.44-.451 23.76-.281 3.659-.563 7.094-1.013 10.303-.225 1.633-.338 3.153-.563 4.673-.225 1.464-.45 2.928-.676 4.279-.394 2.703-.957 5.18-1.351 7.319a68.955 68.955 0 0 1-1.239 5.462c-.788 2.984-1.238 4.617-1.407 4.617zM106.664 249.021c-.113 0-.226-1.745-.282-4.842-.056-3.097 0-7.601.225-13.231.451-11.148 1.633-26.519 4.392-43.353 2.702-16.835 6.306-31.811 9.402-42.565 1.577-5.349 3.266-9.628 4.786-12.386 1.52-2.759 2.646-4.11 2.759-4.054.113.112-.788 1.52-2.027 4.391-1.295 2.816-2.759 7.038-4.166 12.387a467.727 467.727 0 0 0-8.783 42.508 470.193 470.193 0 0 0-4.899 43.128c-.338 5.518-.619 10.022-.844 13.175-.282 3.097-.451 4.842-.563 4.842zM83.242 234.721c-.113 0-.563-1.464-.62-4.279-.056-2.816.507-6.813 1.633-11.599 2.14-9.627 5.8-22.802 11.43-36.765 5.63-13.963 12.049-26.068 17.172-34.457 2.59-4.223 4.786-7.545 6.362-9.797 1.577-2.252 2.534-3.435 2.647-3.378.112.056-.62 1.407-2.027 3.772a352.981 352.981 0 0 0-5.8 10.078c-4.842 8.558-10.979 20.607-16.552 34.514-5.63 13.85-9.46 26.856-11.937 36.371-1.295 4.729-2.026 8.614-2.195 11.317-.17 2.702.056 4.223-.113 4.223zM37.355 96.16c.057-.282 3.998 0 10.36.9 6.362.845 15.09 2.365 24.604 4.561 9.515 2.196 18.073 4.673 24.154 6.7 6.081 2.027 9.74 3.491 9.684 3.772-.113.282-3.941-.732-10.078-2.421-6.137-1.689-14.695-3.885-24.154-6.081a640.944 640.944 0 0 0-24.379-5.123c-6.362-1.239-10.247-2.027-10.19-2.309zM146.526 119.299c-.113-.169 3.153-2.59 8.895-5.63 5.743-3.097 14.02-6.644 23.197-10.36a396.843 396.843 0 0 0 12.781-5.461c3.885-1.802 7.319-3.49 10.134-5.067 5.63-3.097 8.952-5.405 9.121-5.124.113.17-2.871 2.872-8.445 6.362-2.759 1.746-6.193 3.604-10.078 5.462a238.563 238.563 0 0 1-12.781 5.63c-9.177 3.716-17.454 7.038-23.309 9.797-5.856 2.702-9.347 4.673-9.515 4.391z" fill="#BCCED5"/><path d="M143.655 132.7c.169-.226 4.222 2.646 10.585 7.432 6.362 4.842 15.089 11.711 24.097 19.987 4.504 4.166 8.614 8.276 12.218 12.218 3.547 3.941 6.643 7.601 9.064 10.81 1.239 1.576 2.252 3.096 3.21 4.391.9 1.295 1.689 2.478 2.252 3.435 1.182 1.914 1.745 2.984 1.633 3.097-.282.168-3.097-3.885-8.164-10.022-2.534-3.097-5.687-6.644-9.29-10.473-3.66-3.772-7.77-7.882-12.218-11.992-8.952-8.22-17.51-15.258-23.647-20.382-6.193-5.067-9.966-8.276-9.74-8.501zM139.77 123.24c.056-.113 1.689.394 4.56 1.464 2.872 1.07 6.982 2.702 12.049 4.898 5.067 2.196 10.979 4.955 17.51 8.164 6.475 3.266 13.513 7.038 20.832 11.204 7.263 4.223 14.019 8.502 20.044 12.499 6.024 4.054 11.373 7.827 15.764 11.148 4.392 3.322 7.883 6.081 10.247 8.052 2.365 1.97 3.604 3.096 3.547 3.209-.112.113-1.52-.845-3.997-2.59a481.085 481.085 0 0 0-10.585-7.488 535.338 535.338 0 0 0-15.934-10.754 525.813 525.813 0 0 0-20.043-12.33c-7.207-4.167-14.188-7.939-20.607-11.317-6.418-3.322-12.274-6.193-17.229-8.502a2989.077 2989.077 0 0 0-11.767-5.461c-2.928-1.295-4.448-2.083-4.391-2.196zM140.445 120.089c0-.113 1.802-.169 5.011-.169.788 0 1.689 0 2.703.057.957.056 2.026.112 3.209.225 2.308.169 4.898.281 7.77.675 1.463.169 2.927.394 4.504.563a174 174 0 0 1 4.842.789c3.378.506 6.925 1.295 10.641 2.026 7.432 1.69 15.596 3.829 24.041 6.306 16.891 5.124 31.924 10.304 42.903 13.738a753.68 753.68 0 0 0 13.006 3.998c3.096.957 4.785 1.52 4.729 1.633-.056.112-1.802-.169-4.955-.901-3.153-.676-7.657-1.858-13.231-3.435-11.148-3.097-26.293-8.051-43.071-13.175a408.814 408.814 0 0 0-23.872-6.418c-3.716-.788-7.207-1.633-10.529-2.196-1.633-.281-3.266-.619-4.786-.901-1.52-.225-3.04-.45-4.448-.675-2.815-.507-5.405-.732-7.713-1.014a185.786 185.786 0 0 1-3.153-.338c-.957-.056-1.858-.169-2.646-.225-3.153-.225-4.955-.394-4.955-.563zM158.011 113.05c0-.113 1.408-.394 4.054-.676a70.509 70.509 0 0 1 4.786-.45c1.858-.113 3.997-.338 6.362-.394 4.73-.225 10.304-.338 16.553-.169 6.25.169 13.062.563 20.213 1.295 7.15.788 13.963 1.801 20.043 2.928 6.137 1.182 11.599 2.421 16.159 3.659 2.309.563 4.336 1.183 6.137 1.746a64.003 64.003 0 0 1 4.561 1.463c2.477.845 3.828 1.408 3.828 1.521-.112.281-5.686-1.239-14.864-3.322-4.56-1.07-10.021-2.14-16.158-3.209-6.081-1.014-12.837-2.027-19.931-2.759-7.095-.732-13.907-1.183-20.101-1.464-6.193-.225-11.767-.282-16.44-.225-9.346 0-15.202.337-15.202.056zM186.388 100.439c0-.282 3.097-.788 8.164-1.126 5.067-.338 12.161-.45 19.875.056 7.77.563 14.751 1.633 19.706 2.646 5.011 1.07 7.995 1.971 7.938 2.252-.112.563-12.442-1.914-27.813-2.927-15.258-1.126-27.814-.338-27.87-.901zM30.148 187.031c-.056-.338 5.743-1.745 14.808-5.011 1.126-.394 2.308-.845 3.547-1.295 1.239-.45 2.477-1.013 3.772-1.52 2.646-1.014 5.349-2.308 8.277-3.603 5.742-2.703 11.936-5.912 18.185-9.741 6.25-3.828 11.937-7.882 16.947-11.767 2.478-1.971 4.842-3.829 6.982-5.743 1.07-.957 2.139-1.802 3.097-2.702.957-.901 1.858-1.746 2.758-2.59 6.982-6.588 10.923-11.092 11.205-10.867.112.113-.789 1.295-2.478 3.378-.844 1.07-1.914 2.309-3.209 3.716-1.295 1.408-2.759 3.097-4.504 4.73l-2.703 2.702c-.957.901-1.97 1.802-3.04 2.815-2.083 1.971-4.448 3.885-6.925 5.912-5.011 3.998-10.754 8.164-17.06 12.049a178.347 178.347 0 0 1-18.467 9.684c-2.928 1.239-5.743 2.477-8.446 3.434-1.35.507-2.59 1.014-3.884 1.408-1.239.394-2.478.788-3.604 1.182-2.308.789-4.448 1.295-6.306 1.802-1.858.507-3.434.901-4.785 1.182-2.647.732-4.11.958-4.167.845zM4.305 172.901c0-.113 1.69-.563 4.786-1.239 1.52-.337 3.434-.732 5.63-1.238 2.196-.507 4.673-1.014 7.432-1.746a278.31 278.31 0 0 0 8.952-2.364c3.21-.845 6.588-1.915 10.191-3.041 7.094-2.308 14.864-5.011 22.803-8.276 7.938-3.266 15.426-6.756 22.07-10.078 3.322-1.746 6.475-3.322 9.346-4.955 2.928-1.576 5.574-3.153 7.995-4.56 2.478-1.408 4.617-2.759 6.531-3.942a1047.29 1047.29 0 0 0 4.899-3.04c2.702-1.689 4.222-2.59 4.279-2.477.056.112-1.295 1.238-3.829 3.096-1.295.957-2.815 2.083-4.729 3.322-1.858 1.239-3.998 2.703-6.419 4.223-2.421 1.52-5.067 3.153-7.938 4.786-2.872 1.689-6.025 3.378-9.347 5.179-6.7 3.435-14.132 7.038-22.183 10.304a281.362 281.362 0 0 1-23.028 8.164c-3.603 1.069-7.037 2.083-10.247 2.871-3.209.845-6.25 1.52-9.064 2.14-2.76.675-5.293 1.069-7.545 1.52-2.196.45-4.11.732-5.687.901-3.152.394-4.898.563-4.898.45zM9.71 149.029c0-.113 1.52-.507 4.28-1.014 1.407-.281 3.096-.563 5.01-.957 1.971-.394 4.167-.788 6.644-1.295 4.899-.957 10.754-2.252 17.173-3.772 6.418-1.577 13.456-3.435 20.775-5.687a456.828 456.828 0 0 0 20.438-6.812 399.452 399.452 0 0 0 16.384-6.363c2.309-.9 4.392-1.858 6.25-2.589 1.858-.732 3.434-1.464 4.729-1.971 2.59-1.126 4.054-1.633 4.11-1.52.057.112-1.295.901-3.772 2.196a84.367 84.367 0 0 1-4.561 2.308c-1.801.845-3.828 1.858-6.137 2.871-4.56 2.084-10.134 4.392-16.327 6.813a332.731 332.731 0 0 1-20.494 6.982c-7.376 2.195-14.47 4.053-20.945 5.517-6.475 1.464-12.387 2.59-17.341 3.378-2.477.451-4.73.732-6.7 1.014-1.97.281-3.716.506-5.067.619-2.872.338-4.448.451-4.448.282zM11.344 127.294c.056-.169 1.295.113 3.547.563 2.252.394 5.517.901 9.627 1.013 4.054.113 8.952-.225 14.301-1.126 5.349-.844 11.148-2.252 17.172-3.997 6.025-1.689 11.768-3.491 17.004-5.067 5.236-1.577 9.965-2.928 13.907-4.11 7.938-2.253 12.893-3.547 13.005-3.266.057.282-4.729 2.027-12.555 4.617-3.941 1.295-8.614 2.815-13.794 4.504-5.236 1.633-10.923 3.491-17.004 5.236-6.08 1.689-11.992 3.097-17.453 3.885-5.462.788-10.473 1.014-14.639.676a49.263 49.263 0 0 1-9.74-1.633c-2.252-.676-3.435-1.182-3.378-1.295zM33.64 18.8c.056-.113 1.688.732 4.504 2.534 2.815 1.745 6.756 4.448 11.485 7.994 4.73 3.548 10.248 7.94 16.215 12.95 6.025 5.011 12.556 10.585 19.2 16.666 13.343 12.161 24.379 24.322 31.642 33.669 1.858 2.308 3.378 4.504 4.785 6.362 1.352 1.914 2.534 3.603 3.435 4.954 1.802 2.816 2.702 4.392 2.59 4.448-.113.057-1.239-1.351-3.209-3.997-1.014-1.295-2.253-2.928-3.66-4.73-1.464-1.801-3.097-3.94-5.011-6.193-7.488-9.065-18.58-20.944-31.867-33.106a683.756 683.756 0 0 0-19.03-16.778c-5.912-5.067-11.317-9.571-15.934-13.231-4.617-3.66-8.445-6.531-11.092-8.445-2.646-1.858-4.11-2.984-4.053-3.097zM55.26 7.089c.056-.113 1.576.732 4.222 2.364a60.07 60.07 0 0 1 2.196 1.352c.788.506 1.633 1.126 2.534 1.745 1.801 1.295 3.885 2.646 6.08 4.392 1.126.844 2.252 1.745 3.491 2.646 1.183.957 2.365 1.97 3.66 3.04 2.533 2.083 5.123 4.448 7.826 6.982 5.349 5.123 10.922 10.979 16.328 17.566 5.348 6.644 10.021 13.287 13.906 19.537 1.915 3.153 3.716 6.137 5.236 9.065.789 1.464 1.577 2.815 2.253 4.166.675 1.351 1.295 2.703 1.914 3.941 1.239 2.478 2.196 4.842 3.096 6.87.451 1.013.845 1.97 1.183 2.87.338.901.619 1.69.901 2.422 1.069 2.927 1.576 4.56 1.464 4.616-.113.057-.901-1.52-2.196-4.335-.338-.732-.676-1.52-1.07-2.365a61.575 61.575 0 0 0-1.351-2.758c-.957-1.971-1.971-4.28-3.322-6.7a85.07 85.07 0 0 0-2.027-3.829c-.676-1.351-1.52-2.703-2.308-4.11-1.577-2.871-3.435-5.8-5.349-8.896a217.233 217.233 0 0 0-13.907-19.255c-5.349-6.532-10.866-12.387-16.046-17.51-2.646-2.478-5.124-4.955-7.657-7.038-1.239-1.07-2.365-2.14-3.547-3.097-1.183-.957-2.309-1.858-3.379-2.759-2.083-1.801-4.166-3.265-5.911-4.617-.901-.675-1.69-1.294-2.421-1.858-.788-.563-1.464-1.07-2.084-1.52-2.42-1.745-3.772-2.815-3.715-2.927zM72.432 3.035c.056-.113 1.238.338 3.322 1.351.506.225 1.07.507 1.745.845.62.338 1.295.732 1.97 1.126 1.408.844 3.04 1.689 4.786 2.871.845.563 1.746 1.126 2.703 1.746.957.619 1.858 1.35 2.815 2.083 1.97 1.407 3.941 3.097 6.024 4.842a111 111 0 0 1 12.33 12.724c3.942 4.899 7.263 9.91 10.022 14.639 1.295 2.42 2.59 4.673 3.547 6.869.507 1.126 1.014 2.14 1.464 3.209.394 1.013.845 2.027 1.183 2.984.788 1.914 1.351 3.66 1.858 5.236.225.788.506 1.52.675 2.196.169.676.338 1.295.451 1.858.563 2.252.788 3.49.675 3.49-.338.113-1.689-4.785-4.954-12.217-.395-.9-.845-1.914-1.295-2.928-.451-1.013-1.014-2.027-1.521-3.096-1.013-2.14-2.308-4.335-3.659-6.7a127.383 127.383 0 0 0-9.966-14.301A123.881 123.881 0 0 0 94.615 19.25c-2.027-1.745-3.885-3.49-5.8-4.898-.956-.732-1.801-1.464-2.702-2.14-.9-.62-1.745-1.238-2.59-1.858-6.756-4.673-11.26-6.981-11.091-7.319zM24.574 43.065c.113-.112 1.351.9 3.66 2.759a3622.47 3622.47 0 0 1 9.515 7.882c8.051 6.644 19.368 15.596 32.318 24.83 12.95 9.233 25.054 17.06 33.95 22.521 4.448 2.702 8.051 4.954 10.529 6.475 2.477 1.52 3.828 2.421 3.772 2.533-.056.113-1.52-.563-4.167-1.858-2.589-1.295-6.362-3.322-10.866-5.912-9.12-5.18-21.395-12.837-34.4-22.127-13.007-9.29-24.21-18.467-32.037-25.392-3.941-3.434-7.038-6.306-9.121-8.389-2.14-2.027-3.265-3.21-3.153-3.322zM22.716 58.72c.226-.226 3.435 2.702 8.671 7.263 5.236 4.617 12.612 10.81 21 17.34 8.446 6.476 16.329 12.05 22.072 15.934 5.799 3.942 9.402 6.306 9.233 6.532-.112.225-3.997-1.746-10.022-5.405a258.583 258.583 0 0 1-22.52-15.54c-8.502-6.531-15.71-13.006-20.776-17.848-4.955-4.842-7.826-8.107-7.658-8.276zM140.333 114.178c-.113-.113 1.407-1.126 3.941-3.21 2.533-2.083 5.968-5.292 9.628-9.796 3.716-4.504 7.6-10.247 11.711-16.835 4.11-6.587 8.389-13.907 12.499-21.845 8.276-15.821 14.075-30.967 17.566-42.17.901-2.816 1.577-5.35 2.252-7.602.62-2.252 1.126-4.166 1.52-5.743.789-3.209 1.295-4.954 1.408-4.898.113 0-.113 1.858-.676 5.067-.281 1.633-.732 3.604-1.238 5.856-.563 2.252-1.126 4.842-1.971 7.713-3.097 11.374-8.783 26.744-17.116 42.678a272.652 272.652 0 0 1-12.724 21.901c-4.167 6.588-8.277 12.33-12.162 16.779-3.884 4.447-7.544 7.6-10.247 9.515-2.702 1.914-4.391 2.646-4.391 2.59z" fill="#BCCED5"/><path d="M143.767 116.484c-.225-.281 4.898-4.166 12.499-11.035.957-.844 1.914-1.802 2.984-2.702 1.014-.958 2.027-1.971 3.153-3.04 2.196-2.084 4.392-4.449 6.756-6.87 4.617-4.954 9.516-10.64 14.245-16.834a224.763 224.763 0 0 0 12.443-18.242c1.745-2.928 3.434-5.687 4.842-8.333.732-1.351 1.464-2.59 2.083-3.828.619-1.24 1.239-2.422 1.858-3.604 4.617-9.177 7.038-15.089 7.319-14.976.113.056-.337 1.576-1.351 4.279-.507 1.351-1.126 3.04-1.914 4.898-.788 1.914-1.689 4.054-2.815 6.418-.563 1.183-1.126 2.421-1.746 3.66-.619 1.295-1.295 2.534-2.027 3.885-1.351 2.703-3.04 5.518-4.729 8.502-3.547 5.855-7.657 12.161-12.443 18.467-4.786 6.306-9.796 11.936-14.526 16.947-2.421 2.421-4.673 4.786-6.925 6.813-1.126 1.013-2.196 2.027-3.266 2.984-1.069.901-2.083 1.801-3.096 2.646-1.915 1.689-3.829 3.153-5.405 4.392-1.577 1.294-3.041 2.308-4.223 3.152-2.308 1.69-3.66 2.534-3.716 2.421zM149.679 117.159c-.113-.281 4.954-2.533 12.837-6.869 1.97-1.069 4.11-2.308 6.362-3.659 2.308-1.351 4.617-2.872 7.094-4.504 4.898-3.322 10.134-7.15 15.37-11.542 5.237-4.392 9.91-8.896 14.076-13.119 2.027-2.196 3.941-4.166 5.687-6.193 1.745-1.97 3.321-3.885 4.729-5.574 5.63-6.982 8.727-11.599 9.008-11.43.113.057-.563 1.295-1.858 3.435a57.928 57.928 0 0 1-2.477 3.885c-1.013 1.464-2.139 3.209-3.547 4.954a143.216 143.216 0 0 1-4.56 5.8c-1.689 2.083-3.604 4.166-5.574 6.362-4.11 4.335-8.84 8.952-14.132 13.4-5.293 4.448-10.641 8.276-15.652 11.542-2.534 1.576-4.955 3.096-7.263 4.391-2.309 1.352-4.505 2.478-6.532 3.491-1.97 1.07-3.884 1.858-5.517 2.59a52.456 52.456 0 0 1-4.223 1.802c-2.477.901-3.772 1.351-3.828 1.238zM138.812 114.12c-.112 0-.225-1.632-.056-4.504.225-2.871.788-7.094 2.027-12.105 1.238-5.067 3.096-10.923 5.18-17.454 2.083-6.53 4.448-13.681 7.206-21.057 5.462-14.807 11.599-27.813 16.779-36.822 2.589-4.504 4.842-8.05 6.474-10.416 1.689-2.364 2.647-3.66 2.759-3.547.113.057-.675 1.464-2.139 3.941-1.464 2.478-3.491 6.138-5.912 10.698-4.842 9.121-10.698 22.07-16.103 36.822-2.758 7.375-5.179 14.47-7.319 20.944-2.139 6.475-4.166 12.274-5.518 17.229-1.407 4.955-2.195 9.008-2.646 11.88-.394 2.815-.563 4.391-.732 4.391zM132.112 85.745c-.112-.056 0-1.295.451-3.547.394-2.252 1.126-5.461 2.083-9.459 1.971-7.939 5.236-18.749 9.853-30.403 2.252-5.8 4.673-11.26 6.982-16.159 2.308-4.898 4.673-9.177 6.925-12.612 2.252-3.434 4.391-6.024 5.968-7.657 1.576-1.633 2.59-2.421 2.702-2.365.226.226-3.378 3.773-7.488 10.754-4.166 6.925-8.67 17.229-13.287 28.77-4.561 11.543-7.995 22.24-10.304 30.01-2.364 7.826-3.603 12.724-3.885 12.668z" fill="#BCCED5"/></svg>