<svg width="380" height="699" viewBox="0 0 380 699" fill="none" xmlns="http://www.w3.org/2000/svg"><path d="M289.167 436.767c-1.408-.845-2.872-1.746-4.392-2.646l-13.287 2.364a50.307 50.307 0 0 0 4.504 3.716l13.175-3.434zM283.987 433.614c-2.083-1.295-4.223-2.59-6.419-3.941l-12.555-.113c1.97 2.421 3.941 4.561 5.855 6.362l13.119-2.308zM293.896 439.637c-1.238-.788-2.59-1.576-3.997-2.421l-13.231 3.435c1.52 1.013 2.928 1.914 4.335 2.646l12.893-3.66zM266.702 423.028a908.233 908.233 0 0 1-10.641-6.587c1.407 2.365 2.759 4.617 4.166 6.644l6.475-.057zM261.973 416.159c-2.365-.056-4.167 0-5.18.056 2.139 1.295 4.391 2.703 6.756 4.167l-1.576-4.223zM276.555 429.052c-2.927-1.802-5.911-3.66-8.839-5.406l-7.094.057a86.366 86.366 0 0 0 3.885 5.292l12.048.057zM287.703 435.133c1.52.958 2.984 1.802 4.391 2.647l-4.729-16.61a47.945 47.945 0 0 0-4.73-1.801l5.068 15.764zM291.813 423.592c-1.183-.732-2.421-1.464-3.716-2.027l4.729 16.722c1.126.676 2.196 1.352 3.209 1.971l-4.222-16.666zM299.414 442.959l-11.148 2.871c7.601 1.633 12.724-.844 13.456-1.463-.675-.395-1.464-.845-2.308-1.408zM280.834 430.967a191.214 191.214 0 0 1 6.025 3.716l-5.011-15.483a46.633 46.633 0 0 0-3.773-1.013l2.759 12.78zM296.824 440.706c2.027 1.239 3.716 2.253 5.011 3.041.788-9.29-3.266-15.54-9.29-19.65l4.279 16.609zM298.682 442.509c-1.183-.732-2.59-1.577-4.054-2.478l-12.781 3.547a32.19 32.19 0 0 0 5.124 1.915l11.711-2.984zM264.45 420.887c2.928 1.802 6.025 3.716 9.065 5.574l-3.378-9.74a79.51 79.51 0 0 0-7.545-.563l1.858 4.729zM274.359 426.968c1.915 1.183 3.885 2.365 5.743 3.548l-2.702-12.5a74.123 74.123 0 0 0-6.588-1.182l3.547 10.134zM330.605 448.645c-.056 1.632-.169 3.321-.225 5.123l8.502 10.529a48.422 48.422 0 0 0 1.07-5.743l-9.347-9.909zM330.324 454.67c-.112 2.421-.225 4.955-.338 7.545l5.912 11.035a70.641 70.641 0 0 0 2.759-8.22l-8.333-10.36zM330.887 443.072c-.056 1.464-.113 3.04-.225 4.673l9.346 9.965c.169-1.801.225-3.49.169-5.067l-9.29-9.571zM329.367 474.938c-.226 4.447-.451 8.726-.62 12.499a150.015 150.015 0 0 0 3.829-6.813l-3.209-5.686zM325.651 482.372c1.07 2.083 1.97 3.66 2.533 4.504.113-2.477.282-5.18.395-7.938l-2.928 3.434zM329.929 463.396c-.168 3.435-.337 6.982-.506 10.36l3.434 6.193c1.014-2.083 1.971-4.053 2.759-5.968l-5.687-10.585zM329.93 450.672c.056-1.801.169-3.49.225-5.123l-12.274 12.105c.113 1.689.394 3.378.676 5.067l11.373-12.049zM317.825 452.644a26.346 26.346 0 0 0 0 4.223l12.386-12.218c.057-1.295.113-2.59.169-3.716l-12.555 11.711zM331.168 436.653l7.883 8.389c-2.252-7.432-6.869-10.754-7.77-11.092-.056.788-.056 1.689-.113 2.703zM329.536 458.724c.113-2.421.225-4.786.338-7.094l-11.148 11.823c.281 1.295.563 2.534.901 3.829l9.909-8.558zM330.38 440.029c.113-2.364.169-4.335.282-5.911-8.558 3.828-11.993 10.359-12.781 17.566l12.499-11.655zM331.112 437.497c-.056 1.407-.113 2.984-.225 4.729l9.29 9.459a30.347 30.347 0 0 0-.789-5.405l-8.276-8.783zM328.635 477.922c.169-3.435.338-7.038.507-10.641l-6.925 7.601c1.013 2.59 2.139 4.954 3.096 6.869l3.322-3.829zM329.198 466.268l.338-6.756-9.684 8.389c.619 2.196 1.407 4.335 2.139 6.306l7.207-7.939zM238.776 463.395c4.899-2.365 10.754-.338 13.119 4.504 2.365 4.898.338 10.754-4.504 13.119l-8.615-17.623z" fill="#BCCED5"/><path d="M398.563 419.311l.169 2.14c-39.018 2.871-77.473 16.102-102.922 26.687-27.588 11.486-46.111 22.465-46.337 22.577l-1.126-1.858c.169-.112 18.862-11.148 46.563-22.69 25.561-10.641 64.297-23.985 103.653-26.856zM144.525 506.918c-15.652 8.164-27.137 15.483-33.387 19.706.394.957.957 1.858 1.52 2.703 7.151-1.577 20.776-4.899 38.173-10.923 23.591-8.164 59.005-23.028 94.701-47.632-.338 0-.732.056-1.069.056-42.565 8.952-77.754 24.548-99.938 36.09z" fill="#BCCED5"/><path d="M122.511 502.247c-2.477 1.632-4.729 3.434-6.7 5.517-4.504 4.673-7.207 11.655-5.123 17.792 6.306-4.279 17.791-11.542 33.274-19.65 21.395-11.148 54.952-26.011 95.433-35.132-1.464-.057-2.702-.057-3.434-.057-4.448.282-9.065.225-13.456 1.014-8.333 1.464-16.779 3.04-25.055 4.785-17.51 3.716-34.795 8.558-51.573 14.921-7.545 2.927-16.215 6.08-23.366 10.81zM247.728 470.378l.057.113c-36.372 25.393-72.631 40.651-96.616 48.927-17.003 5.855-30.459 9.234-37.779 10.81 1.464 1.689 3.266 3.097 5.293 4.054 10.528 5.123 27.025-1.633 36.991-5.743 34.344-14.188 64.804-35.02 93.237-58.724-.282.282-.676.451-1.183.563zM239.959 468.239c-10.191-3.153-25.787-8.445-42.846-16.046-13.851-6.137-30.179-14.526-45.437-25.055-5.179.338-10.247 1.802-14.526 4.673-1.801 1.183-3.49 2.703-4.391 4.673 34.682 15.596 86.199 27.307 107.2 31.755z" fill="#BCCED5"/><path d="M243.956 470.884c1.014-.056 1.971-.056 2.984-.113-12.555-2.477-74.544-15.314-114.632-33.274-1.126 3.659.676 7.657 2.984 10.753 3.04 4.11 6.813 7.376 11.092 10.022 43.691 5.856 82.934 10.81 97.572 12.612zM148.805 459.68c7.544 4.11 16.328 6.474 24.829 7.938a249.823 249.823 0 0 0 34.908 3.322c9.29.169 18.692.282 28.039.113a8994.811 8994.811 0 0 1-87.776-11.373zM197.563 451.179c21.395 9.515 40.481 15.427 49.377 18.017-3.941-2.59-7.601-5.518-11.711-7.826-5.123-2.928-10.36-5.687-15.708-8.051a17501.912 17501.912 0 0 0-32.318-15.878c-7.939-3.884-15.934-7.826-24.604-9.515a41.361 41.361 0 0 0-9.121-.844c14.807 10.078 30.572 18.129 44.085 24.097zM244.013 476.516c-3.773 9.965-9.234 25.561-13.738 43.69-3.716 14.752-7.151 32.712-8.277 51.236-3.49 3.885-7.713 6.981-12.611 8.558-2.084.675-4.279 1.069-6.419.619 9.121-37.047 31.586-84.848 41.045-104.103z" fill="#BCCED5"/><path d="M244.406 471.73c.62-.789 1.295-1.521 1.915-2.252-5.799 11.429-33.838 68.182-44.423 110.803-3.547-1.351-5.574-5.236-6.644-8.952-1.351-4.898-1.632-9.909-1.069-14.92 22.295-38.061 42.621-72.011 50.221-84.679zM194.579 553.594c1.408-8.501 4.955-16.834 9.008-24.491a234.358 234.358 0 0 1 18.918-29.503 900.342 900.342 0 0 1 17.172-22.183c-9.121 15.314-26.349 44.141-45.098 76.177zM231.288 520.431c5.687-22.69 12.781-41.383 16.271-49.997-.394 4.673-.337 9.346-1.013 14.019-.845 5.8-1.914 11.655-3.322 17.342a8004.638 8004.638 0 0 0-7.376 35.189c-1.801 8.614-3.659 17.397-7.657 25.223-1.351 2.703-3.04 5.349-5.011 7.714 1.183-17.792 4.561-35.189 8.108-49.49zM152.802 608.656c.957-.057 2.196.338 3.266.732.675.225 1.632.563 1.858.506 1.238-.788 7.826 2.309 9.965 4.73.282.338 1.183 1.351.788 9.346-.281 5.18-1.069 12.161-1.97 17.454.281-.563.563-1.126.901-1.689 3.547-6.7 8.783-14.977 11.992-16.497 3.266-1.52 5.462-1.182 6.756-.957.338.056.789.113.845.056l.451-.337.225.45c.675 1.295 1.745 2.646 2.195 2.534.789-.169 1.915.337 3.153.957.676.337 1.746.844 2.027.732.169-.057.563-.226.901-.395 1.014-.45 2.196-1.013 2.872-.563.225.113.45.395.506.958.057.844.394 1.632.789 2.421.281.619.563 1.295.731 1.97.169.901-.506 1.52-1.069 1.971-.732.675-1.014.957-.62 1.52.338.507.901.957 1.464 1.351 1.07.788 2.421 1.746 1.408 3.491-1.126 2.027-1.52 3.603-1.014 4.392.507.844-.394 1.914-1.295 2.927-.281.282-.619.732-.732.957.282.451.451 1.183.338 1.802a1.936 1.936 0 0 1-.788 1.182c-.901.564-2.083 2.14-2.027 2.816v.337l-.338.113c-.056 0-2.927.901-7.037 1.745 5.348.507 6.362 1.295 6.7 1.802.619 1.014 1.126 2.14 1.576 3.209.732 1.689 1.464 3.266 2.252 3.604 1.351.506 1.014 2.252.788 3.49-.112.507-.225 1.127-.112 1.352.056.169.225.506.394.901.957 2.083 1.689 4.053 1.182 5.067-.338.619.169 3.997.845 6.925l.112.619-.619-.056c-1.013-.056-3.885 0-4.11 1.295-.282 1.239-1.576 1.971-2.871 2.703-.901.506-1.802.957-1.971 1.52-.338.844-1.295 1.576-2.534 2.027-1.52.563-3.096.506-4.279-.113-1.013-.563-1.801 0-2.815.845-.732.619-1.633 1.351-2.477.619-.957-.788-3.209-.732-3.998-.619h-.169l-.168-.113c-.507-.394-1.971-1.52-2.816-1.577-.337-.056-1.069.169-1.632.338-.957.282-1.802.563-2.365.225-.225-.112-.338-.337-.394-.619 0-.112-.056-.281-.113-.507-.338-1.801-1.295-7.263-2.759-9.458-.225-.395-.506-1.014-.844-1.971a51.229 51.229 0 0 1-.619 7.038c-.845 4.898-2.421 8.22-4.73 9.909-5.292 3.829-8.051 3.547-10.247 3.322-1.295-.169-2.196-.225-3.378.507l-.394.225-.225-.394c-.395-.62-1.69-2.309-2.872-2.196-.676.056-1.633.338-2.477.619-1.52.451-2.309.676-2.759.394-.169-.112-.281-.281-.281-.45-.113-.732-2.985-6.193-4.561-6.25-1.52-.056-2.027-2.139-2.477-3.828-.169-.676-.451-1.689-.62-1.802-1.351-.563-2.477-7.826-1.689-10.866.113-.394.451-1.689 6.982-5.687-3.547 1.014-7.545 1.914-9.572 1.351-3.49-.9-4.954-2.59-5.799-3.603-.225-.281-.507-.619-.619-.619l-.563-.057.112-.506c.338-1.408.338-3.153-.056-3.378-.675-.338-1.239-1.521-1.858-2.759-.338-.676-.844-1.746-1.07-1.858-.168-.113-.563-.169-.957-.282-1.069-.281-2.308-.619-2.59-1.407-.056-.226-.112-.62.226-1.014.506-.675.731-1.52.957-2.364.169-.676.394-1.352.732-1.971.45-.788 1.351-.845 2.083-.845 1.013-.056 1.407-.112 1.464-.788.112-.619-.057-1.295-.282-1.97-.338-1.295-.732-2.872 1.183-3.604 2.139-.788 3.49-1.801 3.603-2.702.113-.957 1.52-1.183 2.871-1.408.394-.056.957-.169 1.183-.281.056-.507.394-1.183.901-1.577.394-.338.844-.45 1.351-.394 1.07.113 2.984-.281 3.378-.845l.225-.281.338.169s.957.394 2.421 1.07c-1.689-2.196-2.534-4.279-2.646-6.194-.225-6.531 1.576-8.67 2.984-10.359.844-1.014 1.464-1.689 1.464-3.097v-.45h.45c.788 0 2.872-.113 3.435-1.183.337-.563.619-1.52.9-2.364.451-1.464.732-2.253 1.239-2.478a.964.964 0 0 1 .563 0c.676.282 6.813 1.014 7.77-.281.169-.507.619-.676 1.182-.732zm5.18 2.139c-.507.057-1.295-.225-2.196-.563-1.295-.45-3.04-1.069-3.491-.394-1.295 1.746-7.375.957-8.67.619-.225.282-.507 1.239-.676 1.858-.281.901-.563 1.915-.957 2.534-.732 1.351-2.871 1.577-3.828 1.633-.169 1.464-.901 2.308-1.633 3.209-1.352 1.577-2.984 3.547-2.759 9.74.056 2.196 1.351 4.617 3.772 7.263l1.689 1.802-2.196-1.126c-1.914-.957-3.434-1.633-3.997-1.858-.901.788-2.871 1.126-3.997.957-.226-.056-.451.057-.676.169-.338.282-.563.845-.563 1.126-.056.62-.788.732-1.914.957-.507.113-2.084.338-2.14.62-.169 1.295-1.633 2.477-4.166 3.434-1.07.394-1.014 1.014-.62 2.477.169.732.394 1.577.282 2.365-.225 1.464-1.52 1.52-2.365 1.52-.675 0-1.126.057-1.351.394-.282.507-.451 1.127-.619 1.802-.282.901-.507 1.858-1.127 2.703-.056.056-.112.169-.112.169.113.337 1.351.675 1.97.844.451.113.845.225 1.127.338.506.281.9 1.07 1.52 2.308.394.901 1.013 2.14 1.407 2.309 1.126.563.845 2.871.62 3.997.225.169.506.451.732.788.788.901 2.083 2.478 5.348 3.322 1.858.507 6.25-.338 12.105-2.308.507-.169 1.014.056 1.239.563-1.126.619-2.252 1.295-3.209 1.858-6.081 3.66-6.813 4.955-6.925 5.292-.845 3.266.506 9.403 1.182 9.853.563.225.788 1.183 1.126 2.421.338 1.295.788 3.097 1.633 3.153 2.195.113 4.954 5.574 5.348 6.869.338 0 1.295-.281 1.915-.45.957-.282 1.914-.563 2.646-.62 1.576-.112 2.928 1.521 3.491 2.253 1.295-.676 2.421-.564 3.603-.451 2.083.225 4.617.507 9.628-3.153 2.083-1.52 3.547-4.673 4.335-9.29.451-2.815.676-6.193.619-10.078l-.056-3.885.957 3.772c.282 1.183.563 2.196.845 2.985.338 1.069.619 1.576.732 1.801 1.407 2.14 2.308 6.644 2.871 9.797.057.225.056.338.113.45.169.113 1.126-.169 1.633-.338.788-.225 1.463-.45 2.026-.394 1.07.113 2.59 1.295 3.097 1.689.732-.056 3.209-.225 4.504.845.225.225.507.056 1.295-.619.901-.789 2.196-1.858 3.829-.958.901.507 2.252.507 3.547.057 1.013-.338 1.802-.957 2.027-1.52.338-.845 1.351-1.408 2.421-1.971 1.126-.619 2.252-1.239 2.421-2.083.394-1.858 3.209-2.027 4.504-2.027-.394-1.745-1.239-5.912-.619-6.982.394-.675-.732-3.209-1.183-4.222-.169-.394-.337-.732-.394-.957-.169-.451-.056-1.07.113-1.802.225-1.239.394-2.196-.225-2.477-1.126-.451-1.858-2.14-2.759-4.054-.451-1.07-.957-2.14-1.52-3.097-.057-.112-.789-.901-6.25-1.407-.901-.113-1.971-.169-3.04-.226l-3.885-.225 3.828-.675c4.899-.845 8.84-1.971 9.966-2.309.225-1.182 1.52-2.702 2.477-3.265.225-.113.338-.338.394-.563.113-.451-.112-1.014-.281-1.183-.394-.507.112-1.07.901-1.97.338-.395 1.351-1.577 1.238-1.858-.675-1.126-.337-2.928 1.014-5.349.563-.957.112-1.408-1.126-2.309-.62-.45-1.295-.957-1.689-1.632-.789-1.295.169-2.14.788-2.703.507-.45.844-.788.788-1.126-.112-.563-.394-1.126-.675-1.802-.395-.844-.789-1.745-.845-2.758 0-.113-.056-.169-.056-.226-.282-.169-1.464.338-2.027.62-.451.225-.788.394-1.07.45-.563.113-1.351-.225-2.646-.788-.901-.394-2.14-1.014-2.59-.901-1.239.282-2.477-1.633-3.04-2.646-.282.056-.62 0-1.07-.113-1.183-.225-3.209-.563-6.193.901-2.816 1.351-7.883 9.065-11.599 16.103-.901 1.689-1.745 3.378-2.364 4.842l-1.239 2.758-.282 1.408c-.901 4.054 1.746 6.081 2.083 6.306.282.113.62.225.901.281l2.196.676-2.759.282c-2.702.281-3.096.563-3.153.619 0 0-.225.281-.225 1.689v1.464l-.788-.845c-1.351-1.464-2.984-2.027-4.786-1.632-.45.056-1.126.281-1.97.619l-1.633.619 1.126-1.351c1.97-2.309 1.408-4.729 1.295-5.067-.394-.676-.845-1.408-1.408-2.084-.169-.168-.281-.394-.45-.563l-1.52-1.745 2.027 1.07c1.351.732 2.308 1.182 2.533 1.295.113 0 .394.056.788.056h.62c1.238-.056 3.04-.45 4.222-1.971l.845-1.069.676-2.984c.112-.394.169-.845.281-1.295 1.07-5.405 2.027-13.569 2.309-19.481.394-7.094-.338-8.445-.507-8.671-2.252-2.533-8.051-4.785-8.84-4.504-.337-.056-.45 0-.619 0zm7.657 45.042c-.788-.732-2.421-2.533-2.252-5.574-1.239.958-2.759 1.295-3.885 1.352h-.732a7.818 7.818 0 0 1-1.013-.057l-.113-.056s-.338-.169-.844-.394c.281.394.506.788.732 1.182l.056.057c.056.112.732 2.364-.676 4.785.282-.112.563-.169.789-.225 2.139-.394 3.772.338 4.898 1.239.056-1.014.281-1.352.45-1.577.225-.169.732-.45 2.59-.732z" fill="#BCCED5"/><path d="M156.068 658.147c.056.112-.958.619-2.59 1.407-1.633.788-3.829 1.915-6.306 3.097a717.852 717.852 0 0 1-6.25 3.153c-1.633.788-2.59 1.295-2.646 1.182-.056-.056.901-.732 2.421-1.633 1.576-.9 3.716-2.139 6.193-3.378 2.478-1.238 4.73-2.252 6.419-2.927 1.689-.62 2.759-.958 2.759-.901zM162.824 658.653c.169-.057 1.464 2.646 2.14 6.306.675 3.659.506 6.643.338 6.643-.226 0-.282-2.984-1.014-6.531-.619-3.547-1.633-6.306-1.464-6.418zM153.928 697.164c-.112-.056.901-2.027 2.196-5.405.169-.394.338-.845.507-1.351.169-.451.337-.957.506-1.464.338-1.014.676-2.083 1.014-3.209.619-2.309 1.295-4.842 1.801-7.545.507-2.702.901-5.292 1.183-7.657.281-2.365.45-4.504.563-6.306.056-.901.112-1.689.169-2.421.056-.732.056-1.351.112-1.858.057-1.013.113-1.576.169-1.576.057 0 .057.563.113 1.576v1.858c0 .732 0 1.52-.056 2.421a103.386 103.386 0 0 1-.395 6.362c-.225 2.365-.619 5.011-1.126 7.714-.506 2.702-1.182 5.292-1.858 7.544-.394 1.126-.675 2.252-1.069 3.209-.169.507-.338 1.014-.563 1.464-.169.451-.394.901-.563 1.295a29.08 29.08 0 0 1-1.014 2.252 10.802 10.802 0 0 1-.844 1.633c-.507 1.014-.789 1.52-.845 1.464zM144.92 696.151c-.057 0 .281-.563.844-1.408.282-.45.619-1.013 1.014-1.633a32.65 32.65 0 0 0 1.294-2.195c.226-.395.507-.845.732-1.295.226-.451.507-.958.732-1.408.563-.957 1.07-2.027 1.633-3.153 1.07-2.252 2.196-4.786 3.209-7.488 1.014-2.703 1.858-5.349 2.59-7.714.676-2.421 1.295-4.616 1.689-6.418.226-.901.395-1.745.563-2.477.169-.732.338-1.352.451-1.915.225-1.013.394-1.632.45-1.576.057 0 0 .619-.169 1.633-.056.506-.169 1.182-.281 1.914a33.836 33.836 0 0 1-.507 2.534 117.384 117.384 0 0 1-1.576 6.531 95.364 95.364 0 0 1-2.534 7.769 86.26 86.26 0 0 1-3.266 7.545 53.404 53.404 0 0 1-1.689 3.153c-.281.507-.506.957-.788 1.407-.281.451-.507.845-.788 1.295a28.145 28.145 0 0 1-1.408 2.14c-.394.619-.788 1.182-1.126 1.576-.675.732-1.069 1.239-1.069 1.183zM136.418 692.829c-.056 0 .169-.563.563-1.576.394-1.014 1.014-2.421 1.802-4.167a142.634 142.634 0 0 1 7.094-13.287c3.097-5.011 6.193-9.346 8.614-12.331 1.183-1.52 2.309-2.646 3.153-3.321.845-.676 1.408-.958 1.408-.901.056.056-.451.394-1.239 1.126-.788.732-1.802 1.858-2.984 3.434a169.645 169.645 0 0 0-8.389 12.387 158.547 158.547 0 0 0-7.263 13.118c-.845 1.746-1.52 3.097-1.971 4.11-.45.901-.732 1.408-.788 1.408zM130.788 685.17c-.056 0 0-.563.338-1.464.338-.9 1.07-2.139 2.027-3.49 1.97-2.816 4.842-6.531 8.501-10.247 3.66-3.716 7.263-6.757 10.022-8.727 1.352-1.014 2.534-1.746 3.322-2.252.788-.507 1.239-.789 1.295-.732 0 .056-.394.394-1.126.957-.732.563-1.858 1.407-3.209 2.421-2.646 2.083-6.25 5.123-9.853 8.839a100.827 100.827 0 0 0-8.614 10.022c-1.014 1.351-1.802 2.477-2.196 3.322-.282.901-.451 1.408-.507 1.351zM134.447 634.892c.057-.056 1.295.507 3.21 1.633a100.697 100.697 0 0 1 7.263 4.729 116.168 116.168 0 0 1 6.812 5.293c1.689 1.464 2.646 2.421 2.59 2.477-.056.056-1.126-.732-2.871-2.083-1.746-1.351-4.167-3.209-6.926-5.124a218.833 218.833 0 0 0-7.094-4.842c-1.914-1.238-3.04-1.97-2.984-2.083zM166.258 656.681c0-.056 1.352-.394 3.604-.619 2.252-.226 5.349-.282 8.783-.226 1.689 0 3.322.001 4.786-.056a59.688 59.688 0 0 0 3.885-.281c2.195-.226 3.547-.563 3.603-.451 0 .057-1.295.563-3.547.901a35.69 35.69 0 0 1-3.941.394 122.84 122.84 0 0 1-4.842.113c-3.435 0-6.531-.056-8.727.056-2.252.113-3.604.282-3.604.169z" fill="#BCCED5"/><path d="M163.556 660.567c.056-.056 1.013 1.408 2.421 3.772a115.27 115.27 0 0 1 5.067 9.572c.901 1.914 1.633 3.772 2.308 5.517.62 1.746 1.126 3.322 1.464 4.673.169.676.338 1.295.451 1.802.112.563.225 1.014.281 1.408.113.788.169 1.182.113 1.182-.113 0-.451-1.633-1.295-4.279-.394-1.295-.957-2.871-1.577-4.56a170.945 170.945 0 0 0-2.308-5.462c-1.802-3.828-3.603-7.15-4.842-9.628-1.408-2.421-2.14-3.941-2.083-3.997zM163.556 657.077c.056-.057.507.337 1.239 1.069.788.732 1.858 1.802 3.209 3.153 1.351 1.352 2.871 3.041 4.504 4.899a263.996 263.996 0 0 1 5.18 6.305c1.745 2.309 3.378 4.561 4.729 6.644a104.76 104.76 0 0 1 3.548 5.63c.957 1.633 1.689 2.984 2.195 3.885.507.957.732 1.464.676 1.52-.056 0-.394-.45-.957-1.351s-1.351-2.196-2.365-3.772a182.135 182.135 0 0 0-3.66-5.518 203.701 203.701 0 0 0-4.785-6.587c-1.746-2.308-3.491-4.392-5.068-6.306-1.632-1.914-3.096-3.603-4.391-5.011-1.295-1.407-2.309-2.534-3.04-3.322-.62-.788-1.014-1.238-1.014-1.238zM164.231 656.175c0-.056.62.169 1.633.62l.845.338c.281.169.619.337 1.013.506.732.338 1.52.732 2.365 1.239.45.225.901.507 1.351.788.451.282.957.563 1.464.901 1.013.619 2.027 1.351 3.153 2.083a137.906 137.906 0 0 1 6.813 5.18c4.729 3.829 8.839 7.488 11.879 10.022a156.359 156.359 0 0 0 3.604 2.984c.844.732 1.351 1.126 1.295 1.126-.057.056-.563-.281-1.464-.957-.901-.619-2.196-1.633-3.772-2.815-3.153-2.478-7.32-6.025-11.993-9.853-2.365-1.914-4.617-3.66-6.756-5.18-1.07-.732-2.083-1.464-3.097-2.083-.507-.338-.957-.62-1.407-.901a16.582 16.582 0 0 0-1.352-.788c-.844-.507-1.632-.957-2.308-1.352-.338-.168-.676-.394-.957-.506a5.616 5.616 0 0 0-.845-.394c-.957-.62-1.52-.958-1.464-.958zM170.763 656.23c0-.056.507.057 1.407.338.451.113.958.282 1.577.507.619.225 1.295.45 2.083.732 1.52.563 3.322 1.239 5.292 2.139 1.971.901 4.111 1.915 6.306 3.097a81.169 81.169 0 0 1 6.025 3.603 70.58 70.58 0 0 1 4.673 3.322c.675.507 1.238.957 1.745 1.351.507.395.957.789 1.295 1.07.676.62 1.07.957 1.014 1.014-.057.056-1.633-1.126-4.279-3.041-1.295-.957-2.928-2.027-4.73-3.153-1.801-1.126-3.828-2.364-6.024-3.547a106.633 106.633 0 0 0-6.25-3.096 132.647 132.647 0 0 0-5.236-2.252c-3.04-1.352-4.954-2.027-4.898-2.084zM181.46 655.95c0-.057 1.07.169 2.759.732 1.689.563 3.941 1.464 6.362 2.646 2.421 1.182 4.505 2.477 5.968 3.434 1.464 1.014 2.309 1.689 2.253 1.746-.113.169-3.716-2.252-8.502-4.617-4.786-2.365-8.896-3.772-8.84-3.941zM120.147 662.987c0-.113 2.083.169 5.405.338.394 0 .845.056 1.295.056h1.408c.957 0 2.026 0 3.096-.056a67.608 67.608 0 0 0 7.094-.732c2.478-.394 4.842-.957 6.982-1.52 1.07-.282 2.083-.563 2.984-.901.45-.169.901-.282 1.351-.45.451-.169.845-.282 1.239-.451 3.096-1.182 4.954-2.083 5.011-2.027 0 .057-.394.338-1.239.732-.394.225-.901.507-1.52.788-.619.282-1.295.62-2.083.901-.394.169-.789.338-1.239.507l-1.351.507c-.901.337-1.914.675-2.984.957a56.716 56.716 0 0 1-7.038 1.576c-2.534.394-4.955.563-7.207.676-1.126 0-2.139.056-3.153 0-.506 0-.957 0-1.407-.056-.451-.057-.901-.057-1.295-.113-.845-.056-1.577-.169-2.252-.225a10.497 10.497 0 0 1-1.689-.282 16.58 16.58 0 0 1-1.408-.225zM113.785 655.049c0-.056.619.056 1.689.225.563.113 1.182.225 1.97.338.789.112 1.633.281 2.59.394.958.169 2.027.281 3.153.45 1.126.169 2.365.226 3.66.395 2.59.225 5.405.337 8.389.394 2.984 0 5.799-.113 8.389-.338a289.43 289.43 0 0 0 3.66-.338c1.126-.113 2.196-.281 3.153-.394.957-.113 1.858-.282 2.59-.394a34.766 34.766 0 0 0 1.97-.338c1.07-.169 1.689-.282 1.689-.225 0 .056-.563.225-1.632.506-.507.113-1.183.282-1.971.451a71.36 71.36 0 0 1-2.59.507c-.957.169-2.027.337-3.153.506-1.126.169-2.365.282-3.66.394-2.589.226-5.461.395-8.445.395s-5.855-.169-8.445-.451a58.667 58.667 0 0 1-3.66-.45 126.513 126.513 0 0 1-3.153-.507 53.51 53.51 0 0 1-2.59-.507c-.788-.169-1.407-.338-1.97-.45-1.07-.338-1.633-.563-1.633-.563zM118.627 648.124c0-.057.563.056 1.52.225.45.112 1.07.225 1.745.338.676.112 1.464.281 2.309.45 1.689.338 3.716.676 5.968 1.07 2.252.338 4.729.675 7.375.957 2.647.281 5.124.394 7.432.507 2.309.112 4.336.112 6.081.112h4.11c.957 0 1.52 0 1.52.056 0 .057-.506.113-1.52.226a15.23 15.23 0 0 1-1.745.112 27.49 27.49 0 0 1-2.365.113c-1.745.056-3.829.056-6.081 0-2.308-.056-4.842-.225-7.488-.451a118.996 118.996 0 0 1-7.432-1.013c-2.252-.394-4.279-.788-5.968-1.182-.844-.169-1.633-.394-2.252-.563-.676-.169-1.239-.338-1.689-.451-1.014-.281-1.52-.45-1.52-.506zM122.061 641.425c.056-.057.394.225 1.07.675.675.394 1.633 1.014 2.927 1.577a24.629 24.629 0 0 0 4.73 1.52c1.802.45 3.885.732 6.024 1.013 2.14.282 4.223.451 6.081.62 1.858.169 3.547.394 5.011.506 2.815.338 4.56.563 4.56.676 0 .113-1.745 0-4.616-.169-1.408-.112-3.097-.225-5.011-.394-1.858-.169-3.941-.338-6.137-.563-2.196-.282-4.223-.619-6.081-1.07a24.707 24.707 0 0 1-4.786-1.689 14.248 14.248 0 0 1-2.871-1.802c-.619-.563-.957-.9-.901-.9zM143.456 609.726c.056 0 .45.45 1.126 1.407a54.729 54.729 0 0 1 2.59 4.054c1.069 1.745 2.252 3.885 3.49 6.249a205.653 205.653 0 0 1 3.942 7.883c2.646 5.63 4.56 10.979 5.63 14.92.281.957.507 1.858.676 2.646.168.789.337 1.464.45 2.027.225 1.126.281 1.746.225 1.746-.056 0-.225-.62-.507-1.69-.168-.563-.337-1.238-.563-2.026-.225-.789-.45-1.633-.788-2.647-1.182-3.885-3.153-9.121-5.799-14.751-1.295-2.815-2.646-5.461-3.885-7.882a256.73 256.73 0 0 0-3.322-6.306c-1.013-1.802-1.801-3.209-2.421-4.167-.563-.9-.844-1.407-.844-1.463zM151.901 608.824c.056 0 .394.45 1.013 1.295.169.225.338.45.507.732.169.281.394.563.563.9.394.62.901 1.352 1.351 2.196.226.394.507.845.732 1.295.282.451.507.957.789 1.464.563 1.014 1.013 2.083 1.576 3.266a68.37 68.37 0 0 1 2.872 7.769 62.937 62.937 0 0 1 1.858 8.052c.168 1.238.394 2.477.45 3.603.056.563.113 1.126.169 1.633.056.507.056 1.013.112 1.52.057.957.057 1.858.057 2.59v1.07c0 .337 0 .619-.057.9-.056 1.07-.112 1.69-.168 1.69-.057 0-.113-.62-.113-1.69v-.9c0-.338-.056-.676-.056-1.07-.057-.732-.057-1.633-.169-2.59-.057-.45-.113-.957-.113-1.52-.056-.507-.112-1.07-.169-1.633-.112-1.126-.338-2.308-.507-3.547a73.701 73.701 0 0 0-1.914-7.995 67.341 67.341 0 0 0-2.815-7.713c-.507-1.126-1.013-2.253-1.52-3.266-.225-.507-.507-1.013-.732-1.464-.225-.45-.507-.901-.732-1.295-.45-.844-.901-1.576-1.295-2.252-.169-.338-.394-.619-.507-.901-.169-.281-.337-.506-.45-.732-.45-.844-.732-1.351-.732-1.407zM157.926 609.781c.056-.056.337.282.9.845.113.168.282.337.451.506.169.169.338.394.507.62.337.45.732.957 1.126 1.52.225.281.394.619.619.901.225.337.394.675.619 1.013.451.732.845 1.52 1.295 2.365a35.124 35.124 0 0 1 2.252 5.686 36.35 36.35 0 0 1 1.239 5.968c.113.958.225 1.802.225 2.647 0 .394.057.844.057 1.238v1.126c0 .732-.057 1.352-.113 1.915 0 .281-.056.563-.056.788-.057.225-.057.45-.113.675-.113.789-.225 1.239-.281 1.183-.113 0 .056-1.746.056-4.561 0-.337 0-.732-.056-1.126 0-.394-.057-.788-.057-1.182-.056-.845-.169-1.689-.281-2.59-.282-1.802-.676-3.829-1.295-5.855-.62-2.027-1.408-3.942-2.196-5.631a29.228 29.228 0 0 0-1.182-2.308c-.226-.338-.394-.732-.563-1.014a8.285 8.285 0 0 1-.563-.957c-1.521-2.308-2.703-3.659-2.59-3.772zM137.375 616.257c.057 0 .338.451.789 1.352.45.9 1.182 2.195 2.027 3.772a192.088 192.088 0 0 0 7.037 12.218 201.05 201.05 0 0 0 7.883 11.654c1.069 1.464 1.914 2.646 2.533 3.435.62.844.901 1.295.845 1.295-.056.056-.394-.395-1.07-1.126-.675-.789-1.576-1.915-2.702-3.322a154.6 154.6 0 0 1-8.052-11.599c-2.927-4.673-5.292-9.064-6.868-12.33-.789-1.633-1.408-2.928-1.802-3.885-.451-.901-.676-1.407-.62-1.464zM134.729 621.043c.112-.057.732 1.295 1.802 3.49 1.069 2.14 2.589 5.124 4.447 8.277a152.274 152.274 0 0 0 4.955 7.995c1.351 2.027 2.14 3.265 2.083 3.322-.056.056-1.07-1.07-2.477-3.041-1.408-1.97-3.322-4.729-5.124-7.938-1.858-3.209-3.321-6.194-4.279-8.446-1.013-2.252-1.52-3.659-1.407-3.659zM164.964 654.26c0-.056.619-.169 1.689-.506a26.11 26.11 0 0 0 4.391-1.858c1.802-.957 3.773-2.252 5.968-3.829 2.196-1.576 4.505-3.322 6.869-5.349 4.73-3.941 8.615-8.051 11.148-11.148a33.908 33.908 0 0 0 1.689-2.139c.507-.619.901-1.182 1.239-1.633.676-.901 1.07-1.407 1.126-1.407.056 0-.281.563-.901 1.52-.281.506-.732 1.07-1.182 1.689-.451.676-1.014 1.407-1.633 2.196-2.477 3.209-6.306 7.375-11.092 11.373-2.364 2.027-4.729 3.772-6.925 5.292-2.196 1.52-4.279 2.872-6.08 3.772a24.981 24.981 0 0 1-4.505 1.69c-1.182.337-1.801.337-1.801.337z" fill="#BCCED5"/><path d="M165.752 655.444c-.057-.112 2.083-.675 5.461-1.858a8.685 8.685 0 0 1 1.295-.45c.45-.169.901-.394 1.408-.563.957-.394 1.97-.845 3.04-1.295a70.73 70.73 0 0 0 6.756-3.491 77.96 77.96 0 0 0 6.362-4.166 36.326 36.326 0 0 0 2.647-2.027c.394-.338.788-.62 1.182-.957.394-.338.732-.62 1.07-.901 2.702-2.309 4.222-3.885 4.335-3.829.056.057-.338.451-1.013 1.183-.338.394-.732.844-1.239 1.295-.507.506-1.07 1.069-1.745 1.689-.338.281-.676.619-1.014.957-.338.338-.732.619-1.182.957-.788.676-1.689 1.351-2.646 2.083a79.156 79.156 0 0 1-6.419 4.279 79.321 79.321 0 0 1-6.869 3.491c-1.07.45-2.139.901-3.096 1.239-.507.168-.958.394-1.408.506-.45.169-.901.282-1.351.451-.845.281-1.633.506-2.309.675-.675.226-1.295.338-1.745.451-.957.225-1.52.338-1.52.281zM167.553 656.401c0-.113 1.915-.169 5.011-.507.789-.112 1.633-.169 2.534-.337.901-.113 1.858-.338 2.871-.507 2.027-.394 4.167-.957 6.419-1.633 2.252-.732 4.335-1.52 6.193-2.365.957-.45 1.802-.788 2.646-1.238a27.245 27.245 0 0 0 2.252-1.183c2.703-1.464 4.336-2.533 4.392-2.477 0 .056-.338.338-1.07.845-.338.281-.788.563-1.295.9-.506.338-1.126.732-1.801 1.126-.676.395-1.408.845-2.252 1.239-.789.451-1.69.845-2.647 1.295a60.402 60.402 0 0 1-6.249 2.421c-2.252.732-4.504 1.239-6.531 1.633-1.014.169-1.971.338-2.872.45-.901.113-1.745.225-2.533.282-.789.056-1.464.112-2.084.112-.619.057-1.126 0-1.576 0-.957.057-1.408 0-1.408-.056zM164.456 654.036c-.056 0 .113-.563.564-1.464.45-.901 1.182-2.14 2.252-3.603 1.069-1.464 2.421-3.097 3.941-4.899a186.547 186.547 0 0 1 5.067-5.799c3.716-3.997 7.376-7.376 10.191-9.571a71.89 71.89 0 0 1 3.434-2.478c.845-.563 1.352-.788 1.352-.788 0 .056-.395.394-1.183 1.014-.788.619-1.914 1.463-3.322 2.646-2.758 2.252-6.306 5.63-10.022 9.627-1.857 1.971-3.547 3.942-5.123 5.743-1.52 1.802-2.928 3.379-4.054 4.786-1.126 1.408-1.914 2.59-2.421 3.435-.338.9-.619 1.351-.676 1.351zM166.09 644.072c-.057 0 .169-.395.619-1.07.45-.676 1.07-1.577 1.914-2.759a91.75 91.75 0 0 1 7.151-8.389 74.767 74.767 0 0 1 4.391-4.223c1.408-1.238 2.703-2.308 3.885-3.096 1.182-.789 2.196-1.352 2.928-1.69.732-.337 1.182-.45 1.182-.394.057.113-1.576.789-3.828 2.478s-5.068 4.335-8.052 7.432c-2.984 3.096-5.461 6.024-7.263 8.22-1.801 2.139-2.871 3.547-2.927 3.491zM44.983 4.361c1.97-1.013 4.898-1.182 7.431-1.295 1.577-.056 3.885-.225 4.336-.563C58.608-.2 75.048.589 81.467 3.685c.9.45 3.603 1.746 9.571 18.693 3.885 10.979 8.22 26.124 10.923 37.892.112-1.408.225-2.872.394-4.28 1.576-16.89 5.405-38.68 10.81-44.591 5.461-5.968 10.303-7.094 13.175-7.77.788-.169 1.689-.394 1.858-.563l.619-1.013.901.788c2.477 2.083 5.912 3.997 6.756 3.378 1.408-1.07 4.335-.9 7.376-.788 1.745.056 4.335.225 4.898-.17.338-.28.957-.9 1.577-1.576 1.745-1.858 3.659-3.94 5.517-3.66.563.057 1.295.395 1.858 1.52.789 1.69 2.252 3.098 3.716 4.392 1.126 1.07 2.365 2.196 3.209 3.491 1.127 1.746.226 3.547-.506 5.067-.957 2.027-1.239 2.872 0 3.773 1.126.844 2.702 1.182 4.222 1.576 2.872.676 6.475 1.577 5.912 6.08-.675 5.124-.056 8.784 1.633 9.966 1.802 1.295.788 4.28-.169 7.207-.281.845-.675 2.083-.732 2.646.957.676 1.971 2.027 2.252 3.435.225 1.126 0 2.196-.619 3.153-1.351 1.914-2.534 6.193-1.802 7.657l.338.732-.619.507c-.057.056-5.349 4.391-13.119 9.74 11.542-3.49 14.301-2.815 15.427-1.97 2.14 1.576 4.11 3.49 6.025 5.292 2.984 2.871 5.799 5.574 7.713 5.517 3.209-.056 3.997 3.773 4.56 6.532.226 1.126.507 2.477.845 2.871.282.338.845.844 1.52 1.52 3.716 3.547 7.038 6.925 6.757 9.515-.169 1.577 3.772 8.22 7.657 13.682l.788 1.126-1.295.45c-2.083.676-7.995 3.378-7.488 6.194.506 2.871-1.633 5.517-3.66 8.051-1.408 1.745-2.871 3.547-2.871 4.842 0 1.97-1.295 4.391-3.547 6.475-2.703 2.477-6.025 3.772-8.953 3.49-2.589-.281-3.716 1.521-5.123 4.223-.957 1.858-2.196 4.223-4.673 3.435-2.646-.845-7.263 1.238-8.783 2.083l-.394.225-.395-.113c-1.351-.394-5.348-1.407-7.15-.9-.788.225-2.027 1.238-3.153 2.139-1.745 1.464-3.322 2.703-4.729 2.477-.563-.056-1.014-.394-1.352-.901-.169-.225-.338-.506-.619-.957-2.196-3.434-8.952-13.963-13.85-17.341-.845-.563-1.971-1.689-3.435-3.378 2.083 5.461 3.66 10.529 4.729 15.145 2.478 10.81 2.084 19.087-1.294 24.548-7.658 12.556-13.626 14.245-18.468 15.652-2.815.789-4.842 1.408-6.587 3.998l-.563.844-.845-.619c-1.407-1.013-5.517-3.322-7.882-2.083-1.295.676-3.04 2.083-4.617 3.322-2.702 2.196-4.222 3.378-5.405 3.153-.394-.057-.788-.338-1.013-.676-.845-1.407-11.542-10.303-14.808-9.121-3.21 1.182-6.08-2.702-8.445-5.799-.957-1.239-2.365-3.153-2.872-3.266-3.265 0-11.823-14.075-12.837-21.169-.112-.958-.563-3.885 9.684-17.736-6.418 5.124-14.019 10.416-18.692 11.036-8.051 1.069-12.443-1.126-15.09-2.478-.675-.338-1.576-.788-1.8-.732l-1.127.394-.225-1.182c-.563-3.209-1.97-6.869-3.04-6.925-1.746-.113-3.885-2.083-6.194-4.167-1.295-1.182-3.209-2.927-3.828-2.984-.45-.056-1.295.057-2.196.169-2.477.338-5.349.676-6.588-.675-.394-.394-.731-1.183-.45-2.365.45-1.802.225-3.829 0-5.743-.169-1.576-.394-3.209-.225-4.729.225-2.027 2.14-2.872 3.603-3.547 2.027-.901 2.759-1.408 2.421-2.872-.338-1.351-1.295-2.646-2.252-3.941-1.745-2.365-3.941-5.349-.62-8.445 3.773-3.547 5.687-6.7 5.124-8.727-.563-2.14 2.14-3.829 4.73-5.405.788-.45 1.858-1.183 2.252-1.577-.282-1.126-.225-2.815.45-4.053.563-1.014 1.408-1.69 2.478-1.971 2.308-.62 5.911-3.153 6.306-4.673l.168-.788h.789c.056 0 2.308 0 5.968.225-5.35-3.153-8.952-6.7-10.754-10.641C15.086 51.599 17 45.63 18.577 40.9c.9-2.759 1.52-4.785.394-7.713l-.394-.957.957-.394c1.576-.62 5.799-2.76 6.137-5.35.169-1.463 0-3.715-.225-5.686-.338-3.49-.45-5.348.394-6.25.281-.337.732-.45 1.126-.45 1.633.057 15.032-3.772 15.877-7.206.338-1.239 1.126-2.027 2.14-2.534zm12.611 0c-1.07.563-2.815.62-5.067.732-3.04.169-7.207.338-7.657 2.196-1.182 4.786-14.526 8.389-17.51 8.727-.17.788.056 2.984.169 4.448.169 2.195.394 4.447.169 6.137-.394 3.49-4.617 5.799-6.531 6.643.957 3.153.168 5.574-.676 8.108-1.408 4.448-3.21 9.965 2.59 22.577 2.027 4.448 6.756 8.445 14.076 11.88l5.01 2.365-5.517-.395c-4.842-.337-8.446-.45-9.91-.45-1.182 2.365-5.067 4.786-7.488 5.405-.563.17-.957.45-1.182.957-.507.957-.45 2.196-.225 2.76.45 1.35-1.014 2.251-3.21 3.603-1.013.619-3.997 2.477-3.828 3.153.732 2.815-1.239 6.53-5.743 10.753-1.858 1.689-1.239 2.928.845 5.743 1.013 1.351 2.14 2.928 2.59 4.673.788 3.266-1.802 4.448-3.548 5.236-1.463.676-2.308 1.126-2.42 1.915-.17 1.295 0 2.702.225 4.222.281 2.14.506 4.336-.057 6.531-.056.226-.056.395 0 .451.507.563 3.378.225 4.786.056 1.07-.112 1.97-.281 2.646-.225 1.295.113 2.76 1.408 5.067 3.491 1.633 1.52 3.885 3.547 4.899 3.603 2.815.169 4.223 5.236 4.786 7.77.675.112 1.35.507 2.252.901 2.42 1.238 6.474 3.322 13.85 2.308 4.223-.563 12.668-6.081 23.197-15.145.9-.732 2.195-.732 3.04.056-1.802 2.308-3.547 4.56-5.067 6.644-9.459 12.78-9.91 16.159-9.797 16.89 1.07 7.489 9.121 19.031 10.867 19.425 1.407 0 2.702 1.689 4.447 4.054 1.802 2.421 4.336 5.742 6.081 5.123 4.617-1.689 15.09 7.376 17.004 9.628.731-.338 2.42-1.689 3.603-2.646 1.689-1.408 3.434-2.815 4.954-3.604 3.097-1.576 7.376.62 9.178 1.689 2.083-2.533 4.504-3.209 7.094-3.997 4.448-1.295 10.022-2.928 17.285-14.751 3.04-5.011 3.434-12.781 1.07-23.028-1.464-6.306-3.885-13.513-7.32-21.451l-3.434-7.995 5.18 6.981a109.268 109.268 0 0 0 4.335 5.462c1.689 1.97 2.59 2.758 3.097 3.096 4.673 3.209 10.472 11.767 14.413 17.904.282.394.45.676.563.901.507.057 2.14-1.295 3.097-2.083 1.407-1.126 2.702-2.196 3.885-2.534 2.364-.619 6.531.451 7.882.845 1.464-.732 6.531-3.209 10.022-2.027.675.225 1.126-.394 2.196-2.421 1.238-2.421 2.984-5.687 7.15-5.292 2.308.225 5.067-.845 7.319-2.928 1.802-1.633 2.928-3.547 2.872-4.898 0-2.027 1.576-4.054 3.322-6.137 1.801-2.196 3.603-4.505 3.265-6.419-.788-4.11 4.899-6.981 7.545-8.051-2.252-3.266-7.601-11.204-7.263-14.02.225-1.801-4.223-6.024-6.137-7.826-.732-.675-1.295-1.238-1.633-1.632-.676-.789-1.014-2.196-1.351-3.829-.563-2.759-1.126-4.898-2.534-4.898-2.759.056-5.687-2.815-9.177-6.08-1.858-1.803-3.829-3.66-5.856-5.125-.281-.225-2.364-1.126-14.188 2.478-1.971.62-4.166 1.351-6.531 2.14l-8.22 2.814 7.319-4.673c9.403-5.968 16.666-11.71 18.693-13.287-.563-2.59.788-6.869 2.252-8.952.338-.45.45-.957.281-1.52-.225-1.014-1.07-1.97-1.633-2.252-1.238-.732-.675-2.365.169-4.843.338-1.126 1.464-4.504.901-4.898-2.365-1.689-3.265-5.799-2.477-11.936.338-2.477-.957-3.04-4.335-3.828-1.633-.395-3.491-.845-4.955-1.915-2.703-1.97-1.464-4.56-.619-6.306.675-1.407 1.069-2.364.619-3.04-.732-1.07-1.745-2.083-2.872-3.097-1.576-1.464-3.152-2.984-4.166-5.01-.112-.226-.225-.338-.281-.395-.789-.112-2.759 2.027-3.66 3.04-.732.789-1.351 1.465-1.858 1.859-1.013.788-3.04.675-6.193.563-2.196-.113-5.236-.226-6.081.394-2.308 1.689-6.587-1.295-8.614-2.872-.563.338-1.352.507-2.309.732-2.646.62-7.094 1.633-12.105 7.15-4.729 5.18-8.558 25.506-10.247 43.41-.394 4.335-.675 8.502-.788 12.049l-.225 6.812.563 3.21c1.633 9.233 8.783 11.091 9.684 11.316.732 0 1.464-.112 2.139-.169l5.18-.506-5.518 2.928c-5.348 2.87-5.968 3.884-5.968 3.997 0 .056-.225.844.958 3.716.056.169.168.394.225.563l1.069 2.421-2.421-1.07c-4.11-1.801-7.938-1.576-11.429.676-.844.563-2.027 1.52-3.547 2.928l-2.871 2.646 1.182-3.716c2.083-6.475-1.182-11.035-1.633-11.655a42.033 42.033 0 0 0-4.673-3.096c-.45-.282-.957-.507-1.464-.789l-4.617-2.364 5.18.45c3.435.282 5.8.45 6.419.45.281-.056.9-.225 1.745-.563.394-.168.845-.337 1.295-.563 2.534-1.238 5.855-3.603 7.038-7.713l.844-2.984-1.238-6.813c-.169-.9-.338-1.914-.563-2.927-2.421-12.105-7.432-29.897-11.88-42.396C83.662 8.077 81.073 5.88 80.397 5.543c-6.757-3.321-20.888-3.04-22.183-1.858-.057.282-.282.507-.62.676zm54.558 86.931c-2.253-.788-7.264-3.153-9.516-9.628-1.801 3.097-4.616 5.011-6.925 6.137-.507.226-1.013.45-1.464.62-1.238.506-2.14.675-2.14.675h-.28s-.789-.056-2.14-.112c.9.62 1.802 1.238 2.59 1.858l.169.169c.169.225 3.547 4.279 2.758 10.528.564-.45 1.07-.844 1.464-1.07 4.054-2.646 8.052-2.533 11.148-1.632-.732-2.14-.619-3.097-.45-3.604.338-.732 1.126-1.745 4.786-3.94z" fill="#BCCED5"/><path d="M94.304 104.298c.169.169-1.464 2.083-4.11 5.123-2.703 3.041-6.362 7.263-10.416 11.88a1857.602 1857.602 0 0 1-10.304 11.936c-2.646 3.041-4.335 4.899-4.504 4.786-.169-.113 1.239-2.252 3.66-5.461 2.42-3.266 5.912-7.601 9.965-12.274 4.054-4.673 7.883-8.727 10.754-11.599 2.928-2.871 4.842-4.56 4.955-4.391zM108.774 99.57c.281-.282 5.292 4.279 9.853 11.26 4.56 6.982 6.756 13.4 6.362 13.513-.394.169-3.153-5.855-7.657-12.668-4.448-6.869-8.84-11.823-8.558-12.105zM123.356 187.064c-.282 0 .112-5.011-.113-13.119-.056-1.013-.056-2.083-.113-3.153a74.178 74.178 0 0 0-.225-3.434c-.112-2.365-.394-4.899-.675-7.545-.62-5.292-1.521-11.091-2.703-17.172-1.239-6.024-2.703-11.711-4.166-16.891a300.3 300.3 0 0 0-4.223-13.569 131.164 131.164 0 0 0-1.802-5.18 133.27 133.27 0 0 0-1.351-3.885c-.732-2.139-1.126-3.321-1.013-3.378.112-.056.675 1.07 1.576 3.153.45 1.014 1.013 2.309 1.633 3.829.619 1.52 1.295 3.209 2.027 5.123 1.464 3.773 3.04 8.389 4.56 13.513 1.52 5.18 3.041 10.866 4.279 16.947a182.715 182.715 0 0 1 2.646 17.285c.226 2.703.451 5.236.507 7.601.056 1.182.113 2.365.113 3.491v3.209c.056 2.027-.113 3.885-.169 5.461a61.28 61.28 0 0 1-.282 4.11c-.225 2.421-.45 3.66-.506 3.604zM103.706 192.751c-.112 0 .057-1.352.507-3.66.225-1.182.45-2.59.732-4.279.225-1.689.619-3.547.844-5.687.113-1.069.282-2.139.451-3.321.112-1.183.225-2.365.338-3.604.281-2.477.45-5.18.619-7.939.281-5.63.394-11.823.225-18.298a279.537 279.537 0 0 0-1.238-18.242c-.62-5.574-1.295-10.641-1.971-14.807-.282-2.084-.676-3.998-.957-5.687-.282-1.689-.507-3.097-.732-4.279-.394-2.365-.619-3.66-.507-3.66.113 0 .507 1.239 1.07 3.547.281 1.183.676 2.59 1.013 4.223.338 1.689.789 3.547 1.183 5.63.844 4.223 1.632 9.234 2.308 14.864a218.073 218.073 0 0 1 1.408 18.355c.169 6.531 0 12.781-.338 18.411-.225 2.815-.451 5.517-.788 7.995-.169 1.238-.282 2.477-.451 3.603-.169 1.126-.338 2.252-.507 3.322-.281 2.139-.731 3.997-1.069 5.687-.338 1.689-.676 3.096-.957 4.279-.732 2.308-1.07 3.547-1.183 3.547zM83.212 193.144c-.113 0-.17-1.351-.225-3.772-.057-2.421 0-5.912.169-10.247.337-8.671 1.294-20.607 3.378-33.613 2.083-13.062 4.898-24.717 7.263-32.993 1.182-4.167 2.533-7.432 3.716-9.572 1.182-2.139 2.026-3.153 2.14-3.153.112.056-.62 1.183-1.577 3.378-1.014 2.196-2.14 5.462-3.21 9.628-2.14 8.333-4.729 19.987-6.812 32.937-2.083 13.006-3.21 24.83-3.829 33.444-.281 4.279-.506 7.77-.62 10.191-.168 2.421-.28 3.772-.393 3.772zM65.026 182.052c-.113 0-.45-1.126-.507-3.322-.056-2.139.394-5.292 1.239-9.008 1.633-7.488 4.504-17.679 8.896-28.546 4.335-10.866 9.346-20.212 13.343-26.743a123.881 123.881 0 0 1 4.955-7.601c1.239-1.745 1.97-2.646 2.083-2.59.113.056-.45 1.126-1.576 2.928-1.07 1.858-2.646 4.504-4.504 7.826-3.716 6.643-8.502 15.99-12.837 26.743-4.336 10.754-7.32 20.832-9.234 28.208-1.013 3.66-1.576 6.644-1.69 8.783-.168 2.14 0 3.322-.168 3.322zM29.443 74.57c.056-.225 3.097 0 8.051.675 4.899.676 11.711 1.858 19.087 3.547 7.375 1.69 14.02 3.66 18.692 5.18 4.73 1.577 7.545 2.703 7.489 2.928-.057.225-3.04-.563-7.826-1.858-4.786-1.295-11.374-3.04-18.75-4.73-7.375-1.688-14.075-3.04-18.917-3.997-4.842-.9-7.826-1.52-7.826-1.745zM114.122 92.532c-.113-.169 2.421-2.027 6.925-4.392 4.448-2.42 10.866-5.18 17.96-8.051 3.548-1.464 6.926-2.871 9.91-4.223 2.984-1.407 5.686-2.702 7.882-3.885 4.392-2.42 6.925-4.166 7.094-3.997.113.113-2.252 2.252-6.531 4.898-2.139 1.352-4.786 2.76-7.826 4.28-3.04 1.463-6.362 2.927-9.909 4.39-7.094 2.872-13.569 5.462-18.073 7.602-4.561 2.083-7.263 3.603-7.432 3.378z" fill="#BCCED5"/><path d="M111.926 102.89c.113-.168 3.266 2.027 8.221 5.8 4.954 3.772 11.71 9.064 18.692 15.483 3.491 3.209 6.7 6.418 9.459 9.459 2.759 3.04 5.18 5.911 7.038 8.389.957 1.238 1.745 2.421 2.477 3.378a41.152 41.152 0 0 1 1.745 2.646c.901 1.464 1.352 2.308 1.295 2.365-.225.112-2.421-2.984-6.362-7.77a178.33 178.33 0 0 0-7.207-8.108 251.624 251.624 0 0 0-9.458-9.289c-6.926-6.363-13.569-11.824-18.355-15.765-4.786-3.885-7.714-6.419-7.545-6.588zM108.942 95.572c.056-.113 1.295.338 3.547 1.126 2.252.788 5.461 2.083 9.346 3.772 3.941 1.689 8.502 3.829 13.569 6.306 5.011 2.534 10.529 5.462 16.159 8.727 5.63 3.266 10.866 6.588 15.54 9.684 4.673 3.153 8.839 6.081 12.217 8.671 3.435 2.533 6.137 4.673 7.939 6.249 1.802 1.521 2.815 2.421 2.759 2.478-.057.056-1.183-.62-3.097-2.027-1.914-1.408-4.729-3.378-8.22-5.799-3.491-2.421-7.657-5.293-12.387-8.333-4.729-3.04-9.965-6.306-15.539-9.572a415.501 415.501 0 0 0-15.99-8.783 400.495 400.495 0 0 0-13.344-6.587c-3.828-1.802-6.981-3.266-9.121-4.223-2.252-.957-3.434-1.576-3.378-1.689zM109.449 93.15c0-.113 1.407-.17 3.885-.113h2.083c.788 0 1.576.112 2.477.169 1.802.112 3.829.225 6.024.563 1.127.112 2.309.281 3.491.45 1.239.169 2.478.394 3.773.62 2.589.394 5.348 1.013 8.276 1.576a264.66 264.66 0 0 1 18.636 4.898c13.062 3.941 24.773 7.995 33.275 10.641 4.279 1.352 7.713 2.421 10.134 3.097 2.421.732 3.716 1.182 3.66 1.295 0 .113-1.407-.169-3.828-.676-2.421-.506-5.969-1.464-10.248-2.646-8.614-2.365-20.381-6.249-33.387-10.191-6.531-1.97-12.781-3.66-18.523-5.01-2.872-.62-5.574-1.295-8.164-1.746-1.295-.225-2.534-.507-3.716-.676a243.56 243.56 0 0 1-3.435-.506c-2.196-.394-4.223-.563-5.968-.788-.901-.113-1.689-.17-2.421-.282-.732-.056-1.464-.113-2.083-.169-2.59-.225-3.941-.394-3.941-.507zM123.074 87.69c0-.112 1.126-.281 3.153-.507 1.014-.112 2.252-.281 3.716-.337 1.464-.113 3.097-.225 4.898-.338 3.66-.169 7.995-.225 12.837-.169 4.842.113 10.135.45 15.709 1.013 5.574.62 10.81 1.408 15.539 2.309 4.73.9 9.009 1.858 12.556 2.815 1.745.45 3.322.9 4.729 1.351a55.31 55.31 0 0 1 3.547 1.126c1.915.676 2.984 1.07 2.984 1.183-.056.225-4.391-.957-11.542-2.59-3.547-.789-7.769-1.69-12.499-2.478-4.729-.788-9.965-1.576-15.483-2.14-5.518-.562-10.81-.9-15.596-1.125-4.786-.17-9.121-.225-12.781-.17-7.263 0-11.767.282-11.767.057zM145.089 77.893c0-.17 2.421-.62 6.362-.901 3.941-.282 9.402-.394 15.427.056 6.024.394 11.429 1.239 15.314 2.083 3.885.789 6.193 1.52 6.137 1.746-.113.45-9.628-1.464-21.564-2.252-11.936-.901-21.62-.282-21.676-.732zM23.925 145.062c-.056-.282 4.448-1.351 11.486-3.885.9-.338 1.802-.676 2.759-1.014.957-.337 1.914-.788 2.927-1.182 2.027-.788 4.167-1.802 6.419-2.759a152.954 152.954 0 0 0 14.132-7.544c4.842-2.984 9.233-6.137 13.175-9.121 1.914-1.52 3.772-2.984 5.405-4.448.844-.732 1.633-1.408 2.42-2.083.733-.676 1.465-1.352 2.14-1.971 5.462-5.124 8.502-8.614 8.67-8.445.057.056-.618 1.013-1.913 2.646a64.292 64.292 0 0 1-2.478 2.928c-1.013 1.069-2.14 2.364-3.49 3.716l-2.084 2.083c-.732.732-1.52 1.407-2.364 2.139-1.633 1.52-3.435 3.041-5.35 4.617a138.5 138.5 0 0 1-13.23 9.346c-4.899 2.984-9.797 5.462-14.357 7.545-2.309.957-4.448 1.914-6.532 2.646-1.07.394-2.026.788-2.983 1.126-.958.338-1.915.619-2.816.901-1.801.619-3.434 1.013-4.898 1.408-1.408.394-2.703.675-3.716.9-2.196.338-3.322.563-3.322.451zM3.825 134.081c0-.113 1.295-.451 3.716-.957 1.182-.226 2.646-.564 4.335-.958 1.69-.394 3.66-.788 5.743-1.351 2.14-.507 4.448-1.126 6.925-1.858 2.478-.675 5.124-1.52 7.883-2.365 5.517-1.801 11.486-3.884 17.679-6.418 6.193-2.534 11.936-5.236 17.116-7.826 2.59-1.351 5.01-2.59 7.263-3.829a247.95 247.95 0 0 0 6.25-3.547c1.914-1.07 3.603-2.139 5.067-3.04a83.654 83.654 0 0 0 3.772-2.365c2.083-1.295 3.265-1.97 3.322-1.914.056.112-1.014.957-2.984 2.421-1.014.732-2.196 1.633-3.66 2.59-1.464.957-3.097 2.139-4.955 3.265-1.858 1.183-3.94 2.478-6.193 3.716-2.252 1.352-4.673 2.647-7.263 3.998a206.062 206.062 0 0 1-17.172 7.995c-6.25 2.533-12.274 4.617-17.848 6.362-2.815.788-5.461 1.633-7.939 2.196a122.516 122.516 0 0 1-7.038 1.633c-2.14.506-4.11.844-5.855 1.182-1.745.338-3.21.563-4.448.732-2.365.281-3.716.45-3.716.338zM8.048 115.614c0-.113 1.182-.394 3.322-.789 1.07-.168 2.364-.45 3.885-.731 1.52-.282 3.265-.62 5.123-1.014 3.829-.732 8.333-1.745 13.344-2.928a360.368 360.368 0 0 0 16.102-4.391 324.157 324.157 0 0 0 15.821-5.293 257.914 257.914 0 0 0 12.725-4.954 189.096 189.096 0 0 0 4.842-2.027c1.407-.563 2.646-1.126 3.66-1.577 2.026-.844 3.152-1.295 3.209-1.182.056.113-1.014.676-2.928 1.745a98.289 98.289 0 0 1-3.547 1.802c-1.408.676-2.984 1.464-4.786 2.252a184.1 184.1 0 0 1-12.668 5.236c-4.842 1.802-10.19 3.716-15.877 5.405-5.687 1.689-11.204 3.153-16.215 4.279-5.068 1.126-9.628 2.027-13.457 2.647-1.914.337-3.66.563-5.18.788-1.52.225-2.871.394-3.94.45-2.253.282-3.435.394-3.435.282zM9.287 98.723c.056-.112 1.013.056 2.759.45 1.745.282 4.279.676 7.488.789 3.153.112 6.925-.17 11.091-.845 4.167-.675 8.671-1.745 13.344-3.096 4.673-1.295 9.121-2.703 13.175-3.942a381.364 381.364 0 0 1 10.81-3.152c6.137-1.746 10.022-2.76 10.078-2.534.057.225-3.66 1.576-9.74 3.603a898.29 898.29 0 0 1-10.698 3.491c-4.053 1.295-8.445 2.703-13.174 4.054-4.73 1.351-9.29 2.42-13.513 2.984-4.223.619-8.108.788-11.373.563-3.266-.225-5.8-.788-7.545-1.295-1.801-.563-2.702-.957-2.702-1.07zM26.628 14.607c.056-.112 1.295.563 3.49 1.97 2.196 1.352 5.237 3.435 8.896 6.194 3.66 2.759 7.939 6.137 12.612 10.022 4.673 3.885 9.74 8.22 14.864 12.95 10.36 9.459 18.918 18.861 24.548 26.124a188.571 188.571 0 0 1 3.716 4.955c1.013 1.52 1.97 2.758 2.646 3.828 1.351 2.14 2.083 3.378 2.027 3.435-.113.056-.957-1.07-2.477-3.097-.789-1.013-1.746-2.252-2.872-3.66-1.126-1.407-2.42-3.04-3.885-4.785-5.799-7.038-14.413-16.272-24.716-25.674-5.124-4.73-10.135-9.065-14.752-13.006-4.617-3.941-8.783-7.432-12.33-10.247a208.966 208.966 0 0 0-8.614-6.588c-2.083-1.52-3.21-2.364-3.153-2.42zM43.406 5.488c.056-.112 1.239.563 3.266 1.858.506.338 1.07.676 1.689 1.07s1.238.845 1.97 1.351c1.408 1.014 3.04 2.084 4.73 3.435.844.675 1.745 1.351 2.702 2.083.957.732 1.858 1.52 2.815 2.365 1.97 1.576 3.941 3.49 6.081 5.405 4.11 3.941 8.502 8.558 12.668 13.625 4.166 5.124 7.77 10.303 10.81 15.145 1.464 2.478 2.872 4.786 4.054 7.038.62 1.126 1.182 2.196 1.745 3.266.507 1.07 1.014 2.083 1.464 3.04.957 1.915 1.69 3.772 2.365 5.349.338.788.676 1.52.901 2.196.225.675.506 1.295.675 1.914.845 2.252 1.239 3.547 1.126 3.603-.112.057-.675-1.182-1.689-3.378a43.612 43.612 0 0 0-.788-1.801 38.692 38.692 0 0 1-1.013-2.14c-.732-1.52-1.52-3.322-2.59-5.18-.507-.957-1.014-1.97-1.577-2.984-.563-1.013-1.182-2.083-1.801-3.21-1.239-2.195-2.647-4.503-4.167-6.924a172.54 172.54 0 0 0-10.81-14.92c-4.166-5.068-8.445-9.628-12.443-13.57-2.083-1.97-3.997-3.828-5.911-5.46-.958-.845-1.858-1.634-2.76-2.422-.9-.732-1.801-1.464-2.59-2.14-1.632-1.407-3.209-2.533-4.56-3.546-.675-.507-1.295-1.014-1.858-1.464-.62-.45-1.126-.788-1.632-1.183-1.915-1.463-2.928-2.308-2.872-2.42zM56.693 2.334c.056-.113.957.281 2.59 1.07.394.168.845.393 1.351.619.45.225 1.014.563 1.52.844 1.07.62 2.365 1.295 3.716 2.196.676.45 1.352.9 2.084 1.351.732.507 1.464 1.07 2.195 1.577 1.52 1.07 3.04 2.42 4.674 3.772 3.153 2.815 6.474 6.08 9.571 9.853 3.097 3.772 5.63 7.657 7.77 11.373 1.013 1.858 1.97 3.604 2.758 5.349.395.844.789 1.689 1.127 2.477.337.788.619 1.577.957 2.309.62 1.463 1.013 2.871 1.407 4.053.17.62.394 1.183.563 1.69.113.506.225 1.013.338 1.463.45 1.746.62 2.703.507 2.703-.282.056-1.351-3.716-3.829-9.515a88.325 88.325 0 0 1-1.013-2.252c-.338-.789-.788-1.577-1.183-2.421-.788-1.69-1.801-3.379-2.815-5.18-2.14-3.547-4.73-7.376-7.713-11.092-3.04-3.716-6.25-6.981-9.346-9.796-1.577-1.352-3.04-2.703-4.504-3.83-.733-.562-1.408-1.125-2.14-1.632-.676-.507-1.351-.957-2.027-1.464-5.18-3.434-8.67-5.236-8.558-5.517zM19.534 33.413c.056-.056 1.07.676 2.815 2.14 1.745 1.464 4.279 3.547 7.375 6.137 6.25 5.123 15.033 12.105 25.055 19.255C64.8 68.095 74.203 74.177 81.129 78.4c3.434 2.083 6.25 3.829 8.163 5.011 1.915 1.182 2.984 1.914 2.928 1.97-.056.113-1.182-.45-3.21-1.463-2.026-1.014-4.897-2.59-8.445-4.617-7.037-3.998-16.609-9.965-26.687-17.172C43.8 54.92 35.073 47.827 28.992 42.422c-3.04-2.703-5.461-4.898-7.094-6.475-1.576-1.576-2.42-2.477-2.364-2.534zM18.126 45.518c.169-.169 2.646 2.084 6.756 5.63A367.12 367.12 0 0 0 41.21 64.606a392.7 392.7 0 0 0 17.116 12.386c4.504 3.04 7.263 4.899 7.15 5.068-.112.169-3.096-1.352-7.77-4.167-4.672-2.815-10.922-6.981-17.453-12.048-6.587-5.068-12.218-10.078-16.103-13.85-3.94-3.83-6.193-6.307-6.024-6.476zM109.337 88.534c-.057-.113 1.126-.9 3.04-2.477 1.97-1.633 4.617-4.11 7.488-7.601 2.872-3.491 5.912-7.939 9.065-13.062 3.153-5.124 6.475-10.81 9.684-16.948 6.418-12.273 10.923-24.04 13.625-32.711.676-2.14 1.239-4.167 1.745-5.856.451-1.745.845-3.265 1.183-4.448.619-2.477 1.013-3.828 1.126-3.828.112 0-.056 1.407-.507 3.941-.225 1.239-.563 2.759-.957 4.56-.45 1.746-.901 3.773-1.52 5.969-2.421 8.839-6.813 20.719-13.288 33.105a209.547 209.547 0 0 1-9.853 17.004c-3.209 5.123-6.418 9.571-9.458 13.006-3.041 3.434-5.856 5.912-7.939 7.375-2.14 1.464-3.434 2.084-3.434 1.97z" fill="#BCCED5"/><path d="M112.039 90.336c-.169-.225 3.772-3.21 9.684-8.558.732-.676 1.52-1.408 2.308-2.14.788-.732 1.577-1.576 2.421-2.364 1.689-1.633 3.435-3.435 5.236-5.349a180.898 180.898 0 0 0 11.036-13.062c3.659-4.842 6.869-9.684 9.684-14.132 1.351-2.252 2.646-4.392 3.772-6.475.563-1.013 1.126-2.027 1.633-2.984.507-.957.957-1.914 1.407-2.759 3.604-7.094 5.462-11.71 5.687-11.598.113.056-.282 1.239-1.014 3.322-.394 1.07-.844 2.364-1.463 3.828-.62 1.464-1.295 3.153-2.196 4.955-.451.9-.901 1.858-1.351 2.871-.451.958-1.014 1.97-1.577 3.04-1.07 2.084-2.365 4.28-3.66 6.588-2.702 4.56-5.968 9.459-9.684 14.357-3.716 4.899-7.601 9.29-11.26 13.119-1.858 1.914-3.604 3.716-5.405 5.292-.845.788-1.689 1.577-2.534 2.309-.844.731-1.633 1.407-2.365 2.083-1.52 1.351-2.927 2.42-4.222 3.434a47.346 47.346 0 0 1-3.266 2.421c-1.801 1.239-2.815 1.914-2.871 1.802zM116.6 90.842c-.113-.225 3.828-1.97 9.965-5.349 1.52-.844 3.209-1.801 4.898-2.871 1.746-1.013 3.604-2.252 5.518-3.49 3.772-2.59 7.882-5.575 11.936-8.953 4.054-3.434 7.714-6.925 10.923-10.19 1.576-1.69 3.097-3.266 4.392-4.843a101.244 101.244 0 0 0 3.659-4.335c4.392-5.405 6.756-9.008 6.982-8.84.112.057-.451 1.014-1.464 2.703a49.231 49.231 0 0 1-1.914 2.984c-.789 1.126-1.633 2.477-2.759 3.829-1.07 1.407-2.196 2.927-3.547 4.504-1.295 1.633-2.759 3.21-4.336 4.955-3.153 3.378-6.869 6.925-10.922 10.416-4.11 3.434-8.277 6.418-12.162 8.952-1.97 1.238-3.828 2.42-5.63 3.434a118.75 118.75 0 0 1-5.067 2.703c-1.52.844-2.984 1.463-4.279 2.026-1.239.563-2.365 1.014-3.266 1.408-1.858.732-2.927 1.07-2.927.957zM108.154 88.533c-.113 0-.169-1.239 0-3.491s.619-5.518 1.576-9.403c.958-3.94 2.421-8.501 3.998-13.512a477.505 477.505 0 0 1 5.574-16.328c4.223-11.486 9.008-21.564 13.006-28.545 1.97-3.491 3.772-6.25 5.067-8.052 1.295-1.858 2.083-2.815 2.14-2.758.112.056-.507 1.126-1.633 3.096-1.126 1.914-2.703 4.73-4.617 8.277-3.716 7.037-8.277 17.116-12.499 28.601-2.14 5.743-3.998 11.205-5.687 16.272-1.689 5.01-3.209 9.515-4.279 13.344-1.07 3.828-1.689 6.981-2.027 9.177-.338 2.083-.45 3.322-.619 3.322zM102.974 66.464c-.112 0 0-1.014.338-2.76.338-1.745.844-4.222 1.633-7.319 1.52-6.136 4.054-14.582 7.601-23.59 1.745-4.505 3.659-8.727 5.461-12.5 1.802-3.772 3.603-7.15 5.349-9.796 1.745-2.646 3.378-4.673 4.616-5.968 1.239-1.295 2.027-1.915 2.084-1.802.169.169-2.59 2.928-5.8 8.333-3.209 5.405-6.756 13.4-10.303 22.296-3.547 8.952-6.193 17.228-7.995 23.309-1.802 6.08-2.759 9.853-2.984 9.797zM402.672 421.28l1.746-1.633c-63.622-67.281-119.531-91.885-155.226-100.612-38.793-9.515-62.215-3.153-63.172-2.872l.676 2.309c.225-.057 23.872-6.475 62.158 2.927 35.301 8.671 90.703 33.106 153.818 99.881z" fill="#BCCED5"/><path d="M175.323 315.487c-3.547.845-7.207 2.253-10.416 4.054-2.534 1.408-10.472 7.657-6.588 11.261 1.014.957 2.647.844 3.998.619 8.558-1.407 16.215-5.912 23.647-10.36 1.239-.731 2.534-1.351 3.829-2.083 1.126-.619 2.984-1.407 3.716-2.533.957-1.577-2.478-2.027-3.322-2.14-2.478-.394-4.842-.338-7.32-.112a61.845 61.845 0 0 0-7.544 1.294zM212.201 309.745c-2.984-2.139-5.799-4.898-8.051-7.769-1.746-2.252-6.644-11.148-1.746-12.95 1.351-.45 2.759.225 3.941.957 4.842 3.041 8.671 7.207 12.331 11.599 3.096 3.659 6.249 7.263 9.008 11.147.619.901 2.646 3.041 1.182 4.054-.844.62-2.589 0-3.49-.225-2.421-.619-4.617-1.52-6.813-2.759-2.196-1.182-4.279-2.59-6.362-4.054zM284.831 325.849a41.85 41.85 0 0 1-4.673-10.191c-.844-2.759-2.195-12.78 3.041-12.668 1.407.057 2.477 1.183 3.322 2.309 3.434 4.616 5.461 9.853 7.319 15.258 1.576 4.504 3.209 9.008 4.392 13.625.281 1.07 1.351 3.772-.395 4.223-1.013.225-2.421-.958-3.153-1.464-2.026-1.464-3.716-3.097-5.348-5.011-1.633-1.915-3.097-3.941-4.505-6.081zM343.443 361.037c-1.464-3.378-2.534-7.151-2.984-10.81-.395-2.872-.113-12.95 5.067-11.993 1.407.282 2.252 1.577 2.928 2.815 2.646 5.068 3.828 10.642 4.785 16.215.788 4.73 1.689 9.403 2.083 14.189.113 1.07.732 3.941-1.069 4.11-1.014.112-2.196-1.295-2.872-1.971-1.801-1.745-3.153-3.659-4.448-5.799-1.351-2.196-2.477-4.448-3.49-6.756zM226.22 338.29c-.957 1.52-1.745 3.491-.788 5.011.732 1.126 2.252 1.52 3.603 1.295 1.295-.225 2.477-1.013 3.603-1.745 4.73-3.322 9.009-7.263 13.063-11.374 2.027-2.083 4.279-3.941 6.193-6.08 1.07-1.183 3.04-3.041 2.703-4.673-5.349-.394-10.754 2.59-14.977 5.574-4.955 3.49-10.022 6.7-13.4 11.992zM291.193 361.32c-1.351 1.126-2.759 2.815-2.252 4.56.338 1.295 1.689 2.14 3.041 2.309 1.351.169 2.646-.225 3.941-.62 5.517-1.745 10.81-4.166 15.877-6.925 2.534-1.351 5.236-2.477 7.77-3.885 1.351-.788 3.828-1.97 3.997-3.659-5.011-1.971-11.035-.789-15.933.788-5.8 1.858-11.655 3.434-16.441 7.432zM336.461 396.395c-1.352 1.183-2.647 2.872-2.14 4.617.394 1.295 1.745 2.083 3.097 2.196 1.351.113 2.646-.281 3.941-.732 5.461-1.914 10.641-4.448 15.652-7.319 2.534-1.464 5.18-2.59 7.657-4.11 1.351-.845 3.772-2.027 3.941-3.716-5.067-1.858-11.035-.451-15.933 1.238-5.743 1.971-11.542 3.66-16.215 7.826zM285.394 333.281l.282-1.182c-.169-.057-16.666-4.167-38.004 9.008l.619 1.014c20.888-12.837 36.934-8.896 37.103-8.84z" fill="#BCCED5"/><path d="M244.688 344.768c1.238 1.295 3.322 1.351 4.617.113 1.295-1.239 1.351-3.266.112-4.617-1.238-1.295-3.322-1.351-4.617-.113-1.238 1.295-1.351 3.322-.112 4.617zM344.962 368.357l.282-1.182c-.169-.056-16.666-4.167-38.004 9.008l.619 1.014c20.888-12.894 36.934-8.896 37.103-8.84z" fill="#BCCED5"/><path d="M304.312 379.844c1.238 1.295 3.265 1.351 4.617.113 1.295-1.239 1.351-3.322.112-4.617-1.238-1.295-3.322-1.351-4.617-.113-1.295 1.239-1.351 3.322-.112 4.617zM380.377 398.422l.282-1.182c-.169-.057-16.666-4.167-37.948 9.008l.619 1.014c20.832-12.837 36.934-8.84 37.047-8.84z" fill="#BCCED5"/><path d="M339.726 409.964c1.239 1.295 3.266 1.352 4.617.113 1.295-1.239 1.351-3.266.113-4.617-1.239-1.295-3.266-1.351-4.617-.112-1.295 1.238-1.351 3.265-.113 4.616zM216.536 291.728c1.239 1.295 3.266 1.352 4.617.113 1.295-1.239 1.351-3.265.113-4.617-1.239-1.295-3.322-1.351-4.617-.112-1.295 1.238-1.351 3.322-.113 4.616z" fill="#BCCED5"/><path d="M246.996 319.992l.337-1.126c-.169-.056-15.201-4.898-27.25-28.883l-1.07.563c12.33 24.435 27.363 29.277 27.983 29.446zM298.175 312.504c.563 1.52 2.196 2.364 3.772 1.801 1.52-.563 2.365-2.195 1.802-3.772-.563-1.52-2.196-2.365-3.772-1.802-1.52.507-2.309 2.196-1.802 3.773z" fill="#BCCED5"/><path d="M312.926 347.128l.732-.844c-.113-.113-10.754-9.684-11.824-33.951l-1.069.057c1.069 24.773 11.711 34.344 12.161 34.738zM357.631 350.79c.338 1.577 1.858 2.646 3.491 2.308 1.576-.337 2.646-1.858 2.308-3.49-.338-1.577-1.858-2.647-3.491-2.309-1.576.338-2.646 1.915-2.308 3.491z" fill="#BCCED5"/><path d="M368.44 386.372c-.112-.112-9.346-11.035-7.206-35.245l-1.07-.113c-2.196 24.717 7.094 35.64 7.488 36.09l.788-.732zM436.792 45.518l1.858 1.463c-56.978 72.969-110.353 102.696-145.035 114.801-37.723 13.119-61.595 9.009-62.609 8.84l.451-2.365c.225.056 24.379 4.223 61.595-8.783 34.344-12.049 87.213-41.551 143.74-113.956z" fill="#BCCED5"/><path d="M220.421 172.199a39.92 39.92 0 0 1-10.754-3.097c-2.646-1.182-11.147-6.644-7.657-10.585.957-1.07 2.534-1.126 3.942-1.013 8.614.619 16.665 4.391 24.491 8.107 1.295.62 2.646 1.126 3.998 1.689 1.182.507 3.096 1.126 3.885 2.14 1.126 1.464-2.253 2.252-3.097 2.477-2.421.619-4.786.788-7.263.788-2.534.057-5.067-.169-7.545-.506zM257.694 174.451c-2.759 2.421-5.293 5.405-7.263 8.502-1.52 2.421-5.574 11.711-.507 13.006 1.351.338 2.759-.451 3.829-1.351 4.56-3.491 7.938-7.995 11.204-12.668 2.702-3.942 5.517-7.827 7.882-11.937.563-.957 2.365-3.265.788-4.166-.901-.507-2.59.225-3.434.563-2.365.845-4.448 1.971-6.531 3.378-2.083 1.464-4.054 3.041-5.968 4.673zM328.522 151.59a40.797 40.797 0 0 0-3.716 10.585c-.563 2.815-.957 12.95 4.223 12.331 1.407-.169 2.364-1.408 3.096-2.647 2.984-4.898 4.505-10.359 5.856-15.877 1.126-4.617 2.308-9.29 3.04-14.019.169-1.07 1.014-3.885-.788-4.167-1.014-.169-2.309 1.183-2.984 1.746-1.914 1.632-3.435 3.434-4.842 5.517a51.144 51.144 0 0 0-3.885 6.531zM268.954 144.721c-1.126-1.407-2.083-3.321-1.239-4.954.619-1.183 2.083-1.746 3.435-1.633 1.351.113 2.589.732 3.716 1.408 5.01 2.871 9.684 6.362 14.075 10.078 2.196 1.858 4.617 3.49 6.756 5.461 1.183 1.07 3.322 2.703 3.153 4.392-5.292.9-10.922-1.577-15.426-4.167-5.237-2.871-10.642-5.63-14.47-10.585zM331.506 115.671c-1.464-1.014-2.984-2.534-2.703-4.335.226-1.295 1.464-2.253 2.816-2.59 1.295-.282 2.702-.057 3.997.225 5.63 1.182 11.148 3.153 16.44 5.405 2.647 1.126 5.462 1.97 8.108 3.153 1.408.675 3.997 1.576 4.335 3.209-4.785 2.421-10.922 1.802-15.933.732-5.968-1.239-11.937-2.252-17.06-5.799zM373.226 76.485c-1.464-1.07-2.928-2.646-2.533-4.391.281-1.295 1.52-2.252 2.871-2.477 1.295-.282 2.703 0 3.997.337 5.631 1.352 11.036 3.435 16.272 5.856 2.646 1.182 5.405 2.083 7.995 3.378 1.407.675 3.941 1.689 4.279 3.378-4.842 2.308-10.923 1.52-15.99.282-5.912-1.52-11.824-2.647-16.891-6.363zM328.297 144.16l.394 1.126c-.169.056-16.215 5.686-38.68-5.349l.507-1.07c22.014 10.811 37.667 5.349 37.779 5.293z" fill="#BCCED5"/><path d="M286.746 136.56c1.126-1.408 3.152-1.689 4.56-.563 1.408 1.126 1.689 3.153.563 4.56-1.126 1.408-3.153 1.689-4.56.563a3.29 3.29 0 0 1-.563-4.56zM384.374 103.621l.394 1.126c-.169.057-16.215 5.687-38.679-5.348l.506-1.07c22.015 10.81 37.61 5.349 37.779 5.292z" fill="#BCCED5"/><path d="M342.766 96.021c1.126-1.407 3.153-1.689 4.561-.563 1.407 1.126 1.689 3.153.563 4.561-1.126 1.407-3.153 1.689-4.561.563a3.292 3.292 0 0 1-.563-4.561zM416.805 70.29l.394 1.126c-.169.057-16.215 5.687-38.68-5.349l.507-1.07c21.958 10.81 37.61 5.35 37.779 5.293z" fill="#BCCED5"/><path d="M375.197 62.69c1.126-1.407 3.153-1.689 4.56-.563 1.408 1.126 1.689 3.153.563 4.56-1.126 1.408-3.153 1.69-4.56.564-1.408-1.07-1.633-3.153-.563-4.56zM263.718 192.016c1.126-1.407 3.153-1.689 4.56-.563 1.408 1.126 1.69 3.153.563 4.561-1.126 1.407-3.153 1.689-4.56.563-1.408-1.126-1.689-3.153-.563-4.561z" fill="#BCCED5"/><path d="M291.419 160.993l.45 1.126c-.169.057-14.639 6.306-24.379 31.361l-1.126-.451c9.909-25.561 24.435-31.811 25.055-32.036zM343.048 163.639a2.92 2.92 0 0 1 3.547-2.14 2.92 2.92 0 0 1 2.14 3.547 2.92 2.92 0 0 1-3.547 2.14c-1.577-.338-2.534-1.971-2.14-3.547z" fill="#BCCED5"/><path d="M354.477 127.775l.788.732c-.112.112-9.796 10.641-8.614 34.964l-1.07.056c-1.238-24.829 8.446-35.302 8.896-35.752zM322.442 254.119c-3.378-.844-6.869-1.745-10.472-2.646l-25.337 13.175a95.488 95.488 0 0 0 11.43 4.617l24.379-15.146zM310.055 251.025c-5.01-1.239-10.19-2.534-15.426-3.885l-25.393 7.657c5.574 3.66 10.867 6.7 15.877 9.121l24.942-12.893zM333.815 256.992c-3.041-.732-6.25-1.576-9.628-2.421l-24.548 15.258c3.66 1.126 7.15 1.971 10.472 2.534l23.704-15.371zM268.504 240.551a4710.84 4710.84 0 0 1-25.674-6.587c4.335 3.941 8.502 7.544 12.555 10.753l13.119-4.166zM254.653 229.686a154.53 154.53 0 0 0-10.416 3.322c5.124 1.295 10.585 2.702 16.272 4.166l-5.856-7.488zM292.151 246.519c-7.094-1.802-14.244-3.603-21.282-5.405l-14.245 4.561a174.081 174.081 0 0 0 11.205 8.163l24.322-7.319zM318.5 251.812c3.66.901 7.207 1.802 10.529 2.646l-19.987-30.516c-3.548-.45-7.151-.619-10.754-.675l20.212 28.545zM319.514 225.912a63.09 63.09 0 0 0-8.727-1.801l20.156 30.741c2.703.675 5.293 1.295 7.657 1.914l-19.086-30.854zM347.046 260.256l-20.72 12.781c16.328-1.52 25.111-9.74 26.237-11.429-1.576-.394-3.434-.845-5.517-1.352zM302.06 247.702c4.955 1.239 9.853 2.477 14.526 3.66l-19.875-28.095c-2.759 0-5.517.112-8.276.337l13.625 24.098zM340.402 257.272c4.842 1.183 8.952 2.252 12.105 2.984-4.279-19.255-16.384-29.221-31.079-33.781l18.974 30.797zM345.301 259.807c-2.872-.732-6.137-1.52-9.741-2.421l-23.534 15.258c4.166.563 7.995.732 11.542.62l21.733-13.457zM262.648 237.737c7.094 1.802 14.47 3.66 21.846 5.574l-12.894-17.51c-5.799 1.07-11.148 2.365-15.539 3.547l6.587 8.389zM286.464 243.76c4.673 1.182 9.29 2.364 13.851 3.49l-13.288-23.59c-4.842.394-9.571 1.069-14.019 1.801l13.456 18.299zM288.378 607.138a10.584 10.584 0 0 1 11.092 10.078 10.585 10.585 0 0 1-10.078 11.091 10.584 10.584 0 0 1-11.092-10.078c-.281-5.855 4.223-10.866 10.078-11.091zM92.952 349.835c4.223-.225 7.826 3.04 7.995 7.319.225 4.223-3.04 7.826-7.319 7.995-4.223.225-7.826-3.04-7.995-7.319-.169-4.223 3.097-7.826 7.32-7.995zM57.2 560.631c4.223-.225 7.826 3.04 7.995 7.319.225 4.223-3.04 7.826-7.32 7.995-4.222.226-7.825-3.04-7.994-7.319-.169-4.223 3.097-7.826 7.32-7.995z" fill="#BCCED5"/></svg>