<svg width="330" height="53" viewBox="0 0 330 53" fill="none" xmlns="http://www.w3.org/2000/svg"><path d="M8.722 17.844c.1-.06.426.13.724.431l.313.23.213.151c.199-.22.469-.501.582-.612h.114l.468-.01c.512.12.81.231.654.241-.157.02-.682.29-.696.562-.014.26.07 1.032.241.802.156-.23.64-.622.739-.411l.142.14c.298.31 1.32.28 1.59-.04l.057-.07c0-.1-.085-.351-.199-.562-.113-.21-.284-.862-.128-.972.157-.1.725-.392.668-.221-.057.17.028.572.326.511.285-.06 1.194-.44 1.18-.681l.056-.251c.014-.09.17-.23.284-.24l.128-.01c.156.09.909.48 1.662.871l.681-.11.355-.06c.213.15.128.31-.213.361-.326.05.043.652.668.491l.198-.28.213-.291c-.127-.522-.014-.843.256-.722.284.12 1.278.571 1.633.712l.17-.05c.1-.03.214-.06.299-.09l.057-.02c.042-.04.355.11.681.32.327.22-.397 1.504-.369 1.565l.029.01.27.05c.298.04.78-.15 1.065-.441l.028-.261.028-.291c.142-.26.426-.572.611-.692.199-.12-.738-.622-.866-.622s-.497-.18-.227-.37c.27-.191.965-.753.965-.853v-.09c0-.04-.014-.11.015-.13.227-.131.44-.332.695-.372.341-.04.696.01.938-.25.255-.291.454-.17.795-.01l.256.12c.44-.04.411-.381-.086-.752l-.042-.542-.029-.35c-.355.15-.681.1-.738-.12l-.057-.201v-.01c-.1 0-.27-.201-.398-.452l-.127-.23c-.043-.09.198-.391.355-.482l.213-.13c.27-.19.497-.22.525-.06.028.16.426.491.838.26.398-.23 1.32-1.173 1.647-1.303l.043.21c.1.442.213.522.767.291.426-.18.923-.29 1.406-.35.284-.04.667-.121.78.31.044.2.54.361.853.492.1.04.426-.02.454-.09.285-.572 1.037-.662 1.634-.913l.553-.24c-.056-.472-.212-.733-.355-.582-.142.15-.624.14-.766-.351l-.2-.422c-.099-.21-.369-.47-.624-.521l-.213-.04c-.341.22-.511.431-.37.471.143.05.427.21.285.26-.142.041-.384.242-.085.282l.141.08.1.06c.014.15-.085.27-.213.26l-.114.02-.483.101c-.525.13-1.107.391-1.306.582l-.37-.18a1.48 1.48 0 0 0-.596-.121l-.78.03c.084-.341.226-.672.326-.752l-.015-.06a.583.583 0 0 0-.184-.331c-.057-.04-.256-.04-.341 0l-.241.13c-.27.2-.81-.17-1.207-.822l-.824.14-.625.14c-.739.352-1.605.372-1.946.05l-.355-.15-.369-.15c-.582-.05-.64-.421-.1-.832l.853.3.255.09c.469-.26.952-.56 1.051-.691.085-.11 1.023.29 1.52.582l.81-.512.141-.08c.2-.14.142-.27-.128-.29-.27-.031-1.15-.161-.951-.222.199-.05.597-.36.483-.571-.114-.21-.227-.832.1-.722l.212.1.341.17c.27.271.483.542.469.612l-.014.06-.029.09c-.028.101.142.151.384.111l.113-.1c.085-.08 0-.26.043-.381l.1-.331c.34.08.525.3.411.501-.113.2-.44.752-.44.782 0 .03.184.1.426.11.241.01.753-.12.653-.29l.029-.12.042-.191c.597.01 1.221-.28 1.392-.632l-.71-.24c-.1-.04-.412.06-.426.12-.029.12.07.371.142.371l.34.01c.1.19.299.451.455.572.156.12-.398-.321-.767-.472-.369-.16-.966-.44-1.022-.521-.057-.08.142-.351.525-.461.384-.11 1.42-.452 1.42-.482 0-.03-.298-.13-.653-.15l-.27-.08c-.298-.09-.568-.261-.824-.412l-.056-.03c.028-.12.17-.22.312-.22l.114.02.412.08c.454.03 1.235-.21 1.746-.521l.696.2.554.16c.71-.07 1.108 0 .895.151-.213.15-.37.511.113.481.483-.02 1.023-.892 1.066-.922.042-.03.54-.16.965-.2l.384.06c.369.05.724.18 1.093.28l.057.01c.128.01.227.17.227.341-.014.17.17.762.44.642.256-.11.91-.31.952-.23.043.08.355.3.44.07.071-.231-.028-.793-.028-1.073 0-.281.284-.773.469-.642.17.14.909.27 1.193-.05l.227-.03c.838-.12 1.746-.04 2.513-.261.654-.19 1.009-.19 1.435.2l.27.241c.241-.21.54-.471.653-.592l.128-.02.894-.1c1.037-.1 1.903-.05 1.932.1.028.15.397.532.738.552.355.02.952-.722 1.264-.913l.242-.18c.369-.26.44.12.596.22.398.261.653.402.824-.13.1-.29.369-.21.667-.09.412.17.923.561 1.15-.17.029-.08.611-.13.91-.09.837.12 1.008.14 1.576-.01.312-.091.582-.252.98-.01.17.1.71-.131 1.08-.211l.624-.13c.156.37.412.6.554.51.142-.09.625-.22.639-.01.028.211.156.492.256.201.099-.29.767-.862.909-.712.142.15.894.371 1.263.09l.355-.08c.64-.14 1.335-.17 2.003-.23.966-.09 1.988.28 2.925-.15.043-.02.228.07.228.1-.1.591.738.4 1.065.641.17.12.81-.12 1.25-.2l.056-.01c.071.01 0 .18-.156.4-.156.211-.156.833.34.893.498.06 1.79-.17 1.918-.17h.227c.128 0 .654.28 1.165.621l.44-.44.355-.372c-.525-.25-.965-.622-.994-.822-.028-.2.37-.602.952-.331l.61-.431c.085-.06.497.12.739.2l.298.09c.199-.15.412-.31.497-.36.085-.05.483-.12.724-.06.227.06 1.094-.191 1.321-.331.227-.14 1.449.19 2.116.11l.37-.2c.127-.07.425-.131.454-.111l.426.541c.795.01 1.661.05 1.917.08l.213-.05c1.534-.39 2.997-.631 4.076-.39l.653.15c.54-.17 1.32-.22 1.761-.13l.384-.05.355-.04c.355-.221 1.065-.432 1.562-.452l.483.24c.369.191 1.093.231 1.505.091.653-.24 1.108-.19 1.747.01.426.13 1.079-.16 1.605-.13l1.079.07c.667-.12 1.363-.22 1.534-.23.17-.01.724.03.61.11-.099.06-.142.29.057.38l.085-.04.299-.13c.284-.19.582-.29.639-.23l.057.06c.227.24-.64.37-.157.571l.313.13c.099-.26.213-.52.255-.571h.029l.326.02c.37.04.796-.03.952-.15.156-.12.596-.03.625.44l.852-.41c.241-.12.753-.18.937-.07.313.17.455.18.653-.03.256-.261.427-.211.796-.03l.468.23c.071-.361.469-.501.867-.31.397.19 2.031.45 2.726.17l.782.04c.454.02.923-.09 1.391-.08.455.01.909.15 1.349.14l.441-.01c.454-.1 1.278-.21 1.832-.24l.326.11.455.15c.383-.09.937-.08 1.221.02.284.1 1.392-.04 1.747 0l.369-.09c.227-.06.582.18.909.24.071.01.213-.15.313-.23l.085-.07c.085-.09.511-.17.937-.191.426-.02 1.505.622 1.804.712.298.09 1.335.09 1.491 0 .142-.09.61-.29.639-.21.014.09.156.31.27.34l.028-.02c.384-.29.781-.441 1.378-.441h.568c.625-.22 1.235-.381 1.363-.35v.02c.014.44.213.57.739.28l.071-.04c.099-.01.596.03 1.121.08.512.05 2.088-.22 2.344-.09.255.14 1.051.451 1.15.38.114-.07.611-.23.739-.09.127.141 1.136.281 1.945-.01.81-.29 3.309.06 3.409-.02.113-.08.497-.27.582-.24l.071.03c.27.11.298.501.923.21.369-.17 1.164.14 1.747.261.142.03.284.24.369.22.426-.09.54-.741 1.278-.33l.313.17c.497-.01 1.732-.1 2.726-.2h.909c.724 0 1.463-.04 2.23.18l.483.14c.795-.3 1.249-.37 1.008-.16-.256.22.611.562.525.692v.12l.015.14c.099.151.284.242.383.201.1-.04.355-.48.483-.842l.241-.25c.228-.241.526-.612 1.137-.211.198.13.795-.08 1.207-.12l.383-.04c.44.05.994.09 1.221.09.242 0 1.108.06 1.662-.08l.511.29.625.361c.313-.41.71-.531.852-.27l.156.01.824.07c-.071-.462-.113-.762-.085-.682.028.08.554.36 1.065.32l.384.131.468.16c.398-.12.824-.23.923-.23l.043-.04.113-.11c.086-.14.54-.352.995-.472l.198.461.043.09c.241.04.696.101 1.037.131.326.03 1.122.3 1.178.19.057-.11.469-.06.796.301l.625-.2c.298-.09.568-.26.894-.341l.171-.04c.227.06.596.09.838.08.241-.01.894.31 1.022.461.128.15.795.281 1.193-.06l.653.07c.157.02.355-.4.568-.42.299-.03.611.17.938.2l.823.09c.81-.331 1.548-.411 1.648-.17.099.24.682.842 1.065.802.398-.04 1.278-.582 1.406-.572l.085-.04.511-.22c.398.23 1.122.39 1.619.34l.455-.04c.227-.02.468-.01.696.03l.795.14c.369-.23.71-.28.753-.1l.028.14.028.121c.043.18.597.12 1.236-.12l.497-.25c.142-.071-.653-.272-.028-.392.412-.08.369.361.44.371.511.11.909.782 1.619.21.071-.06.582.261.88.251l1.037-.03a64.54 64.54 0 0 1 2.911-.12l.313.15c.554.261.696.14.795-.27l.014-.04c.313 0 1.023.09 1.577.19l.497.02c.653.03 1.363.05 1.775.17l.199.05c.227.04.341-.03.27-.17l-.029-.13c0-.02.213-.12.27-.1.199.06.412.15.568.26.313.23.554.462 1.008.11.128-.09.455-.02.654-.08.341-.09.639-.29.937.07l.17.211c.299.2.711.29.924.2l.127-.08c.654-.42 1.364-.521 2.216-.31.525.13 1.037.46 1.69.08.255-.15.88-.1 1.207.03.312.12.568.32.923.25l.369-.08c.327-.13.568-.35.526-.481-.043-.13.085-.461.369-.451l.128.1.255.2c.199.281.654.552.98.612.341.06 1.477-.2 1.79-.29.326-.09 1.235.39 1.392.541.156.15.923-.06 1.136.08l.369-.26.256-.181c.454.21 1.036.371 1.292.371s.753-.31.909-.1c.156.2 1.079.1 1.463.03.383-.07 1.619.36 2.002.38.398.02 1.221-.29 1.434-.39l.015.02c.383.35.795-.02 1.136.04l.412.07c.426.24.781.14.809-.23l.667.18c.398.1.838.11 1.222.18.823.161 1.576.311 2.215-.26l.085-.08 1.534-.07.568.33.455.261c.199-.431.44-.682.539-.562.1.12.526.542.767.702l.284-.27.966-.251c.383.17.767.33 1.136.511.511.251.937.361 1.463-.06l.327-.26c.582.06 1.249.17 1.477.24.227.07.695-.37.866-.39l.028.04.114.14c.085.19.44.23.795.08l.341-.04c.256-.03.596.16.838.11.355-.08.611-.451 1.022-.05.199.2.526-.351.781.04.029.04.554-.01.569-.05.156-.652.44-.331.908-.16l.54.18c.724-.03 1.69.07 2.145.23l.468-.29c.029-.02.256.09.256.13 0 .12-.043.27-.142.341l-.1.07c-.227.01-.34.11-.241.22.085.101.951.181 1.605-.19.653-.37 2.087-1.544 2.116-1.373.028.17.653.541 1.349.541l.596.01c.625.01 1.25-.3 1.832.14l.057.05a57.52 57.52 0 0 1 2.031-.13l.866-.11c.384-.05.753-.22 1.122-.21.313 0 .625.26.909.24l.369-.02c.441-.19 1.165-.321 1.605-.31.44.02 1.591.42 1.96.1l.653.08.37.05a16.11 16.11 0 0 1 1.32-.321l.114.08c.596.421 1.363.16 1.988.32l.597.161c.625-.1 1.576-.08 2.116.05l.554.01c.241 0 .482.161.738-.03l1.889-.26c.085.02.17.03.255.05.015 0 1.037-.09 1.051-.09l.313.04c.369-.03.88.01 1.122.08.241.07 1.15-.19 1.377-.27.228-.081 1.165.2 1.548.3l.398-.2c.256-.13.724-.05.937-.201l.199-.14c.114-.291.213-.381.199-.201l.071.14c.057.12.227.271.383.301.242.06.469-.41.824-.02l.099.11c.398-.02.767-.16.796-.31.042-.15.326-.281.582-.04.256.23 1.065.721 1.278.591.213-.13.682.421.781.662l.327-.11c.156-.05.17-.361.255-.552l.015-.04c.028-.04.625-.18 1.349-.31l.653-.081.696-.08c.767-.1 1.747-.22 2.159-.271.426-.05 1.576.371 1.789.32l.213-.03.327-.04c.468-.03.653.07.412.241l-.043.1-.043.11c.043.141.299.262.568.272l.128-.08c.526-.352.511-.372.753.03.113.18.341.46.256.531-.228.2-.327.31 0 .481l.369.2c.412.241.383.532-.071.663-.455.13-1.577 1.163-1.335 1.965l1.434.01h.085c.071.22-.014.692-.184 1.043-.185.35-1.349.983-1.463 1.003-.114.03-.27.2-.213.36.057.161-.27.673-.852.763l-.497-.22-.114-.051c-.284.14-.568.391-.639.542-.071.16.242.762.966.922l.312-.712c0-.01.441.03.441.06.042.482.468.502.965.472l.668-.03c.298.39.511.742.483.772l-.043.03c-.256.2-.54.44.043.551l.156.03c.284-.25.568-.38.639-.29l-.029.09c-.099.23-.227.461-.383.672l-.185.24c.157.2.597.562.966.802l-.767.06c-.412.03-.866.05-.795-.43v-.03c-.071-.05-.227.04-.355.2-.114.16-.1.822.312 1.073l.682-.23c.44-.151 1.278-.432 1.69.25l.057.08c.511.1.781.23.596.29-.184.061-.866.663-1.292 1.104l-1.264-.18-.156-.02c-.185.04-.142.09.113.12.242.03.299.531.412.531.114 0 .469.15.455.361-.015.21.17.802.411.863.242.07.966.02 1.051-.251l.213-.22c.128-.131.611-.272.71-.211l.654.4c.681-.21 1.349-.39 1.463-.39.127 0 .667.531.766 1.163l-.553.501c-.029.03.142.18.184.281.1.23.114.441-.341.431l-.639.01c-.284.351-.625.792-.767 1.003l.256.23c.085.08.128.492-.412.191-.213-.12-.753-.14-.923-.02-.511.321-.696.03-1.022-.15l-.199-.11c-.284-.06-.554-.01-.583.1-.028.11.498.541 1.293.551l.696.04.142.01c.142.15.156.331.042.401-.127.07-.681.1-1.178.11l-.029.332-.042.621c-.554-.13-.952-.34-.881-.45.071-.111-.071-.472-.568-.382l-.227.16c-.156.12-.171.422-.114.612l.114.331c.468.03 1.306.12 1.874.19l-.284.362-.383.501c.355.371.667.742.71.822.043.08.142.06.128-.27-.014-.321.71-1.394.88-1.705l.54.08c.099.02.199.1.298.1 1.406-.02 1.69.04 2.599.311.199.06.227.341.668.17l.766-.3c.171.511-.653.792-1.846.611h-.539c-.199 0-.455-.03-.597-.13-.525-.34-.767.04-.994.23-.199.171-.156.472.27.422l.994-.12c-.142.48.256.611.866.28l.597-.06.625-.06c.752.19 1.349.552 1.335.812-.015.261.44 1.254 1.306 1.645l.966-.351c.099-.03.255.01.369.03l.568.1c.597.09 1.576.2 2.159.24l.511.091.085.01c.114-.07.554-.13.966-.13l.213.22.256.261c.255.3.468.652.482.772.015.12-.099.482-.156.572-.057.09.298.32.867.2.568-.12 2.116-.29 2.059-.4-.057-.111-.327-.452-.469-.552-.142-.1-.525.3-.667.501l-.341-.04-.284-.04c-.313-.04-.668-.371-.796-.722l.242-.311c.085-.11.284-.21.454-.26l.355-.101c.469-.09.881-.04.923.11.043.15.384.552.682.442.284-.11 1.236-.321 1.491-.261.27.06.994.21.852.571-.127.361-.752 1.274-.937 1.324-.184.05-.653.24-.611.29.057.05.043.262-.156.352-.199.09-.639.41-.511.511.128.1.327.512.156.702-.156.18-.951-.11-1.051-.07-.085.04-.27.28-.057.381.213.1.696.27.739.24l.298.181.355.21c.753-.1 1.477-.36 1.591-.58l.369.28c.185.14.469.28.71.28h.227c.299-.18.512-.16.455.03-.057.191-.313.823-.483 1.024-.17.2-.98-.08-1.051-.181-.071-.1-.511-.26-.838-.15l-.341.06c-.397.07-1.008.2-.383.662.028.02-.171.26-.313.35-.213.13-.482.211-.71.341l-.383.231a7.09 7.09 0 0 0 1.179 1.264c.369.29.085 1.744-.157 2.256l-.17.471c-.099.28-.028.512.511.491l.171-.01c.198.12.298.281.227.341-.071.07-.71.271-1.236.401l-.454.15-.483.161c-.099-.26-.142-.581-.099-.712l-.256-.17c-.596-.391-.951.07-1.25.18l-.312.12c-.185.412-.398.883-.483 1.033-.085.151-.895.171-1.591.261l.142-.722v-.02a8.644 8.644 0 0 0-.809-.11c-.312-.03-1.221.05-1.335.19-.114.14-.625.532-.71.381-.085-.14-.582-.24-.994-.09-.412.16-1.605.1-1.69 0-.085-.1-.568-.29-.767-.06l-.227.11-.128.07c-.256-.04-.412-.21-.341-.38l.057-.15.028-.061c.043-.1-.199-.18-.525-.18l-.284.02h-.043c.029-.01.071.1.071.25s-.355.441-.824.381l-.454.07c-.369.06-.497-.27-.327-.651l.043-.11c-.057-.211-.341-.221-.653-.04l-.086.17-.227.461c.583.391 1.207.782 1.392.872.185.09.98 0 1.236-.09.241-.09 1.363.14 1.235.311-.128.17-.241.511.057.34.298-.17 1.15-.48 1.193-.33.057.15.326.632.426.742.099.11.213.481-.213.29l-.199.01c-.256.01-.653.272-.738.211-.625-.43-1.477-.12-2.116-.41-.043-.02-.086-.09-.128-.09-.412.07-.923.07-1.222.25-.639.39-.596-.21-.894-.281l-.412-.1c-.469-.18-.881-.19-.923-.04-.043.15-.37.42-.654.29l-.227.01-.681.04c-.739-.06-1.676-.03-2.088.06-.412.09-1.832.151-2.102-.09-.27-.24-1.136-.782-1.235-.621-.1.17-.682.782-1.009.872-.326.08-1.477-.11-1.661-.04-.185.08-.909.07-1.25-.17l-.355-.221c-.043-.03-.398.12-.469.23l-.057.08c.128.191.043.342-.213.332-.241-.01-1.093-.08-.88-.14.213-.06.454-.271.014-.311l-.284-.06-.185-.04c-.17-.111-.525-.322-.795-.482-.27-.15-1.221-.03-1.079.31.142.342-.213 1.194-.469 1.134-.255-.06-.951-.391-1.037-.622-.085-.23.753.14.838.15.086 0 .313-.14.171-.33s-.767-.411-1.108-.06l-.369.09-.227.05c-.412-.28-1.293-.18-1.96.22l-.994-.531-.469-.25c-.895.09-1.704.32-1.804.51-.099.191-.056.733.071.813.128.08.142.521-.454.742l-.355-.11-.44-.13c-.327-.452-.256-.783.17-.753.426.04.057-.902-.199-.962-.241-.05-1.022.19-1.136.23-.114.04-.724.02-1.278.03-.568 0-2.017.09-2.017.22 0 .131.114.482.27.532l.071-.03.412-.13c.469-.02.923-.05 1.023-.07.099-.02.511-.13.695-.11.185.03.497.33.341.49-.156.161-1.022.643-1.463.633H281.904a1.293 1.293 0 0 0-.667-.542l-.157.05c-.298.08-.795.21-.994.17-.113-.02-.298.03-.34-.02l-.1-.08c-.042-.13-.028-.32.043-.42h.071l.44-.02c.256-.241.028-.713-.511-1.044l-.412.15c-.44.161-.639.07-.881-.15-.44-.38-.838-.521-.88-.31-.043.21-.653.711-1.292.681l-.583-.05-.27-.02c-.298.06-1.959.18-3.692.27l-1.562-.24-.327-.05c-.397.13-.98.23-1.278.21l-.27.02c-.298.02-.625-.15-.937-.21-.057-.01-.199.05-.227.1-.043.08-.057.221 0 .251l.397.22c.469.231 1.179.261 1.577.06l.511.02.199.011c.227-.03.397.02.383.1-.014.08-.156.431-.241.602l-.029.16-.099.452c.426-.05.71-.02.625.08-.085.09-.511.14-.724-.11-.213-.251-1.335.11-1.591.04s-1.094-.1-1.108.12c-.014.22-.199.722-.383.632v-.04c.042-.321.042-.632-.384-.803l-.156-.07c-.241.02-.426.25-.426.512l-.469-.05c-.539-.06-.994.09-1.491.2-.127.03-.454-.31-.639-.511l-.369-.392c-.199.221-.44.472-.54.562-.099.09-.426.27-.497.16-.071-.11-.326-.35-.44-.32-.114.03-.454.23-.596.33-.142.09-1.165.271-1.009.13.156-.13.355-.4.114-.32-.242.08-1.108-.05-1.406-.431l-.639.39c-.114.071-.44-.03-.653-.07-.569-.1-.554-.1-.625.342-.015.13-.157.36-.213.35l-.54-.05c-.426.231-.852.401-.966.372-.099-.03-.696-.281-1.079-.462-.383-.18-1.733-.26-2.088.23l-.894-.04-.611-.02c-.71.231-1.292.292-1.292.131 0-.15-.455-.622-1.037-.722l-.242.481-.071.15c.398.161.427.322.057.352l-.213.05-.525.12c-.369-.27-.909-.471-1.179-.461-.284.02-1.15.21-1.264.421-.099.21-.227.842-.014.872.213.03.781.221.738.361-.042.13-.426.452-.752.422l-.299-.06-.71-.15c-.042-.492-.298-.693-.568-.442-.27.25-1.306.832-1.761.792-.454-.04-.795-.852-1.022-.672-.227.18-.966.321-.994.15-.029-.18-.014-.721.085-.752l.142.03.156.04c.142.121.44.06.653-.14.228-.2-.17-.792-.511-.681l-.284-.03c-.611-.07-.341.39-.625.48-.298.101-.582.07-.568-.25v-.13c.014-.17-.752 0-1.704.37l-.923.221-.653.16c-.682.02-.895 0-.469-.05.44-.04.114-.852-.895-.912l-.909-.01h-.298c.057.431-.255.662-.682.532l-.241.09c-.554.21-.497-.23-.767-.291-.213-.04-.511-.18-.625-.13-.483.27-.894 0-1.32-.04-.114-.01-.242-.01-.356-.01h-.369c-.085.23-.298.38-.468.34-.171-.04-.71.15-.71.442 0 .29.88.812.809.982-.071.17-.298.612-.355.602-.057-.01-.199-.2-.199-.411l-.071-.18c-.028-.09-.213-.201-.327-.211h-.113c-.128.1-.27.33-.313.511-.042.18-.624.371-.71.23-.085-.14-.198-.51-.056-.5.142.01.369-.261.482-.562.128-.3.299-1.183.157-1.284h-.128c-.384 0-.313.13-.128.291.028.02-.057.16-.142.22-.142.101-.412.171-.44.272l-.071.34c0 .392-.327.783-.725.883l-.369.05c-.085.01-.298-.13-.312-.21-.014-.1.099-.251.213-.291.142-.05.383.04.511-.01l.156-.06c.1-.151-.071-.542-.383-.883-.313-.33-2.173-.13-3.11.14l-.71-.08-.057-.01c.497-.22.696-.521.454-.662-.241-.14-1.434-.852-1.633-.902l-.099.05-.114.05c-.028.15.256.602.639 1.003l.682.14.838.17c.071-.14-.583-.13-1.449.03-.852.151-2.613.512-2.542.572.071.06-.185.392-.767.572l-.085-.672c-.028-.19-.185-.391-.355-.541l-.085-.08c-.213-.02-.398.05-.398.15l.014.09.071.461c-.511.14-.909-.34-.866-1.073l.824-.47.369-.212c.355.1.738.14.852.08.114-.05 0-.32-.568-.44l-.483-.09c-.27-.05-.611-.171-.809-.101-.171.06-.185.361-.256.551l-.114.331c-.341-.08-.554-.39-.497-.691.057-.301-.17-1.154.1-1.294.269-.14 1.178.24 1.349.28l.156.02c.355.05.54-.05.526-.34-.015-.16.596-.23.142-.471l-.171-.09c-.199-.08-1.022-.07-1.818 0l-.724.07-.44.04c.085.26-.199.892-.625 1.413l.014.301c0 .11.057.291.156.321l.398.13c.454.1.909.352 1.008.572l.043.2.028.141c-.042.17-.17.441-.255.612-.1.17-.852.32-1.108.09-.256-.23-.923-.742-.881-.572.043.18-.653.572-1.008.472-.341-.1-1.193-.532-1.292-.421-.1.11-.583.34-.867.28l-.099.04-.298.13c-.313-.03-.639-.13-.724-.24-.086-.1-.498-.26-.796-.15-.298.11-1.107.38-1.335.43-.213.051-1.036-.43-1.462-.691l-.526.361-.057.04c-.341-.14-.866-.08-1.164.15-.298.221-.583 1.043-.611.963-.028-.09-.398-.25-.696-.08-.298.17-1.093.572-1.108.501l-.071-.09-.255-.3c.213-.312.199-.482 0-.392-.199.1-.852-.451-1.236-.632-.383-.18-1.604-.44-1.562-.32.043.12-.057.49-.341.47l-.199.091c-.198.09-.255.361-.454.451-.27.12-.568.08-.568-.25v-.13c.014-.171-.298-.211-.682-.101-.383.11-1.377-.24-1.42-.1-.043.14-.298.451-.497.38-.185-.06-.582.332-.625.462-.042.13-.326.341-.554.31-.241-.04-.994-.08-.894.01.099.091.156.322.014.402l-.114-.01-.696-.04c-.355-.512-.653-.993-.667-1.053-.014-.07-.213-.21-.384-.07-.17.14-.383.652-.241.912.142.261.227.933-.17.883-.398-.05-1.492-.471-1.605-.832-.114-.361-.938-1.134-.98-1.104-.043.04-.327.14-.526.13h-.17l-.568.01c.199-.21.298-.45.199-.53-.085-.08-.441-.231-.483-.06-.043.16-.313.46-.511.35-.199-.12-.767-.23-.838-.02-.071.21.383.762.497.852.113.1-.313.351-.54.341l-.156-.09-1.264-.692c-.81.782-1.662 1.354-1.875 1.284-.213-.07.142-.722.114-.853-.028-.14.199-.561.596-.591.398-.04.284-.712-.255-.522-.54.19-1.832-.36-2.017.04-.17.402-1.292 1.284-1.321 1.414l-.071.11-.085.131c-.142.12-.312.16-.383.1-.057-.07-.483-.36-.753-.531l-.227-.18-.171-.141c-.156-.2-.482-.2-.738 0-.241.2-1.008.662-1.136.552-.142-.11-.298-.382-.1-.402l.128-.06.128-.06c.099-.11.028-.31-.128-.451h-.156l-.568-.01c-.469.501-.696.942-.483.983.213.04.526.31.284.51-.241.201.313.863.171 1.024-.142.15-.711.581-.909.641l-.114-.04-.099-.04c-.029-.15.028-.551.127-.892l-.44-.09-.383-.08c0-.191.184-.382.412-.422l.213-.04.113-.02c.185-.03.029-.18-.341-.32V46.713c.242-.312-.028-.653-.596-.753l-.298.13c-.398.18-.781.291-1.108.14l-.298-.14c-.199-.3-.725-.47-1.165-.38l.526.41.071.06c-.199.251-.725.572-1.151.723l-.298-.271c-.44-.391-.809-.431-1.448-.19-.341.13-.853.05-1.279-.241l-.326-.23c-.682-.101-1.321.06-1.42.36-.1.3.653.832.411.842-.241 0-.837-.23-.738-.521.099-.29-.17-1.093-.483-.922-.312.17-1.093.43-1.164.25l-.128-.12c-.071-.06-.313-.03-.469 0-.071.02-.142.18-.114.21l.327.281c.384.301.81.622.966.722.142.1-.739.612-1.506.953l-.724.05c-.653.05-1.377-.18-1.945-.572l-.512-.36c-.525.29-1.065.671-1.207.862l-.156-.1-.256-.171c-.341.01-.696-.05-.781-.13l.014-.06c.043-.11.128-.271.242-.291.838-.1 1.676-.18 2.514-.261h.042c.114-.1-.042-.321-.341-.491-.298-.17-1.221-.552-1.264-.382-.056.171-.326.462-.497.281-.17-.18-.525-.672-.412-.692.114-.03.384-.37.37-.712l-.54-.14-.454-.11c-.469.07-.924.24-1.037.39l.057.081.17.29c.256.302.099.502-.355.442l-.398-.08c-.184-.04-.426-.11-.511-.22-.156-.211-.199-.462-.326-.693-.043-.07-.157-.12-.256-.16a.33.33 0 0 0-.171-.01l-.34.12c-.37.14-.583.451-.483.682.113.24.028 1.073.014 1.414-.014.34-.028 1.023-1.008.943l-.796-.231-.426-.12c-.156.19-.554.43-.894.551l-.27-.05c-.227-.04-.341-.32-.653-.05l-.071.06c-.285-.07-.441-.3-.327-.501h.113c.412-.02.569-.211.398-.401l-.113-.13c-.441-.051-.824.06-.838.22-.015.17-.213.672-.327.782l-.128.01-.27.02c.043-.16.057-.411.029-.551l-.085-.11c-.213-.252-.37-.04-.498.07l-.355.29c-.582-.09-.724-.27-.326-.4l.284-.141c.113-.06.199-.231.17-.331-.028-.08-.241-.17-.369-.18-.213-.01-.44.07-.653.09-.327.03-.81.17-.938.06-.511-.411-.795-.13-1.15.1-.213.14-.923-.06-1.037-.29l-.014-.03c.142-.081-.142-.282-.639-.442-.497-.16-1.718.28-1.392.35l.071.121.114.17c-.028.221-.312.372-.639.331-.327-.04-1.591-.04-2.372.321l-.809.01-.639.03c-.412-.792-.867-1.183-1.023-.882-.142.3-.596.913-.696.692l-.17-.1c-.085-.05-.426.04-.597.13l-.284.15c-.298.221-.71.301-.937.181-.227-.12-.753-.501-.653-.572.099-.07.525-.22.625-.1.099.12.554.331.653.07l-.071-.04-.369-.25c-.455-.241-.909-.351-1.009-.251-.099.11-.426.531-.539.682-.114.15-.185.42-.284.511-.1.1-.213.371-.497.22-.284-.16.127-.761.099-.842-.028-.08-.199-.25-.327-.21-.127.04-.397.31-.568.481l-.298-.09c-.128-.04-.327-.19-.355-.17-.369.22-.625.52-1.25.21l-.199-.1c-.568.14-1.42.3-1.917.35l-.468-.03-.852-.06c-.327-.45-.554-.51-.498-.13.043.381-.397 1.324-.866 1.294-.468-.03-1.179-1.023-1.179-1.364l-.568.15-.198.05c-.142.271-.355.371-.469.231-.114-.14-.597-.461-.781-.36-.185.1-.128.6-.029.671.1.07.1.461-.255.712l-.654-.13-.596-.12c-.554-.241-1.051-.462-1.094-.512-.042-.04-.127-.341-.142-.542l-.127-.1c-.171-.14-.526-.33-.696-.28-.327.09-.27.33-.014.52.241.191.255.402-.114.492-.099.03-.327-.14-.454-.25l-.199-.181c-.199-.24-.597-.331-.867-.2-.269.13-.923.832-1.036.832-.114 0-.654-.05-.668-.15l.029-.061c.071-.15.284-.35.213-.441-.185-.24-.483-.18-.71.01-.242.19-.625.36-.682.571-.156.592-.426.02-.611.07l-.596.171c-.256.441-.554.682-.654.531-.099-.15-.142-.742.185-.892l.284-.13c.1-.04.284-.08.284-.11-.028-.151-.128-.301-.17-.462a1.82 1.82 0 0 1-.085-.621c.014-.12.255-.291.198-.361l-.269-.342c-.569.08-.98.221-.895.311.071.09.057.973-.114 1.725l-1.065.06-.994.06c-.937.462-1.818.652-1.946.432-.142-.221-.724-.662-.965-.381l-.114.24c-.199.421.383.311.611.462.128.09.284.18.355.29.057.1.057.281-.029.341-.085.07-.383.11-.454.06l-.384-.26c-.298.2-.667.36-.838.34l-.156-.05c-.227-.08-.653 0-.553-.34.028-.09.198-.201.326-.221l.213-.03c.398.02.384-.381-.028-.903l-.341-.39c-.029-.03-.227-.01-.327.02-.042.01-.042.12-.042.18.014.04.113.06.113.1v.15c-.014.161-.199.311-.397.311l-.114-.06-.312-.17c-.355-.24-.696-.341-.753-.23-.057.11-.682.23-1.25.03l-.54-.141c-.099-.02-.298.16-.454.25l-.1.06c-.099.07-.539.161-.965.201l-.313-.14c-.51-.24-.866.26-1.391.1-.412-.12-.98-.11-1.392 0-.298.08-.383.08-.667-.02-.327-.12-.952-.14-1.15.01-.47.351-.54-.17-.853-.12-.44.07-.412.24-.284.461.071.12.454.24.014.32-.113.021-.383-.14-.44-.25l-.17-.34c-.17-.522-.37-.783-.44-.572-.058.2-.341.571-.484.471-.142-.11-.852-.381-1.178-.31-.327.07-1.207.24-1.747-.382l1.491-.24.256-.04c.326-.01.468-.191.312-.412-.156-.22-1.108-.19-1.136-.33-.028-.141-.454-.412-.88-.231-.427.18-1.605.541-1.705.41-.1-.13-.553-.51-.696-.4-.142.11-.411.662-.51.982l.596-.08.639-.08c.028.32.326.441.667.26.327-.18 1.222-.641 1.25-.631.028.01-.355.391-1.065.792l.042.682c0 .1-.426.24-.681.32l-.284.081c-.355.05-.739.02-.838-.06-.1-.08-.682-.23-1.051-.13-.355.1-1.307.39-1.25.47.043.091-.042.322-.256.352l-.07-.06c-.284-.241-.483-.532-.781-.762l-.27-.211c-.384-.17-.98-.05-1.335.27l-.654-.12-.653-.12c.085-.381.1-.521.014-.31-.085.21-.909.701-1.079.841-.185.151-.71.412-.54.02l.014-.26v-.16c-.184-.171-.695-.372-1.136-.442-.44-.07-1.093.682-1.278.592l-.156.02c-.213.02-.383.17-.596.21l-.455.08c.085.251-.412.362-1.093.241l-.583-.05-.724-.06c-.454-.31-1.008-.411-1.221-.23-.213.18-.682.39-.71.01l-.739.14c-.327.07-.88-.25-.937.32-.014.07-.483.181-.724.161-.313-.03-.597-.21-.924-.26l-.34-.05c-.512.01-.767.12-.54.25.227.13.497.34.1.17-.398-.18-1.506.281-1.69.191-.171-.09-.526-.501-.569-.642l-.34.13a2.26 2.26 0 0 1-1.804-.06l-.071-.03c-.1 0-.341.241-.526.552l-.468-.14c-.298-.09-.511-.341-.81-.462-.142-.06-.44-.02-.596.05-.156.07-.185.351-.313.371l-.582.09c-.667.05-1.406.141-1.647.201-.242.06-1.009-.25-1.023-.36-.028-.111-.213-.522-.326-.462-.114.06-.384.391-.526.591-.128.201-.937.532-.767.602l.114.04.1.04c.127.04-.03.17-.356.281l-.227.15c-.156.1-.313.392-.27.422l.469.27c-.085.381-.128.813-.1.953.029.14-.113.471-.411.401-.299-.08-.881-.36-.583-.461.284-.1-.056-.732-.27-.732-.213 0-.838.07-.71.19l.015.08c.014.151.042.382-.057.432-.213.1-.54 0-.597.33-.042.312-.369.282-.639.131a29.83 29.83 0 0 1-1.448-.872l-.27-.17c-.242.1-.412.36-.384.58l.398-.01h.057c.184.191-.014.272-.455.181-.44-.09-1.52-.4-1.32-.501.199-.09.44-.451.199-.622l-.114-.15c-.1-.13-.227-.361-.142-.441.241-.231.525-.12.71.08l.426.501c.767.21 1.619.291 1.903.17l-.014-.07-.085-.43c-.17-.462-.384-.843-.47-.863-.084-.01-.184-.19-.013-.2.17-.01.724.1.71.29-.014.19.184.732.454.752l.114-.05c.298-.13.54-.31.838-.451l.056-.03c.143.05.228.15.185.22l-.028.06-.2.492c.583.04 1.023-.21.995-.552l.128-.26.114-.22c.454-.292.397-.382-.142-.212l-.285-.05-.355-.06c-.355-.25-.681-.34-.724-.22-.042.13-.156.47-.184.48-.029.01-.114-.06-.142-.17-.029-.11-.498-.581-.938-.661-.44-.08-1.534.41-1.633.18l-.17-.12c-.071-.05-.426.06-.597.15l-.625.351c-.81.27-1.477.632-1.49.802-.015.17-.399.722-.796.732l-.213-.12c-.213-.13-.185-.381.255-.441l.157-.02c.127-.16.298-.481.383-.722h.071c.483-.01.724-.17.412-.451-.114-.11-.696-.09-.923.03l-.44.23c-.54.03-.753-.17-.455-.451l.128-.28.042-.111c-.298-.21-.624.12-.724.732l-.866.23-.199.05c-.128.241-.34.211-.454-.05l-.128-.01c-.526-.03-.852-.5-1.434-.32-.157.05-.356.501-.526 0-.057-.17-.256-.411-.17-.502.142-.15.468-.2.71-.3l.909.38c.255.06.568.221.752.161l.284-.08c.213-.23.412-.572.426-.752.014-.18-.17-.602-.426-.301l-.199.17c-.07.06-.355.1-.355.09-.312-.54-.837.201-1.278-.13-.44-.32-.923.15-1.42.16l-.525.01c-.611.02-.753.372-.313.773l.625.2c.256.09.44.321.17.532-.227.17-.468.491-.852.26-.624-.37-1.661-.09-2.087-.772l-.057-.09c-.64.02-.994.12-.767.2.227.091.568.302.483.382l-.085.01-.582.05c-.625.09-1.847.29-2.699.451l-.241-.842-.015-.03c-.284.01-.369-.07-.213-.17l.17-.06.328-.111c.454-.12.596-.341.326-.472-.27-.14-1.534.02-2.045.04l-.468-.03-.355-.02c-.228-.4-.583-.842-.796-.982-.199-.14-.326-.582.114-.562.454.02.823.923.937 1.023h.128c.114 0 .312-.11.34-.19l.114-.341c.1-.421-.156-.762-.553-.742-.398.01-1.193-.552-1.321-.411-.128.13-.568.51-.696.37l-.185-.03c-.156-.02-.511.17-.497.18l.156.292c-.099.31-.07.702.057.872l.284-.08.128-.03c.17-.12.313-.06.298.12-.014.18-.241.552-.51.411-.257-.14-1.265-.31-1.535-.12s.085.872-.028.892c-.128.01-.483.01-.526-.04-.042-.05-.241-.14-.326-.1-.085.05-.568.14-.91.11-.326-.04-1.107.251-.922.341.184.1.312.722-.185 1.143l-.894-.14c-.228-.04-.526.11-.782.17-.653.14-.767.09-.965-.47-.014-.041.028-.111 0-.131-.568-.291-.086-1.123-.81-1.163-.568-.03-1.179.38-1.747.621-.326.14-.241.17.185.381.398.17.724.431 1.008.692.142.13.242.492.17.522l-.425.2c-.128-.25-.71-.622-1.307-.822l-.568-.12c-.1-.03-.298.15-.426.26l-.185.16c-.184.191-.44.262-.553.161l.014-.02c.625-.591.454-1.083-.284-1.534-.156-.1-.213-.29-.355-.411-.128-.11-.355-.27-.455-.24-.355.1-.312.3-.1.5l.058.06c-.029.121-.185.221-.327.241l-.071-.04c-.185-.11-.426-.23-.483-.38l-.17-.432c-.142-.562-.654-1.073-1.136-1.173l-.512.2a1.93 1.93 0 0 1-.653.11h-.767c-.454.231-1.037.432-1.292.452l-.114-.08c-.397-.281-.497.06-.625.17-.1.08-.1.361 0 .421l.384.231c.483.2.639.401.369.441-.27.04-.469.612-.696.642l-.199-.03c-.213-.03-.412-.2-.596-.19-.739.03-.668-.472-.497-.592.397-.261-.1-.592.241-.783l.313-.18c.369-.19.34-.501-.071-.702l-.27-.15c-.142-.08-.242-.22-.384-.251-.44-.1-.923.592-1.32-.01l-.284-.421c-.568 0-.81-.27-.554-.602l.738.361.767.371c.866-.481 1.804-.732 2.088-.551l.17.16c.185.18.27.12.526.04.255-.09.624.01.951.03.128.01.313.07.37.03 1.022-.812 1.831-.07 2.698.201.156.05.241.24.383.25l.27.02c.312-.05.525-.18.497-.28-.043-.1.028-.542.241-.692.228-.15.91-.491 1.037-.441.128.05.497.17.526.15.028-.02-.142-.29-.47-.531-.312-.25-1.164-1.053-.922-1.043.241.01.753.08.724.15-.028.07.071.281.313.261l.198-.04.157-.03c.241-.1.482.03.54.27l.013.191c.029.752.995.792 1.591 1.053.327.14.994.18.895-.431-.057-.331.27-.321.582-.301l.497.02c-.043-.27-.128-.552-.185-.632-.056-.08-.156-.42-.184-.551-.029-.13-.199-.371-.014-.371.184 0 .752.41.738.882l.029.462c0 .07.212.19.34.2.114 0 .327-.11.341-.19l.057-.251c0-.27.227-.532.511-.592.284-.06 1.207-.04 1.364.19.156.231.923.813 1.292.693.37-.13 1.42-.281 1.534-.07l.198.1.242.12c.114.18.312.381.44.451l.043-.02c.511-.26 1.08-.23 1.647-.25l.128-.01c.156-.291.327-.351.398-.13l.128.12c.056.06.312.05.468.03l1.307-.15c.326-.212.383-.412.142-.442-.242-.03-.91-.331-1.15-.26-.242.07-.569-.492-.668-.462-.1.03-.44-.15-.426-.25 0-.101.412-.512.894-.582l.498.2.312.12c.298.161.895.15 1.32-.04l.114.462c.057.21-.014.37.398.46l.355.071c.37.28.866.401 1.094.26l.213-.13.156-.1c.1-.2.057-.34-.1-.3-.156.04-.426 0-.17-.201.256-.2.525-.873.653-.843.128.03.412.412.568.732.157.321 1.903.352 1.747.231-.156-.11-.625-.411-.767-.441-.142-.03-.511-.21-.227-.23.298-.02 1.065-.171 1.094-.291.028-.12.411-.382.738-.14l-.028.02-.938.822c.923.44 1.79.671 1.918.52.127-.16.383-.58.312-.63l-.1-.03-.255-.071c-.298-.06-.454-.2-.37-.321.086-.12.498-.25.71-.03.214.22 1.165.31 1.023.13-.142-.18-.27-.44.057-.15.327.29 1.392.441 1.094.441l-.242.05c-.128.02-.27.16-.284.25 0 .091.199.272.242.262l.411-.09c.426-.151 1.108-.392 1.506-.512.397-.13 1.434-.03 1.562-.1.142-.07.37-.261.014-.472l-.028.02-.753.552c-.625-.461-.824-.923-.44-1.033l.355-.01c.383-.01.795.07 1.164.17l.412.11c.44.191 1.08.221 1.392.061.327-.16 1.307-.461 1.32-.26h.03c.326.01.695-.08.98 0l.226.06c.27.17.512.18.54.02.028-.16.213-.622.327-.612l.056.04c.498.381 1.023.742 1.463 1.163.341.321.724.431 1.221.371l.185-.02c.185-.1.213-.32.057-.491l-.128.01-.738.04c-.469-.441-.739-.933-.611-1.093.128-.15.668-.592.71-.411.029.18.54.642 1.08.802l.482.08c.597.1 1.065-.14 1.506-.42l.142-.091c.198-.05.54-.19.752-.321.213-.13.2.521-.014.642l-.255.04-.157.02c-.156.06-.326.27-.383.471-.057.2.241.822.426.802.184-.02.81-.2 1.008-.38.199-.171.142-.903.17-1.033l.1-.09c.043-.04.227-.04.327-.02.07.02.184.12.17.15-.1.23-.241.46-.327.692-.014.05.086.17.17.2l.342.12c.525.15.852.13.738-.05l-.07-.07c-.2-.22-.228-.421.184-.471.113-.01.34.16.397.28l.071.14c-.042.181.384.171.952-.02l.37-.24.141-.09c-.07-.28-.255-.501-.412-.491-.156.01-.696-.13-.681-.351.014-.221.199-.782.397-.722l.057.09.341.592c.753-.03 1.292-.11 1.193-.181l-.043-.07c-.184-.311.227-.24.327-.21l.568.19c.724.28.895.652.383.842l-.326.15c-.057.03-.071.171-.043.241.029.07.156.18.199.17.313-.06.653-.12.923-.25.156-.06.227-.24.313-.371l.184-.29c.199-.352.554-.623.781-.602.227.02.852.09.852.11 0 .02-.17.11-.369.13-.199.03-.639.411-.412.782l.213.291.071.1c.157.09.398.07.54-.03l.142-.09.114-.07c.127-.07.355.09.51.35h.143c.312.01.667-.09.909-.23l.17-.11a7.13 7.13 0 0 1 .199-.762c.071-.18 1.193-.883 1.165-.823-.029.06-.44.642-.398.873.043.23.88.792 1.562.742l.597.391.312.2c-.057-.29-.043-.882.014-1.313l.668.13c.653.12-.17.271-.057.391.085.08.398.16.44.12l.17-.14c.17-.23.498-.3.739-.16l.241.07.781.22c.853-.16 2.472-.41 3.622-.55l.085.1.199.22c.284-.01.667.06.852.17l.028-.02c.327-.23.824.04 1.037-.14l.213-.17c.114-.301.37-.692.582-.873l.242-.06.142-.03c.227.15.525.391.682.541.142.15.766.572.852.682.085.11.88.08 1.562-.31l.866.47c.668.362.412-.701 1.108-.47.014 0 .17-.191.199-.301.014-.06-.114-.21-.157-.2l-.937.12a90.025 90.025 0 0 1-.511-1.043c-.014-.03.142-.14.34-.16l.157-.051.128-.04c.298-.18.454-.17.355.01-.1.18-.043.652.34.702.384.05 1.733-.1 2.358-.11.625-.02 2.074-.01 1.974.13-.113.13-.824.32-1.292.28l-.227.141-.483.29c-.384-.19-.597-.1-.497.211l.227.19c.227.191.81.442.923.372.625-.361 1.278-.04 1.889-.15.17-.03.284-.191.426-.281.241-.14.61-.23.71-.411l.142-.261c-.014-.331.469-.582 1.065-.572l.469.02h.042c.071.15-.1.271-.355.261-.27-.01-.909.09-.909.23 0 .141.512.703 1.18.813.667.1 2.726.09 3.052.431l.299-.561c.156-.301-.256-.512-.696-.622a1.2 1.2 0 0 1-.526-.31l-.099-.081c-.014-.15.156-.301.383-.351l.2.02.155.02c.157.01.44-.04.625-.11s.668-.05.497.1c-.156.15-.426.712-.198.862l.184.1.227.12c.27.111.569-.02.682-.29l-.057-.22c-.042-.14-.298-.241 0-.382l.128-.06c.156-.09.298-.04.327.11.028.151.525.532 1.05.462l.44-.06.285-.04c.298-.02.767-.06 1.05-.08.285-.03.995.05 1.094.29.1.24.625.873.796.832.17-.04.667-.24.766-.36.1-.13-.07-.662-.454-.863-.383-.2.014-1.003.242-.872.227.14.766.471.823.39l.057-.07.057-.08c.057-.09.113-.04.113.11 0 .161-.085.622-.085.703 0 .08.171.3.369.3l.142-.05c.157-.06.27-.17.398-.26.426-.281.724-.311.781.2 0 .02.213.05.327.05l.525-.01c.341-.3.568-.41.512-.23-.057.18-.043.702.198.581.242-.12.824-.33.867-.24l.071.06c.397.39 1.107.682 1.292.501.455-.451-.312-.37-.483-.561l-.184-.18a4.357 4.357 0 0 1-.015-1.054l.27-.18c.085-.06.369-.07.455-.01.099.06.156.24.113.34l-.071.191c-.128.19-.028.421.227.521l.199.13c.299.191.483.051.753-.04l.27-.09c.383.05.852.281 1.065.512.199.23.028.993-.369 1.043l-.37-.381c-.511-.532-.624-.522-1.477.01-.156.1-.426.1-.61.18l-.44.22c.042.362.582.532 1.193.382l.553-.14 1.563.511.198-.02c.213-.03.994-.331 1.733-.682l.809.04.853.04c.298-.11.454-.3.326-.41l-.142-.081a.557.557 0 0 0-.312-.06l-1.307.12c-.412-.421-.852-.822-.966-.882-.113-.07-.184-.422.214-.562.411-.14 1.448.522 1.675.582.228.06.753-.391 1.108-.582l.284.05.966.16c.781-.17 1.321-.49 1.178-.731-.142-.241-.127-.863.398-.742l.355-.442.114-.14c.142-.17-.724-.01-1.917.341l-.611-1.093c-.014-.02-.369 0-.455.08l-.255.2c-.256.272-.483.372-.511.221l-.043-.12-.185-.541c-.539-.221-.88-.271-.752-.09.127.17-1.065.721-1.989.731l-.866-.07-.852-.07c-.923-.13-2.258-.18-2.968-.11l-.242.26c-.44.502-1.065.452-1.633.642l-.625.21c-.113-.26.284-.53.895-.611l.497-.17.426-.15c.497-.332.582-.633.171-.673l-.256.06-.682.17c-.724.232-1.604.462-1.959.512-.356.05-1.903-.521-2.216-.591l-.028.33-.014.161c0 .2-.341.29-.739.19-.398-.1-1.037.722-1.08 1.003L97 41.56c-.028.2.043.511-.412.431l-.681-.12c.397-.14.724-.431.738-.642.014-.21-.355-.732-.852-.531l-.1-.06c-.638-.422-1.533-.08-2.13-.392l-.497-.26c.015.23-.17.541-.411.682l-.256-.331c-.1-.12 0-.391-.34-.16-.129.08-.242.24-.228.36l.014.14c.142.181-.1.382-.525.452-.426.06-1.136-.532-1.35-.652-.198-.12-.866-.18-1.136.18l-1.079-.18c-.227-.04-.483.01-.71-.03-.142-.02-.34-.11-.355-.2-.057-.241-.014-.432-.469-.171-.227.13-.681.09-1.008.05-.256-.03-.511-.26-.739-.24-.17.02-.326.44-.44.42l-.98-.1c-.582.522-1.704.622-2.5.23l-1.15.091c-.923.07-1.065.04-1.746-.461-.1-.08-.313-.08-.469-.12 0 0-1.306.862-1.306.872-.356.26-.668.682-1.25.16-.1-.09-.554-.12-.668-.04l-.681.492c-.213-.412-.625-.642-.924-.512-.298.13-.852.22-.837.01.028-.21-.81.13-.88.16-.072.03-.668-.07-1.265-.17l.029.582.014.421c-.355.02-.696.13-.739.26-.042.131-.312.412-.483.332-.17-.08-.653-.331-.724-.392-.057-.06-.057-.25.142-.27.199-.02.341-.25-.114-.451-.454-.201-1.59.2-1.363.44.227.231.852.803.582.953l-.184.1c-.625.332-1.32.231-2.003.201-.085 0-.227-.19-.213-.28.015-.08.185-.181.327-.221.071-.02.241.02.298.08l.526.471c.284-.32.34-.732.113-.922-.227-.19-1.604-.481-1.846-.862l.071-.602.014-.09c.057-.1-.014-.17-.156-.16-.142.01-.454.35-.625.66-.17.312-.752.873-.895.492l-.681.04c-.653.04-1.35.331-2.017-.02l-.426-.23c-.468.12-1.264.31-1.76.43l-.37-.35c-.071-.06-.284-.1-.355-.07l-.568.29c-.71.191-1.59.311-1.96.271l-.34-.04c-.129-.02-.285-.09-.37-.06-.596.23-1.605.391-2.102.29l-.1-.02c-.155-.15-.411-.13-.596.03-.17.161-.852.512-.838.151.014-.35-.44-1.023-1.065-.802l-.355.31-.37.332a5.88 5.88 0 0 0-.61-.542h-.128c-.113 0-.326.14-.312.21l.071.803c-.838-.06-1.406-.21-1.25-.33.142-.131.44-.562.327-.713h-.057l-1.037.01c-.213.592-.51.943-.639.782-.142-.16-.696-.501-.965-.47-.27.03-.696.62-.91.671l-.042-.05-.128-.12c-.07-.181-.227-.281-.369-.221l-.128.02c-.227.03-.468.06-.681.04l-.611-.06c-.739-.09-1.378-.08-1.42.04-.043.12-.242.3-.327.06-.085-.24-1.065-.26-1.093-.13-.029.13-.256.501-.412.551l-.043-.03-.838-.561c-1.037.18-2.016.4-2.187.471l-.241-.15c-.37-.241-.64-.12-.654.25 0 .09.043.21-.028.261a.86.86 0 0 1-.412.16l-.085.01c-.1-.07-.355-.34-.554-.601-.199-.26-1.264-.742-1.42-.662-.17.09-.61.451-.951.562-.341.12-.739.792-.867.752v-.03c.043-.271-.085-.472-.454-.372-.157.04-.185.351-.284.532l-.043.08c-.07.08-.085-.08-.014-.37.07-.292-.213-1.104.213-1.345l.37-.24.141-.09c.17-.181-.184-.331-.78-.331l-.285.16c-.483.27-.753.28-1.179-.03-.113-.09-.653-.03-.78.09-.129.12-.086.421.028.592l.113.18c.242.12.298.371.114.562-.17.18-.966.541-1.42.461l.525-.39.511-.372c-.525-.21-.994-.18-1.036.06-.043.24-.17.652-.185.401-.014-.25-.951.02-1.15-.16-.185-.18-.895-.562-1.094-.391-.199.17-.653.451-.554.2.114-.25-.937-.11-.937.1-.014.211-.582.873-1.25.833l-.568.03c-.383.02-.738.18-1.122.22-.568.07-.227-.47-.554-.51l-.51-.06c-.597.1-.938.21-.754.24.185.04.512.42.313.762l-.454-.2c-.455-.201-.611.43-1.037.08-.185-.161-.64-.13-.938-.231-.355-.12-.639-.341-.994-.441l-.241-.07c-.44.04-.682.22-.511.4.17.181.468.652.383.712-.085.06-.525.211-.625.09-.07-.12-.44-.38-.497-.27-.057.11-.469.12-.81-.19l-.638-.01h-.398c-.383.06-.937.18-1.236.27l-.042-.05c-.37-.381-.568-.06-.781.09-.313.23-.554.271-.88.02l-.1-.08c-.27.03-.469.14-.44.24.028.101-.228.572-.668.713l-.156-.482-.114-.34c-.284.04-.923.06-1.406.05h-.44c-.383 0-.71-.462-1.164-.07l-.071.07c-.412-.16-.654-.351-.554-.402.1-.06.78-.34 1.207-.52l.326-.231c.157-.11-.411-.382.086-.552.298-.1.568-.28.88-.341l.625-.12c.227-.401.554-.772.71-.823.156-.05.61-.04.653-.24.057-.2-1.391-1.464-1.178-1.414.213.05.894-.01 1.008-.25.114-.242.738-.663 1.037-.231l-.029.29-.028.231c-.455.28-.298.652.355.822l.298.281.298.28c.455.231.838.221.852-.01.015-.23.284-.771.597-.641l.057-.04.326-.21c.071.19-.099.671-.355 1.072l-.284.341-.568.772c.156.522.483.712.725.401.24-.3.795-1.373 1.22-1.714l.143-.441c.07-.251.284-.06.312.13l.057.431c.398-.1.909-.31 1.122-.481.213-.17 1.633-.03 2.443-.16l.752.28c.185.07.625.13.654-.22.028-.231.61-.462 0-.703l-.128-.05c-.242-.26-.227-.42.043-.35s.809.23 1.136.21c.326-.01 1.107.501 1.817.361l.668-.03c.014 0 .043-.23.014-.341-.014-.05-.184-.08-.284-.09l-.213-.02c-.256 0-.454-.08-.412-.19h.014l.398-.03c.469-.031.852.23.852.57l.17.161.299.19c.44-.16 1.42-.39 2.173-.51l-.696-.703c-.029-.02.07-.15.128-.16.099-.02.27-.03.34.01l.952.561c.17-.44.37-.842.44-.892.071-.05.256.03.256.28l.1.02.766.191c.185.532.383 1.003.44 1.053.057.05.256.04.384-.04s.511-.22.596-.14c.071.09.54.17.852-.04l.341-.08 1.122-.251c.241-.762.454-1.414.497-1.444.043-.03.327-.05.568.05.242.09-.142 1.093.085 1.153.228.06 1.293-.02 1.89-.3l.553-.282c.057-.03.057-.17.028-.24-.014-.05-.127-.13-.198-.13l-.824-.02c0-.312.34-.502.753-.422.411.08 1.278.612 1.136.712-.142.11.042.572.639.862.596.291 2.386-.32 2.286-.46l-.07-.151-.114-.23c.284-.262.951-.582 1.49-.713.54-.13 2.06.15 2.188-.1.128-.25.596-.923.696-.782.085.14.582.23.895-.1l.255-.201c.1-.07.455-.08.455-.08.355.952 1.434.41 2.172.561.142.03.341-.04.47-.1.056-.03.07-.17.042-.24l-.014-.05c-.1-.05-.583-.111-1.066-.141l-.44-.02c-.312-.01-.596-.24-.909-.26l-.44-.031a6.921 6.921 0 0 0-.724-.782c-.213-.19-1.278.15-1.491.16-.213.01-.682-.19-.554-.471.127-.28.156-1.083-.029-1.113l-.057.04c-.34.24-.653.702-.994.722l-.653.03c-.37.3-.923.692-1.221.873l-.654-.532-.227-.19c-.255-.201-.667-.402-.895-.442l-.184.04-.838.18a17 17 0 0 0-.568-.65c-.043-.041-.398.09-.64.39l-.326.15c-.312.141-.81-.05-1.093.271-.043.04-.256.04-.341.01-.341-.14-.653-.31-.98-.47-.241-.111-.469.29-.781-.031l-.185-.19c-.468-.07-1.52-.261-2.343-.422l-.596-.471-.27-.21c-.654.03-1.165.23-1.136.45.028.221-.668.853-1.577.833l-.795.07c-.668.06-.256-.521-.724-.561-.384-.03-.767-.1-1.136-.19l-.072-.02c-.028-.282-.255-.232-.51.12l-.228.21c-.071.07-.355.11-.455.06-.113-.05-.212-.28-.156-.32l.44-.352c-.07-.501-.255-.782-.411-.631-.157.15-.582.5-.625.48-.043-.02-.085-.19 0-.34.085-.15.014-.632-.398-.642-.412-.01-1.406.12-1.363.301.028.18-.724.782-.88.913-.157.13-.626.41-.682.32-.043-.09-.384-.12-.611.15-.227.271-1.647.191-1.832.061-.199-.13-.64-.26-.71.11l-.597-.21c-.44-.15-.525-.371-.241-.762.213-.291-.128-.16-.426-.12l-.469.07c.128-.281.483-.512.781-.512l.114-.1.185-.16c.085-.251.028-.592-.142-.743l-.043.02-1.378.532c-.454-.792-.866-1.434-.894-1.434-.029 0-.412.22-.597.511-.184.281-.625.702-.568.281l-.71-.03-.199-.01c-.213.11-.483.05-.568-.14-.1-.191-.653-.351-.965.17l-.256.401c-.028.04-.227.04-.327.02l-.085-.02c-.07-.07-.142-.29-.156-.481-.014-.19.1-.772.54-.883.44-.12.142-1.143.241-1.263.1-.11.327-.451.27-.502H4.29l-.468.03c-.455-.19-.952-.49-1.15-.681l-.228.15-.114.08c.071.321-.014.622-.184.682-.185.06-.739.01-.61-.32l.056-.251c.042-.17.07-.361.014-.522-.07-.24-.128-.521-.34-.672l-.214-.15c-.426-.05-.78-.14-.795-.2-.014-.06.199-.843.469-1.585l1.377-.03.54-.01c.511-.23.71-.451.44-.471-.27-.03-.71-.261-.256-.452l.313-.18.241-.14c.27.03.71.19.952.36l.255-.23c.057-.05-.227-.25-.255-.401-.029-.16 0-.331.355-.16l.128.06c.468-.12.355-.392-.242-.602l-.426-.1-.142-.03c-.199.08-.326.07-.27-.03.057-.1.057-.432-.113-.482-.17-.05-.625-.26-.568-.36.056-.101-.043-.382-.355-.422-.313-.04-.228.892-.384.963-.156.07-.724.19-.909.14-.184-.05-.568-.401-.525-.532l.085-.1c.043-.04.241-.05.327-.02l.156.06c.241.18.426.02.383-.34-.028-.361.54-1.164.867-.973.326.18.937-.492.823-.522-.113-.03-.369-.2-.326-.29h.042c.583.05.81-.331 1.108-.562l.142-.11c-.085-.311-.057-.602.071-.642.128-.04.724-.08.952.05.227.13-.1.742.085.883.184.15.724.51.767.49.042-.02.127-.16.056-.26-.056-.1-.142-.551-.184-.772-.029-.22-.014-.993.724-1.304l.81.452.312.17c.256-.34.54-.762.64-.822zm251.596 23.494c-.185.07-.696.04-1.122-.06l-.369-.11c-.284-.08-.597-.24-.867-.21-.241.02-.028.55-.61.45h-.015a.968.968 0 0 0-.056.492c.014.14-.895.05-.895-.12-.014-.18-.242-.592-.497-.472l-.199.05-.213.05c-.227.01-.682.171-.994.352-.313.18-1.378.07-1.42-.241l.341-.27.269-.211c-.269-.331-.71-.452-.98-.271-.269.18-.866.772-.624.842.241.07.071.552-.284.632l-.284.12c-.114.05-.157.22-.171.331 0 .05.128.15.213.16l.44.07c.483.091 1.009.131 1.151.081l.085-.08c.156-.16.227-.452.426-.502.17-.05.469.221.71.221h.44c.497-.07 1.136.06 1.42.28l.469-.32.511-.341c.299.35.625.551.71.431.086-.11.583-.17.611-.13.014.04.199.11.355.08.156-.03.582.06.597.02.028-.04.326-.29.61-.481.299-.19.909-.943.895-1.163l-.128-.04c-.298-.1-.539 0-.554.3l.029.06zm-126.21-.41c.085.17-.341.17-.937 0l-.298.38-.214.261c-.17.361.469.531 1.435.381l.227.02.199.02c.227-.04.355-.13.298-.2-.057-.08.199-.532.71-.843l-.838-.591-.128-.09c-.113-.1-.397-.382-.61-.612l-.384-.01-.326-.01c-.341-.01-.497.13-.341.3.156.151 1.122.823 1.207.993zm67.202 1.032c.341-.11.582-.07.54.1l.085.05.568.321c1.065-.3 1.818-.681 1.69-.852-.142-.17-1.108.09-1.349.11-.242.02-.909-.07-1.122-.16-.213-.09-.767-.18-.895-.04-.128.14-.582.41-.724.3-.142-.11-.696-.27-.923-.14-.227.13-.724.592-.739.622-.014.03.157.13.398.09.241-.04.809-.02.753.1-.057.13.042.462.34.522l.27.01h.071c.1-.16.696-.923 1.037-1.033zm-57.289-.892c-.043-.08.128-.14.383-.14.256.01.895.09.952.18l.014.04c.085.21-.256.561.327.601l.468.04c-.057-.26.185-.631.526-.822l.27.05.312.06c.312-.01.284-.12-.057-.24l-.17-.29c-.057-.091-.526-.091-.796-.071l-.568.04c-.355-.2-.511-.481-.34-.622.17-.14.454-.521.355-.631-.1-.11-.554-.301-.753-.13-.185.17-.085 1.142-.284 1.283-.199.14-.824.431-.923.34-.1-.1-.469-.24-.611-.11l-.099-.01c-.597-.07-.923.09-1.108.512l-.057.12c-1.775-.14-3.124-.16-2.982-.05.142.11.894.441 1.42.542l.412-.281.227-.15c.27-.171.511-.412.568-.522.043-.11-.043-.27-.327-.08-.284.19-1.391.33-1.576.25-.185-.08-.625-.591-.469-.932l.071-.341.015-.15c-.213-.181-.81-.241-1.335-.14l-.497.05c-.086.01-.199.22-.171.32.014.08.242.2.355.19l.199-.02c.199-.1.44-.05.54.11.099.161.014.552-.469.402l-.256.08-.653.19c-.255-.32-.596-.671-.724-.761l-.128.01-.114.01c-.113.12-.269.521-.34.882l.44.29.369.252c.284.35.639.35.753.01l.667.16.469.11c1.704-.16 3.096-.11 3.096.11l.128.07c.227.131.511.141.61-.18.029-.11.299-.26.426-.25.37.03.725.16 1.094.22l.185.03c.227-.05.355-.22.269-.38l-.071-.151-.042-.1zM29.414 47.806c.17-.13.81-.06 1.406.16l.568.151c.113.03.397-.11.468-.22.1-.151.057-.191.384-.171l.824.05c.908.09 1.846.16 2.102.16l.213-.05.624-.15c.796-.22 1.165-.431.838-.471l-.128-.09-.198-.141c-.142-.14.056-.1.44.09.398.19 1.747.16 1.747-.04l.014-.17c.028-.21-.057-.502.1-.612l.539-.391c-.44-.13-1.08.14-1.42.592l-1.094-.311-.468-.13c-.086.33-.327.581-.54.56-.213-.02-.937.212-1.136.242-.199.03-1.037-.281-1.406-.422-.37-.13-1.477.392-1.804.612l-.284.21c-.44.322-.412.332-.724 0a3.547 3.547 0 0 0-.682-.591l-.142-.09c-.241-.02-.468.03-.497.12-.028.09-.298.301-.554.28-.255-.03-.142.613-.07.773.07.15.71.18.88.05zm102.01-8.363c.17.823-.071 1.344-.54 1.163l-.355.06-.326.06c-.27.342-.668.332-.895-.03l-.412.322c-.426.33-.895.38-1.42.33-.341-.03-.682.13-.795.351-.057.11-.228.18-.313.281l-.184.2c-.185.231-.37.863-.398 1.405l.312.09.228.07c.312-.07.653-.31.766-.521l-.44-.04c-.44-.04-.44-.301-.227-.452l.369-.25c.483-.211 1.065-.452 1.293-.532.227-.08.923.25 1.065.401.128.16-.284.652-.426.652-.142 0-.611.18-.597.421 0 .24.44.682.966.411.525-.26.795-1.845 1.022-2.336l.37.21c.539.311.696.05.909-.14l.17-.15c-.682-.983-1.037-1.675-.81-1.545.242.13.796.602.924.722.113.12.781.06.724-.481l-.511-.36-.469-.312zm-7.839 2.637c.369-.842.227-1.674-.299-1.865l-.468-.02c-.54-.02-1.094.16-1.648.19-.383.02-.781-.08-1.178-.13l-.128-.01c-.128-.01-.426 0-.639.02-.227.02-.653.382-.54.562.128.18-.227.672-.241.692-.015.02-.469-.02-1.009-.09l-.468-.09c-.114-.02-.256-.171-.256-.261s.156-.231.27-.251l.256-.05c.34 0 .213-.321-.27-.702l-.483.32c-.298.171-.369.572-.497.883-.156.421.44.281.653.431.327.241.597.762 1.236.251l.014-.01c.113.06.426.18.681.27.256.091.597-.33.611-.49.014-.161.298-.652.625-.452.312.2 1.15.431 1.406.22l.241-.02c.27-.02.512.462.853.181.426-.35-.214-.491-.398-.722l-.043-.06c-.071-.13.27-.06.767.15.497.221 1.889.983 2.017.572l.099-.32.611-1.154c-.128-.06-.341-.19-.384-.17l-.255.15c-.242.19-.298.491-.1.652l-.198.25-.185.231c-.114.321-.384.542-.597.481l-.113-.08c-.256-.18-.554-.25-.724-.02-.157.22.014.381.411.411l.37.05zm119.322.301c.227-.01.298-.2.156-.42l-.185-.161c-.184-.15.455-.351-.014-.562-.256-.12-.426-.27-.753-.09l-.085.05c-.156 0-1.591-.14-3.167-.29l-1.534.31-.61.12c-.512-.34-1.122-.47-1.349-.31-.228.17-.853.5-.952.42-.099-.08-.611-.19-.795.04-.171.231-.327.923.255.733l.355-.01.256-.01c.312.03.881.12 1.25.2l.369.09.256.06c.667-.18 1.363-.43 1.533-.56l.1.02.966.19c.014-.552.454-.572.965-.05l.497.43.54.472c.696.451 1.363.722 1.491.602.114-.09.227-1.254.455-1.274zm-78.422 2.317c.412.07.739.06.71-.03l-.028-.01-.469-.191c-.554-.11-1.093-.25-1.193-.3l-.014-.061-.028-.08c.042-.09.369-.25.738-.361.369-.1.682-.863.895-.843l.199.02.128.01c.142.01.241-.09.213-.23l-.071-.1c-.029-.05-.199-.04-.313-.05-.27-.03-.639.06-.61-.291.014-.251.028-.381.468-.552l.568-.21c.597-.472 1.094-.732 1.122-.562.029.16.27.502.469.401l.184-.05c.256-.06.54-.09.824-.12l.114-.01c.128.03.355.25.525.501l.483-.21.241-.1c.384.07.853.14 1.066.17.198.03.809-.261 1.022-.361l.284.19.171.11c.369-.02.681-.19.695-.39.015-.201-.284-.793-.667-.823-.383-.03-1.335.22-1.264.28.071.071-.596.282-1.704.242l-.937.02c-.654.01-1.165-.1-1.492-.522l-.269-.35c-.341.13-.938.5-1.307.822l-.469-.07-1.051-.151c-.795.471-1.349 1.053-1.221 1.294l.426-.241c.213-.12.483-.19.739-.27l.227-.071c.199.22.284.742.213 1.163l.156.391c.057.15-.227.512-.256.512-.965-.191-.681.49-.994.752l-.227.19c.142.1 1.292.471 1.704.542zm96.884-2.357c0 .11.497.27 1.122.341l.454-.12c.568-.15.923.511 1.52.08l.213-.15c.482.09 1.036.24 1.221.33.185.09.497.03.256-.36-.242-.392-.995-1.404-.767-1.575.227-.17-.54-.692-1.193-.39l.057.64v.041c-.512.1-.824.1-.696 0s.298-.33.199-.401c-.086-.07-.313-.01-.242.32.071.332-.284 1.114-.554 1.003-.27-.11-.738-1.102-.923-1.093-.17.01-.667.08-.596.14.071.061.355.312.539.492.185.17-.61.592-.61.702zm-12.384-.481c.284.03.128-.471-.355-1.103l-1.023.672c-.071.04-.44-.08-.568-.19l-.44-.352c-.568.1-1.321.22-1.676.28l-.17-.1c-.27-.17-.398-.2-.653 0l-.185.141c-.384.15-.426.3-.1.331.327.04.909.411 1.208.682.298.27 1.576 1.053 2.215 1.073l.582-.01c.1 0 .256-.17.256-.261 0-.09-.156-.23-.27-.25l-.369-.06c-.483-.03-.696-.151-.483-.282.199-.11 1.733-.601 2.031-.571zM20.027 48.94c.028.13-.029.02-.1-.251-.07-.271.88-.752 1.108-.722.241.04.653-.301.483-.442l-.157-.13-.127-.1c-.17-.14-.355-.05-.412.18l-.1.04c-.184.07-.454.11-.653.08l-.34-.06c-.44-.15-.697-.12-.569.08.128.201-.81.512-.951.221-.142-.3-1.278.05-1.293.371-.014.331.213 1.254.54 1.173.327-.08 1.236-.48 1.434-.671.17-.19 1.122.1 1.137.23zm80.821-3.22c-.071.452.355.853.951.873l.469-.03.085-.01c.071-.22-.042-.411-.255-.441l-.071-.08-.1-.111c-.014-.17.156-.33.384-.341l.184.05c.142.04.327.17.355.281l.057.28c.298.06.582.02.625-.09.057-.11 0-.571-.085-.792l-.171-.14c-.113-.09-.397-.12-.582-.1l-.71.07c.099-.27.185-.552.185-.622 0-.06-.213-.26-.455-.28l-.142.07c-.468.24-.738.26-.781-.241 0-.05-.355-.11-.554-.11h-.042c-.057.17.724 1.313.653 1.764zm69.105-1.985c-.014.23.27.431.639.431l.227.02.185.02c.213.06.113-.18-.242-.541l-.312-.331-.028-.04c.042-.12.198-.17.355-.12.156.05.568.04.653-.11.085-.151.27-.743.213-1.014l-.242-.14-.127-.07c-.242.04-.725.27-1.051.511l-.398-.05-.54-.07c-.355.24-.71.652-.795.912-.085.251.653.492.639.251-.028-.24.838.11.824.341zm54.463-1.023c-.014.321.284.381.653.14.384-.24 1.364-1.052 1.634-1.323l-.441-.21c-.383-.181-.71-.181-1.107.04l-.213.12c-.37-.02-.81-.04-.952-.03l-.028-.05c-.114-.14-.128-.321-.256-.442-.071-.06-.355-.07-.454-.02l-.114.06c-.014.15.014.412.057.592.057.18-.327.632-.355.682-.029.05.071-.04.255-.28.199-.252 1.335.4 1.321.721zm83.179-2.747c.27-.07.412.13.327.44-.1.302-.157 1.124.113.983.27-.14 1.136-.08 1.505-.35.37-.271-.184-1.414-.539-1.444-.355-.02-1.222-.251-1.491-.1-.27.15-.881.55-.867.58.015.021.682-.05.952-.11zM27.923 17.403c-.384-.01-.781.29-.88.672l-.683.32c-.085.04-.17.2-.156.211.497.29-.369.391-.156.602.199.19.455.34.682.511l.326.25c.37.301.924.241 1.222-.13l.255-.36.029-.04c-.1-.121-.355-.181-.554-.131-.213.05-.781-.481-.61-1.344l1.093-.31.241-.07c.313-.01.554-.03.554-.061-.028-.03-.98-.11-1.363-.12zM82.812 38.35c-.114.09-.327.03-.455-.13-.127-.16-.71-.311-1.036 0l.255.471c.128.24-.34.381.043.702l.44.361c-.681.16-.965.31-.639.331.327.02.98.18.994-.15.014-.321.085-1.184.128-1.184s.17.11.213.251c.043.14.298.521.497.501l.156-.04.213-.05c.299-.1.071-.36-.525-.581l.156-.271c.043-.07.242-.13.242-.18-.015-.141-.072-.382-.17-.412-.37-.09-.526.08-.498.351l-.014.03zm69.048 5.064c.156.321.597.431.994.25l.327-.16c.326-.15.483-.671.227-.712-.525-.1-.909-.591-1.548-.31-.185.08-.256.24-.511.04l-.483-.381a.782.782 0 0 0 .099 1.113l.412.07.483.09zm-93.603-6.678c.227.561.611.922.852.812.242-.11-.298-1.023-.625-1.414l.086-.451c.014-.04-.27-.16-.398-.15-.113.01-.241.15-.284.24-.057.12 0 .26-.043.391l-.014.04c-.142.03-.284-.06-.298-.19-.028-.14-.37-.512-.71-.492l-.284.03h-.043c-.028.05.114.211.313.361.199.14-.227.753-.213.903l.199-.01 1.462-.07zm138.778 5.595c.213.321.526.461.682.321.156-.15-.483-.652-.625-.712-.142-.06-.88.01-1.193-.07l-.298-.02c-.284-.02-.625.15-.852.08l-.824-.26c-.213.5.511 1.022 1.633 1.163l.71-.241.767-.26zm119.706-7.49c.454.21.653.49.454.631l.029.03.397.522c.71-.25 1.307-.742 1.307-1.093l-.483-.05c-.625-.07-.781-.482-1.193-.702l-.128-.07c-.184-.07-.483-.02-.653.11-.185.13-.526.712-.355.993l.511-.301.114-.07zm-75.524 9.826c-.412.211-.611.572-.469.803.156.24.809.782 1.022.501.213-.28.853-.932 1.023-.912l.114.08c.241.17.525.29.71.06.085-.1-.1-.411-.284-.521-.199-.12-.625-.231-.767-.15-.341.18-.654 0-.923.05l-.426.09zm-20.209-2.577c.071-.21-.313-.44-.852-.5-.54-.071-2.045.14-2.258.07-.213-.07-.015.53.042.681.057.15.497.371.824.11l.326-.18.299-.16c.383-.11.781-.04.88.14.1.19.668.06.739-.16zm-65.612-1.042c.284.1.654.07.824-.05.156-.13.469-.522.312-.582-.156-.06-.894-.02-1.235.26l-.653-.27c-.355-.15-.924-.05-1.392-.05h-.1c-.142.06-.241.25-.227.42 0 .171 2.187.171 2.471.272zM40.349 9.742c-.34-.07-.37-.391-.057-.722l.17-.301c.057-.1-.156-.291-.27-.431-.184-.231-.326-.02-.51 0l-.455.06c-.17.25-.199.581-.057.732.142.15-.284.652-.085.973l.242.25c.099.1.468.19.568.14.255-.14.695-.28.525-.601l-.07-.1zm268.382 15.532c-.128-.1-.398.321-.596.943l1.05-.04c.256-.01.498-.22.739-.21l.27.01c.355.17.639.13.625-.071-.015-.21-.142-.852-.256-1.073-.114-.22-1.065-.03-1.108.15-.042.171-.582.392-.724.291zm15.821 9.647c.241-.311.085-.552-.355-.532-.441.02-1.52-.27-1.506-.03 0 .24.313.843.455.843.142-.01.624.12.937.16l.17-.16.299-.281zM63.384 46.843c.128.1.383.08.568-.03l.696-.07c.085-.01.199-.05.227-.1.043-.07.057-.22 0-.25l-.44-.201c-.526-.2-.71-.602-.426-.873l-.426-.24-.17-.09c-.242-.04-.47 0-.512.09-.042.1.114.621.256 1.053l-.739.21-.213.06c-.198.371-.198.562 0 .422.2-.13 1.051-.08 1.18.02zm77.669-3.93c-.1-.14-.54.07-.994.461l-.64-.17c-.255-.07-.482-.191-.738-.251-.142-.03-.454 0-.454.03-.029.14-.029.31.042.441.057.11.213.26.355.28l.582.051c.455.28.995.562 1.208.612.213.05.426-.441.312-.622l-.327-.01h-.042c-.043-.11.071-.21.27-.23.184-.01.525-.462.426-.592zm164.667-2.718c-.142-.29-.61-.441-1.008-.34l-.099-.07-.526-.402c-.199.341-.142.652.114.692.255.04.88.22.724.33-.156.101-.412.432-.241.492.17.06.894.22 1.377.14l.44.161.086.03c.156-.11.056-.31-.256-.451l-.313-.11c-.085-.03-.142-.13-.17-.201l-.128-.27zM34.683 7.265c.44.17.866.04.937-.291l-.114-.15c-.199-.261-.497-.572-.838-.652-.61-.15-.823.39-1.235.601-.057.03 0 .181-.043.241l-.156.2c-.043.231.185.432.526.452l.014-.351c0-.05.412-.14.61-.1l.299.05zm194.121 33.933c-.156-.11-.468-.22-.724-.25l-.099.06c-.128.09-.27.32-.199.39l.099.11c.256.051.256.161 0 .241l-.099.13c-.085.101-.029.342.085.432l.185.13c.27.07.781.191 1.15.261l.312-.08c.1-.03.27-.07.27-.12.014-.12.014-.281-.085-.341l-.156-.1c-.242-.06-.369-.171-.298-.261.099-.1-.284-.502-.441-.602zm-100.05-.541c.682-.09 1.236-.261 1.207-.381-.014-.12-.128-.311-.213-.161l-.128.09-.113.07c-.185.02-.682-.01-1.108-.07-.426-.06-1.534-.04-1.576.17-.043.211-.696-.08-.781-.05-.1.03-.256.251-.128.402l.156.04.213.06c.256-.02.909-.07 1.434-.09l.469-.03.568-.05zM37.708 6.843c-.256.13-.398.04-.313-.2l.057-.111.043-.09c.056-.1-.072-.211-.313-.241l-.043.05c-.184.23-.255.521-.752.542-.057 0-.128.38-.114.581 0 .04.398.12.568.07l.185-.05c.184 0 .653.01 1.037.02.383.02-.086-.702-.355-.571zm115.359 32.94c.384.08.611.05.483-.06-.114-.11-.497-.551-.852-.772l-.213.07c-.327.11-.497.24-.81-.01l-.042-.04c-.455.22-.682.491-.497.622.184.13 1.548.12 1.931.19zm-102.38-7.45c-.638-.401-1.22-.321-1.277.17l.51.11.228.05c.412-.3.952-.34 1.193-.07.242.261 1.122-.11.937-.33-.184-.211-.965-.773-1.264-.803l-.014.03-.312.843zM41.4 46.392c-.44-.06-.724.03-.625.19l.114.141.156.2c.17.221.469.181.653-.08l.185-.03.738-.14c.824-.09 1.279-.29.994-.441-.284-.16-1.775.22-2.215.16zm110.787-5.645c.014-.22-.668-.21-1.506.02l-.639.26c-.213.09.185.311 1.591.592l.142.03c.199-.04.383-.28.397-.531l.015-.21v-.161zm-104.993 7.67c.142-.09.298-.14.37-.1v.03c.028.281.099.512.596.442.156-.02.454-.06.454-.09v-.241c-.07-.25-.27-.592-.454-.732-.185-.15-.909-.24-1.207.13-.298.371.1.652.241.562zM9.702 23.57c.142-.13.199-.251.114-.281l-.029.01c-.326.16-.625.431-.98.471-.326.04-.71-.18-1.065-.25-.142-.03-.454.04-.454.07l-.014.15c.07.16.426.3.809.31.37.011 1.363.302 1.69.021l-.043-.381-.028-.12zm41.88 12.885c-.312-.01-.51.25-.425.562l.54.47c.113.111.269.241.44.261l.24.03c.214-.15.3-.42.2-.601v-.16l.014-.17c.142-.202-.682-.392-1.008-.392zM208.07 41.91c-.298-.01-.185.411.256.933l.468.27c.27.15 1.094.13 1.25-.03.383-.431-.426-.33-.639-.521l-.156-.14c-.284-.08-.469-.191-.412-.241.057-.05-.469-.261-.767-.271zM23.833 32.705c-.128.2-.2.37-.17.39.028.02.255-.04.411-.17.156-.12.682-.661.781-.922.1-.261.043-1.133-.028-1.334l-.17-.09-.242-.13c-.199.18-.469.48-.61.671l.042.15.07.262c.015.29.043.982-.084 1.173zm216.063 6.508c.27-.1.326-.371.142-.592l.497-.25.312-.161c-.113-.19-.497-.381-.838-.401l-.312.02c-.44.02-.767.36-.639.702l.057.14c-.014.14-.029.31-.043.391-.014.08.142.28.369.27l.185-.05.27-.07zM93.222 45.099c.113-.2.298-.2.426-.01.113.19.866.31.54.08l-.157-.2c-.085-.11.696-.362-.114-.432-.298-.03-.639-.26-.88-.2l-.398.1c-.07.35-.255.762-.411.912l-.057.15c-.043.091.07.282.17.312l.114.04c.199-.06.653-.562.767-.752zm133.381-1.354c-.398.01-.27.08.27.14.554.06 2.088.16 2.13.08.043-.08.199-.37.128-.45-.057-.08-.355-.271-.582-.201-.213.06-1.548.411-1.946.431zM13.139 48.508c.298-.02.298-.18.028-.35-.27-.181-1.406.35-1.747.4l-.312-.08c-.1-.02-.284.08-.383.16-.057.04-.029.221.028.231.511.15 1.008.31 1.548.391.114.02.497-.37.454-.4-.241-.222-.326-.342.17-.352h.214zm47.177-11.3c-.028-.141-.085-.262-.142-.272-.042-.01-.255.06-.369.18-.113.121-.241.623-.284.853-.042.23-.383.913-.426 1.053-.042.14.029.27.256 0l.184-.06c1.08-.361.654-1.053.767-1.625l.014-.13zm-12.34 2.085c-.398.13-.427.22-.072.21.355-.01 1.108.532 1.264.502.17-.03.511-.361.625-.562.114-.2.341-.822.27-.922h-.071c-.156 0-.383.01-.454.09l-.1.08c0 .15-.156.511-.37.792l-.809-.14-.284-.05zm56.848 4.612c-.028-.24-.539-.38-1.164-.3l-.483.09c-.27.05-.312.481-.043.491.54.03.483.23.54.502l.043.22c.227.22.511.23.639.02l-.1-.09c-.184-.16-.255-.24.014-.381.185-.1.398-.22.469-.371l.085-.18zM38.233 9.461c0-.12-.71-.351-1.605-.522l-.767-.12c-.113-.02-.355.08-.397.16-.043.1.028.301.128.331.397.13.823.261 1.25.311l.468.05c.511.14.923-.09.923-.21zm-31.3 14.028c-.611-.762-1.094-1.253-1.094-1.083.014.16.057.883.199 1.324l.071.401c.014.07.27.15.398.14.113-.01.27-.14.284-.23l.142-.552zm310.873 9.737c-.426-.05-.511.12-.185.391.327.27 1.278.843 1.449.742.17-.11.099-.702.014-.622-.071.08-.838-.46-1.278-.51zM158.222 41.44c.27.17.781.18 1.122.03.341-.15.27-1.003-.341-1.043l-.511.05-.44.04c-.497.17-.114.762.17.923zm46.468 2.055c-.085-.07-.185.03-.227.21-.043.181-1.207.332-1.818.522l-.54-.37c-.028-.01-.213.06-.269.12-.057.07-.043.17-.015.25.015.04 1.733.321 1.79.301l.483-.24c.539-.281.681-.733.596-.793zM53.003 48.74c-.014.33.241.491.582.34l.085-.12c.469-.601.682-.772 1.108-.962l.114-.05c.042-.211-.17-.261-.483-.11l-.299.01-.34.01c-.398-.111-.753.55-.767.882zM38.247 10.975c.753.02.483-.35-.596-.832l-1.009.03h-.07c-.072.18-.029.35.085.39l.113.01.128.01c.142-.02.355.161.469.402l.412-.01h.468zM38.02 38.35c-.241.532.014.893.596.792l.412-.09c.27-.06.497-.22.767-.23.469-.02.412-.251.398-.452 0-.12-.071-.31-.156-.33-.341-.08-.54.01-.568.31-.015.07-.384.19-.54.16l-.909-.16zm240.32 1.895c.837.381 1.576.472 1.633.2l-.483-.17c-.313-.11-.71-.3-.795-.52-.171-.402-.554-.212-.853-.242-.056-.01-.255.351-.227.371l.725.361zM62.603 37.468c.37-.06.412-.19.085-.301l-.199-.07-.553-.19c-.256.32-.64.852-.838 1.172l-.114.311-.043.1c.17.151.398.231.497.181.114-.05.796-1.153 1.165-1.203zm-36.697 10.78c.213.17.469.23.582.12h.085c.782-.02.696-.712 1.264-.903l.072-.02a.469.469 0 0 0-.512-.36l-.17.06c-.426.19-.44.832-1.25.621-.014-.01-.227.23-.185.3l.114.181zm131.393-5.436c-.227-.12-.312.14-.17.582l-.881-.05h-.056c-.086.22 0 .461.184.541l.128-.03.568-.15c.639-.21.454-.772.227-.893zm-90.436 3.25c-.468.04-.525.05-.142.04.384-.02 1.236.42 1.307.36.071-.06-.1-.42-.34-.732l-.242-.27c-.085-.09-.313-.21-.355-.19-.142.09-.37.23-.341.33l.114.461zM3.397 27.27c.2.32.54.41.767.2.228-.21.483-.782.071-.792l-.227-.1-.241-.11c-.228.03-.583.2-.796.37l.242.251.184.18zm183.798 16.174c.184 0-.029-.35-.483-.792l-.526-.2c-.227-.09-.752.23-1.136.38l-.042.02c.028.12.312.181.624.11l.285-.02.269-.02c.341.02.568.111.497.191-.042.1.327.331.512.331zm-38.529-2.878c-.256-.01-.398.291-.299.662l.242.17.213.151c.426.01.781-.15.781-.341.014-.19-.682-.642-.937-.642zm42.647.883c-.27-.17-.426-.371-.355-.441.071-.07.142-.281.029-.341l-.072.02c-.724.15-.752.33-.241.792l.128.12c.057.18.312.552.54.842l.383-.19c.44-.21.071-.441-.17-.622l-.242-.18zM32.694 9.712c-.241-.532-.639-.843-.894-.702-.256.15-.938.501-1.122.591-.185.09.44.471.71.22l.27-.02 1.036-.09zm273.381 12.233c-.085-.26-.454-.36-.823-.22l-.142.15c-.1.09.127.36.028.441-.17.14-.483.17-.71.28l-.099.041c-.071.1.113.21.397.27.27.04 1.435-.701 1.349-.962zM44.226 32.243c.17.271.455.311.653.09.185-.22.398-.791.043-.781l-.256-.05-.27-.06c-.51-.211-.34.53-.17.801zm191.935 7.852c.383-.16.525-.451.312-.632l-.142-.06c-.653-.28-1.122.15-1.676.27-.042.01-.085.181-.042.231.326.341.824.181 1.25.191h.298zM79.077 37.217c-.199-.27-.582-.391-.867-.26-.283.13-.71.56-.042.54l.426.091.34.07c.313.23.512.2.441-.07l-.142-.17-.156-.2zM44.922 48.618c.639-.11 1.065-.501.952-.862l-.143-.29-.014-.04c-.241.01-.454.09-.483.17l.043.02c.284.16.17.3-.071.37-.298.09-.653.1-.952.191-.113.03-.212.21-.198.301.014.08.227.22.326.2l.54-.06zm151.545-4.783c-.596.14-1.107.381-1.122.522-.014.15.071.541.157.571.071.03.326.02.369-.07l.014-.08c.014-.09-.028-.26 0-.27.426-.091.866-.141 1.278-.262l.156-.04c.114-.17.015-.37-.198-.461l-.171.02-.483.07zm-165.164-3.41c-.213-.4-.483-.41-.611-.03h-.043c-.71-.07-.553.482-.866.673-.142.08-.057.611.085.651.526.16.469-.18.554-.44.057-.191.284-.352.469-.512l.412-.341zm12.27-35.617c-.014.23.298.3.696.14.383-.16.511-.892.241-.892-.284-.01-.937.511-.937.752zm242.563 6.518c.27-.09.171-.32-.199-.501-.369-.18-.951.05-.88.2.085.16.824.391 1.079.301zM61.58 3.204c-.795.22-.951.571-.34.772l.695-.321c.128-.06.37-.02.47-.09.113-.07.184-.241.141-.331-.042-.08-.284-.18-.398-.15l-.568.12zm-6.248 45.013c-.142.02-.057.301.213.612l.468-.32c.1-.071.512-.422.966-.181l.1.06c.369-.16.397-.381.085-.492-.313-.11-1.69.301-1.832.321zm4.516-14.92c.241.17.639-.03.88-.462l.043-.34.014-.091c-.454-.13-1.179.722-.937.892zm-2.045-1.394c.298.31.355.601.113.651l-.142.09c-.099.07-.184.251-.127.342.042.08.355.17.426.14l.355-.21c.355-.271.667-.662.71-.873l-.114-.11c-.113-.1-.426-.13-.639-.1l-.582.07zm-3.139.4c-.085.362 0 .301.185-.13l.582.1.426.07c0-.26-.042-.57-.128-.691-.056-.12-.98.29-1.065.652zm268.382 4.543c.242.13.725.14 1.051.02l-.341-.31-.241-.221c-.199-.281-.412-.522-.469-.532-.057-.01-.412.02-.525.14-.114.1.27.773.525.903zm-275.98.371c-.411.15-.482.3-.17.321.312.03-.17.562-.142.632.043.07.312.2.511.11l.085-.12c.114-.17-.127-.482.341-.502.426-.01.526-.2.384-.41-.071-.101-.426-.161-.625-.121l-.384.09zm242.521-27.114c-.113-.02-.142-.15-.071-.271.071-.13-.085-.17-.525.28l-.668.08c-.042.01-.099.181-.056.232.085.09.255.2.355.19.426-.06.852-.16 1.278-.26l.042-.01c.014-.08-.241-.211-.355-.241zM157.001 44.587c-.383.14-.511.351-.284.462.227.11.767.36.696.3-.071-.06-.071-.25.17-.32.228-.06-.199-.592-.582-.442zm-114.238 3.56c-.085-.26-.383-.36-.653-.22-.284.14-.511 1.032-.37 1.283.129.26 1.108-.802 1.023-1.063zM230.494 42c.1.25.512.25.909 0l.355.341c.015.01.213-.03.242-.07.042-.07.071-.22.014-.25l-.54-.312c-.767-.41-1.079.04-.98.291zm-82.44-3.75c-.27-.06-.44.08-.369.31l.071.01c.525.04.639.252.568.592l-.029.16c.071.241.299.181.512-.12.227-.3-.483-.892-.753-.952zm93.489 1.003c-.085.1.085.21.398.23l.156-.03c.327-.06.639-.14.937-.24.284-.1.299-.382.029-.522l-.582-.31c-.37.3-.853.771-.938.872zm19.982-1.204c-.298.08-.384.291-.185.462.199.18.824.44.938.2.099-.23-.455-.742-.753-.662zM25.437 32.494c-.014.23.256.351.611.25l.242-.07.184-.05c.199-.07.284-.24.185-.38l-.142-.08-.313-.191c-.397-.2-.752.29-.767.521z" fill="#E8AE9A"/></svg>