<svg width="763" height="123" viewBox="0 0 763 123" fill="none" xmlns="http://www.w3.org/2000/svg"><path d="M20.166 41.411c.23-.14.986.303 1.675 1l.723.536.492.35a37.844 37.844 0 0 1 1.346-1.42h.263l1.084-.024c1.182.28 1.871.536 1.51.559-.361.047-1.576.675-1.609 1.303-.033.605.164 2.397.558 1.862.362-.535 1.478-1.443 1.708-.954l.328.326c.69.72 3.054.651 3.678-.094l.131-.162c0-.233-.197-.815-.46-1.304-.262-.488-.656-2.001-.295-2.257.361-.233 1.674-.908 1.543-.512s.066 1.327.755 1.187c.657-.14 2.759-1.024 2.726-1.583l.131-.581c.033-.21.394-.536.657-.559l.295-.023c.361.21 2.102 1.117 3.842 2.025l1.576-.256.821-.14c.493.349.296.721-.492.838-.756.116.098 1.512 1.543 1.14l.46-.652.492-.674c-.295-1.21-.033-1.955.591-1.676.657.28 2.955 1.326 3.776 1.652l.394-.116c.23-.07.493-.14.69-.21l.131-.046c.099-.093.821.256 1.576.745.756.511-.92 3.49-.853 3.63l.065.023.624.117c.69.093 1.806-.35 2.463-1.024l.066-.605.065-.675c.328-.605.985-1.327 1.412-1.606.46-.28-1.707-1.443-2.003-1.443-.295 0-1.15-.419-.525-.861.624-.442 2.233-1.745 2.233-1.978v-.21c0-.093-.033-.255.032-.302.526-.303 1.018-.768 1.61-.861.788-.093 1.608.023 2.167-.582.59-.675 1.05-.395 1.838-.023l.591.28c1.018-.094.953-.885-.197-1.746l-.098-1.257-.066-.814c-.82.349-1.576.232-1.707-.28l-.132-.465v-.023c-.23 0-.623-.466-.919-1.048l-.295-.535c-.099-.21.46-.907.82-1.117l.493-.302c.624-.443 1.15-.512 1.215-.14.066.372.985 1.14 1.937.605.92-.535 3.054-2.723 3.81-3.025l.098.489c.23 1.023.492 1.21 1.773.674.985-.418 2.134-.674 3.25-.814.657-.093 1.544-.28 1.806.721.099.466 1.248.838 1.97 1.14.23.094.986-.046 1.051-.209.657-1.326 2.397-1.536 3.776-2.118l1.281-.558c-.131-1.094-.492-1.699-.82-1.35-.33.35-1.446.326-1.774-.814l-.46-.978c-.23-.488-.853-1.093-1.444-1.21l-.493-.093c-.788.512-1.182 1-.854 1.094.329.116.985.489.657.605-.328.093-.886.558-.197.651l.328.187.23.14c.033.348-.197.628-.492.604l-.263.047-1.116.233c-1.215.302-2.562.907-3.021 1.35l-.854-.42c-.394-.186-.92-.279-1.38-.279l-1.805.07c.197-.791.525-1.56.755-1.745l-.033-.14c-.033-.256-.197-.559-.427-.768-.13-.093-.59-.093-.788 0l-.558.303c-.624.465-1.872-.396-2.79-1.909l-1.905.326-1.445.326c-1.708.814-3.71.861-4.499.116l-.82-.349-.854-.349c-1.347-.116-1.478-.977-.23-1.931l1.97.698.591.21c1.084-.606 2.2-1.304 2.43-1.607.197-.255 2.364.675 3.513 1.35l1.872-1.187.328-.186c.46-.326.329-.628-.295-.675-.624-.07-2.66-.372-2.2-.512.46-.116 1.379-.837 1.116-1.326-.263-.489-.525-1.932.23-1.676l.493.233.788.396c.624.628 1.116 1.256 1.083 1.42l-.033.139-.065.21c-.066.232.328.348.886.255l.263-.232c.197-.187 0-.606.099-.885l.23-.768c.787.186 1.214.698.952 1.164-.263.465-1.018 1.745-1.018 1.815 0 .07.426.233.985.256.558.023 1.74-.28 1.51-.675l.066-.28.098-.441c1.38.023 2.824-.652 3.218-1.466l-1.641-.559c-.23-.093-.953.14-.986.28-.065.279.165.86.329.86l.788.024c.23.442.69 1.047 1.05 1.326.362.28-.919-.744-1.773-1.094-.853-.372-2.232-1.024-2.364-1.21-.131-.186.329-.814 1.215-1.07.887-.256 3.284-1.047 3.284-1.117 0-.07-.69-.303-1.51-.35l-.624-.185c-.69-.21-1.314-.606-1.905-.955l-.131-.07c.065-.279.394-.511.722-.511l.263.046.952.186c1.05.07 2.857-.488 4.039-1.21l1.609.466 1.28.372c1.642-.163 2.561 0 2.069.35-.493.348-.854 1.186.263 1.116 1.116-.046 2.364-2.071 2.462-2.14.099-.07 1.248-.373 2.233-.466l.887.14c.854.116 1.674.418 2.528.65l.132.024c.295.023.525.396.525.791-.033.396.394 1.77 1.018 1.49.59-.256 2.101-.722 2.2-.535.098.186.82.698 1.018.162.164-.535-.066-1.838-.066-2.49 0-.651.657-1.791 1.084-1.489.394.326 2.101.628 2.758-.116l.525-.07c1.937-.28 4.039-.093 5.812-.605 1.511-.442 2.331-.442 3.317.465l.623.559c.559-.489 1.248-1.094 1.511-1.373l.295-.047 2.069-.233c2.397-.232 4.4-.116 4.466.233.065.35.919 1.234 1.707 1.28.821.047 2.2-1.675 2.923-2.118l.558-.418c.853-.606 1.018.279 1.379.511.919.606 1.51.931 1.904-.302.23-.675.854-.489 1.544-.21.952.396 2.134 1.304 2.659-.395.066-.186 1.412-.303 2.102-.21 1.937.28 2.331.326 3.645-.023.722-.21 1.346-.582 2.265-.023.394.233 1.642-.303 2.496-.489l1.445-.302c.361.86.952 1.396 1.28 1.187.329-.21 1.445-.512 1.478-.024.065.489.361 1.14.591.466.23-.675 1.773-2.002 2.101-1.653.329.35 2.069.861 2.923.21l.821-.186c1.477-.326 3.086-.396 4.629-.536 2.233-.209 4.597.652 6.765-.349.098-.046.525.163.525.233-.23 1.373 1.707.931 2.463 1.49.394.279 1.871-.28 2.889-.466l.132-.023c.164.023 0 .419-.362.93-.361.49-.361 1.932.788 2.072 1.15.14 4.138-.396 4.433-.396h.526c.295 0 1.51.652 2.692 1.443l1.018-1.024.821-.861c-1.215-.582-2.233-1.443-2.298-1.908-.066-.466.853-1.397 2.2-.768l1.411-1c.197-.14 1.15.278 1.708.465l.689.209c.46-.35.953-.721 1.15-.838.197-.116 1.116-.279 1.674-.14.526.14 2.529-.442 3.054-.767.525-.326 3.349.442 4.893.256l.853-.466c.296-.163.985-.302 1.051-.256l.985 1.257c1.839.023 3.842.116 4.433.186l.493-.116c3.546-.908 6.928-1.466 9.423-.908l1.511.35c1.248-.396 3.054-.513 4.071-.303l.887-.117.821-.093c.821-.512 2.463-1 3.612-1.047l1.116.558c.854.443 2.529.536 3.481.21 1.51-.559 2.561-.442 4.039.023.985.303 2.495-.372 3.71-.302l2.496.163c1.543-.28 3.152-.512 3.546-.536.394-.023 1.675.07 1.412.256-.23.14-.328.675.131.885l.197-.093.69-.303c.657-.442 1.346-.675 1.477-.535l.132.14c.525.558-1.478.86-.361 1.326l.722.302c.23-.605.493-1.21.591-1.326h.066l.755.046c.854.094 1.839-.07 2.2-.349.361-.279 1.379-.07 1.445 1.024l1.97-.954c.558-.279 1.74-.419 2.167-.163.722.396 1.051.42 1.51-.07.591-.605.986-.488 1.839-.07l1.084.536c.164-.838 1.083-1.164 2.003-.721.919.442 4.695 1.047 6.304.395l1.806.093c1.051.047 2.135-.21 3.218-.186 1.051.023 2.102.35 3.12.326l1.018-.023c1.05-.233 2.955-.49 4.235-.559l.756.256 1.05.35c.887-.21 2.167-.187 2.824.046.657.232 3.218-.093 4.039 0l.854-.21c.525-.14 1.346.42 2.101.559.164.023.493-.35.723-.536l.197-.162c.197-.21 1.182-.396 2.167-.443.985-.046 3.48 1.443 4.17 1.653.689.21 3.087.21 3.448 0 .328-.21 1.412-.675 1.477-.489.033.21.361.721.624.791l.066-.046c.886-.675 1.806-1.024 3.185-1.024h1.313c1.445-.512 2.857-.885 3.153-.815v.047c.032 1.024.492 1.326 1.707.651l.164-.093c.23-.023 1.379.07 2.594.186 1.182.117 4.827-.511 5.418-.209.591.326 2.43 1.047 2.66.884.263-.163 1.412-.535 1.707-.21.296.327 2.627.653 4.499-.022 1.872-.675 7.651.14 7.88-.047.263-.186 1.15-.628 1.347-.558l.164.07c.624.255.689 1.163 2.134.488.854-.396 2.693.326 4.039.605.328.07.657.559.854.512.985-.21 1.248-1.722 2.955-.768l.722.396c1.15-.023 4.006-.233 6.305-.466h2.101c1.675 0 3.382-.093 5.156.42l1.116.325c1.839-.698 2.89-.861 2.331-.372-.591.512 1.412 1.303 1.215 1.605v.28l.033.325c.23.35.657.559.887.466.23-.093.821-1.117 1.116-1.955l.558-.582c.526-.558 1.215-1.42 2.627-.488.46.302 1.839-.187 2.791-.28l.887-.093c1.018.117 2.298.21 2.824.21.558 0 2.561.14 3.841-.186l1.183.674 1.444.838c.723-.954 1.642-1.233 1.971-.628l.361.023 1.904.163c-.164-1.07-.263-1.769-.197-1.582.066.186 1.281.837 2.463.744l.886.303 1.084.372c.919-.28 1.904-.535 2.134-.535l.099-.093.263-.256c.197-.326 1.247-.815 2.298-1.094l.46 1.07.098.21c.558.093 1.609.233 2.397.303.755.07 2.594.698 2.726.442.131-.256 1.083-.14 1.838.698l1.445-.466c.69-.209 1.314-.605 2.069-.79l.394-.094c.525.14 1.379.21 1.937.186.558-.023 2.069.722 2.364 1.07.296.35 1.839.652 2.759-.139l1.51.163c.361.047.821-.93 1.313-.977.69-.07 1.412.395 2.168.465l1.904.21c1.872-.768 3.579-.955 3.809-.396.23.558 1.576 1.955 2.463 1.862.919-.094 2.955-1.35 3.251-1.327l.197-.093 1.182-.512c.919.535 2.594.908 3.743.791l1.051-.093a6.226 6.226 0 0 1 1.609.07l1.838.326c.854-.535 1.642-.652 1.741-.233l.065.326.066.28c.099.418 1.379.278 2.857-.28l1.149-.582c.328-.163-1.51-.628-.066-.907.953-.187.854.837 1.018.86 1.182.257 2.102 1.816 3.744.49.164-.14 1.346.604 2.035.581l2.397-.07c2.627-.163 5.648-.279 6.732-.279l.722.35c1.281.604 1.609.325 1.839-.63l.033-.092c.722 0 2.364.21 3.645.442l1.149.046c1.51.07 3.152.117 4.104.396l.46.116c.525.093.788-.07.624-.395l-.066-.303c0-.046.493-.28.624-.233.46.14.952.35 1.314.606.722.535 1.28 1.07 2.331.255.295-.209 1.051-.046 1.51-.186.788-.21 1.478-.675 2.167.163l.395.489c.689.465 1.641.675 2.134.465l.295-.186c1.511-.977 3.153-1.21 5.123-.721 1.215.302 2.397 1.07 3.907.186.591-.35 2.036-.233 2.791.07.723.279 1.314.744 2.135.582l.853-.187c.756-.302 1.314-.814 1.215-1.117-.098-.302.197-1.07.854-1.047l.296.233.591.465c.459.652 1.51 1.28 2.265 1.42.788.14 3.415-.466 4.138-.675.755-.21 2.856.908 3.217 1.257.362.349 2.135-.14 2.627.186l.854-.605.591-.42c1.051.49 2.397.862 2.988.862.591 0 1.74-.722 2.102-.233.361.466 2.495.233 3.382.07.886-.163 3.743.838 4.63.884.919.047 2.823-.675 3.316-.907l.033.046c.886.815 1.839-.046 2.627.093l.952.163c.985.559 1.806.326 1.872-.535l1.543.419c.919.233 1.937.256 2.824.419 1.904.372 3.644.721 5.122-.605l.197-.186c.46-.024 2.069-.094 3.546-.163l1.314.768 1.051.605c.459-1.001 1.018-1.583 1.247-1.304.23.28 1.215 1.257 1.774 1.63l.656-.629 2.233-.582c.887.396 1.773.768 2.627 1.187 1.182.582 2.167.838 3.382-.14l.755-.604c1.347.14 2.89.395 3.415.558.526.163 1.609-.861 2.003-.908l.066.094.263.325c.196.442 1.017.536 1.838.186l.788-.093c.591-.07 1.379.373 1.938.256.821-.186 1.412-1.047 2.364-.116.46.465 1.215-.814 1.806.093.066.093 1.28-.023 1.313-.116.362-1.513 1.018-.768 2.102-.373l1.248.42c1.674-.07 3.907.162 4.958.535l1.083-.675c.066-.047.591.21.591.302 0 .28-.098.629-.328.791l-.23.163c-.525.024-.788.256-.558.512.197.233 2.2.42 3.71-.442 1.511-.86 4.827-3.584 4.893-3.188.066.396 1.51 1.257 3.119 1.257l1.379.023c1.445.023 2.89-.698 4.236.326l.132.116c.361-.046 2.462-.186 4.695-.302l2.003-.256c.887-.117 1.74-.512 2.594-.49.723 0 1.445.606 2.102.56l.853-.047c1.018-.442 2.693-.745 3.711-.722 1.018.047 3.677.978 4.531.233l1.511.186.853.117c.985-.28 2.365-.629 3.054-.745l.263.186c1.379.978 3.152.372 4.597.745l1.379.372c1.445-.233 3.645-.186 4.892.116l1.281.024c.558 0 1.116.372 1.708-.07l4.367-.605c.197.046.394.07.591.116.033 0 2.397-.21 2.43-.21l.722.094c.854-.07 2.036.023 2.594.186.558.163 2.66-.442 3.185-.628.525-.186 2.693.465 3.579.698l.92-.466c.591-.302 1.674-.116 2.167-.465l.459-.326c.263-.675.493-.884.46-.465l.164.326c.132.279.526.628.887.698.558.14 1.083-.954 1.904-.047l.23.256c.92-.046 1.773-.372 1.839-.721.099-.35.755-.652 1.346-.093.591.535 2.463 1.675 2.956 1.373.492-.303 1.576.977 1.805 1.536l.756-.256c.361-.117.394-.838.591-1.28l.033-.093c.065-.093 1.444-.42 3.119-.722l1.51-.186 1.609-.186c1.774-.233 4.039-.512 4.991-.628.986-.117 3.645.86 4.138.744l.492-.07.756-.093c1.083-.07 1.51.163.952.559l-.099.233-.098.256c.098.325.689.605 1.313.628l.296-.186c1.215-.815 1.182-.861 1.74.07.263.418.788 1.07.591 1.233-.525.465-.755.721 0 1.117l.854.465c.952.559.886 1.234-.164 1.536-1.051.303-3.645 2.7-3.087 4.561l3.316.024h.198c.164.512-.033 1.606-.427 2.42-.427.814-3.12 2.28-3.383 2.327-.262.07-.623.465-.492.838.131.372-.624 1.56-1.97 1.769l-1.149-.512-.263-.117c-.657.326-1.314.908-1.478 1.257-.164.372.558 1.768 2.233 2.14l.723-1.652c0-.023 1.017.07 1.017.14.099 1.117 1.084 1.164 2.233 1.094l1.544-.07c.689.908 1.182 1.722 1.116 1.792l-.099.07c-.591.465-1.247 1.024.099 1.28l.361.07c.657-.582 1.314-.885 1.478-.675l-.066.21a7.857 7.857 0 0 1-.886 1.558l-.427.559c.361.465 1.379 1.303 2.232 1.862l-1.773.14c-.952.069-2.003.116-1.838-1.002v-.07c-.165-.116-.526.094-.821.466-.263.372-.23 1.908.722 2.49l1.576-.535c1.018-.35 2.955-1 3.908.582l.131.186c1.182.233 1.806.535 1.379.675-.427.14-2.003 1.536-2.988 2.56l-2.922-.42-.362-.046c-.426.093-.328.21.263.28.558.07.69 1.233.952 1.233.263 0 1.084.349 1.051.838-.033.488.394 1.861.952 2.001.559.163 2.233.047 2.43-.582l.493-.512c.295-.302 1.412-.628 1.641-.489l1.511.931c1.576-.488 3.119-.907 3.382-.907.296 0 1.543 1.233 1.773 2.7l-1.28 1.163c-.066.07.328.419.426.651.23.536.263 1.024-.788 1.001l-1.477.023c-.657.815-1.445 1.839-1.773 2.328l.591.535c.197.186.295 1.14-.953.442-.492-.28-1.74-.326-2.134-.047-1.182.745-1.609.07-2.364-.349l-.46-.256c-.656-.14-1.28-.023-1.346.233-.066.256 1.149 1.257 2.988 1.28l1.609.093.328.023c.329.35.362.768.099.931-.296.163-1.576.233-2.725.256l-.066.768-.099 1.443c-1.28-.303-2.2-.791-2.036-1.047.165-.256-.164-1.094-1.313-.885l-.525.373c-.362.279-.394.977-.263 1.42l.263.767c1.083.07 3.021.28 4.334.443l-.657.837-.886 1.164c.821.86 1.543 1.722 1.641 1.908.099.186.329.14.296-.628-.033-.745 1.642-3.235 2.036-3.956l1.248.186c.23.046.459.233.689.233 3.251-.047 3.908.093 6.009.72.46.14.526.792 1.543.396l1.774-.698c.394 1.187-1.511 1.839-4.269 1.42h-1.248c-.46 0-1.051-.07-1.379-.303-1.215-.79-1.773.093-2.298.536-.46.395-.362 1.093.623.977l2.299-.28c-.328 1.118.591 1.42 2.003.652l1.379-.14 1.445-.139c1.74.442 3.119 1.28 3.086 1.885-.033.605 1.018 2.909 3.021 3.817l2.233-.815c.23-.07.591.023.854.07l1.313.233c1.379.21 3.645.465 4.991.558l1.182.21.197.023c.263-.163 1.281-.303 2.233-.303l.493.512.591.605c.591.699 1.083 1.513 1.116 1.792.033.28-.23 1.117-.361 1.327-.131.21.69.744 2.003.465 1.313-.28 4.893-.675 4.761-.93-.131-.257-.755-1.048-1.083-1.28-.329-.233-1.215.697-1.544 1.163l-.788-.093-.656-.093c-.723-.093-1.544-.861-1.839-1.676l.558-.721c.197-.256.657-.489 1.051-.605l.821-.233c1.083-.21 2.035-.093 2.134.256.098.35.887 1.28 1.576 1.024.657-.256 2.857-.745 3.448-.605.624.14 2.298.489 1.97 1.326-.296.838-1.74 2.956-2.167 3.072-.427.117-1.511.559-1.412.675.131.117.098.605-.361.815-.46.21-1.478.954-1.182 1.186.295.233.755 1.187.361 1.63-.361.418-2.2-.257-2.43-.163-.197.093-.624.651-.131.884.492.233 1.609.628 1.707.558l.69.42.82.488c1.741-.233 3.415-.838 3.678-1.35l.854.652c.427.326 1.083.651 1.642.651h.525c.69-.419 1.182-.372 1.051.07-.132.442-.723 1.909-1.117 2.374-.394.465-2.265-.186-2.43-.419-.164-.233-1.182-.605-1.937-.349l-.788.14c-.919.162-2.331.465-.886 1.535.065.047-.394.606-.723.815-.492.302-1.116.489-1.642.791l-.886.535c.657.955 1.904 2.281 2.725 2.933.854.675.197 4.049-.361 5.236l-.394 1.093c-.23.652-.066 1.187 1.182 1.14l.394-.022c.46.279.69.651.525.79-.164.164-1.641.63-2.856.932l-1.051.349-1.116.372c-.23-.605-.329-1.35-.23-1.652l-.591-.396c-1.379-.907-2.2.163-2.89.42l-.722.278c-.427.954-.92 2.048-1.117 2.397-.197.35-2.068.396-3.677.605l.328-1.675v-.047c-.295-.07-1.149-.186-1.872-.256-.722-.07-2.823.117-3.086.442-.263.326-1.445 1.234-1.642.885-.197-.326-1.346-.559-2.298-.21-.953.373-3.711.233-3.908 0-.197-.232-1.313-.675-1.773-.14l-.525.257-.296.162c-.591-.092-.952-.488-.788-.884l.131-.349.066-.14c.099-.232-.46-.418-1.215-.418l-.657.046h-.098c.065-.023.164.233.164.582s-.821 1.024-1.904.884l-1.051.163c-.854.14-1.149-.628-.755-1.512l.098-.256c-.131-.49-.788-.512-1.51-.093l-.197.395-.526 1.07c1.347.908 2.791 1.816 3.218 2.025.427.21 2.266 0 2.857-.21.558-.209 3.152.327 2.857.722-.296.396-.559 1.187.131.791.689-.395 2.66-1.117 2.758-.768.132.35.755 1.467.985 1.723.23.256.493 1.117-.492.674l-.46.024c-.591.023-1.51.628-1.707.488-1.445-1-3.415-.279-4.893-.954-.099-.046-.197-.21-.296-.21-.952.164-2.134.164-2.823.583-1.478.907-1.379-.49-2.069-.652l-.952-.233c-1.084-.419-2.036-.442-2.135-.093-.098.35-.853.978-1.51.675l-.525.023-1.577.093c-1.707-.14-3.874-.07-4.826.14-.953.21-4.236.35-4.86-.21-.624-.558-2.627-1.815-2.857-1.442-.23.395-1.576 1.815-2.331 2.024-.755.187-3.415-.256-3.842-.093-.427.187-2.102.163-2.89-.395l-.82-.512c-.099-.07-.92.279-1.084.535l-.131.186c.295.442.098.791-.493.768-.558-.023-2.528-.186-2.036-.326.493-.14 1.051-.628.033-.721l-.657-.14-.426-.093c-.395-.256-1.215-.745-1.839-1.117-.624-.349-2.824-.07-2.496.722.329.79-.492 2.769-1.083 2.63-.591-.14-2.2-.908-2.397-1.444-.197-.535 1.74.326 1.937.35.197 0 .722-.326.394-.768-.328-.443-1.773-.955-2.561-.14l-.854.21-.525.116c-.953-.652-2.988-.42-4.532.512l-2.298-1.234-1.084-.581c-2.068.209-3.94.744-4.17 1.186-.23.443-.131 1.7.164 1.885.296.186.329 1.21-1.051 1.722l-.82-.256-1.018-.302c-.756-1.047-.591-1.815.394-1.746.985.094.131-2.094-.46-2.233-.558-.117-2.364.442-2.627.535-.263.093-1.675.046-2.955.07-1.314 0-4.663.209-4.663.512 0 .302.263 1.117.624 1.233l.164-.07.953-.303c1.083-.046 2.134-.116 2.364-.162.23-.047 1.182-.303 1.609-.256.427.07 1.149.768.788 1.14-.362.372-2.364 1.489-3.382 1.466h-2.003c-.296-.535-.985-1.094-1.544-1.257l-.361.117c-.689.186-1.839.488-2.298.395-.263-.046-.69.07-.788-.046l-.23-.186c-.099-.303-.066-.745.098-.978h.164l1.018-.046c.591-.559.066-1.653-1.182-2.42l-.952.349c-1.018.372-1.478.162-2.036-.35-1.018-.884-1.937-1.21-2.036-.72-.098.488-1.51 1.651-2.988 1.582l-1.346-.117-.624-.046c-.689.14-4.531.419-8.537.628l-3.612-.559-.755-.116c-.92.303-2.266.535-2.956.489l-.623.046c-.69.047-1.445-.349-2.168-.488-.131-.024-.459.116-.525.232-.099.187-.131.512 0 .582l.919.512c1.084.535 2.726.605 3.645.14l1.182.046.46.023c.525-.07.919.047.887.233-.033.186-.362 1-.559 1.397l-.065.372-.23 1.047c.985-.116 1.642-.046 1.445.186-.197.21-1.182.326-1.675-.256-.493-.582-3.087.256-3.678.093-.591-.163-2.528-.232-2.561.28-.033.512-.46 1.675-.886 1.466v-.093c.098-.745.098-1.466-.887-1.862l-.361-.163c-.558.047-.985.582-.985 1.187l-1.084-.117c-1.248-.139-2.298.21-3.448.466-.295.07-1.05-.721-1.477-1.187l-.854-.907a25.152 25.152 0 0 1-1.248 1.303c-.23.209-.985.628-1.149.372-.164-.256-.755-.814-1.018-.745-.263.07-1.051.536-1.379.768-.328.21-2.692.629-2.331.303.361-.303.821-.931.262-.745-.558.186-2.561-.116-3.25-1.001l-1.478.908c-.263.163-1.018-.07-1.51-.163-1.314-.233-1.281-.233-1.445.791-.033.303-.361.838-.493.815l-1.247-.116c-.986.535-1.971.93-2.233.861-.23-.07-1.609-.652-2.496-1.071-.886-.419-4.006-.605-4.827.535l-2.068-.093-1.412-.046c-1.642.535-2.988.675-2.988.302 0-.349-1.051-1.443-2.397-1.675l-.559 1.117-.164.349c.92.372.985.744.132.814l-.493.117-1.215.279c-.854-.628-2.101-1.094-2.725-1.071-.657.047-2.66.489-2.923.978-.23.489-.525 1.955-.033 2.024.493.07 1.806.512 1.708.838-.099.303-.985 1.047-1.74.978l-.69-.14-1.642-.349c-.098-1.14-.689-1.606-1.313-1.024-.624.582-3.021 1.932-4.072 1.838-1.05-.093-1.839-1.978-2.364-1.559-.525.419-2.233.745-2.298.349-.066-.419-.033-1.675.197-1.745l.328.07.361.093c.328.279 1.018.139 1.511-.326.525-.465-.394-1.838-1.183-1.582l-.656-.07c-1.412-.163-.788.907-1.445 1.117-.69.233-1.346.163-1.313-.582v-.303c.032-.395-1.741 0-3.941.862l-2.134.512-1.511.372c-1.576.046-2.068 0-1.083-.117 1.018-.093.263-1.978-2.069-2.117l-2.101-.023h-.69c.132 1-.591 1.535-1.576 1.233l-.558.209c-1.281.489-1.149-.535-1.773-.675-.493-.093-1.182-.418-1.445-.302-1.117.628-2.069 0-3.054-.093-.262-.023-.558-.023-.821-.023h-.853c-.197.535-.69.884-1.084.791-.394-.093-1.642.349-1.642 1.024s2.036 1.885 1.872 2.28c-.164.396-.69 1.42-.821 1.397-.131-.024-.46-.466-.46-.954l-.164-.419c-.066-.21-.492-.466-.755-.489h-.263c-.295.233-.624.768-.722 1.187-.099.419-1.445.861-1.642.535-.197-.326-.46-1.187-.131-1.164.328.024.853-.605 1.116-1.303.296-.698.69-2.746.361-2.978h-.295c-.887 0-.723.302-.296.674.066.047-.131.373-.328.512-.328.233-.952.396-1.018.629l-.164.791c0 .907-.755 1.815-1.675 2.048l-.854.116c-.197.023-.689-.302-.722-.489-.033-.232.23-.581.493-.674.328-.117.886.093 1.182-.024l.361-.139c.23-.349-.164-1.257-.887-2.048-.722-.768-5.024-.303-7.191.326l-1.642-.187-.131-.023c1.149-.512 1.609-1.21 1.051-1.536-.558-.326-3.317-1.978-3.776-2.094l-.23.116-.263.117c-.066.349.591 1.396 1.478 2.327l1.576.325 1.937.396c.164-.326-1.346-.302-3.349.07-1.97.349-6.042 1.187-5.878 1.326.165.14-.427.908-1.773 1.327l-.197-1.559c-.065-.443-.427-.908-.821-1.257l-.197-.186c-.492-.047-.919.116-.919.349l.033.209.164 1.071c-1.182.326-2.102-.791-2.003-2.49l1.904-1.094.854-.489c.821.233 1.708.326 1.97.186.263-.116 0-.744-1.313-1.023l-1.117-.21c-.623-.116-1.412-.396-1.871-.233-.394.14-.427.838-.591 1.28l-.263.768c-.788-.186-1.281-.907-1.149-1.605.131-.699-.394-2.677.23-3.002.623-.326 2.725.558 3.119.651l.361.047c.821.116 1.248-.117 1.215-.792-.033-.372 1.379-.535.329-1.093l-.395-.21c-.459-.186-2.364-.163-4.202 0l-1.675.163-1.018.093c.197.605-.46 2.071-1.445 3.282l.033.698c0 .256.131.675.361.744l.92.303c1.05.233 2.101.814 2.331 1.326l.098.466.066.326c-.098.395-.394 1.024-.591 1.419-.23.396-1.97.745-2.561.21-.591-.536-2.134-1.723-2.036-1.327.099.419-1.51 1.327-2.331 1.094-.788-.233-2.758-1.234-2.988-.978-.23.256-1.347.792-2.003.652l-.23.093-.69.303c-.722-.07-1.477-.303-1.674-.559-.197-.233-1.15-.605-1.839-.349-.69.256-2.561.884-3.087 1.001-.492.116-2.397-1.001-3.382-1.606l-1.215.838-.131.093c-.788-.326-2.003-.186-2.693.349-.689.512-1.346 2.42-1.412 2.234-.065-.209-.919-.582-1.609-.186-.689.395-2.528 1.326-2.561 1.163l-.164-.209-.591-.698c.493-.722.46-1.117 0-.908-.46.233-1.97-1.047-2.857-1.466-.886-.419-3.71-1.024-3.612-.745.099.28-.131 1.141-.788 1.094l-.459.21c-.46.209-.591.837-1.051 1.047-.624.279-1.313.186-1.313-.582v-.302c.032-.396-.69-.489-1.577-.233-.886.256-3.185-.559-3.283-.233-.099.326-.69 1.047-1.149.884-.427-.139-1.347.768-1.445 1.071-.099.302-.755.791-1.281.721-.558-.093-2.298-.186-2.069.024.23.209.362.744.033.93l-.262-.023-1.609-.093c-.821-1.187-1.511-2.304-1.544-2.443-.032-.163-.492-.489-.886-.163-.394.326-.887 1.512-.558 2.117.328.605.525 2.165-.394 2.048-.92-.116-3.448-1.093-3.711-1.931-.263-.838-2.167-2.63-2.266-2.56-.098.093-.755.326-1.214.302h-.394l-1.314.024c.46-.489.69-1.048.46-1.234-.197-.186-1.018-.535-1.117-.139-.098.372-.722 1.07-1.182.814-.459-.279-1.773-.535-1.937-.046-.164.488.887 1.768 1.149 1.978.263.232-.722.814-1.248.791l-.361-.209-2.922-1.606c-1.872 1.815-3.842 3.141-4.334 2.979-.493-.163.328-1.676.262-1.979-.065-.325.46-1.303 1.379-1.373.92-.093.657-1.652-.591-1.21-1.247.442-4.236-.837-4.662.093-.394.931-2.989 2.979-3.054 3.282l-.164.256-.197.302c-.329.279-.723.373-.887.233-.131-.163-1.116-.838-1.74-1.233l-.526-.419-.394-.326c-.361-.466-1.116-.466-1.707 0-.558.465-2.331 1.536-2.627 1.28-.328-.256-.69-.885-.23-.931l.296-.14.295-.139c.23-.256.066-.722-.295-1.048h-.362l-1.313-.023c-1.084 1.164-1.609 2.188-1.116 2.281.492.093 1.215.721.656 1.187-.558.465.723 2.001.394 2.373-.328.349-1.641 1.35-2.101 1.49l-.263-.093-.23-.093c-.065-.35.066-1.28.296-2.072l-1.018-.209-.887-.186c0-.442.427-.885.953-.978l.492-.093.263-.046c.427-.07.066-.419-.788-.745v-.791c.558-.722-.066-1.513-1.379-1.746l-.69.303c-.919.419-1.806.675-2.561.326l-.69-.326c-.459-.698-1.674-1.094-2.692-.884l1.215.954.164.139c-.46.582-1.675 1.327-2.66 1.676l-.689-.628c-1.018-.908-1.872-1.001-3.35-.443-.788.303-1.97.117-2.955-.558l-.755-.535c-1.576-.233-3.054.139-3.284.837-.229.699 1.511 1.932.953 1.955-.559 0-1.938-.535-1.708-1.21.23-.675-.394-2.536-1.116-2.141-.723.396-2.529 1.001-2.693.582l-.295-.279c-.164-.14-.723-.07-1.084 0-.164.046-.328.419-.263.488l.756.652c.886.698 1.871 1.443 2.233 1.676.328.232-1.708 1.419-3.481 2.21l-1.675.117c-1.51.116-3.185-.419-4.498-1.327l-1.182-.838c-1.215.675-2.463 1.56-2.791 2.002l-.362-.233-.591-.396c-.788.024-1.609-.116-1.806-.302l.033-.14c.099-.256.296-.628.558-.675 1.938-.232 3.875-.418 5.812-.605h.099c.263-.232-.099-.744-.788-1.14-.69-.396-2.824-1.28-2.922-.884-.132.395-.756 1.07-1.15.651-.394-.419-1.215-1.559-.952-1.605.263-.07.887-.861.854-1.653l-1.248-.325-1.051-.256c-1.083.162-2.134.558-2.397.907l.132.186.394.675c.591.698.229 1.164-.821 1.024l-.92-.186c-.427-.093-.985-.256-1.182-.512-.361-.489-.46-1.07-.755-1.606-.099-.163-.361-.279-.591-.372-.099-.047-.296-.047-.394-.023l-.788.279c-.854.326-1.346 1.047-1.117 1.582.263.559.066 2.49.033 3.282-.033.791-.065 2.373-2.331 2.187l-1.839-.535-.985-.279c-.361.442-1.281 1-2.069 1.28l-.624-.117c-.525-.093-.788-.744-1.51-.116l-.164.14c-.657-.163-1.018-.699-.755-1.164h.262c.953-.047 1.314-.489.92-.931l-.263-.302c-1.018-.117-1.904.139-1.937.512-.033.395-.493 1.559-.756 1.815l-.295.023-.624.047c.099-.373.131-.955.066-1.28l-.197-.256c-.493-.582-.854-.093-1.149.162l-.821.675c-1.347-.209-1.675-.628-.756-.93l.657-.326c.263-.14.46-.536.394-.768-.066-.186-.558-.396-.854-.419-.492-.023-1.017.163-1.51.209-.755.07-1.872.396-2.167.14-1.182-.954-1.839-.303-2.66.233-.492.325-2.134-.14-2.397-.675l-.033-.07c.329-.186-.328-.652-1.477-1.024-1.15-.372-3.974.652-3.218.815l.164.279.263.395c-.066.512-.723.861-1.478.768-.755-.093-3.678-.093-5.484.745l-1.871.023-1.478.07c-.952-1.838-2.003-2.746-2.364-2.048-.328.698-1.379 2.118-1.609 1.606l-.394-.233c-.197-.116-.985.093-1.379.303l-.657.349c-.689.512-1.642.698-2.167.419-.525-.28-1.74-1.164-1.51-1.327.229-.163 1.214-.512 1.444-.232.23.279 1.281.768 1.511.162l-.164-.093-.854-.581c-1.051-.559-2.102-.815-2.332-.582-.229.256-.985 1.233-1.247 1.582-.263.349-.427.978-.657 1.187-.23.233-.493.861-1.149.512-.657-.372.295-1.769.23-1.955-.066-.186-.46-.582-.756-.488-.295.093-.919.721-1.313 1.117l-.69-.21c-.295-.093-.755-.442-.82-.395-.854.512-1.445 1.21-2.89.488l-.46-.232c-1.313.325-3.283.698-4.433.814l-1.083-.07-1.97-.139c-.756-1.048-1.281-1.187-1.15-.303.099.884-.919 3.072-2.003 3.002-1.083-.07-2.725-2.374-2.725-3.165l-1.313.349-.46.117c-.328.628-.821.861-1.084.535-.262-.326-1.379-1.071-1.806-.838-.426.233-.295 1.396-.065 1.559.23.163.23 1.071-.591 1.653l-1.511-.303-1.379-.279c-1.28-.559-2.43-1.071-2.528-1.187-.099-.093-.296-.791-.329-1.257l-.295-.232c-.394-.326-1.215-.768-1.609-.652-.755.209-.624.768-.033 1.21.558.442.591.931-.263 1.14-.229.07-.755-.325-1.05-.581l-.46-.419c-.46-.559-1.379-.768-2.003-.466-.624.303-2.134 1.932-2.397 1.932-.263 0-1.511-.117-1.543-.349l.065-.14c.165-.349.657-.814.493-1.024-.427-.558-1.117-.419-1.642.023-.558.443-1.445.838-1.576 1.327-.361 1.373-.985.046-1.412.163l-1.379.395c-.591 1.024-1.281 1.583-1.511 1.234-.229-.349-.328-1.722.427-2.071l.657-.303c.23-.093.657-.186.657-.256-.066-.349-.296-.698-.394-1.07-.132-.466-.23-.955-.197-1.443.033-.279.591-.675.459-.838l-.623-.791c-1.314.186-2.266.512-2.069.721.164.21.131 2.258-.263 4.003l-2.462.139-2.299.14c-2.167 1.071-4.203 1.513-4.499 1.001-.328-.512-1.674-1.536-2.232-.885l-.263.559c-.46.977.887.721 1.412 1.07.295.21.657.419.821.675.131.233.131.652-.066.792-.197.162-.886.256-1.051.139l-.886-.605c-.69.466-1.543.838-1.937.791l-.362-.116c-.525-.186-1.51 0-1.28-.791.065-.21.459-.466.755-.512l.492-.07c.92.047.887-.884-.065-2.094l-.788-.908c-.066-.07-.526-.023-.755.047-.099.023-.099.279-.099.418.033.094.263.14.263.233v.349c-.033.373-.46.722-.92.722l-.262-.14-.723-.396c-.821-.558-1.609-.791-1.74-.535s-1.576.535-2.89.07l-1.247-.326c-.23-.046-.69.372-1.051.582l-.23.14c-.23.162-1.248.372-2.233.465l-.722-.326c-1.182-.558-2.003.605-3.218.233-.952-.279-2.266-.256-3.218 0-.69.186-.887.186-1.543-.047-.756-.279-2.2-.325-2.66.024-1.084.814-1.248-.396-1.97-.28-1.018.163-.952.559-.657 1.071.164.279 1.051.558.033.745-.263.046-.887-.326-1.018-.582l-.394-.791c-.394-1.211-.854-1.816-1.018-1.327-.131.465-.788 1.327-1.116 1.094-.329-.256-1.97-.884-2.726-.722-.755.163-2.791.559-4.039-.884l3.448-.558.591-.094c.756-.023 1.084-.442.723-.954-.362-.512-2.562-.442-2.627-.768-.066-.325-1.051-.954-2.036-.535-.985.419-3.71 1.257-3.94.954-.23-.302-1.281-1.187-1.609-.931-.329.256-.952 1.536-1.182 2.281l1.379-.186 1.477-.186c.066.744.756 1.024 1.544.605.755-.419 2.824-1.49 2.889-1.466.066.023-.821.907-2.462 1.838l.098 1.583c0 .232-.985.558-1.576.744l-.657.186c-.821.117-1.707.047-1.937-.139-.23-.186-1.576-.535-2.43-.303-.821.233-3.021.908-2.89 1.094.099.209-.098.745-.591.815l-.164-.14c-.656-.559-1.116-1.233-1.806-1.769l-.624-.488c-.886-.396-2.265-.117-3.086.628l-1.511-.279-1.51-.28c.197-.884.23-1.21.033-.721s-2.102 1.629-2.496 1.955c-.427.349-1.642.954-1.248.046l.033-.605v-.372c-.427-.396-1.609-.861-2.627-1.024-1.017-.163-2.528 1.582-2.955 1.373l-.361.047c-.492.046-.887.395-1.379.488l-1.051.186c.197.582-.952.838-2.528.559l-1.346-.116-1.675-.14c-1.051-.721-2.331-.954-2.824-.535-.492.419-1.576.907-1.642.023l-1.707.326c-.755.163-2.036-.582-2.167.744-.033.163-1.117.419-1.675.373-.722-.07-1.379-.489-2.134-.605l-.788-.117c-1.182.024-1.774.28-1.248.582.525.303 1.149.791.23.396-.92-.419-3.481.651-3.908.442-.394-.21-1.215-1.164-1.313-1.489l-.788.302c-1.347.512-2.824.512-4.17-.14l-.165-.069c-.229 0-.788.558-1.215 1.28l-1.083-.326c-.69-.21-1.182-.791-1.872-1.071-.328-.139-1.018-.046-1.379.117s-.427.814-.722.861l-1.347.209c-1.543.116-3.25.326-3.808.466-.559.139-2.332-.582-2.365-.838-.065-.256-.492-1.21-.755-1.071-.263.14-.886.908-1.215 1.373-.295.466-2.167 1.234-1.773 1.397l.263.093.23.093c.295.093-.066.395-.821.651l-.526.349c-.361.233-.722.908-.624.978l1.084.628c-.197.884-.295 1.885-.23 2.211.066.326-.262 1.094-.952.931-.69-.186-2.036-.838-1.346-1.071.656-.232-.132-1.698-.624-1.698-.493 0-1.938.162-1.642.442l.033.186c.033.349.098.884-.131 1.001-.493.232-1.248 0-1.38.767-.098.722-.853.652-1.477.303a68.662 68.662 0 0 1-3.349-2.025l-.624-.395c-.559.232-.953.838-.887 1.35l.919-.024h.132c.427.442-.033.629-1.05.419-1.019-.209-3.514-.931-3.055-1.163.46-.21 1.018-1.048.46-1.443l-.263-.349c-.23-.303-.525-.838-.328-1.024.558-.536 1.215-.28 1.642.186l.985 1.163c1.773.489 3.743.675 4.4.396l-.033-.163-.197-1.001c-.394-1.07-.887-1.954-1.084-2.001-.197-.023-.426-.442-.032-.465.394-.024 1.674.232 1.641.675-.032.442.427 1.698 1.051 1.745l.263-.116c.689-.303 1.248-.722 1.937-1.048l.131-.069c.329.116.526.349.427.512l-.065.139-.46 1.14c1.346.094 2.364-.488 2.298-1.279l.296-.606.263-.512c1.05-.674.919-.884-.329-.488l-.656-.117-.821-.139c-.821-.582-1.576-.791-1.675-.512-.098.302-.361 1.094-.427 1.117-.065.023-.262-.14-.328-.396s-1.149-1.349-2.167-1.536c-1.018-.186-3.547.954-3.776.419l-.394-.279c-.165-.116-.985.14-1.38.349l-1.444.815c-1.872.628-3.415 1.466-3.448 1.861-.033.396-.92 1.676-1.839 1.699l-.492-.279c-.493-.303-.427-.884.59-1.024l.362-.047c.295-.372.69-1.117.886-1.675h.165c1.116-.023 1.674-.396.952-1.047-.263-.256-1.61-.21-2.135.069l-1.017.536c-1.248.069-1.74-.396-1.051-1.048l.295-.651.099-.256c-.69-.489-1.445.279-1.675 1.699l-2.003.535-.46.116c-.295.559-.787.489-1.05-.116l-.296-.023c-1.215-.07-1.97-1.164-3.316-.745-.361.116-.821 1.163-1.215 0-.131-.396-.591-.954-.394-1.164.328-.349 1.084-.465 1.642-.698l2.101.885c.591.139 1.314.512 1.74.372l.657-.186c.493-.536.952-1.327.985-1.746.033-.419-.394-1.396-.985-.698l-.46.396c-.164.139-.82.233-.82.209-.723-1.256-1.938.466-2.956-.302-1.018-.745-2.134.349-3.283.372l-1.215.023c-1.412.047-1.74.861-.722 1.792l1.444.466c.591.209 1.018.744.394 1.233-.525.396-1.083 1.14-1.97.605-1.445-.861-3.842-.209-4.827-1.792l-.131-.209c-1.478.046-2.299.279-1.773.465.525.21 1.313.698 1.116.885l-.197.023-1.346.116c-1.445.21-4.269.675-6.239 1.047l-.558-1.954-.033-.07c-.657.023-.854-.163-.492-.396l.393-.139.756-.256c1.05-.28 1.379-.792.755-1.094-.624-.326-3.546.046-4.728.093l-1.084-.07-.82-.047c-.526-.93-1.347-1.954-1.84-2.28-.46-.326-.755-1.35.263-1.303 1.05.046 1.904 2.141 2.167 2.373h.296c.262 0 .722-.256.788-.442l.262-.791c.23-.977-.36-1.769-1.28-1.722-.92.023-2.758-1.28-3.054-.954-.295.302-1.313 1.187-1.609.861l-.427-.07c-.36-.047-1.182.396-1.149.419l.361.675c-.23.721-.164 1.629.132 2.024l.656-.186.296-.07c.394-.279.722-.139.69.28-.033.419-.559 1.28-1.183.954-.59-.326-2.922-.722-3.546-.279-.624.442.197 2.024-.066 2.071-.295.023-1.116.023-1.215-.093-.098-.117-.558-.326-.755-.233-.197.116-1.313.326-2.101.256-.756-.093-2.562.582-2.135.791.427.233.723 1.676-.427 2.653l-2.068-.326c-.526-.093-1.215.256-1.806.396-1.51.326-1.773.209-2.233-1.094-.033-.093.066-.256 0-.302-1.313-.675-.197-2.607-1.872-2.7-1.313-.07-2.725.884-4.038 1.443-.756.326-.559.396.427.884.919.396 1.674 1.001 2.33 1.606.33.302.559 1.14.395 1.21l-.985.465c-.296-.581-1.642-1.442-3.021-1.908l-1.314-.279c-.23-.07-.69.349-.985.605l-.426.372c-.427.443-1.018.605-1.281.373l.033-.047c1.445-1.373 1.05-2.513-.657-3.56-.361-.233-.492-.675-.82-.954-.296-.256-.822-.629-1.052-.559-.82.233-.722.698-.23 1.164l.132.139c-.066.279-.427.512-.755.559l-.165-.093c-.426-.256-.985-.536-1.116-.885l-.394-1c-.328-1.304-1.51-2.49-2.627-2.723l-1.182.465c-.427.163-.985.256-1.51.256h-1.774c-1.05.536-2.397 1.001-2.988 1.048l-.262-.187c-.92-.651-1.15.14-1.445.396-.23.186-.23.838 0 .977l.887.536c1.116.465 1.477.93.853 1.024-.624.093-1.083 1.419-1.609 1.489l-.46-.07c-.492-.07-.952-.465-1.379-.442-1.707.07-1.543-1.094-1.149-1.373.92-.605-.23-1.373.558-1.815l.723-.419c.854-.442.788-1.164-.164-1.629l-.624-.349c-.329-.186-.558-.512-.887-.582-1.018-.233-2.134 1.373-3.054-.023l-.656-.978c-1.314 0-1.872-.628-1.28-1.396l1.707.838 1.773.861c2.003-1.117 4.17-1.699 4.827-1.28l.394.372c.427.419.624.28 1.215.093.59-.209 1.444.024 2.2.07.295.023.722.163.853.07 2.364-1.885 4.236-.163 6.24.465.36.117.557.559.886.582l.624.047c.722-.117 1.215-.419 1.149-.652-.099-.233.066-1.257.558-1.606.525-.349 2.102-1.14 2.397-1.024.296.117 1.15.396 1.215.35.066-.047-.328-.675-1.084-1.234-.722-.582-2.692-2.443-2.134-2.42.558.023 1.74.186 1.675.349-.066.163.164.652.722.605l.46-.093.361-.07c.558-.233 1.116.07 1.248.628l.033.443c.065 1.745 2.298 1.838 3.677 2.443.755.326 2.299.419 2.069-1.001-.132-.767.624-.744 1.346-.698l1.15.047c-.1-.628-.296-1.28-.427-1.466-.132-.186-.362-.978-.427-1.28-.066-.303-.46-.861-.033-.861.427 0 1.74.954 1.707 2.048l.066 1.07c0 .163.492.442.788.466.263 0 .755-.256.788-.443l.131-.581c0-.629.526-1.234 1.182-1.373.657-.14 2.791-.093 3.153.442.36.535 2.134 1.885 2.988 1.606.853-.303 3.283-.652 3.546-.163l.46.232.558.28c.263.418.722.884 1.018 1.047l.098-.047c1.182-.605 2.496-.535 3.81-.582l.295-.023c.361-.675.755-.814.92-.302l.295.279c.131.14.722.116 1.083.07l3.021-.349c.755-.489.887-.954.329-1.024-.559-.07-2.102-.768-2.66-.605-.558.163-1.313-1.141-1.543-1.071-.23.07-1.018-.349-.985-.582 0-.232.952-1.186 2.068-1.349l1.15.465.722.279c.69.373 2.069.349 3.054-.093l.262 1.071c.132.488-.032.861.92 1.07l.82.163c.854.652 2.004.931 2.529.605l.492-.302.362-.233c.23-.465.131-.791-.23-.698-.361.093-.985 0-.394-.466.59-.465 1.215-2.024 1.51-1.954.296.069.953.954 1.314 1.698.36.745 4.4.815 4.038.536-.36-.256-1.444-.954-1.773-1.024-.328-.07-1.182-.489-.525-.536.69-.046 2.463-.395 2.528-.674.066-.28.953-.885 1.708-.326l-.066.046-2.167 1.909c2.134 1.024 4.137 1.559 4.433 1.21.295-.373.886-1.35.722-1.466l-.23-.07-.59-.163c-.69-.14-1.051-.466-.854-.745.197-.279 1.149-.582 1.641-.07.493.512 2.693.722 2.364.303-.328-.419-.623-1.024.132-.349s3.218 1.024 2.528 1.024l-.558.116c-.295.047-.624.372-.657.582 0 .209.46.628.558.605l.953-.209c.985-.35 2.561-.908 3.48-1.187.92-.303 3.317-.07 3.612-.233.329-.163.854-.605.033-1.094l-.066.047-1.74 1.28c-1.445-1.071-1.904-2.141-1.018-2.397l.821-.024c.887-.023 1.839.163 2.693.396l.952.256c1.018.442 2.495.512 3.218.14.755-.373 3.02-1.071 3.054-.605h.065c.755.023 1.609-.187 2.266 0l.525.139c.624.396 1.182.419 1.248.047.066-.373.493-1.443.755-1.42l.132.093c1.149.885 2.364 1.722 3.382 2.7.788.745 1.674 1.001 2.824.861l.426-.047c.427-.232.493-.744.132-1.14l-.296.023-1.707.093c-1.084-1.024-1.708-2.164-1.412-2.536.295-.35 1.543-1.373 1.642-.954.065.419 1.247 1.489 2.495 1.861l1.117.187c1.379.232 2.462-.326 3.48-.978l.329-.21a7.58 7.58 0 0 0 1.74-.744c.492-.303.46 1.21-.033 1.489l-.591.093-.361.047c-.361.14-.755.628-.887 1.094-.131.465.558 1.908.985 1.862.427-.047 1.872-.466 2.332-.885.459-.395.328-2.094.394-2.397l.23-.209c.098-.093.525-.093.755-.047.164.047.427.28.394.349-.23.536-.558 1.071-.755 1.606-.033.116.197.396.394.465l.788.28c1.215.349 1.97.302 1.707-.117l-.164-.163c-.46-.512-.525-.977.427-1.093.262-.024.788.372.919.651l.164.326c-.098.419.887.396 2.2-.046l.854-.559.328-.209c-.164-.652-.591-1.164-.952-1.141-.361.024-1.609-.302-1.576-.814.033-.512.46-1.815.92-1.676l.131.21.788 1.373c1.74-.07 2.988-.256 2.758-.42l-.098-.162c-.427-.722.525-.559.755-.489l1.313.442c1.675.652 2.069 1.513.887 1.955l-.755.349c-.132.07-.165.396-.099.559.066.163.361.419.46.395.722-.139 1.51-.279 2.134-.581.361-.14.526-.559.723-.861l.426-.675c.46-.815 1.281-1.443 1.806-1.397.526.047 1.971.21 1.971.256 0 .047-.395.256-.854.303-.46.07-1.478.954-.952 1.815l.492.675.164.233c.361.209.92.163 1.248-.07l.328-.21.263-.162c.296-.163.821.209 1.182.814h.329a4.206 4.206 0 0 0 2.101-.535l.394-.256c.099-.559.328-1.35.46-1.769.164-.419 2.758-2.048 2.692-1.908-.065.14-1.018 1.49-.919 2.025.098.535 2.036 1.838 3.612 1.722l1.379.907.722.466c-.131-.675-.098-2.048.033-3.049l1.543.303c1.511.279-.394.628-.131.907.197.186.919.373 1.018.279l.394-.325c.394-.536 1.149-.698 1.707-.373l.559.163 1.806.512c1.97-.372 5.713-.954 8.373-1.28l.197.233.46.512c.656-.023 1.543.14 1.97.396l.065-.047c.756-.535 1.905.093 2.397-.326l.493-.395c.263-.699.854-1.606 1.346-2.025l.558-.14.329-.07c.525.35 1.215.908 1.576 1.257.328.35 1.773 1.327 1.97 1.583.197.256 2.036.186 3.612-.722l2.003 1.094c1.543.838.952-1.629 2.561-1.094.033 0 .394-.442.46-.698.033-.14-.263-.489-.361-.465l-2.168.279a225.02 225.02 0 0 1-1.182-2.42c-.032-.07.329-.326.788-.373l.362-.116.295-.093c.69-.419 1.051-.396.821.023-.23.42-.098 1.513.788 1.63.887.115 4.006-.234 5.451-.257 1.445-.046 4.794-.023 4.564.303-.263.302-1.904.744-2.988.651l-.525.326-1.117.675c-.886-.442-1.379-.233-1.149.489l.525.442c.526.442 1.872 1.024 2.135.861 1.444-.838 2.955-.093 4.367-.349.394-.07.657-.442.985-.652.558-.326 1.412-.535 1.642-.954l.328-.605c-.033-.768 1.084-1.35 2.463-1.327l1.083.047h.099c.164.35-.23.628-.821.605-.624-.023-2.102.21-2.102.535 0 .326 1.183 1.629 2.726 1.885 1.543.233 6.304.21 7.059 1.001l.69-1.303c.361-.698-.591-1.187-1.609-1.443-.46-.116-.919-.419-1.215-.721l-.23-.187c-.033-.349.361-.698.887-.814l.46.047.361.046c.361.023 1.018-.093 1.445-.256.426-.163 1.543-.116 1.149.233-.361.349-.985 1.652-.46 2.001l.427.233.525.28c.624.255 1.314-.047 1.576-.676l-.131-.512c-.098-.326-.689-.558 0-.884l.296-.14c.361-.21.689-.093.755.256.066.35 1.215 1.234 2.43 1.07l1.018-.139.656-.093c.69-.047 1.773-.14 2.43-.186.657-.07 2.299.116 2.529.675.229.558 1.444 2.024 1.838 1.931.394-.093 1.544-.558 1.774-.837.229-.303-.165-1.536-1.051-2.002-.887-.465.033-2.327.558-2.024.525.325 1.773 1.093 1.904.907l.132-.163.131-.186c.131-.21.263-.093.263.256 0 .372-.197 1.443-.197 1.629 0 .186.394.698.854.698l.328-.116c.361-.14.624-.396.919-.605.985-.652 1.675-.722 1.806.465 0 .047.493.117.755.117l1.215-.024c.788-.698 1.314-.954 1.183-.535-.132.419-.099 1.629.459 1.35.558-.28 1.905-.768 2.003-.559l.164.14c.92.907 2.562 1.582 2.988 1.163 1.051-1.047-.722-.86-1.116-1.303l-.427-.419c-.098-.651-.131-1.768-.033-2.443l.624-.419c.197-.14.854-.163 1.051-.023.23.14.361.558.263.791l-.165.442c-.295.442-.065.977.526 1.21l.46.303c.689.442 1.116.116 1.74-.093l.624-.21c.886.117 1.97.652 2.462 1.187.46.535.066 2.304-.853 2.42l-.854-.884c-1.182-1.233-1.445-1.21-3.415.023-.361.233-.985.233-1.412.419l-1.018.512c.099.838 1.346 1.234 2.758.884l1.281-.325 3.612 1.186.46-.046c.492-.07 2.298-.768 4.006-1.583l1.871.094 1.97.093c.69-.256 1.051-.698.756-.954l-.329-.187a1.28 1.28 0 0 0-.722-.139l-3.021.279c-.952-.977-1.97-1.908-2.233-2.048-.263-.163-.427-.977.493-1.303.952-.326 3.349 1.21 3.874 1.35.526.14 1.741-.908 2.561-1.35l.657.116 2.233.373c1.806-.396 3.054-1.14 2.725-1.7-.328-.558-.295-2 .92-1.721l.821-1.024.262-.326c.329-.396-1.674-.023-4.432.791l-1.412-2.536c-.033-.047-.854 0-1.051.186l-.591.465c-.591.629-1.117.861-1.182.512l-.099-.28-.427-1.256c-1.247-.512-2.035-.628-1.74-.21.296.396-2.463 1.676-4.597 1.7l-2.003-.163-1.97-.163c-2.134-.303-5.221-.42-6.863-.256l-.558.605c-1.018 1.163-2.463 1.047-3.776 1.49l-1.445.488c-.263-.605.657-1.233 2.069-1.42l1.149-.395.985-.35c1.149-.767 1.346-1.465.394-1.558l-.591.14-1.576.395c-1.675.535-3.711 1.07-4.531 1.187-.821.116-4.4-1.21-5.123-1.373l-.065.767-.033.373c0 .465-.788.675-1.708.442-.919-.233-2.397 1.676-2.495 2.327l-.066.605c-.066.466.099 1.187-.952 1l-1.576-.278c.919-.326 1.674-1.001 1.707-1.49.033-.488-.821-1.699-1.97-1.233l-.23-.14c-1.477-.977-3.546-.186-4.925-.907l-1.149-.605c.032.535-.394 1.256-.953 1.582l-.591-.768c-.23-.28 0-.907-.788-.372-.295.186-.558.558-.525.838l.033.325c.328.42-.23.885-1.215 1.048-.985.14-2.627-1.234-3.12-1.513-.459-.28-2.003-.419-2.627.419l-2.495-.42c-.525-.092-1.116.024-1.642-.069-.328-.046-.788-.256-.821-.465-.131-.559-.033-1.001-1.083-.396-.526.303-1.576.21-2.332.116-.591-.07-1.182-.605-1.707-.558-.394.047-.755 1.024-1.018.977l-2.266-.232c-1.346 1.21-3.94 1.442-5.779.535l-2.66.21c-2.134.162-2.462.092-4.038-1.071-.23-.186-.723-.186-1.084-.28 0 0-3.021 2.002-3.021 2.025-.821.605-1.543 1.583-2.889.373-.23-.21-1.281-.28-1.544-.094l-1.576 1.14c-.492-.953-1.445-1.489-2.134-1.186-.69.302-1.97.512-1.937.023.065-.489-1.872.303-2.036.373-.164.07-1.544-.163-2.923-.396l.066 1.35.033.977c-.821.047-1.609.303-1.708.605-.098.303-.722.954-1.116.768-.394-.186-1.51-.768-1.675-.908-.131-.14-.131-.581.329-.628.459-.046.788-.582-.263-1.047-1.051-.465-3.678.465-3.152 1.024.525.535 1.97 1.862 1.346 2.21l-.427.233c-1.445.768-3.054.536-4.63.466-.197 0-.525-.442-.492-.652.033-.186.427-.419.755-.512.164-.046.558.047.69.186l1.215 1.094c.656-.745.788-1.699.262-2.14-.525-.443-3.71-1.118-4.268-2.002l.164-1.397.033-.209c.131-.233-.033-.395-.362-.372-.328.023-1.05.814-1.444 1.536-.394.721-1.741 2.024-2.069 1.14l-1.576.093c-1.511.093-3.12.768-4.663-.046l-.985-.536c-1.084.28-2.922.722-4.072 1l-.853-.814c-.165-.14-.657-.232-.821-.162l-1.314.674c-1.641.443-3.677.722-4.531.629l-.788-.093c-.296-.047-.657-.21-.854-.14-1.379.535-3.71.908-4.86.675l-.229-.047c-.362-.349-.953-.302-1.379.07-.394.373-1.971 1.187-1.938.35.033-.815-1.018-2.374-2.462-1.862l-.821.72-.854.769c-.46-.465-1.084-1.024-1.412-1.257h-.296c-.262 0-.755.326-.722.489l.164 1.862c-1.937-.14-3.251-.489-2.889-.768.328-.303 1.018-1.303.755-1.653h-.131l-2.397.024c-.493 1.373-1.183 2.187-1.478 1.815-.328-.373-1.609-1.164-2.233-1.094-.624.07-1.609 1.443-2.101 1.56l-.099-.117-.295-.28c-.165-.418-.526-.65-.854-.511l-.296.046c-.525.07-1.083.14-1.576.093l-1.412-.14c-1.707-.209-3.185-.186-3.283.094-.099.28-.558.698-.755.14-.198-.56-2.463-.606-2.529-.303-.066.302-.591 1.163-.952 1.28l-.099-.07-1.937-1.303c-2.397.419-4.663.93-5.057 1.094l-.558-.35c-.854-.558-1.478-.279-1.51.582 0 .21.098.489-.066.605-.23.186-.591.326-.952.373l-.197.023c-.23-.163-.821-.791-1.28-1.396-.46-.605-2.923-1.722-3.285-1.536-.393.21-1.411 1.047-2.2 1.303-.788.28-1.707 1.838-2.002 1.745v-.069c.098-.629-.197-1.094-1.051-.862-.361.094-.427.815-.657 1.234l-.098.186c-.165.186-.197-.186-.033-.861s-.493-2.56.492-3.118l.854-.559.328-.21c.394-.418-.427-.767-1.806-.767l-.656.372c-1.117.628-1.74.652-2.726-.07-.262-.21-1.51-.07-1.806.21-.295.279-.197.977.066 1.373l.263.418c.558.28.69.862.262 1.304-.394.419-2.232 1.256-3.283 1.07l1.215-.907 1.182-.861c-1.215-.49-2.299-.42-2.397.14-.099.558-.394 1.512-.427.93-.033-.582-2.2.047-2.66-.372-.427-.42-2.068-1.303-2.528-.908-.46.396-1.51 1.047-1.28.466.262-.582-2.168-.256-2.168.232-.033.489-1.346 2.025-2.89 1.932l-1.313.07c-.886.046-1.707.419-2.594.512-1.313.163-.525-1.094-1.28-1.187l-1.183-.14c-1.379.233-2.167.489-1.74.559.427.093 1.182.977.722 1.768l-1.05-.465c-1.051-.466-1.412 1.001-2.397.186-.427-.372-1.478-.302-2.167-.535-.821-.279-1.478-.791-2.299-1.024l-.558-.163c-1.018.093-1.576.512-1.182.931.394.419 1.083 1.512.886 1.652-.197.14-1.215.489-1.444.21-.165-.28-1.018-.885-1.15-.629-.131.256-1.083.279-1.871-.442l-1.478-.023h-.92c-.886.139-2.166.419-2.856.628l-.099-.116c-.853-.885-1.313-.14-1.806.209-.722.535-1.28.629-2.035.047l-.23-.186c-.624.069-1.084.325-1.018.558.066.233-.525 1.327-1.543 1.652l-.362-1.117-.262-.791c-.657.093-2.135.14-3.251.116H7.459c-.887 0-1.642-1.07-2.692-.162l-.165.162c-.952-.372-1.51-.814-1.28-.93.23-.14 1.806-.792 2.79-1.211l.756-.535c.361-.256-.952-.884.197-1.28.69-.232 1.313-.651 2.036-.79l1.445-.28c.525-.931 1.28-1.792 1.641-1.908.362-.117 1.412-.093 1.51-.559.132-.465-3.217-3.398-2.724-3.281.492.116 2.068-.023 2.33-.582.263-.558 1.708-1.536 2.398-.535l-.066.675-.066.535c-1.05.651-.69 1.513.821 1.908l.69.652.69.651c1.05.536 1.937.512 1.97-.023.033-.535.656-1.792 1.379-1.49l.131-.092.755-.49c.165.443-.23 1.56-.82 2.49l-.657.792-1.314 1.792c.362 1.21 1.117 1.652 1.675.93.558-.697 1.839-3.187 2.824-3.978l.328-1.024c.164-.582.657-.14.723.302l.13 1c.92-.232 2.102-.72 2.595-1.116.492-.396 3.776-.07 5.648-.373l1.74.652c.427.163 1.445.302 1.51-.512.066-.535 1.412-1.07 0-1.629l-.295-.116c-.558-.605-.526-.978.098-.815.624.163 1.872.535 2.627.489.755-.023 2.562 1.163 4.203.838l1.543-.07c.033 0 .099-.535.033-.791-.032-.117-.426-.187-.656-.21l-.493-.046c-.59 0-1.05-.187-.952-.443h.033l.92-.07c1.083-.07 1.97.536 1.97 1.327l.393.372.69.443c1.018-.373 3.283-.908 5.024-1.187l-1.61-1.63c-.065-.046.165-.348.296-.372.23-.046.624-.07.788.024l2.2 1.303c.394-1.024.854-1.955 1.018-2.071.165-.117.591.07.591.651l.23.047 1.773.442c.427 1.233.887 2.327 1.018 2.444.132.116.591.093.887-.094.295-.186 1.182-.511 1.379-.325.164.21 1.248.395 1.97-.094l.788-.186 2.594-.581c.558-1.769 1.05-3.282 1.15-3.352.098-.07.755-.116 1.313.117.558.21-.328 2.537.197 2.676.525.14 2.988-.046 4.367-.698l1.28-.652c.132-.07.132-.395.066-.558-.033-.117-.295-.303-.46-.303l-1.904-.046c0-.722.788-1.164 1.74-.978.953.186 2.956 1.42 2.627 1.653-.328.256.099 1.326 1.478 2.001 1.379.675 5.516-.745 5.286-1.07l-.164-.35-.262-.535c.656-.605 2.2-1.35 3.447-1.652 1.248-.303 4.761.349 5.057-.233.296-.582 1.38-2.14 1.609-1.815.197.326 1.346.535 2.069-.233l.59-.465c.23-.163 1.051-.186 1.051-.186.821 2.21 3.317.954 5.024 1.303.329.07.788-.093 1.084-.233.131-.07.164-.395.098-.558l-.032-.117c-.23-.116-1.347-.256-2.463-.326l-1.018-.046c-.722-.023-1.38-.559-2.102-.605l-1.017-.07a16.02 16.02 0 0 0-1.675-1.815c-.493-.442-2.955.349-3.448.372-.492.023-1.576-.442-1.28-1.093.295-.652.36-2.514-.066-2.584l-.131.093c-.788.559-1.51 1.63-2.299 1.676l-1.51.07c-.854.698-2.135 1.605-2.824 2.024l-1.51-1.233-.526-.442c-.591-.466-1.543-.931-2.069-1.024l-.427.093-1.937.419c-.624-.745-1.215-1.42-1.313-1.513-.099-.093-.92.21-1.478.908l-.755.349c-.723.326-1.872-.116-2.529.628-.098.093-.59.093-.788.023-.788-.325-1.51-.72-2.265-1.093-.558-.256-1.084.675-1.806-.07l-.427-.442c-1.084-.163-3.514-.605-5.418-.978l-1.38-1.093-.623-.49c-1.51.07-2.692.536-2.627 1.048.066.512-1.543 1.978-3.645 1.932l-1.838.163c-1.544.14-.591-1.21-1.675-1.304a16.544 16.544 0 0 1-2.627-.442l-.164-.046c-.066-.652-.591-.536-1.182.279l-.526.489c-.164.162-.82.256-1.05.14-.263-.117-.493-.652-.361-.745l1.017-.815c-.164-1.163-.59-1.815-.952-1.466-.361.349-1.346 1.163-1.445 1.117-.098-.046-.197-.442 0-.791.197-.35.033-1.466-.919-1.49-.952-.023-3.25.28-3.152.699.065.418-1.675 1.815-2.036 2.117-.361.303-1.445.954-1.576.745-.099-.21-.887-.28-1.412.349-.526.628-3.81.442-4.236.14-.46-.303-1.478-.605-1.642.256l-1.379-.49c-1.018-.348-1.215-.86-.558-1.768.492-.675-.296-.372-.985-.279l-1.084.163c.296-.652 1.117-1.187 1.806-1.187l.263-.233.427-.372c.197-.582.065-1.373-.329-1.722l-.098.046-3.185 1.234c-1.05-1.839-2.003-3.328-2.069-3.328-.066 0-.952.512-1.379 1.187-.427.651-1.445 1.629-1.313.651l-1.642-.07-.46-.023c-.492.256-1.116.117-1.313-.325-.23-.442-1.51-.815-2.233.395l-.591.931c-.066.093-.526.093-.755.047l-.197-.047c-.165-.163-.329-.675-.362-1.117-.032-.442.23-1.792 1.248-2.048 1.018-.28.329-2.653.558-2.932.23-.256.756-1.047.624-1.164h-.098l-1.084.07c-1.05-.442-2.2-1.14-2.66-1.582l-.525.349-.263.186c.165.745-.032 1.443-.426 1.583-.427.14-1.708.023-1.412-.745l.13-.582c.1-.396.165-.838.034-1.21-.164-.559-.296-1.21-.788-1.56l-.493-.348c-.985-.117-1.806-.326-1.839-.466-.032-.14.46-1.955 1.084-3.677l3.185-.07 1.248-.023c1.182-.535 1.642-1.047 1.018-1.094-.624-.07-1.642-.605-.591-1.047l.722-.419.558-.325c.624.07 1.642.442 2.2.837l.591-.535c.132-.116-.525-.582-.59-.93-.066-.373 0-.769.82-.373l.296.14c1.083-.28.82-.908-.559-1.397l-.985-.233-.328-.07c-.46.187-.755.164-.624-.07.131-.232.131-1-.263-1.116-.394-.116-1.444-.605-1.313-.838.131-.233-.098-.884-.82-.977-.723-.093-.526 2.07-.887 2.234-.362.163-1.675.442-2.102.325-.427-.116-1.313-.93-1.215-1.233l.197-.233c.099-.093.558-.116.755-.046l.362.14c.558.418.985.046.886-.792-.066-.838 1.248-2.7 2.003-2.257.755.419 2.167-1.14 1.905-1.21-.263-.07-.854-.466-.756-.675h.099c1.346.116 1.872-.768 2.561-1.303l.328-.256c-.197-.722-.13-1.397.165-1.49.295-.093 1.674-.186 2.2.117.525.302-.23 1.722.197 2.048.427.349 1.674 1.187 1.773 1.14.098-.047.295-.372.131-.605-.131-.233-.328-1.28-.427-1.792-.065-.512-.033-2.304 1.675-3.025l1.872 1.047.722.395c.59-.79 1.248-1.768 1.477-1.908zm581.72 54.525c-.427.163-1.609.093-2.594-.14l-.854-.255c-.656-.186-1.379-.559-2.003-.489-.558.046-.065 1.28-1.412 1.047h-.032c-.132.303-.197.815-.132 1.14.033.326-2.068.117-2.068-.279-.033-.419-.559-1.373-1.15-1.093l-.459.116-.493.116c-.525.023-1.576.396-2.298.815-.723.419-3.185.163-3.284-.559l.788-.628.624-.489c-.624-.768-1.642-1.047-2.266-.628-.624.419-2.003 1.792-1.444 1.955.558.163.164 1.28-.657 1.466l-.657.279c-.263.116-.361.512-.394.768 0 .116.296.349.493.372l1.018.163c1.116.21 2.331.303 2.659.186l.197-.186c.361-.372.526-1.047.985-1.163.394-.117 1.084.512 1.642.512h1.018c1.149-.163 2.627.14 3.284.651l1.083-.745 1.182-.79c.69.814 1.445 1.28 1.642 1 .197-.256 1.346-.396 1.412-.303.033.093.46.256.821.187.361-.07 1.346.14 1.379.046.066-.093.755-.675 1.412-1.117.69-.442 2.101-2.187 2.069-2.7l-.296-.093c-.69-.232-1.248 0-1.281.699l.066.14zm-291.812-.954c.197.396-.788.396-2.167 0l-.69.885-.492.605c-.394.837 1.083 1.233 3.316.884l.526.046.459.047c.526-.093.821-.303.69-.465-.131-.187.46-1.234 1.642-1.955l-1.938-1.373-.295-.21c-.263-.233-.92-.884-1.412-1.42l-.887-.023-.755-.023c-.788-.023-1.149.303-.788.698.361.35 2.594 1.909 2.791 2.304zm155.379 2.397c.788-.256 1.347-.163 1.248.233l.197.116 1.314.745c2.462-.698 4.202-1.583 3.907-1.978-.328-.396-2.561.21-3.119.256-.559.046-2.102-.163-2.594-.373-.493-.209-1.774-.418-2.069-.093-.296.326-1.346.955-1.675.699-.328-.256-1.609-.629-2.134-.326-.525.302-1.675 1.373-1.708 1.442-.032.07.362.303.92.21s1.871-.047 1.74.233c-.131.302.099 1.07.788 1.21l.624.023h.164c.23-.372 1.609-2.14 2.397-2.397zm-132.46-2.071c-.098-.186.296-.326.887-.326.591.023 2.069.21 2.2.419l.033.093c.197.489-.591 1.303.755 1.396l1.084.094c-.132-.606.427-1.467 1.215-1.909l.623.117.723.14c.722-.024.657-.28-.131-.56l-.394-.674c-.132-.21-1.215-.21-1.839-.163l-1.314.093c-.821-.465-1.182-1.117-.788-1.443.394-.326 1.051-1.21.821-1.466-.23-.256-1.28-.698-1.74-.302-.427.395-.197 2.653-.657 2.978-.46.326-1.904 1.001-2.134.791-.23-.232-1.084-.558-1.412-.255l-.23-.024c-1.379-.163-2.134.21-2.561 1.187l-.132.28c-4.104-.326-7.223-.373-6.895-.117.328.256 2.069 1.024 3.284 1.257l.952-.652.525-.349c.624-.396 1.182-.954 1.314-1.21.098-.256-.099-.628-.756-.186-.656.442-3.218.768-3.644.582-.427-.187-1.445-1.374-1.084-2.165l.164-.791.033-.349c-.493-.419-1.872-.558-3.087-.326l-1.149.117c-.197.023-.46.512-.394.744.033.186.558.466.821.442l.46-.046c.459-.233 1.018-.116 1.247.256.23.372.033 1.28-1.083.93l-.591.187-1.511.442c-.591-.745-1.379-1.56-1.674-1.769l-.296.024-.262.023c-.263.28-.624 1.21-.788 2.048l1.017.675.854.582c.657.814 1.478.814 1.74.023l1.544.372 1.083.256c3.941-.372 7.159-.256 7.159.256l.295.163c.525.303 1.182.326 1.412-.419.066-.256.69-.605.985-.582.854.07 1.675.373 2.528.512l.427.07c.526-.116.821-.512.624-.884l-.164-.35-.099-.232zM68.008 110.946c.394-.302 1.872-.139 3.251.373l1.314.349c.262.07.919-.256 1.083-.512.23-.349.131-.442.887-.396l1.904.117c2.102.209 4.269.372 4.86.372l.492-.116 1.445-.35c1.839-.512 2.693-1 1.938-1.093l-.296-.21-.46-.326c-.328-.325.132-.232 1.018.21.92.442 4.039.372 4.039-.093l.033-.396c.066-.488-.132-1.163.23-1.419l1.247-.908c-1.017-.302-2.495.326-3.283 1.373l-2.528-.721-1.084-.303c-.197.768-.755 1.35-1.248 1.303-.492-.046-2.167.489-2.627.559-.46.07-2.397-.652-3.25-.978-.854-.302-3.415.908-4.17 1.42l-.657.489c-1.018.744-.953.768-1.675 0-.46-.489-.952-.978-1.576-1.373l-.328-.21c-.559-.046-1.084.07-1.15.28-.065.209-.69.698-1.28.651-.591-.07-.329 1.42-.165 1.792.165.349 1.642.419 2.036.116zm235.86-19.408c.394 1.908-.164 3.118-1.248 2.7l-.821.14-.755.139c-.624.79-1.543.768-2.068-.07l-.953.745c-.985.768-2.068.884-3.283.768-.788-.07-1.576.302-1.839.814-.131.256-.525.419-.722.652l-.427.465c-.427.535-.854 2.001-.92 3.258l.723.21.525.162c.722-.162 1.51-.721 1.773-1.21l-1.018-.093c-1.018-.093-1.018-.698-.525-1.047l.854-.582c1.116-.489 2.462-1.047 2.988-1.233.525-.186 2.134.582 2.462.93.296.373-.656 1.513-.985 1.513-.328 0-1.412.419-1.379.978 0 .558 1.018 1.582 2.233.954 1.215-.605 1.839-4.282 2.364-5.422l.854.488c1.248.722 1.609.117 2.101-.325l.394-.35c-1.576-2.28-2.397-3.886-1.871-3.583.558.302 1.839 1.396 2.134 1.675.263.28 1.806.14 1.675-1.117l-1.182-.838-1.084-.721zm-18.125 6.12c.853-1.954.525-3.886-.69-4.328l-1.083-.047c-1.248-.046-2.529.373-3.809.442-.887.047-1.806-.186-2.726-.302l-.295-.023c-.296-.024-.985 0-1.478.046-.525.047-1.51.885-1.248 1.303.296.42-.525 1.56-.558 1.606-.033.047-1.083-.046-2.331-.21l-1.084-.209c-.262-.046-.591-.395-.591-.605 0-.21.361-.535.624-.582l.591-.116c.788 0 .493-.745-.624-1.629l-1.116.745c-.69.395-.854 1.326-1.149 2.048-.362.977 1.017.651 1.51 1 .755.559 1.379 1.769 2.857.582l.033-.023c.262.14.985.419 1.576.628.591.21 1.379-.768 1.412-1.14.032-.372.689-1.513 1.444-1.047.723.465 2.66 1 3.251.512l.558-.047c.624-.046 1.182 1.07 1.971.419.985-.814-.493-1.14-.92-1.676l-.098-.14c-.165-.302.623-.139 1.773.35 1.149.512 4.367 2.28 4.662 1.326l.23-.744 1.412-2.677c-.295-.14-.788-.442-.886-.395l-.591.349c-.559.442-.69 1.14-.23 1.513l-.46.581-.427.536c-.263.744-.886 1.256-1.379 1.117l-.263-.187c-.591-.418-1.28-.581-1.674-.046-.361.512.033.884.952.954l.854.116zm275.886.698c.526-.023.69-.465.362-.977l-.427-.372c-.427-.35 1.051-.815-.033-1.303-.591-.28-.985-.629-1.74-.21l-.197.117c-.362 0-3.678-.326-7.323-.675l-3.546.721-1.412.28c-1.182-.792-2.594-1.094-3.119-.722-.526.395-1.971 1.163-2.2.977-.23-.186-1.412-.442-1.839.093-.394.536-.755 2.141.591 1.7l.821-.024.591-.023c.722.07 2.036.279 2.889.465l.854.21.591.14c1.543-.42 3.152-1.002 3.546-1.304l.23.047 2.233.442c.033-1.28 1.051-1.327 2.233-.117l1.149 1 1.248 1.095c1.609 1.047 3.152 1.675 3.448 1.396.262-.209.525-2.909 1.05-2.956zm-181.319 5.376c.952.163 1.707.14 1.642-.07l-.066-.023-1.084-.442c-1.28-.256-2.528-.582-2.758-.698l-.033-.14-.065-.186c.098-.209.853-.582 1.707-.838.854-.232 1.576-2.001 2.069-1.954l.46.046.295.023c.328.023.558-.21.493-.535l-.165-.233c-.065-.116-.459-.093-.722-.116-.624-.07-1.478.14-1.412-.675.033-.582.066-.884 1.084-1.28l1.313-.489c1.379-1.093 2.528-1.698 2.594-1.303.066.373.624 1.164 1.084.931l.427-.116c.591-.14 1.247-.21 1.904-.28l.263-.023c.295.07.821.582 1.215 1.164l1.116-.489.558-.233c.887.163 1.97.326 2.463.396.46.07 1.872-.605 2.364-.838l.657.442.394.256c.854-.046 1.576-.442 1.609-.907.033-.466-.657-1.839-1.543-1.909-.887-.07-3.087.513-2.923.652.164.163-1.379.652-3.94.559l-2.167.046c-1.511.023-2.693-.233-3.448-1.21l-.624-.814c-.788.302-2.167 1.163-3.021 1.908l-1.083-.163-2.43-.35c-1.839 1.095-3.12 2.444-2.824 3.003l.985-.559c.493-.279 1.116-.442 1.707-.628l.526-.163c.46.512.657 1.722.492 2.7l.362.907c.131.35-.526 1.187-.591 1.187-2.233-.442-1.577 1.14-2.299 1.745l-.525.443c.328.232 2.988 1.093 3.94 1.256zm224.006-5.469c0 .256 1.149.629 2.594.792l1.051-.28c1.313-.349 2.134 1.187 3.513.187l.493-.35c1.116.21 2.397.559 2.824.769.427.209 1.149.07.591-.838-.559-.908-2.299-3.258-1.773-3.654.525-.396-1.248-1.606-2.759-.907l.132 1.489v.093c-1.182.233-1.905.233-1.609 0 .295-.233.689-.768.459-.93-.197-.164-.722-.024-.558.744.164.768-.657 2.583-1.28 2.327-.624-.256-1.708-2.56-2.135-2.537-.394.024-1.543.186-1.379.326.164.14.821.722 1.248 1.14.427.396-1.412 1.373-1.412 1.63zm-28.633-1.117c.657.07.296-1.093-.821-2.56l-2.364 1.56c-.164.093-1.018-.186-1.313-.442l-1.018-.815c-1.314.233-3.054.512-3.875.652l-.394-.233c-.624-.396-.919-.466-1.51 0l-.427.326c-.887.349-.985.698-.23.768.755.093 2.101.954 2.791 1.582.689.629 3.645 2.444 5.122 2.49l1.347-.023c.229 0 .591-.396.591-.605 0-.21-.362-.535-.624-.582l-.854-.14c-1.116-.07-1.609-.349-1.116-.651.459-.256 4.006-1.396 4.695-1.327zm-529.38 16.43c.067.303-.065.047-.229-.582-.164-.628 2.036-1.745 2.561-1.675.558.093 1.51-.698 1.117-1.024l-.362-.303-.295-.232c-.394-.326-.821-.117-.952.418l-.23.093c-.427.163-1.051.256-1.51.187l-.789-.14c-1.018-.349-1.609-.279-1.313.186.295.466-1.872 1.187-2.2.512-.328-.698-2.955.117-2.988.861-.033.768.492 2.909 1.248 2.723.755-.186 2.856-1.117 3.316-1.559.394-.442 2.594.233 2.627.535zm186.87-7.47c-.165 1.047.82 1.978 2.2 2.025l1.083-.07.197-.024c.164-.512-.098-.954-.591-1.024l-.164-.186-.23-.256c-.033-.395.361-.768.887-.791l.427.116c.328.094.755.396.82.652l.132.652c.689.139 1.346.046 1.445-.21.131-.256 0-1.326-.197-1.838l-.395-.326c-.262-.209-.919-.279-1.346-.233l-1.642.163c.23-.628.427-1.28.427-1.443 0-.139-.492-.605-1.05-.651l-.329.163c-1.083.558-1.707.605-1.806-.559 0-.116-.821-.256-1.28-.256h-.099c-.131.396 1.675 3.049 1.511 4.096zm159.779-4.608c-.033.535.624 1.001 1.477 1.001l.526.046.427.047c.492.14.262-.419-.559-1.257l-.722-.768-.066-.093c.099-.279.46-.395.821-.279.361.116 1.314.093 1.511-.256.197-.35.624-1.722.492-2.35l-.558-.326-.296-.163c-.558.093-1.674.628-2.429 1.187l-.92-.117-1.248-.163c-.82.559-1.641 1.513-1.838 2.118-.197.582 1.51 1.14 1.477.582-.065-.559 1.938.256 1.905.791zm125.925-2.374c-.033.745.657.885 1.511.326.886-.558 3.152-2.443 3.776-3.072l-1.018-.488c-.887-.42-1.642-.42-2.561.093l-.493.28c-.854-.047-1.872-.094-2.2-.07l-.066-.117c-.262-.326-.295-.745-.591-1.024-.164-.14-.821-.163-1.05-.047l-.263.14c-.033.35.033.954.131 1.373.132.419-.755 1.466-.821 1.582-.065.117.165-.093.591-.651.46-.582 3.087.93 3.054 1.675zm192.32-6.376c.624-.163.952.303.755 1.024-.23.698-.361 2.606.263 2.28.623-.325 2.626-.186 3.48-.814.854-.628-.427-3.281-1.248-3.35-.82-.047-2.824-.583-3.447-.234-.624.35-2.036 1.28-2.003 1.35.032.047 1.576-.116 2.2-.256zM64.561 40.388c-.887-.024-1.806.674-2.036 1.559l-1.576.744c-.197.093-.394.466-.362.489 1.15.675-.853.907-.36 1.396.459.442 1.05.791 1.575 1.187l.756.582a2.009 2.009 0 0 0 2.824-.303l.59-.837.066-.094c-.23-.279-.82-.418-1.28-.302-.493.116-1.806-1.117-1.412-3.118l2.528-.722.558-.163c.723-.023 1.28-.07 1.28-.14-.065-.07-2.265-.255-3.151-.279zM191.47 89c-.263.21-.755.07-1.051-.302-.295-.373-1.641-.722-2.397 0l.591 1.094c.296.558-.788.884.099 1.629l1.018.837c-1.576.373-2.233.722-1.478.768.755.047 2.266.42 2.299-.349.032-.744.197-2.746.295-2.746.099 0 .394.256.493.582.098.326.689 1.21 1.149 1.164l.361-.093.493-.117c.689-.233.164-.838-1.215-1.35l.361-.628c.098-.163.558-.302.558-.419-.033-.326-.164-.884-.394-.954-.854-.21-1.215.186-1.149.815l-.033.07zm159.648 11.752c.361.745 1.379 1.001 2.298.582l.756-.372c.755-.349 1.116-1.56.525-1.652-1.215-.233-2.102-1.373-3.579-.722-.427.186-.591.559-1.182.093l-1.117-.884a1.819 1.819 0 0 0 .23 2.583l.952.163 1.117.209zM134.698 85.255c.525 1.303 1.412 2.14 1.97 1.885.558-.256-.689-2.374-1.445-3.282l.197-1.047c.033-.093-.624-.372-.919-.349-.263.023-.558.35-.657.559-.131.279 0 .605-.098.907l-.033.093c-.329.07-.657-.14-.69-.442-.065-.326-.853-1.187-1.642-1.14l-.656.07h-.099c-.065.116.263.488.723.837.459.326-.526 1.746-.493 2.095l.46-.023 3.382-.163zM455.57 98.24c.492.745 1.215 1.07 1.576.745.361-.35-1.117-1.513-1.445-1.652-.328-.14-2.036.023-2.758-.163l-.69-.047c-.656-.046-1.444.35-1.97.186l-1.904-.605c-.493 1.164 1.182 2.374 3.776 2.7l1.642-.559 1.773-.605zm276.773-17.384c1.051.49 1.51 1.14 1.051 1.467l.065.07.92 1.21c1.642-.582 3.021-1.723 3.021-2.537l-1.117-.117c-1.444-.162-1.806-1.117-2.758-1.629l-.296-.162c-.426-.163-1.116-.047-1.51.256-.427.302-1.215 1.652-.821 2.303l1.182-.698.263-.163zm-174.621 22.806c-.952.489-1.412 1.327-1.084 1.862.362.559 1.872 1.815 2.365 1.164.492-.652 1.97-2.165 2.364-2.118l.262.186c.559.396 1.215.675 1.642.14.197-.233-.23-.954-.656-1.21-.46-.28-1.445-.536-1.774-.349-.788.418-1.51 0-2.134.116l-.985.209zm-46.725-5.98c.164-.49-.723-1.024-1.971-1.164-1.247-.163-4.728.326-5.22.163-.493-.163-.033 1.233.098 1.582.131.35 1.149.861 1.905.256l.755-.419.689-.372c.887-.256 1.806-.093 2.036.326.23.442 1.543.14 1.708-.372zm-151.702-2.42c.657.232 1.51.162 1.904-.117.362-.302 1.084-1.21.723-1.35-.361-.14-2.069-.046-2.857.605l-1.51-.628c-.821-.349-2.135-.116-3.218-.116h-.23c-.328.14-.558.581-.525.977 0 .396 5.056.396 5.713.628zM93.292 22.607c-.788-.163-.854-.908-.131-1.676l.394-.698c.13-.233-.362-.675-.624-1-.427-.536-.755-.047-1.182 0l-1.051.14c-.394.581-.46 1.349-.131 1.698.328.35-.657 1.513-.197 2.257l.558.582c.23.233 1.083.442 1.313.326.591-.326 1.61-.652 1.215-1.396l-.164-.233zm620.531 36.047c-.295-.232-.919.745-1.379 2.188l2.43-.093c.591-.023 1.15-.512 1.708-.489l.624.023c.82.396 1.477.303 1.444-.163-.032-.488-.328-1.978-.591-2.49-.262-.511-2.462-.07-2.561.35-.098.395-1.346.907-1.675.674zm36.58 22.388c.558-.722.197-1.28-.821-1.234-1.018.047-3.514-.628-3.481-.07 0 .559.723 1.955 1.051 1.955.328-.023 1.445.28 2.167.373l.394-.373.69-.651zm-603.851 27.669c.295.233.886.186 1.313-.07l1.609-.162c.197-.024.46-.117.525-.233.099-.163.132-.512 0-.582l-1.018-.465c-1.214-.466-1.641-1.397-.985-2.025l-.985-.558-.394-.21c-.558-.093-1.083 0-1.182.21-.098.232.263 1.442.591 2.443l-1.707.489-.493.139c-.459.861-.459 1.304 0 .978.46-.303 2.43-.186 2.726.046zm179.579-9.122c-.23-.326-1.248.163-2.299 1.07l-1.477-.395c-.591-.163-1.117-.442-1.708-.582-.328-.07-1.051 0-1.051.07-.065.326-.065.721.099 1.024.131.256.493.605.821.651l1.346.117c1.051.651 2.299 1.303 2.791 1.419.493.117.985-1.024.723-1.443l-.756-.023h-.098c-.099-.256.164-.489.624-.535.427-.023 1.215-1.07.985-1.373zm380.731-6.307c-.328-.674-1.412-1.024-2.331-.79l-.23-.164-1.215-.93c-.459.79-.328 1.512.263 1.605.591.093 2.036.512 1.674.768-.361.233-.952 1-.558 1.14.394.14 2.069.512 3.185.326l1.018.373.197.07c.362-.257.132-.722-.591-1.048l-.722-.256c-.197-.07-.328-.302-.394-.465l-.296-.629zM80.19 16.86c1.018.396 2.003.093 2.168-.675l-.263-.35c-.46-.604-1.15-1.326-1.937-1.512-1.412-.349-1.905.908-2.857 1.397-.132.07 0 .418-.099.558l-.36.466c-.1.535.426 1 1.214 1.047l.033-.815c0-.116.952-.326 1.412-.232l.69.116zm448.833 78.75c-.361-.255-1.083-.511-1.674-.581l-.23.14c-.296.209-.624.744-.46.907l.23.256c.591.116.591.372 0 .558l-.23.303c-.197.233-.065.791.197 1l.427.303c.624.163 1.806.442 2.66.605l.722-.186c.23-.07.624-.163.624-.28.033-.279.033-.65-.197-.79l-.361-.233c-.558-.14-.854-.396-.69-.605.23-.233-.656-1.164-1.018-1.397zm-231.328-1.256c1.576-.21 2.857-.605 2.791-.885-.033-.279-.296-.72-.493-.372l-.295.21-.263.162c-.427.047-1.576-.023-2.561-.162-.985-.14-3.546-.094-3.645.395-.098.489-1.609-.186-1.806-.116-.23.07-.591.582-.295.93l.361.094.493.14a91.732 91.732 0 0 1 3.316-.21l1.084-.07 1.313-.116zM87.185 15.882c-.592.303-.92.094-.723-.465l.131-.256.099-.21c.131-.232-.164-.488-.722-.558l-.099.116c-.427.536-.591 1.21-1.74 1.257-.132 0-.296.884-.263 1.35 0 .093.92.28 1.314.163l.426-.117c.427 0 1.51.024 2.397.047.887.047-.197-1.629-.82-1.326zM353.91 92.33c.887.186 1.412.117 1.116-.14-.262-.255-1.149-1.28-1.97-1.791l-.492.163c-.756.256-1.15.558-1.872-.024l-.098-.093c-1.051.512-1.577 1.14-1.15 1.443.427.303 3.579.28 4.466.442zM117.196 75.04c-1.477-.931-2.823-.745-2.955.395l1.182.256.526.117c.952-.699 2.2-.792 2.758-.163.558.605 2.594-.256 2.167-.768-.427-.49-2.233-1.792-2.922-1.862l-.033.07-.723 1.954zm-21.474 32.626c-1.018-.14-1.675.07-1.445.442l.263.326.36.465c.395.512 1.084.419 1.511-.186l.427-.07 1.708-.325c1.904-.21 2.955-.675 2.298-1.024-.657-.373-4.104.512-5.122.372zm256.152-13.102c.033-.512-1.543-.488-3.481.047l-1.477.605c-.493.21.427.721 3.678 1.373l.328.07c.46-.093.886-.652.919-1.234l.033-.488v-.373zm-242.755 17.803c.328-.21.689-.326.854-.233v.07c.065.652.229 1.187 1.379 1.024.361-.047 1.05-.14 1.05-.209v-.559c-.164-.582-.624-1.373-1.05-1.699-.427-.349-2.102-.558-2.791.303-.69.861.229 1.512.558 1.303zM22.432 54.699c.329-.302.46-.581.263-.651l-.066.023c-.755.372-1.445 1-2.266 1.094-.755.093-1.641-.42-2.462-.582-.328-.07-1.05.093-1.05.163l-.034.349c.164.372.985.698 1.872.721.854.024 3.152.698 3.907.047l-.098-.885-.066-.279zm96.833 29.904c-.722-.023-1.182.582-.985 1.303L119.528 87c.262.256.624.559 1.018.605l.558.07c.492-.35.689-.977.46-1.396v-.373l.032-.395c.329-.466-1.576-.908-2.331-.908zm361.818 12.66c-.689-.023-.427.954.591 2.164l1.084.628c.624.349 2.528.303 2.889-.07.887-1-.985-.767-1.477-1.21l-.361-.325c-.657-.187-1.084-.443-.953-.559.132-.116-1.083-.605-1.773-.628zM55.103 75.9c-.295.465-.459.86-.393.907.066.047.59-.093.952-.395.361-.28 1.576-1.536 1.806-2.141.23-.606.098-2.63-.066-3.096l-.394-.209-.558-.302a13.06 13.06 0 0 0-1.412 1.559l.099.349.164.605c.033.675.098 2.28-.197 2.723zm499.565 15.103c.624-.233.755-.861.329-1.373l1.149-.582.722-.372c-.262-.443-1.149-.885-1.937-.931l-.723.046c-1.017.047-1.773.838-1.477 1.63l.131.325c-.033.326-.065.722-.098.908-.033.186.328.651.853.628l.427-.116.624-.163zm-339.128 13.66c.262-.465.689-.465.985-.023.262.442 2.003.721 1.248.186l-.362-.465c-.197-.256 1.609-.838-.262-1.001-.69-.07-1.478-.605-2.036-.466l-.92.233c-.164.815-.591 1.769-.952 2.118l-.131.349c-.099.209.164.652.394.721l.263.093c.459-.139 1.51-1.303 1.773-1.745zm308.394-3.142c-.92.024-.624.187.624.326 1.28.14 4.827.373 4.925.186.099-.186.46-.861.296-1.047-.132-.186-.821-.628-1.347-.465-.492.139-3.579.954-4.498 1zM30.379 112.575c.689-.046.689-.419.065-.814-.624-.419-3.25.814-4.039.931l-.722-.186c-.23-.047-.657.186-.887.372-.131.093-.065.512.066.535 1.182.349 2.331.722 3.58.908.262.046 1.148-.861 1.05-.931-.558-.512-.755-.791.394-.815h.492zm109.08-26.227c-.066-.325-.197-.605-.328-.628-.099-.023-.591.14-.854.419-.263.28-.558 1.443-.657 1.978-.098.535-.886 2.118-.985 2.444-.098.325.066.628.591 0l.427-.14c2.496-.838 1.511-2.444 1.773-3.77l.033-.303zm-28.534 4.84c-.92.303-.985.513-.164.49.82-.024 2.561 1.233 2.922 1.163.394-.07 1.182-.838 1.445-1.303.262-.465.788-1.908.624-2.141h-.165c-.361 0-.886.023-1.05.21l-.23.186c0 .349-.361 1.186-.854 1.838l-1.872-.326-.656-.116zm131.442 10.706c-.066-.559-1.248-.885-2.693-.698l-1.116.209c-.624.116-.723 1.117-.099 1.14 1.248.07 1.117.536 1.248 1.164l.098.512c.526.512 1.182.535 1.478.046l-.23-.209c-.427-.372-.591-.558.033-.884.427-.233.919-.512 1.084-.861l.197-.419zM88.399 21.956c0-.279-1.641-.814-3.71-1.21l-1.773-.279c-.263-.047-.821.186-.92.372-.098.233.066.699.296.768.92.303 1.904.605 2.89.722l1.083.116c1.182.326 2.134-.21 2.134-.489zM16.03 54.513c-1.412-1.768-2.528-2.909-2.528-2.513.033.372.131 2.048.46 3.072l.164.93c.033.163.624.35.92.326.262-.023.623-.326.656-.535l.328-1.28zM734.806 77.11c-.986-.117-1.182.279-.427.907.755.629 2.955 1.955 3.349 1.722.394-.256.23-1.629.033-1.443-.164.187-1.938-1.07-2.955-1.186zM365.829 96.169c.624.396 1.806.419 2.594.07.788-.35.624-2.327-.788-2.42l-1.182.116-1.018.093c-1.149.396-.262 1.769.394 2.141zm107.439 4.771c-.197-.163-.427.069-.525.488-.099.419-2.791.768-4.203 1.21l-1.248-.861c-.066-.023-.492.14-.624.28-.131.163-.098.395-.033.581.033.094 4.006.745 4.138.699l1.116-.559c1.248-.652 1.576-1.699 1.379-1.838zm-350.719 12.171c-.033.768.558 1.14 1.346.791l.197-.279c1.084-1.397 1.576-1.792 2.561-2.234l.263-.117c.098-.489-.394-.605-1.117-.256l-.689.023-.788.024c-.92-.256-1.741 1.28-1.773 2.048zm-34.117-87.64c1.74.046 1.117-.815-1.379-1.932l-2.331.07h-.164c-.165.418-.066.814.197.907l.262.024.296.023c.328-.047.82.372 1.083.93l.953-.023h1.083zM87.907 89c-.558 1.234.033 2.072 1.379 1.839l.952-.21c.624-.14 1.15-.512 1.773-.535 1.084-.046.953-.582.92-1.047 0-.28-.165-.722-.361-.768-.788-.186-1.248.023-1.314.721-.033.163-.886.442-1.248.373L87.907 89zM643.555 93.4c1.937.884 3.645 1.093 3.776.465l-1.116-.395c-.723-.257-1.642-.699-1.839-1.21-.394-.931-1.281-.49-1.97-.56-.132-.022-.591.815-.526.862l1.675.838zm-498.809-6.447c.853-.14.952-.442.197-.698l-.46-.162-1.281-.443c-.591.745-1.477 1.978-1.937 2.723l-.263.721-.098.233c.394.35.919.535 1.149.42.263-.117 1.839-2.677 2.693-2.793zM59.898 111.97c.492.396 1.083.536 1.346.28h.197c1.806-.047 1.61-1.653 2.922-2.095l.165-.046c-.099-.512-.624-.908-1.182-.838l-.394.139c-.985.443-1.018 1.932-2.89 1.443-.033-.023-.525.536-.427.698l.263.419zm303.797-12.613c-.525-.28-.722.326-.394 1.35l-2.036-.116h-.131c-.197.512 0 1.07.427 1.256l.295-.07 1.314-.349c1.477-.488 1.05-1.792.525-2.07zm-209.099 7.54c-1.083.093-1.215.116-.328.093.887-.046 2.857.978 3.021.838.164-.14-.23-.977-.788-1.699l-.558-.628c-.197-.21-.723-.489-.821-.442-.329.209-.854.535-.788.768l.262 1.07zM7.853 63.287c.46.744 1.248.954 1.773.465.526-.489 1.117-1.815.164-1.839l-.525-.232-.558-.256c-.526.07-1.346.465-1.839.86l.558.583.427.418zm424.961 37.536c.427 0-.065-.814-1.116-1.838l-1.215-.466c-.525-.209-1.74.536-2.627.885l-.098.046c.065.28.722.42 1.445.256l.656-.046.624-.047c.788.047 1.314.256 1.149.442-.098.233.756.768 1.182.768zm-89.083-6.679c-.591-.023-.92.675-.69 1.536l.558.396.493.349c.985.023 1.806-.35 1.806-.791.033-.442-1.576-1.49-2.167-1.49zm98.606 2.048c-.624-.395-.985-.86-.821-1.024.164-.163.328-.651.066-.79l-.165.046c-1.674.349-1.74.768-.558 1.838l.296.28c.131.418.722 1.28 1.248 1.954l.886-.442c1.018-.489.164-1.024-.394-1.443l-.558-.419zM75.593 22.538c-.558-1.233-1.477-1.955-2.068-1.629-.591.35-2.167 1.164-2.594 1.373-.427.21 1.018 1.094 1.642.512l.623-.046 2.397-.21zm632.09 28.391c-.197-.605-1.051-.837-1.904-.512l-.329.35c-.229.209.296.837.066 1.023-.394.326-1.116.396-1.642.652l-.23.093c-.164.233.263.489.92.628.624.093 3.316-1.629 3.119-2.234zm-605.427 23.9c.394.628 1.051.722 1.511.21.426-.513.919-1.839.098-1.816l-.591-.116-.624-.14c-1.182-.488-.788 1.234-.394 1.862zm443.776 18.222c.887-.373 1.215-1.048.723-1.466l-.329-.14c-1.51-.652-2.594.349-3.874.628-.099.024-.197.42-.099.536.755.79 1.905.418 2.89.442h.689zm-363.197-6.68c-.459-.628-1.346-.907-2.003-.604-.656.302-1.642 1.303-.098 1.256l.985.21.788.163c.722.535 1.182.465 1.018-.163l-.329-.396-.361-.465zm-78.97 26.46c1.478-.256 2.463-1.163 2.2-2.001l-.328-.675-.033-.093c-.558.023-1.051.209-1.117.396l.099.046c.657.373.394.698-.164.861-.69.21-1.511.233-2.2.442-.263.07-.493.489-.46.699.033.186.525.512.755.465l1.248-.14zm350.391-11.1c-1.379.326-2.561.884-2.594 1.21-.033.349.164 1.257.361 1.326.165.07.756.047.854-.162l.033-.187c.033-.209-.066-.605 0-.628.985-.209 2.003-.326 2.955-.605l.361-.093c.263-.396.033-.861-.459-1.071l-.394.047-1.117.163zm-381.88-7.912c-.493-.931-1.117-.955-1.413-.07h-.098c-1.642-.163-1.28 1.117-2.003 1.559-.328.186-.131 1.42.197 1.513 1.215.372 1.084-.42 1.28-1.024.132-.442.657-.815 1.084-1.187l.953-.791zm28.37-82.66c-.033.535.689.697 1.609.325.886-.372 1.182-2.071.558-2.071-.657-.023-2.167 1.187-2.167 1.745zm560.836 15.126c.624-.21.394-.745-.46-1.164-.854-.419-2.2.117-2.036.466.197.372 1.905.907 2.496.698zM142.381 7.435c-1.838.512-2.2 1.326-.788 1.792l1.609-.745c.296-.14.854-.046 1.084-.21.263-.162.427-.558.328-.767-.098-.186-.656-.42-.919-.35l-1.314.28zM127.934 111.9c-.329.047-.132.699.492 1.42l1.084-.745c.23-.163 1.182-.977 2.233-.419l.23.14c.853-.372.919-.884.197-1.14-.723-.256-3.908.698-4.236.744zm10.442-34.627c.558.395 1.477-.07 2.035-1.07l.099-.792.033-.21c-1.051-.302-2.726 1.676-2.167 2.072zm-4.729-3.235c.69.721.821 1.396.263 1.513l-.329.209c-.229.163-.426.582-.295.791.098.186.821.396.985.326l.821-.489c.821-.628 1.543-1.536 1.642-2.024l-.263-.256c-.263-.233-.985-.303-1.478-.233l-1.346.163zm-7.257.93c-.197.838 0 .699.427-.302l1.347.233.985.163c0-.605-.099-1.327-.296-1.606-.131-.28-2.266.675-2.463 1.513zm620.532 10.543c.558.302 1.675.326 2.43.046l-.788-.721-.558-.512c-.46-.652-.953-1.21-1.084-1.234-.131-.023-.952.047-1.215.326-.263.233.624 1.792 1.215 2.095zm-638.099.86c-.952.35-1.116.699-.394.745.723.07-.394 1.304-.328 1.466.098.163.722.466 1.182.257l.197-.28c.263-.395-.296-1.117.788-1.163.985-.024 1.215-.466.887-.954-.165-.233-.985-.373-1.445-.28l-.887.21zm560.738-62.925c-.263-.047-.329-.35-.164-.629.164-.302-.197-.395-1.215.652l-1.544.186c-.098.023-.229.419-.131.535.197.21.591.466.821.443.985-.14 1.97-.373 2.955-.605l.099-.024c.033-.186-.559-.489-.821-.558zm-306.556 80.03c-.886.326-1.182.815-.656 1.071.525.256 1.773.837 1.609.698-.164-.14-.164-.582.394-.745.525-.139-.46-1.373-1.347-1.024zm-264.131 8.262c-.197-.605-.887-.838-1.51-.512-.657.325-1.183 2.397-.854 2.978.295.605 2.561-1.861 2.364-2.466zm434.057-14.266c.23.582 1.182.582 2.101 0l.821.791c.033.024.493-.07.558-.163.099-.162.165-.511.033-.581l-1.247-.722c-1.774-.954-2.496.093-2.266.675zM342.319 88.77c-.624-.14-1.018.186-.854.721l.164.023c1.215.093 1.478.582 1.314 1.373l-.066.373c.164.558.69.419 1.182-.28.526-.698-1.116-2.07-1.74-2.21zm216.158 2.327c-.197.233.197.489.92.535l.361-.07c.755-.14 1.477-.326 2.167-.558.657-.233.69-.885.066-1.21l-1.347-.722c-.853.698-1.97 1.792-2.167 2.025zm46.2-2.793c-.689.186-.886.675-.427 1.07.46.42 1.905 1.025 2.168.466.229-.535-1.051-1.722-1.741-1.536zM58.814 75.411c-.032.535.591.814 1.412.582l.558-.163.427-.117c.46-.162.657-.558.427-.884l-.328-.186-.723-.442c-.919-.466-1.74.675-1.773 1.21z" fill="#E8AE9A" fill-opacity=".5"/></svg>