<!DOCTYPE svg PUBLIC "-//W3C//DTD SVG 20010904//EN" "http://www.w3.org/TR/2001/REC-SVG-20010904/DTD/svg10.dtd">
<svg version="1.0" xmlns="http://www.w3.org/2000/svg" width="512px" height="512px" viewBox="0 0 5120 5120" preserveAspectRatio="xMidYMid meet">
<g id="layer101" fill="#ff6100" stroke="none">
 <path d="M0 2735 l0 -2345 665 0 665 0 6 -27 c14 -58 68 -148 117 -196 175 -170 462 -167 631 7 91 93 133 211 123 346 -6 92 -33 164 -86 234 -77 103 -188 163 -316 173 -64 5 -73 3 -98 -18 -41 -36 -46 -87 -13 -126 21 -25 37 -33 79 -38 151 -20 248 -122 248 -260 0 -191 -204 -315 -372 -227 -47 25 -119 98 -119 122 0 4 43 10 96 12 91 3 97 5 120 31 32 37 32 87 0 124 l-24 28 -771 3 -771 2 0 390 0 390 2380 0 2380 0 0 -390 0 -390 -573 0 -572 0 -19 53 c-62 175 -228 296 -409 297 -81 0 -128 -64 -96 -133 14 -31 39 -44 113 -57 211 -37 298 -266 162 -427 -30 -36 -118 -83 -155 -83 -54 0 -101 -20 -116 -50 -23 -45 -19 -78 16 -112 30 -30 32 -31 105 -25 100 7 200 54 272 126 51 51 102 137 116 194 l6 27 665 0 665 0 0 2345 0 2345 -2560 0 -2560 0 0 -2345z m4940 485 l0 -1670 -2380 0 -2380 0 0 1670 0 1670 2380 0 2380 0 0 -1670z"/>
 <path d="M664 4276 c-87 -38 -54 -176 41 -176 99 0 130 138 40 175 -41 18 -42 18 -81 1z"/>
 <path d="M1285 4276 c-59 -26 -72 -101 -26 -147 36 -35 86 -39 124 -9 55 43 40 136 -24 159 -39 13 -37 13 -74 -3z"/>
 <path d="M1903 4276 c-61 -27 -72 -98 -24 -147 42 -42 116 -36 141 12 45 83 -33 172 -117 135z"/>
 <path d="M2533 4283 c-57 -11 -84 -107 -43 -151 59 -63 160 -25 160 59 0 63 -52 103 -117 92z"/>
 <path d="M3145 4281 c-72 -30 -78 -145 -9 -171 44 -17 74 -11 105 19 49 50 37 121 -26 147 -39 16 -42 16 -70 5z"/>
 <path d="M645 3556 c-78 -78 -2 -194 99 -152 62 26 75 99 27 147 -38 38 -91 40 -126 5z"/>
 <path d="M1259 3551 c-71 -71 1 -182 97 -151 67 22 83 116 27 160 -38 30 -88 26 -124 -9z"/>
 <path d="M1879 3551 c-51 -52 -34 -128 35 -151 81 -27 149 61 106 139 -25 48 -99 54 -141 12z"/>
 <path d="M2515 3568 c-32 -18 -44 -40 -45 -80 0 -55 36 -93 90 -93 34 0 47 6 66 28 27 31 32 91 11 118 -28 37 -83 49 -122 27z"/>
 <path d="M3133 3570 c-28 -11 -45 -44 -45 -87 0 -62 58 -102 118 -83 69 23 86 99 35 151 -30 30 -65 36 -108 19z"/>
 <path d="M3737 3560 c-56 -44 -40 -138 26 -159 96 -32 168 79 98 150 -36 35 -86 39 -124 9z"/>
 <path d="M4349 3551 c-71 -71 1 -182 97 -151 24 8 40 23 51 45 46 96 -72 181 -148 106z"/>
 <path d="M643 2936 c-60 -52 -22 -156 58 -156 51 0 67 8 84 41 23 43 18 77 -14 110 -38 37 -88 39 -128 5z"/>
 <path d="M1259 2931 c-61 -61 -21 -150 67 -151 55 0 89 35 89 92 0 82 -96 118 -156 59z"/>
 <path d="M1889 2947 c-45 -34 -52 -105 -14 -142 48 -49 145 -23 158 42 7 35 -15 88 -41 102 -27 15 -83 13 -103 -2z"/>
 <path d="M2495 2935 c-19 -18 -25 -35 -25 -65 0 -56 34 -90 90 -90 56 0 90 34 90 90 0 56 -34 90 -90 90 -30 0 -47 -6 -65 -25z"/>
 <path d="M3127 2949 c-26 -15 -46 -68 -40 -102 13 -65 110 -91 158 -42 38 37 31 108 -14 142 -20 15 -80 16 -104 2z"/>
 <path d="M3733 2936 c-22 -19 -28 -32 -28 -64 0 -57 34 -92 89 -92 88 1 128 90 67 151 -38 37 -88 39 -128 5z"/>
 <path d="M4346 2929 c-29 -35 -33 -67 -11 -108 17 -33 33 -41 84 -41 52 0 86 36 86 92 0 83 -105 121 -159 57z"/>
 <path d="M1903 2245 c-17 -7 -36 -22 -42 -34 -33 -61 14 -141 84 -141 106 0 120 160 15 183 -14 3 -39 0 -57 -8z"/>
 <path d="M2533 2253 c-57 -11 -84 -107 -43 -151 59 -63 160 -25 160 59 0 63 -52 103 -117 92z"/>
 <path d="M3154 2253 c-65 -13 -89 -109 -39 -158 72 -73 193 25 144 117 -9 16 -71 52 -81 47 -2 -1 -13 -4 -24 -6z"/>
 <path d="M3754 2246 c-18 -8 -36 -27 -43 -44 -41 -97 76 -177 150 -103 48 48 31 128 -32 150 -39 13 -37 13 -75 -3z"/>
 <path d="M4372 2245 c-58 -25 -69 -99 -23 -146 56 -56 145 -27 157 52 5 30 2 41 -22 67 -35 38 -69 46 -112 27z"/>
 <path d="M2237 909 c-41 -36 -46 -87 -13 -126 21 -25 37 -33 79 -38 109 -14 182 -64 223 -150 47 -100 21 -234 -59 -301 -40 -34 -104 -63 -137 -64 -87 -1 -138 -48 -126 -116 13 -69 87 -91 201 -60 134 35 233 118 293 244 36 75 37 80 36 187 0 124 -11 162 -70 252 -74 110 -194 180 -329 190 -64 5 -73 3 -98 -18z"/>
 <path d="M2759 901 c-31 -31 -37 -67 -17 -104 17 -33 38 -45 93 -52 150 -21 244 -121 245 -261 0 -104 -57 -191 -155 -235 -22 -10 -51 -19 -65 -19 -87 -1 -138 -48 -126 -116 13 -69 87 -91 201 -60 278 74 414 374 287 634 -67 140 -229 241 -385 242 -40 0 -53 -5 -78 -29z"/>
 </g>

</svg>