<!DOCTYPE svg PUBLIC "-//W3C//DTD SVG 20010904//EN" "http://www.w3.org/TR/2001/REC-SVG-20010904/DTD/svg10.dtd">
<svg version="1.0" xmlns="http://www.w3.org/2000/svg" width="512px" height="512px" viewBox="0 0 5120 5120" preserveAspectRatio="xMidYMid meet">
<g id="layer101" fill="#ff6100" stroke="none">
 <path d="M450 5100 c-45 -45 -35 -114 21 -142 27 -14 60 -18 162 -18 l127 0 0 -170 0 -170 215 0 215 0 0 -465 c0 -512 4 -558 61 -683 36 -81 106 -179 162 -228 24 -22 254 -178 510 -349 257 -170 466 -312 466 -315 0 -3 -203 -140 -451 -305 -249 -165 -478 -321 -509 -347 -68 -56 -138 -150 -178 -240 -57 -125 -61 -171 -61 -683 l0 -465 -215 0 -215 0 0 -170 0 -170 -125 0 c-146 0 -185 -11 -204 -59 -16 -36 -8 -74 19 -101 20 -20 42 -20 2110 -20 2068 0 2090 0 2110 20 27 27 35 65 19 101 -19 48 -58 59 -204 59 l-125 0 0 170 0 170 -215 0 -215 0 0 465 c0 512 -4 558 -61 683 -40 90 -110 184 -178 240 -31 26 -260 182 -509 347 -248 165 -451 302 -451 305 0 3 209 145 466 315 256 171 486 327 510 349 56 49 126 147 162 228 57 125 61 171 61 683 l0 465 215 0 215 0 0 170 0 170 125 0 c146 0 185 11 204 59 16 36 8 74 -19 101 -20 20 -42 20 -2110 20 -2068 0 -2090 0 -2110 -20z m3730 -240 l0 -80 -1620 0 -1620 0 0 80 0 80 1620 0 1620 0 0 -80z m-430 -717 c0 -503 -3 -535 -60 -642 -62 -116 -85 -134 -621 -492 l-509 -339 -509 339 c-536 358 -559 376 -621 492 -57 107 -60 139 -60 642 l0 457 1190 0 1190 0 0 -457z m-681 -2032 c536 -358 559 -376 621 -492 57 -107 60 -139 60 -641 l0 -458 -1190 0 -1190 0 0 458 c0 503 3 534 61 643 60 113 96 141 624 494 275 183 501 334 503 334 1 1 231 -152 511 -338z m1111 -1851 l0 -80 -1620 0 -1620 0 0 80 0 80 1620 0 1620 0 0 -80z"/>
 <path d="M2509 4257 c-23 -17 -39 -52 -39 -82 0 -38 50 -85 90 -85 40 0 90 47 90 85 0 56 -36 94 -90 94 -19 0 -42 -5 -51 -12z"/>
 <path d="M2523 4005 c-90 -39 -62 -165 37 -165 100 0 127 127 35 166 -40 16 -32 17 -72 -1z"/>
 <path d="M2499 3731 c-58 -58 -20 -151 61 -151 51 0 90 41 90 96 0 37 -51 84 -90 84 -22 0 -41 -9 -61 -29z"/>
 <path d="M2495 3475 c-33 -32 -33 -84 -1 -122 19 -22 32 -28 66 -28 53 0 90 38 90 91 0 77 -100 115 -155 59z"/>
 <path d="M2524 3240 c-56 -23 -72 -103 -29 -145 55 -56 155 -18 155 59 0 64 -69 111 -126 86z"/>
 <path d="M2509 2977 c-23 -17 -39 -52 -39 -82 0 -38 50 -85 90 -85 40 0 90 47 90 85 0 56 -36 94 -90 94 -19 0 -42 -5 -51 -12z"/>
 <path d="M2499 2281 c-59 -59 -22 -150 61 -150 54 0 90 38 90 94 0 38 -50 85 -90 85 -22 0 -41 -9 -61 -29z"/>
 <path d="M2262 2130 c-28 -12 -55 -71 -46 -105 9 -35 50 -65 91 -65 46 0 83 37 83 84 0 48 -8 65 -41 81 -32 17 -54 18 -87 5z"/>
 <path d="M2775 2128 c-33 -17 -45 -40 -45 -80 0 -76 83 -115 143 -68 82 65 -6 199 -98 148z"/>
 <path d="M1992 1945 c-65 -55 -29 -155 55 -155 62 1 100 46 89 105 -8 40 -34 64 -78 71 -27 5 -40 1 -66 -21z"/>
 <path d="M2524 1960 c-56 -23 -72 -103 -29 -145 55 -56 155 -18 155 59 0 64 -69 111 -126 86z"/>
 <path d="M3040 1963 c-66 -24 -78 -117 -21 -160 9 -7 33 -13 54 -13 83 0 120 100 56 154 -29 25 -57 31 -89 19z"/>
 <path d="M1743 1781 c-40 -25 -52 -74 -29 -119 17 -34 33 -42 82 -42 49 0 84 37 84 88 0 71 -75 111 -137 73z"/>
 <path d="M3294 1790 c-86 -35 -62 -170 30 -170 49 0 65 8 82 42 23 45 11 94 -29 118 -35 22 -50 23 -83 10z"/>
 </g>

</svg>