<svg width="43" height="43" viewBox="0 0 43 43" fill="none" xmlns="http://www.w3.org/2000/svg"><g clip-path="url(#a)"><path d="M43 21.5c0 7.099-5.733 12.9-12.9 12.9-7.098 0-12.9-5.801-12.9-12.9 0-7.098 5.733-12.9 12.832-12.9C37.267 8.6 43 14.403 43 21.5z" fill="#FFB600"/><path d="M30.1 8.6C37.2 8.6 43 14.403 43 21.5c0 7.099-5.733 12.9-12.9 12.9-7.098 0-12.9-5.801-12.9-12.9" fill="#F7981D"/><path d="M30.1 8.6c7.098 0 12.9 5.802 12.9 12.9 0 7.099-5.733 12.9-12.9 12.9" fill="#FF8500"/><path d="M12.764 8.6C5.734 8.67 0 14.403 0 21.5 0 28.6 5.733 34.4 12.9 34.4c3.344 0 6.348-1.296 8.668-3.344.478-.41.888-.887 1.297-1.365h-2.662c-.341-.41-.682-.887-.955-1.297h4.573c.273-.41.546-.887.75-1.365h-6.074a8.141 8.141 0 0 1-.546-1.365h7.098c.41-1.297.683-2.662.683-4.095 0-.956-.137-1.843-.273-2.73H17.54c.069-.478.205-.888.341-1.365h7.099a8.138 8.138 0 0 0-.546-1.366h-6.006c.204-.477.477-.887.75-1.365h4.573a6.492 6.492 0 0 0-1.023-1.365h-2.526c.41-.477.82-.887 1.297-1.296-2.252-2.116-5.324-3.345-8.668-3.345 0-.136 0-.136-.069-.136z" fill="#FF5050"/><path d="M0 21.5c0 7.098 5.733 12.9 12.9 12.9 3.344 0 6.348-1.297 8.668-3.345.478-.41.888-.887 1.297-1.365h-2.662c-.341-.41-.682-.887-.955-1.297h4.573c.273-.41.546-.887.75-1.365h-6.074a8.138 8.138 0 0 1-.546-1.365h7.098c.41-1.297.683-2.662.683-4.095 0-.956-.137-1.843-.273-2.73H17.54c.069-.478.205-.887.341-1.365h7.099a8.14 8.14 0 0 0-.546-1.365h-6.006c.204-.478.477-.888.75-1.365h4.573a6.49 6.49 0 0 0-1.023-1.365h-2.526c.41-.478.82-.888 1.297-1.297-2.252-2.116-5.324-3.345-8.668-3.345h-.069" fill="#E52836"/><path d="M12.9 34.4c3.344 0 6.348-1.297 8.668-3.345.478-.41.888-.887 1.297-1.365h-2.662c-.341-.41-.682-.887-.955-1.297h4.573a8.75 8.75 0 0 0 .75-1.365h-6.074a8.13 8.13 0 0 1-.546-1.365h7.098c.41-1.297.683-2.662.683-4.095 0-.956-.137-1.843-.273-2.73H17.54c.069-.478.205-.887.342-1.365h7.098a8.14 8.14 0 0 0-.546-1.365h-6.006c.204-.478.477-.888.75-1.365h4.573a6.486 6.486 0 0 0-1.023-1.365h-2.526c.41-.478.82-.888 1.297-1.297-2.252-2.116-5.324-3.345-8.668-3.345h-.069" fill="#CB2026"/><path d="M17.473 24.776l.205-1.16c-.069 0-.205.068-.342.068-.477 0-.546-.273-.477-.41l.41-2.389h.75l.205-1.296h-.683l.137-.82h-1.365s-.82 4.505-.82 5.051c0 .82.478 1.16 1.093 1.16.41 0 .75-.136.887-.204zM17.95 22.592c0 1.91 1.298 2.389 2.39 2.389 1.023 0 1.433-.205 1.433-.205l.273-1.297s-.75.341-1.433.341c-1.502 0-1.229-1.092-1.229-1.092h2.799s.204-.887.204-1.228c0-.888-.477-1.98-1.98-1.98-1.432-.136-2.456 1.365-2.456 3.072zm2.39-1.98c.75 0 .614.888.614.956h-1.502c0-.068.137-.956.888-.956zM29.008 24.776l.273-1.502s-.683.342-1.16.342c-.956 0-1.365-.751-1.365-1.57 0-1.638.819-2.526 1.774-2.526.683 0 1.229.41 1.229.41l.204-1.433s-.819-.342-1.57-.342c-1.57 0-3.14 1.365-3.14 3.959 0 1.706.82 2.867 2.458 2.867.546 0 1.297-.205 1.297-.205zM9.965 19.384c-.956 0-1.638.273-1.638.273l-.205 1.16s.614-.273 1.502-.273c.477 0 .887.068.887.478 0 .273-.068.341-.068.341h-.615c-1.16 0-2.457.478-2.457 2.048 0 1.228.82 1.501 1.297 1.501.956 0 1.365-.614 1.434-.614l-.069.546h1.229l.546-3.754c0-1.638-1.365-1.706-1.843-1.706zm.273 3.071c0 .205-.136 1.297-.956 1.297-.41 0-.546-.341-.546-.546 0-.341.205-.819 1.229-.819.205.068.273.068.273.068zM13.105 24.912c.341 0 2.047.069 2.047-1.774 0-1.707-1.638-1.365-1.638-2.048 0-.341.273-.478.751-.478.205 0 .956.069.956.069l.204-1.23s-.477-.136-1.296-.136c-1.024 0-2.048.41-2.048 1.775 0 1.57 1.706 1.433 1.706 2.048 0 .41-.478.477-.819.477a4.465 4.465 0 0 1-1.228-.204l-.205 1.228c.068.137.41.273 1.57.273zM40.338 18.292l-.273 1.843s-.546-.683-1.297-.683c-1.228 0-2.32 1.502-2.32 3.276 0 1.093.545 2.253 1.706 2.253.819 0 1.297-.546 1.297-.546l-.069.478h1.366l1.023-6.553-1.433-.068zm-.614 3.617c0 .751-.342 1.707-1.092 1.707-.478 0-.751-.41-.751-1.092 0-1.092.478-1.775 1.092-1.775.478 0 .75.341.75 1.16zM2.525 24.844l.82-4.914.136 4.914h.955l1.775-4.914-.75 4.914h1.433l1.092-6.552H5.733l-1.365 4.027-.068-4.027H2.32L1.23 24.844h1.296zM23.684 24.844c.41-2.252.478-4.095 1.433-3.754.137-.887.342-1.228.478-1.57h-.273c-.614 0-1.092.82-1.092.82l.137-.751H23.07l-.887 5.324h1.501v-.069zM32.148 19.384c-.956 0-1.639.273-1.639.273l-.204 1.16s.614-.273 1.501-.273c.478 0 .888.068.888.478 0 .273-.069.341-.069.341h-.614c-1.16 0-2.457.478-2.457 2.048 0 1.228.819 1.501 1.297 1.501.955 0 1.365-.614 1.433-.614l-.068.546h1.228l.546-3.754c.069-1.638-1.365-1.706-1.842-1.706zm.34 3.071c0 .205-.136 1.297-.955 1.297-.41 0-.546-.341-.546-.546 0-.341.205-.819 1.229-.819.205.068.205.068.273.068zM35.15 24.844c.41-2.252.479-4.095 1.434-3.754.137-.887.341-1.228.478-1.57h-.273c-.614 0-1.092.82-1.092.82l.136-.751h-1.297l-.887 5.324h1.502v-.069z" fill="#fff"/><path d="M15.357 23.82c0 .82.478 1.16 1.092 1.16.478 0 .887-.136 1.024-.204l.205-1.16c-.069 0-.205.068-.342.068-.477 0-.546-.273-.477-.41l.41-2.389h.75l.205-1.296h-.683l.137-.82M18.633 22.592c0 1.91.615 2.389 1.707 2.389 1.023 0 1.433-.205 1.433-.205l.273-1.297s-.75.341-1.433.341c-1.502 0-1.229-1.092-1.229-1.092h2.799s.204-.887.204-1.228c0-.888-.477-1.98-1.98-1.98-1.432-.136-1.774 1.365-1.774 3.072zm1.707-1.98c.75 0 .887.888.887.956h-1.775c0-.068.137-.956.888-.956zM29.008 24.776l.273-1.502s-.683.342-1.16.342c-.956 0-1.366-.751-1.366-1.57 0-1.638.82-2.526 1.775-2.526.683 0 1.229.41 1.229.41l.204-1.433s-.819-.342-1.57-.342c-1.57 0-2.457 1.365-2.457 3.959 0 1.706.137 2.867 1.775 2.867.546 0 1.297-.205 1.297-.205zM8.122 20.886s.614-.273 1.502-.273c.477 0 .887.068.887.477 0 .273-.068.342-.068.342h-.615c-1.16 0-2.457.477-2.457 2.047 0 1.229.82 1.502 1.297 1.502.956 0 1.365-.615 1.434-.615l-.069.547h1.229l.546-3.754c0-1.57-1.365-1.639-1.911-1.639l-1.775 1.366zm2.799 1.57c0 .204-.82 1.296-1.639 1.296-.41 0-.546-.341-.546-.546 0-.341.205-.819 1.229-.819.205.068.956.068.956.068zM11.603 24.776s.41.136 1.57.136c.341 0 2.048.069 2.048-1.774 0-1.707-1.639-1.365-1.639-2.048 0-.341.273-.478.751-.478.205 0 .956.069.956.069l.205-1.23s-.478-.136-1.297-.136c-1.024 0-1.365.41-1.365 1.775 0 1.57 1.023 1.433 1.023 2.048 0 .41-.477.477-.819.477M40.065 20.134s-.546-.683-1.297-.683c-1.228 0-1.638 1.502-1.638 3.277 0 1.092-.136 2.252 1.024 2.252.819 0 1.297-.546 1.297-.546l-.069.478h1.366l1.023-6.553-1.706 1.775zm-.068 1.775c0 .75-.614 1.706-1.365 1.706-.478 0-.751-.41-.751-1.092 0-1.092.478-1.775 1.092-1.775.478 0 1.024.341 1.024 1.16zM2.525 24.844l.82-4.914.136 4.914h.955l1.775-4.914-.75 4.914h1.433l1.092-6.552H6.279l-1.91 4.027-.07-4.027h-.75l-2.32 6.552h1.296zM22.25 24.844h1.434c.41-2.252.478-4.095 1.433-3.754.137-.887.342-1.228.478-1.57h-.273c-.614 0-1.092.82-1.092.82l.137-.751M30.305 20.886s.614-.273 1.501-.273c.478 0 .888.068.888.477 0 .273-.069.342-.069.342h-.614c-1.16 0-2.457.477-2.457 2.047 0 1.229.819 1.502 1.297 1.502.955 0 1.365-.615 1.433-.615l-.068.547h1.228l.546-3.754c0-1.57-1.365-1.639-1.91-1.639l-1.775 1.366zm2.798 1.57c0 .204-.819 1.296-1.638 1.296-.41 0-.546-.341-.546-.546 0-.341.205-.819 1.229-.819.273.068.955.068.955.068zM33.717 24.844h1.434c.41-2.252.477-4.095 1.433-3.754.137-.887.341-1.228.478-1.57h-.273c-.614 0-1.092.82-1.092.82l.136-.751" fill="#DCE5E5"/></g><defs><clipPath id="a"><path fill="#fff" d="M0 0h43v43H0z"/></clipPath></defs></svg>