<svg version="1" xmlns="http://www.w3.org/2000/svg" width="512" height="512" viewBox="0 0 5120 5120"><path d="M2305 5113c-398-49-723-154-1023-329C576 4371 112 3670 14 2870c-21-171-15-550 11-710C172 1244 808 471 1676 152 1992 36 2256-6 2627 3c246 5 348 18 552 68 752 185 1404 729 1721 1437 151 337 220 667 220 1052 0 329-45 594-151 881-331 902-1137 1543-2092 1664-108 14-485 19-572 8zm630-252c812-139 1478-675 1790-1439 56-137 108-325 137-492 32-181 32-559 0-740-86-500-304-922-657-1275-445-445-1021-685-1645-685-623 0-1200 240-1645 685-352 352-571 776-657 1275-32 181-32 559 0 740 113 651 467 1202 1007 1565 279 187 596 313 920 365 174 28 180 28 415 25 160-2 245-8 335-24z"/><path d="M1503 3774c-42-21-67-74-58-122 5-30 26-56 103-132 197-194 449-325 734-382 160-31 396-31 556 0 286 57 537 187 734 382 77 75 98 102 103 132 14 77-54 147-132 135-25-5-57-28-123-91-244-232-532-348-860-348-329 0-616 116-860 349-100 94-136 109-197 77zm-303-1100c-61-21-90-58-90-114 0-73 6-77 385-267l355-178-355-178c-379-190-385-194-385-267s65-129 134-114c48 10 938 459 961 484 15 16 20 36 20 75s-5 59-20 75c-23 26-915 475-960 483-16 3-37 3-45 1zm2660-3c-57-18-927-460-945-481-15-16-20-36-20-75s5-59 20-75c23-25 913-474 961-484 69-15 134 41 134 114s-6 77-385 267l-355 178 355 178c379 189 385 194 385 266 0 80-74 135-150 112z"/></svg>