<svg version="1.0" xmlns="http://www.w3.org/2000/svg" width="512" height="512" viewBox="0 0 5120 5120"><path d="M1915 4640l-160-89-10 32c-14 48-95 124-140 133-86 16-236-14-261-51-12-19-12-27 0-62l14-41-41-6c-115-18-157-49-137-100 7-20 7-28-3-31l-49-15c-20-6-64-29-98-51-59-38-62-42-58-74 3-28 0-35-17-39-12-3-49-23-83-45-52-34-62-45-62-69 0-15 5-33 12-40s8-12 2-12c-24 0-108-66-151-119-25-30-62-68-84-84-44-33-119-123-119-144 0-8 13-26 29-41l30-26-60-65-71-76a795 795 0 01-154-170c-9-38 3-53 70-91 39-21 52-33 42-37-8-3-29-31-46-61-24-42-42-60-77-77-30-15-55-37-74-67-37-58-69-144-69-183 0-36 21-46 135-62l81-11-23-24c-12-13-27-39-33-57-8-25-20-37-44-45-49-16-101-71-120-127-24-67-32-178-16-198 17-20 169-20 225 1 57 21 58 21 63 1 2-10-10-33-27-52-17-20-33-46-37-60-3-14-17-28-33-33-37-13-98-68-118-106-11-21-16-57-16-116 0-96 15-156 43-165 40-13 188 41 237 87l22 21 11-27c13-34 13-42-1-80-8-23-24-37-59-52-91-41-130-135-106-252 20-94 45-146 74-150 51-8 211 99 228 150 6 19 12 11 45-52 21-41 38-78 39-81 0-4-12-9-28-12-60-12-115-82-128-164-7-45 22-142 63-206 29-47 40-57 64-57 26 0 124 78 159 126 18 25 36 44 40 42s27-28 49-58l41-55-27-9c-16-5-41-20-56-35-74-68-87-164-37-270 46-97 66-121 102-121 26 0 46 16 124 95 51 52 95 95 98 95 2 0 2-17-1-39-12-88 48-201 129-242 80-41 269-64 296-37 7 7 12 41 12 83v70l65-3c95-5 99-1 92 128-6 132-25 186-82 239-54 50-103 71-166 71-55 0-63 12-21 34 16 8 52 33 80 56 71 55 71 81-1 146-59 53-137 94-182 94-72 0-152-42-181-96l-17-32-18 22c-17 20-17 22 8 48 21 22 24 32 17 49-9 20-5 25 56 55 36 18 77 45 90 59 23 25 23 26 6 61-16 35-16 36 1 30 48-19 123-28 190-24l73 5v-41c0-23 7-52 16-64 37-54 7-52 894-52 728 0 826 2 855 16 37 17 65 65 65 111v28h108c95 1 114 4 167 29 69 31 107 64 141 122 14 24 38 47 55 54 43 18 105 94 125 153 24 72 22 186-5 262-49 139-179 279-386 417l-120 79-35 77c-53 116-73 151-138 238-69 93-203 223-287 281a500 500 0 00-173 191c-23 50-27 73-30 188l-4 132 118 3c98 3 125 8 154 25 41 24 80 77 80 110 0 18 8 25 39 34 21 5 51 20 65 31l27 21 28-26c15-14 34-26 43-26 25 0 70 43 113 105 21 30 44 55 51 55s25 11 41 24l28 24 27-22 27-21-30-20c-16-11-41-42-54-69-49-98-26-193 70-293 40-42 55-51 73-46 23 6 91 77 119 124 9 14 31 33 49 41 31 14 34 14 54-7l20-22-37-24c-44-28-79-77-93-130-13-46 0-110 37-185 32-66 57-94 85-94 30 0 121 73 164 131 20 27 39 49 44 49 4 0 15-11 23-24 19-28 12-66-12-66-29 0-90-49-117-95-23-41-26-53-22-118 5-77 40-185 64-194 46-17 186 60 231 129l27 40 13-25c11-22 10-31-7-70-14-31-28-47-45-51-32-8-91-61-113-100-21-38-23-218-4-253 16-29 58-30 143-3 35 10 64 18 65 17 5-8-29-67-39-67-8 0-34-14-59-30-55-37-84-97-97-201-14-108-6-119 82-119 56 0 58-1 51-22-3-13-7-23-8-23l-48-24c-51-25-87-71-117-149-40-103-34-133 28-147l30-6-18-30c-10-16-38-42-62-58-50-31-88-77-124-150-29-58-30-64-9-86 15-14 15-18-1-41-9-14-35-42-58-63-109-97-162-164-155-195 2-7-21-35-49-61-29-26-53-55-53-66 0-10-12-25-28-33s-52-36-80-61c-67-60-70-90-13-136l40-31-21-39c-12-24-34-45-54-55-45-21-107-92-123-141-19-57-27-239-11-258 26-31 213-10 298 34 43 22 99 83 108 116 3 11 28 32 56 47l51 27 54-49c75-69 102-68 146 3 18 28 39 66 46 82 10 27 16 30 46 27 32-4 36-1 68 49 37 60 67 130 67 158 0 11 4 21 9 23 12 5 56 78 72 121 12 35 15 37 45 31 24-4 36-1 51 15 29 32 71 123 85 183 6 29 17 60 24 68 14 17 54 132 54 156 0 11 5 14 18 9 38-15 78-17 89-3 6 7 21 42 33 78 27 78 30 172 8 215-13 24-14 43-7 94 5 36 11 66 13 68s24-1 49-7c83-21 103 14 100 176-1 81-16 117-65 160-31 28-33 33-34 102v72h72c92 0 99 8 91 98-12 132-64 218-147 243-34 10-38 15-43 53-3 22-8 48-12 57-5 14 5 19 60 28 36 7 77 16 91 22 25 9 26 13 21 55-8 73-71 190-119 221-56 38-151 44-208 14-35-18-41-19-47-6-3 9-4 17-2 19l38 26c29 20 32 27 28 56-5 29-2 33 26 45 18 7 56 28 85 46 39 24 52 39 52 56 0 46-106 164-172 192-69 28-166 14-208-30-29-30-36-31-50-4-10 17-7 24 15 45 19 18 25 31 21 47-4 19 3 27 47 50 61 32 117 80 117 100 0 25-78 113-134 152-50 34-61 38-120 38-78 0-146-34-168-83-7-16-16-30-20-30-3 0-24 20-46 46-40 45-40 45-24 75 9 16 24 31 33 34s44 34 78 69c84 88 84 112-1 167-86 55-156 74-216 59-64-15-116-51-136-95-12-25-21-33-29-27-55 41-107 86-107 92 0 5 12 12 28 18 53 18 131 126 157 218 9 33-23 62-90 79-155 39-264 2-310-108-8-20-20-37-26-37-5 0-79 38-164 85-84 47-162 85-173 85-26 0-44-24-40-52 2-18 32-39 133-95l137-75c4-2-5-28-20-60l-28-56-159 88c-88 49-170 89-181 90-28 0-46-23-42-52 2-18 36-41 165-112l163-89-34-33c-19-19-37-43-41-54-6-20-13-20-586-20-635 0-610 2-662-60-15-17-29-46-33-65-5-28-11-35-29-35-27 0-81-36-108-71-49-67-23-185 51-231 35-22 49-23 240-26l202-3v-157c0-265-19-333-110-401-90-67-359-347-414-430-27-40-64-102-81-137-27-52-45-73-111-122-100-75-355-332-406-409-42-64-78-165-78-222v-36l-23 44c-53 106-146 168-239 159-34-3-39-1-47 24-9 26-8 28 19 28 47 0 129 21 145 36 17 17 12 54-16 126-38 99-91 153-163 167-20 5-32 14-36 31-7 25-6 25 52 22 112-7 122 3 107 119-12 96-46 170-93 198-28 17-36 29-36 51 0 27 1 28 32 19 57-16 96-11 110 14 16 29 17 215 1 242-8 15-9 31-1 61l11 40 37-9c20-6 44-8 52-4 23 8 60 112 68 192 10 92 28 137 53 129 40-13 64 5 100 73 20 38 48 79 63 93s42 49 61 78c20 32 41 52 52 52 17 0 87 67 107 103 8 15 14 15 42 5 30-12 34-10 67 22 20 19 50 56 67 83s38 47 48 47c22 0 88 71 126 136 37 63 40 151 6 208l-22 37 30 17 61 35c28 15 31 21 26 50-5 32-3 33 76 77 61 34 83 51 85 68 4 29-14 52-42 52-11-1-93-41-181-90zm1871-402c3-5-3-16-14-23-10-8-27-30-36-50l-17-36-29 21-30 21 20 39c11 22 20 53 20 70v32l40-32c22-17 43-36 46-42zm303-282l33-34-23-12c-13-7-38-25-55-41-30-29-31-29-48-11-16 18-16 22 7 63 44 84 40 82 86 35zm280-350c10-12 6-15-21-21-18-4-47-16-64-26-29-18-32-18-38-2-4 9-2 21 4 27 8 8 60 26 101 35 4 0 12-5 18-13zm116-406c-27-12-35-12-35 0 0 6 12 10 28 9 24 0 25-1 7-9zM1565 1881c-15-14-60 26-69 62-12 46 12 130 46 167l23 25 3-124c1-68 0-126-3-130zm2049 12c8-24 4-26-31-17-20 6-23 13-23 57v52l24-35c13-19 26-45 30-57zm-3065 6c-14-8-29-3-29 11 0 4 9 6 21 3 15-4 17-8 8-14zm580-207l17-49-41 9c-27 6-57 4-95-6-41-11-57-11-62-3-16 25-1 39 65 61 37 13 73 28 79 34 15 15 18 12 37-46zm-311-180c2-7-5-12-16-12-10 0-36-11-56-25l-36-24-15 29c-8 16-15 31-15 34 0 5 102 14 124 11 6-1 12-7 14-13zm232-347c19-20 21-27 10-40-7-8-18-15-24-15-7 0-23-11-36-25s-27-25-30-25c-4 0-20 18-35 40-36 52-25 63 86 89 3 0 16-10 29-24zm230-319c0-7-12-16-27-19-38-7-40-1-6 17 35 19 33 19 33 2z" fill="#3a2c60"/><g fill="#f9759e"><path d="M1915 4640l-160-89-10 32c-14 48-95 124-140 133-86 16-236-14-261-51-12-18-12-28-1-61 13-36 18-40 59-45 55-8 95-28 129-66 33-35 49-65 49-92 0-12 1-21 3-21l177 95c96 52 181 93 190 90 8-2 53 17 100 43 63 35 86 53 88 70 4 29-14 52-42 52-11-1-93-41-181-90zM3150 4716c-6-8-10-25-8-38 2-18 33-40 146-101 129-71 145-78 160-64 9 8 29 21 44 28 27 14 26 15-132 102-87 48-168 87-178 87-11 0-25-7-32-14zM3640 4701c-45-25-75-57-95-104l-15-37h35c55 0 172-29 197-49 20-17 21-21 9-61-14-49-12-54 20-41 38 14 88 71 119 136 41 85 43 99 23 123-40 48-226 68-293 33zM1313 4468c-41-9-42-10-32-36 32-84 105-132 171-113 65 20 64 94-1 138-36 24-69 27-138 11z"/><path d="M3513 4460c-38-23-53-48-53-90 0-26 6-33 37-46 30-13 44-14 74-5 40 12 92 66 108 112 9 27 8 28-40 38-69 15-89 14-126-9zM1133 4411c-29-10-77-34-108-55-51-34-56-40-53-69l3-32 56 3c90 6 178-46 195-115 4-12 9-23 11-23 3 0 37 25 75 56l69 56-50 24c-36 18-60 40-85 79-20 29-36 58-36 63 0 26-26 30-77 13zM1737 4373l-97-55 39-38c49-47 65-96 58-171-4-52-3-59 13-59 22 0 88 71 126 136 24 40 29 60 28 110 0 65-27 127-55 131-7 0-58-24-112-54zM4013 4416c-58-18-98-49-118-91-18-40-11-43-96 27l-46 38-26-39-26-39 49-41 48-41 42 15c57 20 99 19 162-5s148-84 148-105c0-29 24-15 92 53 56 56 68 74 68 100 0 29-7 37-62 72-58 38-142 71-177 69-9 0-35-6-58-13zM3650 4268c-24-15-50-28-58-28-18 0-1-22 39-51l28-20 21 41c12 23 20 52 18 64l-3 23-45-29zM1531 4215c-32-41-35-80-12-128 12-24 32-54 46-67l24-23 20 24c37 44 54 90 48 131-11 79-84 116-126 63zM3344 4232c-24-16-44-59-44-92 0-34 16-71 52-120l18-24 25 24c38 36 68 104 60 139-14 63-71 101-111 73zM2030 4188c-43-29-68-65-76-105l-6-33h125c101 0 129-3 141-16 19-19 20-38 3-52-7-6-75-12-154-14-122-3-144-6-162-22-30-27-28-86 2-114 22-21 31-22 243-22 158 0 223-3 232-12 19-19 16-447-3-523a507 507 0 00-226-300 1182 1182 0 01-483-771c-14-81-16-161-14-434l3-335h1650v780l-28 99c-75 270-228 489-462 661a547 547 0 00-199 226c-36 79-46 160-46 381 0 165 2 199 16 212 13 14 49 16 235 16h220l24 25c27 26 31 51 14 88-18 39-50 47-184 47-140 0-155 3-155 34 0 41 17 46 159 46 112 0 143-4 178-20 46-20 79-64 89-117 6-29 9-32 33-27 36 9 75 30 90 48 11 13 9 20-7 43-47 67-63 114-61 171l3 57-580 3-581 2-33-22zm624-160c8-13 8-23 0-35-10-16-31-18-169-21-158-3-185 2-185 34 0 7 7 20 16 29 13 13 40 15 171 13 136-3 157-5 167-20zM962 4154c-29-14-52-29-52-34 0-18 91-89 122-95 45-9 104 16 120 50 10 22 8 30-9 53-43 58-101 66-181 26zM3861 4167c-13-6-33-24-44-39-17-23-19-31-9-53 16-34 75-59 120-50 31 6 122 77 122 95 0 14-103 60-134 60-17 0-42-6-55-13zM1390 4137l-63-53-38-31 33-21c62-38 99-135 80-206-10-34-9-36 13-36 14 0 38 16 63 44 69 75 69 76 12 150-43 58-59 93-72 158-3 15-6 14-28-5zM3536 4121c-3-22-9-46-12-55-9-23 18-20 50 5 33 26 32 38-3 66l-29 22-6-38zM4349 4081c-51-10-105-47-121-81-7-17-16-30-20-30-3 0-24 20-46 45s-44 45-49 45-22-14-38-30l-29-30 38-39 38-39-23-12c-31-16-79-61-79-74 0-5 7-18 16-28 16-17 18-16 36 22 26 52 74 81 146 87 73 7 124-17 199-93 29-30 58-54 65-54 19 0 108 53 141 83 15 15 27 32 27 40 0 25-78 113-132 150-56 37-109 49-169 38zM767 4049c-73-48-168-172-108-139 11 5 42 10 69 10 68 0 130-34 158-88l22-41 66 74 67 74-41 11c-26 7-62 31-104 70-35 33-68 60-73 60s-30-14-56-31zM1205 3957c-51-44-43-128 21-200 30-35 39-30 78 43 33 60 30 102-10 150-31 36-54 38-89 7zM3666 3950c-40-48-43-90-10-150 39-73 48-78 78-43 64 72 72 156 21 200-35 31-58 29-89-7zM4005 3970c-3-5-24-14-47-20l-40-11 28-30 28-30 18 23c22 29 40 78 28 78-5 0-12-4-15-10zM1037 3812c-49-50-56-62-34-62 24 0 90-63 108-104 10-23 19-64 19-94 0-57 11-69 54-58 15 4 33 25 55 65 36 69 37 71 12 71-37 0-141 135-160 208-6 21-9 20-54-26zM3867 3830c-4-16-6-33-5-38 3-10 30-3 46 12 10 10 8 17-11 35l-24 22-6-31zM675 3829c-24-14-95-81-95-89 0-4 27-19 59-34 45-22 67-27 94-22 74 14 113 90 67 131-24 21-98 30-125 14z"/><path d="M4190 3833c-55-20-67-79-24-118 43-40 87-42 155-9 32 15 59 30 59 34 0 10-73 77-97 89-23 11-67 13-93 4zM2650 3557c0-313 29-381 224-526 177-132 302-280 394-471l56-115 144-95c185-122 262-201 328-335 46-92 48-100 49-183 0-48-4-102-8-120l-9-33 40 20c92 47 146 151 145 281-2 192-132 368-408 552l-120 79-35 77c-53 116-73 151-138 238-69 93-203 223-287 281a493 493 0 00-173 191c-23 51-27 72-30 195l-4 137h-168v-173zM4556 3690c-16-5-42-22-58-37l-29-28-18 23c-17 23-18 23-54 6-38-18-45-32-26-51 7-7-2-14-33-22-81-21-92-44-48-101l19-25 21 22c34 38 81 56 140 56 70 0 101-16 174-93l60-63 35 13c20 7 60 28 89 46 39 25 52 40 52 57 0 46-106 164-172 192-40 16-106 18-152 5zM932 3673c-20-8-42-59-42-98 0-31 9-46 54-93l55-57 25 55c30 63 32 99 11 140-25 47-65 68-103 53zM3962 3664c-29-20-52-65-52-101 0-15 12-53 26-83l25-55 55 57c45 47 54 62 54 93 0 83-54 127-108 89zM471 3604c-34-35-61-69-61-73 0-5 17-5 38 0 62 14 171-18 185-56 4-8 10-15 15-15 7 0 102 131 102 141 0 2-21 4-48 5-31 1-67 11-109 32l-61 31-61-65zM4210 3596c0-2 6-9 14-15 10-9 16-8 26 4 11 13 8 15-14 15-14 0-26-2-26-4z"/><path d="M768 3482l-38-57 34-6c84-14 151-87 163-179 8-53 10-55 45-64 19-5 43-6 51-3 23 9 60 115 64 187l4 65-28-42c-15-24-34-45-42-48-34-13-201 137-201 180 0 31-18 20-52-33zM4147 3534c-4-4-7-14-7-23 0-11 3-12 11-4 6 6 10 16 7 23-2 6-7 8-11 4zM456 3450c-27-9-116-86-116-101 0-14 100-49 139-49 43 0 95 34 106 70 9 28-12 60-50 76s-39 16-79 4zM4194 3447c-8-22-1-30 21-25 14 3 14 5 1 23-14 19-15 19-22 2zM4423 3446c-36-17-57-48-48-76 11-36 63-70 106-70 40 0 139 36 139 50 0 12-98 100-112 100-7 0-22 2-33 5s-34-2-52-9zM704 3319c-22-25-25-85-5-123 16-30 105-91 120-82 15 10 33 103 26 136-9 42-60 90-94 90-16 0-36-9-47-21zM4152 3310c-17-16-33-44-37-60-7-34 11-126 27-136 13-9 104 55 120 84 19 36 16 97-6 121-28 30-69 27-104-9zM4698 3251c-34-19-38-19-47-4-8 16-12 16-50-1-22-11-38-23-35-27 3-5-8-9-24-9-23 0-92-17-92-23 0-4 42-112 46-118 2-4 25 4 51 17 59 30 104 30 170-1 51-23 101-81 119-138 5-16 12-18 57-12 28 4 69 13 91 19 40 12 41 13 40 58 0 69-63 190-116 226-56 36-156 43-210 13zM345 3216c-19-19-65-96-65-108 0-2 19-2 43 0 30 2 56-4 90-21l48-25 9 22 29 70c12 27 21 52 21 57s-19 9-43 9c-23 0-57 4-75 10-29 8-37 6-57-14z"/><path d="M573 3122l-31-77 53-6c83-10 160-76 171-150 8-50 21-59 87-66 50-5 56-4 68 18 14 27 19 188 6 232-10 37-21 34-40-13-8-22-23-43-33-47-41-15-234 118-234 161 0 38-18 18-47-52zM2195 3159c-61-50-175-161-175-171 0-18 179 125 208 166 19 25 30 46 25 46-4-1-30-19-58-41zM4362 3095c-20-44-15-55 23-55h35l-15 36-15 40c0 14-19 0-28-21zM269 3007c-41-27-96-126-77-139 7-4 41-8 74-8 68 0 102 19 129 70 20 39 19 47-10 75-30 31-71 32-116 2zM4575 3005c-29-28-30-36-10-75 27-51 61-70 129-70 87 0 91 6 59 71-47 92-127 126-178 74zM530 2941c-15-29-12-79 7-112 17-28 71-60 126-73l27-6v71c0 67-2 73-34 105-28 28-42 34-75 34-30 0-43-5-51-19zM4304 2926c-32-32-34-38-34-105v-71l28 6c90 22 142 71 142 134 0 52-15 70-61 70-33 0-47-6-75-34zM4805 2795a458 458 0 00-230 3c-2-2 2-40 8-86 9-68 14-81 27-76 79 33 191-5 234-79 14-23 28-54 31-69 7-28 8-28 84-28 47 0 82 5 89 12 26 26 4 183-36 250a176 176 0 01-207 73zM333 2778c-41-19-73-58-87-104-6-19-2-22 41-26 27-3 55-9 64-12 13-6 17 3 22 54 4 33 10 72 13 85 7 30 2 30-53 3z"/><path d="M465 2759l-14-87c-7-56-6-62 8-55 9 4 46 8 82 8 56 0 72-4 107-29 26-18 49-45 62-75l29-61c6-10 27-16 67-18 109-6 118 4 103 118-12 95-43 165-88 196-20 13-39 24-42 24-4 0-9-22-13-50-9-66-27-76-106-56-75 19-154 59-174 87l-15 22-6-24zM4448 2737c-21-18-44-48-52-69l-16-36 53-4c28-2 59-8 68-12 14-6 14 1 6 66-5 40-12 76-15 80-4 3-24-8-44-25zM223 2550c-39-23-61-64-70-126l-6-47 59 7c90 10 138 53 138 123 0 61-58 82-121 43zM4635 2556c-24-17-25-74-2-110 26-39 56-55 121-62l59-7-6 47c-9 62-31 103-70 126-38 23-76 25-102 6z"/><path d="M485 2533c-13-12-16-27-12-56 9-68 65-107 152-107h47l-7 33c-14 67-27 97-56 122-36 30-98 34-124 8zM4351 2525c-29-25-42-55-56-122l-7-33h47c87 0 143 39 152 107 7 51-14 73-67 73-27 0-48-8-69-25zM1608 2483c-70-51-129-104-193-174-26-28-31-37-15-26a15892 15892 0 01250 171l15 40c8 20 14 36 11 36-2 0-33-21-68-47z"/><path d="M750 2356c0-22-4-46-8-52-20-31-171-21-247 16-25 12-48 20-51 17s-2-37 2-76l6-70 41 21c31 15 54 19 98 16 77-6 127-39 165-112 33-63 44-66 144-45 85 18 92 40 49 151-39 100-89 151-165 168l-34 8v-42zM4495 2340c-10-11-43-28-74-37-91-27-113-73-36-73 26 0 63-9 84-20l39-19 7 80c4 44 5 82 3 85-3 2-13-5-23-16zM4594 2259l-9-91 29 6c83 17 186-59 210-154 13-54 14-55 61-68 90-26 111 9 108 174-1 77-15 114-57 153-24 23-34 25-133 26-102 1-133 8-194 42-3 2-10-37-15-88zM1519 2268a952 952 0 01-285-302c-34-69-38-87-38-150 0-52 6-82 21-111 49-93 115-125 259-125 94 0 94 0 94 25s0 25-95 25c-164 0-226 52-226 187 0 53 6 78 30 127 46 95 155 204 309 311 8 6 20 65 13 65-4 0-41-23-82-52zM3360 2311c0-31 26-63 87-108 97-72 205-189 239-259 24-48 29-72 29-129 0-135-66-189-232-187-91 1-94 0-91-21s7-22 114-22c106 0 113 1 160 30 73 46 99 98 99 200 0 74-3 88-39 159a875 875 0 01-273 289c-82 58-93 64-93 48zM327 2260c-24-28-43-68-35-75 1-1 21-6 44-9l41-7-8 56c-4 31-10 59-12 61-2 3-16-9-30-26z"/><path d="M517 2133c-28-32-22-75 19-114 34-32 38-34 105-33 38 1 72 4 75 7 9 9-37 104-61 127-34 32-113 39-138 13zM4335 2141c-11-5-28-17-37-28-22-23-62-113-54-120 3-3 37-6 76-7 70-1 72 0 106 36 39 43 45 85 16 111-20 18-73 21-107 8zM3390 1931c0-136 4-212 10-216s47-7 91-8c93-1 128 18 143 75 14 56 2 85-39 92l-35 7v114l-76 73c-42 39-80 72-85 72s-9-93-9-209zM1458 2048c-140-138-172-274-75-325 31-16 156-21 178-7 5 3 9 40 9 82 0 77 0 78-30 89-55 21-64 99-21 185 11 23 19 44 17 46s-37-30-78-70zM285 2086c-55-24-69-50-73-132-5-87 0-89 86-49 40 19 56 33 67 59 21 51 18 83-10 111-28 29-30 29-70 11zM4605 2076c-28-29-32-61-10-112 11-26 27-40 67-59 82-38 88-36 88 38 0 69-13 102-50 128-45 31-67 33-95 5zM816 1999c-3-8-6-25-8-39-4-33-50-48-177-58-109-8-116-15-86-85l16-38 30 25c35 30 82 40 149 34 59-6 106-39 151-106l35-51c6-7 139 38 163 55 33 24 24 78-26 151-55 80-104 113-181 120-47 4-63 3-66-8zM4400 1913c-30-9-66-12-107-8l-62 7-21-34-20-33 43-3c76-4 106-12 137-38l30-26 11 29c15 37 39 117 36 118-1 1-22-5-47-12zM4525 1898c-9-25-45-143-45-148 0-3 19-6 41-7 85-3 169-97 169-189 0-42 1-44 41-55 55-17 69-6 97 77 27 79 33 164 13 212-15 35-26 40-35 16-15-39-202 19-251 78-17 20-27 25-30 16zM442 1796c-17-38-15-43 13-48 28-6 30 3 12 46l-13 29-12-27z"/><path d="M642 1744c-44-31-17-107 48-134 25-10 42-10 83-1 29 6 58 15 66 20 19 12 6 43-39 90-36 37-45 41-88 41-27 0-57-7-70-16zM4160 1719c-45-47-58-78-39-90 8-5 37-14 66-20 41-9 58-9 83 1 65 27 92 103 48 134-13 9-43 16-70 16-43 0-52-4-88-41zM424 1660c-36-15-74-68-74-106 0-43 20-124 30-124 18 0 106 67 117 90 21 42 16 98-12 125-26 27-30 28-61 15zM4475 1646c-28-28-34-83-12-126 11-23 99-90 117-90 10 0 30 81 30 125 0 26-8 44-32 69-46 48-72 53-103 22zM1015 1649c-26-6-51-22-70-44-17-20-51-42-80-53-34-12-49-23-47-34 1-10-8-17-27-21-16-3-41-17-56-30-25-21-26-26-15-46l12-23 31 30c61 59 150 78 223 47 20-8 62-42 94-75s63-60 70-60c21 0 127 60 151 86 20 21 21 26 9 54-7 17-39 51-71 76-33 25-59 49-59 54 0 31-99 55-165 39zM4009 1537c-44-56-44-56 14-50 68 7 118-9 168-54l38-34 30 60 31 63c0 2-28 4-63 4-34 1-89 11-121 23-33 12-62 21-65 21s-18-15-32-33zM4335 1432l-43-83c-2-4 10-10 25-14 77-19 133-102 133-197 0-48 3-58 20-63 33-10 53 2 83 50 29 49 67 152 67 182 0 13-19 27-64 46-69 30-139 84-165 128l-17 27-39-76z"/><path d="M860 1403c-29-11-50-36-50-60 0-38 15-58 60-78 39-17 44-18 93-2 29 9 62 23 72 32 19 14 18 16-32 65-44 43-57 50-90 49-21 0-45-3-53-6zM3958 1362c-51-49-52-51-33-66 33-26 113-48 144-41 43 9 81 48 81 83 0 40-31 64-89 70-49 4-51 3-103-46zM1276 1310c-44-13-94-52-112-86l-17-31-22 25-22 25-36-22c-21-12-37-26-37-29 0-4 12-20 26-36 22-25 28-27 50-17 39 18 113 13 161-10 24-12 68-43 98-71 53-48 54-49 83-34 16 8 52 33 80 56 71 55 71 81 0 146-90 80-172 108-252 84zM3751 1224c-28-25-51-54-51-64 0-16 7-17 63-13 92 7 172-36 199-107l9-25 20 25 58 81 40 55-30-4c-39-6-121 22-190 64-31 19-59 34-62 34s-28-21-56-46zM640 1247c-55-43-63-103-25-186l26-54 40 39c23 21 48 54 56 73 34 79-38 175-97 128zM4243 1238c-49-54-36-124 36-192l40-39 26 54c29 63 32 115 8 149-38 55-76 64-110 28zM884 1158c13-22 20-22 35-4 9 11 6 14-18 18-26 4-28 2-17-14zM996 1081c-22-23-26-33-18-48 10-17 11-16 21 7 6 14 18 35 27 48 24 32 3 27-30-7zM4082 1033l-50-68 44-21c75-36 108-91 109-184l1-65 32-3c28-3 35 2 65 50 65 103 84 178 45 178-31 0-124 76-160 131-17 27-32 49-34 49-1 0-25-30-52-67zM1101 1044c-38-32-40-67-6-98 38-36 81-39 141-10 28 13 58 32 68 43 16 17 14 20-36 55-67 46-121 49-167 10z"/><path d="M3715 1051c-16-11-41-28-54-39l-24-19 35-26c76-59 145-66 193-21 78 72-55 166-150 105zM1410 971c-5-11-37-41-70-66s-60-52-60-59c0-8 18-16 45-19 97-14 182-86 209-178 9-29 16-60 16-70 0-22 20-29 90-29 39 0 62 5 70 15 17 21 7 205-15 267-19 53-83 119-141 143-54 22-131 20-144-4zM3608 877c-34-53-32-58 26-51 41 5 63 2 99-14l46-20 14 21c14 21 13 22-24 23-22 1-62 15-93 33l-54 30-14-22zM890 852c-43-44-47-88-15-161 15-34 31-61 34-61 10 0 77 72 90 97 19 38 13 89-15 122-32 39-57 39-94 3zM3976 849c-28-33-34-84-15-122 13-25 80-97 90-97 3 0 19 27 34 61 32 73 28 117-15 161-37 36-62 36-94-3zM1164 818c13-22 30-23 50-2 22 21 21 22-22 21-34-2-38-4-28-19zM1086 735c-4-20-6-39-4-40 2-2 14 5 28 15l25 19-21 21-21 22-7-37zM3846 751c-15-16-19-38-20-96-1-41 0-75 2-75 9 0 82 41 87 50 3 5-2 21-11 34-9 14-21 44-28 66-12 41-12 41-30 21z"/><path d="M1255 738c-33-18-45-40-45-82 1-97 79-163 207-174l66-5-7 54c-16 123-41 169-110 200-46 21-82 23-111 7zM3594 731c-69-31-94-77-110-200l-7-54 66 5c126 10 206 77 207 170 0 50-8 66-41 83-37 20-65 19-115-4z"/></g><g fill="#6dc9f7"><path d="M1915 4640l-160-89-10 32c-14 48-95 124-140 133-86 16-236-14-261-51-12-18-12-28-1-61 13-36 18-40 59-45 55-8 95-28 129-66 33-35 49-65 49-92 0-12 1-21 3-21l177 95c96 52 181 93 190 90 8-2 53 17 100 43 63 35 86 53 88 70 4 29-14 52-42 52-11-1-93-41-181-90zM3150 4716c-6-8-10-25-8-38 2-18 33-40 146-101 129-71 145-78 160-64 9 8 29 21 44 28 27 14 26 15-132 102-87 48-168 87-178 87-11 0-25-7-32-14zM3640 4701c-45-25-75-57-95-104l-15-37h35c55 0 172-29 197-49 20-17 21-21 9-61-14-49-12-54 20-41 38 14 88 71 119 136 41 85 43 99 23 123-40 48-226 68-293 33zM1313 4468c-41-9-42-10-32-36 32-84 105-132 171-113 65 20 64 94-1 138-36 24-69 27-138 11z"/><path d="M3513 4460c-38-23-53-48-53-90 0-26 6-33 37-46 30-13 44-14 74-5 40 12 92 66 108 112 9 27 8 28-40 38-69 15-89 14-126-9zM1133 4411c-29-10-77-34-108-55-51-34-56-40-53-69l3-32 56 3c90 6 178-46 195-115 4-12 9-23 11-23 3 0 37 25 75 56l69 56-50 24c-36 18-60 40-85 79-20 29-36 58-36 63 0 26-26 30-77 13zM1737 4373l-97-55 39-38c49-47 65-96 58-171-4-52-3-59 13-59 22 0 88 71 126 136 24 40 29 60 28 110 0 65-27 127-55 131-7 0-58-24-112-54zM4013 4416c-58-18-98-49-118-91-18-40-11-43-96 27l-46 38-26-39-26-39 49-41 48-41 42 15c57 20 99 19 162-5s148-84 148-105c0-29 24-15 92 53 56 56 68 74 68 100 0 29-7 37-62 72-58 38-142 71-177 69-9 0-35-6-58-13zM3650 4268c-24-15-50-28-58-28-18 0-1-22 39-51l28-20 21 41c12 23 20 52 18 64l-3 23-45-29zM1531 4215c-32-41-35-80-12-128 12-24 32-54 46-67l24-23 20 24c37 44 54 90 48 131-11 79-84 116-126 63zM3344 4232c-24-16-44-59-44-92 0-34 16-71 52-120l18-24 25 24c38 36 68 104 60 139-14 63-71 101-111 73zM2030 4188c-43-29-68-65-76-105l-6-33h125c101 0 129-3 141-16 19-19 20-38 3-52-7-6-75-12-154-14-122-3-144-6-162-22-30-27-28-86 2-114 22-21 31-22 243-22 158 0 223-3 232-12 19-19 16-447-3-523a507 507 0 00-226-300 1182 1182 0 01-483-771c-14-81-16-161-14-434l3-335h1650v780l-28 99c-75 270-228 489-462 661a547 547 0 00-199 226c-36 79-46 160-46 381 0 165 2 199 16 212 13 14 49 16 235 16h220l24 25c27 26 31 51 14 88-18 39-50 47-184 47-140 0-155 3-155 34 0 41 17 46 159 46 112 0 143-4 178-20 46-20 79-64 89-117 6-29 9-32 33-27 36 9 75 30 90 48 11 13 9 20-7 43-47 67-63 114-61 171l3 57-580 3-581 2-33-22zm624-160c8-13 8-23 0-35-10-16-31-18-169-21-158-3-185 2-185 34 0 7 7 20 16 29 13 13 40 15 171 13 136-3 157-5 167-20zm-295-1473l125-65 124 65c125 65 158 76 168 52 2-7-7-76-21-152l-25-140 105-102c104-101 125-136 88-147-10-2-78-13-151-22l-133-18-67-131c-90-174-91-174-180 0l-67 130-140 20c-146 22-165 27-165 49 0 8 48 60 106 116l107 102-24 137c-23 142-22 171 8 171 10 0 74-30 142-65zM962 4154c-29-14-52-29-52-34 0-18 91-89 122-95 45-9 104 16 120 50 10 22 8 30-9 53-43 58-101 66-181 26zM3861 4167c-13-6-33-24-44-39-17-23-19-31-9-53 16-34 75-59 120-50 31 6 122 77 122 95 0 14-103 60-134 60-17 0-42-6-55-13zM1390 4137l-63-53-38-31 33-21c62-38 99-135 80-206-10-34-9-36 13-36 14 0 38 16 63 44 69 75 69 76 12 150-43 58-59 93-72 158-3 15-6 14-28-5zM3536 4121c-3-22-9-46-12-55-9-23 18-20 50 5 33 26 32 38-3 66l-29 22-6-38zM4349 4081c-51-10-105-47-121-81-7-17-16-30-20-30-3 0-24 20-46 45s-44 45-49 45-22-14-38-30l-29-30 38-39 38-39-23-12c-31-16-79-61-79-74 0-5 7-18 16-28 16-17 18-16 36 22 26 52 74 81 146 87 73 7 124-17 199-93 29-30 58-54 65-54 19 0 108 53 141 83 15 15 27 32 27 40 0 25-78 113-132 150-56 37-109 49-169 38zM767 4049c-73-48-168-172-108-139 11 5 42 10 69 10 68 0 130-34 158-88l22-41 66 74 67 74-41 11c-26 7-62 31-104 70-35 33-68 60-73 60s-30-14-56-31zM1205 3957c-51-44-43-128 21-200 30-35 39-30 78 43 33 60 30 102-10 150-31 36-54 38-89 7zM3666 3950c-40-48-43-90-10-150 39-73 48-78 78-43 64 72 72 156 21 200-35 31-58 29-89-7zM4005 3970c-3-5-24-14-47-20l-40-11 28-30 28-30 18 23c22 29 40 78 28 78-5 0-12-4-15-10zM1037 3812c-49-50-56-62-34-62 24 0 90-63 108-104 10-23 19-64 19-94 0-57 11-69 54-58 15 4 33 25 55 65 36 69 37 71 12 71-37 0-141 135-160 208-6 21-9 20-54-26zM3867 3830c-4-16-6-33-5-38 3-10 30-3 46 12 10 10 8 17-11 35l-24 22-6-31zM675 3829c-24-14-95-81-95-89 0-4 27-19 59-34 45-22 67-27 94-22 74 14 113 90 67 131-24 21-98 30-125 14z"/><path d="M4190 3833c-55-20-67-79-24-118 43-40 87-42 155-9 32 15 59 30 59 34 0 10-73 77-97 89-23 11-67 13-93 4zM2650 3557c0-313 29-381 224-526 177-132 302-280 394-471l56-115 144-95c185-122 262-201 328-335 46-92 48-100 49-183 0-48-4-102-8-120l-9-33 40 20c92 47 146 151 145 281-2 192-132 368-408 552l-120 79-35 77c-53 116-73 151-138 238-69 93-203 223-287 281a493 493 0 00-173 191c-23 51-27 72-30 195l-4 137h-168v-173zM4556 3690c-16-5-42-22-58-37l-29-28-18 23c-17 23-18 23-54 6-38-18-45-32-26-51 7-7-2-14-33-22-81-21-92-44-48-101l19-25 21 22c34 38 81 56 140 56 70 0 101-16 174-93l60-63 35 13c20 7 60 28 89 46 39 25 52 40 52 57 0 46-106 164-172 192-40 16-106 18-152 5zM932 3673c-20-8-42-59-42-98 0-31 9-46 54-93l55-57 25 55c30 63 32 99 11 140-25 47-65 68-103 53zM3962 3664c-29-20-52-65-52-101 0-15 12-53 26-83l25-55 55 57c45 47 54 62 54 93 0 83-54 127-108 89zM471 3604c-34-35-61-69-61-73 0-5 17-5 38 0 62 14 171-18 185-56 4-8 10-15 15-15 7 0 102 131 102 141 0 2-21 4-48 5-31 1-67 11-109 32l-61 31-61-65zM4210 3596c0-2 6-9 14-15 10-9 16-8 26 4 11 13 8 15-14 15-14 0-26-2-26-4z"/><path d="M768 3482l-38-57 34-6c84-14 151-87 163-179 8-53 10-55 45-64 19-5 43-6 51-3 23 9 60 115 64 187l4 65-28-42c-15-24-34-45-42-48-34-13-201 137-201 180 0 31-18 20-52-33zM4147 3534c-4-4-7-14-7-23 0-11 3-12 11-4 6 6 10 16 7 23-2 6-7 8-11 4zM456 3450c-27-9-116-86-116-101 0-14 100-49 139-49 43 0 95 34 106 70 9 28-12 60-50 76s-39 16-79 4zM4194 3447c-8-22-1-30 21-25 14 3 14 5 1 23-14 19-15 19-22 2zM4423 3446c-36-17-57-48-48-76 11-36 63-70 106-70 40 0 139 36 139 50 0 12-98 100-112 100-7 0-22 2-33 5s-34-2-52-9zM704 3319c-22-25-25-85-5-123 16-30 105-91 120-82 15 10 33 103 26 136-9 42-60 90-94 90-16 0-36-9-47-21zM4152 3310c-17-16-33-44-37-60-7-34 11-126 27-136 13-9 104 55 120 84 19 36 16 97-6 121-28 30-69 27-104-9zM4698 3251c-34-19-38-19-47-4-8 16-12 16-50-1-22-11-38-23-35-27 3-5-8-9-24-9-23 0-92-17-92-23 0-4 42-112 46-118 2-4 25 4 51 17 59 30 104 30 170-1 51-23 101-81 119-138 5-16 12-18 57-12 28 4 69 13 91 19 40 12 41 13 40 58 0 69-63 190-116 226-56 36-156 43-210 13zM345 3216c-19-19-65-96-65-108 0-2 19-2 43 0 30 2 56-4 90-21l48-25 9 22 29 70c12 27 21 52 21 57s-19 9-43 9c-23 0-57 4-75 10-29 8-37 6-57-14z"/><path d="M573 3122l-31-77 53-6c83-10 160-76 171-150 8-50 21-59 87-66 50-5 56-4 68 18 14 27 19 188 6 232-10 37-21 34-40-13-8-22-23-43-33-47-41-15-234 118-234 161 0 38-18 18-47-52zM2195 3159c-61-50-175-161-175-171 0-18 179 125 208 166 19 25 30 46 25 46-4-1-30-19-58-41zM4362 3095c-20-44-15-55 23-55h35l-15 36-15 40c0 14-19 0-28-21zM269 3007c-41-27-96-126-77-139 7-4 41-8 74-8 68 0 102 19 129 70 20 39 19 47-10 75-30 31-71 32-116 2zM4575 3005c-29-28-30-36-10-75 27-51 61-70 129-70 87 0 91 6 59 71-47 92-127 126-178 74zM530 2941c-15-29-12-79 7-112 17-28 71-60 126-73l27-6v71c0 67-2 73-34 105-28 28-42 34-75 34-30 0-43-5-51-19zM4304 2926c-32-32-34-38-34-105v-71l28 6c90 22 142 71 142 134 0 52-15 70-61 70-33 0-47-6-75-34zM4805 2795a458 458 0 00-230 3c-2-2 2-40 8-86 9-68 14-81 27-76 79 33 191-5 234-79 14-23 28-54 31-69 7-28 8-28 84-28 47 0 82 5 89 12 26 26 4 183-36 250a176 176 0 01-207 73zM333 2778c-41-19-73-58-87-104-6-19-2-22 41-26 27-3 55-9 64-12 13-6 17 3 22 54 4 33 10 72 13 85 7 30 2 30-53 3z"/><path d="M465 2759l-14-87c-7-56-6-62 8-55 9 4 46 8 82 8 56 0 72-4 107-29 26-18 49-45 62-75l29-61c6-10 27-16 67-18 109-6 118 4 103 118-12 95-43 165-88 196-20 13-39 24-42 24-4 0-9-22-13-50-9-66-27-76-106-56-75 19-154 59-174 87l-15 22-6-24zM4448 2737c-21-18-44-48-52-69l-16-36 53-4c28-2 59-8 68-12 14-6 14 1 6 66-5 40-12 76-15 80-4 3-24-8-44-25zM223 2550c-39-23-61-64-70-126l-6-47 59 7c90 10 138 53 138 123 0 61-58 82-121 43zM4635 2556c-24-17-25-74-2-110 26-39 56-55 121-62l59-7-6 47c-9 62-31 103-70 126-38 23-76 25-102 6z"/><path d="M485 2533c-13-12-16-27-12-56 9-68 65-107 152-107h47l-7 33c-14 67-27 97-56 122-36 30-98 34-124 8zM4351 2525c-29-25-42-55-56-122l-7-33h47c87 0 143 39 152 107 7 51-14 73-67 73-27 0-48-8-69-25zM1608 2483c-70-51-129-104-193-174-26-28-31-37-15-26a15892 15892 0 01250 171l15 40c8 20 14 36 11 36-2 0-33-21-68-47z"/><path d="M750 2356c0-22-4-46-8-52-20-31-171-21-247 16-25 12-48 20-51 17s-2-37 2-76l6-70 41 21c31 15 54 19 98 16 77-6 127-39 165-112 33-63 44-66 144-45 85 18 92 40 49 151-39 100-89 151-165 168l-34 8v-42zM4495 2340c-10-11-43-28-74-37-91-27-113-73-36-73 26 0 63-9 84-20l39-19 7 80c4 44 5 82 3 85-3 2-13-5-23-16zM4594 2259l-9-91 29 6c83 17 186-59 210-154 13-54 14-55 61-68 90-26 111 9 108 174-1 77-15 114-57 153-24 23-34 25-133 26-102 1-133 8-194 42-3 2-10-37-15-88zM327 2260c-24-28-43-68-35-75 1-1 21-6 44-9l41-7-8 56c-4 31-10 59-12 61-2 3-16-9-30-26z"/><path d="M517 2133c-28-32-22-75 19-114 34-32 38-34 105-33 38 1 72 4 75 7 9 9-37 104-61 127-34 32-113 39-138 13zM4335 2141c-11-5-28-17-37-28-22-23-62-113-54-120 3-3 37-6 76-7 70-1 72 0 106 36 39 43 45 85 16 111-20 18-73 21-107 8zM3390 1931c0-136 4-212 10-216s47-7 91-8c93-1 128 18 143 75 14 56 2 85-39 92l-35 7v114l-76 73c-42 39-80 72-85 72s-9-93-9-209zM1458 2048c-140-138-172-274-75-325 31-16 156-21 178-7 5 3 9 40 9 82 0 77 0 78-30 89-55 21-64 99-21 185 11 23 19 44 17 46s-37-30-78-70zM285 2086c-55-24-69-50-73-132-5-87 0-89 86-49 40 19 56 33 67 59 21 51 18 83-10 111-28 29-30 29-70 11zM4605 2076c-28-29-32-61-10-112 11-26 27-40 67-59 82-38 88-36 88 38 0 69-13 102-50 128-45 31-67 33-95 5zM816 1999c-3-8-6-25-8-39-4-33-50-48-177-58-109-8-116-15-86-85l16-38 30 25c35 30 82 40 149 34 59-6 106-39 151-106l35-51c6-7 139 38 163 55 33 24 24 78-26 151-55 80-104 113-181 120-47 4-63 3-66-8zM4400 1913c-30-9-66-12-107-8l-62 7-21-34-20-33 43-3c76-4 106-12 137-38l30-26 11 29c15 37 39 117 36 118-1 1-22-5-47-12zM4525 1898c-9-25-45-143-45-148 0-3 19-6 41-7 85-3 169-97 169-189 0-42 1-44 41-55 55-17 69-6 97 77 27 79 33 164 13 212-15 35-26 40-35 16-15-39-202 19-251 78-17 20-27 25-30 16zM442 1796c-17-38-15-43 13-48 28-6 30 3 12 46l-13 29-12-27z"/><path d="M642 1744c-44-31-17-107 48-134 25-10 42-10 83-1 29 6 58 15 66 20 19 12 6 43-39 90-36 37-45 41-88 41-27 0-57-7-70-16zM4160 1719c-45-47-58-78-39-90 8-5 37-14 66-20 41-9 58-9 83 1 65 27 92 103 48 134-13 9-43 16-70 16-43 0-52-4-88-41zM424 1660c-36-15-74-68-74-106 0-43 20-124 30-124 18 0 106 67 117 90 21 42 16 98-12 125-26 27-30 28-61 15zM4475 1646c-28-28-34-83-12-126 11-23 99-90 117-90 10 0 30 81 30 125 0 26-8 44-32 69-46 48-72 53-103 22zM1015 1649c-26-6-51-22-70-44-17-20-51-42-80-53-34-12-49-23-47-34 1-10-8-17-27-21-16-3-41-17-56-30-25-21-26-26-15-46l12-23 31 30c61 59 150 78 223 47 20-8 62-42 94-75s63-60 70-60c21 0 127 60 151 86 20 21 21 26 9 54-7 17-39 51-71 76-33 25-59 49-59 54 0 31-99 55-165 39zM4009 1537c-44-56-44-56 14-50 68 7 118-9 168-54l38-34 30 60 31 63c0 2-28 4-63 4-34 1-89 11-121 23-33 12-62 21-65 21s-18-15-32-33zM4335 1432l-43-83c-2-4 10-10 25-14 77-19 133-102 133-197 0-48 3-58 20-63 33-10 53 2 83 50 29 49 67 152 67 182 0 13-19 27-64 46-69 30-139 84-165 128l-17 27-39-76z"/><path d="M860 1403c-29-11-50-36-50-60 0-38 15-58 60-78 39-17 44-18 93-2 29 9 62 23 72 32 19 14 18 16-32 65-44 43-57 50-90 49-21 0-45-3-53-6zM3958 1362c-51-49-52-51-33-66 33-26 113-48 144-41 43 9 81 48 81 83 0 40-31 64-89 70-49 4-51 3-103-46zM1276 1310c-44-13-94-52-112-86l-17-31-22 25-22 25-36-22c-21-12-37-26-37-29 0-4 12-20 26-36 22-25 28-27 50-17 39 18 113 13 161-10 24-12 68-43 98-71 53-48 54-49 83-34 16 8 52 33 80 56 71 55 71 81 0 146-90 80-172 108-252 84zM3751 1224c-28-25-51-54-51-64 0-16 7-17 63-13 92 7 172-36 199-107l9-25 20 25 58 81 40 55-30-4c-39-6-121 22-190 64-31 19-59 34-62 34s-28-21-56-46zM640 1247c-55-43-63-103-25-186l26-54 40 39c23 21 48 54 56 73 34 79-38 175-97 128zM4243 1238c-49-54-36-124 36-192l40-39 26 54c29 63 32 115 8 149-38 55-76 64-110 28zM884 1158c13-22 20-22 35-4 9 11 6 14-18 18-26 4-28 2-17-14zM996 1081c-22-23-26-33-18-48 10-17 11-16 21 7 6 14 18 35 27 48 24 32 3 27-30-7zM4082 1033l-50-68 44-21c75-36 108-91 109-184l1-65 32-3c28-3 35 2 65 50 65 103 84 178 45 178-31 0-124 76-160 131-17 27-32 49-34 49-1 0-25-30-52-67zM1101 1044c-38-32-40-67-6-98 38-36 81-39 141-10 28 13 58 32 68 43 16 17 14 20-36 55-67 46-121 49-167 10z"/><path d="M3715 1051c-16-11-41-28-54-39l-24-19 35-26c76-59 145-66 193-21 78 72-55 166-150 105zM1410 971c-5-11-37-41-70-66s-60-52-60-59c0-8 18-16 45-19 97-14 182-86 209-178 9-29 16-60 16-70 0-22 20-29 90-29 39 0 62 5 70 15 17 21 7 205-15 267-19 53-83 119-141 143-54 22-131 20-144-4zM3608 877c-34-53-32-58 26-51 41 5 63 2 99-14l46-20 14 21c14 21 13 22-24 23-22 1-62 15-93 33l-54 30-14-22zM890 852c-43-44-47-88-15-161 15-34 31-61 34-61 10 0 77 72 90 97 19 38 13 89-15 122-32 39-57 39-94 3zM3976 849c-28-33-34-84-15-122 13-25 80-97 90-97 3 0 19 27 34 61 32 73 28 117-15 161-37 36-62 36-94-3zM1164 818c13-22 30-23 50-2 22 21 21 22-22 21-34-2-38-4-28-19zM1086 735c-4-20-6-39-4-40 2-2 14 5 28 15l25 19-21 21-21 22-7-37zM3846 751c-15-16-19-38-20-96-1-41 0-75 2-75 9 0 82 41 87 50 3 5-2 21-11 34-9 14-21 44-28 66-12 41-12 41-30 21z"/><path d="M1255 738c-33-18-45-40-45-82 1-97 79-163 207-174l66-5-7 54c-16 123-41 169-110 200-46 21-82 23-111 7zM3594 731c-69-31-94-77-110-200l-7-54 66 5c126 10 206 77 207 170 0 50-8 66-41 83-37 20-65 19-115-4z"/></g><g fill="#f1e0e7"><path d="M1915 4640l-160-89-10 32c-14 48-95 124-140 133-86 16-236-14-261-51-12-18-12-28-1-61 13-36 18-40 59-45 55-8 95-28 129-66 33-35 49-65 49-92 0-12 1-21 3-21l177 95c96 52 181 93 190 90 8-2 53 17 100 43 63 35 86 53 88 70 4 29-14 52-42 52-11-1-93-41-181-90zM3150 4716c-6-8-10-25-8-38 2-18 33-40 146-101 129-71 145-78 160-64 9 8 29 21 44 28 27 14 26 15-132 102-87 48-168 87-178 87-11 0-25-7-32-14zM3640 4701c-45-25-75-57-95-104l-15-37h35c55 0 172-29 197-49 20-17 21-21 9-61-14-49-12-54 20-41 38 14 88 71 119 136 41 85 43 99 23 123-40 48-226 68-293 33zM1133 4411c-29-10-77-34-108-55-51-34-56-40-53-69l3-32 56 3c90 6 178-46 195-115 4-12 9-23 11-23 3 0 37 25 75 56l69 56-50 24c-36 18-60 40-85 79-20 29-36 58-36 63 0 26-26 30-77 13zM1737 4373l-97-55 39-38c49-47 65-96 58-171-4-52-3-59 13-59 22 0 88 71 126 136 24 40 29 60 28 110 0 65-27 127-55 131-7 0-58-24-112-54zM4013 4416c-58-18-98-49-118-91-18-40-11-43-96 27l-46 38-26-39-26-39 49-41 48-41 42 15c57 20 99 19 162-5s148-84 148-105c0-29 24-15 92 53 56 56 68 74 68 100 0 29-7 37-62 72-58 38-142 71-177 69-9 0-35-6-58-13zM3650 4268c-24-15-50-28-58-28-18 0-1-22 39-51l28-20 21 41c12 23 20 52 18 64l-3 23-45-29zM2030 4188c-43-29-68-65-76-105l-6-33h125c101 0 129-3 141-16 19-19 20-38 3-52-7-6-75-12-154-14-122-3-144-6-162-22-30-27-28-86 2-114 22-21 31-22 243-22 158 0 223-3 232-12 19-19 16-447-3-523a507 507 0 00-226-300 1182 1182 0 01-483-771c-14-81-16-161-14-434l3-335h1650v780l-28 99c-75 270-228 489-462 661a547 547 0 00-199 226c-36 79-46 160-46 381 0 165 2 199 16 212 13 14 49 16 235 16h220l24 25c27 26 31 51 14 88-18 39-50 47-184 47-140 0-155 3-155 34 0 41 17 46 159 46 112 0 143-4 178-20 46-20 79-64 89-117 6-29 9-32 33-27 36 9 75 30 90 48 11 13 9 20-7 43-47 67-63 114-61 171l3 57-580 3-581 2-33-22zm624-160c8-13 8-23 0-35-10-16-31-18-169-21-158-3-185 2-185 34 0 7 7 20 16 29 13 13 40 15 171 13 136-3 157-5 167-20zm-295-1473l125-65 124 65c125 65 158 76 168 52 2-7-7-76-21-152l-25-140 105-102c104-101 125-136 88-147-10-2-78-13-151-22l-133-18-67-131c-90-174-91-174-180 0l-67 130-140 20c-146 22-165 27-165 49 0 8 48 60 106 116l107 102-24 137c-23 142-22 171 8 171 10 0 74-30 142-65zM1390 4137l-63-53-38-31 33-21c62-38 99-135 80-206-10-34-9-36 13-36 14 0 38 16 63 44 69 75 69 76 12 150-43 58-59 93-72 158-3 15-6 14-28-5zM3536 4121c-3-22-9-46-12-55-9-23 18-20 50 5 33 26 32 38-3 66l-29 22-6-38zM4349 4081c-51-10-105-47-121-81-7-17-16-30-20-30-3 0-24 20-46 45s-44 45-49 45-22-14-38-30l-29-30 38-39 38-39-23-12c-31-16-79-61-79-74 0-5 7-18 16-28 16-17 18-16 36 22 26 52 74 81 146 87 73 7 124-17 199-93 29-30 58-54 65-54 19 0 108 53 141 83 15 15 27 32 27 40 0 25-78 113-132 150-56 37-109 49-169 38zM767 4049c-73-48-168-172-108-139 11 5 42 10 69 10 68 0 130-34 158-88l22-41 66 74 67 74-41 11c-26 7-62 31-104 70-35 33-68 60-73 60s-30-14-56-31zM4005 3970c-3-5-24-14-47-20l-40-11 28-30 28-30 18 23c22 29 40 78 28 78-5 0-12-4-15-10zM1037 3812c-49-50-56-62-34-62 24 0 90-63 108-104 10-23 19-64 19-94 0-57 11-69 54-58 15 4 33 25 55 65 36 69 37 71 12 71-37 0-141 135-160 208-6 21-9 20-54-26zM3867 3830c-4-16-6-33-5-38 3-10 30-3 46 12 10 10 8 17-11 35l-24 22-6-31z"/><path d="M2650 3557c0-313 29-381 224-526 177-132 302-280 394-471l56-115 144-95c185-122 262-201 328-335 46-92 48-100 49-183 0-48-4-102-8-120l-9-33 40 20c92 47 146 151 145 281-2 192-132 368-408 552l-120 79-35 77c-53 116-73 151-138 238-69 93-203 223-287 281a493 493 0 00-173 191c-23 51-27 72-30 195l-4 137h-168v-173zM4556 3690c-16-5-42-22-58-37l-29-28-18 23c-17 23-18 23-54 6-38-18-45-32-26-51 7-7-2-14-33-22-81-21-92-44-48-101l19-25 21 22c34 38 81 56 140 56 70 0 101-16 174-93l60-63 35 13c20 7 60 28 89 46 39 25 52 40 52 57 0 46-106 164-172 192-40 16-106 18-152 5zM471 3604c-34-35-61-69-61-73 0-5 17-5 38 0 62 14 171-18 185-56 4-8 10-15 15-15 7 0 102 131 102 141 0 2-21 4-48 5-31 1-67 11-109 32l-61 31-61-65zM4210 3596c0-2 6-9 14-15 10-9 16-8 26 4 11 13 8 15-14 15-14 0-26-2-26-4zM768 3482l-38-57 34-6c84-14 151-87 163-179 8-53 10-55 45-64 19-5 43-6 51-3 23 9 60 115 64 187l4 65-28-42c-15-24-34-45-42-48-34-13-201 137-201 180 0 31-18 20-52-33zM4147 3534c-4-4-7-14-7-23 0-11 3-12 11-4 6 6 10 16 7 23-2 6-7 8-11 4zM4194 3447c-8-22-1-30 21-25 14 3 14 5 1 23-14 19-15 19-22 2zM4698 3251c-34-19-38-19-47-4-8 16-12 16-50-1-22-11-38-23-35-27 3-5-8-9-24-9-23 0-92-17-92-23 0-4 42-112 46-118 2-4 25 4 51 17 59 30 104 30 170-1 51-23 101-81 119-138 5-16 12-18 57-12 28 4 69 13 91 19 40 12 41 13 40 58 0 69-63 190-116 226-56 36-156 43-210 13zM345 3216c-19-19-65-96-65-108 0-2 19-2 43 0 30 2 56-4 90-21l48-25 9 22 29 70c12 27 21 52 21 57s-19 9-43 9c-23 0-57 4-75 10-29 8-37 6-57-14zM573 3122l-31-77 53-6c83-10 160-76 171-150 8-50 21-59 87-66 50-5 56-4 68 18 14 27 19 188 6 232-10 37-21 34-40-13-8-22-23-43-33-47-41-15-234 118-234 161 0 38-18 18-47-52zM2195 3159c-61-50-175-161-175-171 0-18 179 125 208 166 19 25 30 46 25 46-4-1-30-19-58-41zM4362 3095c-20-44-15-55 23-55h35l-15 36-15 40c0 14-19 0-28-21zM4805 2795a458 458 0 00-230 3c-2-2 2-40 8-86 9-68 14-81 27-76 79 33 191-5 234-79 14-23 28-54 31-69 7-28 8-28 84-28 47 0 82 5 89 12 26 26 4 183-36 250a176 176 0 01-207 73zM333 2778c-41-19-73-58-87-104-6-19-2-22 41-26 27-3 55-9 64-12 13-6 17 3 22 54 4 33 10 72 13 85 7 30 2 30-53 3zM465 2759l-14-87c-7-56-6-62 8-55 9 4 46 8 82 8 56 0 72-4 107-29 26-18 49-45 62-75l29-61c6-10 27-16 67-18 109-6 118 4 103 118-12 95-43 165-88 196-20 13-39 24-42 24-4 0-9-22-13-50-9-66-27-76-106-56-75 19-154 59-174 87l-15 22-6-24zM4448 2737c-21-18-44-48-52-69l-16-36 53-4c28-2 59-8 68-12 14-6 14 1 6 66-5 40-12 76-15 80-4 3-24-8-44-25zM1608 2483c-70-51-129-104-193-174-26-28-31-37-15-26a15892 15892 0 01250 171l15 40c8 20 14 36 11 36-2 0-33-21-68-47zM750 2356c0-22-4-46-8-52-20-31-171-21-247 16-25 12-48 20-51 17s-2-37 2-76l6-70 41 21c31 15 54 19 98 16 77-6 127-39 165-112 33-63 44-66 144-45 85 18 92 40 49 151-39 100-89 151-165 168l-34 8v-42zM4495 2340c-10-11-43-28-74-37-91-27-113-73-36-73 26 0 63-9 84-20l39-19 7 80c4 44 5 82 3 85-3 2-13-5-23-16zM4594 2259l-9-91 29 6c83 17 186-59 210-154 13-54 14-55 61-68 90-26 111 9 108 174-1 77-15 114-57 153-24 23-34 25-133 26-102 1-133 8-194 42-3 2-10-37-15-88zM327 2260c-24-28-43-68-35-75 1-1 21-6 44-9l41-7-8 56c-4 31-10 59-12 61-2 3-16-9-30-26zM3390 1931c0-136 4-212 10-216s47-7 91-8c93-1 128 18 143 75 14 56 2 85-39 92l-35 7v114l-76 73c-42 39-80 72-85 72s-9-93-9-209zM1458 2048c-140-138-172-274-75-325 31-16 156-21 178-7 5 3 9 40 9 82 0 77 0 78-30 89-55 21-64 99-21 185 11 23 19 44 17 46s-37-30-78-70zM816 1999c-3-8-6-25-8-39-4-33-50-48-177-58-109-8-116-15-86-85l16-38 30 25c35 30 82 40 149 34 59-6 106-39 151-106l35-51c6-7 139 38 163 55 33 24 24 78-26 151-55 80-104 113-181 120-47 4-63 3-66-8zM4400 1913c-30-9-66-12-107-8l-62 7-21-34-20-33 43-3c76-4 106-12 137-38l30-26 11 29c15 37 39 117 36 118-1 1-22-5-47-12zM4525 1898c-9-25-45-143-45-148 0-3 19-6 41-7 85-3 169-97 169-189 0-42 1-44 41-55 55-17 69-6 97 77 27 79 33 164 13 212-15 35-26 40-35 16-15-39-202 19-251 78-17 20-27 25-30 16zM442 1796c-17-38-15-43 13-48 28-6 30 3 12 46l-13 29-12-27zM1015 1649c-26-6-51-22-70-44-17-20-51-42-80-53-34-12-49-23-47-34 1-10-8-17-27-21-16-3-41-17-56-30-25-21-26-26-15-46l12-23 31 30c61 59 150 78 223 47 20-8 62-42 94-75s63-60 70-60c21 0 127 60 151 86 20 21 21 26 9 54-7 17-39 51-71 76-33 25-59 49-59 54 0 31-99 55-165 39zM4009 1537c-44-56-44-56 14-50 68 7 118-9 168-54l38-34 30 60 31 63c0 2-28 4-63 4-34 1-89 11-121 23-33 12-62 21-65 21s-18-15-32-33zM4335 1432l-43-83c-2-4 10-10 25-14 77-19 133-102 133-197 0-48 3-58 20-63 33-10 53 2 83 50 29 49 67 152 67 182 0 13-19 27-64 46-69 30-139 84-165 128l-17 27-39-76zM1276 1310c-44-13-94-52-112-86l-17-31-22 25-22 25-36-22c-21-12-37-26-37-29 0-4 12-20 26-36 22-25 28-27 50-17 39 18 113 13 161-10 24-12 68-43 98-71 53-48 54-49 83-34 16 8 52 33 80 56 71 55 71 81 0 146-90 80-172 108-252 84zM3751 1224c-28-25-51-54-51-64 0-16 7-17 63-13 92 7 172-36 199-107l9-25 20 25 58 81 40 55-30-4c-39-6-121 22-190 64-31 19-59 34-62 34s-28-21-56-46zM884 1158c13-22 20-22 35-4 9 11 6 14-18 18-26 4-28 2-17-14zM996 1081c-22-23-26-33-18-48 10-17 11-16 21 7 6 14 18 35 27 48 24 32 3 27-30-7zM4082 1033l-50-68 44-21c75-36 108-91 109-184l1-65 32-3c28-3 35 2 65 50 65 103 84 178 45 178-31 0-124 76-160 131-17 27-32 49-34 49-1 0-25-30-52-67zM1410 971c-5-11-37-41-70-66s-60-52-60-59c0-8 18-16 45-19 97-14 182-86 209-178 9-29 16-60 16-70 0-22 20-29 90-29 39 0 62 5 70 15 17 21 7 205-15 267-19 53-83 119-141 143-54 22-131 20-144-4zM3608 877c-34-53-32-58 26-51 41 5 63 2 99-14l46-20 14 21c14 21 13 22-24 23-22 1-62 15-93 33l-54 30-14-22zM1164 818c13-22 30-23 50-2 22 21 21 22-22 21-34-2-38-4-28-19zM1086 735c-4-20-6-39-4-40 2-2 14 5 28 15l25 19-21 21-21 22-7-37zM3846 751c-15-16-19-38-20-96-1-41 0-75 2-75 9 0 82 41 87 50 3 5-2 21-11 34-9 14-21 44-28 66-12 41-12 41-30 21z"/></g></svg>