<svg height="512" viewBox="0 0 32 32" width="512" xmlns="http://www.w3.org/2000/svg"><path d="M26 32H6a6 6 0 0 1-6-6V6a6 6 0 0 1 6-6h20a6 6 0 0 1 6 6v20a6 6 0 0 1-6 6z" fill="#fff9dd"/><g fill="#ffe777"><path d="M9.666 24a.666.666 0 0 1-.516-1.088l1.458-1.792a.667.667 0 1 1 1.034.842l-1.458 1.792a.666.666 0 0 1-.518.246zM22.334 24a.666.666 0 0 1-.518-.246l-1.458-1.792a.668.668 0 0 1 1.034-.842l1.458 1.792A.668.668 0 0 1 22.334 24zM8.667 12.5a.668.668 0 0 1-.471-1.138l3.167-3.167a.668.668 0 0 1 .943.943l-3.167 3.167a.669.669 0 0 1-.472.195zM23.333 12.5a.663.663 0 0 1-.471-.195l-3.167-3.167a.668.668 0 0 1 .943-.943l3.167 3.167a.668.668 0 0 1-.472 1.138z"/></g><path d="M16 10c-3.86 0-7 3.14-7 7s3.14 7 7 7 7-3.14 7-7-3.14-7-7-7zm4.167 7.667H16a.667.667 0 0 1-.667-.667v-4a.667.667 0 1 1 1.334 0v3.333h3.5a.667.667 0 1 1 0 1.334z" fill="#ffd200"/></svg>