<svg version="1.0" xmlns="http://www.w3.org/2000/svg" width="512" height="512" viewBox="0 0 5120 5120"><path d="M625 4821c-45-20-95-72-114-118-7-19-22-34-37-37-51-13-134-112-134-160 0-9-15-22-33-30-39-16-81-63-98-111-9-25-20-36-41-40-65-15-128-100-128-174 0-51 15-89 48-124 44-47 74-57 167-57 81 0 111-11 62-24-41-10-79-48-103-101-18-42-28-53-51-58-66-13-123-93-123-172 0-60 32-119 80-151 36-24 55-29 131-32 79-4 89-7 89-23 0-11-6-19-13-19-32 0-90-54-113-106-16-37-29-54-42-54-11 0-37-13-59-29-69-50-91-145-54-226 35-76 92-105 206-105 66 0 75-2 75-18 0-12-15-25-40-36-42-18-84-70-95-117-5-20-15-28-37-33-69-14-128-93-128-172 0-44 28-111 56-136 37-32 92-48 169-48 66 0 75-2 75-18 0-12-15-25-40-36-42-18-84-70-95-117-5-20-15-28-37-33-45-9-84-41-107-89-25-51-27-104-6-154 34-81 91-112 208-113 69 0 77-2 77-19 0-11-12-23-30-31-43-18-89-68-102-112-6-21-18-38-26-38s-31-9-51-21c-124-69-119-254 10-319 29-15 58-20 119-20 72 0 80-2 80-19 0-11-12-23-30-31-40-16-96-80-105-118-5-23-13-31-35-36-40-8-106-70-121-113-18-56-7-128 28-171 45-56 84-72 181-72h82v-82c0-129 42-203 140-247 45-20 57-21 1479-21 1101 0 1443 3 1475 12 47 14 132 93 142 131 3 16 17 29 33 35 43 15 97 68 123 120 22 45 23 59 26 296l4 250 81 82c182 181 298 394 353 647 25 111 29 351 10 472-29 177-111 384-202 512l-34 48 52 8c114 16 127 27 580 490 312 318 430 445 447 480 31 65 38 157 17 229-21 74-95 156-168 188-77 34-175 32-252-3-64-29-91-56-613-590l-272-279-3 599c-3 545-5 602-21 644-26 67-79 123-149 158l-61 31H2096c-1363 0-1433-1-1471-19z" fill="#3a2c60"/><g fill="#0089ef"><path d="M630 4824c-19-8-48-27-63-42-30-28-73-102-60-102h789c846 0 810 3 802-52l-3-23-792-5c-781-5-792-5-820-26-46-33-63-79-63-166v-78h63c87 0 136-16 178-59 47-47 64-104 48-163-26-97-89-138-212-138h-77v-178l93-4c84-3 97-6 130-31 49-37 71-81 71-142s-22-105-71-142c-33-25-46-28-130-31l-93-4v-206l93-4c84-3 97-6 130-31 85-64 98-177 30-258-38-45-80-59-173-59h-80v-210h80c97 0 148-22 184-78 46-71 42-149-10-212-41-49-73-60-169-60h-85v-210h78c96 0 151-23 185-77 47-72 43-150-9-213-39-46-76-60-170-67l-84-6v-197h78c124-1 183-38 212-135 17-57-1-119-49-166-42-43-91-59-178-59h-63V990h77c123 0 186-41 212-138 16-59-1-116-48-163-42-43-91-59-178-59h-63v-68c0-92 28-149 90-179l44-23h2822l44 23c30 14 53 36 67 62 21 38 23 51 23 248 0 114-2 207-3 207-2 0-41-22-86-50-95-57-205-101-341-138-88-24-111-26-305-26s-217 2-305 26c-141 38-248 82-341 141l-84 52-450 5-450 5-3 24c-7 50 3 51 410 51h378l-65 64c-81 81-169 199-218 294l-38 72h-218c-235 0-256 4-249 51l3 24 214 3c197 2 213 4 208 20-45 154-77 317-77 405 0 15-14 17-164 17-176 0-191 4-184 52 3 23 4 23 175 26 170 2 173 3 177 25l16 111c9 71 46 212 77 293 4 10-41 13-209 13-153 0-217 3-226 12-17 17-15 55 4 62 9 3 119 6 245 6h229l16 28c78 128 141 210 236 304l108 108-422 2-423 3-3 23c-8 53-18 52 500 52h479l42 24a1284 1284 0 001264-24l78-48 3 706 2 707-27 55c-21 40-41 62-77 85l-49 30-220 5c-195 4-221 7-231 23-8 12-8 22 0 35 10 15 33 17 235 17h224l57-28c61-30 105-74 140-140l23-42 5-693 5-693 44 45c40 41 45 51 52 111 6 45 18 84 39 120l31 54-3 598c-3 545-5 602-21 644-26 67-79 123-149 158l-61 31H2096c-1256-1-1435-3-1466-16zm2154-166c8-13 8-23 0-35-10-16-36-18-271-21-225-2-262 0-273 13-10 12-10 21-2 40l12 25 261-2c237-3 263-5 273-20zm-590-591c9-15 7-22-13-38-22-18-43-19-513-19-318 0-496 4-509 10-18 10-26 50-12 63 3 4 238 6 521 5 485-3 515-4 526-21zm811-500c13-10 16-21 11-40l-6-27-933 2-932 3-3 24c-8 53-37 51 938 51 743 0 909-2 925-13zM310 4479c-14-6-36-20-48-32-24-22-62-88-62-107 0-6 28-10 70-10h70v80c0 44-1 80-2 79l-28-10zM4713 4300c-84-17-159-70-243-169l-39-47 52 25c71 36 190 37 258 3a302 302 0 00147-393c-14-30-51-84-83-119-32-36 5-2 82 75 155 156 182 199 190 299 8 93-15 162-77 229a305 305 0 01-287 97z"/><path d="M180 4232c-64-31-70-117-13-162 24-18 41-20 214-20 186 0 188 0 217 25 56 47 47 126-18 160-45 23-352 22-400-3zM4525 4041c-52-23-700-681-733-745a222 222 0 01105-300c48-24 141-21 191 7 53 28 696 687 724 741 41 80 20 193-49 258-61 58-161 74-238 39zM280 3927c-36-24-64-65-75-109l-7-28h142v80c0 90-5 95-60 57zM157 3685c-42-42-42-97 0-139l26-26h194c216 0 233 4 253 65 13 40-6 97-38 114-13 7-95 11-215 11H183l-26-25zM273 3361c-35-26-73-88-73-121 0-6 31-10 70-10h70v80c0 92-5 96-67 51zM4460 3247l-113-122 118 117c66 65 117 119 114 122s-56-50-119-117zM2622 3150c-489-69-881-412-1007-881a1203 1203 0 01972-1499c176-29 425-5 595 56 230 83 459 261 591 461 255 385 271 881 42 1273a1207 1207 0 01-785 571c-98 22-314 32-408 19zm319-216a991 991 0 00718-530 932 932 0 00104-459c-1-105-6-150-27-230a997 997 0 00-868-744 997 997 0 00-1069 804c-16 76-16 281 0 362a994 994 0 001142 797z"/><path d="M2615 2856a909 909 0 01-704-612 892 892 0 0140-673 869 869 0 01195-272c86-82 143-121 247-169 104-47 184-69 294-79 171-15 352 18 498 92a920 920 0 01472 586c31 118 36 304 11 416a920 920 0 01-663 695c-103 27-291 35-390 16zm170-117c84-23 135-89 135-173 0-81-33-134-105-167-78-36-156-19-212 44-104 119-30 290 132 306 6 0 28-4 50-10zm51-411c18-20 38-56 44-80 27-109 37-123 163-238 67-61 139-136 160-167 158-233 22-530-279-608-88-23-256-20-340 6-197 60-346 232-348 399-1 58 3 71 27 103 36 48 79 69 139 69 80 0 122-37 163-144 51-130 95-168 193-168 90 0 150 42 166 116 12 54-14 93-138 209-162 151-201 213-213 340-7 73 7 122 45 160s59 45 126 42c53-3 62-7 92-39z"/><path d="M2692 2655c-63-28-76-121-23-169 43-39 135-25 161 23 22 42 7 116-29 138-31 19-75 23-109 8zM2671 2264c-36-46-22-154 30-235 16-26 77-89 134-140 155-138 189-201 164-302-15-64-83-136-145-155-51-15-136-15-189-1-60 17-125 89-164 185-38 90-46 103-78 115-61 23-120-39-108-114 22-131 139-252 287-298 71-22 214-27 292-9 115 26 214 98 263 193 23 44 28 65 28 132 0 114-25 155-193 314-138 130-160 160-181 246-19 76-34 95-81 95-30 0-43-6-59-26zM174 3138c-53-25-62-107-18-152l27-26h194c120 0 202 4 215 11 32 17 51 74 38 114-20 61-37 65-247 64-108 0-197-5-209-11zM3646 3021c-32-32-57-63-55-67 2-5 40-44 85-86l80-78 57 58c31 32 57 60 57 63s-23 20-50 37c-32 20-62 50-82 82l-32 50-60-59zM3883 2808l-81-83 44-65c89-131 166-324 195-490 16-93 17-321 1-416-34-207-121-406-253-584l-34-45 45 38c102 86 230 256 294 390 81 170 116 318 123 522a1238 1238 0 01-250 815c-2 0-39-37-84-82zM291 2813c-36-18-76-71-86-115l-7-28h142v80c0 44-3 80-7 80-5 0-23-8-42-17zM161 2563c-43-40-46-99-6-138 24-25 25-25 222-25 221 0 233 3 253 65 14 43-8 96-46 114-16 7-93 11-209 11H190l-29-27zM291 2253c-36-18-76-71-86-115l-7-28h142v80c0 44-3 80-7 80-5 0-23-8-42-17zM159 2002a93 93 0 0138-161c49-14 317-14 366 0a92 92 0 0139 160l-32 29H190l-31-28zM290 1689c-39-23-75-69-85-111l-7-28h142v80c0 44-3 80-7 80-5 0-24-10-43-21zM159 1442c-24-21-31-36-31-64 0-92 38-108 252-108 188 0 222 9 246 65 18 45 10 78-28 110-29 25-32 25-219 25H190l-31-28zM295 1131c-52-32-95-92-95-132 0-5 32-9 70-9h70v80c0 44-3 80-7 80-5 0-21-8-38-19zM3668 1040l-77-77-3-257c-3-252-3-256 17-250 65 20 129 101 145 183 11 62 14 482 3 480-5-1-43-36-85-79zM167 890c-57-45-51-131 13-162 48-25 355-26 400-3 65 34 74 113 18 160-29 25-31 25-217 25-173 0-190-2-214-20z"/></g><g fill="#f9759e"><path d="M630 4824c-19-8-48-27-63-42-30-28-73-102-60-102h789c846 0 810 3 802-52l-3-23-792-5c-781-5-792-5-820-26-46-33-63-79-63-166v-78h63c87 0 136-16 178-59 47-47 64-104 48-163-26-97-89-138-212-138h-77v-178l93-4c84-3 97-6 130-31 49-37 71-81 71-142s-22-105-71-142c-33-25-46-28-130-31l-93-4v-206l93-4c84-3 97-6 130-31 85-64 98-177 30-258-38-45-80-59-173-59h-80v-210h80c97 0 148-22 184-78 46-71 42-149-10-212-41-49-73-60-169-60h-85v-210h78c96 0 151-23 185-77 47-72 43-150-9-213-39-46-76-60-170-67l-84-6v-197h78c124-1 183-38 212-135 17-57-1-119-49-166-42-43-91-59-178-59h-63V990h77c123 0 186-41 212-138 16-59-1-116-48-163-42-43-91-59-178-59h-63v-68c0-92 28-149 90-179l44-23h2822l44 23c30 14 53 36 67 62 21 38 23 51 23 248 0 114-2 207-3 207-2 0-41-22-86-50-95-57-205-101-341-138-88-24-111-26-305-26s-217 2-305 26c-141 38-248 82-341 141l-84 52-450 5-450 5-3 24c-7 50 3 51 410 51h378l-65 64c-81 81-169 199-218 294l-38 72h-218c-235 0-256 4-249 51l3 24 214 3c197 2 213 4 208 20-45 154-77 317-77 405 0 15-14 17-164 17-176 0-191 4-184 52 3 23 4 23 175 26 170 2 173 3 177 25l16 111c9 71 46 212 77 293 4 10-41 13-209 13-153 0-217 3-226 12-17 17-15 55 4 62 9 3 119 6 245 6h229l16 28c78 128 141 210 236 304l108 108-422 2-423 3-3 23c-8 53-18 52 500 52h479l42 24a1284 1284 0 001264-24l78-48 3 706 2 707-27 55c-21 40-41 62-77 85l-49 30-220 5c-195 4-221 7-231 23-8 12-8 22 0 35 10 15 33 17 235 17h224l57-28c61-30 105-74 140-140l23-42 5-693 5-693 44 45c40 41 45 51 52 111 6 45 18 84 39 120l31 54-3 598c-3 545-5 602-21 644-26 67-79 123-149 158l-61 31H2096c-1256-1-1435-3-1466-16zm2154-166c8-13 8-23 0-35-10-16-36-18-271-21-225-2-262 0-273 13-10 12-10 21-2 40l12 25 261-2c237-3 263-5 273-20zm-590-591c9-15 7-22-13-38-22-18-43-19-513-19-318 0-496 4-509 10-18 10-26 50-12 63 3 4 238 6 521 5 485-3 515-4 526-21zm811-500c13-10 16-21 11-40l-6-27-933 2-932 3-3 24c-8 53-37 51 938 51 743 0 909-2 925-13zM310 4479c-14-6-36-20-48-32-24-22-62-88-62-107 0-6 28-10 70-10h70v80c0 44-1 80-2 79l-28-10zM4713 4300c-84-17-159-70-243-169l-39-47 52 25c71 36 190 37 258 3a302 302 0 00147-393c-14-30-51-84-83-119-32-36 5-2 82 75 155 156 182 199 190 299 8 93-15 162-77 229a305 305 0 01-287 97zM280 3927c-36-24-64-65-75-109l-7-28h142v80c0 90-5 95-60 57zM273 3361c-35-26-73-88-73-121 0-6 31-10 70-10h70v80c0 92-5 96-67 51zM4460 3247l-113-122 118 117c66 65 117 119 114 122s-56-50-119-117z"/><path d="M2622 3150c-489-69-881-412-1007-881a1203 1203 0 01972-1499c176-29 425-5 595 56 230 83 459 261 591 461 255 385 271 881 42 1273a1207 1207 0 01-785 571c-98 22-314 32-408 19zm319-216a991 991 0 00718-530 932 932 0 00104-459c-1-105-6-150-27-230a997 997 0 00-868-744 997 997 0 00-1069 804c-16 76-16 281 0 362a994 994 0 001142 797z"/><path d="M2615 2856a909 909 0 01-704-612 892 892 0 0140-673 869 869 0 01195-272c86-82 143-121 247-169 104-47 184-69 294-79 171-15 352 18 498 92a920 920 0 01472 586c31 118 36 304 11 416a920 920 0 01-663 695c-103 27-291 35-390 16zm170-117c84-23 135-89 135-173 0-81-33-134-105-167-78-36-156-19-212 44-104 119-30 290 132 306 6 0 28-4 50-10zm51-411c18-20 38-56 44-80 27-109 37-123 163-238 67-61 139-136 160-167 158-233 22-530-279-608-88-23-256-20-340 6-197 60-346 232-348 399-1 58 3 71 27 103 36 48 79 69 139 69 80 0 122-37 163-144 51-130 95-168 193-168 90 0 150 42 166 116 12 54-14 93-138 209-162 151-201 213-213 340-7 73 7 122 45 160s59 45 126 42c53-3 62-7 92-39z"/><path d="M2692 2655c-63-28-76-121-23-169 43-39 135-25 161 23 22 42 7 116-29 138-31 19-75 23-109 8zM2671 2264c-36-46-22-154 30-235 16-26 77-89 134-140 155-138 189-201 164-302-15-64-83-136-145-155-51-15-136-15-189-1-60 17-125 89-164 185-38 90-46 103-78 115-61 23-120-39-108-114 22-131 139-252 287-298 71-22 214-27 292-9 115 26 214 98 263 193 23 44 28 65 28 132 0 114-25 155-193 314-138 130-160 160-181 246-19 76-34 95-81 95-30 0-43-6-59-26zM3646 3021c-32-32-57-63-55-67 2-5 40-44 85-86l80-78 57 58c31 32 57 60 57 63s-23 20-50 37c-32 20-62 50-82 82l-32 50-60-59zM3883 2808l-81-83 44-65c89-131 166-324 195-490 16-93 17-321 1-416-34-207-121-406-253-584l-34-45 45 38c102 86 230 256 294 390 81 170 116 318 123 522a1238 1238 0 01-250 815c-2 0-39-37-84-82zM291 2813c-36-18-76-71-86-115l-7-28h142v80c0 44-3 80-7 80-5 0-23-8-42-17zM291 2253c-36-18-76-71-86-115l-7-28h142v80c0 44-3 80-7 80-5 0-23-8-42-17zM290 1689c-39-23-75-69-85-111l-7-28h142v80c0 44-3 80-7 80-5 0-24-10-43-21zM295 1131c-52-32-95-92-95-132 0-5 32-9 70-9h70v80c0 44-3 80-7 80-5 0-21-8-38-19zM3668 1040l-77-77-3-257c-3-252-3-256 17-250 65 20 129 101 145 183 11 62 14 482 3 480-5-1-43-36-85-79z"/></g><g fill="#6dc9f7"><path d="M630 4824c-19-8-48-27-63-42-30-28-73-102-60-102h789c846 0 810 3 802-52l-3-23-792-5c-781-5-792-5-820-26-46-33-63-79-63-166v-78h63c87 0 136-16 178-59 47-47 64-104 48-163-26-97-89-138-212-138h-77v-178l93-4c84-3 97-6 130-31 49-37 71-81 71-142s-22-105-71-142c-33-25-46-28-130-31l-93-4v-206l93-4c84-3 97-6 130-31 85-64 98-177 30-258-38-45-80-59-173-59h-80v-210h80c97 0 148-22 184-78 46-71 42-149-10-212-41-49-73-60-169-60h-85v-210h78c96 0 151-23 185-77 47-72 43-150-9-213-39-46-76-60-170-67l-84-6v-197h78c124-1 183-38 212-135 17-57-1-119-49-166-42-43-91-59-178-59h-63V990h77c123 0 186-41 212-138 16-59-1-116-48-163-42-43-91-59-178-59h-63v-68c0-92 28-149 90-179l44-23h2822l44 23c30 14 53 36 67 62 21 38 23 51 23 248 0 114-2 207-3 207-2 0-41-22-86-50-95-57-205-101-341-138-88-24-111-26-305-26s-217 2-305 26c-141 38-248 82-341 141l-84 52-450 5-450 5-3 24c-7 50 3 51 410 51h378l-65 64c-81 81-169 199-218 294l-38 72h-218c-235 0-256 4-249 51l3 24 214 3c197 2 213 4 208 20-45 154-77 317-77 405 0 15-14 17-164 17-176 0-191 4-184 52 3 23 4 23 175 26 170 2 173 3 177 25l16 111c9 71 46 212 77 293 4 10-41 13-209 13-153 0-217 3-226 12-17 17-15 55 4 62 9 3 119 6 245 6h229l16 28c78 128 141 210 236 304l108 108-422 2-423 3-3 23c-8 53-18 52 500 52h479l42 24a1284 1284 0 001264-24l78-48 3 706 2 707-27 55c-21 40-41 62-77 85l-49 30-220 5c-195 4-221 7-231 23-8 12-8 22 0 35 10 15 33 17 235 17h224l57-28c61-30 105-74 140-140l23-42 5-693 5-693 44 45c40 41 45 51 52 111 6 45 18 84 39 120l31 54-3 598c-3 545-5 602-21 644-26 67-79 123-149 158l-61 31H2096c-1256-1-1435-3-1466-16zm2154-166c8-13 8-23 0-35-10-16-36-18-271-21-225-2-262 0-273 13-10 12-10 21-2 40l12 25 261-2c237-3 263-5 273-20zm-590-591c9-15 7-22-13-38-22-18-43-19-513-19-318 0-496 4-509 10-18 10-26 50-12 63 3 4 238 6 521 5 485-3 515-4 526-21zm811-500c13-10 16-21 11-40l-6-27-933 2-932 3-3 24c-8 53-37 51 938 51 743 0 909-2 925-13zM310 4479c-14-6-36-20-48-32-24-22-62-88-62-107 0-6 28-10 70-10h70v80c0 44-1 80-2 79l-28-10zM4713 4300c-84-17-159-70-243-169l-39-47 52 25c71 36 190 37 258 3a302 302 0 00147-393c-14-30-51-84-83-119-32-36 5-2 82 75 155 156 182 199 190 299 8 93-15 162-77 229a305 305 0 01-287 97zM280 3927c-36-24-64-65-75-109l-7-28h142v80c0 90-5 95-60 57zM273 3361c-35-26-73-88-73-121 0-6 31-10 70-10h70v80c0 92-5 96-67 51zM4460 3247l-113-122 118 117c66 65 117 119 114 122s-56-50-119-117z"/><path d="M3646 3021c-32-32-57-63-55-67 2-5 40-44 85-86l80-78 57 58c31 32 57 60 57 63s-23 20-50 37c-32 20-62 50-82 82l-32 50-60-59zM3883 2808l-81-83 44-65c89-131 166-324 195-490 16-93 17-321 1-416-34-207-121-406-253-584l-34-45 45 38c102 86 230 256 294 390 81 170 116 318 123 522a1238 1238 0 01-250 815c-2 0-39-37-84-82zM2615 2856a909 909 0 01-704-612 892 892 0 0140-673 869 869 0 01195-272c86-82 143-121 247-169 104-47 184-69 294-79 171-15 352 18 498 92a920 920 0 01472 586c31 118 36 304 11 416a920 920 0 01-663 695c-103 27-291 35-390 16zm170-117c84-23 135-89 135-173 0-81-33-134-105-167-78-36-156-19-212 44-104 119-30 290 132 306 6 0 28-4 50-10zm51-411c18-20 38-56 44-80 27-109 37-123 163-238 67-61 139-136 160-167 158-233 22-530-279-608-88-23-256-20-340 6-197 60-346 232-348 399-1 58 3 71 27 103 36 48 79 69 139 69 80 0 122-37 163-144 51-130 95-168 193-168 90 0 150 42 166 116 12 54-14 93-138 209-162 151-201 213-213 340-7 73 7 122 45 160s59 45 126 42c53-3 62-7 92-39z"/><path d="M2692 2655c-63-28-76-121-23-169 43-39 135-25 161 23 22 42 7 116-29 138-31 19-75 23-109 8zM2671 2264c-36-46-22-154 30-235 16-26 77-89 134-140 155-138 189-201 164-302-15-64-83-136-145-155-51-15-136-15-189-1-60 17-125 89-164 185-38 90-46 103-78 115-61 23-120-39-108-114 22-131 139-252 287-298 71-22 214-27 292-9 115 26 214 98 263 193 23 44 28 65 28 132 0 114-25 155-193 314-138 130-160 160-181 246-19 76-34 95-81 95-30 0-43-6-59-26zM291 2813c-36-18-76-71-86-115l-7-28h142v80c0 44-3 80-7 80-5 0-23-8-42-17zM291 2253c-36-18-76-71-86-115l-7-28h142v80c0 44-3 80-7 80-5 0-23-8-42-17zM290 1689c-39-23-75-69-85-111l-7-28h142v80c0 44-3 80-7 80-5 0-24-10-43-21zM295 1131c-52-32-95-92-95-132 0-5 32-9 70-9h70v80c0 44-3 80-7 80-5 0-21-8-38-19zM3668 1040l-77-77-3-257c-3-252-3-256 17-250 65 20 129 101 145 183 11 62 14 482 3 480-5-1-43-36-85-79z"/></g><g fill="#def3f6"><path d="M630 4824c-19-8-48-27-63-42-30-28-73-102-60-102h789c770 0 781 0 799-20 26-29 129-29 145 0 10 19 21 20 270 20s260-1 272-20c19-29 108-29 126 1 13 20 20 20 235 17 220-3 223-3 279-31 61-30 105-74 140-140l23-42 5-693 5-693 44 45c40 41 45 51 52 111 6 45 18 84 39 120l31 54-3 598c-3 545-5 602-21 644-26 67-79 123-149 158l-61 31H2096c-1256-1-1435-3-1466-16zM310 4479c-14-6-36-20-48-32-24-22-62-88-62-107 0-6 28-10 70-10h70v80c0 44-1 80-2 79l-28-10zM4713 4300c-84-17-159-70-243-169l-39-47 52 25c71 36 190 37 258 3a302 302 0 00147-393c-14-30-51-84-83-119-32-36 5-2 82 75 155 156 182 199 190 299 8 93-15 162-77 229a305 305 0 01-287 97zM280 3927c-36-24-64-65-75-109l-7-28h142v80c0 90-5 95-60 57zM273 3361c-35-26-73-88-73-121 0-6 31-10 70-10h70v80c0 92-5 96-67 51zM4460 3247l-113-122 118 117c66 65 117 119 114 122s-56-50-119-117zM3646 3021c-32-32-57-63-55-67 2-5 40-44 85-86l80-78 57 58c31 32 57 60 57 63s-23 20-50 37c-32 20-62 50-82 82l-32 50-60-59zM3883 2808l-81-83 44-65c89-131 166-324 195-490 16-93 17-321 1-416-34-207-121-406-253-584l-34-45 45 38c102 86 230 256 294 390 81 170 116 318 123 522a1238 1238 0 01-250 815c-2 0-39-37-84-82zM2615 2856a909 909 0 01-704-612 892 892 0 0140-673 869 869 0 01195-272c86-82 143-121 247-169 104-47 184-69 294-79 171-15 352 18 498 92a920 920 0 01472 586c31 118 36 304 11 416a920 920 0 01-663 695c-103 27-291 35-390 16zm170-117c84-23 135-89 135-173 0-81-33-134-105-167-78-36-156-19-212 44-104 119-30 290 132 306 6 0 28-4 50-10zm51-411c18-20 38-56 44-80 27-109 37-123 163-238 67-61 139-136 160-167 158-233 22-530-279-608-88-23-256-20-340 6-197 60-346 232-348 399-1 58 3 71 27 103 36 48 79 69 139 69 80 0 122-37 163-144 51-130 95-168 193-168 90 0 150 42 166 116 12 54-14 93-138 209-162 151-201 213-213 340-7 73 7 122 45 160s59 45 126 42c53-3 62-7 92-39zM291 2813c-36-18-76-71-86-115l-7-28h142v80c0 44-3 80-7 80-5 0-23-8-42-17zM291 2253c-36-18-76-71-86-115l-7-28h142v80c0 44-3 80-7 80-5 0-23-8-42-17zM290 1689c-39-23-75-69-85-111l-7-28h142v80c0 44-3 80-7 80-5 0-24-10-43-21zM295 1131c-52-32-95-92-95-132 0-5 32-9 70-9h70v80c0 44-3 80-7 80-5 0-21-8-38-19zM3668 1040l-77-77-3-257c-3-252-3-256 17-250 65 20 129 101 145 183 11 62 14 482 3 480-5-1-43-36-85-79zM424 495c13-54 41-90 86-112l44-23h2822l44 22c45 23 89 83 90 122 0 15-5 13-35-12-19-17-51-36-72-41-53-15-2823-15-2876 0-21 5-54 24-74 42l-36 32 7-30z"/></g></svg>