<svg width="31" height="31" viewBox="0 0 31 31" fill="none" xmlns="http://www.w3.org/2000/svg"><g clip-path="url(#a)" fill="#8E24AA"><path d="M29.638 17.783c.917-7.714-.44-12.585-2.887-14.788h.001c-3.95-3.763-17.29-4.32-22.016.168-2.122 2.195-2.87 5.417-2.952 9.406-.082 3.99-.179 11.463 6.786 13.49h.006l-.006 3.097s-.048 1.255.753 1.507c.917.297 1.332-.286 4.182-3.69 4.767.413 8.428-.534 8.844-.672.962-.323 6.409-1.044 7.29-8.518zm-15.663 7.01s-3.017 3.763-3.955 4.74c-.307.317-.644.287-.639-.342 0-.414.023-5.14.023-5.14-5.905-1.693-5.556-8.057-5.492-11.386.064-3.33.673-6.059 2.47-7.895C10.528.882 22.223 1.75 25.203 4.552c3.643 3.23 2.346 12.353 2.354 12.664-.749 6.239-5.162 6.634-5.974 6.905-.347.115-3.566.943-7.608.673z"/><path d="M15.644 5.501c-.493 0-.493.768 0 .774 3.824.03 6.972 2.695 7.007 7.583 0 .516.755.51.749-.006h-.002c-.04-5.268-3.479-8.322-7.754-8.351z"/><path d="M20.673 13.047c-.011.51.743.534.75.018.062-2.905-1.729-5.297-5.094-5.55-.493-.035-.544.74-.053.775 2.919.222 4.456 2.213 4.397 4.757zM19.867 16.351c-.633-.366-1.276-.138-1.543.222l-.556.72c-.283.366-.812.318-.812.318-3.858-1.02-4.89-5.058-4.89-5.058s-.047-.546.306-.84l.697-.575c.348-.277.568-.943.213-1.597-.947-1.71-1.583-2.301-1.907-2.754-.34-.426-.852-.522-1.385-.234H9.98c-1.107.647-2.32 1.86-1.932 3.107.662 1.316 1.878 5.51 5.754 8.68 1.821 1.5 4.704 3.035 5.928 3.39l.011.017c1.206.402 2.378-.857 3.004-1.997v-.01c.278-.551.186-1.073-.22-1.415-.72-.702-1.805-1.476-2.657-1.974z"/><path d="M16.856 10.373c1.23.072 1.827.714 1.89 2.034.024.516.773.48.75-.036-.082-1.723-.98-2.683-2.599-2.773-.493-.029-.539.745-.04.775z"/></g><defs><clipPath id="a"><path fill="#fff" d="M0 0h30.72v30.72H0z"/></clipPath></defs></svg>