<svg version="1" xmlns="http://www.w3.org/2000/svg" width="512" height="512" viewBox="0 0 5120 5120"><path d="M2205 5109c-309-29-641-109-859-208l-81-36-345-5-346-5-69-34c-90-44-162-116-206-206l-34-70-3-1200c-2-828 1-1231 8-1300 40-362 167-712 367-1013C1018 457 1622 87 2309 9c136-15 494-7 621 15 243 42 442 107 655 213 702 349 1179 1031 1265 1808 7 69 10 472 8 1300l-3 1200-34 70c-44 90-116 162-206 206l-69 34-346 5-345 5-81 36c-226 102-551 179-879 209-129 12-560 11-690-1zm640-179c369-32 700-118 977-254 548-270 857-777 858-1409 1-703-364-1363-980-1770-382-252-881-394-1263-357-682 65-1283 427-1660 1000-300 457-409 1037-288 1541 82 345 291 655 581 862 281 200 733 346 1190 386 139 12 447 12 585 1zM910 4652c-182-143-347-333-441-512l-24-45-3 189c-2 180-1 190 21 240 30 64 68 102 132 132 46 22 63 24 200 24h150l-35-28zm3615 4c64-30 102-68 132-132 22-50 23-60 21-240l-3-189-24 45c-94 179-259 369-441 512l-35 28h150c137 0 154-2 200-24zM632 2025c353-531 903-903 1521-1029 223-45 395-56 585-36 800 85 1506 568 1878 1283l63 122 1-88c1-535-229-1078-624-1473-570-570-1396-769-2152-519-326 109-596 275-840 519-264 264-451 585-548 939-45 165-65 296-73 482l-6 150 64-125c36-69 95-170 131-225z"/><path d="M3190 4508c-25-14-41-40-57-93-34-120-416-223-897-242-169-6-171-7-198-34-40-39-35-101 11-136 36-28 406-10 656 32 275 47 430 107 530 209 63 64 85 109 85 179 0 67-72 115-130 85zm-1648-968c-177-47-333-172-410-330-55-113-72-183-72-305 0-259 131-470 365-586 273-135 617-58 799 180 24 31 51 71 60 89l17 33 32-24c142-108 344-112 482-8l39 29 44-67c57-87 102-132 187-190 192-129 440-144 655-39 69 33 101 57 170 127 142 143 196 283 187 486-8 182-63 311-187 435-123 123-253 179-433 187-200 10-345-46-488-187-71-70-94-100-127-170-43-89-72-206-72-287-1-64-28-121-80-166-48-41-87-52-160-45-110 11-173 94-184 241-14 175-73 306-195 428-83 83-192 145-306 174-82 21-232 19-323-5zm260-171c311-67 476-420 320-689-87-151-239-241-407-241-326 0-554 317-447 623 77 218 313 354 534 307zm1753-4c237-62 396-296 357-528-53-312-385-488-666-353-98 47-175 125-224 225-36 75-37 78-37 196 0 117 1 122 36 195 65 135 172 226 308 262 83 21 151 22 226 3z"/><path d="M1639 3116c-59-21-96-53-123-108-57-114-15-242 97-300 32-16 54-19 112-16 89 4 139 34 180 109 24 44 27 59 23 119-5 90-39 143-117 183-60 30-114 34-172 13zm1733 1c-49-19-100-63-123-109-17-33-20-55-17-114 3-61 8-79 33-115 42-60 102-89 182-89 76 0 127 23 171 76 90 109 55 276-72 341-39 20-133 26-174 10zm-1402-910c-243-124-286-149-299-175-22-47 2-101 53-121l38-14 292 145c259 129 294 150 306 177 23 57-10 118-70 127-31 5-70-12-320-139zm880 136c-48-18-70-74-49-125 11-26 48-48 301-174 304-152 316-155 362-115 28 24 36 55 25 95-10 36-17 40-299 181-278 139-306 150-340 138z"/></svg>