<svg version="1" xmlns="http://www.w3.org/2000/svg" width="512" height="512" viewBox="0 0 5120 5120"><path d="M1825 5106c-16-7-38-23-48-34-46-51-46-52-47-889v-793H134l-44-22c-25-13-55-38-68-57l-22-35 2-722c3-717 3-723 24-751 12-15 36-37 55-48 33-19 55-20 841-23l808-2 2-808c3-786 4-808 23-841 11-19 33-43 48-55 28-21 32-21 757-21s729 0 757 21c15 12 37 36 48 55 19 33 20 55 23 841l2 808 808 2c786 3 808 4 841 23 19 11 43 33 55 48 21 28 21 32 21 757s0 729-21 757c-12 15-36 37-55 48-33 19-52 20-494 20h-460l-37-23c-51-32-82-98-76-163 6-56 28-93 78-126 33-23 37-23 381-23h349v-980h-806c-803 0-806 0-844-21-21-12-47-38-59-59-21-38-21-41-21-844V340h-980v1485l645 645c499 498 649 654 660 685 14 35 15 155 13 945-3 884-3 906-23 939-11 19-33 43-48 55-28 21-34 21-745 23-580 2-723 0-747-11z" fill="#2d527c"/><path d="M2070 3987v-804l-23-43c-16-30-37-51-67-67l-43-23H330v-980h1505l608 608 607 607v1505h-980v-803z" fill="#cee8fa"/></svg>