<svg version="1" xmlns="http://www.w3.org/2000/svg" width="512" height="512" viewBox="0 0 5120 5120"><path d="M2305 5113c-398-49-723-154-1023-329C603 4387 145 3720 23 2950c-26-164-26-616 0-780 67-424 234-813 501-1170 80-107 325-358 431-442 398-312 841-495 1332-548 145-16 533-8 667 14 858 139 1596 701 1946 1484 151 337 220 667 220 1052 0 329-45 594-151 881-331 902-1137 1543-2092 1664-108 14-485 19-572 8zm630-252c812-139 1478-675 1790-1439 56-137 108-325 137-492 32-181 32-559 0-740-86-500-304-922-657-1275-445-445-1021-685-1645-685-623 0-1200 240-1645 685-352 352-571 776-657 1275-32 181-32 559 0 740 113 651 467 1202 1007 1565 279 187 596 313 920 365 174 28 180 28 415 25 160-2 245-8 335-24z"/><path d="M1503 3774c-42-21-67-74-58-122 5-30 26-56 103-132 197-194 449-325 734-382 160-31 396-31 556 0 286 57 537 187 734 382 77 75 98 102 103 132 14 77-54 147-132 135-25-5-57-28-123-91-244-232-532-348-860-348-332 0-612 114-864 353-95 90-132 104-193 73zm12-1343c-93-26-163-69-241-146-106-105-164-239-164-381 0-50 4-60 34-90 29-29 41-34 81-34s52 5 79 33c29 28 34 41 39 100 11 121 83 224 196 279 37 18 63 23 131 23s94-5 131-23c112-55 183-157 196-282 5-55 11-70 39-97 27-28 39-33 79-33s52 5 82 35l36 36-6 82c-17 240-184 442-413 501-81 21-222 20-299-3zm1780 0c-226-65-385-262-402-498l-6-82 36-36c30-30 42-35 82-35s52 5 79 33c28 27 34 42 39 97 13 125 84 227 196 282 66 32 196 33 262 0 112-55 182-156 198-286 7-60 12-73 40-98 25-22 41-28 77-28 39 0 51 5 80 34 30 30 34 40 34 90 0 241-179 469-416 530-81 21-222 20-299-3z"/></svg>