<svg width="50" height="50" viewBox="0 0 50 50" fill="none" xmlns="http://www.w3.org/2000/svg"><g clip-path="url(#a)"><path d="M18.333 32.182l2.54-14.286h3.968l-2.46 14.286h-4.048z" fill="#3C58BF"/><path d="M18.333 32.182l3.254-14.286h3.254l-2.46 14.286h-4.048z" fill="#293688"/><path d="M36.746 18.056c-.794-.318-2.064-.635-3.65-.635-3.969 0-6.826 1.984-6.826 4.841 0 2.143 1.984 3.254 3.571 3.968 1.587.715 2.064 1.19 2.064 1.826 0 .952-1.27 1.428-2.381 1.428-1.588 0-2.46-.238-3.81-.793l-.555-.238-.556 3.254c.952.396 2.699.793 4.524.793 4.206 0 6.984-1.984 6.984-5 0-1.666-1.032-2.936-3.413-3.968-1.428-.714-2.301-1.111-2.301-1.825 0-.635.714-1.27 2.301-1.27 1.35 0 2.302.238 3.016.555l.397.16.635-3.096z" fill="#3C58BF"/><path d="M36.746 18.056c-.794-.318-2.064-.635-3.65-.635-3.969 0-6.112 1.984-6.112 4.841 0 2.143 1.27 3.254 2.857 3.968 1.587.715 2.064 1.19 2.064 1.826 0 .952-1.27 1.428-2.381 1.428-1.588 0-2.46-.238-3.81-.793l-.555-.238-.556 3.254c.952.396 2.699.793 4.524.793 4.206 0 6.984-1.984 6.984-5 0-1.666-1.032-2.936-3.413-3.968-1.428-.714-2.301-1.111-2.301-1.825 0-.635.714-1.27 2.301-1.27 1.35 0 2.302.238 3.016.555l.397.16.635-3.096z" fill="#293688"/><path d="M43.571 17.896c-.952 0-1.666.08-2.063 1.032l-5.953 13.254h4.286l.794-2.38h5.08l.475 2.38H50l-3.333-14.286H43.57zm-1.825 9.524c.238-.714 1.587-4.206 1.587-4.206s.318-.873.556-1.429l.238 1.35s.794 3.571.952 4.365h-3.333v-.08z" fill="#3C58BF"/><path d="M44.524 17.896c-.953 0-1.667.08-2.064 1.032l-6.904 13.254h4.285l.794-2.38h5.08l.475 2.38H50l-3.333-14.286h-2.143zm-2.778 9.524c.317-.793 1.587-4.206 1.587-4.206s.318-.873.556-1.429l.238 1.35s.794 3.571.952 4.365h-3.333v-.08z" fill="#293688"/><path d="M11.032 27.897l-.397-2.063c-.714-2.381-3.016-5-5.556-6.27l3.572 12.698h4.286l6.428-14.285H15.08l-4.047 9.92z" fill="#3C58BF"/><path d="M11.032 27.897l-.397-2.063c-.714-2.381-3.016-5-5.556-6.27l3.572 12.698h4.286l6.428-14.285h-3.492l-4.841 9.92z" fill="#293688"/><path d="M0 17.896l.714.16c5.08 1.19 8.572 4.206 9.92 7.777l-1.428-6.746c-.238-.952-.952-1.19-1.825-1.19H0z" fill="#FFBC00"/><path d="M0 17.896c5.08 1.191 9.286 4.286 10.635 7.858l-1.35-5.635c-.237-.953-1.031-1.508-1.904-1.508L0 17.896z" fill="#F7981D"/><path d="M0 17.896c5.08 1.191 9.286 4.286 10.635 7.858l-.952-3.096c-.239-.952-.556-1.904-1.667-2.301L0 17.897z" fill="#ED7C00"/><path d="M15 27.42l-2.698-2.699-1.27 3.016-.318-1.984c-.714-2.38-3.016-5-5.555-6.27L8.73 32.182h4.286L15 27.42zM22.381 32.181l-3.413-3.491-.635 3.491h4.048zM31.508 27.26c.317.318.476.556.397.874 0 .952-1.27 1.428-2.381 1.428-1.588 0-2.46-.238-3.81-.793l-.555-.238-.556 3.254c.952.396 2.699.793 4.524.793 2.54 0 4.603-.714 5.794-1.984l-3.413-3.333zM36.111 32.182h3.73l.794-2.381h5.08l.475 2.381H50l-1.35-5.794-4.761-4.603.238 1.27s.794 3.571.952 4.365h-3.333c.317-.794 1.587-4.206 1.587-4.206s.318-.873.556-1.429" fill="#051244"/></g><defs><clipPath id="a"><path fill="#fff" d="M0 0h50v50H0z"/></clipPath></defs></svg>