<!DOCTYPE svg PUBLIC "-//W3C//DTD SVG 20010904//EN" "http://www.w3.org/TR/2001/REC-SVG-20010904/DTD/svg10.dtd">
<svg version="1.0" xmlns="http://www.w3.org/2000/svg" width="362px" height="290px" viewBox="0 0 3620 2900" preserveAspectRatio="xMidYMid meet">
<g id="layer101" fill="#000000" stroke="none">
 <path d="M1370 2833 c-30 -2 -68 -10 -85 -18 -16 -7 -64 -18 -105 -24 -42 -6 -91 -17 -110 -25 -19 -8 -56 -17 -82 -21 -27 -4 -48 -11 -48 -15 0 -5 -17 -14 -37 -21 -21 -6 -44 -18 -51 -26 -8 -8 -27 -17 -43 -20 -16 -3 -29 -9 -29 -13 0 -4 -12 -12 -27 -19 -16 -7 -59 -34 -98 -59 -64 -43 -79 -54 -126 -97 -9 -8 -29 -15 -45 -15 -50 0 -73 -11 -86 -41 -7 -16 -25 -35 -39 -41 -14 -6 -33 -28 -42 -49 -9 -21 -32 -55 -52 -74 -19 -20 -35 -40 -35 -45 0 -5 -11 -21 -24 -37 -13 -15 -29 -45 -35 -65 -7 -21 -17 -38 -22 -38 -5 0 -9 -8 -9 -17 -1 -10 -9 -36 -20 -58 -11 -22 -19 -52 -20 -66 0 -14 -7 -34 -15 -45 -18 -23 -19 -54 -3 -54 6 0 4 -6 -6 -13 -15 -11 -17 -25 -14 -85 1 -40 0 -72 -3 -72 -3 0 -11 -17 -17 -37 -10 -32 -9 -40 3 -49 10 -8 15 -30 15 -70 1 -32 7 -95 15 -139 12 -69 12 -81 0 -95 -23 -26 -18 -54 14 -78 16 -12 35 -38 41 -59 6 -21 18 -51 25 -68 7 -16 17 -42 20 -58 4 -15 11 -27 17 -27 5 0 7 -4 4 -9 -3 -4 3 -27 14 -49 11 -23 20 -48 20 -57 0 -8 4 -15 8 -15 5 0 16 -16 25 -35 9 -19 21 -35 27 -35 5 0 10 -9 10 -20 0 -11 4 -20 10 -20 5 0 20 -17 34 -37 13 -21 40 -55 60 -75 20 -20 36 -41 36 -45 0 -5 9 -14 20 -21 11 -7 20 -19 20 -27 0 -8 6 -15 13 -15 6 0 31 -17 55 -38 67 -59 82 -70 172 -127 46 -30 90 -55 97 -55 7 0 13 -4 13 -8 0 -9 59 -32 83 -32 9 0 17 -4 17 -10 0 -5 19 -15 43 -22 23 -6 44 -15 47 -19 7 -10 161 -48 235 -59 33 -5 89 -14 125 -20 36 -6 99 -14 140 -19 41 -5 76 -14 78 -20 5 -14 99 -15 107 -1 3 6 14 10 24 10 10 0 28 9 41 20 13 11 35 23 49 26 14 3 40 12 56 19 17 7 58 19 93 25 34 7 62 16 62 21 0 4 25 13 55 20 30 7 55 16 55 20 0 4 16 13 35 20 19 7 35 16 35 20 0 4 16 13 35 19 19 6 35 16 35 21 0 5 8 9 18 9 9 0 28 13 42 30 14 16 29 30 35 30 13 0 55 33 100 77 18 18 38 33 45 33 14 0 40 25 40 39 0 6 -9 11 -20 11 -10 0 -23 6 -27 14 -4 8 -31 18 -58 21 -42 6 -54 4 -74 -14 -13 -12 -30 -21 -37 -21 -7 0 -21 -8 -31 -19 -10 -10 -29 -22 -43 -26 -13 -4 -30 -14 -38 -21 -7 -8 -33 -14 -56 -14 -47 0 -91 -27 -106 -64 -11 -30 -96 -63 -121 -48 -10 7 -52 12 -92 12 -45 0 -78 5 -86 13 -11 10 -12 8 -6 -10 6 -21 3 -23 -29 -23 -35 0 -104 33 -119 57 -10 17 -238 17 -249 0 -6 -9 -8 -9 -8 1 0 6 -6 12 -12 12 -17 -1 -68 -46 -68 -60 0 -26 -41 -50 -85 -50 -25 0 -45 4 -45 8 0 5 -24 14 -54 21 -30 7 -60 19 -66 27 -7 7 -21 14 -32 14 -19 0 -149 57 -158 69 -3 4 -20 13 -37 20 -18 8 -33 17 -33 21 0 4 -11 12 -25 18 -18 9 -25 19 -25 40 0 27 -4 30 -41 35 -33 4 -50 15 -85 54 -25 26 -57 66 -72 88 -15 22 -30 42 -33 45 -3 3 -14 20 -23 38 -9 17 -21 32 -26 32 -5 0 -12 11 -16 25 -3 14 -10 25 -15 25 -5 0 -9 5 -9 11 0 5 -11 27 -25 47 -14 20 -28 54 -31 75 -4 20 -10 37 -15 37 -5 0 -8 3 -7 8 0 4 -2 14 -5 22 -13 34 -27 97 -27 128 0 17 -4 32 -8 32 -19 0 -33 158 -28 300 6 153 13 210 26 210 4 0 10 23 14 50 7 55 24 100 38 100 4 0 8 7 8 17 0 25 46 116 90 180 22 31 40 62 40 70 0 7 9 18 20 25 11 7 20 17 20 22 0 15 113 134 163 171 15 11 37 28 48 38 12 9 25 17 29 17 4 0 20 11 36 25 16 14 35 25 42 25 6 0 12 3 12 8 0 4 15 13 33 21 17 8 39 19 47 26 8 7 40 18 70 25 30 7 60 19 65 27 6 7 35 16 65 20 30 3 60 9 65 13 22 18 136 30 269 30 162 -1 335 -15 350 -30 5 -5 22 -10 36 -10 14 0 43 -9 64 -19 21 -11 52 -23 69 -26 48 -10 247 -100 258 -117 3 -5 13 -10 21 -12 8 -1 22 -9 31 -18 9 -8 36 -19 62 -22 29 -5 45 -12 45 -21 0 -8 18 -24 40 -35 22 -11 40 -17 40 -13 -1 5 -5 27 -9 51 -5 23 -4 42 0 42 5 0 9 7 9 16 0 28 -52 69 -158 125 -18 9 -47 28 -65 41 -18 13 -47 30 -64 37 -18 8 -33 16 -33 20 0 4 -20 13 -44 20 -25 7 -46 17 -48 22 -2 4 -37 15 -78 24 -41 8 -99 22 -129 30 -30 8 -77 17 -105 21 -28 3 -58 8 -66 12 -33 13 -220 22 -310 15z m138 -2489 c-10 -10 -28 6 -28 24 0 15 1 15 17 -1 9 -9 14 -19 11 -23z"/>
 <path d="M2480 2370 c0 -13 11 -33 26 -46 25 -24 64 -32 64 -14 0 6 3 9 8 9 43 -7 55 16 23 45 -23 21 -57 14 -64 -12 -3 -12 -5 -11 -6 6 0 12 -5 22 -10 22 -5 0 -16 3 -25 6 -12 4 -16 0 -16 -16z"/>
 <path d="M1033 2341 c-49 -13 -96 -44 -120 -81 -29 -41 -46 -105 -39 -136 6 -23 10 -24 95 -24 l89 0 11 31 c8 24 15 30 33 27 21 -3 23 -8 23 -68 l0 -65 -55 -3 c-30 -2 -60 -8 -67 -14 -8 -7 -13 -36 -13 -84 0 -81 -1 -80 80 -86 l35 -3 0 -62 c0 -68 -13 -80 -30 -29 l-10 31 -90 0 -90 0 1 -50 c3 -119 87 -198 209 -198 111 0 182 59 206 172 13 60 6 149 -15 189 -12 22 -11 29 10 59 28 42 39 105 31 191 -9 86 -45 147 -107 179 -50 25 -138 36 -187 24z"/>
 <path d="M2759 2341 c-78 -16 -137 -71 -159 -150 -13 -47 -13 -465 0 -512 15 -55 51 -101 98 -127 34 -19 64 -25 140 -29 122 -7 132 0 132 90 0 34 -4 67 -8 73 -4 7 -40 13 -80 16 -85 4 -92 10 -92 86 l0 52 56 0 c85 0 94 8 94 88 0 40 -5 73 -12 80 -7 7 -39 12 -75 12 l-63 0 0 58 c0 80 6 86 92 90 40 3 76 9 80 16 15 22 9 134 -8 150 -17 17 -124 21 -195 7z"/>
 <path d="M1466 2324 c-14 -13 -16 -63 -16 -389 0 -326 2 -376 16 -389 11 -12 35 -16 84 -16 99 0 100 1 100 171 0 117 2 139 15 139 13 0 15 -22 15 -139 0 -170 1 -171 100 -171 49 0 73 4 84 16 14 13 16 63 16 389 0 326 -2 376 -16 389 -11 12 -35 16 -84 16 -100 0 -100 -1 -100 -176 0 -121 -2 -144 -15 -144 -13 0 -15 23 -15 144 0 175 0 176 -100 176 -49 0 -73 -4 -84 -16z"/>
 <path d="M2025 2324 c-14 -15 -16 -51 -13 -328 3 -304 4 -312 27 -359 74 -152 318 -151 392 0 23 47 24 56 27 359 4 363 9 344 -94 344 -102 0 -104 -2 -104 -125 l0 -105 -25 0 -25 0 0 105 c0 123 -2 125 -104 125 -46 0 -69 -5 -81 -16z m233 -501 c-3 -100 -4 -108 -23 -108 -19 0 -20 8 -23 108 l-3 107 26 0 26 0 -3 -107z"/>
 <path d="M3176 2324 c-14 -13 -16 -56 -16 -315 l0 -299 -55 0 -55 0 0 -84 c0 -67 3 -85 16 -90 20 -8 368 -8 388 0 13 5 16 23 16 90 l0 84 -55 0 -55 0 0 299 c0 350 6 331 -100 331 -49 0 -73 -4 -84 -16z"/>
 <path d="M77 2113 c-13 -12 -7 -33 8 -33 8 0 15 9 15 20 0 20 -11 26 -23 13z"/>
 <path d="M916 1474 c-14 -13 -16 -61 -16 -368 0 -226 4 -364 11 -384 13 -37 49 -52 125 -52 102 0 105 4 164 208 l33 113 43 -142 c23 -77 49 -148 58 -157 13 -13 36 -17 100 -17 136 0 126 -34 126 420 0 435 10 395 -95 395 -95 0 -95 1 -96 -203 l-1 -172 -18 70 c-24 87 -43 105 -115 105 -75 0 -92 -18 -120 -120 l-24 -85 0 196 c-1 224 6 209 -96 209 -44 0 -68 -5 -79 -16z"/>
 <path d="M1705 1474 c-14 -15 -16 -51 -13 -328 3 -304 4 -312 27 -359 74 -152 318 -151 392 0 23 47 24 56 27 359 4 363 9 344 -94 344 -102 0 -104 -2 -104 -125 l0 -105 -25 0 -25 0 0 105 c0 123 -2 125 -104 125 -46 0 -69 -5 -81 -16z m233 -501 c-3 -100 -4 -108 -23 -108 -19 0 -20 8 -23 108 l-3 107 26 0 26 0 -3 -107z"/>
 <path d="M2296 1474 c-14 -13 -16 -61 -16 -368 0 -226 4 -364 11 -384 13 -37 49 -52 125 -52 102 0 105 4 164 208 l33 113 43 -142 c23 -77 49 -148 58 -157 13 -13 36 -17 100 -17 136 0 126 -34 126 420 0 435 10 395 -95 395 -95 0 -95 1 -96 -203 l-1 -172 -18 70 c-24 87 -43 105 -115 105 -75 0 -92 -18 -120 -120 l-24 -85 0 196 c-1 224 6 209 -96 209 -44 0 -68 -5 -79 -16z"/>
 <path d="M3085 1474 c-14 -15 -16 -51 -13 -328 3 -304 4 -312 27 -359 74 -152 318 -151 392 0 23 47 24 56 27 359 4 363 9 344 -94 344 -102 0 -104 -2 -104 -125 l0 -105 -25 0 -25 0 0 105 c0 123 -2 125 -104 125 -46 0 -69 -5 -81 -16z m233 -501 c-3 -100 -4 -108 -23 -108 -19 0 -20 8 -23 108 l-3 107 26 0 26 0 -3 -107z"/>
 </g>

</svg>