<!DOCTYPE svg PUBLIC "-//W3C//DTD SVG 20010904//EN" "http://www.w3.org/TR/2001/REC-SVG-20010904/DTD/svg10.dtd">
<svg version="1.0" xmlns="http://www.w3.org/2000/svg" width="512px" height="512px" viewBox="0 0 5120 5120" preserveAspectRatio="xMidYMid meet">
<g id="layer101" fill="#000000" stroke="none">
 <path d="M2355 5114 c-611 -90 -1096 -460 -1325 -1011 -71 -169 -110 -347 -126 -560 l-6 -93 -38 0 c-221 0 -427 -164 -485 -387 -21 -81 -21 -406 0 -488 57 -219 267 -385 485 -385 l40 0 0 -383 c0 -507 10 -584 100 -772 55 -114 122 -208 202 -281 l55 -50 -5 -81 c-10 -168 62 -283 243 -393 161 -97 351 -160 625 -206 129 -22 577 -31 748 -15 495 47 902 195 1140 416 116 107 216 285 264 468 18 68 22 111 22 252 1 182 -12 266 -60 407 -23 69 -24 81 -24 355 l0 283 48 0 c222 1 429 165 487 385 21 83 21 407 0 490 -58 223 -265 385 -490 385 l-42 0 -6 123 c-17 378 -180 753 -451 1034 -245 256 -521 410 -863 484 -78 17 -139 22 -303 24 -113 2 -218 1 -235 -1z m457 -143 c317 -55 583 -194 819 -430 180 -181 285 -345 363 -570 72 -207 78 -255 83 -653 l5 -358 -65 0 c-70 0 -93 -12 -101 -53 -3 -12 -7 -173 -10 -357 -6 -440 -21 -561 -83 -683 -29 -57 -91 -128 -139 -158 -49 -30 -52 -58 -15 -138 17 -37 41 -106 52 -151 l21 -84 -23 -19 c-32 -27 -111 -62 -184 -83 -54 -16 -143 -19 -860 -25 -440 -3 -813 -10 -830 -13 -16 -4 -61 -14 -100 -23 -70 -16 -197 -64 -220 -83 -26 -21 -134 156 -142 233 -6 54 17 149 58 235 39 82 40 109 3 139 -200 165 -225 261 -240 928 -5 248 -9 303 -22 318 -12 13 -31 17 -84 17 l-68 0 0 243 c1 384 18 539 82 737 72 223 202 433 373 605 210 210 478 355 761 414 132 27 137 28 306 30 105 1 178 -4 260 -18z m-1912 -2151 l0 -500 -32 0 c-45 0 -124 22 -176 49 -65 33 -129 103 -165 179 l-32 67 0 206 0 205 38 76 c64 131 190 213 330 217 l37 1 0 -500z m3507 461 c80 -38 146 -105 186 -189 l32 -67 0 -205 0 -205 -32 -67 c-36 -76 -100 -146 -165 -179 -52 -27 -131 -49 -175 -49 l-33 0 0 501 0 502 62 -7 c36 -3 89 -19 125 -35z m-3333 -718 c13 -528 38 -675 137 -819 17 -26 50 -64 71 -85 l40 -38 -25 -63 c-76 -190 -57 -328 67 -502 l44 -61 -34 -40 c-18 -22 -41 -57 -50 -78 l-17 -38 -35 33 c-87 84 -174 239 -214 383 -22 79 -22 92 -26 828 -3 729 -3 747 16 747 18 0 19 -14 26 -267z m3006 -340 l0 -608 -32 -55 c-34 -61 -163 -194 -178 -185 -6 3 -10 16 -10 28 0 27 -22 105 -46 169 l-18 46 57 61 c77 84 132 199 152 316 19 117 35 339 35 490 0 202 11 345 27 345 11 0 13 -105 13 -607z m64 -844 c6 -35 3 -39 -46 -84 -74 -67 -230 -168 -329 -214 -292 -135 -526 -159 -1184 -121 -594 34 -833 21 -1016 -54 -35 -15 -71 -30 -79 -33 -8 -3 3 13 24 35 49 52 152 106 253 134 76 22 97 22 883 28 767 7 809 8 898 28 241 54 393 131 517 264 33 35 63 61 66 58 4 -3 9 -21 13 -41z m18 -331 c-27 -105 -361 -268 -682 -332 -277 -56 -396 -57 -795 -5 -377 48 -492 59 -655 59 -181 0 -306 -18 -420 -59 -89 -33 -125 -55 -188 -115 l-42 -40 0 28 c0 39 97 133 180 173 195 95 384 109 1005 73 606 -35 835 -21 1104 66 113 37 304 135 406 209 l90 65 3 -44 c2 -24 -1 -59 -6 -78z m-66 -265 c-24 -63 -101 -178 -161 -239 -209 -214 -601 -358 -1098 -405 -192 -18 -568 -7 -727 21 -246 43 -428 108 -571 202 -75 49 -77 51 -67 79 15 43 101 115 165 139 131 49 176 55 408 54 201 0 247 -4 540 -43 280 -38 344 -44 515 -44 163 -1 215 2 315 21 252 48 448 109 590 186 92 50 100 52 91 29z"/>
 <path d="M1890 4045 c-116 -28 -252 -102 -270 -146 -12 -28 -1 -65 24 -81 20 -14 58 -8 87 13 122 86 305 120 458 84 92 -22 172 -65 276 -147 113 -89 223 -143 346 -168 253 -53 458 0 616 156 50 50 75 69 85 63 7 -5 28 -9 45 -9 43 0 71 39 57 78 -13 38 -167 142 -210 142 -58 0 -85 -69 -43 -111 l21 -21 -48 -49 c-183 -185 -517 -184 -759 5 -159 124 -217 155 -350 187 -94 22 -252 24 -335 4z"/>
 <path d="M1855 3036 c-156 -49 -260 -170 -287 -330 -13 -80 -2 -159 35 -239 30 -66 51 -87 87 -87 18 0 134 61 326 171 165 94 307 178 317 186 23 21 22 55 -3 104 -46 88 -139 164 -239 193 -65 19 -180 20 -236 2z m207 -132 c42 -14 128 -76 128 -93 0 -4 -34 -26 -76 -50 -75 -43 -76 -43 -90 -22 -10 14 -26 21 -49 21 -47 0 -67 -23 -63 -73 l2 -40 -93 -53 c-51 -30 -96 -54 -101 -54 -19 0 -32 98 -20 153 34 167 203 266 362 211z"/>
 <path d="M3069 3032 c-157 -52 -300 -233 -231 -295 42 -38 616 -357 642 -357 36 0 71 41 98 113 32 83 37 155 17 241 -28 129 -108 226 -233 284 -76 35 -209 41 -293 14z m261 -148 c85 -46 141 -136 142 -228 1 -59 -10 -116 -22 -116 -5 0 -50 24 -101 54 l-93 53 2 40 c4 50 -16 73 -63 73 -23 0 -39 -7 -49 -21 -14 -21 -15 -21 -90 22 -42 24 -76 46 -76 50 0 15 84 79 124 93 64 24 161 15 226 -20z"/>
 <path d="M2285 2624 c-14 -7 -152 -107 -306 -221 -199 -148 -282 -215 -286 -232 -10 -39 17 -76 57 -78 31 -3 65 20 325 212 172 128 294 225 299 239 23 60 -32 110 -89 80z"/>
 <path d="M2835 2632 c-28 -5 -45 -31 -45 -68 0 -31 15 -43 298 -253 216 -161 304 -221 325 -221 56 0 88 69 49 108 -30 29 -570 426 -589 432 -10 4 -27 5 -38 2z"/>
 </g>

</svg>