<!DOCTYPE svg PUBLIC "-//W3C//DTD SVG 20010904//EN" "http://www.w3.org/TR/2001/REC-SVG-20010904/DTD/svg10.dtd">
<svg version="1.0" xmlns="http://www.w3.org/2000/svg" width="512px" height="512px" viewBox="0 0 5120 5120" preserveAspectRatio="xMidYMid meet">
<g id="layer101" fill="#000000" stroke="none">
 <path d="M22 5097 l-22 -23 0 -2261 0 -2262 26 -20 c25 -20 39 -21 253 -21 l226 0 21 -110 c35 -182 113 -319 213 -373 63 -35 153 -37 218 -6 113 55 206 225 231 425 l7 59 84 0 85 0 12 -85 c28 -192 126 -359 240 -406 50 -21 147 -18 195 6 104 54 187 194 223 380 l21 110 81 0 81 0 7 -59 c22 -193 107 -357 219 -421 68 -39 156 -42 225 -8 112 56 206 233 228 429 l7 59 81 0 81 0 21 -110 c35 -182 113 -319 213 -373 63 -35 153 -37 218 -6 113 55 206 225 231 425 l7 59 238 5 c236 5 238 5 256 29 20 26 872 4097 871 4162 0 24 -8 43 -23 57 -23 22 -26 22 -425 22 l-402 0 0 145 c0 142 -1 147 -25 170 l-24 25 -2089 0 -2089 0 -21 -23z m4068 -1772 l0 -1615 -1955 0 -1955 0 0 1615 0 1615 1955 0 1955 0 0 -1615z m830 1269 c0 -6 -611 -2942 -635 -3049 -11 -51 -13 181 -14 1498 l-1 1557 325 0 c179 0 325 -3 325 -6z m-830 -3484 l0 -420 -420 0 -420 0 4 23 c22 106 32 140 57 194 33 68 78 113 115 113 14 0 36 11 49 25 31 30 34 92 6 126 -16 20 -28 24 -78 24 -96 -1 -181 -64 -246 -183 -28 -52 -72 -198 -82 -274 l-6 -48 -335 0 -335 0 7 48 c17 121 81 251 134 271 17 6 43 16 59 22 88 33 51 169 -46 169 -76 0 -166 -62 -232 -158 -34 -48 -78 -179 -93 -271 l-12 -81 -333 0 -333 0 0 23 c0 46 32 152 62 209 35 66 69 98 104 98 12 0 35 11 51 24 61 52 21 156 -61 156 -159 0 -302 -191 -334 -445 l-7 -60 -338 -3 -337 -2 4 22 c22 107 32 141 57 195 33 68 78 113 115 113 39 0 74 42 74 88 0 74 -59 107 -147 83 -136 -37 -246 -216 -278 -453 l-6 -48 -165 0 -164 0 0 420 0 420 1955 0 1955 0 0 -420z m-3080 -628 c0 -34 -36 -164 -56 -206 -25 -49 -75 -96 -102 -96 -61 0 -126 124 -156 298 l-5 32 159 0 160 0 0 -28z m854 -4 c-30 -174 -95 -298 -156 -298 -27 0 -77 47 -102 96 -20 42 -56 172 -56 206 l0 28 160 0 160 0 -6 -32z m856 14 c0 -34 -38 -170 -60 -214 -31 -61 -69 -98 -100 -98 -51 0 -107 86 -141 217 -31 123 -44 113 141 113 149 0 160 -1 160 -18z m850 -10 c0 -34 -36 -164 -56 -206 -25 -49 -75 -96 -102 -96 -61 0 -126 124 -156 298 l-5 32 159 0 160 0 0 -28z"/>
 <path d="M615 4409 l-26 -32 3 -204 3 -205 29 -24 28 -25 210 3 c207 3 210 3 229 27 17 21 19 41 19 233 0 280 22 258 -259 258 l-209 0 -27 -31z m315 -229 l0 -80 -80 0 -80 0 0 80 0 80 80 0 80 0 0 -80z"/>
 <path d="M1475 4415 c-25 -24 -25 -25 -25 -233 0 -192 2 -212 19 -233 19 -24 22 -24 229 -27 l210 -3 28 25 29 24 3 205 3 204 -26 32 -27 31 -209 0 c-210 0 -210 0 -234 -25z m315 -235 l0 -80 -80 0 -80 0 0 80 0 80 80 0 80 0 0 -80z"/>
 <path d="M2325 4415 c-25 -24 -25 -25 -25 -230 l0 -207 29 -29 29 -29 202 0 202 0 29 29 29 29 0 207 c0 276 22 255 -260 255 -211 0 -211 0 -235 -25z m315 -235 l0 -80 -80 0 -80 0 0 80 0 80 80 0 80 0 0 -80z"/>
 <path d="M3175 4409 l-26 -32 3 -204 3 -205 29 -24 28 -25 210 3 c207 3 210 3 229 27 17 21 19 41 19 233 0 280 22 258 -259 258 l-209 0 -27 -31z m315 -229 l0 -80 -80 0 -80 0 0 80 0 80 80 0 80 0 0 -80z"/>
 <path d="M623 3566 l-28 -24 -3 -205 -3 -204 26 -32 27 -31 208 0 c195 0 209 1 234 21 l26 20 0 209 c0 115 -3 216 -6 225 -15 38 -55 45 -258 45 -192 0 -195 0 -223 -24z m307 -236 l0 -80 -80 0 -80 0 0 80 0 80 80 0 80 0 0 -80z"/>
 <path d="M1495 3578 c-43 -23 -45 -33 -45 -250 0 -280 -22 -258 259 -258 l209 0 27 31 26 32 -3 204 -3 205 -28 24 c-28 24 -31 24 -225 24 -123 0 -204 -5 -217 -12z m295 -248 l0 -80 -80 0 -80 0 0 80 0 80 80 0 80 0 0 -80z"/>
 <path d="M2329 3561 l-29 -29 0 -207 c0 -276 -22 -255 260 -255 282 0 260 -21 260 255 l0 207 -29 29 -29 29 -202 0 -202 0 -29 -29z m311 -231 l0 -80 -80 0 -80 0 0 80 0 80 80 0 80 0 0 -80z"/>
 <path d="M3183 3566 l-28 -24 -3 -205 -3 -204 26 -32 27 -31 208 0 c195 0 209 1 234 21 l26 20 0 209 c0 115 -3 216 -6 225 -15 38 -55 45 -258 45 -192 0 -195 0 -223 -24z m307 -236 l0 -80 -80 0 -80 0 0 80 0 80 80 0 80 0 0 -80z"/>
 <path d="M645 2726 c-49 -22 -55 -48 -55 -252 0 -213 6 -236 68 -254 23 -7 105 -10 219 -8 176 3 182 4 207 27 l26 24 0 212 0 212 -26 24 c-25 23 -30 24 -217 27 -145 1 -199 -1 -222 -12z m285 -251 l0 -85 -80 0 -80 0 0 85 0 85 80 0 80 0 0 -85z"/>
 <path d="M1515 2733 c-11 -3 -30 -14 -42 -26 -22 -20 -23 -25 -23 -232 l0 -212 26 -24 c25 -23 31 -24 207 -27 114 -2 196 1 219 8 62 18 68 41 68 255 0 208 -6 235 -61 254 -31 11 -352 14 -394 4z m275 -258 l0 -85 -80 0 -80 0 0 85 0 85 80 0 80 0 0 -85z"/>
 <path d="M2363 2733 c-13 -2 -32 -16 -43 -30 -19 -24 -20 -40 -20 -229 0 -200 0 -203 24 -231 l24 -28 212 0 212 0 24 28 c24 28 24 31 24 232 0 201 0 204 -24 232 l-24 28 -194 2 c-106 0 -203 -1 -215 -4z m277 -258 l0 -85 -80 0 -80 0 0 85 0 85 80 0 80 0 0 -85z"/>
 <path d="M3205 2726 c-49 -22 -55 -48 -55 -252 0 -213 6 -236 68 -254 23 -7 105 -10 219 -8 176 3 182 4 207 27 l26 24 0 212 0 212 -26 24 c-25 23 -30 24 -217 27 -145 1 -199 -1 -222 -12z m285 -251 l0 -85 -80 0 -80 0 0 85 0 85 80 0 80 0 0 -85z"/>
 </g>

</svg>