<!DOCTYPE svg PUBLIC "-//W3C//DTD SVG 20010904//EN" "http://www.w3.org/TR/2001/REC-SVG-20010904/DTD/svg10.dtd">
<svg version="1.0" xmlns="http://www.w3.org/2000/svg" width="512px" height="512px" viewBox="0 0 5120 5120" preserveAspectRatio="xMidYMid meet">
<g id="layer101" fill="#501fea" stroke="none">
 <path d="M1550 4821 c-189 -26 -366 -137 -595 -372 -346 -356 -607 -705 -770 -1029 -136 -269 -190 -475 -183 -694 3 -112 6 -125 33 -175 42 -75 86 -103 178 -109 165 -10 363 83 587 276 109 94 250 234 543 534 l279 288 57 -90 c92 -146 211 -288 449 -533 395 -407 1169 -1254 1534 -1679 425 -495 597 -675 773 -808 136 -103 277 -152 376 -131 123 27 248 129 288 236 20 52 22 74 19 160 -10 217 -119 412 -454 816 -66 80 -222 271 -345 425 -124 153 -402 495 -620 759 -437 530 -516 630 -734 915 -414 542 -737 902 -954 1063 -68 50 -204 122 -256 136 -61 15 -144 20 -205 12z m-1190 -2100 c0 -11 -69 -35 -77 -27 -3 3 5 9 18 14 13 5 31 12 39 15 8 3 16 6 18 6 1 1 2 -3 2 -8z"/>
 </g>

</svg>