<!DOCTYPE svg PUBLIC "-//W3C//DTD SVG 20010904//EN" "http://www.w3.org/TR/2001/REC-SVG-20010904/DTD/svg10.dtd">
<svg version="1.0" xmlns="http://www.w3.org/2000/svg" width="512px" height="512px" viewBox="0 0 5120 5120" preserveAspectRatio="xMidYMid meet">
<g id="layer101" fill="#000000" stroke="none">
 <path d="M2355 5114 c-563 -83 -1019 -403 -1269 -888 -108 -210 -163 -416 -182 -683 l-6 -93 -38 0 c-221 0 -427 -164 -485 -387 -21 -81 -21 -406 0 -488 57 -218 265 -384 483 -385 l42 0 0 -383 c0 -507 10 -584 100 -772 55 -114 122 -208 202 -281 l55 -50 -5 -81 c-10 -168 62 -283 243 -393 161 -97 351 -160 625 -206 129 -22 577 -31 748 -15 495 47 902 195 1140 416 116 107 216 285 264 468 18 68 22 111 22 252 1 182 -12 266 -60 407 -23 69 -24 81 -24 355 l0 283 48 0 c222 1 429 165 487 385 21 83 21 407 0 490 -58 220 -265 384 -486 385 l-46 0 -6 123 c-17 378 -180 753 -451 1034 -245 256 -521 410 -863 484 -78 17 -139 22 -303 24 -113 2 -218 1 -235 -1z m457 -143 c317 -55 583 -194 819 -430 221 -222 339 -435 416 -751 25 -100 26 -121 30 -467 l5 -363 -65 0 c-70 0 -93 -12 -101 -53 -3 -12 -7 -173 -10 -357 -6 -441 -21 -561 -83 -683 -28 -57 -104 -142 -145 -163 -43 -22 -45 -55 -9 -133 17 -37 41 -106 52 -151 l21 -84 -23 -19 c-32 -27 -111 -62 -184 -83 -54 -16 -143 -19 -860 -25 -440 -3 -813 -10 -830 -13 -16 -4 -61 -14 -100 -23 -70 -16 -197 -64 -220 -83 -26 -21 -134 156 -142 233 -6 54 17 149 58 235 39 82 40 109 3 139 -200 165 -225 261 -240 928 -5 248 -9 303 -22 318 -12 13 -31 17 -84 17 l-68 0 0 243 c1 384 18 539 82 737 72 223 202 433 373 605 210 210 478 355 761 414 132 27 137 28 306 30 105 1 178 -4 260 -18z m-1912 -2151 l0 -500 -32 0 c-45 0 -124 22 -176 49 -65 33 -129 103 -165 179 l-32 67 0 205 0 205 32 67 c63 134 195 223 336 227 l37 1 0 -500z m3507 461 c80 -38 146 -105 186 -189 l32 -67 0 -205 0 -205 -32 -67 c-36 -76 -100 -146 -165 -179 -52 -27 -131 -49 -175 -49 l-33 0 0 501 0 502 62 -7 c36 -3 89 -19 125 -35z m-3333 -718 c13 -528 38 -675 137 -819 17 -26 50 -64 71 -85 l40 -38 -25 -63 c-76 -190 -57 -328 67 -502 l44 -61 -34 -40 c-18 -22 -41 -57 -50 -78 l-17 -38 -35 33 c-87 84 -174 239 -214 383 -22 79 -22 92 -26 828 -3 729 -3 747 16 747 18 0 19 -14 26 -267z m3006 -344 l0 -611 -46 -69 c-46 -70 -150 -172 -166 -163 -4 3 -8 15 -8 27 0 27 -22 105 -46 169 l-18 46 57 61 c77 84 132 199 152 316 19 117 35 339 35 490 0 202 11 345 27 345 11 0 13 -105 13 -611z m64 -840 c6 -35 3 -39 -46 -84 -73 -66 -230 -168 -330 -214 -291 -135 -526 -159 -1183 -121 -594 34 -833 21 -1016 -54 -35 -15 -71 -30 -79 -33 -8 -3 3 13 24 35 49 52 152 106 253 134 76 22 97 22 883 28 767 7 809 8 898 28 241 54 393 131 517 264 33 35 63 61 66 58 4 -3 9 -21 13 -41z m18 -331 c-27 -105 -361 -268 -682 -332 -277 -56 -396 -57 -795 -5 -377 48 -492 59 -655 59 -181 0 -306 -18 -420 -59 -89 -33 -125 -55 -188 -115 l-42 -40 0 28 c0 39 97 133 180 173 195 95 384 109 1005 73 606 -35 835 -21 1104 66 113 37 304 135 406 209 l90 65 3 -44 c2 -24 -1 -59 -6 -78z m-66 -265 c-24 -63 -101 -178 -161 -239 -210 -214 -600 -358 -1098 -405 -192 -18 -568 -7 -727 21 -246 43 -428 108 -571 202 -75 49 -77 51 -67 79 15 43 101 115 165 139 131 49 176 55 408 54 201 0 247 -4 540 -43 280 -38 344 -44 515 -44 163 -1 215 2 315 21 252 48 448 109 590 186 92 50 100 52 91 29z"/>
 <path d="M2357 4122 c-26 -29 -21 -74 11 -104 56 -53 110 -72 202 -72 92 0 146 19 203 72 49 46 28 122 -34 122 -13 0 -44 -14 -68 -30 -75 -51 -137 -49 -211 5 -40 30 -80 32 -103 7z"/>
 <path d="M1593 3150 c-85 -38 -193 -178 -193 -250 0 -37 31 -62 71 -58 29 3 37 11 70 68 23 41 52 77 80 97 71 51 89 71 89 96 0 52 -57 74 -117 47z"/>
 <path d="M3402 3158 c-23 -12 -36 -43 -30 -74 1 -9 29 -36 61 -58 53 -37 117 -115 117 -142 0 -20 36 -44 68 -44 42 0 67 36 58 83 -10 54 -85 156 -146 198 -63 44 -95 53 -128 37z"/>
 <path d="M1865 3066 c-82 -20 -146 -56 -205 -116 -214 -217 -149 -573 127 -702 129 -61 298 -48 421 32 71 45 113 95 154 180 27 56 33 79 36 160 3 78 0 106 -18 159 -73 218 -294 341 -515 287z m224 -146 c65 -28 143 -112 165 -176 37 -109 8 -231 -74 -314 -191 -190 -515 -54 -513 215 1 220 219 362 422 275z"/>
 <path d="M2066 2694 c-22 -21 -20 -77 2 -97 27 -25 78 -22 96 5 34 49 7 108 -49 108 -18 0 -41 -7 -49 -16z"/>
 <path d="M3025 3033 c-166 -60 -270 -190 -282 -355 -10 -132 33 -244 128 -333 194 -182 513 -130 637 104 111 208 27 464 -186 564 -57 26 -81 32 -157 34 -67 3 -103 -1 -140 -14z m246 -146 c142 -73 194 -229 124 -367 -90 -176 -322 -204 -453 -55 -157 178 -31 451 210 454 45 1 69 -6 119 -32z"/>
 <path d="M3247 2692 c-22 -25 -21 -75 1 -95 25 -22 75 -21 95 1 22 25 21 75 -1 95 -25 22 -75 21 -95 -1z"/>
 <path d="M1676 1978 c-47 -67 -15 -88 281 -188 242 -81 254 -84 280 -70 35 20 44 77 16 101 -25 22 -492 179 -530 179 -22 0 -37 -7 -47 -22z"/>
 <path d="M3121 1916 c-248 -84 -271 -96 -271 -143 0 -27 33 -63 58 -63 35 0 527 170 540 187 32 44 1 104 -54 102 -16 0 -139 -38 -273 -83z"/>
 </g>

</svg>