<!DOCTYPE svg PUBLIC "-//W3C//DTD SVG 20010904//EN" "http://www.w3.org/TR/2001/REC-SVG-20010904/DTD/svg10.dtd">
<svg version="1.0" xmlns="http://www.w3.org/2000/svg" width="784px" height="930px" viewBox="0 0 7840 9300" preserveAspectRatio="xMidYMid meet">
<g id="layer101" fill="#3c778c" stroke="none">
 <path d="M1758 9285 c-143 -24 -274 -81 -448 -195 -136 -90 -701 -515 -792 -596 -109 -98 -195 -205 -242 -303 -35 -74 -40 -94 -44 -172 -5 -104 6 -156 54 -257 46 -96 122 -172 201 -202 52 -20 71 -21 183 -17 104 4 154 12 295 48 156 39 181 43 300 43 121 1 134 -1 187 -26 59 -27 98 -73 98 -114 0 -41 -56 -131 -132 -210 -143 -149 -359 -306 -803 -584 -236 -148 -292 -187 -360 -255 -110 -111 -187 -247 -231 -410 -26 -97 -27 -370 -1 -465 59 -220 209 -388 392 -436 74 -20 208 -17 301 6 99 25 238 93 330 162 40 29 151 125 248 213 209 188 304 262 404 311 88 42 195 67 254 58 246 -38 338 -341 178 -582 -75 -113 -164 -179 -433 -326 -252 -137 -339 -203 -409 -310 -70 -108 -96 -252 -67 -375 56 -243 311 -402 561 -350 113 24 209 80 508 297 140 102 273 162 356 162 60 0 134 -21 165 -48 27 -22 30 -30 26 -63 -7 -54 -56 -120 -171 -233 -198 -195 -397 -351 -874 -683 -525 -365 -717 -516 -940 -736 -346 -341 -502 -605 -502 -846 0 -254 169 -472 410 -532 90 -23 267 -16 385 15 144 37 232 85 480 262 402 286 596 410 802 513 340 169 529 169 612 -1 44 -89 51 -189 21 -277 -51 -151 -152 -265 -480 -537 -229 -191 -357 -317 -419 -414 -138 -213 -98 -439 115 -654 76 -77 172 -129 284 -152 113 -24 330 -15 485 20 311 70 892 309 1490 611 546 277 964 526 1685 1009 207 138 479 319 605 402 367 241 568 397 746 580 149 154 223 268 255 396 42 162 -34 286 -231 379 -107 50 -192 77 -505 160 -422 112 -546 160 -647 252 -75 69 -98 115 -97 197 2 149 77 264 353 545 114 116 228 237 253 270 168 221 180 394 38 535 -66 67 -143 102 -235 108 -112 7 -204 -22 -453 -142 -119 -57 -248 -114 -286 -125 -120 -37 -261 -24 -341 31 -40 27 -55 56 -55 107 0 160 347 478 956 877 96 63 254 166 352 230 412 270 590 436 649 606 10 30 14 69 11 128 -5 101 -35 177 -92 233 -52 50 -110 67 -225 67 -115 0 -192 -17 -445 -100 -177 -57 -298 -84 -341 -75 -11 2 -37 7 -58 10 -41 7 -100 52 -122 96 -70 134 26 441 235 759 114 175 189 360 205 511 27 249 -138 372 -441 327 -89 -14 -119 -24 -260 -90 -87 -42 -182 -83 -211 -92 -104 -34 -222 -13 -291 51 -31 30 -34 37 -30 75 3 24 24 84 47 134 26 58 41 106 41 131 l0 40 -943 6 c-518 3 -1203 4 -1522 0 -479 -4 -618 -3 -798 11 -254 19 -471 19 -579 1z m3832 -5156 c-91 -78 -300 -183 -315 -159 -8 13 3 30 19 30 26 0 194 89 250 134 43 33 63 43 70 35 8 -7 1 -19 -24 -40z m210 -643 c0 -45 -119 -171 -141 -149 -8 8 3 24 36 54 26 24 55 60 66 81 18 36 39 43 39 14z"/>
 </g>
<g id="layer102" fill="#0371d6" stroke="none">
 <path d="M1758 9285 c-143 -24 -274 -81 -448 -195 -136 -90 -701 -515 -792 -596 -109 -98 -195 -205 -242 -303 -35 -74 -40 -94 -44 -172 -5 -104 6 -156 54 -257 46 -96 122 -172 201 -202 52 -20 71 -21 183 -17 104 4 154 12 295 48 156 39 181 43 300 43 121 1 134 -1 187 -26 59 -27 98 -73 98 -114 0 -41 -56 -131 -132 -210 -143 -149 -359 -306 -803 -584 -236 -148 -292 -187 -360 -255 -110 -111 -187 -247 -231 -410 -26 -97 -27 -370 -1 -465 59 -220 209 -388 392 -436 74 -20 208 -17 301 6 99 25 238 93 330 162 40 29 151 125 248 213 209 188 304 262 404 311 88 42 195 67 254 58 246 -38 338 -341 178 -582 -75 -113 -164 -179 -433 -326 -252 -137 -339 -203 -409 -310 -70 -108 -96 -252 -67 -375 56 -243 311 -402 561 -350 113 24 209 80 508 297 140 102 273 162 356 162 60 0 134 -21 165 -48 27 -22 30 -30 26 -63 -7 -54 -56 -120 -171 -233 -198 -195 -397 -351 -874 -683 -525 -365 -717 -516 -940 -736 -346 -341 -502 -605 -502 -846 0 -254 169 -472 410 -532 90 -23 267 -16 385 15 144 37 232 85 480 262 402 286 596 410 802 513 340 169 529 169 612 -1 44 -89 51 -189 21 -277 -51 -151 -152 -265 -480 -537 -229 -191 -357 -317 -419 -414 -138 -213 -98 -439 115 -654 76 -77 172 -129 284 -152 113 -24 330 -15 485 20 311 70 892 309 1490 611 546 277 964 526 1685 1009 207 138 479 319 605 402 367 241 568 397 746 580 149 154 223 268 255 396 42 162 -34 286 -231 379 -107 50 -192 77 -505 160 -422 112 -546 160 -647 252 -75 69 -98 115 -97 197 2 149 77 264 353 545 114 116 228 237 253 270 168 221 180 394 38 535 -66 67 -143 102 -235 108 -112 7 -204 -22 -453 -142 -119 -57 -248 -114 -286 -125 -120 -37 -261 -24 -341 31 -40 27 -55 56 -55 107 0 160 347 478 956 877 96 63 254 166 352 230 412 270 590 436 649 606 10 30 14 69 11 128 -5 101 -35 177 -92 233 -52 50 -110 67 -225 67 -115 0 -192 -17 -445 -100 -177 -57 -298 -84 -341 -75 -11 2 -37 7 -58 10 -41 7 -100 52 -122 96 -70 134 26 441 235 759 114 175 189 360 205 511 27 249 -138 372 -441 327 -89 -14 -119 -24 -260 -90 -87 -42 -182 -83 -211 -92 -104 -34 -222 -13 -291 51 -31 30 -34 37 -30 75 3 24 24 84 47 134 26 58 41 106 41 131 l0 40 -943 6 c-518 3 -1203 4 -1522 0 -479 -4 -618 -3 -798 11 -254 19 -471 19 -579 1z m3046 -4747 c142 -144 175 -184 171 -210 -3 -16 -42 -78 -50 -78 -2 0 -63 75 -137 168 -73 92 -141 176 -150 188 -15 19 -16 23 -2 42 8 12 20 22 26 22 5 0 69 -60 142 -132z m-55 -118 c78 -99 144 -186 147 -194 4 -11 -53 -94 -66 -95 -3 0 -19 21 -36 47 -17 26 -76 114 -132 195 -57 82 -103 152 -105 157 -2 10 35 70 44 70 4 0 70 -81 148 -180z m-64 -132 c63 -92 115 -172 115 -178 0 -6 -16 -31 -36 -56 l-36 -44 -34 58 c-41 69 -33 57 -136 219 -49 79 -88 131 -95 128 -7 -2 4 18 25 45 l37 49 22 -27 c13 -15 75 -102 138 -194z m-125 -61 c44 -71 80 -131 80 -133 0 -2 15 -26 34 -53 l34 -49 -37 -36 -38 -37 -31 51 c-18 28 -32 53 -32 55 0 2 -18 31 -40 64 -22 33 -40 62 -40 65 0 2 -17 31 -38 63 -68 105 -68 106 -36 148 l28 37 18 -24 c10 -12 54 -81 98 -151z m-109 -64 c46 -76 89 -145 94 -155 6 -9 23 -38 39 -64 l28 -46 -29 -30 -30 -29 -45 68 c-25 37 -81 122 -125 189 l-79 121 31 41 c16 23 31 41 31 42 1 0 39 -62 85 -137z m-34 -173 c54 -85 102 -160 106 -166 3 -6 -9 -26 -27 -43 l-34 -33 -35 54 c-19 30 -45 73 -58 95 -98 170 -149 236 -149 193 0 -4 34 -63 75 -130 41 -67 75 -123 75 -125 0 -2 14 -24 30 -48 17 -25 30 -50 30 -56 0 -12 -32 -31 -54 -31 -25 0 -99 89 -133 159 -3 8 -21 39 -40 69 -38 64 -41 89 -13 125 11 14 20 29 20 34 0 5 16 27 35 49 19 21 35 43 35 48 0 15 33 -32 137 -194z m1173 139 c-91 -78 -300 -183 -315 -159 -8 13 3 30 19 30 26 0 194 89 250 134 43 33 63 43 70 35 8 -7 1 -19 -24 -40z m210 -643 c0 -45 -119 -171 -141 -149 -8 8 3 24 36 54 26 24 55 60 66 81 18 36 39 43 39 14z"/>
 </g>
<g id="layer103" fill="#5a669e" stroke="none">
 <path d="M1758 9285 c-143 -24 -274 -81 -448 -195 -136 -90 -701 -515 -792 -596 -109 -98 -195 -205 -242 -303 -35 -74 -40 -94 -44 -172 -5 -104 6 -156 54 -257 46 -96 122 -172 201 -202 52 -20 71 -21 183 -17 104 4 154 12 295 48 156 39 181 43 300 43 121 1 134 -1 187 -26 59 -27 98 -73 98 -114 0 -41 -56 -131 -132 -210 -143 -149 -359 -306 -803 -584 -236 -148 -292 -187 -360 -255 -110 -111 -187 -247 -231 -410 -26 -97 -27 -370 -1 -465 59 -220 209 -388 392 -436 74 -20 208 -17 301 6 99 25 238 93 330 162 40 29 151 125 248 213 209 188 304 262 404 311 88 42 195 67 254 58 246 -38 338 -341 178 -582 -75 -113 -164 -179 -433 -326 -252 -137 -339 -203 -409 -310 -70 -108 -96 -252 -67 -375 56 -243 311 -402 561 -350 113 24 209 80 508 297 140 102 273 162 356 162 60 0 134 -21 165 -48 27 -22 30 -30 26 -63 -7 -54 -56 -120 -171 -233 -198 -195 -397 -351 -874 -683 -525 -365 -717 -516 -940 -736 -346 -341 -502 -605 -502 -846 0 -254 169 -472 410 -532 90 -23 267 -16 385 15 144 37 232 85 480 262 402 286 596 410 802 513 340 169 529 169 612 -1 44 -89 51 -189 21 -277 -51 -151 -152 -265 -480 -537 -229 -191 -357 -317 -419 -414 -138 -213 -98 -439 115 -654 76 -77 172 -129 284 -152 113 -24 330 -15 485 20 311 70 892 309 1490 611 546 277 964 526 1685 1009 207 138 479 319 605 402 367 241 568 397 746 580 149 154 223 268 255 396 42 162 -34 286 -231 379 -107 50 -192 77 -505 160 -422 112 -546 160 -647 252 -75 69 -98 115 -97 197 2 149 77 264 353 545 114 116 228 237 253 270 168 221 180 394 38 535 -66 67 -143 102 -235 108 -112 7 -204 -22 -453 -142 -119 -57 -248 -114 -286 -125 -120 -37 -261 -24 -341 31 -40 27 -55 56 -55 107 0 160 347 478 956 877 96 63 254 166 352 230 412 270 590 436 649 606 10 30 14 69 11 128 -5 101 -35 177 -92 233 -52 50 -110 67 -225 67 -115 0 -192 -17 -445 -100 -177 -57 -298 -84 -341 -75 -11 2 -37 7 -58 10 -41 7 -100 52 -122 96 -70 134 26 441 235 759 114 175 189 360 205 511 27 249 -138 372 -441 327 -89 -14 -119 -24 -260 -90 -87 -42 -182 -83 -211 -92 -104 -34 -222 -13 -291 51 -31 30 -34 37 -30 75 3 24 24 84 47 134 27 60 41 106 41 133 l0 41 -670 0 c-396 0 -670 -4 -670 -9 0 -5 -18 -150 -40 -323 -112 -889 -161 -1470 -140 -1646 13 -100 98 -515 264 -1277 63 -291 120 -559 127 -595 16 -89 16 -321 0 -395 -43 -193 -146 -289 -311 -290 -66 0 -84 4 -144 34 -116 57 -217 173 -309 357 -60 117 -76 167 -157 488 -119 470 -206 883 -251 1195 -36 251 -34 348 24 1436 30 556 52 1013 50 1018 -2 4 -194 7 -426 7 -274 0 -492 5 -622 15 -239 18 -462 18 -567 0z m3046 -4747 c142 -144 175 -184 171 -210 -3 -16 -42 -78 -50 -78 -2 0 -63 75 -137 168 -73 92 -141 176 -150 188 -15 19 -16 23 -2 42 8 12 20 22 26 22 5 0 69 -60 142 -132z m-55 -118 c78 -99 144 -186 147 -194 4 -11 -53 -94 -66 -95 -3 0 -19 21 -36 47 -17 26 -76 114 -132 195 -57 82 -103 152 -105 157 -2 10 35 70 44 70 4 0 70 -81 148 -180z m-64 -132 c63 -92 115 -172 115 -178 0 -6 -16 -31 -36 -56 l-36 -44 -34 58 c-41 69 -33 57 -136 219 -49 79 -88 131 -95 128 -7 -2 4 18 25 45 l37 49 22 -27 c13 -15 75 -102 138 -194z m-125 -61 c44 -71 80 -131 80 -133 0 -2 15 -26 34 -53 l34 -49 -37 -36 -38 -37 -31 51 c-18 28 -32 53 -32 55 0 2 -18 31 -40 64 -22 33 -40 62 -40 65 0 2 -17 31 -38 63 -68 105 -68 106 -36 148 l28 37 18 -24 c10 -12 54 -81 98 -151z m-109 -64 c46 -76 89 -145 94 -155 6 -9 23 -38 39 -64 l28 -46 -29 -30 -30 -29 -45 68 c-25 37 -81 122 -125 189 l-79 121 31 41 c16 23 31 41 31 42 1 0 39 -62 85 -137z m-34 -173 c54 -85 102 -160 106 -166 3 -6 -9 -26 -27 -43 l-34 -33 -35 54 c-19 30 -45 73 -58 95 -98 170 -149 236 -149 193 0 -4 34 -63 75 -130 41 -67 75 -123 75 -125 0 -2 14 -24 30 -48 17 -25 30 -50 30 -56 0 -12 -32 -31 -54 -31 -25 0 -99 89 -133 159 -3 8 -21 39 -40 69 -38 64 -41 89 -13 125 11 14 20 29 20 34 0 5 16 27 35 49 19 21 35 43 35 48 0 15 33 -32 137 -194z m1173 139 c-91 -78 -300 -183 -315 -159 -8 13 3 30 19 30 26 0 194 89 250 134 43 33 63 43 70 35 8 -7 1 -19 -24 -40z m210 -643 c0 -45 -119 -171 -141 -149 -8 8 3 24 36 54 26 24 55 60 66 81 18 36 39 43 39 14z"/>
 </g>
<g id="layer104" fill="#ceae56" stroke="none">
 <path d="M1758 9285 c-143 -24 -274 -81 -448 -195 -136 -90 -701 -515 -792 -596 -109 -98 -195 -205 -242 -303 -35 -74 -40 -94 -44 -172 -5 -104 6 -156 54 -257 46 -96 122 -172 201 -202 52 -20 71 -21 183 -17 104 4 154 12 295 48 156 39 181 43 300 43 121 1 134 -1 187 -26 59 -27 98 -73 98 -114 0 -41 -56 -131 -132 -210 -143 -149 -359 -306 -803 -584 -236 -148 -292 -187 -360 -255 -110 -111 -187 -247 -231 -410 -26 -97 -27 -370 -1 -465 59 -220 209 -388 392 -436 74 -20 208 -17 301 6 99 25 238 93 330 162 40 29 151 125 248 213 209 188 304 262 404 311 88 42 195 67 254 58 246 -38 338 -341 178 -582 -75 -113 -164 -179 -433 -326 -252 -137 -339 -203 -409 -310 -70 -108 -96 -252 -67 -375 56 -243 311 -402 561 -350 113 24 209 80 508 297 140 102 273 162 356 162 60 0 134 -21 165 -48 27 -22 30 -30 26 -63 -7 -54 -56 -120 -171 -233 -198 -195 -397 -351 -874 -683 -525 -365 -717 -516 -940 -736 -346 -341 -502 -605 -502 -846 0 -254 169 -472 410 -532 90 -23 267 -16 385 15 144 37 232 85 480 262 402 286 596 410 802 513 340 169 529 169 612 -1 44 -89 51 -189 21 -277 -51 -151 -152 -265 -480 -537 -229 -191 -357 -317 -419 -414 -138 -213 -98 -439 115 -654 76 -77 172 -129 284 -152 113 -24 330 -15 485 20 311 70 892 309 1490 611 546 277 964 526 1685 1009 207 138 479 319 605 402 367 241 568 397 746 580 149 154 223 268 255 396 42 162 -34 286 -231 379 -107 50 -192 77 -505 160 -422 112 -546 160 -647 252 -75 69 -98 115 -97 197 2 149 77 264 353 545 114 116 228 237 253 270 168 221 180 394 38 535 -66 67 -143 102 -235 108 -112 7 -204 -22 -453 -142 -119 -57 -248 -114 -286 -125 -120 -37 -261 -24 -341 31 -40 27 -55 56 -55 107 0 160 347 478 956 877 96 63 254 166 352 230 412 270 590 436 649 606 10 30 14 69 11 128 -5 101 -35 177 -92 233 -52 50 -110 67 -225 67 -115 0 -192 -17 -445 -100 -177 -57 -298 -84 -341 -75 -11 2 -37 7 -58 10 -41 7 -100 52 -122 96 -70 134 26 441 235 759 114 175 189 360 205 511 27 249 -138 372 -441 327 -89 -14 -119 -24 -260 -90 -87 -42 -182 -83 -211 -92 -104 -34 -222 -13 -291 51 -31 30 -34 37 -30 75 3 24 24 84 47 134 27 60 41 106 41 133 l0 41 -670 0 c-396 0 -670 -4 -670 -9 0 -5 -18 -150 -40 -323 -112 -889 -161 -1470 -140 -1646 13 -100 98 -515 264 -1277 63 -291 120 -559 127 -595 16 -89 16 -321 0 -395 -43 -193 -146 -289 -311 -290 -66 0 -84 4 -144 34 -116 57 -217 173 -309 357 -60 117 -76 167 -157 488 -119 470 -206 883 -251 1195 -36 251 -34 348 24 1436 30 556 52 1013 50 1018 -2 4 -194 7 -426 7 -274 0 -492 5 -622 15 -239 18 -462 18 -567 0z m3029 -4727 c63 -62 133 -134 155 -161 45 -53 45 -71 5 -121 l-23 -29 -135 169 c-73 93 -142 178 -151 190 -15 19 -16 23 -2 42 8 12 20 22 26 22 6 0 63 -51 125 -112z m-38 -138 c78 -99 144 -186 147 -194 4 -11 -53 -94 -66 -95 -3 0 -19 21 -36 47 -17 26 -76 114 -132 195 -57 82 -103 152 -105 157 -2 10 35 70 44 70 4 0 70 -81 148 -180z m-64 -132 c63 -92 115 -172 115 -178 0 -6 -16 -31 -36 -56 l-36 -44 -34 58 c-41 69 -33 57 -136 219 -49 79 -88 131 -95 128 -7 -2 4 18 25 45 l37 49 22 -27 c13 -15 75 -102 138 -194z m-125 -61 c44 -71 80 -131 80 -133 0 -2 15 -26 34 -53 l34 -49 -37 -36 -38 -37 -31 51 c-18 28 -32 53 -32 55 0 2 -18 31 -40 64 -22 33 -40 62 -40 65 0 2 -17 31 -38 63 -68 105 -68 106 -36 148 l28 37 18 -24 c10 -12 54 -81 98 -151z m-109 -64 c46 -76 89 -145 94 -155 6 -9 23 -38 39 -64 l28 -46 -29 -30 -30 -29 -45 68 c-25 37 -81 122 -125 189 l-79 121 31 41 c16 23 31 41 31 42 1 0 39 -62 85 -137z m-34 -173 c54 -85 102 -160 106 -166 3 -6 -9 -26 -27 -43 l-34 -33 -35 54 c-19 30 -45 73 -58 95 -98 170 -149 236 -149 193 0 -4 34 -63 75 -130 41 -67 75 -123 75 -125 0 -2 14 -25 31 -50 35 -51 34 -64 -6 -85 -27 -14 -28 -14 -66 30 -21 25 -68 96 -103 159 l-65 114 17 30 c9 16 23 40 30 53 7 13 26 38 43 56 16 18 29 37 29 42 0 15 33 -32 137 -194z m1173 139 c-91 -78 -300 -183 -315 -159 -8 13 3 30 19 30 26 0 194 89 250 134 43 33 63 43 70 35 8 -7 1 -19 -24 -40z m-869 -590 c32 -32 70 -122 79 -190 10 -71 -1 -150 -29 -215 -40 -90 -17 -169 70 -248 89 -80 201 -117 253 -82 53 34 55 140 6 254 l-19 42 33 -25 c17 -13 86 -48 151 -77 145 -63 179 -83 256 -154 39 -36 67 -54 84 -54 39 0 107 38 318 179 105 70 207 133 226 139 19 7 60 12 93 12 194 0 352 -239 442 -668 36 -171 38 -165 -27 -157 -97 12 -221 -33 -372 -135 -38 -26 -164 -122 -280 -214 -470 -373 -694 -488 -889 -457 -188 30 -371 187 -507 435 l-44 80 -70 13 c-115 21 -207 73 -305 172 -70 70 -94 103 -133 181 -73 148 -98 260 -104 465 -4 137 -2 183 11 235 25 100 64 169 130 235 71 70 137 104 268 140 51 15 118 37 148 49 174 74 181 75 211 45z m1079 -53 c0 -45 -119 -171 -141 -149 -8 8 3 24 36 54 26 24 55 60 66 81 18 36 39 43 39 14z"/>
 </g>
<g id="layer105" fill="#57c3f2" stroke="none">
 <path d="M1758 9285 c-143 -24 -274 -81 -448 -195 -136 -90 -701 -515 -792 -596 -109 -98 -195 -205 -242 -303 -35 -74 -40 -94 -44 -172 -5 -104 6 -156 54 -257 46 -96 122 -172 201 -202 52 -20 71 -21 183 -17 104 4 154 12 295 48 156 39 181 43 300 43 121 1 134 -1 187 -26 59 -27 98 -73 98 -114 0 -41 -56 -131 -132 -210 -143 -149 -359 -306 -803 -584 -236 -148 -292 -187 -360 -255 -110 -111 -187 -247 -231 -410 -26 -97 -27 -370 -1 -465 59 -220 209 -388 392 -436 74 -20 208 -17 301 6 99 25 238 93 330 162 40 29 151 125 248 213 209 188 304 262 404 311 88 42 195 67 254 58 246 -38 338 -341 178 -582 -75 -113 -164 -179 -433 -326 -252 -137 -339 -203 -409 -310 -70 -108 -96 -252 -67 -375 56 -243 311 -402 561 -350 113 24 209 80 508 297 140 102 273 162 356 162 60 0 134 -21 165 -48 27 -22 30 -30 26 -63 -7 -54 -56 -120 -171 -233 -198 -195 -397 -351 -874 -683 -525 -365 -717 -516 -940 -736 -346 -341 -502 -605 -502 -846 0 -254 169 -472 410 -532 90 -23 267 -16 385 15 144 37 232 85 480 262 402 286 596 410 802 513 340 169 529 169 612 -1 44 -89 51 -189 21 -277 -51 -151 -152 -265 -480 -537 -229 -191 -357 -317 -419 -414 -138 -213 -98 -439 115 -654 76 -77 172 -129 284 -152 113 -24 330 -15 485 20 311 70 892 309 1490 611 546 277 964 526 1685 1009 207 138 479 319 605 402 367 241 568 397 746 580 149 154 223 268 255 396 42 162 -34 286 -231 379 -107 50 -192 77 -505 160 -422 112 -546 160 -647 252 -75 69 -98 115 -97 197 2 149 77 264 353 545 114 116 228 237 253 270 168 221 180 394 38 535 -66 67 -143 102 -235 108 -112 7 -204 -22 -453 -142 -119 -57 -248 -114 -286 -125 -120 -37 -261 -24 -341 31 -40 27 -55 56 -55 107 0 160 347 478 956 877 96 63 254 166 352 230 412 270 590 436 649 606 10 30 14 69 11 128 -5 101 -35 177 -92 233 -52 50 -110 67 -225 67 -115 0 -192 -17 -445 -100 -177 -57 -298 -84 -341 -75 -11 2 -37 7 -58 10 -41 7 -100 52 -122 96 -70 134 26 441 235 759 114 175 189 360 205 511 27 249 -138 372 -441 327 -89 -14 -119 -24 -260 -90 -87 -42 -182 -83 -211 -92 -104 -34 -222 -13 -291 51 -31 30 -34 37 -30 75 3 24 24 84 47 134 27 60 41 106 41 133 l0 41 -670 0 c-396 0 -670 -4 -670 -9 0 -5 -18 -150 -40 -323 -112 -889 -161 -1470 -140 -1646 13 -100 98 -515 264 -1277 63 -291 120 -559 127 -595 16 -89 16 -321 0 -395 -43 -193 -146 -289 -311 -290 -66 0 -84 4 -144 34 -116 57 -217 173 -309 357 -60 117 -76 167 -157 488 -119 470 -206 883 -251 1195 -36 251 -34 348 24 1436 30 556 52 1013 50 1018 -2 4 -194 7 -426 7 -274 0 -492 5 -622 15 -239 18 -462 18 -567 0z m3070 -4769 c92 -94 152 -163 152 -175 0 -17 10 -21 68 -28 116 -14 222 -5 300 24 9 4 -20 -36 -64 -88 -83 -97 -403 -485 -510 -617 l-61 -76 29 -40 c72 -100 84 -265 27 -389 -25 -57 -24 -94 7 -154 44 -90 154 -168 254 -180 57 -7 83 13 100 76 14 54 2 98 -63 226 -29 55 -53 103 -55 108 -2 4 29 -9 69 -28 41 -19 79 -35 85 -35 7 0 62 -34 124 -76 215 -146 280 -162 381 -95 94 63 185 92 394 127 174 29 225 29 283 0 145 -73 264 -301 336 -644 36 -171 38 -165 -27 -157 -97 12 -221 -33 -372 -135 -38 -26 -164 -122 -280 -214 -470 -373 -694 -488 -889 -457 -188 30 -371 187 -507 435 l-44 80 -70 13 c-115 21 -207 73 -305 172 -70 70 -94 103 -133 181 -73 148 -98 260 -104 465 -4 137 -2 183 11 235 25 100 64 169 130 235 70 70 136 104 268 141 100 27 166 52 174 66 4 7 -91 174 -112 197 -2 2 -16 -2 -30 -10 -26 -13 -28 -12 -65 31 -21 25 -68 96 -103 159 l-65 114 17 30 c9 16 23 41 31 56 8 14 18 29 23 32 4 3 19 20 32 37 18 25 26 29 34 20 5 -7 60 -91 121 -187 70 -111 113 -168 116 -159 4 9 -42 90 -113 200 l-119 184 33 43 33 42 14 -23 c8 -13 59 -95 112 -183 103 -169 120 -192 128 -178 2 4 -49 94 -114 198 -65 105 -118 197 -118 205 0 8 13 31 29 50 25 29 31 33 40 20 6 -8 63 -99 127 -203 71 -114 120 -184 126 -178 11 11 -235 407 -252 403 -6 -1 6 20 26 47 21 28 40 50 43 50 3 1 15 -14 27 -32 94 -141 245 -353 253 -355 22 -8 4 24 -126 213 l-135 197 26 39 27 38 22 -27 c12 -15 80 -100 150 -190 70 -89 132 -159 137 -156 13 7 13 6 -139 199 -74 94 -139 175 -143 181 -10 12 16 54 34 54 7 0 81 -69 165 -154z m748 -401 c-72 -64 -287 -167 -301 -144 -8 11 3 29 17 29 22 0 159 73 234 125 55 39 81 52 89 44 7 -8 -4 -24 -39 -54z m228 -613 c6 -10 -23 -71 -49 -103 -23 -29 -78 -69 -94 -69 -22 0 -10 28 23 54 19 14 49 48 67 76 32 49 43 58 53 42z"/>
 <path d="M4225 4100 c-7 -11 202 -360 216 -360 18 0 6 24 -87 177 -121 198 -120 197 -129 183z"/>
 </g>
<g id="layer106" fill="#f8e16d" stroke="none">
 <path d="M1758 9285 c-143 -24 -274 -81 -448 -195 -136 -90 -701 -515 -792 -596 -109 -98 -195 -205 -242 -303 -35 -74 -40 -94 -44 -172 -5 -104 6 -156 54 -257 46 -96 122 -172 201 -202 52 -20 71 -21 183 -17 104 4 154 12 295 48 156 39 181 43 300 43 121 1 134 -1 187 -26 59 -27 98 -73 98 -114 0 -41 -56 -131 -132 -210 -143 -149 -359 -306 -803 -584 -236 -148 -292 -187 -360 -255 -110 -111 -187 -247 -231 -410 -26 -97 -27 -370 -1 -465 59 -220 209 -388 392 -436 74 -20 208 -17 301 6 99 25 238 93 330 162 40 29 151 125 248 213 209 188 304 262 404 311 88 42 195 67 254 58 246 -38 338 -341 178 -582 -75 -113 -164 -179 -433 -326 -252 -137 -339 -203 -409 -310 -70 -108 -96 -252 -67 -375 56 -243 311 -402 561 -350 113 24 209 80 508 297 140 102 273 162 356 162 60 0 134 -21 165 -48 27 -22 30 -30 26 -63 -7 -54 -56 -120 -171 -233 -198 -195 -397 -351 -874 -683 -525 -365 -717 -516 -940 -736 -346 -341 -502 -605 -502 -846 0 -254 169 -472 410 -532 90 -23 267 -16 385 15 144 37 232 85 480 262 402 286 596 410 802 513 340 169 529 169 612 -1 44 -89 51 -189 21 -277 -51 -151 -152 -265 -480 -537 -229 -191 -357 -317 -419 -414 -138 -213 -98 -439 115 -654 76 -77 172 -129 284 -152 113 -24 330 -15 485 20 311 70 892 309 1490 611 546 277 964 526 1685 1009 207 138 479 319 605 402 367 241 568 397 746 580 149 154 223 268 255 396 42 162 -34 286 -231 379 -107 50 -192 77 -505 160 -422 112 -546 160 -647 252 -75 69 -98 115 -97 197 2 149 77 264 353 545 114 116 228 237 253 270 168 221 180 394 38 535 -66 67 -143 102 -235 108 -112 7 -204 -22 -453 -142 -119 -57 -248 -114 -286 -125 -120 -37 -261 -24 -341 31 -40 27 -55 56 -55 107 0 160 347 478 956 877 96 63 254 166 352 230 412 270 590 436 649 606 10 30 14 69 11 128 -5 101 -35 177 -92 233 -52 50 -110 67 -225 67 -115 0 -192 -17 -445 -100 -177 -57 -298 -84 -341 -75 -11 2 -37 7 -58 10 -41 7 -100 52 -122 96 -70 134 26 441 235 759 114 175 189 360 205 511 27 249 -138 372 -441 327 -89 -14 -119 -24 -260 -90 -87 -42 -182 -83 -211 -92 -104 -34 -222 -13 -291 51 -31 30 -34 37 -30 75 3 24 24 84 47 134 27 60 41 106 41 133 l0 41 -669 0 -669 0 -7 -66 c-4 -36 -4 -69 1 -74 5 -4 27 -13 49 -20 109 -34 178 -92 264 -220 134 -200 207 -461 218 -775 11 -314 -39 -561 -177 -874 -86 -198 -116 -404 -107 -741 9 -315 38 -534 148 -1134 51 -273 62 -351 63 -446 1 -103 -2 -121 -25 -177 l-26 -61 158 -160 c99 -100 159 -168 159 -180 0 -18 9 -22 68 -29 116 -14 222 -5 300 24 9 4 -20 -36 -64 -88 -83 -97 -403 -485 -510 -617 l-61 -76 29 -40 c72 -100 84 -265 27 -389 -25 -57 -24 -94 7 -154 44 -90 154 -168 254 -180 57 -7 83 13 100 76 14 54 2 98 -63 226 -29 55 -53 103 -55 108 -2 4 29 -9 69 -28 41 -19 79 -35 85 -35 7 0 62 -34 124 -76 215 -146 280 -162 381 -95 94 63 185 92 394 127 174 29 225 29 283 0 145 -73 264 -301 336 -644 36 -171 38 -165 -27 -157 -97 12 -221 -33 -372 -135 -38 -26 -164 -122 -280 -214 -470 -373 -694 -488 -889 -457 -188 30 -371 187 -507 435 l-44 80 -70 13 c-115 21 -207 73 -305 172 -70 70 -94 103 -133 181 -73 148 -98 260 -104 465 -4 137 -2 183 11 235 25 100 64 169 130 235 70 70 136 104 268 141 100 27 166 52 174 66 4 7 -91 174 -112 197 -2 2 -16 -2 -30 -10 -26 -13 -28 -12 -65 31 -21 25 -69 97 -105 161 l-66 117 -67 0 c-117 1 -201 41 -288 135 -84 93 -153 242 -408 882 -492 1237 -890 2381 -966 2778 -19 99 -20 120 -9 206 17 145 92 506 162 786 l63 250 135 22 c153 26 517 73 559 73 27 0 28 3 34 57 3 31 4 60 1 65 -3 4 -195 8 -427 8 -274 0 -492 5 -622 15 -239 18 -462 18 -567 0z m3818 -5170 c-72 -64 -287 -167 -301 -144 -8 11 3 29 17 29 22 0 159 73 234 125 55 39 81 52 89 44 7 -8 -4 -24 -39 -54z m228 -613 c6 -10 -23 -71 -49 -103 -23 -29 -78 -69 -94 -69 -22 0 -10 28 23 54 19 14 49 48 67 76 32 49 43 58 53 42z"/>
 <path d="M4610 4611 c0 -19 291 -382 301 -375 5 3 9 7 9 9 0 7 -292 370 -301 373 -5 2 -9 -1 -9 -7z"/>
 <path d="M4536 4521 c-3 -4 18 -42 47 -82 29 -41 91 -129 137 -196 46 -68 88 -123 93 -123 5 0 6 7 3 16 -8 20 -256 383 -267 389 -4 3 -10 1 -13 -4z"/>
 <path d="M4457 4413 c-8 -13 246 -414 256 -404 8 8 -222 393 -243 406 -5 3 -11 2 -13 -2z"/>
 <path d="M4371 4308 c0 -18 232 -391 242 -390 4 1 8 5 8 8 2 9 -236 394 -243 394 -5 0 -8 -6 -7 -12z"/>
 <path d="M4296 4202 c-3 -6 48 -94 114 -197 75 -118 122 -182 125 -173 4 9 -41 87 -106 189 -124 194 -124 195 -133 181z"/>
 <path d="M4225 4100 c-7 -11 202 -360 216 -360 18 0 6 24 -87 177 -121 198 -120 197 -129 183z"/>
 </g>
<g id="layer107" fill="#e0e0e0" stroke="none">
 <path d="M1758 9285 c-143 -24 -274 -81 -448 -195 -136 -90 -701 -515 -792 -596 -109 -98 -195 -205 -242 -303 -35 -74 -40 -94 -44 -172 -5 -104 6 -156 54 -257 46 -96 122 -172 201 -202 52 -20 71 -21 183 -17 104 4 154 12 295 48 156 39 181 43 300 43 121 1 134 -1 187 -26 59 -27 98 -73 98 -114 0 -41 -56 -131 -132 -210 -143 -149 -359 -306 -803 -584 -236 -148 -292 -187 -360 -255 -110 -111 -187 -247 -231 -410 -26 -97 -27 -370 -1 -465 59 -220 209 -388 392 -436 74 -20 208 -17 301 6 99 25 238 93 330 162 40 29 151 125 248 213 209 188 304 262 404 311 88 42 195 67 254 58 246 -38 338 -341 178 -582 -75 -113 -164 -179 -433 -326 -252 -137 -339 -203 -409 -310 -70 -108 -96 -252 -67 -375 56 -243 311 -402 561 -350 113 24 209 80 508 297 140 102 273 162 356 162 60 0 134 -21 165 -48 27 -22 30 -30 26 -63 -7 -54 -56 -120 -171 -233 -198 -195 -397 -351 -874 -683 -525 -365 -717 -516 -940 -736 -346 -341 -502 -605 -502 -846 0 -254 169 -472 410 -532 90 -23 267 -16 385 15 144 37 232 85 480 262 402 286 596 410 802 513 340 169 529 169 612 -1 44 -89 51 -189 21 -277 -51 -151 -152 -265 -480 -537 -229 -191 -357 -317 -419 -414 -138 -213 -98 -439 115 -654 76 -77 172 -129 284 -152 113 -24 330 -15 485 20 311 70 892 309 1490 611 546 277 964 526 1685 1009 207 138 479 319 605 402 367 241 568 397 746 580 149 154 223 268 255 396 42 162 -34 286 -231 379 -107 50 -192 77 -505 160 -422 112 -546 160 -647 252 -75 69 -98 115 -97 197 2 149 77 264 353 545 114 116 228 237 253 270 168 221 180 394 38 535 -66 67 -143 102 -235 108 -112 7 -204 -22 -453 -142 -119 -57 -248 -114 -286 -125 -120 -37 -261 -24 -341 31 -40 27 -55 56 -55 107 0 160 347 478 956 877 96 63 254 166 352 230 412 270 590 436 649 606 10 30 14 69 11 128 -5 101 -35 177 -92 233 -52 50 -110 67 -225 67 -115 0 -192 -17 -445 -100 -177 -57 -298 -84 -341 -75 -11 2 -37 7 -58 10 -41 7 -100 52 -122 96 -70 134 26 441 235 759 114 175 189 360 205 511 27 249 -138 372 -441 327 -89 -14 -119 -24 -260 -90 -87 -42 -182 -83 -211 -92 -104 -34 -222 -13 -291 51 -31 30 -34 37 -30 75 3 24 24 84 47 134 27 60 41 106 41 133 l0 41 -669 0 -669 0 -7 -66 c-4 -36 -4 -69 1 -74 5 -4 27 -13 49 -20 109 -34 178 -92 264 -220 134 -200 207 -461 218 -775 11 -314 -39 -561 -177 -874 -86 -198 -116 -404 -107 -741 9 -315 38 -534 148 -1134 51 -273 62 -351 63 -446 1 -103 -2 -121 -25 -177 l-26 -61 158 -160 c99 -100 159 -168 159 -180 0 -18 9 -22 68 -29 88 -10 180 -8 245 7 44 11 61 22 108 73 46 49 63 60 88 60 53 0 82 -40 191 -271 56 -120 104 -218 105 -220 1 -1 46 11 100 29 136 43 134 47 82 -168 l-41 -171 84 -219 c46 -120 91 -243 101 -273 11 -36 22 -54 31 -51 7 2 45 6 84 9 61 3 77 1 121 -22 146 -73 265 -300 337 -644 36 -171 38 -165 -27 -157 -97 12 -221 -33 -372 -135 -38 -26 -164 -122 -280 -214 -470 -373 -694 -488 -889 -457 -188 30 -371 187 -507 435 l-44 80 -70 13 c-115 21 -207 73 -305 172 -70 70 -94 103 -133 181 -73 148 -98 260 -104 465 -4 137 -2 183 11 235 25 100 64 169 130 235 70 70 136 104 268 141 100 27 166 52 174 66 4 7 -91 174 -112 197 -2 2 -16 -2 -30 -10 -26 -13 -28 -12 -65 31 -21 25 -69 97 -105 161 l-66 117 -67 0 c-117 1 -201 41 -288 135 -84 93 -153 242 -408 882 -492 1237 -890 2381 -966 2778 -19 99 -20 120 -9 206 17 145 92 506 162 786 l63 250 135 22 c153 26 517 73 559 73 27 0 28 3 34 57 3 31 4 60 1 65 -3 4 -195 8 -427 8 -274 0 -492 5 -622 15 -239 18 -462 18 -567 0z"/>
 </g>

</svg>