<!DOCTYPE svg PUBLIC "-//W3C//DTD SVG 20010904//EN" "http://www.w3.org/TR/2001/REC-SVG-20010904/DTD/svg10.dtd">
<svg version="1.0" xmlns="http://www.w3.org/2000/svg" width="512px" height="512px" viewBox="0 0 5120 5120" preserveAspectRatio="xMidYMid meet">
<g id="layer101" fill="#000000" stroke="none">
 <path d="M2355 5114 c-611 -90 -1096 -460 -1325 -1011 -71 -169 -110 -347 -126 -560 l-6 -93 -38 0 c-221 0 -427 -164 -485 -387 -21 -81 -21 -406 0 -488 57 -218 265 -384 483 -385 l42 0 0 -383 c0 -507 10 -584 100 -772 55 -114 122 -208 202 -281 l55 -50 -5 -81 c-10 -168 62 -283 243 -393 161 -97 351 -160 625 -206 129 -22 577 -31 748 -15 495 47 902 195 1140 416 116 107 216 285 264 468 18 68 22 111 22 252 1 182 -12 266 -60 407 -23 69 -24 81 -24 355 l0 283 48 0 c222 1 429 165 487 385 21 83 21 407 0 490 -58 223 -265 385 -490 385 l-42 0 -6 123 c-17 378 -180 753 -451 1034 -245 256 -521 410 -863 484 -78 17 -139 22 -303 24 -113 2 -218 1 -235 -1z m457 -143 c317 -55 583 -194 819 -430 221 -222 339 -435 416 -751 25 -100 26 -121 30 -467 l5 -363 -65 0 c-70 0 -93 -12 -101 -53 -3 -12 -7 -173 -10 -357 -6 -440 -21 -561 -83 -683 -29 -57 -91 -128 -139 -158 -49 -30 -52 -58 -15 -138 17 -37 41 -106 52 -151 l21 -84 -23 -19 c-32 -27 -111 -62 -184 -83 -54 -16 -143 -19 -860 -25 -440 -3 -813 -10 -830 -13 -16 -4 -61 -14 -100 -23 -70 -16 -197 -64 -220 -83 -26 -21 -134 156 -142 233 -6 54 17 149 58 235 39 82 40 109 3 139 -200 165 -225 261 -240 928 -5 248 -9 303 -22 318 -12 13 -31 17 -84 17 l-68 0 0 243 c1 384 18 539 82 737 72 223 202 433 373 605 210 210 478 355 761 414 132 27 137 28 306 30 105 1 178 -4 260 -18z m-1912 -2151 l0 -500 -32 0 c-45 0 -124 22 -176 49 -65 33 -129 103 -165 179 l-32 67 0 206 0 205 38 76 c64 131 190 213 330 217 l37 1 0 -500z m3507 461 c80 -38 146 -105 186 -189 l32 -67 0 -205 0 -205 -32 -67 c-36 -76 -100 -146 -165 -179 -52 -27 -131 -49 -175 -49 l-33 0 0 501 0 502 62 -7 c36 -3 89 -19 125 -35z m-3333 -718 c13 -528 38 -675 137 -819 17 -26 50 -64 71 -85 l40 -38 -25 -63 c-76 -190 -57 -328 67 -502 l44 -61 -34 -40 c-18 -22 -41 -57 -50 -78 l-17 -38 -35 33 c-87 84 -174 239 -214 383 -22 79 -22 92 -26 828 -3 729 -3 747 16 747 18 0 19 -14 26 -267z m3006 -340 l0 -608 -32 -55 c-34 -61 -163 -194 -178 -185 -6 3 -10 16 -10 28 0 27 -22 105 -46 169 l-18 46 57 61 c77 84 132 199 152 316 19 117 35 339 35 490 0 202 11 345 27 345 11 0 13 -105 13 -607z m64 -844 c6 -35 3 -39 -46 -84 -74 -67 -230 -168 -329 -214 -292 -135 -526 -159 -1184 -121 -594 34 -833 21 -1016 -54 -35 -15 -71 -30 -79 -33 -8 -3 3 13 24 35 49 52 152 106 253 134 76 22 97 22 883 28 767 7 809 8 898 28 241 54 393 131 517 264 33 35 63 61 66 58 4 -3 9 -21 13 -41z m18 -331 c-27 -105 -361 -268 -682 -332 -277 -56 -396 -57 -795 -5 -377 48 -492 59 -655 59 -181 0 -306 -18 -420 -59 -89 -33 -125 -55 -188 -115 l-42 -40 0 28 c0 39 97 133 180 173 195 95 384 109 1005 73 606 -35 835 -21 1104 66 113 37 304 135 406 209 l90 65 3 -44 c2 -24 -1 -59 -6 -78z m-66 -265 c-24 -63 -101 -178 -161 -239 -209 -214 -601 -358 -1098 -405 -192 -18 -568 -7 -727 21 -247 43 -427 107 -571 202 -75 49 -77 51 -67 79 15 43 101 115 165 139 131 49 176 55 408 54 201 0 247 -4 540 -43 280 -38 344 -44 515 -44 163 -1 215 2 315 21 252 48 448 109 590 186 92 50 100 52 91 29z"/>
 <path d="M2140 4510 c-29 -29 -25 -58 16 -115 186 -260 189 -562 7 -828 -41 -59 -45 -71 -37 -95 12 -34 54 -55 86 -43 13 5 42 35 65 67 76 110 125 228 142 342 l6 47 146 0 146 1 17 -78 c29 -134 112 -305 177 -363 26 -24 78 -24 95 0 23 32 16 65 -31 134 -85 129 -125 256 -125 401 0 155 38 273 125 395 49 69 57 111 27 138 -10 10 -31 17 -46 17 -77 0 -213 -255 -233 -437 l-8 -68 -70 -7 c-38 -4 -101 -4 -140 0 l-70 7 -17 85 c-20 106 -53 196 -101 283 -71 126 -129 165 -177 117z"/>
 <path d="M1865 3066 c-170 -41 -297 -178 -327 -354 -32 -191 69 -380 249 -464 129 -61 298 -48 421 32 71 45 113 95 154 180 59 122 49 298 -23 412 -103 161 -292 238 -474 194z m224 -146 c65 -28 143 -112 165 -176 37 -109 8 -231 -74 -314 -191 -190 -515 -54 -513 215 1 220 219 362 422 275z"/>
 <path d="M1916 2688 c-34 -48 -7 -108 48 -108 41 0 66 26 66 68 0 40 -23 62 -65 62 -24 0 -39 -7 -49 -22z"/>
 <path d="M3060 3069 c-107 -21 -240 -121 -289 -217 -64 -125 -67 -276 -7 -396 77 -157 219 -246 390 -246 338 0 541 351 378 653 -84 157 -282 243 -472 206z m227 -155 c106 -51 168 -152 167 -274 0 -89 -24 -148 -86 -209 -115 -116 -289 -121 -408 -14 -93 83 -128 196 -96 306 53 183 253 274 423 191z"/>
 <path d="M3107 2692 c-22 -25 -21 -75 1 -95 25 -22 75 -21 95 1 22 25 21 75 -1 95 -25 22 -75 21 -95 -1z"/>
 <path d="M1722 1948 c-17 -23 -23 -57 -13 -77 14 -24 402 -333 437 -346 19 -7 32 -5 52 6 22 12 27 22 27 54 0 39 0 40 -213 207 -179 141 -218 168 -246 168 -19 0 -38 -6 -44 -12z"/>
 <path d="M3335 1928 c-11 -6 -116 -69 -233 -141 -227 -138 -244 -154 -220 -205 10 -21 22 -28 49 -30 32 -3 66 15 260 133 123 75 227 139 231 143 4 4 10 19 13 34 5 21 1 33 -19 52 -27 28 -50 32 -81 14z"/>
 </g>

</svg>