<!DOCTYPE svg PUBLIC "-//W3C//DTD SVG 20010904//EN" "http://www.w3.org/TR/2001/REC-SVG-20010904/DTD/svg10.dtd">
<svg version="1.0" xmlns="http://www.w3.org/2000/svg" width="512px" height="512px" viewBox="0 0 5120 5120" preserveAspectRatio="xMidYMid meet">
<g id="layer101" fill="#000000" stroke="none">
 <path d="M2355 5114 c-611 -90 -1096 -460 -1325 -1011 -71 -169 -110 -347 -126 -560 l-6 -93 -38 0 c-221 0 -427 -164 -485 -387 -21 -81 -21 -406 0 -488 57 -218 265 -384 483 -385 l42 0 0 -383 c0 -507 10 -584 100 -772 55 -114 122 -208 202 -281 l55 -50 -5 -81 c-10 -168 62 -283 243 -393 169 -102 370 -166 665 -212 58 -9 189 -13 410 -13 286 1 342 4 469 23 424 67 762 205 969 397 116 107 216 285 264 468 18 68 22 111 22 252 1 182 -12 266 -60 407 -23 69 -24 81 -24 355 l0 283 48 0 c222 1 429 165 487 385 21 83 21 407 0 490 -58 223 -265 385 -490 385 l-42 0 -6 123 c-17 378 -180 753 -451 1034 -245 256 -521 410 -863 484 -78 17 -139 22 -303 24 -113 2 -218 1 -235 -1z m457 -143 c317 -55 583 -194 819 -430 180 -181 285 -345 363 -570 72 -207 78 -255 83 -653 l5 -358 -65 0 c-70 0 -93 -12 -101 -53 -3 -12 -7 -173 -10 -357 -6 -440 -21 -561 -83 -683 -29 -57 -91 -128 -139 -158 -49 -30 -52 -58 -15 -138 17 -37 41 -106 52 -151 l21 -84 -23 -19 c-32 -27 -111 -62 -184 -83 -54 -16 -142 -19 -865 -24 -714 -6 -813 -9 -880 -24 -93 -22 -203 -60 -245 -85 l-33 -19 -35 47 c-51 67 -89 144 -94 194 -6 54 17 149 58 235 39 82 40 109 3 139 -201 165 -225 259 -240 928 -5 248 -9 303 -22 318 -12 13 -31 17 -84 17 l-68 0 0 243 c1 384 18 539 82 737 72 223 202 433 373 605 210 210 478 355 761 414 132 27 137 28 306 30 105 1 178 -4 260 -18z m-1912 -2151 l0 -500 -32 0 c-45 0 -124 22 -176 49 -65 33 -129 103 -165 179 l-32 67 0 206 0 205 38 76 c64 131 190 213 330 217 l37 1 0 -500z m3507 461 c80 -38 146 -105 186 -189 l32 -67 0 -205 0 -205 -32 -67 c-36 -76 -100 -146 -165 -179 -52 -27 -131 -49 -175 -49 l-33 0 0 501 0 502 62 -7 c36 -3 89 -19 125 -35z m-3333 -718 c15 -601 47 -742 206 -900 l42 -42 -25 -63 c-76 -190 -57 -328 67 -502 l44 -61 -34 -40 c-18 -22 -41 -57 -50 -78 l-17 -38 -35 33 c-87 84 -174 239 -214 383 -22 79 -22 92 -26 828 -3 729 -3 747 16 747 18 0 19 -14 26 -267z m3006 -344 l0 -611 -46 -69 c-46 -70 -150 -172 -166 -163 -4 3 -8 15 -8 27 0 27 -22 105 -46 169 l-18 46 57 61 c77 84 132 199 152 316 19 117 35 339 35 490 0 202 11 345 27 345 11 0 13 -105 13 -611z m64 -840 c6 -35 3 -39 -46 -84 -74 -67 -230 -168 -329 -214 -292 -135 -526 -159 -1184 -121 -594 34 -833 21 -1016 -54 -35 -15 -71 -30 -79 -33 -8 -3 3 13 24 35 49 52 152 106 253 134 76 22 97 22 883 28 767 7 809 8 898 28 241 54 393 131 517 264 33 35 63 61 66 58 4 -3 9 -21 13 -41z m18 -331 c-27 -105 -361 -268 -682 -332 -276 -56 -394 -57 -795 -5 -379 49 -492 59 -655 59 -181 0 -306 -18 -420 -59 -89 -33 -125 -55 -188 -115 l-42 -40 0 28 c0 39 97 133 180 173 195 95 384 109 1005 73 606 -35 835 -21 1104 66 113 37 304 135 406 209 l90 65 3 -44 c2 -24 -1 -59 -6 -78z m-66 -265 c-24 -63 -101 -178 -161 -239 -209 -213 -600 -357 -1100 -405 -184 -18 -569 -7 -725 21 -246 43 -428 108 -571 202 -75 49 -77 51 -67 79 15 43 101 115 165 139 131 49 176 55 408 54 201 0 247 -4 540 -43 280 -38 344 -44 515 -44 163 -1 215 2 315 21 252 48 448 109 590 186 92 50 100 52 91 29z"/>
 <path d="M2425 3994 c-480 -23 -938 -183 -1177 -411 -62 -60 -74 -96 -40 -125 43 -39 63 -32 164 54 198 169 546 298 908 338 144 16 452 13 598 -6 357 -45 670 -173 862 -351 44 -40 67 -55 90 -55 73 -2 86 69 24 134 -193 202 -597 368 -989 407 -120 12 -343 19 -440 15z"/>
 <path d="M1865 3066 c-170 -41 -297 -178 -327 -354 -32 -191 69 -380 249 -464 129 -61 298 -48 421 32 71 45 113 95 154 180 27 56 33 79 36 160 3 78 0 106 -18 159 -73 218 -294 341 -515 287z m224 -146 c65 -28 143 -112 165 -176 37 -109 8 -231 -74 -314 -191 -190 -515 -54 -513 215 1 220 219 362 422 275z"/>
 <path d="M1790 2657 c-32 -16 -40 -79 -14 -108 37 -41 114 -9 114 46 0 27 -40 75 -62 75 -7 0 -24 -6 -38 -13z"/>
 <path d="M3025 3033 c-167 -60 -269 -189 -282 -355 -10 -132 33 -244 128 -333 194 -182 513 -130 637 104 111 208 27 464 -186 564 -57 26 -81 32 -157 34 -67 3 -103 -1 -140 -14z m246 -146 c142 -73 194 -229 124 -367 -90 -176 -322 -204 -453 -55 -78 89 -91 204 -35 306 52 96 136 147 245 148 45 1 69 -5 119 -32z"/>
 <path d="M3226 2747 c-21 -15 -25 -80 -6 -102 17 -20 84 -19 101 1 20 24 16 84 -6 100 -24 18 -66 18 -89 1z"/>
 <path d="M1666 2069 c-31 -24 -35 -68 -8 -92 25 -23 489 -187 528 -187 34 0 64 28 64 61 0 40 -38 60 -288 149 -139 49 -256 90 -261 90 -4 0 -20 -9 -35 -21z"/>
 <path d="M3336 2025 c-16 -9 -123 -73 -239 -143 -148 -90 -212 -134 -219 -152 -20 -53 36 -105 88 -81 64 29 455 275 464 291 14 27 12 45 -7 68 -25 29 -53 34 -87 17z"/>
 </g>

</svg>