<!DOCTYPE svg PUBLIC "-//W3C//DTD SVG 20010904//EN" "http://www.w3.org/TR/2001/REC-SVG-20010904/DTD/svg10.dtd">
<svg version="1.0" xmlns="http://www.w3.org/2000/svg" width="512px" height="512px" viewBox="0 0 5120 5120" preserveAspectRatio="xMidYMid meet">
<g id="layer101" fill="#000000" stroke="none">
 <path d="M2305 5113 c-398 -49 -723 -154 -1023 -329 -679 -397 -1137 -1064 -1259 -1834 -26 -164 -26 -616 0 -780 67 -424 234 -814 501 -1170 81 -108 327 -360 431 -442 399 -312 826 -489 1325 -548 128 -15 457 -12 600 5 1128 140 2032 1017 2216 2151 22 134 30 522 14 667 -38 357 -153 708 -327 1007 -411 702 -1105 1163 -1906 1265 -108 14 -485 19 -572 8z m552 -188 c414 -55 796 -210 1133 -461 135 -101 373 -339 474 -474 316 -425 476 -905 476 -1430 0 -525 -160 -1005 -476 -1430 -101 -136 -340 -375 -474 -474 -341 -253 -718 -406 -1133 -461 -153 -20 -441 -20 -594 0 -412 54 -795 210 -1133 461 -135 100 -374 339 -474 474 -251 338 -407 721 -461 1133 -20 153 -20 441 0 594 54 413 211 797 461 1133 98 131 338 372 466 468 338 252 722 411 1133 466 141 19 457 20 602 1z"/>
 <path d="M1174 2733 c-62 -12 -88 -102 -43 -149 l22 -24 659 0 658 0 0 -1000 0 -1001 25 -24 c34 -35 96 -35 130 0 l25 24 0 1056 c0 738 -3 1062 -11 1077 -26 48 -32 48 -761 47 -376 -1 -693 -4 -704 -6z"/>
 </g>

</svg>