<!DOCTYPE svg PUBLIC "-//W3C//DTD SVG 20010904//EN" "http://www.w3.org/TR/2001/REC-SVG-20010904/DTD/svg10.dtd">
<svg version="1.0" xmlns="http://www.w3.org/2000/svg" width="512px" height="512px" viewBox="0 0 5120 5120" preserveAspectRatio="xMidYMid meet">
<g id="layer101" fill="#3e0cc7" stroke="none">
 <path d="M2226 5104 c-544 -70 -1047 -313 -1445 -699 -228 -221 -386 -437 -521 -710 -116 -236 -191 -468 -237 -742 -26 -156 -26 -630 0 -786 78 -462 260 -872 542 -1221 86 -106 299 -318 402 -399 371 -293 841 -486 1305 -536 143 -16 463 -13 608 4 442 55 867 227 1229 498 109 82 380 347 464 454 287 366 475 816 532 1273 20 163 20 477 0 640 -43 350 -169 714 -350 1010 -141 232 -373 497 -585 667 -377 302 -818 490 -1290 548 -155 19 -502 18 -654 -1z m624 -310 c908 -115 1669 -791 1896 -1686 87 -344 87 -752 0 -1096 -204 -803 -836 -1434 -1639 -1638 -250 -64 -588 -83 -837 -49 -609 85 -1146 399 -1509 882 -300 399 -451 852 -451 1353 0 610 227 1158 660 1590 500 501 1177 733 1880 644z"/>
 <path d="M2180 3414 c-42 -18 -818 -787 -861 -853 -86 -133 39 -286 188 -230 15 5 189 171 386 367 l357 357 678 -677 c602 -601 681 -677 715 -684 128 -23 222 91 176 213 -13 37 -1453 1479 -1501 1504 -44 23 -90 24 -138 3z"/>
 </g>
<g id="layer102" fill="#91e1ff" stroke="none">
 <path d="M2180 3414 c-42 -18 -818 -787 -861 -853 -86 -133 39 -286 188 -230 15 5 189 171 386 367 l357 357 678 -677 c602 -601 681 -677 715 -684 128 -23 222 91 176 213 -13 37 -1453 1479 -1501 1504 -44 23 -90 24 -138 3z"/>
 </g>

</svg>